<?xml version="1.0" encoding="UTF-8"?>
<!-- Created with Inkscape (http://www.inkscape.org/) -->
<svg id="svg3138" width="24" height="24" version="1.1" xmlns="http://www.w3.org/2000/svg" xmlns:xlink="http://www.w3.org/1999/xlink">
 <defs id="defs3140">
  <linearGradient id="linearGradient6945" x1="6.3602" x2="18" y1="2.5681" y2="41.976" gradientTransform="translate(10)" gradientUnits="userSpaceOnUse" xlink:href="#linearGradient6939"/>
  <linearGradient id="linearGradient6939">
   <stop id="stop6941" style="stop-color:#babdb6" offset="0"/>
   <stop id="stop7051" style="stop-color:#ededed" offset=".24743"/>
   <stop id="stop7053" style="stop-color:#b6b9b1" offset=".53371"/>
   <stop id="stop7049" style="stop-color:#e9eae8" offset=".83192"/>
   <stop id="stop6943" style="stop-color:#b5b9b2" offset="1"/>
  </linearGradient>
  <linearGradient id="linearGradient6937" x1="15.562" x2="15.562" y1="18.873" y2="22.003" gradientTransform="translate(1)" gradientUnits="userSpaceOnUse" xlink:href="#linearGradient6931"/>
  <linearGradient id="linearGradient6931">
   <stop id="stop6933" style="stop-color:#a1a29e" offset="0"/>
   <stop id="stop6935" style="stop-color:#888a85;stop-opacity:0" offset="1"/>
  </linearGradient>
  <linearGradient id="linearGradient7039" x1="12.688" x2="12.688" y1="17.55" y2="23.322" gradientTransform="translate(10,-1)" gradientUnits="userSpaceOnUse">
   <stop id="stop6960" style="stop-color:#fff" offset="0"/>
   <stop id="stop6962" style="stop-color:#fff;stop-opacity:0" offset="1"/>
  </linearGradient>
  <linearGradient id="linearGradient6961" x1="9.0156" x2="22.226" y1="8.1773" y2="34.39" gradientTransform="translate(10)" gradientUnits="userSpaceOnUse">
   <stop id="stop6957" style="stop-color:#fff" offset="0"/>
   <stop id="stop6959" style="stop-color:#fff;stop-opacity:0" offset="1"/>
  </linearGradient>
  <linearGradient id="linearGradient6976" x1="3.8007" x2="3.8007" y1="9.5814" y2="7.9975" gradientTransform="translate(-1,-2)" gradientUnits="userSpaceOnUse">
   <stop id="stop6972" style="stop-color:#fff" offset="0"/>
   <stop id="stop6974" style="stop-color:#eeeeec;stop-opacity:0" offset="1"/>
  </linearGradient>
  <linearGradient id="linearGradient6984" x1="3.7123" x2="3.7123" y1="3.5268" y2="5.0106" gradientTransform="translate(-1)" gradientUnits="userSpaceOnUse">
   <stop id="stop6980" style="stop-color:#babdb6" offset="0"/>
   <stop id="stop6982" style="stop-color:#555753;stop-opacity:0" offset="1"/>
  </linearGradient>
  <linearGradient id="linearGradient7071" x1="20.462" x2="20.462" y1="15.327" y2="11.747" gradientTransform="matrix(1 0 0 .75 7 2.875)" gradientUnits="userSpaceOnUse">
   <stop id="stop7067" style="stop-color:#888a85" offset="0"/>
   <stop id="stop7073" style="stop-color:#cfd0ce" offset=".70408"/>
   <stop id="stop7069" style="stop-color:#888a85" offset="1"/>
  </linearGradient>
  <linearGradient id="linearGradient7043" x1="12.688" x2="12.688" y1="17.55" y2="21.501" gradientTransform="matrix(.5 0 0 1 14.5 -4)" gradientUnits="userSpaceOnUse" xlink:href="#linearGradient7033"/>
  <linearGradient id="linearGradient7033">
   <stop id="stop7035" offset="0"/>
   <stop id="stop7037" style="stop-opacity:0" offset="1"/>
  </linearGradient>
  <linearGradient id="linearGradient7047" x1="12.688" x2="12.688" y1="17.55" y2="21.501" gradientTransform="matrix(.5 0 0 1 18.5 -4)" gradientUnits="userSpaceOnUse" xlink:href="#linearGradient7033"/>
  <linearGradient id="linearGradient3136" x1="9.5312" x2="11.157" y1="17.562" y2="17.562" gradientTransform="translate(0,-1)" gradientUnits="userSpaceOnUse">
   <stop id="stop6969" style="stop-color:#fff" offset="0"/>
   <stop id="stop6971" style="stop-color:#fff;stop-opacity:0" offset="1"/>
  </linearGradient>
 </defs>
 <g id="layer1" transform="translate(0,-8)">
  <g id="g22" transform="translate(1,8)" style="enable-background:new">
   <path id="path6950" d="m16.5 0.5h-6c-2.0349 0-9.0277 1.0277-9.0277 1.0277-0.8688 0.5016-0.97227 1.4131-0.97227 2.9723h11l5 1.0312c2.2574 0 5-1.498 5-3.0312h-5v-2z" style="fill-rule:evenodd;fill:url(#linearGradient6945);stroke-width:1px;stroke:url(#linearGradient6937)"/>
   <path id="path5979" d="m0.5 6.5c0 1.5592 0.099948 2.4671 0.96875 2.9688l8.5312 1.0312c0.37316 0.18584 0.5 0.5 0.5 1v6h2v-11h-12zm15 0v11h2v-11h-2z" style="fill-rule:evenodd;fill:#babdb6;stroke-linecap:round;stroke-miterlimit:10;stroke:#888a85"/>
   <path id="path206" d="m17.5 6.5h4c0-1.3096-2.2224-2.6534-4-3v3z" style="fill-rule:evenodd;fill:#babdb6;stroke-width:1px;stroke:#888a85"/>
   <rect id="rect208" x="16.5" y="11.5" width="4" height="2" rx="0" ry="0" style="fill-rule:evenodd;fill:#eeeeec;stroke-linecap:round;stroke-miterlimit:10;stroke:#babdb6"/>
   <path id="path210" d="m16.5 0.5h-6c-2.0349 0-9.0277 1.0277-9.0277 1.0277-0.8688 0.5016-0.97227 1.4131-0.97227 2.9723h11v19h5v-17.969c2.2574 0 5-1.498 5-3.0312h-5v-2z" style="fill-rule:evenodd;fill:url(#linearGradient6945);stroke-width:1px;stroke:url(#linearGradient6937)"/>
   <path id="path212" d="m12 8v1h3v-1h-3zm0 2v1h2v-1h-2zm0 2v1h3v-1h-3zm0 2v1h2v-1h-2zm0 2v1h3v-1h-3zm0 2v1h2v-1h-2zm0 2v1h3v-1h-3z" style="fill-rule:evenodd;fill:url(#linearGradient7039);opacity:.69403"/>
   <path id="path214" d="m10.5 1.4688c-1.9658 0.20588-6.328 0.72947-8.5312 1.0625-0.47879 0.24987-0.4039 0.45252-0.4375 1h9.9688c0.5342 0.00198 0.96676 0.43455 0.96875 0.96875v19.031l3.0625-1v-17c2e-3 -0.5342 0.43455-0.96677 0.96875-0.96875 0.91362 0 2.0296-0.33622 2.8438-0.8125 0.18777-0.10984 0.14081-0.1658 0.28125-0.28125h-3.125c-0.5342-0.0019846-0.96676-0.43455-0.96875-0.96875v-1.0312h-5.0312z" style="fill:none;opacity:.77985;stroke-width:1px;stroke:url(#linearGradient6961)"/>
   <path id="path216" d="m0.5 6.5c0 1.5592 0.099948 2.4671 0.96875 2.9688l8.5312 1.0312c0.37316 0.18584 0.5 0.5 0.5 1v4h-1c-0.554 0-1 0.446-1 1s0.446 1 1 1h1 2v-11h-12zm15 0v11h2v-11h-2z" style="fill-rule:evenodd;fill:#babdb6;stroke-linecap:round;stroke-miterlimit:10;stroke:#888a85"/>
   <g id="g218" transform="translate(1,-1)" style="opacity:.62687">
    <path id="path220" d="m0.51562 8.5c0 0.50731 0.16499 0.8023 0.54688 1 3.2723 0.57304 9.3261 0.61348 9.2188 1.9375 0.17141 0.35936 0.21875 1.7279 0.21875 2.0625v-5h-9.9844z" style="fill:none;stroke-width:1px;stroke:#fff"/>
    <path id="path222" d="m10.5 18v-5.5" style="fill:none;stroke-width:1px;stroke:#fff"/>
    <path id="path224" d="m15.5 18v-9" style="fill:none;stroke-width:1px;stroke:#fff"/>
   </g>
   <path id="path226" d="m5 6v1.0312c0 0.53669-0.43206 0.96875-0.96875 0.96875h-2.3895s-0.64174-0.46004-0.64174-0.96875v-1.0312h4z" style="fill-rule:evenodd;fill:url(#linearGradient6976)"/>
   <path id="path228" d="m5 5v-1.0312c0-0.53669-0.43206-0.96875-0.96875-0.96875h-2.4208s-0.61049 0.46004-0.61049 0.96875v1.0312h4z" style="fill-rule:evenodd;fill:url(#linearGradient6984)"/>
   <rect id="rect230" x="19.5" y="10.5" width="2" height="4" rx=".48261" ry=".48261" style="fill-rule:evenodd;fill:#eeeeec;stroke-linecap:round;stroke-miterlimit:10;stroke:url(#linearGradient7071)"/>
   <rect id="rect232" x="20" y="12" width="1" height="1" style="fill-rule:evenodd;opacity:.21269"/>
   <path id="path234" d="m11 9v1h1v-1h-1zm0 2v1h1v-1h-1zm0 2v1h1v-1h-1zm0 2v1h1v-1h-1z" style="fill-rule:evenodd;fill:url(#linearGradient7043);opacity:.15672"/>
   <path id="path236" d="m16 9v1h1v-1h-1zm0 2v1h1v-1h-1zm0 2v1h1v-1h-1zm0 2v1h1v-1h-1z" style="fill-rule:evenodd;fill:url(#linearGradient7047);opacity:.1"/>
   <path id="path238" d="m9.5 16.5h2" style="fill:none;opacity:.53731;stroke-linecap:round;stroke-width:1px;stroke:url(#linearGradient3136)"/>
  </g>
 </g>
</svg>
