<?xml version="1.0" encoding="UTF-8"?>
<!-- Created with Inkscape (http://www.inkscape.org/) -->
<svg id="svg11300" width="24" height="24" version="1.0" xmlns="http://www.w3.org/2000/svg" xmlns:xlink="http://www.w3.org/1999/xlink">
 <defs id="defs3">
  <linearGradient id="linearGradient3702">
   <stop id="stop3704" style="stop-opacity:0" offset="0"/>
   <stop id="stop3710" offset=".5"/>
   <stop id="stop3706" style="stop-opacity:0" offset="1"/>
  </linearGradient>
  <linearGradient id="linearGradient3688">
   <stop id="stop3690" offset="0"/>
   <stop id="stop3692" style="stop-opacity:0" offset="1"/>
  </linearGradient>
  <radialGradient id="radialGradient6148" cx="4.993" cy="43.5" r="2.5" gradientTransform="matrix(2.2072 0 0 1.6 42.315 -13.886)" gradientUnits="userSpaceOnUse" xlink:href="#linearGradient3688"/>
  <radialGradient id="radialGradient6150" cx="4.993" cy="43.5" r="2.5" gradientTransform="matrix(2.2072 0 0 1.6 -33.529 -125.31)" gradientUnits="userSpaceOnUse" xlink:href="#linearGradient3688"/>
  <linearGradient id="linearGradient6152" x1="25.058" x2="25.058" y1="47.028" y2="39.999" gradientTransform="matrix(1.1015 0 0 1.1429 11.486 5.9998)" gradientUnits="userSpaceOnUse" xlink:href="#linearGradient3702"/>
  <radialGradient id="radialGradient6154" cx="4.993" cy="43.5" r="2.5" gradientTransform="matrix(2.014 0 0 1 41.931 12.214)" gradientUnits="userSpaceOnUse" xlink:href="#linearGradient3688"/>
  <radialGradient id="radialGradient6156" cx="4.993" cy="43.5" r="2.5" gradientTransform="matrix(2.014 0 0 1 -33.914 -99.214)" gradientUnits="userSpaceOnUse" xlink:href="#linearGradient3688"/>
  <linearGradient id="linearGradient6158" x1="25.058" x2="25.058" y1="47.028" y2="39.999" gradientTransform="matrix(1.0051 0 0 .71429 13.8 24.643)" gradientUnits="userSpaceOnUse" xlink:href="#linearGradient3702"/>
  <linearGradient id="linearGradient6164" x1="45" x2="45" y1="25" y2="48" gradientTransform="matrix(.40087 0 0 .45476 .46078 -1.0988)" gradientUnits="userSpaceOnUse">
   <stop id="stop139214" style="stop-color:#a7bce2" offset="0"/>
   <stop id="stop139216" style="stop-color:#5077b1" offset="1"/>
  </linearGradient>
  <linearGradient id="linearGradient6167" x1="37" x2="37" y1="35" y2="48" gradientTransform="matrix(.39866 0 0 .49925 -.25027 -3.2189)" gradientUnits="userSpaceOnUse">
   <stop id="stop2266" style="stop-color:#d7e866" offset="0"/>
   <stop id="stop2268" style="stop-color:#8cab2a" offset="1"/>
  </linearGradient>
  <linearGradient id="linearGradient6170" x1="29" x2="29" y1="30" y2="48" gradientTransform="matrix(.39919 0 0 .47033 -1.0766 -1.8428)" gradientUnits="userSpaceOnUse">
   <stop id="stop4105" style="stop-color:#edd563" offset="0"/>
   <stop id="stop4107" style="stop-color:#e08223" offset="1"/>
  </linearGradient>
  <linearGradient id="linearGradient6172" x1="103" x2="103" y1="40" y2="49" gradientTransform="translate(-94,-28)" gradientUnits="userSpaceOnUse">
   <stop id="stop6484" style="stop-color:#cd8033" offset="0"/>
   <stop id="stop6486" style="stop-color:#bb5e12" offset="1"/>
  </linearGradient>
  <linearGradient id="linearGradient6180" x1="29" x2="29" y1="7.9375" y2="40.938" gradientTransform="matrix(.47059 0 0 1 -1.6471 -8)" gradientUnits="userSpaceOnUse">
   <stop id="stop7964" style="stop-color:#fff" offset="0"/>
   <stop id="stop7966" style="stop-color:#fff;stop-opacity:0" offset="1"/>
  </linearGradient>
  <linearGradient id="linearGradient6193" x1="9.4142" x2="48.851" y1="9.4142" y2="34.939" gradientTransform="matrix(.51218 0 0 .55553 -2.8531 -3.2216)" gradientUnits="userSpaceOnUse">
   <stop id="stop6282" style="stop-color:#fff" offset="0"/>
   <stop id="stop6284" style="stop-color:#dcdcdc" offset="1"/>
  </linearGradient>
  <linearGradient id="linearGradient6195" x1="48.851" x2="9.4142" y1="34.939" y2="9.4142" gradientTransform="matrix(.51218 0 0 .55553 -2.8531 -3.2216)" gradientUnits="userSpaceOnUse">
   <stop id="stop6290" style="stop-color:#969696" offset="0"/>
   <stop id="stop6292" style="stop-color:#bebebe" offset="1"/>
  </linearGradient>
 </defs>
 <g id="g6197">
  <g id="g5723" transform="matrix(.57338 0 0 .625 -9.7439 -18.321)" style="enable-background:new;stroke-width:1.4049">
   <rect id="rect5725" x="53.343" y="51.714" width="5.5075" height="8" style="fill:url(#radialGradient6148);opacity:.26235"/>
   <rect id="rect5727" transform="scale(-1)" x="-22.501" y="-59.714" width="5.5075" height="8" style="fill:url(#radialGradient6150);opacity:.26235"/>
   <rect id="rect5729" x="22.501" y="51.714" width="30.842" height="8" style="fill:url(#linearGradient6152);opacity:.26235"/>
   <rect id="rect5731" x="51.994" y="53.214" width="5.0255" height="5" style="fill:url(#radialGradient6154);opacity:.4"/>
   <rect id="rect5733" transform="scale(-1)" x="-23.851" y="-58.214" width="5.0255" height="5" style="fill:url(#radialGradient6156);opacity:.4"/>
   <rect id="rect5735" x="23.851" y="53.214" width="28.143" height="5" style="fill:url(#linearGradient6158);opacity:.4"/>
  </g>
  <rect id="rect6776" x="1.5001" y="1.5001" width="21" height="15" style="fill-rule:evenodd;fill:url(#linearGradient6193);stroke-linecap:round;stroke-linejoin:round;stroke-width:1.0002;stroke:url(#linearGradient6195)"/>
  <path id="path6942" d="m3 8v1h18v-1h-18z" style="enable-background:new;fill-rule:evenodd;fill:#fed995"/>
  <path id="path6944" d="m3 11v1h18v-1h-18z" style="enable-background:new;fill-rule:evenodd;fill:#fed995"/>
  <rect id="rect6778" x="13.501" y="3.5001" width="6.9997" height="11" style="enable-background:new;fill:none;stroke-linecap:round;stroke-width:1.0003;stroke:#bebebe"/>
  <rect id="rect6782" x="3.5002" y="3.5002" width="1.9996" height="11" style="fill:none;stroke-linecap:round;stroke-width:1.0004;stroke:#bebebe"/>
  <path id="path5590" d="m4 14v1h16v-1h-16z" style="enable-background:new;fill-rule:evenodd;fill:#fed995"/>
  <rect id="rect6786" x="5.5002" y="3.5002" width="2.9997" height="11" style="enable-background:new;fill:none;stroke-linecap:round;stroke-width:1.0003;stroke:#bebebe"/>
  <rect id="rect6931" x="8.5002" y="3.5002" width="4.9997" height="11" style="enable-background:new;fill:none;stroke-linecap:round;stroke-width:1.0003;stroke:#bebebe"/>
  <path id="rect6933" d="m3 10v1h18v-1h-18z" style="enable-background:new;fill-rule:evenodd;fill:#c7af64"/>
  <path id="path6940" d="m3 7v1h18v-1h-18z" style="enable-background:new;fill-rule:evenodd;fill:#c7af64"/>
  <rect id="rect6790" x="3.5283" y="3.5283" width="16.943" height="1.9434" style="fill-rule:evenodd;fill:#deaa76;stroke-linecap:round;stroke-width:1.0566;stroke:#cd8033"/>
  <path id="path6794" d="m4 4v1h16v-1h-16z" style="fill-rule:evenodd;fill:url(#linearGradient6180);opacity:.1"/>
  <rect id="rect6796" x="5" y="2.9997" width="1" height="3.0006" style="fill-rule:evenodd;fill:#cd8033"/>
  <rect id="rect6798" transform="scale(-1,1)" x="-9" y="3" width="1" height="3.0006" style="enable-background:new;fill-rule:evenodd;fill:#cd8033"/>
  <rect id="rect6800" x="12" y="3" width="1" height="3" style="enable-background:new;fill-rule:evenodd;fill:#cd8033"/>
  <path id="path5588" d="m3 13v1h18v-1h-18z" style="enable-background:new;fill-rule:evenodd;fill:#c7af64"/>
  <path id="path6946" d="m5 9v2h2v2h-2v1h2v2h-2v1h2v2h-2v1h17v-1h-14v-10h-3z" style="enable-background:new;fill-rule:evenodd;fill:#464646;opacity:.2"/>
  <rect id="rect6824" x="9.5009" y="12.501" width="1.9983" height="7.9983" style="fill-rule:evenodd;fill:url(#linearGradient6170);stroke-linecap:round;stroke-width:1.0017;stroke:url(#linearGradient6172)"/>
  <rect id="rect6826" x="13.499" y="14.499" width="2.0023" height="6.0023" style="enable-background:new;fill-rule:evenodd;fill:url(#linearGradient6167);stroke-linecap:round;stroke-width:.99773;stroke:#42770c"/>
  <rect id="rect6828" x="17.499" y="10.499" width="2.0015" height="10.001" style="enable-background:new;fill-rule:evenodd;fill:url(#linearGradient6164);stroke-linecap:round;stroke-width:.99851;stroke:#0854a9"/>
  <path id="path6830" d="m5 9v1h1v2h-1v1h1v2h-1v1h1v2h-1v1h1v2h1.0952 14.905v-1h-14.905v-11h-2.0952z" style="fill-rule:evenodd;fill:#464646"/>
  <path id="path6913" d="m6 22v1h1v-1h-1zm2 0v1h1v-1h-1zm2 0v1h1v-1h-1zm2 0v1h1v-1h-1zm2 0v1h1v-1h-1zm2 0v1h1v-1h-1zm2 0v1h1v-1h-1zm2 0v1h1v-1h-1z" style="enable-background:new;fill-rule:evenodd;fill:#464646;opacity:.2"/>
  <path id="path6915" d="m7 22v1h1v-1h-1zm2 0v1h1v-1h-1zm2 0v1h1v-1h-1zm2 0v1h1v-1h-1zm2 0v1h1v-1h-1zm2 0v1h1v-1h-1zm2 0v1h1v-1h-1zm2 0v1h1v-1h-1z" style="enable-background:new;fill-rule:evenodd;fill:#cd8033"/>
 </g>
</svg>
