<?xml version="1.0" encoding="UTF-8" standalone="no"?>
<!-- Created with Inkscape (http://www.inkscape.org/) -->

<svg
   xmlns:dc="http://purl.org/dc/elements/1.1/"
   xmlns:cc="http://creativecommons.org/ns#"
   xmlns:rdf="http://www.w3.org/1999/02/22-rdf-syntax-ns#"
   xmlns:svg="http://www.w3.org/2000/svg"
   xmlns="http://www.w3.org/2000/svg"
   xmlns:xlink="http://www.w3.org/1999/xlink"
   xmlns:sodipodi="http://sodipodi.sourceforge.net/DTD/sodipodi-0.dtd"
   xmlns:inkscape="http://www.inkscape.org/namespaces/inkscape"
   sodipodi:docname="haguichi-node-online-relayed.svg"
   inkscape:version="0.48.3.1 r9886"
   version="1.1"
   id="svg27665"
   height="12"
   width="12">
  <defs
     id="defs27667">
    <linearGradient
       inkscape:collect="always"
       xlink:href="#linearGradient3284"
       id="linearGradient3056"
       gradientUnits="userSpaceOnUse"
       gradientTransform="matrix(54.224936,0,0,54.224936,-3518.0379,-296.2254)"
       x1="6.0000296"
       y1="15.00007"
       x2="6.0000296"
       y2="5.0000696" />
    <linearGradient
       inkscape:collect="always"
       xlink:href="#linearGradient3284"
       id="linearGradient3550"
       x1="-3226.8755"
       y1="434.4509"
       x2="-3226.8755"
       y2="96.221039"
       gradientUnits="userSpaceOnUse" />
    <linearGradient
       id="linearGradient3284">
      <stop
         style="stop-color:#1d9bc7;stop-opacity:1"
         offset="0"
         id="stop3286" />
      <stop
         style="stop-color:#94effa;stop-opacity:1"
         offset="1"
         id="stop3288" />
    </linearGradient>
    <linearGradient
       inkscape:collect="always"
       xlink:href="#linearGradient9097-0"
       id="linearGradient3249"
       x1="-3649.6609"
       y1="519.00525"
       x2="-3649.6609"
       y2="11.660477"
       gradientUnits="userSpaceOnUse" />
    <linearGradient
       id="linearGradient9097-0">
      <stop
         style="stop-color:#000000;stop-opacity:0.49634215;"
         offset="0"
         id="stop9099-4-7" />
      <stop
         style="stop-color:#000000;stop-opacity:0.41474396;"
         offset="1"
         id="stop9101-5" />
    </linearGradient>
    <linearGradient
       inkscape:collect="always"
       xlink:href="#linearGradient9097-0"
       id="linearGradient3807"
       x1="-3192.6868"
       y1="517.1524"
       x2="-3192.6868"
       y2="-25.100723"
       gradientUnits="userSpaceOnUse" />
  </defs>
  <sodipodi:namedview
     id="base"
     pagecolor="#ffffff"
     bordercolor="#666666"
     borderopacity="1.0"
     inkscape:pageopacity="0.0"
     inkscape:pageshadow="2"
     inkscape:zoom="32.000001"
     inkscape:cx="16.907408"
     inkscape:cy="2.9988792"
     inkscape:document-units="px"
     inkscape:current-layer="normal"
     showgrid="true"
     inkscape:window-width="1680"
     inkscape:window-height="998"
     inkscape:window-x="-8"
     inkscape:window-y="25"
     inkscape:window-maximized="1"
     inkscape:snap-bbox="true"
     inkscape:bbox-paths="true"
     inkscape:bbox-nodes="true"
     inkscape:snap-bbox-edge-midpoints="true"
     inkscape:snap-bbox-midpoints="true"
     inkscape:object-paths="true"
     inkscape:snap-intersection-paths="true"
     inkscape:object-nodes="true"
     inkscape:snap-smooth-nodes="true"
     inkscape:snap-midpoints="true"
     inkscape:snap-object-midpoints="true"
     inkscape:snap-center="true"
     inkscape:snap-global="true"
     showguides="false"
     inkscape:guide-bbox="true"
     fit-margin-top="0"
     fit-margin-left="0"
     fit-margin-right="0"
     fit-margin-bottom="0"
     inkscape:showpageshadow="false">
    <sodipodi:guide
       orientation="0,1"
       position="599.99998,299.99989"
       id="guide3572" />
    <sodipodi:guide
       orientation="1,0"
       position="294.41948,12.121673"
       id="guide3574" />
    <sodipodi:guide
       orientation="0,1"
       position="456.04388,599.99988"
       id="guide3576" />
    <sodipodi:guide
       orientation="0,1"
       position="-1.6147851e-05,-0.00012732285"
       id="guide3578" />
    <sodipodi:guide
       orientation="1,0"
       position="-1.6147851e-05,157.58362"
       id="guide3580" />
    <sodipodi:guide
       orientation="1,0"
       position="599.99998,121.21817"
       id="guide3582" />
    <sodipodi:guide
       orientation="0,1"
       position="599.99998,-714.34363"
       id="guide5928" />
    <sodipodi:guide
       orientation="0,1"
       position="599.99998,-414.34363"
       id="guide5930" />
    <sodipodi:guide
       orientation="0,1"
       position="599.99998,-1014.3436"
       id="guide5932" />
    <sodipodi:guide
       orientation="0,1"
       position="451.57028,524.99602"
       id="guide5294" />
    <sodipodi:guide
       orientation="0,1"
       position="451.57028,75.013473"
       id="guide5296" />
    <sodipodi:guide
       orientation="0,1"
       position="496.01498,-931.36413"
       id="guide5413" />
    <sodipodi:guide
       orientation="0,1"
       position="457.34858,-489.34393"
       id="guide5415" />
    <inkscape:grid
       type="xygrid"
       id="grid3066"
       empspacing="5"
       visible="true"
       enabled="true"
       snapvisiblegridlinesonly="true"
       originx="2.9983643e-05px"
       originy="-6.9863627e-05px" />
  </sodipodi:namedview>
  <metadata
     id="metadata27670">
    <rdf:RDF>
      <cc:Work
         rdf:about="">
        <dc:format>image/svg+xml</dc:format>
        <dc:type
           rdf:resource="http://purl.org/dc/dcmitype/StillImage" />
        <dc:title />
      </cc:Work>
    </rdf:RDF>
  </metadata>
  <g
     inkscape:label="Camada 1"
     inkscape:groupmode="layer"
     id="layer1"
     transform="translate(3364.4171,-2104.7185)">
    <g
       id="normal"
       transform="matrix(0.0184417,0,0,0.0184417,-3299.5385,2106.1814)"
       inkscape:label="#g3217">
      <rect
         y="-79.323952"
         x="-3518.0396"
         height="650.69916"
         width="650.69916"
         id="rect3219"
         style="opacity:0.00100002;fill:#ffffff;stroke:none" />
      <path
         inkscape:connector-curvature="0"
         style="fill:url(#linearGradient3056);fill-opacity:1;fill-rule:nonzero;stroke:none"
         d="m -3409.588,-25.10072 c -30.0406,0 -54.225,24.18432146 -54.225,54.224936 l 0,271.124674 c 0,30.04062 24.1844,54.22494 54.225,54.22494 l 433.7995,0 c 30.0406,0 54.2249,-24.18432 54.2249,-54.22494 l 0,-271.124674 c 0,-30.04061454 -24.1843,-54.224936 -54.2249,-54.224936 z m 162.6747,433.79948 0,54.22873 -162.6748,0 0,54.22493 433.7995,0 0,-54.22493 -162.6748,0 0,-54.22873 z"
         id="path3053"
         sodipodi:nodetypes="sssssssssccccccccc" />
      <path
         style="fill:#bcf7ff;fill-opacity:1;fill-rule:nonzero;stroke:none"
         d="m -3409.5881,-25.100723 c -30.0406,0 -54.2249,24.18432097 -54.2249,54.224936 l 0,271.124677 c 0,21.71726 13.842,38.77563 32.196,47.44682 -2.7366,-6.49175 -5.0836,-12.8242 -5.0836,-20.33435 l 0,-271.124679 c 0,-30.040615 24.1844,-54.224936 54.225,-54.224936 l 433.7995,0 c 7.5101,0 13.8426,2.3469203 20.3343,5.0835877 -8.6712,-18.3540377 -25.7296,-32.1960557 -47.4468,-32.1960557 l -433.7995,0 z m 162.6748,433.799483 0,54.22494 -162.6748,0 0,54.22493 27.1125,0 0,-27.11247 162.6748,0 0,-54.22493 81.3374,0 0,-27.11247 -108.4499,0 z m 135.5624,54.22494 0,27.11246 135.5623,0 0,-27.11246 -135.5623,0 z"
         id="path3045"
         inkscape:connector-curvature="0" />
      <path
         style="fill:url(#linearGradient3807);fill-opacity:1;fill-rule:nonzero;stroke:none"
         d="m -2953.7596,-18.322606 c 2.7367,6.491744 5.0836,12.8241974 5.0836,20.334351 l 0,271.124685 c 0,30.04062 -24.1843,54.22494 -54.2249,54.22494 l -433.7995,0 c -7.5102,0 -13.8426,-2.34693 -20.3344,-5.08359 8.6712,18.35404 25.7296,32.19605 47.4468,32.19605 l 433.7995,0 c 30.0406,0 54.225,-24.18431 54.225,-54.22493 l 0,-271.124687 c 0,-21.71726 -13.8421,-38.7756335 -32.1961,-47.446819 z m -211.8161,427.021376 0,27.11247 27.1124,0 0,-27.11247 -27.1124,0 z m 162.6748,54.22494 0,27.11246 -406.6871,0 0,27.11247 433.7995,0 0,-54.22493 -27.1124,0 z"
         id="path3041"
         inkscape:connector-curvature="0" />
    </g>
  </g>
</svg>
