<?xml version="1.0" encoding="UTF-8" standalone="no"?>
<!-- Created with Inkscape (http://www.inkscape.org/) -->

<svg
   xmlns:dc="http://purl.org/dc/elements/1.1/"
   xmlns:cc="http://creativecommons.org/ns#"
   xmlns:rdf="http://www.w3.org/1999/02/22-rdf-syntax-ns#"
   xmlns:svg="http://www.w3.org/2000/svg"
   xmlns="http://www.w3.org/2000/svg"
   xmlns:sodipodi="http://sodipodi.sourceforge.net/DTD/sodipodi-0.dtd"
   xmlns:inkscape="http://www.inkscape.org/namespaces/inkscape"
   width="15.999998"
   height="15.999979"
   id="svg13094"
   version="1.1"
   inkscape:version="0.48.3.1 r9886"
   sodipodi:docname="document-open-recent-symbolic.svg.svg">
  <sodipodi:namedview
     id="base"
     pagecolor="#ffffff"
     bordercolor="#666666"
     borderopacity="1.0"
     inkscape:pageopacity="0.0"
     inkscape:pageshadow="2"
     inkscape:zoom="32"
     inkscape:cx="9.46582"
     inkscape:cy="9.7104687"
     inkscape:document-units="px"
     inkscape:current-layer="layer1"
     showgrid="true"
     inkscape:snap-bbox="true"
     inkscape:bbox-paths="true"
     inkscape:bbox-nodes="true"
     inkscape:snap-bbox-edge-midpoints="true"
     inkscape:snap-bbox-midpoints="true"
     inkscape:object-paths="true"
     inkscape:snap-intersection-paths="true"
     inkscape:object-nodes="true"
     inkscape:snap-smooth-nodes="true"
     inkscape:snap-midpoints="true"
     inkscape:snap-object-midpoints="true"
     inkscape:snap-center="true"
     showguides="false"
     inkscape:guide-bbox="true"
     inkscape:window-width="1680"
     inkscape:window-height="985"
     inkscape:window-x="-8"
     inkscape:window-y="38"
     inkscape:window-maximized="1"
     inkscape:snap-global="true"
     fit-margin-top="0"
     fit-margin-left="0"
     fit-margin-right="0"
     fit-margin-bottom="0"
     showborder="true"
     inkscape:showpageshadow="false">
    <sodipodi:guide
       id="guide16149"
       position="6601.5878,1330.0074"
       orientation="0,1" />
    <sodipodi:guide
       id="guide16151"
       position="6374.4449,1280.9987"
       orientation="0,1" />
    <sodipodi:guide
       id="guide16153"
       position="6440.1591,1305.503"
       orientation="0,1" />
    <sodipodi:guide
       id="guide17725"
       position="6433.7306,1225.3558"
       orientation="0,1" />
    <sodipodi:guide
       id="guide9456"
       position="6931.2289,833.48607"
       orientation="1,0" />
    <sodipodi:guide
       id="guide9458"
       position="6755.4789,1198.535"
       orientation="0,1" />
    <sodipodi:guide
       id="guide9468"
       position="6526.7092,1143.6296"
       orientation="0,1" />
    <sodipodi:guide
       id="guide9470"
       position="6551.2289,1164.9996"
       orientation="0,1" />
    <sodipodi:guide
       id="guide11159"
       position="6419.2289,879.00007"
       orientation="1,0" />
    <sodipodi:guide
       id="guide13980"
       position="6732.2602,1143.0346"
       orientation="1,0" />
    <sodipodi:guide
       orientation="0,1"
       position="4878.229,-231.99989"
       id="guide3972" />
    <sodipodi:guide
       orientation="1,0"
       position="5058.229,-359.99993"
       id="guide3974" />
    <sodipodi:guide
       orientation="0,1"
       position="4752.229,-594.99983"
       id="guide3976" />
    <sodipodi:guide
       orientation="1,0"
       position="4725.229,-453.99993"
       id="guide3978" />
    <sodipodi:guide
       orientation="1,0"
       position="74.999798,1011"
       id="guide4287" />
    <sodipodi:guide
       orientation="0,1"
       position="74.999798,1011"
       id="guide4289" />
    <inkscape:grid
       type="xygrid"
       id="grid3362"
       empspacing="5"
       visible="true"
       enabled="true"
       snapvisiblegridlinesonly="true"
       originx="-4.3788262e-05px"
       originy="694.00007px" />
  </sodipodi:namedview>
  <defs
     id="defs13096" />
  <metadata
     id="metadata13099">
    <rdf:RDF>
      <cc:Work
         rdf:about="">
        <dc:format>image/svg+xml</dc:format>
        <dc:type
           rdf:resource="http://purl.org/dc/dcmitype/StillImage" />
        <dc:title />
      </cc:Work>
    </rdf:RDF>
  </metadata>
  <g
     transform="translate(8065.8735,-1185.9324)"
     id="layer1"
     inkscape:groupmode="layer"
     inkscape:label="Camada 1">
    <path
       inkscape:connector-curvature="0"
       style="fill:#b3b3b3;fill-opacity:1;stroke:none"
       d="m -8054.8735,1186.9324 -4,2 -5.6563,0 c -0.1878,0 -0.3437,0.1561 -0.3437,0.3438 l 0,0.6562 4.5,0 9.5,0 0,-2.6562 c 0,-0.2003 -0.1434,-0.3438 -0.3437,-0.3438 z m -5,4 c -2.7614,0 -5,2.2386 -5,5 0,2.7614 2.2386,5 5,5 2.7614,0 5,-2.2386 5,-5 0,-2.7614 -2.2386,-5 -5,-5 z m 3.2812,0 c 1.6329,1.0801 2.75,2.912 2.75,5 0,0.7004 -0.151,1.3728 -0.375,2 l 3.0001,0 c 0.1877,0 0.3437,-0.1561 0.3437,-0.3437 l 0,-6.6563 z m -3.2812,1 c 2.2091,0 4,1.7909 4,4 0,2.2091 -1.7909,4 -4,4 -2.2091,0 -4,-1.7909 -4,-4 0,-2.2091 1.7909,-4 4,-4 z m 0,1 c -0.176,0 -0.3327,0.034 -0.5,0.062 l 0,2.4375 0,0.5 0,0.5 3.4375,0 c 0.028,-0.1673 0.062,-0.324 0.062,-0.5 0,-0.176 -0.034,-0.3327 -0.062,-0.5 l -2.4375,0 0,-2.4375 c -0.1673,-0.028 -0.324,-0.062 -0.5,-0.062 z"
       id="path4135"
       sodipodi:nodetypes="ccsscccsscssssscscssccsssssscccccscccs" />
  </g>
</svg>
