<?xml version="1.0" encoding="UTF-8" standalone="no"?>
<!-- Created with Inkscape (http://www.inkscape.org/) -->

<svg
   xmlns:dc="http://purl.org/dc/elements/1.1/"
   xmlns:cc="http://creativecommons.org/ns#"
   xmlns:rdf="http://www.w3.org/1999/02/22-rdf-syntax-ns#"
   xmlns:svg="http://www.w3.org/2000/svg"
   xmlns="http://www.w3.org/2000/svg"
   xmlns:xlink="http://www.w3.org/1999/xlink"
   xmlns:sodipodi="http://sodipodi.sourceforge.net/DTD/sodipodi-0.dtd"
   xmlns:inkscape="http://www.inkscape.org/namespaces/inkscape"
   id="svg7384"
   height="512"
   width="512"
   version="1.1"
   inkscape:version="0.48.2 r9819"
   sodipodi:docname="system-lock-screen.svg">
  <defs
     id="defs9">
    <linearGradient
       inkscape:collect="always"
       id="linearGradient4011">
      <stop
         style="stop-color:#1b1b1b;stop-opacity:0"
         offset="0"
         id="stop4013" />
      <stop
         id="stop4019"
         offset="0.62830502"
         style="stop-color:#1b1b1b;stop-opacity:0" />
      <stop
         style="stop-color:#1b1b1b;stop-opacity:0.40650407"
         offset="1"
         id="stop4015" />
    </linearGradient>
    <linearGradient
       id="linearGradient3949"
       inkscape:collect="always">
      <stop
         id="stop3951"
         offset="0"
         style="stop-color:#7c6d81;stop-opacity:1" />
      <stop
         style="stop-color:#7c6d81;stop-opacity:0.60162602"
         offset="0.45474565"
         id="stop3953" />
      <stop
         id="stop3955"
         offset="1"
         style="stop-color:#7c6d81;stop-opacity:0" />
    </linearGradient>
    <linearGradient
       inkscape:collect="always"
       id="linearGradient3935">
      <stop
         style="stop-color:#a39aa6;stop-opacity:1;"
         offset="0"
         id="stop3937" />
      <stop
         id="stop3943"
         offset="0.57476366"
         style="stop-color:#a39aa6;stop-opacity:0.57723577" />
      <stop
         style="stop-color:#a39aa6;stop-opacity:0;"
         offset="1"
         id="stop3939" />
    </linearGradient>
    <linearGradient
       inkscape:collect="always"
       id="linearGradient4185">
      <stop
         style="stop-color:#ffffff;stop-opacity:0.40379404"
         offset="0"
         id="stop4187" />
      <stop
         style="stop-color:#ffffff;stop-opacity:1"
         offset="1"
         id="stop4189" />
    </linearGradient>
    <linearGradient
       inkscape:collect="always"
       id="linearGradient4008-4-5-2">
      <stop
         style="stop-color:#ffffff;stop-opacity:1;"
         offset="0"
         id="stop4010-1-53-3" />
      <stop
         style="stop-color:#ffffff;stop-opacity:0;"
         offset="1"
         id="stop4012-5-7-9" />
    </linearGradient>
    <radialGradient
       inkscape:collect="always"
       xlink:href="#linearGradient4011"
       id="radialGradient4031"
       gradientUnits="userSpaceOnUse"
       cx="-1141.4723"
       cy="1414.0679"
       fx="-1141.4723"
       fy="1414.0679"
       r="325.2691" />
    <radialGradient
       inkscape:collect="always"
       xlink:href="#linearGradient3949"
       id="radialGradient4033"
       gradientUnits="userSpaceOnUse"
       gradientTransform="matrix(1.0653871,0,0,1.0653871,74.868294,-109.46089)"
       cx="-1145.0006"
       cy="1674.0433"
       fx="-1145.0006"
       fy="1674.0433"
       r="325.2691" />
    <radialGradient
       inkscape:collect="always"
       xlink:href="#linearGradient3935"
       id="radialGradient4035"
       gradientUnits="userSpaceOnUse"
       gradientTransform="matrix(1.1448382,1.6220699e-7,-1.6220701e-7,1.1448383,165.84007,-176.02251)"
       cx="-1145.0006"
       cy="1215.3046"
       fx="-1145.0006"
       fy="1215.3046"
       r="325.2691" />
    <linearGradient
       inkscape:collect="always"
       xlink:href="#linearGradient4185"
       id="linearGradient4044"
       gradientUnits="userSpaceOnUse"
       gradientTransform="matrix(0.78704062,0,0,0.78704062,-1388.3528,-1095.4763)"
       x1="-2350.0449"
       y1="1989.0835"
       x2="-2350.0449"
       y2="1612.531" />
    <linearGradient
       inkscape:collect="always"
       xlink:href="#linearGradient4008-4-5-2"
       id="linearGradient4047"
       gradientUnits="userSpaceOnUse"
       gradientTransform="matrix(0.82555996,0,0,0.82555996,-2297.2908,-848.46551)"
       x1="-1357.7346"
       y1="1202.1508"
       x2="-934.18939"
       y2="1625.6959" />
    <radialGradient
       inkscape:collect="always"
       xlink:href="#linearGradient3935"
       id="radialGradient4051"
       gradientUnits="userSpaceOnUse"
       gradientTransform="matrix(0.90103415,1.2766349e-7,-1.276635e-7,0.90103424,-2210.7366,-932.53343)"
       cx="-1145.0006"
       cy="1215.3046"
       fx="-1145.0006"
       fy="1215.3046"
       r="325.2691" />
  </defs>
  <sodipodi:namedview
     pagecolor="#ffffff"
     bordercolor="#666666"
     borderopacity="1"
     objecttolerance="10"
     gridtolerance="10"
     guidetolerance="10"
     inkscape:pageopacity="0"
     inkscape:pageshadow="2"
     inkscape:window-width="1680"
     inkscape:window-height="988"
     id="namedview7"
     showgrid="false"
     inkscape:zoom="0.65186409"
     inkscape:cx="687.09712"
     inkscape:cy="290.61084"
     inkscape:window-x="-2"
     inkscape:window-y="39"
     inkscape:window-maximized="1"
     inkscape:current-layer="normal"
     fit-margin-top="0"
     fit-margin-left="0"
     fit-margin-right="0"
     fit-margin-bottom="0"
     inkscape:snap-global="false"
     showguides="false"
     inkscape:guide-bbox="true"
     inkscape:object-paths="true"
     inkscape:snap-intersection-paths="true"
     inkscape:snap-bbox="true"
     inkscape:bbox-paths="true"
     inkscape:bbox-nodes="true"
     inkscape:snap-bbox-edge-midpoints="true"
     inkscape:snap-bbox-midpoints="true"
     inkscape:object-nodes="true"
     inkscape:snap-smooth-nodes="true"
     inkscape:snap-midpoints="true"
     inkscape:snap-center="true"
     inkscape:snap-object-midpoints="true"
     inkscape:showpageshadow="false">
    <sodipodi:guide
       orientation="1,0"
       position="616.99997,-723.67457"
       id="guide4366" />
  </sodipodi:namedview>
  <metadata
     id="metadata90">
    <rdf:RDF>
      <cc:Work
         rdf:about="">
        <dc:format>image/svg+xml</dc:format>
        <dc:type
           rdf:resource="http://purl.org/dc/dcmitype/StillImage" />
        <dc:title>Gnome Symbolic Icon Theme</dc:title>
      </cc:Work>
    </rdf:RDF>
  </metadata>
  <title
     id="title9167">Gnome Symbolic Icon Theme</title>
  <g
     inkscape:label="#g3935"
     transform="translate(3495.6445,-62.932294)"
     id="normal">
    <path
       sodipodi:type="arc"
       style="fill:#292329;fill-opacity:1;fill-rule:nonzero;stroke:none"
       id="path3096"
       sodipodi:cx="-1141.4723"
       sodipodi:cy="1414.0679"
       sodipodi:rx="325.2691"
       sodipodi:ry="325.2691"
       d="m -816.20319,1414.0679 c 0,179.6411 -145.62793,325.2691 -325.26911,325.2691 -179.6412,0 -325.2691,-145.628 -325.2691,-325.2691 0,-179.6412 145.6279,-325.2691 325.2691,-325.2691 179.64118,0 325.26911,145.6279 325.26911,325.2691 z"
       transform="matrix(0.78704062,0,0,0.78704062,-2341.2594,-793.99655)" />
    <path
       transform="matrix(0.78704062,0,0,0.78704062,-2341.2594,-793.99655)"
       d="m -816.20319,1414.0679 c 0,179.6411 -145.62793,325.2691 -325.26911,325.2691 -179.6412,0 -325.2691,-145.628 -325.2691,-325.2691 0,-179.6412 145.6279,-325.2691 325.2691,-325.2691 179.64118,0 325.26911,145.6279 325.26911,325.2691 z"
       sodipodi:ry="325.2691"
       sodipodi:rx="325.2691"
       sodipodi:cy="1414.0679"
       sodipodi:cx="-1141.4723"
       id="path4003"
       style="fill:url(#radialGradient4031);fill-opacity:1;fill-rule:nonzero;stroke:none"
       sodipodi:type="arc" />
    <path
       transform="matrix(0.78704062,0,0,0.78704062,-2341.2594,-793.99655)"
       d="m -816.20319,1414.0679 c 0,179.6411 -145.62793,325.2691 -325.26911,325.2691 -179.6412,0 -325.2691,-145.628 -325.2691,-325.2691 0,-179.6412 145.6279,-325.2691 325.2691,-325.2691 179.64118,0 325.26911,145.6279 325.26911,325.2691 z"
       sodipodi:ry="325.2691"
       sodipodi:rx="325.2691"
       sodipodi:cy="1414.0679"
       sodipodi:cx="-1141.4723"
       id="path3130"
       style="opacity:0.55013547;fill:url(#radialGradient4033);fill-opacity:1;fill-rule:nonzero;stroke:none"
       sodipodi:type="arc" />
    <path
       sodipodi:type="arc"
       style="fill:url(#radialGradient4035);fill-opacity:1;fill-rule:nonzero;stroke:none"
       id="path4007"
       sodipodi:cx="-1141.4723"
       sodipodi:cy="1414.0679"
       sodipodi:rx="325.2691"
       sodipodi:ry="325.2691"
       d="m -816.20319,1414.0679 c 0,179.6411 -145.62793,325.2691 -325.26911,325.2691 -179.6412,0 -325.2691,-145.628 -325.2691,-325.2691 0,-179.6412 145.6279,-325.2691 325.2691,-325.2691 179.64118,0 325.26911,145.6279 325.26911,325.2691 z"
       transform="matrix(0.78704062,0,0,0.78704062,-2341.2594,-793.99655)" />
    <path
       inkscape:connector-curvature="0"
       style="fill:url(#radialGradient4051);fill-opacity:1;fill-rule:nonzero;stroke:none"
       d="m -3239.6445,62.932294 c -141.3849,0 -256,114.615106 -256,255.999996 0,141.38489 114.6151,256 256,256 141.3849,0 256,-114.61511 256,-256 0,-141.38489 -114.6151,-255.999996 -256,-255.999996 z m 0,6.293333 c 138.129,0 249.7066,111.577613 249.7066,249.706663 0,138.12906 -111.5776,249.70667 -249.7066,249.70667 -138.129,0 -249.7067,-111.57761 -249.7067,-249.70667 0,-138.12905 111.5777,-249.706663 249.7067,-249.706663 z"
       id="path3945" />
    <path
       inkscape:connector-curvature="0"
       id="path3106"
       d="m -3239.6445,67.332271 c -138.7616,0 -251.6267,112.838439 -251.6267,251.599999 0,138.76155 112.8651,251.6 251.6267,251.6 138.7616,0 251.6,-112.83845 251.6,-251.6 0,-138.76156 -112.8384,-251.599999 -251.6,-251.599999 z m 0,32.959999 c 120.9428,0 218.64,97.69736 218.64,218.64 0,120.94272 -97.6972,218.64 -218.64,218.64 -120.9427,0 -218.64,-97.69728 -218.64,-218.64 0,-120.94264 97.6973,-218.64 218.64,-218.64 z"
       style="font-size:medium;font-style:normal;font-variant:normal;font-weight:normal;font-stretch:normal;text-indent:0;text-align:start;text-decoration:none;line-height:normal;letter-spacing:normal;word-spacing:normal;text-transform:none;direction:ltr;block-progression:tb;writing-mode:lr-tb;text-anchor:start;baseline-shift:baseline;opacity:0.2303523;color:#000000;fill:#c6c2cb;fill-opacity:1;stroke:none;stroke-width:45.61308289;marker:none;visibility:visible;display:inline;overflow:visible;enable-background:accumulate;font-family:Sans;-inkscape-font-specification:Sans" />
    <path
       inkscape:connector-curvature="0"
       style="font-size:medium;font-style:normal;font-variant:normal;font-weight:normal;font-stretch:normal;text-indent:0;text-align:start;text-decoration:none;line-height:normal;letter-spacing:normal;word-spacing:normal;text-transform:none;direction:ltr;block-progression:tb;writing-mode:lr-tb;text-anchor:start;baseline-shift:baseline;opacity:0.40108403;color:#000000;fill:url(#linearGradient4047);fill-opacity:1;stroke:none;stroke-width:45.61308289;marker:none;visibility:visible;display:inline;overflow:visible;enable-background:accumulate;font-family:Sans;-inkscape-font-specification:Sans"
       d="m -3239.6445,62.932294 c -141.3849,0 -256,114.615106 -256,255.999996 0,141.38489 114.6151,256 256,256 141.3849,0 256,-114.61511 256,-256 0,-141.38489 -114.6151,-255.999996 -256,-255.999996 z m 0,6.293333 c 138.129,0 249.7066,111.577613 249.7066,249.706663 0,138.12906 -111.5776,249.70667 -249.7066,249.70667 -138.129,0 -249.7067,-111.57761 -249.7067,-249.70667 0,-138.12905 111.5777,-249.706663 249.7067,-249.706663 z"
       id="path3108" />
    <path
       id="path3116"
       d="m -3238.1051,192.4213 c -71.1626,0 -129.186,58.02347 -129.186,129.1861 l -19.3061,0 c 0,81.81642 66.6758,148.49206 148.4921,148.49206 81.8164,0 148.4921,-66.67564 148.4921,-148.49206 l -19.306,0 c 0,-71.16263 -58.0235,-129.1861 -129.1861,-129.1861 z m 0,32.30282 c 53.705,0 96.8833,43.17839 96.8833,96.88328 l -193.7666,0 c 0,-53.70489 43.1784,-96.88328 96.8833,-96.88328 z m 0,123.78543 c 10.2631,0 18.5993,8.31108 18.5993,18.57416 0,7.12996 -4.0251,13.33806 -9.9179,16.45427 l 9.4133,34.877 -36.1641,0 9.4133,-34.877 c -5.9012,-3.11354 -9.9181,-9.31817 -9.9181,-16.45427 0,-10.26308 8.3112,-18.57416 18.5742,-18.57416 z"
       style="font-size:medium;font-style:normal;font-variant:normal;font-weight:normal;font-stretch:normal;text-indent:0;text-align:start;text-decoration:none;line-height:normal;letter-spacing:normal;word-spacing:normal;text-transform:none;direction:ltr;block-progression:tb;writing-mode:lr-tb;text-anchor:start;baseline-shift:baseline;color:#000000;fill:url(#linearGradient4044);fill-opacity:1;stroke:none;stroke-width:88.96677399;marker:none;visibility:visible;display:inline;overflow:visible;enable-background:accumulate;font-family:Sans;-inkscape-font-specification:Sans"
       inkscape:connector-curvature="0" />
  </g>
</svg>
