<?xml version="1.0" encoding="UTF-8" standalone="no"?>
<svg
   xmlns:dc="http://purl.org/dc/elements/1.1/"
   xmlns:cc="http://creativecommons.org/ns#"
   xmlns:rdf="http://www.w3.org/1999/02/22-rdf-syntax-ns#"
   xmlns:svg="http://www.w3.org/2000/svg"
   xmlns="http://www.w3.org/2000/svg"
   xmlns:xlink="http://www.w3.org/1999/xlink"
   version="1.1"
   width="48"
   height="48"
   id="svg18157">
  <defs
     id="defs18159">
    <linearGradient
       id="linearGradient4444">
      <stop
         offset="0"
         style="stop-color:#ffffff;stop-opacity:1"
         id="stop4446" />
      <stop
         offset="0.48226315"
         style="stop-color:#ffffff;stop-opacity:0.23529412"
         id="stop4448" />
      <stop
         offset="0.50383824"
         style="stop-color:#ffffff;stop-opacity:0.15686275"
         id="stop4450" />
      <stop
         offset="1"
         style="stop-color:#ffffff;stop-opacity:0.39215687"
         id="stop4452" />
    </linearGradient>
    <linearGradient
       id="linearGradient4395">
      <stop
         style="stop-color:#000000;stop-opacity:0.19607843"
         offset="0"
         id="stop4397" />
      <stop
         style="stop-color:#000000;stop-opacity:0.31764707"
         offset="1"
         id="stop4399" />
    </linearGradient>
    <linearGradient
       id="linearGradient4673">
      <stop
         offset="0"
         style="stop-color:#ffffff;stop-opacity:1"
         id="stop4675" />
      <stop
         offset="0.1"
         style="stop-color:#ffffff;stop-opacity:0.23529412"
         id="stop4677" />
      <stop
         offset="0.99001008"
         style="stop-color:#ffffff;stop-opacity:0.15686275"
         id="stop4679" />
      <stop
         offset="1"
         style="stop-color:#ffffff;stop-opacity:0.39215687"
         id="stop4681" />
    </linearGradient>
    <linearGradient
       x1="35.792694"
       y1="17.118193"
       x2="35.792694"
       y2="43.761127"
       id="linearGradient12481"
       xlink:href="#radialGradient2444"
       gradientUnits="userSpaceOnUse"
       gradientTransform="matrix(0.76757158,0,0,0.80357132,5.5782817,8.7412722)" />
    <linearGradient
       id="linearGradient5060-820-91-9-0">
      <stop
         id="stop2681-778-5-1"
         style="stop-color:#000000;stop-opacity:1"
         offset="0" />
      <stop
         id="stop2683-2-86-2"
         style="stop-color:#000000;stop-opacity:0"
         offset="1" />
    </linearGradient>
    <linearGradient
       id="linearGradient5048-585-73-1-5">
      <stop
         id="stop2667-99-4-6"
         style="stop-color:#000000;stop-opacity:0"
         offset="0" />
      <stop
         id="stop2669-5-9-4"
         style="stop-color:#000000;stop-opacity:1"
         offset="0.5" />
      <stop
         id="stop2671-56-4-2"
         style="stop-color:#000000;stop-opacity:0"
         offset="1" />
    </linearGradient>
    <linearGradient
       x1="68.876045"
       y1="4.3915653"
       x2="68.876045"
       y2="32.746193"
       id="linearGradient12463"
       xlink:href="#linearGradient4673"
       gradientUnits="userSpaceOnUse"
       gradientTransform="matrix(0.89189031,0,0,1.0580283,-45.793073,5.3535997)" />
    <linearGradient
       id="linearGradient4646-7-4-3">
      <stop
         id="stop4648-8-0-3"
         style="stop-color:#f9f9f9;stop-opacity:1"
         offset="0" />
      <stop
         id="stop4650-1-7-3"
         style="stop-color:#d8d8d8;stop-opacity:1"
         offset="1" />
    </linearGradient>
    <linearGradient
       id="linearGradient3104-8-8-97-4-6-11-5-5">
      <stop
         id="stop3106-5-4-3-5-0-2-1-0"
         style="stop-color:#000000;stop-opacity:0.32173914"
         offset="0" />
      <stop
         id="stop3108-4-3-7-8-2-0-7-9"
         style="stop-color:#000000;stop-opacity:0.27826086"
         offset="1" />
    </linearGradient>
    <radialGradient
       id="radialGradient2444"
       gradientUnits="userSpaceOnUse"
       cy="14.113"
       cx="63.969002"
       gradientTransform="matrix(1.5647,-9.5143e-8,6.1772e-8,1.0159,-59.14917,8.1461003)"
       r="23.097">
      <stop
         id="stop3618"
         style="stop-color:#ADC980"
         offset="0" />
      <stop
         id="stop3270"
         style="stop-color:#87A752"
         offset="0.6875183" />
      <stop
         id="stop3620"
         style="stop-color:#688933"
         offset="1" />
    </radialGradient>
    <linearGradient
       xlink:href="#linearGradient3104-8-8-97-4-6-11-5-5"
       id="linearGradient4572"
       gradientUnits="userSpaceOnUse"
       gradientTransform="matrix(0.80749834,0,0,0.83374395,57.966199,-0.0698403)"
       x1="-51.786404"
       y1="53.514328"
       x2="-51.786404"
       y2="3.6336823" />
    <linearGradient
       x1="112.61407"
       y1="24.172094"
       x2="112.61407"
       y2="43.102074"
       id="linearGradient6594"
       xlink:href="#linearGradient22424-6-2"
       gradientUnits="userSpaceOnUse"
       gradientTransform="matrix(0.89189031,0,0,1.0580283,-79.031482,-2.64641)" />
    <linearGradient
       id="linearGradient22424-6-2">
      <stop
         id="stop22426-9-5"
         style="stop-color:#ffffff;stop-opacity:1"
         offset="0" />
      <stop
         id="stop22428-1-5"
         style="stop-color:#ffffff;stop-opacity:0.23529412"
         offset="0.01022492" />
      <stop
         id="stop22430-5-7"
         style="stop-color:#ffffff;stop-opacity:0.15686275"
         offset="0.99001008" />
      <stop
         id="stop22432-2-2"
         style="stop-color:#ffffff;stop-opacity:0.39215687"
         offset="1" />
    </linearGradient>
    <radialGradient
       cx="605.71429"
       cy="486.64789"
       r="117.14286"
       fx="605.71429"
       fy="486.64789"
       id="radialGradient6306"
       xlink:href="#linearGradient5060-820-91-9-0"
       gradientUnits="userSpaceOnUse"
       gradientTransform="matrix(-0.03079083,0,0,0.02470588,23.292462,31.941628)" />
    <radialGradient
       cx="605.71429"
       cy="486.64789"
       r="117.14286"
       fx="605.71429"
       fy="486.64789"
       id="radialGradient6309"
       xlink:href="#linearGradient5060-820-91-9-0"
       gradientUnits="userSpaceOnUse"
       gradientTransform="matrix(0.03079083,0,0,0.02470588,24.512862,31.941628)" />
    <linearGradient
       x1="302.85715"
       y1="366.64789"
       x2="302.85715"
       y2="609.50507"
       id="linearGradient6312"
       xlink:href="#linearGradient5048-585-73-1-5"
       gradientUnits="userSpaceOnUse"
       gradientTransform="matrix(0.07938856,0,0,0.02470588,-4.790638,31.941628)" />
    <linearGradient
       x1="63.412205"
       y1="18.215551"
       x2="63.412205"
       y2="21.215551"
       id="linearGradient6318"
       xlink:href="#linearGradient4646-7-4-3"
       gradientUnits="userSpaceOnUse"
       gradientTransform="translate(-50.940884,-1.2e-5)" />
    <linearGradient
       id="linearGradient3600-4">
      <stop
         id="stop3602-7"
         style="stop-color:#f4f4f4;stop-opacity:1"
         offset="0" />
      <stop
         id="stop3604-6"
         style="stop-color:#dbdbdb;stop-opacity:1"
         offset="1" />
    </linearGradient>
    <linearGradient
       xlink:href="#linearGradient4395"
       id="linearGradient4401"
       x1="28.965153"
       y1="0.46078908"
       x2="28.965153"
       y2="26.65082"
       gradientUnits="userSpaceOnUse" />
    <linearGradient
       xlink:href="#linearGradient4444"
       id="linearGradient4442"
       gradientUnits="userSpaceOnUse"
       gradientTransform="matrix(1.0884716,0,0,1.0986411,0.93066642,-29.442714)"
       x1="24.842693"
       y1="28.462992"
       x2="24.842693"
       y2="47.618858" />
    <linearGradient
       xlink:href="#linearGradient3600-4"
       id="linearGradient4491"
       gradientUnits="userSpaceOnUse"
       gradientTransform="matrix(0.62856997,0,0,0.60839392,1.819652,5.539392)"
       x1="37.386997"
       y1="-7.5610518"
       x2="37.386997"
       y2="25.726822" />
  </defs>
  <metadata
     id="metadata18162">
    <rdf:RDF>
      <cc:Work
         rdf:about="">
        <dc:format>image/svg+xml</dc:format>
        <dc:type
           rdf:resource="http://purl.org/dc/dcmitype/StillImage" />
        <dc:title />
      </cc:Work>
    </rdf:RDF>
  </metadata>
  <path
     style="color:#000000;clip-rule:nonzero;display:inline;overflow:visible;visibility:visible;opacity:1;isolation:auto;mix-blend-mode:normal;color-interpolation:sRGB;color-interpolation-filters:linearRGB;solid-color:#000000;solid-opacity:1;fill:url(#linearGradient6318);fill-opacity:1;fill-rule:nonzero;stroke:none;stroke-width:0.99992168;stroke-linecap:butt;stroke-linejoin:miter;stroke-miterlimit:4;stroke-dasharray:none;stroke-dashoffset:0;stroke-opacity:1;marker:none;color-rendering:auto;image-rendering:auto;shape-rendering:auto;text-rendering:auto;enable-background:accumulate;filter-blend-mode:normal;filter-gaussianBlur-deviation:0"
     d="M 3.5,9 C 3.223,9 3,9.223 3,9.5 l 0,16 C 3,25.777 3.223,26 3.5,26 l 41,0 c 0.277,0 0.5,-0.223 0.5,-0.5 l 0,-13 C 45,12.223 44.777,12 44.5,12 L 24,12 C 22,12 20,9 19,9 Z"
     id="rect4574" />
  <path
     d="m 3.5094139,8.5 c -0.6902,0.0077 -1.0001413,0.3421001 -1.0004,1 l -0.00901,17 43.0000001,0 0.0032,-13.993 c 1.5e-4,-0.658 -0.554,-1.008 -1.244,-1 l -20.256,0 c -2.047,0 -3.499,-3.007 -5,-3.007 z"
     style="color:#000000;clip-rule:nonzero;display:inline;overflow:visible;visibility:visible;opacity:0.8;isolation:auto;mix-blend-mode:normal;color-interpolation:sRGB;color-interpolation-filters:linearRGB;solid-color:#000000;solid-opacity:1;fill:none;fill-opacity:1;fill-rule:nonzero;stroke:url(#linearGradient4572);stroke-width:1;stroke-linecap:butt;stroke-linejoin:miter;stroke-miterlimit:4;stroke-dasharray:none;stroke-dashoffset:0;stroke-opacity:1;marker:none;color-rendering:auto;image-rendering:auto;shape-rendering:auto;text-rendering:auto;enable-background:accumulate"
     id="path3468-2" />
  <path
     style="color:#000000;display:inline;overflow:visible;visibility:visible;fill:none;stroke:url(#linearGradient12463);stroke-width:1;stroke-linecap:round;stroke-linejoin:round;stroke-miterlimit:4;stroke-dasharray:none;stroke-dashoffset:0;stroke-opacity:1;marker:none;enable-background:accumulate"
     d="m 3.5097656,9.5097656 0,15.9804684 40.9804684,0 0,-12.980468 -20.490234,0 c -1.255319,0 -2.313786,-0.855456 -3.207031,-1.621094 C 20.346346,10.505853 19.940397,10.131683 19.607422,9.8710938 19.274447,9.6105046 18.994681,9.5097656 19,9.5097656 Z"
     id="rect4251-9-21-7" />
  <rect
     x="5"
     y="10"
     width="13"
     height="2"
     ry="1"
     rx="1"
     style="display:block;fill:#87a752"
     id="rect3562" />
  <path
     id="path5656"
     style="fill:url(#linearGradient4491);stroke:none;stroke-width:1;stroke-linejoin:miter;color:#000000;clip-rule:nonzero;display:inline;overflow:visible;visibility:visible;opacity:1;isolation:auto;mix-blend-mode:normal;color-interpolation:sRGB;color-interpolation-filters:linearRGB;solid-color:#000000;solid-opacity:1;fill-opacity:1;fill-rule:nonzero;stroke-linecap:butt;stroke-miterlimit:4;stroke-dasharray:none;stroke-dashoffset:0;stroke-opacity:1;marker:none;filter-blend-mode:normal;filter-gaussianBlur-deviation:0;color-rendering:auto;image-rendering:auto;shape-rendering:auto;text-rendering:auto;enable-background:accumulate"
     d="M 13,13.496 24.028,0.99600033 35,13.496 l -5.5,0 0,23.5 -11,-0.074 0,-23.426 -5.5,0 z" />
  <path
     id="path5656-8"
     style="fill:none;stroke:url(#linearGradient4401);stroke-width:0.99993002;stroke-linejoin:round"
     d="M 13,13.496 24.028,0.99600033 35,13.496 l -5.5,0 0,23.5 -11,-0.074 0,-23.426 -5.5,0 z" />
  <path
     id="path4360"
     style="opacity:1;fill:none;stroke:url(#linearGradient4442);stroke-width:1;color:#000000;clip-rule:nonzero;display:block;overflow:visible;visibility:visible;isolation:auto;mix-blend-mode:normal;color-interpolation:sRGB;color-interpolation-filters:linearRGB;solid-color:#000000;solid-opacity:1;fill-opacity:1;fill-rule:nonzero;stroke-linecap:butt;stroke-linejoin:miter;stroke-miterlimit:7;stroke-dasharray:none;stroke-dashoffset:0;stroke-opacity:1;marker:none;filter-blend-mode:normal;filter-gaussianBlur-deviation:0;color-rendering:auto;image-rendering:auto;shape-rendering:auto;text-rendering:auto;enable-background:accumulate"
     d="M 15.234,12.496 24,2.5179003 32.782,12.496 l -4.282,0 0,24.04 -9,-0.256 0,-23.784 -4.266,0 z" />
  <rect
     style="display:inline;overflow:visible;visibility:visible;opacity:0.3;fill:url(#linearGradient6312);fill-opacity:1;fill-rule:nonzero;stroke:none;stroke-width:1;marker:none"
     id="rect4173-6-1-6-8-3"
     y="41"
     x="4.7360253"
     height="6.0000005"
     width="38.333332" />
  <path
     style="display:inline;overflow:visible;visibility:visible;opacity:0.3;fill:url(#radialGradient6309);fill-opacity:1;fill-rule:nonzero;stroke:none;stroke-width:1;marker:none"
     id="path5058-7-5-8-1-4"
     d="m 43.069362,41.000198 c 0,0 0,5.99967 0,5.99967 1.5856,0.0113 3.8333,-1.34422 3.8333,-3.00022 0,-1.656 -1.7695,-2.99945 -3.8333,-2.99945 z" />
  <path
     style="display:inline;overflow:visible;visibility:visible;opacity:0.3;fill:url(#radialGradient6306);fill-opacity:1;fill-rule:nonzero;stroke:none;stroke-width:1;marker:none"
     id="path5018-8-7-1-0-4"
     d="m 4.735962,41.000198 c 0,0 0,5.99967 0,5.99967 -1.5856,0.0113 -3.8333,-1.34422 -3.8333,-3.00022 0,-1.656 1.7695,-2.99945 3.8333,-2.99945 z" />
  <path
     style="color:#000000;display:inline;overflow:visible;visibility:visible;fill:url(#linearGradient12481);fill-opacity:1;fill-rule:nonzero;stroke:none;stroke-width:1;marker:none;enable-background:accumulate;clip-rule:nonzero;opacity:1;isolation:auto;mix-blend-mode:normal;color-interpolation:sRGB;color-interpolation-filters:linearRGB;solid-color:#000000;solid-opacity:1;stroke-linecap:butt;stroke-linejoin:miter;stroke-miterlimit:4;stroke-dasharray:none;stroke-dashoffset:0;stroke-opacity:1;filter-blend-mode:normal;filter-gaussianBlur-deviation:0;color-rendering:auto;image-rendering:auto;shape-rendering:auto;text-rendering:auto"
     id="path7314-3-7"
     d="m 1.065362,21.499988 c -1.0727,0.10099 -0.4995,1.27922 -0.585,1.86617 0.3005,1.21697 1.9764,19.43387 2.1793,20.74656 0.3418,0.78845 1.5944,0.38468 2.3881,0.48477 13.1935,0 26.3871,0 39.5806,0 1.0894,-0.0871 0.6365,-1.14932 0.7897,-1.75724 0.062,-0.88455 1.7066,-14.73976 2.1793,-20.74656 -0.2512,-0.77914 -1.4877,-0.5937 -2.263,-0.5937 -14.0894,0 -30.1796,0 -44.269,0 z" />
  <path
     style="color:#000000;display:inline;overflow:visible;visibility:visible;opacity:0.5;fill:none;stroke:url(#linearGradient6594);stroke-width:1.00000012;stroke-linecap:round;stroke-linejoin:miter;stroke-miterlimit:4;stroke-dasharray:none;stroke-dashoffset:0;stroke-opacity:1;marker:none;enable-background:accumulate"
     id="path22379-0-6"
     d="m 1.504108,22.656238 c 0.02173,0.102759 -0.01119,0.259429 0,0.4375 l 0.03125,0 c 0.08755,0.354594 0.111073,0.716468 0.1875,1.34375 0.07643,0.627282 0.179267,1.422066 0.28125,2.375 0.203965,1.905868 0.445415,4.344567 0.6875,6.78125 0.242085,2.436683 0.465329,4.871394 0.65625,6.78125 0.165726,1.657825 0.260654,2.659047 0.3125,3.09375 0.282286,0.0038 0.772765,-0.04348 1.34375,0 l 0,-0.03125 39.1875,0 c -0.0175,-0.151887 -0.0242,-0.333972 0.0312,-0.6875 l -0.0312,0 c 0.002,-0.02462 0.0288,-0.157775 0.0312,-0.1875 0.0344,-0.41345 0.12159,-1.208643 0.28125,-2.625 0.17113,-1.518186 0.41643,-3.526172 0.65625,-5.6875 0.45396,-4.091183 0.90598,-8.589135 1.15625,-11.59375 -0.26313,-0.01293 -0.61515,0 -1.03125,0 l -43.78125,0 z" />
  <path
     style="color:#000000;display:inline;overflow:visible;visibility:visible;opacity:0.3;fill:none;stroke:#000000;stroke-width:1;stroke-linecap:round;stroke-linejoin:round;stroke-miterlimit:4;stroke-dasharray:none;stroke-dashoffset:0;stroke-opacity:1;marker:none;enable-background:accumulate"
     id="path7314-3-7-4"
     d="m 1.065362,21.499988 c -1.0727,0.10099 -0.4995,1.27922 -0.585,1.86617 0.3005,1.21697 1.9764,19.43387 2.1793,20.74656 0.3418,0.78845 1.5944,0.38468 2.3881,0.48477 13.1935,0 26.3871,0 39.5806,0 1.0894,-0.0871 0.6365,-1.14932 0.7897,-1.75724 0.062,-0.88455 1.7066,-14.73976 2.1793,-20.74656 -0.2512,-0.77914 -1.4877,-0.5937 -2.263,-0.5937 -14.0894,0 -30.1796,0 -44.269,0 z" />
</svg>
