<?xml version="1.0" encoding="UTF-8"?>
<!-- Created with Inkscape (http://www.inkscape.org/) -->
<svg id="svg3310" width="64" height="64" version="1.0" xmlns="http://www.w3.org/2000/svg" xmlns:xlink="http://www.w3.org/1999/xlink">
 <defs id="defs3312">
  <radialGradient id="radialGradient2528" cx="23.335" cy="41.636" r="22.627" gradientTransform="matrix(1.2816 0 0 .37562 2.0937 36.861)" gradientUnits="userSpaceOnUse">
   <stop id="stop23421" offset="0"/>
   <stop id="stop23423" style="stop-opacity:0" offset="1"/>
  </radialGradient>
  <linearGradient id="linearGradient2525" x1="-21.916" x2="-21.916" y1="3" y2="45.033" gradientTransform="matrix(1.3415 0 0 1.3415 67.234 -.19512)" gradientUnits="userSpaceOnUse">
   <stop id="stop3774" style="stop-color:#b4b4b4" offset="0"/>
   <stop id="stop3776" style="stop-color:#969696" offset="1"/>
  </linearGradient>
  <linearGradient id="linearGradient2523" x1="12.274" x2="35.391" y1="32.416" y2="14.203" gradientTransform="matrix(0 1.5714 -1.5714 0 68.3 -5.7146)" gradientUnits="userSpaceOnUse">
   <stop id="stop3265" style="stop-color:#dedbde" offset="0"/>
   <stop id="stop3267" style="stop-color:#e6e6e6" offset=".5"/>
   <stop id="stop3269" style="stop-color:#d2d2d2" offset="1"/>
  </linearGradient>
  <linearGradient id="linearGradient2519" x1="21.448" x2="21.448" y1="15.5" y2="32.509" gradientTransform="matrix(1.3125 0 0 1.3125 .5 .5)" gradientUnits="userSpaceOnUse">
   <stop id="stop3430" style="stop-color:#aaa" offset="0"/>
   <stop id="stop3432" style="stop-color:#d4d4d4" offset="1"/>
  </linearGradient>
  <linearGradient id="linearGradient2516" x1="18.776" x2="18.203" y1="4.0378" y2="45.962" gradientTransform="matrix(.58088 0 0 .58088 17.857 17.478)" gradientUnits="userSpaceOnUse" xlink:href="#linearGradient6036"/>
  <linearGradient id="linearGradient2485" x1="10.609" x2="9.7298" y1="17.886" y2="20.613" gradientUnits="userSpaceOnUse" spreadMethod="reflect" xlink:href="#linearGradient3519"/>
  <linearGradient id="linearGradient2483" x1="12.372" x2="14.609" y1="16.188" y2="13.462" gradientUnits="userSpaceOnUse" spreadMethod="reflect" xlink:href="#linearGradient3511"/>
  <linearGradient id="linearGradient2481" x1="14.085" x2="16.994" y1="13.046" y2="10.732" gradientUnits="userSpaceOnUse" spreadMethod="reflect" xlink:href="#linearGradient3503"/>
  <linearGradient id="linearGradient2479" x1="17.495" x2="21.047" y1="11.2" y2="9.7956" gradientUnits="userSpaceOnUse" spreadMethod="reflect" xlink:href="#linearGradient3495"/>
  <linearGradient id="linearGradient2477" x1="20.58" x2="24.274" y1="10.775" y2="9.8622" gradientUnits="userSpaceOnUse" spreadMethod="reflect" xlink:href="#linearGradient3487"/>
  <linearGradient id="linearGradient6036">
   <stop id="stop6038" style="stop-color:#fff" offset="0"/>
   <stop id="stop6040" style="stop-color:#fff;stop-opacity:0" offset="1"/>
  </linearGradient>
  <linearGradient id="linearGradient2507" x1="10.502" x2="48.799" y1="3.61" y2="54.698" gradientTransform="matrix(1.3385 0 0 1.3385 -.58953 -1.4636)" gradientUnits="userSpaceOnUse" xlink:href="#linearGradient6036"/>
  <linearGradient id="linearGradient3519">
   <stop id="stop3521" style="stop-color:#fcd9cd" offset="0"/>
   <stop id="stop3523" style="stop-color:#fcd9cd;stop-opacity:0" offset="1"/>
  </linearGradient>
  <linearGradient id="linearGradient3511">
   <stop id="stop3513" style="stop-color:#ebeec7" offset="0"/>
   <stop id="stop3515" style="stop-color:#ebeec7;stop-opacity:0" offset="1"/>
  </linearGradient>
  <linearGradient id="linearGradient3503">
   <stop id="stop3505" style="stop-color:#c4ebdd" offset="0"/>
   <stop id="stop3507" style="stop-color:#c4ebdd;stop-opacity:0" offset="1"/>
  </linearGradient>
  <linearGradient id="linearGradient3495">
   <stop id="stop3497" style="stop-color:#c1cbe4" offset="0"/>
   <stop id="stop3499" style="stop-color:#c1cbe4;stop-opacity:0" offset="1"/>
  </linearGradient>
  <linearGradient id="linearGradient3487">
   <stop id="stop3489" style="stop-color:#e6cde2" offset="0"/>
   <stop id="stop3491" style="stop-color:#e6cde2;stop-opacity:0" offset="1"/>
  </linearGradient>
 </defs>
 <g id="layer1">
  <path id="path23417" d="m61 52.5c0.001449 4.6943-12.983 8.5-29 8.5s-29.001-3.8057-29-8.5c-0.0014936-4.6943 12.983-8.5 29-8.5s29.001 3.8057 29 8.5z" style="fill-rule:evenodd;fill:url(#radialGradient2528);opacity:.3"/>
  <path id="path2781" d="m59.5 32c0-15.243-12.257-27.5-27.5-27.5-15.243 0-27.5 12.257-27.5 27.5-2.6e-6 15.243 12.257 27.5 27.5 27.5 15.243-3e-6 27.5-12.257 27.5-27.5zm-17 0c0 5.5377-4.8515 10.5-10.5 10.5-5.7593 0-10.5-5.0742-10.5-10.5 0-5.5366 4.519-10.5 10.5-10.5s10.5 5.0731 10.5 10.5z" style="fill:url(#linearGradient2523);stroke:url(#linearGradient2525)"/>
  <path id="path3418" d="m32 21.5c-5.796 0-10.5 4.704-10.5 10.5 0 5.796 4.704 10.5 10.5 10.5s10.5-4.704 10.5-10.5c0-5.796-4.704-10.5-10.5-10.5zm0 5.25c2.898 0 5.25 2.352 5.25 5.25s-2.352 5.25-5.25 5.25-5.25-2.352-5.25-5.25 2.352-5.25 5.25-5.25z" style="fill-opacity:.49804;fill:#fff;stroke-linejoin:round;stroke:url(#linearGradient2519)"/>
  <path id="path3281" d="m32 20.5c-6.3743 0-11.5 5.1257-11.5 11.5 0 6.3743 5.1257 11.5 11.5 11.5 6.3743 0 11.5-5.1257 11.5-11.5 0-6.3743-5.1257-11.5-11.5-11.5z" style="fill:none;opacity:.8;stroke:url(#linearGradient2516)"/>
  <g id="g3527" transform="matrix(1.3333 0 0 1.3333 -1.6e-6 .058893)">
   <path id="path3296" transform="matrix(.9996 .028243 -.028243 .9996 .69241 -.67083)" d="m15.857 5.7308 4.7681 10.613c1.0354-0.45856 2.1703-0.71875 3.375-0.71875 0.03206 0 0.06178-3.6e-4 0.09375 0l0.01426-11.62c-2.9422-0.070687-5.543 0.65729-8.2511 1.726h1e-6z" style="fill:url(#linearGradient2477);opacity:.8"/>
   <path id="path3308" d="m12.121 7.906 6.931 9.3601c0.91311-0.66976 1.9659-1.1671 3.1426-1.4252 0.03132-0.0069 0.06026-0.01359 0.09157-0.02009l-2.4295-11.395c-2.889 0.56132-5.3195 1.8556-7.7357 3.4797z" style="fill:url(#linearGradient2479);opacity:.8"/>
   <path id="path3310" d="m8.2524 11.647 9.2137 7.1558c0.70865-0.88326 1.5969-1.6361 2.6667-2.19 0.02847-0.01474 0.05469-0.02872 0.08325-0.0431l-5.3502-10.319c-2.6453 1.2899-4.7 3.2018-6.6135 5.3959z" style="fill:url(#linearGradient2481);opacity:.8"/>
   <path id="path3312" d="m5.6329 16.074c7.1748 2.2422 7.8503 7.0315 12.777 1.7541l-7.9097-8.696c-2.2213 1.9306-3.5867 4.3272-4.8671 6.9418z" style="fill:url(#linearGradient2483);opacity:.8"/>
   <path id="path3314" d="m7.1553 13.193c-1.1831 1.752-1.9077 3.6364-2.5251 5.6439l11.339 2.9754c0.21551-0.763 0.51805-1.5148 0.96875-2.2188 0.01729-0.027 0.04496-0.06702 0.0625-0.09375l-9.8447-6.3068z" style="fill:url(#linearGradient2485);opacity:.8"/>
  </g>
  <path id="path3272" d="m32 5.5c-14.689 0-26.5 11.811-26.5 26.5 0 14.689 11.811 26.5 26.5 26.5s26.5-11.811 26.5-26.5c0-14.689-11.811-26.5-26.5-26.5z" style="fill:none;opacity:.4;stroke:url(#linearGradient2507)"/>
  <g id="g3297" transform="matrix(-1.3333 0 0 -1.3333 64 64.047)">
   <path id="path3299" transform="matrix(.9996 .028243 -.028243 .9996 .69241 -.67083)" d="m15.857 5.7308 4.7681 10.613c1.0354-0.45856 2.1703-0.71875 3.375-0.71875 0.03206 0 0.06178-3.6e-4 0.09375 0l0.01426-11.62c-2.9422-0.070687-5.543 0.65729-8.2511 1.726h1e-6z" style="fill:url(#linearGradient2477);opacity:.8"/>
   <path id="path3301" d="m12.121 7.906 6.931 9.3601c0.91311-0.66976 1.9659-1.1671 3.1426-1.4252 0.03132-0.0069 0.06026-0.01359 0.09157-0.02009l-2.4295-11.395c-2.889 0.56132-5.3195 1.8556-7.7357 3.4797z" style="fill:url(#linearGradient2479);opacity:.8"/>
   <path id="path3303" d="m8.2524 11.647 9.2137 7.1558c0.70865-0.88326 1.5969-1.6361 2.6667-2.19 0.02847-0.01474 0.05469-0.02872 0.08325-0.0431l-5.3502-10.319c-2.6453 1.2899-4.7 3.2018-6.6135 5.3959z" style="fill:url(#linearGradient2481);opacity:.8"/>
   <path id="path3305" d="m5.6329 16.074c7.1748 2.2422 7.8503 7.0315 12.777 1.7541l-7.9097-8.696c-2.2213 1.9306-3.5867 4.3272-4.8671 6.9418z" style="fill:url(#linearGradient2483);opacity:.8"/>
   <path id="path3307" d="m7.1553 13.193c-1.1831 1.752-1.9077 3.6364-2.5251 5.6439l11.339 2.9754c0.21551-0.763 0.51805-1.5148 0.96875-2.2188 0.01729-0.027 0.04496-0.06702 0.0625-0.09375l-9.8447-6.3068z" style="fill:url(#linearGradient2485);opacity:.8"/>
  </g>
 </g>
</svg>
