<?xml version="1.0" encoding="UTF-8"?>
<!-- Created with Inkscape (http://www.inkscape.org/) -->
<svg id="svg3311" width="64" height="64" version="1.0" xmlns="http://www.w3.org/2000/svg" xmlns:xlink="http://www.w3.org/1999/xlink">
 <defs id="defs3313">
  <radialGradient id="radialGradient2484" cx="51.438" cy="-12.203" r="2.1719" gradientTransform="matrix(-1.8417 -5.8451e-8 -1.2126e-7 .92001 52.236 52.586)" gradientUnits="userSpaceOnUse" xlink:href="#linearGradient51765"/>
  <linearGradient id="linearGradient51765">
   <stop id="stop51767" offset="0"/>
   <stop id="stop51769" style="stop-opacity:0" offset="1"/>
  </linearGradient>
  <radialGradient id="radialGradient2482" cx="51.438" cy="-12.203" r="2.1719" gradientTransform="matrix(1.8417 -5.1455e-7 6.267e-7 .92001 -115.23 52.586)" gradientUnits="userSpaceOnUse" xlink:href="#linearGradient51765"/>
  <linearGradient id="linearGradient2480" x1="32.085" x2="32.085" y1="-14.402" y2="-5.5633" gradientTransform="matrix(.66551 0 0 .45188 -54.615 45.875)" gradientUnits="userSpaceOnUse">
   <stop id="stop47872" style="stop-opacity:0" offset="0"/>
   <stop id="stop47878" offset=".5"/>
   <stop id="stop47874" style="stop-opacity:0" offset="1"/>
  </linearGradient>
  <linearGradient id="linearGradient2517" x1="24" x2="24" y1="41.209" y2="44.023" gradientTransform="matrix(1.32 0 0 1.3333 .32002 1.5)" gradientUnits="userSpaceOnUse">
   <stop id="stop3178" style="stop-color:#aaa" offset="0"/>
   <stop id="stop3180" style="stop-color:#6c6c6c" offset="1"/>
  </linearGradient>
  <linearGradient id="linearGradient2514" x1="23.052" x2="23.052" y1="3" y2="42.074" gradientTransform="matrix(1.381 0 0 1.3684 -1.1428 .71055)" gradientUnits="userSpaceOnUse">
   <stop id="stop3190" style="stop-color:#404040" offset="0"/>
   <stop id="stop3192" style="stop-color:#282828" offset="1"/>
  </linearGradient>
  <radialGradient id="radialGradient2511" cx="24" cy="22.5" r="10" gradientTransform="matrix(1.4211 0 0 1.8173 -2.1052 -10.889)" gradientUnits="userSpaceOnUse">
   <stop id="stop3221" style="stop-color:#3c3c3c" offset="0"/>
   <stop id="stop3223" style="stop-color:#313131" offset="1"/>
  </radialGradient>
  <linearGradient id="linearGradient2508" x1="24" x2="24" y1="4" y2="48.301" gradientTransform="matrix(1.4211 0 0 1.3889 -2.1052 .25002)" gradientUnits="userSpaceOnUse">
   <stop id="stop3210" style="stop-color:#fff" offset="0"/>
   <stop id="stop3212" style="stop-color:#fff;stop-opacity:0" offset="1"/>
  </linearGradient>
  <linearGradient id="linearGradient2505" x1="14" x2="32" y1="2" y2="40" gradientTransform="matrix(1.5 0 0 1.4 -3.5 0)" gradientUnits="userSpaceOnUse">
   <stop id="stop3248" style="stop-color:#e6e6e6" offset="0"/>
   <stop id="stop3250" style="stop-color:#e6e6e6;stop-opacity:0" offset="1"/>
  </linearGradient>
  <linearGradient id="linearGradient2529" x1="24" x2="24" y1="37" y2="39" gradientTransform="matrix(1.4321 0 0 1.3867 -2.3704 .12667)" gradientUnits="userSpaceOnUse">
   <stop id="stop3262" style="stop-color:#333" offset="0"/>
   <stop id="stop3264" style="stop-color:#3e3e3e" offset="1"/>
  </linearGradient>
 </defs>
 <g id="layer1">
  <g id="g3423" transform="matrix(1.2667 0 0 1.7742 71.897 -15.931)">
   <rect id="rect46899" x="-42.497" y="39.367" width="22" height="3.9941" style="fill-rule:evenodd;fill:url(#linearGradient2480);opacity:.3"/>
   <path id="path48849" d="m-20.497 39.361v3.9963c2.205-0.01509 4-0.89779 4-1.9911 0-1.0933-1.795-1.9901-4-2.0052z" style="fill-rule:evenodd;fill:url(#radialGradient2482);opacity:.3"/>
   <path id="path52742" d="m-42.497 39.361v3.9963c-2.205-0.01509-4-0.89779-4-1.9911 0-1.0933 1.795-1.9901 4-2.0052z" style="fill-rule:evenodd;fill:url(#radialGradient2484);opacity:.3"/>
  </g>
  <rect id="rect3166" x="15.5" y="3.4999" width="33" height="56" rx="3" ry="3" style="fill:#e6e6e6;stroke-linejoin:round;stroke-width:.99992;stroke:url(#linearGradient2517)"/>
  <rect id="rect3184" x="17.5" y="5.5" width="29" height="52" rx="2" ry="2" style="fill:url(#linearGradient2514);stroke-linejoin:round;stroke-width:.99992;stroke:#1a1a1a"/>
  <rect id="rect3216" x="18.5" y="12.5" width="27" height="35" style="fill:url(#radialGradient2511);stroke-linejoin:round;stroke-width:.99992;stroke:#212121"/>
  <rect id="rect3196" x="18.5" y="6.5" width="27" height="50" rx="1.0055" ry="1.0016" style="fill:none;opacity:.2;stroke-linejoin:round;stroke-width:.99992;stroke:url(#linearGradient2508)"/>
  <path id="rect3238" d="m19 7v49l24-49h-24z" style="fill:url(#linearGradient2505);opacity:.15"/>
  <rect id="rect3233" x="28" y="9" width="8" height="1" rx=".5" ry=".5" style="fill:#333"/>
  <rect id="rect3254" x="15" y="14" width="1" height="1" style="fill:#7f7f7f"/>
  <rect id="rect3256" x="15" y="16" width="1" height="4" style="fill:#7f7f7f"/>
  <path id="path2523" transform="matrix(1.0721 0 0 1.1213 -2.4874 -6.9829)" d="m34.066 52.719a1.8988 1.8988 0 1 1-3.7976 0 1.8988 1.8988 0 1 1 3.7976 0z" style="fill:url(#linearGradient2529)"/>
  <rect id="rect3307" transform="rotate(90)" x="3" y="-43" width="1" height="4" style="fill:#7f7f7f"/>
  <rect id="rect3309" x="15" y="21" width="1" height="4" style="fill:#7f7f7f"/>
 </g>
</svg>
