<?xml version="1.0" encoding="UTF-8"?>
<!-- Created with Inkscape (http://www.inkscape.org/) -->
<svg id="svg3968" width="64" height="64" version="1.0" xmlns="http://www.w3.org/2000/svg" xmlns:cc="http://creativecommons.org/ns#" xmlns:dc="http://purl.org/dc/elements/1.1/" xmlns:rdf="http://www.w3.org/1999/02/22-rdf-syntax-ns#" xmlns:xlink="http://www.w3.org/1999/xlink">
 <defs id="defs3970">
  <linearGradient id="linearGradient5060">
   <stop id="stop5062" offset="0"/>
   <stop id="stop5064" style="stop-opacity:0" offset="1"/>
  </linearGradient>
  <linearGradient id="linearGradient3360" x1="302.86" x2="302.86" y1="366.65" y2="609.51" gradientTransform="matrix(3.2949 0 0 2.5953 -2121.9 -1254.2)" gradientUnits="userSpaceOnUse">
   <stop id="stop5050" style="stop-opacity:0" offset="0"/>
   <stop id="stop5056" offset=".5"/>
   <stop id="stop5052" style="stop-opacity:0" offset="1"/>
  </linearGradient>
  <radialGradient id="radialGradient3362" cx="605.71" cy="486.65" r="117.14" gradientTransform="matrix(3.2949 0 0 2.5953 -2121.2 -1254.2)" gradientUnits="userSpaceOnUse" xlink:href="#linearGradient5060"/>
  <radialGradient id="radialGradient3364" cx="605.71" cy="486.65" r="117.14" gradientTransform="matrix(-3.2949 0 0 2.5953 259.22 -1254.2)" gradientUnits="userSpaceOnUse" xlink:href="#linearGradient5060"/>
  <linearGradient id="linearGradient3406" x1="-282.75" x2="-362.78" y1="4.703" y2="11.719" gradientTransform="matrix(.15288 0 0 .16563 79.215 18.411)" gradientUnits="userSpaceOnUse">
   <stop id="stop3969" style="stop-color:#fff" offset="0"/>
   <stop id="stop3971" style="stop-color:#fff;stop-opacity:0" offset="1"/>
  </linearGradient>
  <linearGradient id="linearGradient3409" x1="-314.03" x2="-314.03" y1="-83.614" y2="-75.274" gradientTransform="matrix(.1466 0 0 .18944 76.647 19.534)" gradientUnits="userSpaceOnUse">
   <stop id="stop3920" offset="0"/>
   <stop id="stop3922" style="stop-color:#1e1e1e" offset="1"/>
  </linearGradient>
  <linearGradient id="linearGradient3411" x1="-305.53" x2="-305.53" y1="-78.314" y2="-85.986" gradientTransform="matrix(.1466 0 0 .18944 76.647 19.534)" gradientUnits="userSpaceOnUse">
   <stop id="stop3912" style="stop-color:#2f2f2f" offset="0"/>
   <stop id="stop3914" offset="1"/>
  </linearGradient>
  <linearGradient id="linearGradient3415" x1="-401" x2="-222.53" y1="189.65" y2="218.65" gradientTransform="matrix(.15819 0 0 .21855 79.091 6.1238)" gradientUnits="userSpaceOnUse">
   <stop id="stop3849" style="stop-color:#ababab" offset="0"/>
   <stop id="stop3851" style="stop-color:#dcdcdc;stop-opacity:0" offset="1"/>
  </linearGradient>
  <linearGradient id="linearGradient3420" x1="-389.49" x2="-175.06" y1="65.211" y2="61.538" gradientTransform="matrix(.17163 0 0 .15887 84.297 17.853)" gradientUnits="userSpaceOnUse">
   <stop id="stop3733-3" style="stop-color:#cdcdcd" offset="0"/>
   <stop id="stop3735-2" style="stop-color:#303030" offset="1"/>
  </linearGradient>
  <linearGradient id="linearGradient3423" x1="-307.51" x2="-307.33" y1="224.5" y2="-102.18" gradientTransform="matrix(.17204 0 0 .16411 84.401 18.256)" gradientUnits="userSpaceOnUse">
   <stop id="stop3900" style="stop-color:#030303" offset="0"/>
   <stop id="stop3902" style="stop-color:#383838;stop-opacity:0" offset="1"/>
  </linearGradient>
  <radialGradient id="radialGradient3426" cx="-398" cy="257.92" r="2.3125" gradientTransform="matrix(.17572 0 0 .20022 102.99 4.6237)" gradientUnits="userSpaceOnUse">
   <stop id="stop3781" style="stop-color:#5b5b5b" offset="0"/>
   <stop id="stop3783" offset="1"/>
  </radialGradient>
  <linearGradient id="linearGradient3428" x1="-396.62" x2="-399.56" y1="260.45" y2="258.26" gradientTransform="matrix(.25007 0 0 .1416 132.58 19.722)" gradientUnits="userSpaceOnUse">
   <stop id="stop3773" style="stop-color:#fff" offset="0"/>
   <stop id="stop3775" style="stop-color:#0d0d0d" offset="1"/>
  </linearGradient>
  <linearGradient id="linearGradient3434" x1="-301.94" x2="-245.24" y1="152.96" y2="134.96" gradientTransform="matrix(.15968 0 0 .16403 81.302 18.242)" gradientUnits="userSpaceOnUse">
   <stop id="stop5260" style="stop-color:#5f5f5f" offset="0"/>
   <stop id="stop5262" style="stop-color:#252525" offset="1"/>
  </linearGradient>
  <linearGradient id="linearGradient3440" x1="-393.43" x2="-221.41" y1="67.439" y2="68.025" gradientUnits="userSpaceOnUse">
   <stop id="stop3795" style="stop-color:#3f3f3f" offset="0"/>
   <stop id="stop5268" style="stop-color:#3c3c3c" offset=".36093"/>
   <stop id="stop5266" style="stop-color:#2e2e2e" offset=".66032"/>
   <stop id="stop3797" style="stop-color:#202020" offset="1"/>
  </linearGradient>
  <linearGradient id="linearGradient3442" x1="-397.06" x2="-212.12" y1="72.438" y2="72.438" gradientUnits="userSpaceOnUse">
   <stop id="stop3711" style="stop-color:#adadad" offset="0"/>
   <stop id="stop3713" style="stop-color:#434343" offset="1"/>
  </linearGradient>
 </defs>
 <metadata id="metadata3973">
  <rdf:RDF>
   <cc:Work rdf:about="">
    <dc:format>image/svg+xml</dc:format>
    <dc:type rdf:resource="http://purl.org/dc/dcmitype/StillImage"/>
   </cc:Work>
  </rdf:RDF>
 </metadata>
 <g id="layer1">
  <g id="g3444">
   <g id="g4245" transform="matrix(.016035 0 0 .012683 46.929 59.778)">
    <rect id="rect4247" x="-1726.5" y="-302.63" width="1591" height="630.29" style="fill:url(#linearGradient3360);opacity:.40206"/>
    <path id="path4249" d="m-135.53-302.61v630.26c169.68 1.1864 410.2-141.21 410.2-315.17 0-173.96-189.35-315.09-410.2-315.09z" style="fill:url(#radialGradient3362);opacity:.40206"/>
    <path id="path4251" d="m-1726.5-302.61v630.26c-169.68 1.1864-410.2-141.21-410.2-315.17 0-173.96 189.35-315.09 410.2-315.09z" style="fill:url(#radialGradient3364);opacity:.40206"/>
   </g>
   <rect id="rect4253" x="17.68" y=".97643" width="29.972" height="58.96" ry="2.063" style="fill:url(#linearGradient3434)"/>
   <g id="g4255" transform="matrix(.17749 0 0 .1631 86.449 18.266)" style="stroke-width:.10076">
    <rect id="rect4257" x="-398.44" y="-110.02" width="187.69" height="364.93" ry="12.769" style="fill:url(#linearGradient3440);stroke-width:2.9967;stroke:#000"/>
    <path id="path4259" d="m-385.66-108.31c-6.1539 0-11.062 4.9086-11.062 11.062v339.38c0 6.1539 4.9086 11.062 11.062 11.062h162.16c6.1539 0 11.031-4.9036 11.031-11.062v-339.38c0-6.1589-4.8774-11.062-11.031-11.062h-162.16z" style="fill:none;stroke-width:.073301;stroke:url(#linearGradient3442)"/>
   </g>
   <rect id="rect4265" x="32.178" y="55.781" width=".97658" height=".82408" ry=".28789" style="fill:url(#radialGradient3426);stroke-dashoffset:.06;stroke-linecap:round;stroke-linejoin:round;stroke:url(#linearGradient3428)"/>
   <path id="path4267" d="m17 36.339-0.34514 18.136v0.375c0 0.59565 0.39156 1.0833 0.87499 1.0833h28.916c0.48344 0 0.875-0.48767 0.875-1.0833l-0.40406-18.511h-29.917z" style="fill:url(#linearGradient3423)"/>
   <path id="path4269" d="m18.399 2.4856h27.243c0.45537 0 0.82199 0.45387 0.82199 1.0177v49.42c0 0.56378-0.36662 1.0177-0.82199 1.0177h-27.243c-0.45539 0-0.82199-0.45387-0.82199-1.0177v-0.35674-49.063c0-0.56378 0.36659-1.0177 0.82199-1.0177v0z" style="fill:#030303;stroke-linecap:square;stroke:url(#linearGradient3420)"/>
   <path id="path4271" d="m34.992 6.6436c-0.43642-0.003812-0.87541 0.23111-0.97395 0.58276-0.093919 0.33522 0.11256 0.6025 0.52222 0.67678 0.28518 0.051707 0.65549-0.025287 0.87182-0.18207 0.4195-0.30401 0.42089-0.80343 0.00288-0.98942-0.13213-0.058789-0.27749-0.086778-0.42297-0.088048zm-6.7587 0.0022378c-0.28312 5.403e-4 -0.57425 0.095591-0.75886 0.26862-0.4025 0.3772-0.23745 0.88932 0.31864 0.98868 0.16505 0.02949 0.43588 0.0082643 0.61072-0.047755 0.60316-0.19326 0.78792-0.8611 0.30572-1.1058-0.13909-0.070586-0.3063-0.10404-0.47621-0.10372zm3.224 0c-0.058093 3.459e-4 -0.11792 0.0041943-0.17909 0.012685-0.45465 0.063101-0.79198 0.36397-0.79198 0.70662 0 0.28289 0.2084 0.48518 0.55748 0.54097 0.3775 0.060336 0.78116-0.070586 1.0056-0.32533 0.1274-0.14461 0.17496-0.28371 0.15825-0.46412-0.026267-0.28343-0.34349-0.47325-0.75026-0.47083zm6.8702 0.040294-0.55101 0.013431-0.37548 0.57306c-0.20662 0.31518-0.37638 0.58112-0.37693 0.59097-5.33e-4 0.0098497 0.086507 0.017908 0.19351 0.017908h0.19494l0.0712-0.10745 0.071213-0.10745h0.2604 0.2604l0.020854 0.10148 0.020146 0.10148 0.47761 0.013431-0.013667-0.05447c-0.0076-0.030026-0.068013-0.29928-0.13379-0.59843l-0.1194-0.54396zm-12.539 0.0014925c-0.26014 0-0.29532 0.0048073-0.30572 0.041785-0.006453 0.022982-0.05884 0.20922-0.11652 0.41412-0.084053 0.29855-0.10503 0.40882-0.10503 0.55515v0.18281h0.13738 0.13669l0.071919-0.24474c0.03928-0.13461 0.07908-0.2706 0.08848-0.3022 0.013373-0.04504 0.03296 0.0078294 0.092786 0.24474l0.076959 0.3022h0.11797 0.11796l0.22804-0.26265c0.12556-0.1444 0.23252-0.25873 0.23737-0.2537 0.007493 0.0077647-0.093013 0.39612-0.12588 0.4865-0.012187 0.03353 0.23496 0.040048 0.39562 0.010447l0.089919-0.016416 0.099973-0.3701c0.054906-0.2035 0.12475-0.46412 0.15539-0.57903l0.056106-0.20893h-0.31578-0.31506l-0.19423 0.24101-0.1942 0.24027-0.068346-0.24027-0.0676-0.24101h-0.29421zm3.3642 0-0.024453 0.10148c-0.01376 0.055814-0.035426 0.1328-0.047466 0.17087-0.042027 0.1329-0.04052 0.13356 0.21004 0.13356 0.21009 0 0.23065 0.0039053 0.21939 0.041786-0.006814 0.022982-0.044 0.18147-0.08272 0.35219-0.038706 0.17072-0.075746 0.32949-0.082719 0.35294-0.01168 0.039318 0.005253 0.04211 0.22372 0.035816l0.23736-0.0067158 0.074093-0.29847c0.040986-0.16416 0.086226-0.33876 0.099986-0.38801l0.025186-0.089541h0.23593 0.23665l0.03956-0.17311c0.02148-0.095212 0.038293-0.18654 0.038133-0.20296-2.4e-4 -0.023217-0.15592-0.029846-0.70134-0.029846h-0.70134zm3.3678 0-0.15393 0.57007c-0.084587 0.31344-0.15392 0.58206-0.15392 0.59694 0 0.018206 0.070147 0.026862 0.21508 0.026862h0.21505l0.09064-0.34622 0.18632-0.0067152c0.22865-0.0084782 0.27233 0.021134 0.24958 0.16863-0.022613 0.14678 0.00172 0.16068 0.28341 0.16043l0.24456-7.46e-4 0.005773-0.16043c0.007173-0.20392-0.005867-0.26165-0.063306-0.28056-0.050827-0.016737-0.062693-0.059694-0.016534-0.059694 0.05144 0 0.20531-0.14918 0.23808-0.23057 0.04196-0.10415 0.040053-0.23495-0.00432-0.30518-0.073266-0.11602-0.17008-0.13282-0.77758-0.13282h-0.5589zm3.8131 0.0037304c-0.026826 1.121e-4 -0.056186 5.524e-4 -0.087039 0.0014929l-0.22442 0.0067151-0.14244 0.56112c-0.078173 0.30862-0.14291 0.57455-0.14385 0.59097-0.001333 0.023128 0.12807 0.029847 0.57329 0.029847h0.57473l0.025173-0.10148c0.01396-0.055814 0.033786-0.1364 0.0446-0.17908l0.020146-0.077602h-0.34382c-0.22345 0-0.34312-0.0083873-0.34312-0.024623 0-0.013723 0.041439-0.19623 0.092079-0.40517 0.05064-0.20894 0.092066-0.38635 0.092066-0.39398 0-0.0057245-0.056919-0.0085441-0.13739-0.008208zm-3.4283 0.2828h0.20071c0.11017 1.795e-4 0.22326 0.0070047 0.25176 0.014923 0.0684 0.019014 0.06884 0.11316 7.07e-4 0.16267-0.037813 0.027488-0.10977 0.037309-0.27621 0.037309-0.12379 0-0.22522-0.0080589-0.22514-0.017909 6.7e-5 -0.009849 0.011267-0.058201 0.024453-0.10745l0.023733-0.08954zm-4.6935 0.0014924c0.082799 0.0028875 0.16157 0.029443 0.21722 0.079094 0.13191 0.1177 0.044627 0.38879-0.15681 0.48725-0.12743 0.062291-0.21699 0.077718-0.31721 0.052978-0.22402-0.055292-0.24517-0.33057-0.039559-0.51784 0.077226-0.070348 0.18989-0.10519 0.29636-0.10148zm6.6911 7.462e-4c0.031506-0.0013714 0.064613 3.012e-4 0.099999 0.0052237 0.14852 0.020664 0.21236 0.083666 0.22083 0.21863 0.00924 0.14765-0.0674 0.27387-0.20719 0.34175-0.18838 0.091495-0.33888 0.084129-0.4474-0.021639-0.10152-0.098916-0.05848-0.3075 0.091346-0.44397 0.069733-0.063504 0.14787-0.095872 0.24241-0.099987zm-3.4606 0.0014918c0.05832 5.233e-4 0.11433 0.01089 0.16041 0.033578 0.20019 0.098538 0.14205 0.407-0.10069 0.53351-0.22543 0.11749-0.46592 0.055783-0.49921-0.12834-0.014906-0.082394 0.03264-0.22876 0.1-0.30742 0.071519-0.083576 0.21121-0.13248 0.33949-0.13133zm6.4904 0.1082 0.026613 0.093271c0.014906 0.051285 0.028506 0.11745 0.029466 0.147 0.001627 0.048795-0.009106 0.053724-0.11364 0.053724-0.063293 0-0.11508-0.0051708-0.11508-0.011939 0-0.0067691 0.038906-0.072931 0.086319-0.147l0.08632-0.13506z" style="enable-background:new;fill:#939499"/>
   <path id="path4273" transform="matrix(.17975 0 0 .1631 86.951 18.266)" d="m-385.66-108.31c-6.1539 0-11.062 4.9086-11.062 11.062v339.38c0 6.1539 4.9086 11.062 11.062 11.062h162.16c6.1539 0 11.031-4.9036 11.031-11.062v-339.38c0-6.1589-4.8774-11.062-11.031-11.062h-162.16z" style="fill:none;stroke-width:5.8404;stroke:#000"/>
   <path id="path4275" d="m16.919 55.212s0.11436-0.50016 0.17114-0.85415c0.090776-0.5657-0.11443-1.0827-0.11443-1.0827 0.36992 0.71834 1.2479 0.81901 2.1925 0.7434l24.719-0.15488-0.9548 0.44658h-23.233c-1.5843 0.21254-2.057 0.80905-1.9579 1.603-0.49109 0.12631-0.70112-0.21333-0.82171-0.70126z" style="fill:url(#linearGradient3415)"/>
   <rect id="rect4277" x="20.048" y="9.0557" width="23.816" height="38.998" ry="0" style="fill:#2d2d2d"/>
   <rect id="rect4279" x="26.706" y="3.4945" width="10.574" height="1.2056" ry=".6028" style="fill:url(#linearGradient3409);stroke:url(#linearGradient3411)"/>
   <path id="path4281" d="m20.513 2.3913c-0.40569 0-0.73097 0.46166-0.73097 1.0404v50.362 0.36749c0 0.57872 0.32528 1.0455 0.73097 1.0455h6.445c2.4373-17.605 4.1535-35.21 5.2028-52.816h-11.648z" style="fill:url(#linearGradient3406);opacity:.1"/>
   <g id="g4283" transform="matrix(.19142 0 0 .18804 128.64 9.9922)" style="stroke-width:2.6355;stroke:#b2b2b6">
    <path id="path4285" transform="matrix(.78045 0 0 .78045 -97.704 48.407)" d="m-451.84 213.4a4.331 4.331 0 1 1-8.6621 0 4.331 4.331 0 1 1 8.6621 0z" style="fill:none;stroke-width:3.3769;stroke:#b2b2b6"/>
    <path id="path4287" d="m-451.22 217.47 3.182 3.3588" style="fill:none;stroke-linecap:square;stroke-width:2.6355;stroke:#b2b2b6"/>
   </g>
   <g id="g4289" transform="matrix(.18569 0 0 .19262 127.7 8.9179)" style="stroke-width:2.6438;stroke:#b2b2b6">
    <path id="path4291" d="m-498.7 217.62v3.2072h6.1447v-3.2072" style="fill:none;stroke-width:2.6438;stroke:#b2b2b6"/>
    <path id="path4293" d="m-501.12 217.38 5.3125-5.4375 5.6875 5.6875" style="fill:none;stroke-width:2.6438;stroke:#b2b2b6"/>
    <path id="path4295" d="m-492.5 214.83v-2.7872" style="fill:none;stroke-linecap:square;stroke-width:2.6438;stroke:#b2b2b6"/>
   </g>
   <g id="g4297" transform="matrix(.16851 0 0 .1748 119.22 12.778)" style="stroke-width:2.9133;stroke:#b2b2b6">
    <path id="path4299" d="m-545.33 211.72h11.49" style="fill:none;stroke-linecap:square;stroke-width:2.9133;stroke:#b2b2b6"/>
    <path id="path4301" d="m-542.23 214.72h8.3946" style="enable-background:new;fill:none;stroke-linecap:square;stroke-width:2.9133;stroke:#b2b2b6"/>
    <path id="path4303" d="m-542.23 217.92h8.3946" style="enable-background:new;fill:none;stroke-linecap:square;stroke-width:2.9133;stroke:#b2b2b6"/>
    <path id="path4305" d="m-542.23 221.02h8.3946" style="enable-background:new;fill:none;stroke-linecap:square;stroke-width:2.9133;stroke:#b2b2b6"/>
   </g>
   <g id="g4307" transform="matrix(.19473 0 0 .19054 132.75 9.3244)" style="stroke-width:2.5958;stroke:#b2b2b6">
    <path id="path4309" d="m-571.06 216.75-2.125-2.125 2.25-2.25" style="fill:none;stroke-linecap:square;stroke-width:2.5958;stroke:#b2b2b6"/>
    <path id="path4311" d="m-571.35 221.35h3.4752" style="fill:none;stroke-linecap:square;stroke-width:2.5958;stroke:#b2b2b6"/>
    <path id="path4313" d="m-571.81 214.57h3.7172" style="enable-background:new;fill:none;stroke-linecap:square;stroke-width:2.5958;stroke:#b2b2b6"/>
    <path id="path4315" transform="translate(14.186 .54327)" d="m-581.17 214.06a2.5312 3.375 0 1 1-0.04656 6.7491" style="fill:none;stroke-linecap:square;stroke-width:2.5958;stroke:#b2b2b6"/>
   </g>
  </g>
 </g>
</svg>
