<?xml version="1.0" encoding="UTF-8"?>
<!-- Created with Inkscape (http://www.inkscape.org/) -->
<svg id="svg3795" width="48" height="48" version="1.0" xmlns="http://www.w3.org/2000/svg" xmlns:xlink="http://www.w3.org/1999/xlink">
 <defs id="defs3797">
  <radialGradient id="radialGradient2464" cx="23.335" cy="41.636" r="22.627" gradientTransform="matrix(.97227 0 0 .28724 1.3125 27.541)" gradientUnits="userSpaceOnUse">
   <stop id="stop23421" offset="0"/>
   <stop id="stop23423" style="stop-opacity:0" offset="1"/>
  </radialGradient>
  <linearGradient id="linearGradient3258" x1="12.274" x2="35.391" y1="32.416" y2="14.203" gradientTransform="matrix(0 1.1714 -1.1714 0 51.06 -4.1145)" gradientUnits="userSpaceOnUse">
   <stop id="stop3265" style="stop-color:#dedbde" offset="0"/>
   <stop id="stop3267" style="stop-color:#e6e6e6" offset=".5"/>
   <stop id="stop3269" style="stop-color:#d2d2d2" offset="1"/>
  </linearGradient>
  <linearGradient id="linearGradient3434" x1="21.448" x2="21.448" y1="15.5" y2="32.509" gradientTransform="matrix(.9375 0 0 .9375 1.5 1.5)" gradientUnits="userSpaceOnUse">
   <stop id="stop3430" style="stop-color:#aaa" offset="0"/>
   <stop id="stop3432" style="stop-color:#d4d4d4" offset="1"/>
  </linearGradient>
  <linearGradient id="linearGradient3717" x1="10.609" x2="9.7298" y1="17.886" y2="20.613" gradientUnits="userSpaceOnUse" spreadMethod="reflect" xlink:href="#linearGradient3519"/>
  <linearGradient id="linearGradient3715" x1="12.372" x2="14.609" y1="16.188" y2="13.462" gradientUnits="userSpaceOnUse" spreadMethod="reflect" xlink:href="#linearGradient3511"/>
  <linearGradient id="linearGradient3713" x1="14.085" x2="16.994" y1="13.046" y2="10.732" gradientUnits="userSpaceOnUse" spreadMethod="reflect" xlink:href="#linearGradient3503"/>
  <linearGradient id="linearGradient3711" x1="17.495" x2="21.047" y1="11.2" y2="9.7956" gradientUnits="userSpaceOnUse" spreadMethod="reflect" xlink:href="#linearGradient3495"/>
  <linearGradient id="linearGradient3709" x1="20.58" x2="24.274" y1="10.775" y2="9.8622" gradientUnits="userSpaceOnUse" spreadMethod="reflect" xlink:href="#linearGradient3487"/>
  <linearGradient id="linearGradient3519">
   <stop id="stop3521" style="stop-color:#fcd9cd" offset="0"/>
   <stop id="stop3523" style="stop-color:#fcd9cd;stop-opacity:0" offset="1"/>
  </linearGradient>
  <linearGradient id="linearGradient3511">
   <stop id="stop3513" style="stop-color:#ebeec7" offset="0"/>
   <stop id="stop3515" style="stop-color:#ebeec7;stop-opacity:0" offset="1"/>
  </linearGradient>
  <linearGradient id="linearGradient3503">
   <stop id="stop3505" style="stop-color:#c4ebdd" offset="0"/>
   <stop id="stop3507" style="stop-color:#c4ebdd;stop-opacity:0" offset="1"/>
  </linearGradient>
  <linearGradient id="linearGradient3495">
   <stop id="stop3497" style="stop-color:#c1cbe4" offset="0"/>
   <stop id="stop3499" style="stop-color:#c1cbe4;stop-opacity:0" offset="1"/>
  </linearGradient>
  <linearGradient id="linearGradient3487">
   <stop id="stop3489" style="stop-color:#e6cde2" offset="0"/>
   <stop id="stop3491" style="stop-color:#e6cde2;stop-opacity:0" offset="1"/>
  </linearGradient>
  <linearGradient id="linearGradient3766" x1="10.502" x2="48.799" y1="3.61" y2="54.698" gradientTransform="matrix(.98497 0 0 .98497 .019022 -.62415)" gradientUnits="userSpaceOnUse" xlink:href="#linearGradient6036"/>
  <linearGradient id="linearGradient3778" x1="20.019" x2="20.019" y1="3" y2="45.176" gradientUnits="userSpaceOnUse">
   <stop id="stop3774" style="stop-color:#b4b4b4" offset="0"/>
   <stop id="stop3776" style="stop-color:#969696" offset="1"/>
  </linearGradient>
  <linearGradient id="linearGradient6036">
   <stop id="stop6038" style="stop-color:#fff" offset="0"/>
   <stop id="stop6040" style="stop-color:#fff;stop-opacity:0" offset="1"/>
  </linearGradient>
  <linearGradient id="linearGradient3294" x1="18.776" x2="18.203" y1="4.0378" y2="45.962" gradientTransform="matrix(.42934 0 0 .42934 13.547 13.266)" gradientUnits="userSpaceOnUse" xlink:href="#linearGradient6036"/>
 </defs>
 <g id="layer1">
  <path id="path23417" d="m46 39.5c0.0011 3.5898-9.8489 6.5-22 6.5s-22.001-2.9102-22-6.5c-0.0011331-3.5898 9.8489-6.5 22-6.5s22.001 2.9102 22 6.5z" style="fill-rule:evenodd;fill:url(#radialGradient2464);opacity:.3"/>
  <path id="path2781" d="m44.5 24c0-11.363-9.137-20.5-20.5-20.5-11.363 0-20.5 9.137-20.5 20.5-2e-6 11.363 9.137 20.5 20.5 20.5 11.363-2e-6 20.5-9.137 20.5-20.5zm-12.5 0c0 4.623-3.377 8-8 8s-8-3.377-8-8 3.377-8 8-8 8 3.377 8 8z" style="fill:url(#linearGradient3258)"/>
  <path id="path2474" d="m24 16c-4.416 0-8 3.584-8 8s3.584 8 8 8 8-3.584 8-8-3.584-8-8-8zm0 4c2.208 0 4 1.792 4 4s-1.792 4-4 4-4-1.792-4-4 1.792-4 4-4z" style="fill:#fff;opacity:.5"/>
  <path id="path3418" d="m24 16.5c-4.14 0-7.5 3.36-7.5 7.5s3.36 7.5 7.5 7.5 7.5-3.36 7.5-7.5-3.36-7.5-7.5-7.5zm0 3.75c2.07 0 3.75 1.68 3.75 3.75s-1.68 3.75-3.75 3.75-3.75-1.68-3.75-3.75 1.68-3.75 3.75-3.75z" style="fill:none;stroke-linejoin:round;stroke:url(#linearGradient3434)"/>
  <g id="g3527">
   <path id="path3296" transform="matrix(.9996 .028243 -.028243 .9996 .69241 -.67083)" d="m24 3.5c-2.9758 0-5.7974 0.62082-8.3438 1.75l4.9688 11.094c1.0354-0.45856 2.1703-0.71875 3.375-0.71875 0.03206 0 0.06178-3.6e-4 0.09375 0v-12.125c-0.03127-1.386e-4 -0.06245 0-0.09375 0z" style="fill:url(#linearGradient3709);opacity:.8"/>
   <path id="path3308" d="m19.597 3.9975c-2.9067 0.63758-5.5298 1.8485-7.775 3.4971l7.2303 9.7715c0.91311-0.66976 1.9659-1.1671 3.1426-1.4252 0.03132-0.0069 0.06026-0.01359 0.09157-0.02009l-2.5978-11.843c-0.03058 0.00656-0.061 0.013379-0.09157 0.020086z" style="fill:url(#linearGradient3711);opacity:.8"/>
   <path id="path3310" d="m14.558 5.8449c-2.6426 1.3682-4.8629 3.2167-6.605 5.3902l9.513 7.5673c0.70865-0.88326 1.5969-1.6361 2.6667-2.19 0.02847-0.01474 0.05469-0.02872 0.08325-0.0431l-5.5746-10.768c-0.02783 0.014254-0.05545 0.02871-0.08325 0.043103z" style="fill:url(#linearGradient3713);opacity:.8"/>
   <path id="path3312" d="m10.169 8.9335c-2.1985 2.0055-3.8647 4.3657-4.9849 6.9161l11.147 4.8473c0.4559-1.0366 1.119-1.9937 2.009-2.8055 0.02369-0.02161 0.0454-0.0419 0.06926-0.06318l-8.1715-8.9578c-0.0232 0.020972-0.04613 0.042084-0.06926 0.063182z" style="fill:url(#linearGradient3715);opacity:.8"/>
   <path id="path3314" d="m6.7812 12.969c-0.016978 0.02626-0.045621 0.06739-0.0625 0.09375-1.1482 1.7935-1.9617 3.6813-2.5 5.625l11.75 3.125c0.21551-0.763 0.51805-1.5148 0.96875-2.2188 0.01729-0.027 0.04496-0.06702 0.0625-0.09375l-10.219-6.5312z" style="fill:url(#linearGradient3717);opacity:.8"/>
  </g>
  <g id="g3642" transform="matrix(-1,0,0,-1,48,48)" style="opacity:.8">
   <path id="path3644" transform="matrix(.9996 .028243 -.028243 .9996 .69241 -.67083)" d="m24 3.5c-2.9758 0-5.7974 0.62082-8.3438 1.75l4.9688 11.094c1.0354-0.45856 2.1703-0.71875 3.375-0.71875 0.03206 0 0.06178-3.6e-4 0.09375 0v-12.125c-0.03127-1.386e-4 -0.06245 0-0.09375 0z" style="fill:url(#linearGradient3709);opacity:.8"/>
   <path id="path3646" d="m19.597 3.9975c-2.9067 0.63758-5.5298 1.8485-7.775 3.4971l7.2303 9.7715c0.91311-0.66976 1.9659-1.1671 3.1426-1.4252 0.03132-0.0069 0.06026-0.01359 0.09157-0.02009l-2.5978-11.843c-0.03058 0.00656-0.061 0.013379-0.09157 0.020086z" style="fill:url(#linearGradient3711);opacity:.8"/>
   <path id="path3648" d="m14.558 5.8449c-2.6426 1.3682-4.8629 3.2167-6.605 5.3902l9.513 7.5673c0.70865-0.88326 1.5969-1.6361 2.6667-2.19 0.02847-0.01474 0.05469-0.02872 0.08325-0.0431l-5.5746-10.768c-0.02783 0.014254-0.05545 0.02871-0.08325 0.043103z" style="fill:url(#linearGradient3713);opacity:.8"/>
   <path id="path3650" d="m10.169 8.9335c-2.1985 2.0055-3.8647 4.3657-4.9849 6.9161l11.147 4.8473c0.4559-1.0366 1.119-1.9937 2.009-2.8055 0.02369-0.02161 0.0454-0.0419 0.06926-0.06318l-8.1715-8.9578c-0.0232 0.020972-0.04613 0.042084-0.06926 0.063182z" style="fill:url(#linearGradient3715);opacity:.8"/>
   <path id="path3652" d="m6.7812 12.969c-0.016978 0.02626-0.045621 0.06739-0.0625 0.09375-1.1482 1.7935-1.9617 3.6813-2.5 5.625l11.75 3.125c0.21551-0.763 0.51805-1.5148 0.96875-2.2188 0.01729-0.027 0.04496-0.06702 0.0625-0.09375l-10.219-6.5312z" style="fill:url(#linearGradient3717);opacity:.8"/>
  </g>
  <path id="path2787" d="m24 4.5c-10.809 0-19.5 8.6914-19.5 19.5 0 10.809 8.6914 19.5 19.5 19.5s19.5-8.6914 19.5-19.5c0-10.809-8.6914-19.5-19.5-19.5z" style="fill:none;opacity:.5;stroke:url(#linearGradient3766)"/>
  <path id="path3287" d="m24 3.5c-11.363 0-20.5 9.137-20.5 20.5 0 11.363 9.137 20.5 20.5 20.5 11.363 2e-6 20.5-9.137 20.5-20.5-2e-6 -11.363-9.137-20.5-20.5-20.5z" style="fill:none;stroke:url(#linearGradient3778)"/>
  <path id="path3281" d="m24 15.5c-4.7114 0-8.5 3.7886-8.5 8.5s3.7886 8.5 8.5 8.5c4.7114 0 8.5-3.7886 8.5-8.5s-3.7886-8.5-8.5-8.5z" style="fill:none;opacity:.8;stroke:url(#linearGradient3294)"/>
 </g>
 <path id="text2922" d="m7.1353 38.338c0.65834 0.10148 1.3167 0.20297 1.975 0.30445-0.66904 2.4032-3.289 3.912-5.6477 3.2114-2.2437-0.54248-2.7948-3.2267-2.4201-5.2331 0.27944-2.7765 2.8985-5.1278 5.6789-4.6035 1.3684-0.16009 3.7153 2.4921 2.401 3.139-0.87832 0.12444-1.7025 0.36418-1.7879-0.86928-1.3089-1.3946-3.5972-0.17479-4.0325 1.4763-0.54963 1.3979-0.81979 3.5815 0.74226 4.4079 1.3351 0.59623 2.7666-0.50901 3.0909-1.8333l-1e-7 -1e-6zm2.7482 3.4946c0.66484-3.2342 1.3297-6.4685 1.9945-9.7027 1.7374 0.09735 3.5619-0.2747 5.2178 0.38016 2.3028 1.2791 2.2274 4.645 1.1086 6.7253-0.89277 1.9441-3.0605 2.779-5.0601 2.5972h-3.2608zm2.2804-1.562c1.411 0.0011 3.1626 0.19596 3.976-1.2674 0.87002-1.3345 1.2411-3.3008 0.33459-4.6971-0.75282-0.85457-1.9732-0.49853-2.9723-0.57457-0.44612 2.1797-0.89223 4.3594-1.3383 6.5391zm7.6468-2.8526h3.6187c-0.1256 0.61111-0.25121 1.2222-0.37682 1.8333h-3.6187c0.1256-0.61111 0.25121-1.2222 0.37682-1.8333zm6.1005 4.4146h-1.962c0.66484-3.2342 1.3297-6.4685 1.9945-9.7027 1.8633 0.05086 3.743-0.12144 5.5925 0.13031 2.3414 0.53929 2.1597 4.3453 0.04832 5.1049-0.70122 0.31856-1.7407 0.1765-0.74835 0.98326 0.36071 0.93618 1.9931 3.0476 1.238 3.4842-0.55672-0.12645-1.482 0.26608-1.7837-0.21955-0.69425-1.3141-0.84139-3.8406-2.7552-3.7979-0.78476-0.24013-0.95986 0.28422-0.99994 0.97787-0.20809 1.0132-0.41618 2.0264-0.62426 3.0396zm1.124-5.4735c1.3296-0.08481 2.9595 0.33622 3.9436-0.79422 1.0213-1.3833-0.70119-2.0938-1.8423-1.8135-0.50699 0.1427-1.4949-0.31704-1.6285 0.29343-0.1576 0.77142-0.3152 1.5428-0.47279 2.3143zm15.313 5.4735h-1.9815c-0.07146-2.365-0.14293-4.73-0.21439-7.095-1.1564 2.365-2.3129 4.73-3.4693 7.095h-2.0205c-0.11911-3.2342-0.23822-6.4685-0.35733-9.7027h1.9166c0.02815 2.2635 0.0563 4.5271 0.08446 6.7906 1.0893-2.2635 2.1786-4.5271 3.2679-6.7906h2.1245c0.07363 2.2393 0.14726 4.4785 0.22089 6.7178 1.046-2.2393 2.092-4.4785 3.138-6.7178h1.8971c-1.5354 3.2342-3.0708 6.4685-4.6062 9.7027z" style="opacity:.3;stroke-width:2;stroke:#000"/>
 <path id="text3698" d="m7.1353 37.369c0.65834 0.10148 1.3167 0.20297 1.975 0.30445-0.66904 2.4032-3.289 3.912-5.6477 3.2114-2.2437-0.54248-2.7948-3.2267-2.4201-5.2331 0.27944-2.7765 2.8985-5.1278 5.6789-4.6035 1.3684-0.16009 3.7153 2.4921 2.401 3.139-0.87832 0.12443-1.7025 0.36418-1.7879-0.86928-1.3089-1.3946-3.5972-0.17479-4.0325 1.4763-0.54963 1.3979-0.81979 3.5815 0.74226 4.4079 1.3351 0.59623 2.7666-0.50901 3.0909-1.8333h-1e-7zm2.7482 3.4946c0.66484-3.2342 1.3297-6.4685 1.9945-9.7027 1.7374 0.09736 3.5619-0.2747 5.2178 0.38016 2.3028 1.2791 2.2274 4.6451 1.1086 6.7253-0.89277 1.9441-3.0605 2.779-5.0601 2.5972h-3.2608zm2.2804-1.562c1.411 0.0011 3.1626 0.19596 3.976-1.2674 0.87002-1.3345 1.2411-3.3008 0.33459-4.6971-0.75282-0.85457-1.9732-0.49854-2.9723-0.57457-0.44612 2.1797-0.89223 4.3594-1.3383 6.5391zm7.6468-2.8526h3.6187c-0.1256 0.61111-0.25121 1.2222-0.37682 1.8333h-3.6187c0.1256-0.61111 0.25121-1.2222 0.37682-1.8333zm6.1005 4.4145h-1.962c0.66484-3.2342 1.3297-6.4685 1.9945-9.7027 1.8633 0.05086 3.743-0.12144 5.5925 0.13031 2.3414 0.53929 2.1597 4.3453 0.04832 5.1049-0.70122 0.31856-1.7407 0.1765-0.74835 0.98326 0.36071 0.93618 1.9931 3.0476 1.238 3.4842-0.55672-0.12645-1.482 0.26608-1.7837-0.21955-0.69425-1.3141-0.84139-3.8406-2.7552-3.7979-0.78476-0.24013-0.95986 0.28423-0.99994 0.97787-0.20809 1.0132-0.41618 2.0264-0.62426 3.0396zm1.124-5.4735c1.3296-0.08482 2.9595 0.33622 3.9436-0.79422 1.0213-1.3833-0.70119-2.0938-1.8423-1.8135-0.50699 0.1427-1.4949-0.31704-1.6285 0.29343-0.1576 0.77142-0.3152 1.5428-0.47279 2.3143zm15.313 5.4735h-1.9815c-0.07146-2.365-0.14293-4.73-0.21439-7.095-1.1564 2.365-2.3129 4.73-3.4693 7.095h-2.0205c-0.11911-3.2342-0.23822-6.4685-0.35733-9.7027h1.9166c0.02815 2.2635 0.0563 4.5271 0.08446 6.7906 1.0893-2.2635 2.1786-4.5271 3.2679-6.7906h2.1245c0.07363 2.2393 0.14726 4.4785 0.22089 6.7178 1.046-2.2393 2.092-4.4785 3.138-6.7178h1.8971c-1.5354 3.2342-3.0708 6.4685-4.6062 9.7027z" style="fill:#666;stroke-width:2;stroke:#666"/>
 <path id="text3702" d="m7.1353 37.369c0.65834 0.10148 1.3167 0.20297 1.975 0.30445-0.65036 2.2479-2.9924 3.7757-5.2701 3.2952-2.0405-0.22738-3.0635-2.4297-2.8873-4.3216-0.035626-2.7001 1.8739-5.5384 4.6914-5.6403 1.8581-0.3337 4.063 1.2858 3.8734 3.1416-0.5949 0.05872-1.1898 0.11744-1.7847 0.17615-0.13079-1.8889-2.6181-2.0254-3.6403-0.81821-1.1144 1.3277-1.656 3.4577-0.79505 5.0524 1.1151 1.6455 3.5008 0.51746 3.8376-1.1897h-1e-7zm2.7482 3.4946c0.66484-3.2342 1.3297-6.4685 1.9945-9.7027 1.662 0.07588 3.3759-0.20849 4.9896 0.27798 2.316 0.98918 2.4551 4.1522 1.6263 6.2225-0.69858 1.9485-2.6141 3.2997-4.6591 3.1931-1.3169 0.01871-2.6342 0.0048-3.9513 0.0091zm2.2804-1.562c1.4113 0.0018 3.1623 0.19565 3.976-1.2674 0.87002-1.3345 1.2411-3.3008 0.33459-4.6971-0.75324-0.85404-1.9727-0.49908-2.9723-0.57457-0.44612 2.1797-0.89223 4.3594-1.3383 6.5391zm7.6468-2.8526h3.6187c-0.1256 0.61111-0.25121 1.2222-0.37682 1.8333h-3.6187c0.1256-0.61111 0.25121-1.2222 0.37682-1.8333zm6.1005 4.4145h-1.962c0.66484-3.2342 1.3297-6.4685 1.9945-9.7027 1.8634 0.04997 3.7429-0.12002 5.5925 0.13031 2.3433 0.54372 2.1593 4.344 0.04832 5.1049-0.70122 0.31856-1.7407 0.1765-0.74835 0.98326 0.37069 0.93982 1.9595 3.0156 1.2571 3.4842h-1.7318c-0.64082-1.3271-0.79534-3.2921-2.2349-3.9695-0.67878-0.05006-1.6595-0.32725-1.5432 0.69631l-0.67223 3.2731zm1.124-5.4735c1.3302-0.08511 2.959 0.33597 3.9436-0.79422 1.0138-1.3635-0.6752-2.0967-1.8137-1.8135-0.50861 0.06872-1.2335-0.1334-1.6161 0.09306-0.17124 0.83821-0.34248 1.6764-0.51373 2.5146zm15.313 5.4735h-1.9815c-0.07146-2.365-0.14293-4.73-0.21439-7.095-1.1564 2.365-2.3129 4.73-3.4693 7.095h-2.0205c-0.11911-3.2342-0.23822-6.4685-0.35733-9.7027h1.9166c0.02815 2.2635 0.0563 4.5271 0.08446 6.7906 1.0893-2.2635 2.1786-4.5271 3.2679-6.7906h2.1245c0.07363 2.2393 0.14726 4.4785 0.22089 6.7178 1.046-2.2393 2.092-4.4785 3.138-6.7178h1.8971c-1.5354 3.2342-3.0708 6.4685-4.6062 9.7027z" style="fill:#fff"/>
</svg>
