<?xml version="1.0" encoding="UTF-8"?>
<!-- Created with Inkscape (http://www.inkscape.org/) -->
<svg id="svg4978" width="128" height="128" version="1.1" xmlns="http://www.w3.org/2000/svg" xmlns:cc="http://creativecommons.org/ns#" xmlns:dc="http://purl.org/dc/elements/1.1/" xmlns:rdf="http://www.w3.org/1999/02/22-rdf-syntax-ns#">
 <metadata id="metadata4983">
  <rdf:RDF>
   <cc:Work rdf:about="">
    <dc:format>image/svg+xml</dc:format>
    <dc:type rdf:resource="http://purl.org/dc/dcmitype/StillImage"/>
    <dc:title/>
   </cc:Work>
  </rdf:RDF>
 </metadata>
 <g id="layer1" transform="translate(0 -924.36)">
  <g id="g14317" transform="matrix(7.199 0 0 7.199 -772.02 -783.4)">
   <g id="g14258" transform="translate(69,-449)" style="stroke:#000">
    <path id="path14260" transform="matrix(.92857 0 0 .92857 2.9286 49.214)" d="m55 696c0 3.866-3.134 7-7 7s-7-3.134-7-7 3.134-7 7-7 7 3.134 7 7z" style="color:#000000;fill:none;stroke-width:2.1538;stroke:#000"/>
    <path id="path14262" d="m45.5 693.5 2 2 3-3" style="fill:none;stroke-linecap:round;stroke-linejoin:round;stroke:#000"/>
   </g>
   <g id="g4692" transform="translate(69,-450)">
    <path id="path3869" transform="matrix(.92857 0 0 .92857 2.9286 49.214)" d="m55 696c0 3.866-3.134 7-7 7s-7-3.134-7-7 3.134-7 7-7 7 3.134 7 7z" style="color:#000000;fill:none;stroke-width:2.1538;stroke:#fff"/>
    <path id="path4639" d="m45.5 693.5 2 2 3-3" style="fill:none;stroke-linecap:round;stroke-linejoin:round;stroke:#fff"/>
   </g>
  </g>
 </g>
</svg>
