<?xml version="1.0" encoding="UTF-8"?>
<!-- Created with Inkscape (http://www.inkscape.org/) -->
<svg id="svg3786" width="48" height="48" version="1.0" xmlns="http://www.w3.org/2000/svg" xmlns:xlink="http://www.w3.org/1999/xlink">
 <defs id="defs3788">
  <linearGradient id="linearGradient2345">
   <stop id="stop2347" style="stop-color:#d9d9d9" offset="0"/>
   <stop id="stop2349" style="stop-color:#eee;stop-opacity:0" offset="1"/>
  </linearGradient>
  <linearGradient id="linearGradient5060">
   <stop id="stop5062" offset="0"/>
   <stop id="stop5064" style="stop-opacity:0" offset="1"/>
  </linearGradient>
  <linearGradient id="linearGradient5048">
   <stop id="stop5050" style="stop-opacity:0" offset="0"/>
   <stop id="stop5056" offset=".5"/>
   <stop id="stop5052" style="stop-opacity:0" offset="1"/>
  </linearGradient>
  <linearGradient id="linearGradient2215">
   <stop id="stop2223" style="stop-color:#aaa" offset="0"/>
   <stop id="stop2219" style="stop-color:#646464" offset="1"/>
  </linearGradient>
  <linearGradient id="linearGradient3484">
   <stop id="stop3486" style="stop-color:#aaa" offset="0"/>
   <stop id="stop3488" style="stop-color:#c8c8c8" offset="1"/>
  </linearGradient>
  <radialGradient id="radialGradient2889" cx="24" cy="58.8" r="21" gradientTransform="matrix(.90476 -3.4052e-7 -3.2231e-8 .33333 2.2857 16.4)" gradientUnits="userSpaceOnUse">
   <stop id="stop6312" style="stop-color:#fff" offset="0"/>
   <stop id="stop6314" style="stop-color:#fff;stop-opacity:0" offset="1"/>
  </radialGradient>
  <linearGradient id="linearGradient2892" x1="23" x2="23" y1="45" y2="39" gradientTransform="translate(0 -6)" gradientUnits="userSpaceOnUse" xlink:href="#linearGradient2215"/>
  <radialGradient id="radialGradient2899" cx="14.847" cy="7.6789" r="23" gradientTransform="matrix(.9233 .39188 -.39794 .93757 4.1945 -1.0434)" gradientUnits="userSpaceOnUse">
   <stop id="stop7064" style="stop-color:#f0f0f1" offset="0"/>
   <stop id="stop7060" style="stop-color:#ddddde" offset="1"/>
  </radialGradient>
  <linearGradient id="linearGradient2901" x1="18.463" x2="14.445" y1="21.071" y2="11.317" gradientTransform="matrix(.99557 0 0 .99097 .10627 -3.9009)" gradientUnits="userSpaceOnUse" xlink:href="#linearGradient3484"/>
  <linearGradient id="linearGradient2916" x1="28.438" x2="28.375" y1="50.296" y2="40.704" gradientTransform="matrix(1.0002 0 0 .62554 -5.0044 7.5377)" gradientUnits="userSpaceOnUse" xlink:href="#linearGradient2215"/>
  <linearGradient id="linearGradient2935" x1="26.333" x2="26.194" y1="34.172" y2="21.988" gradientTransform="matrix(.88268 0 0 .4894 2.502 25.113)" gradientUnits="userSpaceOnUse" xlink:href="#linearGradient2345"/>
  <linearGradient id="linearGradient2938" x1="14.997" x2="32.511" y1="11.188" y2="34.307" gradientTransform="matrix(1.0508 0 0 .58262 -1.2268 23.89)" gradientUnits="userSpaceOnUse">
   <stop id="stop6325" style="stop-color:#ebebeb" offset="0"/>
   <stop id="stop6327" style="stop-color:#fff" offset=".5"/>
   <stop id="stop6329" style="stop-color:#ebebeb" offset="1"/>
  </linearGradient>
  <linearGradient id="linearGradient2941" x1="26.333" x2="26.194" y1="34.172" y2="21.988" gradientTransform="matrix(.20251 0 0 .15667 19.053 32.23)" gradientUnits="userSpaceOnUse" xlink:href="#linearGradient2345"/>
  <linearGradient id="linearGradient2944" x1="302.86" x2="302.86" y1="366.65" y2="609.51" gradientTransform="matrix(.065189 0 0 .030849 .43798 24.173)" gradientUnits="userSpaceOnUse" xlink:href="#linearGradient5048"/>
  <radialGradient id="radialGradient2953" cx="605.71" cy="486.65" r="117.14" gradientTransform="matrix(-.044847 0 0 .020588 32.611 28.451)" gradientUnits="userSpaceOnUse" xlink:href="#linearGradient5060"/>
  <radialGradient id="radialGradient2956" cx="605.71" cy="486.65" r="117.14" gradientTransform="matrix(.044847 0 0 .020588 15.389 28.451)" gradientUnits="userSpaceOnUse" xlink:href="#linearGradient5060"/>
  <linearGradient id="linearGradient2959" x1="302.86" x2="302.86" y1="366.65" y2="609.51" gradientTransform="matrix(.076357 0 0 .020588 -3.5974 28.451)" gradientUnits="userSpaceOnUse" xlink:href="#linearGradient5048"/>
  <linearGradient id="linearGradient4012" x1="26.877" x2="10.516" y1="20.804" y2="8.2701" gradientUnits="userSpaceOnUse" xlink:href="#linearGradient3484"/>
 </defs>
 <rect id="rect5775" x="5.5653" y="36" width="36.869" height="5" style="fill:url(#linearGradient2959);opacity:.3"/>
 <path id="path5777" d="m42.417 36v4.9997c2.3095 0.009414 5.5833-1.1202 5.5833-2.5002s-2.5773-2.4995-5.5833-2.4995z" style="fill:url(#radialGradient2956);opacity:.3"/>
 <path id="path5779" d="m5.5833 36v4.9997c-2.3095 0.009414-5.5833-1.1202-5.5833-2.5002s2.5773-2.4995 5.5833-2.4995z" style="fill:url(#radialGradient2953);opacity:.3"/>
 <path id="path5781" d="m1.4639 32.464h45.072l-0.9012 6.072h-43.169l-1.0014-6.072z" style="enable-background:new;fill-rule:evenodd;fill:url(#linearGradient2916);stroke-linecap:round;stroke-linejoin:round;stroke-width:.928;stroke:#59595b"/>
 <rect id="rect7576" x="4" y="35" width="40" height="2.5" rx="1" ry="1.25" style="fill:#fff;opacity:.5"/>
 <rect id="rect7264" x="4" y="35" width="40" height="2" rx="1" ry="1" style="fill:#282828"/>
 <rect id="rect4173" x="8.2606" y="35.483" width="31.477" height="7.4918" style="fill:url(#linearGradient2944);opacity:.40206"/>
 <path id="path3922" d="m19.84 35.565c-0.04368 0.18909-0.0791 0.38659-0.0791 0.58575 0 1.8091 1.8851 3.2571 4.2237 3.2571 2.3386 0 4.2158-1.448 4.2158-3.2571 0-0.19916-0.03541-0.39666-0.0791-0.58575h-8.2812z" style="enable-background:new;fill:url(#linearGradient2941);stroke-width:.9303;stroke:gray"/>
 <path id="path3040" d="m6.1056 35.059c-0.3033 0.73726-0.51711 1.5112-0.51711 2.3011 0 5.6515 8.2164 10.175 18.409 10.175 10.193 0 18.375-4.5232 18.375-10.175 0-0.78655-0.18182-1.5667-0.48264-2.3011h-17.168c2.0296 0.2175 3.6887 1.1173 3.6887 2.3011 0 1.34-1.9958 2.4397-4.4127 2.4397-2.4169 0-4.4127-1.0997-4.4127-2.4397 0-1.1838 1.6591-2.0836 3.6887-2.3011h-17.168z" style="fill:url(#linearGradient2938)"/>
 <path id="path6200" d="m5.9332 35.53c-0.19036 0.59068-0.34475 1.2077-0.34475 1.8298 0 5.6515 8.2164 10.175 18.409 10.175 10.193 0 18.375-4.5232 18.375-10.175 0-0.62209-0.15438-1.2391-0.34474-1.8298h-36.094z" style="fill:url(#linearGradient2935);stroke-width:.9303;stroke:#646662"/>
 <path id="path6202" d="m15.571 35.081c-0.85329 0.81617-1.4617 1.2947-1.4617 2.2956 0 3.0812 4.5345 5.5061 9.9623 5.5061 5.5571-1e-6 9.9623-2.4966 9.9623-5.5061 0-1.0157-0.64673-1.4843-1.5001-2.2956h-5.9317c1.851 0.48211 2.893 1.0974 2.893 2.2956 0 1.6481-2.4511 3.0005-5.4235 3.0005-2.9724 0-5.4235-1.3524-5.4235-3.0005 0-1.199 1.0142-1.8139 2.8669-2.2956h-5.9441z" style="opacity:.11"/>
 <path id="path4214" d="m17.779 46.532 4.1797-6.6811c-0.96765-0.19135-1.7084-0.567-2.1759-1.0613l-11.449 3.1834c1.9305 2.1163 5.2893 3.762 9.4455 4.559z" style="fill-opacity:.47059;fill:#fff"/>
 <path id="path6205" d="m7.1202 35.465c-0.27443 0.65639-0.44572 1.4901-0.44572 2.1943 0 4.9598 8.3779 8.9357 17.323 8.9357 8.9453-1e-6 17.102-3.9759 17.102-8.9357 0-0.70467-0.20277-1.5375-0.47757-2.1943h-33.502z" style="fill:none;opacity:.3;stroke-width:.9303;stroke:#fff"/>
 <rect id="rect4145" x="5" y="36" width="38" height="1" style="enable-background:new;opacity:.28155"/>
 <rect id="rect5783" x="1.5" y="32" width="45" height="1" style="enable-background:new;fill-rule:evenodd;fill:#d2d2d3"/>
 <path id="path5785" d="m46.5 32.5-6.7945-24.724c-0.19213-0.70407-1.1985-1.2757-2.0446-1.2757h-27.556c-1.2999 0-2.0447 0.19048-2.3188 1.2757l-6.2861 24.7" style="fill:url(#radialGradient2899);stroke-linecap:round;stroke-linejoin:round;stroke-width:.99998;stroke:url(#linearGradient2901)"/>
 <path id="path5787" d="m45.511 32.511-43.023-0.022948" style="fill:none;opacity:.4;stroke-linecap:round;stroke-width:.97705;stroke:#fff"/>
 <rect id="rect7252" x="3" y="33" width="42" height="2" style="fill:url(#linearGradient2892)"/>
 <rect id="rect6300" x="3" y="33" width="42" height="2" style="fill:url(#radialGradient2889);opacity:.3"/>
 <path id="rect7266" d="m5 35c-0.554 0-1 0.446-1 1h40c0-0.554-0.446-1-1-1h-38z" style="fill:#282828"/>
 <path id="path3657" d="m13 7.5c0.69064 2.5 4.9249 4.5 11 4.5s10.072-1.849 11-4.5" style="fill:none;opacity:.5;stroke-linecap:round;stroke-linejoin:round;stroke:#fff"/>
 <path id="path2880" d="m13.25 7c0 2.6234 4.8129 4.75 10.75 4.75s10.75-2.1266 10.75-4.75" style="fill:none;stroke-linecap:round;stroke-linejoin:round;stroke-width:.5;stroke:url(#linearGradient4012)"/>
 <path id="path6292" d="m45.45 28.75-43-0.02405" style="fill:none;stroke-linecap:round;stroke-width:.5;stroke:#adadad"/>
 <path id="path6294" d="m44.811 29.261-41.823-0.02255" style="fill:none;opacity:.5;stroke-linecap:round;stroke-width:.47745;stroke:#fff"/>
</svg>
