<?xml version="1.0" encoding="UTF-8"?>
<!-- Created with Inkscape (http://www.inkscape.org/) -->
<svg id="svg3221" width="48" height="48" version="1.0" xmlns="http://www.w3.org/2000/svg" xmlns:xlink="http://www.w3.org/1999/xlink">
 <defs id="defs3223">
  <linearGradient id="linearGradient3936" x1="21.875" x2="21.875" y1="48.001" y2="40" gradientUnits="userSpaceOnUse">
   <stop id="stop2806" style="stop-opacity:0" offset="0"/>
   <stop id="stop2812" offset=".5"/>
   <stop id="stop2808" style="stop-opacity:0" offset="1"/>
  </linearGradient>
  <radialGradient id="radialGradient3934" cx="1" cy="44" r="5" gradientTransform="matrix(2 0 0 .8 36 8.8)" gradientUnits="userSpaceOnUse" xlink:href="#linearGradient2781"/>
  <linearGradient id="linearGradient2781">
   <stop id="stop2783" offset="0"/>
   <stop id="stop2785" style="stop-opacity:0" offset="1"/>
  </linearGradient>
  <radialGradient id="radialGradient3932" cx="1" cy="44" r="5" gradientTransform="matrix(2 0 0 .8 -13 -79.2)" gradientUnits="userSpaceOnUse" xlink:href="#linearGradient2781"/>
  <linearGradient id="linearGradient2475" x1="3.6262" x2="41.968" y1="2.5845" y2="40.926" gradientTransform="matrix(-1.033 0 0 -1.033 47.243 48.243)" gradientUnits="userSpaceOnUse">
   <stop id="stop6377" style="stop-color:#040404" offset="0"/>
   <stop id="stop6379" style="stop-color:#606060" offset="1"/>
  </linearGradient>
  <linearGradient id="linearGradient2472" x1="33.349" x2="35.974" y1="28.693" y2="33.049" gradientTransform="matrix(-1.0466 0 0 -1.0195 48.617 47.681)" gradientUnits="userSpaceOnUse">
   <stop id="stop2390" style="stop-color:#010306" offset="0"/>
   <stop id="stop2392" style="stop-color:#010306;stop-opacity:.39608" offset="1"/>
  </linearGradient>
  <linearGradient id="linearGradient4733" x1="18.75" x2="18.827" y1="27.655" y2="36.775" gradientTransform="matrix(1.0626 0 0 1.0191 -48.783 -47.666)" gradientUnits="userSpaceOnUse">
   <stop id="stop2296" style="stop-color:#262626" offset="0"/>
   <stop id="stop2298" style="stop-color:#122339;stop-opacity:0" offset="1"/>
  </linearGradient>
  <linearGradient id="linearGradient4731" x1="10" x2="31" y1="27.996" y2="42" gradientTransform="matrix(-1.0626 0 0 -1.0191 48.783 47.666)" gradientUnits="userSpaceOnUse">
   <stop id="stop4237" style="stop-color:#d4d4dc" offset="0"/>
   <stop id="stop4239" style="stop-color:#848489" offset="1"/>
  </linearGradient>
  <linearGradient id="linearGradient4727" x1="37.625" x2="37.625" y1="7.625" y2="3.483" gradientTransform="matrix(1.0415 0 0 -1.0566 .56591 48.321)" gradientUnits="userSpaceOnUse">
   <stop id="stop2251" style="stop-color:#010306" offset="0"/>
   <stop id="stop2253" style="stop-color:#010306;stop-opacity:0" offset="1"/>
  </linearGradient>
  <linearGradient id="linearGradient4725" x1="21.875" x2="21.875" y1="7.6059" y2="18.514" gradientTransform="matrix(1.0444 0 0 1.0592 .50078 -48.329)" gradientUnits="userSpaceOnUse">
   <stop id="stop2270" style="stop-color:#eeeeec" offset="0"/>
   <stop id="stop2272" style="stop-color:#fff" offset="1"/>
  </linearGradient>
  <linearGradient id="linearGradient4723" x1="10" x2="31" y1="27.996" y2="42" gradientTransform="matrix(-1.0626 0 0 -1.0191 48.783 47.666)" gradientUnits="userSpaceOnUse">
   <stop id="stop2557" style="stop-color:#fff" offset="0"/>
   <stop id="stop2561" style="stop-color:#e6e6e6" offset=".5"/>
   <stop id="stop2563" style="stop-color:#fff" offset=".75"/>
   <stop id="stop2565" style="stop-color:#e1e1e1" offset=".84167"/>
   <stop id="stop2559" style="stop-color:#fff" offset="1"/>
  </linearGradient>
  <linearGradient id="linearGradient3219" x1="20.485" x2="20.485" y1="40.865" y2="29.135" gradientTransform="matrix(-1.094 0 0 -1.0598 49.384 49.092)" gradientUnits="userSpaceOnUse">
   <stop id="stop2321" style="stop-color:#fff" offset="0"/>
   <stop id="stop2323" style="stop-color:#fff;stop-opacity:0" offset="1"/>
  </linearGradient>
 </defs>
 <g id="layer1">
  <g id="g2822" transform="matrix(1.0213 0 0 1.0374 -1.0213 -1.7951)" style="opacity:.3">
   <rect id="rect1892" transform="scale(-1)" x="-11" y="-48" width="10" height="8" style="fill:url(#radialGradient3932)"/>
   <rect id="rect2789" x="38" y="40" width="10" height="8" style="fill:url(#radialGradient3934)"/>
   <rect id="rect2793" x="11" y="40" width="27" height="8" style="fill:url(#linearGradient3936)"/>
  </g>
  <path id="rect1314" d="m42.832 44.627h-37.664c-0.85993 0-0.7953 0.06464-0.7953-0.79529v-37.664c0-0.85993-0.064633-0.79529 0.7953-0.79529h34.844l3.6156 3.6156v34.844c0 0.85993 0.06464 0.79529-0.79529 0.79529z" style="fill:url(#linearGradient2475);stroke-linecap:round;stroke-linejoin:round;stroke-width:.74303;stroke:#121212"/>
  <path id="rect2194" d="m34.944 18.625h-23.935c-0.90743 0-1.638-0.71165-1.638-1.5956v-11.658h27.21v11.658c0 0.88397-0.73053 1.5956-1.638 1.5956z" style="fill:none;opacity:.2619;stroke-linecap:round;stroke-linejoin:round;stroke-width:.74297;stroke:url(#linearGradient2472)"/>
  <rect id="rect2284" transform="scale(-1)" x="-34.438" y="-17.603" width="7.438" height="10.191" style="fill:url(#linearGradient4733)"/>
  <path id="rect2192" d="m36.231 18.622c0.32036-0.03883 0.6318-0.18991 0.86334-0.38215 0.32103-0.27972 0.53129-0.69579 0.53129-1.1465v-11.719h-21.252v11.719c0 0.84832 0.70933 1.5286 1.5939 1.5286h18.064c0.0691 0 0.13249 0.0081 0.19923 0zm-3.3206-2.0381c-0.03916 0.0076-0.09124 0-0.13282 0h-4.1175c-0.13514 0-0.26513-0.05566-0.36526-0.12739-0.02963-0.02343-0.07518-0.06712-0.09962-0.09553-0.07479-0.09603-0.13282-0.2207-0.13282-0.3503v-7.0061c0-0.12961 0.05803-0.25427 0.13282-0.3503 0.02444-0.028419 0.06998-0.072105 0.09962-0.09554 0.10013-0.071724 0.23012-0.12738 0.36526-0.12738h4.1175c0.13514 0 0.26513 0.055659 0.36526 0.12738 0.02963 0.023435 0.07518 0.067122 0.09962 0.09554 0.07479 0.09603 0.13282 0.2207 0.13282 0.3503v7.0061c0 0.12961-0.05803 0.25428-0.13282 0.3503-0.02443 0.02842-0.06998 0.0721-0.09962 0.09553-0.06932 0.04966-0.14433 0.11018-0.23244 0.12739z" style="fill:url(#linearGradient4731);stroke-linecap:round;stroke-linejoin:round;stroke-width:.74848;stroke:#555753"/>
  <rect id="rect2278" transform="scale(1,-1)" x="5.9221" y="-42.045" width="2.066" height="2.066" style="fill:#fff;opacity:.2"/>
  <rect id="rect2276" transform="scale(1,-1)" x="5.9221" y="-42.045" width="1.033" height="1.033" style="fill:#010306"/>
  <rect id="rect2280" transform="scale(1,-1)" x="40.012" y="-42.045" width="2.066" height="2.066" style="fill:#fff;opacity:.2"/>
  <rect id="rect2282" transform="scale(1,-1)" x="40.012" y="-42.045" width="1.033" height="1.033" style="fill:#010306"/>
  <path id="rect2247" d="m39.623 44.623v-21.644c0-0.88699-0.70387-1.6011-1.5782-1.6011h-28.089c-0.87431 0-1.5782 0.71407-1.5782 1.6011v21.644h31.245z" style="fill:none;opacity:.6;stroke-linecap:round;stroke-linejoin:round;stroke-width:.75455;stroke:url(#linearGradient4727)"/>
  <rect id="rect2257" transform="scale(1,-1)" x="9.3783" y="-44.622" width="29.243" height="22.243" rx=".19716" ry=".19996" style="fill:url(#linearGradient4725);stroke-linecap:round;stroke-linejoin:round;stroke-width:.75653;stroke:#e2e2df"/>
  <path id="path2264" d="m9.4149 44.627h29.17" style="fill-opacity:.75;fill-rule:evenodd;fill:#3f6cff;stroke-linecap:round;stroke-linejoin:round;stroke-width:.74617;stroke:#575757"/>
  <path id="path2329" d="m9.3744 36.501h29.251" style="fill:none;stroke-linecap:round;stroke-linejoin:round;stroke-width:.86458;stroke:#d3d7cf"/>
  <path id="path2331" d="m9.3744 28.501h29.251" style="fill:none;stroke-linecap:round;stroke-linejoin:round;stroke-width:.86458;stroke:#d3d7cf"/>
  <path id="path7255" d="m36.231 18.622c0.32036-0.03883 0.6318-0.18991 0.86334-0.38215 0.32103-0.27972 0.53129-0.69579 0.53129-1.1465v-11.719h-21.252v11.719c0 0.84832 0.70933 1.5286 1.5939 1.5286h18.064c0.0691 0 0.13249 0.0081 0.19923 0zm-3.3206-2.0381c-0.03916 0.0076-0.09124 0-0.13282 0h-4.1175c-0.13514 0-0.26513-0.05566-0.36526-0.12739-0.02963-0.02343-0.07518-0.06712-0.09962-0.09553-0.07479-0.09603-0.13282-0.2207-0.13282-0.3503v-7.0061c0-0.12961 0.05803-0.25427 0.13282-0.3503 0.02444-0.028419 0.06998-0.072105 0.09962-0.09554 0.10013-0.071724 0.23012-0.12738 0.36526-0.12738h4.1175c0.13514 0 0.26513 0.055659 0.36526 0.12738 0.02963 0.023435 0.07518 0.067122 0.09962 0.09554 0.07479 0.09603 0.13282 0.2207 0.13282 0.3503v7.0061c0 0.12961-0.05803 0.25428-0.13282 0.3503-0.02443 0.02842-0.06998 0.0721-0.09962 0.09553-0.06932 0.04966-0.14433 0.11018-0.23244 0.12739z" style="fill:url(#linearGradient4723);opacity:.5;stroke-linecap:round;stroke-linejoin:round;stroke-width:.74848;stroke:#555753"/>
  <path id="rect2316" d="m36.256 17.827h-18.565c-0.32142 0-0.58018-0.25068-0.58018-0.56206v-11.096h19.725v11.096c0 0.31138-0.25876 0.56206-0.58018 0.56206z" style="fill:none;opacity:.4;stroke-linecap:round;stroke-linejoin:round;stroke-width:.77451;stroke:url(#linearGradient3219)"/>
 </g>
</svg>
