<?xml version="1.0" encoding="UTF-8"?>
<!-- Created with Inkscape (http://www.inkscape.org/) -->
<svg id="svg2" width="22" height="22" version="1.0" xmlns="http://www.w3.org/2000/svg" xmlns:xlink="http://www.w3.org/1999/xlink">
 <defs id="defs4">
  <linearGradient id="linearGradient2576" x1="6.7268" x2="40.938" y1="32.162" y2="32.162" gradientTransform="matrix(.4858 0 0 .56676 -.65766 -4.7558)" gradientUnits="userSpaceOnUse">
   <stop id="stop2413" style="stop-color:#fee7b1" offset="0"/>
   <stop id="stop2419" style="stop-color:#ebd4b4" offset=".25797"/>
   <stop id="stop2421" style="stop-color:#c8a775" offset=".50797"/>
   <stop id="stop2423" style="stop-color:#b0935b" offset=".7401"/>
   <stop id="stop2415" style="stop-color:#fcebbf" offset="1"/>
  </linearGradient>
  <linearGradient id="linearGradient2573" x1="10.907" x2="30.875" y1="25.002" y2="36.127" gradientTransform="matrix(.45413 0 0 .50788 .10759 -1.9931)" gradientUnits="userSpaceOnUse">
   <stop id="stop9847" style="stop-color:#fff" offset="0"/>
   <stop id="stop9849" style="stop-color:#fff;stop-opacity:.49485" offset="1"/>
  </linearGradient>
  <linearGradient id="linearGradient2570" x1="24.875" x2="24.75" y1="21" y2="17" gradientTransform="matrix(.47059 0 0 .80748 -.29408 -6.1887)" gradientUnits="userSpaceOnUse">
   <stop id="stop5883" style="stop-color:#d6c8a7" offset="0"/>
   <stop id="stop5885" style="stop-color:#d0bd99" offset="1"/>
  </linearGradient>
  <linearGradient id="linearGradient2567" x1="21.942" x2="21.942" y1="21.551" y2="18.038" gradientTransform="matrix(.45455 0 0 .25159 .090945 5.0971)" gradientUnits="userSpaceOnUse">
   <stop id="stop12073" style="stop-color:#fff" offset="0"/>
   <stop id="stop12075" style="stop-color:#fff;stop-opacity:0" offset="1"/>
  </linearGradient>
  <filter id="filter5957" x="-.49412" y="-.082353" width="1.9882" height="1.1647" color-interpolation-filters="sRGB">
   <feGaussianBlur id="feGaussianBlur5959" stdDeviation="0.69878785"/>
  </filter>
  <radialGradient id="radialGradient2563" cx="15.938" cy="20.312" r="3.3125" gradientTransform="matrix(.75472 0 0 .35667 -5.5283 1.0326)" gradientUnits="userSpaceOnUse" xlink:href="#linearGradient6075"/>
  <linearGradient id="linearGradient6075">
   <stop id="stop6077" offset="0"/>
   <stop id="stop6079" style="stop-opacity:0" offset="1"/>
  </linearGradient>
  <radialGradient id="radialGradient2560" cx="15.938" cy="20.312" r="3.3125" gradientTransform="matrix(.75472 0 0 .35667 3.4717 1.0326)" gradientUnits="userSpaceOnUse" xlink:href="#linearGradient6075"/>
  <linearGradient id="linearGradient2557" x1="10.651" x2="27.192" y1="2.9137" y2="17.47" gradientTransform="matrix(.40937 0 0 .44567 1.1465 -1.6796)" gradientUnits="userSpaceOnUse">
   <stop id="stop10593" style="stop-color:#cad0c6" offset="0"/>
   <stop id="stop10599" style="stop-color:#eaece9" offset=".5"/>
   <stop id="stop10595" style="stop-color:#c5cbc0" offset="1"/>
  </linearGradient>
  <linearGradient id="linearGradient2580" x1="35.005" x2="33.004" y1="14.85" y2="14.85" gradientTransform="translate(1.6824 1.125)" gradientUnits="userSpaceOnUse" xlink:href="#linearGradient6075"/>
  <filter id="filter6251" x="-.24243" y="-.047579" width="1.4849" height="1.0952" color-interpolation-filters="sRGB">
   <feGaussianBlur id="feGaussianBlur6253" stdDeviation="0.24444548"/>
  </filter>
  <linearGradient id="linearGradient2578" x1="32.128" x2="35.021" y1="13.789" y2="13.789" gradientTransform="translate(-19.533 1.7437)" gradientUnits="userSpaceOnUse" xlink:href="#linearGradient6075"/>
  <filter id="filter5745" color-interpolation-filters="sRGB">
   <feGaussianBlur id="feGaussianBlur5747" stdDeviation="0.8362597"/>
  </filter>
 </defs>
 <g id="layer1">
  <path id="rect1314" d="m3.5858 7.0018c4.8977-0.72404 9.8475-0.61163 14.828 0 0.60151 0 1.0857 0.52348 1.0857 1.1737v11.698c0 0.65024-0.5155 1.0797-1.0857 1.1737-5.164 0.60626-9.5919 0.60147-14.828 0-0.69526-0.21946-1.0857-0.52347-1.0857-1.1737v-11.698c0-0.65024 0.48424-1.1737 1.0857-1.1737z" style="fill-rule:evenodd;fill:url(#linearGradient2576);stroke-linecap:round;stroke-linejoin:round;stroke:#a2824e"/>
  <path id="rect6903" d="m4.0857 8.5h13.829c0.32446 0 0.58567 0.26635 0.58567 0.5972v10.396c0 0.33085-0.23192 0.48359-0.58567 0.5972-4.5217 0.54696-8.9848 0.5457-13.829 0-0.32446-0.11361-0.58567-0.26635-0.58567-0.5972v-10.396c0-0.33085 0.26121-0.5972 0.58567-0.5972z" style="fill:none;opacity:.38;stroke-linecap:round;stroke-linejoin:round;stroke-opacity:.60109;stroke:url(#linearGradient2573)"/>
  <path id="rect1460" d="m3.7795 7.5385c4.8137-0.78635 9.6274-0.64629 14.441 0 0.4318 0 0.77943 0.386 0.77943 0.86548v1.499c0 0.47947-0.34763 0.86548-0.77943 0.86548-5.0234 0.3715-9.6454 0.23891-14.441 0-0.4318 0-0.77943-0.386-0.77943-0.86548v-1.499c0-0.47947 0.34762-0.86548 0.77943-0.86548z" style="fill-rule:evenodd;fill:url(#linearGradient2570)"/>
  <path id="rect1593" d="m4.0456 9.5h13.909c0.30223 0 0.54554 0.1293 0.54554 0.2899v0.17499c0 0.1606-0.24331 0.2899-0.54554 0.2899-4.593 0.31718-9.238 0.33659-13.909 0-0.30223 0-0.54554-0.1293-0.54554-0.2899v-0.17499c0-0.1606 0.24331-0.2899 0.54554-0.2899z" style="fill:none;opacity:.6;stroke-linecap:round;stroke-linejoin:round;stroke:url(#linearGradient2567)"/>
  <rect id="rect5887" transform="matrix(.9234 0 0 .57774 -8.227 -3.3565)" x="14.594" y="23.226" width="2.8284" height="16.971" rx="1.6077" ry="1.6077" style="fill-rule:evenodd;fill:#fff;filter:url(#filter5957);opacity:.2"/>
  <path id="path6073" d="m9 8.2774c0 0.6525-1.1193 1.1815-2.5 1.1815-1.3807 0-2.5-0.52896-2.5-1.1815 0-0.6525 1.1193-1.1815 2.5-1.1815 1.3807 0 2.5 0.52896 2.5 1.1815z" style="fill-rule:evenodd;fill:url(#radialGradient2563);opacity:.3"/>
  <path id="path6083" d="m18 8.2774c0 0.6525-1.1193 1.1815-2.5 1.1815-1.3807 0-2.5-0.52896-2.5-1.1815 0-0.6525 1.1193-1.1815 2.5-1.1815 1.3807 0 2.5 0.52896 2.5 1.1815z" style="fill-rule:evenodd;fill:url(#radialGradient2560);opacity:.3"/>
  <path id="path2086" d="m5.5023 8.1969v-2.5558c0-3.5075 2.1522-5.1738 5.4773-5.13 3.3431 0.043803 5.5183 1.5812 5.5183 5.13v2.6673c0 0.87094-2.2477 0.98179-2.2477 0v-1.7759c0-0.89134 0.2327-3.7757-3.2471-3.7757-3.4511 0-3.1997 2.9021-3.1863 3.7721v1.6831c0 1.0494-2.3144 1.0449-2.3144-0.015009z" style="fill-rule:evenodd;fill:url(#linearGradient2557);stroke:#888a85"/>
  <path id="rect1345" transform="matrix(.40937 0 0 .44567 1.1465 -.82114)" d="m34.687 10.837 1.2639 0.125c0.92724 2.8227 0.73605 9.5104 0.73605 9.5104-0.0625 1.125-2.0312 0.53125-2 0v-9.6354z" style="fill-rule:evenodd;fill:url(#linearGradient2580);filter:url(#filter6251);opacity:.18235"/>
  <path id="path6332" transform="matrix(-.40937 0 0 .44567 13.042 -1.0969)" d="m12.927 11.544 0.37172 0.1692c1.7203 1.055 2.1735 9.3778 2.1735 9.3778-0.0625 1.125-2.0312 0.53125-2 0 0 0 0.37822-6.8706-0.54525-9.547z" style="fill-rule:evenodd;fill:url(#linearGradient2578);filter:url(#filter6251);opacity:.14118"/>
  <path id="path5675" transform="matrix(.45915 0 0 .44567 -.021657 .24621)" d="m13.877 17.722 0.125-7.5c0-9.8764 18.688-10.676 18.688 0.875v6.875" style="fill:none;filter:url(#filter5745);opacity:.62353;stroke-linecap:round;stroke-width:4.4213;stroke:#fff"/>
 </g>
</svg>
