<?xml version="1.0" encoding="UTF-8"?>
<!-- Created with Inkscape (http://www.inkscape.org/) -->
<svg id="svg3745" width="22" height="22" version="1.1" xmlns="http://www.w3.org/2000/svg" xmlns:cc="http://creativecommons.org/ns#" xmlns:dc="http://purl.org/dc/elements/1.1/" xmlns:rdf="http://www.w3.org/1999/02/22-rdf-syntax-ns#">
 <metadata id="metadata9">
  <rdf:RDF>
   <cc:Work rdf:about="">
    <dc:format>image/svg+xml</dc:format>
    <dc:type rdf:resource="http://purl.org/dc/dcmitype/StillImage"/>
    <dc:title/>
   </cc:Work>
  </rdf:RDF>
 </metadata>
 <g id="layer1" transform="translate(0,6)">
  <path id="path3765" transform="translate(.5 -7)" d="m12.317 15.84c-1.5684 1.5557-4.1011 1.5454-5.6568-0.022987-1.5557-1.5684-1.5454-4.1011 0.022987-5.6568 0.059448-0.058968 0.12073-0.11605 0.18377-0.17117l2.6331 3.0111 2.8169 2.8399zm-4.8169 0.1601-1-1-5 5 1 1 5-5z" style="fill:#606060"/>
  <path id="path3767" transform="matrix(-1,0,0,-1,20.5,18)" d="m12.317 15.84c-1.5684 1.5557-4.1011 1.5454-5.6568-0.022987-1.5557-1.5684-1.5454-4.1011 0.022987-5.6568 0.059448-0.058968 0.12073-0.11605 0.18377-0.17117l2.6331 3.0111 2.8169 2.8399zm-10.817 4.1601 1 1 5-5-1-1-5 5z" style="fill:#606060"/>
 </g>
 <rect id="rect2822" x="16" y="15" width="6" height="5" style="fill:#606060"/>
 <path id="path3596" d="m17.529 15v-0.94118c0-2 3-2 3 0v0.94118" style="fill:none;stroke-width:1px;stroke:#606060"/>
</svg>
