<?xml version="1.0" encoding="UTF-8"?>
<!-- Created with Inkscape (http://www.inkscape.org/) -->
<svg id="svg4829" width="128" height="128" version="1.1" xmlns="http://www.w3.org/2000/svg" xmlns:cc="http://creativecommons.org/ns#" xmlns:dc="http://purl.org/dc/elements/1.1/" xmlns:rdf="http://www.w3.org/1999/02/22-rdf-syntax-ns#" xmlns:xlink="http://www.w3.org/1999/xlink">
 <defs id="defs4831">
  <linearGradient id="linearGradient2455" x1="32.892" x2="36.358" y1="8.059" y2="5.4565" gradientTransform="matrix(3.4885 0 0 3.682 -27.329 -56.792)" gradientUnits="userSpaceOnUse">
   <stop id="stop8591" style="stop-color:#fefefe" offset="0"/>
   <stop id="stop8593" style="stop-color:#cbcbcb" offset="1"/>
  </linearGradient>
  <linearGradient id="linearGradient3789" x1="17.355" x2="24.008" y1="8" y2="26.039" gradientTransform="matrix(2.947 0 0 2.7163 -5.7514 -70.73)" gradientUnits="userSpaceOnUse">
   <stop id="stop3742-9" style="stop-color:#fff" offset="0"/>
   <stop id="stop3750-9" style="stop-color:#fff;stop-opacity:0" offset=".85613"/>
   <stop id="stop3744-3" style="stop-color:#fff;stop-opacity:0" offset="1"/>
  </linearGradient>
  <radialGradient id="radialGradient3792" cx="26.617" cy="-2.0645" r="23" gradientTransform="matrix(-4.2256e-8 -2.0846 3.245 0 91.478 51.13)" gradientUnits="userSpaceOnUse">
   <stop id="stop2749" style="stop-color:#d78ec1" offset="0"/>
   <stop id="stop2751" style="stop-color:#c564be" offset=".26238"/>
   <stop id="stop2753" style="stop-color:#9d3ea4" offset=".66094"/>
   <stop id="stop2755" style="stop-color:#5e2c73" offset="1"/>
  </radialGradient>
  <linearGradient id="linearGradient3794" x1="10.014" x2="10.014" y1="44.96" y2="2.8765" gradientTransform="matrix(2.2245 0 0 1.7674 10.292 -55)" gradientUnits="userSpaceOnUse">
   <stop id="stop2759" style="stop-color:#650d5c" offset="0"/>
   <stop id="stop2761" style="stop-color:#5e2c59" offset="1"/>
  </linearGradient>
  <linearGradient id="linearGradient3797" x1="36.603" x2="36.603" y1="35.296" y2="1.906" gradientTransform="matrix(2.4245 0 0 2.2658 5.5712 -55.146)" gradientUnits="userSpaceOnUse">
   <stop id="stop9938" style="stop-color:#333" offset="0"/>
   <stop id="stop9940" style="stop-color:#575757" offset="1"/>
  </linearGradient>
  <linearGradient id="linearGradient3799" x1="-51.09" x2="-28.956" y1="6.8982" y2="6.8982" gradientTransform="matrix(2.4429 0 0 2.2827 135.01 -61.104)" gradientUnits="userSpaceOnUse" spreadMethod="reflect">
   <stop id="stop5235" style="stop-color:#3c3c3c" offset="0"/>
   <stop id="stop5237" style="stop-color:#282828" offset="1"/>
  </linearGradient>
  <radialGradient id="radialGradient3802" cx="1" cy="5.5643" r="23" gradientTransform="matrix(2.6444 0 0 1.9565 .53338 -44.304)" gradientUnits="userSpaceOnUse">
   <stop id="stop6604" style="stop-color:#fff" offset="0"/>
   <stop id="stop6606" style="stop-color:#fff;stop-opacity:0" offset="1"/>
  </radialGradient>
  <linearGradient id="linearGradient3805" x1="20.147" x2="20.104" y1="-.0004971" y2="31.983" gradientTransform="matrix(2.5787 0 0 2.874 2.1115 -58.983)" gradientUnits="userSpaceOnUse">
   <stop id="stop6546" style="stop-color:#f0f0f0" offset="0"/>
   <stop id="stop6548" style="stop-color:#d2d2d2" offset="1"/>
  </linearGradient>
  <linearGradient id="linearGradient3218" x1="15.574" x2="23.578" y1="46.971" y2="46.971" gradientTransform="matrix(3.1283 0 0 2.6667 -9.7589 -74.756)" gradientUnits="userSpaceOnUse" spreadMethod="reflect">
   <stop id="stop3344" style="stop-color:#fff;stop-opacity:0" offset="0"/>
   <stop id="stop3346" style="stop-color:#fff" offset="1"/>
  </linearGradient>
  <linearGradient id="linearGradient3221" x1="361.11" x2="361.11" y1="87.05" y2="94.396" gradientTransform="matrix(2.6747 0 0 2.546 -893.98 -189.09)" gradientUnits="userSpaceOnUse">
   <stop id="stop3914" style="stop-color:#787878" offset="0"/>
   <stop id="stop3916" style="stop-color:#b4b4b4" offset=".35047"/>
   <stop id="stop3918" style="stop-color:#c8c8c8" offset=".49418"/>
   <stop id="stop3920" style="stop-color:#e6e6e6" offset=".58907"/>
   <stop id="stop3922" style="stop-color:#8c8c8c" offset="1"/>
  </linearGradient>
  <linearGradient id="linearGradient3223" x1="61.969" x2="61.969" y1="35.054" y2="43.378" gradientTransform="matrix(2.6843 0 0 2.5456 -102.43 -59.233)" gradientUnits="userSpaceOnUse">
   <stop id="stop3926" style="stop-color:#464646" offset="0"/>
   <stop id="stop3928" style="stop-color:#787878" offset=".1008"/>
   <stop id="stop3930" style="stop-color:#828282" offset=".56053"/>
   <stop id="stop3932" style="stop-color:#828282" offset=".6453"/>
   <stop id="stop3934" style="stop-color:#646464" offset="1"/>
  </linearGradient>
  <radialGradient id="radialGradient4827" cx="6.7027" cy="73.616" r="7.2284" gradientTransform="matrix(5.257 0 0 1.1067 28.764 -32.474)" gradientUnits="userSpaceOnUse">
   <stop id="stop10693-3" offset="0"/>
   <stop id="stop10695-1" style="stop-opacity:0" offset="1"/>
  </radialGradient>
 </defs>
 <metadata id="metadata4834">
  <rdf:RDF>
   <cc:Work rdf:about="">
    <dc:format>image/svg+xml</dc:format>
    <dc:type rdf:resource="http://purl.org/dc/dcmitype/StillImage"/>
    <dc:title/>
   </cc:Work>
  </rdf:RDF>
 </metadata>
 <g id="layer1" transform="translate(0,64)">
  <path id="path2589-9" d="m102 49c0 4.4183-17.013 8-38 8-20.987 0-38-3.5817-38-8s17.013-8 38-8c20.987 0 38 3.5817 38 8z" style="fill:url(#radialGradient4827);opacity:.3"/>
  <path id="rect1789" d="m47.5 30.499s0.3975 10.839-1.5006 13.365c-1.8981 2.5263-5.675 4.1366-5.675 4.1366-2.4236 0.2654-2.4437 3.5002 0 3.5002h47.351c2.4437 0 2.4241-3.2382 0-3.5002 0 0-3.7767-1.6103-5.6748-4.1366-1.8981-2.5263-1.5006-13.365-1.5006-13.365h-32.983-0.01694z" style="enable-background:new;fill:url(#linearGradient3221);stroke-dashoffset:.5;stroke-linecap:round;stroke-linejoin:round;stroke-width:.99827;stroke:url(#linearGradient3223)"/>
  <path id="path3340" d="m40.525 50.5h46.95" style="fill:none;stroke-linecap:square;stroke-width:1px;stroke:url(#linearGradient3218)"/>
  <rect id="rect2722" x="3.5001" y="-57.5" width="121" height="89" rx="3" ry="3" style="fill:url(#linearGradient3805);stroke-dashoffset:.5;stroke-linecap:round;stroke-linejoin:round;stroke-width:1.0002;stroke:#aaa"/>
  <rect id="rect4642" x="4.5001" y="-56.5" width="119" height="87" rx="2" ry="2" style="enable-background:new;fill:none;stroke-dashoffset:.5;stroke-linecap:round;stroke-linejoin:round;stroke-width:1.0003;stroke:url(#radialGradient3802)"/>
  <path id="path2514-7" d="m11.481-49.519h105.04v73.039h-105.04v-73.039 0z" style="fill-rule:evenodd;fill:url(#linearGradient3797);stroke-linecap:round;stroke-linejoin:round;stroke-width:.96124;stroke:url(#linearGradient3799)"/>
  <path id="path2514" d="m11.501-49.499h60.061c7.5112 2.049 44.936 30.973 44.936 35.882v37.116h-105v-72.998 0z" style="color:#000000;fill-rule:evenodd;fill:url(#radialGradient3792);stroke-linecap:round;stroke-linejoin:round;stroke-width:1.0021;stroke:url(#linearGradient3794)"/>
  <path id="path2516" d="m12-48.915v48.915c5.0476-1.169 104.34-28.509 106-29.954l3e-5 -19.046-106 0.085215z" style="fill-rule:evenodd;fill:url(#linearGradient3789);opacity:.3"/>
  <path id="path3232" d="m66-49.621c17.083 0 8.5893 34.241 8.5893 34.241s41.316-9.5388 41.316 7.38l0.0943-8.038c-8.8257-8.9304-27.529-26.403-39.565-33.054l-10.435-0.52865z" style="fill-rule:evenodd;opacity:.05"/>
  <path id="path3230" d="m69.242-49.621c15.973 0 8.0312 32.016 8.0312 32.016s38.632-7.4836 38.632 8.1471c2.0459-13.336-34.074-44.313-46.663-40.163z" style="fill-rule:evenodd;opacity:.1"/>
  <path id="path12038" d="m79.69-19.607s36.216-6.3768 36.216 9.9728c0-9.2333-20.391-35.06-43.745-39.987 11.354 4.3976 9.811 19.13 7.529 30.014z" style="fill-rule:evenodd;opacity:.15"/>
  <path id="path4474" d="m72.161-49.621c11.142 0 8.1671 27.108 8.1671 27.108s35.578-3.471 35.578 12.879c0-3.9836 0.3004-6.8364-0.46777-8.0794-5.5187-8.9306-29.355-28.971-37.963-31.597-0.64414-0.19655-2.0724-0.3097-5.3141-0.3097z" style="fill-rule:evenodd;fill:url(#linearGradient2455)"/>
 </g>
</svg>
