<?xml version="1.0" encoding="UTF-8"?>
<!-- Created with Inkscape (http://www.inkscape.org/) -->
<svg id="svg3675" width="128" height="128" version="1.0" xmlns="http://www.w3.org/2000/svg" xmlns:xlink="http://www.w3.org/1999/xlink">
 <defs id="defs3677">
  <linearGradient id="linearGradient2407" x1="63.397" x2="63.397" y1="-12.489" y2="5.4676" gradientTransform="matrix(5.6434 0 0 5.6429 -286.51 83.309)" gradientUnits="userSpaceOnUse">
   <stop id="stop4875" style="stop-color:#fff" offset="0"/>
   <stop id="stop4877" style="stop-color:#fff;stop-opacity:0" offset="1"/>
  </linearGradient>
  <radialGradient id="radialGradient2410" cx="23.896" cy="3.99" r="20.397" gradientTransform="matrix(0 6.1021 -8.0553 0 96.659 -138.26)" gradientUnits="userSpaceOnUse">
   <stop id="stop2778" style="stop-color:#8badea" offset="0"/>
   <stop id="stop2780" style="stop-color:#6396cd" offset=".26238"/>
   <stop id="stop2782" style="stop-color:#3b7caf" offset=".66094"/>
   <stop id="stop2784" style="stop-color:#194c70" offset="1"/>
  </radialGradient>
  <linearGradient id="linearGradient2412" x1="18.379" x2="18.379" y1="44.98" y2="3.0816" gradientTransform="matrix(2.5569 0 0 2.5568 3.1524 2.1354)" gradientUnits="userSpaceOnUse">
   <stop id="stop2788" style="stop-color:#1f4b6a" offset="0"/>
   <stop id="stop2790" style="stop-color:#4083c2" offset="1"/>
  </linearGradient>
  <radialGradient id="radialGradient2415" cx="62.625" cy="4.625" r="10.625" gradientTransform="matrix(5.7751 0 0 2.0086 -297.14 94.223)" gradientUnits="userSpaceOnUse">
   <stop id="stop8840" offset="0"/>
   <stop id="stop8842" style="stop-opacity:0" offset="1"/>
  </radialGradient>
 </defs>
 <path id="path8836" d="m125.88 103.51c0 11.786-27.472 21.341-61.36 21.341-33.888 0-61.36-9.5548-61.36-21.341 0-11.786 27.472-21.341 61.36-21.341 33.888 0 61.36 9.5548 61.36 21.341z" style="fill-rule:evenodd;fill:url(#radialGradient2415);opacity:.5"/>
 <path id="path2555" d="m64.519 11.484c-28.702 0-52.018 23.315-52.018 52.014 0 28.7 23.316 52.014 52.018 52.014 28.702 0 52.018-23.315 52.018-52.014 0-28.7-23.316-52.014-52.018-52.014z" style="fill:url(#radialGradient2410);stroke-linecap:round;stroke-linejoin:round;stroke-width:.99915;stroke:url(#linearGradient2412)"/>
 <path id="path8655" d="m115.5 63.496c0 27.257-22.3 51.241-50.98 51.004-29.513-0.24532-50.674-23.749-51.02-51.004-0.35612-28.087 23.287-51.115 51.02-50.996 27.255 0.11666 50.98 21.96 50.98 50.996z" style="fill:none;opacity:.4;stroke-width:.99915;stroke:url(#linearGradient2407)"/>
 <path id="path6668" d="m72.394 35.041c0 4.4184-3.5949 8.0044-8.0243 8.0044-4.4294 0-8.0243-3.586-8.0243-8.0044 0-4.4184 3.5949-8.0044 8.0243-8.0044 4.4294 0 8.0243 3.586 8.0243 8.0044zm19.005 9.2994-27.41 3.9016-27.262-3.9604c-1.4373-0.38833-1.6955-0.3607-2.483 0.01784-0.78745 0.37854-1.3037 0.97388-1.3145 1.8276-0.01006 0.85387 0.53688 1.5902 1.3145 1.9876l21.363 6.398-0.14612 15.519-7.3384 23.242c-0.36389 1.2998-0.22149 2.2969 0.38467 3.1232 0.76757 1.0463 2.6333 0.49067 3.3594-0.5678l12.165-25.088 11.935 25.044c0.64537 1.0977 2.084 1.4791 3.2133 0.85182 1.1293-0.62725 1.1806-2.0255 0.77664-3.1233l-7.2983-23.342-0.29207-14.61 21.662-7.5306c0.87524-0.59657 1.2555-1.726 0.87639-2.6973-0.37912-0.97146-1.117-1.235-2.1791-1.1173-0.38036-0.03074-0.99464 0.01814-1.3263 0.12352z" style="opacity:.2"/>
 <path id="path2851" d="m72.394 36.041c0 4.4184-3.5949 8.0044-8.0243 8.0044-4.4294 0-8.0243-3.586-8.0243-8.0044 0-4.4184 3.5949-8.0044 8.0243-8.0044 4.4294 0 8.0243 3.586 8.0243 8.0044zm19.005 9.2994-27.41 3.9016-27.262-3.9604c-1.4373-0.38833-1.6955-0.3607-2.483 0.01784-0.78745 0.37854-1.3037 0.97388-1.3145 1.8276-0.01006 0.85387 0.53688 1.5902 1.3145 1.9876l21.363 6.398-0.14612 15.519-7.3384 23.242c-0.36389 1.2998-0.22149 2.2969 0.38467 3.1232 0.76757 1.0463 2.6333 0.49067 3.3594-0.5678l12.165-25.088 11.935 25.044c0.64537 1.0977 2.084 1.4791 3.2133 0.85182 1.1293-0.62725 1.1806-2.0255 0.77664-3.1233l-7.2983-23.342-0.29207-14.61 21.662-7.5306c0.87524-0.59657 1.2555-1.726 0.87639-2.6973-0.37912-0.97146-1.117-1.235-2.1791-1.1173-0.38036-0.03074-0.99464 0.01814-1.3263 0.12352z" style="fill:#fff"/>
</svg>
