<?xml version="1.0" encoding="UTF-8"?>
<!-- Created with Inkscape (http://www.inkscape.org/) -->
<svg id="svg3385" width="128" height="128" version="1.0" xmlns="http://www.w3.org/2000/svg" xmlns:xlink="http://www.w3.org/1999/xlink">
 <defs id="defs3387">
  <radialGradient id="radialGradient2587" cx="32" cy="41.5" r="21" gradientTransform="matrix(2.2857 0 0 .7619 -11.143 72.381)" gradientUnits="userSpaceOnUse" xlink:href="#linearGradient5060"/>
  <linearGradient id="linearGradient2584" x1="30" x2="30" y1="25.085" y2="45" gradientTransform="matrix(2.6774 0 0 2.6667 -18.323 -3.1666)" gradientUnits="userSpaceOnUse" xlink:href="#linearGradient3785"/>
  <radialGradient id="radialGradient2582" cx="25" cy="28.66" r="16" gradientTransform="matrix(3.5141 0 0 .99538 -39.24 50.973)" gradientUnits="userSpaceOnUse" xlink:href="#linearGradient6954"/>
  <linearGradient id="linearGradient3383" x1="30" x2="30" y1="44.324" y2="5.7667" gradientTransform="matrix(2.6774 0 0 2.6667 -24.323 -3.1666)" gradientUnits="userSpaceOnUse" xlink:href="#linearGradient3341"/>
  <linearGradient id="linearGradient3785">
   <stop id="stop3787" style="stop-color:#bdbdbd" offset="0"/>
   <stop id="stop3789" style="stop-color:#8c8c8c" offset="1"/>
  </linearGradient>
  <linearGradient id="linearGradient2576" x1="30" x2="30" y1="5" y2="44.679" gradientTransform="matrix(2.6667 0 0 2.6503 -18.5 -3.0766)" gradientUnits="userSpaceOnUse" xlink:href="#linearGradient3785"/>
  <linearGradient id="linearGradient6954">
   <stop id="stop6960" style="stop-color:#f5f5f5" offset="0"/>
   <stop id="stop6962" style="stop-color:#d2d2d2" offset="1"/>
  </linearGradient>
  <radialGradient id="radialGradient2574" cx="26.376" cy="12.313" r="8" gradientTransform="matrix(4.3738 -.35138 .34164 4.2004 -67.557 -16.931)" gradientUnits="userSpaceOnUse" xlink:href="#linearGradient6954"/>
  <linearGradient id="linearGradient2571" x1="22" x2="17" y1="39" y2="37.438" gradientTransform="matrix(2.6774 0 0 2.6667 -18.323 -3.1666)" gradientUnits="userSpaceOnUse" xlink:href="#linearGradient5060"/>
  <linearGradient id="linearGradient2568" x1="38" x2="43" y1="39" y2="38.6" gradientTransform="matrix(2.6774 0 0 2.6667 -18.323 -3.1666)" gradientUnits="userSpaceOnUse" xlink:href="#linearGradient5060"/>
  <linearGradient id="linearGradient5060">
   <stop id="stop5062" offset="0"/>
   <stop id="stop5064" style="stop-opacity:0" offset="1"/>
  </linearGradient>
  <radialGradient id="radialGradient2565" cx="30" cy="33.188" r="4.6875" gradientTransform="matrix(4.091 -1.8839e-6 5.7052e-7 1.229 -60.731 36.047)" gradientUnits="userSpaceOnUse" xlink:href="#linearGradient5060"/>
  <linearGradient id="linearGradient3371" x1="30" x2="30" y1="3.0411" y2="27.957" gradientTransform="matrix(2.7846 0 0 2.7471 -28.039 -4.7059)" gradientUnits="userSpaceOnUse" xlink:href="#linearGradient3341"/>
  <linearGradient id="linearGradient2559" x1="18.379" x2="18.379" y1="44.98" y2="3.0816" gradientTransform="matrix(1.3763 0 0 1.3763 63.468 62.468)" gradientUnits="userSpaceOnUse" xlink:href="#linearGradient2490-182-124"/>
  <radialGradient id="radialGradient2557" cx="23.896" cy="3.99" r="20.397" gradientTransform="matrix(0 3.2849 -4.336 0 113.8 -13.107)" gradientUnits="userSpaceOnUse">
   <stop id="stop2778" style="stop-color:#8badea" offset="0"/>
   <stop id="stop2780" style="stop-color:#6396cd" offset=".26238"/>
   <stop id="stop2782" style="stop-color:#3b7caf" offset=".66094"/>
   <stop id="stop2784" style="stop-color:#194c70" offset="1"/>
  </radialGradient>
  <linearGradient id="linearGradient3341">
   <stop id="stop3343" style="stop-color:#fff" offset="0"/>
   <stop id="stop3345" style="stop-color:#fff;stop-opacity:0" offset="1"/>
  </linearGradient>
  <linearGradient id="linearGradient2554" x1="63.397" x2="63.397" y1="-12.489" y2="5.4676" gradientTransform="matrix(3.0873 0 0 3.0872 -95.531 106.34)" gradientUnits="userSpaceOnUse" xlink:href="#linearGradient3341"/>
  <linearGradient id="linearGradient2490-182-124">
   <stop id="stop2788" style="stop-color:#1f4b6a" offset="0"/>
   <stop id="stop2790" style="stop-color:#4083c2" offset="1"/>
  </linearGradient>
  <linearGradient id="linearGradient3367" x1="90.5" x2="90.5" y1="123.88" y2="67.015" gradientTransform="translate(6)" gradientUnits="userSpaceOnUse" xlink:href="#linearGradient2490-182-124"/>
 </defs>
 <g id="layer1">
  <path id="path3823" d="m110 104c0 8.8366-21.49 16-48 16s-48-7.1634-48-16c0-8.8366 21.49-16 48-16s48 7.1634 48 16z" style="fill:url(#radialGradient2587);opacity:.7"/>
  <path id="path3766" d="m49.952 51.5c1.2322 5.8046 1.92 10.195 0.92036 16-7.7932 6.4397-27.724 9.3333-27.695 16l-2.6774 20c0 6.6274 18.58 12 41.5 12 22.92 0 41.5-5.3726 41.5-12l-2.6774-20c-0.03178-5.7058-20.081-9.3333-27.778-16-0.6575-5.3876-0.13411-10.612 1.004-16h-24.097z" style="fill:url(#radialGradient2582);stroke:url(#linearGradient2584)"/>
  <path id="path3381" transform="translate(6)" d="m45.156 52.531c1.0652 5.2234 1.6999 9.6405 0.75 15.156-0.04608 0.24653-0.17916 0.46832-0.375 0.625-4.1748 3.4498-11.15 5.7163-17.062 8.0625-2.9561 1.1731-5.6399 2.367-7.5 3.5938s-2.7551 2.3862-2.75 3.5312c0.00249 0.041629 0.00249 0.083371 0 0.125l-2.6875 19.875c0 0.00869-9.4e-5 0.02255 0 0.03125 0.012597 1.1612 0.87366 2.4558 2.8125 3.7812 1.9534 1.3354 4.907 2.5902 8.5938 3.6562 7.3736 2.1321 17.684 3.5 29.062 3.5s21.689-1.3679 29.062-3.5c3.6868-1.0661 6.6404-2.3208 8.5938-3.6562 1.9388-1.3255 2.7999-2.6201 2.8125-3.7812v-0.03125l-2.6875-19.875c-0.00249-0.041629-0.00249-0.083371 0-0.125-0.002267-0.40705-0.1967-0.84088-0.65625-1.375s-1.1774-1.1295-2.125-1.7188c-1.8952-1.1786-4.6168-2.341-7.5938-3.5625-5.9539-2.4431-12.945-4.9962-17.062-8.5625-0.19076-0.16953-0.313-0.40291-0.34375-0.65625-0.62405-5.1134-0.13412-10.071 0.84375-15.094h-21.688z" style="fill:none;opacity:.4;stroke:url(#linearGradient3383)"/>
  <path id="path3764" d="m61.5 11.5c-11.046 0-20 8.3061-20 18.552 0.086561 3.7919 0.41219 8.2965 2.6667 18.552 1.3333 3.9755 13.226 14.577 13.333 15.902 2.5858 1.3252 6.6667 1.3252 9.3333 0 0-1.3252 10.667-11.926 12-15.902 2.537-10.659 2.5306-14.577 2.6667-18.552 0-10.246-8.9543-18.552-20-18.552z" style="fill:url(#radialGradient2574);stroke:url(#linearGradient2576)"/>
  <path id="path3848" d="m37.903 112.03c-6.325-5.2858-3.3089-17.021-2.6774-24.533-2.6774 5.3333-2.6774 21.333-8.0323 21.333 3.6483 1.2228 7.3617 2.5754 10.71 3.2z" style="fill:url(#linearGradient2571);opacity:.3"/>
  <path id="path3850" d="m86.097 112.03c6.2921-4.65 3.097-17.296 2.6774-24.533 2.6774 5.3333 2.6774 21.333 8.0323 21.333-3.6483 1.2228-7.3617 2.5754-10.71 3.2z" style="fill:url(#linearGradient2568);opacity:.3"/>
  <path id="path3833" d="m49.45 68.833c1.8375 4.6527 6.7442 8 12.55 8 5.8062 0 10.713-3.3473 12.55-8h-25.101z" style="fill:url(#radialGradient2565);opacity:.2"/>
  <path id="path3369" transform="translate(6)" d="m55.5 12.469c-10.439 0-18.728 7.6584-18.781 17.062-2.1e-4 0.010416-2.1e-4 0.020834 0 0.03125-0.001111-0.047949-0.00193 0.011045 0 0.09375 0.089416 3.8059 0.45014 8.2972 2.7188 18.594 0.005022 0.053019 0.015494 0.10538 0.03125 0.15625 0.14077 0.33066 0.35935 0.64509 0.75 1.2188s0.92205 1.2954 1.5625 2.0625c1.3007 1.5579 2.8935 3.2921 4.5312 5 1.634 1.7041 3.2964 3.3956 4.5312 4.7188 0.60708 0.65048 1.1011 1.2451 1.5312 1.7812-0.082667-0.10299-0.095453-0.076657 0.0625 0.125 0.089052 0.11373 0.20811 0.20032 0.34375 0.25 1.8968 0.73548 4.7156 0.72413 6.7188 0 0.15103-0.052804 0.28202-0.15105 0.375-0.28125 0.39834-0.57031 0.81758-1.1769 1.3438-1.8125 1.0968-1.3249 2.5263-2.9146 4-4.625 1.4719-1.7083 3.0277-3.5584 4.2188-5.125 1.1402-1.4998 1.8326-2.5938 2.0938-3.2188 0.013867-0.040727 0.02432-0.082538 0.03125-0.125 0.009917-0.040484-0.003131-0.053561 0-0.09375 2.5782-10.778 2.5787-14.505 2.7188-18.625 2.1e-4 -0.010416 2.1e-4 -0.020834 0-0.03125 4e-6 -0.026197 2.03e-4 -0.058206 0-0.09375-0.053562-9.4041-8.3422-17.062-18.781-17.062z" style="fill:none;opacity:.7;stroke-width:1.0069;stroke:url(#linearGradient3371)"/>
  <path id="path2555" d="m96.5 67.5c-15.449 0-28 12.551-28 28 0 15.449 12.551 28 28 28 15.449 0 28-12.551 28-28 0-15.449-12.551-28-28-28z" style="fill:url(#radialGradient2557);stroke-linecap:round;stroke-linejoin:round;stroke:url(#linearGradient2559)"/>
  <path id="path2463" d="m123.5 95.499c0 14.912-12.089 27.001-27 27.001-14.912 0-27-12.089-27-27.001 0-14.911 12.089-26.999 27-26.999 14.91 0 27 12.088 27 26.999z" style="fill:none;opacity:.4;stroke:url(#linearGradient2554)"/>
  <path id="path2589" d="m89 94.107c0.35688 0.96169 0.75859 1.7412 1.6142 0.67532 1.0608-0.62564 4.6153-3.368 4.2596-0.6818-1.1381 4.9707-2.5235 9.8892-3.5828 14.875-1.1076 2.7301 1.4076 5.1996 4.0336 3.4242 2.7913-1.1406 5.1932-2.9985 7.647-4.7028-0.33481-0.81391-0.55796-1.9831-1.4831-0.91867-1.2147 0.54651-3.8678 3.1231-4.3607 0.998 1.0203-5.3824 2.9108-10.566 4.1192-15.905 1.112-2.4551-0.70416-5.5572-3.4228-3.5263-3.257 1.4061-5.9808 3.7031-8.8244 5.7619zm12.088-18.103c-3.3231-0.17481-5.0606 5.1353-1.9026 6.5884 2.562 1.0415 5.3516-1.5632 4.7257-4.1658-0.19424-1.3552-1.4217-2.4681-2.8231-2.4225z" style="fill:url(#linearGradient3367)"/>
  <path id="path3536" d="m89 95.107c0.35688 0.96169 0.75859 1.7412 1.6142 0.67532 1.0608-0.62564 4.6153-3.368 4.2596-0.6818-1.1381 4.9707-2.5235 9.8892-3.5828 14.875-1.1076 2.7301 1.4076 5.1996 4.0336 3.4242 2.7913-1.1406 5.1932-2.9985 7.647-4.7028-0.33481-0.81391-0.55796-1.9831-1.4831-0.91867-1.2147 0.54651-3.8678 3.1231-4.3607 0.998 1.0203-5.3824 2.9108-10.566 4.1192-15.905 1.112-2.4551-0.70416-5.5572-3.4228-3.5263-3.257 1.4061-5.9808 3.7031-8.8244 5.7619zm12.088-18.103c-3.3231-0.17481-5.0606 5.1353-1.9026 6.5884 2.562 1.0415 5.3516-1.5632 4.7257-4.1658-0.19424-1.3552-1.4217-2.4681-2.8231-2.4225z" style="fill:#fff"/>
 </g>
</svg>
