<?xml version="1.0" encoding="UTF-8"?>
<!-- Created with Inkscape (http://www.inkscape.org/) -->
<svg id="svg2985" width="64px" height="64px" version="1.1" xmlns="http://www.w3.org/2000/svg" xmlns:cc="http://creativecommons.org/ns#" xmlns:dc="http://purl.org/dc/elements/1.1/" xmlns:rdf="http://www.w3.org/1999/02/22-rdf-syntax-ns#" xmlns:xlink="http://www.w3.org/1999/xlink">
 <defs id="defs2987">
  <linearGradient id="linearGradient2914" x1="63.397" x2="63.397" y1="-12.489" y2="5.4676" gradientTransform="matrix(2.8014 0 0 2.8014 -142.25 43.835)" gradientUnits="userSpaceOnUse">
   <stop id="stop4875" style="stop-color:#fff" offset="0"/>
   <stop id="stop4877" style="stop-color:#fff;stop-opacity:0" offset="1"/>
  </linearGradient>
  <radialGradient id="radialGradient2917" cx="23.896" cy="3.99" r="20.397" gradientTransform="matrix(0 2.9914 -3.9485 0 47.755 -64.903)" gradientUnits="userSpaceOnUse">
   <stop id="stop2778" style="stop-color:#8badea" offset="0"/>
   <stop id="stop2780" style="stop-color:#6396cd" offset=".26238"/>
   <stop id="stop2782" style="stop-color:#3b7caf" offset=".66094"/>
   <stop id="stop2784" style="stop-color:#194c70" offset="1"/>
  </radialGradient>
  <linearGradient id="linearGradient2919" x1="18.379" x2="18.379" y1="44.98" y2="3.0816" gradientTransform="matrix(1.2534 0 0 1.2534 1.9192 3.9192)" gradientUnits="userSpaceOnUse">
   <stop id="stop2788" style="stop-color:#1f4b6a" offset="0"/>
   <stop id="stop2790" style="stop-color:#4083c2" offset="1"/>
  </linearGradient>
  <radialGradient id="radialGradient2983" cx="62.625" cy="4.625" r="10.625" gradientTransform="matrix(2.9176 0 0 .98823 -150.72 48.929)" gradientUnits="userSpaceOnUse">
   <stop id="stop8840" offset="0"/>
   <stop id="stop8842" style="stop-opacity:0" offset="1"/>
  </radialGradient>
 </defs>
 <metadata id="metadata2990">
  <rdf:RDF>
   <cc:Work rdf:about="">
    <dc:format>image/svg+xml</dc:format>
    <dc:type rdf:resource="http://purl.org/dc/dcmitype/StillImage"/>
    <dc:title/>
   </cc:Work>
  </rdf:RDF>
 </metadata>
 <g id="layer1">
  <path id="path8836" d="m63 53.5c0 5.799-13.879 10.5-31 10.5s-31-4.701-31-10.5 13.879-10.5 31-10.5 31 4.701 31 10.5z" style="fill-rule:evenodd;fill:url(#radialGradient2983);opacity:.3"/>
  <path id="path2555" d="m32 8.5018c-14.069 0-25.498 11.429-25.498 25.498 0 14.069 11.429 25.498 25.498 25.498 14.069 0 25.498-11.429 25.498-25.498 0-14.069-11.429-25.498-25.498-25.498z" style="fill:url(#radialGradient2917);stroke-linecap:round;stroke-linejoin:round;stroke:url(#linearGradient2919)"/>
  <path id="path8655" d="m56.5 33.999c0 13.531-10.97 24.501-24.5 24.501-13.531 0-24.5-10.97-24.5-24.501 0-13.531 10.969-24.499 24.5-24.499 13.53 0 24.5 10.968 24.5 24.499z" style="fill:none;opacity:.4;stroke:url(#linearGradient2914)"/>
  <path id="text2315-7" d="m28.965 18.309c0.71921 7.2269 1.543 14.404 2.1553 21.659h1.9538c0.50783-6.9673 1.3269-13.892 1.9178-20.851 0.3012-1.6477-0.5212-3.604-2.2126-4.0044-1.6714-0.50268-3.5387 0.74211-3.761 2.5202-0.03685 0.22321-0.0533 0.44975-0.0533 0.67607h-1e-6zm-0.21316 29.382c-0.07605 2.1512 2.2249 3.8375 4.1895 3.1555 1.9029-0.49956 2.9051-2.9598 1.9299-4.7086-0.87298-1.8078-3.433-2.4034-4.9056-1.0198-0.74439 0.62911-1.2378 1.5683-1.2138 2.573l-1e-6 -2e-6z" style="fill:#1f4b6b"/>
  <path id="text2315" d="m28.965 19.309c0.71921 7.2269 1.543 14.404 2.1553 21.659h1.9538c0.50783-6.9673 1.3269-13.892 1.9178-20.851 0.3012-1.6477-0.5212-3.604-2.2126-4.0044-1.6714-0.50268-3.5387 0.74211-3.761 2.5202-0.03685 0.22321-0.0533 0.44975-0.0533 0.67607h-1e-6zm-0.21316 29.382c-0.07605 2.1512 2.2249 3.8375 4.1895 3.1555 1.9029-0.49956 2.9051-2.9598 1.9299-4.7086-0.87298-1.8078-3.433-2.4034-4.9056-1.0198-0.74439 0.62911-1.2378 1.5683-1.2138 2.573l-1e-6 -2e-6z" style="fill:#fff"/>
 </g>
</svg>
