<?xml version="1.0" encoding="UTF-8"?>
<!-- Created with Inkscape (http://www.inkscape.org/) -->
<svg id="svg2896" width="16" height="16" version="1.1" xmlns="http://www.w3.org/2000/svg">
 <g id="layer1" transform="translate(-5 4)">
  <g id="layer1-3" transform="translate(-2 -5)">
   <path id="path2805-4-1" d="m20.391 5.2783a1.1956 1.1956 0 0 0-1.5192-1.6725" style="fill:none;stroke-linecap:round;stroke-width:.99999;stroke:#606060"/>
   <path id="path2818-0-7" d="m18.551 3.6525a3.0947 3.0948 0 0 0-6.0509 0.94249" style="fill:none;stroke-linecap:round;stroke-width:.99999;stroke:#606060"/>
   <path id="path2820-3-5" d="m12.683 5.529a2.3886 2.3886 0 1 0-1.8949 3.9637" style="fill:none;stroke-linecap:round;stroke-width:.99999;stroke:#606060"/>
   <path id="path2822-7-7" d="m20.328 9.48a1.9882 1.9883 0 1 0 0.11882-3.9503" style="fill:none;stroke-linecap:round;stroke-width:.99999;stroke:#606060"/>
   <path id="path16154-1" d="m19.009 9.5h1.5127" style="color:#000000;fill:none;stroke-linecap:round;stroke-width:.99999;stroke:#606060"/>
   <path id="path2805-4-1-8" d="m19.391 12.278a1.1956 1.1956 0 0 0-1.5192-1.6725" style="fill:none;stroke-linecap:round;stroke-width:.99999;stroke:#606060"/>
   <path id="path2818-0-7-0" d="m17.551 10.653a3.0947 3.0948 0 0 0-6.0509 0.94249" style="fill:none;stroke-linecap:round;stroke-width:.99999;stroke:#606060"/>
   <path id="path2820-3-5-4" d="m11.683 12.529a2.3886 2.3886 0 1 0-1.8949 3.9637" style="fill:none;stroke-linecap:round;stroke-width:.99999;stroke:#606060"/>
   <path id="path2822-7-7-1" d="m19.328 16.48a1.9882 1.9883 0 1 0 0.11882-3.9503" style="fill:none;stroke-linecap:round;stroke-width:.99999;stroke:#606060"/>
   <path id="path16154-1-1" d="m10.009 16.5h9.5127" style="color:#000000;fill:none;stroke-linecap:round;stroke-width:.99999;stroke:#606060"/>
  </g>
 </g>
</svg>
