<?xml version="1.0" encoding="UTF-8"?>
<!-- Created with Inkscape (http://www.inkscape.org/) -->
<svg id="svg3372" width="24" height="24" version="1.2" xmlns="http://www.w3.org/2000/svg" xmlns:xlink="http://www.w3.org/1999/xlink">
 <defs id="defs3374">
  <linearGradient id="linearGradient2447" x1="302.86" x2="302.86" y1="366.65" y2="609.51" gradientTransform="matrix(.035207 0 0 .0082353 -.72485 18.981)" gradientUnits="userSpaceOnUse">
   <stop id="stop5050" style="stop-opacity:0" offset="0"/>
   <stop id="stop5056" offset=".5"/>
   <stop id="stop5052" style="stop-opacity:0" offset="1"/>
  </linearGradient>
  <radialGradient id="radialGradient2444" cx="605.71" cy="486.65" r="117.14" gradientTransform="matrix(-.012049 0 0 .0082353 10.761 18.981)" gradientUnits="userSpaceOnUse" xlink:href="#linearGradient5060"/>
  <linearGradient id="linearGradient5060">
   <stop id="stop5062" offset="0"/>
   <stop id="stop5064" style="stop-opacity:0" offset="1"/>
  </linearGradient>
  <radialGradient id="radialGradient2441" cx="605.71" cy="486.65" r="117.14" gradientTransform="matrix(.012049 0 0 .0082353 13.239 18.981)" gradientUnits="userSpaceOnUse" xlink:href="#linearGradient5060"/>
  <linearGradient id="linearGradient2438" x1="-51.786" x2="-51.786" y1="50.786" y2="2.9062" gradientTransform="matrix(.39221 0 0 .44736 29.199 -1.2387)" gradientUnits="userSpaceOnUse">
   <stop id="stop3106" style="stop-color:#aaa" offset="0"/>
   <stop id="stop3108" style="stop-color:#c8c8c8" offset="1"/>
  </linearGradient>
  <linearGradient id="linearGradient2435" x1="25.132" x2="25.132" y1=".98521" y2="47.013" gradientTransform="matrix(.48572 0 0 .47803 .34283 -.70595)" gradientUnits="userSpaceOnUse">
   <stop id="stop3602" style="stop-color:#f4f4f4" offset="0"/>
   <stop id="stop3604" style="stop-color:#dbdbdb" offset="1"/>
  </linearGradient>
  <radialGradient id="radialGradient2432" cx="92.09" cy="102.7" r="139.56" gradientTransform="matrix(.17021 0 0 -.19072 1.1064 23.717)" gradientUnits="userSpaceOnUse">
   <stop id="stop41" style="stop-color:#b7b8b9" offset="0"/>
   <stop id="stop47" style="stop-color:#ececec" offset=".17403"/>
   <stop id="stop49" style="stop-color:#fafafa;stop-opacity:0" offset=".23908"/>
   <stop id="stop51" style="stop-color:#fff;stop-opacity:0" offset=".30111"/>
   <stop id="stop53" style="stop-color:#fafafa;stop-opacity:0" offset=".5313"/>
   <stop id="stop55" style="stop-color:#ebecec;stop-opacity:0" offset=".8449"/>
   <stop id="stop57" style="stop-color:#e1e2e3;stop-opacity:0" offset="1"/>
  </radialGradient>
  <linearGradient id="linearGradient2429" x1="24" x2="24" y1="2" y2="46.017" gradientTransform="matrix(.45454 0 0 .46512 1.0909 .33723)" gradientUnits="userSpaceOnUse">
   <stop id="stop3213" style="stop-color:#fff" offset="0"/>
   <stop id="stop3215" style="stop-color:#fff;stop-opacity:0" offset="1"/>
  </linearGradient>
  <linearGradient id="linearGradient2425" x1="32.892" x2="36.358" y1="8.059" y2="5.4565" gradientTransform="matrix(.47785 0 0 .55248 .37225 -.076128)" gradientUnits="userSpaceOnUse">
   <stop id="stop8591" style="stop-color:#fefefe" offset="0"/>
   <stop id="stop8593" style="stop-color:#cbcbcb" offset="1"/>
  </linearGradient>
 </defs>
 <g id="layer1">
  <rect id="rect2879" x="3.5" y="22" width="17" height="2" style="fill:url(#linearGradient2447);opacity:.15"/>
  <path id="path2881" d="m3.5 22v1.9999c-0.62047 0.003765-1.5-0.44807-1.5-1.0001 0-0.552 0.6924-0.99982 1.5-0.99982z" style="fill:url(#radialGradient2444);opacity:.15"/>
  <path id="path2883" d="m20.5 22v1.9999c0.62047 0.0038 1.5-0.44807 1.5-1.0001 0-0.552-0.6924-0.99982-1.5-0.99982z" style="fill:url(#radialGradient2441);opacity:.15"/>
  <path id="path4160" d="m3.5 0.49996h11.5c0.68337 0.2373 4.5413 3.1282 5.5 5 0 5.7292 3.9e-5 11.271 3.9e-5 17h-17v-22z" style="fill:url(#linearGradient2435);stroke-linejoin:round;stroke-width:.99992;stroke:url(#linearGradient2438)"/>
  <path id="path4191" d="m4.1702 22c-0.093787 0-0.17021-0.085634-0.17021-0.19072v-20.598c0-0.10528 0.076426-0.19072 0.17021-0.19072 3.5215 0.052717 7.4239-0.078858 10.941 0.013125l4.8389 4.3271 0.049873 16.448c0 0.10509-0.076257 0.19072-0.17021 0.19072h-15.66z" style="fill:url(#radialGradient2432)"/>
  <path id="path2435" d="m19.5 5.677v15.823h-15v-20h10.394" style="fill:none;opacity:.6;stroke:url(#linearGradient2429)"/>
  <path id="path3370" d="m14.075 1c1.1563 0.32877 0.33906 4.6144 0.33906 4.6144s4.5154-0.42774 5.6077 1.195c1.4892 2.2123-0.068225-0.63517-0.17345-0.8217-0.75593-1.34-3.8663-4.5471-5.0454-4.9412-0.088232-0.029492-0.28388-0.04647-0.72791-0.04647z" style="fill-rule:evenodd;opacity:.2"/>
  <path id="path4474" d="m14 1c1.5262 0 1 4 1 4s4.9921-0.45326 4.9921 2c0-0.59774 0.05575-1.4784-0.06407-1.6559-0.83911-1.243-3.7438-3.8619-4.7981-4.2976-0.085978-0.035532-0.6859-0.04647-1.1299-0.04647z" style="fill-rule:evenodd;fill:url(#linearGradient2425)"/>
  <g id="layer8" transform="matrix(.77626 0 0 .65974 -3.562 -1.3733)">
   <flowRoot id="flowRoot2445" transform="translate(-55.269 22.43)" style="fill:#000000;font-family:Arial;font-size:4px" xml:space="preserve"><flowRegion id="flowRegion2447"><rect id="rect2449" x="-95.124" y="8.6025" width="63.762" height="77.499"/></flowRegion><flowPara id="flowPara2451"/></flowRoot>
   <flowRoot id="flowRoot2945" transform="translate(-70.939 6.2494)" style="fill:#000000;font-family:Arial;font-size:4px" xml:space="preserve"><flowRegion id="flowRegion2947"><rect id="rect2949" x="-95.124" y="8.6025" width="63.762" height="77.499"/></flowRegion><flowPara id="flowPara2951"/></flowRoot>
   <path id="text2748" d="m22.193 30.879c-0.36494-0.08641-1.1664 0.25101-1.0009-0.35045v-3.3122c-0.54073 0.52246-1.5925 1.1132-1.293-0.03432 0.73765-0.20197 1.1385-1.3939 1.9148-1.3941 0.62845-0.18384 0.30009 0.56142 0.379 0.91119v4.1799zm-5.3159-4.2853c-1.0488 0.57892-0.63873 2.2875-0.45146 3.2892 1.2653 0.92248 1.157-1.5155 1.0766-2.2568-0.03562-0.37941-0.09653-1.0221-0.6251-1.0324v1e-6zm0-0.80587c1.3832-0.04764 1.7563 1.5197 1.6954 2.5905 0.05944 1.0694-0.31228 2.638-1.6954 2.5871-1.3921 0.03904-1.7709-1.5156-1.6954-2.5974-0.03152-1.0714 0.28133-2.6344 1.6954-2.5802v-1e-6zm-3.1914 5.0911c-0.36494-0.08641-1.1664 0.25101-1.0009-0.35045v-3.3122c-0.54073 0.52246-1.5925 1.1132-1.293-0.03432 0.73765-0.20197 1.1385-1.3939 1.9148-1.3941 0.62845-0.18384 0.30009 0.56142 0.37901 0.91119v4.1799zm3.1914-13.139c-1.0488 0.57893-0.63873 2.2875-0.45146 3.2892 1.2653 0.92248 1.157-1.5155 1.0766-2.2568-0.03562-0.37941-0.09653-1.0221-0.6251-1.0324zm0-0.80586c1.3832-0.04764 1.7563 1.5197 1.6954 2.5905 0.05944 1.0694-0.31228 2.638-1.6954 2.5871-1.3921 0.03904-1.7709-1.5156-1.6954-2.5974-0.03152-1.0714 0.28133-2.6344 1.6954-2.5802zm-3.1914 5.0911c-0.36494-0.08641-1.1664 0.25101-1.0009-0.35045v-3.3123c-0.54073 0.52246-1.5925 1.1132-1.293-0.03432 0.73765-0.20197 1.1385-1.3939 1.9148-1.3941 0.62845-0.18384 0.30009 0.56141 0.37901 0.91119v4.1799zm0-8.8541c-0.36494-0.08641-1.1664 0.25101-1.0009-0.35046v-3.3123c-0.54073 0.52246-1.5925 1.1132-1.293-0.034312 0.73765-0.20197 1.1385-1.3939 1.9148-1.3941 0.62845-0.18384 0.30009 0.56141 0.37901 0.91119v4.1799z" style="fill:#7a7a7a"/>
  </g>
 </g>
</svg>
