<?xml version="1.0" encoding="UTF-8"?>
<!-- Created with Inkscape (http://www.inkscape.org/) -->
<svg id="svg2755" width="24" height="24" version="1.0" xmlns="http://www.w3.org/2000/svg" xmlns:xlink="http://www.w3.org/1999/xlink">
 <defs id="defs2757">
  <linearGradient id="linearGradient2673" x1="302.86" x2="302.86" y1="366.65" y2="609.51" gradientTransform="matrix(.035207 0 0 .0082353 -.72485 18.981)" gradientUnits="userSpaceOnUse">
   <stop id="stop5050" style="stop-opacity:0" offset="0"/>
   <stop id="stop5056" offset=".5"/>
   <stop id="stop5052" style="stop-opacity:0" offset="1"/>
  </linearGradient>
  <radialGradient id="radialGradient2670" cx="605.71" cy="486.65" r="117.14" gradientTransform="matrix(-.012049 0 0 .0082353 10.761 18.981)" gradientUnits="userSpaceOnUse" xlink:href="#linearGradient5060"/>
  <linearGradient id="linearGradient5060">
   <stop id="stop5062" offset="0"/>
   <stop id="stop5064" style="stop-opacity:0" offset="1"/>
  </linearGradient>
  <radialGradient id="radialGradient2667" cx="605.71" cy="486.65" r="117.14" gradientTransform="matrix(.012049 0 0 .0082353 13.239 18.981)" gradientUnits="userSpaceOnUse" xlink:href="#linearGradient5060"/>
  <linearGradient id="linearGradient2664" x1="-55.613" x2="-51.786" y1="44.819" y2="2.9062" gradientTransform="matrix(.39221 0 0 .44736 29.199 -1.2387)" gradientUnits="userSpaceOnUse">
   <stop id="stop2492" style="stop-color:#2e4a5a" offset="0"/>
   <stop id="stop2494" style="stop-color:#6e8796" offset="1"/>
  </linearGradient>
  <linearGradient id="linearGradient2656" x1="24" x2="24" y1="2" y2="46.017" gradientTransform="matrix(.45454 0 0 .46512 1.0909 .33723)" gradientUnits="userSpaceOnUse">
   <stop id="stop3213" style="stop-color:#fff" offset="0"/>
   <stop id="stop3215" style="stop-color:#fff;stop-opacity:0" offset="1"/>
  </linearGradient>
  <linearGradient id="linearGradient2652" x1="32.892" x2="36.358" y1="8.059" y2="5.4565" gradientTransform="matrix(.47785 0 0 .55248 .37225 -.076128)" gradientUnits="userSpaceOnUse">
   <stop id="stop8591" style="stop-color:#fefefe" offset="0"/>
   <stop id="stop8593" style="stop-color:#cbcbcb" offset="1"/>
  </linearGradient>
  <radialGradient id="radialGradient3679" cx="6.6147" cy="6.8818" r="9" gradientTransform="matrix(.0087506 1.8049 -2.3301 .011297 23.286 -9.4487)" gradientUnits="userSpaceOnUse">
   <stop id="stop3995" style="stop-color:#a3c0d0" offset="0"/>
   <stop id="stop4001" style="stop-color:#427da1" offset="1"/>
  </radialGradient>
 </defs>
 <g id="layer1">
  <rect id="rect2879" x="3.5" y="22" width="17" height="2" style="fill:url(#linearGradient2673);opacity:.15"/>
  <path id="path2881" d="m3.5 22v1.9999c-0.62047 0.003765-1.5-0.44807-1.5-1.0001 0-0.552 0.6924-0.99982 1.5-0.99982z" style="fill:url(#radialGradient2670);opacity:.15"/>
  <path id="path2883" d="m20.5 22v1.9999c0.62047 0.0038 1.5-0.44807 1.5-1.0001 0-0.552-0.6924-0.99982-1.5-0.99982z" style="fill:url(#radialGradient2667);opacity:.15"/>
  <path id="path4160" d="m3.5 0.49996h11.5c0.68337 0.2373 4.5413 3.1282 5.5 5 0 5.7292 3.9e-5 11.271 3.9e-5 17h-17v-22z" style="fill:url(#radialGradient3679);stroke-linejoin:round;stroke-width:.99992;stroke:url(#linearGradient2664)"/>
  <path id="path2435" d="m19.5 5.677v15.823h-15v-20h10.394" style="fill:none;opacity:.42;stroke:url(#linearGradient2656)"/>
  <path id="path3370" d="m14.075 1c1.1563 0.32877 0.33906 4.6144 0.33906 4.6144s4.5154-0.42774 5.6077 1.195c1.4892 2.2123-0.068225-0.63517-0.17345-0.8217-0.75593-1.34-3.8663-4.5471-5.0454-4.9412-0.088232-0.029492-0.28388-0.04647-0.72791-0.04647z" style="fill-rule:evenodd;opacity:.3"/>
  <path id="path4474" d="m14 0c1.5262 0 1 5 1 5s6.0748-0.45326 6.0748 2c0-0.59774 0.04504-1.8225-0.07478-2-0.83911-1.243-4.6708-4.6821-6-5-0.09048-0.021638-0.55596 0-1 0z" style="fill-rule:evenodd;fill:url(#linearGradient2652)"/>
 </g>
 <g id="g2970" transform="translate(-1)">
  <g id="g2897" transform="translate(1,7)" style="opacity:.81">
   <path id="path3296" d="m19.518 13.518-15.037-0.037" style="fill:none;opacity:.15;stroke-linecap:square;stroke-linejoin:round;stroke-width:.963;stroke:#fff"/>
   <path id="path2855" d="m19.518 9.5185-15.037-0.037" style="fill:none;opacity:.15;stroke-linecap:square;stroke-linejoin:round;stroke-width:.963;stroke:#fff"/>
   <path id="path2861" d="m19.518 5.5185-15.037-0.037" style="fill:none;opacity:.15;stroke-linecap:square;stroke-linejoin:round;stroke-width:.963;stroke:#fff"/>
  </g>
  <g id="g2956" transform="translate(1,-3)" style="opacity:.81">
   <path id="path2960" d="m19.518 11.518-15.037-0.037" style="fill:none;opacity:.15;stroke-linecap:square;stroke-linejoin:round;stroke-width:.963;stroke:#fff"/>
   <path id="path2966" d="m13.518 7.5185-9.037-0.037" style="fill:none;opacity:.15;stroke-linecap:square;stroke-linejoin:round;stroke-width:.963;stroke:#fff"/>
  </g>
 </g>
 <g id="g2984" transform="translate(14 -2.1035e-7)" style="opacity:.81">
  <g id="g3000">
   <g id="g2890" transform="translate(-10 7)" style="opacity:.81">
    <path id="path3332" d="m3.5185-5.518-0.037 20.037" style="fill:none;opacity:.15;stroke-linecap:square;stroke-linejoin:round;stroke-width:.963;stroke:#fff"/>
    <path id="path2849" d="m11.518-5.5-0.037 20.019" style="fill:none;opacity:.15;stroke-linecap:square;stroke-linejoin:round;stroke-width:.963;stroke:#fff"/>
    <path id="path2865" d="m7.5185-5.5-0.037 20.019" style="fill:none;opacity:.15;stroke-linecap:square;stroke-linejoin:round;stroke-width:.963;stroke:#fff"/>
   </g>
  </g>
 </g>
 <path id="text34519" d="m10.014 8.7479c-0.44654 0.32816-0.39376 1.1901 0.09328 1.4452 1.11 0.44516 1.83-0.18669 2.0924-1.3591 0.0072-0.17278 0.06613-0.42672-0.16647-0.34746-0.69675-0.03713-1.3607 0.0158-2.0192 0.26132zm2.9863-0.5847c1e-6 0.90631 1e-6 1.8126 1e-6 2.7189h-0.79424c-0.01562-0.20075 0.03159-0.62781-0.02422-0.68383-0.31095 0.50014-0.85332 0.7713-1.3934 0.79737-1.448 0.07705-2.0822-0.88908-1.6592-2.3549 0.812-0.92909 1.9746-0.76718 3.056-0.76759-0.0465-1.5507-1.8236-1.1983-2.7701-0.89107-0.25095 0.18548-0.10684-0.26724-0.14426-0.42649-0.08685-0.34964 0.33738-0.29403 0.53753-0.39647 0.72901-0.19407 1.5261-0.25054 2.2355 0.06046 0.74286 0.40132 0.89837 1.1213 0.95648 1.9436z" style="fill:#fff;opacity:.9"/>
 <g id="g2916" transform="translate(2.963,7)">
  <path id="path3556" d="m4.574-3.5185-0.037 5.037" style="fill:none;opacity:.72;stroke-linecap:square;stroke-linejoin:round;stroke:#fff"/>
  <path id="path3698" d="m3.5185-2.5185 3.963 0.0185" style="fill:none;opacity:.72;stroke-linecap:square;stroke-linejoin:round;stroke:#fff"/>
  <path id="path3781" d="m14.426 13.518 0.037-5.037" style="fill:none;opacity:.72;stroke-linecap:square;stroke-linejoin:round;stroke:#fff"/>
  <path id="path3783" d="m15.482 12.518-3.963-0.0185" style="fill:none;opacity:.72;stroke-linecap:square;stroke-linejoin:round;stroke:#fff"/>
 </g>
 <path id="path3176" d="m8.5188 14.002h3.6918v1h-3.6918v-1z" style="fill:#fff;opacity:.6"/>
 <path id="path3174" d="m12.485 14.002h1.7762v1h-1.7762v-1z" style="fill:#fff;opacity:.6"/>
 <path id="path3172" d="m14.635 14.002h0.83512v1h-0.83512v-1z" style="fill:#fff;opacity:.6"/>
 <path id="path3158" d="m8.5188 12.002h3.0616v1h-3.0616v-1z" style="fill:#fff;opacity:.6"/>
 <path id="path3156" d="m11.906 12h5.0835v1h-5.0835v-1z" style="fill:#fff;opacity:.6"/>
 <path id="path35069" d="m8.5188 16h3.8687v1h-3.8687v-1z" style="fill:#fff;opacity:.6"/>
 <path id="path35067" d="m12.707 16h1.2182v1h-1.2182v-1z" style="fill:#fff;opacity:.6"/>
 <path id="path35051" d="m8.5188 18h3.7964v1h-3.7964v-1z" style="fill:#fff;opacity:.6"/>
 <path id="path35006" d="m12.665 18h1.7599v1h-1.7599v-1z" style="fill:#fff;opacity:.6"/>
</svg>
