<?xml version="1.0" encoding="UTF-8"?>
<!-- Created with Inkscape (http://www.inkscape.org/) -->
<svg id="svg4031" width="24" height="24" version="1.1" xmlns="http://www.w3.org/2000/svg" xmlns:cc="http://creativecommons.org/ns#" xmlns:dc="http://purl.org/dc/elements/1.1/" xmlns:rdf="http://www.w3.org/1999/02/22-rdf-syntax-ns#" xmlns:xlink="http://www.w3.org/1999/xlink">
 <defs id="defs4033">
  <linearGradient id="linearGradient2425" x1="32.892" x2="36.358" y1="8.059" y2="5.4565" gradientTransform="matrix(.47785 0 0 .55248 .37225 7.9239)" gradientUnits="userSpaceOnUse">
   <stop id="stop8591" style="stop-color:#fefefe" offset="0"/>
   <stop id="stop8593" style="stop-color:#cbcbcb" offset="1"/>
  </linearGradient>
  <linearGradient id="linearGradient2961" x1="17.976" x2="17.976" y1="17.984" y2="6.0292" gradientUnits="userSpaceOnUse">
   <stop id="stop2492-3-33" style="stop-color:#365f0e" offset="0"/>
   <stop id="stop2494-8-83" style="stop-color:#84a718" offset="1"/>
  </linearGradient>
  <linearGradient id="linearGradient2429" x1="24" x2="24" y1="2" y2="46.017" gradientTransform="matrix(.45454 0 0 .46512 1.0909 8.3372)" gradientUnits="userSpaceOnUse">
   <stop id="stop3213" style="stop-color:#fff" offset="0"/>
   <stop id="stop3215" style="stop-color:#fff;stop-opacity:0" offset="1"/>
  </linearGradient>
  <radialGradient id="radialGradient2432" cx="92.09" cy="102.7" r="139.56" gradientTransform="matrix(.17021 0 0 -.19072 1.1064 31.717)" gradientUnits="userSpaceOnUse">
   <stop id="stop3739" style="stop-color:#181818" offset="0"/>
   <stop id="stop3745" style="stop-color:#181818;stop-opacity:0" offset=".25"/>
   <stop id="stop3741" style="stop-color:#181818;stop-opacity:0" offset="1"/>
  </radialGradient>
  <radialGradient id="radialGradient3886-8" cx="24" cy="4.5" r="18" gradientTransform="matrix(0 1.5297 -1.5957 0 19.181 -28.462)" gradientUnits="userSpaceOnUse">
   <stop id="stop3244-5-2" style="stop-color:#eef87e" offset="0"/>
   <stop id="stop3246-9-2" style="stop-color:#cde34f" offset=".26238"/>
   <stop id="stop3248-7-2" style="stop-color:#93b723" offset=".66094"/>
   <stop id="stop3250-8-70" style="stop-color:#5a7e0d" offset="1"/>
  </radialGradient>
  <linearGradient id="linearGradient3888-3" x1="-51.786" x2="-51.786" y1="50.786" y2="2.9062" gradientTransform="matrix(.39221 0 0 .44736 29.199 6.7613)" gradientUnits="userSpaceOnUse">
   <stop id="stop2492-3-6" style="stop-color:#365f0e" offset="0"/>
   <stop id="stop2494-8-3" style="stop-color:#84a718" offset="1"/>
  </linearGradient>
  <radialGradient id="radialGradient2441" cx="605.71" cy="486.65" r="117.14" gradientTransform="matrix(.012049 0 0 .0082353 13.239 26.981)" gradientUnits="userSpaceOnUse" xlink:href="#linearGradient5060"/>
  <linearGradient id="linearGradient5060">
   <stop id="stop5062" offset="0"/>
   <stop id="stop5064" style="stop-opacity:0" offset="1"/>
  </linearGradient>
  <radialGradient id="radialGradient2444" cx="605.71" cy="486.65" r="117.14" gradientTransform="matrix(-.012049 0 0 .0082353 10.761 26.981)" gradientUnits="userSpaceOnUse" xlink:href="#linearGradient5060"/>
  <linearGradient id="linearGradient4029" x1="302.86" x2="302.86" y1="366.65" y2="609.51" gradientTransform="matrix(.035207 0 0 .0082353 -.72485 26.981)" gradientUnits="userSpaceOnUse">
   <stop id="stop5050" style="stop-opacity:0" offset="0"/>
   <stop id="stop5056" offset=".5"/>
   <stop id="stop5052" style="stop-opacity:0" offset="1"/>
  </linearGradient>
 </defs>
 <metadata id="metadata4036">
  <rdf:RDF>
   <cc:Work rdf:about="">
    <dc:format>image/svg+xml</dc:format>
    <dc:type rdf:resource="http://purl.org/dc/dcmitype/StillImage"/>
    <dc:title/>
   </cc:Work>
  </rdf:RDF>
 </metadata>
 <g id="layer1" transform="translate(0,-8)">
  <rect id="rect2879" x="3.5" y="30" width="17" height="2" style="fill:url(#linearGradient4029);opacity:.15"/>
  <path id="path2881" d="m3.5 30v1.9999c-0.62047 0.003765-1.5-0.44807-1.5-1.0001 0-0.552 0.6924-0.99982 1.5-0.99982z" style="fill:url(#radialGradient2444);opacity:.15"/>
  <path id="path2883" d="m20.5 30v1.9999c0.62047 0.0038 1.5-0.44807 1.5-1.0001 0-0.552-0.6924-0.99982-1.5-0.99982z" style="fill:url(#radialGradient2441);opacity:.15"/>
  <path id="path4160" d="m3.5 8.5h11.5c0.68337 0.2373 4.5413 3.1282 5.5 5 0 5.7292 3.9e-5 11.271 3.9e-5 17h-17v-22z" style="color:#000000;fill:url(#radialGradient3886-8);stroke-linejoin:round;stroke-width:.99992;stroke:url(#linearGradient3888-3)"/>
  <path id="path4191" d="m4.1702 30c-0.093787 0-0.17021-0.085634-0.17021-0.19072v-20.598c0-0.10528 0.076426-0.19072 0.17021-0.19072 3.5215 0.052717 7.4239-0.078858 10.941 0.013125l4.8389 4.3271 0.049873 16.448c0 0.10509-0.076257 0.19072-0.17021 0.19072h-15.66z" style="fill:url(#radialGradient2432);opacity:.3"/>
  <path id="path2435" d="m19.5 13.677v15.823h-15v-20h10.394" style="fill:none;opacity:.4;stroke:url(#linearGradient2429)"/>
  <path id="path4014" transform="translate(0,8)" d="m9.3438 6.0312a1.477 1.477 0 0 0-1.3125 1.4688v2.5312h-0.53125a1.477 1.477 0 0 0-1.0938 2.4688l4.5 5a1.477 1.477 0 0 0 2.1875 0l4.5-5a1.477 1.477 0 0 0-1.0938-2.4688h-0.53125v-2.5312a1.477 1.477 0 0 0-1.4688-1.4688h-5a1.477 1.477 0 0 0-0.15625 0z" style="color:#000000;fill:url(#linearGradient2961);opacity:.3"/>
  <path id="path3288-2" d="m16.5 19.507-4.5 5-4.5-5h2v-4h5v4h2z" style="fill:#f2f2f2;stroke-width:.98543;stroke:#fff"/>
  <path id="path3370" d="m14.075 9c1.1563 0.32877 0.33906 4.6144 0.33906 4.6144s4.5154-0.42774 5.6077 1.195c1.4892 2.2123-0.06822-0.63517-0.17345-0.8217-0.75593-1.34-3.8663-4.5471-5.0454-4.9412-0.08823-0.029492-0.28388-0.04647-0.72791-0.04647z" style="fill-rule:evenodd;opacity:.2"/>
  <path id="path4474" d="m14 9c1.5262 0 1 4 1 4s4.9921-0.45326 4.9921 2c0-0.59774 0.05575-1.4784-0.06407-1.6559-0.83911-1.243-3.7438-3.8619-4.7981-4.2976-0.085978-0.035532-0.6859-0.04647-1.1299-0.04647z" style="fill-rule:evenodd;fill:url(#linearGradient2425)"/>
 </g>
</svg>
