<?xml version="1.0" encoding="UTF-8"?>
<!-- Created with Inkscape (http://www.inkscape.org/) -->
<svg id="svg3851" width="24" height="24" version="1.1" xmlns="http://www.w3.org/2000/svg" xmlns:cc="http://creativecommons.org/ns#" xmlns:dc="http://purl.org/dc/elements/1.1/" xmlns:rdf="http://www.w3.org/1999/02/22-rdf-syntax-ns#" xmlns:xlink="http://www.w3.org/1999/xlink">
 <defs id="defs3853">
  <linearGradient id="linearGradient2989" x1="12.299" x2="12.299" y1=".44808" y2="22.662" gradientTransform="matrix(1.0407 0 0 .99038 -.2997 -7.4438)" gradientUnits="userSpaceOnUse">
   <stop id="stop3618" style="stop-color:#f0c178" offset="0"/>
   <stop id="stop3270" style="stop-color:#e18941" offset=".5"/>
   <stop id="stop3620" style="stop-color:#ec4f18" offset="1"/>
  </linearGradient>
  <radialGradient id="radialGradient2992" cx="33.967" cy="35.737" r="86.708" gradientTransform="matrix(.45689 0 0 .53329 1.7561 -8.3678)" gradientUnits="userSpaceOnUse" xlink:href="#linearGradient259"/>
  <linearGradient id="linearGradient259">
   <stop id="stop260" style="stop-color:#828282" offset="0"/>
   <stop id="stop261" style="stop-color:#434343" offset="1"/>
  </linearGradient>
  <radialGradient id="radialGradient2995" cx="33.967" cy="35.737" r="86.708" gradientTransform="matrix(.49493 0 0 .53363 .1114 -8.3687)" gradientUnits="userSpaceOnUse" xlink:href="#linearGradient259"/>
  <linearGradient id="linearGradient2543" x1="302.86" x2="302.86" y1="366.65" y2="609.51" gradientTransform="matrix(2.7744 0 0 1.9697 -1892.2 -872.89)" gradientUnits="userSpaceOnUse">
   <stop id="stop5050" style="stop-opacity:0" offset="0"/>
   <stop id="stop5056" offset=".5"/>
   <stop id="stop5052" style="stop-opacity:0" offset="1"/>
  </linearGradient>
  <radialGradient id="radialGradient2545" cx="605.71" cy="486.65" r="117.14" gradientTransform="matrix(2.7744 0 0 1.9697 -1891.6 -872.89)" gradientUnits="userSpaceOnUse" xlink:href="#linearGradient5060"/>
  <linearGradient id="linearGradient5060">
   <stop id="stop5062" offset="0"/>
   <stop id="stop5064" style="stop-opacity:0" offset="1"/>
  </linearGradient>
  <radialGradient id="radialGradient3849" cx="605.71" cy="486.65" r="117.14" gradientTransform="matrix(-2.7744 0 0 1.9697 112.76 -872.89)" gradientUnits="userSpaceOnUse" xlink:href="#linearGradient5060"/>
 </defs>
 <metadata id="metadata3856">
  <rdf:RDF>
   <cc:Work rdf:about="">
    <dc:format>image/svg+xml</dc:format>
    <dc:type rdf:resource="http://purl.org/dc/dcmitype/StillImage"/>
    <dc:title/>
   </cc:Work>
  </rdf:RDF>
 </metadata>
 <g id="layer1" transform="translate(0,8)">
  <g id="g5022" transform="matrix(.011328 0 0 .0062715 22.575 13.945)">
   <rect id="rect4173" x="-1559.3" y="-150.7" width="1339.6" height="478.36" style="fill:url(#linearGradient2543);opacity:.40206"/>
   <path id="path5058" d="m-219.62-150.68v478.33c142.87 0.90045 345.4-107.17 345.4-239.2 0-132.03-159.44-239.13-345.4-239.13z" style="fill:url(#radialGradient2545);opacity:.40206"/>
   <path id="path5018" d="m-1559.3-150.68v478.33c-142.87 0.90045-345.4-107.17-345.4-239.2 0-132.03 159.44-239.13 345.4-239.13z" style="fill:url(#radialGradient3849);opacity:.40206"/>
  </g>
  <path id="path3385" d="m6.7691 14.474h-3.1338c-0.2539-0.24834-0.060832-0.74139-0.12116-1.093v-19.76l0.035409-0.085295 0.085751-0.035221h3.0912" style="display:block;fill:url(#radialGradient2995);stroke:#333"/>
  <path id="rect15391" d="m18.5-6.5h2.8751c0.23439 0.24818 0.05616 0.74092 0.11185 1.0923 0 6.5825 0.0082 13.109 0.0082 19.691 0 0.28993-0.46648 0.2049-1.0226 0.2049-0.64946 0-1.2989-0.02815-1.9484-0.02815" style="display:block;fill:url(#radialGradient2992);stroke:#333"/>
  <rect id="rect3457" x="6.5" y="-6.5" width="12" height="21" rx="0" ry="0" style="fill:url(#linearGradient2989);stroke:#333"/>
  <path id="path3460" d="m6.5 3.5h12.002" style="fill:none;stroke:#333"/>
  <g id="g2547" transform="matrix(.936 0 0 1.045 .3671 -8.0885)" style="stroke-width:.99939">
   <rect id="rect3464" x="4.3611" y="2.0974" width="1" height=".89926" style="fill:#fff"/>
   <rect id="rect3466" x="4.3611" y="4.0987" width="1" height=".89926" style="fill:#fff"/>
   <rect id="rect3468" x="4.3611" y="6.1" width="1" height=".89926" style="fill:#fff"/>
   <rect id="rect3470" x="4.3611" y="8.1013" width="1" height=".89926" style="fill:#fff"/>
   <rect id="rect3472" x="4.3611" y="10.103" width="1" height=".89926" style="fill:#fff"/>
   <rect id="rect3474" x="4.3611" y="12.104" width="1" height=".89926" style="fill:#fff"/>
   <rect id="rect3476" x="4.3611" y="14.105" width="1" height=".89926" style="fill:#fff"/>
   <rect id="rect3478" x="4.3611" y="16.107" width="1" height=".89926" style="fill:#fff"/>
   <rect id="rect3480" x="4.3611" y="18.108" width="1" height=".89926" style="fill:#fff"/>
   <rect id="rect3482" x="4.3611" y="20.109" width="1" height=".89926" style="fill:#fff"/>
  </g>
  <g id="g2559" transform="matrix(.936 0 0 1.045 15.53 -8.0885)" style="stroke-width:.99939">
   <rect id="rect2561" x="4.3611" y="2.0974" width="1" height=".89926" style="fill:#fff"/>
   <rect id="rect2563" x="4.3611" y="4.0987" width="1" height=".89926" style="fill:#fff"/>
   <rect id="rect2565" x="4.3611" y="6.1" width="1" height=".89926" style="fill:#fff"/>
   <rect id="rect2567" x="4.3611" y="8.1013" width="1" height=".89926" style="fill:#fff"/>
   <rect id="rect2569" x="4.3611" y="10.103" width="1" height=".89926" style="fill:#fff"/>
   <rect id="rect2571" x="4.3611" y="12.104" width="1" height=".89926" style="fill:#fff"/>
   <rect id="rect2573" x="4.3611" y="14.105" width="1" height=".89926" style="fill:#fff"/>
   <rect id="rect2575" x="4.3611" y="16.107" width="1" height=".89926" style="fill:#fff"/>
   <rect id="rect2577" x="4.3611" y="18.108" width="1" height=".89926" style="fill:#fff"/>
   <rect id="rect2579" x="4.3611" y="20.109" width="1" height=".89926" style="fill:#fff"/>
  </g>
  <path id="path4015" d="m7.5 4.5h9.9995" style="display:block;fill:none;opacity:.36638;stroke-linecap:square;stroke:#fff"/>
  <path id="path4017" d="m7.5-5.5h9.9995" style="display:block;fill:none;opacity:.36638;stroke-linecap:square;stroke:#fff"/>
 </g>
</svg>
