<?xml version="1.0" encoding="UTF-8"?>
<!-- Created with Inkscape (http://www.inkscape.org/) -->
<svg id="svg3833" width="22" height="22" version="1.1" xmlns="http://www.w3.org/2000/svg" xmlns:cc="http://creativecommons.org/ns#" xmlns:dc="http://purl.org/dc/elements/1.1/" xmlns:rdf="http://www.w3.org/1999/02/22-rdf-syntax-ns#">
 <metadata id="metadata20">
  <rdf:RDF>
   <cc:Work rdf:about="">
    <dc:format>image/svg+xml</dc:format>
    <dc:type rdf:resource="http://purl.org/dc/dcmitype/StillImage"/>
    <dc:title/>
   </cc:Work>
  </rdf:RDF>
 </metadata>
 <path id="path3920" d="m6.5 4.5-4.5 3.5 4.5 3-4.5 4 9 6 9-6-4.5-4 4.5-3-4.5-3.5-4.5 3.5-4.5-3.5zm0.5 4.5h2 1v1 2h-1v-1.3125c-0.55672 0.43535-1 1.1425-1 2.3125 0 3 3 3 3 3v1s-4 0-4-4c0-1.4826 0.55829-2.4128 1.25-3h-1.25v-1zm4 0s4 0 4 4c0 1.4826-0.55829 2.4128-1.25 3h1.25v1h-2-1v-1-2h1v1.3125c0.55672-0.43535 1-1.1425 1-2.3125 0-3-3-3-3-3v-1z" style="color:#000000;opacity:.3"/>
 <path id="path3887" d="m6.5 3.5-4.5 3.5 4.5 3-4.5 4 9 6 9-6-4.5-4 4.5-3-4.5-3.5-4.5 3.5-4.5-3.5zm0.5 4.5h2 1v1 2h-1v-1.3125c-0.55672 0.43535-1 1.1425-1 2.3125 0 3 3 3 3 3v1s-4 0-4-4c0-1.4826 0.55829-2.4128 1.25-3h-1.25v-1zm4 0s4 0 4 4c0 1.4826-0.55829 2.4128-1.25 3h1.25v1h-2-1v-1-2h1v1.3125c0.55672-0.43535 1-1.1425 1-2.3125 0-3-3-3-3-3v-1z" style="color:#000000;fill:#dfdbd2"/>
</svg>
