<?xml version="1.0" encoding="UTF-8" standalone="no"?>
<!-- Created with Inkscape (http://www.inkscape.org/) -->

<svg
   xmlns:dc="http://purl.org/dc/elements/1.1/"
   xmlns:cc="http://creativecommons.org/ns#"
   xmlns:rdf="http://www.w3.org/1999/02/22-rdf-syntax-ns#"
   xmlns:svg="http://www.w3.org/2000/svg"
   xmlns="http://www.w3.org/2000/svg"
   xmlns:xlink="http://www.w3.org/1999/xlink"
   xmlns:sodipodi="http://sodipodi.sourceforge.net/DTD/sodipodi-0.dtd"
   xmlns:inkscape="http://www.inkscape.org/namespaces/inkscape"
   sodipodi:docname="banshee-panel.svg"
   inkscape:version="0.48.3.1 r9886"
   version="1.1"
   id="svg27665"
   height="21.999996"
   width="21.999996">
  <defs
     id="defs27667">
    <linearGradient
       id="linearGradient3845-6"
       inkscape:collect="always">
      <stop
         id="stop3847-4"
         offset="0"
         style="stop-color:#3e3d39;stop-opacity:1" />
      <stop
         id="stop3849-4"
         offset="1"
         style="stop-color:#5a574e;stop-opacity:1" />
    </linearGradient>
    <linearGradient
       inkscape:collect="always"
       xlink:href="#linearGradient3845-6"
       id="linearGradient6355"
       gradientUnits="userSpaceOnUse"
       gradientTransform="matrix(0.03666666,0,0,0.01640965,2929.0256,2102.6902)"
       x1="10270.645"
       y1="839.69708"
       x2="10270.645"
       y2="-454.45319" />
    <linearGradient
       id="linearGradient4357"
       inkscape:collect="always">
      <stop
         id="stop4359"
         offset="0"
         style="stop-color:#adaca1;stop-opacity:1" />
      <stop
         id="stop4361"
         offset="1"
         style="stop-color:#e1e0d9;stop-opacity:1" />
    </linearGradient>
    <linearGradient
       inkscape:collect="always"
       xlink:href="#linearGradient4357"
       id="linearGradient4215"
       gradientUnits="userSpaceOnUse"
       gradientTransform="matrix(29.577241,0,0,29.577241,-3518.0383,-79.323202)"
       x1="11.000001"
       y1="18.999996"
       x2="11.000001"
       y2="0.59375" />
    <linearGradient
       inkscape:collect="always"
       xlink:href="#linearGradient7209-9"
       id="linearGradient4053"
       gradientUnits="userSpaceOnUse"
       gradientTransform="matrix(29.577241,0,0,29.577241,-3518.0383,-79.323202)"
       x1="11.000001"
       y1="18.999996"
       x2="11.000001"
       y2="1.9999962" />
    <linearGradient
       id="linearGradient7209-9">
      <stop
         id="stop7211-8"
         offset="0"
         style="stop-color:#a1988f;stop-opacity:1;" />
      <stop
         id="stop7213-9"
         offset="1"
         style="stop-color:#e4dfd4;stop-opacity:1;" />
    </linearGradient>
    <linearGradient
       inkscape:collect="always"
       xlink:href="#linearGradient7251-3"
       id="linearGradient3859"
       x1="-3636.3472"
       y1="482.64426"
       x2="-3636.3472"
       y2="-20.168833"
       gradientUnits="userSpaceOnUse" />
    <linearGradient
       id="linearGradient7251-3">
      <stop
         style="stop-color:#ffffff;stop-opacity:1;"
         offset="0"
         id="stop7253-27" />
      <stop
         style="stop-color:#ffffff;stop-opacity:1;"
         offset="1"
         id="stop7255-3" />
    </linearGradient>
    <linearGradient
       inkscape:collect="always"
       xlink:href="#linearGradient9097-0"
       id="linearGradient3857"
       x1="-3606.77"
       y1="482.64426"
       x2="-3606.77"
       y2="-20.168833"
       gradientUnits="userSpaceOnUse" />
    <linearGradient
       id="linearGradient9097-0">
      <stop
         style="stop-color:#000000;stop-opacity:0.49634215;"
         offset="0"
         id="stop9099-4" />
      <stop
         style="stop-color:#000000;stop-opacity:0.41474396;"
         offset="1"
         id="stop9101-5" />
    </linearGradient>
    <linearGradient
       inkscape:collect="always"
       xlink:href="#linearGradient7209-9"
       id="linearGradient3064"
       gradientUnits="userSpaceOnUse"
       gradientTransform="matrix(29.577241,0,0,29.577241,-3518.0383,-79.323202)"
       x1="11.000001"
       y1="18.999996"
       x2="11.000001"
       y2="0.59375" />
    <linearGradient
       inkscape:collect="always"
       xlink:href="#linearGradient4357"
       id="linearGradient3068"
       gradientUnits="userSpaceOnUse"
       gradientTransform="matrix(29.577241,0,0,29.577241,-3518.0383,-79.323202)"
       x1="11.000001"
       y1="18.999996"
       x2="11.000001"
       y2="0.59375" />
    <linearGradient
       inkscape:collect="always"
       xlink:href="#linearGradient4357"
       id="linearGradient3070"
       gradientUnits="userSpaceOnUse"
       gradientTransform="translate(0.49999836,0.49999998)"
       x1="11.000001"
       y1="18.999996"
       x2="11.000001"
       y2="0.59375" />
    <linearGradient
       inkscape:collect="always"
       xlink:href="#linearGradient9097-0"
       id="linearGradient3073"
       gradientUnits="userSpaceOnUse"
       gradientTransform="matrix(29.577241,0,0,29.577241,-3518.0383,-79.323202)"
       x1="11.000001"
       y1="18.999996"
       x2="11.000001"
       y2="0.59375" />
    <linearGradient
       inkscape:collect="always"
       xlink:href="#linearGradient7251-3"
       id="linearGradient3075"
       x1="-3192.6887"
       y1="512.2215"
       x2="-3192.6887"
       y2="-61.761715"
       gradientUnits="userSpaceOnUse" />
  </defs>
  <sodipodi:namedview
     id="base"
     pagecolor="#ffffff"
     bordercolor="#666666"
     borderopacity="1.0"
     inkscape:pageopacity="0.0"
     inkscape:pageshadow="2"
     inkscape:zoom="22.627417"
     inkscape:cx="15.938874"
     inkscape:cy="11.797435"
     inkscape:document-units="px"
     inkscape:current-layer="layer1"
     showgrid="true"
     inkscape:window-width="1680"
     inkscape:window-height="998"
     inkscape:window-x="-8"
     inkscape:window-y="25"
     inkscape:window-maximized="1"
     inkscape:snap-bbox="true"
     inkscape:bbox-paths="true"
     inkscape:bbox-nodes="true"
     inkscape:snap-bbox-edge-midpoints="true"
     inkscape:snap-bbox-midpoints="true"
     inkscape:object-paths="true"
     inkscape:snap-intersection-paths="true"
     inkscape:object-nodes="true"
     inkscape:snap-smooth-nodes="true"
     inkscape:snap-midpoints="true"
     inkscape:snap-object-midpoints="true"
     inkscape:snap-center="true"
     inkscape:snap-global="true"
     showguides="false"
     inkscape:guide-bbox="true"
     fit-margin-top="0"
     fit-margin-left="0"
     fit-margin-right="0"
     fit-margin-bottom="0"
     inkscape:showpageshadow="false">
    <sodipodi:guide
       orientation="0,1"
       position="599.99995,299.99996"
       id="guide3572" />
    <sodipodi:guide
       orientation="1,0"
       position="294.41945,12.121743"
       id="guide3574" />
    <sodipodi:guide
       orientation="0,1"
       position="456.04385,599.99995"
       id="guide3576" />
    <sodipodi:guide
       orientation="0,1"
       position="-4.6131494e-05,-5.7459226e-05"
       id="guide3578" />
    <sodipodi:guide
       orientation="1,0"
       position="-4.6131494e-05,157.58369"
       id="guide3580" />
    <sodipodi:guide
       orientation="1,0"
       position="599.99995,121.21824"
       id="guide3582" />
    <sodipodi:guide
       orientation="0,1"
       position="599.99995,-714.34356"
       id="guide5928" />
    <sodipodi:guide
       orientation="0,1"
       position="599.99995,-414.34356"
       id="guide5930" />
    <sodipodi:guide
       orientation="0,1"
       position="599.99995,-1014.3435"
       id="guide5932" />
    <sodipodi:guide
       orientation="0,1"
       position="451.57025,524.99609"
       id="guide5294" />
    <sodipodi:guide
       orientation="0,1"
       position="451.57025,75.013543"
       id="guide5296" />
    <sodipodi:guide
       orientation="0,1"
       position="496.01495,-931.36406"
       id="guide5413" />
    <sodipodi:guide
       orientation="0,1"
       position="457.34855,-489.34386"
       id="guide5415" />
    <inkscape:grid
       type="xygrid"
       id="grid3066"
       empspacing="5"
       visible="true"
       enabled="true"
       snapvisiblegridlinesonly="true" />
  </sodipodi:namedview>
  <metadata
     id="metadata27670">
    <rdf:RDF>
      <cc:Work
         rdf:about="">
        <dc:format>image/svg+xml</dc:format>
        <dc:type
           rdf:resource="http://purl.org/dc/dcmitype/StillImage" />
        <dc:title />
      </cc:Work>
    </rdf:RDF>
  </metadata>
  <g
     inkscape:label="Camada 1"
     inkscape:groupmode="layer"
     id="layer1"
     transform="translate(3364.4171,-2094.7186)">
    <g
       id="normal"
       transform="matrix(0.03380978,0,0,0.03380978,-3245.473,2097.4005)"
       inkscape:label="#g3217">
      <rect
         y="-79.323952"
         x="-3518.0396"
         height="650.69916"
         width="650.69916"
         id="rect3219"
         style="opacity:0.00100002;fill:#ffffff;stroke:none" />
      <g
         id="g6088">
        <path
           id="path3062"
           d="m -3281.4204,-61.761715 -50.8359,49.911594 -147.8862,147.886201 42.5173,42.51729 97.0503,-97.050324 0,194.100644 c 0,81.32496 66.5612,147.88621 147.8863,147.88621 81.3249,0 147.8862,-66.56125 147.8862,-147.88621 0,-81.32495 -66.5613,-147.88621 -147.8862,-147.88621 -33.4966,0 -63.8639,11.53679 -88.7318,30.50153 l 0,-148.810489 0,-71.170236 z m 88.7318,99.823188 0,31.425819 c 114.4911,0 206.1163,91.625288 206.1163,206.116398 l 0,3.69716 c -1.8715,112.86204 -92.8001,202.41924 -206.1163,202.41924 -114.4913,0 -206.1164,-91.6253 -206.1164,-206.1164 l -31.4259,0 c 0,130.47583 107.0663,237.54222 237.5423,237.54222 130.4758,0 237.5422,-107.06639 237.5422,-237.54222 0,-130.47584 -107.0664,-237.542217 -237.5422,-237.542217 z m 0,148.810497 c 49.3555,0 88.7317,39.37621 88.7317,88.73172 0,49.35551 -39.3762,88.73172 -88.7317,88.73172 -49.3555,0 -88.7318,-39.37621 -88.7318,-88.73172 0,-49.35551 39.3763,-88.73172 88.7318,-88.73172 z"
           style="font-size:medium;font-style:normal;font-variant:normal;font-weight:normal;font-stretch:normal;text-indent:0;text-align:start;text-decoration:none;line-height:normal;letter-spacing:normal;word-spacing:normal;text-transform:none;direction:ltr;block-progression:tb;writing-mode:lr-tb;text-anchor:start;baseline-shift:baseline;color:#000000;fill:url(#linearGradient3064);fill-opacity:1;stroke:none;stroke-width:0.53346151;marker:none;visibility:visible;display:inline;overflow:visible;enable-background:accumulate;font-family:Sans;-inkscape-font-specification:Sans"
           inkscape:connector-curvature="0" />
        <path
           style="font-size:medium;font-style:normal;font-variant:normal;font-weight:normal;font-stretch:normal;text-indent:0;text-align:start;text-decoration:none;line-height:normal;letter-spacing:normal;word-spacing:normal;text-transform:none;direction:ltr;block-progression:tb;writing-mode:lr-tb;text-anchor:start;baseline-shift:baseline;color:#000000;fill:url(#linearGradient3075);fill-opacity:1;stroke:none;stroke-width:0.53346150999999997;marker:none;visibility:visible;display:inline;overflow:visible;enable-background:accumulate;font-family:Sans;-inkscape-font-specification:Sans"
           d="m -3281.4204,-61.761715 -50.8359,49.911594 -147.8862,147.886201 14.7886,14.78862 147.8862,-147.8862006 36.0473,-35.1229734 0,-29.577241 z m 88.7317,99.823188 0,31.425818 c 4.982,0 9.8989,0.582974 14.7887,0.924289 l 0,-17.561487 c 57.0831,0 109.5427,20.55214 150.659,54.533037 -42.958,-42.260599 -100.9148,-69.321657 -165.4477,-69.321657 z m -133.0976,58.230193 -14.7886,14.788624 0,164.5234 c 0,44.37045 20.5456,83.74612 51.7602,110.91465 -22.6277,-25.99753 -36.9716,-59.17152 -36.9716,-96.12603 l 0,-194.100644 z m 133.0976,31.425814 c -27.0548,0 -52.2199,7.44692 -73.9431,20.33436 l 0,24.95579 c 24.8679,-18.96474 55.2351,-30.50152 88.7318,-30.50152 36.9545,0 70.1284,14.34385 96.126,36.97155 -27.1686,-31.21462 -66.5443,-51.76018 -110.9147,-51.76018 z m 152.5077,10.16718 c 32.9036,36.47838 53.6087,84.30462 53.6087,137.71903 l 0,3.69715 c -1.8715,112.86205 -92.8001,202.41925 -206.1164,202.41925 -53.4144,0 -101.2406,-20.70511 -137.719,-53.60875 37.6236,41.71118 91.4308,68.39737 152.5077,68.39737 113.3162,0 204.2448,-89.5572 206.1163,-202.41924 l 0,-3.69716 c 0,-61.0767 -26.6861,-114.884 -68.3973,-152.50765 z m -83.186,83.18599 c 11.8557,15.0778 19.4101,33.66582 19.4101,54.53304 0,49.35551 -39.3762,88.73172 -88.7318,88.73172 -20.8672,0 -39.4552,-7.55441 -54.533,-19.41006 16.1856,20.58449 40.8334,34.19868 69.3217,34.19868 49.3555,0 88.7317,-39.37621 88.7317,-88.73172 0,-28.4883 -13.6142,-53.1361 -34.1987,-69.32166 z m -306.8639,54.53304 c 0,64.53287 27.0611,122.48965 69.3217,165.44769 -33.9809,-41.1163 -54.5331,-93.57588 -54.5331,-150.65907 l 17.5615,0 c -0.3413,-4.88974 -0.9243,-9.80663 -0.9243,-14.78862 l -31.4258,0 z"
           id="path3794"
           inkscape:connector-curvature="0" />
        <path
           style="font-size:medium;font-style:normal;font-variant:normal;font-weight:normal;font-stretch:normal;text-indent:0;text-align:start;text-decoration:none;line-height:normal;letter-spacing:normal;word-spacing:normal;text-transform:none;direction:ltr;block-progression:tb;writing-mode:lr-tb;text-anchor:start;baseline-shift:baseline;color:#000000;fill:url(#linearGradient3073);fill-opacity:1;stroke:none;stroke-width:0.53346151;marker:none;visibility:visible;display:inline;overflow:visible;enable-background:accumulate;font-family:Sans;-inkscape-font-specification:Sans"
           d="m -3281.4204,-61.761715 -14.7886,14.788621 0,41.5929946 0,148.8104894 c 4.7823,-3.64706 9.6164,-7.09873 14.7886,-10.16717 l 0,-123.8546992 0,-71.1702358 z m 88.7318,117.384676 0,13.864331 c 53.4144,0 101.2406,20.705118 137.719,53.608748 -34.5547,-38.308843 -82.6631,-63.630023 -137.719,-67.473079 z m -162.6749,11.091465 -97.0503,97.050324 14.7886,14.78862 82.2617,-82.2617 0,-29.577244 z m 330.8954,43.441574 c 33.9809,41.11629 54.5331,93.57588 54.5331,150.65907 0,130.47583 -107.0665,237.54222 -237.5423,237.54222 -57.0832,0 -109.5427,-20.55213 -150.659,-54.53304 42.958,42.26061 100.9147,69.32166 165.4477,69.32166 130.4758,0 237.5422,-107.06639 237.5422,-237.54222 0,-64.53287 -27.0611,-122.48965 -69.3217,-165.44769 z m -72.0945,54.53304 c 22.6277,25.99752 36.9715,59.17152 36.9715,96.12603 0,81.32496 -66.5613,147.8862 -147.8862,147.8862 -36.9546,0 -70.1285,-14.34386 -96.126,-36.97155 27.1685,31.21461 66.5442,51.76018 110.9147,51.76018 81.3249,0 147.8862,-66.56125 147.8862,-147.88621 0,-44.37042 -20.5456,-83.74611 -51.7602,-110.91465 z m -110.9147,7.39431 c -49.3555,0 -88.7317,39.37621 -88.7317,88.73172 0,28.4883 13.6142,53.13611 34.1987,69.32166 -11.8557,-15.0778 -19.4101,-33.66582 -19.4101,-54.53304 0,-49.35551 39.3763,-88.73172 88.7318,-88.73172 20.8672,0 39.4552,7.5544 54.533,19.41006 -16.1856,-20.58448 -40.8334,-34.19868 -69.3217,-34.19868 z m -205.1921,103.52034 c 3.8431,55.05593 29.1643,103.16432 67.4731,137.71903 -32.9036,-36.47838 -53.6087,-84.30463 -53.6087,-137.71903 l -13.8644,0 z"
           id="path4211"
           inkscape:connector-curvature="0" />
      </g>
    </g>
  </g>
</svg>
