<?xml version="1.0" encoding="UTF-8"?>
<!-- Created with Inkscape (http://www.inkscape.org/) -->
<svg id="svg3187" width="16" height="16" version="1.0" xmlns="http://www.w3.org/2000/svg" xmlns:cc="http://creativecommons.org/ns#" xmlns:dc="http://purl.org/dc/elements/1.1/" xmlns:rdf="http://www.w3.org/1999/02/22-rdf-syntax-ns#">
 <metadata id="metadata11">
  <rdf:RDF>
   <cc:Work rdf:about="">
    <dc:format>image/svg+xml</dc:format>
    <dc:type rdf:resource="http://purl.org/dc/dcmitype/StillImage"/>
    <dc:title/>
   </cc:Work>
  </rdf:RDF>
 </metadata>
 <path id="path3350-8" d="m1.5 15.5 2-4m2 4 2-4m2 4 2-4m-8.0175 4 2-4m2 4 2-4m2 4 2-4" style="fill:none;opacity:.3;stroke-linecap:round;stroke-width:1px;stroke:#fff"/>
 <path id="path2397-0" d="m10 1.986c-1.1263 0-2.0912 0.60715-2.6042 1.4821-0.28885-0.20595-0.6577-0.33929-1.0625-0.33929-0.92 0-1.6667 0.64-1.6667 1.4286 0 0.1771 0.03534 0.34345 0.10417 0.5-1.0463 0.40073-1.7708 1.308-1.7708 2.3571 0 1.4246 1.338 2.5714 3 2.5714h6c1.662 0 3-1.1469 3-2.5714 0-1.1284-0.84582-2.0806-2.0208-2.4286 0.00261-0.048815 0.020834-0.093427 0.020834-0.14286 0-1.5771-1.344-2.8571-3-2.8571z" style="fill-rule:evenodd;fill:#fff;opacity:.3"/>
 <path id="path2397" d="m10 0.98613c-1.1263 0-2.0912 0.60715-2.6042 1.4821-0.28885-0.20595-0.6577-0.33929-1.0625-0.33929-0.92 0-1.6667 0.64-1.6667 1.4286 0 0.1771 0.03534 0.34345 0.10417 0.5-1.0463 0.40073-1.7708 1.308-1.7708 2.3571 0 1.4246 1.338 2.5714 3 2.5714h6c1.662 0 3-1.1469 3-2.5714 0-1.1284-0.84582-2.0806-2.0208-2.4286 0.00261-0.048815 0.020834-0.093427 0.020834-0.14286 0-1.5771-1.344-2.8571-3-2.8571z" style="fill-rule:evenodd;fill:#3c3c3c"/>
 <path id="path3350" d="m1.5 14.5 2-4m2 4 2-4m2 4 2-4m-8.0175 4 2-4m2 4 2-4m2 4 2-4" style="fill:none;stroke-linecap:round;stroke-width:1px;stroke:#3c3c3c"/>
</svg>
