<?xml version="1.0" encoding="UTF-8"?>
<!-- Created with Inkscape (http://www.inkscape.org/) -->
<svg id="svg3196" width="22" height="22" version="1.0" xmlns="http://www.w3.org/2000/svg">
 <rect id="rect2388" transform="rotate(-90)" x="-18.423" y="12.515" width="13.923" height="6.9859" rx="0" ry="0" style="fill:none;stroke-linecap:square;stroke:#606060"/>
 <rect id="rect3162" transform="rotate(-90)" x="-17" y="14.071" width="8.9225" height="3.9296" style="fill:#878787"/>
 <rect id="rect2819" transform="rotate(-90)" x="-13.028" y="3.9722" width="5.0493" height="5.0141" ry="1.0278" style="fill:#878787"/>
 <path id="rect3160" d="m14.5 4v-1.5h3v1.5" style="fill:none;stroke-linecap:square;stroke:#606060"/>
 <rect id="rect3645" transform="rotate(-90)" x="-15.063" y="4.0005" width="1" height="1" style="fill:#878787"/>
 <rect id="rect3647" transform="rotate(-90)" x="-15.063" y="6.0005" width="1" height="1" style="fill:#878787"/>
 <rect id="rect3649" transform="rotate(-90)" x="-15.063" y="8.0005" width="1" height="1" style="fill:#878787"/>
 <rect id="rect3651" transform="rotate(-90)" x="-17.063" y="4.0005" width="1" height="1" style="fill:#878787"/>
 <rect id="rect3653" transform="rotate(-90)" x="-17.063" y="6.0005" width="1" height="1" style="fill:#878787"/>
 <rect id="rect3655" transform="rotate(-90)" x="-17.063" y="8.0005" width="1" height="1" style="fill:#878787"/>
 <path id="path2900" d="m2.5005 8v9c0.044601 1.9883 8.0347 1.9108 8 0v-9c-0.0059-2.0012-7.9582-2.0634-8 0z" style="fill:none;stroke-linecap:square;stroke:#606060"/>
</svg>
