<?xml version="1.0" encoding="UTF-8"?>
<!-- Created with Inkscape (http://www.inkscape.org/) -->
<svg id="svg2" width="22" height="22" version="1.0" xmlns="http://www.w3.org/2000/svg" xmlns:xlink="http://www.w3.org/1999/xlink">
 <defs id="defs4">
  <linearGradient id="linearGradient2412" x1="-24.032" x2="-24.098" y1="-13.091" y2="-40.164" gradientTransform="matrix(.48571 0 0 .48148 .66206 2.0025)" gradientUnits="userSpaceOnUse">
   <stop id="stop3796" style="stop-color:#333" offset="0"/>
   <stop id="stop3798" style="stop-color:#292929" offset="1"/>
  </linearGradient>
  <linearGradient id="linearGradient2410" x1="28.938" x2="105.37" y1="17.333" y2="92.824" gradientTransform="matrix(.21396 0 0 .16481 -25.539 -20.465)" gradientUnits="userSpaceOnUse">
   <stop id="stop3790" style="stop-color:#262626" offset="0"/>
   <stop id="stop3792" style="stop-color:#828282" offset="1"/>
  </linearGradient>
  <linearGradient id="linearGradient2415" x1="108.26" x2="25.818" y1="110.28" y2="14.029" gradientTransform="matrix(.23643 0 0 .16587 -27.026 -21.665)" gradientUnits="userSpaceOnUse">
   <stop id="stop3802" style="stop-color:#fff" offset="0"/>
   <stop id="stop3804" style="stop-color:#e0e0e0" offset="1"/>
  </linearGradient>
  <linearGradient id="linearGradient2500" x1="18.379" x2="18.379" y1="44.98" y2="3.0816" gradientTransform="matrix(.27027 0 0 .27027 4.5136 4.5136)" gradientUnits="userSpaceOnUse">
   <stop id="stop2699" style="stop-color:#8f153e" offset="0"/>
   <stop id="stop2701" style="stop-color:#e04e3d" offset="1"/>
  </linearGradient>
  <radialGradient id="radialGradient2498" cx="23.896" cy="3.99" r="20.397" gradientTransform="matrix(0 .64503 -.85143 0 14.397 -10.327)" gradientUnits="userSpaceOnUse">
   <stop id="stop2689" style="stop-color:#f9bf96" offset="0"/>
   <stop id="stop2691" style="stop-color:#e67164" offset=".26238"/>
   <stop id="stop2693" style="stop-color:#d62e36" offset=".66094"/>
   <stop id="stop2695" style="stop-color:#800d66" offset="1"/>
  </radialGradient>
 </defs>
 <g id="layer1">
  <g id="g2537">
   <rect id="rect3580" transform="matrix(-1 .0017538 -.00094923 -1 0 0)" x="-21.482" y="-19.501" width="20.984" height="16.963" style="fill:url(#linearGradient2415);stroke-linecap:round;stroke-opacity:.96863;stroke:#b3b3b3"/>
   <rect id="rect3582" transform="matrix(-.99999 .0037331 .0024554 -1 0 0)" x="-19.511" y="-17.51" width="16.968" height="12.937" rx="0" ry="0" style="fill:url(#linearGradient2410);stroke-linecap:round;stroke:url(#linearGradient2412)"/>
  </g>
  <path id="path2555" d="m11 5.5018c-3.0337 0-5.4982 2.4645-5.4982 5.4982 0 3.0337 2.4645 5.4982 5.4982 5.4982 3.0337 0 5.4982-2.4645 5.4982-5.4982 0-3.0337-2.4645-5.4982-5.4982-5.4982zm0 1.7652c2.0625 0 3.7331 1.6705 3.7331 3.7331 0 0.86563-0.29993 1.6558-0.79391 2.2888l-4.7297-5.5658c0.53139-0.29076 1.1418-0.45608 1.7905-0.45608zm-2.9898 1.5034 4.7128 5.5405c-0.51545 0.26854-1.1013 0.42229-1.723 0.42229-2.0625 0-3.7331-1.6705-3.7331-3.7331 0-0.8379 0.27755-1.6069 0.74323-2.2297z" style="fill:url(#radialGradient2498);stroke-linecap:round;stroke-linejoin:round;stroke-width:1.0037;stroke:url(#linearGradient2500)"/>
 </g>
</svg>
