<?xml version="1.0" encoding="UTF-8"?>
<!-- Created with Inkscape (http://www.inkscape.org/) -->
<svg id="svg2" width="24" height="24" version="1.0" xmlns="http://www.w3.org/2000/svg" xmlns:xlink="http://www.w3.org/1999/xlink">
 <defs id="defs4">
  <linearGradient id="linearGradient4429" x1="17.676" x2="15.543" y1="28.648" y2="26.971" gradientTransform="matrix(.64357 0 0 .62839 -4.4763 -2.0995)" gradientUnits="userSpaceOnUse">
   <stop id="stop3326" style="stop-color:#fff" offset="0"/>
   <stop id="stop3328" style="stop-color:#fff;stop-opacity:0" offset="1"/>
  </linearGradient>
  <radialGradient id="radialGradient4432" cx="37.972" cy="11.218" r="10.024" gradientTransform="matrix(1.1058 0 0 1.1058 -4.1084 -1.2234)" gradientUnits="userSpaceOnUse">
   <stop id="stop3157" style="stop-color:#fff" offset="0"/>
   <stop id="stop3159" style="stop-color:#9b9b9b" offset="1"/>
  </radialGradient>
  <radialGradient id="radialGradient4596" cx="31.002" cy="20.938" r=".91429" gradientTransform="matrix(1.7056 0 0 1.7056 -21.788 -14.6)" gradientUnits="userSpaceOnUse">
   <stop id="stop3687" style="stop-color:#fff;stop-opacity:0" offset="0"/>
   <stop id="stop3689" style="stop-opacity:.49804" offset=".77083"/>
   <stop id="stop3691" offset="1"/>
  </radialGradient>
  <linearGradient id="linearGradient4609" x1="32.303" x2="34.59" y1="18.646" y2="16.081" gradientTransform="matrix(.58666 .010649 -.010567 .57283 -1.5974 -4.8299)" gradientUnits="userSpaceOnUse" xlink:href="#linearGradient3165"/>
  <linearGradient id="linearGradient4606" x1="34.204" x2="39" y1="17.334" y2="23.119" gradientTransform="matrix(.58666 .010649 -.010567 .57283 -1.5974 -4.8299)" gradientUnits="userSpaceOnUse" spreadMethod="reflect" xlink:href="#linearGradient3179"/>
  <radialGradient id="radialGradient4602" cx="37.972" cy="11.218" r="10.024" gradientTransform="matrix(1.1058 0 0 1.1058 -4.1084 -1.2234)" gradientUnits="userSpaceOnUse">
   <stop id="stop3451" style="stop-color:#fff" offset="0"/>
   <stop id="stop3453" style="stop-color:#9b9b9b;stop-opacity:0" offset="1"/>
  </radialGradient>
  <linearGradient id="linearGradient3165">
   <stop id="stop3167" style="stop-color:#1e1e1e" offset="0"/>
   <stop id="stop3173" style="stop-color:#8d8d8d" offset=".26636"/>
   <stop id="stop3169" style="stop-color:#eee" offset="1"/>
  </linearGradient>
  <linearGradient id="linearGradient4339" x1="26.546" x2="28.415" y1="25.605" y2="23.377" gradientTransform="matrix(.64357 0 0 .62839 -3.1523 -6.0733)" gradientUnits="userSpaceOnUse" xlink:href="#linearGradient3165"/>
  <linearGradient id="linearGradient3179">
   <stop id="stop3181" style="stop-color:#fff" offset="0"/>
   <stop id="stop3183" style="stop-color:#fff;stop-opacity:0" offset="1"/>
  </linearGradient>
  <linearGradient id="linearGradient4336" x1="27.501" x2="31.416" y1="24.468" y2="28.492" gradientTransform="matrix(.64061 0 0 .63057 -3.1379 -6.1775)" gradientUnits="userSpaceOnUse" spreadMethod="reflect" xlink:href="#linearGradient3179"/>
  <radialGradient id="radialGradient3628" cx="11.306" cy="8.3027" r="8.7035" gradientTransform="matrix(-.76618 1.7164 -.70099 -.31291 25.788 -8.2939)" gradientUnits="userSpaceOnUse">
   <stop id="stop3624" style="stop-color:#3c3c3c" offset="0"/>
   <stop id="stop3626" style="stop-color:#1e1e1e" offset="1"/>
  </radialGradient>
 </defs>
 <g id="layer1">
  <path id="path3320" d="m11.523 7.0993-11.523 13.549c0.5884 3.2078 3.9227 3.3514 3.9227 3.3514l13.484-11.921-5.884-4.9792z" style="fill-rule:evenodd;fill:url(#radialGradient3628)"/>
  <path id="path3322" d="m13.429 9.8644c-11.328 12.597-11.824 12.851-11.824 12.851s-1.1298-1.0201-1.1788-1.7383l11.18-13.118s0.84484 1.1232 1.8227 2.0054z" style="fill-rule:evenodd;fill:url(#linearGradient4429);opacity:.24"/>
  <path id="path2383" transform="matrix(.58666 .010649 -.010567 .57283 -1.5974 -4.8299)" d="m43.952 17.831a10.024 10.024 0 1 1-20.048 0 10.024 10.024 0 1 1 20.048 0z" style="fill:url(#radialGradient4432)"/>
  <path id="path3681" transform="matrix(6.317 .11467 -.1156 6.2663 -171.55 -133.82)" d="m31.314 21.714a0.91429 0.91429 0 1 1-1.8286 0 0.91429 0.91429 0 1 1 1.8286 0z" style="fill:url(#radialGradient4596);opacity:.1907"/>
  <path id="path3163" d="m14.356 1.2037s2.3282 3.0818 8.6816 7.7242c0.2596 0.18968-0.49176 0.9824-0.74935 0.75963 0 0-3.9338-1.8825-8.7412-7.5596-0.23817-0.28125 0.1788-0.49383 0.80895-0.92424z" style="fill-rule:evenodd;fill:url(#linearGradient4609)"/>
  <path id="path3177" d="m14.356 1.2037s2.3282 3.0818 8.6816 7.7242c0.2596 0.18968-0.49176 0.9824-0.74935 0.75963 0 0-3.9338-1.8825-8.7412-7.5596-0.23817-0.28125 0.1788-0.49383 0.80895-0.92424z" style="fill-rule:evenodd;fill:url(#linearGradient4606);opacity:.67442"/>
  <path id="path2677" transform="matrix(.58666 .010649 -.010567 .57283 -1.5974 -4.8299)" d="m43.952 17.831a10.024 10.024 0 1 1-20.048 0 10.024 10.024 0 1 1 20.048 0z" style="fill:url(#radialGradient4602);opacity:.47907"/>
  <path id="path3302" d="m17.187 12.202c0.46823-0.05715 1.5803-0.71436 1.5803-0.71436-1.6096-0.80008-6.4967-5.6006-6.4967-5.6006s-0.84867 1.0858-0.76088 1.4001c0 0 2.8094 3.2575 5.6773 4.9148z" style="fill-rule:evenodd;fill:url(#linearGradient4339)"/>
  <path id="path3316" d="m17.108 12.162c0.46608-0.05735 1.573-0.71684 1.573-0.71684-1.6022-0.80286-6.4669-5.62-6.4669-5.62s-0.84478 1.0896-0.75738 1.405c0 0 2.7965 3.2688 5.6513 4.9318z" style="fill-rule:evenodd;fill:url(#linearGradient4336);opacity:.52558"/>
 </g>
</svg>
