<?xml version="1.0" encoding="UTF-8"?>
<!-- Created with Inkscape (http://www.inkscape.org/) -->
<svg id="svg5490" width="24" height="24" version="1.1" xmlns="http://www.w3.org/2000/svg" xmlns:xlink="http://www.w3.org/1999/xlink">
 <defs id="defs5492">
  <linearGradient id="linearGradient3640">
   <stop id="stop3642" style="stop-color:#b3b3b3" offset="0"/>
   <stop id="stop3650" style="stop-color:#fff" offset=".5"/>
   <stop id="stop3644" style="stop-color:#f0f0f0" offset="1"/>
  </linearGradient>
  <linearGradient id="linearGradient2882" x1="12.938" x2="15.25" y1="8.4375" y2="19.812" gradientTransform="matrix(.2381 0 0 .4 4.2857 3.8)" gradientUnits="userSpaceOnUse">
   <stop id="stop6594-0-2" style="stop-color:#fff;stop-opacity:.27451" offset="0"/>
   <stop id="stop6596-2-5" style="stop-color:#fff;stop-opacity:0" offset="1"/>
  </linearGradient>
  <radialGradient id="radialGradient2885" cx="25.147" cy="10.237" r="11" gradientTransform="matrix(.44602 -.0022568 .0021418 .42329 .29591 4.8139)" gradientUnits="userSpaceOnUse">
   <stop id="stop9938" style="stop-color:#575757" offset="0"/>
   <stop id="stop9940" style="stop-color:#333" offset="1"/>
  </radialGradient>
  <radialGradient id="radialGradient2899" cx="26" cy="42.5" r="19" gradientTransform="matrix(.47368 0 0 .10526 -.31579 17.526)" gradientUnits="userSpaceOnUse">
   <stop id="stop3923" offset="0"/>
   <stop id="stop3925" style="stop-opacity:0" offset="1"/>
  </radialGradient>
  <linearGradient id="linearGradient3646" x1="17" x2="17" y1="20" y2="19" gradientUnits="userSpaceOnUse" xlink:href="#linearGradient3640"/>
  <linearGradient id="linearGradient3648" x1="8" x2="8" y1="20" y2="19" gradientUnits="userSpaceOnUse" xlink:href="#linearGradient3640"/>
  <linearGradient id="linearGradient3652" x1="12" x2="12" y1="22" y2="19" gradientUnits="userSpaceOnUse" xlink:href="#linearGradient3640"/>
  <linearGradient id="linearGradient3674" x1="13" x2="24" y1="13" y2="13" gradientTransform="matrix(.45344 0 0 1.5281 1.1174 -16.01)" gradientUnits="userSpaceOnUse" spreadMethod="reflect">
   <stop id="stop3698" style="stop-color:#121214" offset="0"/>
   <stop id="stop3700" style="stop-color:#2f3134" offset=".2065"/>
   <stop id="stop3702" style="stop-color:#5a5a5a" offset="1"/>
  </linearGradient>
  <linearGradient id="linearGradient3712" x1="10.947" x2="11.159" y1="-6.4135" y2="26.158" gradientUnits="userSpaceOnUse">
   <stop id="stop3708" style="stop-color:#fff" offset="0"/>
   <stop id="stop3710" style="stop-color:#fff;stop-opacity:0" offset="1"/>
  </linearGradient>
  <linearGradient id="linearGradient3716" x1="18.5" x2="18.5" y1="43.473" y2="3.4529" gradientTransform="matrix(.5 0 0 .52473 -.25 .18817)" gradientUnits="userSpaceOnUse">
   <stop id="stop3145" style="stop-color:#1e1e1e" offset="0"/>
   <stop id="stop3147" style="stop-color:#606060" offset="1"/>
  </linearGradient>
 </defs>
 <path id="path3919" d="m21 22a9 2 0 0 1-18 0 9 2 0 1 1 18 0z" style="fill:url(#radialGradient2899);opacity:.5"/>
 <path id="rect5508" d="m6.5 1.5h11c0.39571 0 1 1.0741 1 1.5v18c0 0.42593-0.60429 1.5-1 1.5h-11c-0.39571 0-1-1.0741-1-1.5v-18c0-0.42593 0.60428-1.5 1-1.5z" style="fill:url(#linearGradient3716);stroke-linecap:round;stroke:#000"/>
 <path id="path6724" d="m13.75 20a1.75 1.7498 0 0 1-3.5 0 1.75 1.7498 0 1 1 3.5 0z" style="fill:url(#linearGradient3652)"/>
 <rect id="rect4140" x="7" y="5" width="10" height="12" rx="0" ry="0" style="fill-rule:evenodd;fill:url(#radialGradient2885)"/>
 <path id="rect6588" d="m7 5h10v3.2l-10 2.8v-6z" style="fill:url(#linearGradient2882)"/>
 <rect id="rect3675" x="7" y="19" width="2" height=".99999" rx="1.7764e-15" ry="0" style="fill:url(#linearGradient3648)"/>
 <rect id="rect3677" x="15" y="19" width="2" height="1" rx="3.5527e-15" ry="0" style="fill:url(#linearGradient3646)"/>
 <rect id="rect4157" x="10" y="3" width="4" height="1" rx=".18535" ry=".27802" style="fill-rule:evenodd;fill:#323232"/>
 <path id="path3890" d="m7.2273 16.5h9.5455" style="fill:none;stroke-linejoin:round;stroke-miterlimit:3.4286;stroke:url(#linearGradient3674)"/>
 <rect id="rect3704" x="7.5414" y="5.4511" width="9.0075" height="11.008" rx="0" ry="0" style="fill:none;opacity:.15;stroke-width:.94886;stroke:url(#linearGradient3712)"/>
 <path id="path3714" d="m6.5625 2.5c-0.039666 0.12947-0.0625 0.30952-0.0625 0.28125v18.469c0-0.02743 0.026628 0.13222 0.0625 0.25h10.875c0.035872-0.11778 0.0625-0.27743 0.0625-0.25v-18.469c0 0.028269-0.022834-0.15178-0.0625-0.28125h-10.875z" style="fill:none;opacity:.1;stroke-linecap:round;stroke:#fff"/>
</svg>
