<?xml version="1.0" encoding="UTF-8"?>
<!-- Created with Inkscape (http://www.inkscape.org/) -->
<svg id="svg2" width="22" height="22" version="1.0" xmlns="http://www.w3.org/2000/svg" xmlns:cc="http://creativecommons.org/ns#" xmlns:dc="http://purl.org/dc/elements/1.1/" xmlns:rdf="http://www.w3.org/1999/02/22-rdf-syntax-ns#" xmlns:xlink="http://www.w3.org/1999/xlink">
 <metadata id="metadata56">
  <rdf:RDF>
   <cc:Work rdf:about="">
    <dc:format>image/svg+xml</dc:format>
    <dc:type rdf:resource="http://purl.org/dc/dcmitype/StillImage"/>
    <dc:title/>
   </cc:Work>
  </rdf:RDF>
 </metadata>
 <defs id="defs4">
  <linearGradient id="linearGradient5060">
   <stop id="stop5062" offset="0"/>
   <stop id="stop5064" style="stop-opacity:0" offset="1"/>
  </linearGradient>
  <linearGradient id="linearGradient3642" x1="302.86" x2="302.86" y1="366.65" y2="609.51" gradientTransform="matrix(2.7744 0 0 1.9697 -1892.2 -872.89)" gradientUnits="userSpaceOnUse">
   <stop id="stop5050" style="stop-opacity:0" offset="0"/>
   <stop id="stop5056" offset=".5"/>
   <stop id="stop5052" style="stop-opacity:0" offset="1"/>
  </linearGradient>
  <radialGradient id="radialGradient3644" cx="605.71" cy="486.65" r="117.14" gradientTransform="matrix(2.7744 0 0 1.9697 -1976.3 -872.89)" gradientUnits="userSpaceOnUse" xlink:href="#linearGradient5060"/>
  <radialGradient id="radialGradient3646" cx="605.71" cy="486.65" r="117.14" gradientTransform="matrix(-2.7744 0 0 1.9697 112.76 -872.89)" gradientUnits="userSpaceOnUse" xlink:href="#linearGradient5060"/>
  <linearGradient id="linearGradient3661" x1="18.031" x2="20.055" y1="16.408" y2="24.628" gradientTransform="matrix(.44503 0 0 .40237 2.8555 3.8499)" gradientUnits="userSpaceOnUse">
   <stop id="stop2687" style="stop-color:#fff;stop-opacity:.27451" offset="0"/>
   <stop id="stop2689" style="stop-color:#fff;stop-opacity:.078431" offset="1"/>
  </linearGradient>
  <radialGradient id="radialGradient3664" cx="4.02" cy="5.5927" r="10.273" gradientTransform="matrix(-.016802 1.3943 -1.7966 -.021651 14.189 .15662)" gradientUnits="userSpaceOnUse">
   <stop id="stop3754" style="stop-color:#fff" offset="0"/>
   <stop id="stop3760" style="stop-color:#fff" offset=".84754"/>
   <stop id="stop3756" style="stop-color:#fff;stop-opacity:0" offset="1"/>
  </radialGradient>
  <radialGradient id="radialGradient3667" cx="7.8186" cy="8.5609" r="11.268" gradientTransform="matrix(1.69 0 0 1.0436 -5.4127 -1.0382)" gradientUnits="userSpaceOnUse">
   <stop id="stop2501" style="stop-color:#bababa" offset="0"/>
   <stop id="stop2503" style="stop-color:#838383" offset="1"/>
  </radialGradient>
  <linearGradient id="linearGradient3669" x1="9.7046" x2="9.7046" y1="20.882" y2="4.303" gradientTransform="matrix(.99458 0 0 .99458 -.30296 -.28223)" gradientUnits="userSpaceOnUse">
   <stop id="stop2507" style="stop-color:#5e5e5e" offset="0"/>
   <stop id="stop2509" style="stop-color:#909090" offset="1"/>
  </linearGradient>
  <linearGradient id="linearGradient3672" x1="-28.531" x2="-28.531" y1="17.956" y2="37.503" gradientTransform="translate(34.414 -16.501)" gradientUnits="userSpaceOnUse">
   <stop id="stop11113" style="stop-color:#fff" offset="0"/>
   <stop id="stop11115" style="stop-color:#cdcdcd" offset=".91014"/>
   <stop id="stop11117" style="stop-color:#a1a1a1" offset="1"/>
  </linearGradient>
  <linearGradient id="linearGradient3674" x1="9.8764" x2="9.8764" y1="2.6015" y2="23.062" gradientTransform="translate(.036304 -2)" gradientUnits="userSpaceOnUse">
   <stop id="stop5159" style="stop-color:#c1c1c1" offset="0"/>
   <stop id="stop5161" style="stop-color:#909090" offset="1"/>
  </linearGradient>
 </defs>
 <g id="g3490" transform="matrix(.54593 0 0 .51685 -.96573 -2.5782)" style="stroke-width:1.8826">
  <g id="g5022" transform="matrix(.021652 0 0 .014857 43.008 42.685)" style="stroke-width:104.96">
   <rect id="rect2527" x="-1559.3" y="-150.7" width="1262.7" height="467.59" style="fill:url(#linearGradient3642);opacity:.40206"/>
   <path id="path2529" d="m-304.25-150.68v478.33c142.87 0.90045 345.4-107.17 345.4-239.2 0-132.03-159.44-239.13-345.4-239.13z" style="fill:url(#radialGradient3644);opacity:.40206"/>
   <path id="path2531" d="m-1559.3-150.68v478.33c-142.87 0.90045-345.4-107.17-345.4-239.2 0-132.03 159.44-239.13 345.4-239.13z" style="fill:url(#radialGradient3646);opacity:.40206"/>
  </g>
 </g>
 <path id="path3496" d="m0.71359 2.5695c-0.08554 0-0.15887 0.09275-0.15887 0.18855 0 5.8692-0.04308 10.244-0.04914 16.225 0.02908 0.89504 0.53724 1.5051 0.88966 1.5083 1.0127 0.0092 0.53927-4e-3 1.0485 0 6.4703-0.0161 11.579-0.07817 18.049-0.09427 0.05421 0.0069-1.4767-0.10772-1.4616-1.4455-0.11743-6.104-0.6256-11.727-0.53143-14.362-0.027862-0.02445-0.12049-0.05743-0.16126-0.06324h-6.8201c-0.81532 0-1.0021-1.992-2.2137-1.992l-8.5913 0.03569z" style="fill:url(#linearGradient3672);stroke-linecap:round;stroke-linejoin:round;stroke-width:1.0111;stroke:url(#linearGradient3674)"/>
 <path id="path3498" d="m3.5357 6.5471c10.57 0 11.03 4.63e-4 17.994-0.02754 0 1.5704 0.25816 14.04-0.48411 14.04-0.71405 0-12.046-0.09435-19.009-0.06635 1.4717 0 1.4873-0.85078 1.4993-13.946z" style="fill:url(#radialGradient3667);stroke-linecap:round;stroke-linejoin:round;stroke:url(#linearGradient3669)"/>
 <path id="path3211" d="m20.975 7.6088s-14.832 0.09361-16.397-0.09237c-0.08294 13.829-0.50095 12.439-0.50095 12.439" style="fill:none;opacity:.4;stroke-width:.9812;stroke:url(#radialGradient3664)"/>
 <path id="path2608" d="m4.288 6c-0.98261 0-1.2517 0.27426-1.2517 1.1317v6.4378c0.0026 0.11517 0.06605 0.24648 0.16689 0.32692 0.10084 0.08044 0.22972 0.11438 0.3755 0.10059 0.0046 1.07e-4 0.0093 1.07e-4 0.01391 0l18.026-2.8669c0.23221-0.03311 0.41397-0.215 0.41722-0.42751v-3.571c0.059545-0.8574-0.44768-1.1317-1.2517-1.1317h-16.497z" style="fill-rule:evenodd;fill:url(#linearGradient3661)"/>
 <rect id="rect2545" x="2" y="4" width="7" height="1" rx=".53846" ry=".5" style="display:block;fill:#b0b0b0"/>
</svg>
