<?xml version="1.0" encoding="UTF-8" standalone="no"?>
<!-- Created with Inkscape (http://www.inkscape.org/) -->

<svg
   xmlns:dc="http://purl.org/dc/elements/1.1/"
   xmlns:cc="http://creativecommons.org/ns#"
   xmlns:rdf="http://www.w3.org/1999/02/22-rdf-syntax-ns#"
   xmlns:svg="http://www.w3.org/2000/svg"
   xmlns="http://www.w3.org/2000/svg"
   xmlns:xlink="http://www.w3.org/1999/xlink"
   xmlns:sodipodi="http://sodipodi.sourceforge.net/DTD/sodipodi-0.dtd"
   xmlns:inkscape="http://www.inkscape.org/namespaces/inkscape"
   width="164.97447"
   height="66.059052"
   id="svg29451"
   version="1.1"
   inkscape:version="0.48.3.1 r9886"
   sodipodi:docname="source.svg">
  <defs
     id="defs29453">
    <filter
       inkscape:collect="always"
       id="filter4126-6"
       x="-0.14746533"
       width="1.2949307"
       y="-0.15767635"
       height="1.3153527"
       color-interpolation-filters="sRGB">
      <feGaussianBlur
         inkscape:collect="always"
         stdDeviation="1.6589851"
         id="feGaussianBlur4128-4" />
    </filter>
    <filter
       inkscape:collect="always"
       id="filter4385"
       x="-0.1476"
       width="1.2952"
       y="-0.1476"
       height="1.2952"
       color-interpolation-filters="sRGB">
      <feGaussianBlur
         inkscape:collect="always"
         stdDeviation="1.6605"
         id="feGaussianBlur4387" />
    </filter>
    <linearGradient
       id="linearGradient6600-4-2-4">
      <stop
         id="stop6602-7-5-9"
         offset="0"
         style="stop-color:#ed641d;stop-opacity:1;" />
      <stop
         style="stop-color:#da652b;stop-opacity:1;"
         offset="0.23633458"
         id="stop6604-2-6" />
      <stop
         id="stop6606-8-6"
         offset="0.48769146"
         style="stop-color:#ec7532;stop-opacity:1;" />
      <stop
         id="stop6608-3-1"
         offset="1"
         style="stop-color:#fdba5f;stop-opacity:1;" />
    </linearGradient>
    <linearGradient
       gradientTransform="matrix(-0.05729205,0,0,0.05729205,-408.60298,-127.39032)"
       y2="2244.4617"
       x2="-9713.7959"
       y1="2701.8022"
       x1="-9713.7959"
       gradientUnits="userSpaceOnUse"
       id="linearGradient3389"
       xlink:href="#linearGradient6600-4-2-4"
       inkscape:collect="always" />
    <filter
       inkscape:collect="always"
       id="filter3878"
       x="-0.15172867"
       width="1.3034573"
       y="-0.150675"
       height="1.30135"
       color-interpolation-filters="sRGB">
      <feGaussianBlur
         inkscape:collect="always"
         stdDeviation="1.6950938"
         id="feGaussianBlur3880" />
    </filter>
    <filter
       inkscape:collect="always"
       id="filter3890"
       x="-0.14760859"
       width="1.2952172"
       y="-0.14759141"
       height="1.2951828"
       color-interpolation-filters="sRGB">
      <feGaussianBlur
         inkscape:collect="always"
         stdDeviation="1.6605964"
         id="feGaussianBlur3892" />
    </filter>
  </defs>
  <sodipodi:namedview
     id="base"
     pagecolor="#ffffff"
     bordercolor="#666666"
     borderopacity="1.0"
     inkscape:pageopacity="0.0"
     inkscape:pageshadow="2"
     inkscape:zoom="5.6000002"
     inkscape:cx="50.778471"
     inkscape:cy="41.048329"
     inkscape:document-units="px"
     inkscape:current-layer="svg29451"
     showgrid="false"
     inkscape:window-width="1680"
     inkscape:window-height="986"
     inkscape:window-x="-7"
     inkscape:window-y="37"
     inkscape:window-maximized="1"
     fit-margin-top="0"
     fit-margin-left="0"
     fit-margin-right="0"
     fit-margin-bottom="0"
     inkscape:snap-bbox="true"
     inkscape:bbox-paths="true"
     inkscape:bbox-nodes="true"
     inkscape:snap-bbox-edge-midpoints="true"
     inkscape:snap-bbox-midpoints="true"
     inkscape:object-paths="true"
     inkscape:snap-intersection-paths="true"
     inkscape:object-nodes="true"
     inkscape:snap-smooth-nodes="true"
     inkscape:snap-midpoints="true"
     inkscape:snap-object-midpoints="true"
     inkscape:snap-center="true"
     showguides="true"
     inkscape:guide-bbox="true"
     inkscape:snap-global="true"
     inkscape:showpageshadow="false" />
  <metadata
     id="metadata29456">
    <rdf:RDF>
      <cc:Work
         rdf:about="">
        <dc:format>image/svg+xml</dc:format>
        <dc:type
           rdf:resource="http://purl.org/dc/dcmitype/StillImage" />
        <dc:title></dc:title>
      </cc:Work>
    </rdf:RDF>
  </metadata>
  <style
     id="style8264"
     type="text/css">

	.st0{clip-path:url(#XMLID_5_);}
	.st1{fill:#808080;fill-opacity:0.3922;}
	.st2{fill:#C8C8C8;fill-opacity:0.251;stroke:#000000;stroke-width:0.2632;stroke-linecap:square;stroke-opacity:0.502;}
	.st3{fill:none;stroke:#000000;stroke-width:0.2632;stroke-linecap:square;stroke-opacity:0.502;}
	.st4{opacity:0.5;fill:#B3B3B3;fill-opacity:0.6863;enable-background:new    ;}

</style>
  <path
     inkscape:export-ydpi="90"
     inkscape:export-xdpi="90"
     inkscape:export-filename="icons/installed.png"
     id="path4248"
     d="m 60.852311,0 c -7.43866,0 -13.49999,6.0613 -13.5,13.5 1e-5,7.4387 6.06134,13.5 13.5,13.5 7.43866,0 13.50001,-6.0613 13.5,-13.5 1e-5,-7.4387 -6.06134,-13.5 -13.5,-13.5 z m 0,3.0312 c 5.81207,0 10.50001,4.6567 10.5,10.4688 1e-5,5.8121 -4.68793,10.5 -10.5,10.5 -5.81207,0 -10.5,-4.6879 -10.5,-10.5 0,-5.8121 4.68793,-10.4688 10.5,-10.4688 z m 4.71875,4.625 -6.25,8.0313 -0.5,-0.6563 -0.40625,-0.5 -2.1875,-2.7812 -2.6875,2.125 4.40625,5.6562 1.375,1.7188 1.34375,-1.7188 7.625,-9.75 -2.71875,-2.125 z"
     style="font-size:medium;font-style:normal;font-variant:normal;font-weight:normal;font-stretch:normal;text-indent:0;text-align:start;text-decoration:none;line-height:normal;letter-spacing:normal;word-spacing:normal;text-transform:none;direction:ltr;block-progression:tb;writing-mode:lr-tb;text-anchor:start;baseline-shift:baseline;color:#000000;fill:#000000;fill-opacity:1;stroke:none;stroke-width:32.44002151;marker:none;visibility:visible;display:inline;overflow:visible;enable-background:accumulate;font-family:Sans;-inkscape-font-specification:Sans"
     inkscape:connector-curvature="0" />
  <path
     style="fill:#000000;fill-opacity:1;fill-rule:nonzero;stroke:none"
     d="m 3.9815906,0 0,25.2514 1.74858,0 0,-25.2514 z m 2.71955,0 0,25.2514 10.0984404,0 c -3.60678,-1.7104 -6.10836,-5.3874 -6.10836,-9.6353 0,-5.873 4.78207,-10.6551 10.6551,-10.6551 1.71734,0 3.34197,0.4091 4.78045,1.1346 l 0,-6.0956 z M 21.346321,6.4859752 c -5.042891,0 -9.130194,4.0872938 -9.130194,9.1301278 0,5.042928 4.087313,9.130222 9.130194,9.130222 5.042891,0 9.130203,-4.087294 9.130194,-9.130222 0,-5.042834 -4.087303,-9.1301278 -9.130194,-9.1301278 z m 0,6.3468248 c 1.53732,0 2.78329,1.246 2.78329,2.7833 -10e-6,1.5374 -1.24597,2.7833 -2.78329,2.7833 -1.53732,0 -2.78328,-1.2459 -2.78328,-2.7833 0,-1.5373 1.24597,-2.7833 2.78328,-2.7833 z m 0,0.3336 c -1.35312,0 -2.44971,1.0966 -2.44972,2.4497 0,1.3531 1.0966,2.4497 2.44972,2.4497 1.3531,0 2.44972,-1.0966 2.44972,-2.4497 0,-1.3531 -1.09662,-2.4497 -2.44972,-2.4497 z m 0,0.2677 c 1.20538,0 2.18201,0.9767 2.18201,2.182 0,1.2054 -0.97662,2.1842 -2.18201,2.1842 -1.20538,0 -2.18414,-0.9788 -2.18413,-2.1842 0,-1.2054 0.97875,-2.182 2.18413,-2.182 z m 0,0.066 c -1.16988,0 -2.11827,0.9463 -2.11827,2.1161 0,1.1699 0.9484,2.1183 2.11827,2.1183 1.16987,0 2.11615,-0.9484 2.11615,-2.1183 0,-1.1698 -0.94627,-2.1161 -2.11615,-2.1161 z m 0,0.7011 c 0.78191,0 1.415,0.6331 1.41502,1.415 -1e-5,0.7819 -0.63312,1.415 -1.41502,1.415 -0.78191,0 -1.41499,-0.6331 -1.41501,-1.415 0,-0.7819 0.63311,-1.415 1.41501,-1.415 z"
     id="path6079"
     inkscape:connector-curvature="0"
     inkscape:export-filename="icons/available.png"
     inkscape:export-xdpi="90"
     inkscape:export-ydpi="90"
     sodipodi:nodetypes="ccccccccsscccsssssssssssssssssssssssssscscs" />
  <use
     x="0"
     y="0"
     xlink:href="#path6079"
     id="use3264"
     transform="translate(-3.3568945e-5,35.86508)"
     width="614.34302"
     height="614.34302"
     style="filter:url(#filter4126-6)"
     inkscape:export-filename="icons/available-dropshadow.png"
     inkscape:export-xdpi="90"
     inkscape:export-ydpi="90" />
  <path
     inkscape:connector-curvature="0"
     style="font-size:medium;font-style:normal;font-variant:normal;font-weight:normal;font-stretch:normal;text-indent:0;text-align:start;text-decoration:none;line-height:normal;letter-spacing:normal;word-spacing:normal;text-transform:none;direction:ltr;block-progression:tb;writing-mode:lr-tb;text-anchor:start;baseline-shift:baseline;color:#000000;fill:#000000;fill-opacity:1;stroke:none;stroke-width:32.44002151;marker:none;visibility:visible;display:inline;overflow:visible;enable-background:accumulate;font-family:Sans;-inkscape-font-specification:Sans"
     d="M 104.22303,4.7612922e-7 C 96.784373,4.7612922e-7 90.723037,6.0644749 90.723031,13.503143 c 4e-6,7.438657 6.061343,13.499997 13.499999,13.499997 7.43866,0 13.5,-6.06134 13.49999,-13.499997 C 117.72303,6.0644749 111.66169,4.7612922e-7 104.22303,4.7612922e-7 z M 104.22302,3.009755 c 5.81207,0 10.49026,4.6813115 10.49025,10.493388 1e-5,5.812066 -4.67817,10.490247 -10.49024,10.490247 -5.812064,0 -10.490243,-4.678181 -10.490246,-10.490247 6e-6,-5.8120765 4.678175,-10.493388 10.490236,-10.493388 z m -0.99697,0.7116865 -0.003,7.7156255 1.99709,0.09092 0.003,-7.7156349 -1.99709,-0.090915 z m 0.99698,8.6310915 c -0.63491,0 -1.14747,0.515702 -1.14747,1.15061 0,0.634897 0.51256,1.147468 1.14746,1.147468 0.63491,0 1.15061,-0.512571 1.15061,-1.147468 0,-0.634908 -0.5157,-1.15061 -1.1506,-1.15061 z m 1.99709,0.645843 0.0439,1.006392 7.71562,0 -0.0439,-1.006392 -7.71563,0 z"
     id="path3041"
     inkscape:export-filename="icons/history.png"
     inkscape:export-xdpi="90"
     inkscape:export-ydpi="90" />
  <path
     style="font-size:medium;font-style:normal;font-variant:normal;font-weight:normal;font-stretch:normal;text-indent:0;text-align:start;text-decoration:none;line-height:normal;letter-spacing:normal;word-spacing:normal;text-transform:none;direction:ltr;block-progression:tb;writing-mode:lr-tb;text-anchor:start;baseline-shift:baseline;color:#000000;fill:#000000;fill-opacity:1;stroke:none;stroke-width:32.44002151;marker:none;visibility:visible;display:inline;overflow:visible;enable-background:accumulate;font-family:Sans;-inkscape-font-specification:Sans"
     d="M 160.90624,12 C 160.15386,5.2660305 154.4299,1.0476129e-5 147.49999,4.7612922e-7 140.57009,1.0476129e-5 134.84574,5.2660305 134.09374,12 l 3.03125,0 c 0.71962,-5.1007295 5.06934,-8.9999995 10.375,-8.9999995 3.58779,0 6.73835,1.76815 8.625,4.5 l -2.96875,2.0625 7.75,2.4374995 z m 0,3 -3.03125,0 c -0.71962,5.10073 -5.06934,9 -10.375,9 -3.58779,0 -6.73835,-1.76815 -8.625,-4.5 l 2.96875,-2.0625 -7.75,-2.4375 c 0.75238,6.73397 6.47634,11.99999 13.40625,12 6.9299,-10e-6 12.65425,-5.26603 13.40625,-12 z"
     id="path3841"
     inkscape:connector-curvature="0"
     inkscape:export-filename="icons/pending.png"
     inkscape:export-xdpi="90"
     inkscape:export-ydpi="90" />
  <use
     x="0"
     y="0"
     xlink:href="#path4248"
     id="use4379"
     transform="translate(-0.03027597,34.99083)"
     width="124.78543"
     height="63.833729"
     style="filter:url(#filter4385)"
     inkscape:export-filename="icons/installed-dropshadow.png"
     inkscape:export-xdpi="90"
     inkscape:export-ydpi="90" />
  <use
     x="0"
     y="0"
     xlink:href="#path3841"
     id="use3844"
     transform="translate(-4.3430239e-6,34.99083)"
     width="123.01768"
     height="66.857513"
     inkscape:export-filename="icons/pending-dropshadow.png"
     inkscape:export-xdpi="90"
     inkscape:export-ydpi="90"
     style="filter:url(#filter3878)" />
  <use
     x="0"
     y="0"
     xlink:href="#path3041"
     id="use3884"
     transform="translate(-0.0566524,34.98926)"
     width="123.01768"
     height="66.857513"
     style="filter:url(#filter3890)"
     inkscape:export-filename="icons/history-dropshadow.png"
     inkscape:export-xdpi="90"
     inkscape:export-ydpi="90" />
</svg>
