<?xml version="1.0" encoding="UTF-8" standalone="no"?>
<!-- Created with Inkscape (http://www.inkscape.org/) -->

<svg
   xmlns:dc="http://purl.org/dc/elements/1.1/"
   xmlns:cc="http://creativecommons.org/ns#"
   xmlns:rdf="http://www.w3.org/1999/02/22-rdf-syntax-ns#"
   xmlns:svg="http://www.w3.org/2000/svg"
   xmlns="http://www.w3.org/2000/svg"
   xmlns:sodipodi="http://sodipodi.sourceforge.net/DTD/sodipodi-0.dtd"
   xmlns:inkscape="http://www.inkscape.org/namespaces/inkscape"
   version="1.1"
   width="24"
   height="24"
   id="svg3014"
   inkscape:version="0.91 r13725"
   sodipodi:docname="battery-charged-2.svg">
  <sodipodi:namedview
     pagecolor="#ffffff"
     bordercolor="#666666"
     borderopacity="1"
     objecttolerance="10"
     gridtolerance="10"
     guidetolerance="10"
     inkscape:pageopacity="0"
     inkscape:pageshadow="2"
     inkscape:window-width="1920"
     inkscape:window-height="998"
     id="namedview3007"
     showgrid="false"
     inkscape:zoom="45.254834"
     inkscape:cx="11.202097"
     inkscape:cy="14.035879"
     inkscape:window-x="0"
     inkscape:window-y="32"
     inkscape:window-maximized="1"
     inkscape:current-layer="svg3014" />
  <defs
     id="defs3016" />
  <metadata
     id="metadata3019">
    <rdf:RDF>
      <cc:Work
         rdf:about="">
        <dc:format>image/svg+xml</dc:format>
        <dc:type
           rdf:resource="http://purl.org/dc/dcmitype/StillImage" />
        <dc:title></dc:title>
      </cc:Work>
    </rdf:RDF>
  </metadata>
  <path
     style="display:inline;overflow:visible;visibility:visible;opacity:0.12000002;fill:#000000;fill-opacity:1;fill-rule:evenodd;stroke:none;stroke-width:1.69999993;marker:none;enable-background:accumulate"
     d="M 3.4492188 9.3496094 C 3.1999188 9.3496094 3 9.5514813 3 9.8007812 L 3 16.099609 C 3 16.348909 3.1999188 16.550781 3.4492188 16.550781 L 18.75 16.550781 C 18.9993 16.550781 19.199219 16.348909 19.199219 16.099609 L 19.199219 9.8007812 C 19.199219 9.5514813 18.9993 9.3496094 18.75 9.3496094 L 13.476562 9.3496094 L 12.539062 11.693359 L 14.160156 11.693359 L 10.380859 16.011719 L 12 12.771484 L 9.8398438 12.771484 L 13.261719 9.3496094 L 3.4492188 9.3496094 z "
     id="rect3190-4" />
  <path
     style="display:inline;overflow:visible;visibility:visible;fill:#dfdbd2;fill-opacity:1;fill-rule:evenodd;stroke:none;stroke-width:1.69999993;marker:none;enable-background:accumulate"
     d="M 3.4492188 8.4492188 C 3.1999188 8.4492188 3 8.6510906 3 8.9003906 L 3 15.199219 C 3 15.448519 3.1999188 15.650391 3.4492188 15.650391 L 18.75 15.650391 C 18.9993 15.650391 19.199219 15.448519 19.199219 15.199219 L 19.199219 8.9003906 C 19.199219 8.6510906 18.9993 8.4492188 18.75 8.4492188 L 3.4492188 8.4492188 z M 13.619141 8.4902344 L 12.539062 11.189453 L 14.160156 11.189453 L 10.380859 15.509766 L 12 12.269531 L 9.8398438 12.269531 L 13.619141 8.4902344 z "
     id="rect3190" />
  <path
     d="m 3,7.55 c -0.9972,0 -1.8,0.8028 -1.8,1.8 l 0,7.2 c 0,0.9972 0.8028,1.8 1.8,1.8 l 16.2,0 c 0.9972,0 1.8,-0.8028 1.8,-1.8 l 0,-0.9 0.345895,0 c 0.9972,0 1.454105,-0.8028 1.454105,-1.8 l 0,-1.8 c 0,-0.9972 -0.383024,-1.8 -1.380224,-1.8 L 21,10.25 21,9.35 c 0,-0.9972 -0.8028,-1.8 -1.8,-1.8 z m 0,0.9 16.2,0 c 0.4986,0 0.9,0.4014 0.9,0.9 l 0,7.2 c 0,0.4986 -0.4014,0.9 -0.9,0.9 l -16.2,0 c -0.4986,0 -0.9,-0.4014 -0.9,-0.9 l 0,-7.2 C 2.1,8.8514 2.5014,8.45 3,8.45 Z m 18,2.7 c 0.537673,0 0.9,0.0459 0.9,0.9 l 0,1.8 c 0,0.89226 -0.365803,0.9 -0.9,0.9 z"
     id="rect2401-5"
     style="display:inline;overflow:visible;visibility:visible;opacity:0.3;fill:#000000;fill-opacity:1;fill-rule:nonzero;stroke:none;stroke-width:1;marker:none;enable-background:accumulate"
     inkscape:connector-curvature="0" />
  <path
     d="m 3,6.65 c -0.9972,0 -1.8,0.8028 -1.8,1.8 l 0,7.2 c 0,0.9972 0.8028,1.8 1.8,1.8 l 16.2,0 c 0.9972,0 1.8,-0.8028 1.8,-1.8 l 0,-0.9 0.345895,0 c 0.9972,0 1.454105,-0.8028 1.454105,-1.8 l 0,-1.8 c 0,-0.9972 -0.383024,-1.8 -1.380224,-1.8 L 21,9.35 21,8.45 c 0,-0.9972 -0.8028,-1.8 -1.8,-1.8 z m 0,0.9 16.2,0 c 0.4986,0 0.9,0.4014 0.9,0.9 l 0,7.2 c 0,0.4986 -0.4014,0.9 -0.9,0.9 l -16.2,0 c -0.4986,0 -0.9,-0.4014 -0.9,-0.9 l 0,-7.2 C 2.1,7.9514 2.5014,7.55 3,7.55 Z m 18,2.7 c 0.537673,0 0.9,0.0459 0.9,0.9 l 0,1.8 c 0,0.89226 -0.365803,0.9 -0.9,0.9 z"
     id="rect2401"
     style="display:inline;overflow:visible;visibility:visible;fill:#dfdbd2;fill-opacity:1;fill-rule:nonzero;stroke:none;stroke-width:1;marker:none;enable-background:accumulate"
     inkscape:connector-curvature="0" />
  <rect
     width="17.549999"
     height="8.5500011"
     rx="0.67500001"
     ry="0.67500001"
     x="2.3249998"
     y="7.7750001"
     id="rect3192"
     style="display:inline;overflow:visible;visibility:visible;opacity:0.3;fill:none;stroke:#dfdbd2;stroke-width:0.44999996;stroke-linecap:round;stroke-linejoin:miter;stroke-miterlimit:4;stroke-dasharray:none;stroke-dashoffset:0;stroke-opacity:1;marker:none;enable-background:accumulate" />
</svg>
