<?xml version="1.0" encoding="UTF-8" standalone="no"?>
<!-- Created with Inkscape (http://www.inkscape.org/) -->

<svg
   xmlns:dc="http://purl.org/dc/elements/1.1/"
   xmlns:cc="http://creativecommons.org/ns#"
   xmlns:rdf="http://www.w3.org/1999/02/22-rdf-syntax-ns#"
   xmlns:svg="http://www.w3.org/2000/svg"
   xmlns="http://www.w3.org/2000/svg"
   xmlns:sodipodi="http://sodipodi.sourceforge.net/DTD/sodipodi-0.dtd"
   xmlns:inkscape="http://www.inkscape.org/namespaces/inkscape"
   version="1.1"
   width="24"
   height="24"
   id="svg3014"
   inkscape:version="0.91 r13725"
   sodipodi:docname="battery-080-charging.svg">
  <sodipodi:namedview
     pagecolor="#ffffff"
     bordercolor="#666666"
     borderopacity="1"
     objecttolerance="10"
     gridtolerance="10"
     guidetolerance="10"
     inkscape:pageopacity="0"
     inkscape:pageshadow="2"
     inkscape:window-width="1920"
     inkscape:window-height="998"
     id="namedview13"
     showgrid="false"
     inkscape:zoom="27.812867"
     inkscape:cx="13.300349"
     inkscape:cy="6.1787145"
     inkscape:window-x="0"
     inkscape:window-y="32"
     inkscape:window-maximized="1"
     inkscape:current-layer="svg3014" />
  <defs
     id="defs3016" />
  <metadata
     id="metadata3019">
    <rdf:RDF>
      <cc:Work
         rdf:about="">
        <dc:format>image/svg+xml</dc:format>
        <dc:type
           rdf:resource="http://purl.org/dc/dcmitype/StillImage" />
        <dc:title></dc:title>
      </cc:Work>
    </rdf:RDF>
  </metadata>
  <g
     transform="matrix(0.7,0,0,0.9,-1.9000001,2.15)"
     id="g3076"
     style="opacity:0.4">
    <rect
       width="8"
       height="18"
       rx="0.5"
       ry="0.64285713"
       x="8"
       y="-25"
       transform="matrix(0,1,-1,0,0,0)"
       id="rect3190-4"
       style="display:inline;overflow:visible;visibility:visible;opacity:0.3;fill:#000000;fill-opacity:1;fill-rule:evenodd;stroke:none;stroke-width:1.69999993;marker:none;enable-background:accumulate" />
    <rect
       width="8"
       height="18"
       rx="0.5"
       ry="0.64285713"
       x="7"
       y="-25"
       transform="matrix(0,1,-1,0,0,0)"
       id="rect3190"
       style="display:inline;overflow:visible;visibility:visible;fill:#dfdbd2;fill-opacity:1;fill-rule:evenodd;stroke:none;stroke-width:1.69999993;marker:none;enable-background:accumulate" />
  </g>
  <path
     d="m 3,7.55 c -0.9972,0 -1.8,0.8028 -1.8,1.8 l 0,7.2 c 0,0.9972 0.8028,1.8 1.8,1.8 l 16.2,0 c 0.9972,0 1.8,-0.8028 1.8,-1.8 l 0,-0.9 0.345895,0 c 0.9972,0 1.454105,-0.8028 1.454105,-1.8 l 0,-1.8 c 0,-0.9972 -0.383024,-1.8 -1.380224,-1.8 L 21,10.25 21,9.35 c 0,-0.9972 -0.8028,-1.8 -1.8,-1.8 z m 0,0.9 16.2,0 c 0.4986,0 0.9,0.4014 0.9,0.9 l 0,7.2 c 0,0.4986 -0.4014,0.9 -0.9,0.9 l -16.2,0 c -0.4986,0 -0.9,-0.4014 -0.9,-0.9 l 0,-7.2 C 2.1,8.8514 2.5014,8.45 3,8.45 Z m 18,2.7 c 0.537673,0 0.9,0.0459 0.9,0.9 l 0,1.8 c 0,0.89226 -0.365803,0.9 -0.9,0.9 z"
     id="rect2401-5"
     style="display:inline;overflow:visible;visibility:visible;opacity:0.3;fill:#000000;fill-opacity:1;fill-rule:nonzero;stroke:none;stroke-width:1;marker:none;enable-background:accumulate"
     inkscape:connector-curvature="0" />
  <path
     d="m 3,6.65 c -0.9972,0 -1.8,0.8028 -1.8,1.8 l 0,7.2 c 0,0.9972 0.8028,1.8 1.8,1.8 l 16.2,0 c 0.9972,0 1.8,-0.8028 1.8,-1.8 l 0,-0.9 0.345895,0 c 0.9972,0 1.454105,-0.8028 1.454105,-1.8 l 0,-1.8 c 0,-0.9972 -0.383024,-1.8 -1.380224,-1.8 L 21,9.35 21,8.45 c 0,-0.9972 -0.8028,-1.8 -1.8,-1.8 z m 0,0.9 16.2,0 c 0.4986,0 0.9,0.4014 0.9,0.9 l 0,7.2 c 0,0.4986 -0.4014,0.9 -0.9,0.9 l -16.2,0 c -0.4986,0 -0.9,-0.4014 -0.9,-0.9 l 0,-7.2 C 2.1,7.9514 2.5014,7.55 3,7.55 Z m 18,2.7 c 0.537673,0 0.9,0.0459 0.9,0.9 l 0,1.8 c 0,0.89226 -0.365803,0.9 -0.9,0.9 z"
     id="rect2401"
     style="display:inline;overflow:visible;visibility:visible;fill:#dfdbd2;fill-opacity:1;fill-rule:nonzero;stroke:none;stroke-width:1;marker:none;enable-background:accumulate"
     inkscape:connector-curvature="0" />
  <rect
     width="17.549999"
     height="8.5500011"
     rx="0.67500001"
     ry="0.67500001"
     x="2.3249998"
     y="7.7750001"
     id="rect3192"
     style="display:inline;overflow:visible;visibility:visible;opacity:0.3;fill:none;stroke:#dfdbd2;stroke-width:0.44999996;stroke-linecap:round;stroke-linejoin:miter;stroke-miterlimit:4;stroke-dasharray:none;stroke-dashoffset:0;stroke-opacity:1;marker:none;enable-background:accumulate" />
  <path
     d="m 13.62,8.992423 -3.78,3.779999 2.16,0 -1.62,3.240001 3.78,-4.320001 -1.62,0 1.08,-2.699999 z"
     id="path3172-8"
     style="opacity:0.3;fill:#000000;fill-opacity:1;fill-rule:evenodd;stroke:none"
     inkscape:connector-curvature="0" />
  <path
     d="m 13.62,8.49 -3.78,3.779999 2.16,0 -1.62,3.240001 3.78,-4.320001 -1.62,0 L 13.62,8.49 Z"
     id="path3172"
     style="fill:#dfdbd2;fill-opacity:1;fill-rule:evenodd;stroke:none"
     inkscape:connector-curvature="0" />
</svg>
