<?xml version="1.0" encoding="UTF-8"?>
<!-- Created with Inkscape (http://www.inkscape.org/) -->
<svg id="svg3191" width="48" height="48" version="1.0" xmlns="http://www.w3.org/2000/svg">
 <g id="layer1">
  <path id="path3189" d="m40.969 5c-0.25048 0.01713-0.48507 0.12884-0.65625 0.3125l-4.75 4.75c-3.2017-2.4912-7.1901-4.0625-11.562-4.0625-10.471 0-19 8.5287-19 19s8.5287 19 19 19c9.1749 0 16.866-6.5464 18.625-15.219 0.013393-0.093272 0.013393-0.18798 0-0.28125 0.001481-0.031232 0.001481-0.062518 0-0.09375 0.015512-0.13766 0.0625-0.26073 0.0625-0.40625 0-2.1913-1.8087-4-4-4-1.9075 0-3.4853 1.3748-3.875 3.1562 0.030672-0.14021-0.02352 0.014194-0.0625 0.1875-1.0787 4.9455-5.4712 8.6562-10.75 8.6562-6.0887 0-11-4.9113-11-11s4.9113-11 11-11c2.1734 0 4.1122 0.72051 5.8125 1.8125l-4.5 4.5c-0.28041 0.28153-0.36519 0.70351-0.21527 1.0715 0.14992 0.36799 0.50545 0.61058 0.90277 0.616h15c0.26609 0.00287 0.52211-0.10156 0.71027-0.28973 0.18816-0.18816 0.2926-0.44419 0.28973-0.71027v-15c0.003159-0.27166-0.10553-0.53266-0.30056-0.72178s-0.45926-0.28973-0.73069-0.27822z" style="fill-rule:evenodd;fill:#eae3d0;opacity:.6"/>
  <path id="path2404" d="m41 6-5.3438 5.3438c-3.1411-2.6922-7.1976-4.3438-11.656-4.3438-9.936 0-18 8.064-18 18s8.064 18 18 18c8.706 0 15.99-6.1895 17.656-14.406 0 0-0.030946 6.3e-5 -0.03125 0 0.039984-0.19523 0.0625-0.38675 0.0625-0.59375 0-1.656-1.344-3-3-3-1.4352 0-2.6115 1.0278-2.9062 2.375-0.01413 0.064591-0.05261 0.12143-0.0625 0.1875-1.1762 5.3923-5.9754 9.4375-11.719 9.4375-6.624 0-12-5.376-12-12s5.376-12 12-12c2.8055 0 5.3659 0.97528 7.4062 2.5938l-5.4062 5.4062h15v-15z" style="fill-rule:evenodd;fill:#3a3935"/>
 </g>
</svg>
