<?xml version="1.0" encoding="UTF-8"?>
<!-- Created with Inkscape (http://www.inkscape.org/) -->
<svg id="svg2" width="22" height="22" version="1.0" xmlns="http://www.w3.org/2000/svg" xmlns:xlink="http://www.w3.org/1999/xlink">
 <defs id="defs4">
  <linearGradient id="linearGradient7093">
   <stop id="stop7095" style="stop-color:#fff" offset="0"/>
   <stop id="stop7097" style="stop-color:#fff;stop-opacity:0" offset="1"/>
  </linearGradient>
  <linearGradient id="linearGradient6443">
   <stop id="stop6445" style="stop-color:#f7ff00" offset="0"/>
   <stop id="stop6447" style="stop-color:lime" offset="1"/>
  </linearGradient>
  <linearGradient id="linearGradient6270">
   <stop id="stop6272" style="stop-color:#ebebeb" offset="0"/>
   <stop id="stop6274" style="stop-color:#bebebe" offset="1"/>
  </linearGradient>
  <linearGradient id="linearGradient5638" x1="12" x2="12" y1="4.6464" y2="7.375" gradientTransform="translate(0 -2)" gradientUnits="userSpaceOnUse" xlink:href="#linearGradient6270"/>
  <linearGradient id="linearGradient5640" x1="12" x2="12" y1="5" y2="12" gradientUnits="userSpaceOnUse">
   <stop id="stop6370" style="stop-color:#a0a0a0" offset="0"/>
   <stop id="stop6372" style="stop-color:#646464" offset="1"/>
  </linearGradient>
  <linearGradient id="linearGradient5642" x1="26.5" x2="26.75" y1="35" y2="45" gradientTransform="matrix(.46512 0 0 .44444 .83722 2.2223)" gradientUnits="userSpaceOnUse" xlink:href="#linearGradient6270"/>
  <radialGradient id="radialGradient5644" cx="6.5" cy="16.5" r="2" gradientTransform="matrix(.58824 0 0 .58823 .17647 10.294)" gradientUnits="userSpaceOnUse" xlink:href="#linearGradient6443"/>
  <linearGradient id="linearGradient5646" x1="25" x2="25" y1="10.132" y2="19.038" gradientTransform="matrix(.46342 0 0 .42859 .87798 12.714)" gradientUnits="userSpaceOnUse" xlink:href="#linearGradient7093"/>
  <linearGradient id="linearGradient5648" x1="26.5" x2="26.75" y1="35" y2="45" gradientTransform="matrix(.46512 0 0 .44444 .83722 -3.7777)" gradientUnits="userSpaceOnUse" xlink:href="#linearGradient6270"/>
  <radialGradient id="radialGradient5650" cx="6.5" cy="16.5" r="2" gradientTransform="matrix(.58824 0 0 .58823 .17647 4.2941)" gradientUnits="userSpaceOnUse" xlink:href="#linearGradient6443"/>
  <linearGradient id="linearGradient5652" x1="25.135" x2="25" y1="9.9862" y2="19.475" gradientTransform="matrix(.46342 0 0 .42859 .87798 6.714)" gradientUnits="userSpaceOnUse" xlink:href="#linearGradient7093"/>
  <linearGradient id="linearGradient5654" x1="26.5" x2="26.75" y1="35" y2="45" gradientTransform="matrix(.46512 0 0 .44444 .83722 -9.7777)" gradientUnits="userSpaceOnUse" xlink:href="#linearGradient6270"/>
  <radialGradient id="radialGradient5656" cx="6.5" cy="16.5" r="2" gradientTransform="matrix(.58824 0 0 .58823 .17647 -1.7059)" gradientUnits="userSpaceOnUse" xlink:href="#linearGradient6443"/>
  <linearGradient id="linearGradient5658" x1="25" x2="25" y1="9.8403" y2="19.038" gradientTransform="matrix(.46342 0 0 .42859 .87798 .71396)" gradientUnits="userSpaceOnUse" xlink:href="#linearGradient7093"/>
 </defs>
 <g id="g5604" transform="translate(-1,-2)">
  <path id="path6523" d="m4.9186 2.5h14.163l3.4186 3.0001h-21l3.4186-3.0001z" style="fill:url(#linearGradient5638);stroke-linecap:square;stroke-linejoin:round;stroke-width:.99987;stroke:#a0a0a0"/>
  <path id="rect6371" d="m1.5 5h21c0.277 0 0.5 0.223 0.5 0.5v4.8l-1 0.2 1 1.4v4.4l-1 0.2 1 1.4v4.6c0 0.277-0.223 0.5-0.5 0.5h-21c-0.277 0-0.5-0.223-0.5-0.5v-4.8l1-1.2-1-0.2v-4.4l1-1.4-1-0.2v-4.8c0-0.277 0.223-0.5 0.5-0.5z" style="fill:url(#linearGradient5640)"/>
  <rect id="rect5480" x="2" y="18" width="20" height="4" style="fill:url(#linearGradient5642)"/>
  <path id="path6441" d="m4.8824 20c0 0.48731-0.39504 0.88235-0.88235 0.88235-0.48731 0-0.88235-0.39504-0.88235-0.88235 0-0.48731 0.39504-0.88235 0.88235-0.88235 0.48731 0 0.88235 0.39504 0.88235 0.88235z" style="fill:url(#radialGradient5644);stroke-linecap:square;stroke-linejoin:round;stroke-width:.23529;stroke:#828282"/>
  <path id="path6477" d="m6.7 20.5c0 0.27614-0.22386 0.5-0.5 0.5-0.27614 0-0.5-0.22386-0.5-0.5s0.22386-0.5 0.5-0.5c0.27614 0 0.5 0.22386 0.5 0.5z" style="fill:#fafafa"/>
  <path id="path6471" d="m7 20.5c0 0.27614-0.22386 0.5-0.5 0.5-0.27614 0-0.5-0.22386-0.5-0.5s0.22386-0.5 0.5-0.5c0.27614 0 0.5 0.22386 0.5 0.5z" style="fill:#3c3c3c"/>
  <rect id="rect6499" x="8" y="20" width="1" height="1" style="fill:gray"/>
  <rect id="rect6501" x="10" y="20" width="1" height="1" style="fill:gray"/>
  <rect id="rect7105" x="2.4998" y="18.5" width="19" height="3.0003" style="fill:none;opacity:.8;stroke-linecap:square;stroke-width:.99969;stroke:url(#linearGradient5646)"/>
  <path id="path6474" d="m16.2 19c-0.276 0-0.5 0.224-0.5 0.5 0 0.276 0.224 0.5 0.5 0.5 0.276 0 0.5-0.224 0.5-0.5 0-0.276-0.224-0.5-0.5-0.5zm2 0c-0.276 0-0.5 0.224-0.5 0.5 0 0.276 0.224 0.5 0.5 0.5 0.276 0 0.5-0.224 0.5-0.5 0-0.276-0.224-0.5-0.5-0.5zm2 0c-0.276 0-0.5 0.224-0.5 0.5s0.224 0.5 0.5 0.5 0.5-0.224 0.5-0.5-0.224-0.5-0.5-0.5zm-3 1c-0.276 0-0.5 0.224-0.5 0.5s0.224 0.5 0.5 0.5 0.5-0.224 0.5-0.5-0.224-0.5-0.5-0.5zm2 0c-0.276 0-0.5 0.224-0.5 0.5s0.224 0.5 0.5 0.5 0.5-0.224 0.5-0.5-0.224-0.5-0.5-0.5z" style="fill:#fafafa"/>
  <path id="path6462" d="m16.5 19c-0.276 0-0.5 0.224-0.5 0.5 0 0.276 0.224 0.5 0.5 0.5 0.276 0 0.5-0.224 0.5-0.5 0-0.276-0.224-0.5-0.5-0.5zm2 0c-0.276 0-0.5 0.224-0.5 0.5 0 0.276 0.224 0.5 0.5 0.5 0.276 0 0.5-0.224 0.5-0.5 0-0.276-0.224-0.5-0.5-0.5zm2 0c-0.276 0-0.5 0.224-0.5 0.5s0.224 0.5 0.5 0.5 0.5-0.224 0.5-0.5-0.224-0.5-0.5-0.5zm-3 1c-0.276 0-0.5 0.224-0.5 0.5s0.224 0.5 0.5 0.5 0.5-0.224 0.5-0.5-0.224-0.5-0.5-0.5zm2 0c-0.276 0-0.5 0.224-0.5 0.5s0.224 0.5 0.5 0.5 0.5-0.224 0.5-0.5-0.224-0.5-0.5-0.5z" style="fill:#666"/>
  <rect id="rect6476" x="12" y="20" width="1" height="1" style="fill:gray"/>
  <rect id="rect6495" x="2" y="12" width="20" height="4" style="fill:url(#linearGradient5648)"/>
  <path id="path6497" d="m4.8824 14c0 0.48731-0.39504 0.88235-0.88235 0.88235-0.48731 0-0.88235-0.39504-0.88235-0.88235 0-0.48731 0.39504-0.88235 0.88235-0.88235 0.48731 0 0.88235 0.39504 0.88235 0.88235z" style="fill:url(#radialGradient5650);stroke-linecap:square;stroke-linejoin:round;stroke-width:.23529;stroke:#828282"/>
  <path id="path6499" d="m6.7 14.5c0 0.27614-0.22386 0.5-0.5 0.5-0.27614 0-0.5-0.22386-0.5-0.5s0.22386-0.5 0.5-0.5c0.27614 0 0.5 0.22386 0.5 0.5z" style="fill:#fafafa"/>
  <path id="path6501" d="m7 14.5c0 0.27614-0.22386 0.5-0.5 0.5-0.27614 0-0.5-0.22386-0.5-0.5s0.22386-0.5 0.5-0.5c0.27614 0 0.5 0.22386 0.5 0.5z" style="fill:#3c3c3c"/>
  <rect id="rect6503" x="8" y="14" width="1" height="1" style="fill:gray"/>
  <rect id="rect6505" x="10" y="14" width="1" height="1" style="fill:gray"/>
  <rect id="rect6507" x="2.4998" y="12.5" width="19" height="3.0003" style="fill:none;opacity:.8;stroke-linecap:square;stroke-width:.99969;stroke:url(#linearGradient5652)"/>
  <path id="path6509" d="m16.2 13c-0.276 0-0.5 0.224-0.5 0.5 0 0.276 0.224 0.5 0.5 0.5 0.276 0 0.5-0.224 0.5-0.5 0-0.276-0.224-0.5-0.5-0.5zm2 0c-0.276 0-0.5 0.224-0.5 0.5 0 0.276 0.224 0.5 0.5 0.5 0.276 0 0.5-0.224 0.5-0.5 0-0.276-0.224-0.5-0.5-0.5zm2 0c-0.276 0-0.5 0.224-0.5 0.5s0.224 0.5 0.5 0.5 0.5-0.224 0.5-0.5-0.224-0.5-0.5-0.5zm-3 1c-0.276 0-0.5 0.224-0.5 0.5s0.224 0.5 0.5 0.5 0.5-0.224 0.5-0.5-0.224-0.5-0.5-0.5zm2 0c-0.276 0-0.5 0.224-0.5 0.5s0.224 0.5 0.5 0.5 0.5-0.224 0.5-0.5-0.224-0.5-0.5-0.5z" style="fill:#fafafa"/>
  <path id="path6511" d="m16.5 13c-0.276 0-0.5 0.224-0.5 0.5 0 0.276 0.224 0.5 0.5 0.5 0.276 0 0.5-0.224 0.5-0.5 0-0.276-0.224-0.5-0.5-0.5zm2 0c-0.276 0-0.5 0.224-0.5 0.5 0 0.276 0.224 0.5 0.5 0.5 0.276 0 0.5-0.224 0.5-0.5 0-0.276-0.224-0.5-0.5-0.5zm2 0c-0.276 0-0.5 0.224-0.5 0.5s0.224 0.5 0.5 0.5 0.5-0.224 0.5-0.5-0.224-0.5-0.5-0.5zm-3 1c-0.276 0-0.5 0.224-0.5 0.5s0.224 0.5 0.5 0.5 0.5-0.224 0.5-0.5-0.224-0.5-0.5-0.5zm2 0c-0.276 0-0.5 0.224-0.5 0.5s0.224 0.5 0.5 0.5 0.5-0.224 0.5-0.5-0.224-0.5-0.5-0.5z" style="fill:#666"/>
  <rect id="rect6513" x="12" y="14" width="1" height="1" style="fill:gray"/>
  <rect id="rect6525" x="2" y="6" width="20" height="4" style="fill:url(#linearGradient5654)"/>
  <path id="path6527" d="m4.8824 8c0 0.48731-0.39504 0.88235-0.88235 0.88235-0.48731 0-0.88235-0.39504-0.88235-0.88235 0-0.48731 0.39504-0.88235 0.88235-0.88235 0.48731 0 0.88235 0.39504 0.88235 0.88235z" style="fill:url(#radialGradient5656);stroke-linecap:square;stroke-linejoin:round;stroke-width:.23529;stroke:#828282"/>
  <path id="path6529" d="m6.7 8.5c0 0.27614-0.22386 0.5-0.5 0.5-0.27614 0-0.5-0.22386-0.5-0.5s0.22386-0.5 0.5-0.5c0.27614 0 0.5 0.22386 0.5 0.5z" style="fill:#fafafa"/>
  <path id="path6531" d="m7 8.5c0 0.27614-0.22386 0.5-0.5 0.5-0.27614 0-0.5-0.22386-0.5-0.5s0.22386-0.5 0.5-0.5c0.27614 0 0.5 0.22386 0.5 0.5z" style="fill:#3c3c3c"/>
  <rect id="rect6537" x="2.4998" y="6.4998" width="19" height="3.0003" style="fill:none;opacity:.8;stroke-linecap:square;stroke-width:.99969;stroke:url(#linearGradient5658)"/>
  <path id="path6539" d="m16.2 7c-0.276 0-0.5 0.224-0.5 0.5 0 0.276 0.224 0.5 0.5 0.5 0.276 0 0.5-0.224 0.5-0.5 0-0.276-0.224-0.5-0.5-0.5zm2 0c-0.276 0-0.5 0.224-0.5 0.5 0 0.276 0.224 0.5 0.5 0.5 0.276 0 0.5-0.224 0.5-0.5 0-0.276-0.224-0.5-0.5-0.5zm2 0c-0.276 0-0.5 0.224-0.5 0.5s0.224 0.5 0.5 0.5 0.5-0.224 0.5-0.5-0.224-0.5-0.5-0.5zm-3 1c-0.276 0-0.5 0.224-0.5 0.5s0.224 0.5 0.5 0.5 0.5-0.224 0.5-0.5-0.224-0.5-0.5-0.5zm2 0c-0.276 0-0.5 0.224-0.5 0.5s0.224 0.5 0.5 0.5 0.5-0.224 0.5-0.5-0.224-0.5-0.5-0.5z" style="fill:#fafafa"/>
  <path id="path6541" d="m16.5 7c-0.276 0-0.5 0.224-0.5 0.5 0 0.276 0.224 0.5 0.5 0.5 0.276 0 0.5-0.224 0.5-0.5 0-0.276-0.224-0.5-0.5-0.5zm2 0c-0.276 0-0.5 0.224-0.5 0.5 0 0.276 0.224 0.5 0.5 0.5 0.276 0 0.5-0.224 0.5-0.5 0-0.276-0.224-0.5-0.5-0.5zm2 0c-0.276 0-0.5 0.224-0.5 0.5s0.224 0.5 0.5 0.5 0.5-0.224 0.5-0.5-0.224-0.5-0.5-0.5zm-3 1c-0.276 0-0.5 0.224-0.5 0.5s0.224 0.5 0.5 0.5 0.5-0.224 0.5-0.5-0.224-0.5-0.5-0.5zm2 0c-0.276 0-0.5 0.224-0.5 0.5s0.224 0.5 0.5 0.5 0.5-0.224 0.5-0.5-0.224-0.5-0.5-0.5z" style="fill:#666"/>
  <rect id="rect6600" x="8" y="8" width="1" height="1" style="fill:gray"/>
  <rect id="rect6602" x="10" y="8" width="1" height="1" style="fill:gray"/>
  <rect id="rect6604" x="12" y="8" width="1" height="1" style="fill:gray"/>
 </g>
</svg>
