<?xml version="1.0" encoding="UTF-8"?>
<!-- Created with Inkscape (http://www.inkscape.org/) -->
<svg id="svg3082" width="48" height="48" version="1.1" xmlns="http://www.w3.org/2000/svg" xmlns:xlink="http://www.w3.org/1999/xlink">
 <defs id="defs3084">
  <linearGradient id="linearGradient5060">
   <stop id="stop5062" offset="0"/>
   <stop id="stop5064" style="stop-opacity:0" offset="1"/>
  </linearGradient>
  <linearGradient id="linearGradient5557" x1="302.86" x2="302.86" y1="366.65" y2="609.51" gradientTransform="matrix(2.7744 0 0 1.9697 -1892.2 -872.89)" gradientUnits="userSpaceOnUse">
   <stop id="stop5050" style="stop-opacity:0" offset="0"/>
   <stop id="stop5056" offset=".5"/>
   <stop id="stop5052" style="stop-opacity:0" offset="1"/>
  </linearGradient>
  <radialGradient id="radialGradient5559" cx="605.71" cy="486.65" r="117.14" gradientTransform="matrix(2.7744 0 0 1.9697 -1891.6 -872.89)" gradientUnits="userSpaceOnUse" xlink:href="#linearGradient5060"/>
  <radialGradient id="radialGradient5561" cx="605.71" cy="486.65" r="117.14" gradientTransform="matrix(-2.7744 0 0 1.9697 112.76 -872.89)" gradientUnits="userSpaceOnUse" xlink:href="#linearGradient5060"/>
  <linearGradient id="linearGradient2884" x1="24" x2="24" y1="13" y2="40" gradientTransform="matrix(1.0526 0 0 1.0741 -1.2632 -.96296)" gradientUnits="userSpaceOnUse">
   <stop id="stop6459" style="stop-color:#fff;stop-opacity:.94118" offset="0"/>
   <stop id="stop6461" style="stop-color:#fff;stop-opacity:.70588" offset="1"/>
  </linearGradient>
  <linearGradient id="linearGradient2887" x1="16.034" x2="15.935" y1="9.0735" y2="38.927" gradientTransform="matrix(1.3226 0 0 1.2414 -9.0645 -5.2931)" gradientUnits="userSpaceOnUse">
   <stop id="stop3317" style="stop-color:#fff" offset="0"/>
   <stop id="stop3319" style="stop-color:#fff;stop-opacity:0" offset="1"/>
  </linearGradient>
  <linearGradient id="linearGradient2890" x1="21.866" x2="21.78" y1="8.5763" y2="39.924" gradientTransform="matrix(1.303 0 0 1.2459 -8.5757 -5.7131)" gradientUnits="userSpaceOnUse">
   <stop id="stop2783" style="stop-color:#505050" offset="0"/>
   <stop id="stop6301" style="stop-color:#6e6e6e" offset=".13216"/>
   <stop id="stop2785" style="stop-color:#8c8c8c" offset="1"/>
  </linearGradient>
  <linearGradient id="linearGradient3805" x1="83.24" x2="83.24" y1="42.457" y2="57.61" gradientTransform="matrix(.40394 0 0 .42567 4.5497 -4.793)" gradientUnits="userSpaceOnUse">
   <stop id="stop3127" style="stop-color:#fff" offset="0"/>
   <stop id="stop3129" style="stop-color:#e1e1e1" offset="1"/>
  </linearGradient>
  <linearGradient id="linearGradient3843" x1="25.498" x2="25.498" y1="44.638" y2=".27637" gradientTransform="translate(5.993 5e-7)" gradientUnits="userSpaceOnUse" xlink:href="#linearGradient3104"/>
  <linearGradient id="linearGradient3104">
   <stop id="stop3106" style="stop-color:#aaa" offset="0"/>
   <stop id="stop3108" style="stop-color:#c8c8c8" offset="1"/>
  </linearGradient>
  <linearGradient id="linearGradient2923" x1="18.386" x2="18.386" y1="44.961" y2=".25938" gradientTransform="translate(-4 -8)" gradientUnits="userSpaceOnUse" xlink:href="#linearGradient3104"/>
  <linearGradient id="linearGradient2925" x1="18.386" x2="18.386" y1="44.961" y2=".25938" gradientTransform="matrix(.75385 0 0 .75385 5 1.4923)" gradientUnits="userSpaceOnUse" xlink:href="#linearGradient3104"/>
  <linearGradient id="linearGradient2927" x1="18.386" x2="18.386" y1="44.961" y2=".25938" gradientTransform="translate(5.993 5e-7)" gradientUnits="userSpaceOnUse" xlink:href="#linearGradient3104"/>
  <linearGradient id="linearGradient2960" x1="18.386" x2="18.386" y1="44.961" y2=".25938" gradientTransform="translate(-4 1)" gradientUnits="userSpaceOnUse" xlink:href="#linearGradient3104"/>
  <linearGradient id="linearGradient3736" x1="18.386" x2="18.386" y1="44.961" y2=".25938" gradientTransform="matrix(.75385 0 0 .75385 5 10.492)" gradientUnits="userSpaceOnUse" xlink:href="#linearGradient3104"/>
 </defs>
 <g id="g5022" transform="matrix(.022655 0 0 .012543 44.15 42.39)" style="opacity:.5873">
  <rect id="rect4173" x="-1559.3" y="-150.7" width="1339.6" height="478.36" style="fill:url(#linearGradient5557);opacity:.40206"/>
  <path id="path5058" d="m-219.62-150.68v478.33c142.87 0.90045 345.4-107.17 345.4-239.2 0-132.03-159.44-239.13-345.4-239.13z" style="fill:url(#radialGradient5559);opacity:.40206"/>
  <path id="path5018" d="m-1559.3-150.68v478.33c-142.87 0.90045-345.4-107.17-345.4-239.2 0-132.03 159.44-239.13 345.4-239.13z" style="fill:url(#radialGradient5561);opacity:.40206"/>
 </g>
 <rect id="rect1887" x="2.5" y="5.5" width="43" height="38" rx="2" ry="2" style="fill:url(#linearGradient2890);stroke:#565853"/>
 <rect id="rect2779" x="3.5" y="6.5" width="41" height="36" rx="1" ry="1" style="fill:none;opacity:.2;stroke:url(#linearGradient2887)"/>
 <rect id="rect6287" x="4" y="13" width="40" height="29" rx="1.0526" ry="1.0741" style="fill:url(#linearGradient2884)"/>
 <path id="path3835" d="m7.5 24.5h6v6h-6v-6z" style="fill-rule:evenodd;fill:#fff;stroke-linecap:round;stroke-linejoin:round;stroke:url(#linearGradient2923)"/>
 <path id="path3833" d="m32.515 27.5c0 1.6645-1.3509 3.0154-3.0154 3.0154-1.6645 0-3.0154-1.3509-3.0154-3.0154s1.3509-3.0154 3.0154-3.0154c1.6645 0 3.0154 1.3509 3.0154 3.0154z" style="fill-rule:evenodd;fill:#fff;stroke-linecap:round;stroke-linejoin:round;stroke-width:.96923;stroke:url(#linearGradient2925)"/>
 <path id="path3831" d="m18.862 14.502h22.276c0.75449 0 1.3619 0.66284 1.3619 1.4862v3.0261c0 0.82335-0.6074 1.4862-1.3619 1.4862h-22.276c-0.75449 0-1.3619-0.66284-1.3619-1.4862v-3.0261c0-0.82335 0.6074-1.4862 1.3619-1.4862z" style="fill-rule:evenodd;fill:#fff;stroke-linecap:round;stroke-linejoin:round;stroke:url(#linearGradient2927)"/>
 <path id="rect2257" d="m31 27.5c0 0.828-0.672 1.5-1.5 1.5-0.828 0-1.5-0.672-1.5-1.5 0-0.828 0.672-1.5 1.5-1.5 0.828 0 1.5 0.672 1.5 1.5z" style="fill-rule:evenodd;fill:#4d4d4d"/>
 <path id="rect3618" d="m34.5 14.5v5.9946h6.2399c0.97615 0 1.7546-0.82033 1.7546-1.849v-2.2833c0-1.0287-0.77845-1.8623-1.7546-1.8623h-6.2399z" style="fill-rule:evenodd;fill:url(#linearGradient3805);stroke-linecap:round;stroke-linejoin:round;stroke:url(#linearGradient3843)"/>
 <path id="path2958" d="m7.5 33.5h6v6h-6v-6z" style="fill-rule:evenodd;fill:#fff;stroke-linecap:round;stroke-linejoin:round;stroke:url(#linearGradient2960)"/>
 <path id="path3734" d="m32.515 36.5c0 1.6645-1.3509 3.0154-3.0154 3.0154-1.6645 0-3.0154-1.3509-3.0154-3.0154s1.3509-3.0154 3.0154-3.0154c1.6645 0 3.0154 1.3509 3.0154 3.0154z" style="fill-rule:evenodd;fill:#fff;stroke-linecap:round;stroke-linejoin:round;stroke-width:.96923;stroke:url(#linearGradient3736)"/>
 <rect id="rect3761" x="9" y="26" width="1" height="1" rx="4.7684e-6" ry="0" style="fill:#4d4d4d"/>
 <rect id="rect3763" x="9" y="28" width="1" height="1" rx="4.7684e-6" ry="0" style="fill:#4d4d4d"/>
 <rect id="rect3765" x="11" y="28" width="1" height="1" rx="4.7684e-6" ry="0" style="fill:#4d4d4d"/>
 <rect id="rect3767" x="11" y="26" width="1" height="1" rx="4.7684e-6" ry="0" style="fill:#4d4d4d"/>
 <rect id="rect3769" x="10" y="27" width="1" height="1" rx="4.7684e-6" ry="0" style="fill:#4d4d4d"/>
 <rect id="rect3771" x="37" y="17" width="1" height="1" rx="4.7684e-6" ry="0" style="fill:#4d4d4d"/>
 <rect id="rect3773" x="39" y="17" width="1" height="1" rx="4.7684e-6" ry="0" style="fill:#4d4d4d"/>
 <rect id="rect3775" x="38" y="18" width="1" height="1" rx="4.7684e-6" ry="0" style="fill:#4d4d4d"/>
</svg>
