<?xml version="1.0" encoding="UTF-8"?>
<!-- Created with Inkscape (http://www.inkscape.org/) -->
<svg id="svg3578" width="48" height="48" version="1.0" xmlns="http://www.w3.org/2000/svg" xmlns:cc="http://creativecommons.org/ns#" xmlns:dc="http://purl.org/dc/elements/1.1/" xmlns:rdf="http://www.w3.org/1999/02/22-rdf-syntax-ns#" xmlns:xlink="http://www.w3.org/1999/xlink">
 <metadata id="metadata43">
  <rdf:RDF>
   <cc:Work rdf:about="">
    <dc:format>image/svg+xml</dc:format>
    <dc:type rdf:resource="http://purl.org/dc/dcmitype/StillImage"/>
    <dc:title/>
   </cc:Work>
  </rdf:RDF>
 </metadata>
 <defs id="defs3580">
  <linearGradient id="linearGradient2877-634-617" x1="25.058" x2="25.058" y1="47.028" y2="39.999" gradientUnits="userSpaceOnUse">
   <stop id="stop2895" style="stop-color:#181818;stop-opacity:0" offset="0"/>
   <stop id="stop2897" style="stop-color:#181818" offset=".5"/>
   <stop id="stop2899" style="stop-color:#181818;stop-opacity:0" offset="1"/>
  </linearGradient>
  <radialGradient id="radialGradient2875-742-326" cx="4.993" cy="43.5" r="2.5" gradientTransform="matrix(2.0038 0 0 1.4 -20.012 -104.4)" gradientUnits="userSpaceOnUse">
   <stop id="stop2889" style="stop-color:#181818" offset="0"/>
   <stop id="stop2891" style="stop-color:#181818;stop-opacity:0" offset="1"/>
  </radialGradient>
  <radialGradient id="radialGradient2873-966-168" cx="4.993" cy="43.5" r="2.5" gradientTransform="matrix(2.0038 0 0 1.4 27.988 -17.4)" gradientUnits="userSpaceOnUse">
   <stop id="stop2883" style="stop-color:#181818" offset="0"/>
   <stop id="stop2885" style="stop-color:#181818;stop-opacity:0" offset="1"/>
  </radialGradient>
  <linearGradient id="linearGradient3008" x1="7" x2="6" y1="4.0326" y2="43.033" gradientTransform="translate(0 .96744)" gradientUnits="userSpaceOnUse">
   <stop id="stop3882" style="stop-color:#c3a67d" offset="0"/>
   <stop id="stop3884" style="stop-color:#a17d4f" offset=".775"/>
   <stop id="stop3888" style="stop-color:#836845" offset="1"/>
  </linearGradient>
  <radialGradient id="radialGradient3006" cx="7.4957" cy="8.4498" r="20" gradientTransform="matrix(-5.554e-6 1.8475 -3.0782 -9.3318e-6 50.01 -7.7982)" gradientUnits="userSpaceOnUse">
   <stop id="stop3892" style="stop-color:#dac197" offset="0"/>
   <stop id="stop3894" style="stop-color:#c1a581" offset=".82028"/>
   <stop id="stop3898" style="stop-color:#a68b60" offset="1"/>
  </radialGradient>
  <linearGradient id="linearGradient3003" x1="24" x2="24" y1="5" y2="43" gradientTransform="translate(0 1)" gradientUnits="userSpaceOnUse">
   <stop id="stop2919" style="stop-color:#fff" offset="0"/>
   <stop id="stop2921" style="stop-color:#fff;stop-opacity:0" offset="1"/>
  </linearGradient>
 </defs>
 <g id="layer1">
  <g id="g2036" transform="matrix(1.1 0 0 .44444 -2.4 25.111)">
   <g id="g3712" transform="matrix(1.0526 0 0 1.2857 -1.2632 -13.429)" style="opacity:.4">
    <rect id="rect2801" x="38" y="40" width="5" height="7" style="fill:url(#radialGradient2873-966-168)"/>
    <rect id="rect3696" transform="scale(-1)" x="-10" y="-47" width="5" height="7" style="fill:url(#radialGradient2875-742-326)"/>
    <rect id="rect3700" x="10" y="40" width="28" height="7" style="fill:url(#linearGradient2877-634-617)"/>
   </g>
  </g>
  <rect id="rect5505" x="4.5" y="5.4674" width="39" height="39" rx="2.2322" ry="2.2322" style="fill:url(#radialGradient3006);stroke-linecap:round;stroke-linejoin:round;stroke:url(#linearGradient3008)"/>
  <rect id="rect6741" x="5.5" y="6.5" width="37" height="37" rx="1.3652" ry="1.3652" style="fill:none;opacity:.4;stroke-linecap:round;stroke-linejoin:round;stroke:url(#linearGradient3003)"/>
  <path id="rect4691" d="m20.126 33h-7.0103l6e-6 5h7.0103zm7.9815-24.94h-8.0186l-6e-3 5h8.0186zm13.953-0.11954h-7l-6e-3 5h7zm-7.006 5.0131h-6.9532l-5.39e-4 5.0467h6.9532zm-22.067-5.0131h-6.9812l-6e-3 5h6.9812zm29.067 5.0131-5.38e-4 5.0467zm-5.36e-4 5.0467h-7v5h7zm-7 5h-6.9532v5h6.9532zm-6.9532-5h-8.0186v5h8.0186zm-8.0181-5.0467h-7.0103l-5.38e-4 5.0467h7.0103zm-7.0108 5.0467h-6.9813v5h6.9813zm7.0103 5h-7.0103v5h7.0103zm-7.0103 5h-6.9813v5h6.9813zm28.982-5v5zm2e-6 5h-7v5h7zm-2e-6 5 6e-6 5zm8e-6 5h-7l-0.01798 5h7zm-7-5h-6.9532l7e-6 5h6.9532zm-6.9532-5h-8.0186v5h8.0186zm-0.09354 10h-8.0186l-0.01798 5h8.0186zm-14.935 0h-6.9813l-0.017976 5h6.9813z" style="fill-rule:evenodd;fill:#1f1911;opacity:.09"/>
  <path id="path4060" d="m35.875 11c-0.41128 0.03437-0.82394 0.24144-1.1562 0.5625l-7.4375 6.4688c-0.32088 0.31017-0.5 0.74632-0.5 1.1875 0 0.21047 0.04813 0.40405 0.125 0.59375 0.0037 0.0091-0.0039 0.0222 0 0.03125-0.27492 0.58864-0.1875 1.4114-0.1875 3.1875 0 0.65452-1.7019 1.3438-2.125 1.3438-0.02097-2.49e-4 -0.04138 0-0.0625 0-1.3533 0-5.7403 0.20064-7.0938 2.0625-1.3535 1.8619-6.4375 10.321-6.4375 11.562 2.0301 1e-6 16.775-7.3688 17.531-8.0625 0.91501-0.83927 0.46633-2.5291-0.125-3.6562 4e-3 -0.0052-0.0025-0.02498 0-0.03125 0.01645-0.04074 0.02128-0.0994-0.03125-0.1875-0.31693-0.53162-0.5-1.0677-0.5-1.8125 0-1.6559 0.17381-2.5696 0.53125-3.0938 0.79838 0.13783 1.9543-0.25277 2.4688-0.75l6.5312-6.2188c0.66462-0.64238 0.82116-1.6076 0.15625-2.25l-0.53125-0.53125c-0.33217-0.32094-0.74497-0.44062-1.1562-0.40625z" style="enable-background:new;opacity:.5"/>
  <path id="path5577" d="m35.875 13c-0.41128 0.03437-0.82394 0.24144-1.1562 0.5625l-7.4375 6.4688c-0.32088 0.31017-0.5 0.74632-0.5 1.1875 0 0.21047 0.04813 0.40405 0.125 0.59375 0.0037 0.0091-0.0039 0.0222 0 0.03125-0.27492 0.58864-0.1875 1.4114-0.1875 3.1875 0 0.65452-1.1394 0.90625-1.5625 0.90625-0.02097-2.49e-4 -0.04138 0-0.0625 0-1.3533 0-5.7403 0.20064-7.0938 2.0625-1.3535 1.8619-7 10.759-7 12 2.0301 1e-6 16.775-7.3688 17.531-8.0625 0.91501-0.83927 0.46633-2.5291-0.125-3.6562 4e-3 -0.0052-0.0025-0.02498 0-0.03125 0.01645-0.04074 0.02128-0.0994-0.03125-0.1875-0.31693-0.53162-0.5-1.0677-0.5-1.8125 0-1.6559 0.17381-2.5696 0.53125-3.0938 0.79838 0.13783 1.9543-0.25277 2.4688-0.75l6.5312-6.2188c0.66462-0.64238 0.82116-1.6076 0.15625-2.25l-0.53125-0.53125c-0.33217-0.32094-0.74497-0.44062-1.1562-0.40625z" style="enable-background:new;fill:#fff;opacity:.5"/>
  <path id="path4062" d="m35.875 12c-0.41128 0.03437-0.82394 0.24144-1.1562 0.5625l-7.4375 6.4688c-0.32088 0.31017-0.5 0.74632-0.5 1.1875 0 0.21047 0.04813 0.40405 0.125 0.59375 0.0037 0.0091-0.0039 0.0222 0 0.03125-0.27492 0.58864-0.1875 1.4114-0.1875 3.1875 0 0.65452-1.7019 1.3438-2.125 1.3438-0.02097-2.49e-4 -0.04138 0-0.0625 0-1.3533 0-5.7403 0.20064-7.0938 2.0625-1.3535 1.8619-6.4375 10.321-6.4375 11.562 2.0301 1e-6 16.775-7.3688 17.531-8.0625 0.91501-0.83927 0.46633-2.5291-0.125-3.6562 4e-3 -0.0052-0.0025-0.02498 0-0.03125 0.01645-0.04074 0.02128-0.0994-0.03125-0.1875-0.31693-0.53162-0.5-1.0677-0.5-1.8125 0-1.6559 0.17381-2.5696 0.53125-3.0938 0.79838 0.13783 1.9543-0.25277 2.4688-0.75l6.5312-6.2188c0.66462-0.64238 0.82116-1.6076 0.15625-2.25l-0.53125-0.53125c-0.33217-0.32094-0.74497-0.44062-1.1562-0.40625z" style="enable-background:new;fill:#1f1911;opacity:.5"/>
 </g>
</svg>
