<?xml version="1.0" encoding="UTF-8"?>
<!-- Created with Inkscape (http://www.inkscape.org/) -->
<svg id="svg4158" width="48" height="48" version="1.0" xmlns="http://www.w3.org/2000/svg" xmlns:xlink="http://www.w3.org/1999/xlink">
 <defs id="defs4160">
  <linearGradient id="linearGradient2960" x1="324.5" x2="330.06" y1="70.282" y2="99.274" gradientTransform="matrix(1.363 0 0 1.3617 -402.9 -65.884)" gradientUnits="userSpaceOnUse">
   <stop id="stop7446" style="stop-color:#888a85" offset="0"/>
   <stop id="stop7448" style="stop-color:#555753" offset="1"/>
  </linearGradient>
  <linearGradient id="linearGradient2958" x1="304.76" x2="335.3" y1="64.295" y2="81.926" gradientTransform="matrix(1.363 0 0 1.3617 -402.9 -65.884)" gradientUnits="userSpaceOnUse">
   <stop id="stop4436" style="stop-color:#d3d7cf" offset="0"/>
   <stop id="stop4438" style="stop-color:#babdb6" offset=".18304"/>
   <stop id="stop4440" style="stop-color:#fff" offset=".31893"/>
   <stop id="stop4442" style="stop-color:#babdb6" offset=".87644"/>
   <stop id="stop4444" style="stop-color:#eeeeec" offset="1"/>
  </linearGradient>
  <linearGradient id="linearGradient4734" x1="302.29" x2="308.65" y1="58.443" y2="60.768" gradientTransform="matrix(1.363 0 0 1.3617 -402.9 -65.884)" gradientUnits="userSpaceOnUse">
   <stop id="stop7383" style="stop-color:#babdb6" offset="0"/>
   <stop id="stop7385" style="stop-color:#fff" offset="1"/>
  </linearGradient>
  <linearGradient id="linearGradient4758" x1="326.6" x2="317.16" y1="75.575" y2="88.006" gradientTransform="matrix(1.363 0 0 1.3617 -402.9 -65.884)" gradientUnits="userSpaceOnUse">
   <stop id="stop7423" style="stop-color:#fff" offset="0"/>
   <stop id="stop7425" style="stop-color:#fff;stop-opacity:0" offset="1"/>
  </linearGradient>
  <radialGradient id="radialGradient2915" cx="21.96" cy="34.498" r="12.728" gradientTransform="matrix(.5406 0 0 .16183 29.247 40.449)" gradientUnits="userSpaceOnUse" xlink:href="#linearGradient6221"/>
  <radialGradient id="radialGradient2912" cx="21.96" cy="34.498" r="12.728" gradientTransform="matrix(.23695 0 0 .090597 36.781 43.759)" gradientUnits="userSpaceOnUse" xlink:href="#linearGradient6221"/>
  <linearGradient id="linearGradient4972" x1="29.278" x2="36.001" y1="34.023" y2="27.273" gradientTransform="translate(.91859 2.0745)" gradientUnits="userSpaceOnUse">
   <stop id="stop2492" style="stop-color:#791235" offset="0"/>
   <stop id="stop2494" style="stop-color:#dd3b27" offset="1"/>
  </linearGradient>
  <linearGradient id="linearGradient4668" x1="97.442" x2="90.221" y1="35.152" y2="35.079" gradientTransform="matrix(.82274 -.82219 .71961 .71912 -71.184 83.621)" gradientUnits="userSpaceOnUse">
   <stop id="stop4958" style="stop-color:#f8b17e" offset="0"/>
   <stop id="stop4960" style="stop-color:#e35d4f" offset=".26238"/>
   <stop id="stop4962" style="stop-color:#c6262e" offset=".66347"/>
   <stop id="stop4964" style="stop-color:#690b54" offset="1"/>
  </linearGradient>
  <linearGradient id="linearGradient6221">
   <stop id="stop6223" offset="0"/>
   <stop id="stop6225" style="stop-opacity:0" offset="1"/>
  </linearGradient>
  <linearGradient id="linearGradient4665" x1="-6.3078" x2="-9.7747" y1="44.229" y2="44.14" gradientTransform="matrix(.50045 -.49965 .84917 .84785 .80738 -6.9351)" gradientUnits="userSpaceOnUse" xlink:href="#linearGradient6221"/>
  <linearGradient id="linearGradient2788" x1="302.86" x2="302.86" y1="366.65" y2="609.51" gradientTransform="matrix(.065534 0 0 .024706 .31399 31.942)" gradientUnits="userSpaceOnUse">
   <stop id="stop5050-5" style="stop-opacity:0" offset="0"/>
   <stop id="stop5056-9" offset=".5"/>
   <stop id="stop5052-6" style="stop-opacity:0" offset="1"/>
  </linearGradient>
  <radialGradient id="radialGradient2785" cx="605.71" cy="486.65" r="117.14" gradientTransform="matrix(.065534 0 0 .024706 .32688 31.942)" gradientUnits="userSpaceOnUse" xlink:href="#linearGradient6221"/>
  <radialGradient id="radialGradient2782" cx="605.71" cy="486.65" r="117.14" gradientTransform="matrix(-.065534 0 0 .024706 47.673 31.942)" gradientUnits="userSpaceOnUse" xlink:href="#linearGradient6221"/>
  <linearGradient id="linearGradient2857" x1="10.014" x2="10.014" y1="44.96" y2="2.8765" gradientTransform="matrix(.95745 0 0 .90347 1.0212 4.3056)" gradientUnits="userSpaceOnUse">
   <stop id="stop2759" style="stop-color:#650d5c" offset="0"/>
   <stop id="stop2761" style="stop-color:#ad53a5" offset="1"/>
  </linearGradient>
  <radialGradient id="radialGradient3966" cx="26.617" cy="-2.0645" r="23" gradientTransform="matrix(-1.8188e-8 -1.0657 1.3967 0 35.965 58.559)" gradientUnits="userSpaceOnUse">
   <stop id="stop2749" style="stop-color:#d78ec1" offset="0"/>
   <stop id="stop2751" style="stop-color:#c564be" offset=".26238"/>
   <stop id="stop2753" style="stop-color:#9d3ea4" offset=".66094"/>
   <stop id="stop2755" style="stop-color:#5e2c73" offset="1"/>
  </radialGradient>
  <linearGradient id="linearGradient2849" x1="16.626" x2="20.055" y1="15.298" y2="24.628" gradientTransform="matrix(.95782 0 0 1.0183 1.0122 1.9221)" gradientUnits="userSpaceOnUse">
   <stop id="stop2687" style="stop-color:#fff" offset="0"/>
   <stop id="stop2689" style="stop-color:#fff;stop-opacity:0" offset="1"/>
  </linearGradient>
  <linearGradient id="linearGradient3639" x1="24.683" x2="24.683" y1="9.2417" y2="13.523" gradientTransform="matrix(.95631 0 0 .46801 1.055 9.6748)" gradientUnits="userSpaceOnUse">
   <stop id="stop3284" offset="0"/>
   <stop id="stop3286" style="stop-opacity:0" offset="1"/>
  </linearGradient>
  <linearGradient id="linearGradient3964" x1="16.916" x2="16.916" y1="7.0006" y2="14" gradientUnits="userSpaceOnUse">
   <stop id="stop3960" style="stop-color:#aeae94" offset="0"/>
   <stop id="stop3962" style="stop-color:#626337" offset="1"/>
  </linearGradient>
  <linearGradient id="linearGradient3636-65" x1="33.579" x2="33.579" y1="5.7086" y2="16.323" gradientTransform="matrix(.81484 0 0 .65962 -2.2595 3.234)" gradientUnits="userSpaceOnUse">
   <stop id="stop3793" style="stop-color:#fdfdf8" offset="0"/>
   <stop id="stop3795" style="stop-color:#d6d3b4" offset="1"/>
  </linearGradient>
  <linearGradient id="linearGradient2852" x1="12.579" x2="12.579" y1="-7.8074" y2="41.827" gradientTransform="matrix(.95464 0 0 .89653 1.0875 5.3852)" gradientUnits="userSpaceOnUse">
   <stop id="stop2240" style="stop-color:#fff" offset="0"/>
   <stop id="stop2242" style="stop-color:#fff;stop-opacity:0" offset="1"/>
  </linearGradient>
 </defs>
 <g id="layer1">
  <rect id="rect2512" x="8.1781" y="41" width="31.644" height="6" style="fill:url(#linearGradient2788);opacity:.40206"/>
  <path id="path2514" d="m39.822 41v5.9997c3.3749 0.01129 8.1588-1.3442 8.1588-3.0002 0-1.656-3.7661-2.9994-8.1588-2.9994z" style="fill:url(#radialGradient2785);opacity:.40206"/>
  <path id="path2516" d="m8.1781 41v5.9997c-3.3749 0.01129-8.1588-1.3442-8.1588-3.0002 0-1.656 3.7661-2.9994 8.1588-2.9994z" style="fill:url(#radialGradient2782);opacity:.40206"/>
  <rect id="rect2573" x="1.5011" y="7.5011" width="44.998" height="36.998" rx="2.666" ry="2.666" style="fill-rule:evenodd;fill:url(#radialGradient3966);stroke-linecap:round;stroke-linejoin:round;stroke-width:1.0021;stroke:url(#linearGradient2857)"/>
  <path id="path2603" d="m4.0952 8c-1.1573 0-2.0952 0.99713-2.0952 2.2275v16.293c0.002654 0.13706 0.059191 0.26668 0.15588 0.35738s0.2247 0.1342 0.35296 0.11994l43.102-7.2553c0.22172-0.037174 0.38602-0.23872 0.38912-0.47732v-9.0373c0-1.2304-0.93792-2.2275-2.0952-2.2275h-39.81z" style="fill-rule:evenodd;fill:url(#linearGradient2849);opacity:.2"/>
  <rect id="rect1436" x="2" y="14" width="44" height="2" rx="0" ry="0" style="fill-rule:evenodd;fill:url(#linearGradient3639);opacity:.2"/>
  <path id="rect2311" d="m4.5 7.5006s39.336 0.0085884 39.336 0.0085884c1.5649 0 2.6638 1.2612 2.6638 2.6568v3.334h-45l-1e-7 -3.334c0-1.4875 1.2088-2.6654 3-2.6654z" style="fill-rule:evenodd;fill:url(#linearGradient3636-65);stroke:url(#linearGradient3964)"/>
  <rect id="rect2601" x="2.5019" y="8.5019" width="42.996" height="34.996" rx="1.696" ry="1.696" style="fill:none;opacity:.4;stroke-linecap:round;stroke-linejoin:round;stroke-width:1.0037;stroke:url(#linearGradient2852)"/>
 </g>
 <rect id="rect7303" x="6" y="28" width="14" height="11" rx="1" ry="1" style="fill:#fff;opacity:.9"/>
 <rect id="rect7305" x="7" y="29" width="12" height="1" style="opacity:.3"/>
 <rect id="rect7303-8" x="24" y="17" width="18" height="16" rx="1" ry="1" style="fill:#fff;opacity:.9"/>
 <rect id="rect7305-5" x="25" y="18" width="16" height="1" style="opacity:.3"/>
 <path id="path6912" d="m13.075 4.512c-0.16383-0.0082-0.32804 0.05813-0.4375 0.1875-0.14596 0.17246-0.14574 0.42832-0.03125 0.625l3.0625 5.4688c0.275 0.49158 0.13073 1.1346-0.3125 1.7812-0.44742 0.65277-1.2037 1.2938-2.1562 1.8125-0.9527 0.51876-1.8911 0.81686-2.6875 0.84375-0.79166 0.02683-1.4118-0.19462-1.6875-0.6875l-3.0938-5.5312c-0.08587-0.15303-0.23147-0.22968-0.40625-0.25-0.17477-0.02029-0.35216 0.02675-0.46875 0.15625-0.06297 0.06727-0.10346 0.1605-0.125 0.25-0.59308 2.5534-0.31243 5.489 0.8125 7.5 1.5363 2.7463 4.7419 4.0543 7.875 3.5 1.2803 0.4303 3.4561 1.1778 5.469 3.1752l4.15-4.419c-1.8145-1.8006-2.6625-3.4436-3.1502-4.6625 0.42316-1.685 0.23421-3.4706-0.65625-5.0625-1.1245-2.0101-3.4682-3.7895-5.9688-4.6562-0.05364-0.01961-0.13289-0.02853-0.1875-0.03125v0z" style="enable-background:new;fill-rule:evenodd;fill:url(#linearGradient2958);stroke-dashoffset:.3612;stroke-linecap:round;stroke-linejoin:round;stroke:url(#linearGradient2960)"/>
 <path id="path7379" d="m13.078 5.0093c0.02549 0.0095 0.0095 0.04248 0 0.04262l3.0668 5.4893c0.41372 0.73951 0.11531 1.6129-0.38335 2.3404-0.50362 0.73476-1.284 1.4467-2.3001 2-1.0183 0.55451-2.0864 0.82082-2.9816 0.85106-0.89324 0.03023-1.7317-0.22456-2.1297-0.93616l-3.0668-5.5319c-0.01758-0.0027-0.04553 0.0027-0.04266 0 0.02808-0.02996 0.0054 0.02179 0 0.04262-0.56554 2.4349-0.27222 5.2491 0.7667 7.1063 1.4211 2.5405 4.3881 3.7538 7.3262 3.234 2.9243-0.52292 5.4248-3.0681 6.0484-5.4893 0.39379-1.5681 0.22603-3.2533-0.59632-4.7234-1.0361-1.8521-3.3154-3.5963-5.7076-4.4255l6.9e-5 -1.36e-4 -2e-6 2e-6z" style="enable-background:new;fill-rule:evenodd;fill:url(#linearGradient4734)"/>
 <path id="path4756" d="m14.606 6.5433 2.0625 3.6875c0.58141 1.0392 0.15947 2.1746-0.40625 3-0.57157 0.83389-1.407 1.561-2.5 2.1563-1.0976 0.5977-2.2353 0.93447-3.25 0.96875-1.016 0.03434-2.1416-0.27398-2.6875-1.25l-2.125-3.8438c-0.09078 1.7949 0.11702 3.6005 0.8125 4.8438 1.2819 2.2916 3.9852 3.4156 6.6875 2.9375 0.19783-0.03904 0.40347-0.0042 0.59375 0.0625 1.4647 0.49226 3.2934 1.4971 5.4062 3.5938l1 1 3.0938-3.0938-0.96875-0.96875c-1.9049-1.8903-2.9485-3.5592-3.5-4.9375-0.08314-0.21553-0.08686-0.43207-0.03125-0.65625 0.3583-1.4268 0.20876-2.9896-0.53125-4.3125-0.67634-1.209-2.101-2.3128-3.6562-3.1875z" style="enable-background:new;fill:none;stroke-dashoffset:.3612;stroke-linecap:round;stroke-width:.7;stroke:url(#linearGradient4758)"/>
 <path id="rect7166" d="m19.044 18.356c-0.1369 0.01172-0.25777 0.0391-0.34375 0.125l-0.625 0.65625c-0.34391 0.34358-0.09326 1.1887 0.59375 1.875l2.125 2.0938 1.875-1.9062-2.0938-2.0938c-0.51526-0.51476-1.1205-0.78517-1.5312-0.75z" style="enable-background:new;fill-rule:evenodd;opacity:.08"/>
 <path id="path6765" d="m48 46c0 1.1176-3.134 2.0236-7 2.0236s-7-0.90598-7-2.0236 3.134-2.0236 7-2.0236 7 0.90598 7 2.0236z" style="fill:url(#radialGradient2915);opacity:.51"/>
 <path id="path6773" d="m45 46.867c0 0.62566-1.3737 1.1329-3.0682 1.1329-1.6945 0-3.0682-0.5072-3.0682-1.1329s1.3737-1.1329 3.0682-1.1329c1.6945 0 3.0682 0.5072 3.0682 1.1329z" style="fill:url(#radialGradient2912);opacity:.3"/>
 <path id="path6899" d="m18.446 22.939 21.27 22.696c1.3953 1.3944 3.7842 1.2118 5.3795-0.38238 1.5953-1.5942 1.778-3.9815 0.38264-5.3759l-22.711-21.256-4.3216 4.3187 2e-5 2e-5zm22.328 17.995c0.79307-0.79253 2.088-0.79253 2.8811 0 0.79306 0.79253 0.79306 2.0866 1e-6 2.8791-0.79307 0.79252-2.088 0.79253-2.8811 0-0.79306-0.79253-0.79306-2.0866 0-2.8791v0z" style="enable-background:new;fill:url(#linearGradient4668);stroke-dashoffset:.7;stroke-linecap:round;stroke-linejoin:round;stroke-width:.99963;stroke:url(#linearGradient4972)"/>
 <path id="rect6533" d="m22.384 22.603c0.5545-0.55361 1.5695-0.43158 2.2758 0.2736l14.692 13.334c0.70628 0.70519 0.16052 2.3863-0.39398 2.9399-0.5545 0.55362-2.2378 1.0996-2.9441 0.39444l-13.355-14.67c-0.70628-0.70519-0.82848-1.7186-0.27398-2.2722z" style="fill:url(#linearGradient4665);opacity:.23106"/>
</svg>
