<?xml version="1.0" encoding="UTF-8" standalone="no"?>
<!-- Created with Inkscape (http://www.inkscape.org/) -->

<svg
   xmlns:dc="http://purl.org/dc/elements/1.1/"
   xmlns:cc="http://creativecommons.org/ns#"
   xmlns:rdf="http://www.w3.org/1999/02/22-rdf-syntax-ns#"
   xmlns:svg="http://www.w3.org/2000/svg"
   xmlns="http://www.w3.org/2000/svg"
   xmlns:xlink="http://www.w3.org/1999/xlink"
   xmlns:sodipodi="http://sodipodi.sourceforge.net/DTD/sodipodi-0.dtd"
   xmlns:inkscape="http://www.inkscape.org/namespaces/inkscape"
   id="svg7384"
   height="16"
   width="16"
   version="1.1"
   inkscape:version="0.48.2 r9819"
   sodipodi:docname="emblem-shared-symbolic.svg">
  <defs
     id="defs11">
    <linearGradient
       inkscape:collect="always"
       xlink:href="#linearGradient11690-2-0-2-5-7-3-8"
       id="linearGradient5473"
       gradientUnits="userSpaceOnUse"
       gradientTransform="matrix(1.025376,0,0.04720704,1.025376,3248.6404,1147.9482)"
       x1="-3260.9219"
       y1="158.965"
       x2="-3274.5186"
       y2="454.29477" />
    <linearGradient
       id="linearGradient11690-2-0-2-5-7-3-8">
      <stop
         style="stop-color:#a65682;stop-opacity:1;"
         offset="0"
         id="stop11692-8-1-6-8-9-7-5" />
      <stop
         style="stop-color:#42182f;stop-opacity:1"
         offset="1"
         id="stop11694-4-0-8-7-6-6-2" />
    </linearGradient>
    <linearGradient
       y2="454.29477"
       x2="-3274.5186"
       y1="158.965"
       x1="-3260.9219"
       gradientTransform="matrix(1.025376,0,0.04720704,1.025376,3530.3487,-158.66721)"
       gradientUnits="userSpaceOnUse"
       id="linearGradient3410"
       xlink:href="#linearGradient11690-2-0-2-5-7-3-8"
       inkscape:collect="always" />
  </defs>
  <sodipodi:namedview
     pagecolor="#ffffff"
     bordercolor="#666666"
     borderopacity="1"
     objecttolerance="10"
     gridtolerance="10"
     guidetolerance="10"
     inkscape:pageopacity="0"
     inkscape:pageshadow="2"
     inkscape:window-width="1680"
     inkscape:window-height="988"
     id="namedview9"
     showgrid="false"
     inkscape:zoom="14.75"
     inkscape:cx="17.295458"
     inkscape:cy="13.434718"
     inkscape:window-x="-2"
     inkscape:window-y="39"
     inkscape:window-maximized="1"
     inkscape:current-layer="svg7384" />
  <metadata
     id="metadata90">
    <rdf:RDF>
      <cc:Work
         rdf:about="">
        <dc:format>image/svg+xml</dc:format>
        <dc:type
           rdf:resource="http://purl.org/dc/dcmitype/StillImage" />
        <dc:title>Gnome Symbolic Icon Theme</dc:title>
      </cc:Work>
    </rdf:RDF>
  </metadata>
  <title
     id="title9167">Gnome Symbolic Icon Theme</title>
  <path
     inkscape:connector-curvature="0"
     id="path5297-8-5"
     d="m 12.135879,0.41899794 c -0.420084,0.0118 -0.826989,0.223923 -1.069337,0.60532196 -0.387755,0.610249 -0.207394,1.419799 0.402843,1.807556 0.610248,0.387752 1.41981,0.207394 1.807554,-0.402845 0.387762,-0.610248 0.207398,-1.419799 -0.402846,-1.80755596 -0.22884,-0.145409 -0.486158,-0.209566 -0.738214,-0.202477 z m -4.1466051,0.280521 c -0.292212,0 -0.579815,0.01938 -0.862651,0.05906 -0.565663,0.07931 -1.105217,0.236117 -1.596632,0.44924796 -0.562886,0.24445 -1.058615,0.562181 -1.476417,0.913261 -0.417767,0.351101 -0.75897,0.734489 -1.025049,1.113636 -0.272693,0.388636 -0.46733,0.771165 -0.607437,1.117866 -0.140149,0.346672 -0.226643,0.657422 -0.280523,0.913262 -0.05387,0.255841 -0.07649,0.457903 -0.08859,0.594781 -0.01206,0.136893 -0.01265,0.208806 -0.01265,0.208806 0,0 0.02173,-0.07145 0.0696,-0.200363 0.04782,-0.12893 0.123018,-0.314646 0.234115,-0.539951 0.111101,-0.225295 0.257741,-0.489529 0.453468,-0.767734 0.195754,-0.2782 0.439062,-0.570762 0.73188,-0.847881 0.303582,-0.287685 0.663641,-0.558568 1.065124,-0.78883 0.401522,-0.230247 0.845709,-0.419078 1.307683,-0.544162 0.43984,-0.11948 0.897387,-0.181993 1.34986,-0.189823 0.4525,-0.0078 0.898919,0.03902 1.314015,0.132875 0.369151,0.08311 0.716859,0.203607 1.033489,0.343798 0.316637,0.140181 0.6023691,0.299938 0.8520981,0.464009 0.157194,0.103283 0.318362,0.219396 0.47878,0.350123 0.271684,0.220156 0.5426,0.486537 0.793044,0.795159 0.250476,0.308607 0.47906,0.658661 0.670721,1.039813 0.176386,0.352897 0.320548,0.733984 0.421836,1.12418 0.101252,0.390216 0.159542,0.790074 0.170838,1.185356 0.01374,0.430517 -0.0279,0.857908 -0.111781,1.261271 -0.08388,0.403388 -0.209423,0.782249 -0.356453,1.1220731 -0.145543,0.334892 -0.31193,0.632203 -0.47878,0.885852 -0.166881,0.253678 -0.334648,0.464123 -0.480889,0.630638 -0.146259,0.16652 -0.271004,0.290755 -0.358566,0.373322 -0.08754,0.0826 -0.137086,0.124442 -0.137086,0.124442 0,0 0.05798,-0.02577 0.164508,-0.08226 0.106537,-0.05645 0.263044,-0.144689 0.453467,-0.274187 0.190469,-0.129532 0.415153,-0.302313 0.655958,-0.5294 0.240803,-0.227097 0.496771,-0.508137 0.740314,-0.852102 0.234273,-0.3308001 0.456559,-0.7187941 0.639075,-1.1621521 0.182513,-0.443313 0.32501,-0.942929 0.39441,-1.482736 0.05881,-0.463639 0.06431,-0.952896 0.0063,-1.451104 -0.05797,-0.498213 -0.178647,-1.005609 -0.364875,-1.497507 -0.176828,-0.469347 -0.414209,-0.925329 -0.706568,-1.349862 -0.02373,-0.03446 -0.04725,-0.06932 -0.07171,-0.103346 -0.527193,0.27667 -1.185839,0.27472 -1.721082,-0.06539 -0.657024,-0.417488 -0.93257,-1.216221 -0.723438,-1.929885 -0.114189,-0.05122 -0.230782,-0.09908 -0.34802,-0.143425 C 9.7578109,0.94035994 9.3159269,0.82694694 8.8708679,0.76278594 c -0.294367,-0.0422 -0.589443,-0.06337 -0.881623,-0.06327 z M 7.7403849,2.9141309 c -0.223081,-8.76e-4 -0.45441,0.01271 -0.693908,0.04007 -0.478994,0.05473 -0.986682,0.17128 -1.495393,0.373322 -0.436543,0.174246 -0.870695,0.409993 -1.280264,0.704466 -0.409569,0.294458 -0.793966,0.647849 -1.134731,1.052466 -0.325581,0.385244 -0.610444,0.817237 -0.839445,1.282372 -0.02902,0.05897 -0.05711,0.1172 -0.08436,0.177169 0.0049,0.0031 0.0099,0.0054 0.01476,0.0084 0.794944,0.505134 1.034534,1.571518 0.529401,2.366479 -0.248744,0.39147 -0.633068,0.647656 -1.054585,0.746643 0.0109,0.107188 0.02366,0.213955 0.04007,0.320594 0.06909,0.4490361 0.187938,0.8908931 0.352232,1.3118961 0.218025,0.557526 0.513903,1.073725 0.864754,1.529139 0.350842,0.455429 0.755918,0.849589 1.187455,1.172692 0.494608,0.369954 1.019813,0.64425 1.535471,0.833129 0.515672,0.188875 1.020591,0.293742 1.484847,0.335361 0.475807,0.04257 0.907709,0.01871 1.28027,-0.03375 0.372565,-0.05249 0.686584,-0.132983 0.936464,-0.215145 0.24988,-0.08213 0.435838,-0.16497 0.561039,-0.223562 0.1252051,-0.05862 0.1898241,-0.0928 0.1898241,-0.0928 0,0 -0.07248,0.01638 -0.2088061,0.04007 -0.136315,0.02369 -0.336279,0.0523 -0.588454,0.06961 -0.25218,0.01727 -0.557563,0.02157 -0.89851,-0.0084 -0.34094,-0.03002 -0.718544,-0.09313 -1.107298,-0.20881 -0.403439,-0.119728 -0.821125,-0.296793 -1.223316,-0.531509 -0.402227,-0.23472 -0.788345,-0.528096 -1.128405,-0.868977 -0.324141,-0.324366 -0.607268,-0.692425 -0.839449,-1.084107 -0.232173,-0.391682 -0.411906,-0.805073 -0.535727,-1.214878 -0.110281,-0.363735 -0.17913,-0.72735 -0.213022,-1.0735671 -0.03393,-0.346208 -0.03309,-0.674938 -0.01265,-0.974427 0.01297,-0.189749 0.03587,-0.390641 0.07171,-0.596894 0.05923,-0.346588 0.157912,-0.714972 0.305832,-1.08622 0.147909,-0.371243 0.343281,-0.744041 0.584231,-1.098874 0.223684,-0.327669 0.486802,-0.640122 0.780395,-0.919591 0.293575,-0.279469 0.617411,-0.527569 0.959669,-0.729773 0.37212,-0.221544 0.770379,-0.390804 1.16637,-0.512521 0.395966,-0.121746 0.789332,-0.195125 1.160029,-0.229901 0.365642,-0.03367 0.710203,-0.0311 1.014513,-0.0063 0.304311,0.02476 0.569293,0.07137 0.7867181,0.120221 0.217408,0.04886 0.386966,0.101634 0.501972,0.139209 0.115044,0.03757 0.175061,0.05905 0.175061,0.05905 0,0 -0.05066,-0.03661 -0.151852,-0.103351 -0.101189,-0.0667 -0.251541,-0.162477 -0.457684,-0.267858 -0.206181,-0.10539 -0.4679741,-0.220304 -0.7846151,-0.322707 -0.316662,-0.102403 -0.688318,-0.192637 -1.109418,-0.240437 -0.202484,-0.02302 -0.418069,-0.03705 -0.641193,-0.03797 z m 5.7390381,0.411288 c 0,0 0.05189,0.05567 0.141306,0.162402 0.08944,0.106763 0.216359,0.26573 0.358566,0.476678 0.142175,0.210919 0.299579,0.47452 0.445038,0.786717 0.145453,0.312201 0.278922,0.672272 0.373318,1.069345 0.09821,0.411944 0.153051,0.86646 0.149746,1.335095 -0.0035,0.468635 -0.06623,0.9522 -0.194037,1.419463 -0.121391,0.445358 -0.302652,0.877864 -0.529397,1.276048 -0.226762,0.3981891 -0.498267,0.7616521 -0.795157,1.0735671 -0.261758,0.275534 -0.544598,0.512367 -0.82891,0.712889 -0.284287,0.200541 -0.570856,0.363269 -0.841555,0.493547 -0.175945,0.08466 -0.364489,0.166205 -0.567359,0.238334 -0.332468,0.119249 -0.705548,0.212365 -1.103095,0.265754 -0.3975411,0.0534 -0.8198951,0.06797 -1.2486191,0.03164 -0.396835,-0.03459 -0.798662,-0.112252 -1.187461,-0.231999 -0.388817,-0.119767 -0.764574,-0.282476 -1.109422,-0.483002 -0.376536,-0.217253 -0.720266,-0.48041 -1.02083,-0.767734 -0.300536,-0.287329 -0.55807,-0.599091 -0.769845,-0.906943 -0.208368,-0.3040261 -0.372894,-0.6048331 -0.499869,-0.8837391 -0.127002,-0.278896 -0.217228,-0.534263 -0.280526,-0.748751 -0.06329,-0.214493 -0.09917,-0.389095 -0.122327,-0.508309 -0.02317,-0.119189 -0.03375,-0.183494 -0.03375,-0.183494 0,0 -0.0079,0.06223 -0.01686,0.183494 -0.0087,0.121292 -0.01907,0.301463 -0.01055,0.533621 0.0085,0.232158 0.03595,0.518267 0.101245,0.845773 0.06526,0.327477 0.168858,0.6961131 0.33324,1.0883291 0.158059,0.377142 0.373223,0.775984 0.655947,1.168471 0.282728,0.392526 0.634368,0.778106 1.060915,1.124185 0.366683,0.296482 0.785575,0.560439 1.244398,0.774059 0.458855,0.213658 0.956985,0.377616 1.478521,0.476677 0.496994,0.09527 1.016017,0.132041 1.5354741,0.103342 0.08727,-0.0048 0.174375,-0.01256 0.261541,-0.02109 0.0063,-0.301873 0.09292,-0.605415 0.26575,-0.877409 0.315705,-0.496855 0.851891,-0.776547 1.402591,-0.793046 0.330432,-0.0099 0.665782,0.07421 0.963896,0.263646 0.127686,0.08113 0.241409,0.175895 0.339566,0.282619 0.07287,-0.05261 0.144559,-0.10661 0.215136,-0.162398 0.35646,-0.28174 0.680794,-0.602651 0.965996,-0.953341 0.379714,-0.467628 0.68535,-0.982938 0.909055,-1.516495 0.223688,-0.5335321 0.365296,-1.0856231 0.432376,-1.6240431 0.07651,-0.616795 0.05505,-1.212178 -0.03797,-1.756937 -0.093,-0.544759 -0.257009,-1.037798 -0.453467,-1.463758 -0.201345,-0.436451 -0.435709,-0.8025 -0.668607,-1.100982 -0.232864,-0.298476 -0.462886,-0.530135 -0.660168,-0.706569 -0.197272,-0.176464 -0.362565,-0.297973 -0.47667,-0.377543 -0.11409,-0.07958 -0.177168,-0.118113 -0.177168,-0.118113 z M 1.2737079,6.6895379 c -0.42009397,0.0118 -0.82700297,0.226032 -1.06935097,0.607435 -0.387754,0.610243 -0.20739,1.419794 0.40285,1.807551 0.61024097,0.387758 1.41768297,0.207394 1.80544497,-0.402854 0.387758,-0.610239 0.207387,-1.419795 -0.402854,-1.807547 -0.22884,-0.14541 -0.484047,-0.211674 -0.73609,-0.204585 z M 12.135886,12.962177 c -0.420091,0.01182 -0.826996,0.226041 -1.069348,0.607439 -0.387751,0.610244 -0.20739,1.419799 0.402844,1.807556 0.610251,0.387758 1.419806,0.207389 1.807557,-0.402849 0.387759,-0.610249 0.207398,-1.419799 -0.402846,-1.807552 -0.228833,-0.145409 -0.486158,-0.211674 -0.738207,-0.204594 z"
     style="fill:#bebebe;fill-opacity:1;stroke:none" />
</svg>
