<?xml version="1.0" encoding="UTF-8"?>
<!-- Created with Inkscape (http://www.inkscape.org/) -->
<svg id="svg10764" width="64" height="64" version="1.0" xmlns="http://www.w3.org/2000/svg" xmlns:xlink="http://www.w3.org/1999/xlink">
 <defs id="defs10766">
  <linearGradient id="linearGradient2884" x1="11.566" x2="15.215" y1="22.292" y2="33.955" gradientTransform="matrix(1.3408 0 0 1.33 -.37331 -1.31)" gradientUnits="userSpaceOnUse">
   <stop id="stop2687" style="stop-color:#fff;stop-opacity:.27451" offset="0"/>
   <stop id="stop2689" style="stop-color:#fff;stop-opacity:.078431" offset="1"/>
  </linearGradient>
  <radialGradient id="radialGradient2887" cx="7.2647" cy="8.3021" r="20.98" gradientTransform="matrix(0 1.6066 -2.1817 0 34.686 9.2848)" gradientUnits="userSpaceOnUse">
   <stop id="stop2693" style="stop-color:#fff;stop-opacity:.4" offset="0"/>
   <stop id="stop2695" style="stop-color:#fff;stop-opacity:0" offset="1"/>
  </radialGradient>
  <linearGradient id="linearGradient2890" x1="22.935" x2="22.809" y1="49.629" y2="36.658" gradientTransform="matrix(1.5348 0 0 1.327 -5.0206 -.048542)" gradientUnits="userSpaceOnUse">
   <stop id="stop2661" style="stop-color:#0a0a0a;stop-opacity:.498" offset="0"/>
   <stop id="stop2663" style="stop-color:#0a0a0a;stop-opacity:0" offset="1"/>
  </linearGradient>
  <linearGradient id="linearGradient2895" x1="82.453" x2="65.34" y1="45.114" y2="15.944" gradientTransform="matrix(1.3408 0 0 1.3265 -72.463 -1.6032)" gradientUnits="userSpaceOnUse">
   <stop id="stop3624-5" style="stop-color:#bb2b12" offset="0"/>
   <stop id="stop3626-7" style="stop-color:#cd7233" offset="1"/>
  </linearGradient>
  <radialGradient id="radialGradient2893" cx="63.969" cy="14.113" r="23.097" gradientTransform="matrix(2.0979 -1.262e-7 8.2824e-8 1.3475 -115.97 9.3537)" gradientUnits="userSpaceOnUse">
   <stop id="stop3618-2" style="stop-color:#edb763" offset="0"/>
   <stop id="stop2559" style="stop-color:#de7f32" offset=".5"/>
   <stop id="stop3620-1" style="stop-color:#d24413" offset="1"/>
  </radialGradient>
  <radialGradient id="radialGradient2880" cx="605.71" cy="486.65" r="117.14" gradientTransform="matrix(-.03213 0 0 .037059 23.363 25.412)" gradientUnits="userSpaceOnUse">
   <stop id="stop2681" offset="0"/>
   <stop id="stop2683" style="stop-opacity:0" offset="1"/>
  </radialGradient>
  <radialGradient id="radialGradient2878" cx="605.71" cy="486.65" r="117.14" gradientTransform="matrix(.03213 0 0 .037059 24.637 25.412)" gradientUnits="userSpaceOnUse">
   <stop id="stop2675" offset="0"/>
   <stop id="stop2677" style="stop-opacity:0" offset="1"/>
  </radialGradient>
  <linearGradient id="linearGradient2876" x1="302.86" x2="302.86" y1="366.65" y2="609.51" gradientTransform="matrix(.08284 0 0 .037059 -5.9408 25.412)" gradientUnits="userSpaceOnUse">
   <stop id="stop2667" style="stop-opacity:0" offset="0"/>
   <stop id="stop2669" offset=".5"/>
   <stop id="stop2671" style="stop-opacity:0" offset="1"/>
  </linearGradient>
  <radialGradient id="radialGradient2904" cx="3" cy="5.0172" r="21" gradientTransform="matrix(-1.7093e-8 2.28 -2.8952 -1.9417e-8 16.801 2.2898)" gradientUnits="userSpaceOnUse">
   <stop id="stop3486" style="stop-color:#bdbdbd" offset="0"/>
   <stop id="stop3488" style="stop-color:#d0d0d0" offset="1"/>
  </radialGradient>
  <linearGradient id="linearGradient2902" x1="62.989" x2="62.989" y1="13.183" y2="16.19" gradientTransform="matrix(1.3408 0 0 1.33 -68.673 -1.51)" gradientUnits="userSpaceOnUse">
   <stop id="stop6406" style="stop-color:#f9f9f9" offset="0"/>
   <stop id="stop6408" style="stop-color:#c9c9c9" offset="1"/>
  </linearGradient>
  <linearGradient id="linearGradient4033" x1="-51.786" x2="-51.786" y1="50.786" y2="2.9062" gradientTransform="matrix(.64622 0 0 .74701 71.838 21.553)" gradientUnits="userSpaceOnUse">
   <stop id="stop3106-8" style="stop-color:#9a9a9a" offset="0"/>
   <stop id="stop3108-5" style="stop-color:#afafaf" offset="1"/>
  </linearGradient>
  <linearGradient id="linearGradient4031" x1="25.132" x2="25.132" y1="6.7287" y2="47.013" gradientTransform="matrix(.80027 0 0 .79821 24.293 22.443)" gradientUnits="userSpaceOnUse">
   <stop id="stop3602-0" style="stop-color:#f4f4f4" offset="0"/>
   <stop id="stop3604-3" style="stop-color:#dbdbdb" offset="1"/>
  </linearGradient>
  <linearGradient id="linearGradient3769" x1="22.104" x2="22.104" y1="43.199" y2="11.817" gradientTransform="matrix(1.0196 0 0 1.8439 43.767 -28.57)" gradientUnits="userSpaceOnUse">
   <stop id="stop4340" style="stop-color:#8e8e8e" offset="0"/>
   <stop id="stop4342" style="stop-color:#b5b5b5" offset="1"/>
  </linearGradient>
  <linearGradient id="linearGradient10752" x1="24" x2="24" y1="2" y2="46.017" gradientTransform="matrix(.78788 0 0 .7907 24.591 22.523)" gradientUnits="userSpaceOnUse">
   <stop id="stop3213" style="stop-color:#fff" offset="0"/>
   <stop id="stop3215" style="stop-color:#fff;stop-opacity:0" offset="1"/>
  </linearGradient>
  <linearGradient id="linearGradient3788-2" x1="32.892" x2="36.358" y1="8.059" y2="5.4565" gradientTransform="matrix(.85516 0 0 .84946 22.069 22.332)" gradientUnits="userSpaceOnUse">
   <stop id="stop8591-8-6" style="stop-color:#fefefe" offset="0"/>
   <stop id="stop8593-04-9" style="stop-color:#cbcbcb" offset="1"/>
  </linearGradient>
 </defs>
 <g id="layer1">
  <g id="g10836">
   <path id="path2856" d="m5.2811 9.6095c-0.9255 0.010201-1.6448 0.65505-1.6448 1.53 0 7.3342 0.043023 12.954 0 19.618 1.9246 0 56.896-4.9352 56.896-7.0532v-8.5805c0-0.87494-0.64331-1.54-1.5688-1.5298h-27.158c-2.7452 0-4.6912-3.999-6.7039-3.999l-19.82 0.014506z" style="fill:url(#linearGradient2902);stroke-linecap:round;stroke-linejoin:round;stroke:url(#radialGradient2904)"/>
   <g id="g2858" transform="matrix(1.2849 0 0 .88667 .96746 18.44)" style="opacity:.4">
    <rect id="rect2860" x="4" y="39" width="40.7" height="9" style="fill:url(#linearGradient2876)"/>
    <path id="path2862" d="m44.7 39v8.9995c1.6546 0.01694 4-2.0163 4-4.5003 0-2.484-1.8464-4.4992-4-4.4992z" style="fill:url(#radialGradient2878)"/>
    <path id="path2864" d="m4 39v8.9995c-1.6546 0.016941-4-2.0163-4-4.5003 0-2.484 1.8464-4.4992 4-4.4992z" style="fill:url(#radialGradient2880)"/>
   </g>
   <path id="path2866" d="m2.5259 20.468c-1.4383 0.16407-0.86993 1.8599-0.9846 2.8134 0.52631 11.235 1.2576 22.244 1.7807 33.479 0.45833 1.281 2.1378 0.62498 3.202 0.78758h53.07c1.4606-0.14147 0.85337-1.8672 1.0588-2.8549 0.52632-11.235 1.258-22.244 1.7811-33.479-0.33677-1.2658-2.2376-0.56244-3.2346-0.74613h-56.673v0z" style="fill:url(#radialGradient2893);stroke-linecap:round;stroke-linejoin:round;stroke-width:.99868;stroke:url(#linearGradient2895)"/>
   <path id="path2868" d="m2.3863 19.857 58.855 5.36e-4c0.85026 0 1.4013 0.59133 1.4013 1.3265l-1.6682 35.829c0 0.73516-0.68451 1.327-1.5348 1.327h-55.252c-0.85026 0-1.5348-0.59185-1.5348-1.327l-1.6682-35.829c0-0.73517 0.55105-1.327 1.4013-1.327z" style="fill:url(#linearGradient2890);opacity:.4"/>
   <path id="path2870" d="m61.673 21.565h-58.994c0.321 10.435 1.0335 21.751 1.5503 32.627" style="fill:none;stroke-linecap:round;stroke-linejoin:round;stroke:url(#radialGradient2887)"/>
   <path id="path2872" d="m60.967 19.97c-19.508 0.097556-39.023-0.028129-58.533 0-2.4225 0.54679-1.1187 3.2806-1.3038 5.0161 0.29769 5.5373 0.43316 11.099 0.8319 16.621 20.112-3.1425 40.125-6.1276 59.885-9.376 1.0471-3.4401 1.0557-7.5419 0.88137-11.211-0.30722-0.67107-1.0552-1.0651-1.7612-1.0501z" style="fill:url(#linearGradient2884)"/>
   <rect id="rect2874" x="6" y="12" width="19" height="2.1212" rx="1.3408" ry=".99632" style="display:block;fill:#eda374"/>
  </g>
  <path id="rect2594" d="m29.495 23.64h19.255c1.1259 0.38744 7.1748 4.8014 8.7543 7.8576v28.062h-28.01v-35.92z" style="fill:url(#linearGradient4031);stroke-linejoin:round;stroke-width:.99043;stroke:url(#linearGradient4033)"/>
  <g id="g3288" transform="matrix(.85708 0 0 .79811 -14.437 20.821)">
   <path id="path3248" d="m59.575 41.66h1.7599v1.253h-1.7599v-1.253zm7.4843 0h1.9296v1.253h-1.9296v-1.253zm2.2798 0h0.77554v1.253h-0.77554v-1.253zm1.1257 0h1.9635v1.253h-1.9635v-1.253zm-5.9908 0h2.2351v1.253h-2.2351v-1.253zm-2.7889 0h2.4387v1.253h-2.4387v-1.253zm-6.2567 0h3.7964v1.253h-3.7964v-1.253zm21.102-2.5009h1.8978v1.253h-1.8978v-1.253zm-3.8823 0h3.5629v1.253h-3.5629v-1.253zm-0.89201 0h0.57256v1.253h-0.57256v-1.253zm-3.0668 0h2.7473v1.253h-2.7473v-1.253zm-2.2173 0h1.8978v1.253h-1.8978v-1.253zm-2.2173 0h1.8978v1.253h-1.8978v-1.253zm-3.1008 0h2.7813v1.253h-2.7813v-1.253zm-1.5376 0h1.2182v1.253h-1.2182v-1.253zm-4.1882 0h3.8687v1.253h-3.8687v-1.253zm20.467-2.5009h0.53266v1.253h-0.53266v-1.253zm-2.5542 0h2.2803v1.253h-2.2803v-1.253zm-3.8649 0h3.3893v1.253h-3.3893v-1.253zm-2.8903 0h2.5827v1.253h-2.5827v-1.253zm-2.1173 0h1.6081v1.253h-1.6081v-1.253zm-1.882 0h1.6081v1.253h-1.6081v-1.253zm-1.0419 0h0.83512v1.253h-0.83512v-1.253zm-2.1509 0h1.7762v1.253h-1.7762v-1.253zm-3.9658 0h3.6918v1.253h-3.6918v-1.253zm2.0561-17.624h5.9439v1.253h-5.9439v-1.253zm-2.0561 0h1.6334v1.253h-1.6334v-1.253zm11.576-5.0031h2.2865v1.253h-2.2865v-1.253zm8.3406 0h5.0836v1.253h-5.0836v-1.253zm-3.4542 0h3.129v1.253h-3.129v-1.253zm-2.2747 0h1.9495v1.253h-1.9495v-1.253zm-5.3919 0h2.455v1.253h-2.455v-1.253zm-5.4088 0h5.0835v1.253h-5.0835v-1.253zm-3.3868 0h3.0616v1.253h-3.0616v-1.253zm22.166 2.6275h1.8336v1.253h-1.8336v-1.253zm-1.0118 0h0.67585v1.253h-0.67585v-1.253zm-4.7816 0h2.9572v1.253h-2.9572v-1.253zm3.2931 0h1.1526v1.253h-1.1526v-1.253zm-7.9482 0h4.3192v1.253h-4.3192v-1.253zm-2.1695 0h1.8336v1.253h-1.8336v-1.253zm-4.9275 0h4.5916v1.253h-4.5916v-1.253zm-4.6211 0h4.2851v1.253h-4.2851v-1.253zm20.351-5.0031h0.53265v1.253h-0.53265v-1.253zm-2.6172 0h2.2803v1.253h-2.2803v-1.253zm-3.7263 0h3.3894v1.253h-3.3894v-1.253zm-2.9197 0h2.5827v1.253h-2.5827v-1.253zm-1.9451 0h1.6081v1.253h-1.6081v-1.253zm-1.9451 0h1.6081v1.253h-1.6081v-1.253zm-1.1721 0h0.83512v1.253h-0.83512v-1.253zm-2.1131 0h1.7762v1.253h-1.7762v-1.253zm-4.0288 0h3.6918v1.253h-3.6918v-1.253zm21.72-2.6262h2.2796v1.253h-2.2796v-1.253zm-1.4734 0h1.1539v1.253h-1.1539v-1.253zm-4.0891 0h3.7696v1.253h-3.7696v-1.253zm-5.2811 0h4.9616v1.253h-4.9616v-1.253zm-2.2349 0h1.9154v1.253h-1.9154v-1.253zm-1.1754 0h0.85587v1.253h-0.85587v-1.253zm-2.2681 0h1.9485v1.253h-1.9485v-1.253zm-2.5329 0h2.2134v1.253h-2.2134v-1.253zm-2.6654 0h2.3458v1.253h-2.3458v-1.253zm22.283 18.877h1.8336v1.253h-1.8336v-1.253zm-1.0118 0h0.67585v1.253h-0.67585v-1.253zm-4.7816 0h2.9572v1.253h-2.9572v-1.253zm3.2931 0h1.1526v1.253h-1.1526v-1.253zm-7.9482 0h4.3192v1.253h-4.3192v-1.253zm-2.1695 0h1.8336v1.253h-1.8336v-1.253zm-4.9275 0h4.5916v1.253h-4.5916v-1.253zm-4.6211 0h4.2851v1.253h-4.2851v-1.253zm20.319-2.5009h1.6808v1.253h-1.6808v-1.253zm-0.92745 0h0.61953v1.253h-0.61953v-1.253zm-4.3831 0h2.7108v1.253h-2.7108v-1.253zm3.0187 0h1.0565v1.253h-1.0565v-1.253zm-7.2859 0h3.9593v1.253h-3.9593v-1.253zm-1.9887 0h1.6808v1.253h-1.6808v-1.253zm-4.5169 0h4.2089v1.253h-4.2089v-1.253zm-4.236 0h3.928v1.253h-3.928v-1.253zm20.467 5.0018h0.53266v1.253h-0.53266v-1.253zm-2.5542 0h2.2803v1.253h-2.2803v-1.253zm-3.8649 0h3.3893v1.253h-3.3893v-1.253zm-2.8903 0h2.5827v1.253h-2.5827v-1.253zm-2.1173 0h1.6081v1.253h-1.6081v-1.253zm-1.882 0h1.6081v1.253h-1.6081v-1.253zm-1.0419 0h0.83512v1.253h-0.83512v-1.253zm-2.1509 0h1.7762v1.253h-1.7762v-1.253zm-3.9658 0h3.6918v1.253h-3.6918v-1.253z" style="fill:url(#linearGradient3769);opacity:.7"/>
  </g>
  <path id="path10747" d="m56.5 31.601v26.899h-26v-34h18.016" style="fill:none;opacity:.6;stroke-linejoin:round;stroke-width:.99992;stroke:url(#linearGradient10752)"/>
  <path id="path8596" d="m47.228 23.781c0.48932 4.5151 0.48932 7.1758 0.48932 7.1758s5.2173 0 9.5786 0.61963c-4.1973-3.8217-7.3541-5.5251-10.068-7.7954z" style="fill-opacity:.32663;fill-rule:evenodd"/>
  <path id="path10603" d="m47.35 23.646c1.2105 3.2906 1.1101 6.5938 1.1101 6.5938s6.7139 0.43687 8.7214 1.2723c0-1.3659-7.9692-7.8428-9.8315-7.8661z" style="fill-rule:evenodd;fill:url(#linearGradient3788-2)"/>
 </g>
</svg>
