<?xml version="1.0" encoding="UTF-8"?>
<!-- Created with Inkscape (http://www.inkscape.org/) -->
<svg id="svg2755" width="24" height="24" version="1.0" xmlns="http://www.w3.org/2000/svg" xmlns:xlink="http://www.w3.org/1999/xlink">
 <defs id="defs2757">
  <linearGradient id="linearGradient2673" x1="302.86" x2="302.86" y1="366.65" y2="609.51" gradientTransform="matrix(.035207 0 0 .0082353 -.72485 18.981)" gradientUnits="userSpaceOnUse">
   <stop id="stop5050" style="stop-opacity:0" offset="0"/>
   <stop id="stop5056" offset=".5"/>
   <stop id="stop5052" style="stop-opacity:0" offset="1"/>
  </linearGradient>
  <radialGradient id="radialGradient2670" cx="605.71" cy="486.65" r="117.14" gradientTransform="matrix(-.012049 0 0 .0082353 10.761 18.981)" gradientUnits="userSpaceOnUse" xlink:href="#linearGradient5060"/>
  <linearGradient id="linearGradient5060">
   <stop id="stop5062" offset="0"/>
   <stop id="stop5064" style="stop-opacity:0" offset="1"/>
  </linearGradient>
  <radialGradient id="radialGradient2667" cx="605.71" cy="486.65" r="117.14" gradientTransform="matrix(.012049 0 0 .0082353 13.239 18.981)" gradientUnits="userSpaceOnUse" xlink:href="#linearGradient5060"/>
  <linearGradient id="linearGradient2664" x1="-53.412" x2="-51.786" y1="56.11" y2="2.9062" gradientTransform="matrix(.39221 0 0 .44736 29.199 -1.2387)" gradientUnits="userSpaceOnUse">
   <stop id="stop3106" style="stop-color:#791235" offset="0"/>
   <stop id="stop3108" style="stop-color:#dd3b27" offset="1"/>
  </linearGradient>
  <linearGradient id="linearGradient2656" x1="24" x2="24" y1="2" y2="46.017" gradientTransform="matrix(.45454 0 0 .46512 1.0909 .33723)" gradientUnits="userSpaceOnUse">
   <stop id="stop3213" style="stop-color:#fff" offset="0"/>
   <stop id="stop3215" style="stop-color:#fff;stop-opacity:0" offset="1"/>
  </linearGradient>
  <linearGradient id="linearGradient2652" x1="32.892" x2="36.358" y1="8.059" y2="5.4565" gradientTransform="matrix(.47785 0 0 .55248 .37225 -.076128)" gradientUnits="userSpaceOnUse">
   <stop id="stop8591" style="stop-color:#fefefe" offset="0"/>
   <stop id="stop8593" style="stop-color:#cbcbcb" offset="1"/>
  </linearGradient>
  <linearGradient id="linearGradient2888" x1="23.97" x2="23.97" y1="3.981" y2="44.024" gradientTransform="matrix(.42105 0 0 .55263 1.8947 -1.7632)" gradientUnits="userSpaceOnUse">
   <stop id="stop4248" style="stop-color:#fff" offset="0"/>
   <stop id="stop4250" style="stop-color:#dcdcdc" offset="1"/>
  </linearGradient>
  <radialGradient id="radialGradient3679" cx="8.1203" cy="6.6278" r="9" gradientTransform="matrix(.01444 2.0654 -3.0521 .021339 28.232 -11.638)" gradientUnits="userSpaceOnUse">
   <stop id="stop3683" style="stop-color:#f89b7e" offset="0"/>
   <stop id="stop3685" style="stop-color:#e35d4f" offset=".25"/>
   <stop id="stop3687" style="stop-color:#c6262e" offset=".75236"/>
   <stop id="stop3689" style="stop-color:#690b2c" offset="1"/>
  </radialGradient>
 </defs>
 <g id="layer1">
  <rect id="rect2879" x="3.5" y="22" width="17" height="2" style="fill:url(#linearGradient2673);opacity:.15"/>
  <path id="path2881" d="m3.5 22v1.9999c-0.62047 0.003765-1.5-0.44807-1.5-1.0001 0-0.552 0.6924-0.99982 1.5-0.99982z" style="fill:url(#radialGradient2670);opacity:.15"/>
  <path id="path2883" d="m20.5 22v1.9999c0.62047 0.0038 1.5-0.44807 1.5-1.0001 0-0.552-0.6924-0.99982-1.5-0.99982z" style="fill:url(#radialGradient2667);opacity:.15"/>
  <path id="path4160" d="m3.5 0.49996h11.5c0.68337 0.2373 4.5413 3.1282 5.5 5 0 5.7292 3.9e-5 11.271 3.9e-5 17h-17v-22z" style="fill:url(#radialGradient3679);stroke-linejoin:round;stroke-width:.99992;stroke:url(#linearGradient2664)"/>
  <path id="path6711" d="m13.603 1c-5.4536 6.1511-8.5667 7.0162-9.6029 7.1119v2.2129c0.78217-0.14356 2.7444-0.64164 4.8382-2.3656 2.6849-2.2105 5.8971-6.4099 5.8971-6.4099-0.88032 2.2699-1.13 10.1-1.1471 20.451h6.4118v-1.0378c-1.0432-2.8283-1.7235-6.9092-2.2353-10.561-0.30245-3.0169-0.19587-5.1883 0.045129-7.0049-0.90416-0.79672-2.6452-2.0448-3.2135-2.3963h-0.9934zm-9.6029 10.714v2.4571c2.2641-1e-6 5.7427 3.5663 7.4265 7.8292h1.4118c-0.79117-3.8754-7.1109-10.286-8.8382-10.286z" style="fill-rule:evenodd;fill:url(#linearGradient2888)"/>
  <path id="path6713" d="m16.939 2.9535c-2.7501 1.9729-8.3684 5.3788-12.939 4.8362v4.387c0-1e-6 12.308 2.3003 16-2.5579v-3.8558c-0.63754-0.89565-2.0509-2.0152-3.061-2.8096zm3.061 11.18c-1.4685 1.6861-3.271 5.0172-4.5352 7.8662l-1.5825-0.01392c1.4767-4.0057 3.8644-7.9403 6.1176-10.73v2.878z" style="fill-rule:evenodd;opacity:.15"/>
  <path id="path2435" d="m19.5 5.677v15.823h-15v-20h10.394" style="fill:none;opacity:.6;stroke:url(#linearGradient2656)"/>
  <path id="path3370" d="m14.075 1c1.1563 0.32877 0.33906 4.6144 0.33906 4.6144s4.5154-0.42774 5.6077 1.195c1.4892 2.2123-0.068225-0.63517-0.17345-0.8217-0.75593-1.34-3.8663-4.5471-5.0454-4.9412-0.088232-0.029492-0.28388-0.04647-0.72791-0.04647z" style="fill-rule:evenodd;opacity:.3"/>
  <path id="path4474" d="m14 0c1.5262 0 1 5 1 5s6.0748-0.45326 6.0748 2c0-0.59774 0.04504-1.8225-0.07478-2-0.83911-1.243-4.6708-4.6821-6-5-0.09048-0.021638-0.55596 0-1 0z" style="fill-rule:evenodd;fill:url(#linearGradient2652)"/>
 </g>
</svg>
