<?xml version="1.0" encoding="UTF-8"?>
<!-- Created with Inkscape (http://www.inkscape.org/) -->
<svg id="svg2497" width="48" height="48" version="1.0" xmlns="http://www.w3.org/2000/svg">
 <g id="layer1">
  <path id="path2479" d="m24 6c-10.473 0-19 8.5273-19 19s8.5273 19 19 19 19-8.5273 19-19-8.5273-19-19-19zm0 8.2188c6.0873 0 11 4.9127 11 11 0 4.3066-2.5285 7.9406-6.125 9.75 0.45739-0.44299 0.65013-1.0755 0.40625-1.6875l0.0625-0.03125-1.9688-6.1562-0.0625-3.1562 5.25-1.9062c0.077932-0.032201 0.15144-0.074206 0.21875-0.125 0.57701-0.39063 0.91061-1.1794 0.625-1.9062-0.29174-0.74253-1.0366-1.0751-1.7188-1-0.021194 0.00968-0.04204 0.020103-0.0625 0.03125-0.04449 0.007142-0.19371 0.072604-0.28125 0.09375l-5 0.78125c0.58602-0.56766 0.96875-1.3411 0.96875-2.2188 0-1.7553-1.4684-3.1875-3.2188-3.1875s-3.1875 1.4494-3.1875 3.1875c0 0.86903 0.35929 1.6489 0.9375 2.2188l-5.1562-0.78125v0.0625c-0.25892-0.097721-0.52733-0.22835-0.8125-0.1875 0.041038-0.005878-0.16963-0.034147-0.4375 0.09375-0.63063 0.3011-0.92894 0.83138-0.9375 1.5-0.008304 0.70829 0.48781 1.1781 0.9375 1.4062 0.040146 0.023746 0.081916 0.044631 0.125 0.0625l5.1562 1.625-0.0625 3.375-2 6.125 0.0625 0.03125c-0.23852 0.57186-0.12186 1.2261 0.3125 1.6875-3.5414-1.828-6.0312-5.4214-6.0312-9.6875 0-6.0873 4.9127-11 11-11zm0 15.469 2.375 4.9375c0.019894 0.021751 0.040749 0.042606 0.0625 0.0625 0.40908 0.69111 1.2281 0.8756 1.9375 0.625-1.3452 0.58482-2.8126 0.90625-4.375 0.90625-1.6029 0-3.0962-0.35492-4.4688-0.96875 0.69857 0.28762 1.4877 0.19649 1.9688-0.5 0.034488-0.039137 0.065835-0.080933 0.09375-0.125l2.4062-4.9375z" style="fill-rule:evenodd;fill:#eae3d0;opacity:.6"/>
  <path id="path2402" d="m24 7c-9.936 0-18 8.064-18 18s8.064 18 18 18 18-8.064 18-18-8.064-18-18-18zm0 6.2188c6.624 0 12 5.376 12 12s-5.376 12-12 12c-6.624-2e-6 -12-5.376-12-12 0-6.624 5.376-12 12-12zm0.09375 2.2812c-1.2121 0-2.1875 0.98654-2.1875 2.1875 0 1.201 0.97536 2.1562 2.1875 2.1562 1.2121 0 2.2188-0.95529 2.2188-2.1562s-1.0066-2.1875-2.2188-2.1875zm-8.0625 4.4688c-0.058737 0.008413-0.10238 0.005528-0.15625 0.03125-0.21549 0.10289-0.37203 0.3617-0.375 0.59375-0.002721 0.23209 0.16219 0.42326 0.375 0.53125l5.8438 1.8438-0.0625 4.2188-2.0625 6.3125c-0.19868 0.28767-0.14175 0.65197 0.15625 0.84375 0.29802 0.19181 0.7388 0.13145 0.9375-0.15625l3.3125-6.8125 3.2812 6.8125c0.17661 0.29837 0.56595 0.38924 0.875 0.21875 0.30906-0.17049 0.4266-0.54538 0.25-0.84375l-2.0312-6.3438-0.09375-3.9688 5.9375-2.1562c0.23952-0.16215 0.35374-0.45473 0.25-0.71875-0.10375-0.26405-0.39685-0.40699-0.6875-0.375-0.10156 0.016304-0.199 0.033963-0.28125 0.09375l-7.5 1.1562-7.4688-1.1562c-0.14464-0.10394-0.32379-0.15024-0.5-0.125z" style="fill-rule:evenodd;fill:#3a3935"/>
 </g>
</svg>
