<?xml version="1.0" encoding="UTF-8"?>
<!-- Created with Inkscape (http://www.inkscape.org/) -->
<svg id="svg3315" width="22" height="22" version="1.0" xmlns="http://www.w3.org/2000/svg">
 <path id="path3279" d="m9.5033 8.0246-2.5002-4.3305" style="fill:none;stroke-linecap:round;stroke-width:1px;stroke:#878787"/>
 <path id="path3281" d="m16.009 19.293-2.5014-4.3325" style="fill:none;stroke-linecap:round;stroke-width:1px;stroke:#878787"/>
 <path id="path2629" d="m8.6737 8.6612-3.5359-3.5359" style="fill:none;opacity:.75;stroke-linecap:round;stroke-width:1px;stroke:#878787"/>
 <path id="path2631" d="m17.875 17.862-3.5375-3.5375" style="fill:none;opacity:.75;stroke-linecap:round;stroke-width:1px;stroke:#878787"/>
 <path id="path3403" d="m8.0371 9.4909-4.3305-2.5002" style="fill:none;opacity:.6;stroke-linecap:round;stroke-width:1px;stroke:#878787"/>
 <path id="path3405" d="m19.306 15.997-4.3325-2.5014" style="fill:none;opacity:.6;stroke-linecap:round;stroke-width:1px;stroke:#878787"/>
 <path id="path3407" d="m7.6369 10.457-4.8301-1.2942" style="fill:none;opacity:.5;stroke-linecap:round;stroke-width:1px;stroke:#878787"/>
 <path id="path3409" d="m20.206 13.825-4.8323-1.2948" style="fill:none;opacity:.5;stroke-linecap:round;stroke-width:1px;stroke:#878787"/>
 <path id="path3415" d="m7.5005 11.494-5.0005-1e-6" style="fill:none;opacity:.4;stroke-linecap:round;stroke-width:1px;stroke:#878787"/>
 <path id="path3417" d="m20.512 11.494h-5.0027" style="fill:none;opacity:.4;stroke-linecap:round;stroke-width:1px;stroke:#878787"/>
 <path id="path3419" d="m7.6369 12.531-4.8301 1.2942" style="fill:none;opacity:.3;stroke-linecap:round;stroke-width:1px;stroke:#878787"/>
 <path id="path3421" d="m20.206 9.1628-4.8323 1.2948" style="fill:none;opacity:.3;stroke-linecap:round;stroke-width:1px;stroke:#878787"/>
 <path id="path3423" d="m8.0371 13.497-4.3305 2.5002" style="fill:none;opacity:.2;stroke-linecap:round;stroke-width:1px;stroke:#878787"/>
 <path id="path3425" d="m19.306 6.9906-4.3325 2.5014" style="fill:none;opacity:.2;stroke-linecap:round;stroke-width:1px;stroke:#878787"/>
 <path id="path3427" d="m8.6737 14.326-3.5359 3.5359" style="fill:none;opacity:.15;stroke-linecap:round;stroke-width:1px;stroke:#878787"/>
 <path id="path3429" d="m17.875 5.1254-3.5375 3.5375" style="fill:none;opacity:.15;stroke-linecap:round;stroke-width:1px;stroke:#878787"/>
 <path id="path3431" d="m9.5033 14.963-2.5002 4.3305" style="fill:none;opacity:.1;stroke-linecap:round;stroke-width:1px;stroke:#878787"/>
 <path id="path3433" d="m16.009 3.6941-2.5014 4.3325" style="fill:none;opacity:.1;stroke-linecap:round;stroke-width:1px;stroke:#878787"/>
 <path id="path3435" d="m11.506 15.5-1e-6 5.0005" style="fill:none;opacity:.05;stroke-linecap:round;stroke-width:1px;stroke:#878787"/>
 <path id="path3437" d="m11.506 2.4875v5.0027" style="fill:none;opacity:.05;stroke-linecap:round;stroke-width:1px;stroke:#878787"/>
</svg>
