<?xml version="1.0" encoding="UTF-8"?>
<!-- Created with Inkscape (http://www.inkscape.org/) -->
<svg id="svg3792" width="128" height="128" version="1.1" xmlns="http://www.w3.org/2000/svg" xmlns:cc="http://creativecommons.org/ns#" xmlns:dc="http://purl.org/dc/elements/1.1/" xmlns:rdf="http://www.w3.org/1999/02/22-rdf-syntax-ns#" xmlns:xlink="http://www.w3.org/1999/xlink">
 <defs id="defs3794">
  <linearGradient id="linearGradient3677" x1="24.624" x2="24.624" y1="9.874" y2="36.147" gradientTransform="matrix(4.5119 0 0 4.5076 -33.688 -105.75)" gradientUnits="userSpaceOnUse">
   <stop id="stop5148" style="stop-color:#fff" offset="0"/>
   <stop id="stop5150" style="stop-color:#fff;stop-opacity:0" offset="1"/>
  </linearGradient>
  <linearGradient id="linearGradient3681" x1="11.566" x2="15.215" y1="22.292" y2="33.955" gradientTransform="matrix(1.3333 0 0 1.3333 3.9732 -4.1622)" gradientUnits="userSpaceOnUse">
   <stop id="stop2687" style="stop-color:#fff;stop-opacity:.27451" offset="0"/>
   <stop id="stop2689" style="stop-color:#fff;stop-opacity:0" offset="1"/>
  </linearGradient>
  <radialGradient id="radialGradient2853" cx="13.139" cy="25.625" r="13.931" gradientTransform="matrix(0 7.2207 -8.6441 0 264.01 -138.15)" gradientUnits="userSpaceOnUse">
   <stop id="stop3692" style="stop-color:#ffeb9f" offset="0"/>
   <stop id="stop3694" style="stop-color:#ffd57e" offset=".26238"/>
   <stop id="stop3696" style="stop-color:#ffbc43" offset=".66094"/>
   <stop id="stop3698" style="stop-color:#ff921a" offset="1"/>
  </radialGradient>
  <linearGradient id="linearGradient2855" x1="21.483" x2="21.483" y1="36.255" y2="9.58" gradientTransform="matrix(4.5119 0 0 4.5076 -32.931 -106.51)" gradientUnits="userSpaceOnUse">
   <stop id="stop3605" style="stop-color:#a7651c" offset="0"/>
   <stop id="stop3607" style="stop-color:#c8a700" offset="1"/>
  </linearGradient>
  <radialGradient id="radialGradient3790" cx="62.625" cy="4.625" r="10.625" gradientTransform="matrix(5.8353 0 0 2.2588 -301.44 29.553)" gradientUnits="userSpaceOnUse">
   <stop id="stop8840" offset="0"/>
   <stop id="stop8842" style="stop-opacity:0" offset="1"/>
  </radialGradient>
  <linearGradient id="linearGradient2862" x1="22.369" x2="22.369" y1="8.5685" y2="37.738" gradientTransform="matrix(1.6555 0 0 1.6456 60.967 -7.1001)" gradientUnits="userSpaceOnUse">
   <stop id="stop3945" style="stop-color:#fff" offset="0"/>
   <stop id="stop3947" style="stop-color:#fff;stop-opacity:0" offset="1"/>
  </linearGradient>
  <radialGradient id="radialGradient2913" cx="69.448" cy="51.695" r="31" gradientTransform="matrix(0 1.749 -1.9048 0 190.55 -109.29)" gradientUnits="userSpaceOnUse">
   <stop id="stop3244-5" style="stop-color:#eef87e" offset="0"/>
   <stop id="stop3246-9" style="stop-color:#cde34f" offset=".26238"/>
   <stop id="stop3248-7" style="stop-color:#93b723" offset=".66094"/>
   <stop id="stop3250-8" style="stop-color:#5a7e0d" offset="1"/>
  </radialGradient>
  <linearGradient id="linearGradient2915" x1="72.422" x2="72.422" y1="122.13" y2="53.868" gradientTransform="matrix(.72729 0 0 .73247 33.998 -33.457)" gradientUnits="userSpaceOnUse">
   <stop id="stop2492-3" style="stop-color:#365f0e" offset="0"/>
   <stop id="stop2494-8" style="stop-color:#84a718" offset="1"/>
  </linearGradient>
 </defs>
 <metadata id="metadata3797">
  <rdf:RDF>
   <cc:Work rdf:about="">
    <dc:format>image/svg+xml</dc:format>
    <dc:type rdf:resource="http://purl.org/dc/dcmitype/StillImage"/>
    <dc:title/>
   </cc:Work>
  </rdf:RDF>
 </metadata>
 <g id="layer1" transform="translate(0,64)">
  <path id="path8836" d="m126 40c0 13.255-27.758 24-62 24-34.242 0-62-10.745-62-24 0-13.255 27.758-24 62-24 34.242 0 62 10.745 62 24z" style="fill-rule:evenodd;fill:url(#radialGradient3790);opacity:.3"/>
  <path id="path1307" d="m64-61.504c4.1509 0 17.533 33.397 20.892 35.834 3.3582 2.4375 39.286 4.8327 40.569 8.7767 1.2827 3.944-26.375 26.98-27.657 30.924-1.2827 3.944 7.5396 38.821 4.1814 41.259-3.3582 2.4375-33.834-16.723-37.985-16.723-4.1509 0-34.627 19.16-37.985 16.723-3.3582-2.4375 5.4641-37.315 4.1814-41.259-1.2827-3.944-28.94-26.98-27.657-30.924 1.2827-3.944 37.211-6.3392 40.569-8.7767 3.3582-2.4375 16.741-35.834 20.892-35.834z" style="fill:url(#radialGradient2853);stroke-linejoin:round;stroke-width:.99227;stroke:url(#linearGradient2855)"/>
  <path id="path3679" transform="matrix(2 0 0 2 0 -64)" d="m32.031 1.6875c-0.01042 0.010417-0.05208 0.03125-0.0625 0.03125-0.0015 1.013e-4 -0.0298-1.553e-4 -0.03125 0a0.41929 0.41929 0 0 0-0.0625 0c-0.0018 4.133e-4 -0.0295-4.942e-4 -0.03125 0-0.0017 4.942e-4 -0.06078 0.030676-0.0625 0.03125-0.0017 5.741e-4 -0.02956-6.527e-4 -0.03125 0-0.0016 5.291e-4 -0.0297 0.030655-0.03125 0.03125-0.0016 5.953e-4 -0.06097-6.604e-4 -0.0625 0-0.0015 6.604e-4 -0.02975 0.030526-0.03125 0.03125-0.0015 7.243e-4 -0.02978-7.87e-4 -0.03125 0-0.0015 7.87e-4 -0.02982 0.030402-0.03125 0.03125-0.0014 8.483e-4 -0.02985 0.030342-0.03125 0.03125s-0.02989-9.661e-4 -0.03125 0c-0.0014 9.661e-4 -0.02993 0.030228-0.03125 0.03125-0.0013 0.00102-0.02998 0.030173-0.03125 0.03125-0.0013 0.00108-0.03003 0.03012-0.03125 0.03125-0.0012 0.00113-0.03008 0.03007-0.03125 0.03125-0.0012 0.00118-0.03013 0.030021-0.03125 0.03125-0.0011 0.00123-0.03018 0.029975-0.03125 0.03125-0.0011 0.00128-0.03023 0.029931-0.03125 0.03125-1e-3 0.00132-0.03029 0.029889-0.03125 0.03125-9.6e-4 0.00136 9.02e-4 0.02985 0 0.03125-0.02251 0.032586-4.872 7.0658-9.3125 17.375-6.3865 1.0301-14.798 2.1717-19.594 3.625-0.00218 6.99e-4 -0.060369 0.03043-0.0625 0.03125-0.00213 8.23e-4 -0.02917 0.0303-0.03125 0.03125-0.00208 9.45e-4 -0.060478-0.0011-0.0625 0-0.00202 0.0011-0.060543 0.03007-0.0625 0.03125-0.00196 0.0012-0.029365 0.02996-0.03125 0.03125-0.00189 0.0013-0.029443 0.02985-0.03125 0.03125-0.00181 0.0014-0.060777 0.02975-0.0625 0.03125-0.00172 0.0015-0.029616 0.02965-0.03125 0.03125-0.00163 0.0016-0.029712 0.06081-0.03125 0.0625-0.00154 0.0017-0.061062 0.02947-0.0625 0.03125-0.00144 0.0018-0.029917 0.06064-0.03125 0.0625-0.00133 0.0019-0.030027 0.02932-0.03125 0.03125-0.00122 0.0019-0.030141 0.0605-0.03125 0.0625-0.00111 2e-3 9.919e-4 0.02919 0 0.03125-9.919e-4 0.0021-0.030379 0.06039-0.03125 0.0625-8.711e-4 0.0021-0.030503 0.02909-0.03125 0.03125-7.474e-4 0.0022 6.211e-4 0.0603 0 0.0625s-0.030757 0.06027-0.03125 0.0625c-4.928e-4 0.0022 3.628e-4 0.06024 0 0.0625-3.628e-4 0.0023 2.316e-4 0.02898 0 0.03125-2.316e-4 0.0023 9.97e-5 0.06022 0 0.0625-9.97e-5 0.0023-3.26e-5 0.06021 0 0.0625 3.26e-5 0.0023-1.649e-4 0.06022 0 0.0625 1.649e-4 0.0023-2.965e-4 0.02898 0 0.03125 2.965e-4 0.0023-4.272e-4 0.06026 0 0.0625 4.272e-4 0.0022 0.030694 0.06028 0.03125 0.0625 5.564e-4 0.0022-6.837e-4 0.06032 0 0.0625 6.837e-4 0.0022 0.030441 0.02911 0.03125 0.03125 8.088e-4 0.0021-9.311e-4 0.06041 0 0.0625 9.311e-4 0.0021 0.0302 0.02922 0.03125 0.03125 0.00105 2e-3 0.030084 0.06054 0.03125 0.0625 0.00117 2e-3 0.029972 0.06061 0.03125 0.0625 3.479 4.5645 7.8923 8.4433 11.719 12.375 0.0016 0.0017 0.06076 0.06091 0.0625 0.0625 0.0017 0.0016 0.02942 0.02977 0.03125 0.03125 0.0018 0.0015 0.06058 0.02988 0.0625 0.03125 0.0019 0.0014 0.02926 0.03 0.03125 0.03125 2e-3 0.0013 0.06044 0.03012 0.0625 0.03125 0.0021 0.0011 0.02912 0.03025 0.03125 0.03125 0.0021 1e-3 0.06031-8.76e-4 0.0625 0 0.0022 8.76e-4 0.06027 0.0305 0.0625 0.03125 0.0022 7.45e-4 0.02898 0.03064 0.03125 0.03125 0.0023 6.1e-4 0.06019-4.73e-4 0.0625 0 0.0023 4.73e-4 0.06017-3.35e-4 0.0625 0 0.0023 3.35e-4 0.06015 0.03106 0.0625 0.03125 0.0023 1.95e-4 0.06015-5.5e-5 0.0625 0 0.0024 5.5e-5 0.0289 8.6e-5 0.03125 0 0.0024-8.6e-5 0.06016-0.03102 0.0625-0.03125 0.0023-2.26e-4 0.06017 3.65e-4 0.0625 0l42.375-7.625a0.41929 0.41929 0 0 0 0.03125 0c0.0015-3.02e-4 0.0298 3.58e-4 0.03125 0 0.0015-3.58e-4 0.02981 4.13e-4 0.03125 0 0.0014-4.13e-4 0.02983-0.03078 0.03125-0.03125 0.0014-4.67e-4 0.02985 5.21e-4 0.03125 0s0.02987-0.03068 0.03125-0.03125c0.0014-5.74e-4 0.02989 6.26e-4 0.03125 0 0.0014-6.26e-4 0.02991-0.03057 0.03125-0.03125 0.0013-6.77e-4 0.02994 7.28e-4 0.03125 0 0.0013-7.28e-4 0.02997-0.03047 0.03125-0.03125 0.0013-7.77e-4 0.03 8.25e-4 0.03125 0 0.0013-8.25e-4 0.03003-0.03038 0.03125-0.03125 0.0012-8.72e-4 0.03007-0.03033 0.03125-0.03125 0.0012-9.18e-4 0.0301 9.62e-4 0.03125 0 0.0011-9.62e-4 0.03014-0.03025 0.03125-0.03125 0.0011-1e-3 0.03018-0.0302 0.03125-0.03125 5.36e-4 -5.23e-4 -0.0061-0.02505 0-0.03125h0.03125c1.3573-1.3602 4.625-4.5938 4.625-4.5938 9.39e-4 -8.9e-4 0.03034-0.03033 0.03125-0.03125 9.09e-4 -9.2e-4 0.03037-0.0303 0.03125-0.03125 8.47e-4 -9.77e-4 0.03043-0.03025 0.03125-0.03125 8.15e-4 -1e-3 0.03047-0.03022 0.03125-0.03125 7.81e-4 -1e-3 -7.47e-4 -0.03019 0-0.03125 7.47e-4 -0.0011 0.03054-0.03017 0.03125-0.03125 6.76e-4 -0.0011 0.03061-0.03013 0.03125-0.03125 6.4e-4 -0.0011-6.03e-4 -0.0301 0-0.03125 6.03e-4 -0.0011 0.03068-0.03009 0.03125-0.03125 5.65e-4 -0.0012-5.26e-4 -0.03007 0-0.03125 5.26e-4 -0.0012 0.03076-0.03005 0.03125-0.03125 4.87e-4 -0.0012-4.48e-4 -0.03004 0-0.03125 4.48e-4 -0.0012-4.08e-4 -0.03002 0-0.03125 4.08e-4 -0.0012 0.03088-0.03001 0.03125-0.03125 3.67e-4 -0.0012-3.26e-4 -0.03 0-0.03125 3.26e-4 -0.0013-2.85e-4 -0.02999 0-0.03125 2.85e-4 -0.0013-2.44e-4 -0.02998 0-0.03125 2.44e-4 -0.0013-2.02e-4 -0.02997 0-0.03125 2.02e-4 -0.0013 0.03109-0.02997 0.03125-0.03125 1.6e-4 -0.0013-1.18e-4 -0.02996 0-0.03125 1.18e-4 -0.0013-7.5e-5 -0.02996 0-0.03125 7.5e-5 -0.0013-3.3e-5 -0.02996 0-0.03125 3.3e-5 -0.0013 9e-6 -0.02996 0-0.03125-9e-6 -0.0013 5.2e-5 -0.02996 0-0.03125-5.2e-5 -0.0013 9.4e-5 -0.02996 0-0.03125-9.4e-5 -0.0013 1.36e-4 -0.02996 0-0.03125-1.36e-4 -0.0013-0.03107-0.02997-0.03125-0.03125-1.79e-4 -0.0013 2.2e-4 -0.02998 0-0.03125-2.2e-4 -0.0013 2.62e-4 -0.02998 0-0.03125-2.62e-4 -0.0013 3.04e-4 -0.02999 0-0.03125-3.04e-4 -0.0013 3.45e-4 -0.03 0-0.03125-3.45e-4 -0.0012-0.03086-0.03001-0.03125-0.03125-3.85e-4 -0.0012 4.26e-4 -0.03003 0-0.03125-4.26e-4 -0.0012 4.65e-4 -0.03004 0-0.03125-4.65e-4 -0.0012-0.03075 0.0012-0.03125 0-5.05e-4 -0.0012 5.43e-4 -0.03008 0-0.03125-5.43e-4 -0.0012 5.82e-4 -0.03009 0-0.03125-5.82e-4 -0.0012-0.03063-0.03011-0.03125-0.03125-6.19e-4 -0.0011 6.56e-4 -0.03014 0-0.03125-6.56e-4 -0.0011-0.03056-0.03016-0.03125-0.03125-6.92e-4 -0.0011-0.03052-0.03018-0.03125-0.03125-7.28e-4 -0.0011 7.62e-4 -0.0302 0-0.03125-7.62e-4 -1e-3 -0.03045 1e-3 -0.03125 0-7.96e-4 -1e-3 8.29e-4 -0.03026 0-0.03125-8.29e-4 -9.93e-4 -0.03039-0.03028-0.03125-0.03125-8.61e-4 -9.65e-4 -0.03036-0.03031-0.03125-0.03125-9.23e-4 -9.06e-4 -0.0303-0.03037-0.03125-0.03125-9.52e-4 -8.76e-4 -0.03027-0.03041-0.03125-0.03125-9.8e-4 -8.44e-4 -0.03024 8.11e-4 -0.03125 0-1e-3 -8.11e-4 1e-3 -0.03047 0-0.03125-1e-3 -7.78e-4 -0.03019-0.03051-0.03125-0.03125-0.0011-7.44e-4 -0.03017 7.09e-4 -0.03125 0-0.0011-7.09e-4 -0.03014-0.03058-0.03125-0.03125-0.0011-6.73e-4 -0.03012 6.36e-4 -0.03125 0-0.0011-6.36e-4 -0.0301-0.03065-0.03125-0.03125-0.0011-5.99e-4 -0.03008 5.61e-4 -0.03125 0-0.0012-5.22e-4 -0.03005-0.03077-0.03125-0.03125-0.0012-4.83e-4 -0.03003 4.44e-4 -0.03125 0-0.0012-4.44e-4 -0.03002-0.03085-0.03125-0.03125-0.0012-4.04e-4 -0.03001 3.63e-4 -0.03125 0-6.0986-1.7427-13.191-2.5807-19.5-3.5938-3.4254-7.7966-9.1508-17.283-9.1875-17.344-6.89e-4 -0.00129-0.03051-0.029986-0.03125-0.03125-7.37e-4 -0.00126 7.83e-4 -0.030015 0-0.03125-7.83e-4 -0.00124-0.03042-0.030044-0.03125-0.03125-8.28e-4 -0.00121-0.03038-0.030076-0.03125-0.03125-8.72e-4 -0.00117 9.15e-4 -0.030109 0-0.03125s-0.030293-0.030144-0.03125-0.03125-0.030253-0.03018-0.03125-0.03125-0.030214-0.030218-0.03125-0.03125c-0.001074-9.932e-4 -0.03014-0.030297-0.03125-0.03125s-0.030106-0.030339-0.03125-0.03125c-0.0011-9.109e-4 -0.03007-0.030382-0.03125-0.03125-0.0012-8.679e-4 -0.03004 8.236e-4 -0.03125 0-0.0012-8.236e-4 -0.03001-0.030472-0.03125-0.03125-0.0012-7.782e-4 -0.02998 7.318e-4 -0.03125 0-0.0013-7.318e-4 -0.02996-0.030566-0.03125-0.03125-0.0013-6.844e-4 -0.02993 6.36e-4 -0.03125 0-0.0013-6.36e-4 -0.02991-0.030663-0.03125-0.03125-0.0013-5.867e-4 -0.02989 5.366e-4 -0.03125 0-0.0014-5.366e-4 -0.02987-0.030764-0.03125-0.03125-0.0014-4.858e-4 -0.02985 4.343e-4 -0.03125 0s-0.02984 3.823e-4 -0.03125 0c-0.0014-3.823e-4 -0.02983-0.03092-0.03125-0.03125-0.0014-3.297e-4 -0.02981 2.766e-4 -0.03125 0-0.0014-2.766e-4 -0.06105 2.232e-4 -0.0625 0-0.0014-2.232e-4 -0.0298 1.694e-4 -0.03125 0-0.0015-1.694e-4 -0.02979 1.155e-4 -0.03125 0-0.0015-1.155e-4 -0.02979 6.13e-5 -0.03125 0-0.0015-6.13e-5 -0.02979-0.031243-0.03125-0.03125z" style="fill:url(#linearGradient3681);opacity:.8"/>
  <path id="path3675" transform="translate(.75713 -.75714)" d="m63.25-59.781c0.0609 0-0.07648-0.0208-0.3125 0.15625-0.23602 0.17705-0.55068 0.51357-0.90625 0.9375-0.71113 0.84786-1.5679 2.126-2.5 3.6875-1.8641 3.1229-4.0468 7.366-6.1875 11.688s-4.2592 8.7244-6.0625 12.219c-0.90164 1.7472-1.721 3.2567-2.4375 4.4375s-1.2202 2.0106-1.9375 2.5312c-0.71722 0.5206-1.6551 0.7468-3 1.0625s-3.0278 0.62102-4.9688 0.9375c-3.8819 0.63295-8.727 1.3023-13.5 2s-9.4841 1.4444-13.031 2.25c-1.7736 0.40279-3.2548 0.80522-4.2812 1.2188-0.5132 0.20676-0.91493 0.42428-1.1562 0.59375s-0.30028 0.27725-0.28125 0.21875c0.019029-0.05851-0.00172 0.09653 0.09375 0.375 0.095474 0.27847 0.26893 0.65667 0.5625 1.125 0.58714 0.93666 1.5518 2.1647 2.75 3.5312 2.3963 2.7331 5.767 6.1036 9.2188 9.4688s6.9812 6.71 9.75 9.5c1.3844 1.395 2.5974 2.6428 3.5 3.6875s1.507 1.8131 1.7812 2.6562c0.2742 0.8431 0.20917 1.7808 0.09375 3.1562s-0.35715 3.0894-0.65625 5.0312c-0.5982 3.8837-1.469 8.6874-2.2812 13.438s-1.5446 9.4437-1.875 13.062c-0.1652 1.8094-0.2324 3.3661-0.15625 4.4688 0.03808 0.55133 0.10088 0.99984 0.1875 1.2812s0.20568 0.34838 0.15625 0.3125c-0.0495-0.03593 0.04854 0.03588 0.34375 0.03125 0.29521-0.0046 0.74414-0.05335 1.2812-0.1875 1.0742-0.2683 2.5461-0.81544 4.2188-1.5312 3.3454-1.4316 7.5696-3.5737 11.844-5.8125s8.5792-4.576 12.094-6.3438c1.7573-0.8839 3.3195-1.6218 4.5938-2.1562s2.1763-0.90625 3.0625-0.90625 1.7891 0.37179 3.0625 0.90625 2.8379 1.2723 4.5938 2.1562c3.5117 1.7678 7.7923 4.105 12.062 6.3438s8.5326 4.3809 11.875 5.8125c1.6712 0.71579 3.1142 1.263 4.1875 1.5312 0.53665 0.13413 0.98633 0.18288 1.2812 0.1875 0.29492 0.0046 0.3931-0.06707 0.34375-0.03125-0.0494 0.03588 0.0696-0.03109 0.15625-0.3125 0.0866-0.28141 0.14942-0.72992 0.1875-1.2812 0.0761-1.1027 9e-3 -2.6594-0.15625-4.4688-0.3304-3.6188-1.0628-8.3124-1.875-13.062s-1.6831-9.5538-2.2812-13.438c-0.2991-1.9418-0.54083-3.6558-0.65625-5.0312s-0.18045-2.3132 0.09375-3.1562c0.27438-0.84366 0.87781-1.6115 1.7812-2.6562s2.1141-2.2925 3.5-3.6875c2.7718-2.79 6.2944-6.1349 9.75-9.5s6.8507-6.7357 9.25-9.4688c1.1996-1.3665 2.1621-2.5946 2.75-3.5312 0.29397-0.46834 0.46687-0.84657 0.5625-1.125 0.0956-0.27843 0.0746-0.43378 0.0937-0.375 0.0191 0.05877-0.0397-0.04924-0.28125-0.21875-0.24154-0.16951-0.6426-0.38697-1.1562-0.59375-1.0273-0.41357-2.5062-0.81595-4.2812-1.2188-3.5502-0.8056-8.2544-1.5523-13.031-2.25s-9.6152-1.3671-13.5-2c-1.9424-0.31647-3.6543-0.62181-5-0.9375s-2.2825-0.5417-3-1.0625c-0.71761-0.52088-1.2219-1.3504-1.9375-2.5312s-1.5373-2.6903-2.4375-4.4375c-1.8004-3.4944-3.9257-7.8972-6.0625-12.219s-4.295-8.5646-6.1562-11.688c-0.93061-1.5614-1.7897-2.8397-2.5-3.6875-0.35513-0.42388-0.67052-0.76054-0.90625-0.9375s-0.3734-0.15625-0.3125-0.15625z" style="fill:none;opacity:.4;stroke-linejoin:round;stroke-width:.99227;stroke:url(#linearGradient3677)"/>
  <path id="path11985-7" d="m28.5 50.869s16.097-4.4732 27.5-13m41.5 13s-11.891-3.7371-27.5-13" style="fill:none;opacity:.05;stroke-linecap:round;stroke-width:5;stroke:#fff"/>
  <path id="path11985-7-0" d="m28.5 51.945s16.097-4.4732 27.5-13m41.5 13s-11.891-3.7371-27.5-13" style="fill:none;opacity:.1;stroke-linecap:round;stroke-width:3;stroke:#fff"/>
  <path id="path11985-7-0-8" d="m28.5 53.022s16.097-4.4732 27.5-13m41.5 13s-11.891-3.7371-27.5-13" style="fill:none;opacity:.15;stroke-linecap:round;stroke:#fff"/>
  <path id="path2262" d="m89.5 22.5v-16.007h17v16.007h16.007v17h-16.007v16.007h-17v-16.007h-16.007v-17h16.007z" style="color:#000000;fill:url(#radialGradient2913);stroke-linecap:round;stroke-linejoin:round;stroke-width:.98543;stroke:url(#linearGradient2915)"/>
  <path id="path2272" d="m90.5 23.5v-16h15v16h16v15h-16v16h-15v-16h-16v-15h16z" style="fill:none;opacity:.4;stroke:url(#linearGradient2862)"/>
 </g>
</svg>
