<?xml version="1.0" encoding="UTF-8"?>
<!-- Created with Inkscape (http://www.inkscape.org/) -->
<svg id="svg3675" width="128" height="128" version="1.0" xmlns="http://www.w3.org/2000/svg" xmlns:xlink="http://www.w3.org/1999/xlink">
 <defs id="defs3677">
  <linearGradient id="linearGradient2407" x1="63.397" x2="63.397" y1="-12.489" y2="5.4676" gradientTransform="matrix(5.6434 0 0 5.6429 -286.51 83.309)" gradientUnits="userSpaceOnUse">
   <stop id="stop4875" style="stop-color:#fff" offset="0"/>
   <stop id="stop4877" style="stop-color:#fff;stop-opacity:0" offset="1"/>
  </linearGradient>
  <radialGradient id="radialGradient2410" cx="23.896" cy="3.99" r="20.397" gradientTransform="matrix(0 6.1021 -8.0553 0 96.659 -138.26)" gradientUnits="userSpaceOnUse">
   <stop id="stop2778" style="stop-color:#8badea" offset="0"/>
   <stop id="stop2780" style="stop-color:#6396cd" offset=".26238"/>
   <stop id="stop2782" style="stop-color:#3b7caf" offset=".66094"/>
   <stop id="stop2784" style="stop-color:#194c70" offset="1"/>
  </radialGradient>
  <linearGradient id="linearGradient2412" x1="18.379" x2="18.379" y1="44.98" y2="3.0816" gradientTransform="matrix(2.5569 0 0 2.5568 3.1524 2.1354)" gradientUnits="userSpaceOnUse">
   <stop id="stop2788" style="stop-color:#1f4b6a" offset="0"/>
   <stop id="stop2790" style="stop-color:#4083c2" offset="1"/>
  </linearGradient>
  <radialGradient id="radialGradient2415" cx="62.625" cy="4.625" r="10.625" gradientTransform="matrix(5.7751 0 0 2.0086 -297.14 94.223)" gradientUnits="userSpaceOnUse">
   <stop id="stop8840" offset="0"/>
   <stop id="stop8842" style="stop-opacity:0" offset="1"/>
  </radialGradient>
 </defs>
 <path id="path8836" d="m125.88 103.51c0 11.786-27.472 21.341-61.36 21.341-33.888 0-61.36-9.5548-61.36-21.341 0-11.786 27.472-21.341 61.36-21.341 33.888 0 61.36 9.5548 61.36 21.341z" style="fill-rule:evenodd;fill:url(#radialGradient2415);opacity:.5"/>
 <path id="path2555" d="m64.519 11.484c-28.702 0-52.018 23.315-52.018 52.014 0 28.7 23.316 52.014 52.018 52.014 28.702 0 52.018-23.315 52.018-52.014 0-28.7-23.316-52.014-52.018-52.014z" style="fill:url(#radialGradient2410);stroke-linecap:round;stroke-linejoin:round;stroke-width:.99915;stroke:url(#linearGradient2412)"/>
 <path id="path8655" d="m115.5 63.496c0 27.257-22.3 51.241-50.98 51.004-29.513-0.24532-50.674-23.749-51.02-51.004-0.35612-28.087 23.287-51.115 51.02-50.996 27.255 0.11666 50.98 21.96 50.98 50.996z" style="fill:none;opacity:.4;stroke-width:.99915;stroke:url(#linearGradient2407)"/>
 <g id="g3243" transform="matrix(2.67 0 0 2.67 136.44 -2.3532)">
  <path id="path3295" d="m-29.451 13.154c0.56298 5.4993 1.2079 10.961 1.6871 16.482h1.5294c0.39752-5.3018 1.0387-10.572 1.5012-15.867 0.23577-1.2538-0.40798-2.7425-1.732-3.0471-1.3083-0.38251-2.7701 0.56471-2.944 1.9178-0.02885 0.16985-0.04172 0.34224-0.04172 0.51446h-1e-6zm-0.16686 22.359c-0.05953 1.6369 1.7416 2.9201 3.2795 2.4012 1.4895-0.38015 2.2741-2.2523 1.5107-3.5831-0.68336-1.3756-2.6873-1.8289-3.84-0.77606-0.58269 0.47872-0.96891 1.1934-0.95015 1.958l-1e-6 -1e-6z" style="opacity:.2"/>
  <path id="text2315" d="m-29.451 13.555c0.56298 5.4993 1.2079 10.961 1.6871 16.482h1.5294c0.39752-5.3018 1.0387-10.572 1.5012-15.867 0.23577-1.2538-0.40798-2.7425-1.732-3.0471-1.3083-0.38252-2.7701 0.56471-2.944 1.9178-0.02885 0.16985-0.04172 0.34224-0.04172 0.51446h-1e-6zm-0.16686 22.359c-0.05953 1.6369 1.7416 2.9201 3.2795 2.4012 1.4895-0.38015 2.2741-2.2523 1.5107-3.5831-0.68336-1.3756-2.6873-1.8289-3.84-0.77606-0.58269 0.47872-0.96891 1.1934-0.95015 1.958l-1e-6 -1e-6z" style="fill:#fff"/>
 </g>
</svg>
