<?xml version="1.0" encoding="UTF-8" standalone="no"?>
<svg
   xmlns:dc="http://purl.org/dc/elements/1.1/"
   xmlns:cc="http://creativecommons.org/ns#"
   xmlns:rdf="http://www.w3.org/1999/02/22-rdf-syntax-ns#"
   xmlns:svg="http://www.w3.org/2000/svg"
   xmlns="http://www.w3.org/2000/svg"
   xmlns:xlink="http://www.w3.org/1999/xlink"
   version="1.1"
   width="48"
   height="48"
   id="svg18157">
  <defs
     id="defs18159">
    <linearGradient
       id="linearGradient4673">
      <stop
         offset="0"
         style="stop-color:#ffffff;stop-opacity:1"
         id="stop4675" />
      <stop
         offset="0.1"
         style="stop-color:#ffffff;stop-opacity:0.23529412"
         id="stop4677" />
      <stop
         offset="0.99001008"
         style="stop-color:#ffffff;stop-opacity:0.15686275"
         id="stop4679" />
      <stop
         offset="1"
         style="stop-color:#ffffff;stop-opacity:0.39215687"
         id="stop4681" />
    </linearGradient>
    <linearGradient
       x1="42.470848"
       y1="11.952797"
       x2="42.470848"
       y2="35.581654"
       id="linearGradient12489"
       xlink:href="#linearGradient3454-2-5-0-3"
       gradientUnits="userSpaceOnUse"
       gradientTransform="matrix(0.89189031,0,0,1.0986542,3.142773,3.887208)" />
    <linearGradient
       id="linearGradient3454-2-5-0-3">
      <stop
         id="stop3456-4-9-38-1"
         style="stop-color:#ffffff;stop-opacity:1"
         offset="0" />
      <stop
         id="stop3458-39-80-3-5"
         style="stop-color:#ffffff;stop-opacity:0.23529412"
         offset="0.0097359" />
      <stop
         id="stop3460-7-0-2-4"
         style="stop-color:#ffffff;stop-opacity:0.15686275"
         offset="0.99001008" />
      <stop
         id="stop3462-0-9-8-7"
         style="stop-color:#ffffff;stop-opacity:0.39215687"
         offset="1" />
    </linearGradient>
    <linearGradient
       x1="35.792694"
       y1="17.118193"
       x2="35.792694"
       y2="43.761127"
       id="linearGradient12481"
       xlink:href="#radialGradient2444"
       gradientUnits="userSpaceOnUse"
       gradientTransform="matrix(1,0,0,1.0357143,2.0849371e-6,-1.5890903)" />
    <radialGradient
       cx="605.71429"
       cy="486.64789"
       r="117.14286"
       fx="605.71429"
       fy="486.64789"
       id="radialGradient12475"
       xlink:href="#linearGradient5060-820-91-9-0"
       gradientUnits="userSpaceOnUse"
       gradientTransform="matrix(-0.03079083,0,0,0.02470588,23.389752,31.94164)" />
    <linearGradient
       id="linearGradient5060-820-91-9-0">
      <stop
         id="stop2681-778-5-1"
         style="stop-color:#000000;stop-opacity:1"
         offset="0" />
      <stop
         id="stop2683-2-86-2"
         style="stop-color:#000000;stop-opacity:0"
         offset="1" />
    </linearGradient>
    <radialGradient
       cx="605.71429"
       cy="486.64789"
       r="117.14286"
       fx="605.71429"
       fy="486.64789"
       id="radialGradient12471"
       xlink:href="#linearGradient5060-179-37-4-0"
       gradientUnits="userSpaceOnUse"
       gradientTransform="matrix(0.03079083,0,0,0.02470588,24.610252,31.94164)" />
    <linearGradient
       id="linearGradient5060-179-37-4-0">
      <stop
         id="stop2675-91-9-2"
         style="stop-color:#000000;stop-opacity:1"
         offset="0" />
      <stop
         id="stop2677-09-0-9"
         style="stop-color:#000000;stop-opacity:0"
         offset="1" />
    </linearGradient>
    <linearGradient
       x1="302.85715"
       y1="366.64789"
       x2="302.85715"
       y2="609.50507"
       id="linearGradient12467"
       xlink:href="#linearGradient5048-585-73-1-5"
       gradientUnits="userSpaceOnUse"
       gradientTransform="matrix(0.07938856,0,0,0.02470588,-4.6932879,31.94164)" />
    <linearGradient
       id="linearGradient5048-585-73-1-5">
      <stop
         id="stop2667-99-4-6"
         style="stop-color:#000000;stop-opacity:0"
         offset="0" />
      <stop
         id="stop2669-5-9-4"
         style="stop-color:#000000;stop-opacity:1"
         offset="0.5" />
      <stop
         id="stop2671-56-4-2"
         style="stop-color:#000000;stop-opacity:0"
         offset="1" />
    </linearGradient>
    <linearGradient
       x1="68.876045"
       y1="4.3915653"
       x2="68.876045"
       y2="32.746193"
       id="linearGradient12463"
       xlink:href="#linearGradient4673"
       gradientUnits="userSpaceOnUse"
       gradientTransform="matrix(0.89189031,0,0,1.0580283,-45.793073,5.3535997)" />
    <linearGradient
       id="linearGradient4646-7-4-3">
      <stop
         id="stop4648-8-0-3"
         style="stop-color:#f9f9f9;stop-opacity:1"
         offset="0" />
      <stop
         id="stop4650-1-7-3"
         style="stop-color:#d8d8d8;stop-opacity:1"
         offset="1" />
    </linearGradient>
    <linearGradient
       id="linearGradient3104-8-8-97-4-6-11-5-5">
      <stop
         id="stop3106-5-4-3-5-0-2-1-0"
         style="stop-color:#000000;stop-opacity:0.32173914"
         offset="0" />
      <stop
         id="stop3108-4-3-7-8-2-0-7-9"
         style="stop-color:#000000;stop-opacity:0.27826086"
         offset="1" />
    </linearGradient>
    <radialGradient
       id="radialGradient2444"
       gradientUnits="userSpaceOnUse"
       cy="14.113"
       cx="63.969002"
       gradientTransform="matrix(1.5647,-9.5143e-8,6.1772e-8,1.0159,-59.14917,8.1461003)"
       r="23.097">
      <stop
         id="stop3618"
         style="stop-color:#ADC980"
         offset="0" />
      <stop
         id="stop3270"
         style="stop-color:#87A752"
         offset="0.6875183" />
      <stop
         id="stop3620"
         style="stop-color:#688933"
         offset="1" />
    </radialGradient>
    <linearGradient
       x1="62.988873"
       y1="13"
       x2="62.988873"
       y2="16"
       id="linearGradient12459-6"
       xlink:href="#linearGradient4646-7-4-3"
       gradientUnits="userSpaceOnUse"
       gradientTransform="translate(-50.939545,0)" />
    <linearGradient
       xlink:href="#linearGradient3104-8-8-97-4-6-11-5-5"
       id="linearGradient4572"
       gradientUnits="userSpaceOnUse"
       gradientTransform="matrix(0.80749834,0,0,0.83374395,57.966199,-0.0698403)"
       x1="-51.786404"
       y1="53.514328"
       x2="-51.786404"
       y2="3.6336823" />
    <linearGradient
       gradientUnits="userSpaceOnUse"
       xlink:href="#linearGradient3679"
       id="linearGradient3698"
       y2="10.997566"
       x2="16.116789"
       y1="21.119221"
       x1="16.116789"
       gradientTransform="matrix(0.98798073,0,0,0.98798073,16.077103,16.134617)" />
    <linearGradient
       id="linearGradient3679">
      <stop
         offset="0"
         style="stop-color:#ffffff;stop-opacity:1"
         id="stop3681" />
      <stop
         offset="1"
         style="stop-color:#ffffff;stop-opacity:0"
         id="stop3683" />
    </linearGradient>
    <linearGradient
       gradientUnits="userSpaceOnUse"
       xlink:href="#linearGradient3679"
       id="linearGradient3688"
       y2="29.045145"
       x2="15.321168"
       y1="3"
       x1="15.321168"
       gradientTransform="translate(16.00018,16)" />
    <linearGradient
       gradientTransform="matrix(0.20430229,0,0,0.20430239,18.924827,19.12895)"
       gradientUnits="userSpaceOnUse"
       xlink:href="#linearGradient5128"
       id="linearGradient2836"
       y2="20.895"
       x2="84.63858"
       y1="105.105"
       x1="86.132919" />
    <linearGradient
       id="linearGradient5128">
      <stop
         offset="0"
         style="stop-color:#ffffff;stop-opacity:1"
         id="stop5130" />
      <stop
         offset="1"
         style="stop-color:#959595;stop-opacity:1"
         id="stop5132" />
    </linearGradient>
    <linearGradient
       gradientTransform="translate(1.00018,-1)"
       gradientUnits="userSpaceOnUse"
       xlink:href="#linearGradient3309"
       id="linearGradient2840"
       y2="47.012184"
       x2="32.036148"
       y1="19"
       x1="32.036148" />
    <linearGradient
       gradientUnits="userSpaceOnUse"
       id="linearGradient3309"
       y2="122.8994"
       x2="63.9995"
       y1="3.1001"
       x1="63.9995">
      <stop
         offset="0"
         style="stop-color:#f6f6f6;stop-opacity:1"
         id="stop3311" />
      <stop
         offset="1"
         style="stop-color:#d2d2d2;stop-opacity:1"
         id="stop3313" />
    </linearGradient>
    <radialGradient
       gradientTransform="matrix(2.2134617,0,0,0.4842001,17.163983,8.8552638)"
       gradientUnits="userSpaceOnUse"
       xlink:href="#linearGradient5060-820-91-9-0"
       id="radialGradient3751"
       fy="73.615715"
       fx="6.702713"
       r="7.228416"
       cy="73.615715"
       cx="6.702713" />
  </defs>
  <metadata
     id="metadata18162">
    <rdf:RDF>
      <cc:Work
         rdf:about="">
        <dc:format>image/svg+xml</dc:format>
        <dc:type
           rdf:resource="http://purl.org/dc/dcmitype/StillImage" />
        <dc:title />
      </cc:Work>
    </rdf:RDF>
  </metadata>
  <path
     style="color:#000000;clip-rule:nonzero;display:inline;overflow:visible;visibility:visible;opacity:1;isolation:auto;mix-blend-mode:normal;color-interpolation:sRGB;color-interpolation-filters:linearRGB;solid-color:#000000;solid-opacity:1;fill:url(#linearGradient12459-6);fill-opacity:1;fill-rule:nonzero;stroke:none;stroke-width:0.99992168;stroke-linecap:butt;stroke-linejoin:miter;stroke-miterlimit:4;stroke-dasharray:none;stroke-dashoffset:0;stroke-opacity:1;marker:none;color-rendering:auto;image-rendering:auto;shape-rendering:auto;text-rendering:auto;enable-background:accumulate;filter-blend-mode:normal;filter-gaussianBlur-deviation:0"
     d="M 3.5,9 C 3.223,9 3,9.223 3,9.5 l 0,8 C 3,17.777 3.223,18 3.5,18 l 41,0 c 0.277,0 0.5,-0.223 0.5,-0.5 l 0,-5 C 45,12.223 44.777,12 44.5,12 L 24,12 C 22,12 20,9 19,9 Z"
     id="rect4574" />
  <path
     d="m 3.5094139,8.5 c -0.6902,0.0077 -1.0001413,0.3421001 -1.0004,1 l -0.00901,9 43.0000001,0 0.0032,-5.993 c 3.53e-4,-0.658 -0.554,-1.008 -1.244,-1 l -20.256,0 c -2.047,0 -3.499,-3.007 -5,-3.007 z"
     style="color:#000000;clip-rule:nonzero;display:inline;overflow:visible;visibility:visible;opacity:0.8;isolation:auto;mix-blend-mode:normal;color-interpolation:sRGB;color-interpolation-filters:linearRGB;solid-color:#000000;solid-opacity:1;fill:none;fill-opacity:1;fill-rule:nonzero;stroke:url(#linearGradient4572);stroke-width:1;stroke-linecap:butt;stroke-linejoin:miter;stroke-miterlimit:4;stroke-dasharray:none;stroke-dashoffset:0;stroke-opacity:1;marker:none;color-rendering:auto;image-rendering:auto;shape-rendering:auto;text-rendering:auto;enable-background:accumulate"
     id="path3468-2" />
  <path
     style="color:#000000;display:inline;overflow:visible;visibility:visible;fill:none;stroke:url(#linearGradient12463);stroke-width:1;stroke-linecap:round;stroke-linejoin:round;stroke-miterlimit:4;stroke-dasharray:none;stroke-dashoffset:0;stroke-opacity:1;marker:none;enable-background:accumulate"
     d="m 3.5097656,9.5097656 0,7.9804684 40.9804684,0 0,-4.980468 -20.490234,0 c -1.255319,0 -2.313786,-0.855456 -3.207031,-1.621094 C 20.346346,10.505853 19.940397,10.131683 19.607422,9.8710938 19.274447,9.6105046 18.994681,9.5097656 19,9.5097656 Z"
     id="rect4251-9-21-7" />
  <rect
     style="display:inline;overflow:visible;visibility:visible;opacity:0.3;fill:url(#linearGradient12467);fill-opacity:1;fill-rule:nonzero;stroke:none;stroke-width:1;marker:none"
     id="rect4173-8-8"
     y="41"
     x="4.8333426"
     height="6.0000005"
     width="38.333332" />
  <path
     style="display:inline;overflow:visible;visibility:visible;opacity:0.3;fill:url(#radialGradient12471);fill-opacity:1;fill-rule:nonzero;stroke:none;stroke-width:1;marker:none"
     id="path5058-9-0"
     d="m 43.166672,41.00021 c 0,0 0,5.99967 0,5.99967 1.58565,0.0113 3.83333,-1.34422 3.83333,-3.00022 0,-1.656 -1.76947,-2.99945 -3.83333,-2.99945 z" />
  <path
     style="display:inline;overflow:visible;visibility:visible;opacity:0.3;fill:url(#radialGradient12475);fill-opacity:1;fill-rule:nonzero;stroke:none;stroke-width:1;marker:none"
     id="path5018-6-6"
     d="m 4.8333321,41.00021 c 0,0 0,5.99967 0,5.99967 -1.58565,0.0113 -3.83333,-1.34422 -3.83333,-3.00022 0,-1.656 1.76947,-2.99945 3.83333,-2.99945 z" />
  <path
     style="fill:url(#linearGradient12481);fill-opacity:1;stroke:none"
     id="path3388-7-1"
     d="m 2.1626121,15.50019 c -1.07231,0.12829 -0.49959,1.45416 -0.58508,2.19974 0.12444,0.48182 0.92748,26.17643 0.92748,26.17643 0,0.7414 0.35172,0.61579 1.24292,0.61579 13.1885599,0 27.7725299,0 40.9610899,0 0.96008,0.0231 0.75718,0.0121 0.75718,-0.62748 0,0 0.99298,-27.35421 1.0285,-27.7811 0,-0.44949 0.0902,-0.58338 -0.47316,-0.58338 -14.08405,0 -29.77488,0 -43.8589299,0 z" />
  <path
     style="color:#000000;display:inline;overflow:visible;visibility:visible;opacity:0.5;fill:none;stroke:url(#linearGradient12489);stroke-width:1.00000012;stroke-linecap:round;stroke-linejoin:miter;stroke-miterlimit:4;stroke-dasharray:none;stroke-dashoffset:0;stroke-opacity:1;marker:none;enable-background:accumulate"
     id="path4587-3-5"
     d="m 2.5221121,16.499999 c 0.016793,0.183202 0.022163,0.537823 0.03125,0.908598 0.023112,0.08973 0.025524,0.06151 0.03125,0.09735 0.011058,0.06921 0.027034,0.143566 0.03125,0.1947 0.0064,0.07761 -0.00668,0.179686 0,0.292049 0.013352,0.224726 0.045306,0.530459 0.0625,0.908598 0.034388,0.756279 0.078083,1.7745 0.125,3.017843 0.093834,2.486687 0.2030642,5.769016 0.3125,9.02108 0.2122959,6.308724 0.3945663,12.188203 0.40625,12.558123 0.1225025,0.0037 0.071108,0 0.25,0 l 40.7187499,0 c 0.0124,-0.341463 0.253182,-6.673493 0.5,-13.401821 0.126691,-3.453636 0.245386,-6.941969 0.34375,-9.572728 0.04918,-1.31538 0.09434,-2.421026 0.125,-3.212543 0.01322,-0.341237 0.02246,-0.594976 0.03125,-0.811249 l -42.9687499,0 z" />
  <path
     style="opacity:0.3;fill:none;stroke:#000000;stroke-width:1;stroke-linecap:round;stroke-linejoin:round;stroke-miterlimit:4;stroke-dashoffset:0;stroke-opacity:1"
     id="path3388-7-1-7"
     d="m 2.1626121,15.50019 c -1.07231,0.12829 -0.49959,1.45416 -0.58508,2.19974 0.12444,0.48182 0.92748,26.17643 0.92748,26.17643 0,0.7414 0.35172,0.61579 1.24292,0.61579 13.1885599,0 27.7725299,0 40.9610899,0 0.96008,0.0231 0.75718,0.0121 0.75718,-0.62748 0,0 0.99298,-27.35421 1.0285,-27.7811 0,-0.44949 0.0902,-0.58338 -0.47316,-0.58338 -14.08405,0 -29.77488,0 -43.8589299,0 z" />
  <rect
     x="5"
     y="10"
     width="13"
     height="2"
     ry="1"
     rx="1"
     style="display:block;fill:#87a752"
     id="rect3562" />
  <path
     d="M 48,44.5 C 48,46.432997 40.836636,48 32.00018,48 23.163723,48 16.00036,46.432997 16.00036,44.5 16.00036,42.567004 23.163723,41 32.00018,41 40.836636,41 48,42.567004 48,44.5 Z"
     id="path10689"
     style="display:inline;overflow:visible;visibility:visible;opacity:0.2;fill:url(#radialGradient3751);fill-opacity:1;fill-rule:nonzero;stroke:none;stroke-width:0.80000001;marker:none" />
  <path
     d="m 29.875181,18.5 c -0.748739,0 -1.375,0.595012 -1.375,1.34375 l 0,1.75 c -0.473402,0.158876 -0.932751,0.343406 -1.375,0.5625 L 25.90643,20.9375 c -0.529439,-0.529438 -1.376812,-0.529438 -1.90625,0 l -3.0625,3.03125 c -0.529439,0.529438 -0.529436,1.376813 0,1.90625 l 1.21875,1.21875 c -0.224327,0.449932 -0.400632,0.923932 -0.5625,1.40625 l -1.71875,0 c -0.748739,0 -1.375002,0.595012 -1.375,1.34375 l 0,4.3125 c -1e-6,0.748738 0.626264,1.343752 1.375,1.34375 l 1.71875,0 c 0.161868,0.482318 0.338173,0.956318 0.5625,1.40625 L 20.93768,38.125 c -0.529439,0.529438 -0.52944,1.376812 0,1.90625 l 3.0625,3.03125 c 0.529437,0.529438 1.376813,0.529436 1.90625,0 l 1.218751,-1.21875 c 0.442249,0.219094 0.901598,0.403624 1.375,0.5625 l 0,1.75 c -1e-6,0.748738 0.626266,1.343752 1.375,1.34375 l 4.28125,0 c 0.748739,0 1.34375,-0.595014 1.34375,-1.34375 l 0,-1.75 c 0.482318,-0.161868 0.956318,-0.338173 1.40625,-0.5625 l 1.218749,1.21875 c 0.529439,0.529438 1.376811,0.529438 1.90625,0 l 3.0625,-3.03125 c 0.529439,-0.529438 0.529434,-1.376814 0,-1.90625 l -1.25,-1.25 c 0.219094,-0.442249 0.403624,-0.901598 0.5625,-1.375 l 1.75,0 c 0.748739,0 1.34375,-0.595014 1.34375,-1.34375 l 0,-4.3125 C 45.500181,29.095012 44.905164,28.5 44.15643,28.5 l -1.75,0 c -0.158876,-0.473402 -0.343406,-0.932751 -0.5625,-1.375 l 1.25,-1.25 c 0.529439,-0.529438 0.529438,-1.376812 0,-1.90625 l -3.0625,-3.03125 c -0.529437,-0.529438 -1.376814,-0.529438 -1.90625,0 l -1.218749,1.21875 c -0.449932,-0.224327 -0.923932,-0.400632 -1.40625,-0.5625 l 0,-1.75 C 35.500182,19.095012 34.905165,18.5 34.156431,18.5 l -4.28125,0 z m 2.125,10 c 1.932,0 3.5,1.568 3.5,3.5 0,1.932 -1.568,3.5 -3.5,3.5 -1.932001,0 -3.5,-1.568 -3.5,-3.5 -1e-6,-1.932 1.568,-3.5 3.5,-3.5 z"
     id="rect2576"
     style="display:block;overflow:visible;visibility:visible;fill:url(#linearGradient2840);fill-opacity:1;fill-rule:nonzero;stroke:none;stroke-width:1;stroke-linecap:butt;stroke-linejoin:round;stroke-miterlimit:4;stroke-dasharray:none;stroke-dashoffset:0;stroke-opacity:1;marker:none;enable-background:accumulate" />
  <path
     d="m 32.00018,24 c -4.411273,0 -8,3.588727 -8,8 0,4.411274 3.588727,8 8,8 4.411273,0 8,-3.588726 8,-8 0,-4.411273 -3.588727,-8 -8,-8 z m 0,5 c 1.656854,0 3,1.343146 3,3 0,1.656854 -1.343146,3 -3,3 -1.656854,0 -3,-1.343146 -3,-3 0,-1.656854 1.343146,-3 3,-3 z"
     id="path3315"
     style="opacity:0.05;fill:#000000;fill-opacity:1;stroke:none" />
  <path
     d="m 32.000179,23.5 c -4.686902,0 -8.499999,3.813099 -8.499999,8.499999 0,4.686901 3.813097,8.500001 8.499999,8.500001 4.686903,0 8.500001,-3.8131 8.500001,-8.500001 0,-4.6869 -3.813098,-8.499999 -8.500001,-8.499999 z"
     id="path28"
     style="fill:none;stroke:url(#linearGradient2836);stroke-width:1;stroke-miterlimit:4;stroke-dasharray:none" />
  <path
     d="m 29.87518,19.5 c -0.639758,0.139596 -0.281426,0.969754 -0.375,1.446837 0.04636,0.59677 0.0119,1.38713 -0.6875,1.584413 -0.765238,0.160626 -1.646003,1.018213 -2.375,0.3125 -0.505604,-0.426242 -0.887673,-1.058867 -1.484375,-1.334961 -0.540708,0.275199 -0.931229,0.875894 -1.415477,1.285579 -0.65407,0.678004 -1.37691,1.301248 -1.98744,2.013921 -0.03807,0.538686 0.615693,0.808574 0.906792,1.211211 0.500737,0.379751 0.917304,1.057877 0.503779,1.658859 -0.339832,0.659737 -0.388507,1.81868 -1.367029,1.821641 -0.658228,0.0529 -1.36834,-0.113773 -1.989806,0.09868 -0.222226,0.620609 -0.04917,1.345745 -0.103944,2.01001 0.01778,0.893676 -0.03584,1.794436 0.02726,2.683617 0.377115,0.391003 1.023832,0.133059 1.524364,0.207694 0.638779,-0.09371 1.423157,0.122058 1.537735,0.85939 0.175199,0.712662 0.929243,1.558244 0.25439,2.23436 -0.420356,0.500498 -1.049844,0.87899 -1.321691,1.467284 0.285263,0.600214 0.922398,0.985095 1.357324,1.49305 0.644873,0.63134 1.297318,1.296541 1.934702,1.908072 0.551298,0.04116 0.827449,-0.620606 1.236665,-0.919156 0.380101,-0.501806 1.060094,-0.917737 1.661198,-0.502471 0.649426,0.341936 1.787769,0.400533 1.788052,1.365721 0.05574,0.659036 -0.119745,1.379822 0.103948,1.995071 0.710824,0.211082 1.509181,0.0466 2.256608,0.09868 0.813909,-0.01488 1.632306,0.02982 2.443405,-0.02238 0.37768,-0.362795 0.119997,-1.008529 0.196039,-1.497998 -0.0551,-0.577962 0.02332,-1.324829 0.6875,-1.510874 0.777573,-0.148764 1.668777,-1.021335 2.40625,-0.3125 0.505604,0.426242 0.887673,1.058866 1.484375,1.334961 0.540708,-0.275199 0.931229,-0.875894 1.415477,-1.285579 0.654069,-0.678004 1.37691,-1.301247 1.987439,-2.013921 0.03807,-0.538686 -0.615692,-0.808574 -0.906791,-1.211211 -0.506655,-0.389766 -0.962574,-1.072006 -0.533721,-1.692448 0.341936,-0.649426 0.400533,-1.787769 1.365721,-1.788052 0.664013,-0.04719 1.374293,0.101475 2.00543,-0.08832 0.191498,-0.733903 0.03991,-1.547672 0.08832,-2.314525 -0.01434,-0.799853 0.02907,-1.604056 -0.02238,-2.401113 -0.362794,-0.377684 -1.008528,-0.12 -1.497997,-0.196042 -0.642943,0.08985 -1.445587,-0.10069 -1.566443,-0.850505 -0.188353,-0.702416 -0.928196,-1.541967 -0.25693,-2.211995 0.435917,-0.462193 0.929463,-0.876983 1.329618,-1.36859 0.02577,-0.54312 -0.619513,-0.80801 -0.915874,-1.209133 -0.783763,-0.76948 -1.576749,-1.572176 -2.35283,-2.321933 -0.551298,-0.04116 -0.827448,0.620606 -1.236664,0.919156 -0.379751,0.500737 -1.057877,0.917304 -1.658859,0.503779 -0.659737,-0.339832 -1.81868,-0.388507 -1.821641,-1.367029 -0.04719,-0.664012 0.101477,-1.374293 -0.08832,-2.005428 -0.733901,-0.191503 -1.547671,-0.03991 -2.314523,-0.08832 -0.740718,0 -1.481437,0 -2.222155,0 z"
     id="path2901"
     style="display:block;overflow:visible;visibility:visible;opacity:0.8;fill:none;stroke:url(#linearGradient3688);stroke-width:1;stroke-linecap:butt;stroke-linejoin:round;stroke-miterlimit:4;stroke-dasharray:none;stroke-dashoffset:0;stroke-opacity:1;marker:none;enable-background:accumulate" />
  <path
     d="m 36.50018,32 a 4.5000003,4.5000003 0 0 1 -9,0 4.5000003,4.5000003 0 1 1 9,0 z"
     id="path3690"
     style="color:#000000;display:inline;overflow:visible;visibility:visible;opacity:0.4;fill:none;stroke:url(#linearGradient3698);stroke-width:1;stroke-linecap:butt;stroke-linejoin:miter;stroke-miterlimit:4;stroke-dasharray:none;stroke-dashoffset:0;stroke-opacity:1;marker:none;enable-background:accumulate" />
  <path
     d="m 29.875181,18.5 c -0.748739,0 -1.375,0.595012 -1.375,1.34375 l 0,1.75 c -0.473402,0.158876 -0.932751,0.343406 -1.375,0.5625 L 25.90643,20.9375 c -0.529439,-0.529438 -1.376812,-0.529438 -1.90625,0 l -3.0625,3.03125 c -0.529439,0.529438 -0.529436,1.376813 0,1.90625 l 1.21875,1.21875 c -0.224327,0.449932 -0.400632,0.923932 -0.5625,1.40625 l -1.71875,0 c -0.748739,0 -1.375002,0.595012 -1.375,1.34375 l 0,4.3125 c -1e-6,0.748738 0.626264,1.343752 1.375,1.34375 l 1.71875,0 c 0.161868,0.482318 0.338173,0.956318 0.5625,1.40625 L 20.93768,38.125 c -0.529439,0.529438 -0.52944,1.376812 0,1.90625 l 3.0625,3.03125 c 0.529437,0.529438 1.376813,0.529436 1.90625,0 l 1.218751,-1.21875 c 0.442249,0.219094 0.901598,0.403624 1.375,0.5625 l 0,1.75 c -1e-6,0.748738 0.626266,1.343752 1.375,1.34375 l 4.28125,0 c 0.748739,0 1.34375,-0.595014 1.34375,-1.34375 l 0,-1.75 c 0.482318,-0.161868 0.956318,-0.338173 1.40625,-0.5625 l 1.218749,1.21875 c 0.529439,0.529438 1.376811,0.529438 1.90625,0 l 3.0625,-3.03125 c 0.529439,-0.529438 0.529434,-1.376814 0,-1.90625 l -1.25,-1.25 c 0.219094,-0.442249 0.403624,-0.901598 0.5625,-1.375 l 1.75,0 c 0.748739,0 1.34375,-0.595014 1.34375,-1.34375 l 0,-4.3125 C 45.500181,29.095012 44.905164,28.5 44.15643,28.5 l -1.75,0 c -0.158876,-0.473402 -0.343406,-0.932751 -0.5625,-1.375 l 1.25,-1.25 c 0.529439,-0.529438 0.529438,-1.376812 0,-1.90625 l -3.0625,-3.03125 c -0.529437,-0.529438 -1.376814,-0.529438 -1.90625,0 l -1.218749,1.21875 c -0.449932,-0.224327 -0.923932,-0.400632 -1.40625,-0.5625 l 0,-1.75 C 35.500182,19.095012 34.905165,18.5 34.156431,18.5 l -4.28125,0 z m 2.125,10 c 1.932,0 3.5,1.568 3.5,3.5 0,1.932 -1.568,3.5 -3.5,3.5 -1.932001,0 -3.5,-1.568 -3.5,-3.5 -1e-6,-1.932 1.568,-3.5 3.5,-3.5 z"
     id="rect2576-7"
     style="display:block;overflow:visible;visibility:visible;fill:none;fill-opacity:1;fill-rule:nonzero;stroke:#000000;stroke-width:1;stroke-linecap:butt;stroke-linejoin:round;stroke-miterlimit:4;stroke-dasharray:none;stroke-dashoffset:0;stroke-opacity:1;marker:none;enable-background:accumulate;color:#000000;clip-rule:nonzero;opacity:0.3;isolation:auto;mix-blend-mode:normal;color-interpolation:sRGB;color-interpolation-filters:linearRGB;solid-color:#000000;solid-opacity:1;filter-blend-mode:normal;filter-gaussianBlur-deviation:0;color-rendering:auto;image-rendering:auto;shape-rendering:auto;text-rendering:auto" />
</svg>
