<?xml version="1.0" encoding="UTF-8"?>
<!-- Created with Inkscape (http://www.inkscape.org/) -->
<svg id="svg3196" width="22" height="22" version="1.0" xmlns="http://www.w3.org/2000/svg">
 <rect id="rect2388" transform="rotate(-90)" x="-18.5" y="15.599" width="14" height="5.9014" rx="0" ry="0" style="fill:none;stroke-linecap:square;stroke:#969696"/>
 <rect id="rect3162" transform="rotate(-90)" x="-17" y="17" width="11" height="3" style="fill:#878787"/>
 <path id="rect3160" d="m17.5 4v-1.5h1.9999v1.5" style="fill:none;stroke-linecap:square;stroke:#969696"/>
 <rect id="rect2832" transform="rotate(-90)" x="-18.5" y=".599" width="7.9578" height="12.951" rx="0" ry="0" style="fill:none;stroke-linecap:square;stroke:#969696"/>
 <path id="path2834" d="m10.5 12.5h1" style="fill:none;stroke-linecap:square;stroke:#969696"/>
 <path id="path2836" d="m10.5 14.5h1" style="fill:none;stroke-linecap:square;stroke:#969696"/>
 <path id="path2838" d="m3.5004 16.5h5.9996" style="fill:none;stroke-linecap:square;stroke:#969696"/>
 <rect id="rect3645" transform="rotate(-90)" x="-13" y="2.0004" width="1" height="1" style="fill:#969696"/>
 <rect id="rect3647" transform="rotate(-90)" x="-13" y="4.0004" width="1" height="1" style="fill:#969696"/>
 <rect id="rect3649" transform="rotate(-90)" x="-13" y="6.0004" width="1" height="1" style="fill:#969696"/>
 <rect id="rect3651" transform="rotate(-90)" x="-15" y="2.0004" width="1" height="1" style="fill:#969696"/>
 <rect id="rect3653" transform="rotate(-90)" x="-15" y="4.0004" width="1" height="1" style="fill:#969696"/>
 <rect id="rect3655" transform="rotate(-90)" x="-15" y="6.0004" width="1" height="1" style="fill:#969696"/>
 <rect id="rect3657" transform="rotate(-90)" x="-13" y="8.0004" width="1" height="1" style="fill:#969696"/>
 <rect id="rect3659" transform="rotate(-90)" x="-15" y="8.0004" width="1" height="1" style="fill:#969696"/>
</svg>
