/* XPM */
static char *display_im6_q16[] = {
/* columns rows colors chars-per-pixel */
"32 32 174 2 ",
"   c #29D723563590",
".  c #5B7C1E7820C2",
"X  c #7BFA1D74258F",
"o  c #7720237C3590",
"O  c #765D4C613BAE",
"+  c #1E6D22FE51FD",
"@  c #249C25654AE6",
"#  c #21FC24194120",
"$  c #2DA132B74E44",
"%  c #39D73AA645A5",
"&  c #2256293B5F53",
"*  c #25C227595442",
"=  c #3CC63FBC5F3B",
"-  c #248D2A606490",
";  c #27D82E6467C5",
":  c #304E2CF1648B",
">  c #2FF1373E66DB",
",  c #39613B786A45",
"<  c #24DA2E2F7029",
"1  c #285233F67BC1",
"2  c #25E7336A79CE",
"3  c #31F83DD17921",
"4  c #30243B8F748A",
"5  c #3FED3DE25683",
"6  c #4F34480E4EAA",
"7  c #59DB46D64461",
"8  c #5FDF5AB64E7C",
"9  c #4B714ADC5976",
"0  c #518747E351EF",
"q  c #64A857644BAB",
"w  c #7EA153D9416F",
"e  c #65B865315A0C",
"r  c #7C8B718F5CB7",
"t  c #440246AB66F1",
"y  c #517E583D6F8C",
"u  c #583A591B6846",
"i  c #4B054F9B7584",
"p  c #43594C617939",
"a  c #4C4952AA796B",
"s  c #5A2B5F147937",
"d  c #64335CDD600C",
"f  c #558161477D43",
"g  c #5BF765587804",
"h  c #632763C6661D",
"j  c #6BD46B106E05",
"k  c #659E65FA6810",
"l  c #71D06D026B89",
"z  c #78F36A8E6C58",
"x  c #6DB7750D6200",
"c  c #6CAA6C31730A",
"v  c #6A0C663471E8",
"b  c #72EB72B379C3",
"n  c #7BCC7B1C7BB6",
"m  c #76977609764C",
"M  c #85F145AB345E",
"N  c #813850DE3B4F",
"B  c #BCE561D53CA8",
"V  c #A21A5B6D44F0",
"C  c #9BAB600740F5",
"Z  c #852E723B4A7C",
"A  c #8BBF6529543B",
"S  c #8DFA7F0D5B26",
"D  c #B7F6675E4532",
"F  c #AD1675945D33",
"G  c #B33B714A55EE",
"H  c #892D6E2961DE",
"J  c #884075486C61",
"K  c #943E76506E20",
"L  c #A06B60E362B3",
"P  c #A53B7C226C50",
"I  c #B3BB76FC7924",
"U  c #C3A96EB049A5",
"Y  c #C73171D44CE3",
"T  c #C595783858A1",
"R  c #FFFF6D7D6D7D",
"E  c #FFFF72937293",
"W  c #FFFF7E4E7E4E",
"Q  c #901680BC5B00",
"!  c #A5548DE44D04",
"~  c #A1E48CB550A2",
"^  c #878A804D7E26",
"/  c #9EB684A078A8",
"(  c #2ACE39E183C2",
")  c #29B239B78B17",
"_  c #2874352D81B8",
"`  c #302A3EDC8665",
"'  c #2A163BFC92A2",
"]  c #32FE40AE8359",
"[  c #3C95490E82FF",
"{  c #389246168B8F",
"}  c #41D04E418624",
"|  c #471D509B82E4",
" . c #5BC161B581CF",
".. c #6293689E8148",
"X. c #635E697B8AB0",
"o. c #6E93728D87EE",
"O. c #7CFE7CFA877E",
"+. c #751B7A0595E8",
"@. c #7FA683F69C57",
"#. c #88198501861B",
"$. c #8704888C93AF",
"%. c #8E5490FA9A3A",
"&. c #95D0953B9640",
"*. c #9A5499399B35",
"=. c #AC5B9097844A",
"-. c #BDEE99F88A54",
";. c #A3239BFE9C12",
":. c #BACFBA19963A",
">. c #B6E9B64491AF",
",. c #8FA592E7A1A8",
"<. c #9A5F9C4BA675",
"1. c #A45FA2EDA298",
"2. c #A8E5A76CA7A9",
"3. c #AEC7AD16AC59",
"4. c #A4BAA6D3B31F",
"5. c #A81CAA62B793",
"6. c #B5D2B561B54E",
"7. c #BB22BA41BAFF",
"8. c #B84FB5AEB0ED",
"9. c #FFFE83388300",
"0. c #FFFF8B2D8B22",
"q. c #FFFF94179417",
"w. c #FFFF9B729B72",
"e. c #C8ACB82A9F14",
"r. c #C18EB454AE4D",
"t. c #D233B928ADAB",
"y. c #C08CBF64BFB3",
"u. c #CB71B899B52F",
"i. c #FFFEA75EA75E",
"p. c #FFFEA9F8A9DB",
"a. c #C37CC2F8A681",
"s. c #C60CC58DAA6F",
"d. c #CC3BCBCEB539",
"f. c #D14FD0EFBD95",
"g. c #DEF0D594B779",
"h. c #BB62BD9FC8F2",
"j. c #C3F8C354C35D",
"k. c #C878C795C71A",
"l. c #C7ABC8A5CDE9",
"z. c #D5ABD555C482",
"x. c #DBF5DBAFCE6A",
"c. c #C847C9B0D0F2",
"v. c #CD70CE24D215",
"b. c #D516D4FED644",
"n. c #DB0ADB39DC9B",
"m. c #D4C7D579D93C",
"M. c #FFFEC3EAC3C8",
"N. c #FFFBCEF7CEF7",
"B. c #FF94C9D2C05C",
"V. c #E580DD23D945",
"C. c #FFFFD4CFD4CF",
"Z. c #FF43DC33DC12",
"A. c #E743E13CCDDD",
"S. c #E53FE465DCBD",
"D. c #EE8BE9EFDBBB",
"F. c #FF98E6B4D330",
"G. c #FF70F5FFDAB2",
"H. c #FF70F89DDD75",
"J. c #E5A7E49CE4A4",
"K. c #EAF7E9EFE42E",
"L. c #E6F0E73AE923",
"P. c #ED14ECF5ED50",
"I. c #FED0EE07EDCB",
"U. c #FFFDE5D9E571",
"Y. c #FF93FA6AE5DD",
"T. c #F338F265EF32",
"R. c #FF32FB7EECDD",
"E. c #FA8BF4DEE3BB",
"W. c #F51FF4FBF443",
"Q. c #FE1AF5F0F5B7",
"!. c #FFADFD62F45B",
"~. c #F7FFF815F8A5",
"^. c #FF9FFF8BFF71",
"/. c None",
/* pixels */
"/.^.^.^.^.^.^.~.^.^.R.!.^.!.~.^.^.^.^.^.^.^.^.^.^.^.^.^.^.^.^.^.",
"/.^.^.^.Y.^.^.:.K.^.^.^.!.!.z.s.^.^.!.^.^.^.^.^.^.^.^.^.^.^.^.^.",
"/.^.^.^.!.^.^.T.~.Z.C.C.Q.^.Q.I.^.^.Y.^.^.^.^.^.^.^.^.^.^.^.^.^.",
"/.^.^.W.f.^.^.Q.Q.q.E W E q.0.i.Z.U.^.^.^.^.^.^.^.^.^.^.^.^.^.^.",
"/.^.^.W.f.Q.Z.W p.p.w.p.w.9.E 0.w.W M.^.!.^.^.^.^.^.^.~.L.8.7.^.",
"/.G.^.^.^.N.9.9.B.Y.^.^.^.Z.Z.I.M.0.C.^.R.^.^.^.^.^.L.,.r l W.^.",
"/.^.^.^.M.R 9.i.T.:.^.f.d.^.^.^.^.G.^.W.z.^.^.^.W.5. .x 8 k.^.^.",
"/.^.^.I.q.W F.^.^.S.T.P.W.^.~.x.^.^.^.P.f.^.^.L.+.! v 9 m ~.^.^.",
"/.>.T.i.0.U.!.^.a.K.E.A.S.a.W.a.~.^.^.^.^.^.n.g [ ~ d = v.^.^.^.",
"/.S.Z.q.i.^.Y.!.S.~.Y.g.W.K.^.^.^.H.^.^.^.n.c g f g = #.!.^.^.^.",
"/.^.I.M.N.^.^.^.^.^.^.D.D.^.^.^.^.^.^.^.P...! { | h 8 b.^.^.^.^.",
"/.^.^.^.^.^.^.^.^.^.^.~.g.^.^.^.^.^.^.~.%.[ Q Q Q Z l !.^.^.^.^.",
"/.^.^.^.^.x.S.^.^.^.^.^.D.r.t.L.^.^.~.$.8 k h x y = b ^.^.^.^.^.",
"/.^.^.^.^.S.K.^.^.^.^.^.A.C D K 4.^.~.c w Y O O q 7 #.^.^.^.^.^.",
"/.^.^.^.^.^.^.^.^.^.^.^.!.=.B V i W.^.u.J D z F Y J h ~.^.^.^.^.",
"/.^.^.^.^.^.^.^.^.^.^.^.^.W.z M , h.^.r.r.-./ T D A =.^.^.^.^.^.",
"/.^.^.^.^.^.^.^.^.^.^.^.^.~.i @ 1 | v.3.7.j.3.G P H S.^.^.^.^.^.",
"/.^.^.^.^.^.^.^.^.^.^.^.^.~.i + 1 ' [ ,.~.P.K.J.1.3.^.^.^.^.^.^.",
"/.^.^.^.^.^.^.^.^.^.^.^.^.~.X.& < ) ' X.~.^.^.W.2.;.^.^.^.^.^.^.",
"/.^.^.^.^.^.^.^.^.^.^.^.^.^.l.o.t ; ( p W.^.^.~.7.m P.^.^.^.^.^.",
"/.^.^.^.^.^.^.^.^.^.^.^.^.^.^.^.P.$.; 3 n.^.^.^.b.j  .c.W.^.^.^.",
"/.^.^.^.^.^.^.^.^.^.^.^.^.^.^.^.^.~.$._ <.^.^.^.L.*.4 `  .W.^.^.",
"/.^.^.^.^.^.^.^.^.^.^.^.^.^.^.^.^.^.v.3 a W.^.^.~.k.u 2 > L.^.^.",
"/.^.^.^.^.^.^.^.^.^.^.^.^.^.^.^.^.^.L.3 ( 4.~.^.^.L.&.> t W.^.^.",
"/.^.^.^.^.^.^.^.^.^.^.^.^.^.^.^.^.^.W.p ' [ b.^.^.W.7.u c ~.^.^.",
"/.^.^.^.^.^.^.^.^.^.^.^.^.^.^.^.^.^.~. .' ) | v.W.P.7.#.N V.^.^.",
"/.^.^.^.^.^.^.^.^.^.^.^.^.^.^.^.^.^.^.,.) ' ' ` s b j 9 0 K.^.^.",
"/.^.^.^.^.^.^.^.^.^.^.^.^.^.^.^.^.^.^.m.] ' ' ' ' ) ( _ & y n.^.",
"/.^.^.^.^.^.^.^.^.^.^.^.^.^.^.^.^.^.^.~.+.) ' ' ' ' ' ) < * O.^.",
"/.^.^.^.^.^.^.^.^.^.^.^.^.^.^.^.^.^.^.^.I o : ) ' ' ) 1 - @ 0 y.",
"/.^.^.^.^.^.^.^.^.^.^.^.^.^.^.^.^.^.^.^.u.L 7 % $ * @ #   X . n ",
"/.^.^.^.^.^.^.^.^.^.^.^.^.^.^.^.^.^.^.^.^.^.P.b.6.&.n b &.;.;.n."
};
