/* XPM */
static char *ubiquity[] = {
/* columns rows colors chars-per-pixel */
"32 32 218 2 ",
"   c #000000",
".  c #020202",
"X  c #0A0A0A",
"o  c #2F5000",
"O  c #3F6B00",
"+  c #424242",
"@  c #4A4A4A",
"#  c #4B4B4B",
"$  c #4D4C4C",
"%  c #545353",
"&  c #565656",
"*  c #575757",
"=  c #585858",
"-  c #595858",
";  c #595959",
":  c #5A5959",
">  c #5A5A5A",
",  c #5B5A5A",
"<  c #5B5B5B",
"1  c #5C5B5B",
"2  c #5C5C5C",
"3  c #5D5C5C",
"4  c #5E5D5D",
"5  c #5E5E5E",
"6  c #605F5F",
"7  c #5D674C",
"8  c #616F4B",
"9  c #676666",
"0  c #686868",
"q  c #696868",
"w  c #6F7368",
"e  c #707567",
"r  c #707070",
"t  c #767575",
"y  c #C80016",
"u  c #C90016",
"i  c #C90116",
"p  c #D21214",
"a  c #D72312",
"s  c #DA3816",
"d  c #F9550B",
"f  c #FF6209",
"g  c #FF6309",
"h  c #FD6509",
"j  c #FF6509",
"k  c #FD6609",
"l  c #F46C0A",
"z  c #FF6E0B",
"x  c #70BF00",
"c  c #738C4B",
"v  c #778068",
"b  c #BA9511",
"n  c #B69812",
"m  c #B99C11",
"M  c #BDA011",
"N  c #BEA110",
"B  c #C89C0F",
"V  c #D6910E",
"C  c #D59B0E",
"Z  c #D8990D",
"A  c #C4A80F",
"S  c #C7AB0F",
"D  c #C8AB0F",
"F  c #C8AC0F",
"G  c #C9AD0F",
"H  c #C9AE0F",
"J  c #CAAE0E",
"K  c #CBAF0E",
"L  c #CAAE0F",
"P  c #CBAE0F",
"I  c #CAAF0F",
"U  c #CEB20E",
"Y  c #D2B70D",
"T  c #D3B80D",
"R  c #D3B90D",
"E  c #D9BE0C",
"W  c #D9BF0C",
"Q  c #C0A310",
"!  c #C1A410",
"~  c #C2A510",
"^  c #C3A610",
"/  c #C5A810",
"(  c #C6AA10",
")  c #FAA515",
"_  c #FBA615",
"`  c #FFAC13",
"'  c #FFB215",
"]  c #FFB415",
"[  c #FFB515",
"{  c #FFB615",
"}  c #DFC70B",
"|  c #DCC20C",
" . c #DDC30C",
".. c #E3CA0A",
"X. c #E4CB0A",
"o. c #E4CB0B",
"O. c #E7CE0A",
"+. c #E7CF0A",
"@. c #E9D009",
"#. c #EAD109",
"$. c #EBD209",
"%. c #ECD409",
"&. c #EDD509",
"*. c #EDD609",
"=. c #EED609",
"-. c #EED709",
";. c #EFD709",
":. c #9E9E9E",
">. c #AAAAAA",
",. c #ABABAB",
"<. c #ADADAD",
"1. c #AEADAD",
"2. c #AEAEAE",
"3. c #B0B0B0",
"4. c #B1B1B1",
"5. c #B4B4B4",
"6. c #B5B5B5",
"7. c #B6B5B5",
"8. c #B6B6B6",
"9. c #B7B6B6",
"0. c #B7B7B7",
"q. c #B8B7B7",
"w. c #B9B7B7",
"e. c #B8B8B8",
"r. c #B9B8B8",
"t. c #B9B9B9",
"y. c #BAB9B9",
"u. c #BABABA",
"i. c #BBBABA",
"p. c #BBBBBB",
"a. c #BCBBBB",
"s. c #BCBCBC",
"d. c #BDBCBC",
"f. c #BDBDBD",
"g. c #BEBEBE",
"h. c #BFBEBE",
"j. c #BFBFBF",
"k. c #C0BFBF",
"l. c #C0C0C0",
"z. c #C1C0C0",
"x. c #C1C1C1",
"c. c #C2C1C1",
"v. c #C2C2C2",
"b. c #C3C2C2",
"n. c #C3C3C3",
"m. c #C4C3C3",
"M. c #C4C4C4",
"N. c #C5C4C4",
"B. c #C5C5C5",
"V. c #C6C4C4",
"C. c #C6C5C5",
"Z. c #C7C6C6",
"A. c #C7C7C7",
"S. c #C8C6C6",
"D. c #C8C7C7",
"F. c #C8C8C8",
"G. c #C9C8C8",
"H. c #C9C9C9",
"J. c #CAC9C9",
"K. c #CACACA",
"L. c #CBCACA",
"P. c #CBCBCB",
"I. c #CCCBCB",
"U. c #CCCCCC",
"Y. c #CDCCCC",
"T. c #CDCDCD",
"R. c #CECDCD",
"E. c #CECECE",
"W. c #CFCECE",
"Q. c #D0CFCF",
"!. c #D1CFCF",
"~. c #D1CFD1",
"^. c #D2CFD3",
"/. c #D0D0D0",
"(. c #D1D0D0",
"). c #D1D1D1",
"_. c #D2D1D1",
"`. c #D2D2D2",
"'. c #D3D2D2",
"]. c #D4D3D3",
"[. c #D5D3D3",
"{. c #D5D3D4",
"}. c #D5D4D4",
"|. c #D6D5D5",
" X c #D7D5D5",
".X c #D7D5D6",
"XX c #D6D6D6",
"oX c #D7D6D6",
"OX c #D8D6D6",
"+X c #D8D7D7",
"@X c #D9D7D7",
"#X c #D8D6D8",
"$X c #D8D8D8",
"%X c #D9D8D8",
"&X c #DAD8D8",
"*X c #DAD9D9",
"=X c #DBD9D9",
"-X c #DADADA",
";X c #DBDADA",
":X c #DCDADA",
">X c #DCDBDB",
",X c #DDDBDB",
"<X c #DEDCDC",
"1X c #DFDFDF",
"2X c #E4E4E4",
"3X c #E4E5E5",
"4X c #E5E5E5",
"5X c #E6E6E6",
"6X c #E7E7E7",
"7X c #E8E8E8",
"8X c #E9E9E9",
"9X c #EAEAEA",
"0X c #EEEEEE",
"qX c #EEEEEF",
"wX c #EFEFEF",
"eX c #F0F0F0",
"rX c #F1F1F1",
"tX c None",
/* pixels */
"tXtXtXtXtXtXtXtXtXtXtXtXtXtXtXtXtXtXtXtXtXtXtXtXtXtXtXtXtXtXtXtX",
"tXtXtXtXtXtXtXtXtXtXtXtXtXtXtXtXtXtXtXtXtXtXtXtXtXtXtXtXtXtXtXtX",
"tXtXtXtXtXtXtXtXtXtXtXtXtXu u tXtXtXtXtXtXtXtXtXtXtXtXtXtXtXtXtX",
"tXtXtXtXtXtXtXtXtXg g j p y u tXtXtXtXtXtXtXtXtXtXtXtXtXtXtXtXtX",
"tXtXtXtXtXtXtX{ tXf g g d a tX! D G A tXtXtXtXtXtXtXtXtXtXtXtXtX",
"tXtXtXtXtXtX[ [ ] tXtXtXl V Y } O.$.+. .L tXtXtXtXtXtXtXtXtXtXtX",
"tXtXtXtXtXtX[ [ tXtXtXtXb B Z C P T ..=.#.Y tXtXtXtXtXtXtXtXtXtX",
"tXtXtXtXg z ' [ tXtXtXtXtXtXk h tXtX! | =.%.U tXtXtXtXtXtXtXtXtX",
"tXtXtXtXg f ` { tXtXtXtXtXtXtXtXtXtXtX~ o.=.X.Q tXtXtXtXtXtXtXtX",
"tXtXtXtXf tX] [ tXtXtXtXtXtXu u tXtXtXtXR ;.*.H tXtXtXtXtXtXtXtX",
"tXtXtXtXtXtX[ [ tXtXtXtXtXu u tXtXm F J W -.tXE ^ M n tXtXtXtXtX",
"tXtXtXtXtXtXtX[ tXtXu u u i u tXtXtXK +.&.tXtXtXtXN tXtXtXtXtXtX",
"tXtXtXtXtXtXtXtXtXu u u s _ tXtXtXtXtXI @.tXtXtX! tXtXtXtXtXtXtX",
"tXtXtXtXtXtXtXtXtXtXu tX) { { tXtXtXtXtXF tXtX/ tXtXtXtXtXtXtXtX",
"tXtXtXtXtXtXtXtXtXtXtXtXtX[ tXtXtXtXtXtXtX( S tXtXtXtXtXtXtXtXtX",
"tXtXtXtXtXtXtXtXtXtXtXtXtXtXtXtXtXtXtXtXtXtXtXtXtXtXtXtXtXtXtXtX",
"tXtXtXtXtXtXtXtXtXtXtXtXtXtXtXtXtXtXtXtXtXtXtXtXtXtXtXtXtXtXtXtX",
"tXtXtXtXtXb. XXXXXXXXXXXXXXXXXXX1X0X0X0X0XqXqXwXeXeX9Xx.tXtXtXtX",
"tXtXtXtXn.6XrXrXrXrXrXrXrXrXrXrXeXeXeXeXeXeXeXeXeXeXeX1XtXtXtXtX",
"tXtXtXM.7XrXrXrXrXrXrXrXrXrXrXrXrXrXrXrXrXrXeXeXeXeXrXeX$XtXtXtX",
"tXtX5.-X2X2X3X3X3X3X3X4X5X5X5X5X5X6X6X6X6X6X7X7X7X7X7X8X7XF.tXtX",
"tX,.e.g.g.j.l.x.v.n.M.B.C.Z.D.D.Z.Z.C.B.B.M.M.n.b.v.v.x.x.f.>.tX",
"tX9.J.P.U.E.Q._.'.}. X+X&X:X,X,X=X%XOX|.].`.(.W.T.I.K.G.A.A.6.tX",
"tX9.J.P.Y.W.(.].|..X#X=X>X<X<X,X;X&X+X X}.'.).Q.R.U.L.H.F.A.7.tX",
"tX4.x.b.M.A.1.0 9 e v w q t S.[._.!.E.Y.I.J.G.Z.B.m.v.z.j.j.3.tX",
"tXr * = ; , + .   O x o   X % 6 5 4 3 2 1 < > : ; - = * & & r tX",
"tX,.8.q.t.s.:.$ @ 8 c 7 # , w.D.V.m.b.z.k.h.d.a.u.r.0.7.5.5.>.tX",
"tX0.L.U.R.Q./.W.(.~.^.{.oX%X<X<X>X=X%XoX|.].`.(.W.T.I.K.H.F.8.tX",
"tX9.K.I.T.W.(.'.].|.OX%X;X,X<X<X:X*X@X X}.]._.Q.E.Y.P.J.F.F.7.tX",
"tX2.u.p.s.f.h.j.l.c.b.m.N.C.Z.Z.C.M.m.v.z.k.j.g.d.a.i.y.t.r.<.tX",
"tXtXtXtXtXtXtXtXtXtXtXtXtXtXtXtXtXtXtXtXtXtXtXtXtXtXtXtXtXtXtXtX",
"tXtXtXtXtXtXtXtXtXtXtXtXtXtXtXtXtXtXtXtXtXtXtXtXtXtXtXtXtXtXtXtX"
};
