<?xml version="1.0" encoding="UTF-8"?>
<!-- Created with Inkscape (http://www.inkscape.org/) -->
<svg id="svg3340" width="18" height="22" version="1.0" xmlns="http://www.w3.org/2000/svg" xmlns:cc="http://creativecommons.org/ns#" xmlns:dc="http://purl.org/dc/elements/1.1/" xmlns:rdf="http://www.w3.org/1999/02/22-rdf-syntax-ns#">
 <metadata id="metadata10">
  <rdf:RDF>
   <cc:Work rdf:about="">
    <dc:format>image/svg+xml</dc:format>
    <dc:type rdf:resource="http://purl.org/dc/dcmitype/StillImage"/>
    <dc:title/>
   </cc:Work>
  </rdf:RDF>
 </metadata>
 <path id="rect2822-7" d="m8 3c-2.216 0-4 1.784-4 4v3h-1c-0.554 0-1 0.446-1 1v9c0 0.554 0.446 1 1 1h12c0.554 0 1-0.446 1-1v-9c0-0.554-0.446-1-1-1h-1v-3c0-2.216-1.784-4-4-4h-2zm0 2h2c1.108 0 2 0.892 2 2v3h-6v-3c0-1.108 0.892-2 2-2z" style="fill-rule:evenodd;opacity:.3"/>
 <path id="rect2822" d="m8 1.9831c-2.216 0-4 1.784-4 4v3h-1c-0.554 0-1 0.446-1 1v9c0 0.554 0.446 1 1 1h12c0.554 0 1-0.446 1-1v-9c0-0.554-0.446-1-1-1h-1v-3c0-2.216-1.784-4-4-4h-2zm0 2h2c1.108 0 2 0.892 2 2v3h-6v-3c0-1.108 0.892-2 2-2z" style="fill-rule:evenodd;fill:#dfdbd2"/>
 <path id="path3337" d="m8 4.2018c0.84415 0.030316 1.7017-0.073098 2.5341 0.079067 0.9056 0.24399 1.3474 1.2115 1.2472 2.0881v2.3953h-5.5625c0.018813-1.0474-0.040668-2.0998 0.035703-3.1436 0.14809-0.81519 0.91869-1.4364 1.7455-1.4189z" style="fill:none;opacity:.3;stroke-width:.5;stroke:#fff"/>
</svg>
