<?xml version="1.0" encoding="UTF-8"?>
<svg id="svg3240" width="22" height="22" version="1.0" xmlns="http://www.w3.org/2000/svg" xmlns:cc="http://creativecommons.org/ns#" xmlns:dc="http://purl.org/dc/elements/1.1/" xmlns:rdf="http://www.w3.org/1999/02/22-rdf-syntax-ns#">
 <metadata id="metadata9">
  <rdf:RDF>
   <cc:Work rdf:about="">
    <dc:format>image/svg+xml</dc:format>
    <dc:type rdf:resource="http://purl.org/dc/dcmitype/StillImage"/>
    <dc:title/>
   </cc:Work>
  </rdf:RDF>
 </metadata>
 <path id="rect2401-48-6" d="m2 6c-1.108 0-2 0.892-2 2v8c0 1.108 0.892 2 2 2h16c1.108 0 2-0.892 2-2v-1h0.38433c1.108 0 1.6157-0.892 1.6157-2v-2c0-1.108-0.46967-1.6906-1.5336-2h-0.46642v-1c0-1.108-0.892-2-2-2zm0 1h16c0.554 0 1 0.446 1 1v8c0 0.554-0.446 1-1 1h-16c-0.554 0-1-0.446-1-1v-8c0-0.554 0.446-1 1-1zm18 3c0.59742 0 1 0.051 1 1v2c0 0.9914-0.40645 1-1 1z" style="opacity:.3"/>
 <rect id="rect3192" x="1.2531" y="6.2531" width="17.494" height="9.4939" rx=".75642" ry=".76192" style="fill:none;opacity:.3;stroke-linecap:round;stroke-width:.50611;stroke:#df382c"/>
 <path id="rect2401-48" d="m2 5c-1.108 0-2 0.892-2 2v8c0 1.108 0.892 2 2 2h16c1.108 0 1.9135-0.89538 2-2v-1h0.38433c1.108 0 1.6157-0.892 1.6157-2v-2c0-1.108-0.42558-2-1.5336-2h-0.46642v-1c0-1.108-0.892-2-2-2zm0 1h16c0.554 0 1 0.446 1 1v8c0 0.554-0.446 1-1 1h-16c-0.554 0-1-0.446-1-1v-8c0-0.554 0.446-1 1-1zm18 3c0.59742 0 1 0.051 1 1v2c0 0.9914-0.40645 1-1 1z" style="fill:#df382c"/>
</svg>
