<?xml version="1.0" encoding="UTF-8" standalone="no"?>
<!-- Created with Inkscape (http://www.inkscape.org/) -->

<svg
   xmlns:dc="http://purl.org/dc/elements/1.1/"
   xmlns:cc="http://creativecommons.org/ns#"
   xmlns:rdf="http://www.w3.org/1999/02/22-rdf-syntax-ns#"
   xmlns:svg="http://www.w3.org/2000/svg"
   xmlns="http://www.w3.org/2000/svg"
   xmlns:xlink="http://www.w3.org/1999/xlink"
   xmlns:sodipodi="http://sodipodi.sourceforge.net/DTD/sodipodi-0.dtd"
   xmlns:inkscape="http://www.inkscape.org/namespaces/inkscape"
   width="601.71899"
   height="601.71899"
   id="svg13094"
   version="1.1"
   inkscape:version="0.48.2 r9819"
   sodipodi:docname="document-open-recent.svg">
  <sodipodi:namedview
     id="base"
     pagecolor="#ffffff"
     bordercolor="#666666"
     borderopacity="1.0"
     inkscape:pageopacity="0.0"
     inkscape:pageshadow="2"
     inkscape:zoom="0.088388348"
     inkscape:cx="3549.6103"
     inkscape:cy="-323.03912"
     inkscape:document-units="px"
     inkscape:current-layer="layer1"
     showgrid="false"
     inkscape:snap-bbox="true"
     inkscape:bbox-paths="true"
     inkscape:bbox-nodes="true"
     inkscape:snap-bbox-edge-midpoints="true"
     inkscape:snap-bbox-midpoints="true"
     inkscape:object-paths="true"
     inkscape:snap-intersection-paths="true"
     inkscape:object-nodes="true"
     inkscape:snap-smooth-nodes="true"
     inkscape:snap-midpoints="true"
     inkscape:snap-object-midpoints="true"
     inkscape:snap-center="true"
     showguides="true"
     inkscape:guide-bbox="true"
     inkscape:window-width="1680"
     inkscape:window-height="985"
     inkscape:window-x="-8"
     inkscape:window-y="38"
     inkscape:window-maximized="1"
     inkscape:snap-global="false"
     fit-margin-top="0"
     fit-margin-left="0"
     fit-margin-right="0"
     fit-margin-bottom="0"
     showborder="true"
     inkscape:showpageshadow="false" />
  <defs
     id="defs13096">
    <linearGradient
       id="linearGradient3076">
      <stop
         id="stop3078"
         offset="0"
         style="stop-color:#1e78c7;stop-opacity:1" />
      <stop
         id="stop3084"
         offset="1"
         style="stop-color:#92c9eb;stop-opacity:1" />
    </linearGradient>
    <radialGradient
       inkscape:collect="always"
       xlink:href="#linearGradient3076"
       id="radialGradient3119"
       gradientUnits="userSpaceOnUse"
       gradientTransform="matrix(1.2210261,0,0,1.221168,-8401.6327,3664.6822)"
       cx="-570.11383"
       cy="555.25647"
       fx="-570.11383"
       fy="555.25647"
       r="307.17151" />
  </defs>
  <metadata
     id="metadata13099">
    <rdf:RDF>
      <cc:Work
         rdf:about="">
        <dc:format>image/svg+xml</dc:format>
        <dc:type
           rdf:resource="http://purl.org/dc/dcmitype/StillImage" />
        <dc:title />
      </cc:Work>
    </rdf:RDF>
  </metadata>
  <g
     transform="translate(9398.6161,-3913.1596)"
     id="layer1"
     inkscape:groupmode="layer"
     inkscape:label="Camada 1">
    <path
       id="path3117"
       d="m -9097.7566,3966.2157 c -136.5266,0 -247.7744,111.3054 -247.7745,247.8322 10e-5,136.5267 111.2479,247.7745 247.7746,247.7745 136.5267,0 247.7745,-111.2478 247.7745,-247.7745 10e-5,-136.5268 -111.2479,-247.8322 -247.7746,-247.8322 z m 0,55.2401 c 106.6728,0 192.5347,85.9192 192.5346,192.5921 0,106.6728 -85.8617,192.5346 -192.5345,192.5346 -106.6728,0 -192.5345,-85.8618 -192.5346,-192.5346 1e-4,-106.6729 85.8617,-192.5921 192.5345,-192.5921 z m -18.2982,13.062 -0.057,141.6101 36.654,1.6688 0.057,-141.6102 -36.654,-1.6687 z m 18.2983,158.4122 c -11.6529,0 -21.0603,9.4651 -21.0603,21.1179 1e-4,11.6527 9.4074,21.0603 21.0602,21.0603 11.6529,0 21.1178,-9.4076 21.1178,-21.0603 1e-4,-11.6528 -9.4649,-21.1179 -21.1177,-21.1179 z m 36.654,11.8536 0.8056,18.471 141.6101,0 -0.8056,-18.471 -141.6101,0 z"
       style="font-size:medium;font-style:normal;font-variant:normal;font-weight:normal;font-stretch:normal;text-indent:0;text-align:start;text-decoration:none;line-height:normal;letter-spacing:normal;word-spacing:normal;text-transform:none;direction:ltr;block-progression:tb;writing-mode:lr-tb;text-anchor:start;baseline-shift:baseline;color:#000000;fill:url(#radialGradient3119);fill-opacity:1;stroke:none;stroke-width:32.44002151;marker:none;visibility:visible;display:inline;overflow:visible;enable-background:accumulate;font-family:Sans;-inkscape-font-specification:Sans"
       inkscape:connector-curvature="0" />
    <path
       style="font-size:medium;font-style:normal;font-variant:normal;font-weight:normal;font-stretch:normal;text-indent:0;text-align:start;text-decoration:none;line-height:normal;letter-spacing:normal;word-spacing:normal;text-transform:none;direction:ltr;block-progression:tb;writing-mode:lr-tb;text-anchor:start;baseline-shift:baseline;color:#000000;fill:#000000;fill-opacity:1;stroke:none;stroke-width:32.44002151000000111;marker:none;visibility:visible;display:inline;overflow:visible;enable-background:accumulate;font-family:Sans;-inkscape-font-specification:Sans;opacity:0.5"
       d="m -9097.7411,4008.9409 c -106.6728,0 -192.5624,85.9208 -192.5625,192.5937 0,2.0889 0.06,4.1775 0.125,6.25 3.0905,-97.6247 78.1486,-176.4934 174.125,-185.4687 l 0,-0.3125 2.2813,0.094 c 5.2804,-0.4312 10.6359,-0.6562 16.0312,-0.6562 104.5761,0 189.122,82.592 192.4063,186.3437 0.065,-2.0725 0.125,-4.1611 0.125,-6.25 0,-106.6729 -85.8585,-192.5937 -192.5313,-192.5937 z m -18.375,154.6874 0,12.5 36.6563,1.6563 0,-12.5 -36.6563,-1.6563 z m 55,41.1563 0.8125,18.4687 141.625,0 -0.5625,-12.5 -141.0625,0 -0.25,-5.9687 -0.5625,0 z m -56.75,3.0312 c -0.6086,1.9748 -0.9375,4.0444 -0.9375,6.2188 10e-5,11.6527 9.4097,21.0625 21.0625,21.0625 11.6529,0 21.0938,-9.4098 21.0938,-21.0625 0,-2.1744 -0.3257,-4.244 -0.9375,-6.2188 -2.676,8.5792 -10.6883,14.7813 -20.1563,14.7813 -9.4679,0 -17.4632,-6.2021 -20.125,-14.7813 z m -227.5937,0.125 c -0.049,2.0276 -0.062,4.0547 -0.062,6.0938 0,136.5267 111.2545,247.7812 247.7812,247.7812 136.5267,0 247.75,-111.2545 247.75,-247.7812 0,-2.0391 -0.013,-4.0662 -0.062,-6.0938 -3.4015,133.5952 -113.294,241.375 -247.6875,241.375 -134.3935,0 -244.3171,-107.7798 -247.7187,-241.375 z"
       id="path3106"
       inkscape:connector-curvature="0" />
    <path
       style="font-size:medium;font-style:normal;font-variant:normal;font-weight:normal;font-stretch:normal;text-indent:0;text-align:start;text-decoration:none;line-height:normal;letter-spacing:normal;word-spacing:normal;text-transform:none;direction:ltr;block-progression:tb;writing-mode:lr-tb;text-anchor:start;baseline-shift:baseline;color:#000000;fill:#b7e0ef;fill-opacity:1;stroke:none;stroke-width:32.44002151000000111;marker:none;visibility:visible;display:inline;overflow:visible;enable-background:accumulate;font-family:Sans;-inkscape-font-specification:Sans"
       d="m -9097.7411,3966.2221 c -136.5266,0 -247.7812,111.2857 -247.7812,247.8125 0,2.0396 0.013,4.097 0.062,6.125 3.4016,-133.597 113.3253,-241.4375 247.7187,-241.4375 134.3935,0 244.2861,107.8405 247.6875,241.4375 0.049,-2.028 0.062,-4.0854 0.062,-6.125 10e-5,-136.5268 -111.2233,-247.8125 -247.75,-247.8125 z m -16.0312,68.375 c -0.7638,0.062 -1.5201,0.1476 -2.2813,0.2188 l 0,12.1875 36.6563,1.6875 0,-12.5 -34.375,-1.5938 z m 16.0312,158.3437 c -11.6529,0 -21.0625,9.441 -21.0625,21.0938 0,2.1743 0.3289,4.2785 0.9375,6.25 2.6617,-8.5935 10.657,-14.8438 20.125,-14.8438 9.4679,0 17.4803,6.2503 20.1563,14.8438 0.6118,-1.9715 0.9375,-4.0757 0.9375,-6.25 0,-11.6528 -9.441,-21.0938 -21.0938,-21.0938 z m 36.625,11.8438 0.5625,12.5 141.0625,0 0.25,5.9687 0.5625,0 -0.8125,-18.4687 -141.625,0 z m -229.0625,15.5 c -0.066,2.0802 -0.125,4.1533 -0.125,6.25 10e-5,106.6728 85.8897,192.5625 192.5625,192.5625 106.6728,0 192.5313,-85.8897 192.5313,-192.5625 0,-2.0967 -0.059,-4.1698 -0.125,-6.25 -3.2725,103.7603 -87.8224,186.3125 -192.4063,186.3125 -104.5839,0 -189.1649,-82.5522 -192.4375,-186.3125 z"
       id="path3084"
       inkscape:connector-curvature="0" />
  </g>
</svg>
