<?xml version="1.0" encoding="UTF-8"?>
<!-- Created with Inkscape (http://www.inkscape.org/) -->
<svg id="svg7698" width="24" height="24" version="1.1" xmlns="http://www.w3.org/2000/svg">
 <g id="layer1" transform="translate(-1 -7.0001)">
  <path id="rect2831" transform="translate(1 7.0001)" d="m6.2201 6.1567c-0.23944 0.10094-0.45481 0.24706-0.63556 0.42781-0.3615 0.3615-0.5845 0.8615-0.5845 1.4155v8c0 1.108 0.892 2 2 2h10c1.108 0 2-0.892 2-2v-2.3125l-2.0312 2c-0.0089 0.02153-0.01939 0.04243-0.03125 0.0625l-0.09375 0.09375c3.26e-4 0.01041 3.26e-4 0.02084 0 0.03125-0.04577 0.04044-0.09903 0.07239-0.15625 0.09375-0.01041 3.26e-4 -0.02084 3.26e-4 -0.03125 0-0.02007 0.01186-0.04097 0.02231-0.0625 0.03125-0.03116 0.0029-0.06259 0.0029-0.09375 0-0.01041 3.26e-4 -0.02084 3.26e-4 -0.03125 0-0.02081 0.0013-0.04169 0.0013-0.0625 0-0.01041 3.26e-4 -0.02084 3.26e-4 -0.03125 0-0.04431-0.01486-0.08653-0.03596-0.125-0.0625-0.01041 3.26e-4 -0.02084 3.26e-4 -0.03125 0-3.26e-4 -0.01041-3.26e-4 -0.02084 0-0.03125-0.01041 3.26e-4 -0.02084 3.26e-4 -0.03125 0-3.26e-4 -0.01041-3.26e-4 -0.02084 0-0.03125-0.01087-0.0099-0.0213-0.02038-0.03125-0.03125l-0.03125-0.03125c-0.03753-0.03642-0.06929-0.07877-0.09375-0.125l-0.875-0.84375c-0.25698-0.15718-0.30568-0.56716-0.09267-0.78017 0.21301-0.21301 0.62299-0.16431 0.78017 0.09267l0.65625 0.65625 2.1562-2.1562c0.06525-0.07545 0.15358-0.13067 0.25-0.15625 0.03116-0.0029 0.06259-0.0029 0.09375 0v-3.8125l-2.0312 2c-0.0089 0.02153-0.01939 0.04243-0.03125 0.0625l-0.09375 0.09375c3.26e-4 0.01041 3.26e-4 0.02084 0 0.03125-0.02007 0.01186-0.04097 0.02231-0.0625 0.03125-0.0099 0.01087-0.02038 0.0213-0.03125 0.03125-0.02007 0.01186-0.04097 0.02231-0.0625 0.03125-0.01041 3.26e-4 -0.02084 3.26e-4 -0.03125 0-0.02007 0.01186-0.04097 0.02231-0.0625 0.03125-0.01041 3.26e-4 -0.02084 3.26e-4 -0.03125 0-0.06176 0.01179-0.12574 0.01179-0.1875 0-0.01087-0.0099-0.0213-0.02038-0.03125-0.03125-0.02153-0.0089-0.04243-0.01939-0.0625-0.03125-0.01041 3.26e-4 -0.02084 3.26e-4 -0.03125 0-0.01041 3.26e-4 -0.02084 3.26e-4 -0.03125 0-3.26e-4 -0.01041-3.26e-4 -0.02084 0-0.03125-0.01041 3.26e-4 -0.02084 3.26e-4 -0.03125 0-3.26e-4 -0.01041-3.26e-4 -0.02084 0-0.03125-0.01087-0.0099-0.0213-0.02038-0.03125-0.03125l-0.03125-0.03125c-0.03753-0.03642-0.06929-0.07877-0.09375-0.125l-0.875-0.84375c-0.25698-0.15718-0.30568-0.56716-0.092669-0.78017 0.21301-0.21301 0.62299-0.16431 0.78017 0.092669l0.65625 0.65625 2.1562-2.1562c0.06525-0.075455 0.15358-0.13067 0.25-0.15625 0.01041-3.255e-4 0.03354 0.00985 0.03125 0-0.097934-0.42182-0.36129-0.807-0.70115-1.074-0.16993-0.1335-0.36216-0.24-0.57033-0.31313l-0.66602 1.8871h-10l-0.77994-1.8433zm12.717 1.3433c0.040976 0.16 0.0625 0.32688 0.0625 0.5v0.6875l0.34375-0.34375c0.27938-0.29194-0.003805-0.88009-0.40625-0.84375zm0.0625 5v1.1875l0.34375-0.34375c0.2628-0.27715 0.037906-0.82915-0.34375-0.84375zm-13-3.5h1v1h-1v-1zm2.8438 0c0.020806-0.0013 0.041694-0.0013 0.0625 0 0.031158-0.00293 0.062592-0.00293 0.09375 0h4c0.26416-0.00374 0.50712 0.23582 0.50712 0.5s-0.24296 0.50374-0.50712 0.5h-4c-0.2618 0.040906-0.53722-0.16008-0.57812-0.42188-0.040906-0.2618 0.16008-0.53722 0.42187-0.57812zm0 2c0.020806-0.0013 0.041694-0.0013 0.0625 0 0.031158-0.0029 0.062592-0.0029 0.09375 0h4c0.26416-0.0037 0.50712 0.23582 0.50712 0.5s-0.24296 0.50374-0.50712 0.5h-4c-0.2618 0.040906-0.53722-0.16008-0.57812-0.42188-0.040906-0.2618 0.16008-0.53722 0.42187-0.57812zm-2.8438 3h1v1h-1v-1zm2.8438 0c0.020806-0.0013 0.041694-0.0013 0.0625 0 0.031158-0.0029 0.062592-0.0029 0.09375 0h4c0.26416-0.0037 0.50712 0.23582 0.50712 0.5s-0.24296 0.50374-0.50712 0.5h-4c-0.2618 0.040906-0.53722-0.16008-0.57812-0.42188-0.040906-0.2618 0.16008-0.53722 0.42187-0.57812zm0 2c0.020806-0.0013 0.041694-0.0013 0.0625 0 0.031158-0.0029 0.062592-0.0029 0.09375 0h4c0.26416-0.0037 0.50712 0.23582 0.50712 0.5s-0.24296 0.50374-0.50712 0.5h-4c-0.2618 0.040906-0.53722-0.16008-0.57812-0.42188-0.040906-0.2618 0.16008-0.53722 0.42187-0.57812z" style="fill:#969696"/>
  <path id="rect2821" transform="translate(1 7.0001)" d="m18 4.4528c1.4111 0 2.5472 1.136 2.5472 2.5472v10.091c0 1.4111-1.136 2.5472-2.5472 2.5472h-12c-1.4111 0-2.5472-1.136-2.5472-2.5472v-10.091c0-1.4111 1.136-2.5472 2.5472-2.5472" style="fill:none;stroke-linecap:round;stroke:#969696"/>
  <rect id="rect3639" x="8.5" y="10.5" width="9" height="3" rx="1.5" ry="1" style="fill:none;stroke:#969696"/>
 </g>
</svg>
