<?xml version="1.0" encoding="UTF-8"?>
<!-- Created with Inkscape (http://www.inkscape.org/) -->
<svg id="svg3315" width="24" height="24" version="1.0" xmlns="http://www.w3.org/2000/svg">
 <path id="path3279" d="m14.509 15.963 2.5002 4.3305" style="fill:none;opacity:.2;stroke-linecap:round;stroke-width:1px;stroke:#878787"/>
 <path id="path3281" d="m8.0031 4.6941 2.5014 4.3325" style="fill:none;stroke-linecap:round;stroke-width:1px;stroke:#878787"/>
 <path id="path2629" d="m15.339 15.326 3.5359 3.5359" style="fill:none;opacity:.175;stroke-linecap:round;stroke-width:1px;stroke:#878787"/>
 <path id="path2631" d="m6.1379 6.1254 3.5375 3.5375" style="fill:none;opacity:.875;stroke-linecap:round;stroke-width:1px;stroke:#878787"/>
 <path id="path3403" d="m15.975 14.497 4.3305 2.5002" style="fill:none;opacity:.15;stroke-linecap:round;stroke-width:1px;stroke:#878787"/>
 <path id="path3405" d="m4.7066 7.9906 4.3325 2.5014" style="fill:none;opacity:.75;stroke-linecap:round;stroke-width:1px;stroke:#878787"/>
 <path id="path3407" d="m16.376 13.531 4.8301 1.2942" style="fill:none;opacity:.125;stroke-linecap:round;stroke-width:1px;stroke:#878787"/>
 <path id="path3409" d="m3.8069 10.163 4.8323 1.2948" style="fill:none;opacity:.675;stroke-linecap:round;stroke-width:1px;stroke:#878787"/>
 <path id="path3415" d="m16.512 12.494 5.0005 1e-6" style="fill:none;opacity:.1;stroke-linecap:round;stroke-width:1px;stroke:#878787"/>
 <path id="path3417" d="m3.5 12.494 5.0027-1e-6" style="fill:none;opacity:.6;stroke-linecap:round;stroke-width:1px;stroke:#878787"/>
 <path id="path3419" d="m16.376 11.457 4.8301-1.2942" style="fill:none;opacity:.075;stroke-linecap:round;stroke-width:1px;stroke:#878787"/>
 <path id="path3421" d="m3.8069 14.825 4.8323-1.2948" style="fill:none;opacity:.55;stroke-linecap:round;stroke-width:1px;stroke:#878787"/>
 <path id="path3423" d="m15.975 10.491 4.3305-2.5002" style="fill:none;opacity:.05;stroke-linecap:round;stroke-width:1px;stroke:#878787"/>
 <path id="path3425" d="m4.7066 16.997 4.3325-2.5014" style="fill:none;opacity:.5;stroke-linecap:round;stroke-width:1px;stroke:#878787"/>
 <path id="path3427" d="m15.339 9.6612 3.5359-3.5359" style="fill:none;opacity:.025;stroke-linecap:round;stroke-width:1px;stroke:#878787"/>
 <path id="path3429" d="m6.1379 18.862 3.5375-3.5375" style="fill:none;opacity:.45;stroke-linecap:round;stroke-width:1px;stroke:#878787"/>
 <path id="path3433" d="m8.0031 20.293 2.5014-4.3325" style="fill:none;opacity:.4;stroke-linecap:round;stroke-width:1px;stroke:#878787"/>
 <path id="path3437" d="m10.175 21.193 1.2948-4.8323" style="fill:none;opacity:.35;stroke-linecap:round;stroke-width:1px;stroke:#878787"/>
 <path id="path2407" d="m12.506 21.5v-5.0027" style="fill:none;opacity:.3;stroke-linecap:round;stroke-width:1px;stroke:#878787"/>
 <path id="path2413" d="m14.837 21.193-1.2948-4.8323" style="fill:none;opacity:.25;stroke-linecap:round;stroke-width:1px;stroke:#878787"/>
 <path id="path2401" d="m10.175 3.7944 1.2948 4.8323" style="opacity:0;stroke-width:1px"/>
 <path id="path2405" d="m14.837 3.7944-1.2948 4.8323" style="opacity:0;stroke-width:1px"/>
 <path id="path2410" d="m12.506 3.4875 1e-6 5.0027" style="opacity:0;stroke-width:1px"/>
 <path id="path2414" d="m17.009 4.6941-2.5014 4.3325" style="opacity:0;stroke-width:1px"/>
</svg>
