<?xml version="1.0" encoding="UTF-8"?>
<!-- Created with Inkscape (http://www.inkscape.org/) -->
<svg id="svg3315" width="24" height="24" version="1.0" xmlns="http://www.w3.org/2000/svg">
 <path id="path3281" d="m20.306 7.9906-4.3325 2.5014" style="fill:none;stroke-linecap:round;stroke-width:1px;stroke:#878787"/>
 <path id="path2631" d="m18.875 6.1254-3.5375 3.5375" style="fill:none;opacity:.75;stroke-linecap:round;stroke-width:1px;stroke:#878787"/>
 <path id="path3405" d="m17.009 4.6941-2.5014 4.3325" style="fill:none;opacity:.6;stroke-linecap:round;stroke-width:1px;stroke:#878787"/>
 <path id="path3409" d="m14.837 3.7944-1.2948 4.8323" style="fill:none;opacity:.5;stroke-linecap:round;stroke-width:1px;stroke:#878787"/>
 <path id="path3417" d="m12.506 3.4875v5.0027" style="fill:none;opacity:.4;stroke-linecap:round;stroke-width:1px;stroke:#878787"/>
 <path id="path3421" d="m10.175 3.7944 1.2948 4.8323" style="fill:none;opacity:.3;stroke-linecap:round;stroke-width:1px;stroke:#878787"/>
 <path id="path3425" d="m8.0031 4.6941 2.5014 4.3325" style="fill:none;opacity:.2;stroke-linecap:round;stroke-width:1px;stroke:#878787"/>
 <path id="path3429" d="m6.1379 6.1254 3.5375 3.5375" style="fill:none;opacity:.15;stroke-linecap:round;stroke-width:1px;stroke:#878787"/>
 <path id="path3437" d="m3.5 12.494h5.0027" style="fill:none;opacity:.05;stroke-linecap:round;stroke-width:1px;stroke:#878787"/>
 <path id="path2775" d="m9.0371 10.491-4.3305-2.5002" style="fill:none;stroke-linecap:round;stroke-width:1px;stroke:#878787"/>
 <path id="path2777" d="m8.6369 11.457-4.8301-1.2942" style="fill:none;opacity:.75;stroke-linecap:round;stroke-width:1px;stroke:#878787"/>
 <path id="path2779" d="m8.5005 12.494-5.0005-1e-6" style="fill:none;opacity:.6;stroke-linecap:round;stroke-width:1px;stroke:#878787"/>
 <path id="path2781" d="m8.6369 13.531-4.8301 1.2942" style="fill:none;opacity:.5;stroke-linecap:round;stroke-width:1px;stroke:#878787"/>
 <path id="path2783" d="m9.0371 14.497-4.3305 2.5002" style="fill:none;opacity:.4;stroke-linecap:round;stroke-width:1px;stroke:#878787"/>
 <path id="path2785" d="m9.6737 15.326-3.5359 3.5359" style="fill:none;opacity:.3;stroke-linecap:round;stroke-width:1px;stroke:#878787"/>
 <path id="path2787" d="m10.503 15.963-2.5002 4.3305" style="fill:none;opacity:.2;stroke-linecap:round;stroke-width:1px;stroke:#878787"/>
 <path id="path2789" d="m11.469 16.363-1.2942 4.8301" style="fill:none;opacity:.15;stroke-linecap:round;stroke-width:1px;stroke:#878787"/>
 <path id="path2793" d="m14.509 15.963 2.5002 4.3305" style="fill:none;opacity:.05;stroke-linecap:round;stroke-width:1px;stroke:#878787"/>
 <path id="path2841" d="m12.506 16.5v5.0005" style="fill:none;stroke-linecap:round;stroke-width:1px;stroke:#878787"/>
 <path id="path2843" d="m13.543 16.363 1.2942 4.8301" style="fill:none;opacity:.75;stroke-linecap:round;stroke-width:1px;stroke:#878787"/>
 <path id="path2845" d="m14.509 15.963 2.5002 4.3305" style="fill:none;opacity:.6;stroke-linecap:round;stroke-width:1px;stroke:#878787"/>
 <path id="path2847" d="m15.339 15.326 3.5359 3.5359" style="fill:none;opacity:.5;stroke-linecap:round;stroke-width:1px;stroke:#878787"/>
 <path id="path2849" d="m15.975 14.497 4.3305 2.5002" style="fill:none;opacity:.4;stroke-linecap:round;stroke-width:1px;stroke:#878787"/>
 <path id="path2851" d="m16.376 13.531 4.8301 1.2942" style="fill:none;opacity:.3;stroke-linecap:round;stroke-width:1px;stroke:#878787"/>
 <path id="path2853" d="m16.512 12.494 5.0005 1e-6" style="fill:none;opacity:.2;stroke-linecap:round;stroke-width:1px;stroke:#878787"/>
 <path id="path2855" d="m16.376 11.457 4.8301-1.2942" style="fill:none;opacity:.15;stroke-linecap:round;stroke-width:1px;stroke:#878787"/>
 <path id="path2859" d="m14.509 9.0246 2.5002-4.3305" style="fill:none;opacity:.05;stroke-linecap:round;stroke-width:1px;stroke:#878787"/>
</svg>
