<?xml version="1.0" encoding="UTF-8"?>
<!-- Created with Inkscape (http://www.inkscape.org/) -->
<svg id="svg3199" width="24" height="22" version="1.1" xmlns="http://www.w3.org/2000/svg" xmlns:cc="http://creativecommons.org/ns#" xmlns:dc="http://purl.org/dc/elements/1.1/" xmlns:rdf="http://www.w3.org/1999/02/22-rdf-syntax-ns#" xmlns:xlink="http://www.w3.org/1999/xlink">
 <defs id="defs3201">
  <linearGradient id="linearGradient11811" x1="63.569" x2="63.569" y1="127.16" y2="152.66" gradientTransform="matrix(3.0318 0 0 1.0053 -102.66 -.82153)" gradientUnits="userSpaceOnUse">
   <stop id="stop5583-0-92-8-0-7-6-5-1" style="stop-color:#4c4c45" offset="0"/>
   <stop id="stop5585-4-7-2-7-9-9-92-0" style="stop-color:#3f3f39" offset=".4"/>
   <stop id="stop5587-6-7-2-0-3-1-21-5" style="stop-color:32322d" offset="1"/>
  </linearGradient>
 </defs>
 <metadata id="metadata3204">
  <rdf:RDF>
   <cc:Work rdf:about="">
    <dc:format>image/svg+xml</dc:format>
    <dc:type rdf:resource="http://purl.org/dc/dcmitype/StillImage"/>
    <dc:title/>
   </cc:Work>
  </rdf:RDF>
 </metadata>
 <g id="layer1" transform="translate(-342.5 -521.36)">
  <g id="use5671" transform="matrix(1.3594 0 0 1.3564 319.21 481.99)">
   <rect id="rect11803" transform="matrix(.47305 0 0 .48074 -6.3607 -29.396)" x="50.44" y="125.35" width="29.56" height="29.154" rx="4.4137" ry="4.4234" style="color:#000000;fill:url(#linearGradient11811);stroke-linejoin:round;stroke-width:1.5443;stroke:#dd4814"/>
   <path id="path11809" d="m17.871 33.844v-0.77311c0-1.0313 0.80717-1.8361 1.812-1.8361h9.6125c1.0048 0 1.7878 0.80488 1.7878 1.8361v0.77311c0-1.0313-0.78301-1.8361-1.7878-1.8361h-9.6125c-1.0048 0-1.812 0.80488-1.812 1.8361z" style="block-progression:tb;color:#000000;fill:#fff;opacity:.15;text-indent:0;text-transform:none"/>
   <path id="path11867" d="m17.871 41.159v0.77311c0 1.0313 0.80717 1.8361 1.812 1.8361h9.6125c1.0048 0 1.7878-0.80488 1.7878-1.8361v-0.77311c0 1.0313-0.78301 1.8361-1.7878 1.8361h-9.6125c-1.0048 0-1.812-0.80488-1.812-1.8361z" style="block-progression:tb;color:#000000;fill:#fff;opacity:.15;text-indent:0;text-transform:none"/>
   <path id="path11869" d="m17.871 41.896v0.77311c0 1.0313 0.64462 1.8361 1.6494 1.8361h10.068c1.0048 0 1.4952-0.80488 1.4952-1.8361v-0.77311c0 1.0313-0.78301 1.8361-1.7878 1.8361h-9.6125c-1.0048 0-1.812-0.80488-1.812-1.8361z" style="block-progression:tb;color:#000000;fill-opacity:.85253;opacity:.15;text-indent:0;text-transform:none"/>
  </g>
  <rect id="rect17347" x="342.3" y="521.58" width="21.944" height="21.944" style="color:#000000;fill:none"/>
 </g>
</svg>
