<?xml version="1.0" encoding="UTF-8"?>
<!-- Generator: Adobe Illustrator 13.0.2, SVG Export Plug-In . SVG Version: 6.00 Build 14948)  -->
<svg id="Foreground" width="32" height="32" enable-background="new 0 0 16 16" version="1.0" viewBox="0 0 32 32" xml:space="preserve" xmlns="http://www.w3.org/2000/svg" xmlns:cc="http://creativecommons.org/ns#" xmlns:dc="http://purl.org/dc/elements/1.1/" xmlns:rdf="http://www.w3.org/1999/02/22-rdf-syntax-ns#"><metadata id="metadata2399"><rdf:RDF><cc:Work rdf:about=""><dc:format>image/svg+xml</dc:format><dc:type rdf:resource="http://purl.org/dc/dcmitype/StillImage"/><dc:title/></cc:Work></rdf:RDF></metadata><path id="path2394-32" d="m4.4362 15.86c0-6.4101 5.1728-11.607 11.553-11.607 6.3801 0 11.553 5.1972 11.553 11.607 0 6.4101-5.1728 11.607-11.553 11.607-6.3801 0-11.553-5.1972-11.553-11.607z" style="clip-rule:evenodd;color:#000000;enable-background:accumulate;fill:#fff;stroke-width:4;stroke:#dd4814"/><path id="path2561" d="m6.4655 15.001c-0.025906 0.28842-0.044417 0.57947-0.044417 0.87466 0 5.3133 4.2884 9.6213 9.5769 9.6213 5.2885 0 9.5751-4.3079 9.5751-9.6213 0-0.29519-0.01852-0.58624-0.04441-0.87466-0.44038 4.903-4.5361 8.7466-9.5307 8.7466s-9.0921-3.8436-9.5324-8.7466z" style="color:#000000;enable-background:accumulate;fill:#e95420;opacity:.499"/><path id="path27279-0-5" d="m11.718 11.64h1.0552c0.01091-1.26e-4 0.02193-4.86e-4 0.03298 0 0.26903 0.01183 0.53802 0.13568 0.72546 0.32975l2.4072 2.4072 2.4402-2.4072c0.28029-0.24323 0.47133-0.32237 0.72546-0.32975h1.0552v1.0552c0 0.30228-0.03623 0.58105-0.2638 0.7914l-2.4072 2.4072 2.3742 2.3742c0.19858 0.19856 0.29677 0.47848 0.29678 0.75843v1.0552h-1.0552c-0.27995-1e-5 -0.55988-0.09824-0.75843-0.29678l-2.4072-2.4072-2.4072 2.4072c-0.19855 0.19858-0.47849 0.29678-0.75843 0.29678h-1.0552v-1.0552c-3e-6 -0.27994 0.0982-0.55987 0.29678-0.75843l2.4072-2.3742-2.4072-2.4072c-0.22238-0.20538-0.3199-0.49516-0.29678-0.7914z" style="color:#bebebe;enable-background:new;fill:#e95420;text-decoration-line:none;text-indent:0;text-transform:none"/></svg>
