<?xml version="1.0" encoding="UTF-8"?>
<!-- Created with Inkscape (http://www.inkscape.org/) -->
<svg id="svg2160" width="48" height="48" version="1.0" xmlns="http://www.w3.org/2000/svg" xmlns:cc="http://creativecommons.org/ns#" xmlns:dc="http://purl.org/dc/elements/1.1/" xmlns:rdf="http://www.w3.org/1999/02/22-rdf-syntax-ns#" xmlns:xlink="http://www.w3.org/1999/xlink">
 <defs id="defs2162">
  <linearGradient id="linearGradient3688">
   <stop id="stop3690" offset="0"/>
   <stop id="stop3692" style="stop-opacity:0" offset="1"/>
  </linearGradient>
  <radialGradient id="radialGradient3095" cx="4.993" cy="43.5" r="2.5" gradientTransform="matrix(2.0038 0 0 1.4 27.988 -17.4)" gradientUnits="userSpaceOnUse" xlink:href="#linearGradient3688"/>
  <radialGradient id="radialGradient3097" cx="4.993" cy="43.5" r="2.5" gradientTransform="matrix(2.0038 0 0 1.4 -20.012 -104.4)" gradientUnits="userSpaceOnUse" xlink:href="#linearGradient3688"/>
  <linearGradient id="linearGradient3099" x1="25.058" x2="25.058" y1="47.028" y2="39.999" gradientUnits="userSpaceOnUse">
   <stop id="stop3704" style="stop-opacity:0" offset="0"/>
   <stop id="stop3710" offset=".5"/>
   <stop id="stop3706" style="stop-opacity:0" offset="1"/>
  </linearGradient>
  <linearGradient id="linearGradient3977" x1="15.47" x2="43" y1="-4.5" y2="-4.5" gradientTransform="matrix(.97297 0 0 1 -88.838 -1)" gradientUnits="userSpaceOnUse">
   <stop id="stop3846" style="stop-color:#eeeeec" offset="0"/>
   <stop id="stop3848" style="stop-color:#eeeeec;stop-opacity:0" offset="1"/>
  </linearGradient>
  <linearGradient id="linearGradient3980" x1="26.357" x2="29" y1="2.5714" y2="10.571" gradientTransform="translate(-90,2)" gradientUnits="userSpaceOnUse">
   <stop id="stop3862" style="stop-color:#888a85" offset="0"/>
   <stop id="stop3864" style="stop-color:#555753" offset="1"/>
  </linearGradient>
  <radialGradient id="radialGradient3985" cx="-65.5" cy="18.5" r="18.5" gradientTransform="matrix(1.0411 0 0 .81596 2.6894 5.4046)" gradientUnits="userSpaceOnUse">
   <stop id="stop3834" style="stop-color:#fff" offset="0"/>
   <stop id="stop3840" style="stop-color:#fff" offset=".67356"/>
   <stop id="stop3836" style="stop-color:#eeeeec" offset="1"/>
  </radialGradient>
  <radialGradient id="radialGradient4157" cx="24.5" cy="43" r="9.5" gradientTransform="matrix(1 0 0 .31579 0 29.421)" gradientUnits="userSpaceOnUse">
   <stop id="stop3928" offset="0"/>
   <stop id="stop3930" style="stop-opacity:0" offset="1"/>
  </radialGradient>
  <linearGradient id="linearGradient4159" x1="-25.942" x2="-25.942" y1="42.407" y2="45" gradientTransform="translate(90,-1)" gradientUnits="userSpaceOnUse">
   <stop id="stop3255" style="stop-color:#888a85" offset="0"/>
   <stop id="stop3257" style="stop-color:#d3d7cf" offset="1"/>
  </linearGradient>
  <linearGradient id="linearGradient4161" x1="24.5" x2="24.5" y1="34" y2="35" gradientTransform="translate(-89,2)" gradientUnits="userSpaceOnUse">
   <stop id="stop3361" offset="0"/>
   <stop id="stop3363" style="stop-opacity:0" offset="1"/>
  </linearGradient>
  <linearGradient id="linearGradient4163" x1="24.857" x2="25.5" y1="39.5" y2="40" gradientTransform="translate(-69,-4)" gradientUnits="userSpaceOnUse">
   <stop id="stop3365" style="stop-color:#fff" offset="0"/>
   <stop id="stop3367" style="stop-color:#eeeeec;stop-opacity:0" offset="1"/>
  </linearGradient>
 </defs>
 <metadata id="metadata2165">
  <rdf:RDF>
   <cc:Work rdf:about="">
    <dc:format>image/svg+xml</dc:format>
    <dc:type rdf:resource="http://purl.org/dc/dcmitype/StillImage"/>
    <dc:creator>
     <cc:Agent>
      <dc:title>Lapo Calamandrei</dc:title>
     </cc:Agent>
    </dc:creator>
    <dc:title>Presentation</dc:title>
    <dc:contributor>
     <cc:Agent>
      <dc:title>Based of Hylke Bons Work</dc:title>
     </cc:Agent>
    </dc:contributor>
    <cc:license rdf:resource="http://www.gnu.org/licenses/lgpl.html"/>
    <dc:subject>
     <rdf:Bag>
      <rdf:li>presentation</rdf:li>
      <rdf:li>slides</rdf:li>
      <rdf:li>powerpoint</rdf:li>
      <rdf:li>spreadsheet</rdf:li>
      <rdf:li>impress</rdf:li>
     </rdf:Bag>
    </dc:subject>
   </cc:Work>
  </rdf:RDF>
 </metadata>
 <g id="layer1">
  <g id="g3075" transform="matrix(1.2 0 0 .77778 -4.8 11.944)" style="opacity:.13964">
   <g id="g3077" transform="matrix(1.0526 0 0 1.2857 -1.2632 -13.429)" style="opacity:.4">
    <rect id="rect3079" x="38" y="40" width="5" height="7" style="fill:url(#radialGradient3095);opacity:1"/>
    <rect id="rect3081" transform="scale(-1)" x="-10" y="-47" width="5" height="7" style="fill:url(#radialGradient3097);opacity:1"/>
    <rect id="rect3083" x="10" y="40" width="28" height="7" style="fill:url(#linearGradient3099);opacity:1"/>
   </g>
  </g>
  <g id="g4142" transform="translate(90)">
   <path id="path3924" transform="matrix(1 0 0 .83333 -89 7.1666)" d="m34 43a9.5 3 0 1 1-19 0 9.5 3 0 1 1 19 0z" style="fill:url(#radialGradient4157);opacity:.28378"/>
   <rect id="rect2466" transform="scale(-1,1)" x="63.5" y="34.5" width="2" height="9" rx="1" ry="1" style="fill:url(#linearGradient4159);stroke:#888a85"/>
   <rect id="rect2472" transform="scale(-1,1)" x="63.5" y="27.611" width="2" height="12.889" rx="1" ry="1.4321" style="fill:#d3d7cf;stroke:#999"/>
   <g id="g3125" transform="translate(-21,4)">
    <path id="path3107" d="m-49.5 39.5 6-3.5" style="fill-rule:evenodd;fill:#d3d7cf;stroke-linecap:round;stroke-width:3;stroke:#888a85"/>
    <path id="path3109" d="m-37.5 39.5-6-3.5" style="fill-rule:evenodd;fill:#d3d7cf;stroke-linecap:round;stroke-width:3;stroke:#888a85"/>
    <path id="path3111" d="m-49.5 39.5 6-3.5" style="fill-rule:evenodd;fill:#d3d7cf;stroke-linecap:round;stroke-width:1px;stroke:#d3d7cf"/>
    <path id="path3113" d="m-37.5 39.5-6-3.5" style="fill-rule:evenodd;fill:#d3d7cf;stroke-linecap:round;stroke-width:1px;stroke:#d3d7cf"/>
    <rect id="rect3115" x="-45.5" y="34.5" width="4" height="3" rx="1.5" ry="1.5" style="fill:#d3d7cf;stroke:#777974"/>
    <path id="path3119" transform="matrix(.57678 0 0 .74767 -61.139 6.095)" d="m21.429 44.679a1.25 0.96429 0 1 1-2.5 0 1.25 0.96429 0 1 1 2.5 0z" style="fill:#fff"/>
    <rect id="rect3121" x="-45" y="35" width="3" height="2" rx="1.125" ry="1" style="fill:url(#linearGradient4163)"/>
   </g>
  </g>
  <path id="path4170" transform="matrix(.57678 0 0 .74767 19.861 10.095)" d="m21.429 44.679a1.25 0.96429 0 1 1-2.5 0 1.25 0.96429 0 1 1 2.5 0z" style="fill:#fff"/>
  <g id="g4173" transform="translate(90)">
   <rect id="rect2484" x="-84.5" y="6.5" width="38" height="28" rx="1.0195" ry="1.0573" style="fill:url(#radialGradient3985);stroke:#babdb6"/>
   <path id="path2488" d="m-82.594 7.5c-0.52957 0-0.90625 0.24406-0.90625 0.58717v24.742c0 0.34312 0.37668 0.58717 0.90625 0.58717h34.188c0.52957 0 0.90625-0.24406 0.90625-0.58717v-24.742c0-0.34311-0.37668-0.58717-0.90625-0.58717h-34.188z" style="fill:none;stroke:#fff"/>
   <rect id="rect2490" x="-85" y="7" width="39" height="2" style="opacity:.11712"/>
   <rect id="rect2492" x="-85.5" y="4.5" width="40" height="3" rx="1.5833" ry="1.5" style="fill:#babdb6;stroke:url(#linearGradient3980)"/>
   <rect id="rect2494" transform="scale(1,-1)" x="-84" y="-6" width="37" height="1" rx=".48649" ry=".5" style="fill:url(#linearGradient3977)"/>
   <rect id="rect2496" transform="matrix(7.3523e-8 1 1 -1.8381e-8 0 0)" x="5" y="-85" width="2" height="2" rx="1" ry="1" style="fill:#fff"/>
   <rect id="rect2498" transform="matrix(7.3523e-8 1 1 -1.8381e-8 0 0)" x="5" y="-48" width="2" height="2" rx="1" ry="1" style="fill:#fff"/>
   <rect id="rect2482" x="-66" y="35" width="3" height="2" style="fill:url(#linearGradient4161);opacity:.11712"/>
   <path id="path5208" d="m-70 13v14l12-7.0276-12-6.9724z" style="fill-rule:evenodd;fill:#888a85"/>
  </g>
 </g>
</svg>
