<?xml version="1.0" encoding="UTF-8"?>
<!-- Created with Inkscape (http://www.inkscape.org/) -->
<svg id="svg3879" width="24" height="24" version="1.0" xmlns="http://www.w3.org/2000/svg" xmlns:cc="http://creativecommons.org/ns#" xmlns:dc="http://purl.org/dc/elements/1.1/" xmlns:rdf="http://www.w3.org/1999/02/22-rdf-syntax-ns#" xmlns:xlink="http://www.w3.org/1999/xlink">
 <defs id="defs3881">
  <linearGradient id="linearGradient3617">
   <stop id="stop3619" style="stop-color:#2e3436" offset="0"/>
   <stop id="stop3621" style="stop-color:#0b0c0d" offset="1"/>
  </linearGradient>
  <linearGradient id="linearGradient4984" x1="-24.687" x2="-24.687" y1="245.85" y2="247.61" gradientTransform="matrix(1.0339 0 0 1.0227 49.114 -252.03)" gradientUnits="userSpaceOnUse">
   <stop id="stop4978" style="stop-color:#555753" offset="0"/>
   <stop id="stop4980" style="stop-color:#808080" offset="1"/>
  </linearGradient>
  <radialGradient id="radialGradient5721-4" cx="-306.03" cy="-120.86" r="3.0368" gradientTransform="matrix(.48374 .92162 -1.0869 .53973 10.515 359.09)" gradientUnits="userSpaceOnUse" xlink:href="#linearGradient5043-9-6-1"/>
  <linearGradient id="linearGradient5043-9-6-1">
   <stop id="stop5045-4-8-8" style="stop-color:#fff" offset="0"/>
   <stop id="stop5047-1-2-6" style="stop-color:#fff;stop-opacity:0" offset="1"/>
  </linearGradient>
  <linearGradient id="linearGradient5719-5" x1="-300.83" x2="-300.83" y1="-126.31" y2="-114.83" gradientTransform="matrix(.52564 0 0 .74897 153.13 104.26)" gradientUnits="userSpaceOnUse" xlink:href="#linearGradient5655-9"/>
  <linearGradient id="linearGradient5655-9">
   <stop id="stop5657-5" style="stop-color:#2e3436" offset="0"/>
   <stop id="stop5659-1" style="stop-color:#707e83;stop-opacity:0" offset="1"/>
  </linearGradient>
  <linearGradient id="linearGradient5758" x1="-219.25" x2="-219.25" y1="-43.842" y2="-36.569" gradientTransform="matrix(-.78353 0 0 .63823 -176.9 41.23)" gradientUnits="userSpaceOnUse" xlink:href="#linearGradient5853"/>
  <linearGradient id="linearGradient5853">
   <stop id="stop5855" style="stop-color:#888a85" offset="0"/>
   <stop id="stop5857" style="stop-color:#555753" offset="1"/>
  </linearGradient>
  <linearGradient id="linearGradient5632" x1="-25.743" x2="-23.909" y1="-243.1" y2="-240.62" gradientTransform="matrix(.3446 0 0 .65762 31.074 161.6)" gradientUnits="userSpaceOnUse">
   <stop id="stop5628" style="stop-color:#babdb6" offset="0"/>
   <stop id="stop5630" style="stop-color:#babdb6;stop-opacity:0" offset="1"/>
  </linearGradient>
  <linearGradient id="linearGradient4977" x1="-105.74" x2="-102.95" y1="-282.2" y2="-282.2" gradientUnits="userSpaceOnUse">
   <stop id="stop4973" style="stop-color:#fff" offset="0"/>
   <stop id="stop4975" style="stop-color:#fff;stop-opacity:0" offset="1"/>
  </linearGradient>
  <linearGradient id="linearGradient4792" x1="-106.91" x2="-101.28" y1="280.92" y2="282.32" gradientTransform="matrix(.40916 0 0 .50231 64.795 -139.49)" gradientUnits="userSpaceOnUse">
   <stop id="stop4788" style="stop-color:#555753" offset="0"/>
   <stop id="stop4790" offset="1"/>
  </linearGradient>
  <linearGradient id="linearGradient5212" x1="-304.5" x2="-262.43" y1="-142.89" y2="-143.92" gradientUnits="userSpaceOnUse">
   <stop id="stop5208" style="stop-color:#fff" offset="0"/>
   <stop id="stop5210" style="stop-color:#dededd;stop-opacity:0" offset="1"/>
  </linearGradient>
  <linearGradient id="linearGradient5394" x1="-283.8" x2="-283.8" y1="-143.75" y2="-141.13" gradientTransform="matrix(.52812 0 0 .55525 152.93 81.212)" gradientUnits="userSpaceOnUse">
   <stop id="stop5390" style="stop-color:#555753" offset="0"/>
   <stop id="stop5392" offset="1"/>
  </linearGradient>
  <radialGradient id="radialGradient5382" cx="-284.45" cy="-153.18" r="17.449" gradientTransform="matrix(.3968 .0046216 -.0039183 .50204 114.94 79.306)" gradientUnits="userSpaceOnUse">
   <stop id="stop5378" style="stop-color:#babdb6" offset="0"/>
   <stop id="stop5380" style="stop-color:#434542" offset="1"/>
  </radialGradient>
  <linearGradient id="linearGradient3623" x1="1.4212" x2="1.4212" y1="19.019" y2="34.928" gradientTransform="matrix(1.0323 0 0 .62873 -5.0368 -2.8264)" gradientUnits="userSpaceOnUse" xlink:href="#linearGradient3617"/>
  <linearGradient id="linearGradient4555-8">
   <stop id="stop4557-5" style="stop-color:#545652" offset="0"/>
   <stop id="stop4559-4" style="stop-color:#80837d" offset="1"/>
  </linearGradient>
  <linearGradient id="linearGradient3017" x1="-257.51" x2="-257.5" y1="-50.302" y2="-51.44" gradientTransform="matrix(1 0 0 .84879 263.58 52.023)" gradientUnits="userSpaceOnUse" xlink:href="#linearGradient4555-8"/>
  <linearGradient id="linearGradient3052" x1="-219.25" x2="-219.25" y1="-43.842" y2="-36.569" gradientTransform="matrix(.78353 0 0 .63823 182.74 41.269)" gradientUnits="userSpaceOnUse" xlink:href="#linearGradient5853"/>
  <linearGradient id="linearGradient3054" x1="-300.83" x2="-300.83" y1="-126.31" y2="-114.83" gradientTransform="matrix(.52564 0 0 .74897 147.28 104.3)" gradientUnits="userSpaceOnUse" xlink:href="#linearGradient5655-9"/>
  <linearGradient id="linearGradient3056" x1="1.4212" x2="1.4212" y1="19.019" y2="34.928" gradientTransform="matrix(1.0323 0 0 .62873 -10.883 -2.7881)" gradientUnits="userSpaceOnUse" xlink:href="#linearGradient3617"/>
  <radialGradient id="radialGradient3058" cx="-306.03" cy="-120.86" r="3.0368" gradientTransform="matrix(-.48374 .92162 1.0869 .53973 -4.6686 359.13)" gradientUnits="userSpaceOnUse" xlink:href="#linearGradient5043-9-6-1"/>
  <linearGradient id="linearGradient3062" x1="-257.51" x2="-257.5" y1="-50.302" y2="-51.44" gradientTransform="matrix(.9752 0 0 .84416 263.06 51.764)" gradientUnits="userSpaceOnUse" xlink:href="#linearGradient4555-8"/>
 </defs>
 <metadata id="metadata3884">
  <rdf:RDF>
   <cc:Work rdf:about="">
    <dc:format>image/svg+xml</dc:format>
    <dc:type rdf:resource="http://purl.org/dc/dcmitype/StillImage"/>
    <dc:title/>
   </cc:Work>
  </rdf:RDF>
 </metadata>
 <g id="layer1" transform="translate(8.5714 -.14286)">
  <rect id="rect5861" x="-9.2807" y="-.52737" width="24.79" height="24.79" style="fill-opacity:0"/>
  <path id="rect5549" d="m-0.48274 1.063c-3.5247 0-6.0586 2.8301-6.0586 6.3428v3.3086c0 0.37141 0.035895 0.72774 0.097163 1.0813h0.99913c-0.065659-0.35077-0.097169-0.71074-0.097169-1.0813v-3.3086c0-3.2355 2.6134-5.8264 5.86-5.8264h5.7857c3.2465 0 5.3244 2.5908 5.3244 5.8264v3.3086c0 0.37061-0.03151 0.73058-0.09716 1.0813h1.0095c0.06128-0.35361 0.09717-0.70994 0.09717-1.0813v-3.3086c0-3.5127-2.5944-6.3428-6.119-6.3428h-6.8011z" style="block-progression:tb;color:#000000;fill:#808080;text-indent:0;text-transform:none"/>
  <path id="path5202" d="m-6.1124 5.0093c-0.18128-0.15197-0.25319-0.354-0.23845-0.66994 0.015145-0.32463 0.074427-0.42246 0.57822-0.95429 2.4613-2.5983 7.0821-3.8001 11.435-2.9742 1.9884 0.37728 3.8596 1.2045 5.1621 2.2822 0.70093 0.57994 1.2275 1.2049 1.2871 1.5276 0.08117 0.43964-0.16548 0.88165-0.4922 0.88206-0.10773 1.423e-4 -0.20498-0.054533-0.42693-0.23999-2.4301-2.0306-6.2623-2.8107-10.014-2.3789-2.5441 0.29278-4.7739 0.93815-6.5006 2.3161-0.42617 0.3401-0.58444 0.382-0.79046 0.20929z" style="fill:url(#radialGradient5382)"/>
  <path id="path5194" d="m2.2314 0.15982c-0.66325 0.025042-1.3242 0.085858-1.964 0.17948-2.5432 0.37221-4.832 1.2787-6.3045 2.6563-0.00903 0.00844-0.024029 0.00944-0.033007 0.017935-0.012792 0.016513-0.023888 0.034598-0.033008 0.053804-0.44038 0.33758-0.58776 0.99116-0.31357 1.5076 0.26956 0.50775 0.83593 0.86661 1.3203 0.63911 0.00871-0.00389 0.024399 0.00444 0.033008 0 0.023394-0.00852 0.045687-0.020622 0.066015-0.035869 0.00423-0.00222 0.012306 0.00278 0.016478 0 0.00998-0.00699 0.022974-0.010993 0.033007-0.017935 0.00618-0.00389 0.010301-0.013659 0.016478-0.017935 3.3537-2.326 9.7007-2.634 14.045-0.79551 0.60823 0.25741 1.1554 0.40188 1.6339 0.72372 0.0052 0.00623 0.01073 0.012223 0.01649 0.017935 0.0063 0.00389 0.01023 0.013659 0.01649 0.017935 0.01419 0.020208 0.0309 0.038354 0.04948 0.053804 0.50248 0.31549 1.1622-0.038811 1.4523-0.58526 0.24781-0.46676 0.1467-1.0422-0.19804-1.3999-0.0047-0.012372-0.01023-0.024385-0.01649-0.035924-0.0032-0.00278-0.01325 0.00278-0.01648 0-0.0052-0.00623-0.01075-0.012222-0.01649-0.017935-0.01451-0.013159-0.01774-0.041477-0.03301-0.053804 1.69e-4 -0.00598 1.69e-4 -0.011958 0-0.017935-0.93809-0.90561-2.2727-1.6294-3.8784-2.1358-1.2418-0.39169-2.5614-0.62752-3.8949-0.71792-0.66676-0.045197-1.3337-0.060927-1.997-0.035869l5.28e-5 5.52e-6zm0.99023 0.95903c1.6218 0.025708 3.2534 0.26283 4.7531 0.73586h0.016477c1.459 0.46222 2.6653 0.75041 3.5153 1.5178 0.02512 0.053659 0.06618 0.098318 0.11552 0.12564 0.25531 0.16029 0.34544 0.51207 0.19805 0.78971-0.12529 0.236-0.3816 0.5148-0.61064 0.44168-0.02417-0.023244-0.05231-0.041582-0.08252-0.053803-0.54018-0.37861-1.1453-1.0058-1.8319-1.2964-2.2749-0.96278-5.0153-1.2994-7.6413-1.118-2.581 0.17825-5.0394 1.1604-6.8161 2.3785-0.00423 0.00278-0.012516-0.00278-0.016478 0-0.011369 0.00513-0.022407 0.011131-0.033007 0.017935-0.011368 0.00513-0.022407 0.011131-0.033008 0.017935-0.00629 0.00444-0.010248 0.013549-0.016478 0.017935-0.25195 0.14401-0.56595-0.1351-0.70966-0.40579-0.14149-0.26653-0.066845-0.60382 0.16504-0.77177 0.011365-0.00513 0.022402-0.011131 0.033007-0.017935 0.039117-0.020455 0.073468-0.051585 0.099022-0.089739 1.3531-1.2501 3.55-1.7504 6.0074-2.1101 0.93334-0.1366 1.9151-0.19494 2.8882-0.17948l-2.65e-5 -5.5e-6z" style="block-progression:tb;color:#000000;fill:url(#linearGradient5394);text-indent:0;text-transform:none"/>
  <path id="path5204" transform="matrix(-.53179 0 0 .51136 -148.93 75.903)" d="m-300.84-141.16a18.775 9.3875 0 0 1 30.746 0.0358" style="fill:none;stroke-dashoffset:220;stroke-linecap:round;stroke-width:1.9176;stroke:url(#linearGradient5212)"/>
  <path id="rect5551" d="m-6.5612 17.801v0.01611c0 3.5127 2.8301 6.3428 6.3429 6.3428l4.7773-0.61896 0.19759-0.67799-4.4132 0.32577c-3.2356 0-5.8264-2.4701-5.8264-5.7056v-0.01611l-1.0781 0.334z" style="block-progression:tb;color:#000000;fill:#808080;text-indent:0;text-transform:none"/>
  <rect id="rect4784" transform="matrix(0,1,1,0,0,0)" x="21.63" y="-.10165" width="2.0423" height="5.0178" rx="1.0212" ry="1.0212" style="fill:#555753;stroke-dashoffset:220;stroke-linecap:round;stroke:url(#linearGradient4792)"/>
  <path id="path4967" transform="matrix(0 .18017 .39155 0 113.07 41.44)" d="m-103.47-286.5c-0.57059 0-1.0312 0.46066-1.0312 1.0312v5.9375c0 0.57059 0.46066 1.0312 1.0312 1.0312h0.9375c0.57059 0 1.0312-0.46066 1.0312-1.0312v-5.9375c0-0.57059-0.46066-1.0312-1.0312-1.0312h-0.9375z" style="fill:none;opacity:.60811;stroke-dashoffset:220;stroke-linecap:round;stroke-width:3.765;stroke:url(#linearGradient4977)"/>
  <rect id="rect5572" transform="matrix(0,1,1,0,0,0)" x="22.139" y=".49657" width="1.0459" height="3.899" rx=".99727" ry=".99728" style="fill:url(#linearGradient5632)"/>
  <path id="path5707" d="m-5.3766 9.6362c-1.4908 0-2.6908 1.0643-2.6908 2.3865v4.1925c0 1.3222 1.2 2.3865 2.6908 2.3865l1.2651 0.0013 0.015891-8.9737c-0.95611 0.024323-0.39629 0.00686-1.281 0.00686v-5.62e-5l1e-7 6.63e-5z" style="fill:#fff;stroke-dashoffset:220;stroke-linecap:round;stroke:url(#linearGradient5758)"/>
  <rect id="rect5709" x="-5.5517" y="9.1426" width=".98005" height="8.9389" style="fill:url(#linearGradient5719-5)"/>
  <rect id="rect5711" x="-4.5824" y="9.1316" width="2.0254" height="10.002" rx="1.0133" ry="1.0133" style="fill:url(#linearGradient3623)"/>
  <path id="path5713" d="m-5.8662 9.95c-0.94077 0-1.698 0.85584-1.698 1.9191v3.3714c0 1.0632 0.75727 1.9191 1.698 1.9191l1.2402-0.01722v-7.1922c-0.60336 0.019548-0.68186 0-1.2402 0v-7.25e-5z" style="fill:url(#radialGradient5721-4);opacity:.5"/>
  <path id="path5859" transform="matrix(.62336 0 0 .3801 153.07 31.796)" d="m-243.18-24.046a0.8374 1.374 0 1 1-1.6748 0 0.8374 1.374 0 1 1 1.6748 0z" style="fill:#dee1e3"/>
  <rect id="rect5811-4" transform="rotate(90)" x="23.119" y="-1.428" width="1.0421" height="2.3801" rx=".50398" ry=".50398" style="fill:url(#linearGradient4984)"/>
  <rect id="rect5863" x="-9.2807" y="-.52737" width="24.79" height="24.79" style="fill-opacity:0"/>
  <rect id="rect3015" transform="scale(-1,1)" x="5.5438" y="8.1219" width="1.008" height="3.0484" rx=".50398" ry=".50398" style="fill:url(#linearGradient3017)"/>
  <path id="path3040" d="m11.223 9.6745c1.4908 0 2.6908 1.0643 2.6908 2.3865v4.1925c0 1.3222-1.2 2.3865-2.6908 2.3865l-1.2651 0.0013-0.015891-8.9737c0.95611 0.024323 0.39629 0.00686 1.281 0.00686v-5.62e-5 6.63e-5z" style="fill:#fff;stroke-dashoffset:220;stroke-linecap:round;stroke:url(#linearGradient3052)"/>
  <rect id="rect3042" transform="scale(-1,1)" x="-11.398" y="9.181" width=".98005" height="8.9389" style="fill:url(#linearGradient3054)"/>
  <rect id="rect3044" transform="scale(-1,1)" x="-10.429" y="9.1699" width="2.0254" height="10.002" rx="1.0133" ry="1.0133" style="fill:url(#linearGradient3056)"/>
  <path id="path3046" d="m11.712 9.9883c0.94077 0 1.698 0.85584 1.698 1.9191v3.3714c0 1.0632-0.75727 1.9191-1.698 1.9191l-1.2402-0.01722v-7.1922c0.60336 0.019548 0.68186 0 1.2402 0v-7.25e-5z" style="fill:url(#radialGradient3058);opacity:.5"/>
  <rect id="rect3050" x="11.425" y="8.102" width=".98296" height="3.0318" rx=".50398" ry=".50398" style="fill:url(#linearGradient3062)"/>
 </g>
</svg>
