<?xml version="1.0" encoding="UTF-8" standalone="no"?>
<!-- Created with Inkscape (http://www.inkscape.org/) -->

<svg
   xmlns:dc="http://purl.org/dc/elements/1.1/"
   xmlns:cc="http://creativecommons.org/ns#"
   xmlns:rdf="http://www.w3.org/1999/02/22-rdf-syntax-ns#"
   xmlns:svg="http://www.w3.org/2000/svg"
   xmlns="http://www.w3.org/2000/svg"
   xmlns:xlink="http://www.w3.org/1999/xlink"
   xmlns:sodipodi="http://sodipodi.sourceforge.net/DTD/sodipodi-0.dtd"
   xmlns:inkscape="http://www.inkscape.org/namespaces/inkscape"
   id="svg3675"
   height="64"
   width="64"
   version="1.0"
   inkscape:version="0.48.4 r9939"
   sodipodi:docname="apport.svg"
   inkscape:export-filename="/home/vishnoo/Desktop/apport-64.png"
   inkscape:export-xdpi="90"
   inkscape:export-ydpi="90">
  <sodipodi:namedview
     pagecolor="#ffffff"
     bordercolor="#666666"
     borderopacity="1"
     objecttolerance="10"
     gridtolerance="10"
     guidetolerance="10"
     inkscape:pageopacity="0"
     inkscape:pageshadow="2"
     inkscape:window-width="1280"
     inkscape:window-height="776"
     id="namedview24"
     showgrid="false"
     inkscape:zoom="1"
     inkscape:cx="46.659602"
     inkscape:cy="21.712651"
     inkscape:window-x="0"
     inkscape:window-y="24"
     inkscape:window-maximized="1"
     inkscape:current-layer="layer3"
     inkscape:snap-global="true">
    <inkscape:grid
       type="xygrid"
       id="grid3008"
       empspacing="5"
       visible="true"
       enabled="true"
       snapvisiblegridlinesonly="true" />
  </sodipodi:namedview>
  <metadata
     id="metadata29">
    <rdf:RDF>
      <cc:Work
         rdf:about="">
        <dc:format>image/svg+xml</dc:format>
        <dc:type
           rdf:resource="http://purl.org/dc/dcmitype/StillImage" />
        <dc:title />
      </cc:Work>
    </rdf:RDF>
  </metadata>
  <defs
     id="defs3677">
    <linearGradient
       id="linearGradient2407"
       y2="9.7258072"
       gradientUnits="userSpaceOnUse"
       x2="62.673725"
       gradientTransform="matrix(2.1154,0,0,2.1153,-155.05899,29.606272)"
       y1="-15.329741"
       x1="62.673725">
      <stop
         id="stop4875"
         style="stop-color:#fff"
         offset="0" />
      <stop
         id="stop4877"
         style="stop-color:#fff;stop-opacity:0"
         offset="1" />
    </linearGradient>
    <radialGradient
       inkscape:collect="always"
       xlink:href="#radialGradient2410-3"
       id="radialGradient3867-0"
       cx="35.589161"
       cy="40.983368"
       fx="35.589161"
       fy="40.983368"
       r="2.2073171"
       gradientTransform="matrix(3.8930213,0.27563995,-0.10971091,1.5523012,-98.391101,-32.318405)"
       gradientUnits="userSpaceOnUse" />
    <radialGradient
       id="radialGradient2410-3"
       gradientUnits="userSpaceOnUse"
       cy="3.9898655"
       cx="24.756285"
       gradientTransform="matrix(-3.142937e-8,2.0591264,-1.8630191,-2.8436097e-8,-16.045795,-47.797048)"
       r="20.396999"
       fx="24.756285"
       fy="3.9898655">
      <stop
         id="stop2778-1"
         style="stop-color:#8bd0ea;stop-opacity:1"
         offset="0" />
      <stop
         id="stop2780-4"
         style="stop-color:#19b6ee;stop-opacity:1"
         offset=".26238" />
      <stop
         id="stop2782-8"
         style="stop-color:#3b90af;stop-opacity:1"
         offset="0.80952388" />
      <stop
         id="stop2784-8"
         style="stop-color:#195870;stop-opacity:1"
         offset="1" />
    </radialGradient>
    <linearGradient
       inkscape:collect="always"
       xlink:href="#linearGradient2412-9"
       id="linearGradient3857-3"
       x1="33.692677"
       y1="41.690662"
       x2="45.269791"
       y2="44.260967"
       gradientUnits="userSpaceOnUse" />
    <linearGradient
       id="linearGradient2412-9"
       y2="3.0816"
       gradientUnits="userSpaceOnUse"
       x2="18.379"
       gradientTransform="matrix(0.95844,0,0,0.95844,-46.481472,-0.82322829)"
       y1="44.98"
       x1="18.379">
      <stop
         offset="0"
         style="stop-color:#409fc2;stop-opacity:1;"
         id="stop3839-7" />
      <stop
         id="stop2790-7"
         style="stop-color:#1f566a;stop-opacity:1;"
         offset="1" />
    </linearGradient>
    <linearGradient
       id="linearGradient2407-9"
       y2="9.7258072"
       gradientUnits="userSpaceOnUse"
       x2="62.673725"
       gradientTransform="matrix(2.1154,0,0,2.1153,-155.05899,29.606272)"
       y1="-15.329741"
       x1="62.673725">
      <stop
         id="stop4875-7"
         style="stop-color:#ffffff;stop-opacity:0;"
         offset="0" />
      <stop
         id="stop4877-7"
         style="stop-color:#ffffff;stop-opacity:1;"
         offset="1" />
    </linearGradient>
    <radialGradient
       r="23"
       fy="20.471872"
       fx="23.927731"
       cy="20.471872"
       cx="23.927731"
       gradientTransform="matrix(2.8203223,0.11664895,-0.11931666,2.8848205,-31.744092,-54.138923)"
       gradientUnits="userSpaceOnUse"
       id="radialGradient3919"
       xlink:href="#linearGradient2412-9"
       inkscape:collect="always" />
    <radialGradient
       inkscape:collect="always"
       xlink:href="#radialGradient2410-3"
       id="radialGradient4016"
       gradientUnits="userSpaceOnUse"
       gradientTransform="matrix(2.6882933,0.15835816,-0.12479555,2.1185315,-32.659897,-31.024342)"
       cx="26.513241"
       cy="15.85399"
       fx="26.513241"
       fy="15.85399"
       r="23" />
    <radialGradient
       inkscape:collect="always"
       xlink:href="#radialGradient2410-3"
       id="radialGradient3815"
       cx="9.2778931"
       cy="33.201191"
       fx="9.2778931"
       fy="33.201191"
       r="5.2222314"
       gradientTransform="matrix(2.2906019,-0.91624054,0.28252609,0.70631586,-21.386222,17.902659)"
       gradientUnits="userSpaceOnUse" />
    <radialGradient
       inkscape:collect="always"
       xlink:href="#radialGradient2410-3"
       id="radialGradient3823"
       cx="7.1243887"
       cy="10.870715"
       fx="7.1243887"
       fy="10.870715"
       r="6.3095975"
       gradientTransform="matrix(2.4336863,2.1294763,-0.81842926,0.93534803,-2.1465105,-16.093392)"
       gradientUnits="userSpaceOnUse" />
    <radialGradient
       inkscape:collect="always"
       xlink:href="#radialGradient2410-3"
       id="radialGradient3831"
       cx="20.311569"
       cy="41.414787"
       fx="20.311569"
       fy="41.414787"
       r="2.7969415"
       gradientTransform="matrix(1.8310388,0.57822101,-1.5825284,5.0113579,48.660374,-176.84627)"
       gradientUnits="userSpaceOnUse" />
    <radialGradient
       inkscape:collect="always"
       xlink:href="#radialGradient2410-3"
       id="radialGradient3839"
       cx="41.541332"
       cy="33.765697"
       fx="41.541332"
       fy="33.765697"
       r="5.2667422"
       gradientTransform="matrix(0.70090276,-1.101419,3.0815227,1.9609695,-89.98567,13.131021)"
       gradientUnits="userSpaceOnUse" />
    <radialGradient
       inkscape:collect="always"
       xlink:href="#linearGradient2407-9"
       id="radialGradient3859"
       cx="23.997488"
       cy="23.999582"
       fx="23.997488"
       fy="23.999582"
       r="22.051479"
       gradientTransform="matrix(1.0370716,-1.9938562e-8,1.9938556e-8,1.0370718,-0.88700369,-0.88939117)"
       gradientUnits="userSpaceOnUse" />
    <radialGradient
       inkscape:collect="always"
       xlink:href="#radialGradient2410-3"
       id="radialGradient3875"
       cx="8.979084"
       cy="24.005474"
       fx="8.979084"
       fy="24.005474"
       r="19.510559"
       gradientTransform="matrix(0.3781073,-0.03781074,0.01551239,0.15512396,4.7407913,19.140165)"
       gradientUnits="userSpaceOnUse" />
    <radialGradient
       inkscape:collect="always"
       xlink:href="#radialGradient2410-3"
       id="radialGradient3889"
       gradientUnits="userSpaceOnUse"
       gradientTransform="matrix(0.03057406,-0.15287027,0.37810725,0.0756215,29.773166,29.0027)"
       cx="44.621208"
       cy="33.802101"
       fx="44.621208"
       fy="33.802101"
       r="19.510559" />
    <radialGradient
       inkscape:collect="always"
       xlink:href="#radialGradient2410-3"
       id="radialGradient3891"
       gradientUnits="userSpaceOnUse"
       gradientTransform="matrix(-0.01369288,-0.15062181,0.41591809,-0.03781072,37.017298,23.919886)"
       cx="43.91824"
       cy="18.037945"
       fx="43.91824"
       fy="18.037945"
       r="19.510559" />
    <radialGradient
       inkscape:collect="always"
       xlink:href="#radialGradient2410-3"
       id="radialGradient3893"
       gradientUnits="userSpaceOnUse"
       gradientTransform="matrix(-0.08350997,-0.06680801,0.15124296,-0.18905369,41.391683,11.108112)"
       cx="38.75428"
       cy="3.9602799"
       fx="38.75428"
       fy="3.9602799"
       r="19.510559" />
    <radialGradient
       inkscape:collect="always"
       xlink:href="#radialGradient2410-3"
       id="radialGradient3896"
       gradientUnits="userSpaceOnUse"
       gradientTransform="matrix(-0.07562152,0.52935044,-0.18715352,-0.02673625,31.586834,-12.566772)"
       cx="29.901777"
       cy="-3.078552"
       fx="29.901777"
       fy="-3.078552"
       r="19.510559" />
    <radialGradient
       inkscape:collect="always"
       xlink:href="#radialGradient2410-3"
       id="radialGradient3898"
       gradientUnits="userSpaceOnUse"
       gradientTransform="matrix(0.12483269,0.37449815,-0.11343216,0.03781074,20.029026,-1.508239)"
       cx="26.661398"
       cy="0.83609062"
       fx="26.661398"
       fy="0.83609062"
       r="19.510559" />
    <linearGradient
       inkscape:collect="always"
       xlink:href="#linearGradient2407"
       id="linearGradient3907"
       x1="21.049274"
       y1="-7.7215734"
       x2="22.524693"
       y2="12.93427"
       gradientUnits="userSpaceOnUse" />
    <linearGradient
       inkscape:collect="always"
       xlink:href="#linearGradient2407"
       id="linearGradient3915"
       x1="37.278862"
       y1="-6.9838648"
       x2="37.278862"
       y2="10.721144"
       gradientUnits="userSpaceOnUse" />
    <radialGradient
       inkscape:collect="always"
       xlink:href="#radialGradient2410-3"
       id="radialGradient3920"
       gradientUnits="userSpaceOnUse"
       gradientTransform="matrix(0.91077468,-0.4557367,0.43511615,0.86956521,3.0189575,21.775824)"
       cx="28.858229"
       cy="29.18232"
       fx="28.858229"
       fy="29.18232"
       r="23" />
  </defs>
  <g
     inkscape:groupmode="layer"
     id="layer3"
     inkscape:label="plain"
     style="display:inline"
     transform="translate(0,16)">
    <g
       id="g3029">
      <path
         sodipodi:nodetypes="zzzzzzszszzzzzzzszazzzzzzzsszzzzaszssssszsz"
         inkscape:connector-curvature="0"
         id="path4007"
         d="m 49.83904,13.823397 c 0,1.038914 13.859579,-0.770535 12.576817,4.385741 -1.282757,5.156275 -10.26207,-2.578137 -11.54483,-1.289071 -1.282758,1.289071 -1.730004,-0.197407 -2.331938,0.741205 -0.601932,0.938615 0.650832,1.615004 1.373223,3.882021 0.72239,2.26702 15.543937,4.135173 11.942149,10.816564 -3.601786,6.681391 -11.260332,-9.446801 -17.768605,-7.441228 -1.85292,0.57099 -2.516252,2.466285 -3.446977,3.66217 -0.93072,1.195888 4.15142,5.563282 1.834242,7.498885 -1.488287,1.243206 -1.585375,-5.517089 -4.119131,-6.215962 -2.533757,-0.698875 -5.618062,0.791202 -6.90082,2.08027 -1.282762,1.289072 1.489156,14.23887 -5.705856,14.549989 -7.19501,0.31112 1.708201,-11.561729 2.476768,-15.646162 C 28.992651,26.763386 27.78572,25.73823 26.8517,25.133335 25.917683,24.52844 24.537827,22.950588 21.559513,23.780237 18.581199,24.609887 11.060524,36.753832 7.7298613,31.173458 4.3991998,25.593083 13.460207,24.228044 19.178124,22.838633 c 1.161162,-0.282156 1.408227,-3.297801 1.408227,-3.814365 0,-0.516561 0.275197,-1.54204 -0.09826,-2.155709 C 19.973326,16.022658 20.073683,15.048832 17.917623,15.393512 15.761556,15.738195 7.2427519,19.94207 8.4811356,14.578382 9.7195198,9.2146946 14.762839,14.311857 17.755599,13.39302 20.74836,12.474179 21.39423,10.292853 21.996164,9.3542388 22.598103,8.4156256 17.127732,6.1122246 17.475933,5.7623137 17.824142,5.4123973 -2.8108491,1.5985073 2.3201874,-6.1649431 7.4512253,-13.928394 17.872111,1.0957287 19.319069,3.0213573 20.766027,4.9469848 29.314228,7.7242465 30.693453,0.81923484 31.144736,-1.4400806 25.030089,-7.9159066 28.917512,-9.4311914 c 5.2755,-2.0563436 4.062497,8.3546198 4.60535,9.48675791 0.542852,1.13213669 2.220276,2.19525449 4.063403,-1.74558461 1.843128,-3.9408376 -1.801957,-13.9853589 3.329081,-12.6962889 5.131036,1.289068 -1.073158,9.1702764 -1.279553,12.3260576 -0.2064,3.155782 0.815355,2.91277474 2.046318,3.2910658 1.734852,0.5331442 3.463798,-0.38143796 4.972222,-2.22392824 2.12254,-2.59262086 4.232175,-9.91224316 7.269311,-6.93380056 3.037137,2.9784428 -4.423747,4.6520992 -5.057765,7.64522575 -0.253001,1.19438041 1.717028,0.1767032 1.977548,1.63159425 0.204125,1.1399727 -1.298839,0.9801569 -1.41587,2.492732 -0.02061,0.2666149 0.2972,2.3374868 1.920088,2.2728001 3.378653,-0.1346731 9.363128,-3.7661543 9.675627,0.3805989 0.288457,3.8276474 -8.969901,0.6397541 -10.047322,1.0438969 -1.077418,0.4041428 0.332651,1.1053446 0.645974,2.7385615 0.21148,1.102349 -1.782884,2.505993 -1.782884,3.5449 z"
         style="fill:url(#radialGradient4016);fill-opacity:1;stroke:url(#radialGradient3919);stroke-width:1;stroke-miterlimit:4;stroke-opacity:1;stroke-dasharray:none;display:inline" />
      <path
         sodipodi:nodetypes="csssssssccccccc"
         inkscape:connector-curvature="0"
         transform="matrix(1.355549,0,0,1.3555486,-0.53332353,-16.533032)"
         style="opacity:1;fill:url(#radialGradient3823);stroke:none;stroke-width:0.73770857000000001;stroke-linejoin:round;stroke-miterlimit:4;stroke-opacity:1;display:inline;fill-opacity:1"
         d="M 14,14.9375 C 13.420176,14.165864 11.268745,11.106267 8.84375,8.96875 7.6312526,7.8999917 6.3631229,7.1116844 5.34375,6.90625 4.3243771,6.7008156 3.5893276,6.9023484 2.78125,8.125 2.3865842,8.7221444 2.2762397,9.1714951 2.3125,9.59375 c 0.03626,0.422255 0.2251105,0.838147 0.59375,1.28125 0.737279,0.886205 2.1861617,1.769708 3.78125,2.46875 1.5950883,0.699042 3.338296,1.241329 4.65625,1.625 0.658977,0.191836 1.19592,0.3525 1.59375,0.46875 0.198915,0.05813 0.35935,0.103703 0.5,0.15625 0.07033,0.02627 0.13001,0.0511 0.25,0.125 0.06,0.03695 0.14846,0.045 0.28125,0.25 0.0097,0.01502 0.02145,0.04492 0.03125,0.0625 0.05052,0.03584 0.08519,0.06198 0.1875,0.125 z"
         id="path3803" />
      <path
         sodipodi:nodetypes="cccccssscsssc"
         inkscape:connector-curvature="0"
         style="opacity:1;fill:url(#radialGradient3815);stroke:none;stroke-width:0.73770857000000001;stroke-linejoin:round;stroke-miterlimit:4;stroke-opacity:1;display:inline;fill-opacity:1"
         d="m 15.78125,28.96875 c -0.11626,0.202685 -0.411022,0.329846 -0.625,0.5 0.293498,-0.200601 0.596044,-0.404883 0.9375,-0.5 z m -1.1875,0.90625 c -2.125459,0.512002 -4.7472321,1.010548 -6.4375,1.8125 -0.8608332,0.408424 -1.4105079,0.885098 -1.625,1.3125 -0.2144921,0.427402 -0.241318,0.905711 0.28125,1.78125 0.2384937,0.399585 0.4349675,0.553046 0.625,0.625 0.1900325,0.07195 0.4208646,0.06695 0.75,-0.03125 0.6582708,-0.196401 1.6109081,-0.883036 2.5625,-1.75 0.951592,-0.866964 1.925716,-1.903618 2.8125,-2.78125 0.373431,-0.369577 0.693123,-0.671107 1.03125,-0.96875 z"
         id="path3807"
         transform="matrix(1.355549,0,0,1.3555486,-0.53332353,-16.533032)" />
      <path
         sodipodi:nodetypes="cssccssssscc"
         inkscape:connector-curvature="0"
         id="path3801"
         d="m 22.03125,35.125 c -0.181901,0.966684 -0.724506,2.06189 -1.34375,3.3125 -0.619244,1.25061 -1.337023,2.624546 -1.84375,3.84375 -0.506727,1.219204 -0.760832,2.303346 -0.6875,2.8125 0.03667,0.254577 0.09482,0.321645 0.21875,0.40625 0.123931,0.08461 0.414327,0.211474 0.96875,0.1875 1.078058,-0.04662 1.629192,-0.480917 2.09375,-1.25 0.464558,-0.769083 0.744869,-1.913943 0.875,-3.125 0.130131,-1.211057 0.130654,-2.480197 0.15625,-3.53125 0.0128,-0.525526 0.0096,-0.993697 0.0625,-1.40625 0.0529,-0.412553 0.05501,-0.802971 0.46875,-1.21875 z"
         style="opacity:1;fill:url(#radialGradient3831);stroke:none;stroke-width:0.73770857000000001;stroke-linejoin:round;stroke-miterlimit:4;stroke-opacity:1;display:inline;fill-opacity:1"
         transform="matrix(1.355549,0,0,1.3555486,-0.53332353,-16.533032)" />
      <path
         sodipodi:nodetypes="cssssssscc"
         inkscape:connector-curvature="0"
         transform="matrix(1.355549,0,0,1.3555486,-0.53332353,-16.533032)"
         style="opacity:1;fill:url(#radialGradient3839);stroke:none;stroke-width:0.73770857000000001;stroke-linejoin:round;stroke-miterlimit:4;stroke-opacity:1;display:inline;fill-opacity:1"
         d="m 37.0625,30.84375 c 1.341462,0.890495 2.615284,2.111239 3.78125,3.1875 1.165966,1.076261 2.255127,1.979294 3,2.28125 0.372437,0.150978 0.600905,0.158301 0.78125,0.09375 0.180345,-0.06455 0.417119,-0.217187 0.6875,-0.71875 0.544811,-1.010636 0.386168,-1.562385 -0.125,-2.21875 -0.511168,-0.656365 -1.533337,-1.31461 -2.71875,-1.875 -1.185413,-0.56039 -2.505173,-1.015945 -3.59375,-1.46875 -0.544288,-0.226402 -1.025786,-0.471537 -1.4375,-0.71875 -1.634055,-0.980097 -2.371764,0.49532 -0.375,1.4375 z"
         id="path3799" />
      <path
         transform="matrix(1.355549,0,0,1.3555486,-0.53332353,-16.533032)"
         sodipodi:nodetypes="csscsssssc"
         inkscape:connector-curvature="0"
         id="path3796"
         d="m 38.6875,23.8125 c 0.383561,0.0801 0.748135,0.225839 1.15625,0.40625 0.81623,0.360822 1.747828,0.852987 2.65625,1.25 0.908422,0.397013 1.787922,0.667229 2.3125,0.65625 0.262289,-0.0055 0.425359,-0.04373 0.53125,-0.125 0.105891,-0.08127 0.195982,-0.219751 0.28125,-0.5625 0.07774,-0.312485 0.05086,-0.451067 -0.03125,-0.59375 -0.08211,-0.142683 -0.27349,-0.337036 -0.59375,-0.5 -0.64052,-0.325927 -1.761592,-0.5437 -2.9375,-0.65625 -1.175908,-0.11255 -2.381268,-0.114949 -3.34375,-0.15625"
         style="fill:url(#radialGradient3889);fill-opacity:1;stroke:none;display:inline" />
      <path
         style="fill:url(#radialGradient3891);fill-opacity:1;stroke:none;display:inline"
         d="m 44.25,16.4375 c -0.212548,-0.07795 -0.714604,-0.106091 -1.375,0.03125 -0.792793,0.164875 -1.741107,0.470428 -2.6875,0.71875 0.639154,0.117388 1.333722,0.236565 2,0.3125 0.843818,0.09617 1.620009,0.0873 2.03125,-0.03125 0.20562,-0.05927 0.284341,-0.121684 0.3125,-0.15625 0.02816,-0.03457 0.07704,-0.0571 0.0625,-0.25 -0.04221,-0.56007 -0.131202,-0.547049 -0.34375,-0.625 z"
         id="path3877"
         inkscape:connector-curvature="0"
         sodipodi:nodetypes="sscscccs"
         transform="matrix(1.355549,0,0,1.3555486,-0.53332353,-16.533032)" />
      <path
         transform="matrix(1.355549,0,0,1.3555486,-0.53332353,-16.533032)"
         sodipodi:nodetypes="ssscsscsss"
         inkscape:connector-curvature="0"
         id="path3879"
         d="M 39.1875,6.65625 C 39.113208,6.6395226 39.079478,6.6356061 38.96875,6.6875 38.747295,6.7912879 38.337671,7.2053779 37.9375,7.8125 37.406283,8.6184399 36.836765,9.6307037 36.28125,10.59375 36.502339,10.331463 36.742066,10.092302 37,9.875 37.605584,9.3648138 38.29482,8.9088926 38.84375,8.5 39.39268,8.0911074 39.786997,7.6930922 39.875,7.5 39.919,7.403454 39.89025,7.3732034 39.875,7.3125 39.85975,7.251797 39.83078,7.1393063 39.625,6.9375 39.422347,6.7387632 39.261792,6.6729774 39.1875,6.65625 z"
         style="fill:url(#radialGradient3893);fill-opacity:1;stroke:url(#linearGradient3915);display:inline" />
      <path
         style="fill:url(#radialGradient3896);fill-opacity:1;stroke:none;display:inline"
         d="m 29.75,2.34375 c -0.147475,0.059359 -0.302407,0.2525213 -0.40625,0.84375 -0.103843,0.5912287 -0.09972,1.4625492 -0.0625,2.40625 0.0457,1.1584506 0.08932,2.3791166 0,3.5625 0.133659,-0.3559474 0.176276,-0.6821726 0.34375,-1.0625 0.398688,-0.9054045 0.862494,-1.8702979 1.1875,-2.75 0.325006,-0.8797021 0.471017,-1.6683226 0.40625,-2.125 C 31.153983,2.7620726 31.091095,2.5861542 30.375,2.40625 29.999336,2.3118721 29.825645,2.3133022 29.75,2.34375 z"
         id="path3881"
         inkscape:connector-curvature="0"
         sodipodi:nodetypes="ssscsssss"
         transform="matrix(1.355549,0,0,1.3555486,-0.53332353,-16.533032)" />
      <path
         transform="matrix(1.355549,0,0,1.3555486,-0.53332353,-16.533032)"
         sodipodi:nodetypes="csssssscsc"
         inkscape:connector-curvature="0"
         id="path3883"
         d="M 24.1875,11.71875 C 24.1638,11.405243 24.17318,11.029626 24.15625,10.625 24.122383,9.8157486 24.051804,8.8479277 23.90625,8 23.760696,7.1520723 23.495624,6.4309551 23.21875,6.125 23.080313,5.9720224 22.984557,5.8731515 22.8125,5.84375 c -0.172057,-0.029401 -0.399358,0.038642 -0.78125,0.1875 -0.232013,0.090437 -0.32685,0.1735419 -0.375,0.25 -0.04815,0.076458 -0.06712,0.1755602 -0.0625,0.375 0.0092,0.3988796 0.216057,1.0786371 0.5625,1.8125 0.346443,0.7338629 0.805615,1.5097983 1.15625,2.25"
         style="fill:url(#radialGradient3898);fill-opacity:1;stroke:url(#linearGradient3907);display:inline" />
      <path
         style="fill:url(#radialGradient3875);fill-opacity:1;stroke:none;display:inline"
         d="m 8.125,22 c -0.2280428,0.09557 -0.4618485,0.283008 -0.65625,1.125 -0.093533,0.405109 -0.093206,0.64707 -0.0625,0.75 0.030706,0.10293 0.046239,0.113497 0.125,0.15625 0.1575226,0.08551 0.776197,0.139649 1.53125,0 0.755053,-0.139649 1.614634,-0.427553 2.40625,-0.6875 C 12.016287,23.163953 12.441528,23.05724 12.875,22.9375 12.365072,22.9362 11.874809,22.85459 11.40625,22.71875 10.675108,22.506779 9.9671828,22.224172 9.375,22.0625 8.7828172,21.900828 8.3530428,21.904428 8.125,22 z"
         id="path3885"
         inkscape:connector-curvature="0"
         sodipodi:nodetypes="ssscsscsss"
         transform="matrix(1.355549,0,0,1.3555486,-0.53332353,-16.533032)" />
      <path
         style="fill:url(#radialGradient3920);fill-opacity:1;stroke:url(#radialGradient3919);stroke-width:1;stroke-linecap:round;stroke-miterlimit:4;stroke-opacity:1;stroke-dasharray:none;display:inline"
         d="M 40.638879,28.580799 C 39.708159,29.776687 45.317178,35.064397 43,37 41.511713,38.243206 40.887746,30.562595 38.35399,29.863722"
         id="path3917"
         inkscape:connector-curvature="0"
         sodipodi:nodetypes="csc" />
      <path
         transform="matrix(1.355549,0,0,1.3555486,-0.53332353,-16.533032)"
         inkscape:href="#path3004-3"
         d="m 29.75,2.34375 c -0.147475,0.059359 -0.302407,0.2525213 -0.40625,0.84375 -0.103843,0.5912287 -0.09972,1.4625492 -0.0625,2.40625 0.0457,1.1584506 0.08932,2.3791166 0,3.5625 0.133659,-0.3559474 0.176276,-0.6821726 0.34375,-1.0625 0.398688,-0.9054045 0.862494,-1.8702979 1.1875,-2.75 0.325006,-0.8797021 0.471017,-1.6683226 0.40625,-2.125 C 31.153983,2.7620726 31.091095,2.5861542 30.375,2.40625 29.999336,2.3118721 29.825645,2.3133022 29.75,2.34375 z m -6.9375,3.5 c -0.172057,-0.029401 -0.399358,0.038642 -0.78125,0.1875 -0.232013,0.090437 -0.32685,0.1735419 -0.375,0.25 -0.04815,0.076458 -0.06712,0.1755602 -0.0625,0.375 0.0092,0.3988796 0.216057,1.0786371 0.5625,1.8125 0.346443,0.7338629 0.805615,1.5097983 1.15625,2.25 0.350635,0.740202 0.699241,1.408963 0.53125,2.25 -0.288348,1.4436 -1.005043,2.500298 -1.9375,3.125 -0.932457,0.624702 -2.024237,0.842471 -3.0625,0.8125 C 17.805487,16.876279 16.810023,16.597556 15.96875,16.25 15.127477,15.902444 14.443004,15.527055 14,14.9375 13.420176,14.165864 11.268745,11.106267 8.84375,8.96875 7.6312526,7.8999917 6.3631229,7.1116844 5.34375,6.90625 4.3243771,6.7008156 3.5893276,6.9023484 2.78125,8.125 2.3865842,8.7221444 2.2762397,9.1714951 2.3125,9.59375 c 0.03626,0.422255 0.2251105,0.838147 0.59375,1.28125 0.737279,0.886205 2.1861617,1.769708 3.78125,2.46875 1.5950883,0.699042 3.338296,1.241329 4.65625,1.625 0.658977,0.191836 1.19592,0.3525 1.59375,0.46875 0.198915,0.05813 0.35935,0.103703 0.5,0.15625 0.07033,0.02627 0.13001,0.0511 0.25,0.125 0.06,0.03695 0.14846,0.045 0.28125,0.25 0.0097,0.01502 0.02145,0.04492 0.03125,0.0625 0.05052,0.03584 0.08519,0.06198 0.1875,0.125 0.306934,0.189047 0.775305,0.469752 1.25,0.75 0.474695,0.280248 0.955878,0.550897 1.34375,0.875 0.193936,0.162051 0.37885,0.338061 0.53125,0.59375 0.1524,0.255689 0.25021,0.766092 0,1.15625 -0.267332,0.416859 -1.019599,2.38635 -3.34375,3.21875 0.245018,-0.0141 0.502479,-0.07228 0.71875,-0.03125 0.357156,0.06776 0.683382,0.272369 0.90625,0.5 0.445737,0.455263 0.493255,0.834858 0.59375,1 0.281498,0.462558 0.294805,0.928356 0.28125,1.28125 -0.01356,0.352894 -0.0625,0.659071 -0.0625,0.71875 0,0.338778 -0.03767,0.968589 -0.21875,1.6875 -0.09054,0.359456 -0.206299,0.713911 -0.40625,1.0625 -0.11626,0.202685 -0.411022,0.329846 -0.625,0.5 0.293498,-0.200601 0.596044,-0.404883 0.9375,-0.5 2.518899,-0.701673 4.089636,0.807749 4.53125,1.09375 0.38468,0.249128 0.991526,0.707803 1.3125,1.53125 0.320974,0.823447 0.394349,1.933764 0.09375,3.53125 -0.181901,0.966684 -0.724506,2.06189 -1.34375,3.3125 -0.619244,1.25061 -1.337023,2.624546 -1.84375,3.84375 -0.506727,1.219204 -0.760832,2.303346 -0.6875,2.8125 0.03667,0.254577 0.09482,0.321645 0.21875,0.40625 0.123931,0.08461 0.414327,0.211474 0.96875,0.1875 1.078058,-0.04662 1.629192,-0.480917 2.09375,-1.25 0.464558,-0.769083 0.744869,-1.913943 0.875,-3.125 0.130131,-1.211057 0.130654,-2.480197 0.15625,-3.53125 0.0128,-0.525526 0.0096,-0.993697 0.0625,-1.40625 0.0529,-0.412553 0.05501,-0.802971 0.46875,-1.21875 0.594603,-0.597529 1.498051,-1.131808 2.53125,-1.5 1.033199,-0.368192 2.213686,-0.539069 3.375,-0.21875 0.252896,0.06976 0.430204,0.204934 0.625,0.34375 -0.04006,-0.299268 -0.06021,-0.681713 0.1875,-1 0.543992,-0.698976 1.137253,-2.41399 2.9375,-2.96875 1.540025,-0.47457 3.064788,0.140755 4.40625,1.03125 1.341462,0.890495 2.615284,2.111239 3.78125,3.1875 1.165966,1.076261 2.255127,1.979294 3,2.28125 0.372437,0.150978 0.600905,0.158301 0.78125,0.09375 0.180345,-0.06455 0.417119,-0.217187 0.6875,-0.71875 0.544811,-1.010636 0.386168,-1.562385 -0.125,-2.21875 -0.511168,-0.656365 -1.533337,-1.31461 -2.71875,-1.875 -1.185413,-0.56039 -2.505173,-1.015945 -3.59375,-1.46875 -0.544288,-0.226402 -1.025786,-0.471537 -1.4375,-0.71875 -0.411714,-0.247213 -0.814683,-0.480935 -1,-1.0625 -0.231197,-0.725545 -0.541081,-1.159463 -0.8125,-1.625 -0.13571,-0.232769 -0.275326,-0.501274 -0.34375,-0.84375 -0.06842,-0.342476 0.01153,-0.770622 0.21875,-1.09375 0.189947,-0.296191 0.564121,-0.597456 0.9375,-0.625 0.373379,-0.02754 0.576157,0.07102 0.65625,0.09375 0.08009,0.02273 0.04441,0.02815 0.03125,0.03125 -0.01316,0.0031 0.02429,-0.02349 0.1875,-0.1875 0.432789,-0.434917 0.991439,-0.361354 1.375,-0.28125 0.383561,0.0801 0.748135,0.225839 1.15625,0.40625 0.81623,0.360822 1.747828,0.852987 2.65625,1.25 0.908422,0.397013 1.787922,0.667229 2.3125,0.65625 0.262289,-0.0055 0.425359,-0.04373 0.53125,-0.125 0.105891,-0.08127 0.195982,-0.219751 0.28125,-0.5625 0.07774,-0.312485 0.05086,-0.451067 -0.03125,-0.59375 -0.08211,-0.142683 -0.27349,-0.337036 -0.59375,-0.5 -0.64052,-0.325927 -1.761592,-0.5437 -2.9375,-0.65625 -1.175908,-0.11255 -2.381268,-0.114949 -3.34375,-0.15625 -0.481241,-0.02065 -0.900799,-0.06992 -1.25,-0.125 -0.1746,-0.02754 -0.333651,-0.03734 -0.53125,-0.125 -0.0988,-0.04383 -0.214942,-0.116436 -0.34375,-0.25 -0.128808,-0.133564 -0.25,-0.372224 -0.25,-0.625 0,-0.908898 0.538356,-1.336947 0.875,-1.78125 0.168322,-0.222151 0.303407,-0.423725 0.375,-0.5625 0.07159,-0.138775 0.05034,-0.188387 0.0625,-0.125 -0.07704,-0.401587 -0.303723,-0.705815 -0.53125,-1.09375 -0.113764,-0.193968 -0.29941,-0.427024 -0.25,-0.90625 0.0247,-0.239613 0.17897,-0.498612 0.34375,-0.65625 0.03148,-0.03011 0.06206,-0.03764 0.09375,-0.0625 -0.420281,-0.238727 -0.763861,-0.544127 -0.9375,-0.875 -0.147354,-0.280787 -0.227875,-0.555801 -0.28125,-0.78125 -0.05338,-0.225449 -0.08632,-0.285728 -0.0625,-0.59375 0.06457,-0.834623 0.653246,-1.369036 0.9375,-1.59375 0.02842,-0.02247 0.0094,-0.01287 0.03125,-0.03125 -0.03996,-0.0091 -0.03071,0.009 -0.09375,0 -0.170737,-0.02449 -0.415917,0.0018 -0.78125,-0.21875 -0.182666,-0.110274 -0.38137,-0.339825 -0.46875,-0.59375 -0.08738,-0.253925 -0.07466,-0.482557 -0.03125,-0.6875 0.06025,-0.284416 0.208653,-0.516559 0.34375,-0.75 -0.186748,0.296014 -0.329105,0.659336 -0.53125,0.90625 -0.61182,0.747318 -1.263958,1.331282 -2.03125,1.6875 -0.767292,0.356218 -1.663982,0.44442 -2.5,0.1875 -0.338162,-0.103922 -0.905294,-0.08629 -1.46875,-0.625 -0.436381,-0.417219 -0.572017,-1.07879 -0.59375,-1.90625 -0.721906,1.516883 -1.498269,2.342172 -2.46875,2.46875 -0.493213,0.06433 -0.952997,-0.101152 -1.28125,-0.34375 -0.328253,-0.242598 -0.568073,-0.560758 -0.71875,-0.875 -0.181975,-0.379515 -0.163797,-0.561493 -0.1875,-0.875 -0.0237,-0.313507 -0.01432,-0.689124 -0.03125,-1.09375 C 24.122383,9.8157486 24.051804,8.8479277 23.90625,8 23.760696,7.1520723 23.495624,6.4309551 23.21875,6.125 23.080313,5.9720224 22.984557,5.8731515 22.8125,5.84375 z m 16.375,0.8125 C 39.113208,6.6395226 39.079478,6.6356061 38.96875,6.6875 38.747295,6.7912879 38.337671,7.2053779 37.9375,7.8125 37.406283,8.6184399 36.836765,9.6307037 36.28125,10.59375 36.502339,10.331463 36.742066,10.092302 37,9.875 37.605584,9.3648138 38.29482,8.9088926 38.84375,8.5 c 0.54893,-0.4088926 0.943247,-0.8069078 1.03125,-1 0.044,-0.096546 0.01525,-0.1267966 0,-0.1875 -0.01525,-0.060703 -0.04422,-0.1731937 -0.25,-0.375 C 39.422347,6.7387632 39.261792,6.6729774 39.1875,6.65625 z M 44.25,16.4375 c -0.212548,-0.07795 -0.714604,-0.106091 -1.375,0.03125 -0.792793,0.164875 -1.741107,0.470428 -2.6875,0.71875 0.639154,0.117388 1.333722,0.236565 2,0.3125 0.843818,0.09617 1.620009,0.0873 2.03125,-0.03125 0.20562,-0.05927 0.284341,-0.121684 0.3125,-0.15625 0.02816,-0.03457 0.07704,-0.0571 0.0625,-0.25 -0.04221,-0.56007 -0.131202,-0.547049 -0.34375,-0.625 z M 8.125,22 c -0.2280428,0.09557 -0.4618485,0.283008 -0.65625,1.125 -0.093533,0.405109 -0.093206,0.64707 -0.0625,0.75 0.030706,0.10293 0.046239,0.113497 0.125,0.15625 0.1575226,0.08551 0.776197,0.139649 1.53125,0 0.755053,-0.139649 1.614634,-0.427553 2.40625,-0.6875 0.547537,-0.179797 0.972778,-0.28651 1.40625,-0.40625 -0.509928,-0.0013 -1.000191,-0.08291 -1.46875,-0.21875 C 10.675108,22.506779 9.9671828,22.224172 9.375,22.0625 8.7828172,21.900828 8.3530428,21.904428 8.125,22 z m 6.46875,7.875 c -2.125459,0.512002 -4.7472321,1.010548 -6.4375,1.8125 -0.8608332,0.408424 -1.4105079,0.885098 -1.625,1.3125 -0.2144921,0.427402 -0.241318,0.905711 0.28125,1.78125 0.2384937,0.399585 0.4349675,0.553046 0.625,0.625 0.1900325,0.07195 0.4208646,0.06695 0.75,-0.03125 0.6582708,-0.196401 1.6109081,-0.883036 2.5625,-1.75 0.951592,-0.866964 1.925716,-1.903618 2.8125,-2.78125 0.373431,-0.369577 0.693123,-0.671107 1.03125,-0.96875 z"
         id="path4009"
         style="opacity:0.33000000000000002;fill:none;stroke:url(#radialGradient3859);stroke-width:0.73770859000000000;stroke-miterlimit:4;stroke-opacity:1;stroke-dasharray:none;display:inline;stroke-linejoin:round"
         xlink:href="#path3004-3"
         inkscape:original="M 29.4375 1.59375 C 27.397809 2.4147366 29.31473 8.3937087 28.125 10.9375 C 26.765309 13.844691 25.525468 13.085187 25.125 12.25 C 24.724533 11.414812 25.610531 3.7330179 21.71875 5.25 C 18.850964 6.3678382 23.364164 11.145784 23.03125 12.8125 C 22.013784 17.906388 15.723684 15.858053 14.65625 14.4375 C 13.588817 13.016947 5.87896 1.9290856 2.09375 7.65625 C -1.691459 13.383415 13.53813 16.179364 13.28125 16.4375 C 13.024378 16.695633 17.069055 18.401327 16.625 19.09375 C 16.180949 19.786173 15.707785 21.384664 13.5 22.0625 C 11.292215 22.740334 7.569816 18.980661 6.65625 22.9375 C 5.742684 26.894338 12.034452 23.816776 13.625 23.5625 C 15.215545 23.308227 15.120255 24.032222 15.5 24.65625 C 15.775505 25.10896 15.59375 25.837678 15.59375 26.21875 C 15.59375 26.599823 15.387848 28.823102 14.53125 29.03125 C 10.313094 30.056232 3.636693 31.07081 6.09375 35.1875 C 8.550808 39.304191 14.115373 30.36204 16.3125 29.75 C 18.509627 29.137961 19.498467 30.303764 20.1875 30.75 C 20.876534 31.196236 21.78573 31.955629 21.21875 34.96875 C 20.651772 37.981872 14.06718 46.729515 19.375 46.5 C 24.682821 46.270484 22.647447 36.700958 23.59375 35.75 C 24.540052 34.799042 26.818326 33.703186 28.6875 34.21875 C 30.556673 34.734315 30.620828 39.729624 31.71875 38.8125 C 33.428152 37.384589 29.688399 34.163466 30.375 33.28125 C 31.061602 32.399035 31.539336 31.014975 32.90625 30.59375 C 37.707458 29.114222 43.374182 40.99142 46.03125 36.0625 C 48.68832 31.13358 37.751663 29.76615 37.21875 28.09375 C 36.685836 26.421351 35.743448 25.911174 36.1875 25.21875 C 36.631551 24.526328 36.959948 25.638457 37.90625 24.6875 C 38.852552 23.736544 45.491198 29.42883 46.4375 25.625 C 47.383802 21.821172 37.15625 23.172665 37.15625 22.40625 C 37.15625 21.639838 38.624761 20.594464 38.46875 19.78125 C 38.237608 18.576413 37.205178 18.04814 38 17.75 C 38.794822 17.45186 45.619045 19.823688 45.40625 17 C 45.175715 13.940904 40.773712 16.6194 38.28125 16.71875 C 37.084033 16.76647 36.82854 15.227935 36.84375 15.03125 C 36.930083 13.91541 38.056836 14.028468 37.90625 13.1875 C 37.714063 12.114215 36.25086 12.881105 36.4375 12 C 36.905222 9.7919448 42.428021 8.540973 40.1875 6.34375 C 37.946979 4.1465269 36.378317 9.5561508 34.8125 11.46875 C 33.699723 12.827971 32.436064 13.487055 31.15625 13.09375 C 30.248158 12.814681 29.472739 13.015548 29.625 10.6875 C 29.777261 8.3594529 34.34771 2.544707 30.5625 1.59375 C 30.089349 1.4748804 29.728884 1.4764662 29.4375 1.59375 z "
         inkscape:radius="-0.82307136"
         sodipodi:type="inkscape:offset" />
      <path
         transform="matrix(0.57127446,1.2292845,-1.2292226,0.57130322,75.999338,-25.235896)"
         d="m 39.048035,41.353657 c 0,0.827868 -1.211773,1.498988 -2.70657,1.498988 -1.494797,0 -2.70657,-0.67112 -2.70657,-1.498988 0,-0.827868 1.211773,-1.498988 2.70657,-1.498988 1.494797,0 2.70657,0.67112 2.70657,1.498988 z"
         sodipodi:ry="1.498988"
         sodipodi:rx="2.7065697"
         sodipodi:cy="41.353657"
         sodipodi:cx="36.341465"
         id="path4011"
         style="fill:url(#radialGradient3867-0);fill-opacity:1;stroke:url(#linearGradient3857-3);stroke-width:0.73772413000000003;stroke-linecap:round;stroke-linejoin:round;stroke-miterlimit:4;stroke-opacity:1;stroke-dasharray:none;display:inline"
         sodipodi:type="arc" />
    </g>
  </g>
</svg>
