<?xml version="1.0" encoding="UTF-8"?>
<!-- Created with Inkscape (http://www.inkscape.org/) -->
<svg id="svg5596" width="48" height="48" version="1.0" xmlns="http://www.w3.org/2000/svg" xmlns:xlink="http://www.w3.org/1999/xlink">
 <defs id="defs5599">
  <linearGradient id="linearGradient2552" x1="32.17" x2="36.31" y1="32.341" y2="37.614" gradientTransform="matrix(.9558 .12561 -.13219 1.0058 8.4331 -4.8792)" gradientUnits="userSpaceOnUse" xlink:href="#linearGradient2215"/>
  <linearGradient id="linearGradient4158" x1="16.921" x2="14.717" y1="41.527" y2="27.556" gradientTransform="translate(-.38613 -2.5976)" gradientUnits="userSpaceOnUse" xlink:href="#linearGradient4152"/>
  <linearGradient id="linearGradient4197" x1="5.5588" x2="26.937" y1="8.7893" y2="48.566" gradientTransform="matrix(1.0157 0 0 1 -.42713 -2.5976)" gradientUnits="userSpaceOnUse">
   <stop id="stop4201" style="stop-color:#fff;stop-opacity:.69072" offset="0"/>
   <stop id="stop4203" style="stop-opacity:0" offset="1"/>
  </linearGradient>
  <linearGradient id="linearGradient4152">
   <stop id="stop4154" style="stop-color:#788492" offset="0"/>
   <stop id="stop4156" style="stop-color:#fafafa" offset="1"/>
  </linearGradient>
  <linearGradient id="linearGradient4185" x1="5.4861" x2="12.297" y1="32.174" y2="27.666" gradientTransform="matrix(1.2909 0 0 1.1733 -3.8543 -8.3802)" gradientUnits="userSpaceOnUse" xlink:href="#linearGradient4152"/>
  <linearGradient id="linearGradient4273" x1="34.869" x2="34.869" y1="39.945" y2="43.476" gradientTransform="translate(-.38613 -2.5976)" gradientUnits="userSpaceOnUse" xlink:href="#linearGradient4242"/>
  <linearGradient id="linearGradient4265" x1="36.634" x2="36.634" y1="38.124" y2="42.428" gradientTransform="translate(-.38613 -2.5976)" gradientUnits="userSpaceOnUse" xlink:href="#linearGradient4242"/>
  <linearGradient id="linearGradient4256" x1="38.897" x2="42.428" y1="38.483" y2="38.483" gradientTransform="translate(-.38613 -2.5976)" gradientUnits="userSpaceOnUse" xlink:href="#linearGradient4242"/>
  <linearGradient id="linearGradient4242">
   <stop id="stop4244" offset="0"/>
   <stop id="stop4246" style="stop-opacity:0" offset="1"/>
  </linearGradient>
  <linearGradient id="linearGradient4248" x1="40.497" x2="44.193" y1="37.848" y2="37.848" gradientTransform="matrix(.86474 0 0 .7531 5.5915 7.0126)" gradientUnits="userSpaceOnUse" xlink:href="#linearGradient4242"/>
  <linearGradient id="linearGradient4146" x1="-5.2846" x2="33.728" y1="19.362" y2="66.5" gradientTransform="matrix(.9436 0 0 .96337 6.7925 4.0336)" gradientUnits="userSpaceOnUse" xlink:href="#linearGradient2949"/>
  <linearGradient id="linearGradient2215">
   <stop id="stop2217" offset="0"/>
   <stop id="stop2219" style="stop-color:#505050" offset="1"/>
  </linearGradient>
  <linearGradient id="linearGradient4277" x1="26.248" x2="23.783" y1="38.032" y2="36.457" gradientTransform="matrix(0 .96742 .94616 0 -16.094 2.2178)" gradientUnits="userSpaceOnUse" xlink:href="#linearGradient2215"/>
  <linearGradient id="linearGradient2949">
   <stop id="stop2951" style="stop-color:#fff;stop-opacity:.45038" offset="0"/>
   <stop id="stop2953" style="stop-color:#fff;stop-opacity:.31298" offset="1"/>
  </linearGradient>
  <linearGradient id="linearGradient4301" x1="29.425" x2="43.141" y1="33.593" y2="38.19" gradientTransform="translate(-14.761 -7.3476)" gradientUnits="userSpaceOnUse" xlink:href="#linearGradient2949"/>
  <radialGradient id="radialGradient4312" cx="20.153" cy="33.637" r="15.291" gradientTransform="matrix(1 0 0 .25722 0 24.985)" gradientUnits="userSpaceOnUse">
   <stop id="stop2881" style="stop-opacity:.17557" offset="0"/>
   <stop id="stop2883" style="stop-opacity:0" offset="1"/>
  </radialGradient>
  <linearGradient id="linearGradient6939">
   <stop id="stop6941" style="stop-color:#ddd" offset="0"/>
   <stop id="stop6947" style="stop-color:#fff" offset=".33333"/>
   <stop id="stop6949" style="stop-color:#b7b7b7" offset=".66667"/>
   <stop id="stop6943" style="stop-color:#ddd" offset="1"/>
  </linearGradient>
  <linearGradient id="linearGradient3403" x1="2.1018" x2="4.1352" y1="43.936" y2="45.881" gradientUnits="userSpaceOnUse">
   <stop id="stop11575" style="stop-color:#ef2929" offset="0"/>
   <stop id="stop11585" style="stop-color:#f79090" offset=".5"/>
   <stop id="stop11577" style="stop-color:#ef2929" offset="1"/>
  </linearGradient>
  <linearGradient id="linearGradient3407" x1="19.395" x2="22.225" y1="30.001" y2="32.643" gradientTransform="translate(-13.78 10.129)" gradientUnits="userSpaceOnUse" xlink:href="#linearGradient6939"/>
  <linearGradient id="linearGradient3415" x1="27.848" x2="29.624" y1="16.543" y2="18.266" gradientTransform="translate(11.058 -11.78)" gradientUnits="userSpaceOnUse">
   <stop id="stop11601" style="stop-color:#5b5b5b" offset="0"/>
   <stop id="stop11603" style="stop-color:#979797" offset=".5"/>
   <stop id="stop11605" style="stop-color:#454545" offset="1"/>
  </linearGradient>
  <linearGradient id="linearGradient3421" x1="19.395" x2="22.225" y1="30.001" y2="32.643" gradientTransform="matrix(.98481 .17365 -.17365 .98481 -6.5777 .52398)" gradientUnits="userSpaceOnUse" xlink:href="#linearGradient6939"/>
 </defs>
 <path id="path2498" d="m1.7363 32.767c6.5885 1.9843 16.236-0.80576 20.398-3.0233 8.1531-4.3439 11.552 1.5598 12.668 2.3109 1.7292 1.4816-3.5638 5.5348-3.2283 8.8349 0.18621 1.8318 0.932 2.7265 0.932 2.7265 1.4602-4.1341 6.0755-2.4383 5.8098-6.7401 3.5041 1.9777 4.2558-1.1722 8.3216-0.54462-0.57459-0.87503-1.3162-2.1783-2.9106-2.8614-1.6994-0.63742-4.5721-0.54847-5.3181-2.7168-0.1362-2.4525-0.09908-15.536-6.019-19.535-0.86489-1.7422 0.06845-4.2245 1.7517-5.9204 1.522-1.5335 3.8083-2.9457 4.5908-3.8463-3.5426-0.03808-7.0715 1.0716-10.526 2.9406-1.8016 0.97469-3.388 2.3761-4.5123 2.9006-10.151-2.013-21.341 6.3655-22.47 21.068-0.09115 1.1865-0.07306 4.0394 0.51377 4.4071z" style="fill-rule:evenodd;fill:url(#linearGradient2552);stroke:#000"/>
 <path id="path4148" d="m5.2336 32.811c6.3892 0.69308 12.976-1.972 17.037-3.8406 7.0745-3.3009 10.281 0.17682 11.865 1.6959 0.17329 0.23408 0.17166-1.5923-1.702-2.7938-7.5336-3.5345 2.0281-3.5661 1.5203-4.8639-0.58423-1.4932-6.9626-0.63649-8.0754-0.25378-4.0001 1.3756-5.4066 3.6149-7.4398 4.0318-3.7446 0.71235-6.6377-1.3102-9.0052 1.6462-4.1387 5.1679-4.8464 4.3081-4.1998 4.3782z" style="fill-rule:evenodd;fill:url(#linearGradient4158)"/>
 <path id="path4188" d="m2.277 32.016c2.5439-7.3691 11.17-6.9389 14.578-10.448 3.3535-3.4528 7.117-14.246 19.706-2.8558 0.04602 0.04163-1.985-5.7948-4.8219-7.7214-0.82891-1.6783-6.8878-3.6683-7.9654-3.163-10.436-1.9393-20.815 6.8394-21.897 21.092-0.08682 1.1431-0.16119 2.7424 0.40123 3.0966z" style="fill-rule:evenodd;fill:url(#linearGradient4197)"/>
 <path id="path4168" d="m8.1097 25.843c-0.67378-0.9582 2.6296-4.3537 3.8021-3.6731 0.71708 1.0403-2.3101 4.8974-3.8021 3.6731z" style="fill-rule:evenodd;fill:url(#linearGradient4185)"/>
 <path id="path4206" d="m34.152 40.878 0.66206-0.49656-0.05517-3.0345-0.60689 3.531z" style="fill-rule:evenodd;fill:url(#linearGradient4273);opacity:.25628"/>
 <path id="path4217" d="m35.862 39.83 0.77241-0.38621-0.49655-3.9172-0.27586 4.3034z" style="fill-rule:evenodd;fill:url(#linearGradient4265);opacity:.25126"/>
 <path id="path4219" d="m41.159 36.961 0.88276-0.33103-3.531-1.8207 2.6483 2.1517z" style="fill-rule:evenodd;fill:url(#linearGradient4256);opacity:.23116"/>
 <path id="path4221" d="m42.9 36.327 0.90649-0.2493-3.1966-1.3712 2.2901 1.6205z" style="fill-rule:evenodd;fill:url(#linearGradient4248);opacity:.22613"/>
 <path id="path4134" d="m2.8895 32.016c5.9517 1.5581 14.524-1.1298 18.452-3.2661 7.6932-4.1848 13.64 1.591 14.34 3.2869 1.1898 1.6041-1.2102 3.7303-2.7498 6.8212-0.79074 1.5874-0.35801 2.5382-0.35801 2.5382 1.3466-1.9488 5.64-1.1222 4.6705-6.2334 3.8939 2.8989 5.1809 0.1457 7.4781 0.1619-0.72968-0.93673-1.5295-0.97091-2.3152-1.1603-1.6036-0.61408-3.9231-0.55872-4.9708-3.1163-0.12851-2.3627 0.49398-13.994-5.7991-19.173-1.0813-1.3248-0.91076-3.922 0.76899-6.1455 0.49549-0.65587 2.4444-2.2191 3.1828-3.0867-3.0776 0.58204-4.3746 1.1207-7.6344 2.9213-1.7 0.93898-2.8433 2.2007-3.9043 2.706-9.8434-1.7625-19.43 5.16-21.645 18.97-0.18152 1.1318-0.33411 4.4218 0.48478 4.776z" style="fill:none;stroke-width:.95343;stroke:url(#linearGradient4146)"/>
 <g id="g3432">
  <g id="g11820" transform="matrix(.98481 .17365 -.17365 .98481 4.3198 -3.494)">
   <g id="g3379" transform="translate(3.7821 -4.306)">
    <path id="path2292" d="m3.6678 43.136 1.716 1.5803c1.0499-1.2004 5.8079-6.2777 5.8079-6.2777l-1.7369-1.5157s-4.5092 4.851-5.787 6.2131z" style="color:#000000;fill:url(#linearGradient3403);stroke-linecap:round;stroke:#c00"/>
    <path id="path6935" d="m9.3799 36.978 1.716 1.5803c1.0499-1.2004 21.624-23.107 21.624-23.107l-1.7369-1.5157s-20.325 21.68-21.603 23.043z" style="color:#000000;fill:url(#linearGradient3407);stroke-linecap:round;stroke:#888a85"/>
   </g>
   <path id="path11595" d="m34.677 9.7053 1.7785 1.4553c1.0499-1.2004 5.3282-5.5727 5.645-6.0499 1.1149-0.9897-0.6066-2.7366-1.7994-1.3907-0.56687 0.5406-4.3463 4.6233-5.624 5.9853z" style="color:#000000;fill:url(#linearGradient3415);stroke-linecap:round;stroke:#2e3436"/>
  </g>
  <path id="path4782" d="m3.126 37.386c-1.3962 1.2459-0.44029 2.7716 1.4155 1.8542 0.35783-0.17296 1.9496-1.4696 1.9496-1.4696l-1.4666-1.8135s-0.40369 0.30931-1.8986 1.4288z" style="color:#000000;fill:url(#linearGradient3421);stroke-linecap:round;stroke:#888a85"/>
  <path id="path4784" d="m45.38 7.76s5 10 0 10 0.25-5 0-10z" style="fill:none;stroke-width:1px;stroke:#2e3436"/>
  <path id="path2454" transform="matrix(.23787 0 0 .23787 1.5436 29.323)" d="m8.875 37.75a1.25 1.25 0 1 1-2.5 0 1.25 1.25 0 1 1 2.5 0z" style="color:#000000;fill:#fff;opacity:.53333"/>
 </g>
 <path id="path4275" d="m19.45 23.224c2.7181 1.8128 9.4059 7.3588 6.2302 8.186-10.621-0.38973-8.7837-5.1422-11.498-5.8762-1.4638-1.484 3.7992-2.9976 5.2673-2.3098z" style="fill-rule:evenodd;fill:url(#linearGradient4277);stroke-width:.96744;stroke:#000"/>
 <path id="path4279" d="m19.146 24.139c2.232 1.636 7.4172 5.6794 6.0534 6.4624-4.0953-0.54841-6.1788-1.1553-7.2501-2.3449-1.3469-1.4957-1.7856-2.8549-2.789-3.2219-0.22636 0.0186 2.5176-1.5834 3.9857-0.89563z" style="fill:none;stroke-width:.96744;stroke:url(#linearGradient4301)"/>
 <path id="path4310" transform="matrix(1.476 0 0 .71076 -6.403 20.778)" d="m35.444 33.637a15.291 3.9333 0 1 1-30.582 0 15.291 3.9333 0 1 1 30.582 0z" style="color:#000000;fill-rule:evenodd;fill:url(#radialGradient4312)"/>
</svg>
