<?xml version="1.0" encoding="UTF-8"?>
<!-- Created with Inkscape (http://www.inkscape.org/) -->
<svg id="svg3304" width="48px" height="48px" xmlns="http://www.w3.org/2000/svg" xmlns:cc="http://web.resource.org/cc/" xmlns:dc="http://purl.org/dc/elements/1.1/" xmlns:rdf="http://www.w3.org/1999/02/22-rdf-syntax-ns#" xmlns:xlink="http://www.w3.org/1999/xlink">
 <defs id="defs3306">
  <linearGradient id="linearGradient2831" x1="21.875" x2="21.875" y1="48.001" y2="40" gradientUnits="userSpaceOnUse">
   <stop id="stop2806" style="stop-opacity:0" offset="0"/>
   <stop id="stop2812" offset=".5"/>
   <stop id="stop2808" style="stop-opacity:0" offset="1"/>
  </linearGradient>
  <radialGradient id="radialGradient2829" cx="1" cy="44" r="5" gradientTransform="matrix(2 0 0 .8 36 8.8)" gradientUnits="userSpaceOnUse" xlink:href="#linearGradient2781"/>
  <linearGradient id="linearGradient2781">
   <stop id="stop2783" offset="0"/>
   <stop id="stop2785" style="stop-opacity:0" offset="1"/>
  </linearGradient>
  <radialGradient id="radialGradient2827" cx="1" cy="44" r="5" gradientTransform="matrix(2 0 0 .8 -13 -79.2)" gradientUnits="userSpaceOnUse" xlink:href="#linearGradient2781"/>
  <linearGradient id="linearGradient5137">
   <stop id="stop5139" style="stop-color:#eeeeec" offset="0"/>
   <stop id="stop5141" style="stop-color:#e6e6e3" offset="1"/>
  </linearGradient>
  <linearGradient id="linearGradient11406" x1="23.155" x2="23.529" y1="34.573" y2="40.22" gradientTransform="translate(0 .7955)" gradientUnits="userSpaceOnUse">
   <stop id="stop11402" offset="0"/>
   <stop id="stop11404" style="stop-opacity:0" offset="1"/>
  </linearGradient>
  <linearGradient id="linearGradient5147" x1="17.248" x2="39.904" y1="6.376" y2="38.876" gradientTransform="translate(0 .7955)" gradientUnits="userSpaceOnUse" xlink:href="#linearGradient5137"/>
  <linearGradient id="linearGradient5223" x1="31.743" x2="31.861" y1="37.842" y2="43.826" gradientTransform="translate(0 .7955)" gradientUnits="userSpaceOnUse" xlink:href="#linearGradient5137"/>
  <radialGradient id="radialGradient4770" cx="7" cy="39.465" r="3.5" gradientTransform="matrix(0 -1 1.1429 0 -41.103 45.5)" gradientUnits="userSpaceOnUse" xlink:href="#linearGradient2781"/>
  <radialGradient id="radialGradient4772" cx="7" cy="39.465" r="3.5" gradientTransform="matrix(0 -1 1.1429 0 -89.103 -31.5)" gradientUnits="userSpaceOnUse" xlink:href="#linearGradient2781"/>
  <linearGradient id="linearGradient4774" x1="18.142" x2="18.142" y1="35" y2="42.041" gradientUnits="userSpaceOnUse">
   <stop id="stop22142" style="stop-opacity:0" offset="0"/>
   <stop id="stop22148" offset=".5"/>
   <stop id="stop22144" style="stop-opacity:0" offset="1"/>
  </linearGradient>
  <linearGradient id="linearGradient4776" x1="13.63" x2="25.208" y1="28.5" y2="41.181" gradientTransform="translate(53 1.4286)" gradientUnits="userSpaceOnUse">
   <stop id="stop7027" style="stop-color:#e6ce46" offset="0"/>
   <stop id="stop7029" style="stop-color:#d6ba1c" offset="1"/>
  </linearGradient>
  <linearGradient id="linearGradient4778" x1="20.157" x2="20.157" y1="5.0996" y2="26.039" gradientTransform="translate(.007843 .7955)" gradientUnits="userSpaceOnUse">
   <stop id="stop6242" style="stop-color:#fff" offset="0"/>
   <stop id="stop6244" style="stop-color:#fff;stop-opacity:0" offset="1"/>
  </linearGradient>
 </defs>
 <metadata id="metadata3309">
  <rdf:RDF>
   <cc:Work rdf:about="">
    <dc:format>image/svg+xml</dc:format>
    <dc:type rdf:resource="http://purl.org/dc/dcmitype/StillImage"/>
    <dc:title>Change Resolution</dc:title>
    <dc:creator>
     <cc:Agent>
      <dc:title>Jakub Steiner</dc:title>
     </cc:Agent>
    </dc:creator>
    <cc:license rdf:resource="http://creativecommons.org/licenses/GPL/2.0/"/>
    <dc:subject>
     <rdf:Bag>
      <rdf:li>display</rdf:li>
      <rdf:li>resolution</rdf:li>
      <rdf:li>video</rdf:li>
     </rdf:Bag>
    </dc:subject>
    <dc:contributor>
     <cc:Agent>
      <dc:title>Andreas Nilsson
Luca Ferretti &lt;elle.uca@libero.it&gt;</dc:title>
     </cc:Agent>
    </dc:contributor>
    <dc:date/>
    <dc:source>http://www.gnome.org</dc:source>
   </cc:Work>
   <cc:License rdf:about="http://creativecommons.org/licenses/GPL/2.0/">
    <cc:permits rdf:resource="http://web.resource.org/cc/Reproduction"/>
    <cc:permits rdf:resource="http://web.resource.org/cc/Distribution"/>
    <cc:requires rdf:resource="http://web.resource.org/cc/Notice"/>
    <cc:permits rdf:resource="http://web.resource.org/cc/DerivativeWorks"/>
    <cc:requires rdf:resource="http://web.resource.org/cc/ShareAlike"/>
    <cc:requires rdf:resource="http://web.resource.org/cc/SourceCode"/>
   </cc:License>
  </rdf:RDF>
 </metadata>
 <g id="layer1">
  <g id="g2822" transform="matrix(.93085 0 0 1.0374 1.6941 -1.7951)" style="opacity:.3">
   <rect id="rect1892" transform="scale(-1)" x="-11" y="-48" width="10" height="8" style="color:#000000;fill:url(#radialGradient2827);opacity:1"/>
   <rect id="rect2789" x="38" y="40" width="10" height="8" style="color:#000000;fill:url(#radialGradient2829);opacity:1"/>
   <rect id="rect2793" x="11" y="40" width="27" height="8" style="color:#000000;fill:url(#linearGradient2831);opacity:1"/>
  </g>
  <rect id="rect4784" y=".7955" width="48" height="48" style="fill:none"/>
  <path id="path9222" d="m14.375 36.329s1.2169 4.9346-3.8563 4.9809c-2.4303 0.021905-1.9325 4.0352-1.9325 4.0352l30.846-0.031373s0.41844-3.8954-2.0222-3.941c-4.9875-0.092139-3.8105-5.1064-3.8105-5.1064l-19.225 0.062745z" style="color:#000000;fill-rule:evenodd;fill:url(#linearGradient5223);stroke:#888a85"/>
  <path id="rect5040" d="m4.8886 4.2739h38.129c2.0251 0 3.501 1.4277 3.501 3.6261l0.01095 26.204c0 1.6921-0.52835 2.2152-2.0347 2.2152l-40.963-0.018935c-1.1793-0.028793-2.0186-0.49466-2.0344-2.0193l0.015177-26.569c0-1.7738 1.5394-3.4384 3.3758-3.4384z" style="fill-rule:evenodd;fill:url(#linearGradient5147);stroke:#888a85"/>
  <rect id="rect9208" x="5.5059" y="8.2973" width="37" height="22.997" style="fill-rule:evenodd;fill:#555753;stroke-width:1px;stroke:#2e3436"/>
  <path id="path5145" d="m4.875 5.0625c-1.3079 0-2.5 1.2946-2.5 2.5625v26.562c0.0062657 0.60334 0.1408 0.78335 0.28125 0.90625s0.42964 0.23836 0.90625 0.25h40.938c0.65117 0 0.85698-0.10102 0.9375-0.1875s0.21875-0.4007 0.21875-1.1562v-26.188c0-1.8072-1.0108-2.75-2.625-2.75h-38.156z" style="fill:none;stroke:#fff" xlink:href="#rect5040"/>
  <path id="path10672" d="m13.992 36.835c0.083661 2.1725-0.28335 2.9114-1.6336 3.6752l23.615 1.2973c-0.94902-1.1686-2.3294-2.9333-1.9529-4.9882l-20.029 0.015686z" style="fill-rule:evenodd;fill:url(#linearGradient11406);opacity:.6"/>
  <path id="path6575" d="m9.9921 42.292c6.7067 0.001969 27.797 0 27.797 0" style="fill:none;stroke-linecap:round;stroke-opacity:.43902;stroke-width:1px;stroke:#8d8d8f"/>
  <path id="path8029" d="m9.6479 43.299c6.7067 0.001969 28.72 0 28.72 0" style="fill:none;stroke-linecap:round;stroke-width:1px;stroke:#fff"/>
  <path id="path4073" d="m6.0314 8.8269v18.008c16.444-1.3542 22.599-10.112 35.969-11.027l1e-6 -7.0118-35.969 0.031372z" style="fill-rule:evenodd;fill:url(#linearGradient4778);opacity:.4"/>
  <g id="g4754" transform="translate(-46.771 -7.337)">
   <g id="g22150" transform="matrix(.91667 0 0 .71428 49.771 11.133)" style="opacity:.3">
    <rect id="rect22120" y="35" width="4" height="7" style="fill:url(#radialGradient4770);opacity:1"/>
    <rect id="rect22134" transform="scale(-1)" x="-48" y="-42" width="4" height="7" style="fill:url(#radialGradient4772);opacity:1"/>
    <rect id="rect22138" x="4" y="35" width="40" height="7" style="fill:url(#linearGradient4774);opacity:1"/>
   </g>
   <g id="g4743">
    <g id="g10824" transform="translate(-5.2287 -6.296)">
     <path id="path4319" d="m57.5 14.929v30h39l-39-30zm6 13 15 11h-15v-11z" style="fill-rule:evenodd;fill:url(#linearGradient4776);stroke-width:1px;stroke:#a38503"/>
     <path id="path4326" d="m61.5 44.929v-3" style="fill:none;stroke-linecap:round;stroke-width:1px;stroke:#a38503"/>
     <path id="path4328" d="m67.5 44.929v-3" style="fill:none;stroke-linecap:round;stroke-width:1px;stroke:#a38503"/>
     <path id="path4330" d="m73.5 44.929v-2.9643" style="fill:none;stroke-linecap:round;stroke-width:1px;stroke:#a38503"/>
     <path id="path4332" d="m79.5 44.929v-3" style="fill:none;stroke-linecap:round;stroke-width:1px;stroke:#a38503"/>
     <path id="path4334" d="m85.5 44.929v-3" style="fill:none;stroke-linecap:round;stroke-width:1px;stroke:#a38503"/>
     <path id="path6126" d="m58.5 16.929v27h35l-35-27z" style="fill:none;opacity:.4;stroke-width:1px;stroke:#fff"/>
    </g>
    <path id="path12221" transform="translate(47.771 -4.8674)" d="m9.5017 38.542-0.044194-14.01 19.084 14.03-19.04-0.020816z" style="fill:none;opacity:.4;stroke-width:1px;stroke:#fff"/>
   </g>
  </g>
 </g>
</svg>
