<?xml version="1.0" encoding="UTF-8"?>
<!-- Created with Inkscape (http://www.inkscape.org/) -->
<svg id="svg3400" width="48" height="48" version="1.0" xmlns="http://www.w3.org/2000/svg" xmlns:xlink="http://www.w3.org/1999/xlink">
 <defs id="defs3402">
  <linearGradient id="linearGradient5060">
   <stop id="stop5062" offset="0"/>
   <stop id="stop5064" style="stop-opacity:0" offset="1"/>
  </linearGradient>
  <filter id="filter3212" x="-.14846" y="-.16434" width="1.2969" height="1.3287" color-interpolation-filters="sRGB">
   <feGaussianBlur id="feGaussianBlur3214" stdDeviation="0.77391625"/>
  </filter>
  <linearGradient id="linearGradient3011" x1="32.892" x2="36.358" y1="8.059" y2="5.4565" gradientTransform="matrix(.9977 0 0 1.0407 .1638 -1.1058)" gradientUnits="userSpaceOnUse">
   <stop id="stop8591" style="stop-color:#fefefe" offset="0"/>
   <stop id="stop8593" style="stop-color:#cbcbcb" offset="1"/>
  </linearGradient>
  <linearGradient id="linearGradient3014" x1="24" x2="24" y1="2" y2="46.017" gradientTransform="matrix(1 0 0 .97778 0 -.96667)" gradientUnits="userSpaceOnUse">
   <stop id="stop3213" style="stop-color:#fff" offset="0"/>
   <stop id="stop3215" style="stop-color:#fff;stop-opacity:0" offset="1"/>
  </linearGradient>
  <radialGradient id="radialGradient3017" cx="102" cy="112.3" r="139.56" gradientTransform="matrix(.3617 0 0 -.39078 .85106 47.517)" gradientUnits="userSpaceOnUse">
   <stop id="stop41" style="stop-color:#b7b8b9" offset="0"/>
   <stop id="stop47" style="stop-color:#ececec" offset=".18851"/>
   <stop id="stop49" style="stop-color:#fafafa;stop-opacity:0" offset=".25718"/>
   <stop id="stop51" style="stop-color:#fff;stop-opacity:0" offset=".30111"/>
   <stop id="stop53" style="stop-color:#fafafa;stop-opacity:0" offset=".5313"/>
   <stop id="stop55" style="stop-color:#ebecec;stop-opacity:0" offset=".8449"/>
   <stop id="stop57" style="stop-color:#e1e2e3;stop-opacity:0" offset="1"/>
  </radialGradient>
  <linearGradient id="linearGradient3020" x1="25.132" x2="25.132" y1=".98521" y2="47.013" gradientTransform="matrix(1 0 0 .95617 -1.0065e-7 -1.9149)" gradientUnits="userSpaceOnUse">
   <stop id="stop3602" style="stop-color:#f4f4f4" offset="0"/>
   <stop id="stop3604" style="stop-color:#dbdbdb" offset="1"/>
  </linearGradient>
  <linearGradient id="linearGradient3022" x1="-51.786" x2="-51.786" y1="50.786" y2="2.9062" gradientTransform="matrix(.8075 0 0 .89483 59.41 -2.9806)" gradientUnits="userSpaceOnUse">
   <stop id="stop3106" style="stop-color:#aaa" offset="0"/>
   <stop id="stop3108" style="stop-color:#c8c8c8" offset="1"/>
  </linearGradient>
  <radialGradient id="radialGradient3025" cx="605.71" cy="486.65" r="117.14" gradientTransform="matrix(.02304 0 0 .0147 26.361 37.04)" gradientUnits="userSpaceOnUse" xlink:href="#linearGradient5060"/>
  <radialGradient id="radialGradient3028" cx="605.71" cy="486.65" r="117.14" gradientTransform="matrix(-.02304 0 0 .0147 21.623 37.04)" gradientUnits="userSpaceOnUse" xlink:href="#linearGradient5060"/>
  <linearGradient id="linearGradient3031" x1="302.86" x2="302.86" y1="366.65" y2="609.51" gradientTransform="matrix(.067325 0 0 .0147 -.34114 37.04)" gradientUnits="userSpaceOnUse">
   <stop id="stop5050" style="stop-opacity:0" offset="0"/>
   <stop id="stop5056" offset=".5"/>
   <stop id="stop5052" style="stop-opacity:0" offset="1"/>
  </linearGradient>
  <linearGradient id="linearGradient3831" x1="3.8878" x2="-8.7979" y1="26.023" y2="26.023" gradientTransform="matrix(-1.6727 0 0 1.5674 75.246 47.508)" gradientUnits="userSpaceOnUse" xlink:href="#linearGradient4222"/>
  <linearGradient id="linearGradient4222">
   <stop id="stop4224" style="stop-color:#fff" offset="0"/>
   <stop id="stop4226" style="stop-color:#fff;stop-opacity:0" offset="1"/>
  </linearGradient>
  <linearGradient id="linearGradient3834" x1="3.8738" x2="62.4" y1="28.281" y2="28.281" gradientTransform="matrix(1.4862 0 0 1.4715 -.99898 54.219)" gradientUnits="userSpaceOnUse">
   <stop id="stop3694" style="stop-color:#ecb56c" offset="0"/>
   <stop id="stop3700" style="stop-color:#ea8b48" offset=".16387"/>
   <stop id="stop3696" style="stop-color:#e86225" offset=".65294"/>
   <stop id="stop3698" style="stop-color:#b07c0b;stop-opacity:0" offset="1"/>
  </linearGradient>
  <linearGradient id="linearGradient3836" x1="41.264" x2="41.817" y1="55.193" y2="26.598" gradientTransform="matrix(0 -2.9226 -2.9518 0 169.75 208.64)" gradientUnits="userSpaceOnUse">
   <stop id="stop3657" style="stop-color:#cc7032" offset="0"/>
   <stop id="stop3659" style="stop-color:#bb2d13" offset=".70167"/>
   <stop id="stop3661" style="stop-color:#a87300;stop-opacity:0" offset="1"/>
  </linearGradient>
  <linearGradient id="linearGradient2511" x1="3.8878" x2="-8.7979" y1="26.023" y2="26.023" gradientTransform="matrix(1.6727 0 0 1.5674 52.822 -.53471)" gradientUnits="userSpaceOnUse" xlink:href="#linearGradient4222"/>
  <linearGradient id="linearGradient2514" x1="62.953" x2="2.4974" y1="23.891" y2="23.891" gradientTransform="matrix(-1.4862 0 0 1.4715 129.07 6.1756)" gradientUnits="userSpaceOnUse">
   <stop id="stop3795" style="stop-color:#8cab2a;stop-opacity:0" offset="0"/>
   <stop id="stop3797" style="stop-color:#b1c948" offset=".61274"/>
   <stop id="stop3799" style="stop-color:#d7e866" offset="1"/>
  </linearGradient>
  <linearGradient id="linearGradient2516" x1="40.808" x2="40.808" y1="44.845" y2="26.149" gradientTransform="matrix(0 -2.9226 2.9518 0 -41.683 160.6)" gradientUnits="userSpaceOnUse">
   <stop id="stop3482" style="stop-color:#548820" offset="0"/>
   <stop id="stop3484" style="stop-color:#548820;stop-opacity:0" offset="1"/>
  </linearGradient>
 </defs>
 <path id="path12038" d="m28.617 0.92126c4.2825 0 2.1532 8.4832 2.1532 8.4832s10.358-1.8023 10.358 2.8187c0-2.6097-11.302-10.729-12.511-11.302z" style="fill-rule:evenodd;filter:url(#filter3212);opacity:.4"/>
 <rect id="rect2879" x="7.7378" y="42.43" width="32.508" height="3.5701" style="fill:url(#linearGradient3031);opacity:.3"/>
 <path id="path2881" d="m7.7378 42.43v3.5699c-1.1865 0.0067-2.8684-0.79982-2.8684-1.7852 0-0.98533 1.324-1.7847 2.8684-1.7847z" style="fill:url(#radialGradient3028);opacity:.3"/>
 <path id="path2883" d="m40.246 42.43v3.5699c1.1865 0.0067 2.8684-0.79982 2.8684-1.7852 0-0.98533-1.324-1.7847-2.8684-1.7847z" style="fill:url(#radialGradient3025);opacity:.3"/>
 <path id="path4160" d="m6.5 0.4972h24.061c1.4069 0.47465 8.9655 5.8822 10.939 9.6264v34.379h-35v-44.006z" style="fill:url(#linearGradient3020);stroke-linejoin:round;stroke-width:.99992;stroke:url(#linearGradient3022)"/>
 <path id="path4191" d="m7.3617 44c-0.1993 0-0.3617-0.17546-0.3617-0.39078v-42.204c0-0.21571 0.1624-0.39078 0.3617-0.39078 7.4831 0.10801 15.776-0.16158 23.25 0.026895l10.283 8.866 0.10598 33.702c0 0.21532-0.16204 0.39078-0.3617 0.39078h-33.277z" style="fill:url(#radialGradient3017)"/>
 <path id="path2435" d="m40.5 10.259v33.263h-33v-42.045h22.866" style="fill:none;opacity:.6;stroke-linejoin:round;stroke-width:.99992;stroke:url(#linearGradient3014)"/>
 <path id="path4474" d="m28.617 0.92126c3.1865 0 2.3358 7.6619 2.3358 7.6619s10.175-0.98105 10.175 3.64c0-1.1259 0.08591-1.9322-0.13378-2.2836-1.5783-2.5242-8.3955-8.1884-10.857-8.9308-0.18422-0.055555-0.5927-0.087535-1.5198-0.087535z" style="fill-rule:evenodd;fill:url(#linearGradient3011)"/>
 <g id="layer1" transform="matrix(0 -1 1 0 -.0052652 46.958)">
  <path id="path4348" transform="matrix(.37496 0 0 .37496 0 .0022498)" d="m92.009 9.3282 34.337 30.67-34.337 30.67v-16.002h-55.672v-29.336h55.672v-16.001z" style="fill:url(#linearGradient2514);stroke-linecap:round;stroke-linejoin:round;stroke-width:2.6669;stroke:url(#linearGradient2516)"/>
  <path id="path4360" transform="matrix(.37496 0 0 .37496 0 .0022498)" d="m94.676 15.642 27.565 24.356-27.565 24.649v-12.648h-55.576l-0.16141-24.002h55.738v-12.355z" style="fill:none;opacity:.354;stroke-width:2.6669;stroke:url(#linearGradient2511)"/>
  <path id="path3801" transform="matrix(.37496 0 0 .37496 0 .0022498)" d="m36.059 57.371-34.337 30.67 34.337 30.67v-16.002h55.672v-29.336h-55.672v-16.001z" style="fill:url(#linearGradient3834);stroke-linecap:round;stroke-linejoin:round;stroke-width:2.6669;stroke:url(#linearGradient3836)"/>
  <path id="path3803" transform="matrix(.37496 0 0 .37496 0 .0022498)" d="m33.392 63.685-27.565 24.356 27.565 24.649v-12.648h55.576l0.1614-24.002h-55.738v-12.355z" style="fill:none;opacity:.24;stroke-width:2.6669;stroke:url(#linearGradient3831)"/>
 </g>
</svg>
