<?xml version="1.0" encoding="UTF-8"?>
<!-- Created with Inkscape (http://www.inkscape.org/) -->
<svg id="svg2" width="48" height="48" version="1.0" xmlns="http://www.w3.org/2000/svg" xmlns:cc="http://creativecommons.org/ns#" xmlns:dc="http://purl.org/dc/elements/1.1/" xmlns:rdf="http://www.w3.org/1999/02/22-rdf-syntax-ns#" xmlns:xlink="http://www.w3.org/1999/xlink">
 <metadata id="metadata47">
  <rdf:RDF>
   <cc:Work rdf:about="">
    <dc:format>image/svg+xml</dc:format>
    <dc:type rdf:resource="http://purl.org/dc/dcmitype/StillImage"/>
    <dc:title/>
   </cc:Work>
  </rdf:RDF>
 </metadata>
 <defs id="defs4">
  <linearGradient id="linearGradient3793">
   <stop id="stop3795" offset="0"/>
   <stop id="stop3797" style="stop-opacity:0" offset="1"/>
  </linearGradient>
  <radialGradient id="radialGradient5729" cx="62.625" cy="4.625" r="10.625" gradientTransform="matrix(1 0 0 .34118 0 3.0471)" gradientUnits="userSpaceOnUse" xlink:href="#linearGradient3793"/>
  <radialGradient id="radialGradient5540" cx="22.125" cy="10.875" r="20" gradientTransform="matrix(1.01 -.112 .056688 .51121 -5.8376 1.7935)" gradientUnits="userSpaceOnUse">
   <stop id="stop3158" style="stop-color:#fff" offset="0"/>
   <stop id="stop3160" style="stop-color:#fff;stop-opacity:0" offset="1"/>
  </radialGradient>
  <radialGradient id="radialGradient5551" cx="20.039" cy="12.61" r="22.464" gradientTransform="matrix(1.2251 -.018811 .018929 1.2336 -5.611 -4.1683)" gradientUnits="userSpaceOnUse">
   <stop id="stop4105" style="stop-color:#94c1fc" offset="0"/>
   <stop id="stop4107" style="stop-color:#3465a4" offset="1"/>
  </radialGradient>
  <linearGradient id="linearGradient5553" x1="34" x2="34" y1="9" y2="49" gradientTransform="translate(-5 -6)" gradientUnits="userSpaceOnUse">
   <stop id="stop6495" style="stop-color:#4580d4" offset="0"/>
   <stop id="stop6497" style="stop-color:#114796" offset="1"/>
  </linearGradient>
  <radialGradient id="radialGradient3799" cx="17.588" cy="20.685" r="12.939" gradientTransform="matrix(.84922 .011734 -.012068 .87332 2.9745 1.3292)" gradientUnits="userSpaceOnUse" xlink:href="#linearGradient3793"/>
  <radialGradient id="radialGradient3803" cx="24.628" cy="20.961" r="12.939" gradientTransform="matrix(.65263 -.001358 .0009001 .43258 8.1695 6.5163)" gradientUnits="userSpaceOnUse" xlink:href="#linearGradient3793"/>
  <radialGradient id="radialGradient3807" cx="26.811" cy="26.109" r="12.939" gradientTransform="matrix(1.5778 -.37286 .072006 .30471 -17.372 28.241)" gradientUnits="userSpaceOnUse" xlink:href="#linearGradient3793"/>
  <radialGradient id="radialGradient3819" cx="23.061" cy="25" r="12.939" gradientTransform="matrix(.99912 -.042019 .034778 .82696 -.8491 5.2951)" gradientUnits="userSpaceOnUse" xlink:href="#linearGradient3793"/>
  <radialGradient id="radialGradient3833" cx="19.806" cy="15.585" r="12.939" gradientTransform="matrix(.32717 .0039737 -.0063916 .52625 12.331 2.9198)" gradientUnits="userSpaceOnUse" xlink:href="#linearGradient3793"/>
  <radialGradient id="radialGradient3839" cx="29.987" cy="40.088" r="12.939" gradientTransform="matrix(.87303 -.13931 .057964 .36324 .40774 10.716)" gradientUnits="userSpaceOnUse" xlink:href="#linearGradient3793"/>
  <radialGradient id="radialGradient3843" cx="9.9091" cy="26.783" r="12.939" gradientTransform="matrix(.93041 -.0037232 .0052113 1.3023 .50192 -8.0422)" gradientUnits="userSpaceOnUse" xlink:href="#linearGradient3793"/>
 </defs>
 <g id="layer1">
  <g id="g6334">
   <path id="path8836" transform="matrix(1.9262 0 0 2.1088 -97.164 29.602)" d="m73.25 4.625c0 2.002-4.757 3.625-10.625 3.625s-10.625-1.623-10.625-3.625 4.757-3.625 10.625-3.625 10.625 1.623 10.625 3.625z" style="fill-rule:evenodd;fill:url(#radialGradient5729);opacity:.4"/>
   <path id="path1307" d="m44.501 23c0 11.317-9.1784 20.501-20.487 20.501-11.309 0-20.487-9.1844-20.487-20.501 0-11.317 9.1784-20.501 20.487-20.501 11.309 0 20.487 9.1844 20.487 20.501z" style="fill:url(#radialGradient5551);stroke-linecap:round;stroke-linejoin:round;stroke-width:.99816;stroke:url(#linearGradient5553)"/>
   <path id="path3164" d="m43.502 23c0 10.765-8.7368 19.502-19.502 19.502s-19.502-8.7368-19.502-19.502c0-10.765 8.7368-19.502 19.502-19.502s19.502 8.7368 19.502 19.502z" style="fill:none;opacity:.4;stroke-linecap:round;stroke-linejoin:round;stroke-width:.99647;stroke:url(#radialGradient5540)"/>
   <path id="path3791" d="m10.122 14.398c0.54701 0.95089 1.7235 1.0196 2.5357 0.87484-0.89602 3.356-0.27613 6.4392 1.3737 8.3825 0.9639 1.2572 1.7475 2.7914 4.1654 2.6339 1.2636 1.3461 0.11355 5.1362 0.10034 7.9953 0.057 1.5363-0.64591 2.9659-2.312 4.5022l2.4632 0.21337c0.91855-3.3154 1.99-4.1491 2.4061-10.961 0.10867-0.92889 0.29931-1.8064 1.3282-1.5855 0.15098 3.0958-0.68413 4.8556 0.21979 6.3162l4.4295 5.249 0.92911-0.89618-3.6315-4.8466-0.0095-1.704 0.24062-4.292 3.0191-0.36585c0.31317 3.0225-0.37515 4.9147-0.91373 6.255-1.0573 1.9305-1.667 2.8444-2.9796 4.2705l1.2316 1.1096c1.5081-1.7184 2.5223-2.9226 3.5197-5.1454 0.95063-1.3587 1.3123-5.0879 1.7194-7.52l1.3396-0.27739c0.51752 1.1485 1.0145 3.9055 1.2619 5.2386 0.4393 5.8288-0.49175 6.6807-0.75727 8.1737 0.87763 0.69784 1.295 1.0154 2.1175 0v-14.872c1.283-0.10249 0.98742 1.4356 0.8859 4.3742 1.0208 0.11637 1.3584-2.3416 1.1236-5.6331-3.1085-3.5319-4.083-11.037-7.8434-10.882h-0.86429c-1.8381-0.11164-2.7163 1.6205-3.6881 2.7423-1.3252 0.84939-2.9198 2.1017-3.9339 3.7166-0.46012 1.8331-2.2726 2.3631-2.1314 0.46914 0.74604-1.8229 0.7442-3.2572 0.3974-4.4102-0.57278-1.603-1.2671-2.2855-2.2039-2.5178-1.0096 0.33898-1.893 0.60111-2.3614 2.0088h-2.5357z" style="opacity:.5"/>
   <path id="path3037" d="m18.197 26.289 3.9859 0.16415 2.178-0.17349 3.0191-0.36585 2.5775-1.0303 1.3396-0.27739 2.6222-1.46c1.283-0.10249 0.98742 1.4356 0.8859 4.3742 1.0208 0.11637 1.3584-2.3416 1.1236-5.6331-3.1085-3.5319-4.083-11.037-7.8434-10.882h-0.86429c-1.8381-0.11164-2.7163 1.6205-3.6881 2.7423-1.3252 0.84939-2.9198 2.1017-3.9339 3.7166-2.1208 3.3935-1.9427 5.9263-1.4022 8.8251z" style="fill:url(#radialGradient3799);opacity:.6"/>
   <path id="path3805" d="m18.197 26.289 3.9859 0.16415 2.178-0.17349 3.0191-0.36585 2.5775-1.0303 1.3396-0.27739 2.6222-1.46c1.283-0.10249 0.98742 1.4356 0.8859 4.3742 1.0208 0.11637 1.3584-2.3416 1.1236-5.6331-3.1085-3.5319-4.683-4.1366-8.4434-3.9821h-0.86429c-1.8381-0.11164-2.7163 1.6205-3.6881 2.7423-1.3252 0.84939-2.9198 2.1017-3.9339 3.7166-2.1208 3.3935-1.3427-0.97366-0.80217 1.9251z" style="fill:url(#radialGradient3807);opacity:.24"/>
   <path id="path3811" d="m18.197 26.289c1.2636 1.3461 0.11355 5.1362 0.10034 7.9953 0.057 1.5363-0.64591 2.9659-2.312 4.5022l2.4632 0.21337c0.91855-3.3154 1.99-4.1491 2.4061-10.961 0.10867-0.92889 0.29931-1.8064 1.3282-1.5855 0.15098 3.0958-0.68413 4.8556 0.21979 6.3162l4.4295 5.249 0.92911-0.89618-3.6315-4.8466-0.0095-1.704 0.24062-4.292 3.0191-0.36585c0.31317 3.0225-0.37515 4.9147-0.91373 6.255-1.0573 1.9305-1.667 2.8444-2.9796 4.2705l1.2316 1.1096c1.5081-1.7184 2.5223-2.9226 3.5197-5.1454 0.95063-1.3587 1.3123-5.0879 1.7194-7.52l1.3396-0.27739c0.51752 1.1485 1.0145 3.9055 1.2619 5.2386 0.4393 5.8288-0.49175 6.6807-0.75727 8.1737 0.87763 0.69784 1.295 1.0154 2.1175 0v-14.872c1.283-0.10249 0.98742 1.4356 0.8859 4.3742 1.0208 0.11637 1.3584-2.3416 1.1236-5.6331-6.8396 4.4236-12.43 5.1649-17.732 4.4018z" style="fill:url(#radialGradient3819);opacity:.6"/>
   <path id="path3821" d="m10.122 14.398c0.54701 0.95089 1.7235 1.0196 2.5357 0.87484-0.89602 3.356-0.27613 6.4392 1.3737 8.3825 0.9639 1.2572 1.7475 2.7914 4.1654 2.6339-0.49271-1.8426-0.53732-4.082 0.11099-7.1928-0.49298 0.12489-0.91079-0.2161-0.84018-1.1631 0.74604-1.8229 0.7442-3.2572 0.3974-4.4102-0.57278-1.603-1.2671-2.2855-2.2039-2.5178-1.0096 0.33898-1.893 0.60111-2.3614 2.0088h-2.5357z" style="fill:url(#radialGradient3843);opacity:.7"/>
   <path id="path3831" d="m10.122 14.398c0.54701 0.95089 1.7235 1.0196 2.5357 0.87484-0.89602 3.356-0.27613 6.4392 1.3737 8.3825 0.9639 1.2572 1.7475 2.7914 4.1654 2.6339-0.49271-1.8426-0.53732-4.082 0.11099-7.1928-0.49298 0.12489-0.91079-0.2161-0.84018-1.1631 0.74604-1.8229 0.7442-3.2572 0.3974-4.4102-0.57278-1.603-1.2671-2.2855-2.2039-2.5178-1.0096 0.33898-1.893 0.60111-2.3614 2.0088h-2.5357z" style="fill:url(#radialGradient3833);opacity:.5"/>
   <path id="path3835" d="m26.611 20.43 3.4691 0.53415 2.1275-1.9303-0.01035-2.3774c0.27597 0.60504-0.52695-4.3745-4.1118-5.651h-0.86429c-1.8381-0.11164-2.7163 1.6205-3.6881 2.7423-0.16811 3.1304 0.79994 5.4952 3.0779 6.6823z" style="fill:url(#radialGradient3839);opacity:.2"/>
   <path id="path3801" d="m29.647 13.056c1.751 1.8972 1.6705-0.76116-1.5618-2.051h-0.86429c-1.8381-0.11164-2.7163 1.6205-3.6881 2.7423-0.67239 3.4616 1.9951 3.3085 6.1141-0.69121z" style="fill:url(#radialGradient3803);opacity:.3"/>
  </g>
 </g>
</svg>
