<?xml version="1.0" encoding="UTF-8"?>
<!-- Created with Inkscape (http://www.inkscape.org/) -->
<svg id="svg2963" width="48" height="48" version="1.1" xmlns="http://www.w3.org/2000/svg" xmlns:xlink="http://www.w3.org/1999/xlink">
 <defs id="defs3">
  <linearGradient id="linearGradient3728">
   <stop id="stop3730" offset="0"/>
   <stop id="stop3732" style="stop-opacity:0" offset="1"/>
  </linearGradient>
  <linearGradient id="linearGradient3251">
   <stop id="stop3253" style="stop-color:#695437" offset="0"/>
   <stop id="stop3255" style="stop-color:#695337;stop-opacity:0" offset="1"/>
  </linearGradient>
  <linearGradient id="linearGradient3250" x1="24.823" x2="24.997" y1="15.378" y2="37.277" gradientTransform="matrix(1.0633 0 0 1.124 -1.437 1.3451)" gradientUnits="userSpaceOnUse">
   <stop id="stop3201" style="stop-color:#dac197" offset="0"/>
   <stop id="stop3203" style="stop-color:#c1a581" offset=".23942"/>
   <stop id="stop3205" style="stop-color:#dbc298" offset=".27582"/>
   <stop id="stop3207" style="stop-color:#a68b60" offset="1"/>
  </linearGradient>
  <linearGradient id="linearGradient3252" x1="15.464" x2="15.464" y1="7.9757" y2="45.042" gradientTransform="matrix(.82929 0 0 .72178 3.597 12.382)" gradientUnits="userSpaceOnUse">
   <stop id="stop3297" style="stop-color:#c3a67d" offset="0"/>
   <stop id="stop3299" style="stop-color:#a17d4f" offset=".23942"/>
   <stop id="stop3301" style="stop-color:#bb9b71" offset=".27582"/>
   <stop id="stop3303" style="stop-color:#836845" offset="1"/>
  </linearGradient>
  <linearGradient id="linearGradient3313" x1="11.124" x2="13.168" y1="21.562" y2="21.562" gradientTransform="matrix(-1.2459 0 0 -1 50.369 48)" gradientUnits="userSpaceOnUse" xlink:href="#linearGradient3251"/>
  <linearGradient id="linearGradient3325" x1="10.749" x2="12.11" y1="21.5" y2="21.5" gradientTransform="matrix(1.2308 0 0 -1 -3.2308 48)" gradientUnits="userSpaceOnUse" xlink:href="#linearGradient3251"/>
  <linearGradient id="linearGradient3328" x1="22.188" x2="22.188" y1="20" y2="24.08" gradientTransform="matrix(1.0414 0 0 1 -.37772 0)" gradientUnits="userSpaceOnUse" xlink:href="#linearGradient3251"/>
  <radialGradient id="radialGradient3351" cx="5" cy="41.5" r="5" gradientTransform="matrix(.59382 0 0 1.5367 -6.6595 -103.94)" gradientUnits="userSpaceOnUse" xlink:href="#linearGradient3728"/>
  <linearGradient id="linearGradient3353" x1="17.554" x2="17.554" y1="46" y2="35" gradientTransform="matrix(1.757 0 0 1.397 -17.394 -16.412)" gradientUnits="userSpaceOnUse">
   <stop id="stop3705-0" style="stop-opacity:0" offset="0"/>
   <stop id="stop3711-2" offset=".5"/>
   <stop id="stop3707-8" style="stop-opacity:0" offset="1"/>
  </linearGradient>
  <radialGradient id="radialGradient3355" cx="5" cy="41.5" r="5" gradientTransform="matrix(.59382 0 0 1.5367 41.141 -103.94)" gradientUnits="userSpaceOnUse" xlink:href="#linearGradient3728"/>
  <linearGradient id="linearGradient3359" x1="44.995" x2="3.0052" y1="17.5" y2="17.5" gradientTransform="matrix(.78532 0 0 1 4.5572 8)" gradientUnits="userSpaceOnUse" spreadMethod="reflect">
   <stop id="stop3277" style="stop-color:#fff;stop-opacity:0" offset="0"/>
   <stop id="stop3283" style="stop-color:#fff" offset=".245"/>
   <stop id="stop3285" style="stop-color:#fff" offset=".7735"/>
   <stop id="stop3279" style="stop-color:#fff;stop-opacity:0" offset="1"/>
  </linearGradient>
  <linearGradient id="linearGradient4137" x1="20.781" x2="20.812" y1="24.594" y2="23.531" gradientTransform="matrix(1.0838 0 0 1 -1.9343 0)" gradientUnits="userSpaceOnUse">
   <stop id="stop3245" offset="0"/>
   <stop id="stop3247" style="stop-opacity:0" offset="1"/>
  </linearGradient>
  <linearGradient id="linearGradient7381">
   <stop id="stop7383" style="stop-color:#babdb6" offset="0"/>
   <stop id="stop7385" style="stop-color:#fff" offset="1"/>
  </linearGradient>
  <linearGradient id="linearGradient7444">
   <stop id="stop7446" style="stop-color:#888a85" offset="0"/>
   <stop id="stop7448" style="stop-color:#555753" offset="1"/>
  </linearGradient>
  <linearGradient id="linearGradient5443">
   <stop id="stop5445" style="stop-color:#fff" offset="0"/>
   <stop id="stop5447" style="stop-color:#fff;stop-opacity:0" offset="1"/>
  </linearGradient>
  <linearGradient id="linearGradient4434-3">
   <stop id="stop4436-3" style="stop-color:#d3d7cf" offset="0"/>
   <stop id="stop4438-8" style="stop-color:#babdb6" offset=".18304"/>
   <stop id="stop4440-0" style="stop-color:#fff" offset=".31893"/>
   <stop id="stop4442-5" style="stop-color:#babdb6" offset=".87644"/>
   <stop id="stop4444-6" style="stop-color:#eeeeec" offset="1"/>
  </linearGradient>
  <linearGradient id="linearGradient3957" x1="309.3" x2="335.3" y1="67.298" y2="81.926" gradientTransform="matrix(.78115 -.034814 -.034814 .78115 70.23 94.32)" gradientUnits="userSpaceOnUse" xlink:href="#linearGradient4434-3"/>
  <linearGradient id="linearGradient3959" x1="324.5" x2="330.06" y1="70.282" y2="99.274" gradientTransform="matrix(.78115 -.034814 -.034814 .78115 70.23 94.32)" gradientUnits="userSpaceOnUse" xlink:href="#linearGradient7444"/>
  <linearGradient id="linearGradient3961" x1="302.29" x2="308.65" y1="58.443" y2="60.768" gradientTransform="matrix(.802 0 0 .796 69.747 998.18)" gradientUnits="userSpaceOnUse" xlink:href="#linearGradient7381"/>
  <linearGradient id="linearGradient4035" x1="25.572" x2="27.368" y1="20.762" y2="22.476" gradientTransform="matrix(-.46344 0 0 -.46059 50.011 85.627)" gradientUnits="userSpaceOnUse" xlink:href="#linearGradient7381"/>
  <linearGradient id="linearGradient4037" x1="22.376" x2="32.447" y1="35.624" y2="24.412" gradientTransform="matrix(.46543 0 0 .4646 27.381 59.089)" gradientUnits="userSpaceOnUse" xlink:href="#linearGradient7444"/>
  <linearGradient id="linearGradient4039" x1="54.765" x2="54.721" y1="1" y2="12.585" gradientTransform="matrix(-.43041 -.42145 .43041 -.42145 55.06 105.38)" gradientUnits="userSpaceOnUse" xlink:href="#linearGradient5443"/>
  <linearGradient id="linearGradient4050" x1="-2.1966" x2="-10.566" y1="40.972" y2="40.949" gradientTransform="matrix(.41529 -1.4735e-8 0 .82758 -55.623 -71.037)" gradientUnits="userSpaceOnUse">
   <stop id="stop4101" style="stop-color:#edd563" offset="0"/>
   <stop id="stop4103" style="stop-color:#e08223" offset="1"/>
  </linearGradient>
  <linearGradient id="linearGradient4052" x1="-45.569" x2="-36.083" y1="7.714" y2="12.324" gradientTransform="matrix(.51455 0 0 .51456 -37.867 -42.962)" gradientUnits="userSpaceOnUse">
   <stop id="stop4095" style="stop-color:#bb5e12" offset="0"/>
   <stop id="stop4097" style="stop-color:#cd8033" offset="1"/>
  </linearGradient>
  <radialGradient id="radialGradient4054" cx="-39.458" cy="11.84" r="3.906" gradientTransform="matrix(1.2059 -.083715 .14698 3.0606 -11.32 -76.835)" gradientUnits="userSpaceOnUse" xlink:href="#linearGradient5443"/>
  <linearGradient id="linearGradient4056" x1="25.572" x2="27.368" y1="20.762" y2="22.476" gradientTransform="matrix(-.46344 0 0 -.46059 20.011 85.627)" gradientUnits="userSpaceOnUse" xlink:href="#linearGradient7381"/>
  <linearGradient id="linearGradient4058" x1="22.376" x2="32.447" y1="35.624" y2="24.412" gradientTransform="matrix(.46543 0 0 .4646 -2.6188 59.089)" gradientUnits="userSpaceOnUse" xlink:href="#linearGradient7444"/>
  <linearGradient id="linearGradient4060" x1="-10.939" x2="-6.9301" y1="36.912" y2="36.892" gradientTransform="matrix(.30906 0 0 .74742 -57.696 -66.024)" gradientUnits="userSpaceOnUse" xlink:href="#linearGradient3728"/>
  <linearGradient id="linearGradient4062" x1="-7.0974" x2="-10.179" y1="40.324" y2="40.309" gradientTransform="matrix(.25867 0 0 .72764 -56.904 -64.87)" gradientUnits="userSpaceOnUse" xlink:href="#linearGradient3728"/>
  <linearGradient id="linearGradient4064" x1="58.548" x2="56.447" y1="37.501" y2="37.586" gradientTransform="matrix(.53122 0 0 1.1012 -88.264 -77.593)" gradientUnits="userSpaceOnUse" xlink:href="#linearGradient5443"/>
  <linearGradient id="linearGradient4066" x1="54.765" x2="54.721" y1="1" y2="12.585" gradientTransform="matrix(-.43041 -.42145 .43041 -.42145 25.06 105.38)" gradientUnits="userSpaceOnUse" xlink:href="#linearGradient5443"/>
  <linearGradient id="linearGradient3218" x1="34" x2="34" y1="1" y2="23" gradientTransform="translate(-24.5)" gradientUnits="userSpaceOnUse">
   <stop id="stop3311" style="stop-color:#f6f6f6" offset="0"/>
   <stop id="stop3313" style="stop-color:#d2d2d2" offset="1"/>
  </linearGradient>
  <linearGradient id="linearGradient3228" x1="40" x2="40" y1="1" y2="23.02" gradientTransform="translate(-24.5)" gradientUnits="userSpaceOnUse">
   <stop id="stop3399" style="stop-color:#969696" offset="0"/>
   <stop id="stop3401" style="stop-color:#787878" offset="1"/>
  </linearGradient>
  <linearGradient id="linearGradient3241" x1="86.133" x2="84.639" y1="105.1" y2="20.895" gradientTransform="matrix(.15623 0 0 .15623 2.0012 2.1574)" gradientUnits="userSpaceOnUse">
   <stop id="stop5130" style="stop-color:#eee" offset="0"/>
   <stop id="stop5132" style="stop-color:#a2a2a2" offset="1"/>
  </linearGradient>
  <radialGradient id="radialGradient3734" cx="23" cy="31.129" r="14" gradientTransform="matrix(1.1429 -1.3031e-7 5.7012e-8 .5 -3.2857 8.4355)" gradientUnits="userSpaceOnUse" xlink:href="#linearGradient3728"/>
  <radialGradient id="radialGradient3744" cx="17" cy="16" r="2" gradientUnits="userSpaceOnUse" xlink:href="#linearGradient3728"/>
  <linearGradient id="linearGradient3803" x1="15.464" x2="15.464" y1="7.9757" y2="45.042" gradientTransform="matrix(.82929 0 0 .72178 3.597 12.382)" gradientUnits="userSpaceOnUse" xlink:href="#linearGradient5443"/>
 </defs>
 <g id="g3305" transform="matrix(.79845 0 0 .78092 4.417 10.634)" style="opacity:.4">
  <rect id="rect2484" transform="scale(-1)" x="-3.6904" y="-47.848" width="2.9602" height="15.367" style="fill:url(#radialGradient3351)"/>
  <rect id="rect2486" x="3.6904" y="32.482" width="40.412" height="15.367" style="fill:url(#linearGradient3353)"/>
  <rect id="rect3444" transform="scale(1,-1)" x="44.11" y="-47.848" width="2.9602" height="15.367" style="fill:url(#radialGradient3355)"/>
 </g>
 <path id="path2488" d="m11.07 18.517h24.462c1.428 0 2.0707-0.20683 2.4809 0.72178l2.4893 5.7742v18.531c0 1.1211 0.08536 0.94985-1.3427 0.94985h-31.318c-1.428 0-1.3427 0.1713-1.3427-0.94985v-18.531l2.4893-5.7742c0.39875-0.90985 0.65409-0.72178 2.0821-0.72178z" style="display:block;fill:url(#linearGradient3250);stroke-linecap:round;stroke-width:.9942;stroke:url(#linearGradient3252)"/>
 <path id="path3798" d="m39.5 25.188c-0.80106-1.896-1.6921-3.7803-2.4366-5.6836" style="display:block;fill:none;opacity:.5;stroke-linecap:round;stroke-width:.9942;stroke:url(#linearGradient3803)"/>
 <path id="path3692" d="m11.891 19c-0.4314 0-0.56959 0.07041-0.68342 0.15625-0.11383 0.08584-0.26152 0.26702-0.39052 0.625l-1.6923 5.2188h29.875l-1.7248-5.0312c-0.2173-0.51868-0.3728-0.68587-0.5207-0.78125-0.1479-0.09538-0.37368-0.1875-0.87868-0.1875h-23.985z" style="color:black;display:block;fill:url(#linearGradient3328);opacity:.6"/>
 <path id="path3694" d="m11.269 19c-0.50985 0-0.67316 0.07041-0.80769 0.15625s-0.30908 0.26702-0.46154 0.625l-2 5.2188h6v-6h-2.7308z" style="color:black;display:block;fill:url(#linearGradient3325);opacity:.6"/>
 <path id="path3809" d="m9.9688 19.5c-0.80267 1.9296-1.7134 3.8325-2.4688 5.7703" style="display:block;fill:none;opacity:.5;stroke-linecap:round;stroke-width:.9942;stroke:url(#linearGradient3803)"/>
 <path id="path3807" d="m37.063 19.504c-5.5698 0.06002-11.238 0.01185-16.847 0.02735-3.4155-0.017518-6.8331 0.037058-10.247-0.031253" style="display:block;fill:none;opacity:.5;stroke-linecap:round;stroke-width:.9942;stroke:url(#linearGradient3803)"/>
 <g id="g4031" transform="matrix(-.48782 .87294 -.87294 -.48782 95.26 25.033)">
  <path id="path4021" d="m41.009 71.305c-0.27518-0.04457-0.55317 0.01766-0.81016 0.22336a0.50291 0.50261 0 0 0-0.05587 0.02792l-6.7048 6.7008-0.75428 0.22336a0.50291 0.50261 0 0 0-0.27936 0.19544l-1.4806 2.1778a0.50291 0.50261 0 0 0 0.05587 0.64216l0.94984 0.94928a0.50291 0.50261 0 0 0 0.64254 0.05584l2.179-1.5077a0.50291 0.50261 0 0 0 0.19556-0.2792l0.19556-0.72592 6.7327-6.7287a0.50291 0.50261 0 0 0 0-0.02792c0.65272-0.73467-0.04048-1.7928-0.86603-1.9265z" style="fill:url(#linearGradient4035);stroke-linecap:round;stroke-linejoin:round;stroke-width:.8;stroke:url(#linearGradient4037)"/>
  <path id="path4023" d="m32.213 82.168 2.5701-1.6846 0.28773-1.072c0.23668-0.26742-0.69134-1.1118-0.94153-0.92192l-1.0813 0.29491-1.7204 2.5166c0.33776 0.33072 0.5476 0.5362 0.88536 0.86692z" style="fill:url(#linearGradient4039)"/>
 </g>
 <g id="g6305" transform="matrix(.76825 .39353 -.39103 .77602 -171.51 -215.73)" style="enable-background:new">
  <path id="path3688" d="m304.83 129.65c-0.0378 0.0402-0.0658 0.0881-0.0804 0.14003-0.40518 1.4799-0.31949 3.1558 0.27379 4.2807 0.81024 1.5362 2.6105 2.2062 4.4203 1.8082 0.72274 0.21414 1.6718 0.71421 2.7743 1.8086l10.935 10.835 2.8332-2.816-10.935-10.835c-0.99389-0.9866-1.5001-1.8478-1.7485-2.5345 0.2856-0.97743 0.2328-2.005-0.23683-2.8955-0.59305-1.1244-1.8999-2.0837-3.3108-2.5171-0.12099-0.0395-0.25795 9.2e-4 -0.34601 0.10358-0.0881 0.10266-0.10892 0.24521-0.0483 0.35511l1.6144 3.0684c0.14503 0.27498 0.0466 0.64136-0.22391 1.0236-0.2731 0.38589-0.71642 0.77909-1.2756 1.101-0.55926 0.32194-1.1124 0.50954-1.5695 0.54532-0.45439 0.0356-0.8053-0.0744-0.9507-0.35014l-1.6242-3.0854c-0.0453-0.0856-0.1291-0.13927-0.22875-0.14646-0.0996-7e-3 -0.20234 0.0334-0.27247 0.1106h-1e-5z" style="enable-background:new;fill-rule:evenodd;fill:url(#linearGradient3957);stroke-dashoffset:.3612;stroke-linecap:round;stroke-linejoin:round;stroke-width:1.2701;stroke:url(#linearGradient3959)"/>
  <path id="path2777" transform="translate(-5.0837 -912.59)" d="m314.51 1039.6c0.015 0.01 6e-3 0.025 0 0.025l1.8045 3.2089c0.24343 0.4323 0.0678 0.9428-0.22556 1.3681-0.29634 0.4296-0.75548 0.8457-1.3534 1.1692-0.59917 0.3241-1.2276 0.4798-1.7544 0.4975-0.52558 0.018-1.0189-0.1313-1.2531-0.5473l-1.8045-3.2337h-0.0251c0.0165-0.018 3e-3 0.013 0 0.025-0.33275 1.4234-0.16017 3.0685 0.45113 4.1542 0.83618 1.485 2.582 2.1944 4.3107 1.8905 1.7206-0.3057 3.1919-1.7936 3.5589-3.2089 0.23171-0.9167 0.13299-1.9018-0.35088-2.7611-0.60963-1.0827-1.9508-2.1023-3.3584-2.5871z" style="enable-background:new;fill-rule:evenodd;fill:url(#linearGradient3961)"/>
  <path id="path3711" d="m310.22 127.75 1.25 2.4375c0.28894 0.54782 0.085 1.1205-0.25 1.5938-0.33855 0.47839-0.8542 0.92749-1.4688 1.2812-0.60688 0.34935-1.2243 0.57896-1.8125 0.625-0.2801 0.0219-0.5499-2e-3 -0.8125-0.0937-0.2626-0.0921-0.51362-0.29205-0.65625-0.5625l-1.25-2.375c-0.17286 1.164-0.0996 2.3748 0.3125 3.1562 0.68338 1.2957 2.1765 1.8842 3.7812 1.5312 0.0917-0.0238 0.18952-0.0238 0.28125 0 0.82317 0.2439 1.8749 0.7896 3.0312 1.9375l10.938 10.844 2.0312-2-10.938-10.844c-1.0414-1.0337-1.5944-1.974-1.875-2.75-0.0358-0.11084-0.0358-0.23291 0-0.34375 0.24916-0.8527 0.1772-1.7492-0.21875-2.5-0.41054-0.77836-1.3235-1.4736-2.3438-1.9375z" style="enable-background:new;fill:none;stroke-dashoffset:.3612;stroke-linecap:round;stroke-linejoin:round;stroke-width:.57733;stroke:#fff"/>
  <path id="rect3610" d="m326.67 149.28-0.12501 0.12501c-0.34845 0.34845-1.1894 0.0686-1.8854-0.6275l-12.234-12.234c-0.69609-0.69609-0.97595-1.537-0.6275-1.8855l0.125-0.125c0.34846-0.34845 1.1894-0.0686 1.8855 0.6275l12.234 12.234c0.69609 0.69609 0.97595 1.537 0.6275 1.8854z" style="enable-background:new;fill-rule:evenodd;opacity:.08"/>
 </g>
 <path id="path3696" d="m35.691 19c0.51612 0 0.68145 0.07041 0.81764 0.15625 0.13618 0.08584 0.31288 0.26702 0.46722 0.625l2.0246 5.2188h-6.0739v-6h2.7644z" style="color:black;display:block;fill:url(#linearGradient3313);opacity:.6705"/>
 <g id="g4041" transform="matrix(.86512 -.50156 .50156 .86512 -12.506 -40.498)">
  <rect id="rect5288" transform="matrix(-.70991 -.70429 .70641 -.7078 0 0)" x="-61.229" y="-43.998" width="4.5493" height="14.754" rx="1.9958" ry="1.9958" style="fill:url(#linearGradient4050);stroke-linecap:round;stroke-linejoin:round;stroke-width:1.2;stroke:url(#linearGradient4052)"/>
  <rect id="rect5292" transform="matrix(-.71145 -.70274 .70655 -.70766 0 0)" x="-60.801" y="-43.924" width="3.6782" height="14.317" rx="2.3714" ry="2.3713" style="fill:none;opacity:.6;stroke-linecap:round;stroke-linejoin:round;stroke:url(#radialGradient4054)"/>
  <path id="path3822" d="m11.009 71.305c-0.27518-0.04457-0.55317 0.01766-0.81016 0.22336a0.50291 0.50261 0 0 0-0.05587 0.02792l-6.7048 6.7008-0.75428 0.22336a0.50291 0.50261 0 0 0-0.27936 0.19544l-1.4806 2.1778a0.50291 0.50261 0 0 0 0.055873 0.64216l0.94984 0.94928a0.50291 0.50261 0 0 0 0.64254 0.05584l2.179-1.5077a0.50291 0.50261 0 0 0 0.19556-0.2792l0.19556-0.72592 6.7327-6.7287a0.50291 0.50261 0 0 0 0-0.02792c0.65272-0.73467-0.04048-1.7928-0.86603-1.9265z" style="fill:url(#linearGradient4056);stroke-linecap:round;stroke-linejoin:round;stroke-width:.7;stroke:url(#linearGradient4058)"/>
  <rect id="rect2804" transform="matrix(-.71164 -.70255 .70682 -.7074 0 0)" x="-60.786" y="-42.107" width=".75438" height="11.687" rx=".79048" ry=".86949" style="fill:url(#linearGradient4060);opacity:.3"/>
  <rect id="rect5290" transform="matrix(-.71243 -.70174 .70638 -.70783 0 0)" x="-59.491" y="-41.585" width="1.0347" height="11.642" rx=".79046" ry=".86945" style="fill:url(#linearGradient4062);opacity:.3"/>
  <rect id="rect5398" transform="matrix(-.71164 -.70255 .70682 -.7074 0 0)" x="-57.914" y="-42.081" width=".75438" height="11.687" rx=".79048" ry=".86949" style="fill:url(#linearGradient4064);opacity:.25"/>
  <path id="path5450" d="m2.2134 82.168 2.5701-1.6846 0.28773-1.072c0.23668-0.26742-0.69134-1.1118-0.94153-0.92192l-1.0813 0.29491-1.7204 2.5166c0.33776 0.33072 0.5476 0.5362 0.88536 0.86692z" style="fill:url(#linearGradient4066)"/>
 </g>
 <rect id="rect2952" x="10" y="19" width="28" height="6.061" rx=".79046" ry=".86945" style="fill:url(#radialGradient3734);opacity:.4"/>
 <path id="path3736" transform="matrix(1.5,0,0,1.5,-8.5,-8)" d="m19 16a2 2 0 1 1-4 0 2 2 0 1 1 4 0z" style="fill:url(#radialGradient3744);opacity:.3"/>
 <path id="path3746" transform="matrix(1.5,0,0,1.5,6.5,-2)" d="m19 16a2 2 0 1 1-4 0 2 2 0 1 1 4 0z" style="fill:url(#radialGradient3744);opacity:.3"/>
 <path id="path3750" transform="matrix(1.5,0,0,1.5,-13.5,-1)" d="m19 16a2 2 0 1 1-4 0 2 2 0 1 1 4 0z" style="fill:url(#radialGradient3744);opacity:.3"/>
 <g id="layer1" transform="translate(10,12)">
  <g id="g2486">
   <path id="rect2426" d="m10.188 1.5c-0.38837 0-0.6875 0.29913-0.6875 0.6875v1.6875c-0.51167 0.15722-1.0032 0.37877-1.4688 0.625l-1.1875-1.1875c-0.27462-0.27462-0.72538-0.27462-1 0l-2.5312 2.5312c-0.27462 0.27462-0.27462 0.72538 0 1l1.1875 1.1875c-0.24623 0.46557-0.46778 0.95708-0.625 1.4688h-1.6875c-0.38837 0-0.6875 0.29913-0.6875 0.6875v3.625c0 0.38837 0.29913 0.6875 0.6875 0.6875h1.6875c0.15722 0.51167 0.37877 1.0032 0.625 1.4688l-1.1875 1.1875c-0.27462 0.27462-0.27462 0.72538 0 1l2.5312 2.5312c0.27462 0.27462 0.72538 0.27462 1 0l1.1875-1.1875c0.46557 0.24623 0.95708 0.46778 1.4688 0.625v1.6875c0 0.38837 0.29914 0.6875 0.6875 0.6875h3.625c0.38837 0 0.6875-0.29913 0.6875-0.6875v-1.6875c0.51167-0.15722 1.0032-0.37877 1.4688-0.625l1.1875 1.1875c0.27462 0.27462 0.72538 0.27462 1 0l2.5312-2.5312c0.27462-0.27462 0.27462-0.72538 0-1l-1.1875-1.1875c0.24623-0.46556 0.46778-0.95708 0.625-1.4688h1.6875c0.38837 0 0.6875-0.29913 0.6875-0.6875v-3.625c0-0.38837-0.29913-0.6875-0.6875-0.6875h-1.6875c-0.15722-0.51167-0.37877-1.0032-0.625-1.4688l1.1875-1.1875c0.27462-0.27462 0.27462-0.72538 0-1l-2.5312-2.5312c-0.27462-0.27462-0.72538-0.27462-1 0l-1.1875 1.1875c-0.46556-0.24623-0.95708-0.46778-1.4688-0.625v-1.6875c0-0.38837-0.29913-0.6875-0.6875-0.6875h-3.625zm1.8125 7.5c1.656 0 3 1.344 3 3s-1.344 3-3 3-3-1.344-3-3 1.344-3 3-3z" style="display:block;fill:url(#linearGradient3218);stroke-linejoin:round;stroke:url(#linearGradient3228)"/>
   <path id="path3315" d="m12 6c-3.3085-2e-7 -6 2.6915-6 6 0 3.3085 2.6915 6 6 6 3.3085-1e-6 6-2.6915 6-6 0-3.3085-2.6915-6-6-6zm0 2.7692c1.7834 0 3.2308 1.4474 3.2308 3.2308s-1.4474 3.2308-3.2308 3.2308-3.2308-1.4474-3.2308-3.2308 1.4474-3.2308 3.2308-3.2308z" style="opacity:.05"/>
   <path id="path28" d="m12 5.5c-3.5841 0-6.5 2.9159-6.5 6.5 0 3.5841 2.9159 6.5 6.5 6.5 3.5841 0 6.5-2.9159 6.5-6.5 0-3.5841-2.9159-6.5-6.5-6.5z" style="fill:none;stroke:url(#linearGradient3241)"/>
  </g>
 </g>
 <g id="g4068" transform="matrix(.058179 .86671 -.86852 .058301 134.67 -256.91)" style="enable-background:new">
  <path id="path4070" d="m304.83 129.65c-0.0378 0.0402-0.0658 0.0881-0.0804 0.14003-0.40518 1.4799-0.31949 3.1558 0.27379 4.2807 0.81024 1.5362 2.6105 2.2062 4.4203 1.8082 0.72274 0.21414 1.6718 0.71421 2.7743 1.8086l10.935 10.835 2.8332-2.816-10.935-10.835c-0.99389-0.9866-1.5001-1.8478-1.7485-2.5345 0.2856-0.97743 0.2328-2.005-0.23683-2.8955-0.59305-1.1244-1.8999-2.0837-3.3108-2.5171-0.12099-0.0395-0.25795 9.2e-4 -0.34601 0.10358-0.0881 0.10266-0.10892 0.24521-0.0483 0.35511l1.6144 3.0684c0.14503 0.27498 0.0466 0.64136-0.22391 1.0236-0.2731 0.38589-0.71642 0.77909-1.2756 1.101-0.55926 0.32194-1.1124 0.50954-1.5695 0.54532-0.45439 0.0356-0.8053-0.0744-0.9507-0.35014l-1.6242-3.0854c-0.0453-0.0856-0.1291-0.13927-0.22875-0.14646-0.0996-7e-3 -0.20234 0.0334-0.27247 0.1106h-1e-5z" style="enable-background:new;fill-rule:evenodd;fill:url(#linearGradient3957);stroke-dashoffset:.3612;stroke-linecap:round;stroke-linejoin:round;stroke-width:1.265;stroke:url(#linearGradient3959)"/>
  <path id="path4072" transform="translate(-5.0837 -912.59)" d="m314.51 1039.6c0.015 0.01 6e-3 0.025 0 0.025l1.8045 3.2089c0.24343 0.4323 0.0678 0.9428-0.22556 1.3681-0.29634 0.4296-0.75548 0.8457-1.3534 1.1692-0.59917 0.3241-1.2276 0.4798-1.7544 0.4975-0.52558 0.018-1.0189-0.1313-1.2531-0.5473l-1.8045-3.2337h-0.0251c0.0165-0.018 3e-3 0.013 0 0.025-0.33275 1.4234-0.16017 3.0685 0.45113 4.1542 0.83618 1.485 2.582 2.1944 4.3107 1.8905 1.7206-0.3057 3.1919-1.7936 3.5589-3.2089 0.23171-0.9167 0.13299-1.9018-0.35088-2.7611-0.60963-1.0827-1.9508-2.1023-3.3584-2.5871z" style="enable-background:new;fill-rule:evenodd;fill:url(#linearGradient3961)"/>
  <path id="path4074" d="m310.22 127.75 1.25 2.4375c0.28894 0.54782 0.085 1.1205-0.25 1.5938-0.33855 0.47839-0.8542 0.92749-1.4688 1.2812-0.60688 0.34935-1.2243 0.57896-1.8125 0.625-0.2801 0.0219-0.5499-2e-3 -0.8125-0.0937-0.2626-0.0921-0.51362-0.29205-0.65625-0.5625l-1.25-2.375c-0.17286 1.164-0.0996 2.3748 0.3125 3.1562 0.68338 1.2957 2.1765 1.8842 3.7812 1.5312 0.0917-0.0238 0.18952-0.0238 0.28125 0 0.82317 0.2439 1.8749 0.7896 3.0312 1.9375l10.938 10.844 2.0312-2-10.938-10.844c-1.0414-1.0337-1.5944-1.974-1.875-2.75-0.0358-0.11084-0.0358-0.23291 0-0.34375 0.24916-0.8527 0.1772-1.7492-0.21875-2.5-0.41054-0.77836-1.3235-1.4736-2.3438-1.9375z" style="enable-background:new;fill:none;stroke-dashoffset:.3612;stroke-linecap:round;stroke-linejoin:round;stroke-width:.575;stroke:#fff"/>
  <path id="path4076" d="m326.67 149.28-0.12501 0.12501c-0.34845 0.34845-1.1894 0.0686-1.8854-0.6275l-12.234-12.234c-0.69609-0.69609-0.97595-1.537-0.6275-1.8855l0.125-0.125c0.34846-0.34845 1.1894-0.0686 1.8855 0.6275l12.234 12.234c0.69609 0.69609 0.97595 1.537 0.6275 1.8854z" style="enable-background:new;fill-rule:evenodd;opacity:.08"/>
 </g>
 <path id="path4945" d="m40 26v18h-33v-18h33z" style="display:block;fill:url(#linearGradient3250)"/>
 <path id="path3811" d="m7.5 25.5v18h32v-18" style="display:block;fill:none;opacity:.5;stroke-linecap:round;stroke-width:.9942;stroke:url(#linearGradient3803)"/>
 <path id="path3730" d="m10.834 19.5c-0.19377 0-0.30231 0.02161-0.33867 0.03125-0.03637 0.0096-0.0019 8e-3 -0.03388 0.03125-0.0063 0.0045-0.12614 0.07921-0.23707 0.375l-1.524 4.5625h29.6l-1.5579-4.3438v-0.03125c-0.18851-0.42168-0.28452-0.4977-0.33867-0.53125-0.076087-0.047149-0.15271-0.09375-0.60961-0.09375h-24.96z" style="color:black;display:block;fill:none;opacity:.15;stroke:url(#linearGradient4137)"/>
 <rect id="rect4133" x="7" y="25" width="33" height="1.2" style="fill:#dac197"/>
 <path id="path3357" d="m7.3099 25.5h32.19" style="fill:none;opacity:.4;stroke-linecap:square;stroke-width:1px;stroke:url(#linearGradient3359)"/>
</svg>
