<?xml version="1.0" encoding="UTF-8"?>
<!-- Created with Inkscape (http://www.inkscape.org/) -->
<svg id="svg2522" width="64" height="64" version="1.0" xmlns="http://www.w3.org/2000/svg" xmlns:xlink="http://www.w3.org/1999/xlink">
 <defs id="defs2524">
  <radialGradient id="radialGradient2507" cx="62.625" cy="4.625" r="10.625" gradientTransform="matrix(2.9176 0 0 .98823 -150.72 48.929)" gradientUnits="userSpaceOnUse">
   <stop id="stop8840" offset="0"/>
   <stop id="stop8842" style="stop-opacity:0" offset="1"/>
  </radialGradient>
  <linearGradient id="linearGradient2504" x1="18.379" x2="18.379" y1="44.98" y2="3.0816" gradientTransform="matrix(1.2534 0 0 1.2534 1.9192 3.9192)" gradientUnits="userSpaceOnUse">
   <stop id="stop2788" style="stop-color:#1f4b6a" offset="0"/>
   <stop id="stop2790" style="stop-color:#4083c2" offset="1"/>
  </linearGradient>
  <radialGradient id="radialGradient2502" cx="23.896" cy="3.99" r="20.397" gradientTransform="matrix(0 2.9914 -3.9485 0 47.755 -64.903)" gradientUnits="userSpaceOnUse">
   <stop id="stop2778" style="stop-color:#8badea" offset="0"/>
   <stop id="stop2780" style="stop-color:#6396cd" offset=".26238"/>
   <stop id="stop2782" style="stop-color:#3b7caf" offset=".66094"/>
   <stop id="stop2784" style="stop-color:#194c70" offset="1"/>
  </radialGradient>
  <linearGradient id="linearGradient2499" x1="63.397" x2="63.397" y1="-12.489" y2="5.4676" gradientTransform="matrix(2.8014 0 0 2.8014 -142.25 43.835)" gradientUnits="userSpaceOnUse">
   <stop id="stop4875" style="stop-color:#fff" offset="0"/>
   <stop id="stop4877" style="stop-color:#fff;stop-opacity:0" offset="1"/>
  </linearGradient>
 </defs>
 <g id="layer1">
  <path id="path8836" d="m63 53.5c0 5.799-13.879 10.5-31 10.5s-31-4.701-31-10.5 13.879-10.5 31-10.5 31 4.701 31 10.5z" style="fill-rule:evenodd;fill:url(#radialGradient2507);opacity:.3"/>
  <path id="path2555" d="m32 8.5018c-14.069 0-25.498 11.429-25.498 25.498 0 14.069 11.429 25.498 25.498 25.498 14.069 0 25.498-11.429 25.498-25.498 0-14.069-11.429-25.498-25.498-25.498z" style="fill:url(#radialGradient2502);stroke-linecap:round;stroke-linejoin:round;stroke:url(#linearGradient2504)"/>
  <path id="path8655" d="m56.5 33.999c0 13.531-10.97 24.501-24.5 24.501-13.531 0-24.5-10.97-24.5-24.501 0-13.531 10.969-24.499 24.5-24.499 13.53 0 24.5 10.968 24.5 24.499z" style="fill:none;opacity:.4;stroke:url(#linearGradient2499)"/>
  <path id="path2520" d="m36.058 20.893c0 2.1491-1.7361 3.8933-3.8751 3.8933-2.1391 0-3.8751-1.7442-3.8751-3.8933 0-2.1491 1.7361-3.8933 3.8751-3.8933 2.1391 0 3.8751 1.7442 3.8751 3.8933zm9.6718 4.1398c-0.17923 0.029177-0.34859 0.1002-0.49374 0.20719l-13.237 2.0738-13.166-2.1024c-0.34033-0.248-0.81882-0.32226-1.1991-0.13814-0.38028 0.18412-0.62958 0.62051-0.63482 1.0358-0.0048 0.41531 0.25927 0.77347 0.63482 0.96672l10.317 3.288-0.070561 7.5482-3.6403 11.305c-0.3506 0.51477-0.24374 1.1759 0.28214 1.5191 0.52591 0.34324 1.2717 0.23866 1.6223-0.27617l5.8747-12.202 5.7638 12.181c0.31166 0.53393 1.0064 0.71941 1.5518 0.41432 0.54539-0.30509 0.73487-0.98519 0.42322-1.5191l-3.5727-11.353-0.14105-7.1061 10.461-3.8389c0.42268-0.29016 0.6063-0.83949 0.42323-1.3119-0.18309-0.4725-0.68622-0.7478-1.1991-0.69054h3.5e-5z" style="fill:#1f4b6b"/>
  <path id="path6668" d="m36.058 21.893c0 2.1491-1.7361 3.8933-3.8751 3.8933-2.1391 0-3.8751-1.7442-3.8751-3.8933 0-2.1491 1.7361-3.8933 3.8751-3.8933 2.1391 0 3.8751 1.7442 3.8751 3.8933zm9.6718 4.1398c-0.17923 0.029177-0.34859 0.1002-0.49374 0.20719l-13.237 2.0738-13.166-2.1024c-0.34033-0.248-0.81882-0.32226-1.1991-0.13814-0.38028 0.18412-0.62958 0.62051-0.63482 1.0358-0.0048 0.41531 0.25927 0.77347 0.63482 0.96672l10.317 3.288-0.070561 7.5482-3.6403 11.305c-0.3506 0.51477-0.24374 1.1759 0.28214 1.5191 0.52591 0.34324 1.2717 0.23866 1.6223-0.27617l5.8747-12.202 5.7638 12.181c0.31166 0.53393 1.0064 0.71941 1.5518 0.41432 0.54539-0.30509 0.73487-0.98519 0.42322-1.5191l-3.5727-11.353-0.14105-7.1061 10.461-3.8389c0.42268-0.29016 0.6063-0.83949 0.42323-1.3119-0.18309-0.4725-0.68622-0.7478-1.1991-0.69054h3.5e-5z" style="fill:#fff"/>
 </g>
</svg>
