<?xml version="1.0" encoding="UTF-8"?>
<!-- Created with Inkscape (http://www.inkscape.org/) -->
<svg id="svg3338" width="64" height="64" version="1.0" xmlns="http://www.w3.org/2000/svg" xmlns:xlink="http://www.w3.org/1999/xlink">
 <defs id="defs3340">
  <radialGradient id="radialGradient2505" cx="11.25" cy="19.031" r="8.0625" gradientTransform="matrix(2.9767 0 0 .57881 -.91006 28.318)" gradientUnits="userSpaceOnUse">
   <stop id="stop2487" style="stop-color:#0d0d0d" offset="0"/>
   <stop id="stop2489" style="stop-color:#0d0d0d;stop-opacity:0" offset="1"/>
  </radialGradient>
  <radialGradient id="radialGradient3590" cx="96.124" cy="-26.1" r="38.213" gradientTransform="matrix(-.00035541 .63597 -1.0006 -.0006567 -18.784 -59.366)" gradientUnits="userSpaceOnUse">
   <stop id="stop6164" style="stop-color:#f9650d" offset="0"/>
   <stop id="stop6166" style="stop-color:#c15619" offset="1"/>
  </radialGradient>
  <radialGradient id="radialGradient3588" cx="103.94" cy="-34.004" r="38.213" gradientTransform="matrix(-.00035547 .63597 -1.0099 0 -27.005 -64.317)" gradientUnits="userSpaceOnUse">
   <stop id="stop6158" style="stop-color:#ffc391" offset="0"/>
   <stop id="stop6160" style="stop-color:#fa650b" offset="1"/>
  </radialGradient>
  <radialGradient id="radialGradient3585" cx="100.62" cy="-22.827" r="116.22" gradientTransform="matrix(.024889 .016377 -.096855 .14438 6.3094 12.153)" gradientUnits="userSpaceOnUse" xlink:href="#linearGradient6280"/>
  <radialGradient id="radialGradient3582" cx="26.686" cy="30.946" r="26.269" gradientTransform="matrix(.10703 -.0038124 .0054093 .14895 -.44568 13.801)" gradientUnits="userSpaceOnUse" xlink:href="#linearGradient6280"/>
  <radialGradient id="radialGradient3579" cx="26.686" cy="30.946" r="26.269" gradientTransform="matrix(.09837 -.003504 .0049717 .1369 27.591 -1.5916)" gradientUnits="userSpaceOnUse" xlink:href="#linearGradient6280"/>
  <linearGradient id="linearGradient6280">
   <stop id="stop6282" style="stop-color:#fff" offset="0"/>
   <stop id="stop6284" style="stop-color:#fff;stop-opacity:0" offset="1"/>
  </linearGradient>
  <radialGradient id="radialGradient3576" cx="100.62" cy="-22.827" r="116.22" gradientTransform="matrix(.0015455 .028886 .17002 -.0095002 24.083 2.0589)" gradientUnits="userSpaceOnUse" xlink:href="#linearGradient6280"/>
  <linearGradient id="linearGradient2759" x1="25" x2="25" y1="11.923" y2="40.322" gradientTransform="matrix(.8179 0 0 .81273 20.34 3.8948)" gradientUnits="userSpaceOnUse">
   <stop id="stop2266" style="stop-color:#d7e866" offset="0"/>
   <stop id="stop2268" style="stop-color:#8cab2a" offset="1"/>
  </linearGradient>
  <linearGradient id="linearGradient2756" x1="58.749" x2="105.32" y1="2.0478" y2="58.048" gradientTransform="matrix(.82169 0 0 .81273 -24.662 1.4178)" gradientUnits="userSpaceOnUse">
   <stop id="stop5115" style="stop-color:#fff" offset="0"/>
   <stop id="stop5117" style="stop-color:#fff;stop-opacity:0" offset="1"/>
  </linearGradient>
  <linearGradient id="linearGradient2566" x1="302.86" x2="302.86" y1="366.65" y2="609.51" gradientTransform="matrix(.10181 0 0 .027451 -4.7966 43.268)" gradientUnits="userSpaceOnUse">
   <stop id="stop5050" style="stop-opacity:0" offset="0"/>
   <stop id="stop5056" offset=".5"/>
   <stop id="stop5052" style="stop-opacity:0" offset="1"/>
  </linearGradient>
  <radialGradient id="radialGradient2563" cx="605.71" cy="486.65" r="117.14" gradientTransform="matrix(.059797 0 0 .027451 20.519 43.268)" gradientUnits="userSpaceOnUse" xlink:href="#linearGradient5060"/>
  <radialGradient id="radialGradient2560" cx="605.71" cy="486.65" r="117.14" gradientTransform="matrix(-.059797 0 0 .027451 43.482 43.268)" gradientUnits="userSpaceOnUse" xlink:href="#linearGradient5060"/>
  <linearGradient id="linearGradient2557" x1="29.938" x2="30" y1="41" y2="50" gradientTransform="matrix(1.3574 0 0 1.0099 -7.3634 6.5518)" gradientUnits="userSpaceOnUse">
   <stop id="stop2223" style="stop-color:#7a7a7a" offset="0"/>
   <stop id="stop2219" style="stop-color:#474747" offset="1"/>
  </linearGradient>
  <linearGradient id="linearGradient2553" x1="17.814" x2="18.073" y1="29.797" y2="10" gradientTransform="matrix(1.3526 0 0 1.3653 -.46328 -2.8344)" gradientUnits="userSpaceOnUse">
   <stop id="stop3486" style="stop-color:#969696" offset="0"/>
   <stop id="stop3488" style="stop-color:#b4b4b4" offset="1"/>
  </linearGradient>
  <radialGradient id="radialGradient2551" cx="11.734" cy="8.49" r="23.048" gradientTransform="matrix(1.8622 .95185 -.63318 1.262 -.52977 -5.481)" gradientUnits="userSpaceOnUse">
   <stop id="stop7064" style="stop-color:#e6e6e6" offset="0"/>
   <stop id="stop7060" style="stop-color:#c8c8c8" offset="1"/>
  </radialGradient>
  <radialGradient id="radialGradient2547" cx="141.75" cy="206.43" r="78.728" gradientTransform="matrix(.47571 -.0069085 .0035207 .3975 -37.033 -36.799)" gradientUnits="userSpaceOnUse" xlink:href="#linearGradient4035"/>
  <radialGradient id="radialGradient2544" cx="142.62" cy="191.85" r="78.728" gradientTransform="matrix(.2466 0 0 -.17432 -4.1482 59.731)" gradientUnits="userSpaceOnUse">
   <stop id="stop7611" style="stop-color:#fff" offset="0"/>
   <stop id="stop7677" style="stop-color:#e7e7e7" offset=".47026"/>
   <stop id="stop7613" style="stop-color:#8c8c8c" offset=".67184"/>
   <stop id="stop7617" style="stop-color:#ddd" offset=".83543"/>
   <stop id="stop7615" style="stop-color:#a8a8a8" offset="1"/>
  </radialGradient>
  <radialGradient id="radialGradient2540" cx="113.07" cy="97.588" r="2.5631" fx="113.67" fy="98" gradientTransform="matrix(-.50343 0 0 .4878 62.921 -2.1034)" gradientUnits="userSpaceOnUse" xlink:href="#radialGradient4241"/>
  <radialGradient id="radialGradient2536" cx="113.07" cy="97.588" r="2.5631" fx="113.67" fy="98" gradientTransform="matrix(.37411 -.079296 .042139 .31499 -33.912 -8.7733)" gradientUnits="userSpaceOnUse" xlink:href="#radialGradient4241"/>
  <radialGradient id="radialGradient2532" cx="113.07" cy="97.588" r="2.5631" fx="113.67" fy="98" gradientTransform="matrix(.37825 .070564 -.038964 .3065 11.536 -24.903)" gradientUnits="userSpaceOnUse" xlink:href="#radialGradient4241"/>
  <linearGradient id="linearGradient5060">
   <stop id="stop5062" offset="0"/>
   <stop id="stop5064" style="stop-opacity:0" offset="1"/>
  </linearGradient>
  <linearGradient id="linearGradient2529" x1="7.0625" x2="24.688" y1="35.281" y2="35.281" gradientTransform="matrix(1.3801 0 0 1.2584 .92871 8.1011)" gradientUnits="userSpaceOnUse" xlink:href="#linearGradient5060"/>
  <linearGradient id="linearGradient2526" x1="12.277" x2="12.222" y1="37.206" y2="33.759" gradientTransform="matrix(1.3504 0 0 1.2464 -.08268 10.211)" gradientUnits="userSpaceOnUse">
   <stop id="stop4238" style="stop-color:#eee" offset="0"/>
   <stop id="stop4240" style="stop-color:#eee;stop-opacity:0" offset="1"/>
  </linearGradient>
  <linearGradient id="linearGradient4035">
   <stop id="stop4037" style="stop-color:#f5f5f5" offset="0"/>
   <stop id="stop4039" style="stop-color:#e7e7e7" offset=".47026"/>
   <stop id="stop4041" style="stop-color:#8c8c8c" offset=".69349"/>
   <stop id="stop4043" style="stop-color:#ddd" offset=".83543"/>
   <stop id="stop4045" style="stop-color:#a8a8a8" offset="1"/>
  </linearGradient>
  <radialGradient id="radialGradient2523" cx="127.32" cy="143.83" r="78.728" gradientTransform="matrix(.25406 -.035794 .008258 .14391 -9.9162 3.6124)" gradientUnits="userSpaceOnUse" xlink:href="#linearGradient4035"/>
  <radialGradient id="radialGradient4241" cx="113.07" cy="97.588" r="2.5631" fx="113.67" fy="98" gradientUnits="userSpaceOnUse">
   <stop id="stop4243" style="stop-color:#eee" offset="0"/>
   <stop id="stop4245" style="stop-color:#cecece" offset=".16"/>
   <stop id="stop4247" style="stop-color:#888" offset=".4675"/>
   <stop id="stop4249" style="stop-color:#555" offset="1"/>
  </radialGradient>
  <radialGradient id="radialGradient2519" cx="113.07" cy="97.588" r="2.5631" fx="113.67" fy="98" gradientTransform="matrix(.50343 0 0 .4878 1.0794 -2.1034)" gradientUnits="userSpaceOnUse" xlink:href="#radialGradient4241"/>
  <radialGradient id="radialGradient2516" cx="24" cy="42" r="21" gradientTransform="matrix(1.3526 -1.4521e-8 3.762e-8 .48686 -.46328 31.949)" gradientUnits="userSpaceOnUse">
   <stop id="stop6312-6" style="stop-color:#fff" offset="0"/>
   <stop id="stop6314-6" style="stop-color:#fff;stop-opacity:0" offset="1"/>
  </radialGradient>
 </defs>
 <g id="layer1">
  <rect id="rect2723" x="7.4204" y="53.333" width="49.159" height="6.6667" style="fill:url(#linearGradient2566);opacity:.3"/>
  <path id="path2725" d="m56.556 53.334v6.6663c3.0794 0.012552 7.4444-1.4936 7.4444-3.3336s-3.4363-3.3327-7.4444-3.3327z" style="fill:url(#radialGradient2563);opacity:.3"/>
  <path id="path2727" d="m7.4444 53.334v6.6663c-3.0794 0.012552-7.4444-1.4936-7.4444-3.3336s3.4364-3.3327 7.4444-3.3327z" style="fill:url(#radialGradient2560);opacity:.3"/>
  <path id="rect6431" d="m1.464 48.464h61.072l-1.2211 8.072h-58.494l-1.3569-8.072v0z" style="enable-background:new;fill-rule:evenodd;fill:url(#linearGradient2557);stroke-linecap:round;stroke-linejoin:round;stroke-width:.928;stroke:#353537"/>
  <rect id="rect6381" x="1.5657" y="47.626" width="60.869" height="1.3632" style="enable-background:new;fill-rule:evenodd;fill:#d2d2d3"/>
  <path id="path6345" d="m62.502 48.502-9.211-35.189c-0.26046-1.0021-1.6248-1.8156-2.7718-1.8156h-37.356c-1.7621 0-2.7719 0.2711-3.1435 1.8156l-8.5216 35.154" style="fill:url(#radialGradient2551);stroke-linecap:round;stroke-linejoin:round;stroke-width:.99578;stroke:url(#linearGradient2553)"/>
  <path id="path7046" d="m61.5 48.516-59-0.031746" style="fill:none;opacity:.4;stroke-linecap:round;stroke:#fff"/>
  <path id="path9001" d="m54.961 32.764c-0.29451-2.7472-2.2682-5.3668-5.5476-7.4339-0.065968-0.79456-0.90654-10.959-0.90654-10.959-0.064426-0.78136-1.0441-1.3711-2.2797-1.3711h-7.7541c-1.2445 0-2.2065 0.59747-2.2379 1.3897-0.14229 3.5794-4.481 5.4483-10.953 7.1484-2.2677 0.39922-8.1799 2.2758-9.5368 3.0995-3.9945 2.1637-6.3767 5.0483-6.7068 8.1264-0.30027 2.7996 1.143 5.6011 4.0641 7.8886 4.2754 3.3482 11.339 5.3474 18.897 5.3474 7.5574 0 14.621-1.9992 18.897-5.3474 2.6679-2.0888 4.1028-4.6072 4.1028-7.1608 0-0.2425-0.013948-0.48536-0.038776-0.72784h7.7e-5zm-22.961 11.847c-12.587 0-22.225-5.6104-21.528-12.114 0.3008-2.8039 2.5088-5.797 6.1654-7.7695 0.68475-0.52454 6.869-2.5649 9.0875-2.9234 6.1487-1.6116 11.772-3.7032 11.948-8.1109 0.007712-0.21106 0.36199-0.37827 0.80088-0.37827h7.753c0.44882 0 0.82759 0.17536 0.84537 0.39185l0.94157 11.388c3.259 1.9193 5.2337 4.784 5.5141 7.4025 0.69782 6.5035-8.9405 12.114-21.528 12.114z" style="fill:url(#radialGradient2547)"/>
  <path id="path9003" d="m32 37c-4.4866 0-7.9261-1.6895-7.9986-3.9304-5.7e-4 -0.024233-0.001128-0.048051-0.001128-0.071869 0-0.8109 0.4508-1.5821 1.3074-2.2351 1.4491-1.1038 3.9509-1.7626 6.6928-1.7626 2.7413 0 5.2432 0.65884 6.6923 1.7626 0.88192 0.67136 1.3339 1.4693 1.3063 2.3065-0.073654 2.2409-3.5131 3.9308-7.9991 3.9308v4e-6 3e-6zm0-6.7462c-4.2157 0-6.3635 1.6744-6.3129 3.2031 0.048893 1.5048 2.8751 2.7072 6.3129 2.7072s6.2639-1.2028 6.3128-2.7072c0.049987-1.5291-2.0972-3.2031-6.3128-3.2031z" style="fill:url(#radialGradient2544)"/>
  <path id="path9007" d="m7.9967 45.493c-0.063433 0.83024-1.0134 1.5073-2.1209 1.5073-1.107 0-1.9452-0.67707-1.8712-1.5073 0.073501-0.82586 1.023-1.4927 2.1194-1.4927 1.097 3.91e-4 1.9352 0.66683 1.8728 1.4927z" style="fill:#e1e1e1"/>
  <path id="path9009" d="m7.2803 44.909c0.10119 0.10536 0.21698 0.27415 0.21698 0.49854 0 0.016111-0.0010087 0.032192-0.0020168 0.049277-0.0438 0.57219-0.78535 1.0556-1.619 1.0556-0.47473 0-0.90869-0.15854-1.1604-0.42488-0.10824-0.11366-0.23158-0.30195-0.20943-0.55268 0.050846-0.56732 0.79139-1.0468 1.618-1.0468 0.47121 3.9e-4 0.90365 0.15756 1.1559 0.42097h4.1e-6l-5e-7 -7e-6z" style="fill:url(#radialGradient2540)"/>
  <path id="path9019" d="m11.016 13.31c0.11886 0.52612 0.8833 0.8137 1.7064 0.63925 0.82267-0.17437 1.3871-0.74361 1.2604-1.2681-0.12597-0.5217-0.88915-0.80274-1.704-0.63004-0.81516 0.17304-1.3805 0.73541-1.2628 1.2589z" style="fill:#f0f0f0"/>
  <path id="path9021" d="m11.497 12.82c-0.066096 0.083981-0.13756 0.2112-0.11818 0.3561 0.001392 0.010354 0.003527 0.020709 0.00576 0.031488 0.081978 0.36258 0.67481 0.55794 1.2943 0.42662 0.35279-0.074768 0.66158-0.2455 0.82562-0.45713 0.070616-0.09045 0.146-0.23146 0.10789-0.38987-0.0868-0.35833-0.67854-0.55132-1.2928-0.42111-0.35014 0.074475-0.65792 0.24408-0.8226 0.4539l-2e-6 2e-6 -5e-6 9e-6z" style="fill:url(#radialGradient2536)"/>
  <path id="path9025" d="m49 12.701c-0.018648 0.53056 0.64101 1.0891 1.4732 1.2444 0.83176 0.15517 1.5156-0.15277 1.5263-0.6848 0.010671-0.52921-0.64937-1.0813-1.4732-1.235-0.82423-0.15351-1.5072 0.14774-1.5263 0.67539z" style="fill:#e1e1e1"/>
  <path id="path9027" d="m49.585 12.435c-0.084446 0.052011-0.18492 0.14184-0.20284 0.28283-0.001287 0.010053-0.001863 0.020312-0.002372 0.031247-0.012871 0.36566 0.50575 0.77335 1.1321 0.8902 0.35668 0.066538 0.6954 0.02776 0.90579-0.10431 0.090406-0.056237 0.19811-0.15726 0.2015-0.31791 0.007113-0.36359-0.51098-0.76868-1.1321-0.88454-0.35407-0.065798-0.69154-0.027655-0.90208 0.1025l-4e-6 -4e-6 -4.7e-5 -1.8e-5z" style="fill:url(#radialGradient2532)"/>
  <path id="rect8993" d="m10 49h25v7h-24.324l-0.67569-7z" style="fill-rule:evenodd;fill:url(#linearGradient2529)"/>
  <path id="path8995" d="m10.529 56-0.52892-5c2.4787 3.9627 11.733 5 18 5h-17.471z" style="fill-rule:evenodd;fill:url(#linearGradient2526);opacity:.81143"/>
  <path id="path9039" d="m14.542 13-0.1377 0.5443-2.0557 8.1013-0.34874 1.3544 1.0187-0.29114 17.326-5.0633 0.055026-0.0253 0.045894-0.0253c0.91751-0.50622 1.4078-1.5292 1.5234-2.4684 0.057867-0.46958 0.04052-0.92939-0.11005-1.3544-0.14219-0.40125-0.51237-0.75825-0.89936-0.74684v-0.025301h-0.064279-15.941-0.41297l4.4e-5 1e-6 -9e-6 -5.1e-5zm0.58645 0.50054h15.969c0.007467 0.068385 0.025412 0.10633 0.008933 0.23571-0.050093 0.40717-0.26559 1.8639-0.80699 2.1816l-16.795 4.9107 1.6235-7.328h5.21e-4l9.8e-5 -3e-6z" style="fill:url(#radialGradient2523)"/>
  <path id="path9091" d="m56.003 45.493c0.063435 0.83024 1.0134 1.5073 2.1209 1.5073 1.107 0 1.9452-0.67707 1.8712-1.5073-0.073509-0.82586-1.023-1.4927-2.1194-1.4927-1.097 3.91e-4 -1.9352 0.66683-1.8728 1.4927z" style="fill:#e1e1e1"/>
  <path id="path9093" d="m56.72 44.909c-0.10119 0.10536-0.21698 0.27415-0.21698 0.49854 0 0.016111 0.001008 0.032192 0.001986 0.049277 0.043805 0.57219 0.78535 1.0556 1.619 1.0556 0.47473 0 0.90869-0.15854 1.1604-0.42488 0.10824-0.11366 0.23158-0.30195 0.20943-0.55268-0.050848-0.56732-0.79139-1.0468-1.618-1.0468-0.47121 3.9e-4 -0.90365 0.15756-1.1559 0.42097h-3e-6l3.3e-5 -7e-6z" style="fill:url(#radialGradient2519)"/>
  <rect id="rect6300-3" x="3.5946" y="48.99" width="56.811" height="6.8161" style="fill:url(#radialGradient2516);opacity:.3"/>
 </g>
 <path id="path2638" d="m56.578 39.333c0 2.5773-10.745 4.6667-24 4.6667-13.255 0-24-2.0893-24-4.6667-3e-7 -2.5773 10.745-4.6667 24-4.6667 13.255 0 24 2.0893 24 4.6667z" style="fill:url(#radialGradient2505);opacity:.16292"/>
 <path id="path2317" d="m31.904 0.66786c-1.917 0-3.459 1.5383-3.4587 3.4368-3.29e-4 1.8986 1.5417 3.4368 3.4587 3.4368 1.917 0 3.4861-1.5383 3.4857-3.4368 3.27e-4 -1.8986-1.5687-3.4368-3.4857-3.4368zm-10.295 3.4368c-1.7277 0.1265-3.3845 0.55453-4.9178 1.1814l3.1074 5.2626c0.79312-0.24915 1.6175-0.38596 2.4859-0.4296 0.16999-0.008506 0.34128 0 0.5134 0 4.762 0 8.7359 3.3112 9.7276 7.7329h6.1878c-0.43911-3.2143-1.8646-6.1231-3.9451-8.431-0.85444 0.45459-1.827 0.69811-2.8642 0.69811-3.2566 0-5.93-2.5303-6.0798-5.7191-0.9801-0.18546-1.9924-0.29535-3.0264-0.29535-0.20767 0-0.41572-0.00776-0.62148 0-0.06698 0.002526-0.12238-0.003333-0.18915 0-0.062903 0.003144-0.1264-0.003867-0.18915 0-0.060779 0.003745-0.12853-0.004443-0.18915 0zm-8.6468 3.3294c-2.4917 1.9214-4.3921 4.5669-5.4042 7.5986 1.5987 1.0839 2.6481 2.905 2.6481 4.9673 0 2.0623-1.0494 3.8834-2.6481 4.9673 1.0118 3.0325 2.9116 5.6791 5.4042 7.5986l3.0804-5.2895c-1.9814-1.8061-3.2155-4.4019-3.2155-7.2764 0-2.8735 1.2366-5.4659 3.2155-7.2764l-3.0804-5.2895zm-8.8089 9.1291c-1.917 0-3.4861 1.5382-3.4857 3.4368-3.2857e-4 1.8986 1.5687 3.4368 3.4857 3.4368 1.917 0 3.459-1.5383 3.4587-3.4368 3.287e-4 -1.8986-1.5417-3.4368-3.4587-3.4368zm28.372 5.5848c-0.99166 4.4217-4.9656 7.7329-9.7276 7.7329-1.0542 0-2.0477-0.15765-2.9993-0.45645l-3.1074 5.2626c1.883 0.76987 3.9436 1.2083 6.1068 1.2083 1.034 2e-6 2.0463-0.10989 3.0264-0.29535 0.15098-3.055 2.6294-5.5261 5.7015-5.7191 0.12891-0.008076 0.24734 2e-6 0.3783 0 1.0372 0 2.0098 0.24352 2.8642 0.69811 2.0805-2.3079 3.506-5.2167 3.9451-8.431h-6.1878zm-0.62149 10.31c-1.917 0-3.459 1.5383-3.4587 3.4368-3.29e-4 1.8986 1.5417 3.4368 3.4587 3.4368 1.917 0 3.4861-1.5382 3.4857-3.4368 3.27e-4 -1.8986-1.5687-3.4368-3.4857-3.4368z" style="fill:url(#radialGradient3588);stroke-width:1.0018;stroke:url(#radialGradient3590)"/>
 <path id="path2272" d="m12.813 8.4602c-2.0908 1.7231-3.7072 3.9963-4.6286 6.5897 1.5077 1.1425 2.4984 2.9264 2.4984 4.9488 0 2.0224-0.99071 3.8063-2.4984 4.9488 0.921 2.5941 2.5375 4.868 4.6286 6.5897l2.5773-4.4278c-1.8598-1.8145-3.0244-4.3256-3.0244-7.1106 0-2.7851 1.1662-5.2928 3.0244-7.1106l-2.5773-4.4278zm-0.21039 1.2763 1.7357 3.0214c-1.663 1.8331-2.7187 4.2214-2.814 6.8501-0.10479-1.9115-0.99902-3.6296-2.3406-4.8446 0.76884-1.9134 1.9461-3.6271 3.4189-5.0269zm-1.0783 10.653c0.09506 2.6285 1.1484 5.0182 2.814 6.8501l-1.7357 3.0214c-1.4719-1.3991-2.6509-3.1131-3.4189-5.0269 1.3426-1.215 2.2356-2.9328 2.3406-4.8446z" style="fill:url(#radialGradient3585);opacity:.6"/>
 <path id="path2284" d="m3.8144 17.212c-1.4031 0.15675-2.4869 1.3501-2.4869 2.7864 0 1.5424 1.256 2.7864 2.8134 2.7864 1.5574 0 2.8134-1.2439 2.8134-2.7864-7e-7 -1.5424-1.256-2.7864-2.8134-2.7864-0.10322 0-0.18611-0.003025-0.22608 0-0.034026 0.002548-0.066806-0.003742-0.10048 0zm0.075359 0.7961c0.031946-0.003902 0.068098 0.002466 0.10048 0 0.025189-4.1e-4 0.079091 0 0.15072 0 1.1225 0 2.0096 0.87856 2.0096 1.9903 0 1.1117-0.8871 1.9903-2.0096 1.9903-1.1225 0-2.0096-0.87857-2.0096-1.9903 0-1.0283 0.76805-1.8683 1.7584-1.9903z" style="fill:url(#radialGradient3582);opacity:.6"/>
 <path id="path4951" d="m31.507 1.5433c-1.2896 0.14407-2.2857 1.2409-2.2857 2.5609 0 1.4176 1.1544 2.5609 2.5858 2.5609 1.4314 0 2.5858-1.1433 2.5858-2.5609 0-1.4176-1.1544-2.5609-2.5858-2.5609-0.094866 0-0.17105-0.002781-0.20779 0-0.031273 0.00234-0.061403-0.003439-0.092351 0zm0.069263 0.7317c0.029361-0.003584 0.062588 0.002268 0.092349 0 0.023151-3.75e-4 0.072692 0 0.13853 0 1.0317 0 1.847 0.80749 1.847 1.8292 0 1.0218-0.81533 1.8292-1.847 1.8292-1.0317 0-1.847-0.80749-1.847-1.8292 0-0.94507 0.70591-1.7171 1.6161-1.8292z" style="fill:url(#radialGradient3579);opacity:.6"/>
 <path id="path4955" d="m17.743 5.6644c2.4915-0.8942 5.2136-1.1202 7.8629-0.60732 0.22084 1.8242 1.2399 3.5338 2.9506 4.5339 1.7107 1.0001 3.7096 1.0547 5.4215 0.36045 1.7389 2.052 2.8629 4.5266 3.2852 7.1245l-5.0199-0.036963c-0.61523-2.4506-2.1634-4.665-4.5192-6.0422-2.3559-1.3772-5.0538-1.6433-7.5103-0.99016l-2.471-4.3422zm1.1836 0.45538 1.6974 2.9438c2.3729-0.48248 4.9152-0.18322 7.1859 1.0371-1.5651-1.0328-2.5762-2.6292-2.9405-4.3505-1.9987-0.30401-4.0305-0.16818-5.9428 0.3697zm9.5442 4.3672c2.1764 1.3792 3.6769 3.4407 4.4029 5.7377l3.414 0.044343c-0.45559-1.9212-1.3224-3.7535-2.5615-5.3413-1.6917 0.52052-3.5863 0.41689-5.2554-0.44072z" style="fill:url(#radialGradient3576);opacity:.6"/>
 <path id="path4972" d="m55.101 24.5-9.8436 11.498-9.7943-11.498h4.9825c1.6745-4.4586-1.764-7.1563-5.7507-7.1563-2.833 0-6.6767 1.5482-7.9751 5.3977-0.67531 2.0022-1.8648 1.1251-1.8188-0.61503 0.17792-6.7147 5.1878-12.085 12.667-12.085 7.479 0 13.035 5.629 12.615 14.458h4.9181z" style="fill:url(#linearGradient2759);stroke:#699536"/>
 <path id="path4980" d="m52.811 25.5-7.5542 8.8927-7.5947-8.8927h3.4797c2.5625-5.6715-1.1975-9.0481-6.275-9.1294-3.6569-0.28474-7.0764 2.4881-9.0718 4.897 1.0486-5.6476 5.5603-10.345 11.814-10.357 6.3187-0.011881 12.803 5.1076 11.406 14.589h3.7954z" style="fill:none;opacity:.354;stroke:url(#linearGradient2756)"/>
</svg>
