<?xml version="1.0" encoding="UTF-8"?>
<!-- Created with Inkscape (http://www.inkscape.org/) -->
<svg id="svg5526" width="24" height="24" version="1.0" xmlns="http://www.w3.org/2000/svg" xmlns:cc="http://creativecommons.org/ns#" xmlns:dc="http://purl.org/dc/elements/1.1/" xmlns:rdf="http://www.w3.org/1999/02/22-rdf-syntax-ns#" xmlns:xlink="http://www.w3.org/1999/xlink">
 <metadata id="metadata48">
  <rdf:RDF>
   <cc:Work rdf:about="">
    <dc:format>image/svg+xml</dc:format>
    <dc:type rdf:resource="http://purl.org/dc/dcmitype/StillImage"/>
   </cc:Work>
  </rdf:RDF>
 </metadata>
 <defs id="defs5528">
  <linearGradient id="linearGradient8867">
   <stop id="stop8869" style="stop-color:#eee" offset="0"/>
   <stop id="stop8871" style="stop-color:#d9d9da" offset="1"/>
  </linearGradient>
  <linearGradient id="linearGradient5060">
   <stop id="stop5062" offset="0"/>
   <stop id="stop5064" style="stop-opacity:0" offset="1"/>
  </linearGradient>
  <linearGradient id="linearGradient3010" x1="302.86" x2="302.86" y1="366.65" y2="609.51" gradientTransform="matrix(2.7744 0 0 1.9697 -1892.2 -872.89)" gradientUnits="userSpaceOnUse">
   <stop id="stop5050" style="stop-opacity:0" offset="0"/>
   <stop id="stop5056" offset=".5"/>
   <stop id="stop5052" style="stop-opacity:0" offset="1"/>
  </linearGradient>
  <radialGradient id="radialGradient3012" cx="605.71" cy="486.65" r="117.14" gradientTransform="matrix(2.7744 0 0 1.9697 -1891.6 -872.89)" gradientUnits="userSpaceOnUse" xlink:href="#linearGradient5060"/>
  <radialGradient id="radialGradient3014" cx="605.71" cy="486.65" r="117.14" gradientTransform="matrix(-2.7744 0 0 1.9697 112.76 -872.89)" gradientUnits="userSpaceOnUse" xlink:href="#linearGradient5060"/>
  <linearGradient id="linearGradient2859" x1="4.2847" x2="22.9" y1=".0003149" y2="17.016" gradientTransform="matrix(1.0137 0 0 .999 -1.2082 1.0002)" gradientUnits="userSpaceOnUse">
   <stop id="stop8999" style="stop-color:#cdcdcd" offset="0"/>
   <stop id="stop3642" style="stop-color:#cdcdcd;stop-opacity:.24706" offset="1"/>
  </linearGradient>
  <radialGradient id="radialGradient2863" cx="17.949" cy="25.435" r="13.428" gradientTransform="matrix(1.3584 -1.4275 2.3207 2.4634 -66.633 -25.282)" gradientUnits="userSpaceOnUse" xlink:href="#linearGradient8867"/>
  <linearGradient id="linearGradient2875" x1="23.638" x2="23.638" y1="38.423" y2="36.402" gradientTransform="matrix(.46233 0 0 .32361 1.3242 7.6916)" gradientUnits="userSpaceOnUse" xlink:href="#linearGradient8867"/>
  <linearGradient id="linearGradient2877" x1="12.026" x2="12.026" y1="20.38" y2="-.17325" gradientTransform="matrix(1.01 0 0 .89808 -.14632 2.1969)" gradientUnits="userSpaceOnUse">
   <stop id="stop3630" style="stop-color:#791235" offset="0"/>
   <stop id="stop3632" style="stop-color:#dd3b27" offset="1"/>
  </linearGradient>
  <radialGradient id="radialGradient2951-8" cx="39.651" cy="18.619" r="20.714" gradientTransform="matrix(.038605 1.7679 -2.3167 .0023325 39.258 -72.388)" gradientUnits="userSpaceOnUse">
   <stop id="stop3244-0" style="stop-color:#f8b17e" offset="0"/>
   <stop id="stop3246-9-4" style="stop-color:#e35d4f" offset=".3121"/>
   <stop id="stop3248-3-8" style="stop-color:#c6262e" offset=".57054"/>
   <stop id="stop3250-9-0" style="stop-color:#690b54" offset="1"/>
  </radialGradient>
  <linearGradient id="linearGradient2953-4" x1="24.009" x2="24.009" y1="38.246" y2="1" gradientTransform="matrix(.53871 0 0 .49661 -.77239 -.5201)" gradientUnits="userSpaceOnUse">
   <stop id="stop2492-9" style="stop-color:#791235" offset="0"/>
   <stop id="stop2494-6" style="stop-color:#dd3b27" offset="1"/>
  </linearGradient>
 </defs>
 <g id="g8875" transform="matrix(.010738 0 0 .0073241 21.55 21.6)">
  <rect id="rect8877" x="-1559.3" y="-150.7" width="1339.6" height="478.36" style="fill:url(#linearGradient3010);opacity:.40206"/>
  <path id="path8879" d="m-219.62-150.68v478.33c142.87 0.90045 345.4-107.17 345.4-239.2 0-132.03-159.44-239.13-345.4-239.13z" style="fill:url(#radialGradient3012);opacity:.40206"/>
  <path id="path8881" d="m-1559.3-150.68v478.33c-142.87 0.90045-345.4-107.17-345.4-239.2 0-132.03 159.44-239.13 345.4-239.13z" style="fill:url(#radialGradient3014);opacity:.40206"/>
 </g>
 <path id="rect8840" d="m1.8239 18.5 20.676 0.16178c-0.21592 1.2586-0.46366 2.787-0.65311 3.8382h-19.649c-0.17946 0-0.32394-0.14346-0.32394-0.32165l-0.37362-3.3567c0-0.17819 0.14448-0.32165 0.32394-0.32165z" style="fill:url(#linearGradient2875);stroke-dashoffset:.06;stroke-linecap:round;stroke-linejoin:round;stroke:url(#linearGradient2877)"/>
 <path id="path9017" d="m21.916 21.813c0.08621-0.90783 0.43596-2.7379 0.47901-3.5531" style="fill:none;stroke-linecap:round;stroke:#666"/>
 <path id="rect8064" d="m2.851 0.5c-0.18659 0-0.33184 0.20856-0.33184 0.47279l-1.0192 17.054c0 0.26422 0.15967 0.47279 0.34626 0.47279h20.307c0.18659 1e-6 0.34626-0.20856 0.34626-0.47279l-1.1397-17.054c0-0.26423-0.14525-0.47279-0.33184-0.47279h-18.177z" style="color:#000000;fill:url(#radialGradient2951-8);stroke-dashoffset:.06;stroke-linecap:round;stroke-linejoin:round;stroke-width:.99975;stroke:url(#linearGradient2953-4)"/>
 <path id="path3267" d="m2.9099 21.625-0.19396-2.1353" style="fill:none;opacity:.2;stroke-linecap:square;stroke:#020201"/>
 <text id="text3323" transform="scale(1.0259 .9748)" x="4.9724398" y="12.155731" style="fill:#141414;font-family:Serif;font-size:10.909px;opacity:.4" xml:space="preserve"><tspan id="tspan3325" x="4.9724398" y="12.155731" style="fill:#141414">Aa</tspan></text>
 <text id="text2537" transform="scale(1.0259 .9748)" x="4.9724398" y="13.181581" style="fill:url(#radialGradient2863);font-family:Serif;font-size:10.909px" xml:space="preserve"><tspan id="tspan2539" x="4.9724398" y="13.181581" style="fill:url(#radialGradient2863)">Aa</tspan></text>
 <path id="path2858" d="m3.8528 1.5c-0.18684 0-0.33227 0.20854-0.33227 0.47274l-1.0205 15.055c0 0.2642 0.15988 0.47274 0.34672 0.47274h18.307c0.18684 1e-6 0.34672-0.20854 0.34672-0.47274l-1.1412-15.055c0-0.2642-0.14544-0.47274-0.33227-0.47274h-16.174z" style="fill:none;opacity:.2;stroke-dashoffset:.06;stroke-linecap:round;stroke-linejoin:round;stroke:url(#linearGradient2859)"/>
</svg>
