<?xml version="1.0" encoding="UTF-8"?>
<!-- Created with Inkscape (http://www.inkscape.org/) -->
<svg id="svg2476" width="24" height="24" version="1.0" xmlns="http://www.w3.org/2000/svg" xmlns:xlink="http://www.w3.org/1999/xlink">
 <defs id="defs2478">
  <linearGradient id="linearGradient3858">
   <stop id="stop3860" style="stop-color:#a0a0a0" offset="0"/>
   <stop id="stop3862" style="stop-color:#4a4a4a" offset="1"/>
  </linearGradient>
  <linearGradient id="linearGradient2793">
   <stop id="stop2795" style="stop-color:#868688" offset="0"/>
   <stop id="stop2797" style="stop-color:#d9d9da" offset="1"/>
  </linearGradient>
  <linearGradient id="linearGradient2674" x1="102.31" x2="102.31" y1="-2.3925" y2="-24.582" gradientTransform="matrix(.33861 0 0 .34136 -23.197 10.615)" gradientUnits="userSpaceOnUse" spreadMethod="reflect">
   <stop id="stop3846" style="stop-color:#a5a6a8" offset="0"/>
   <stop id="stop3848" style="stop-color:#e8e8e8" offset="1"/>
  </linearGradient>
  <linearGradient id="linearGradient2676" x1="109.96" x2="109.96" y1="-24.911" y2="-2.3758" gradientTransform="matrix(.33861 0 0 .34136 -23.197 10.615)" gradientUnits="userSpaceOnUse">
   <stop id="stop2511" style="stop-color:#b3b3b3" offset="0"/>
   <stop id="stop2513" style="stop-color:#dadada" offset="1"/>
  </linearGradient>
  <linearGradient id="linearGradient2679" x1="103.95" x2="89.424" y1="-7.6657" y2="-7.6657" gradientTransform="matrix(.3384 0 0 .34583 -23.177 13.629)" gradientUnits="userSpaceOnUse" spreadMethod="reflect" xlink:href="#linearGradient2793"/>
  <linearGradient id="linearGradient2681" x1="89.018" x2="89.018" y1="22.537" y2="27.546" gradientTransform="matrix(.73913 0 0 .8 -57.595 -9.1369)" gradientUnits="userSpaceOnUse" xlink:href="#linearGradient3858"/>
  <linearGradient id="linearGradient2685" x1="103.95" x2="89.424" y1="-7.6657" y2="-7.6657" gradientTransform="matrix(.3384 0 0 .34583 -23.177 18.629)" gradientUnits="userSpaceOnUse" spreadMethod="reflect" xlink:href="#linearGradient2793"/>
  <linearGradient id="linearGradient2687" x1="89.018" x2="89.018" y1="22.537" y2="27.546" gradientTransform="matrix(.73913 0 0 .8 -57.595 -4.1369)" gradientUnits="userSpaceOnUse" xlink:href="#linearGradient3858"/>
  <linearGradient id="linearGradient2691" x1="103.95" x2="89.424" y1="-7.6657" y2="-7.6657" gradientTransform="matrix(.3384 0 0 .34583 -23.177 23.629)" gradientUnits="userSpaceOnUse" spreadMethod="reflect" xlink:href="#linearGradient2793"/>
  <linearGradient id="linearGradient2693" x1="89.018" x2="89.018" y1="22.537" y2="27.546" gradientTransform="matrix(.73913 0 0 .8 -57.595 .86311)" gradientUnits="userSpaceOnUse" xlink:href="#linearGradient3858"/>
  <radialGradient id="radialGradient2703" cx="23.335" cy="41.636" r="22.627" gradientTransform="matrix(.53033 0 0 .13256 -.375 15.481)" gradientUnits="userSpaceOnUse">
   <stop id="stop23421" offset="0"/>
   <stop id="stop23423" style="stop-opacity:0" offset="1"/>
  </radialGradient>
  <radialGradient id="radialGradient3270" cx="16.961" cy="5.8834" r="22.105" gradientTransform="matrix(0 2 -1.3459 0 28.919 -35.008)" gradientUnits="userSpaceOnUse">
   <stop id="stop3722-8" style="stop-color:#8badea" offset="0"/>
   <stop id="stop3728-0" style="stop-color:#6396cd" offset=".5"/>
   <stop id="stop3730-3" style="stop-color:#3b7caf" offset=".84091"/>
   <stop id="stop3724-7" style="stop-color:#194c70" offset="1"/>
  </radialGradient>
  <linearGradient id="linearGradient3272" x1="10.148" x2="10.55" y1="43.124" y2="-1.0863" gradientUnits="userSpaceOnUse">
   <stop id="stop3765-0" style="stop-color:#1f4b6a" offset="0"/>
   <stop id="stop3767-3" style="stop-color:#4083c2" offset="1"/>
  </linearGradient>
 </defs>
 <path id="path23417" d="m24 21c1e-3 1.6568-5.3719 3-12 3-6.6281 0-12.001-1.3432-12-3-0.0010154-1.6568 5.3719-3 12-3 6.6281 0 12.001 1.3432 12 3z" style="fill-rule:evenodd;fill:url(#radialGradient2703);opacity:.5"/>
 <path id="path4834" d="m20.493 18.954c0 1.9573-3.8056 3.5458-8.4946 3.5458-4.689 0-8.4946-1.5885-8.4946-3.5458 0.084603-4.3755-1.0383-3.472 8.4946-3.5458 9.7512-0.07616 8.375-0.90136 8.4946 3.5458z" style="fill:url(#linearGradient2691);stroke:url(#linearGradient2693)"/>
 <path id="path4838" d="m20.5 15.9c0 1.9882-3.8056 3.6-8.5 3.6-4.6944 0-8.5-1.6118-8.5-3.6 0-1.9882 3.8056-3.6 8.5-3.6 4.6944 0 8.5 1.6118 8.5 3.6z" style="fill:#868688;stroke:#d8d4e0"/>
 <path id="path3866" d="m20.493 13.954c0 1.9573-3.8056 3.5458-8.4946 3.5458-4.689 0-8.4946-1.5885-8.4946-3.5458 0.084603-4.3755-1.0383-3.472 8.4946-3.5458 9.7512-0.07616 8.375-0.90136 8.4946 3.5458z" style="fill:url(#linearGradient2685);stroke:url(#linearGradient2687)"/>
 <path id="path3868" d="m20.5 10.9c0 1.9882-3.8056 3.6-8.5 3.6-4.6944 0-8.5-1.6118-8.5-3.6 0-1.9882 3.8056-3.6 8.5-3.6 4.6944 0 8.5 1.6118 8.5 3.6z" style="fill:#868688;stroke:#d8d4e0"/>
 <path id="path3878" d="m20.493 8.9542c0 1.9573-3.8056 3.5458-8.4946 3.5458-4.689 0-8.4946-1.5885-8.4946-3.5458 0.084603-4.3755-1.0383-3.472 8.4946-3.5458 9.7512-0.07616 8.375-0.90136 8.4946 3.5458z" style="fill:url(#linearGradient2679);stroke:url(#linearGradient2681)"/>
 <path id="path3880" d="m20.5 6c0 1.933-3.8056 3.5-8.5 3.5-4.6944 0-8.5-1.567-8.5-3.5 0-1.933 3.8056-3.5 8.5-3.5 4.6944 0 8.5 1.567 8.5 3.5z" style="fill:url(#linearGradient2674);stroke:url(#linearGradient2676)"/>
 <circle id="circle51" transform="matrix(.2381 0 0 .2381 .5 .49548)" cx="21" cy="21.019" r="21" style="fill:url(#radialGradient3270);stroke-width:4.2;stroke:url(#linearGradient3272)"/>
 <path id="path4552" d="m0.76567 6.0706c-0.04654 0.0058 3.4823-0.59156 4.7831 3.3404 0.81138-3.6487 4.7188-3.6825 4.6862-3.6808 0.09308 0-3.218-0.92324-4.7087 1.4271-1.513-2.075-4.8678-1.0866-4.7605-1.0866z" style="fill:#173561"/>
 <path id="path53" d="m0.71732 5.636c-0.04654 0.0058 3.4823-0.59156 4.7831 3.3404 0.81138-3.6487 4.7188-3.6825 4.6862-3.6808 0.09308 0-3.218-1.1565-4.7087 1.1938-1.513-2.075-4.8678-0.85336-4.7605-0.85336z" style="fill:#fff"/>
 <path id="path4554" d="m3.572 3.0367s2.1007-0.45439 2.9244 1.8303c0.51607-2.1306 2.8651-1.9491 2.8651-1.9491s-1.9107-0.74511-2.879 0.65589c-0.99001-1.2466-2.9112-0.53709-2.9104-0.53709z" style="fill:#173561"/>
 <path id="path55" d="m3.572 2.5104s2.1007-0.45439 2.9244 1.8303c0.51607-2.1306 2.8651-1.9491 2.8651-1.9491s-1.9107-0.74511-2.879 0.65589c-0.99001-1.2466-2.9112-0.53709-2.9104-0.53709z" style="fill:#fff"/>
</svg>
