<?xml version="1.0" encoding="UTF-8"?>
<!-- Created with Inkscape (http://www.inkscape.org/) -->
<svg id="svg11300" width="24" height="24" version="1.0" xmlns="http://www.w3.org/2000/svg" xmlns:xlink="http://www.w3.org/1999/xlink">
 <defs id="defs3">
  <linearGradient id="linearGradient4565" x1="17.289" x2="15.18" y1="2.1849" y2="5.8215" gradientTransform="matrix(.68443 0 0 .68201 -.21315 .15692)" gradientUnits="userSpaceOnUse">
   <stop id="stop4561" style="stop-color:silver" offset="0"/>
   <stop id="stop4563" style="stop-color:#949492" offset="1"/>
  </linearGradient>
  <linearGradient id="linearGradient4543" x1="32.892" x2="36.358" y1="8.059" y2="5.4565" gradientTransform="matrix(.37071 0 0 .35485 -.85666 -.048951)" gradientUnits="userSpaceOnUse" xlink:href="#linearGradient8589-9"/>
  <radialGradient id="radialGradient5591" cx="24" cy="41.875" r="19.125" gradientTransform="matrix(.62745 0 0 .16993 -3.0588 13.634)" gradientUnits="userSpaceOnUse">
   <stop id="stop7614-5" offset="0"/>
   <stop id="stop7616-4" style="stop-opacity:0" offset="1"/>
  </radialGradient>
  <linearGradient id="linearGradient5583" x1="20.562" x2="20.279" y1="37" y2="20" gradientTransform="matrix(.48837 0 0 .5 .27903 1.2499)" gradientUnits="userSpaceOnUse">
   <stop id="stop6868-2" style="stop-color:#828282" offset="0"/>
   <stop id="stop6870-4" style="stop-color:#aaa" offset="1"/>
  </linearGradient>
  <linearGradient id="linearGradient5581" x1="11.519" x2="11.506" y1="20" y2="37" gradientTransform="matrix(.48837 0 0 .5 .27903 1.2499)" gradientUnits="userSpaceOnUse" xlink:href="#linearGradient8589-9"/>
  <radialGradient id="radialGradient5577" cx="3.7591" cy="11.918" r="21" gradientTransform="matrix(.46334 .0080418 -.0058515 .28835 .94804 9.495)" gradientUnits="userSpaceOnUse">
   <stop id="stop6844-9" style="stop-color:#fff" offset="0"/>
   <stop id="stop6846-3" style="stop-color:#fff;stop-opacity:0" offset="1"/>
  </radialGradient>
  <linearGradient id="linearGradient5564" x1="15.601" x2="15.335" y1="33" y2="21" gradientTransform="matrix(.48359 0 0 .45973 .39379 1.5874)" gradientUnits="userSpaceOnUse">
   <stop id="stop2368-8" style="stop-color:#2e3436" offset="0"/>
   <stop id="stop2370-9" style="stop-color:#555753" offset="1"/>
  </linearGradient>
  <linearGradient id="linearGradient5562" x1="21.919" x2="22.008" y1="21" y2="33" gradientTransform="matrix(.48359 0 0 .45973 .39379 1.5874)" gradientUnits="userSpaceOnUse">
   <stop id="stop6830-2" style="stop-color:#6e6e6e" offset="0"/>
   <stop id="stop6832-8" style="stop-color:#1e1e1e" offset="1"/>
  </linearGradient>
  <radialGradient id="radialGradient5554" cx="11.537" cy="15.28" r="13" gradientTransform="matrix(.3449 -.0026213 .00146 .19209 2.5148 9.5924)" gradientUnits="userSpaceOnUse">
   <stop id="stop2465-0" style="stop-color:#fff" offset="0"/>
   <stop id="stop2467-1" style="stop-color:#fff;stop-opacity:0" offset="1"/>
  </radialGradient>
  <linearGradient id="linearGradient8589-9">
   <stop id="stop8591-2" style="stop-color:#fefefe" offset="0"/>
   <stop id="stop8593-5" style="stop-color:#bebebe" offset="1"/>
  </linearGradient>
  <radialGradient id="radialGradient3601" cx="16.961" cy="5.8834" r="22.105" gradientTransform="matrix(0 2 -1.3459 0 28.919 -35.008)" gradientUnits="userSpaceOnUse">
   <stop id="stop3722-0" style="stop-color:#8badea" offset="0"/>
   <stop id="stop3728-8" style="stop-color:#6396cd" offset=".5"/>
   <stop id="stop3730-1" style="stop-color:#3b7caf" offset=".84091"/>
   <stop id="stop3724-0" style="stop-color:#194c70" offset="1"/>
  </radialGradient>
  <linearGradient id="linearGradient3603" x1="10.148" x2="10.55" y1="43.124" y2="-1.0863" gradientUnits="userSpaceOnUse">
   <stop id="stop3765-2" style="stop-color:#1f4b6a" offset="0"/>
   <stop id="stop3767-9" style="stop-color:#4083c2" offset="1"/>
  </linearGradient>
 </defs>
 <g id="g5529">
  <path id="path3087" d="m24 20.75c0 1.7949-5.3726 3.25-12 3.25-6.6274 0-12-1.4551-12-3.25 0-1.7949 5.3726-3.25 12-3.25 6.6274 0 12 1.4551 12 3.25z" style="fill:url(#radialGradient5591);opacity:.7"/>
  <rect id="rect2315" x="4.5" y="5.5" width="15" height="11" rx=".29157" ry=".36185" style="fill:#505050;stroke-linecap:round;stroke-linejoin:round;stroke-width:1.0001;stroke:#3c3d3a"/>
  <g id="layer1" transform="translate(4 1)">
   <path id="rect2594" d="m1.4976 0.49763h7.9177c0.52277 0.16184 4.3537 2.6136 5.0871 3.8903v11.114h-13.005v-15.005z" style="fill:#f4f4f4;stroke-linejoin:round;stroke-width:.99525;stroke:#b5b6b2"/>
   <path id="path12038" d="m9.5 0.49792v4.0021h5.0021c0-1.9018-3.0057-4.0021-5.0021-4.0021z" style="fill-rule:evenodd;fill:url(#linearGradient4543);stroke-linejoin:round;stroke-width:.99525;stroke:url(#linearGradient4565)"/>
  </g>
  <path id="rect6333" d="m2.5074 19.5c0.037084 0.51806-0.096022 1.0755 0.11744 1.5555 0.40044 0.60919 1.2842 0.40888 1.8752 0.44374 0.010664 0.35961 0.043357 0.91477 0.5 0.99127 4.8239 0.01951 9.1756 0.0028 14 0.0084 0.49786 0.01588 0.5161-0.58079 0.5-0.95942 0.1626-0.09327 0.62471-0.01381 0.84925-0.0402 0.5556 0.08151 1.2349-0.32979 1.1424-1.0137v-0.98556h-18.984z" style="fill:#505050;stroke-linecap:square;stroke-width:.99971;stroke:#3c3d3a"/>
  <path id="rect2313" d="m2.5153 11.5h18.969c0.56248 0 1.0153 0.46361 1.0153 1.0395v6.9606h-21v-6.9606c0-0.57588 0.45283-1.0395 1.0153-1.0395z" style="fill:url(#linearGradient5581);stroke-linecap:round;stroke-linejoin:round;stroke-width:.99993;stroke:url(#linearGradient5583)"/>
  <path id="rect2374" d="m2.9634 12.5h18.073c0.24043 0 0.46342 0.20622 0.46342 0.42858v5.5715h-19v-5.5715c0-0.22236 0.22299-0.42858 0.46342-0.42858z" style="fill:none;opacity:.9;stroke-linecap:round;stroke-width:.99991;stroke:url(#radialGradient5577)"/>
  <rect id="rect2319" x="5.4715" y="11.472" width="13.057" height="5.057" style="fill:url(#linearGradient5562);stroke-linecap:round;stroke-width:.94302;stroke:url(#linearGradient5564)"/>
  <rect id="rect2459" x="6.4999" y="12.5" width="11" height="3.0002" style="fill:none;opacity:.3;stroke-linecap:round;stroke-width:.99982;stroke:url(#radialGradient5554)"/>
  <path id="path2764" d="m21 17.5c2.42e-4 0.27607-0.22369 0.5-0.5 0.5-0.27631 0-0.50024-0.22393-0.5-0.5-2.42e-4 -0.27607 0.22369-0.5 0.5-0.5 0.27631 0 0.50024 0.22393 0.5 0.5z" style="fill:#6efb27"/>
  <path id="rect6331" d="m19 20v1.75c0 0.1385-0.097563 0.25-0.21875 0.25h-13.562c-0.12119 0-0.21875-0.1115-0.21875-0.25v-1.75h14z" style="fill:#e6e6e6"/>
  <rect id="rect6329" x="6" y="20" width="12" height="1" style="fill:#323232"/>
 </g>
 <circle id="circle51" transform="matrix(.2381 0 0 .2381 .5 .49548)" cx="21" cy="21.019" r="21" style="fill:url(#radialGradient3601);stroke-width:4.2;stroke:url(#linearGradient3603)"/>
 <path id="path4552" d="m0.76567 6.0706c-0.04654 0.0058 3.4823-0.59156 4.7831 3.3404 0.81138-3.6487 4.7188-3.6825 4.6862-3.6808 0.09308 0-3.218-0.92324-4.7087 1.4271-1.513-2.075-4.8678-1.0866-4.7605-1.0866z" style="fill:#173561"/>
 <path id="path53" d="m0.71732 5.636c-0.04654 0.0058 3.4823-0.59156 4.7831 3.3404 0.81138-3.6487 4.7188-3.6825 4.6862-3.6808 0.09308 0-3.218-1.1565-4.7087 1.1938-1.513-2.075-4.8678-0.85336-4.7605-0.85336z" style="fill:#fff"/>
 <path id="path4554" d="m3.572 3.0367s2.1007-0.45439 2.9244 1.8303c0.51607-2.1306 2.8651-1.9491 2.8651-1.9491s-1.9107-0.74511-2.879 0.65589c-0.99001-1.2466-2.9112-0.53709-2.9104-0.53709z" style="fill:#173561"/>
 <path id="path55" d="m3.572 2.5104s2.1007-0.45439 2.9244 1.8303c0.51607-2.1306 2.8651-1.9491 2.8651-1.9491s-1.9107-0.74511-2.879 0.65589c-0.99001-1.2466-2.9112-0.53709-2.9104-0.53709z" style="fill:#fff"/>
</svg>
