<?xml version="1.0" encoding="UTF-8"?>
<!-- Created with Inkscape (http://www.inkscape.org/) -->
<svg id="svg2" width="24" height="24" version="1.0" xmlns="http://www.w3.org/2000/svg" xmlns:xlink="http://www.w3.org/1999/xlink">
 <defs id="defs4">
  <radialGradient id="radialGradient3868" cx="62.625" cy="4.625" r="10.625" gradientTransform="matrix(1 0 0 .34118 0 3.0471)" gradientUnits="userSpaceOnUse">
   <stop id="stop8840" offset="0"/>
   <stop id="stop8842" style="stop-opacity:0" offset="1"/>
  </radialGradient>
  <radialGradient id="radialGradient6407" cx="12.466" cy="5.3052" r="10.5" gradientTransform="matrix(1.2145 0 0 1 -2.6744 -1.5333e-6)" gradientUnits="userSpaceOnUse">
   <stop id="stop8649" style="stop-color:#8fb1dc" offset="0"/>
   <stop id="stop8651" style="stop-color:#3465a4" offset="1"/>
  </radialGradient>
  <linearGradient id="linearGradient5158" x1="63.397" x2="63.397" y1="-12.742" y2="-.6297" gradientTransform="matrix(1.0299 0 0 1.0299 -51.596 15.116)" gradientUnits="userSpaceOnUse">
   <stop id="stop4875" style="stop-color:#fff" offset="0"/>
   <stop id="stop4877" style="stop-color:#fff;stop-opacity:0" offset="1"/>
  </linearGradient>
  <radialGradient id="radialGradient2414" cx="17.814" cy="24.149" r="9.125" gradientTransform="matrix(-1.4145 0 1.571e-8 1.3559 39.434 -22.854)" gradientUnits="userSpaceOnUse">
   <stop id="stop4847" style="stop-color:#fff" offset="0"/>
   <stop id="stop4849" style="stop-color:#b6b6b6" offset="1"/>
  </radialGradient>
  <radialGradient id="radialGradient5163" cx="24.653" cy="18.944" r="8.6174" fx="24.652" gradientTransform="matrix(.03689 1.3299 -.94885 .026323 29.159 -26.64)" gradientUnits="userSpaceOnUse">
   <stop id="stop14112" style="stop-color:#557695" offset="0"/>
   <stop id="stop14114" style="stop-color:#15395c" offset="1"/>
  </radialGradient>
 </defs>
 <g id="layer1">
  <path id="path2774" transform="matrix(1.0824 0 0 1.2907 -55.817 13.352)" d="m73.25 4.625a10.625 3.625 0 1 1-21.25 0 10.625 3.625 0 1 1 21.25 0z" style="fill-rule:evenodd;fill:url(#radialGradient3868);opacity:.56044"/>
  <path id="path2555" d="m12.458 1.5c-5.5191 0-9.9922 4.4731-9.9922 9.9922 0 5.5191 4.4731 10.008 9.9922 10.008 5.5191 0 10.008-4.4888 10.008-10.008 0-5.5191-4.4888-9.9922-10.008-9.9922z" style="fill:url(#radialGradient6407);stroke-linecap:round;stroke-linejoin:round;stroke-width:.99995;stroke:#204a87"/>
  <path id="path6566" d="m9.0535 13.69c-0.22663-0.57866-1.0573-0.92981-1.2516-1.3429-0.66979 1.4e-4 -1.2206-0.67353-1.65 0.067-0.82857 0.33962-0.78942-0.85322-1.2289-0.93842 0.029283-0.49754 0.0046339-1.0213-0.49179-0.38978-1.0078 0.12757-0.51853-1.5966 0.35153-1.5024 0.53781-0.35536 1.2408 0.7808 1.1219-0.081299 0.49673-0.77517 1.0756-1.5175 1.8756-1.9921 0.4036-0.047738 1.1534-0.6478 0.294-0.61072-0.89949-0.17666 1.0982-0.12279 1.1354-0.6513-0.16238-0.47482-0.40505-0.87115-0.90234-0.92361-0.36106-0.92334-0.78813 0.44239-1.1155 0.74148-0.30524 0.66309-0.5961-0.44502-1.0382-0.42061-0.19608-0.73417 1.9728-1.0249 0.86136-1.7064-0.69588 0.49209-1.4057 0.99538-1.9174 1.7227-1.165 1.4822-1.9506 3.2795-2.1499 5.1602 0.43387 1.0881 1.8949 1.0688 2.6089 1.8809 1.0964 0.34388-0.55444 1.5213 0.03335 2.3338 0.31933 0.90777 1.5512 1.3854 1.4257 2.4603 0.15948 0.7432-0.31848 2.0746 0.8533 2.1742 0.63269-0.0983 0.89205-0.97658 1.3461-1.3048-0.019237-0.7502 0.52889-1.1601 0.99558-1.5056 0.076-0.74435 0.29829-1.4952 0.48748-2.147-0.27759-0.65681-1.1724-0.5828-1.6449-1.0237m4.5719-11.191c-1.0697-0.67251-2.3649-0.23549-3.475 0.065324-1.0612 0.54764 1.006 0.69958 0.2827 1.4785-0.43808 0.6543 0.60808 1.4834 0.9043 0.53908 0.4165-0.76128 1.5517-0.32371 1.9383-1.1726 0.1485-0.28907 0.21055-0.61423 0.34977-0.9104m8.2048 7.538c-0.42053 0.5417-1.4735-0.79659-1.5848-0.2529 0.06333 0.3651 0.59773 0.93049 0.85669 0.39083 0.65716 0.87425-0.82484 1.6783-1.2619 1.9175-0.29852-0.66601-0.4622-1.3932-0.87973-1.9982-0.36291-0.65491-0.70415-0.06728-0.20194 0.3022 0.31039 0.84504 0.53744 1.9414 1.6609 1.8327 0.34213 1.0768-1.2636 1.7075-1.0301 2.8083 0.27898 0.82428-0.11257 1.493-0.78004 1.8992 0.26142 0.63957-0.36715 1.7017-1.099 1.9096-0.4532 0.28555-1.0205 0.25001-0.94861-0.47189-0.31058-1.0412-0.54722-2.0699-0.37045-3.1745-0.17761-0.65827-0.32264-1.4663-0.53084-1.9563-0.79399-0.69432-1.7884 0.67564-2.2817-0.34049-0.7147-0.61326-0.86359-1.4896-0.5133-2.3298 0.24393-0.97109 1.0411-1.9032 2.0629-2.0738 0.90089-0.39887 1.4187 1.0408 2.2236 0.51194 0.41927 0.38423 1.9218-0.026037 1.1677-0.46992-0.61532-0.094629-1.0166-1.0215-1.301-0.24795-0.23016-0.07731-0.59199-1.2567-0.66445-0.69369 0.52069 0.30333-0.39557 0.90545-0.14442 0.20909-0.69471-0.94791-1.5123 0.13889-1.9468 0.6599-0.93675-0.072591-0.60611-1.3431 0.21295-1.2144-0.63925-0.7151 0.40185-0.57322 0.64014-1.1653 0.36863-0.56351 0.61426-0.37528 1.1231-0.11523 0.41392-0.32957 1.1252-0.96125 0.52822-1.1925 0.31631-0.99185-0.65813 0.099168-0.53481 0.57173-0.24749 0.50815-0.63136-0.26679-1.003 0.00201-0.30032-0.72894 0.63639-1.1416 1.0847-1.5387 0.512-0.14572 1.6779-0.043438 1.802 0.32333-0.80285 0.00494-0.25026 0.8275 0.18362 0.31671 0.61603-0.42688 1.2474 0.93817 1.7301 1.3736 0.94575 1.2178 1.569 2.6833 1.8003 4.2071z" style="fill:url(#radialGradient5163)"/>
  <path id="path8655" d="m21.473 11.5c0 4.9748-4.033 9.0077-9.0071 9.0077-4.9746 0-9.0073-4.033-9.0073-9.0077 0-4.9746 4.0327-9.0071 9.0073-9.0071 4.9741 0 9.0071 4.0325 9.0071 9.0071z" style="fill:none;opacity:.4;stroke:url(#linearGradient5158)"/>
  <path id="path3970" d="m13.634 8.6693 9.095 8.8273-4.1462 0.13375s1.7387 3.6112 1.7387 3.6112c0.535 1.605-1.8725 2.2068-2.2737 1.0031l-1.605-3.6112-2.9425 3.1431 0.13375-13.107z" style="fill-rule:evenodd;fill:url(#radialGradient2414);stroke-linejoin:round;stroke:#666"/>
  <path id="path4853" d="m14.64 11.059 5.731 5.5253-3.3036 0.09366s2.1174 4.5352 2.1174 4.5352c0.34733 0.61278-0.08254 0.97744-0.29127 0.42224 0 0-2.2067-4.6887-2.2067-4.6887l-2.1292 2.247 0.08242-8.1347z" style="fill:none;opacity:.4;stroke:#fff"/>
 </g>
</svg>
