<?xml version="1.0" encoding="UTF-8"?>
<!-- Created with Inkscape (http://www.inkscape.org/) -->
<svg id="svg3342" width="16" height="16" version="1.0" xmlns="http://www.w3.org/2000/svg" xmlns:xlink="http://www.w3.org/1999/xlink">
 <defs id="defs3344">
  <linearGradient id="linearGradient4530" x1="29.278" x2="36.001" y1="34.023" y2="27.273" gradientTransform="matrix(.35605 0 0 .35511 -.7004 -.30212)" gradientUnits="userSpaceOnUse">
   <stop id="stop2492" style="stop-color:#791235" offset="0"/>
   <stop id="stop2494" style="stop-color:#dd3b27" offset="1"/>
  </linearGradient>
  <linearGradient id="linearGradient4528" x1="97.442" x2="90.221" y1="35.152" y2="35.079" gradientTransform="matrix(.29294 -.29197 .25622 .25537 -26.373 28.656)" gradientUnits="userSpaceOnUse">
   <stop id="stop4958" style="stop-color:#f8b17e" offset="0"/>
   <stop id="stop4960" style="stop-color:#e35d4f" offset=".26238"/>
   <stop id="stop4962" style="stop-color:#c6262e" offset=".66347"/>
   <stop id="stop4964" style="stop-color:#690b54" offset="1"/>
  </linearGradient>
  <radialGradient id="radialGradient2904" cx="307.66" cy="223.93" r="2.2701" gradientTransform="matrix(1.9522 -1.9522 1.4893 1.4893 -626.27 490.96)" gradientUnits="userSpaceOnUse">
   <stop id="stop3971" style="stop-color:#fff" offset="0"/>
   <stop id="stop3973" style="stop-color:#fff;stop-opacity:0" offset="1"/>
  </radialGradient>
  <linearGradient id="linearGradient4523" x1="312.96" x2="311" y1="234.93" y2="220.6" gradientUnits="userSpaceOnUse">
   <stop id="stop3960" style="stop-color:#555753" offset="0"/>
   <stop id="stop3962" style="stop-color:#888a85" offset="1"/>
  </linearGradient>
  <linearGradient id="linearGradient4521" x1="314.09" x2="315.01" y1="230.78" y2="229.86" gradientUnits="userSpaceOnUse">
   <stop id="stop3952" style="stop-color:#eeeeec" offset="0"/>
   <stop id="stop3954" style="stop-color:#fff" offset="1"/>
  </linearGradient>
  <linearGradient id="linearGradient2414" x1="33.579" x2="33.579" y1="5.7086" y2="16.323" gradientTransform="matrix(.27161 0 0 .2199 -.75245 .077626)" gradientUnits="userSpaceOnUse">
   <stop id="stop2538" style="stop-color:#fdfdf8" offset="0"/>
   <stop id="stop2555" style="stop-color:#d6d3b4" offset="1"/>
  </linearGradient>
  <linearGradient id="linearGradient2416" x1="16.916" x2="16.916" y1="7.0006" y2="14" gradientTransform="matrix(.33333 0 0 .33337 .00071074 -1.0005)" gradientUnits="userSpaceOnUse">
   <stop id="stop2531" style="stop-color:#aeae94" offset="0"/>
   <stop id="stop2533" style="stop-color:#626337" offset="1"/>
  </linearGradient>
  <linearGradient id="linearGradient2419" x1="24.683" x2="24.683" y1="9.2417" y2="13.523" gradientTransform="matrix(.30428 0 0 .234 .69933 2.8374)" gradientUnits="userSpaceOnUse">
   <stop id="stop3284" offset="0"/>
   <stop id="stop3286" style="stop-opacity:0" offset="1"/>
  </linearGradient>
  <linearGradient id="linearGradient2422" x1="24.676" x2="24.676" y1="1.6926" y2="44.296" gradientTransform="matrix(.28859 0 0 .28174 1.0735 1.5216)" gradientUnits="userSpaceOnUse">
   <stop id="stop2240" style="stop-color:#fff" offset="0"/>
   <stop id="stop2242" style="stop-color:#fff;stop-opacity:0" offset="1"/>
  </linearGradient>
  <radialGradient id="radialGradient2425" cx="26.617" cy="-2.0645" r="23" gradientTransform="matrix(0 -.37438 .46553 0 11.988 19.393)" gradientUnits="userSpaceOnUse">
   <stop id="stop2749" style="stop-color:#d78ec1" offset="0"/>
   <stop id="stop2751" style="stop-color:#c564be" offset=".26238"/>
   <stop id="stop2753" style="stop-color:#9d3ea4" offset=".66094"/>
   <stop id="stop2755" style="stop-color:#5e2c73" offset="1"/>
  </radialGradient>
  <linearGradient id="linearGradient2427" x1="10.014" x2="10.014" y1="44.96" y2="-11.867" gradientTransform="matrix(.31912 0 0 .3174 .34112 .33334)" gradientUnits="userSpaceOnUse">
   <stop id="stop2759" style="stop-color:#650d5c" offset="0"/>
   <stop id="stop2761" style="stop-color:#ad53a5" offset="1"/>
  </linearGradient>
 </defs>
 <rect id="rect1316" x=".50107" y="1.5011" width="14.998" height="12.998" rx="1.5284" ry="1.5618" style="fill-rule:evenodd;fill:url(#radialGradient2425);stroke-linecap:round;stroke-linejoin:round;stroke-width:1.0021;stroke:url(#linearGradient2427)"/>
 <rect id="rect2232" x="1.5011" y="2.5011" width="12.998" height="10.998" rx=".53652" ry=".53652" style="fill:none;opacity:.4;stroke-linecap:round;stroke-linejoin:round;stroke-width:1.0021;stroke:url(#linearGradient2422)"/>
 <rect id="rect1436" x="1" y="5" width="14" height="1" rx="0" ry="0" style="fill-rule:evenodd;fill:url(#linearGradient2419);opacity:.2"/>
 <path id="rect2311" d="m1.5007 1.5s13.112 0.0028628 13.112 0.0028628c0.52164 0 0.88792 0.42044 0.88792 0.88569v2.1114h-15v-2.1114c0-0.49589 0.40293-0.88855 1-0.88855z" style="fill-rule:evenodd;fill:url(#linearGradient2414);stroke:url(#linearGradient2416)"/>
 <rect id="rect3821" x="2" y="8" width="6" height="5" rx="1" ry="1" style="fill:#fff;opacity:.9"/>
 <g id="g7817" transform="translate(-302.96 -218.93)" style="enable-background:new">
  <path id="path3935" d="m306.75 219.5c-0.37511 0.0471-0.77839 0.25308-1.1875 0.65625l1.7188 1.6875c0.3584 0.36046 0.34912 0.93023 0 1.2812l-0.125 0.125c-0.34912 0.35106-0.92283 0.36044-1.2812 0l-1.6875-1.6875c-1.1566 1.1398-0.64599 2.0684 0.125 2.8438l0.46875 0.46875c0.73274 0.7369 1.867 0.81164 2.6875 0.21875l5.4375 5.4375 1.625-1.625-5.4375-5.4375c0.59284-0.82529 0.54644-1.9806-0.1875-2.7188l-0.46875-0.5c-0.48639-0.48917-1.0623-0.82854-1.6875-0.75v5e-5z" style="enable-background:new;fill-rule:evenodd;fill:url(#linearGradient4521);stroke-dashoffset:.3612;stroke-linecap:round;stroke-linejoin:round;stroke-width:.9;stroke:url(#linearGradient4523)"/>
  <path id="path3967" d="m305.22 224c1.7483 1.5234 4.4891-1.0013 2.724-2.9244" style="enable-background:new;fill:none;stroke-width:1px;stroke:url(#radialGradient2904)"/>
 </g>
 <rect id="rect3823" x="3" y="9" width="4" height="1" style="opacity:.3"/>
 <path id="path6899" d="m5.5405 7.1071 7.5735 8.0595c0.49681 0.49516 1.3474 0.43033 1.9154-0.13579 0.56801-0.56612 0.63305-1.4139 0.13624-1.909l-8.0864-7.5483-1.5387 1.5336z" style="enable-background:new;fill:url(#linearGradient4528);stroke-dashoffset:.7;stroke-linecap:round;stroke-linejoin:round;stroke-width:.99963;stroke:url(#linearGradient4530)"/>
</svg>
