<?xml version="1.0" encoding="UTF-8"?>
<!-- Created with Inkscape (http://www.inkscape.org/) -->
<svg id="svg2" width="16" height="16" version="1.0" xmlns="http://www.w3.org/2000/svg" xmlns:xlink="http://www.w3.org/1999/xlink">
 <defs id="defs4">
  <radialGradient id="radialGradient4508" cx="24" cy="9.4885" r="18.5" gradientTransform="matrix(0 .52841 -1.4829 0 26.457 -7.6819)" gradientUnits="userSpaceOnUse">
   <stop id="stop3826" style="stop-color:#fff" offset="0"/>
   <stop id="stop3828" style="stop-color:#fff;stop-opacity:0" offset="1"/>
  </radialGradient>
  <linearGradient id="linearGradient4513" x1="24" x2="24" y1="5" y2="43" gradientTransform="matrix(.35135 0 0 .35135 -.43243 -.43244)" gradientUnits="userSpaceOnUse">
   <stop id="stop2919-1" style="stop-color:#fff" offset="0"/>
   <stop id="stop2921-0" style="stop-color:#fff;stop-opacity:0" offset="1"/>
  </linearGradient>
  <radialGradient id="radialGradient4516" cx="12.011" cy="13.195" r="20" gradientTransform="matrix(2.167e-8 .6462 -.93213 0 15.876 -3.8828)" gradientUnits="userSpaceOnUse">
   <stop id="stop7211" style="stop-color:#e384c6" offset="0"/>
   <stop id="stop7213" style="stop-color:#c467be" offset=".26238"/>
   <stop id="stop7215" style="stop-color:#93399a" offset=".70495"/>
   <stop id="stop7217" style="stop-color:#48274f" offset="1"/>
  </radialGradient>
  <linearGradient id="linearGradient4518" x1="24" x2="24" y1="44" y2="3.899" gradientTransform="matrix(.38462 0 0 .38462 -1.2308 -1.2311)" gradientUnits="userSpaceOnUse">
   <stop id="stop3709" style="stop-color:#4c2a4e" offset="0"/>
   <stop id="stop3711" style="stop-color:#a85394" offset="1"/>
  </linearGradient>
 </defs>
 <rect id="rect5505-3" x=".5" y=".49967" width="15" height="15" rx="2" ry="2" style="fill:url(#radialGradient4516);stroke-linecap:round;stroke-linejoin:round;stroke:url(#linearGradient4518)"/>
 <rect id="rect6741" x="1.5" y="1.5" width="13" height="13" rx="1" ry="1" style="fill:none;opacity:.4;stroke-linecap:round;stroke-linejoin:round;stroke:url(#linearGradient4513)"/>
 <path id="path3782" d="m7 11-4-4-2 4v3.2337c0 0.29482 0.46969 0.76634 0.74647 0.76634h12.534c0.27678 0 0.71944-0.47151 0.71944-0.76634v-8.2337l-4-1-4 6z" style="fill:url(#radialGradient4508);opacity:.4"/>
 <path id="path10957" d="M 6.1718754,10.369 2.888,6.140309 1,9 0.953125,11.555291 3,8 6.421875,12.451831 11,5 15,6.870169 15,5.7 10.444,3.691 6.1718754,10.369 z" style="block-progression:tb;color:#000000;fill:#fff;opacity:.8;text-indent:0;text-transform:none"/>
</svg>
