<?xml version="1.0" encoding="UTF-8"?>
<!-- Created with Inkscape (http://www.inkscape.org/) -->
<svg id="svg2469" width="16" height="16" version="1.0" xmlns="http://www.w3.org/2000/svg" xmlns:xlink="http://www.w3.org/1999/xlink">
 <defs id="defs2471">
  <radialGradient id="radialGradient3692" cx="23.896" cy="3.99" r="20.397" gradientTransform="matrix(0 .87966 -1.1611 0 13.633 -22.084)" gradientUnits="userSpaceOnUse">
   <stop id="stop2778" style="stop-color:#8badea" offset="0"/>
   <stop id="stop2780" style="stop-color:#6396cd" offset=".26238"/>
   <stop id="stop2782" style="stop-color:#3b7caf" offset=".66094"/>
   <stop id="stop2784" style="stop-color:#194c70" offset="1"/>
  </radialGradient>
  <linearGradient id="linearGradient3694" x1="18.379" x2="18.379" y1="44.98" y2="3.0816" gradientTransform="matrix(.36857 0 0 .36857 .15423 -1.8456)" gradientUnits="userSpaceOnUse">
   <stop id="stop2788" style="stop-color:#1f4b6a" offset="0"/>
   <stop id="stop2790" style="stop-color:#4083c2" offset="1"/>
  </linearGradient>
  <linearGradient id="linearGradient3702" x1="15.861" x2="15.861" y1="2.2947" y2="42.992" gradientTransform="matrix(.36857 0 0 .36857 -.84577 -.84577)" gradientUnits="userSpaceOnUse">
   <stop id="stop4875" style="stop-color:#fff" offset="0"/>
   <stop id="stop4877" style="stop-color:#fff;stop-opacity:0" offset="1"/>
  </linearGradient>
  <linearGradient id="linearGradient3980" x1=".61686" x2="5.0904" y1="374.82" y2="374.82" gradientTransform="matrix(3.5766 0 0 .22572 44.959 -52.292)" gradientUnits="userSpaceOnUse">
   <stop id="stop273-6" style="stop-color:#474747;stop-opacity:0" offset="0"/>
   <stop id="stop275-4" style="stop-color:#474747" offset=".12618"/>
   <stop id="stop276-3" style="stop-color:#474747" offset=".87382"/>
   <stop id="stop274-5" style="stop-color:#474747;stop-opacity:0" offset="1"/>
  </linearGradient>
  <linearGradient id="linearGradient3982" x1=".61686" x2="5.0904" y1="339.39" y2="339.39" gradientTransform="matrix(3.5766 0 0 .22354 44.959 -45.553)" gradientUnits="userSpaceOnUse">
   <stop id="stop4000" style="stop-color:#474747;stop-opacity:0" offset="0"/>
   <stop id="stop4002" style="stop-color:#474747" offset=".12618"/>
   <stop id="stop4004" style="stop-color:#474747" offset=".86728"/>
   <stop id="stop4006" style="stop-color:#474747;stop-opacity:0" offset="1"/>
  </linearGradient>
  <linearGradient id="linearGradient3984" x1="3.0749" x2="14.054" y1="117.83" y2="117.83" gradientTransform="matrix(1.4619 0 0 .091236 42.703 20.063)" gradientUnits="userSpaceOnUse">
   <stop id="stop3990" style="stop-color:#fff;stop-opacity:0" offset="0"/>
   <stop id="stop3992" style="stop-color:#fff" offset=".12118"/>
   <stop id="stop3994" style="stop-color:#fff" offset=".87487"/>
   <stop id="stop3996" style="stop-color:#fff;stop-opacity:0" offset="1"/>
  </linearGradient>
  <linearGradient id="linearGradient3986" x1="23.1" x2="23.1" y1="38.297" y2="43.915" gradientTransform="matrix(.50656 0 0 .43149 43.035 12.414)" gradientUnits="userSpaceOnUse">
   <stop id="stop205-7" style="stop-color:#7a7a7a" offset="0"/>
   <stop id="stop207-3" style="stop-color:#c5c5c5" offset=".19802"/>
   <stop id="stop208-2" style="stop-color:#626262" offset=".59901"/>
   <stop id="stop206-8" style="stop-color:#888" offset="1"/>
  </linearGradient>
 </defs>
 <g id="layer1">
  <g id="g2493">
   <path id="path2555" d="m8 0.50217c-3.4042-0.10472-6.4982 2.8844-6.4982 6.498s2.9892 6.498 6.4982 6.498c3.5089-2e-6 6.4982-2.6749 6.4982-6.498s-3.094-6.3933-6.4982-6.498z" style="fill:url(#radialGradient3692);stroke-linecap:round;stroke-linejoin:round;stroke-width:1.0037;stroke:url(#linearGradient3694)"/>
   <path id="path3690" d="m7.9688 1.5938c-2.7384-0.084236-5.375 2.4227-5.375 5.4062 0 3.0049 2.5023 5.4063 5.4062 5.4062 2.9479-2e-6 5.4063-2.1586 5.4062-5.4062-2e-6 -3.2275-2.5677-5.318-5.4375-5.4062z" style="fill:none;opacity:.4;stroke-linecap:round;stroke-linejoin:round;stroke-width:1.0037;stroke:url(#linearGradient3702)"/>
  </g>
  <path id="path3298" d="m8.3414 8.986c-0.02478-0.90722 0.17339-1.7879 1.0091-2.4118 0.8827-0.70553 1.7328-1.5882 1.643-2.6288-0.019617-1.0035-1.1596-1.7898-2.3878-1.9029-1.3816-0.1963-3.0533 0.28913-3.5162 1.3957-0.2348 0.53822-0.017063 1.5039 0.77092 1.5039 0.46089 0 0.67259-0.30536 0.70736-0.58469 0.026312-0.21135-0.058288-0.40009-0.10825-0.57466-0.056929-0.19892 0.18609-0.58445 0.45078-0.74153 0.22118-0.13126 0.45258-0.17527 0.48669-0.18368 0.7943-0.19579 1.5861 0.23668 1.9165 0.76304 0.33036 0.52636-0.033266 1.3248-0.55607 2.1012-0.52281 0.77641-1.0839 1.6582-1.0816 2.5949 0 0.35659-0.030978 0.47773-0.00897 0.62199 0.017586 0.11526 0.38971 0.10133 0.67469 0.047272zm-0.3625 1.2211c-0.75948-0.04229-1.2851 0.84077-0.82889 1.4034 0.40746 0.6212 1.5499 0.46785 1.7457-0.23559 0.20357-0.54702-0.28633-1.1769-0.91681-1.1678v1e-6z" style="fill:#fff"/>
  <g id="g8782" transform="translate(-47.165 -16.312)" style="enable-background:new">
   <rect id="rect8784" x="47.165" y="31.312" width="16" height="1" style="display:block;fill:url(#linearGradient3980);opacity:.56571"/>
   <rect id="rect8786" x="47.148" y="29.312" width="16" height="1" style="display:block;fill:url(#linearGradient3982);opacity:.56571"/>
   <rect id="rect8788" x="47.165" y="30.312" width="16" height="1" style="display:block;fill:url(#linearGradient3984)"/>
   <path id="path8790" d="m53.343 28.744c-0.40342 0-0.72408 0.26437-0.72408 0.59695v1.8435c0 0.33258 0.32067 0.59695 0.72408 0.59695h3.6508c0.40341 0 0.72408-0.26437 0.72408-0.59695v-1.8435c0-0.33259-0.32067-0.59695-0.72408-0.59695h-3.6508z" style="display:block;fill:url(#linearGradient3986);stroke:#434343"/>
   <g id="g8792" transform="matrix(.54436 0 0 .94118 42.077 -8.6471)" style="fill-opacity:.72024;fill:#fff">
    <path id="path8794" transform="matrix(2.3233 0 0 1.3437 -21.657 -13.71)" d="m19 40.625a0.53125 0.53125 0 1 1-1.0625 0 0.53125 0.53125 0 1 1 1.0625 0z" style="display:block"/>
   </g>
  </g>
 </g>
</svg>
