<?xml version="1.0" encoding="UTF-8"?>
<!-- Created with Inkscape (http://www.inkscape.org/) -->
<svg id="svg3327" width="16" height="16" version="1.0" xmlns="http://www.w3.org/2000/svg" xmlns:xlink="http://www.w3.org/1999/xlink">
 <defs id="defs3329">
  <linearGradient id="linearGradient3260" x1="86.133" x2="84.639" y1="105.1" y2="20.895" gradientTransform="matrix(.096142 0 0 .096142 1.8469 1.943)" gradientUnits="userSpaceOnUse">
   <stop id="stop5130" style="stop-color:#e5e5e5" offset="0"/>
   <stop id="stop5132" style="stop-color:#ababab" offset="1"/>
  </linearGradient>
  <linearGradient id="linearGradient3264" x1="21" x2="21" y2="16.005" gradientTransform="translate(-17.058)" gradientUnits="userSpaceOnUse">
   <stop id="stop3399" style="stop-color:#aaa" offset="0"/>
   <stop id="stop3401" style="stop-color:#8c8c8c" offset="1"/>
  </linearGradient>
  <linearGradient id="linearGradient3262" x1="25" x2="25" y2="16" gradientTransform="translate(-17.058)" gradientUnits="userSpaceOnUse">
   <stop id="stop3311" style="stop-color:#f6f6f6" offset="0"/>
   <stop id="stop3313" style="stop-color:#ccc" offset="1"/>
  </linearGradient>
  <linearGradient id="linearGradient2547" x1="23.931" x2="23.931" y1="14.702" y2="43.298" gradientTransform="matrix(.4056 0 0 .41964 2.2936 -2.1694)" gradientUnits="userSpaceOnUse">
   <stop id="stop3663" style="stop-color:#cc7032" offset="0"/>
   <stop id="stop3665" style="stop-color:#bb2d13" offset=".72725"/>
   <stop id="stop3667" style="stop-color:#a87300;stop-opacity:0" offset="1"/>
  </linearGradient>
  <linearGradient id="linearGradient2545" x1="-5.4561" x2="51.34" y1="21.565" y2="21.565" gradientTransform="matrix(0 .21128 -.20421 0 16.404 5.1528)" gradientUnits="userSpaceOnUse">
   <stop id="stop3671" style="stop-color:#ecb56c" offset="0"/>
   <stop id="stop3673" style="stop-color:#e86225" offset=".87936"/>
   <stop id="stop3675" style="stop-color:#b07c0b;stop-opacity:0" offset="1"/>
  </linearGradient>
  <linearGradient id="linearGradient3325" x1="22.76" x2="22.76" y1="29.137" y2="42.242" gradientTransform="matrix(.4056 0 0 .41964 2.2936 -2.1694)" gradientUnits="userSpaceOnUse">
   <stop id="stop4224" style="stop-color:#fff" offset="0"/>
   <stop id="stop4226" style="stop-color:#fff;stop-opacity:0" offset="1"/>
  </linearGradient>
 </defs>
 <g id="layer1">
  <g id="g3361">
   <g id="g2479">
    <path id="path2426" d="m6.9375 0.5c-0.24842 0-0.4375 0.18908-0.4375 0.4375v1.25c-0.5539 0.1422-1.0512 0.37188-1.5312 0.65625l-0.90625-0.90625c-0.17566-0.17566-0.44934-0.17566-0.625 0l-1.5 1.5c-0.17566 0.17566-0.17566 0.44934 0 0.625l0.90625 0.90625c-0.28437 0.48009-0.51405 0.97735-0.65625 1.5312h-1.25c-0.24842 0-0.4375 0.18908-0.4375 0.4375v2.125c1e-8 0.24842 0.18908 0.4375 0.4375 0.4375h1.25c0.1422 0.5539 0.37188 1.0512 0.65625 1.5312l-0.90625 0.90625c-0.17566 0.17566-0.17566 0.44934 0 0.625l1.5 1.5c0.17566 0.17566 0.44934 0.17566 0.625 0l0.90625-0.90625c0.48009 0.28437 0.97735 0.51405 1.5312 0.65625v1.25c1e-7 0.24842 0.18908 0.4375 0.4375 0.4375h2.125c0.24842 0 0.4375-0.18908 0.4375-0.4375v-1.25c0.5539-0.1422 1.0512-0.37188 1.5312-0.65625l0.90625 0.90625c0.17566 0.17566 0.44934 0.17566 0.625 0l1.5-1.5c0.17566-0.17566 0.17566-0.44934 0-0.625l-0.90625-0.90625c0.28437-0.48009 0.51405-0.97735 0.65625-1.5312h1.25c0.24842 0 0.4375-0.18908 0.4375-0.4375v-2.125c0-0.24842-0.18908-0.4375-0.4375-0.4375h-1.25c-0.1422-0.5539-0.37188-1.0512-0.65625-1.5312l0.90625-0.90625c0.17566-0.17566 0.17566-0.44934 0-0.625l-1.5-1.5c-0.17566-0.17566-0.44934-0.17566-0.625 0l-0.90625 0.90625c-0.48009-0.28437-0.97735-0.51405-1.5312-0.65625v-1.25c-4e-7 -0.24842-0.18908-0.4375-0.4375-0.4375h-2.125zm1.0625 5.5c1.104 0 2 0.896 2 2s-0.896 2-2 2-2-0.896-2-2 0.896-2 2-2z" style="display:block;fill:url(#linearGradient3262);stroke-linejoin:round;stroke:url(#linearGradient3264)"/>
    <path id="path3315" d="m8 3.4651c-2.5006 0-4.5349 2.0343-4.5349 4.5349s2.0343 4.5349 4.5349 4.5349c2.5006-1e-6 4.5349-2.0343 4.5349-4.5349s-2.0343-4.5349-4.5349-4.5349zm0 2.093c1.3479 0 2.4419 1.094 2.4419 2.4419s-1.094 2.4419-2.4419 2.4419-2.4419-1.094-2.4419-2.4419 1.094-2.4419 2.4419-2.4419z" style="opacity:.05"/>
    <path id="path28" d="m8 4c-2.2056 0-4 1.7944-4 4 0 2.2056 1.7944 4 4 4 2.2056 0 4-1.7944 4-4 0-2.2056-1.7944-4-4-4z" style="fill:none;stroke:url(#linearGradient3260)"/>
   </g>
  </g>
  <path id="path2487" d="m15.557 9.5-4.0569-5-4.0068 5h2.0068v7h4v-7h2.0569z" style="fill:url(#linearGradient2545);stroke-linecap:round;stroke-linejoin:round;stroke:url(#linearGradient2547)"/>
  <path id="path3323" d="m11.5 6.0938-1.9062 2.4062c0.51451 0.050258 0.90672 0.48304 0.90625 1v5h2v-5c8.67e-4 -0.52802 0.41064-0.9651 0.9375-1l-1.9375-2.4062z" style="fill:none;opacity:.4;stroke-linecap:round;stroke:url(#linearGradient3325)"/>
 </g>
</svg>
