<?xml version="1.0" encoding="UTF-8"?>
<!-- Created with Inkscape (http://www.inkscape.org/) -->
<svg id="svg3367" width="128" height="128" version="1.0" xmlns="http://www.w3.org/2000/svg" xmlns:xlink="http://www.w3.org/1999/xlink">
 <defs id="defs3369">
  <linearGradient id="linearGradient6036">
   <stop id="stop6038" style="stop-color:#fff" offset="0"/>
   <stop id="stop6040" style="stop-color:#fff;stop-opacity:0" offset="1"/>
  </linearGradient>
  <linearGradient id="linearGradient3519">
   <stop id="stop3521" style="stop-color:#fcd9cd" offset="0"/>
   <stop id="stop3523" style="stop-color:#fcd9cd;stop-opacity:0" offset="1"/>
  </linearGradient>
  <linearGradient id="linearGradient3511">
   <stop id="stop3513" style="stop-color:#ebeec7" offset="0"/>
   <stop id="stop3515" style="stop-color:#ebeec7;stop-opacity:0" offset="1"/>
  </linearGradient>
  <linearGradient id="linearGradient3503">
   <stop id="stop3505" style="stop-color:#c4ebdd" offset="0"/>
   <stop id="stop3507" style="stop-color:#c4ebdd;stop-opacity:0" offset="1"/>
  </linearGradient>
  <linearGradient id="linearGradient3495">
   <stop id="stop3497" style="stop-color:#c1cbe4" offset="0"/>
   <stop id="stop3499" style="stop-color:#c1cbe4;stop-opacity:0" offset="1"/>
  </linearGradient>
  <linearGradient id="linearGradient3487">
   <stop id="stop3489" style="stop-color:#e6cde2" offset="0"/>
   <stop id="stop3491" style="stop-color:#e6cde2;stop-opacity:0" offset="1"/>
  </linearGradient>
  <radialGradient id="radialGradient2584" cx="23.335" cy="41.636" r="22.627" gradientTransform="matrix(2.6517 0 0 .79542 2.125 72.882)" gradientUnits="userSpaceOnUse">
   <stop id="stop23421" offset="0"/>
   <stop id="stop23423" style="stop-opacity:0" offset="1"/>
  </radialGradient>
  <linearGradient id="linearGradient2642" x1="10.502" x2="48.799" y1="3.61" y2="54.698" gradientTransform="matrix(2.7529 0 0 2.7529 -3.0238 -4.8214)" gradientUnits="userSpaceOnUse" xlink:href="#linearGradient6036"/>
  <linearGradient id="linearGradient2651" x1="18.776" x2="18.203" y1="4.0378" y2="45.962" gradientTransform="matrix(1.086 0 0 1.086 37.559 36.85)" gradientUnits="userSpaceOnUse" xlink:href="#linearGradient6036"/>
  <linearGradient id="linearGradient2654" x1="21.448" x2="21.448" y1="15.5" y2="32.509" gradientTransform="matrix(2.5381 0 0 2.5381 3.0854 3.0854)" gradientUnits="userSpaceOnUse">
   <stop id="stop3430" style="stop-color:#aaa" offset="0"/>
   <stop id="stop3432" style="stop-color:#d4d4d4" offset="1"/>
  </linearGradient>
  <linearGradient id="linearGradient2658" x1="12.274" x2="35.391" y1="32.416" y2="14.203" gradientTransform="matrix(0 3.1715 -3.1715 0 137.26 -12.115)" gradientUnits="userSpaceOnUse">
   <stop id="stop3265" style="stop-color:#dedbde" offset="0"/>
   <stop id="stop3267" style="stop-color:#e6e6e6" offset=".5"/>
   <stop id="stop3269" style="stop-color:#d2d2d2" offset="1"/>
  </linearGradient>
  <linearGradient id="linearGradient2660" x1="-21.916" x2="-21.916" y1="3" y2="45.033" gradientTransform="matrix(2.7073 0 0 2.7073 135.11 -.97559)" gradientUnits="userSpaceOnUse">
   <stop id="stop3774" style="stop-color:#b4b4b4" offset="0"/>
   <stop id="stop3776" style="stop-color:#969696" offset="1"/>
  </linearGradient>
  <linearGradient id="linearGradient2672" x1="20.58" x2="24.274" y1="10.775" y2="9.8622" gradientUnits="userSpaceOnUse" spreadMethod="reflect" xlink:href="#linearGradient3487"/>
  <linearGradient id="linearGradient2674" x1="17.495" x2="21.047" y1="11.2" y2="9.7956" gradientUnits="userSpaceOnUse" spreadMethod="reflect" xlink:href="#linearGradient3495"/>
  <linearGradient id="linearGradient2676" x1="14.085" x2="16.994" y1="13.046" y2="10.732" gradientUnits="userSpaceOnUse" spreadMethod="reflect" xlink:href="#linearGradient3503"/>
  <linearGradient id="linearGradient2678" x1="12.372" x2="14.609" y1="16.188" y2="13.462" gradientUnits="userSpaceOnUse" spreadMethod="reflect" xlink:href="#linearGradient3511"/>
  <linearGradient id="linearGradient2680" x1="10.609" x2="9.7298" y1="17.886" y2="20.613" gradientUnits="userSpaceOnUse" spreadMethod="reflect" xlink:href="#linearGradient3519"/>
 </defs>
 <path id="path23417" d="m124 106c0.00309 9.9408-26.861 18-60 18-33.139 0-60.003-8.0592-60-18-0.0030903-9.9408 26.861-18 60-18 33.139 0 60.003 8.0591 60 18z" style="fill-rule:evenodd;fill:url(#radialGradient2584);opacity:.3"/>
 <path id="path2781" d="m119.5 64c0-30.763-24.737-55.5-55.5-55.5-30.763 0-55.5 24.737-55.5 55.5-5.4e-6 30.763 24.737 55.5 55.5 55.5 30.763-1e-5 55.5-24.737 55.5-55.5zm-35.195 0c0 11.176-8.9051 20.305-20.305 20.305-11.623 0-20.305-9.3546-20.305-20.305 0-11.174 8.2342-20.305 20.305-20.305 12.071 0 20.305 9.3523 20.305 20.305z" style="fill:url(#linearGradient2658);stroke:url(#linearGradient2660)"/>
 <path id="path2474" d="m64 43c-11.592 0-21 9.408-21 21 0 11.592 9.408 21 21 21s21-9.408 21-21c0-11.592-9.408-21-21-21zm0 10.5c5.796 0 10.5 4.704 10.5 10.5s-4.704 10.5-10.5 10.5-10.5-4.704-10.5-10.5 4.704-10.5 10.5-10.5z" style="fill:#fff;opacity:.5"/>
 <path id="path3418" d="m64 43.695c-11.208 0-20.305 9.0966-20.305 20.305s9.0966 20.305 20.305 20.305 20.305-9.0966 20.305-20.305-9.0966-20.305-20.305-20.305zm0 10.152c5.6041 0 10.152 4.5483 10.152 10.152s-4.5483 10.152-10.152 10.152-10.152-4.5483-10.152-10.152 4.5483-10.152 10.152-10.152z" style="fill:none;stroke-linejoin:round;stroke:url(#linearGradient2654)"/>
 <g id="g3527" transform="matrix(2.732 0 0 2.732 -1.0901 -1.0743)">
  <path id="path3296" transform="matrix(.9996 .028243 -.028243 .9996 .69241 -.67083)" d="m15.857 5.7308 4.7681 10.613c1.0354-0.45856 2.1703-0.71875 3.375-0.71875 0.03206 0 0.06178-3.6e-4 0.09375 0l0.01426-11.62c-2.9422-0.070687-5.543 0.65729-8.2511 1.726z" style="fill:url(#linearGradient2672);opacity:.8"/>
  <path id="path3308" d="m12.121 7.906 6.931 9.3601c0.91311-0.66976 1.9659-1.1671 3.1426-1.4252 0.03132-0.0069 0.06026-0.01359 0.09157-0.02009l-2.4295-11.395c-2.889 0.56132-5.3195 1.8556-7.7357 3.4797z" style="fill:url(#linearGradient2674);opacity:.8"/>
  <path id="path3310" d="m8.2524 11.647 9.2137 7.1558c0.70865-0.88326 1.5969-1.6361 2.6667-2.19 0.02847-0.01474 0.05469-0.02872 0.08325-0.0431l-5.3502-10.319c-2.6453 1.2899-4.7 3.2018-6.6135 5.3959z" style="fill:url(#linearGradient2676);opacity:.8"/>
  <path id="path3312" d="m5.6329 16.074c7.1748 2.2422 7.8503 7.0315 12.777 1.7541l-7.9097-8.696c-2.2213 1.9306-3.5867 4.3272-4.8671 6.9418z" style="fill:url(#linearGradient2678);opacity:.8"/>
  <path id="path3314" d="m7.1553 13.193c-1.1831 1.752-1.9077 3.6364-2.5251 5.6439l11.339 2.9754c0.21551-0.763 0.51805-1.5148 0.96875-2.2188 0.01729-0.027 0.04496-0.06702 0.0625-0.09375l-9.8447-6.3068z" style="fill:url(#linearGradient2680);opacity:.8"/>
 </g>
 <path id="path3272" d="m64 9.5c-30.209 0-54.5 24.291-54.5 54.5 0 30.209 24.291 54.5 54.5 54.5s54.5-24.291 54.5-54.5c0-30.209-24.291-54.5-54.5-54.5z" style="fill:none;opacity:.5;stroke:url(#linearGradient2642)"/>
 <g id="g3297" transform="matrix(-2.7073 0 0 -2.7073 128.98 128.95)">
  <path id="path3299" transform="matrix(.9996 .028243 -.028243 .9996 .69241 -.67083)" d="m15.857 5.7308 4.7681 10.613c1.0354-0.45856 2.1703-0.71875 3.375-0.71875 0.03206 0 0.06178-3.6e-4 0.09375 0l0.01426-11.62c-2.9422-0.070687-5.543 0.65729-8.2511 1.726z" style="fill:url(#linearGradient2672);opacity:.8"/>
  <path id="path3301" d="m12.121 7.906 6.931 9.3601c0.91311-0.66976 1.9659-1.1671 3.1426-1.4252 0.03132-0.0069 0.06026-0.01359 0.09157-0.02009l-2.4295-11.395c-2.889 0.56132-5.3195 1.8556-7.7357 3.4797z" style="fill:url(#linearGradient2674);opacity:.8"/>
  <path id="path3303" d="m8.2524 11.647 9.2137 7.1558c0.70865-0.88326 1.5969-1.6361 2.6667-2.19 0.02847-0.01474 0.05469-0.02872 0.08325-0.0431l-5.3502-10.319c-2.6453 1.2899-4.7 3.2018-6.6135 5.3959z" style="fill:url(#linearGradient2676);opacity:.8"/>
  <path id="path3305" d="m5.6329 16.074c7.1748 2.2422 7.8503 7.0315 12.777 1.7541l-7.9097-8.696c-2.2213 1.9306-3.5867 4.3272-4.8671 6.9418z" style="fill:url(#linearGradient2678);opacity:.8"/>
  <path id="path3307" d="m7.1553 13.193c-1.1831 1.752-1.9077 3.6364-2.5251 5.6439l11.339 2.9754c0.21551-0.763 0.51805-1.5148 0.96875-2.2188 0.01729-0.027 0.04496-0.06702 0.0625-0.09375l-9.8447-6.3068z" style="fill:url(#linearGradient2680);opacity:.8"/>
 </g>
 <path id="path3281" d="m64 42.5c-11.917 0-21.5 9.5829-21.5 21.5s9.5829 21.5 21.5 21.5c11.917 0 21.5-9.5829 21.5-21.5s-9.5829-21.5-21.5-21.5z" style="fill:none;opacity:.8;stroke:url(#linearGradient2651)"/>
</svg>
