<?xml version="1.0" encoding="UTF-8"?>
<!-- Created with Inkscape (http://www.inkscape.org/) -->
<svg id="svg3968" width="128" height="128" version="1.0" xmlns="http://www.w3.org/2000/svg" xmlns:cc="http://creativecommons.org/ns#" xmlns:dc="http://purl.org/dc/elements/1.1/" xmlns:rdf="http://www.w3.org/1999/02/22-rdf-syntax-ns#" xmlns:xlink="http://www.w3.org/1999/xlink">
 <defs id="defs3970">
  <linearGradient id="linearGradient5060">
   <stop id="stop5062" offset="0"/>
   <stop id="stop5064" style="stop-opacity:0" offset="1"/>
  </linearGradient>
  <linearGradient id="linearGradient3360" x1="302.86" x2="302.86" y1="366.65" y2="609.51" gradientTransform="matrix(3.2949 0 0 2.5953 -2121.9 -1254.2)" gradientUnits="userSpaceOnUse">
   <stop id="stop5050" style="stop-opacity:0" offset="0"/>
   <stop id="stop5056" offset=".5"/>
   <stop id="stop5052" style="stop-opacity:0" offset="1"/>
  </linearGradient>
  <radialGradient id="radialGradient3362" cx="605.71" cy="486.65" r="117.14" gradientTransform="matrix(3.2949 0 0 2.5953 -2121.2 -1254.2)" gradientUnits="userSpaceOnUse" xlink:href="#linearGradient5060"/>
  <radialGradient id="radialGradient3364" cx="605.71" cy="486.65" r="117.14" gradientTransform="matrix(-3.2949 0 0 2.5953 259.22 -1254.2)" gradientUnits="userSpaceOnUse" xlink:href="#linearGradient5060"/>
  <linearGradient id="linearGradient3440" x1="-393.43" x2="-221.41" y1="67.439" y2="68.025" gradientTransform="matrix(.98548 0 0 1 -5.7871 0)" gradientUnits="userSpaceOnUse">
   <stop id="stop3795" style="stop-color:#3f3f3f" offset="0"/>
   <stop id="stop5268" style="stop-color:#3c3c3c" offset=".36093"/>
   <stop id="stop5266" style="stop-color:#2e2e2e" offset=".66032"/>
   <stop id="stop3797" style="stop-color:#202020" offset="1"/>
  </linearGradient>
  <linearGradient id="linearGradient3442" x1="-397.06" x2="-212.12" y1="72.438" y2="72.438" gradientUnits="userSpaceOnUse">
   <stop id="stop3711" style="stop-color:#adadad" offset="0"/>
   <stop id="stop3713" style="stop-color:#434343" offset="1"/>
  </linearGradient>
  <linearGradient id="linearGradient2490" x1="-282.75" x2="-362.78" y1="4.703" y2="11.719" gradientTransform="matrix(.3064 0 0 .33195 158.63 36.637)" gradientUnits="userSpaceOnUse">
   <stop id="stop3969" style="stop-color:#fff" offset="0"/>
   <stop id="stop3971" style="stop-color:#fff;stop-opacity:0" offset="1"/>
  </linearGradient>
  <linearGradient id="linearGradient2493" x1="-314.03" x2="-314.03" y1="-83.614" y2="-75.274" gradientTransform="matrix(.29382 0 0 .37967 153.48 38.888)" gradientUnits="userSpaceOnUse">
   <stop id="stop3920" offset="0"/>
   <stop id="stop3922" style="stop-color:#1e1e1e" offset="1"/>
  </linearGradient>
  <linearGradient id="linearGradient2495" x1="-305.53" x2="-305.53" y1="-78.314" y2="-85.986" gradientTransform="matrix(.29382 0 0 .37967 153.48 38.888)" gradientUnits="userSpaceOnUse">
   <stop id="stop3912" style="stop-color:#2f2f2f" offset="0"/>
   <stop id="stop3914" offset="1"/>
  </linearGradient>
  <linearGradient id="linearGradient2499" x1="-401" x2="-222.53" y1="189.65" y2="218.65" gradientTransform="matrix(.31705 0 0 .43801 158.38 12.012)" gradientUnits="userSpaceOnUse">
   <stop id="stop3849" style="stop-color:#ababab" offset="0"/>
   <stop id="stop3851" style="stop-color:#dcdcdc;stop-opacity:0" offset="1"/>
  </linearGradient>
  <linearGradient id="linearGradient2504" x1="-389.49" x2="-175.06" y1="65.211" y2="61.538" gradientTransform="matrix(.35027 0 0 .31895 170.73 35.395)" gradientUnits="userSpaceOnUse">
   <stop id="stop3733-3" style="stop-color:#cdcdcd" offset="0"/>
   <stop id="stop3735-2" style="stop-color:#303030" offset="1"/>
  </linearGradient>
  <linearGradient id="linearGradient2507" x1="-307.51" x2="-307.33" y1="224.5" y2="-102.18" gradientTransform="matrix(.34479 0 0 .3289 169.02 36.327)" gradientUnits="userSpaceOnUse">
   <stop id="stop3900" style="stop-color:#030303" offset="0"/>
   <stop id="stop3902" style="stop-color:#383838;stop-opacity:0" offset="1"/>
  </linearGradient>
  <radialGradient id="radialGradient2510" cx="-398" cy="257.92" r="2.3125" gradientTransform="matrix(.35218 0 0 .40126 206.28 9.0057)" gradientUnits="userSpaceOnUse">
   <stop id="stop3781" style="stop-color:#5b5b5b" offset="0"/>
   <stop id="stop3783" offset="1"/>
  </radialGradient>
  <linearGradient id="linearGradient2512" x1="-396.62" x2="-399.56" y1="260.45" y2="258.26" gradientTransform="matrix(.50117 0 0 .28379 265.59 39.264)" gradientUnits="userSpaceOnUse">
   <stop id="stop3773" style="stop-color:#fff" offset="0"/>
   <stop id="stop3775" style="stop-color:#0d0d0d" offset="1"/>
  </linearGradient>
  <linearGradient id="linearGradient2518" x1="-301.94" x2="-245.24" y1="152.96" y2="134.96" gradientTransform="matrix(.32001 0 0 .32874 162.81 36.3)" gradientUnits="userSpaceOnUse">
   <stop id="stop5260" style="stop-color:#5f5f5f" offset="0"/>
   <stop id="stop5262" style="stop-color:#252525" offset="1"/>
  </linearGradient>
 </defs>
 <metadata id="metadata3973">
  <rdf:RDF>
   <cc:Work rdf:about="">
    <dc:format>image/svg+xml</dc:format>
    <dc:type rdf:resource="http://purl.org/dc/dcmitype/StillImage"/>
   </cc:Work>
  </rdf:RDF>
 </metadata>
 <g id="layer1">
  <g id="g3314">
   <g id="g4245" transform="matrix(.032137 0 0 .02542 93.92 119.54)">
    <rect id="rect4247" x="-1726.5" y="-302.63" width="1591" height="630.29" style="fill:url(#linearGradient3360);opacity:.40206"/>
    <path id="path4249" d="m-135.53-302.61v630.26c169.68 1.1864 410.2-141.21 410.2-315.17 0-173.96-189.35-315.09-410.2-315.09z" style="fill:url(#radialGradient3362);opacity:.40206"/>
    <path id="path4251" d="m-1726.5-302.61v630.26c-169.68 1.1864-410.2-141.21-410.2-315.17 0-173.96 189.35-315.09 410.2-315.09z" style="fill:url(#radialGradient3364);opacity:.40206"/>
   </g>
   <rect id="rect4253" x="35.301" y="1.696" width="60.068" height="118.16" ry="4.1347" style="fill:url(#linearGradient2518)"/>
   <g id="g4255" transform="matrix(.35665 0 0 .32688 173.41 36.348)" style="stroke-width:.10076">
    <rect id="rect4257" x="-398.44" y="-110.02" width="184.97" height="364.93" ry="12.769" style="fill:url(#linearGradient3440);stroke-width:1.4933;stroke:#000"/>
    <path id="path4259" d="m-385.66-108.31c-6.1539 0-11.062 4.9086-11.062 11.062v339.38c0 6.1539 4.9086 11.062 11.062 11.062h162.16c6.1539 0 11.031-4.9036 11.031-11.062v-339.38c0-6.1589-4.8774-11.062-11.031-11.062h-162.16z" style="fill:none;stroke-width:.036527;stroke:url(#linearGradient3442)"/>
   </g>
   <rect id="rect4265" x="64.357" y="111.53" width="1.9572" height="1.6516" ry=".57697" style="fill:url(#radialGradient2510);stroke-dashoffset:.06;stroke-linecap:round;stroke-linejoin:round;stroke:url(#linearGradient2512)"/>
   <path id="path4267" d="m33.938 72.569-0.69172 36.347v0.75155c0 1.1938 0.78474 2.1712 1.7536 2.1712h57.953c0.96888 0 1.7536-0.97737 1.7536-2.1712l-0.8098-37.099h-59.959z" style="fill:url(#linearGradient2507)"/>
   <path id="path4269" d="m36.242 4.5437h55.6c0.92935 0 1.6776 0.91119 1.6776 2.043v99.215c0 1.1318-0.74822 2.043-1.6776 2.043h-55.6c-0.9294 0-1.6776-0.91119-1.6776-2.043v-0.71618-98.499c0-1.1318 0.74817-2.043 1.6776-2.043v0z" style="fill:#030303;stroke-linecap:square;stroke:url(#linearGradient2504)"/>
   <path id="path4271" d="m69.997 13.054c-0.87466-0.00764-1.7545 0.46317-1.952 1.1679-0.18823 0.67182 0.22559 1.2075 1.0466 1.3564 0.57155 0.10363 1.3137-0.050679 1.7473-0.36489 0.84075-0.60929 0.84353-1.6102 0.005772-1.983-0.26482-0.11782-0.55614-0.17392-0.8477-0.17646zm-13.545 0.004485c-0.56741 0.001082-1.1509 0.19158-1.5209 0.53836-0.80668 0.75597-0.47589 1.7823 0.6386 1.9815 0.33079 0.059101 0.87356 0.016563 1.224-0.095708 1.2088-0.38731 1.5791-1.7258 0.61271-2.2162-0.27876-0.14147-0.61388-0.20851-0.9544-0.20787zm6.4614 0c-0.11643 6.93e-4 -0.23633 0.008406-0.35893 0.025423-0.91119 0.12646-1.5873 0.72944-1.5873 1.4162 0 0.56696 0.41766 0.97238 1.1173 1.0842 0.75658 0.12092 1.5656-0.14147 2.0154-0.65201 0.25533-0.28982 0.35064-0.56861 0.31716-0.93016-0.052643-0.56803-0.68841-0.94846-1.5036-0.94362zm13.769 0.080755-1.1043 0.026917-0.75252 1.1485c-0.41411 0.63167-0.75433 1.1646-0.75543 1.1844-0.001069 0.01974 0.17337 0.035891 0.38782 0.035891h0.3907l0.1427-0.21534 0.14272-0.21534h0.52188 0.52188l0.041794 0.20338 0.040376 0.20338 0.95721 0.026918-0.027391-0.10917c-0.015231-0.060177-0.13631-0.5998-0.26813-1.1993l-0.23929-1.0902zm-25.13 0.002991c-0.52137 0-0.59186 0.009634-0.61271 0.083744-0.012933 0.04606-0.11792 0.41931-0.23352 0.82997-0.16846 0.59835-0.21049 0.81935-0.21049 1.1126v0.36638h0.27534 0.27395l0.14414-0.4905c0.078723-0.26978 0.15849-0.54233 0.17733-0.60565 0.026802-0.090267 0.066057 0.015691 0.18596 0.4905l0.15424 0.60565h0.23644 0.23641l0.45702-0.5264c0.25164-0.28941 0.466-0.51854 0.47573-0.50845 0.015017 0.015562-0.18641 0.79389-0.25228 0.97503-0.024424 0.067198 0.47089 0.080262 0.79289 0.020937l0.18021-0.0329 0.20036-0.74174c0.11004-0.40784 0.25001-0.93017 0.31142-1.1605l0.11244-0.41872h-0.63288-0.63144l-0.38926 0.48303-0.3892 0.48153-0.13698-0.48153-0.13548-0.48303h-0.58964zm6.7424 0-0.049007 0.20338c-0.027578 0.11186-0.071 0.26615-0.09513 0.34246-0.084228 0.26636-0.081208 0.26768 0.42095 0.26768 0.42106 0 0.46226 0.007827 0.43968 0.083745-0.013656 0.04606-0.088182 0.36369-0.16578 0.70585-0.077573 0.34216-0.15181 0.66034-0.16578 0.70734-0.023408 0.0788 0.010528 0.084396 0.44837 0.071782l0.4757-0.01346 0.14849-0.59818c0.082143-0.329 0.17281-0.67893 0.20039-0.77763l0.050476-0.17945h0.47284 0.47429l0.079284-0.34694c0.043049-0.19082 0.076745-0.37386 0.076425-0.40676-4.81e-4 -0.046531-0.31249-0.059816-1.4056-0.059816h-1.4056zm6.7497 0-0.3085 1.1425c-0.16952 0.62819-0.30848 1.1665-0.30848 1.1964 0 0.036488 0.14058 0.053835 0.43105 0.053835h0.431l0.18166-0.69388 0.37341-0.013458c0.45825-0.016992 0.5458 0.042354 0.50021 0.33797-0.04532 0.29418 0.003447 0.32203 0.568 0.32152l0.49013-0.001495 0.01157-0.32152c0.014376-0.40868-0.011758-0.52439-0.12688-0.56229-0.10186-0.033545-0.12565-0.11964-0.033136-0.11964 0.10309 0 0.41146-0.29898 0.47715-0.46209 0.084094-0.20873 0.080272-0.47088-0.008658-0.61164-0.14684-0.23252-0.34086-0.26619-1.5584-0.26619h-1.1201zm7.6421 0.007476c-0.053764 2.25e-4 -0.11261 0.001107-0.17444 0.002992l-0.44978 0.013458-0.28547 1.1246c-0.15667 0.61851-0.28641 1.1515-0.2883 1.1844-0.002671 0.046352 0.25666 0.059818 1.149 0.059818h1.1518l0.05045-0.20338c0.027978-0.11186 0.067713-0.27337 0.089386-0.3589l0.040375-0.15553h-0.68908c-0.44783 0-0.68766-0.016809-0.68766-0.049348 0-0.027504 0.08305-0.39328 0.18454-0.81202 0.10149-0.41875 0.18452-0.7743 0.18452-0.78959 0-0.011472-0.11408-0.017123-0.27534-0.01645zm-6.8708 0.56677h0.40225c0.2208 3.6e-4 0.44746 0.014039 0.50456 0.029909 0.13708 0.038108 0.13797 0.2268 0.001417 0.32601-0.075783 0.055091-0.22 0.074772-0.55357 0.074772-0.24809 0-0.45139-0.016151-0.45123-0.035892 1.34e-4 -0.019739 0.022581-0.11664 0.049008-0.21534l0.047564-0.17945zm-9.4066 0.002991c0.16594 0.005787 0.32382 0.059009 0.43535 0.15852 0.26436 0.23588 0.089439 0.77919-0.31428 0.97652-0.25538 0.12484-0.43487 0.15576-0.63574 0.10618-0.44898-0.11081-0.49136-0.66252-0.079283-1.0378 0.15477-0.14099 0.38057-0.21082 0.59395-0.20338zm13.41 0.001496c0.063143-0.002749 0.12949 6.03e-4 0.20041 0.010469 0.29766 0.041414 0.4256 0.16768 0.44257 0.43816 0.018518 0.29591-0.13508 0.54888-0.41523 0.68491-0.37755 0.18337-0.67916 0.16861-0.89665-0.043368-0.20346-0.19824-0.1172-0.61629 0.18307-0.88979 0.13976-0.12727 0.29635-0.19214 0.48583-0.20039zm-6.9357 0.00299c0.11688 0.001048 0.22914 0.021824 0.32149 0.067295 0.4012 0.19748 0.2847 0.81568-0.2018 1.0692-0.45179 0.23547-0.93377 0.1118-1.0005-0.25722-0.029874-0.16513 0.065416-0.45847 0.20042-0.61612 0.14334-0.1675 0.4233-0.2655 0.68039-0.2632zm13.008 0.21684 0.053336 0.18693c0.029874 0.10278 0.057131 0.23538 0.059055 0.2946 0.003261 0.097794-0.01825 0.10767-0.22775 0.10767-0.12685 0-0.23064-0.010363-0.23064-0.023928 0-0.013566 0.077973-0.14616 0.173-0.2946l0.173-0.27068z" style="enable-background:new;fill:#939499"/>
   <path id="path4273" transform="matrix(.35784 0 0 .32688 173.49 36.348)" d="m-385.66-108.31c-6.1539 0-11.062 4.9086-11.062 11.062v339.38c0 6.1539 4.9086 11.062 11.062 11.062h162.16c6.1539 0 11.031-4.9036 11.031-11.062v-339.38c0-6.1589-4.8774-11.062-11.031-11.062h-162.16z" style="fill:none;stroke-width:2.9239;stroke:#000"/>
   <path id="path4275" d="m33.776 110.39s0.22918-1.0024 0.343-1.7118c0.18193-1.1338 0.64566-2.1699 0.64566-2.1699 0.74138 1.4397 1.626 1.6414 3.5191 1.4899l49.54-0.3104-1.9136 0.89502h-46.563c-3.1753 0.42596-4.1225 1.6215-3.924 3.2126-0.98422 0.25315-1.4052-0.42755-1.6468-1.4054z" style="fill:url(#linearGradient2499)"/>
   <rect id="rect4277" x="39.87" y="17.888" width="48.084" height="78.158" ry="0" style="fill:#2d2d2d"/>
   <rect id="rect4279" x="53.39" y="6.7425" width="21.192" height="2.4162" ry="1.2081" style="fill:url(#linearGradient2493);stroke:url(#linearGradient2495)"/>
   <path id="path4281" d="m40.978 4.5315c-0.81307 0-1.465 0.92523-1.465 2.0851v100.93 0.73652c0 1.1598 0.65191 2.0954 1.465 2.0954h12.917c4.8847-35.283 8.3242-70.567 10.427-105.85h-23.344z" style="fill:url(#linearGradient2490);opacity:.1"/>
   <g id="g4283" transform="matrix(.41004 0 0 .40612 271.02 13.441)" style="stroke-width:1.7154;stroke:#b2b2b6">
    <path id="path4285" transform="matrix(.78045 0 0 .78045 -97.704 48.407)" d="m-451.84 213.4a4.331 4.331 0 1 1-8.6621 0 4.331 4.331 0 1 1 8.6621 0z" style="fill:none;stroke-width:2.1979;stroke:#b2b2b6"/>
    <path id="path4287" d="m-451.22 217.47 3.182 3.3588" style="fill:none;stroke-linecap:square;stroke-width:1.7154;stroke:#b2b2b6"/>
   </g>
   <g id="g4289" transform="matrix(.39778 0 0 .41602 269 11.12)" style="stroke-width:1.7208;stroke:#b2b2b6">
    <path id="path4291" d="m-498.7 217.62v3.2072h6.1447v-3.2072" style="fill:none;stroke-width:1.7208;stroke:#b2b2b6"/>
    <path id="path4293" d="m-501.12 217.38 5.3125-5.4375 5.6875 5.6875" style="fill:none;stroke-width:1.7208;stroke:#b2b2b6"/>
    <path id="path4295" d="m-492.5 214.83v-2.7872" style="fill:none;stroke-linecap:square;stroke-width:1.7208;stroke:#b2b2b6"/>
   </g>
   <g id="g4297" transform="matrix(.36097 0 0 .37753 250.85 19.457)" style="stroke-width:1.8962;stroke:#b2b2b6">
    <path id="path4299" d="m-545.33 211.72h11.49" style="fill:none;stroke-linecap:square;stroke-width:1.8962;stroke:#b2b2b6"/>
    <path id="path4301" d="m-542.23 214.72h8.3946" style="enable-background:new;fill:none;stroke-linecap:square;stroke-width:1.8962;stroke:#b2b2b6"/>
    <path id="path4303" d="m-542.23 217.92h8.3946" style="enable-background:new;fill:none;stroke-linecap:square;stroke-width:1.8962;stroke:#b2b2b6"/>
    <path id="path4305" d="m-542.23 221.02h8.3946" style="enable-background:new;fill:none;stroke-linecap:square;stroke-width:1.8962;stroke:#b2b2b6"/>
   </g>
   <g id="g4307" transform="matrix(.41714 0 0 .41152 279.83 11.999)" style="stroke-width:1.6895;stroke:#b2b2b6">
    <path id="path4309" d="m-571.06 216.75-2.125-2.125 2.25-2.25" style="fill:none;stroke-linecap:square;stroke-width:1.6895;stroke:#b2b2b6"/>
    <path id="path4311" d="m-571.35 221.35h3.4752" style="fill:none;stroke-linecap:square;stroke-width:1.6895;stroke:#b2b2b6"/>
    <path id="path4313" d="m-571.81 214.57h3.7172" style="enable-background:new;fill:none;stroke-linecap:square;stroke-width:1.6895;stroke:#b2b2b6"/>
    <path id="path4315" transform="translate(14.186 .54327)" d="m-581.17 214.06a2.5312 3.375 0 1 1-0.04656 6.7491" style="fill:none;stroke-linecap:square;stroke-width:1.6895;stroke:#b2b2b6"/>
   </g>
  </g>
 </g>
</svg>
