<?xml version="1.0" encoding="UTF-8"?>
<!-- Created with Inkscape (http://www.inkscape.org/) -->
<svg id="svg11300" width="22" height="22" version="1.0" xmlns="http://www.w3.org/2000/svg" xmlns:xlink="http://www.w3.org/1999/xlink">
 <defs id="defs3">
  <linearGradient id="linearGradient5460">
   <stop id="stop5462" style="stop-color:#e5e5e5" offset="0"/>
   <stop id="stop5464" style="stop-color:#c8c8c8" offset="1"/>
  </linearGradient>
  <linearGradient id="linearGradient2296">
   <stop id="stop2298" style="stop-color:#fff" offset="0"/>
   <stop id="stop2300" style="stop-color:#fff;stop-opacity:0" offset="1"/>
  </linearGradient>
  <linearGradient id="linearGradient3116">
   <stop id="stop3118" style="stop-color:#e5e5e5" offset="0"/>
   <stop id="stop3120" style="stop-color:#dfdfdf" offset="1"/>
  </linearGradient>
  <linearGradient id="linearGradient5618" x1="48" x2="78" y1="18.534" y2="18.534" gradientTransform="matrix(.96932 .30347 -.31303 .99988 -26.514 -28.878)" gradientUnits="userSpaceOnUse" xlink:href="#linearGradient2296"/>
  <linearGradient id="linearGradient5637" x1="54.287" x2="68.843" y1="9.1136" y2="38.118" gradientTransform="matrix(.43534 -.0063415 .005796 .43784 -11.844 -2.2387)" gradientUnits="userSpaceOnUse" xlink:href="#linearGradient2296"/>
  <linearGradient id="linearGradient5641" x1="34.562" x2="50.809" y1="17.249" y2="44.77" gradientTransform="matrix(.33403 0 0 .48314 2.9238 -2.5646)" gradientUnits="userSpaceOnUse" xlink:href="#linearGradient3116"/>
  <linearGradient id="linearGradient5644" x1="35.321" x2="51.861" y1="24.984" y2="41.37" gradientTransform="matrix(.37466 0 0 .51578 1.615 -3.4762)" gradientUnits="userSpaceOnUse" xlink:href="#linearGradient5460"/>
  <linearGradient id="linearGradient6422" x1="54.287" x2="68.843" y1="9.1136" y2="38.118" gradientTransform="matrix(.43534 -.0063447 .005796 .43805 -19.844 .75966)" gradientUnits="userSpaceOnUse" xlink:href="#linearGradient2296"/>
  <linearGradient id="linearGradient6427" x1="34.562" x2="50.809" y1="17.249" y2="44.77" gradientTransform="matrix(.33402 0 0 .48314 -5.0713 .45094)" gradientUnits="userSpaceOnUse" xlink:href="#linearGradient3116"/>
  <linearGradient id="linearGradient6430" x1="35.321" x2="51.861" y1="24.984" y2="41.37" gradientTransform="matrix(.37466 0 0 .51578 -6.3801 -.46128)" gradientUnits="userSpaceOnUse" xlink:href="#linearGradient5460"/>
  <radialGradient id="radialGradient6440" cx="1.8372" cy="7.3192" r="5.988" gradientTransform="matrix(1 0 0 1.4178 0 -5.217)" gradientUnits="userSpaceOnUse" xlink:href="#linearGradient2296"/>
  <radialGradient id="radialGradient6448" cx="9.5666" cy="3.9302" r="5.988" gradientTransform="matrix(1 0 0 1.4178 0 -3.9571)" gradientUnits="userSpaceOnUse" xlink:href="#linearGradient2296"/>
 </defs>
 <g id="g6450">
  <g id="g7713" transform="matrix(.36301 -.097393 .095787 .36909 3.5108 5.5647)" style="enable-background:new;stroke-width:2.8891">
   <path id="path7715" d="m11.249 13.686c11.018 7.8164 20.074 0.26802 29.08 9.104l5.1758-18.011-1.1939-2.5247-24.804-7.853-2.7171 1.3052-5.5407 17.98z" style="fill-rule:evenodd;fill:url(#linearGradient5618);opacity:.51648"/>
  </g>
  <rect id="rect7717" transform="matrix(1 .00189 -.0015676 1 0 0)" x="8.5269" y=".48185" width="12.976" height="17.98" rx="1.2713" ry="1.3029" style="enable-background:new;fill:url(#linearGradient5644);stroke-linecap:round;stroke:#888a85"/>
  <rect id="rect7719" transform="matrix(1 .0019196 -.001542 1 0 0)" x="9.5266" y="1.4813" width="10.976" height="15.98" rx=".21896" ry=".22779" style="enable-background:new;fill:url(#linearGradient5641);stroke-linecap:round;stroke-width:1.0001;stroke:url(#radialGradient6448)"/>
  <path id="path7541" d="m10.976 2c-0.69727 0.77145-0.97954 0.98608-0.97554 1.4117 0.0039 0.41372 0.47248 0.76588 0.87174 0.4978 0.04599 0.18528 0.05888 0.39295-0.15723 0.55583 0.01768-3.626e-4 0.57132 0 0.57132 0-0.19615-0.16698-0.20743-0.38197-0.15205-0.58946 0.44751 0.30546 0.87109-0.044823 0.86614-0.5264-0.00506-0.50494-0.26809-0.66059-1.0244-1.3494z" style="enable-background:new;fill-rule:evenodd"/>
  <path id="path7721" d="m9.0661 9.6017c5.5309 1.6612 7.0816-2.6485 11.928-0.31924l0.0053-7.4449c0.004458-0.42117-0.19646-0.7016-0.82126-0.69366l-10.245-0.14388c-0.58816-0.0014967-0.95547 0.49748-0.93285 0.8735l0.065146 7.7282z" style="enable-background:new;fill-rule:evenodd;fill:url(#linearGradient5637);opacity:.51648"/>
  <path id="path7545" d="m14.902 5c-2.7891 2.6337-3.9181 3.3664-3.9022 4.8194 0.0155 1.4124 1.8899 2.6147 3.487 1.6995 0.18395 0.63252 0.23552 1.3415-0.62889 1.8976 0.07073-0.0012 2.2852 0 2.2852 0-0.78458-0.57004-0.82967-1.304-0.60815-2.0124 1.79 1.0428 3.4843-0.15302 3.4645-1.7971-0.020233-1.7239-1.0724-2.2552-4.0975-4.6069z" style="fill-rule:evenodd"/>
  <path id="path7547" d="m18.976 17c-0.69727-0.77126-0.97953-0.98583-0.97555-1.4113 0.0039-0.41362 0.47249-0.76569 0.87175-0.49768 0.04599-0.18523 0.05887-0.39285-0.15723-0.55569 0.01768 3.62e-4 0.5713 0 0.5713 0-0.19614 0.16693-0.20741 0.38188-0.15204 0.58931 0.44751-0.30538 0.87109 0.04481 0.86613 0.52626-0.0051 0.50482-0.26809 0.66043-1.0244 1.3491z" style="enable-background:new;fill-rule:evenodd"/>
  <g id="g7563" transform="matrix(.36309 -.097342 .09581 .3689 -4.4877 8.5715)" style="stroke-width:2.8891">
   <path id="path7565" d="m11.249 13.686c11.018 7.8164 20.074 0.26802 29.08 9.104l5.1758-18.011-1.1939-2.5247-24.804-7.853-2.7171 1.3052-5.5407 17.98z" style="fill-rule:evenodd;fill:url(#linearGradient5618);opacity:.51648"/>
  </g>
  <rect id="rect7567" transform="matrix(1 .00189 -.0015676 1 0 0)" x=".53181" y="3.4968" width="12.976" height="17.98" rx="1.2713" ry="1.3029" style="fill:url(#linearGradient6430);stroke-linecap:round;stroke-width:1.0004;stroke:#888a85"/>
  <rect id="rect7569" transform="matrix(1 .0019197 -.001542 1 0 0)" x="1.5314" y="4.4968" width="10.976" height="15.979" rx=".21896" ry=".22779" style="fill:url(#linearGradient6427);stroke-linecap:round;stroke-width:1.0003;stroke:url(#radialGradient6440)"/>
  <path id="path7571" d="m6.954 9.8455c1.7196-1.9293 4.0676-0.13438 4.0458 1.7021-0.019886 1.6789-1.1545 2.4781-4.0084 5.4524-2.9669-2.7908-4.0134-3.4359-3.9911-5.4278 0.022531-2.062 2.0431-3.601 3.9537-1.7267z" style="fill-rule:evenodd;fill:#c00"/>
  <path id="path7697" d="m2.9885 5.2114c0.42989-0.48232 1.0169-0.033593 1.0115 0.42553-0.0049759 0.41972-0.28863 0.61953-1.0021 1.3631-0.74172-0.69769-1.0033-0.85896-0.99778-1.3569 0.005636-0.51549 0.51079-0.90024 0.98841-0.43168z" style="enable-background:new;fill-rule:evenodd;fill:#c00"/>
  <path id="path7575" d="m1.0661 12.606c5.5309 1.6621 7.0815-2.6498 11.928-0.3194l0.0053-7.4486c0.00446-0.42138-0.19646-0.70195-0.82126-0.69401l-10.245-0.14395c-0.58815-0.0014974-0.95547 0.49772-0.93286 0.87394l0.065157 7.732z" style="fill-rule:evenodd;fill:url(#linearGradient6422);opacity:.51648"/>
  <path id="path7577" d="m10.988 19.789c0.42989 0.48232 1.0169 0.03359 1.0115-0.42553-5e-3 -0.41972-0.28863-0.61953-1.0021-1.3631-0.74172 0.69769-1.0033 0.85896-0.99778 1.3569 0.0056 0.51549 0.51079 0.90024 0.98841 0.43168z" style="enable-background:new;fill-rule:evenodd;fill:#c00"/>
 </g>
</svg>
