<?xml version="1.0" encoding="UTF-8"?>
<!-- Created with Inkscape (http://www.inkscape.org/) -->
<svg id="svg3396" width="48" height="48" version="1.0" xmlns="http://www.w3.org/2000/svg" xmlns:xlink="http://www.w3.org/1999/xlink">
 <defs id="defs3398">
  <filter id="filter10131" color-interpolation-filters="sRGB">
   <feGaussianBlur id="feGaussianBlur10133" stdDeviation="0.31195313"/>
  </filter>
  <linearGradient id="linearGradient2779-673" x1="82.453" x2="65.34" y1="45.114" y2="15.944" gradientTransform="translate(-53.765 -.11419)" gradientUnits="userSpaceOnUse">
   <stop id="stop3048" style="stop-color:#666" offset="0"/>
   <stop id="stop3050" style="stop-color:#808080" offset="1"/>
  </linearGradient>
  <linearGradient id="linearGradient2777-535" x1="41.542" x2="41.485" y1="68.292" y2="4.5363" gradientTransform="matrix(.27229 0 0 .27229 -53.176 9.5833)" gradientUnits="userSpaceOnUse">
   <stop id="stop3042" style="stop-color:#333" offset="0"/>
   <stop id="stop3044" style="stop-color:#333;stop-opacity:.61224" offset="1"/>
  </linearGradient>
  <linearGradient id="linearGradient2775-524" x1="173.1" x2="173.1" y1="75.319" y2="11.949" gradientTransform="matrix(.27229 0 0 .27229 -88.495 7.5341)" gradientUnits="userSpaceOnUse">
   <stop id="stop3036" style="stop-color:#343434;stop-opacity:.97647" offset="0"/>
   <stop id="stop3038" style="stop-color:#939393" offset="1"/>
  </linearGradient>
  <radialGradient id="radialGradient2773-3" cx="15.414" cy="13.078" r="6.6562" gradientTransform="matrix(2.071 0 0 1.6094 -75.801 -6.7778)" gradientUnits="userSpaceOnUse">
   <stop id="stop3030" style="stop-color:#fff" offset="0"/>
   <stop id="stop3032" style="stop-color:#fff;stop-opacity:.24762" offset="1"/>
  </radialGradient>
  <radialGradient id="radialGradient2771-882" cx="7.2647" cy="8.3021" r="20.98" gradientTransform="matrix(0 1.208 -1.6272 0 26.372 8.2665)" gradientUnits="userSpaceOnUse">
   <stop id="stop3024" style="stop-color:#fff;stop-opacity:.4" offset="0"/>
   <stop id="stop3026" style="stop-color:#fff;stop-opacity:0" offset="1"/>
  </radialGradient>
  <filter id="filter13078" color-interpolation-filters="sRGB">
   <feGaussianBlur id="feGaussianBlur13080" stdDeviation="0.66072995"/>
  </filter>
  <linearGradient id="linearGradient2769-669" x1="277.57" x2="201.87" y1="146.15" y2="67.35" gradientTransform="translate(-127.09 -2.6451)" gradientUnits="userSpaceOnUse">
   <stop id="stop3018" style="stop-color:#fff" offset="0"/>
   <stop id="stop3020" style="stop-color:#fff;stop-opacity:0" offset="1"/>
  </linearGradient>
  <linearGradient id="linearGradient2767-168" x1="-172.65" x2="-166.64" y1="99.667" y2="93.654" gradientTransform="translate(258.94 -13.27)" gradientUnits="userSpaceOnUse">
   <stop id="stop3012" style="stop-color:#242424;stop-opacity:.99216" offset="0"/>
   <stop id="stop3014" style="stop-color:#656565" offset="1"/>
  </linearGradient>
  <radialGradient id="radialGradient2455" cx="3" cy="5.0172" r="21" gradientTransform="matrix(-1.2749e-8 1.7143 -2.1593 -1.46e-8 12.809 2.857)" gradientUnits="userSpaceOnUse">
   <stop id="stop3486" style="stop-color:#bdbdbd" offset="0"/>
   <stop id="stop3488" style="stop-color:#d0d0d0" offset="1"/>
  </radialGradient>
  <linearGradient id="linearGradient2453" x1="62.989" x2="62.989" y1="13.183" y2="16.19" gradientTransform="translate(-50.941)" gradientUnits="userSpaceOnUse">
   <stop id="stop6406" style="stop-color:#f9f9f9" offset="0"/>
   <stop id="stop6408" style="stop-color:#c9c9c9" offset="1"/>
  </linearGradient>
  <radialGradient id="radialGradient7600-312" cx="605.71" cy="486.65" r="117.14" gradientTransform="matrix(-.03213 0 0 .037059 23.363 25.412)" gradientUnits="userSpaceOnUse">
   <stop id="stop2681" offset="0"/>
   <stop id="stop2683" style="stop-opacity:0" offset="1"/>
  </radialGradient>
  <radialGradient id="radialGradient7598-526" cx="605.71" cy="486.65" r="117.14" gradientTransform="matrix(.03213 0 0 .037059 24.637 25.412)" gradientUnits="userSpaceOnUse">
   <stop id="stop2675" offset="0"/>
   <stop id="stop2677" style="stop-opacity:0" offset="1"/>
  </radialGradient>
  <linearGradient id="linearGradient7596-975" x1="302.86" x2="302.86" y1="366.65" y2="609.51" gradientTransform="matrix(.08284 0 0 .037059 -5.9408 25.412)" gradientUnits="userSpaceOnUse">
   <stop id="stop2667" style="stop-opacity:0" offset="0"/>
   <stop id="stop2669" offset=".5"/>
   <stop id="stop2671" style="stop-opacity:0" offset="1"/>
  </linearGradient>
  <linearGradient id="linearGradient2446" x1="82.453" x2="65.34" y1="45.114" y2="15.944" gradientTransform="translate(-53.765 -.11419)" gradientUnits="userSpaceOnUse">
   <stop id="stop3624" style="stop-color:#bb2b12" offset="0"/>
   <stop id="stop3626" style="stop-color:#cd7233" offset="1"/>
  </linearGradient>
  <radialGradient id="radialGradient2444" cx="63.969" cy="14.113" r="23.097" gradientTransform="matrix(1.5647 -9.5143e-8 6.1772e-8 1.0159 -86.213 8.1461)" gradientUnits="userSpaceOnUse">
   <stop id="stop3618" style="stop-color:#f0c178" offset="0"/>
   <stop id="stop3270" style="stop-color:#e18941" offset=".5"/>
   <stop id="stop3620" style="stop-color:#ec4f18" offset="1"/>
  </radialGradient>
  <linearGradient id="linearGradient2441" x1="22.935" x2="22.809" y1="49.629" y2="36.658" gradientTransform="matrix(1.1447 0 0 .99775 -3.4661 1.0988)" gradientUnits="userSpaceOnUse">
   <stop id="stop2661" style="stop-color:#0a0a0a;stop-opacity:.498" offset="0"/>
   <stop id="stop2663" style="stop-color:#0a0a0a;stop-opacity:0" offset="1"/>
  </linearGradient>
  <linearGradient id="linearGradient2435" x1="11.566" x2="15.215" y1="22.292" y2="33.955" gradientUnits="userSpaceOnUse">
   <stop id="stop2687" style="stop-color:#fff;stop-opacity:.27451" offset="0"/>
   <stop id="stop2689" style="stop-color:#fff;stop-opacity:.078431" offset="1"/>
  </linearGradient>
 </defs>
 <g id="layer1">
  <path id="path3468" d="m3.5062 8.5c-0.69027 0.00767-1.0004 0.34215-1.0004 1 0 5.5145 0.026278 9.7396-0.00581 14.75 1.4355 0 43-3.6997 43-5.2923v-6.4515c0-0.65785-0.5542-1.0077-1.2445-1h-20.256c-2.0475 0-3.4989-3.0066-5-3.0066h-15.494 2.1e-6z" style="fill:url(#linearGradient2453);stroke-linecap:round;stroke-linejoin:round;stroke:url(#radialGradient2455)"/>
  <g id="g7591" transform="matrix(.95833 0 0 .66667 1 15)" style="opacity:.4">
   <rect id="rect4173" x="4" y="39" width="40" height="9" style="fill:url(#linearGradient7596-975)"/>
   <path id="path5058" d="m44 39v8.9995c1.6546 0.01694 4-2.0163 4-4.5003 0-2.484-1.8464-4.4992-4-4.4992z" style="fill:url(#radialGradient7598-526)"/>
   <path id="path5018" d="m4 39v8.9995c-1.6546 0.016941-4-2.0163-4-4.5003 0-2.484 1.8464-4.4992 4-4.4992z" style="fill:url(#radialGradient7600-312)"/>
  </g>
  <path id="path3388" d="m2.1629 16.525c-1.0727 0.12369-0.49977 1.4021-0.5853 2.121 0.39253 8.4701 0.78893 16.769 1.179 25.24 0.34184 0.96569 1.5944 0.47116 2.3881 0.59375h39.581c1.0894-0.10665 0.63646-1.4077 0.7897-2.1523 0.39254-8.4701 0.78894-16.769 1.179-25.24-0.25117-0.95429-1.5195-0.42401-2.2631-0.5625h-42.268v0z" style="fill:url(#radialGradient2444);stroke-linecap:round;stroke-linejoin:round;stroke:url(#linearGradient2446)"/>
  <path id="path6127" d="m2.0582 16.065 43.896 4.03e-4c0.63416 0 1.0452 0.44461 1.0452 0.99737l-1.2442 26.939c0 0.55276-0.51053 0.99775-1.1447 0.99775h-41.209c-0.63416 0-1.1447-0.445-1.1447-0.99775l-1.2442-26.939c0-0.55276 0.41099-0.99775 1.0452-0.99775z" style="fill:url(#linearGradient2441);opacity:.4"/>
  <path id="path2435" d="m46.5 17.5h-44c0.38542 8.1771 0.77083 16.354 1.1562 24.531" style="fill:none;stroke-linecap:round;stroke-linejoin:round;stroke:url(#radialGradient2771-882)"/>
  <path id="path3455" d="m45.75 16c-14.55 0.073348-29.105-0.021149-43.656 0-1.8068 0.41112-0.83441 2.4666-0.97243 3.7715 0.22203 4.1633 0.32307 8.3449 0.62046 12.497 15.001-2.3628 29.927-4.6073 44.664-7.0497 0.78099-2.5866 0.78738-5.6706 0.65736-8.4292-0.22914-0.50456-0.78701-0.80084-1.3136-0.78953z" style="fill:url(#linearGradient2435)"/>
  <rect id="rect3562" x="5" y="10" width="13" height="2" rx="1" ry="1" style="display:block;fill:#eda374"/>
 </g>
 <g id="g2664" transform="translate(69.543 8.4999)">
  <g id="g20913" transform="matrix(.27229 0 0 .27229 -54.19 8.0619)">
   <path id="path11112" d="m73.007 61.163 44.713 41.614-6.1978 8.4113-44.551-45.015 6.0359-5.0101v0z" style="fill-rule:evenodd;fill:url(#linearGradient2767-168);stroke-linecap:round;stroke-linejoin:round;stroke-width:1px;stroke:#333"/>
   <path id="path11122" d="m110.64 109.42-35.859-44.713 43.385 38.072-7.5259 6.6405z" style="fill-rule:evenodd;fill:url(#linearGradient2769-669);filter:url(#filter13078)"/>
   <path id="path13082" transform="matrix(.7127 -.79655 .79655 .7127 -146.22 222.14)" d="m248.35 110.29c0.00242 1.4678-2.3767 2.6584-5.3124 2.6584s-5.3148-1.1906-5.3124-2.6584c-0.00242-1.4678 2.3767-2.6584 5.3124-2.6584s5.3148 1.1906 5.3124 2.6584z" style="fill:#3e3e3e"/>
  </g>
  <path id="path4452" transform="matrix(1.0041 0 0 .97968 -58.602 .94746)" d="m25.898 18.478c7.12e-4 4.5892-3.7193 8.3098-8.3085 8.3098s-8.3092-3.7206-8.3085-8.3098c-7.12e-4 -4.5892 3.7193-8.3098 8.3085-8.3098s8.3092 3.7206 8.3085 8.3098z" style="fill-rule:evenodd;fill:url(#radialGradient2771-882)"/>
  <path id="path4462" d="m-41.284 12.043c-4.1593 0-7.5273 3.0135-7.5273 6.7348 0 1.0747 0.3357 2.0636 0.83637 2.9655 1.0003 0.32987 2.0628 0.55431 3.1906 0.55431 4.9287 0 8.8649-3.4741 9.1691-7.8157-1.3825-1.4617-3.3625-2.4389-5.6687-2.4389z" style="fill-rule:evenodd;fill:url(#radialGradient2773-3);opacity:.6"/>
  <path id="path2298" d="m-41.124 10.922c-5.1235 0-9.2834 3.8358-9.2834 8.5601 0 4.7243 4.1598 8.5601 9.2834 8.5601 5.1235 0 9.2834-3.8358 9.2834-8.5601 0-4.7243-4.1598-8.5601-9.2834-8.5601zm0.11062 0.5616c4.5856 0 8.3133 3.4299 8.3133 7.6581s-3.7277 7.6581-8.3133 7.6581c-4.5856 1e-6 -8.3048-3.4299-8.3048-7.6581 0-4.2283 3.7192-7.6581 8.3048-7.6581v0z" style="fill:url(#linearGradient2775-524);stroke-linecap:round;stroke-linejoin:round;stroke-width:.27229;stroke:url(#linearGradient2777-535)"/>
  <path id="path4267" transform="matrix(.27229 0 0 .27229 -54.291 8.4676)" d="m48.577 9.9205c-17.92 0-32.438 13.414-32.438 29.938 0 16.524 14.518 29.938 32.438 29.938 17.92 0 32.469-13.414 32.469-29.938 0-16.524-14.549-29.938-32.469-29.938zm0.1875 1.1562c16.841 0 30.531 12.596 30.531 28.125 0 15.529-13.69 28.125-30.531 28.125-16.841 2e-6 -30.5-12.596-30.5-28.125 0-15.529 13.659-28.125 30.5-28.125z" style="fill:url(#linearGradient2779-673);filter:url(#filter10131)"/>
 </g>
</svg>
