<?xml version="1.0" encoding="UTF-8"?>
<!-- Created with Inkscape (http://www.inkscape.org/) -->
<svg id="svg3272" width="48" height="48" version="1.0" xmlns="http://www.w3.org/2000/svg" xmlns:xlink="http://www.w3.org/1999/xlink">
 <defs id="defs3274">
  <radialGradient id="radialGradient3659" cx="22.902" cy="45.867" r="7.9059" gradientTransform="matrix(.69765 0 0 .29961 21.419 28.89)" gradientUnits="userSpaceOnUse">
   <stop id="stop3197-4" offset="0"/>
   <stop id="stop3199-8" style="stop-opacity:0" offset="1"/>
  </radialGradient>
  <radialGradient id="radialGradient3656" cx="22.902" cy="45.867" r="7.9059" gradientTransform="matrix(.75875 0 0 .32584 8.1065 29.479)" gradientUnits="userSpaceOnUse">
   <stop id="stop3203-1" offset="0"/>
   <stop id="stop3205-0" style="stop-opacity:0" offset="1"/>
  </radialGradient>
  <radialGradient id="radialGradient3652" cx="17.059" cy="41.059" r="5.7385" fx="14.638" fy="38.175" gradientTransform="matrix(.66498 0 -.10886 .63739 18.851 15.263)" gradientUnits="userSpaceOnUse">
   <stop id="stop3877-9" style="stop-color:#aaa" offset="0"/>
   <stop id="stop3879-7" style="stop-color:#4d4d4d" offset="1"/>
  </radialGradient>
  <radialGradient id="radialGradient3649" cx="17.059" cy="41.059" r="5.7385" fx="14.109" fy="38.981" gradientTransform="matrix(.66333 0 -.10859 .6358 30.91 13.497)" gradientUnits="userSpaceOnUse">
   <stop id="stop3871-4" style="stop-color:#aaa" offset="0"/>
   <stop id="stop3873-6" style="stop-color:#4d4d4d" offset="1"/>
  </radialGradient>
  <linearGradient id="linearGradient3646" x1="28.739" x2="25.4" y1="144.12" y2="119.86" gradientTransform="matrix(.22147 0 0 .22311 22.945 -6.0788)" gradientUnits="userSpaceOnUse">
   <stop id="stop3239-9" style="stop-color:#fff" offset="0"/>
   <stop id="stop3241-7" style="stop-color:#fff;stop-opacity:.37931" offset="1"/>
  </linearGradient>
  <linearGradient id="linearGradient3643" x1="28.739" x2="26.257" y1="144.12" y2="125.39" gradientTransform="matrix(.44563 0 0 .22311 29.628 -7.6573)" gradientUnits="userSpaceOnUse">
   <stop id="stop3245-1" style="stop-color:#fff" offset="0"/>
   <stop id="stop3247-7" style="stop-color:#fff;stop-opacity:.37931" offset="1"/>
  </linearGradient>
  <radialGradient id="radialGradient2788" cx="3" cy="5.0172" r="21" gradientTransform="matrix(-1.2749e-8 1.7143 -2.1593 -1.46e-8 12.809 2.857)" gradientUnits="userSpaceOnUse">
   <stop id="stop3486" style="stop-color:#bdbdbd" offset="0"/>
   <stop id="stop3488" style="stop-color:#d0d0d0" offset="1"/>
  </radialGradient>
  <linearGradient id="linearGradient2786" x1="62.989" x2="62.989" y1="13.183" y2="16.19" gradientTransform="translate(-50.941)" gradientUnits="userSpaceOnUse">
   <stop id="stop6406" style="stop-color:#f9f9f9" offset="0"/>
   <stop id="stop6408" style="stop-color:#c9c9c9" offset="1"/>
  </linearGradient>
  <radialGradient id="radialGradient7600-312" cx="605.71" cy="486.65" r="117.14" gradientTransform="matrix(-.03213 0 0 .037059 23.363 25.412)" gradientUnits="userSpaceOnUse">
   <stop id="stop2681" offset="0"/>
   <stop id="stop2683" style="stop-opacity:0" offset="1"/>
  </radialGradient>
  <radialGradient id="radialGradient7598-526" cx="605.71" cy="486.65" r="117.14" gradientTransform="matrix(.03213 0 0 .037059 24.637 25.412)" gradientUnits="userSpaceOnUse">
   <stop id="stop2675" offset="0"/>
   <stop id="stop2677" style="stop-opacity:0" offset="1"/>
  </radialGradient>
  <linearGradient id="linearGradient7596-975" x1="302.86" x2="302.86" y1="366.65" y2="609.51" gradientTransform="matrix(.08284 0 0 .037059 -5.9408 25.412)" gradientUnits="userSpaceOnUse">
   <stop id="stop2667" style="stop-opacity:0" offset="0"/>
   <stop id="stop2669" offset=".5"/>
   <stop id="stop2671" style="stop-opacity:0" offset="1"/>
  </linearGradient>
  <linearGradient id="linearGradient2779" x1="82.453" x2="65.34" y1="45.114" y2="15.944" gradientTransform="translate(-53.765 -.11419)" gradientUnits="userSpaceOnUse">
   <stop id="stop3624" style="stop-color:#bb2b12" offset="0"/>
   <stop id="stop3626" style="stop-color:#cd7233" offset="1"/>
  </linearGradient>
  <radialGradient id="radialGradient2777" cx="63.969" cy="14.113" r="23.097" gradientTransform="matrix(1.5647 -9.5143e-8 6.1772e-8 1.0159 -86.213 8.1461)" gradientUnits="userSpaceOnUse">
   <stop id="stop3618" style="stop-color:#edb763" offset="0"/>
   <stop id="stop3270" style="stop-color:#de7f32" offset=".5"/>
   <stop id="stop3620" style="stop-color:#d24413" offset="1"/>
  </radialGradient>
  <linearGradient id="linearGradient2774" x1="22.935" x2="22.809" y1="49.629" y2="36.658" gradientTransform="matrix(1.1447 0 0 .99775 -3.4661 1.0988)" gradientUnits="userSpaceOnUse">
   <stop id="stop2661" style="stop-color:#0a0a0a;stop-opacity:.498" offset="0"/>
   <stop id="stop2663" style="stop-color:#0a0a0a;stop-opacity:0" offset="1"/>
  </linearGradient>
  <radialGradient id="radialGradient2771" cx="7.2647" cy="8.3021" r="20.98" gradientTransform="matrix(0 1.208 -1.6272 0 26.372 8.2665)" gradientUnits="userSpaceOnUse">
   <stop id="stop2693" style="stop-color:#fff;stop-opacity:.4" offset="0"/>
   <stop id="stop2695" style="stop-color:#fff;stop-opacity:0" offset="1"/>
  </radialGradient>
  <linearGradient id="linearGradient2768" x1="11.566" x2="15.215" y1="22.292" y2="33.955" gradientUnits="userSpaceOnUse">
   <stop id="stop2687" style="stop-color:#fff;stop-opacity:.27451" offset="0"/>
   <stop id="stop2689" style="stop-color:#fff;stop-opacity:.078431" offset="1"/>
  </linearGradient>
 </defs>
 <g id="layer1">
  <path id="path3468" d="m3.5062 8.5c-0.69027 0.00767-1.0004 0.34215-1.0004 1 0 5.5145 0.026278 9.7396-0.00581 14.75 1.4355 0 43-3.6997 43-5.2923v-6.4515c0-0.65785-0.5542-1.0077-1.2445-1h-20.256c-2.0475 0-3.4989-3.0066-5-3.0066h-15.494 2.1e-6z" style="fill:url(#linearGradient2786);stroke-linecap:round;stroke-linejoin:round;stroke:url(#radialGradient2788)"/>
  <g id="g7591" transform="matrix(.95833 0 0 .66667 1 15)" style="opacity:.4">
   <rect id="rect4173" x="4" y="39" width="40" height="9" style="fill:url(#linearGradient7596-975)"/>
   <path id="path5058" d="m44 39v8.9995c1.6546 0.01694 4-2.0163 4-4.5003 0-2.484-1.8464-4.4992-4-4.4992z" style="fill:url(#radialGradient7598-526)"/>
   <path id="path5018" d="m4 39v8.9995c-1.6546 0.016941-4-2.0163-4-4.5003 0-2.484 1.8464-4.4992 4-4.4992z" style="fill:url(#radialGradient7600-312)"/>
  </g>
  <path id="path3388" d="m2.1629 16.525c-1.0727 0.12369-0.49977 1.4021-0.5853 2.121 0.39253 8.4701 0.78893 16.769 1.179 25.24 0.34184 0.96569 1.5944 0.47116 2.3881 0.59375h39.581c1.0894-0.10665 0.63646-1.4077 0.7897-2.1523 0.39254-8.4701 0.78894-16.769 1.179-25.24-0.25117-0.95429-1.5195-0.42401-2.2631-0.5625h-42.268v0z" style="fill:url(#radialGradient2777);stroke-linecap:round;stroke-linejoin:round;stroke:url(#linearGradient2779)"/>
  <path id="path6127" d="m2.0582 16.065 43.896 4.03e-4c0.63416 0 1.0452 0.44461 1.0452 0.99737l-1.2442 26.939c0 0.55276-0.51053 0.99775-1.1447 0.99775h-41.209c-0.63416 0-1.1447-0.445-1.1447-0.99775l-1.2442-26.939c0-0.55276 0.41099-0.99775 1.0452-0.99775z" style="fill:url(#linearGradient2774);opacity:.4"/>
  <path id="path2435" d="m46.5 17.5h-44c0.38542 8.1771 0.77083 16.354 1.1562 24.531" style="fill:none;stroke-linecap:round;stroke-linejoin:round;stroke:url(#radialGradient2771)"/>
  <path id="path3455" d="m45.75 16c-14.55 0.073348-29.105-0.021149-43.656 0-1.8068 0.41112-0.83441 2.4666-0.97243 3.7715 0.22203 4.1633 0.32307 8.3449 0.62046 12.497 15.001-2.3628 29.927-4.6073 44.664-7.0497 0.78099-2.5866 0.78738-5.6706 0.65736-8.4292-0.22914-0.50456-0.78701-0.80084-1.3136-0.78953z" style="fill:url(#linearGradient2768)"/>
  <rect id="rect3562" x="5" y="10" width="13" height="2" rx="1" ry="1" style="display:block;fill:#eda374"/>
 </g>
 <path id="path2704" d="m42.913 42.632c0 1.3082-2.4694 2.3687-5.5156 2.3687s-5.5156-1.0605-5.5156-2.3687 2.4694-2.3687 5.5156-2.3687 5.5156 1.0605 5.5156 2.3687z" style="fill:url(#radialGradient3659);opacity:.3"/>
 <path id="path4121" d="m31.482 44.425c-8.55e-4 1.4225-2.6862 2.5754-5.9986 2.5754s-5.9977-1.153-5.9986-2.5754c-8.56e-4 -1.423 2.685-2.5768 5.9986-2.5768s5.9994 1.1538 5.9986 2.5768z" style="fill:url(#radialGradient3656);opacity:.3"/>
 <path id="path4031" d="m41.378 19.504c-4.1269 0.65819-8.8722 1.3357-12.988 2.0307-1.0898 0.52625-0.84479 1.8813-0.89301 2.8646v13.162c-2.8008-0.6412-5.8751 1.4509-5.9966 4.4247-0.19829 1.8514 1.4606 3.463 3.2644 3.5063 3.2297 0.07759 5.6844-2.0431 5.7194-4.7252-0.03527-4.5043 0.0099-9.0104 0-13.515 0.5-0.03665 8.319-1.4668 9-1.5621v10.122c-2.5834-0.76106-5.1657 0.82954-5.8019 3.4956-0.47074 1.5444 0.23898 3.3701 1.7711 4.0028 2.9909 1.3602 7.1978-1.395 7.0308-4.6285-0.04632-6.0063 0.03797-12.015 0-18.022-0.07855-0.56448-0.46504-1.1967-1.1066-1.1559v0z" style="fill:#4d4d4d;stroke-linecap:round;stroke-linejoin:round;stroke:#333"/>
 <path id="path2937" d="m29.621 40.768c0 1.9878-1.7443 3.8972-3.8959 4.2647-2.1516 0.3675-3.8959-0.94604-3.8959-2.9339s1.7443-3.8972 3.8959-4.2647c2.1516-0.3675 3.8959 0.94604 3.8959 2.9339z" style="fill:url(#radialGradient3652)"/>
 <path id="path2941" d="m41.662 38.937c4.91e-4 1.9881-1.7439 3.898-3.8959 4.2655s-3.8964-0.94646-3.8959-2.9347c4.91e-4 -1.9876 1.7446-3.8964 3.8959-4.2639s3.8954 0.94563 3.8959 2.933z" style="fill:url(#radialGradient3649)"/>
 <path id="path2945" d="m28.091 38.166-0.094-15.045s0.1029-1.1502 0.86617-1.1537c0.2707-0.04687 12.136-2.0041 12.136-2.0041s1.5321 0.72791-11.015 2.7677c-1.2871 0.24744-1 0.73094-1 1.58 0 2.2902 2e-6 6.0215 2e-6 14.36 0 0.05966-0.56979-0.4227-0.89325-0.50513h2e-6z" style="fill-rule:evenodd;fill:url(#linearGradient3646);opacity:.3"/>
 <path id="path2947" d="m39.985 36.434 0.0594-11.366c0.62592-0.05597 0.0961-9e-3 0.94012-0.09284 0.01161 2.123 4.8e-4 3.8852 4.8e-4 11.903 0 0.05966-0.34916-0.36221-1-0.44464z" style="fill-rule:evenodd;fill:url(#linearGradient3643);opacity:.3"/>
</svg>
