<?xml version="1.0" encoding="UTF-8"?>
<!-- Created with Inkscape (http://www.inkscape.org/) -->
<svg id="svg2" width="24" height="24" version="1.0" xmlns="http://www.w3.org/2000/svg" xmlns:xlink="http://www.w3.org/1999/xlink">
 <defs id="defs4">
  <linearGradient id="linearGradient3587-6-5">
   <stop id="stop3589-9-2" offset="0"/>
   <stop id="stop3591-7-4" style="stop-color:#363636" offset="1"/>
  </linearGradient>
  <linearGradient id="linearGradient2485" x1="15.669" x2="15.669" y1="-2.622" y2="11.969" gradientTransform="matrix(.93023 0 0 1.236 -10.576 6.1536)" gradientUnits="userSpaceOnUse" xlink:href="#linearGradient3587-6-5"/>
  <linearGradient id="linearGradient2488" x1="35.008" x2="35.008" y1="23.179" y2="4.9946" gradientTransform="translate(-24.786 -2.0357)" gradientUnits="userSpaceOnUse" xlink:href="#linearGradient3587-6-5"/>
 </defs>
 <path id="path3229" d="m12 5c-4.416 0-8 3.584-8 8 0 4.416 3.584 8 8 8 4.416 0 8-3.584 8-8 0-4.416-3.584-8-8-8zm0 5c1.656 0 3 1.344 3 3s-1.344 3-3 3-3-1.344-3-3c1e-7 -1.656 1.344-3 3-3z" style="fill-rule:evenodd;fill:#fff;opacity:.6"/>
 <path id="path3170" d="m12 4c-4.416 0-8 3.584-8 8 0 0.897 0.16481 1.7572 0.4375 2.5625l4.75-1.5312c-0.11997-0.32416-0.1875-0.66555-0.1875-1.0312 1e-7 -1.656 1.344-3 3-3v-5zm-7.4688 10.844c0.11057 0.29067 0.23264 0.57041 0.375 0.84375-0.14508-0.27406-0.26559-0.55933-0.375-0.84375zm1.0938 1.9688c0.14803 0.19566 0.30374 0.38144 0.46875 0.5625-0.1615-0.17786-0.32361-0.37061-0.46875-0.5625zm5.4062 3.125c0.31904 0.038751 0.6393 0.0625 0.96875 0.0625-0.32972 0-0.64942-0.023676-0.96875-0.0625z" style="fill-rule:evenodd;fill:url(#linearGradient2488);opacity:.42"/>
 <path id="path3288" d="m12 4v5c1.656 1e-7 3 1.344 3 3s-1.344 3-3 3c-0.98751 0-1.8595-0.48173-2.4062-1.2188-0.1757-0.23792-0.31084-0.48556-0.40625-0.75l-4.7812 1.5312c0.25894 0.76642 0.65021 1.5023 1.1562 2.1875 1.4576 1.971 3.7998 3.25 6.4375 3.25 4.416 0 8-3.584 8-8 0-4.416-3.584-8-8-8z" style="fill:url(#linearGradient2485);opacity:.7"/>
</svg>
