<?xml version="1.0" encoding="UTF-8"?>
<!-- Created with Inkscape (http://www.inkscape.org/) -->
<svg id="svg2" width="24" height="24" version="1.0" xmlns="http://www.w3.org/2000/svg" xmlns:xlink="http://www.w3.org/1999/xlink">
 <defs id="defs4">
  <linearGradient id="linearGradient3587-6-5">
   <stop id="stop3589-9-2" offset="0"/>
   <stop id="stop3591-7-4" style="stop-color:#363636" offset="1"/>
  </linearGradient>
  <linearGradient id="linearGradient2449" x1="15.669" x2="15.669" y1="-2.622" y2="11.969" gradientTransform="matrix(.93023 0 0 1.236 -10.576 6.1536)" gradientUnits="userSpaceOnUse" xlink:href="#linearGradient3587-6-5"/>
  <linearGradient id="linearGradient2452" x1="35.008" x2="35.008" y1="23.179" y2="4.9946" gradientTransform="translate(-24.786 -2.0357)" gradientUnits="userSpaceOnUse" xlink:href="#linearGradient3587-6-5"/>
 </defs>
 <path id="path3229" d="m12 5c-4.416 0-8 3.584-8 8 0 4.416 3.584 8 8 8 4.416 0 8-3.584 8-8 0-4.416-3.584-8-8-8zm0 5c1.656 0 3 1.344 3 3s-1.344 3-3 3-3-1.344-3-3c1e-7 -1.656 1.344-3 3-3z" style="fill-rule:evenodd;fill:#fff;opacity:.6"/>
 <path id="path3170" d="m12 4c-4.416 0-8 3.584-8 8 0 2.6535 1.2902 5.0131 3.2812 6.4688l2.9375-4.0625c-0.73702-0.54678-1.2188-1.4187-1.2188-2.4062 1e-7 -1.656 1.344-3 3-3v-5zm-1.1562 10.75c0.18293 0.077977 0.36306 0.14721 0.5625 0.1875-0.19523-0.039984-0.38306-0.11156-0.5625-0.1875zm0.5625 0.1875c0.18972 0.038328 0.39284 0.0625 0.59375 0.0625-0.207 0-0.39852-0.022516-0.59375-0.0625zm-2.875 4.25c0.22641 0.1094 0.44985 0.22443 0.6875 0.3125-0.24213-0.089264-0.45707-0.20112-0.6875-0.3125z" style="fill-rule:evenodd;fill:url(#linearGradient2452);opacity:.42"/>
 <path id="path3288" d="m12 4v5c1.656 1e-7 3 1.344 3 3s-1.344 3-3 3c-0.66784 0-1.284-0.22314-1.7812-0.59375l-2.9375 4.0625c1.3224 0.96592 2.9573 1.5312 4.7188 1.5312 4.416 0 8-3.584 8-8 0-4.416-3.584-8-8-8z" style="fill:url(#linearGradient2449);opacity:.7"/>
</svg>
