<?xml version="1.0" encoding="UTF-8"?>
<!-- Created with Inkscape (http://www.inkscape.org/) -->
<svg id="svg3417" width="22" height="22" version="1.0" xmlns="http://www.w3.org/2000/svg" xmlns:xlink="http://www.w3.org/1999/xlink">
 <defs id="defs3419">
  <linearGradient id="linearGradient2582" x1="-51.786" x2="-51.786" y1="53.624" y2="2.9062" gradientTransform="matrix(.39221 0 0 .44736 28.199 -1.7387)" gradientUnits="userSpaceOnUse">
   <stop id="stop5567" style="stop-color:#71171c" offset="0"/>
   <stop id="stop5569" style="stop-color:#ed8137" offset="1"/>
  </linearGradient>
  <radialGradient id="radialGradient2580" cx="14.239" cy="11.49" r="18" gradientTransform="matrix(0 1.5891 -2.5736 0 35.379 -19.998)" gradientUnits="userSpaceOnUse">
   <stop id="stop5559" style="stop-color:#f9c590" offset="0"/>
   <stop id="stop5561" style="stop-color:#f19860" offset=".39698"/>
   <stop id="stop5563" style="stop-color:#ce5d36" offset="1"/>
  </radialGradient>
  <linearGradient id="linearGradient2577" x1="24" x2="24" y1="2" y2="46.017" gradientTransform="matrix(.45454 0 0 .44186 .090934 .39537)" gradientUnits="userSpaceOnUse">
   <stop id="stop3213" style="stop-color:#fff" offset="0"/>
   <stop id="stop3215" style="stop-color:#fff;stop-opacity:0" offset="1"/>
  </linearGradient>
  <linearGradient id="linearGradient2573" x1="16.626" x2="20.055" y1="15.298" y2="24.628" gradientTransform="matrix(.3483 0 0 .69672 2.6408 -3.1585)" gradientUnits="userSpaceOnUse">
   <stop id="stop2687" style="stop-color:#fff" offset="0"/>
   <stop id="stop2689" style="stop-color:#fff;stop-opacity:0" offset="1"/>
  </linearGradient>
  <linearGradient id="linearGradient2570" x1="32.892" x2="36.358" y1="8.059" y2="5.4565" gradientTransform="matrix(.47785 0 0 .55248 -.62775 -.076128)" gradientUnits="userSpaceOnUse">
   <stop id="stop8591" style="stop-color:#fefefe" offset="0"/>
   <stop id="stop8593" style="stop-color:#cbcbcb" offset="1"/>
  </linearGradient>
  <linearGradient id="linearGradient3375" x1="75.854" x2="91" y1="28" y2="12" gradientTransform="matrix(.55867 0 0 .44475 -30.222 2.659)" gradientUnits="userSpaceOnUse" spreadMethod="reflect">
   <stop id="stop5573" offset="0"/>
   <stop id="stop5575" style="stop-opacity:0" offset="1"/>
  </linearGradient>
  <linearGradient id="linearGradient3372" x1="75.854" x2="91" y1="28" y2="12" gradientTransform="matrix(.55867 0 0 .44475 -30.161 1.6053)" gradientUnits="userSpaceOnUse" spreadMethod="reflect">
   <stop id="stop5579" style="stop-color:#fff" offset="0"/>
   <stop id="stop5581" style="stop-color:#fff;stop-opacity:0" offset="1"/>
  </linearGradient>
  <linearGradient id="linearGradient3369" x1="53.4" x2="106.99" y1="70.079" y2="-18.244" gradientTransform="matrix(.19522 0 0 .15542 .78199 10.642)" gradientUnits="userSpaceOnUse" spreadMethod="reflect" xlink:href="#linearGradient2490-113-373"/>
  <linearGradient id="linearGradient2490-113-373">
   <stop id="stop5625" style="stop-color:#71171c" offset="0"/>
   <stop id="stop5627" style="stop-color:#ec7422" offset="1"/>
  </linearGradient>
  <linearGradient id="linearGradient3359" x1="24.239" x2="24.239" y1="42.236" y2="1.5977" gradientTransform="matrix(.49504 0 0 .50489 1.6431 -1.4966)" gradientUnits="userSpaceOnUse" xlink:href="#linearGradient2490-113-373"/>
 </defs>
 <g id="layer1">
  <path id="path4160" d="m2.5 0.49996h11.5c0.68337 0.2373 4.5413 3.1282 5.5 5 0 5.7292 3.9e-5 10.271 3.9e-5 16h-17v-21z" style="fill:url(#radialGradient2580);stroke-linejoin:round;stroke-width:.99992;stroke:url(#linearGradient2582)"/>
  <path id="path2435" d="m18.5 5.4682v15.032h-15v-19h10.394" style="fill:none;opacity:.4;stroke:url(#linearGradient2577)"/>
  <path id="path3370" d="m13.075 1c1.1563 0.32877 0.33906 4.6144 0.33906 4.6144s4.5154-0.42774 5.6077 1.195c1.4892 2.2123-0.06822-0.63517-0.17345-0.8217-0.75593-1.34-3.8663-4.5471-5.0454-4.9412-0.088232-0.029492-0.28388-0.04647-0.72791-0.04647z" style="fill-rule:evenodd;opacity:.2"/>
  <path id="path3879" d="m3.7619 1c-0.42084 0-0.7619 0.68224-0.7619 1.5241v11.148c9.65e-4 0.093779 0.021524 0.18246 0.056685 0.24452 0.035162 0.062062 0.081711 0.091825 0.12835 0.082062l15.673-4.9641c0.080625-0.025434 0.14037-0.16333 0.1415-0.32659v-3.0001l-5.0982-4.7073h-10.14z" style="fill-rule:evenodd;fill:url(#linearGradient2573);opacity:.2"/>
  <path id="path4474" d="m13 1c1.5262 0 1 4 1 4s4.9921-0.45326 4.9921 2c0-0.59774 0.05575-1.4784-0.06407-1.6559-0.83911-1.243-3.7438-3.8619-4.7981-4.2976-0.085978-0.035532-0.6859-0.04647-1.1299-0.04647z" style="fill-rule:evenodd;fill:url(#linearGradient2570)"/>
  <path id="path3743" d="m8.6063 7c-1.869 2.4764-3.7371 4.9559-5.6061 7.4323v7.5677h13.318c1.2283-1.6274 1.4176-1.8755 2.6818-3.5507v-6.8606c-3.6684-1.6202-8.0117-3.5366-10.394-4.5888z" style="fill:url(#linearGradient3375);opacity:.1"/>
  <path id="path3697" d="m8.6063 6c-1.869 2.4764-3.7371 4.9559-5.6061 7.4323v7.5677h13.318c1.2283-1.6274 1.4176-1.8755 2.6818-3.5507v-6.8606c-3.6684-1.6202-8.0117-3.5366-10.394-4.5888z" style="fill:url(#linearGradient3372);opacity:.4"/>
  <path id="path5975" d="m12.38 13.55c-1.0402 1.2956-0.62703 2.9229 0.92222 3.6322 1.5492 0.70934 3.6508 0.23352 4.691-1.0621 1.0402-1.2956 0.62703-2.9229-0.92222-3.6322-1.5492-0.70934-3.6508-0.23352-4.691 1.0621zm2.8066 1.285 1.7797-2.2168c1.2193 0.55828 1.7149 1.684 1.2397 2.8135l-3.0194-0.5967z" style="fill:url(#linearGradient3369);opacity:.3"/>
  <path id="path3445" d="m10.286 11.178c0.7169 0.005181 1.5481 0.032637 2.0709-0.55504 0.40016-0.52765 0.40451-1.2892 0.18621-1.8942-0.28279-0.69093-1.0951-0.83487-1.7508-0.81552h-0.50628v3.2648zm4.7131-1.7452c0.014981 1.1025-0.39889 2.2724-1.3317 2.8996-0.96381 0.68961-2.1754 0.78464-3.3162 0.75636-0.14208 0.015818-0.029131 0.29172-0.065233 0.41561v3.4961h-2.2865v-10.998c1.1855 0.009141 2.3719-0.020372 3.5568 0.019041 1.1353 0.071687 2.378 0.4754 2.9935 1.5234 0.33154 0.56534 0.44943 1.2363 0.44935 1.8878z" style="fill:#fff;opacity:.4"/>
  <path id="path2595" d="m10.286 10.178c0.7169 0.005181 1.5481 0.032637 2.0709-0.55504 0.40016-0.52765 0.40451-1.2892 0.18621-1.8942-0.28279-0.69093-1.0951-0.83487-1.7508-0.81552h-0.50628v3.2648zm4.7131-1.7452c0.014981 1.1025-0.39889 2.2724-1.3317 2.8996-0.96381 0.68961-2.1754 0.78464-3.3162 0.75636-0.14208 0.015818-0.029131 0.29172-0.065233 0.41561v3.4961h-2.2865v-10.998c1.1855 0.009141 2.3719-0.020372 3.5568 0.019041 1.1353 0.071687 2.378 0.4754 2.9935 1.5234 0.33154 0.56534 0.44943 1.2363 0.44935 1.8878z" style="fill:url(#linearGradient3359)"/>
 </g>
</svg>
