<?xml version="1.0" encoding="UTF-8"?>
<!-- Created with Inkscape (http://www.inkscape.org/) -->
<svg id="svg3366" width="22" height="22" version="1.0" xmlns="http://www.w3.org/2000/svg" xmlns:xlink="http://www.w3.org/1999/xlink">
 <defs id="defs3368">
  <linearGradient id="linearGradient2571" x1="-51.786" x2="-51.786" y1="53.624" y2="2.9062" gradientTransform="matrix(.39221 0 0 .44736 28.199 -1.7387)" gradientUnits="userSpaceOnUse">
   <stop id="stop4963" style="stop-color:#643340" offset="0"/>
   <stop id="stop4965" style="stop-color:#a77a86" offset="1"/>
  </linearGradient>
  <radialGradient id="radialGradient2569" cx="14.239" cy="11.49" r="18" gradientTransform="matrix(0 1.5891 -2.5736 0 35.379 -19.998)" gradientUnits="userSpaceOnUse">
   <stop id="stop4953" style="stop-color:#e694bb" offset="0"/>
   <stop id="stop4955" style="stop-color:#d3819a" offset=".26238"/>
   <stop id="stop4957" style="stop-color:#b25a64" offset=".70495"/>
   <stop id="stop4959" style="stop-color:#98313d" offset="1"/>
  </radialGradient>
  <linearGradient id="linearGradient2429" x1="24" x2="24" y1="2" y2="46.017" gradientTransform="matrix(.45454 0 0 .44186 .090934 .39537)" gradientUnits="userSpaceOnUse">
   <stop id="stop3213" style="stop-color:#fff" offset="0"/>
   <stop id="stop3215" style="stop-color:#fff;stop-opacity:0" offset="1"/>
  </linearGradient>
  <linearGradient id="linearGradient2559" x1="16.626" x2="20.055" y1="15.298" y2="24.628" gradientTransform="matrix(.3483 0 0 .69672 2.6408 -3.1585)" gradientUnits="userSpaceOnUse">
   <stop id="stop2687" style="stop-color:#fff" offset="0"/>
   <stop id="stop2689" style="stop-color:#fff;stop-opacity:0" offset="1"/>
  </linearGradient>
  <linearGradient id="linearGradient2425" x1="32.892" x2="36.358" y1="8.059" y2="5.4565" gradientTransform="matrix(.47785 0 0 .55248 -.62775 -.076128)" gradientUnits="userSpaceOnUse">
   <stop id="stop8591" style="stop-color:#fefefe" offset="0"/>
   <stop id="stop8593" style="stop-color:#cbcbcb" offset="1"/>
  </linearGradient>
  <linearGradient id="linearGradient2592" x1="24.239" x2="24.239" y1="44.11" y2=".19081" gradientTransform="matrix(.50426 0 0 .50292 -21.667 -1.2959)" gradientUnits="userSpaceOnUse">
   <stop id="stop4108" style="stop-color:#51293c" offset="0"/>
   <stop id="stop4110" style="stop-color:#876374" offset="1"/>
  </linearGradient>
  <linearGradient id="linearGradient2590" x1="75.854" x2="91" y1="28" y2="12" gradientTransform="matrix(.56069 0 0 .44682 -52.858 1.6763)" gradientUnits="userSpaceOnUse" spreadMethod="reflect">
   <stop id="stop5295" style="stop-color:#fff" offset="0"/>
   <stop id="stop5297" style="stop-color:#fff;stop-opacity:0" offset="1"/>
  </linearGradient>
  <linearGradient id="linearGradient2588" x1="75.854" x2="91" y1="28" y2="12" gradientTransform="matrix(.56069 0 0 .44682 -52.858 2.2164)" gradientUnits="userSpaceOnUse" spreadMethod="reflect">
   <stop id="stop4002" offset="0"/>
   <stop id="stop4004" style="stop-opacity:0" offset="1"/>
  </linearGradient>
 </defs>
 <g id="layer1">
  <path id="path4160" d="m2.5 0.49996h11.5c0.68337 0.2373 4.5413 3.1282 5.5 5 0 5.7292 3.9e-5 10.271 3.9e-5 16h-17v-21z" style="fill:url(#radialGradient2569);stroke-linejoin:round;stroke-width:.99992;stroke:url(#linearGradient2571)"/>
  <path id="path2435" d="m18.5 5.4682v15.032h-15v-19h10.394" style="fill:none;opacity:.4;stroke:url(#linearGradient2429)"/>
  <path id="path3370" d="m13.075 1c1.1563 0.32877 0.33906 4.6144 0.33906 4.6144s4.5154-0.42774 5.6077 1.195c1.4892 2.2123-0.06822-0.63517-0.17345-0.8217-0.75593-1.34-3.8663-4.5471-5.0454-4.9412-0.088232-0.029492-0.28388-0.04647-0.72791-0.04647z" style="fill-rule:evenodd;opacity:.2"/>
  <path id="path3879" d="m3.7619 1c-0.42084 0-0.7619 0.68224-0.7619 1.5241v11.148c9.65e-4 0.093779 0.021524 0.18246 0.056685 0.24452 0.035162 0.062062 0.081711 0.091825 0.12835 0.082062l15.673-4.9641c0.080625-0.025434 0.14037-0.16333 0.1415-0.32659v-3.0001l-5.0982-4.7073h-10.14z" style="fill-rule:evenodd;fill:url(#linearGradient2559);opacity:.2"/>
  <path id="path4474" d="m13 1c1.5262 0 1 4 1 4s4.9921-0.45326 4.9921 2c0-0.59774 0.05575-1.4784-0.06407-1.6559-0.83911-1.243-3.7438-3.8619-4.7981-4.2976-0.085978-0.035532-0.6859-0.04647-1.1299-0.04647z" style="fill-rule:evenodd;fill:url(#linearGradient2425)"/>
  <g id="g2582" transform="translate(22.574 -.13253)">
   <path id="path5316" d="m-7.2292 7.5782c-0.20593-0.0081955-0.41113 0.0011064-0.61183 0.017185-1.7662 0.1415-3.2931 1.2083-3.8803 2.9043-0.3618 1.045-0.2895 2.152 0.096604 3.1793l-7.9496 6.9674v0.48612h4.7026l-0.10199-1.3355 2.5922 0.51556 0.30592-2.3888 2.4312 0.51556 1.594-1.3576c1.6278 0.52799 3.2795 0.25826 4.476-0.61867v-5.7227c-0.19751 0.049679-0.4267 0.03739-0.64403-0.051556-0.53057-0.21715-0.83026-0.79749-0.66013-1.2889 0.1276-0.36856 0.49379-0.60745 0.88554-0.60149 0.13058 0.0019904 0.26988 0.031641 0.40252 0.085927 0.007181 0.0029395 0.009011 0.014114 0.0161 0.017186v-0.89364c-0.51835-0.13945-1.0402-0.082711-1.4491 0.15467-0.111-0.053895-0.20642-0.12454-0.32202-0.17185-0.62425-0.25548-1.266-0.38786-1.8838-0.41245z" style="fill:url(#linearGradient2588);opacity:.1"/>
   <path id="path5283" d="m-7.2292 7.0381c-0.20593-0.008196-0.41113 0.001106-0.61183 0.017185-1.7662 0.1415-3.2931 1.2083-3.8803 2.9043-0.3618 1.045-0.2895 2.152 0.096604 3.1793l-7.9496 7.0214s0.021757 0.97224 0.021757 0.97224h4.7238l-0.14491-1.8757 2.5922 0.51556 0.30592-2.3888 2.4312 0.51556 1.594-1.3576c1.6278 0.52799 3.2795 0.25826 4.476-0.61867v-5.7227c-0.19751 0.049679-0.4267 0.03739-0.64403-0.051555-0.53057-0.21715-0.83026-0.79749-0.66013-1.2889 0.1276-0.36856 0.49379-0.60746 0.88554-0.60149 0.13058 0.0019897 0.26988 0.031641 0.40252 0.085927 0.007181 0.0029391 0.009011 0.014114 0.0161 0.017185v-0.89364c-0.51835-0.13945-1.0402-0.082711-1.4491 0.15467-0.111-0.053895-0.20642-0.12454-0.32202-0.17185-0.62425-0.25548-1.266-0.38786-1.8838-0.41245z" style="fill:url(#linearGradient2590);opacity:.4"/>
   <path id="path3467" d="m-8.9259 17.133c-0.25044-0.86921-0.39795-2.1308-0.64838-3h-3.7866c-0.25294 0.86921-0.60882 2.1308-0.86176 3h-2.3516c1.1896-3.6667 2.3792-7.3333 3.5687-11h2.8475c1.1946 3.6667 2.3892 7.3333 3.5838 11h-2.3516zm-1.2923-4.5559c-0.41272-1.4527-0.88812-2.8882-1.2464-4.3555-0.069206-0.22103-0.099806-0.80881-0.16376-0.26402-0.34983 1.5592-0.8322 3.0842-1.2721 4.6195h2.6822z" style="fill:#fff;opacity:.4"/>
   <path id="text3893" d="m-8.9259 16.133c-0.25044-0.86921-0.39795-2.1308-0.64838-3h-3.7866c-0.25294 0.86921-0.60882 2.1308-0.86176 3h-2.3516c1.1896-3.6667 2.3792-7.3333 3.5687-11h2.8475c1.1946 3.6667 2.3892 7.3333 3.5838 11h-2.3516zm-1.2923-5c-0.28062-1.1399-1.2389-3.6582-1.3561-4-0.34983 1.5592-0.88621 2.4646-1.3261 4h2.6822z" style="fill:url(#linearGradient2592)"/>
  </g>
 </g>
</svg>
