<?xml version="1.0" encoding="UTF-8" standalone="no"?>
<svg
   xmlns:dc="http://purl.org/dc/elements/1.1/"
   xmlns:cc="http://creativecommons.org/ns#"
   xmlns:rdf="http://www.w3.org/1999/02/22-rdf-syntax-ns#"
   xmlns:svg="http://www.w3.org/2000/svg"
   xmlns="http://www.w3.org/2000/svg"
   xmlns:xlink="http://www.w3.org/1999/xlink"
   version="1.0"
   width="32"
   height="32"
   id="svg2526">
  <metadata
     id="metadata58">
    <rdf:RDF>
      <cc:Work
         rdf:about="">
        <dc:format>image/svg+xml</dc:format>
        <dc:type
           rdf:resource="http://purl.org/dc/dcmitype/StillImage" />
        <dc:title />
      </cc:Work>
    </rdf:RDF>
  </metadata>
  <defs
     id="defs2528">
    <linearGradient
       id="linearGradient4418">
      <stop
         id="stop4420"
         style="stop-color:#ffffff;stop-opacity:1"
         offset="0" />
      <stop
         id="stop4422"
         style="stop-color:#ffffff;stop-opacity:0.23529412"
         offset="0.00000007" />
      <stop
         id="stop4424"
         style="stop-color:#ffffff;stop-opacity:0.15686275"
         offset="1" />
      <stop
         id="stop4427"
         style="stop-color:#ffffff;stop-opacity:0.39215687"
         offset="1" />
    </linearGradient>
    <linearGradient
       id="linearGradient5060">
      <stop
         id="stop5062"
         style="stop-color:#000000;stop-opacity:1"
         offset="0" />
      <stop
         id="stop5064"
         style="stop-color:#000000;stop-opacity:0"
         offset="1" />
    </linearGradient>
    <linearGradient
       id="linearGradient5048">
      <stop
         id="stop5050"
         style="stop-color:#000000;stop-opacity:0"
         offset="0" />
      <stop
         id="stop5056"
         style="stop-color:#000000;stop-opacity:1"
         offset="0.5" />
      <stop
         id="stop5052"
         style="stop-color:#000000;stop-opacity:0"
         offset="1" />
    </linearGradient>
    <linearGradient
       x1="302.85715"
       y1="366.64789"
       x2="302.85715"
       y2="609.50507"
       id="linearGradient3188"
       xlink:href="#linearGradient5048"
       gradientUnits="userSpaceOnUse"
       gradientTransform="matrix(0.05633073,0,0,0.01647059,-4.3595357,20.961096)" />
    <radialGradient
       cx="605.71429"
       cy="486.64789"
       r="117.14286"
       fx="605.71429"
       fy="486.64789"
       id="radialGradient3190"
       xlink:href="#linearGradient5060"
       gradientUnits="userSpaceOnUse"
       gradientTransform="matrix(-0.01927752,0,0,0.01647059,14.017952,20.961131)" />
    <radialGradient
       cx="605.71429"
       cy="486.64789"
       r="117.14286"
       fx="605.71429"
       fy="486.64789"
       id="radialGradient3192"
       xlink:href="#linearGradient5060"
       gradientUnits="userSpaceOnUse"
       gradientTransform="matrix(0.01927752,0,0,0.01647059,17.982045,20.961131)" />
    <linearGradient
       id="linearGradient5127">
      <stop
         style="stop-color:#3c3b37;stop-opacity:1;"
         offset="0"
         id="stop5129" />
      <stop
         style="stop-color:#585650;stop-opacity:1"
         offset="1"
         id="stop5131" />
    </linearGradient>
    <linearGradient
       id="linearGradient4377">
      <stop
         id="stop4379"
         style="stop-color:#ffffff;stop-opacity:1"
         offset="0" />
      <stop
         id="stop4381"
         style="stop-color:#ffffff;stop-opacity:0.23529412"
         offset="0.04169057" />
      <stop
         id="stop4383"
         style="stop-color:#ffffff;stop-opacity:0.15686275"
         offset="0.95744681" />
      <stop
         id="stop4385"
         style="stop-color:#ffffff;stop-opacity:0.39215687"
         offset="1" />
    </linearGradient>
    <linearGradient
       x1="35.792694"
       y1="16.344582"
       x2="35.792694"
       y2="57.823132"
       id="linearGradient12481"
       xlink:href="#radialGradient2444"
       gradientUnits="userSpaceOnUse"
       gradientTransform="matrix(0.63800302,0,0,0.92453258,0.133467,-11.754881)" />
    <radialGradient
       id="radialGradient2444"
       gradientUnits="userSpaceOnUse"
       cy="14.113"
       cx="63.969002"
       gradientTransform="matrix(1.5647,-9.5143e-8,6.1772e-8,1.0159,-59.14917,8.1461003)"
       r="23.097">
      <stop
         id="stop3618"
         style="stop-color:#ADC980"
         offset="0" />
      <stop
         id="stop3270"
         style="stop-color:#87A752"
         offset="0.52338964" />
      <stop
         id="stop3620"
         style="stop-color:#688933"
         offset="1" />
    </radialGradient>
    <linearGradient
       xlink:href="#linearGradient4377"
       id="linearGradient4373"
       gradientUnits="userSpaceOnUse"
       gradientTransform="matrix(0.64931898,0,0,0.63398981,-71.603861,0.07943064)"
       x1="116.62612"
       y1="7.3669467"
       x2="116.62612"
       y2="44.433788" />
    <linearGradient
       xlink:href="#linearGradient4418"
       id="linearGradient4373-8"
       gradientUnits="userSpaceOnUse"
       gradientTransform="matrix(0.67951986,0,0,0.68224923,-75.164633,-0.61920785)"
       x1="116.62612"
       y1="8.2362976"
       x2="116.62612"
       y2="11.167778" />
    <linearGradient
       xlink:href="#linearGradient5127"
       id="linearGradient5133"
       x1="28.869627"
       y1="15.051808"
       x2="28.869627"
       y2="8.5417795"
       gradientUnits="userSpaceOnUse"
       gradientTransform="matrix(0.52542374,0,0,0.55319151,-0.288715,-1.2021275)" />
    <linearGradient
       xlink:href="#linearGradient4652"
       id="linearGradient4088-9-2-4"
       gradientUnits="userSpaceOnUse"
       gradientTransform="matrix(0.70312225,0,0,0.56966752,-4.9548571,-5.2833547)"
       x1="45.143997"
       y1="32.054096"
       x2="45.143997"
       y2="60.635513" />
    <linearGradient
       id="linearGradient4652">
      <stop
         offset="0"
         style="stop-color:#ffffff;stop-opacity:1"
         id="stop4654" />
      <stop
         offset="0.15768257"
         style="stop-color:#ffffff;stop-opacity:0.23529412"
         id="stop4656" />
      <stop
         offset="0.79011774"
         style="stop-color:#ffffff;stop-opacity:0.15686275"
         id="stop4658" />
      <stop
         offset="1"
         style="stop-color:#ffffff;stop-opacity:0.39215687"
         id="stop4660" />
    </linearGradient>
    <linearGradient
       id="linearGradient3331"
       y2="44.139999"
       gradientUnits="userSpaceOnUse"
       x2="-9.7747002"
       gradientTransform="matrix(0.28354,-0.28352,0.48112,0.4811,2.972,-1.5638998)"
       y1="44.229"
       x1="-6.3077998">
      <stop
         id="stop6223-8"
         offset="0" />
      <stop
         id="stop6225-5"
         style="stop-opacity:0"
         offset="1" />
    </linearGradient>
    <linearGradient
       id="linearGradient3327"
       y2="35.078999"
       gradientUnits="userSpaceOnUse"
       x2="90.221001"
       gradientTransform="matrix(0.50611,-0.50534,0.44267,0.442,-42.846,52.2705)"
       y1="35.152"
       x1="97.442001">
      <stop
         id="stop4958-1"
         style="stop-color:#f8b17e"
         offset="0" />
      <stop
         id="stop4960-1"
         style="stop-color:#e35d4f"
         offset=".26238" />
      <stop
         id="stop4962-5"
         style="stop-color:#c6262e"
         offset=".66347" />
      <stop
         id="stop4964-9"
         style="stop-color:#690b54"
         offset="1" />
    </linearGradient>
    <linearGradient
       id="linearGradient3324"
       y2="88.005997"
       gradientUnits="userSpaceOnUse"
       x2="317.16"
       gradientTransform="matrix(0.83846,0,0,0.83694,-246.896,-39.6205)"
       y1="75.574997"
       x1="326.60001">
      <stop
         id="stop7423-0"
         style="stop-color:#fff"
         offset="0" />
      <stop
         id="stop7425-2"
         style="stop-color:#fff;stop-opacity:0"
         offset="1" />
    </linearGradient>
    <linearGradient
       id="linearGradient3322"
       y2="60.768002"
       gradientUnits="userSpaceOnUse"
       x2="308.64999"
       gradientTransform="matrix(0.83846,0,0,0.83694,-246.896,-39.6205)"
       y1="58.443001"
       x1="302.29001">
      <stop
         id="stop7383-0"
         style="stop-color:#babdb6"
         offset="0" />
      <stop
         id="stop7385-3"
         style="stop-color:#fff"
         offset="1" />
    </linearGradient>
    <linearGradient
       id="linearGradient3318"
       y2="81.926003"
       gradientUnits="userSpaceOnUse"
       x2="335.29999"
       gradientTransform="matrix(0.83846,0,0,0.83694,-247.066,-39.7675)"
       y1="64.294998"
       x1="304.76001">
      <stop
         id="stop4436-4"
         style="stop-color:#d3d7cf"
         offset="0" />
      <stop
         id="stop4438-4"
         style="stop-color:#babdb6"
         offset=".18304" />
      <stop
         id="stop4440-4"
         style="stop-color:#fff"
         offset=".31893" />
      <stop
         id="stop4442-4"
         style="stop-color:#babdb6"
         offset=".87644" />
      <stop
         id="stop4444-7"
         style="stop-color:#eeeeec"
         offset="1" />
    </linearGradient>
  </defs>
  <rect
     style="display:inline;overflow:visible;visibility:visible;fill:url(#linearGradient3188);fill-opacity:1;fill-rule:nonzero;stroke:none;stroke-width:1;marker:none;opacity:0.3"
     id="rect2879"
     y="27"
     x="2.4001522"
     height="3.9999995"
     width="27.199696" />
  <path
     style="display:inline;overflow:visible;visibility:visible;fill:url(#radialGradient3190);fill-opacity:1;fill-rule:nonzero;stroke:none;stroke-width:1;marker:none;opacity:0.3"
     id="path2881"
     d="m 2.4001523,27.000173 0,3.99978 c -0.9927447,0.0075 -2.3999731,-0.896148 -2.3999731,-2.000148 0,-1.103997 1.1078281,-1.99963 2.3999731,-1.999632 z" />
  <path
     style="display:inline;overflow:visible;visibility:visible;fill:url(#radialGradient3192);fill-opacity:1;fill-rule:nonzero;stroke:none;stroke-width:1;marker:none;opacity:0.3"
     id="path2883"
     d="m 29.599848,27.000173 0,3.99978 c 0.992744,0.0075 2.399973,-0.896148 2.399973,-2.000148 0,-1.103997 -1.107828,-1.99963 -2.399973,-1.999632 z" />
  <rect
     x="0.5"
     y="3.5"
     width="31"
     height="26"
     ry="1"
     rx="1"
     style="color:#000000;clip-rule:nonzero;display:inline;overflow:visible;visibility:visible;opacity:1;isolation:auto;mix-blend-mode:normal;color-interpolation:sRGB;color-interpolation-filters:linearRGB;solid-color:#000000;solid-opacity:1;fill:url(#linearGradient12481);fill-opacity:1;fill-rule:nonzero;stroke:none;stroke-width:1;stroke-linecap:butt;stroke-linejoin:miter;stroke-miterlimit:4;stroke-dasharray:none;stroke-dashoffset:0;stroke-opacity:1;marker:none;color-rendering:auto;image-rendering:auto;shape-rendering:auto;text-rendering:auto;enable-background:accumulate"
     id="rect2573" />
  <rect
     x="1.5"
     y="4.4999995"
     width="29"
     height="24"
     style="color:#000000;clip-rule:nonzero;display:inline;overflow:visible;visibility:visible;opacity:0.5;isolation:auto;mix-blend-mode:normal;color-interpolation:sRGB;color-interpolation-filters:linearRGB;solid-color:#000000;solid-opacity:1;fill:none;fill-opacity:1;fill-rule:nonzero;stroke:url(#linearGradient4373);stroke-width:1;stroke-linecap:round;stroke-linejoin:round;stroke-miterlimit:4;stroke-dasharray:none;stroke-dashoffset:0;stroke-opacity:1;marker:none;color-rendering:auto;image-rendering:auto;shape-rendering:auto;text-rendering:auto;enable-background:accumulate"
     id="rect2601" />
  <path
     style="opacity:0.15;fill:none;fill-rule:evenodd;stroke:#12160a;stroke-width:0.99999994px;stroke-linecap:butt;stroke-linejoin:miter;stroke-opacity:1"
     d="m 1,8.5 30,0"
     id="path4525-61-9" />
  <path
     style="opacity:0.05;fill:none;fill-rule:evenodd;stroke:#12160a;stroke-width:0.99999994px;stroke-linecap:butt;stroke-linejoin:miter;stroke-opacity:1"
     d="m 1,9.5 30,0"
     id="path4525-6-8" />
  <path
     style="color:#000000;display:inline;overflow:visible;visibility:visible;opacity:1;fill:url(#linearGradient5133);fill-opacity:1;fill-rule:evenodd;stroke:none;stroke-width:1;marker:none;enable-background:accumulate;clip-rule:nonzero;isolation:auto;mix-blend-mode:normal;color-interpolation:sRGB;color-interpolation-filters:linearRGB;solid-color:#000000;solid-opacity:1;stroke-linecap:butt;stroke-linejoin:miter;stroke-miterlimit:4;stroke-dasharray:none;stroke-dashoffset:0;stroke-opacity:1;filter-blend-mode:normal;filter-gaussianBlur-deviation:0;color-rendering:auto;image-rendering:auto;shape-rendering:auto;text-rendering:auto"
     d="m 0.499999,8 0,-3.4355471 c 0,-0.589362 0.468612,-1.064453 1.050781,-1.064453 l 28.898438,0 c 0.582169,0 1.050781,0.475091 1.050781,1.064453 l 0,3.4355471 z"
     id="rect4341" />
  <rect
     x="0.5"
     y="3.5"
     width="31"
     height="26"
     ry="1"
     rx="1"
     style="color:#000000;clip-rule:nonzero;display:inline;overflow:visible;visibility:visible;opacity:0.3;isolation:auto;mix-blend-mode:normal;color-interpolation:sRGB;color-interpolation-filters:linearRGB;solid-color:#000000;solid-opacity:1;fill:none;fill-opacity:1;fill-rule:nonzero;stroke:#000000;stroke-width:1;stroke-linecap:round;stroke-linejoin:round;stroke-miterlimit:4;stroke-dasharray:none;stroke-dashoffset:0;stroke-opacity:1;marker:none;color-rendering:auto;image-rendering:auto;shape-rendering:auto;text-rendering:auto;enable-background:accumulate"
     id="rect2573-9" />
  <path
     style="color:#000000;clip-rule:nonzero;display:inline;overflow:visible;visibility:visible;opacity:0.15;isolation:auto;mix-blend-mode:normal;color-interpolation:sRGB;color-interpolation-filters:linearRGB;solid-color:#000000;solid-opacity:1;fill:none;fill-opacity:1;fill-rule:nonzero;stroke:url(#linearGradient4373-8);stroke-width:0.99999988;stroke-linecap:round;stroke-linejoin:round;stroke-miterlimit:4;stroke-dasharray:none;stroke-dashoffset:0;stroke-opacity:1;marker:none;color-rendering:auto;image-rendering:auto;shape-rendering:auto;text-rendering:auto;enable-background:accumulate"
     d="m 1.5,4.5 0,3 29,0 0,-3 z"
     id="rect2601-0" />
  <rect
     id="rect7303"
     style="opacity:0.9;fill:#ffffff"
     rx="0.75"
     ry="0.5"
     height="7"
     width="9"
     y="18"
     x="4.0003996" />
  <rect
     id="rect7305"
     style="opacity:0.3"
     height="1"
     width="7"
     y="19"
     x="4.9999995" />
  <rect
     id="rect7303-8"
     style="opacity:0.9;fill:#ffffff"
     rx="0.75"
     ry="0.75"
     height="11"
     width="12"
     y="10"
     x="15.999999" />
  <rect
     id="rect7305-5"
     style="opacity:0.3"
     height="1"
     width="10"
     y="11.000001"
     x="17" />
  <path
     d="m 8.819,3.5004002 c -0.10078,-0.00504 -0.20179,0.035729 -0.26913,0.11524 -0.08979,0.106 -0.08966,0.26326 -0.01922,0.38415 l 1.8839,3.3613 c 0.16917,0.30214 0.08042,0.69737 -0.19224,1.0948 -0.27523,0.40121 -0.74049,0.79522 -1.3264,1.114 C 8.30986,9.8887402 7.73261,10.07196 7.24271,10.08849 6.75572,10.10498 6.37424,9.9688702 6.20461,9.6659302 l -1.9031,-3.3997 C 4.24869,6.1721752 4.15912,6.1250602 4.0516,6.1125702 3.94409,6.1000982 3.83497,6.1290122 3.76325,6.2086062 c -0.03874,0.041346 -0.06365,0.098646 -0.07689,0.15366 -0.36483,1.5694 -0.19219,3.3737 0.49981,4.6096998 0.94505,1.688 2.917,2.4919 4.8443,2.1512 0.78757,0.26447 2.1261,0.72391 3.3643,1.9516 l 2.5529,-2.7161 c -1.1162,-1.1067 -1.6379,-2.1166 -1.9379,-2.8656998 0.26031,-1.0357 0.14407,-2.1332 -0.40369,-3.1116 -0.69172,-1.2355 -2.1334,-2.3292 -3.6717,-2.8619 C 8.90139,3.5074142 8.85263,3.5019302 8.81904,3.5002582 Z"
     style="fill:url(#linearGradient3318);fill-rule:evenodd;stroke:none;stroke-linecap:round;stroke-linejoin:round;stroke-dashoffset:0.3612;enable-background:new"
     id="path6912-9" />
  <path
     d="m 8.99,3.9530002 c 0.01568,0.00584 0.0058,0.026109 0,0.026196 l 1.887,3.3743 c 0.2545,0.45453 0.07093,0.99132 -0.23582,1.4385 -0.3098,0.4516 -0.78983,0.88917 -1.4149,1.2292998 -0.62642,0.34082 -1.2835,0.5045 -1.8341,0.52309 -0.54948,0.01858 -1.0652,-0.13802 -1.3101,-0.5753998 l -1.8865,-3.4001 c -0.01082,-0.0017 -0.02801,0.0017 -0.02624,0 0.01728,-0.01841 0.0033,0.01339 0,0.0262 -0.3479,1.4966 -0.16746,3.2263 0.47164,4.3677998 0.8742,1.5614 2.6994,2.3072 4.5067,1.9877 1.7989,-0.3214 3.3371,-1.8858 3.7207,-3.3738998 0.24224,-0.9638 0.13904,-1.9996 -0.36683,-2.9031 -0.63736,-1.1384 -2.0395,-2.2104 -3.5111,-2.7201 l 4.3e-5,-8.36e-5 z"
     style="fill:url(#linearGradient3322);fill-rule:evenodd;enable-background:new"
     id="path7379-6" />
  <path
     d="m 9.93,4.8959002 1.2688,2.2665 c 0.35766,0.63876 0.0981,1.3366 -0.24991,1.8439 -0.3516,0.51254 -0.86549,0.95947 -1.5379,1.3252998 -0.67522,0.36737 -1.3751,0.57435 -1.9992,0.59542 -0.62502,0.0211 -1.3174,-0.1684 -1.6532,-0.76829 L 4.45139,7.7962302 c -0.05584,1.1032 0.07198,2.2129998 0.49981,2.9770998 0.78855,1.4085 2.4515,2.0993 4.1138,1.8055 0.12169,-0.024 0.2482,-0.0026 0.36525,0.03842 0.901,0.30256 2.026,0.92016 3.3257,2.2088 l 0.61515,0.61463 1.9031,-1.9015 -0.59593,-0.59542 c -1.1718,-1.1618 -1.8138,-2.1876 -2.153,-3.0346998 -0.05114,-0.13247 -0.05343,-0.26557 -0.01922,-0.40335 0.22041,-0.87694 0.12842,-1.8375 -0.3268,-2.6506 -0.41606,-0.74312 -1.2925,-1.4215 -2.2492,-1.9591 z"
     style="fill:none;stroke:url(#linearGradient3324);stroke-width:0.69999999;stroke-linecap:round;stroke-dashoffset:0.3612;enable-background:new"
     id="path4756-2" />
  <path
     d="m 12.66,12.1565 c -0.08422,0.0072 -0.15857,0.02404 -0.21146,0.07683 l -0.38447,0.40335 c -0.21156,0.21117 -0.05736,0.73059 0.36525,1.1524 l 1.3072,1.2869 1.1534,-1.1716 -1.288,-1.2869 c -0.31696,-0.31639 -0.6893,-0.48259 -0.94195,-0.46097 z"
     style="opacity:0.07999998;fill-rule:evenodd;enable-background:new"
     id="rect7166-1" />
  <path
     d="m 8.819,3.5004002 c -0.10078,-0.00504 -0.20179,0.035729 -0.26913,0.11524 -0.08979,0.106 -0.08966,0.26326 -0.01922,0.38415 l 1.8839,3.3613 c 0.16917,0.30214 0.08042,0.69737 -0.19224,1.0948 -0.27523,0.40121 -0.74049,0.79522 -1.3264,1.114 C 8.30986,9.8887402 7.73261,10.07196 7.24271,10.08849 6.75572,10.10498 6.37424,9.9688702 6.20461,9.6659302 l -1.9031,-3.3997 C 4.24869,6.1721752 4.15912,6.1250602 4.0516,6.1125702 3.94409,6.1000982 3.83497,6.1290122 3.76325,6.2086062 c -0.03874,0.041346 -0.06365,0.098646 -0.07689,0.15366 -0.36483,1.5694 -0.19219,3.3737 0.49981,4.6096998 0.94505,1.688 2.917,2.4919 4.8443,2.1512 0.78757,0.26447 2.1261,0.72391 3.3643,1.9516 l 2.5529,-2.7161 c -1.1162,-1.1067 -1.6379,-2.1166 -1.9379,-2.8656998 0.26031,-1.0357 0.14407,-2.1332 -0.40369,-3.1116 -0.69172,-1.2355 -2.1334,-2.3292 -3.6717,-2.8619 C 8.90139,3.5074142 8.85263,3.5019302 8.81904,3.5002582 Z"
     style="opacity:0.3;fill:none;fill-rule:evenodd;stroke:#000000;stroke-linecap:round;stroke-linejoin:round;stroke-dashoffset:0.3612;stroke-opacity:1;enable-background:new"
     id="path6912-9-1" />
  <path
     d="m 12.293,14.9735 13.085,13.949 c 0.85834,0.85704 2.3279,0.74483 3.3092,-0.23502 0.98135,-0.97986 1.0937,-2.4472 0.23538,-3.3042 l -13.972,-13.065 -2.658,2.655 z m 13.735,11.06 c 0.48786,-0.48711 1.2844,-0.48711 1.7723,0 0.48786,0.48711 0.48786,1.2825 1e-6,1.7696 -0.48786,0.48711 -1.2844,0.48711 -1.7723,0 -0.48786,-0.48712 -0.48786,-1.2825 0,-1.7696 z"
     style="fill:url(#linearGradient3327);stroke:none;stroke-width:0.99962997;stroke-linecap:round;stroke-linejoin:round;stroke-dashoffset:0.69999999;enable-background:new"
     id="path6899-7" />
  <path
     d="m 15.197,15.1965 c 0.31416,-0.31414 0.88924,-0.24489 1.2894,0.15525 l 8.3239,7.5663 c 0.40016,0.40015 0.09095,1.354 -0.22322,1.6682 -0.31417,0.31414 -1.2679,0.62397 -1.6681,0.22382 l -7.5668,-8.3242 c -0.40016,-0.40015 -0.46939,-0.97519 -0.15523,-1.2893 z"
     style="opacity:0.23106001;fill:url(#linearGradient3331)"
     id="rect6533-8" />
  <path
     d="M 12.293,14.973501 25.378,28.9225 c 0.85834,0.85704 2.3279,0.74483 3.3092,-0.23502 0.98135,-0.97986 1.0937,-2.4472 0.23538,-3.3042 L 14.950579,12.31828 12.29258,14.973281 Z M 26.028,26.0335 c 0.48786,-0.48711 1.2844,-0.48711 1.7723,0 0.48786,0.48711 0.48786,1.2825 1e-6,1.7696 -0.48786,0.48711 -1.2844,0.48711 -1.7723,0 -0.48786,-0.48712 -0.48786,-1.2825 0,-1.7696 z"
     style="color:#000000;clip-rule:nonzero;display:inline;overflow:visible;visibility:visible;opacity:0.5;isolation:auto;mix-blend-mode:normal;color-interpolation:sRGB;color-interpolation-filters:linearRGB;solid-color:#000000;solid-opacity:1;fill:none;fill-opacity:1;fill-rule:nonzero;stroke:#6f0000;stroke-width:0.99962997;stroke-linecap:round;stroke-linejoin:round;stroke-miterlimit:4;stroke-dasharray:none;stroke-dashoffset:0.69999999;stroke-opacity:1;color-rendering:auto;image-rendering:auto;shape-rendering:auto;text-rendering:auto;enable-background:new"
     id="path6899-7-2" />
  <path
     style="color:#000000;clip-rule:nonzero;display:inline;overflow:visible;visibility:visible;opacity:0.5;isolation:auto;mix-blend-mode:normal;color-interpolation:sRGB;color-interpolation-filters:linearRGB;solid-color:#000000;solid-opacity:1;fill:none;fill-opacity:1;fill-rule:nonzero;stroke:url(#linearGradient4088-9-2-4);stroke-width:1;stroke-linecap:round;stroke-linejoin:round;stroke-miterlimit:4;stroke-dasharray:none;stroke-dashoffset:0;stroke-opacity:1;color-rendering:auto;image-rendering:auto;shape-rendering:auto;text-rendering:auto;enable-background:accumulate"
     id="path4567"
     d="m 14.974609,13.716797 -1.28125,1.279297 11.033203,11.759765 c 0.03992,-0.519571 0.19668,-1.041041 0.589844,-1.433593 C 25.7096,24.929676 26.233827,24.771309 26.75,24.730469 L 14.974609,13.716797 Z" />
</svg>
