<?xml version="1.0" encoding="UTF-8"?>
<!-- Created with Inkscape (http://www.inkscape.org/) -->
<svg id="svg3225" width="22" height="22" version="1.0" xmlns="http://www.w3.org/2000/svg">
 <g id="layer1" transform="translate(-1,-1)">
  <path id="path3219" d="m10.812 2c-0.47692 0.093165-0.81894 0.51411-0.8125 1v2h-5.7812c-1.7167 0-3.2188 1.2946-3.2188 3v8c0 1.7054 1.5021 3 3.2188 3h15.562c1.7167 0 3.2188-1.2946 3.2188-3v-8c0-1.7054-1.5021-3-3.2188-3h-1.7812v-1c-0.002917-0.55107-0.44893-0.99708-1-1h-2c-0.002917-0.55107-0.44893-0.99708-1-1h-3c-0.062364-0.005841-0.12514-0.005841-0.1875 0zm-6.6875 6c0 0.024458-0.036244 0 0.09375 0-0.026876 0.065886-0.076492 0.11772-0.09375 0.1875v-0.1875zm15.656 0c0.12999 0 0.09375 0.024459 0.09375 0v0.1875c-0.017258-0.069784-0.066874-0.12161-0.09375-0.1875zm-15.656 1.8125c0.061314 0.24793 0.11213 0.50238 0.28125 0.6875-0.16912 0.18512-0.21994 0.43957-0.28125 0.6875v-1.375zm15.75 0v1.375c-0.061314-0.24793-0.11214-0.50238-0.28125-0.6875 0.16912-0.18512 0.21994-0.43957 0.28125-0.6875zm-15.75 3c0.16192 0.65472 0.67807 1.1875 1.375 1.1875h0.71875c-0.070141 0.17195-0.21875 0.30614-0.21875 0.5v1c0 0.19386 0.14861 0.32805 0.21875 0.5h-2c-0.12999 0-0.09375-0.024457-0.09375 0v-3.1875zm15.75 0v3.1875c0-0.024458 0.036243 0-0.09375 0h-2c0.070141-0.17195 0.21875-0.30614 0.21875-0.5v-1c0-0.19386-0.14861-0.32805-0.21875-0.5h0.71875c0.69694 0 1.2131-0.53278 1.375-1.1875z" style="fill-rule:evenodd;fill:#eae3d0;opacity:.6"/>
  <path id="rect2396" d="m11 3v3h-6.7812c-1.2311 0-2.2188 0.892-2.2188 2v8c0 1.108 0.98764 2 2.2188 2h15.562c1.2311 0 2.2188-0.892 2.2188-2v-8c0-1.108-0.98764-2-2.2188-2h-7.7812v-2h1v1h4v-1h-3v-1h-3zm-6.7812 4h15.562c0.61555 0 1.0938 0.446 1.0938 1v8c0 0.554-0.4782 1-1.0938 1h-15.562c-0.61556 0-1.0938-0.446-1.0938-1v-8c-1e-7 -0.554 0.47819-1 1.0938-1zm1.2812 1c-0.277 0-0.5 0.223-0.5 0.5v1c0 0.277 0.223 0.5 0.5 0.5h1c0.277 0 0.5-0.223 0.5-0.5v-1c0-0.277-0.223-0.5-0.5-0.5h-1zm3 0c-0.277 0-0.5 0.223-0.5 0.5v1c0 0.277 0.223 0.5 0.5 0.5h1c0.277 0 0.5-0.223 0.5-0.5v-1c0-0.277-0.223-0.5-0.5-0.5h-1zm3 0c-0.277 0-0.5 0.223-0.5 0.5v1c0 0.277 0.223 0.5 0.5 0.5h1c0.277 0 0.5-0.223 0.5-0.5v-1c0-0.277-0.223-0.5-0.5-0.5h-1zm3 0c-0.277 0-0.5 0.223-0.5 0.5v1c0 0.277 0.223 0.5 0.5 0.5h1c0.277 0 0.5-0.223 0.5-0.5v-1c0-0.277-0.223-0.5-0.5-0.5h-1zm3 0c-0.277 0-0.5 0.223-0.5 0.5v1c0 0.277 0.223 0.5 0.5 0.5h1c0.277 0 0.5-0.223 0.5-0.5v-1c0-0.277-0.223-0.5-0.5-0.5h-1zm-12 3c-0.277 0-0.5 0.223-0.5 0.5v1c0 0.277 0.223 0.5 0.5 0.5h1c0.277 0 0.5-0.223 0.5-0.5v-1c0-0.277-0.223-0.5-0.5-0.5h-1zm3 0c-0.277 0-0.5 0.223-0.5 0.5v1c0 0.277 0.223 0.5 0.5 0.5h1c0.277 0 0.5-0.223 0.5-0.5v-1c0-0.277-0.223-0.5-0.5-0.5h-1zm3 0c-0.277 0-0.5 0.223-0.5 0.5v1c0 0.277 0.223 0.5 0.5 0.5h1c0.277 0 0.5-0.223 0.5-0.5v-1c0-0.277-0.223-0.5-0.5-0.5h-1zm3 0c-0.277 0-0.5 0.223-0.5 0.5v1c0 0.277 0.223 0.5 0.5 0.5h1c0.277 0 0.5-0.223 0.5-0.5v-1c0-0.277-0.223-0.5-0.5-0.5h-1zm3 0c-0.277 0-0.5 0.223-0.5 0.5v1c0 0.277 0.223 0.5 0.5 0.5h1c0.277 0 0.5-0.223 0.5-0.5v-1c0-0.277-0.223-0.5-0.5-0.5h-1zm-10 3c-0.277 0-0.5 0.223-0.5 0.5v1c0 0.277 0.223 0.5 0.5 0.5h9c0.277 0 0.5-0.223 0.5-0.5v-1c0-0.277-0.223-0.5-0.5-0.5h-9z" style="fill-rule:evenodd;fill:#3a3935"/>
 </g>
</svg>
