<?xml version="1.0" encoding="UTF-8"?>
<!-- Created with Inkscape (http://www.inkscape.org/) -->
<svg id="svg4030" width="64" height="64" version="1.0" xmlns="http://www.w3.org/2000/svg" xmlns:xlink="http://www.w3.org/1999/xlink">
 <defs id="defs4032">
  <radialGradient id="radialGradient3944" cx="5" cy="41.5" r="5" gradientTransform="matrix(.59382 0 0 1.5367 41.141 -103.94)" gradientUnits="userSpaceOnUse" xlink:href="#linearGradient3681"/>
  <linearGradient id="linearGradient3942" x1="17.554" x2="17.554" y1="46" y2="35" gradientTransform="matrix(1.757 0 0 1.397 -17.394 -16.412)" gradientUnits="userSpaceOnUse">
   <stop id="stop3705" style="stop-opacity:0" offset="0"/>
   <stop id="stop3711" offset=".5"/>
   <stop id="stop3707" style="stop-opacity:0" offset="1"/>
  </linearGradient>
  <linearGradient id="linearGradient3681">
   <stop id="stop3683" offset="0"/>
   <stop id="stop3685" style="stop-opacity:0" offset="1"/>
  </linearGradient>
  <radialGradient id="radialGradient3940" cx="5" cy="41.5" r="5" gradientTransform="matrix(.59382 0 0 1.5367 -6.6595 -103.94)" gradientUnits="userSpaceOnUse" xlink:href="#linearGradient3681"/>
  <linearGradient id="linearGradient3974" x1="15.464" x2="15.464" y1="7.9757" y2="45.042" gradientTransform="matrix(1.3414 0 0 1.3287 -.19366 .37019)" gradientUnits="userSpaceOnUse">
   <stop id="stop3297" style="stop-color:#c9af8b" offset="0"/>
   <stop id="stop3299" style="stop-color:#ad8757" offset=".23942"/>
   <stop id="stop3301" style="stop-color:#c2a57f" offset=".27582"/>
   <stop id="stop3303" style="stop-color:#9d7d53" offset="1"/>
  </linearGradient>
  <linearGradient id="linearGradient3972" x1="24.823" x2="24.997" y1="15.378" y2="37.277" gradientTransform="matrix(1.72 0 0 2.0692 -8.3362 -19.947)" gradientUnits="userSpaceOnUse">
   <stop id="stop3201" style="stop-color:#dac197" offset="0"/>
   <stop id="stop3203" style="stop-color:#c1a581" offset=".23942"/>
   <stop id="stop3205" style="stop-color:#dac197" offset=".27582"/>
   <stop id="stop3207" style="stop-color:#a68b60" offset="1"/>
  </linearGradient>
  <radialGradient id="radialGradient3969" cx="24" cy="31" r="20" gradientTransform="matrix(2.2339 0 0 .875 -21.614 14.375)" gradientUnits="userSpaceOnUse">
   <stop id="stop3225" style="stop-color:#cbad7a" offset="0"/>
   <stop id="stop3227" style="stop-color:#cbae7d;stop-opacity:0" offset="1"/>
  </radialGradient>
  <linearGradient id="linearGradient3966" x1="23.452" x2="43.007" y1="30.555" y2="45.934" gradientTransform="matrix(1.72 0 0 1.5609 -8.3362 -6.6763)" gradientUnits="userSpaceOnUse">
   <stop id="stop4561" style="stop-color:#fff;stop-opacity:0" offset="0"/>
   <stop id="stop4563" style="stop-color:#fff;stop-opacity:0" offset="1"/>
  </linearGradient>
  <linearGradient id="linearGradient3960" x1="44.995" x2="3.0052" y1="17.5" y2="17.5" gradientTransform="matrix(1.3418 0 0 1.3287 -.20316 .24702)" gradientUnits="userSpaceOnUse" spreadMethod="reflect">
   <stop id="stop3277" style="stop-color:#fff;stop-opacity:0" offset="0"/>
   <stop id="stop3283" style="stop-color:#fff" offset=".16682"/>
   <stop id="stop3285" style="stop-color:#fff" offset=".83238"/>
   <stop id="stop3279" style="stop-color:#fff;stop-opacity:0" offset="1"/>
  </linearGradient>
  <linearGradient id="linearGradient3963" x1="26" x2="26" y1="22" y2="8" gradientTransform="matrix(1.5 0 0 1.3571 -4 .14286)" gradientUnits="userSpaceOnUse">
   <stop id="stop3982" style="stop-color:#fff" offset="0"/>
   <stop id="stop3984" style="stop-color:#fff" offset=".32469"/>
   <stop id="stop3986" style="stop-color:#fff;stop-opacity:.6902" offset=".37369"/>
   <stop id="stop3988" style="stop-color:#fff;stop-opacity:0" offset="1"/>
  </linearGradient>
  <linearGradient id="linearGradient3076" x1="22.369" x2="22.369" y1="8.0323" y2="38.274" gradientTransform="matrix(.81016 0 0 .80527 30.878 31.355)" gradientUnits="userSpaceOnUse">
   <stop id="stop3945" style="stop-color:#fff" offset="0"/>
   <stop id="stop3947" style="stop-color:#fff;stop-opacity:0" offset="1"/>
  </linearGradient>
  <radialGradient id="radialGradient3164" cx="69.448" cy="51.695" r="31" gradientTransform="matrix(0 .89357 -.97209 0 96.232 -21.684)" gradientUnits="userSpaceOnUse">
   <stop id="stop3244-5" style="stop-color:#eef87e" offset="0"/>
   <stop id="stop3246-9" style="stop-color:#cde34f" offset=".26238"/>
   <stop id="stop3248-7" style="stop-color:#93b723" offset=".66094"/>
   <stop id="stop3250-8" style="stop-color:#5a7e0d" offset="1"/>
  </radialGradient>
  <linearGradient id="linearGradient3166" x1="72.422" x2="72.422" y1="123.19" y2="52.809" gradientTransform="matrix(.37117 0 0 .37421 16.337 17.056)" gradientUnits="userSpaceOnUse">
   <stop id="stop2492-3" style="stop-color:#365f0e" offset="0"/>
   <stop id="stop2494-8" style="stop-color:#84a718" offset="1"/>
  </linearGradient>
 </defs>
 <g id="layer1">
  <g id="g3305" transform="matrix(1.3379 0 0 1.3015 .023082 1.724)" style="opacity:.3">
   <rect id="rect2484" transform="scale(-1)" x="-3.6904" y="-47.848" width="2.9602" height="15.367" style="fill:url(#radialGradient3940)"/>
   <rect id="rect2486" x="3.6904" y="32.482" width="40.412" height="15.367" style="fill:url(#linearGradient3942)"/>
   <rect id="rect3444" transform="scale(1,-1)" x="44.11" y="-47.848" width="2.9602" height="15.367" style="fill:url(#radialGradient3944)"/>
  </g>
  <path id="path2488" d="m11.893 11.664h39.568c2.3099 0 3.3494-0.38075 4.0129 1.3287l4.0265 10.63v34.114c0 2.0639 0.13807 1.7486-2.1718 1.7486h-50.659c-2.3099 0-2.1718 0.31535-2.1718-1.7486v-34.114l4.0265-10.63c0.64499-1.675 1.058-1.3287 3.3679-1.3287z" style="display:block;fill:url(#linearGradient3972);stroke-linecap:round;stroke-width:.9942;stroke:url(#linearGradient3974)"/>
  <rect id="rect3209" x="5" y="24" width="54" height="35" style="fill-rule:evenodd;fill:url(#radialGradient3969)"/>
  <path id="path2490" d="m13.151 13.01h37.094c2.1654 0 3.5056 0.73949 4.4126 2.7718l3.124 8.5302v30.753c0 1.9409-1.0983 2.918-3.2637 2.918h-45.25c-2.1654 0-3.0487-1.0747-3.0487-3.0156v-30.656l3.0233-8.713c0.60465-1.5751 1.7433-2.5889 3.9087-2.5889z" style="display:block;fill:none;opacity:.50549;stroke-width:.74212;stroke:url(#linearGradient3966)"/>
  <path id="path3273" d="m4.5001 23.5h55" style="fill:none;opacity:.3;stroke-linecap:square;stroke-width:1px;stroke:url(#linearGradient3960)"/>
  <path id="rect3326" d="m29 11h6v19h-1.7718-1.8141-1.4604-0.95378v-19z" style="fill:url(#linearGradient3963);opacity:.4"/>
 </g>
 <path id="path2262" d="m44.5 45.5v-8.0337h9.1044l-0.10442 8.0337h8.0073v9h-8.0073v8.0073h-9v-8.0073h-8.0073v-9h8.0073z" style="color:#000000;fill:url(#radialGradient3164);stroke-linecap:round;stroke-linejoin:round;stroke-width:.98543;stroke:url(#linearGradient3166)"/>
 <path id="path2272" d="m45.5 46.5v-8h7v8h8v7h-8v8h-7v-8h-8v-7h8z" style="fill:none;opacity:.4;stroke:url(#linearGradient3076)"/>
</svg>
