<?xml version="1.0" encoding="UTF-8"?>
<!-- Created with Inkscape (http://www.inkscape.org/) -->
<svg id="svg2" width="48" height="48" version="1.0" xmlns="http://www.w3.org/2000/svg" xmlns:cc="http://web.resource.org/cc/" xmlns:dc="http://purl.org/dc/elements/1.1/" xmlns:rdf="http://www.w3.org/1999/02/22-rdf-syntax-ns#" xmlns:xlink="http://www.w3.org/1999/xlink">
 <defs id="defs4">
  <linearGradient id="linearGradient3263">
   <stop id="stop3265" style="stop-color:#fff" offset="0"/>
   <stop id="stop3267" style="stop-color:#fff;stop-opacity:0" offset="1"/>
  </linearGradient>
  <radialGradient id="radialGradient6966" cx="12.156" cy="16.969" r="7.8438" gradientTransform="matrix(1 0 0 .53785 0 7.8421)" gradientUnits="userSpaceOnUse">
   <stop id="stop3211" offset="0"/>
   <stop id="stop3213" style="stop-opacity:0" offset="1"/>
  </radialGradient>
  <linearGradient id="linearGradient6968" x1="22.125" x2="22.125" y1="-75.956" y2="-148.64" gradientUnits="userSpaceOnUse">
   <stop id="stop6952" style="stop-color:#fcaf3e" offset="0"/>
   <stop id="stop6954" style="stop-color:#fff" offset="1"/>
  </linearGradient>
  <linearGradient id="linearGradient6970" x1="18.5" x2="26.262" y1="5.625" y2="33.009" gradientTransform="matrix(-1 0 0 1 49 -118)" gradientUnits="userSpaceOnUse" xlink:href="#linearGradient3263"/>
  <linearGradient id="linearGradient6972" x1="19.375" x2="17.168" y1="27.371" y2="43.64" gradientTransform="matrix(-1 0 0 1 49 -118)" gradientUnits="userSpaceOnUse" xlink:href="#linearGradient3263"/>
 </defs>
 <metadata id="metadata7">
  <rdf:RDF>
   <cc:Work rdf:about="">
    <dc:format>image/svg+xml</dc:format>
    <dc:type rdf:resource="http://purl.org/dc/dcmitype/StillImage"/>
    <dc:creator>
     <cc:Agent>
      <dc:title>Lapo Calamandrei</dc:title>
     </cc:Agent>
    </dc:creator>
    <cc:license rdf:resource="http://creativecommons.org/licenses/GPL/2.0/"/>
    <dc:title>Rotate Left</dc:title>
    <dc:date>2006-10-02</dc:date>
    <dc:subject>
     <rdf:Bag>
      <rdf:li>object</rdf:li>
      <rdf:li>rotate</rdf:li>
     </rdf:Bag>
    </dc:subject>
   </cc:Work>
   <cc:License rdf:about="http://creativecommons.org/licenses/GPL/2.0/">
    <cc:permits rdf:resource="http://web.resource.org/cc/Reproduction"/>
    <cc:permits rdf:resource="http://web.resource.org/cc/Distribution"/>
    <cc:requires rdf:resource="http://web.resource.org/cc/Notice"/>
    <cc:permits rdf:resource="http://web.resource.org/cc/DerivativeWorks"/>
    <cc:requires rdf:resource="http://web.resource.org/cc/ShareAlike"/>
    <cc:requires rdf:resource="http://web.resource.org/cc/SourceCode"/>
   </cc:License>
  </rdf:RDF>
 </metadata>
 <g id="layer1">
  <g id="g6956" transform="matrix(-1,0,0,1,49,120)">
   <path id="path6958" transform="matrix(-2.6773 0 0 2.1333 57.546 -117.2)" d="m20 16.969a7.8438 4.2188 0 1 1-15.688 0 7.8438 4.2188 0 1 1 15.688 0z" style="color:#000000;fill:url(#radialGradient6966);opacity:.15"/>
   <path id="path6960" d="m36.844-115.5c-11.445 0-20.344 9.0851-20.344 20v3h-6.5c-0.3981 0.003041-0.75647 0.2419-0.91248 0.60817-0.156 0.36627-0.079916 0.79018 0.19373 1.0793l12.969 14.031c0.1893 0.20477 0.45551 0.32121 0.73438 0.32121s0.54507-0.11644 0.73438-0.32121l12.938-14.031c0.27772-0.29326 0.35179-0.72478 0.18776-1.0939-0.16404-0.36908-0.53398-0.60327-0.93776-0.59364h-6.4062v-3c1e-6 -2.1079 0.72445-3.8782 2-5.0938 1.2783-1.2182 3.1313-1.9062 5.3438-1.9062h8.6562c0.55226-6e-5 0.99994-0.44774 1-1v-11c-5.5e-5 -0.55226-0.44774-0.99994-1-1h-8.6562z" style="color:#000000;fill:url(#linearGradient6968);stroke-dashoffset:1.4;stroke-linecap:round;stroke:#ce5c00"/>
   <path id="path6962" d="m17.5-91.5v-4c0-10.375 8.3963-19 19.312-19h8.6875v11h-8.6562c-2.4234 0-4.5407 0.76707-6.0312 2.1875-1.4905 1.4204-2.3125 3.4706-2.3125 5.8125v4" style="color:#000000;fill:none;stroke-dashoffset:1.4;stroke-linecap:round;stroke:url(#linearGradient6970)"/>
   <path id="path6964" d="m28.5-91.5h7.4062l-12.938 14.031-12.969-14.031h7.5" style="color:#000000;fill:none;stroke-dashoffset:1.4;stroke-linecap:round;stroke-linejoin:round;stroke:url(#linearGradient6972)"/>
  </g>
 </g>
</svg>
