<?xml version="1.0" encoding="UTF-8"?>
<!-- Created with Inkscape (http://www.inkscape.org/) -->
<svg id="svg2" width="64" height="64" version="1.0" xmlns="http://www.w3.org/2000/svg" xmlns:xlink="http://www.w3.org/1999/xlink">
 <defs id="defs4">
  <linearGradient id="linearGradient3156">
   <stop id="stop3158" style="stop-color:#fff" offset="0"/>
   <stop id="stop3160" style="stop-color:#fff;stop-opacity:0" offset="1"/>
  </linearGradient>
  <radialGradient id="radialGradient5729" cx="62.625" cy="4.625" r="10.625" gradientTransform="matrix(1.94 0 0 .72429 -98.031 36.105)" gradientUnits="userSpaceOnUse">
   <stop id="stop8840" offset="0"/>
   <stop id="stop8842" style="stop-opacity:0" offset="1"/>
  </radialGradient>
  <linearGradient id="linearGradient5745" x1="24.335" x2="28.29" y1="61.853" y2="20.664" gradientTransform="matrix(1.0839 -.29323 .19667 .71909 -11.435 14.916)" gradientUnits="userSpaceOnUse" xlink:href="#linearGradient3156"/>
  <linearGradient id="linearGradient5747" x1="27.889" x2="28.29" y1="-.81503" y2="20.664" gradientTransform="matrix(1.1328 -.0068362 .0011312 .74789 -8.1157 2.5317)" gradientUnits="userSpaceOnUse" xlink:href="#linearGradient3156"/>
  <linearGradient id="linearGradient5749" x1="28.221" x2="28.29" y1="-2.3103" y2="20.664" gradientTransform="matrix(-.10011 -1.1273 .69958 -.040255 8.0616 56.689)" gradientUnits="userSpaceOnUse" xlink:href="#linearGradient3156"/>
  <linearGradient id="linearGradient5751" x1="30.502" x2="29.725" y1="55.647" y2="24.654" gradientTransform="matrix(-.16122 -1.1106 .48911 .017034 16.885 54.287)" gradientUnits="userSpaceOnUse" xlink:href="#linearGradient3156"/>
  <radialGradient id="radialGradient5537" cx="22.945" cy="11.223" r="14" fy="4.7612" gradientTransform="matrix(1.3668 .010287 -.0063586 .8441 -11.124 1.1506)" gradientUnits="userSpaceOnUse" xlink:href="#linearGradient3156"/>
  <radialGradient id="radialGradient5540" cx="22.125" cy="10.875" r="20" gradientTransform="matrix(1.0172 -.11275 .057093 .51463 -5.9752 1.3385)" gradientUnits="userSpaceOnUse" xlink:href="#linearGradient3156"/>
  <radialGradient id="radialGradient5551" cx="20.039" cy="12.61" r="22.464" gradientTransform="matrix(1.9664 -.050517 .036771 1.431 -20.726 -6.1123)" gradientUnits="userSpaceOnUse">
   <stop id="stop4105" style="stop-color:#70adfb" offset="0"/>
   <stop id="stop4107" style="stop-color:#3465a4" offset="1"/>
  </radialGradient>
  <linearGradient id="linearGradient5553" x1="29.013" x2="29.75" y1="29" y2="50" gradientTransform="matrix(1.0072 0 0 1.0067 -5.2077 -6.204)" gradientUnits="userSpaceOnUse">
   <stop id="stop6495" style="stop-color:#4580d4" offset="0"/>
   <stop id="stop6497" style="stop-color:#114796" offset="1"/>
  </linearGradient>
  <radialGradient id="radialGradient6332" cx="26" cy="15.24" r="15.075" gradientTransform="matrix(2.2716 0 -2.2014e-8 2.0702 -33.047 -17.621)" gradientUnits="userSpaceOnUse">
   <stop id="stop6328" style="stop-color:#debc8c" offset="0"/>
   <stop id="stop6330" style="stop-color:#f4ac72" offset="1"/>
  </radialGradient>
 </defs>
 <g id="layer1" transform="matrix(1.33 0 0 1.33 .01 .49)">
  <g id="g6334">
   <path id="path8836" d="m44.075 39.455c0 4.2502-9.2286 7.6956-20.613 7.6956-11.384 0-20.613-3.4454-20.613-7.6956 0-4.2502 9.2286-7.6956 20.613-7.6956 11.384 0 20.613 3.4454 20.613 7.6956z" style="fill-rule:evenodd;fill:url(#radialGradient5729);opacity:.4"/>
   <path id="path1307" d="m44.648 22.99c0 11.392-9.2441 20.638-20.634 20.638-11.39 0-20.634-9.2458-20.634-20.638s9.2441-20.638 20.634-20.638c11.39 0 20.634 9.2458 20.634 20.638z" style="fill:url(#radialGradient5551);stroke-linecap:round;stroke-linejoin:round;stroke-width:.75188;stroke:url(#linearGradient5553)"/>
   <path id="path4021" d="m43.206 19.022-0.18818 0.72536c-0.55686-0.46257-1.1821-0.85157-1.817-1.2579l-1.3937 0.14456-1.2733-1.0146v1.2556l1.0909 0.58186 0.7261 0.57963 0.97034-0.77354c0.24425 0.32249 0.48517 0.64497 0.72776 0.96746v0.9664l-1.0926 0.86991-1.9994 0.96746-1.5142 1.0651-0.97034-0.77589 0.48517-0.86991-0.96884-0.77354-1.6362-2.4653-1.3937-1.1109-0.3648 0.28923 0.54703 1.4025 1.029 0.82173c0.58771 1.1959 1.1691 2.339 1.9409 3.4821 1.1968 0 2.325-0.08956 3.5136-0.19509v0.67717l-1.454 2.5141-1.3335 1.0628-1.0909 1.6458v2.7062l0.3648 1.0651-0.60572 0.48209-1.3351 0.58068-1.3937 0.82173 1.1527 0.91821-1.5761 0.96863 0.30277 0.62664-2.3642 1.8868h-1.5744l-1.3335 0.58068h-0.84996v-0.77354l-0.36146-1.5494c-0.469-0.97099-0.95734-1.935-1.454-2.8991 0-0.71161 0.0602-1.4163 0.12054-2.1278l0.60738-0.9664-0.84997-1.1615 0.06186-1.5953-1.1527-0.91822 0.57637-1.3291-0.93783-0.75004h-1.6379l-0.54536-0.43496-1.6362 0.72595-0.6659-0.53309-1.5159 0.91868c-1.029-0.82232-2.0597-1.644-3.0903-2.4658l-1.2114-2.0314 1.0909-1.1591-0.60572-0.48314 1.3318-2.2254c1.0942-0.95947 2.2371-1.8799 3.3932-2.8038l2.0612-0.38677 2.3023-0.19286 1.5761 0.2904 2.242 1.5941 0.78811-0.62781 1.0892-0.09637 2.0612 0.48314h1.5761l1.0909-0.67717 0.48517-0.48314-1.0926-0.48314-1.8186-0.09637c-0.50468-0.49348-0.97368-1.0122-1.5729-1.4507l-0.60738 0.19286-0.24259 1.2579-1.0909-0.86991-0.24092-0.96863-1.2114-0.67482h-0.48684l1.2129 0.9664-0.48517 0.86991-0.96884 0.19286 0.60571-0.86991-1.0926-0.3856-0.96718-0.77354-1.8203 0.28923-0.24092 0.3856-1.0909 0.48432-0.60572 1.0639-1.5142 0.53133-0.66757-0.53133h-0.72609v-1.741l1.5761-0.58069h1.2114l-0.24425-0.676-0.96718-0.67717 1.6347-0.24222 0.90849-0.72418 0.72609-0.87109h1.3351l-0.3648-0.676 0.84997-0.38677v0.77354l1.817 0.28923 1.817-1.0628 0.12204-0.48432 1.5744-0.77296c-0.56987 0.049951-1.1397 0.086616-1.6966 0.19345v-0.87097l0.60571-0.96699h-0.60571l-1.3311 0.86991-0.3648 0.48373 0.3648 0.67776-0.60738 1.1591-0.96884-0.38677-0.84663-0.676-1.3351 0.676-0.48518-1.5465 2.3023-1.0634v-0.58069l1.4555-0.67658 2.3023-0.38736 1.5761 0.38736 2.1818 0.9664h-1.5761l1.5761 1.1603 1.2114-0.9664s4.8205 2.4192 7.3102 5.7649c2.4226 3.2555 3.4366 6.9556 3.5426 7.7246z" style="opacity:.5"/>
   <path id="path6628" d="m43.357 18.195-0.18818 0.72536c-0.55686-0.46257-1.1821-0.85157-1.817-1.2579l-1.3937 0.14456-1.2733-1.0146v1.2556l1.0909 0.58186 0.7261 0.57963 0.97034-0.77354c0.24425 0.32249 0.48517 0.64497 0.72776 0.96746v0.9664l-1.0926 0.86991-1.9994 0.96746-1.5142 1.0651-0.97034-0.77589 0.48517-0.86991-0.96884-0.77354-1.6362-2.4653-1.3937-1.1109-0.3648 0.28923 0.54703 1.4025 1.029 0.82173c0.58771 1.1959 1.1691 2.339 1.9409 3.4821 1.1968 0 2.325-0.08956 3.5136-0.19509v0.67717l-1.454 2.5141-1.3335 1.0628-1.0909 1.6458v2.7062l0.3648 1.0651-0.60572 0.48209-1.3351 0.58068-1.3937 0.82173 1.1527 0.91821-1.5761 0.96863 0.30277 0.62664-2.3642 1.8868h-1.5744l-1.3335 0.58068h-0.84996v-0.77354l-0.36146-1.5494c-0.469-0.97099-0.95734-1.935-1.454-2.8991 0-0.71161 0.0602-1.4163 0.12054-2.1278l0.60738-0.9664-0.84997-1.1615 0.06186-1.5953-1.1527-0.91822 0.57637-1.3291-0.93783-0.75004h-1.6379l-0.54536-0.43496-1.6362 0.72595-0.6659-0.53309-1.5159 0.91868c-1.029-0.82232-2.0597-1.644-3.0903-2.4658l-1.2114-2.0314 1.0909-1.1591-0.60572-0.48314 1.3318-2.2254c1.0942-0.95947 2.2371-1.8799 3.3932-2.8038l2.0612-0.38677 2.3023-0.19286 1.5761 0.2904 2.242 1.5941 0.78811-0.62781 1.0892-0.09637 2.0612 0.48314h1.5761l1.0909-0.67717 0.48517-0.48314-1.0926-0.48314-1.8186-0.09637c-0.50468-0.49348-0.97368-1.0122-1.5729-1.4507l-0.60738 0.19286-0.24259 1.2579-1.0909-0.86991-0.24092-0.96863-1.2114-0.67482h-0.48684l1.2129 0.9664-0.48517 0.86991-0.96884 0.19286 0.60571-0.86991-1.0926-0.3856-0.96718-0.77354-1.8203 0.28923-0.24092 0.3856-1.0909 0.48432-0.60572 1.0639-1.5142 0.53133-0.66757-0.53133h-0.72609v-1.741l1.5761-0.58069h1.2114l-0.24425-0.676-0.96718-0.67717 1.6347-0.24222 0.90849-0.72418 0.72609-0.87109h1.3351l-0.3648-0.676 0.84997-0.38677v0.77354l1.817 0.28923 1.817-1.0628 0.12204-0.48432 1.5744-0.77296c-0.56987 0.049951-1.1397 0.086616-1.6966 0.19345v-0.87097l0.60571-0.96699h-0.60571l-1.3311 0.86991-0.3648 0.48373 0.3648 0.67776-0.60738 1.1591-0.96884-0.38677-0.84663-0.676-1.3351 0.676-0.48518-1.5465 2.3023-1.0634v-0.58069l1.4555-0.67658 2.3023-0.38736 1.5761 0.38736 2.1818 0.9664h-1.5761l1.5761 1.1603 1.2114-0.9664s4.8205 2.4192 7.3102 5.7649c2.4226 3.2555 3.4366 6.9556 3.5426 7.7246z" style="fill:url(#radialGradient6332)"/>
   <path id="path3164" d="m43.717 22.687c0 10.837-8.7993 19.632-19.641 19.632s-19.641-8.7952-19.641-19.632c0-10.837 8.7993-19.632 19.641-19.632s19.641 8.7952 19.641 19.632z" style="fill:none;opacity:.4;stroke-linecap:round;stroke-linejoin:round;stroke-width:.75708;stroke:url(#radialGradient5540)"/>
   <path id="path3154" d="m43.136 16.695c0 7.1617-8.5729 11.103-19.136 11.103-10.563 0-19.136-3.9411-19.136-11.103 0-7.1617 8.5729-14.845 19.136-14.845 10.563 0 19.136 7.6836 19.136 14.845z" style="fill:url(#radialGradient5537);opacity:.4"/>
   <path id="path2218" d="m43.194 18.865c1.9008 6.95-5.0506 14.882-15.526 17.716-10.476 2.8341-20.509-0.50251-22.41-7.4525-1.9008-6.95 5.0506-14.882 15.526-17.716 10.476-2.8341 20.509 0.50251 22.41 7.4525v0z" style="fill:none;opacity:.6;stroke-linecap:round;stroke-width:.75708;stroke:url(#linearGradient5745)"/>
   <path id="path2230" d="m44.019 20.354c0.010939 7.2283-8.8555 13.142-19.804 13.208-10.948 0.066071-19.832-5.7401-19.843-12.968-0.010933-7.2283 8.8555-13.142 19.804-13.208 10.948-0.066072 19.832 5.7401 19.843 12.968v0z" style="fill:none;opacity:.6;stroke-linecap:round;stroke-width:.75708;stroke:url(#linearGradient5747)"/>
   <path id="path2234" d="m20.421 3.8586c6.7614-0.38906 13.027 8.1276 13.995 19.023 0.96758 10.895-3.7293 20.042-10.491 20.431-6.7614 0.38906-13.027-8.1276-13.995-19.023-0.96758-10.895 3.7293-20.042 10.491-20.431v0z" style="fill:none;opacity:.6;stroke-linecap:round;stroke-width:.75708;stroke:url(#linearGradient5749)"/>
   <path id="path2240" d="m21.33 3.6114c4.7273 0.16463 9.8227 8.9998 11.381 19.734 1.5582 10.734-1.0108 19.302-5.7381 19.138-4.7273-0.16463-9.8227-8.9999-11.381-19.734-1.5582-10.734 1.0108-19.302 5.7381-19.138v0z" style="fill:none;opacity:.8;stroke-linecap:round;stroke-width:.75708;stroke:url(#linearGradient5751)"/>
   <path id="path2255" d="m34.147 34.737c0.20848 0.76694-0.24383 1.5578-1.0102 1.7664-0.76641 0.20862-1.5567-0.24399-1.7652-1.0109-0.20848-0.76694 0.24382-1.5578 1.0102-1.7664 0.76641-0.20862 1.5567 0.24399 1.7652 1.0109z" style="fill:#fff;opacity:.7"/>
   <path id="path2275" d="m15.028 36.462c0.20847 0.76694-0.15506 1.5336-0.81199 1.7124-0.65693 0.17881-1.3585-0.29795-1.5669-1.0649-0.20848-0.76693 0.15506-1.5336 0.81199-1.7124 0.65692-0.17881 1.3585 0.29795 1.5669 1.0649z" style="fill:#fff;opacity:.5"/>
   <path id="path2283" d="m28.648 7.4004c0.31555 0.62012-0.04995 1.2919-0.81636 1.5006-0.76641 0.20862-1.6435-0.12497-1.9591-0.74509-0.31555-0.62012 0.04995-1.2919 0.81635-1.5006 0.76641-0.20862 1.6435 0.12497 1.9591 0.74509z" style="fill:#fff;opacity:.7"/>
   <path id="path2291" d="m13.419 10.054c-0.0129 0.70953-0.64468 1.4538-1.4111 1.6624-0.76641 0.20862-1.3772-0.19745-1.3643-0.90698 0.0129-0.70953 0.64468-1.4538 1.4111-1.6624 0.76641-0.20862 1.3772 0.19745 1.3643 0.90698z" style="fill:#fff;opacity:.5"/>
  </g>
 </g>
</svg>
