<?xml version="1.0" encoding="UTF-8"?>
<!-- Created with Inkscape (http://www.inkscape.org/) -->
<svg id="svg3272" width="16" height="16" version="1.0" xmlns="http://www.w3.org/2000/svg" xmlns:xlink="http://www.w3.org/1999/xlink">
 <defs id="defs3274">
  <linearGradient id="linearGradient2687" x1="18.031" x2="20.055" y1="16.408" y2="24.628" gradientTransform="matrix(.29669 0 0 .35207 1.8805 2.1186)" gradientUnits="userSpaceOnUse">
   <stop id="stop2687" style="stop-color:#fff;stop-opacity:.27451" offset="0"/>
   <stop id="stop2689" style="stop-color:#fff;stop-opacity:.078431" offset="1"/>
  </linearGradient>
  <linearGradient id="linearGradient2692" x1="10.318" x2="4.176" y1="14.993" y2="4.0514" gradientTransform="matrix(1.0083 0 0 1.0006 -.00082398 -.0066205)" gradientUnits="userSpaceOnUse">
   <stop id="stop3624" style="stop-color:#bb2b12" offset="0"/>
   <stop id="stop3626" style="stop-color:#cd7233" offset="1"/>
  </linearGradient>
  <linearGradient id="linearGradient2690" x1="126.7" x2="169.23" y1="58.583" y2="238.4" gradientTransform="matrix(.054893 .013851 .0025726 .052482 -.7128 -.26741)" gradientUnits="userSpaceOnUse">
   <stop id="stop3618" style="stop-color:#edb763" offset="0"/>
   <stop id="stop3270" style="stop-color:#de7f32" offset=".5"/>
   <stop id="stop3620" style="stop-color:#d24413" offset="1"/>
  </linearGradient>
  <radialGradient id="radialGradient2677" cx="605.71" cy="486.65" r="117.14" gradientTransform="matrix(-2.7744 0 0 1.9697 112.76 -872.89)" gradientUnits="userSpaceOnUse" xlink:href="#linearGradient5060"/>
  <radialGradient id="radialGradient2675" cx="605.71" cy="486.65" r="117.14" gradientTransform="matrix(2.7744 0 0 1.9697 -1891.6 -872.89)" gradientUnits="userSpaceOnUse" xlink:href="#linearGradient5060"/>
  <linearGradient id="linearGradient2673" x1="302.86" x2="302.86" y1="366.65" y2="609.51" gradientTransform="matrix(2.7744 0 0 1.9697 -1892.2 -872.89)" gradientUnits="userSpaceOnUse">
   <stop id="stop5050" style="stop-opacity:0" offset="0"/>
   <stop id="stop5056" offset=".5"/>
   <stop id="stop5052" style="stop-opacity:0" offset="1"/>
  </linearGradient>
  <linearGradient id="linearGradient5060">
   <stop id="stop5062" offset="0"/>
   <stop id="stop5064" style="stop-opacity:0" offset="1"/>
  </linearGradient>
 </defs>
 <g id="layer1">
  <g id="layer6" transform="matrix(.36395 0 0 .34457 -.64485 -.38545)">
   <g id="g2488" transform="matrix(.021652 0 0 .014857 43.008 42.685)">
    <rect id="rect2490" x="-1559.3" y="-150.7" width="1339.6" height="478.36" style="fill:url(#linearGradient2673);opacity:.40206"/>
    <path id="path2492" d="m-219.62-150.68v478.33c142.87 0.90045 345.4-107.17 345.4-239.2 0-132.03-159.44-239.13-345.4-239.13z" style="fill:url(#radialGradient2675);opacity:.40206"/>
    <path id="path2494" d="m-1559.3-150.68v478.33c-142.87 0.90045-345.4-107.17-345.4-239.2 0-132.03 159.44-239.13 345.4-239.13z" style="fill:url(#radialGradient2677);opacity:.40206"/>
   </g>
  </g>
  <path id="rect2196" d="m0.6015 1.5215c-0.056258 0-0.10449 0.060345-0.10449 0.12267 0 4.6046 0.003374 8.6512-6.5534e-4 12.857 4.7063-0.02397 9.4151-0.04826 14.123-0.06552-0.41713 0-1.1123-0.07009-1.1024-0.94049 0.0035-3.597 0.02296-7.4084 0.01078-10.981h-6.0519c-0.47749 0-1.0963-0.99306-1.5261-0.99306h-5.3477l-3e-6 -1e-6z" style="fill:#fff;stroke-linecap:round;stroke-linejoin:round;stroke-width:.979;stroke:#a8a8a8"/>
  <path id="rect3086" d="m2.5254 4.524c0.65636 0 12.48 0.031393 12.989 0.031393 0 0.61541-0.02468 9.9581-0.05407 9.9581-4.5588 0.01775-11.659-0.01389-12.987-0.01389 0-1.1615 0.05188-7.5853 0.05188-9.9756l3e-6 -5e-6z" style="fill:url(#linearGradient2690);stroke-linecap:round;stroke-linejoin:round;stroke-width:.95339;stroke:url(#linearGradient2692)"/>
  <path id="path2509" d="m2.8355 4c-0.45659 0-0.83444 0.44838-0.83444 0.9902v5.6331c0.00175 0.10077 0.044034 0.21567 0.11126 0.28606 0.067223 0.07039 0.15315 0.10008 0.25033 0.08802 0.00309 9.4e-5 0.00618 9.4e-5 0.00927 0l13.351-2.5085c0.1548-0.028972 0.27598-0.18812 0.27815-0.37407v-3.1246c0-0.54182-0.37785-0.9902-0.83444-0.9902h-12.331z" style="fill-rule:evenodd;fill:url(#linearGradient2687)"/>
  <path id="path2406" d="m3.499 14v-8.5h11.5" style="fill:none;opacity:.35;stroke-width:1px;stroke:#fff"/>
 </g>
 <g id="g2509" transform="translate(23.317 2.0527)">
  <path id="path11112" d="m-11.665 9.0166 4.041 3.8873-0.56014 0.78573-4.2497-4.205 0.7688-0.46801v0z" style="fill-rule:evenodd;fill:#1a1a1a;stroke-linecap:round;stroke-linejoin:round;stroke-width:.49333;stroke:#1a1a1a"/>
  <path id="path13082" transform="matrix(.08969 -.11533 .11496 .085943 -42.328 31.892)" d="m247.91 110.29c0 1.467-2.179 2.6562-4.8668 2.6562s-4.8668-1.1892-4.8668-2.6562 2.179-2.6562 4.8668-2.6562 4.8668 1.1892 4.8668 2.6562z" style="fill:#1a1a1a"/>
  <path id="path4452" transform="matrix(.34184 0 0 .34473 -19.859 .68212)" d="m25.898 18.478c7.12e-4 4.5892-3.7193 8.3098-8.3085 8.3098s-8.3092-3.7206-8.3085-8.3098c-7.12e-4 -4.5892 3.7193-8.3098 8.3085-8.3098s8.3092 3.7206 8.3085 8.3098z" style="fill-rule:evenodd;fill:#fff;opacity:.4"/>
  <path id="path2298" d="m-13.909 4.192c-1.7443 0-3.1605 1.3497-3.1605 3.0121 0 1.6624 1.4162 3.0121 3.1605 3.0121 1.7443 0 3.1605-1.3497 3.1605-3.0121 0-1.6624-1.4162-3.0121-3.1605-3.0121v0zm0.03766 0.19762c1.5612 0 2.8303 1.2069 2.8303 2.6948 0 1.4879-1.2691 2.6948-2.8303 2.6948-1.5612 1e-6 -2.8274-1.2069-2.8274-2.6948 0-1.4879 1.2662-2.6948 2.8274-2.6948v0z" style="fill:#333;stroke-linecap:round;stroke-linejoin:round;stroke-width:.49333;stroke:#1a1a1a"/>
 </g>
</svg>
