<?xml version="1.0" encoding="UTF-8"?>
<!-- Created with Inkscape (http://www.inkscape.org/) -->
<svg id="svg3196" width="24" height="24" version="1.0" xmlns="http://www.w3.org/2000/svg">
 <rect id="rect2388" transform="rotate(-90)" x="-19.5" y="16.599" width="14" height="5.9014" rx="0" ry="0" style="fill:none;stroke-linecap:square;stroke:#969696"/>
 <rect id="rect3162" transform="rotate(-90)" x="-18" y="18" width="11" height="3" style="fill:#878787"/>
 <path id="rect3160" d="m18.5 5v-1.5h1.9999v1.5" style="fill:none;stroke-linecap:square;stroke:#969696"/>
 <rect id="rect2832" transform="rotate(-90)" x="-19.5" y="1.599" width="7.9578" height="12.951" rx="0" ry="0" style="fill:none;stroke-linecap:square;stroke:#969696"/>
 <path id="path2834" d="m11.5 13.5h1" style="fill:none;stroke-linecap:square;stroke:#969696"/>
 <path id="path2836" d="m11.5 15.5h1" style="fill:none;stroke-linecap:square;stroke:#969696"/>
 <path id="path2838" d="m4.5004 17.5h5.9996" style="fill:none;stroke-linecap:square;stroke:#969696"/>
 <rect id="rect3645" transform="rotate(-90)" x="-14" y="3.0004" width="1" height="1" style="fill:#969696"/>
 <rect id="rect3647" transform="rotate(-90)" x="-14" y="5.0004" width="1" height="1" style="fill:#969696"/>
 <rect id="rect3649" transform="rotate(-90)" x="-14" y="7.0004" width="1" height="1" style="fill:#969696"/>
 <rect id="rect3651" transform="rotate(-90)" x="-16" y="3.0004" width="1" height="1" style="fill:#969696"/>
 <rect id="rect3653" transform="rotate(-90)" x="-16" y="5.0004" width="1" height="1" style="fill:#969696"/>
 <rect id="rect3655" transform="rotate(-90)" x="-16" y="7.0004" width="1" height="1" style="fill:#969696"/>
 <rect id="rect3657" transform="rotate(-90)" x="-14" y="9.0004" width="1" height="1" style="fill:#969696"/>
 <rect id="rect3659" transform="rotate(-90)" x="-16" y="9.0004" width="1" height="1" style="fill:#969696"/>
</svg>
