<?xml version="1.0" encoding="UTF-8" standalone="no"?>
<svg
   xmlns:dc="http://purl.org/dc/elements/1.1/"
   xmlns:cc="http://creativecommons.org/ns#"
   xmlns:rdf="http://www.w3.org/1999/02/22-rdf-syntax-ns#"
   xmlns:svg="http://www.w3.org/2000/svg"
   xmlns="http://www.w3.org/2000/svg"
   xmlns:xlink="http://www.w3.org/1999/xlink"
   id="svg18157"
   height="48"
   width="48"
   version="1.1">
  <defs
     id="defs18159">
    <linearGradient
       id="linearGradient4673">
      <stop
         id="stop4675"
         style="stop-color:#ffffff;stop-opacity:1"
         offset="0" />
      <stop
         id="stop4677"
         style="stop-color:#ffffff;stop-opacity:0.23529412"
         offset="0.1" />
      <stop
         id="stop4679"
         style="stop-color:#ffffff;stop-opacity:0.15686275"
         offset="0.99001008" />
      <stop
         id="stop4681"
         style="stop-color:#ffffff;stop-opacity:0.39215687"
         offset="1" />
    </linearGradient>
    <linearGradient
       gradientTransform="matrix(0.89189031,0,0,1.0986542,3.142773,3.887208)"
       gradientUnits="userSpaceOnUse"
       xlink:href="#linearGradient3454-2-5-0-3"
       id="linearGradient12489"
       y2="35.581654"
       x2="42.470848"
       y1="11.952797"
       x1="42.470848" />
    <linearGradient
       id="linearGradient3454-2-5-0-3">
      <stop
         offset="0"
         style="stop-color:#ffffff;stop-opacity:1"
         id="stop3456-4-9-38-1" />
      <stop
         offset="0.0097359"
         style="stop-color:#ffffff;stop-opacity:0.23529412"
         id="stop3458-39-80-3-5" />
      <stop
         offset="0.99001008"
         style="stop-color:#ffffff;stop-opacity:0.15686275"
         id="stop3460-7-0-2-4" />
      <stop
         offset="1"
         style="stop-color:#ffffff;stop-opacity:0.39215687"
         id="stop3462-0-9-8-7" />
    </linearGradient>
    <linearGradient
       gradientTransform="matrix(1,0,0,1.0357143,2.0849371e-6,-1.5890903)"
       gradientUnits="userSpaceOnUse"
       xlink:href="#radialGradient2444"
       id="linearGradient12481"
       y2="43.761127"
       x2="35.792694"
       y1="17.118193"
       x1="35.792694" />
    <radialGradient
       gradientTransform="matrix(-0.03079083,0,0,0.02470588,23.389752,31.94164)"
       gradientUnits="userSpaceOnUse"
       xlink:href="#linearGradient5060-820-91-9-0"
       id="radialGradient12475"
       fy="486.64789"
       fx="605.71429"
       r="117.14286"
       cy="486.64789"
       cx="605.71429" />
    <linearGradient
       id="linearGradient5060-820-91-9-0">
      <stop
         offset="0"
         style="stop-color:#000000;stop-opacity:1"
         id="stop2681-778-5-1" />
      <stop
         offset="1"
         style="stop-color:#000000;stop-opacity:0"
         id="stop2683-2-86-2" />
    </linearGradient>
    <radialGradient
       gradientTransform="matrix(0.03079083,0,0,0.02470588,24.610252,31.94164)"
       gradientUnits="userSpaceOnUse"
       xlink:href="#linearGradient5060-179-37-4-0"
       id="radialGradient12471"
       fy="486.64789"
       fx="605.71429"
       r="117.14286"
       cy="486.64789"
       cx="605.71429" />
    <linearGradient
       id="linearGradient5060-179-37-4-0">
      <stop
         offset="0"
         style="stop-color:#000000;stop-opacity:1"
         id="stop2675-91-9-2" />
      <stop
         offset="1"
         style="stop-color:#000000;stop-opacity:0"
         id="stop2677-09-0-9" />
    </linearGradient>
    <linearGradient
       gradientTransform="matrix(0.07938856,0,0,0.02470588,-4.6932879,31.94164)"
       gradientUnits="userSpaceOnUse"
       xlink:href="#linearGradient5048-585-73-1-5"
       id="linearGradient12467"
       y2="609.50507"
       x2="302.85715"
       y1="366.64789"
       x1="302.85715" />
    <linearGradient
       id="linearGradient5048-585-73-1-5">
      <stop
         offset="0"
         style="stop-color:#000000;stop-opacity:0"
         id="stop2667-99-4-6" />
      <stop
         offset="0.5"
         style="stop-color:#000000;stop-opacity:1"
         id="stop2669-5-9-4" />
      <stop
         offset="1"
         style="stop-color:#000000;stop-opacity:0"
         id="stop2671-56-4-2" />
    </linearGradient>
    <linearGradient
       gradientTransform="matrix(0.89189031,0,0,1.0580283,-45.793073,5.3535997)"
       gradientUnits="userSpaceOnUse"
       xlink:href="#linearGradient4673"
       id="linearGradient12463"
       y2="32.746193"
       x2="68.876045"
       y1="4.3915653"
       x1="68.876045" />
    <linearGradient
       id="linearGradient4646-7-4-3">
      <stop
         offset="0"
         style="stop-color:#f9f9f9;stop-opacity:1"
         id="stop4648-8-0-3" />
      <stop
         offset="1"
         style="stop-color:#d8d8d8;stop-opacity:1"
         id="stop4650-1-7-3" />
    </linearGradient>
    <linearGradient
       id="linearGradient3104-8-8-97-4-6-11-5-5">
      <stop
         offset="0"
         style="stop-color:#000000;stop-opacity:0.32173914"
         id="stop3106-5-4-3-5-0-2-1-0" />
      <stop
         offset="1"
         style="stop-color:#000000;stop-opacity:0.27826086"
         id="stop3108-4-3-7-8-2-0-7-9" />
    </linearGradient>
    <radialGradient
       r="23.097"
       gradientTransform="matrix(1.5647,-9.5143e-8,6.1772e-8,1.0159,-59.14917,8.1461003)"
       cx="63.969002"
       cy="14.113"
       gradientUnits="userSpaceOnUse"
       id="radialGradient2444">
      <stop
         offset="0"
         style="stop-color:#ADC980"
         id="stop3618" />
      <stop
         offset="0.6875183"
         style="stop-color:#87A752"
         id="stop3270" />
      <stop
         offset="1"
         style="stop-color:#688933"
         id="stop3620" />
    </radialGradient>
    <linearGradient
       gradientTransform="translate(-50.939545,0)"
       gradientUnits="userSpaceOnUse"
       xlink:href="#linearGradient4646-7-4-3"
       id="linearGradient12459-6"
       y2="16"
       x2="62.988873"
       y1="13"
       x1="62.988873" />
    <linearGradient
       y2="3.6336823"
       x2="-51.786404"
       y1="53.514328"
       x1="-51.786404"
       gradientTransform="matrix(0.80749834,0,0,0.83374395,57.966199,-0.0698403)"
       gradientUnits="userSpaceOnUse"
       id="linearGradient4572"
       xlink:href="#linearGradient3104-8-8-97-4-6-11-5-5" />
  </defs>
  <metadata
     id="metadata18162">
    <rdf:RDF>
      <cc:Work
         rdf:about="">
        <dc:format>image/svg+xml</dc:format>
        <dc:type
           rdf:resource="http://purl.org/dc/dcmitype/StillImage" />
        <dc:title />
      </cc:Work>
    </rdf:RDF>
  </metadata>
  <path
     id="rect4574"
     d="M 3.5,9 C 3.223,9 3,9.223 3,9.5 l 0,8 C 3,17.777 3.223,18 3.5,18 l 41,0 c 0.277,0 0.5,-0.223 0.5,-0.5 l 0,-5 C 45,12.223 44.777,12 44.5,12 L 24,12 C 22,12 20,9 19,9 Z"
     style="color:#000000;clip-rule:nonzero;display:inline;overflow:visible;visibility:visible;opacity:1;isolation:auto;mix-blend-mode:normal;color-interpolation:sRGB;color-interpolation-filters:linearRGB;solid-color:#000000;solid-opacity:1;fill:url(#linearGradient12459-6);fill-opacity:1;fill-rule:nonzero;stroke:none;stroke-width:0.99992168;stroke-linecap:butt;stroke-linejoin:miter;stroke-miterlimit:4;stroke-dasharray:none;stroke-dashoffset:0;stroke-opacity:1;marker:none;color-rendering:auto;image-rendering:auto;shape-rendering:auto;text-rendering:auto;enable-background:accumulate;filter-blend-mode:normal;filter-gaussianBlur-deviation:0" />
  <path
     id="path3468-2"
     style="color:#000000;clip-rule:nonzero;display:inline;overflow:visible;visibility:visible;opacity:0.8;isolation:auto;mix-blend-mode:normal;color-interpolation:sRGB;color-interpolation-filters:linearRGB;solid-color:#000000;solid-opacity:1;fill:none;fill-opacity:1;fill-rule:nonzero;stroke:url(#linearGradient4572);stroke-width:1;stroke-linecap:butt;stroke-linejoin:miter;stroke-miterlimit:4;stroke-dasharray:none;stroke-dashoffset:0;stroke-opacity:1;marker:none;color-rendering:auto;image-rendering:auto;shape-rendering:auto;text-rendering:auto;enable-background:accumulate"
     d="m 3.5094139,8.5 c -0.6902,0.0077 -1.0001413,0.3421001 -1.0004,1 l -0.00901,9 43.0000001,0 0.0032,-5.993 c 3.53e-4,-0.658 -0.554,-1.008 -1.244,-1 l -20.256,0 c -2.047,0 -3.499,-3.007 -5,-3.007 z" />
  <path
     id="rect4251-9-21-7"
     d="m 3.5097656,9.5097656 0,7.9804684 40.9804684,0 0,-4.980468 -20.490234,0 c -1.255319,0 -2.313786,-0.855456 -3.207031,-1.621094 C 20.346346,10.505853 19.940397,10.131683 19.607422,9.8710938 19.274447,9.6105046 18.994681,9.5097656 19,9.5097656 Z"
     style="color:#000000;display:inline;overflow:visible;visibility:visible;fill:none;stroke:url(#linearGradient12463);stroke-width:1;stroke-linecap:round;stroke-linejoin:round;stroke-miterlimit:4;stroke-dasharray:none;stroke-dashoffset:0;stroke-opacity:1;marker:none;enable-background:accumulate" />
  <rect
     width="38.333332"
     height="6.0000005"
     x="4.8333426"
     y="41"
     id="rect4173-8-8"
     style="display:inline;overflow:visible;visibility:visible;opacity:0.3;fill:url(#linearGradient12467);fill-opacity:1;fill-rule:nonzero;stroke:none;stroke-width:1;marker:none" />
  <path
     d="m 43.166672,41.00021 c 0,0 0,5.99967 0,5.99967 1.58565,0.0113 3.83333,-1.34422 3.83333,-3.00022 0,-1.656 -1.76947,-2.99945 -3.83333,-2.99945 z"
     id="path5058-9-0"
     style="display:inline;overflow:visible;visibility:visible;opacity:0.3;fill:url(#radialGradient12471);fill-opacity:1;fill-rule:nonzero;stroke:none;stroke-width:1;marker:none" />
  <path
     d="m 4.8333321,41.00021 c 0,0 0,5.99967 0,5.99967 -1.58565,0.0113 -3.83333,-1.34422 -3.83333,-3.00022 0,-1.656 1.76947,-2.99945 3.83333,-2.99945 z"
     id="path5018-6-6"
     style="display:inline;overflow:visible;visibility:visible;opacity:0.3;fill:url(#radialGradient12475);fill-opacity:1;fill-rule:nonzero;stroke:none;stroke-width:1;marker:none" />
  <path
     d="m 2.1626121,15.50019 c -1.07231,0.12829 -0.49959,1.45416 -0.58508,2.19974 0.12444,0.48182 0.92748,26.17643 0.92748,26.17643 0,0.7414 0.35172,0.61579 1.24292,0.61579 13.1885599,0 27.7725299,0 40.9610899,0 0.96008,0.0231 0.75718,0.0121 0.75718,-0.62748 0,0 0.99298,-27.35421 1.0285,-27.7811 0,-0.44949 0.0902,-0.58338 -0.47316,-0.58338 -14.08405,0 -29.77488,0 -43.8589299,0 z"
     id="path3388-7-1"
     style="fill:url(#linearGradient12481);fill-opacity:1;stroke:none" />
  <path
     d="m 2.5221121,16.499999 c 0.016793,0.183202 0.022163,0.537823 0.03125,0.908598 0.023112,0.08973 0.025524,0.06151 0.03125,0.09735 0.011058,0.06921 0.027034,0.143566 0.03125,0.1947 0.0064,0.07761 -0.00668,0.179686 0,0.292049 0.013352,0.224726 0.045306,0.530459 0.0625,0.908598 0.034388,0.756279 0.078083,1.7745 0.125,3.017843 0.093834,2.486687 0.2030642,5.769016 0.3125,9.02108 0.2122959,6.308724 0.3945663,12.188203 0.40625,12.558123 0.1225025,0.0037 0.071108,0 0.25,0 l 40.7187499,0 c 0.0124,-0.341463 0.253182,-6.673493 0.5,-13.401821 0.126691,-3.453636 0.245386,-6.941969 0.34375,-9.572728 0.04918,-1.31538 0.09434,-2.421026 0.125,-3.212543 0.01322,-0.341237 0.02246,-0.594976 0.03125,-0.811249 l -42.9687499,0 z"
     id="path4587-3-5"
     style="color:#000000;display:inline;overflow:visible;visibility:visible;opacity:0.5;fill:none;stroke:url(#linearGradient12489);stroke-width:1.00000012;stroke-linecap:round;stroke-linejoin:miter;stroke-miterlimit:4;stroke-dasharray:none;stroke-dashoffset:0;stroke-opacity:1;marker:none;enable-background:accumulate" />
  <path
     d="m 2.1626121,15.50019 c -1.07231,0.12829 -0.49959,1.45416 -0.58508,2.19974 0.12444,0.48182 0.92748,26.17643 0.92748,26.17643 0,0.7414 0.35172,0.61579 1.24292,0.61579 13.1885599,0 27.7725299,0 40.9610899,0 0.96008,0.0231 0.75718,0.0121 0.75718,-0.62748 0,0 0.99298,-27.35421 1.0285,-27.7811 0,-0.44949 0.0902,-0.58338 -0.47316,-0.58338 -14.08405,0 -29.77488,0 -43.8589299,0 z"
     id="path3388-7-1-7"
     style="opacity:0.3;fill:none;stroke:#000000;stroke-width:1;stroke-linecap:round;stroke-linejoin:round;stroke-miterlimit:4;stroke-dashoffset:0;stroke-opacity:1" />
  <rect
     id="rect3562"
     style="display:block;fill:#87a752"
     rx="1"
     ry="1"
     height="2"
     width="13"
     y="10"
     x="5" />
  <path
     id="path2812"
     style="opacity:0.3;fill:#ffffff;fill-rule:evenodd"
     d="m 29.611,21.024 c -0.85,0.144 -1.469,0.886 -1.457,1.748 0,0.966 0.783,1.748 1.749,1.748 0.966,0 1.749,-0.782 1.749,-1.748 0.007,-0.518 -0.217,-1.014 -0.611,-1.351 -0.394,-0.338 -0.918,-0.483 -1.43,-0.397 z m -5.502,1.967 c -0.755,0.002 -1.503,0.173 -2.368,0.583 l 1.494,2.986 c 2.848,-0.804 5.334,1.022 6.303,3.969 l 3.462,0 c -0.333,-1.721 -1.045,-3.476 -2.259,-4.77 -0.848,0.432 -1.888,0.466 -2.769,-0.037 -0.881,-0.503 -1.376,-1.425 -1.422,-2.367 -0.934,-0.216 -1.686,-0.366 -2.441,-0.364 z m -4.117,1.311 c -1.475,1.022 -2.924,2.989 -3.316,4.843 1.088,0.566 1.636,1.44 1.676,2.913 0.037,1.384 -0.804,2.283 -1.567,2.841 0.676,1.309 2.148,3.187 3.425,3.787 l 1.421,-3.423 c -1.995,-1.532 -2.727,-4.867 0,-7.611 l -1.639,-3.35 z m -5.357,6.009 c -0.791,0.051 -1.448,0.628 -1.602,1.405 -0.153,0.777 0.235,1.56 0.946,1.908 0.866,0.433 1.918,0.082 2.351,-0.783 0.432,-0.864 0.082,-1.916 -0.784,-2.348 -0.281,-0.142 -0.596,-0.205 -0.911,-0.182 z m 14.903,2.221 c -0.792,2.881 -3.005,4.689 -6.121,3.824 l -1.385,3.241 c 1.659,0.541 2.614,0.601 4.446,0.109 0.052,-0.944 0.571,-1.82 1.457,-2.331 0.887,-0.511 1.925,-0.535 2.769,-0.109 1.083,-1.392 2.02,-2.958 2.296,-4.734 l -3.462,0 z m 0.255,5.972 c -0.923,0.058 -1.641,0.824 -1.639,1.748 0,0.965 0.783,1.748 1.749,1.748 0.966,0 1.749,-0.783 1.749,-1.748 10e-4,-0.483 -0.198,-0.945 -0.551,-1.276 -0.352,-0.331 -0.825,-0.502 -1.308,-0.472 z" />
  <path
     id="path19"
     style="fill:#3b550e;fill-rule:nonzero;color:#000000;clip-rule:nonzero;display:inline;overflow:visible;visibility:visible;opacity:0.7;isolation:auto;mix-blend-mode:normal;color-interpolation:sRGB;color-interpolation-filters:linearRGB;solid-color:#000000;solid-opacity:1;fill-opacity:1;stroke:none;stroke-width:1.70000005;stroke-linecap:butt;stroke-linejoin:miter;stroke-miterlimit:4;stroke-dasharray:none;stroke-dashoffset:0;stroke-opacity:1;marker:none;filter-blend-mode:normal;filter-gaussianBlur-deviation:0;color-rendering:auto;image-rendering:auto;shape-rendering:auto;text-rendering:auto;enable-background:accumulate"
     d="m 29.611,20.024 c -0.85,0.144 -1.469,0.886 -1.457,1.748 0,0.966 0.783,1.748 1.749,1.748 0.966,0 1.749,-0.782 1.749,-1.748 0.007,-0.518 -0.217,-1.014 -0.611,-1.351 -0.394,-0.338 -0.918,-0.483 -1.43,-0.397 z m -5.502,1.967 c -0.755,0.002 -1.503,0.173 -2.368,0.583 l 1.494,2.986 c 2.848,-0.804 5.334,1.022 6.303,3.969 l 3.462,0 c -0.333,-1.721 -1.045,-3.476 -2.259,-4.77 -0.848,0.432 -1.888,0.466 -2.769,-0.037 -0.881,-0.503 -1.376,-1.425 -1.422,-2.367 -0.934,-0.216 -1.686,-0.366 -2.441,-0.364 z m -4.117,1.311 c -1.475,1.022 -2.924,2.989 -3.316,4.843 1.088,0.566 1.636,1.44 1.676,2.913 0.037,1.384 -0.804,2.283 -1.567,2.841 0.676,1.309 2.148,3.187 3.425,3.787 l 1.421,-3.423 c -1.995,-1.532 -2.727,-4.867 0,-7.611 l -1.639,-3.35 z m -5.357,6.009 c -0.791,0.051 -1.448,0.628 -1.602,1.405 -0.153,0.777 0.235,1.56 0.946,1.908 0.866,0.433 1.918,0.082 2.351,-0.783 0.432,-0.864 0.082,-1.916 -0.784,-2.348 -0.281,-0.142 -0.596,-0.205 -0.911,-0.182 z m 14.903,2.221 c -0.792,2.881 -3.005,4.689 -6.121,3.824 l -1.385,3.241 c 1.659,0.541 2.614,0.601 4.446,0.109 0.052,-0.944 0.571,-1.82 1.457,-2.331 0.887,-0.511 1.925,-0.535 2.769,-0.109 1.083,-1.392 2.02,-2.958 2.296,-4.734 l -3.462,0 z m 0.255,5.972 c -0.923,0.058 -1.641,0.824 -1.639,1.748 0,0.965 0.783,1.748 1.749,1.748 0.966,0 1.749,-0.783 1.749,-1.748 10e-4,-0.483 -0.198,-0.945 -0.551,-1.276 -0.352,-0.331 -0.825,-0.502 -1.308,-0.472 z" />
</svg>
