<?xml version="1.0" encoding="UTF-8" standalone="no"?>
<svg
   xmlns:dc="http://purl.org/dc/elements/1.1/"
   xmlns:cc="http://creativecommons.org/ns#"
   xmlns:rdf="http://www.w3.org/1999/02/22-rdf-syntax-ns#"
   xmlns:svg="http://www.w3.org/2000/svg"
   xmlns="http://www.w3.org/2000/svg"
   xmlns:xlink="http://www.w3.org/1999/xlink"
   version="1.1"
   width="48"
   height="48"
   id="svg18157">
  <defs
     id="defs18159">
    <linearGradient
       id="linearGradient4403">
      <stop
         style="stop-color:#000000;stop-opacity:0.23921569"
         offset="0"
         id="stop4405" />
      <stop
         style="stop-color:#000000;stop-opacity:0.31764707"
         offset="1"
         id="stop4407" />
    </linearGradient>
    <linearGradient
       id="linearGradient4673">
      <stop
         offset="0"
         style="stop-color:#ffffff;stop-opacity:1"
         id="stop4675" />
      <stop
         offset="0.1"
         style="stop-color:#ffffff;stop-opacity:0.23529412"
         id="stop4677" />
      <stop
         offset="0.99001008"
         style="stop-color:#ffffff;stop-opacity:0.15686275"
         id="stop4679" />
      <stop
         offset="1"
         style="stop-color:#ffffff;stop-opacity:0.39215687"
         id="stop4681" />
    </linearGradient>
    <linearGradient
       x1="42.470848"
       y1="11.952797"
       x2="42.470848"
       y2="35.581654"
       id="linearGradient12489"
       xlink:href="#linearGradient3454-2-5-0-3"
       gradientUnits="userSpaceOnUse"
       gradientTransform="matrix(0.89189031,0,0,1.0986542,3.142773,3.887208)" />
    <linearGradient
       id="linearGradient3454-2-5-0-3">
      <stop
         id="stop3456-4-9-38-1"
         style="stop-color:#ffffff;stop-opacity:1"
         offset="0" />
      <stop
         id="stop3458-39-80-3-5"
         style="stop-color:#ffffff;stop-opacity:0.23529412"
         offset="0.0097359" />
      <stop
         id="stop3460-7-0-2-4"
         style="stop-color:#ffffff;stop-opacity:0.15686275"
         offset="0.99001008" />
      <stop
         id="stop3462-0-9-8-7"
         style="stop-color:#ffffff;stop-opacity:0.39215687"
         offset="1" />
    </linearGradient>
    <linearGradient
       x1="35.792694"
       y1="17.118193"
       x2="35.792694"
       y2="43.761127"
       id="linearGradient12481"
       xlink:href="#radialGradient2444"
       gradientUnits="userSpaceOnUse"
       gradientTransform="matrix(1,0,0,1.0357143,2.0849371e-6,-1.5890903)" />
    <radialGradient
       cx="605.71429"
       cy="486.64789"
       r="117.14286"
       fx="605.71429"
       fy="486.64789"
       id="radialGradient12475"
       xlink:href="#linearGradient5060-820-91-9-0"
       gradientUnits="userSpaceOnUse"
       gradientTransform="matrix(-0.03079083,0,0,0.02470588,23.389752,31.94164)" />
    <linearGradient
       id="linearGradient5060-820-91-9-0">
      <stop
         id="stop2681-778-5-1"
         style="stop-color:#000000;stop-opacity:1"
         offset="0" />
      <stop
         id="stop2683-2-86-2"
         style="stop-color:#000000;stop-opacity:0"
         offset="1" />
    </linearGradient>
    <radialGradient
       cx="605.71429"
       cy="486.64789"
       r="117.14286"
       fx="605.71429"
       fy="486.64789"
       id="radialGradient12471"
       xlink:href="#linearGradient5060-179-37-4-0"
       gradientUnits="userSpaceOnUse"
       gradientTransform="matrix(0.03079083,0,0,0.02470588,24.610252,31.94164)" />
    <linearGradient
       id="linearGradient5060-179-37-4-0">
      <stop
         id="stop2675-91-9-2"
         style="stop-color:#000000;stop-opacity:1"
         offset="0" />
      <stop
         id="stop2677-09-0-9"
         style="stop-color:#000000;stop-opacity:0"
         offset="1" />
    </linearGradient>
    <linearGradient
       x1="302.85715"
       y1="366.64789"
       x2="302.85715"
       y2="609.50507"
       id="linearGradient12467"
       xlink:href="#linearGradient5048-585-73-1-5"
       gradientUnits="userSpaceOnUse"
       gradientTransform="matrix(0.07938856,0,0,0.02470588,-4.6932879,31.94164)" />
    <linearGradient
       id="linearGradient5048-585-73-1-5">
      <stop
         id="stop2667-99-4-6"
         style="stop-color:#000000;stop-opacity:0"
         offset="0" />
      <stop
         id="stop2669-5-9-4"
         style="stop-color:#000000;stop-opacity:1"
         offset="0.5" />
      <stop
         id="stop2671-56-4-2"
         style="stop-color:#000000;stop-opacity:0"
         offset="1" />
    </linearGradient>
    <linearGradient
       x1="68.876045"
       y1="4.3915653"
       x2="68.876045"
       y2="32.746193"
       id="linearGradient12463"
       xlink:href="#linearGradient4673"
       gradientUnits="userSpaceOnUse"
       gradientTransform="matrix(0.89189031,0,0,1.0580283,-45.793073,5.3535997)" />
    <linearGradient
       id="linearGradient4646-7-4-3">
      <stop
         id="stop4648-8-0-3"
         style="stop-color:#f9f9f9;stop-opacity:1"
         offset="0" />
      <stop
         id="stop4650-1-7-3"
         style="stop-color:#d8d8d8;stop-opacity:1"
         offset="1" />
    </linearGradient>
    <linearGradient
       id="linearGradient3104-8-8-97-4-6-11-5-5">
      <stop
         id="stop3106-5-4-3-5-0-2-1-0"
         style="stop-color:#000000;stop-opacity:0.32173914"
         offset="0" />
      <stop
         id="stop3108-4-3-7-8-2-0-7-9"
         style="stop-color:#000000;stop-opacity:0.27826086"
         offset="1" />
    </linearGradient>
    <radialGradient
       id="radialGradient2444"
       gradientUnits="userSpaceOnUse"
       cy="14.113"
       cx="63.969002"
       gradientTransform="matrix(1.5647,-9.5143e-8,6.1772e-8,1.0159,-59.14917,8.1461003)"
       r="23.097">
      <stop
         id="stop3618"
         style="stop-color:#ad7fa8"
         offset="0" />
      <stop
         id="stop3270"
         style="stop-color:#75507b"
         offset="0.6875183" />
      <stop
         id="stop3620"
         style="stop-color:#5c3566"
         offset="1" />
    </radialGradient>
    <linearGradient
       x1="62.988873"
       y1="13"
       x2="62.988873"
       y2="16"
       id="linearGradient12459-6"
       xlink:href="#linearGradient4646-7-4-3"
       gradientUnits="userSpaceOnUse"
       gradientTransform="translate(-50.939545,0)" />
    <linearGradient
       xlink:href="#linearGradient3104-8-8-97-4-6-11-5-5"
       id="linearGradient4572"
       gradientUnits="userSpaceOnUse"
       gradientTransform="matrix(0.80749834,0,0,0.83374395,57.966199,-0.0698403)"
       x1="-51.786404"
       y1="53.514328"
       x2="-51.786404"
       y2="3.6336823" />
    <linearGradient
       id="linearGradient2738"
       y2="27.957001"
       xlink:href="#linearGradient3341"
       gradientUnits="userSpaceOnUse"
       x2="30"
       gradientTransform="matrix(0.54109,0,0,0.60328,16.767,16.56)"
       y1="5.7027998"
       x1="30" />
    <linearGradient
       id="linearGradient3341">
      <stop
         id="stop3343"
         style="stop-color:#fff"
         offset="0" />
      <stop
         id="stop3345"
         style="stop-color:#fff;stop-opacity:0"
         offset="1" />
    </linearGradient>
    <radialGradient
       id="radialGradient2741"
       xlink:href="#linearGradient5060-820-91-9-0"
       gradientUnits="userSpaceOnUse"
       cy="33.188"
       cx="30"
       gradientTransform="matrix(1.3039,-4.7098e-7,1.8183e-7,0.30724,-6.1161,26.803)"
       r="4.6875" />
    <linearGradient
       id="linearGradient2744"
       y2="38.599998"
       xlink:href="#linearGradient5060-820-91-9-0"
       gradientUnits="userSpaceOnUse"
       x2="43"
       gradientTransform="matrix(0.75,0,0,0.65217,9.75,17.226)"
       y1="39"
       x1="38" />
    <linearGradient
       id="linearGradient2747"
       y2="37.438"
       xlink:href="#linearGradient5060-820-91-9-0"
       gradientUnits="userSpaceOnUse"
       x2="17"
       gradientTransform="matrix(0.75,0,0,0.65217,11.25,17.226)"
       y1="39"
       x1="22" />
    <radialGradient
       id="radialGradient2750"
       xlink:href="#linearGradient6954"
       gradientUnits="userSpaceOnUse"
       cy="12.313"
       cx="26.375999"
       gradientTransform="matrix(0.98412,-0.084594,0.07687,1.0112,3.9615,12.655)"
       r="8" />
    <linearGradient
       id="linearGradient6954">
      <stop
         id="stop6960"
         style="stop-color:#f5f5f5"
         offset="0" />
      <stop
         id="stop6962"
         style="stop-color:#d2d2d2"
         offset="1" />
    </linearGradient>
    <linearGradient
       id="linearGradient2753"
       y2="83.733002"
       xlink:href="#linearGradient3341"
       gradientUnits="userSpaceOnUse"
       x2="24.349001"
       gradientTransform="matrix(0.65517,0,0,0.68182,16.047,-11.091)"
       y1="57.333"
       x1="24.349001" />
    <radialGradient
       id="radialGradient2756"
       xlink:href="#linearGradient6954"
       gradientUnits="userSpaceOnUse"
       cy="28.66"
       cx="25"
       gradientTransform="matrix(0.88911,0,0,0.2644,7.3851,29.36)"
       r="16" />
    <radialGradient
       id="radialGradient2759"
       xlink:href="#linearGradient5060-820-91-9-0"
       gradientUnits="userSpaceOnUse"
       cy="41.5"
       cx="32"
       gradientTransform="matrix(0.57143,0,0,0.16667,14.714,37.583)"
       r="21" />
    <linearGradient
       xlink:href="#linearGradient4403"
       id="linearGradient4409"
       x1="34.701958"
       y1="19.044577"
       x2="34.701958"
       y2="33.233173"
       gradientUnits="userSpaceOnUse" />
  </defs>
  <metadata
     id="metadata18162">
    <rdf:RDF>
      <cc:Work
         rdf:about="">
        <dc:format>image/svg+xml</dc:format>
        <dc:type
           rdf:resource="http://purl.org/dc/dcmitype/StillImage" />
        <dc:title />
      </cc:Work>
    </rdf:RDF>
  </metadata>
  <path
     style="color:#000000;clip-rule:nonzero;display:inline;overflow:visible;visibility:visible;opacity:1;isolation:auto;mix-blend-mode:normal;color-interpolation:sRGB;color-interpolation-filters:linearRGB;solid-color:#000000;solid-opacity:1;fill:url(#linearGradient12459-6);fill-opacity:1;fill-rule:nonzero;stroke:none;stroke-width:0.99992168;stroke-linecap:butt;stroke-linejoin:miter;stroke-miterlimit:4;stroke-dasharray:none;stroke-dashoffset:0;stroke-opacity:1;marker:none;color-rendering:auto;image-rendering:auto;shape-rendering:auto;text-rendering:auto;enable-background:accumulate;filter-blend-mode:normal;filter-gaussianBlur-deviation:0"
     d="M 3.5,9 C 3.223,9 3,9.223 3,9.5 l 0,8 C 3,17.777 3.223,18 3.5,18 l 41,0 c 0.277,0 0.5,-0.223 0.5,-0.5 l 0,-5 C 45,12.223 44.777,12 44.5,12 L 24,12 C 22,12 20,9 19,9 Z"
     id="rect4574" />
  <path
     d="m 3.5094139,8.5 c -0.6902,0.0077 -1.0001413,0.3421001 -1.0004,1 l -0.00901,9 43.0000001,0 0.0032,-5.993 c 3.53e-4,-0.658 -0.554,-1.008 -1.244,-1 l -20.256,0 c -2.047,0 -3.499,-3.007 -5,-3.007 z"
     style="color:#000000;clip-rule:nonzero;display:inline;overflow:visible;visibility:visible;opacity:0.8;isolation:auto;mix-blend-mode:normal;color-interpolation:sRGB;color-interpolation-filters:linearRGB;solid-color:#000000;solid-opacity:1;fill:none;fill-opacity:1;fill-rule:nonzero;stroke:url(#linearGradient4572);stroke-width:1;stroke-linecap:butt;stroke-linejoin:miter;stroke-miterlimit:4;stroke-dasharray:none;stroke-dashoffset:0;stroke-opacity:1;marker:none;color-rendering:auto;image-rendering:auto;shape-rendering:auto;text-rendering:auto;enable-background:accumulate"
     id="path3468-2" />
  <path
     style="color:#000000;display:inline;overflow:visible;visibility:visible;fill:none;stroke:url(#linearGradient12463);stroke-width:1;stroke-linecap:round;stroke-linejoin:round;stroke-miterlimit:4;stroke-dasharray:none;stroke-dashoffset:0;stroke-opacity:1;marker:none;enable-background:accumulate"
     d="m 3.5097656,9.5097656 0,7.9804684 40.9804684,0 0,-4.980468 -20.490234,0 c -1.255319,0 -2.313786,-0.855456 -3.207031,-1.621094 C 20.346346,10.505853 19.940397,10.131683 19.607422,9.8710938 19.274447,9.6105046 18.994681,9.5097656 19,9.5097656 Z"
     id="rect4251-9-21-7" />
  <rect
     style="display:inline;overflow:visible;visibility:visible;opacity:0.3;fill:url(#linearGradient12467);fill-opacity:1;fill-rule:nonzero;stroke:none;stroke-width:1;marker:none"
     id="rect4173-8-8"
     y="41"
     x="4.8333426"
     height="6.0000005"
     width="38.333332" />
  <path
     style="display:inline;overflow:visible;visibility:visible;opacity:0.3;fill:url(#radialGradient12471);fill-opacity:1;fill-rule:nonzero;stroke:none;stroke-width:1;marker:none"
     id="path5058-9-0"
     d="m 43.166672,41.00021 c 0,0 0,5.99967 0,5.99967 1.58565,0.0113 3.83333,-1.34422 3.83333,-3.00022 0,-1.656 -1.76947,-2.99945 -3.83333,-2.99945 z" />
  <path
     style="display:inline;overflow:visible;visibility:visible;opacity:0.3;fill:url(#radialGradient12475);fill-opacity:1;fill-rule:nonzero;stroke:none;stroke-width:1;marker:none"
     id="path5018-6-6"
     d="m 4.8333321,41.00021 c 0,0 0,5.99967 0,5.99967 -1.58565,0.0113 -3.83333,-1.34422 -3.83333,-3.00022 0,-1.656 1.76947,-2.99945 3.83333,-2.99945 z" />
  <path
     style="fill:url(#linearGradient12481);fill-opacity:1;stroke:none"
     id="path3388-7-1"
     d="m 2.1626121,15.50019 c -1.07231,0.12829 -0.49959,1.45416 -0.58508,2.19974 0.12444,0.48182 0.92748,26.17643 0.92748,26.17643 0,0.7414 0.35172,0.61579 1.24292,0.61579 13.1885599,0 27.7725299,0 40.9610899,0 0.96008,0.0231 0.75718,0.0121 0.75718,-0.62748 0,0 0.99298,-27.35421 1.0285,-27.7811 0,-0.44949 0.0902,-0.58338 -0.47316,-0.58338 -14.08405,0 -29.77488,0 -43.8589299,0 z" />
  <path
     style="color:#000000;display:inline;overflow:visible;visibility:visible;opacity:0.5;fill:none;stroke:url(#linearGradient12489);stroke-width:1.00000012;stroke-linecap:round;stroke-linejoin:miter;stroke-miterlimit:4;stroke-dasharray:none;stroke-dashoffset:0;stroke-opacity:1;marker:none;enable-background:accumulate"
     id="path4587-3-5"
     d="m 2.5221121,16.499999 c 0.016793,0.183202 0.022163,0.537823 0.03125,0.908598 0.023112,0.08973 0.025524,0.06151 0.03125,0.09735 0.011058,0.06921 0.027034,0.143566 0.03125,0.1947 0.0064,0.07761 -0.00668,0.179686 0,0.292049 0.013352,0.224726 0.045306,0.530459 0.0625,0.908598 0.034388,0.756279 0.078083,1.7745 0.125,3.017843 0.093834,2.486687 0.2030642,5.769016 0.3125,9.02108 0.2122959,6.308724 0.3945663,12.188203 0.40625,12.558123 0.1225025,0.0037 0.071108,0 0.25,0 l 40.7187499,0 c 0.0124,-0.341463 0.253182,-6.673493 0.5,-13.401821 0.126691,-3.453636 0.245386,-6.941969 0.34375,-9.572728 0.04918,-1.31538 0.09434,-2.421026 0.125,-3.212543 0.01322,-0.341237 0.02246,-0.594976 0.03125,-0.811249 l -42.9687499,0 z" />
  <path
     style="opacity:0.3;fill:none;stroke:#000000;stroke-width:1;stroke-linecap:round;stroke-linejoin:round;stroke-miterlimit:4;stroke-dashoffset:0;stroke-opacity:1"
     id="path3388-7-1-7"
     d="m 2.1626121,15.50019 c -1.07231,0.12829 -0.49959,1.45416 -0.58508,2.19974 0.12444,0.48182 0.92748,26.17643 0.92748,26.17643 0,0.7414 0.35172,0.61579 1.24292,0.61579 13.1885599,0 27.7725299,0 40.9610899,0 0.96008,0.0231 0.75718,0.0121 0.75718,-0.62748 0,0 0.99298,-27.35421 1.0285,-27.7811 0,-0.44949 0.0902,-0.58338 -0.47316,-0.58338 -14.08405,0 -29.77488,0 -43.8589299,0 z" />
  <rect
     x="5"
     y="10"
     width="13"
     height="2"
     ry="1"
     rx="1"
     style="display:block;fill:#75507b"
     id="rect3562" />
  <path
     id="path3823"
     style="opacity:0.8;fill:url(#radialGradient2759)"
     d="M 45,44.5 C 45,46.433 39.627,48 33,48 26.373,48 21,46.433 21,44.5 21,42.567 26.373,41 33,41 c 6.627,0 12,1.567 12,3.5 z" />
  <path
     id="path3766"
     style="fill:url(#radialGradient2756);stroke:none;stroke-width:0.99997002"
     d="m 30.052,29.5 c 0.312,1.542 0.585,2.708 0.332,4.25 -1.972,1.711 -7.214,2.479 -7.207,4.25 L 22.5,43.313 c 0,1.76 4.701,3.187 10.5,3.187 5.799,0 10.5,-1.427 10.5,-3.187 L 42.823,38 c -0.009,-1.516 -5.281,-2.479 -7.229,-4.25 -0.166,-1.431 0.066,-2.819 0.354,-4.25 l -5.896,0 z" />
  <path
     id="path3766-7"
     style="fill:none;stroke:url(#linearGradient4409);stroke-width:0.99978;color:#000000;clip-rule:nonzero;display:inline;overflow:visible;visibility:visible;opacity:1;isolation:auto;mix-blend-mode:normal;color-interpolation:sRGB;color-interpolation-filters:linearRGB;solid-color:#000000;solid-opacity:1;fill-opacity:1;fill-rule:nonzero;stroke-linecap:butt;stroke-linejoin:miter;stroke-miterlimit:4;stroke-dasharray:none;stroke-dashoffset:0;stroke-opacity:1;filter-blend-mode:normal;filter-gaussianBlur-deviation:0;color-rendering:auto;image-rendering:auto;shape-rendering:auto;text-rendering:auto;enable-background:accumulate"
     d="m 30.052,29.5 c 0.312,1.542 0.585,2.708 0.332,4.25 -1.972,1.711 -7.214,2.479 -7.207,4.25 L 22.5,43.313 c 0,1.76 4.701,3.187 10.5,3.187 5.799,0 10.5,-1.427 10.5,-3.187 L 42.823,38 c -0.009,-1.516 -5.281,-2.479 -7.229,-4.25 -0.166,-1.431 0.066,-2.819 0.354,-4.25 l -5.896,0 z" />
  <path
     id="path3894"
     style="fill:none;stroke:url(#linearGradient2753);stroke-width:0.99991"
     d="m 31.109,30.5 c 0.207,1.218 0.571,2.497 0.262,3.71 -0.586,0.735 -2.025,1.099 -2.851,1.502 -1.402,0.66 -2.992,1.011 -4.208,2.01 -0.267,0.373 -0.179,0.888 -0.283,1.328 -0.175,1.362 -0.358,2.723 -0.529,4.085 0.372,0.828 1.4,1.075 2.178,1.39 3.318,1.01 6.849,1.123 10.285,0.838 2.002,-0.22 4.071,-0.507 5.855,-1.497 0.548,-0.23 0.801,-0.764 0.609,-1.311 C 42.237,41.036 42.017,39.52 41.845,38 41.081,37.215 39.97,36.9 38.998,36.445 37.654,35.853 35.586,35.341 34.544,34.266 34.342,33.059 34.798,31.517 34.735,30.5 l -3.626,0 z" />
  <path
     id="path3764"
     style="fill:url(#radialGradient2750);stroke:none;stroke-width:0.99978"
     d="m 33,19.5 c -2.485,0 -4.5,2 -4.5,4.466 0.019,0.913 0.093,1.998 0.6,4.467 0.3,0.957 2.976,3.709 3,4.028 0.582,0.319 1.5,0.319 2.1,0 0,-0.319 2.4,-3.071 2.7,-4.028 0.571,-2.566 0.569,-3.51 0.6,-4.467 C 37.5,21.5 35.485,19.5 33,19.5 Z" />
  <path
     id="path3848"
     style="opacity:0.3;fill:url(#linearGradient2747)"
     d="m 27,45.4 c -1.772,-1.293 -0.927,-4.163 -0.75,-6 -0.75,1.304 -0.75,5.217 -2.25,5.217 1.022,0.299 2.062,0.63 3,0.783 z" />
  <path
     id="path3850"
     style="opacity:0.3;fill:url(#linearGradient2744)"
     d="m 39,45.4 c 1.763,-1.137 0.868,-4.23 0.75,-6 0.75,1.304 0.75,5.217 2.25,5.217 -1.022,0.299 -2.062,0.63 -3,0.783 z" />
  <path
     id="path3833"
     style="opacity:0.2;fill:url(#radialGradient2741)"
     d="m 29,35 c 0.586,1.163 2.149,2 4,2 1.851,0 3.414,-0.837 4,-2 l -8,0 z" />
  <path
     id="path3906"
     style="opacity:0.7;fill:none;stroke:url(#linearGradient2738);stroke-width:0.99956"
     d="m 33,20.5 c -1.578,-0.032 -3.035,1.166 -3.388,2.691 -0.233,1.003 -0.045,2.04 0.078,3.047 0.113,0.668 0.192,1.351 0.375,2.001 0.669,1.163 1.692,2.069 2.462,3.158 0.412,0.122 1.079,0.241 1.323,-0.199 0.691,-1.019 1.571,-1.917 2.126,-3.025 0.298,-1.493 0.603,-3.015 0.495,-4.545 C 36.298,22.014 34.909,20.607 33.272,20.51 33.182,20.503 33.091,20.5 33,20.5 Z" />
  <path
     id="path3764-3"
     style="fill:none;stroke:url(#linearGradient4409);stroke-width:0.99978"
     d="m 33,19.5 c -2.485,0 -4.5,2 -4.5,4.466 0.019,0.913 0.093,1.998 0.6,4.467 0.3,0.957 2.976,3.709 3,4.028 0.582,0.319 1.5,0.319 2.1,0 0,-0.319 2.4,-3.071 2.7,-4.028 0.571,-2.566 0.569,-3.51 0.6,-4.467 C 37.5,21.5 35.485,19.5 33,19.5 Z" />
</svg>
