<?xml version="1.0" encoding="UTF-8"?>
<!-- Created with Inkscape (http://www.inkscape.org/) -->
<svg id="svg2896" width="16" height="16" version="1.1" xmlns="http://www.w3.org/2000/svg">
 <g id="layer1" transform="translate(-2 4)">
  <g id="layer1-3" transform="translate(-2 -7)">
   <path id="rect2196" d="m17.5 6.51v-2.01h-5.0315l-1.5265-0.978h-6.442v10.988c-0.00224 0.88609 0.36635 2.1366 2.336 1.9895" style="fill:none;stroke-linecap:round;stroke-linejoin:round;stroke-width:.979;stroke:#969696"/>
   <path id="rect3086" d="m14.013 16.5h-7.7564l-0.95643-0.3c1.8592 0.20657 1.2-6.0333 1.2-9.7h13v5.9499c0.07747 2.86 0.39975 4.1627-2.008 4.0501" style="fill:none;stroke-linecap:round;stroke-linejoin:round;stroke-width:.99984;stroke:#969696"/>
   <path id="path3594" d="m10.313 15.5h-3.813c1.6268-1.6057 1-5 1-8h11v8h-1.308" style="fill:none;opacity:.4;stroke-linecap:round;stroke-linejoin:round;stroke-width:.99984;stroke:#969696"/>
   <path id="path3970-2" d="m11.5 8.476 6.2062 4.2448-2.222 0.66927s1.8589 3.55 1.8589 3.55c0.62413 1.5725-1.76 2.3135-2.2281 1.1341 0 0-1.833-3.5006-1.833-3.5006l-1.7634 1.4202-0.01852-7.5179z" style="fill:none;stroke-linejoin:round;stroke:#969696"/>
  </g>
 </g>
</svg>
