<?xml version="1.0" encoding="UTF-8"?>
<!-- Created with Inkscape (http://www.inkscape.org/) -->
<svg id="svg2816" width="16" height="16" version="1.1" xmlns="http://www.w3.org/2000/svg">
 <path id="path3928" d="m10.542 10.042c2 0 3.5-1.6241 3.5-3.5 0-2-1.761-3.5-3.5-3.5-2 0-3.5 1.5-3.5 3.5 0 1.9378 1.5 3.5 3.5 3.5m-5.5423 1.9577c-1.5278-0.031251-4-1-4-4v-3c0-3 2.5-3.9167 4-4h7c1.5 0.11458 4 1 4 4v3c0 3-1.5139 4-3 4-2.3962-0.01417-0.51616 2.7243 0 4h-0.66667l-4.3333-4h-3z" style="fill:#969696"/>
 <path id="path2817" d="m12.25 6.5h-1.75v-2.6" style="fill:none;stroke-linecap:round;stroke-linejoin:round;stroke-width:1px;stroke:#969696"/>
</svg>
