<?xml version="1.0" encoding="UTF-8"?>
<!-- Created with Inkscape (http://www.inkscape.org/) -->
<svg id="svg7739" width="24" height="24" version="1.1" xmlns="http://www.w3.org/2000/svg" xmlns:cc="http://creativecommons.org/ns#" xmlns:dc="http://purl.org/dc/elements/1.1/" xmlns:rdf="http://www.w3.org/1999/02/22-rdf-syntax-ns#">
 <metadata id="metadata9">
  <rdf:RDF>
   <cc:Work rdf:about="">
    <dc:format>image/svg+xml</dc:format>
    <dc:type rdf:resource="http://purl.org/dc/dcmitype/StillImage"/>
    <dc:title/>
   </cc:Work>
  </rdf:RDF>
 </metadata>
 <path id="path7793-6" d="m12.026 3.9998c-2.3231-0.019671-4.5087 1.735-4.9375 3.9375-0.42881 2.2025 0.73395 4.2677 2.9062 5.0625v6c0 2 1.1301 3.0165 2 3 0.86992-0.01652 2-1 2-3l2-1-3-1 3-2-2-1v-1c2.1864-0.75786 3.3262-2.7593 2.9375-4.9688-0.38867-2.2094-2.5832-4.0116-4.9062-4.0313zm0 2.9688c0.58475 0 1.0312 0.4465 1.0312 1.0312s-0.4465 1.0312-1.0312 1.0312-1.0312-0.4465-1.0312-1.0312 0.4465-1.0312 1.0312-1.0312zm0 1c0.02182 0-0.03125 0.053071-0.03125 0.03125s0.05307 0.03125 0.03125 0.03125 0.03125-0.053071 0.03125-0.03125-0.05307-0.03125-0.03125-0.03125z" style="color:#000000;opacity:.3"/>
 <path id="path7793" d="m12.026 3c-2.3231-0.019671-4.5087 1.735-4.9375 3.9375-0.42881 2.2025 0.73395 4.2677 2.9062 5.0625v6c0 2 1.1301 3.0165 2 3 0.86992-0.01652 2-1 2-3l2-1-3-1 3-2-2-1v-1c2.1864-0.75786 3.3262-2.7593 2.9375-4.9688-0.38867-2.2094-2.5832-4.0116-4.9062-4.0312zm0 2.9688c0.58475 0 1.0312 0.4465 1.0312 1.0312s-0.4465 1.0312-1.0312 1.0312-1.0312-0.4465-1.0312-1.0312 0.4465-1.0312 1.0312-1.0312zm0 1c0.02182 0-0.03125 0.053071-0.03125 0.03125s0.05307 0.03125 0.03125 0.03125 0.03125-0.053071 0.03125-0.03125-0.05307-0.03125-0.03125-0.03125z" style="color:#000000;fill:#df382c"/>
</svg>
