<?xml version="1.0" encoding="UTF-8" standalone="no"?>
<svg
   xmlns:dc="http://purl.org/dc/elements/1.1/"
   xmlns:cc="http://creativecommons.org/ns#"
   xmlns:rdf="http://www.w3.org/1999/02/22-rdf-syntax-ns#"
   xmlns:svg="http://www.w3.org/2000/svg"
   xmlns="http://www.w3.org/2000/svg"
   xmlns:xlink="http://www.w3.org/1999/xlink"
   version="1.0"
   width="24"
   height="24"
   id="svg2">
  <defs
     id="defs4">
    <linearGradient
       id="linearGradient5060-925">
      <stop
         id="stop2644"
         style="stop-color:#000000;stop-opacity:0.31764707"
         offset="0" />
      <stop
         id="stop2646"
         style="stop-color:#000000;stop-opacity:0.23921569"
         offset="1" />
    </linearGradient>
    <linearGradient
       id="linearGradient4346">
      <stop
         id="stop4348"
         style="stop-color:#ffffff;stop-opacity:1"
         offset="0" />
      <stop
         id="stop4350"
         style="stop-color:#d8d8d8;stop-opacity:1"
         offset="1" />
    </linearGradient>
    <linearGradient
       id="linearGradient3104-8-8-97-4-6-11-5-5-4-4">
      <stop
         id="stop3106-5-4-3-5-0-2-1-0-7-7"
         style="stop-color:#000000;stop-opacity:0.32173914"
         offset="0" />
      <stop
         id="stop3108-4-3-7-8-2-0-7-9-0-6"
         style="stop-color:#000000;stop-opacity:0.27826086"
         offset="1" />
    </linearGradient>
    <linearGradient
       id="linearGradient3454-2-5-0-3-8">
      <stop
         id="stop3456-4-9-38-1-9"
         style="stop-color:#ffffff;stop-opacity:1"
         offset="0" />
      <stop
         id="stop3458-39-80-3-5-6"
         style="stop-color:#ffffff;stop-opacity:0.23529412"
         offset="0.0097359" />
      <stop
         id="stop3460-7-0-2-4-4"
         style="stop-color:#ffffff;stop-opacity:0.15686275"
         offset="0.99001008" />
      <stop
         id="stop3462-0-9-8-7-8"
         style="stop-color:#ffffff;stop-opacity:0.39215687"
         offset="1" />
    </linearGradient>
    <linearGradient
       x1="84.30883"
       y1="16.110577"
       x2="84.30883"
       y2="42.923553"
       id="linearGradient3019"
       xlink:href="#linearGradient4632-0-6-4-4-7"
       gradientUnits="userSpaceOnUse"
       gradientTransform="matrix(0.33333327,0,0,0.34148555,-15.08621,0.39211239)" />
    <linearGradient
       x1="76.041"
       y1="49.372032"
       x2="76.041"
       y2="35.430561"
       id="linearGradient3016"
       xlink:href="#linearGradient6129-963-697-142-998-580-273-44-2-2-2-1"
       gradientUnits="userSpaceOnUse"
       gradientTransform="matrix(0.38156409,0,0,0.32896952,-16.24159,1.2783524)" />
    <linearGradient
       x1="11.350123"
       y1="0.66696572"
       x2="11.350123"
       y2="8.1721792"
       id="linearGradient3013"
       xlink:href="#linearGradient3454-2-5-0-3-8-2"
       gradientUnits="userSpaceOnUse"
       gradientTransform="matrix(0.89189031,0,0,0.94046961,5.14398,6.3427221)" />
    <linearGradient
       id="linearGradient4632-0-6-4-4-7">
      <stop
         id="stop4634-4-4-7-5-1"
         style="stop-color:#e9e9e9;stop-opacity:1"
         offset="0" />
      <stop
         id="stop4636-3-1-5-4-6"
         style="stop-color:#b4b4b4;stop-opacity:1"
         offset="1" />
    </linearGradient>
    <linearGradient
       id="linearGradient6129-963-697-142-998-580-273-44-2-2-2-1">
      <stop
         id="stop2661-01-6-2-4-3"
         style="stop-color:#0a0a0a;stop-opacity:0.498"
         offset="0" />
      <stop
         id="stop2663-64-5-5-3-4"
         style="stop-color:#0a0a0a;stop-opacity:0"
         offset="1" />
    </linearGradient>
    <linearGradient
       id="linearGradient3454-2-5-0-3-8-2">
      <stop
         id="stop3456-4-9-38-1-9-6"
         style="stop-color:#ffffff;stop-opacity:1"
         offset="0" />
      <stop
         id="stop3458-39-80-3-5-6-4"
         style="stop-color:#ffffff;stop-opacity:0.23529412"
         offset="0.0097359" />
      <stop
         id="stop3460-7-0-2-4-4-8"
         style="stop-color:#ffffff;stop-opacity:0.15686275"
         offset="0.99001008" />
      <stop
         id="stop3462-0-9-8-7-8-0"
         style="stop-color:#ffffff;stop-opacity:0.39215687"
         offset="1" />
    </linearGradient>
    <linearGradient
       gradientTransform="matrix(0.59680467,0,0,0.34757012,5.6191986,5.8883641)"
       gradientUnits="userSpaceOnUse"
       xlink:href="#radialGradient2444"
       id="linearGradient12481"
       y2="44.805866"
       x2="15.029637"
       y1="16.073452"
       x1="15.029637" />
    <radialGradient
       r="23.097"
       gradientTransform="matrix(1.5647,-9.5143e-8,6.1772e-8,1.0159,-59.14917,8.1461003)"
       cx="63.969002"
       cy="14.113"
       gradientUnits="userSpaceOnUse"
       id="radialGradient2444">
      <stop
         offset="0"
         style="stop-color:#ADC980"
         id="stop3618" />
      <stop
         offset="0.6875183"
         style="stop-color:#87A752"
         id="stop3270" />
      <stop
         offset="1"
         style="stop-color:#688933"
         id="stop3620" />
    </radialGradient>
    <linearGradient
       xlink:href="#linearGradient4346"
       id="linearGradient4289"
       gradientUnits="userSpaceOnUse"
       gradientTransform="matrix(0.33333327,0,0,0.32971018,-11.450956,6.3575704)"
       x1="62.988873"
       y1="11.645091"
       x2="62.988873"
       y2="15.385052" />
    <linearGradient
       xlink:href="#linearGradient3104-8-8-97-4-6-11-5-5-4-4"
       id="linearGradient4291"
       gradientUnits="userSpaceOnUse"
       gradientTransform="matrix(0.31070043,0,0,0.27489387,26.166844,6.9022504)"
       x1="-51.786404"
       y1="53.514328"
       x2="-51.786404"
       y2="2.0612748" />
    <linearGradient
       xlink:href="#linearGradient3454-2-5-0-3-8"
       id="linearGradient4293"
       gradientUnits="userSpaceOnUse"
       gradientTransform="matrix(0.89189031,0,0,0.94046961,9.1336536,12.35195)"
       x1="11.350123"
       y1="0.66696572"
       x2="11.350123"
       y2="8.1721792" />
    <linearGradient
       xlink:href="#linearGradient5060-925"
       id="linearGradient4291-9"
       gradientUnits="userSpaceOnUse"
       gradientTransform="matrix(0.31070043,0,0,0.27489387,22.166844,0.9022503)"
       x1="-51.786404"
       y1="53.514328"
       x2="-51.786404"
       y2="4.1665359" />
    <linearGradient
       xlink:href="#linearGradient4346"
       id="linearGradient4289-0"
       gradientUnits="userSpaceOnUse"
       gradientTransform="matrix(0.33333327,0,0,0.32971018,-15.450956,0.3575703)"
       x1="62.988873"
       y1="11.645091"
       x2="62.988873"
       y2="15.385052" />
  </defs>
  <metadata
     id="metadata7">
    <rdf:RDF>
      <cc:Work
         rdf:about="">
        <dc:format>image/svg+xml</dc:format>
        <dc:type
           rdf:resource="http://purl.org/dc/dcmitype/StillImage" />
        <dc:title />
      </cc:Work>
    </rdf:RDF>
  </metadata>
  <path
     style="color:#000000;display:inline;overflow:visible;visibility:visible;fill:url(#linearGradient4289-0);fill-opacity:1;fill-rule:nonzero;stroke:none;stroke-width:0.99992168;marker:none;enable-background:accumulate"
     id="rect4170-0-9-6"
     d="m 3,2.98208 0.012994,5 14,0 0,-4 -6.749585,0 -2.065922,-1 z" />
  <path
     style="color:#000000;display:inline;overflow:visible;visibility:visible;opacity:0.8;fill:none;stroke:url(#linearGradient4291-9);stroke-width:1;stroke-linecap:butt;stroke-linejoin:miter;stroke-miterlimit:4;stroke-dasharray:none;stroke-dashoffset:0;stroke-opacity:1;marker:none;enable-background:accumulate"
     id="rect4170-1-1"
     d="m 17.512994,5.005413 0,-1.273333 c 0,-0.1385 -0.1115,-0.25 -0.25,-0.25 l -6.75,0 c -0.495281,0 -1.723724,-0.96875 -2.25,-0.96875 l -5.5003204,0 c -0.1385,0 -0.25,0.1115 -0.25,0.25 l 3.2e-4,2.242083" />
  <path
     d="m 2.55988,5.4495521 c 0.75732,0 14.39951,0.0316 14.98675,0.0316 0,0.6186 -0.0285,10.0096199 -0.0624,10.0096199 -5.26001,0.0178 -13.45265,-0.014 -14.98423,-0.014 0,-1.16748 0.0599,-7.6245899 0.0599,-10.0272099 z"
     id="rect3086-5"
     style="color:#000000;display:inline;overflow:visible;visibility:visible;fill:url(#linearGradient3019);fill-opacity:1;fill-rule:nonzero;stroke:none;stroke-width:1;marker:none;enable-background:accumulate" />
  <path
     d="m 2.08698,4.9728321 c 0.8053,0 15.31189,0.0341 15.93634,0.0341 0,0.67729 -0.0303,10.9597099 -0.0663,10.9597099 -5.5933,0.02 -14.30504,-0.0148 -15.93366,-0.0148 0,-1.2783 0.0636,-8.3483099 0.0636,-10.9789799 z"
     id="rect3086-1-9"
     style="color:#000000;display:inline;overflow:visible;visibility:visible;opacity:0.4;fill:url(#linearGradient3016);fill-opacity:1;fill-rule:nonzero;stroke:none;stroke-width:1;marker:none;enable-background:accumulate" />
  <path
     d="m 3.57504,6.4728521 c 0.65431,0 12.44092,0.0251 12.94828,0.0251 0,0.49259 -0.0246,7.9705499 -0.0539,7.9705499 -4.54455,0.0142 -11.62285,-0.0111 -12.9461,-0.0111 0,-0.92965 0.0517,-6.0713799 0.0517,-7.9845499 z"
     id="rect3086-9-1"
     style="color:#000000;display:inline;overflow:visible;visibility:visible;opacity:0.5;fill:none;stroke:url(#linearGradient3013);stroke-width:1.00000012;stroke-linecap:round;stroke-linejoin:miter;stroke-miterlimit:4;stroke-dasharray:none;stroke-dashoffset:0;stroke-opacity:1;marker:none;enable-background:accumulate" />
  <path
     d="m 2.40625,4.9649351 a 0.50005,0.50005 0 0 0 -0.34375,0.5 0.50005,0.50005 0 0 0 0,0.09375 C 2.0613979,8.0050349 2,14.291458 2,15.464935 a 0.50005,0.50005 0 0 0 0.5,0.5 c 1.5214827,0 9.703777,0.04882 14.96875,0.03125 0.01099,-3.7e-5 0.02028,3.7e-5 0.03125,0 0.0012,-7.95e-4 -0.0019,-0.03002 0,-0.03125 0.06056,-0.03863 0.437378,-0.249737 0.4375,-0.25 1.32e-4,-2.86e-4 0.02699,-0.106637 0.03125,-0.125 0.0085,-0.03673 -0.0014,-0.05081 0,-0.0625 0.0027,-0.02338 0.03044,-0.01757 0.03125,-0.03125 0.0016,-0.02736 -0.0011,-0.05688 0,-0.09375 0.0022,-0.07374 -0.002,-0.182299 0,-0.3125 0.0041,-0.260402 -0.0037,-0.616858 0,-1.0625 0.0074,-0.891284 0.02557,-2.099644 0.03125,-3.3125 0.01137,-2.4257121 0,-4.9017713 0,-5.2187499 a 0.50005,0.50005 0 0 0 -0.5,-0.5 c -0.569303,0 -14.1975213,-0.03125 -14.96875,-0.03125 a 0.50005,0.50005 0 0 0 -0.15625,0 z m 0.65625,1 c 1.4706431,0.0019 12.618489,0.029346 13.96875,0.03125 -0.0012,0.6360494 0.01027,2.5265847 0,4.7187499 -0.0057,1.212224 -0.02382,2.392387 -0.03125,3.28125 -0.0034,0.406338 0.0036,0.748851 0,1 -5.079,0.01381 -12.1556038,-0.02935 -14,-0.03125 0.00512,-1.492643 0.057379,-6.4863004 0.0625,-8.9999999 z"
     id="rect3086-0-8"
     style="color:#000000;font-style:normal;font-variant:normal;font-weight:normal;font-stretch:normal;font-size:medium;line-height:normal;font-family:Sans;-inkscape-font-specification:Sans;text-indent:0;text-align:start;text-decoration:none;text-decoration-line:none;letter-spacing:normal;word-spacing:normal;text-transform:none;direction:ltr;block-progression:tb;writing-mode:lr-tb;baseline-shift:baseline;text-anchor:start;display:inline;overflow:visible;visibility:visible;opacity:0.3;fill:#000000;fill-opacity:1;stroke:none;stroke-width:1;marker:none;enable-background:accumulate" />
  <path
     style="color:#000000;display:inline;overflow:visible;visibility:visible;fill:url(#linearGradient4289);fill-opacity:1;fill-rule:nonzero;stroke:none;stroke-width:0.99992168;marker:none;enable-background:accumulate"
     id="rect4170-0-9"
     d="m 7,8.9820801 0.012994,4.9999999 14,0 0,-3.9999999 -6.749585,0 -2.065922,-1 z" />
  <path
     style="color:#000000;display:inline;overflow:visible;visibility:visible;opacity:0.8;fill:none;stroke:url(#linearGradient4291);stroke-width:1;stroke-linecap:butt;stroke-linejoin:miter;stroke-miterlimit:4;stroke-dasharray:none;stroke-dashoffset:0;stroke-opacity:1;marker:none;enable-background:accumulate"
     id="rect4170-1"
     d="m 21.512994,11.005413 0,-1.2733329 c 0,-0.1385 -0.1115,-0.25 -0.25,-0.25 l -6.75,0 c -0.495281,0 -1.723724,-0.96875 -2.25,-0.96875 l -5.5003204,0 c -0.1385,0 -0.25,0.1115 -0.25,0.25 l 3.2e-4,2.2420829" />
  <path
     style="color:#000000;clip-rule:nonzero;display:inline;overflow:visible;visibility:visible;opacity:1;isolation:auto;mix-blend-mode:normal;color-interpolation:sRGB;color-interpolation-filters:linearRGB;solid-color:#000000;solid-opacity:1;fill:url(#linearGradient12481);fill-opacity:1;fill-rule:nonzero;stroke:none;stroke-width:1;stroke-linecap:butt;stroke-linejoin:miter;stroke-miterlimit:4;stroke-dasharray:none;stroke-dashoffset:0;stroke-opacity:1;marker:none;color-rendering:auto;image-rendering:auto;shape-rendering:auto;text-rendering:auto;enable-background:accumulate"
     id="rect3086-2"
     d="m 6.5495536,11.45878 c 0.75732,0 14.3995104,0.0316 14.9867504,0.0316 0,0.6186 -0.0285,10.00962 -0.0624,10.00962 -5.26001,0.0178 -13.4526504,-0.014 -14.9842304,-0.014 0,-1.16748 0.0599,-7.62459 0.0599,-10.02721 z" />
  <path
     style="color:#000000;display:inline;overflow:visible;visibility:visible;opacity:0.5;fill:none;stroke:url(#linearGradient4293);stroke-width:1;stroke-linecap:round;stroke-linejoin:miter;stroke-miterlimit:4;stroke-dasharray:none;stroke-dashoffset:0;stroke-opacity:1;marker:none;enable-background:accumulate"
     id="rect3086-9-7"
     d="m 7.5647136,12.48208 12.9482804,0.0251 -0.02332,7.998233 -12.9766804,-0.03878 z" />
  <path
     style="color:#000000;display:inline;overflow:visible;visibility:visible;opacity:0.3;fill:none;stroke:#000000;stroke-width:1;stroke-linecap:round;stroke-linejoin:round;stroke-miterlimit:4;stroke-dasharray:none;stroke-dashoffset:0;stroke-opacity:1;marker:none;enable-background:accumulate"
     id="rect3086-0-0"
     d="M 6.5495536,11.45878 21.536304,11.49038 21.473904,21.5 6.4896736,21.486 Z" />
</svg>
