<?xml version="1.0" encoding="UTF-8"?>
<!-- Created with Inkscape (http://www.inkscape.org/) -->
<svg id="svg4585" width="24" height="24" version="1.0" xmlns="http://www.w3.org/2000/svg" xmlns:cc="http://creativecommons.org/ns#" xmlns:dc="http://purl.org/dc/elements/1.1/" xmlns:rdf="http://www.w3.org/1999/02/22-rdf-syntax-ns#">
 <metadata id="metadata3023">
  <rdf:RDF>
   <cc:Work rdf:about="">
    <dc:format>image/svg+xml</dc:format>
    <dc:type rdf:resource="http://purl.org/dc/dcmitype/StillImage"/>
    <dc:title/>
   </cc:Work>
  </rdf:RDF>
 </metadata>
 <g id="layer3" transform="translate(0,2)">
  <path id="path3694" d="m8.0096 15.01h2.0428v3.0017h-2.0428v-3.0017z" style="fill:#606060"/>
  <path id="path3696" d="m12.04 11.008h2.0143v7.004h-2.0428l0.02852-7.004z" style="fill:#606060"/>
  <path id="path3698" d="m16.014 7.0057h2.0163l-0.01517 11.006h-2.0011l-8e-6 -11.006z" style="fill:#606060;opacity:.3"/>
  <path id="path3700" d="m22.018 1.9985v16.013h-2.0126l0.02601-16.013 1.9866-5.229e-4z" style="fill:#606060;opacity:.3"/>
  <path id="path3657" d="m4.5026 10.452 0.041691 3.3769m-5e-7 4.169v-3.9606l-3.0851-3.5437h6.2536l-3.1268 3.5854" style="fill:none;stroke-linejoin:bevel;stroke-width:1px;stroke:#606060"/>
 </g>
 <rect id="rect2822" x="2" y="5" width="6" height="5" style="fill:#606060"/>
 <path id="path3596" d="m3.5294 5v-0.94118c0-2 3-2 3 0v0.94118" style="fill:none;stroke-width:1px;stroke:#606060"/>
</svg>
