<?xml version="1.0" encoding="UTF-8"?>
<!-- Created with Inkscape (http://www.inkscape.org/) -->
<svg id="svg2896" width="24" height="24" version="1.1" xmlns="http://www.w3.org/2000/svg">
 <g id="layer1" transform="translate(1 8)">
  <g id="layer1-3" transform="translate(-2 -5)">
   <path id="rect2196" d="m16.499 3.51v-1.01h-5.0313l-1.5264-1h-6.4418v11.011c-0.00224 0.88609 0.36634 2.1366 2.3359 1.9895" style="fill:none;stroke-linecap:round;stroke-linejoin:round;stroke-width:.97899;stroke:#606060"/>
   <path id="rect3086" d="m7.0121 14.5h-1.7562l-0.95641-0.3c1.8591 0.20657 1.2-6.0337 1.2-9.7004h13v3.65" style="fill:none;stroke-linecap:round;stroke-linejoin:round;stroke-width:.99983;stroke:#606060"/>
   <path id="path3594" d="m7.3123 13.5h-1.8129c1.6267-1.6057 0.99997-5.0003 0.99997-8.0004h11v2.0004" style="fill:none;opacity:.4;stroke-linecap:round;stroke-linejoin:round;stroke-width:.99983;stroke:#606060"/>
   <path id="path2805-4-1" transform="matrix(.072512 0 0 -.072514 21.214 24.717)" d="m-11.339 171.54a16.488 16.488 0 0 1-20.952 23.065" style="fill:none;stroke-linecap:round;stroke-width:13.79;stroke:#606060"/>
   <path id="path2818-0-7" transform="matrix(.13467 0 0 -.13467 19.07 35.733)" d="m-3.8567 186.24a22.981 22.981 0 0 1-44.933-6.9985" style="fill:none;stroke-linecap:round;stroke-width:7.4256;stroke:#606060"/>
   <path id="path2820-3-5" transform="matrix(.13467 0 0 -.13467 14.365 38.271)" d="m-12.489 191.15a17.737 17.737 0 1 1-14.071-29.433" style="fill:none;stroke-linecap:round;stroke-width:7.4256;stroke:#606060"/>
   <path id="path2822-7-7" transform="matrix(.10359 0 0 -.10359 23.281 33.1)" d="m-28.509 160.44a19.194 19.194 0 1 1 1.1471 38.134" style="fill:none;stroke-linecap:round;stroke-width:9.6533;stroke:#606060"/>
   <path id="path16154-1" d="m11.009 16.5h9.5127" style="color:#000000;fill:none;stroke-linecap:round;stroke-width:.99999;stroke:#606060"/>
  </g>
 </g>
</svg>
