<?xml version="1.0" encoding="UTF-8"?>
<!-- Created with Inkscape (http://www.inkscape.org/) -->
<svg id="svg2" width="22" height="22" version="1.0" xmlns="http://www.w3.org/2000/svg" xmlns:xlink="http://www.w3.org/1999/xlink">
 <defs id="defs4">
  <linearGradient id="linearGradient3587-6-5">
   <stop id="stop3589-9-2" offset="0"/>
   <stop id="stop3591-7-4" style="stop-color:#363636" offset="1"/>
  </linearGradient>
  <linearGradient id="linearGradient3170" x1="15.669" x2="15.669" y1="-2.622" y2="11.969" gradientTransform="matrix(.93023 0 0 1.236 -11.576 5.1536)" gradientUnits="userSpaceOnUse" xlink:href="#linearGradient3587-6-5"/>
  <linearGradient id="linearGradient2457" x1="35.008" x2="35.008" y1="23.179" y2="4.9946" gradientTransform="translate(-25.786 -3.0357)" gradientUnits="userSpaceOnUse" xlink:href="#linearGradient3587-6-5"/>
 </defs>
 <path id="path3229" d="m11 4c-4.416 0-8 3.584-8 8 0 4.416 3.584 8 8 8 4.416 0 8-3.584 8-8 0-4.416-3.584-8-8-8zm0 5c1.656 0 3 1.344 3 3s-1.344 3-3 3-3-1.344-3-3c1e-7 -1.656 1.344-3 3-3z" style="fill-rule:evenodd;fill:#fff;opacity:.6"/>
 <path id="path3170" d="m11 3c-4.416 0-8 3.584-8 8 0 4.416 3.584 8 8 8 2.6535 0 5.0131-1.2902 6.4688-3.2812l-4.0625-2.9375c-0.54678 0.73702-1.4187 1.2188-2.4062 1.2188-1.656 0-3-1.344-3-3 1e-7 -1.656 1.344-3 3-3v-5zm3 8c0 0.207-0.022516 0.39852-0.0625 0.59375 0.038328-0.18972 0.0625-0.39284 0.0625-0.59375zm-0.0625 0.59375c-0.039984 0.19523-0.11156 0.38306-0.1875 0.5625 0.077977-0.18293 0.14721-0.36306 0.1875-0.5625zm4.5625 2.1875c-0.089264 0.24213-0.20112 0.45707-0.3125 0.6875 0.1094-0.22641 0.22443-0.44985 0.3125-0.6875z" style="fill-rule:evenodd;fill:url(#linearGradient2457);opacity:.42"/>
 <path id="path3288" d="m11 3v5c1.656 1e-7 3 1.344 3 3 0 0.66784-0.22314 1.284-0.59375 1.7812l4.0625 2.9375c0.96592-1.3224 1.5312-2.9573 1.5312-4.7188 0-4.416-3.584-8-8-8z" style="fill:url(#linearGradient3170);opacity:.7"/>
</svg>
