<?xml version="1.0" encoding="UTF-8"?>
<!-- Created with Inkscape (http://www.inkscape.org/) -->
<svg id="svg2" width="22" height="22" version="1.0" xmlns="http://www.w3.org/2000/svg" xmlns:xlink="http://www.w3.org/1999/xlink">
 <defs id="defs4">
  <linearGradient id="linearGradient3587-6-5">
   <stop id="stop3589-9-2" offset="0"/>
   <stop id="stop3591-7-4" style="stop-color:#363636" offset="1"/>
  </linearGradient>
  <linearGradient id="linearGradient2401" x1="15.669" x2="15.669" y1="-2.622" y2="11.969" gradientTransform="matrix(.93023 0 0 1.236 -11.576 5.1536)" gradientUnits="userSpaceOnUse" xlink:href="#linearGradient3587-6-5"/>
  <linearGradient id="linearGradient2404" x1="35.008" x2="35.008" y1="23.179" y2="4.9946" gradientTransform="translate(-25.786 -3.0357)" gradientUnits="userSpaceOnUse" xlink:href="#linearGradient3587-6-5"/>
 </defs>
 <path id="path3229" d="m11 4c-4.416 0-8 3.584-8 8 0 4.416 3.584 8 8 8 4.416 0 8-3.584 8-8 0-4.416-3.584-8-8-8zm0 5c1.656 0 3 1.344 3 3s-1.344 3-3 3-3-1.344-3-3c1e-7 -1.656 1.344-3 3-3z" style="fill-rule:evenodd;fill:#fff;opacity:.6"/>
 <path id="path3170" d="m11 3c-4.416 0-8 3.584-8 8h5c1e-7 -1.656 1.344-3 3-3v-5z" style="fill-rule:evenodd;fill:url(#linearGradient2404);opacity:.42"/>
 <path id="path3288" d="m11 3v5c1.656 1e-7 3 1.344 3 3s-1.344 3-3 3-3-1.344-3-3h-5c0 4.416 3.584 8 8 8 4.416 0 8-3.584 8-8 0-4.416-3.584-8-8-8z" style="fill:url(#linearGradient2401);opacity:.7"/>
</svg>
