<?xml version="1.0" encoding="UTF-8"?>
<!-- Created with Inkscape (http://www.inkscape.org/) -->
<svg id="svg4008" width="16" height="16" version="1.1" xmlns="http://www.w3.org/2000/svg" xmlns:cc="http://creativecommons.org/ns#" xmlns:dc="http://purl.org/dc/elements/1.1/" xmlns:rdf="http://www.w3.org/1999/02/22-rdf-syntax-ns#">
 <metadata id="metadata4013">
  <rdf:RDF>
   <cc:Work rdf:about="">
    <dc:format>image/svg+xml</dc:format>
    <dc:type rdf:resource="http://purl.org/dc/dcmitype/StillImage"/>
    <dc:title/>
   </cc:Work>
  </rdf:RDF>
 </metadata>
 <g id="layer1" transform="translate(0,-16)">
  <path id="path7249-8-0-4-4" d="m11.42 18.005c-0.45272-0.05278-0.51542 0.32941-0.46825 0.6335-0.0043 3.026 0.0086 6.0547-0.0064 9.079-0.11057 0.10409-0.32276-0.0671-0.46364-0.02267-1.5347-0.08429-3.2115 0.91838-3.365 2.3654-0.18082 1.1504 1.1683 2.097 2.3714 1.9181 1.516-0.14497 2.7004-1.5234 2.5027-2.8842 0.0043-2.396-0.0086-4.7947 0.0064-7.189 0.10333-0.10663 0.25746 0.1204 0.36632 0.13154 1.2191 0.64992 2.2975 1.7217 2.3703 3.0563 0.08005 1.0429-0.27043 2.0634-0.66476 3.0302 1.3213-1.4654 1.7443-3.6032 0.82612-5.3341-0.46958-1.0048-1.5289-1.624-2.1215-2.5572-0.43763-0.62366-0.77069-1.3199-0.8749-2.0562-0.0858-0.15354-0.31179-0.17223-0.47891-0.17058zm-10.42 10.995h4.7273v1h-4.7273zm0-3h8v1h-8zm0-3h8v1h-8zm0-3h8v1h-8z" style="color:#ffffff;fill:#fff;opacity:.3"/>
  <path id="path7249-8-0-4" d="m11.42 17.005c-0.45272-0.05278-0.51542 0.32941-0.46825 0.6335-0.0043 3.026 0.0086 6.0547-0.0064 9.079-0.11057 0.10409-0.32276-0.0671-0.46364-0.02267-1.5347-0.08429-3.2115 0.91838-3.365 2.3654-0.18082 1.1504 1.1683 2.097 2.3714 1.9181 1.516-0.14497 2.7004-1.5234 2.5027-2.8842 0.0043-2.396-0.0086-4.7947 0.0064-7.189 0.10333-0.10663 0.25746 0.1204 0.36632 0.13154 1.2191 0.64992 2.2975 1.7217 2.3703 3.0563 0.08005 1.0429-0.27043 2.0634-0.66476 3.0302 1.3213-1.4654 1.7443-3.6032 0.82612-5.3341-0.46958-1.0048-1.5289-1.624-2.1215-2.5572-0.43763-0.62366-0.77069-1.3199-0.8749-2.0562-0.0858-0.15354-0.31179-0.17223-0.47891-0.17058zm-10.42 10.995h4.7273v1h-4.7273zm0-3h8v1h-8zm0-3h8v1h-8zm0-3h8v1h-8z" style="color:#ffffff;fill:#3c3c3c"/>
 </g>
</svg>
