<?xml version="1.0" encoding="UTF-8" standalone="no"?>
<!-- Created with Inkscape (http://www.inkscape.org/) -->

<svg
   xmlns:dc="http://purl.org/dc/elements/1.1/"
   xmlns:cc="http://creativecommons.org/ns#"
   xmlns:rdf="http://www.w3.org/1999/02/22-rdf-syntax-ns#"
   xmlns:svg="http://www.w3.org/2000/svg"
   xmlns="http://www.w3.org/2000/svg"
   xmlns:xlink="http://www.w3.org/1999/xlink"
   xmlns:sodipodi="http://sodipodi.sourceforge.net/DTD/sodipodi-0.dtd"
   xmlns:inkscape="http://www.inkscape.org/namespaces/inkscape"
   width="48"
   height="48"
   id="svg2"
   inkscape:label="Pozadí"
   sodipodi:version="0.32"
   inkscape:version="0.47 r22583"
   version="1.0"
   sodipodi:docname="admon-tip.svg"
   inkscape:output_extension="org.inkscape.output.svg.inkscape"
   inkscape:export-filename="/home/cornelius/Desktop/tip-optional.png"
   inkscape:export-xdpi="90"
   inkscape:export-ydpi="90">
  <defs
     id="defs3">
    <inkscape:perspective
       sodipodi:type="inkscape:persp3d"
       inkscape:vp_x="0 : 24 : 1"
       inkscape:vp_y="0 : 1000 : 0"
       inkscape:vp_z="48 : 24 : 1"
       inkscape:persp3d-origin="24 : 16 : 1"
       id="perspective22" />
    <linearGradient
       inkscape:collect="always"
       id="linearGradient6094">
      <stop
         style="stop-color:#ffffff;stop-opacity:1;"
         offset="0"
         id="stop6096" />
      <stop
         style="stop-color:#ffffff;stop-opacity:0;"
         offset="1"
         id="stop6098" />
    </linearGradient>
    <linearGradient
       inkscape:collect="always"
       id="linearGradient6082">
      <stop
         style="stop-color:#000000;stop-opacity:1;"
         offset="0"
         id="stop6084" />
      <stop
         style="stop-color:#000000;stop-opacity:0;"
         offset="1"
         id="stop6086" />
    </linearGradient>
    <linearGradient
       inkscape:collect="always"
       id="linearGradient6070">
      <stop
         style="stop-color:#3465a4;stop-opacity:1;"
         offset="0"
         id="stop6072" />
      <stop
         style="stop-color:#729fcf;stop-opacity:1"
         offset="1"
         id="stop6074" />
    </linearGradient>
    <linearGradient
       inkscape:collect="always"
       xlink:href="#linearGradient6070"
       id="linearGradient6076"
       x1="34.960808"
       y1="59.572002"
       x2="15.47445"
       y2="13.379735"
       gradientUnits="userSpaceOnUse" />
    <radialGradient
       inkscape:collect="always"
       xlink:href="#linearGradient6082"
       id="radialGradient6088"
       cx="24.358656"
       cy="23.195419"
       fx="24.358656"
       fy="23.195419"
       r="20.345331"
       gradientUnits="userSpaceOnUse" />
    <linearGradient
       inkscape:collect="always"
       xlink:href="#linearGradient6094"
       id="linearGradient6100"
       x1="0.87464881"
       y1="-16.399689"
       x2="24.358656"
       y2="42.382477"
       gradientUnits="userSpaceOnUse" />
    <linearGradient
       inkscape:collect="always"
       xlink:href="#linearGradient6070"
       id="linearGradient2851"
       gradientUnits="userSpaceOnUse"
       x1="34.960808"
       y1="59.572002"
       x2="15.47445"
       y2="13.379735" />
    <linearGradient
       inkscape:collect="always"
       xlink:href="#linearGradient6094"
       id="linearGradient2853"
       gradientUnits="userSpaceOnUse"
       x1="0.87464881"
       y1="-16.399689"
       x2="24.358656"
       y2="42.382477" />
  </defs>
  <sodipodi:namedview
     id="base"
     pagecolor="#ffffff"
     bordercolor="#666666"
     borderopacity="1.0"
     inkscape:pageopacity="0.0"
     inkscape:pageshadow="2"
     inkscape:zoom="21.949773"
     inkscape:cx="-21.259377"
     inkscape:cy="23.86661"
     inkscape:document-units="px"
     inkscape:current-layer="layer1"
     width="48px"
     height="48px"
     borderlayer="false"
     inkscape:showpageshadow="false"
     showgrid="true"
     inkscape:window-width="1302"
     inkscape:window-height="975"
     inkscape:window-x="0"
     inkscape:window-y="47"
     objecttolerance="1"
     inkscape:window-maximized="0">
    <inkscape:grid
       type="xygrid"
       id="grid2828"
       empspacing="4"
       visible="true"
       enabled="true"
       snapvisiblegridlinesonly="true"
       spacingx="0.5px"
       spacingy="0.5px" />
  </sodipodi:namedview>
  <metadata
     id="metadata6">
    <rdf:RDF>
      <cc:Work
         rdf:about="">
        <dc:format>image/svg+xml</dc:format>
        <dc:type
           rdf:resource="http://purl.org/dc/dcmitype/StillImage" />
        <dc:title>Tip</dc:title>
        <dc:date>13.4.2007</dc:date>
        <dc:creator>
          <cc:Agent>
            <dc:title>Josef Vybíral</dc:title>
          </cc:Agent>
        </dc:creator>
        <cc:license
           rdf:resource="http://creativecommons.org/licenses/GPL/2.0/" />
      </cc:Work>
      <cc:License
         rdf:about="http://creativecommons.org/licenses/GPL/2.0/">
        <cc:permits
           rdf:resource="http://web.resource.org/cc/Reproduction" />
        <cc:permits
           rdf:resource="http://web.resource.org/cc/Distribution" />
        <cc:requires
           rdf:resource="http://web.resource.org/cc/Notice" />
        <cc:permits
           rdf:resource="http://web.resource.org/cc/DerivativeWorks" />
        <cc:requires
           rdf:resource="http://web.resource.org/cc/ShareAlike" />
        <cc:requires
           rdf:resource="http://web.resource.org/cc/SourceCode" />
      </cc:License>
    </rdf:RDF>
  </metadata>
  <g
     inkscape:label="Vrstva 1"
     inkscape:groupmode="layer"
     id="layer1">
    <path
       sodipodi:type="arc"
       style="opacity:1;color:#000000;fill:url(#linearGradient6076);fill-opacity:1;fill-rule:evenodd;stroke:#3465a4;stroke-width:0.99245518;stroke-linecap:round;stroke-linejoin:round;marker:none;marker-start:none;marker-mid:none;marker-end:none;stroke-miterlimit:4;stroke-dasharray:none;stroke-dashoffset:0;stroke-opacity:1;visibility:visible;display:inline;overflow:visible;enable-background:accumulate"
       id="path5072"
       sodipodi:cx="24.358656"
       sodipodi:cy="23.195419"
       sodipodi:rx="20.345331"
       sodipodi:ry="20.345331"
       d="M 44.703987 23.195419 A 20.345331 20.345331 0 1 1  4.0133247,23.195419 A 20.345331 20.345331 0 1 1  44.703987 23.195419 z"
       transform="matrix(1.0076022,0,0,1.0076022,-0.5438346,0.628245)" />
    <path
       transform="matrix(0.9584508,0,0,0.9586884,0.6534256,1.76282)"
       d="M 44.703987 23.195419 A 20.345331 20.345331 0 1 1  4.0133247,23.195419 A 20.345331 20.345331 0 1 1  44.703987 23.195419 z"
       sodipodi:ry="20.345331"
       sodipodi:rx="20.345331"
       sodipodi:cy="23.195419"
       sodipodi:cx="24.358656"
       id="path6090"
       style="opacity:1;color:#000000;fill:none;fill-opacity:1;fill-rule:evenodd;stroke:url(#linearGradient6100);stroke-width:1.043221;stroke-linecap:round;stroke-linejoin:round;marker:none;marker-start:none;marker-mid:none;marker-end:none;stroke-miterlimit:4;stroke-dasharray:none;stroke-dashoffset:0;stroke-opacity:1;visibility:visible;display:inline;overflow:visible;enable-background:accumulate"
       sodipodi:type="arc" />
    <path
       transform="scale(1.0219734,0.9784991)"
       style="font-size:38.86474228px;font-style:italic;font-variant:normal;font-weight:bold;font-stretch:normal;text-align:start;line-height:125%;writing-mode:lr-tb;text-anchor:start;fill:#f7f7f6;fill-opacity:1;stroke:none;stroke-width:1px;stroke-linecap:butt;stroke-linejoin:miter;stroke-opacity:1;font-family:Nimbus Roman No9 L"
       d="M 26.757915,33.033339 L 26.213809,33.810634 C 25.203326,35.326357 24.309436,36.142518 23.726465,36.142518 C 23.415547,36.142518 23.143494,35.870465 23.143494,35.559547 C 23.143494,35.326359 23.376682,34.004957 23.493277,33.538581 L 27.029968,20.557757 C 24.931274,21.024133 22.210737,21.412781 19.17929,21.645969 L 19.17929,22.695317 C 20.850472,22.695317 21.47231,23.006236 21.47231,23.822395 C 21.47231,24.133313 21.355716,24.716285 21.200257,25.376985 L 18.946102,33.732904 C 18.635184,34.821116 18.44086,35.90933 18.44086,36.414571 C 18.44086,37.852565 19.529074,38.86305 21.122527,38.86305 C 23.454409,38.86305 24.89241,37.658239 27.612939,33.577445 L 26.757915,33.033339 M 25.902891,11.890919 C 24.542626,11.890919 23.337818,13.095727 23.337818,14.455992 C 23.337818,15.971715 24.464897,17.137659 25.902891,17.137659 C 27.379749,17.137659 28.584558,15.971716 28.584558,14.533722 C 28.584558,13.095728 27.340885,11.890919 25.902891,11.890919"
       id="text6102" />
    <rect
       style="opacity:0.25;fill:#3465a4;fill-opacity:1;stroke:none"
       id="rect2830"
       width="23.999994"
       height="24"
       x="-36"
       y="8" />
    <path
       transform="matrix(0.51608892,0,0,0.51608892,-36.571232,8.0291011)"
       d="m 44.703987,23.195419 a 20.345331,20.345331 0 1 1 -40.6906623,0 20.345331,20.345331 0 1 1 40.6906623,0 z"
       sodipodi:ry="20.345331"
       sodipodi:rx="20.345331"
       sodipodi:cy="23.195419"
       sodipodi:cx="24.358656"
       id="path2832"
       style="color:#000000;fill:url(#linearGradient2851);fill-opacity:1;fill-rule:evenodd;stroke:#3465a4;stroke-width:1.93765059;stroke-linecap:round;stroke-linejoin:round;stroke-miterlimit:4;stroke-opacity:1;stroke-dasharray:none;stroke-dashoffset:0;marker:none;visibility:visible;display:inline;overflow:visible;enable-background:accumulate"
       sodipodi:type="arc"
       inkscape:export-filename="/home/shaunm/Projects/yelp-xsl/icons/hicolor/24x24/status/admon-tip.png"
       inkscape:export-xdpi="90"
       inkscape:export-ydpi="90" />
    <path
       sodipodi:type="arc"
       style="color:#000000;fill:none;stroke:url(#linearGradient2853);stroke-width:2.14121103;stroke-linecap:round;stroke-linejoin:round;stroke-miterlimit:4;stroke-opacity:1;stroke-dasharray:none;stroke-dashoffset:0;marker:none;visibility:visible;display:inline;overflow:visible;enable-background:accumulate"
       id="path2834"
       sodipodi:cx="24.358656"
       sodipodi:cy="23.195419"
       sodipodi:rx="20.345331"
       sodipodi:ry="20.345331"
       d="m 44.703987,23.195419 a 20.345331,20.345331 0 1 1 -40.6906623,0 20.345331,20.345331 0 1 1 40.6906623,0 z"
       transform="matrix(0.46696753,0,0,0.46708329,-35.374701,9.1687715)"
       inkscape:export-filename="/home/shaunm/Projects/yelp-xsl/icons/hicolor/24x24/status/admon-tip.png"
       inkscape:export-xdpi="90"
       inkscape:export-ydpi="90" />
    <path
       id="path2836"
       d="m -22.127423,23.557872 -0.278031,0.380291 c -0.516344,0.741567 -0.973109,1.140873 -1.271,1.140873 -0.158875,0 -0.29789,-0.133102 -0.29789,-0.285218 0,-0.114087 0.119156,-0.760583 0.178734,-0.988757 l 1.807202,-6.350862 C -23.060812,17.682373 -24.450971,17.872519 -26,17.986606 L -26,18.5 c 0.853952,0 1.171703,0.152116 1.171703,0.551422 0,0.152116 -0.05958,0.437335 -0.139016,0.760582 l -1.151843,4.088129 c -0.158875,0.532408 -0.258172,1.064816 -0.258172,1.312005 0,0.703538 0.556063,1.197917 1.370296,1.197917 1.191561,0 1.926361,-0.589453 3.316515,-2.58598 l -0.436906,-0.266203 m -0.436906,-10.343919 c -0.695077,0 -1.310718,0.589451 -1.310718,1.25496 0,0.741567 0.575922,1.312005 1.310718,1.312005 0.754655,0 1.370296,-0.570437 1.370296,-1.273975 0,-0.703538 -0.6355,-1.29299 -1.370296,-1.29299"
       style="font-size:38.86474228px;font-style:italic;font-variant:normal;font-weight:bold;font-stretch:normal;text-align:start;line-height:125%;writing-mode:lr-tb;text-anchor:start;fill:#f7f7f6;fill-opacity:1;stroke:none;font-family:Nimbus Roman No9 L"
       inkscape:export-filename="/home/shaunm/Projects/yelp-xsl/icons/hicolor/24x24/status/admon-tip.png"
       inkscape:export-xdpi="90"
       inkscape:export-ydpi="90" />
  </g>
</svg>
