<?xml version="1.0" encoding="UTF-8"?>
<svg id="svg2" width="17.964" height="17.9" version="1.1" viewBox="0 0 17.964 17.9" xmlns="http://www.w3.org/2000/svg" xmlns:cc="http://creativecommons.org/ns#" xmlns:dc="http://purl.org/dc/elements/1.1/" xmlns:rdf="http://www.w3.org/1999/02/22-rdf-syntax-ns#" xmlns:xlink="http://www.w3.org/1999/xlink">
 <metadata id="metadata7">
  <rdf:RDF>
   <cc:Work rdf:about="">
    <dc:format>image/svg+xml</dc:format>
    <dc:type rdf:resource="http://purl.org/dc/dcmitype/StillImage"/>
    <dc:title/>
   </cc:Work>
  </rdf:RDF>
 </metadata>
 <g id="layer1" transform="translate(-676.02 -227.43)">
  <g id="backdrop-check-mixed-disabled" transform="translate(130 109)">
   <path id="path5877-7" d="m550.32 118.63c-1.3266 0.58633-3.2643 0.89914-3.5662 2.5882-1.0132 2.0958-0.61318 4.4781-0.73631 6.7288 0.0854 1.9938-0.12352 4.0532 0.8418 5.8822 0.41627 1.4914 2.2416 1.7195 3.4607 2.2969 3.2359 0.24279 6.5003 0.33325 9.7188-0.0899 1.2732-0.64106 3.0661-0.97131 3.2681-2.6676 0.95389-2.0475 0.54356-4.3704 0.67503-6.5596-0.0854-1.9938 0.12352-4.0532-0.8418-5.8822-0.41627-1.4914-2.2416-1.7195-3.4607-2.2969-3.1266-0.26529-6.2325-0.26509-9.3594 0z" style="fill:none"/>
   <path id="path5879-9" d="m555 119.36c8 0 8 0.88888 8 8 0 7.1111 0 8-8 8s-8-0.88889-8-8c0-7.1111 0-8 8-8z" style="fill:#ebebeb"/>
   <path id="path5881-55" d="m555 135.38c-8 0-8-0.88888-8-8 0-7.1111 0-8 8-8s8 0.88889 8 8c0 7.1111 0 8-8 8zm0-1c1.9814 0 3.4595-0.0756 4.4688-0.25 1.0093-0.17444 1.4812-0.41667 1.7812-0.75s0.51118-0.88855 0.625-1.875 0.125-2.3472 0.125-4.125-0.0112-3.1386-0.125-4.125c-0.11382-0.98645-0.325-1.5417-0.625-1.875s-0.77199-0.57556-1.7812-0.75-2.4873-0.25-4.4688-0.25-3.4595 0.0756-4.4688 0.25c-1.0093 0.17444-1.4812 0.41667-1.7812 0.75s-0.51118 0.88855-0.625 1.875-0.125 2.3472-0.125 4.125 0.0112 3.1386 0.125 4.125c0.11382 0.98645 0.325 1.5417 0.625 1.875s0.77199 0.57556 1.7812 0.75 2.4873 0.25 4.4688 0.25z" style="fill:#c8c8c8"/>
   <rect id="rect5995-2-6" x="550" y="126.36" width="10" height="2" style="fill:#aaa"/>
  </g>
 </g>
</svg>
