<?xml version="1.0" encoding="UTF-8"?>
<!-- Created with Inkscape (http://www.inkscape.org/) -->
<svg id="svg3272" width="24" height="24" version="1.0" xmlns="http://www.w3.org/2000/svg" xmlns:xlink="http://www.w3.org/1999/xlink">
 <defs id="defs3274">
  <linearGradient id="linearGradient2438" x1="18.031" x2="20.055" y1="16.408" y2="24.628" gradientTransform="matrix(.44503 0 0 .30102 2.8555 8.5638)" gradientUnits="userSpaceOnUse">
   <stop id="stop2687" style="stop-color:#fff;stop-opacity:.27451" offset="0"/>
   <stop id="stop2689" style="stop-color:#fff;stop-opacity:.078431" offset="1"/>
  </linearGradient>
  <radialGradient id="radialGradient2441" cx="4.02" cy="5.5927" r="10.273" gradientTransform="matrix(-.016802 1.0431 -1.7966 -.016197 14.189 7.2971)" gradientUnits="userSpaceOnUse">
   <stop id="stop3754" style="stop-color:#fff" offset="0"/>
   <stop id="stop3760" style="stop-color:#fff" offset=".84754"/>
   <stop id="stop3756" style="stop-color:#fff;stop-opacity:0" offset="1"/>
  </radialGradient>
  <linearGradient id="linearGradient2446" x1="9.7046" x2="9.7046" y1="20.882" y2="4.303" gradientTransform="matrix(.99458 0 0 .74406 -.30296 6.9688)" gradientUnits="userSpaceOnUse">
   <stop id="stop3624" style="stop-color:#bb2b12" offset="0"/>
   <stop id="stop3626" style="stop-color:#cd7233" offset="1"/>
  </linearGradient>
  <radialGradient id="radialGradient2444" cx="7.8186" cy="8.5609" r="11.268" gradientTransform="matrix(1.69 0 0 .78074 -5.4127 6.4032)" gradientUnits="userSpaceOnUse">
   <stop id="stop3618" style="stop-color:#edb763" offset="0"/>
   <stop id="stop3270" style="stop-color:#de7f32" offset=".5"/>
   <stop id="stop3620" style="stop-color:#d24413" offset="1"/>
  </radialGradient>
  <linearGradient id="linearGradient2458" x1="9.8764" x2="9.8764" y1="2.6015" y2="23.062" gradientTransform="translate(.036304)" gradientUnits="userSpaceOnUse">
   <stop id="stop5159" style="stop-color:#c1c1c1" offset="0"/>
   <stop id="stop5161" style="stop-color:#909090" offset="1"/>
  </linearGradient>
  <linearGradient id="linearGradient2456" x1="-28.531" x2="-28.531" y1="17.956" y2="37.503" gradientTransform="translate(34.414 -14.501)" gradientUnits="userSpaceOnUse">
   <stop id="stop11113" style="stop-color:#fff" offset="0"/>
   <stop id="stop11115" style="stop-color:#cdcdcd" offset=".91014"/>
   <stop id="stop11117" style="stop-color:#a1a1a1" offset="1"/>
  </linearGradient>
  <radialGradient id="radialGradient2621" cx="605.71" cy="486.65" r="117.14" gradientTransform="matrix(-2.7744 0 0 1.9697 112.76 -872.89)" gradientUnits="userSpaceOnUse" xlink:href="#linearGradient5060"/>
  <radialGradient id="radialGradient2619" cx="605.71" cy="486.65" r="117.14" gradientTransform="matrix(2.7744 0 0 1.9697 -1891.6 -872.89)" gradientUnits="userSpaceOnUse" xlink:href="#linearGradient5060"/>
  <linearGradient id="linearGradient2617" x1="302.86" x2="302.86" y1="366.65" y2="609.51" gradientTransform="matrix(2.7744 0 0 1.9697 -1892.2 -872.89)" gradientUnits="userSpaceOnUse">
   <stop id="stop5050" style="stop-opacity:0" offset="0"/>
   <stop id="stop5056" offset=".5"/>
   <stop id="stop5052" style="stop-opacity:0" offset="1"/>
  </linearGradient>
  <linearGradient id="linearGradient5060">
   <stop id="stop5062" offset="0"/>
   <stop id="stop5064" style="stop-opacity:0" offset="1"/>
  </linearGradient>
 </defs>
 <g id="layer1">
  <g id="g7902" transform="matrix(.54593 0 0 .51685 -.96573 -.57818)" style="stroke-width:1.8826">
   <g id="g7904" transform="matrix(.021652 0 0 .014857 43.008 42.685)" style="stroke-width:104.96">
    <rect id="rect7906" x="-1559.3" y="-150.7" width="1339.6" height="478.36" style="fill:url(#linearGradient2617);opacity:.40206"/>
    <path id="path7908" d="m-219.62-150.68v478.33c142.87 0.90045 345.4-107.17 345.4-239.2 0-132.03-159.44-239.13-345.4-239.13z" style="fill:url(#radialGradient2619);opacity:.40206"/>
    <path id="path7910" d="m-1559.3-150.68v478.33c-142.87 0.90045-345.4-107.17-345.4-239.2 0-132.03 159.44-239.13 345.4-239.13z" style="fill:url(#radialGradient2621);opacity:.40206"/>
   </g>
  </g>
  <path id="path7912" d="m0.71358 2.5695c-0.085539 0-0.15887 0.092747-0.15887 0.18854 0 5.8692-0.043076 12.244-0.049143 18.225 0.029084 0.89504 0.53724 1.5051 0.88966 1.5083 1.0127 0.0092 0.53927-4e-3 1.0485 0 6.4703-0.0161 13.579-0.07817 20.049-0.09427 0.05421 0.0069-1.4767-0.10772-1.4616-1.4455 1e-6 -4.6729-0.50205-11.187-0.50205-15.86 0-0.18688-0.01544-0.29089-0.03177-0.37708-0.01261-0.066563-0.0287-0.09887-0.06355-0.1257-0.02786-0.024451-0.05455-0.057043-0.09532-0.062848h-8.8201c-0.81532 0-1.0021-1.992-2.2137-1.992l-8.5913 0.03569v0z" style="fill:url(#linearGradient2456);stroke-linecap:round;stroke-linejoin:round;stroke-width:1.0111;stroke:url(#linearGradient2458)"/>
  <rect id="rect7914" x="2" y="4" width="7" height="1" rx=".53846" ry=".5" style="display:block;fill:#eda374"/>
  <path id="path7916" d="m3.5357 10.582c10.57 0 13.03 3.44e-4 19.994-0.0206 0 1.1749 0.25816 12-0.48411 12-0.71405 0-14.046-0.07059-21.009-0.04964 1.4717 0 1.4993-0.46589 1.4993-11.93v-2e-6z" style="fill:url(#radialGradient2444);stroke-linecap:round;stroke-linejoin:round;stroke:url(#linearGradient2446)"/>
  <path id="path7918" d="m22.975 11.376s-16.832 0.07003-18.397-0.0691c-0.082939 10.346-0.50095 10.802-0.50095 10.802" style="fill:none;opacity:.4;stroke-width:.98119;stroke:url(#radialGradient2441)"/>
  <path id="path7920" d="m4.288 10.172c-0.68488 0-1.2517 0.38336-1.2517 0.84661v4.8163c0.00262 0.08616 0.066052 0.1844 0.16689 0.24458 0.10083 0.06018 0.22972 0.08557 0.3755 0.07525 0.00463 8e-5 0.00927 8e-5 0.013907 0l20.026-2.1447c0.23221-0.02477 0.41397-0.16084 0.41722-0.31983v-2.6715c0-0.46325-0.56677-0.84661-1.2517-0.84661h-18.497z" style="fill-rule:evenodd;fill:url(#linearGradient2438)"/>
 </g>
</svg>
