<?xml version="1.0" encoding="UTF-8"?>
<!-- Created with Inkscape (http://www.inkscape.org/) -->
<svg id="svg2882" width="22" height="22" version="1.1" xmlns="http://www.w3.org/2000/svg" xmlns:cc="http://creativecommons.org/ns#" xmlns:dc="http://purl.org/dc/elements/1.1/" xmlns:rdf="http://www.w3.org/1999/02/22-rdf-syntax-ns#">
 <metadata id="metadata10">
  <rdf:RDF>
   <cc:Work rdf:about="">
    <dc:format>image/svg+xml</dc:format>
    <dc:type rdf:resource="http://purl.org/dc/dcmitype/StillImage"/>
    <dc:title/>
   </cc:Work>
  </rdf:RDF>
 </metadata>
 <path id="path2555-4-5" d="m11 3c-4.9659 0-9 4.0341-9 9 0 4.9659 4.0341 9 9 9 5.8069 0 9-3.5295 9-9-5e-6 -4.9659-4.0341-9-9-9zm0.375 3c0.959 0.00441 1.9755-0.00144 2.8438 0.4375 1.0863 0.51381 1.6639 1.7207 1.75 2.875 0.07948 1.2318 0.01591 2.4535 0.03125 3.6875 0.05054 0.19401-0.24514 1.9706 0 2 0.74096 0.09501 0.99562 0.29052 1 1 0.0044 0.70948-0.11443 0.90015-0.84375 1-0.64025 0.08554-1.2933 0.023-1.9375 0-0.47581-0.02754-0.88598-0.6372-1.0312-1.0938-0.1875 1.0938-3.655 1.445-5.4688 0.78125-1.1932-0.40481-1.7188-1.8335-1.7188-2.7812 0-0.90625 0.0088786-1.6083 1-2.9062 0.99112-1.298 4-1 6-1 0.31318-0.26147 0.28155-1.3177-1.017-1.386-1.2985-0.068271-2.0223-0.20867-2.862 0.45-1.4269 1.1193-2.4725 0.85544-2.7148-0.34525-0.27519-0.755 0.79128-1.5788 1.4438-1.9688 1.2334-0.50051 2.1157-0.72865 3.525-0.75zm-0.125 6.2c-0.89544-0.02526-1.1253 0.15818-1.609 0.431-0.49973 0.23196-0.87982 0.70895-0.3 0.913 0.56938 0.39513 3.2118 0.73424 3.721-0.332v-0.612c-0.23504-0.27172-0.91656-0.37474-1.812-0.4z" style="fill:#fff;opacity:.3"/>
 <path id="path3767" d="m11.375 5c0.959 0.00441 1.9755-0.00144 2.8438 0.4375 1.0863 0.51381 1.6639 1.7207 1.75 2.875 0.07948 1.2318 0.01591 2.4535 0.03125 3.6875 0.05054 0.19401-0.24514 1.9706 0 2 0.74096 0.09501 0.99562 0.29052 1 1 0.0044 0.70948-0.11443 0.90015-0.84375 1-0.64025 0.08554-1.2933 0.023-1.9375 0-0.47581-0.02754-0.88598-0.6372-1.0312-1.0938-0.1875 1.0938-3.655 1.445-5.4688 0.78125-1.1932-0.40481-1.7188-1.8335-1.7188-2.7812 0-0.90625 0.0088786-1.6083 1-2.9062 0.99112-1.298 4-1 6-1 0.31318-0.26147 0.28155-1.3177-1.017-1.386-1.2985-0.068271-2.0223-0.20867-2.862 0.45-1.4269 1.1193-2.4725 0.85544-2.7148-0.34525-0.27519-0.755 0.79128-1.5788 1.4438-1.9688 1.2334-0.50051 2.1157-0.72865 3.525-0.75zm-0.125 6.1c-0.89544-0.02526-1.1253 0.35818-1.609 0.631-0.49973 0.23196-0.77982 0.60895-0.2 0.813 0.56938 0.39513 3.1118 0.73424 3.621-0.332v-0.612c-0.23504-0.27172-0.91656-0.47474-1.812-0.5z" style="fill:none;opacity:.3;stroke:#fff"/>
 <path id="path2555-4" d="m11 2c-4.9659 0-9 4.0341-9 9 0 4.9659 4.0341 9 9 9 5.8069 0 9-3.5295 9-9-5e-6 -4.9659-4.0341-9-9-9zm0.375 3c0.959 0.00441 1.9755-0.00144 2.8438 0.4375 1.0863 0.51381 1.6639 1.7207 1.75 2.875 0.07948 1.2318 0.01591 2.4535 0.03125 3.6875 0.05054 0.19401-0.24514 1.9706 0 2 0.74096 0.09501 0.99562 0.29052 1 1 0.0044 0.70948-0.11443 0.90015-0.84375 1-0.64025 0.08554-1.2933 0.023-1.9375 0-0.47581-0.02754-0.88598-0.6372-1.0312-1.0938-0.1875 1.0938-3.655 1.445-5.4688 0.78125-1.1932-0.40481-1.7188-1.8335-1.7188-2.7812 0-0.90625 0.0088786-1.6083 1-2.9062 0.99112-1.298 4-1 6-1 0.31318-0.26147 0.28155-1.3177-1.017-1.386-1.2985-0.068271-2.0223-0.20867-2.862 0.45-1.4269 1.1193-2.4725 0.85544-2.7148-0.34525-0.27519-0.755 0.79128-1.5788 1.4438-1.9688 1.2334-0.50051 2.1157-0.72865 3.525-0.75zm-0.125 6.2c-0.89544-0.02526-1.1253 0.15818-1.609 0.431-0.49973 0.23196-0.87982 0.70895-0.3 0.913 0.56938 0.39513 3.2118 0.73424 3.721-0.332v-0.612c-0.23504-0.27172-0.91656-0.37474-1.812-0.4z" style="fill:#3c3c3c"/>
</svg>
