<?xml version="1.0" encoding="UTF-8"?>
<!-- Created with Inkscape (http://www.inkscape.org/) -->
<svg id="svg2974" width="64" height="64" version="1.0" xmlns="http://www.w3.org/2000/svg" xmlns:xlink="http://www.w3.org/1999/xlink">
 <defs id="defs2976">
  <linearGradient id="linearGradient5593" x1="302.86" x2="302.86" y1="366.65" y2="609.51" gradientTransform="matrix(.065587 0 0 .036985 3.3658 83.447)" gradientUnits="userSpaceOnUse">
   <stop id="stop5050" style="stop-opacity:0" offset="0"/>
   <stop id="stop5056" offset=".5"/>
   <stop id="stop5052" style="stop-opacity:0" offset="1"/>
  </linearGradient>
  <radialGradient id="radialGradient5595" cx="605.71" cy="486.65" r="117.14" gradientTransform="matrix(.065587 0 0 .036985 3.3787 83.447)" gradientUnits="userSpaceOnUse" xlink:href="#linearGradient5060"/>
  <linearGradient id="linearGradient5060">
   <stop id="stop5062" offset="0"/>
   <stop id="stop5064" style="stop-opacity:0" offset="1"/>
  </linearGradient>
  <radialGradient id="radialGradient5597" cx="605.71" cy="486.65" r="117.14" gradientTransform="matrix(-.065587 0 0 .036985 50.763 83.447)" gradientUnits="userSpaceOnUse" xlink:href="#linearGradient5060"/>
  <linearGradient id="linearGradient5585" x1="24.493" x2="24.978" y1="12" y2="60.894" gradientTransform="matrix(.99573 0 0 .99573 -5.0122 -5.3708)" gradientUnits="userSpaceOnUse">
   <stop id="stop4105" style="stop-color:#edd563" offset="0"/>
   <stop id="stop4107" style="stop-color:#e08223" offset="1"/>
  </linearGradient>
  <linearGradient id="linearGradient5587" x1="19.49" x2="19.66" y1="12" y2="50" gradientTransform="matrix(.99573 0 0 .99573 -5.0122 -5.3708)" gradientUnits="userSpaceOnUse" xlink:href="#linearGradient6402"/>
  <linearGradient id="linearGradient6402">
   <stop id="stop6404" style="stop-color:#cd8033" offset="0"/>
   <stop id="stop6406" style="stop-color:#bb5e12" offset="1"/>
  </linearGradient>
  <radialGradient id="radialGradient5582" cx="10.083" cy="14.746" r="17.993" gradientTransform="matrix(.39202 -.026522 .086739 1.3006 -.69081 -10.351)" gradientUnits="userSpaceOnUse">
   <stop id="stop3101" style="stop-color:#fff" offset="0"/>
   <stop id="stop3103" style="stop-color:#fff;stop-opacity:0" offset="1"/>
  </radialGradient>
  <linearGradient id="linearGradient8576" x1="294.21" x2="296.4" y1="6.3851" y2="9.8282" gradientTransform="matrix(-2.1727 1.0941 1.2978 2.7879 663.75 -321.39)" gradientUnits="userSpaceOnUse" xlink:href="#XMLID_897_"/>
  <linearGradient id="XMLID_897_" x1="292.97" x2="296.94" y1="4.7593" y2="10.711" gradientUnits="userSpaceOnUse">
   <stop id="stop45093" style="stop-color:#e8e8e5" offset="0"/>
   <stop id="stop45095" style="stop-color:#f0f0f0" offset="1"/>
  </linearGradient>
  <linearGradient id="linearGradient8573" x1="20.288" x2="24.326" y1="6.4604" y2="23.943" gradientTransform="matrix(.54896 -.25693 .31509 .67822 12.147 16.191)" gradientUnits="userSpaceOnUse" xlink:href="#linearGradient2229"/>
  <linearGradient id="linearGradient2229">
   <stop id="stop2231" style="stop-color:#e2e2e2" offset="0"/>
   <stop id="stop2233" style="stop-color:#d8d8d8" offset="1"/>
  </linearGradient>
  <linearGradient id="linearGradient8569" x1="293.01" x2="296.64" y1="3.0185" y2="10.289" gradientTransform="matrix(2.1924 -1.1088 1.3883 2.7645 -627.5 330.68)" gradientUnits="userSpaceOnUse" xlink:href="#XMLID_897_"/>
  <linearGradient id="linearGradient8566" x1="19.222" x2="24.326" y1="18.036" y2="23.943" gradientTransform="matrix(.54896 -.25693 .31509 .67822 12.147 16.191)" gradientUnits="userSpaceOnUse" xlink:href="#linearGradient2229"/>
  <linearGradient id="linearGradient8582" x1="22.225" x2="24.19" y1="23.843" y2="22.861" gradientTransform="matrix(.53792 -.25177 .31509 .67822 12.457 16.818)" gradientUnits="userSpaceOnUse">
   <stop id="stop695" style="stop-color:#babdb6" offset="0"/>
   <stop id="stop697" style="stop-color:#eeeeec" offset="1"/>
  </linearGradient>
  <linearGradient id="linearGradient3748" x1="15.206" x2="15.206" y1="12.094" y2="49.836" gradientTransform="translate(-4.8409 -6.088)" gradientUnits="userSpaceOnUse" xlink:href="#linearGradient6402"/>
  <linearGradient id="linearGradient3885" x1="24.806" x2="25.048" y1="11.852" y2="50.124" gradientTransform="matrix(1.0017 0 0 .88871 -2.1164 -.83882)" gradientUnits="userSpaceOnUse" xlink:href="#linearGradient6402"/>
 </defs>
 <g id="layer1" transform="matrix(1.33 0 0 1.33 1.0094 1.4196)">
  <g id="g5599" transform="translate(0 -1)" style="enable-background:new">
   <g id="g9421" transform="matrix(.92708 0 0 .66799 -3.347 -24.552)">
    <rect id="rect4173" x="11.236" y="97.008" width="31.669" height="8.9822" style="fill:url(#linearGradient5593);opacity:.40206"/>
    <path id="path5058" d="m42.906 97.008v8.9817c3.3776 0.0169 8.1654-2.0123 8.1654-4.4914 0-2.4791-3.7691-4.4903-8.1654-4.4903z" style="fill:url(#radialGradient5595);opacity:.40206"/>
    <path id="path5018" d="m11.236 97.008v8.9817c-3.3776 0.0169-8.1654-2.0123-8.1654-4.4914 0-2.4791 3.7691-4.4903 8.1654-4.4903z" style="fill:url(#radialGradient5597);opacity:.40206"/>
   </g>
   <path id="rect5490" d="m3.4515 7.0758v36.842h36.842v-8.9616h-27.881v-27.881h-8.9616v0z" style="fill-rule:evenodd;fill:url(#linearGradient5585);stroke-linecap:square;stroke-linejoin:round;stroke-width:.75182;stroke:url(#linearGradient5587)"/>
   <path id="rect8492" d="m4.1296 7.7498v28.2 7.0499h6.9995 27.998v-7.0499h-27.998v-28.2h-6.9995v0z" style="fill:none;opacity:.6;stroke-linecap:square;stroke-width:.75453;stroke:url(#radialGradient5582)"/>
   <path id="path8551" d="m8.4751 33.691v0.18268h3.2461v-0.18268h-3.2461zm1.5759-2.4723v0.31173h1.5665v-0.31173h-1.5665zm0-2.1446v0.31174h1.5665v-0.31174h-1.5665zm0-2.2203v0.31173h1.5665v-0.31173h-1.5665zm0-2.2945v0.31173h1.5665v-0.31173h-1.5665zm-1.5759-2.1556v0.18268h3.2461v-0.18268h-3.2461zm1.5759-2.3591v0.31173h1.5665v-0.31173h-1.5665zm0-2.2203v0.31173h1.5665v-0.31173h-1.5665zm0-2.1446v0.31173h1.5665v-0.31173h-1.5665zm0-2.2203v0.31173h1.5665v-0.31173h-1.5665zm-1.5759-2.3437v0.18268h3.2461v-0.18268h-3.2461z" style="enable-background:new;fill-rule:evenodd;fill:#eabe5c;stroke-linecap:square;stroke-width:.53131;stroke:#eabe5c"/>
   <path id="rect8505" d="m8.5719 33.325v0.1875h3.5872v-0.1875h-3.5872zm1.4862-2.2798v0.22417h1.7296v-0.22417h-1.7296zm-0.02599-2.3262v0.27205h1.6841v-0.27205h-1.6841zm-0.01819-2.1686v0.23323h1.7205v-0.23323h-1.7205zm0-2.3008v0.23323h1.7205v-0.23323h-1.7205zm-1.474-2.15v0.15795h3.6331v-0.15795h-3.6331zm1.5094-2.4159v0.3125h1.6497v-0.3125h-1.6497zm-0.01723-2.1679v0.27205h1.6841v-0.27205h-1.6841zm0-2.2256v0.27205h1.6841v-0.27205h-1.6841zm-0.01819-2.2437v0.23323h1.7205v-0.23323h-1.7205zm-1.474-2.2251v0.15795h3.6331v-0.15795h-3.6331z" style="fill:none;stroke-linecap:square;stroke-width:.6015;stroke:url(#linearGradient3748)"/>
   <path id="path3907" d="m36.038 38.828h0.20938v-3.1441h-0.20938v3.1441z" style="enable-background:new;fill-rule:evenodd;fill:#eabe5c;stroke-linecap:square;stroke-width:.57922;stroke:#eabe5c"/>
   <path id="path3905" d="m33.766 37.228h0.31182v-1.5325h-0.31182v1.5325z" style="enable-background:new;fill-rule:evenodd;fill:#eabe5c;stroke-linecap:square;stroke-width:.6015;stroke:#eabe5c"/>
   <path id="path3903" d="m31.469 37.228h0.31182v-1.5325h-0.31182v1.5325z" style="enable-background:new;fill-rule:evenodd;fill:#eabe5c;stroke-linecap:square;stroke-width:.6015;stroke:#eabe5c"/>
   <path id="path3901" d="m29.323 37.228h0.31182v-1.5325h-0.31182v1.5325z" style="enable-background:new;fill-rule:evenodd;fill:#eabe5c;stroke-linecap:square;stroke-width:.6015;stroke:#eabe5c"/>
   <path id="path3899" d="m27.102 37.228h0.31182v-1.5325h-0.31182v1.5325z" style="enable-background:new;fill-rule:evenodd;fill:#eabe5c;stroke-linecap:square;stroke-width:.6015;stroke:#eabe5c"/>
   <path id="path3897" d="m24.793 39.49h0.18709v-3.7947h-0.18709v3.7947z" style="enable-background:new;fill-rule:evenodd;fill:#eabe5c;stroke-linecap:square;stroke-width:.6015;stroke:#eabe5c"/>
   <path id="path3895" d="m22.509 37.228h0.31182v-1.5325h-0.31182v1.5325z" style="enable-background:new;fill-rule:evenodd;fill:#eabe5c;stroke-linecap:square;stroke-width:.6015;stroke:#eabe5c"/>
   <path id="path3893" d="m20.212 37.228h0.31182v-1.5325h-0.31182v1.5325z" style="enable-background:new;fill-rule:evenodd;fill:#eabe5c;stroke-linecap:square;stroke-width:.6015;stroke:#eabe5c"/>
   <path id="path3891" d="m17.991 37.228h0.31182v-1.5325h-0.31182v1.5325z" style="enable-background:new;fill-rule:evenodd;fill:#eabe5c;stroke-linecap:square;stroke-width:.6015;stroke:#eabe5c"/>
   <path id="path3889" d="m15.77 37.228h0.31182v-1.5325h-0.31182v1.5325z" style="enable-background:new;fill-rule:evenodd;fill:#eabe5c;stroke-linecap:square;stroke-width:.6015;stroke:#eabe5c"/>
   <path id="path8555" d="m13.524 38.746h0.21256v-3.0632h-0.21256v3.0632z" style="enable-background:new;fill-rule:evenodd;fill:#eabe5c;stroke-linecap:square;stroke-width:.57604;stroke:#eabe5c"/>
   <path id="rect8527" d="m36.361 38.853h0.18782v-3.3325h-0.18782v3.3325zm-2.2992-1.4981h0.3127v-1.7475h-0.3127v1.7475zm-2.2271 0h0.3127v-1.7475h-0.3127v1.7475zm-2.2271 0h0.3127v-1.7475h-0.3127v1.7475zm-2.3023 0h0.3127v-1.7475h-0.3127v1.7475zm-2.2391 1.4981h0.18782v-3.3325h-0.18782v3.3325zm-2.2895-1.4981h0.3127v-1.7475h-0.3127v1.7475zm-2.2271 0h0.3127v-1.7475h-0.3127v1.7475zm-2.2263 0h0.3127v-1.7475h-0.3127v1.7475zm-2.2271 0h0.3127v-1.7475h-0.3127v1.7475zm-2.2501 1.4981h0.18782v-3.3325h-0.18782v3.3325z" style="enable-background:new;fill:none;stroke-linecap:square;stroke-width:.6015;stroke:url(#linearGradient3885)"/>
   <g id="g8586" transform="translate(-5 -5.7515)">
    <path id="path16717" d="m30.956 8.5334c0.13306-0.00999 0.26501-0.01311 0.39667-0.018811 1.0322 1.308 3.3188 2.0049 3.4008 3.7838-0.01199 5.3143 0.01699 10.678 0.03582 16.019-0.34644 0.29668-0.7173 0.55001-1.1085 0.76178-0.82239 0.4476-1.7532 0.72109-2.715 0.75653-0.0243-7.1021-0.05339-14.217-0.0098-21.302v4e-7z" style="fill:url(#linearGradient8576);stroke-linecap:round;stroke-linejoin:round;stroke-width:.73902;stroke:#888a85"/>
    <path id="path16719" d="m32.309 10.263c-0.03 0.2679 0.02761 0.70621-0.01228 0.96046-0.09383 5.6196-0.22875 11.249-0.33962 16.854 0.04652 0.18723-0.12785 0.89568 0.2905 0.64264 0.67256-0.15139 1.3576-0.3459 1.8734-0.82971 0.10454-5.1825 0.15438-10.379 0.25353-15.561 0.06598-0.35066-0.06696-0.73265-0.3863-0.90249-0.54827-0.41767-1.1134-0.86171-1.6574-1.2513l-0.01645 0.06608-0.0054 0.02154 3.7e-5 1e-6z" style="fill:url(#linearGradient8573)"/>
    <polygon id="polygon45129" transform="matrix(1.9971 -.9347 1.0935 2.3537 -572.66 276.69)" points="295.13 14.719 294.73 13.673 295.75 11.96 297.04 12.3 297.04 12.3 296.4 13.385" style="fill:#464646;stroke-linecap:round;stroke-linejoin:round;stroke-width:.31431;stroke:#333"/>
    <path id="polygon45097" d="m19.866 14.613c-0.08957 0.10274-0.17307 0.20876-0.25842 0.31297 0.39138 1.6432-0.46702 3.9393 0.87726 5.093 4.1734 3.2363 8.3608 6.5365 12.536 9.8141 0.4454-0.10216 0.87181-0.25076 1.2781-0.44135 0.85608-0.39927 1.6423-0.99359 2.2609-1.7586-5.5527-4.358-11.113-8.7281-16.694-13.02z" style="fill:url(#linearGradient8569);stroke-linecap:round;stroke-linejoin:round;stroke-width:.75188;stroke:#888a85"/>
    <path id="path16635" d="m20.468 15.805c0.14474 0.86256-0.1795 1.699 0.05314 2.5812 4.0506 3.3838 8.1247 6.7408 12.172 10.12 0.73924-0.13272 1.3625-0.56077 1.9344-1.0344-0.33694-0.45368-0.82461-0.713-1.2049-1.1118-4.2083-3.4556-8.4333-6.8975-12.625-10.374-0.05581-0.09906-0.27151-0.27266-0.32972-0.18111h-1e-6z" style="fill:url(#linearGradient8566)"/>
    <path id="path16731" d="m32.982 26.898c0.17126 0.36811 0.07331 0.77751-0.21872 0.9142-0.29204 0.13668-0.66746-0.05116-0.83832-0.41946-0.17126-0.36811-0.07331-0.77751 0.21872-0.9142 0.29204-0.13668 0.66746 0.05116 0.83832 0.41946z" style="fill:url(#linearGradient8582)"/>
    <path id="path45138" d="m31.471 32.535c2.4675 0.3307 4.2574 3.49 3.9952 7.0581-0.26128 3.5697-2.472 6.1964-4.9378 5.8711-2.4684-0.33033-4.2565-3.4884-3.9944-7.0565 0.26125-3.5677 2.4729-6.1948 4.937-5.8728zm-0.16417 2.2734c-1.0947-0.1448-2.4507 1.4836-2.6247 3.8828-0.17639 2.4002 0.91747 4.3582 2.0106 4.5018 1.0954 0.14818 2.4514-1.4839 2.6255-3.8831 0.17718-2.4005-0.9167-4.3567-2.0114-4.5015z" style="fill:#464646;stroke-width:.75188;stroke:#333"/>
    <polygon id="polygon45101" transform="matrix(1.9897 -.93124 1.142 2.4582 -571.32 275.36)" points="298.87 14.719 299.27 13.673 298.25 11.96 296.96 12.3 296.96 12.3 297.6 13.385" style="fill:#464646;stroke-linecap:round;stroke-linejoin:round;stroke-width:.30812;stroke:#333"/>
    <path id="path11967" d="m38.919 28.973c-1.1687 2.0587 0.15618 5.535 2.9619 7.7637 2.8064 2.2305 6.0289 2.3714 7.2007 0.31767 1.1695-2.0591-0.15542-5.5332-2.9611-7.762-2.8049-2.2291-6.0281-2.3697-7.2014-0.31945zm1.786 1.4221c0.51992-0.91201 2.5093-0.81384 4.3946 0.68644 1.8874 1.4992 2.7173 3.6422 2.1974 4.5522-0.51783 0.91485-2.51 0.8142-4.3953-0.68608-1.8881-1.4989-2.7166-3.6406-2.1967-4.5526z" style="fill:#464646;stroke-width:.75188;stroke:#333"/>
   </g>
  </g>
 </g>
</svg>
