<?xml version="1.0" encoding="UTF-8"?>
<!-- Created with Inkscape (http://www.inkscape.org/) -->
<svg id="svg4078" width="48" height="48" version="1.1" xmlns="http://www.w3.org/2000/svg" xmlns:cc="http://creativecommons.org/ns#" xmlns:dc="http://purl.org/dc/elements/1.1/" xmlns:rdf="http://www.w3.org/1999/02/22-rdf-syntax-ns#" xmlns:xlink="http://www.w3.org/1999/xlink">
 <metadata id="metadata63">
  <rdf:RDF>
   <cc:Work rdf:about="">
    <dc:format>image/svg+xml</dc:format>
    <dc:type rdf:resource="http://purl.org/dc/dcmitype/StillImage"/>
   </cc:Work>
  </rdf:RDF>
 </metadata>
 <defs id="defs4080">
  <filter id="filter3212" x="-.14846" y="-.16434" width="1.2969" height="1.3287" color-interpolation-filters="sRGB">
   <feGaussianBlur id="feGaussianBlur3214" stdDeviation="0.77391625"/>
  </filter>
  <linearGradient id="linearGradient5060">
   <stop id="stop5062" offset="0"/>
   <stop id="stop5064" style="stop-opacity:0" offset="1"/>
  </linearGradient>
  <linearGradient id="linearGradient3651" x1="35.517" x2="34.103" y1="4.8577" y2="6.5436" gradientUnits="userSpaceOnUse">
   <stop id="stop4269" style="stop-color:#c4c4c4" offset="0"/>
   <stop id="stop4271" style="stop-color:#c4c4c4;stop-opacity:0" offset="1"/>
  </linearGradient>
  <linearGradient id="linearGradient3654" x1="32.892" x2="36.358" y1="8.059" y2="5.4565" gradientTransform="matrix(.9977 0 0 1.0407 .1638 -1.1058)" gradientUnits="userSpaceOnUse">
   <stop id="stop8591" style="stop-color:#fefefe" offset="0"/>
   <stop id="stop8593" style="stop-color:#cbcbcb" offset="1"/>
  </linearGradient>
  <linearGradient id="linearGradient3658" x1="24" x2="24" y1="2" y2="46.017" gradientTransform="matrix(1 0 0 .97778 0 -.96667)" gradientUnits="userSpaceOnUse">
   <stop id="stop3213" style="stop-color:#fff" offset="0"/>
   <stop id="stop3215" style="stop-color:#fff;stop-opacity:0" offset="1"/>
  </linearGradient>
  <radialGradient id="radialGradient3661" cx="102" cy="112.3" r="139.56" gradientTransform="matrix(.3617 0 0 -.39078 .85106 47.517)" gradientUnits="userSpaceOnUse">
   <stop id="stop41" offset="0"/>
   <stop id="stop47" offset=".18851"/>
   <stop id="stop49" style="stop-opacity:0" offset=".25718"/>
   <stop id="stop51" style="stop-opacity:0" offset="1"/>
  </radialGradient>
  <radialGradient id="radialGradient3664" cx="14.766" cy="10.898" r="18" gradientTransform="matrix(-2.2703e-8 2.1357 -3.5601 -3.7845e-8 54.621 -24.438)" gradientUnits="userSpaceOnUse">
   <stop id="stop2749" style="stop-color:#d78ec1" offset="0"/>
   <stop id="stop2751" style="stop-color:#c564be" offset=".26238"/>
   <stop id="stop2753" style="stop-color:#9d3ea4" offset=".66094"/>
   <stop id="stop2755" style="stop-color:#5e2c73" offset="1"/>
  </radialGradient>
  <linearGradient id="linearGradient3666" x1="-51.786" x2="-51.786" y1="53.624" y2="2.9062" gradientTransform="matrix(.8075 0 0 .89483 59.41 -2.9806)" gradientUnits="userSpaceOnUse">
   <stop id="stop2759" style="stop-color:#650d5c" offset="0"/>
   <stop id="stop2761" style="stop-color:#ad53a5" offset="1"/>
  </linearGradient>
  <radialGradient id="radialGradient3669" cx="605.71" cy="486.65" r="117.14" gradientTransform="matrix(.02304 0 0 .0147 26.361 37.04)" gradientUnits="userSpaceOnUse" xlink:href="#linearGradient5060"/>
  <radialGradient id="radialGradient3672" cx="605.71" cy="486.65" r="117.14" gradientTransform="matrix(-.02304 0 0 .0147 21.623 37.04)" gradientUnits="userSpaceOnUse" xlink:href="#linearGradient5060"/>
  <linearGradient id="linearGradient3675" x1="302.86" x2="302.86" y1="366.65" y2="609.51" gradientTransform="matrix(.067325 0 0 .0147 -.34114 37.04)" gradientUnits="userSpaceOnUse">
   <stop id="stop5050" style="stop-opacity:0" offset="0"/>
   <stop id="stop5056" offset=".5"/>
   <stop id="stop5052" style="stop-opacity:0" offset="1"/>
  </linearGradient>
 </defs>
 <rect id="rect2879" x="7.7378" y="42.43" width="32.508" height="3.5701" style="fill:url(#linearGradient3675);opacity:.3"/>
 <path id="path2881" d="m7.7378 42.43v3.5699c-1.1865 0.0067-2.8684-0.79982-2.8684-1.7852 0-0.98533 1.324-1.7847 2.8684-1.7847z" style="fill:url(#radialGradient3672);opacity:.3"/>
 <path id="path2883" d="m40.246 42.43v3.5699c1.1865 0.0067 2.8684-0.79982 2.8684-1.7852 0-0.98533-1.324-1.7847-2.8684-1.7847z" style="fill:url(#radialGradient3669);opacity:.3"/>
 <path id="path4160" d="m6.5 0.4972h24.061c0.52523 1.9602 6.1331 6.8516 10.939 9.6264v34.379h-35v-44.006z" style="fill:url(#radialGradient3664);stroke-linejoin:round;stroke-width:.99992;stroke:url(#linearGradient3666)"/>
 <path id="path4191" d="m7.3617 44c-0.1993 0-0.3617-0.17546-0.3617-0.39078v-42.204c0-0.21571 0.1624-0.39078 0.3617-0.39078 7.4831 0.10801 15.776-0.16158 23.25 0.026895l10.283 8.866 0.10598 33.702c0 0.21532-0.16204 0.39078-0.3617 0.39078h-33.277z" style="fill:url(#radialGradient3661);opacity:.1"/>
 <path id="path2435" d="m40.5 10.259v33.263h-33v-42.045h22.866" style="fill:none;opacity:.4;stroke-linejoin:round;stroke-width:.99992;stroke:url(#linearGradient3658)"/>
 <path id="path12038" d="m28.617 0.92126c4.2825 0 2.1532 8.4832 2.1532 8.4832s10.358-1.8023 10.358 2.8187c0-2.6097-11.302-10.729-12.511-11.302z" style="fill-rule:evenodd;filter:url(#filter3212);opacity:.4"/>
 <path id="path4474" d="m28.617 0.92126c3.1865 0 2.3358 7.6619 2.3358 7.6619s10.175-0.98105 10.175 3.64c0-1.1259 0.08591-1.9322-0.13378-2.2836-1.5783-2.5242-8.1132-8.1884-10.575-8.9308-0.18422-0.055555-0.87504-0.087535-1.8022-0.087535z" style="fill-rule:evenodd;fill:url(#linearGradient3654)"/>
 <path id="path4238" d="m30.561 0.5c1.4069 0.47465 8.9655 5.8794 10.939 9.6236v12.285c-40.446 15.729-35.236-21.909-10.939-21.909z" style="fill:none;stroke-linejoin:round;stroke-width:.99992;stroke:url(#linearGradient3651)"/>
 <path id="rect3594" d="m22.438 37c-0.24973 0-0.4375-0.41558-0.4375-0.9375v-3.3125c-1.0054-0.22894-1.9349-0.62162-2.7812-1.1562l-2.3438 2.3438c-0.36905 0.36905-0.79216 0.52034-0.96875 0.34375l-2.1875-2.1875c-0.17659-0.17659-0.0253-0.5997 0.34375-0.96875l2.3438-2.3438c-0.53463-0.84638-0.92731-1.7758-1.1562-2.7812h-3.3125c-0.52192 0-0.9375-0.18777-0.9375-0.4375v-3.125c0-0.24973 0.41558-0.4375 0.9375-0.4375h3.3125c0.22894-1.0054 0.62162-1.9349 1.1562-2.7812l-2.3438-2.3438c-0.36905-0.36905-0.52034-0.79216-0.34375-0.96875l2.1875-2.1875c3.5309 3.4591 12.315 4.1886 16.188 0l2.1875 2.1875c0.17659 0.17659 0.0253 0.5997-0.34375 0.96875l-2.3438 2.3438c0.53463 0.84638 0.92731 1.7758 1.1562 2.7812h3.3125c0.52192 0 0.9375 0.18777 0.9375 0.4375v3.125c0 0.24973-0.41558 0.4375-0.9375 0.4375h-3.3125c-0.22894 1.0054-0.62162 1.9349-1.1562 2.7812l2.3438 2.3438c0.36905 0.36905 0.52034 0.79216 0.34375 0.96875l-2.1875 2.1875c-0.17659 0.17659-0.5997 0.0253-0.96875-0.34375l-2.3438-2.3438c-0.84638 0.53463-1.7758 0.92731-2.7812 1.1562v3.3125c0 0.52192-0.18777 0.9375-0.4375 0.9375h-3.125zm1.5625-9c2.208 0 4-1.792 4-4s-1.792-4-4-4-4 1.792-4 4 1.792 4 4 4z" style="fill:#fff;opacity:.4"/>
 <path id="path3625-9" d="m22.438 36c-0.24973 0-0.4375-0.41558-0.4375-0.9375v-3.3125c-1.0054-0.22894-1.9349-0.62162-2.7812-1.1562l-2.3438 2.3438c-0.36905 0.36905-0.79216 0.52034-0.96875 0.34375l-2.1875-2.1875c-0.17659-0.17659-0.0253-0.5997 0.34375-0.96875l2.3438-2.3438c-0.53463-0.84638-0.92731-1.7758-1.1562-2.7812h-3.3125c-0.52192 0-0.9375-0.18777-0.9375-0.4375v-3.125c0-0.24973 0.41558-0.4375 0.9375-0.4375h3.3125c0.22894-1.0054 0.62162-1.9349 1.1562-2.7812l-2.3438-2.3438c-0.36905-0.36905-0.52034-0.79216-0.34375-0.96875l2.1875-2.1875c0.17659-0.17659 0.5997-0.0253 0.96875 0.34375l2.3438 2.3438c0.84638-0.53463 1.7758-0.92731 2.7812-1.1562v-3.3125c0-0.52192 0.18777-0.9375 0.4375-0.9375h3.125c0.24973 0 0.4375 0.41558 0.4375 0.9375v3.3125c1.0054 0.22894 1.9349 0.62162 2.7812 1.1562l2.3438-2.3438c0.36905-0.36905 0.79216-0.52034 0.96875-0.34375l2.1875 2.1875c0.17659 0.17659 0.0253 0.5997-0.34375 0.96875l-2.3438 2.3438c0.53463 0.84638 0.92731 1.7758 1.1562 2.7812h3.3125c0.52192 0 0.9375 0.18777 0.9375 0.4375v3.125c0 0.24973-0.41558 0.4375-0.9375 0.4375h-3.3125c-0.22894 1.0054-0.62162 1.9349-1.1562 2.7812l2.3438 2.3438c0.36905 0.36905 0.52034 0.79216 0.34375 0.96875l-2.1875 2.1875c-0.17659 0.17659-0.5997 0.0253-0.96875-0.34375l-2.3438-2.3438c-0.84638 0.53463-1.7758 0.92731-2.7812 1.1562v3.3125c0 0.52192-0.18777 0.9375-0.4375 0.9375h-3.125zm1.5625-9c2.208 0 4-1.792 4-4s-1.792-4-4-4-4 1.792-4 4 1.792 4 4 4z" style="fill:#6d3c6d"/>
</svg>
