<?xml version="1.0" encoding="UTF-8" standalone="no"?>
<!-- Created with Inkscape (http://www.inkscape.org/) -->

<svg
   xmlns:dc="http://purl.org/dc/elements/1.1/"
   xmlns:cc="http://creativecommons.org/ns#"
   xmlns:rdf="http://www.w3.org/1999/02/22-rdf-syntax-ns#"
   xmlns:svg="http://www.w3.org/2000/svg"
   xmlns="http://www.w3.org/2000/svg"
   xmlns:xlink="http://www.w3.org/1999/xlink"
   xmlns:sodipodi="http://sodipodi.sourceforge.net/DTD/sodipodi-0.dtd"
   xmlns:inkscape="http://www.inkscape.org/namespaces/inkscape"
   width="16"
   height="16"
   id="svg27665"
   version="1.1"
   inkscape:version="0.48.3.1 r9886"
   sodipodi:docname="emblem-shared.svg">
  <defs
     id="defs27667">
    <linearGradient
       id="linearGradient4089">
      <stop
         id="stop4091"
         offset="0"
         style="stop-color:#45334f;stop-opacity:1" />
      <stop
         id="stop4093"
         offset="1"
         style="stop-color:#ab82bc;stop-opacity:1" />
    </linearGradient>
    <linearGradient
       inkscape:collect="always"
       id="linearGradient3695">
      <stop
         style="stop-color:#e6e6e6;stop-opacity:1"
         offset="0"
         id="stop3697" />
      <stop
         style="stop-color:#f9f9f9;stop-opacity:1"
         offset="1"
         id="stop3699" />
    </linearGradient>
    <inkscape:path-effect
       effect="skeletal"
       id="path-effect11732"
       is_visible="true"
       pattern="M 0,5 C 0,2.24 2.24,0 5,0 7.76,0 10,2.24 10,5 10,7.76 7.76,10 5,10 2.24,10 0,7.76 0,5 z"
       copytype="single_stretched"
       prop_scale="0.5"
       scale_y_rel="false"
       spacing="0"
       normal_offset="0"
       tang_offset="0"
       prop_units="false"
       vertical_pattern="false"
       fuse_tolerance="0" />
    <inkscape:path-effect
       effect="spiro"
       id="path-effect11730"
       is_visible="true" />
    <linearGradient
       id="linearGradient11690">
      <stop
         style="stop-color:#a65682;stop-opacity:1;"
         offset="0"
         id="stop11692" />
      <stop
         style="stop-color:#42182f;stop-opacity:1"
         offset="1"
         id="stop11694" />
    </linearGradient>
    <radialGradient
       inkscape:collect="always"
       xlink:href="#linearGradient11690"
       id="radialGradient6073"
       gradientUnits="userSpaceOnUse"
       cx="-1097.0258"
       cy="851.41125"
       fx="-1097.0258"
       fy="851.41125"
       r="60.609154" />
    <filter
       inkscape:collect="always"
       id="filter9351-4"
       color-interpolation-filters="sRGB">
      <feGaussianBlur
         inkscape:collect="always"
         stdDeviation="4.3638591"
         id="feGaussianBlur9353-2" />
    </filter>
    <radialGradient
       inkscape:collect="always"
       xlink:href="#linearGradient11690-2-0-2-0"
       id="radialGradient3134-6"
       gradientUnits="userSpaceOnUse"
       cx="-1097.0258"
       cy="851.41125"
       fx="-1097.0258"
       fy="851.41125"
       r="60.609154" />
    <linearGradient
       id="linearGradient11690-2-0-2-0">
      <stop
         style="stop-color:#a65682;stop-opacity:1;"
         offset="0"
         id="stop11692-8-1-6-5" />
      <stop
         style="stop-color:#42182f;stop-opacity:1"
         offset="1"
         id="stop11694-4-0-8-2" />
    </linearGradient>
    <radialGradient
       inkscape:collect="always"
       xlink:href="#linearGradient11306-1-0-0"
       id="radialGradient3136-5"
       gradientUnits="userSpaceOnUse"
       gradientTransform="matrix(1.1645027,0,0,1.0873774,204.2828,-113.20914)"
       cx="-1246.502"
       cy="1307.4569"
       fx="-1246.502"
       fy="1307.4569"
       r="58.903805" />
    <linearGradient
       id="linearGradient11306-1-0-0"
       inkscape:collect="always">
      <stop
         id="stop11308-5-3-5"
         offset="0"
         style="stop-color:#ffffff;stop-opacity:1" />
      <stop
         id="stop11310-5-2-6"
         offset="1"
         style="stop-color:#e455a5;stop-opacity:0" />
    </linearGradient>
    <radialGradient
       inkscape:collect="always"
       xlink:href="#radialGradient5147-2-3-7-9"
       id="radialGradient3138-5"
       gradientUnits="userSpaceOnUse"
       gradientTransform="matrix(3.3633379,0,0,3.1288535,-1310.5923,1248.4606)"
       cx="62.224998"
       cy="-3.4419999"
       r="10.081" />
    <radialGradient
       r="10.081"
       gradientTransform="matrix(1.1035,0,0,1.0265,-4.1555,3.1930325)"
       cx="62.224998"
       cy="-3.4419999"
       gradientUnits="userSpaceOnUse"
       id="radialGradient5147-2-3-7-9">
      <stop
         offset="0"
         style="stop-color:#9e9e9e"
         id="stop14118-3-8-9-8" />
      <stop
         offset="1"
         style="stop-color:#9e9e9e;stop-opacity:0"
         id="stop14120-8-6-8-9" />
    </radialGradient>
    <clipPath
       clipPathUnits="userSpaceOnUse"
       id="clipPath6069-9-9-8-7">
      <path
         transform="translate(-138.53498,465.26656)"
         d="m -1027.3252,863.53308 a 60.609154,60.609154 0 1 1 -121.2183,0 60.609154,60.609154 0 1 1 121.2183,0 z"
         sodipodi:ry="60.609154"
         sodipodi:rx="60.609154"
         sodipodi:cy="863.53308"
         sodipodi:cx="-1087.9343"
         id="path6071-1-5-5-5"
         style="fill:url(#radialGradient6073);fill-opacity:1;stroke:none"
         sodipodi:type="arc" />
    </clipPath>
    <filter
       color-interpolation-filters="sRGB"
       inkscape:collect="always"
       id="filter11724-1-2-8-4"
       x="-0.42631578"
       width="1.8526316"
       y="-0.42631578"
       height="1.8526316">
      <feGaussianBlur
         inkscape:collect="always"
         stdDeviation="21.532199"
         id="feGaussianBlur11726-0-7-9-5" />
    </filter>
    <filter
       color-interpolation-filters="sRGB"
       inkscape:collect="always"
       id="filter11718-6-2-8-0"
       x="-0.49736843"
       width="1.9947368"
       y="-0.49736843"
       height="1.9947368">
      <feGaussianBlur
         inkscape:collect="always"
         stdDeviation="25.120899"
         id="feGaussianBlur11720-69-3-8-3" />
    </filter>
    <filter
       color-interpolation-filters="sRGB"
       inkscape:collect="always"
       id="filter6041-2-6-1-0"
       x="-0.10874003"
       width="1.2174801"
       y="-0.12084564"
       height="1.2416914">
      <feGaussianBlur
         inkscape:collect="always"
         stdDeviation="4.4420492"
         id="feGaussianBlur6043-5-4-6-1" />
    </filter>
    <filter
       color-interpolation-filters="sRGB"
       inkscape:collect="always"
       id="filter6055-5-6-3-8"
       x="-0.66838384"
       width="2.3367677"
       y="-0.51280332"
       height="2.0256066">
      <feGaussianBlur
         inkscape:collect="always"
         stdDeviation="31.092455"
         id="feGaussianBlur6057-6-9-2-2" />
    </filter>
    <filter
       color-interpolation-filters="sRGB"
       inkscape:collect="always"
       id="filter4438-3-6"
       x="-0.14189155"
       width="1.2837831"
       y="-0.056318086"
       height="1.1126362">
      <feGaussianBlur
         inkscape:collect="always"
         stdDeviation="9.6954717"
         id="feGaussianBlur4440-7-3" />
    </filter>
    <linearGradient
       inkscape:collect="always"
       xlink:href="#linearGradient4002-1-9"
       id="linearGradient3140-3"
       gradientUnits="userSpaceOnUse"
       x1="-1248.9731"
       y1="1321.9513"
       x2="-1177.0122"
       y2="1305.246" />
    <linearGradient
       inkscape:collect="always"
       id="linearGradient4002-1-9">
      <stop
         style="stop-color:#ffffff;stop-opacity:1;"
         offset="0"
         id="stop4004-2-9" />
      <stop
         style="stop-color:#ffffff;stop-opacity:0;"
         offset="1"
         id="stop4006-7-7" />
    </linearGradient>
    <linearGradient
       inkscape:collect="always"
       xlink:href="#linearGradient3968-6-8"
       id="linearGradient3142-1"
       gradientUnits="userSpaceOnUse"
       x1="-1255.3982"
       y1="1331.5889"
       x2="-1177.0122"
       y2="1305.246" />
    <linearGradient
       inkscape:collect="always"
       id="linearGradient3968-6-8">
      <stop
         style="stop-color:#ffffff;stop-opacity:1;"
         offset="0"
         id="stop3970-5-9" />
      <stop
         style="stop-color:#ffffff;stop-opacity:0;"
         offset="1"
         id="stop3972-8-6" />
    </linearGradient>
    <filter
       color-interpolation-filters="sRGB"
       inkscape:collect="always"
       id="filter3964-1-0"
       x="-0.060857464"
       width="1.1217149"
       y="-0.14297789"
       height="1.2859558">
      <feGaussianBlur
         inkscape:collect="always"
         stdDeviation="2.7378256"
         id="feGaussianBlur3966-5-6" />
    </filter>
    <linearGradient
       inkscape:collect="always"
       xlink:href="#linearGradient4678-6-7"
       id="linearGradient3144-9"
       gradientUnits="userSpaceOnUse"
       x1="-1275.3162"
       y1="1345.724"
       x2="-1176.3696"
       y2="1305.246" />
    <linearGradient
       id="linearGradient4678-6-7"
       inkscape:collect="always">
      <stop
         id="stop4680-9-3"
         offset="0"
         style="stop-color:#ffffff;stop-opacity:1" />
      <stop
         id="stop4682-1-4"
         offset="1"
         style="stop-color:#ffffff;stop-opacity:0" />
    </linearGradient>
    <filter
       color-interpolation-filters="sRGB"
       inkscape:collect="always"
       id="filter4348-5-7">
      <feGaussianBlur
         inkscape:collect="always"
         stdDeviation="0.36945603"
         id="feGaussianBlur4350-9-1" />
    </filter>
    <linearGradient
       inkscape:collect="always"
       xlink:href="#linearGradient4206-2-6"
       id="linearGradient3146-5"
       gradientUnits="userSpaceOnUse"
       x1="-1137.1427"
       y1="329.14276"
       x2="-965.71417"
       y2="486.28561" />
    <linearGradient
       inkscape:collect="always"
       id="linearGradient4206-2-6">
      <stop
         style="stop-color:#ffffff;stop-opacity:1;"
         offset="0"
         id="stop4208-7-8" />
      <stop
         style="stop-color:#ffffff;stop-opacity:0;"
         offset="1"
         id="stop4210-9-2" />
    </linearGradient>
    <linearGradient
       inkscape:collect="always"
       xlink:href="#linearGradient4158-8-8"
       id="linearGradient3148-3"
       gradientUnits="userSpaceOnUse"
       x1="-1137.1427"
       y1="329.14276"
       x2="-857.14276"
       y2="509.14276" />
    <linearGradient
       inkscape:collect="always"
       id="linearGradient4158-8-8">
      <stop
         style="stop-color:#ffffff;stop-opacity:1;"
         offset="0"
         id="stop4160-1-7" />
      <stop
         style="stop-color:#ffffff;stop-opacity:0;"
         offset="1"
         id="stop4162-2-3" />
    </linearGradient>
    <filter
       color-interpolation-filters="sRGB"
       inkscape:collect="always"
       id="filter4132-6-7">
      <feGaussianBlur
         inkscape:collect="always"
         stdDeviation="10.579658"
         id="feGaussianBlur4134-2-8" />
    </filter>
    <linearGradient
       inkscape:collect="always"
       xlink:href="#linearGradient4260-2-7"
       id="linearGradient3150-4"
       gradientUnits="userSpaceOnUse"
       x1="-1277.2435"
       y1="1314.8837"
       x2="-1240.6205"
       y2="1372.7095" />
    <linearGradient
       inkscape:collect="always"
       id="linearGradient4260-2-7">
      <stop
         style="stop-color:#ffffff;stop-opacity:1;"
         offset="0"
         id="stop4262-7-0" />
      <stop
         style="stop-color:#f69dff;stop-opacity:0"
         offset="1"
         id="stop4264-2-1" />
    </linearGradient>
    <filter
       color-interpolation-filters="sRGB"
       inkscape:collect="always"
       id="filter4352-9-0">
      <feGaussianBlur
         inkscape:collect="always"
         stdDeviation="0.36945603"
         id="feGaussianBlur4354-9-6" />
    </filter>
    <linearGradient
       inkscape:collect="always"
       xlink:href="#linearGradient4442-18-2"
       id="linearGradient3152-2"
       gradientUnits="userSpaceOnUse"
       x1="-1249.6157"
       y1="1360.5018"
       x2="-1235.4805"
       y2="1280.1882" />
    <linearGradient
       inkscape:collect="always"
       id="linearGradient4442-18-2">
      <stop
         style="stop-color:#ffffff;stop-opacity:1;"
         offset="0"
         id="stop4444-48-3" />
      <stop
         style="stop-color:#ffffff;stop-opacity:0;"
         offset="1"
         id="stop4446-4-4" />
    </linearGradient>
    <filter
       color-interpolation-filters="sRGB"
       inkscape:collect="always"
       id="filter4546-2-2"
       x="-0.74781162"
       width="2.4956234"
       y="-0.4782517"
       height="1.9565034">
      <feGaussianBlur
         inkscape:collect="always"
         stdDeviation="17.311341"
         id="feGaussianBlur4548-1-5" />
    </filter>
    <linearGradient
       inkscape:collect="always"
       xlink:href="#linearGradient4089"
       id="linearGradient4544"
       gradientUnits="userSpaceOnUse"
       gradientTransform="matrix(21.152661,0,0,21.152661,-3420.0039,149.2547)"
       x1="10.914978"
       y1="15.041361"
       x2="10.914978"
       y2="1.0476295" />
    <linearGradient
       inkscape:collect="always"
       xlink:href="#linearGradient3695"
       id="linearGradient4554"
       gradientUnits="userSpaceOnUse"
       x1="-3253.8755"
       y1="493.66153"
       x2="-3253.8755"
       y2="110.3815" />
  </defs>
  <sodipodi:namedview
     id="base"
     pagecolor="#ffffff"
     bordercolor="#666666"
     borderopacity="1.0"
     inkscape:pageopacity="0.0"
     inkscape:pageshadow="2"
     inkscape:zoom="22.4"
     inkscape:cx="14.178146"
     inkscape:cy="8.1316015"
     inkscape:document-units="px"
     inkscape:current-layer="16"
     showgrid="true"
     inkscape:window-width="1680"
     inkscape:window-height="1002"
     inkscape:window-x="-8"
     inkscape:window-y="21"
     inkscape:window-maximized="1"
     inkscape:snap-bbox="true"
     inkscape:bbox-paths="true"
     inkscape:bbox-nodes="true"
     inkscape:snap-bbox-edge-midpoints="true"
     inkscape:snap-bbox-midpoints="true"
     inkscape:object-paths="true"
     inkscape:snap-intersection-paths="true"
     inkscape:object-nodes="true"
     inkscape:snap-smooth-nodes="true"
     inkscape:snap-midpoints="true"
     inkscape:snap-object-midpoints="true"
     inkscape:snap-center="true"
     inkscape:snap-global="false"
     showguides="true"
     inkscape:guide-bbox="true"
     fit-margin-top="0"
     fit-margin-left="0"
     fit-margin-right="0"
     fit-margin-bottom="0"
     inkscape:showpageshadow="false">
    <inkscape:grid
       type="xygrid"
       id="grid4559"
       empspacing="5"
       visible="true"
       enabled="true"
       snapvisiblegridlinesonly="true"
       originx="-0.00012887268px"
       originy="589.00002px" />
  </sodipodi:namedview>
  <metadata
     id="metadata27670">
    <rdf:RDF>
      <cc:Work
         rdf:about="">
        <dc:format>image/svg+xml</dc:format>
        <dc:type
           rdf:resource="http://purl.org/dc/dcmitype/StillImage" />
        <dc:title />
      </cc:Work>
    </rdf:RDF>
  </metadata>
  <g
     inkscape:label="Camada 1"
     inkscape:groupmode="layer"
     id="layer1"
     transform="translate(1356.2085,-1630.6912)">
    <g
       transform="matrix(1.01396,0,0,1.01396,582.76416,-418.28939)"
       id="g3344">
      <path
         transform="matrix(2.533413,0,0,2.533413,-435.37432,-1904.2338)"
         d="m -1027.3252,863.53308 c 0,33.47351 -27.1356,60.60915 -60.6091,60.60915 -33.4735,0 -60.6092,-27.13564 -60.6092,-60.60915 0,-33.47351 27.1357,-60.60915 60.6092,-60.60915 33.4735,0 60.6091,27.13564 60.6091,60.60915 z"
         sodipodi:ry="60.609154"
         sodipodi:rx="60.609154"
         sodipodi:cy="863.53308"
         sodipodi:cx="-1087.9343"
         id="path3346"
         style="opacity:0.25200004;fill:none;stroke:#000000;stroke-width:19.46449852;stroke-miterlimit:4;stroke-dasharray:none;filter:url(#filter9351-4)"
         sodipodi:type="arc" />
      <path
         sodipodi:type="arc"
         style="fill:none;stroke:#ffffff;stroke-width:19.46449852;stroke-miterlimit:4;stroke-dasharray:none"
         id="path3348"
         sodipodi:cx="-1087.9343"
         sodipodi:cy="863.53308"
         sodipodi:rx="60.609154"
         sodipodi:ry="60.609154"
         d="m -1027.3252,863.53308 c 0,33.47351 -27.1356,60.60915 -60.6091,60.60915 -33.4735,0 -60.6092,-27.13564 -60.6092,-60.60915 0,-33.47351 27.1357,-60.60915 60.6092,-60.60915 33.4735,0 60.6091,27.13564 60.6091,60.60915 z"
         transform="matrix(2.533413,0,0,2.533413,-448.77226,-1917.6318)" />
      <g
         transform="matrix(2.5567561,0,0,2.5567561,-69.35216,-3127.3238)"
         id="g3350">
        <path
           sodipodi:type="arc"
           style="fill:url(#radialGradient3134-6);fill-opacity:1;stroke:none"
           id="path3352"
           sodipodi:cx="-1087.9343"
           sodipodi:cy="863.53308"
           sodipodi:rx="60.609154"
           sodipodi:ry="60.609154"
           d="m -1027.3252,863.53308 c 0,33.47351 -27.1356,60.60915 -60.6091,60.60915 -33.4735,0 -60.6092,-27.13564 -60.6092,-60.60915 0,-33.47351 27.1357,-60.60915 60.6092,-60.60915 33.4735,0 60.6091,27.13564 60.6091,60.60915 z"
           transform="translate(-138.53498,465.26656)" />
        <path
           d="m -1225.6128,1270.1931 c -4.6579,0.3677 -9.2435,1.1137 -13.6906,2.5776 -3.749,1.4888 2.7031,-1.3103 -1.1428,-1.8432 -2.3145,-0.396 -3.2841,1.9889 -5.3522,2.0437 -2.3594,0.072 -3.9769,2.1816 -6.1931,2.4354 -0.7981,4.3989 -1.8264,-1.7343 -2.5586,0.4015 0.5805,2.1982 -0.2375,3.6356 -1.9379,4.913 -1.8336,2.0804 -0.1087,3.9426 1.6522,2.1153 0.8459,-2.5436 3.6043,-5.3699 6.2956,-3.6726 2.6934,1.4767 5.3586,5.0371 7.6008,1.2477 -2.3008,-0.2765 -3.1888,-2.2445 -4.2912,-3.687 -1.2198,0.098 -6.3377,-0.9759 -3.0659,-0.7321 1.6105,-0.5258 4.7213,-2.0898 5.8639,-2.0282 -2.8654,1.4944 1.0672,2.4771 2.2311,3.6683 2.093,0.6206 3.0411,3.2789 1.1404,4.6544 -2.444,1.2686 0.1698,3.3582 0.6735,5.1051 0.391,3.0428 3.0364,1.3192 3.8757,-0.5501 1.2132,-3.3995 5.0999,-3.282 7.9117,-4.7312 3.0723,-1.5776 3.1235,-1.633 4.582,0.6154 1.1207,0.6447 4.8606,-1.7015 2.4051,-2.8315 -2.1019,0.1124 -3.4808,1.403 -1.7179,-1.8533 0.4241,-1.7498 2.0697,-4.0342 1.7705,-5.4674 -2.0177,-0.7933 -4.0354,-1.5871 -6.0531,-2.3808 z m -28.5683,11.2611 c 1.0854,1.1103 4.7436,3.1193 4.3792,0.3429 -0.4395,-1.8819 -3.1754,-1.899 -4.3792,-0.3429 z m 55.3647,-1.3556 c -2.5118,0.5158 -5.002,1.0811 -6.9856,2.8153 0.5928,2.3936 -2.5423,2.7368 -3.917,4.0481 -0.3668,0.7694 -0.074,5.6094 1.5578,3.5276 1.7725,-2.3544 2.5409,1.2457 4.4126,1.6059 1.3566,-0.4366 1.5245,-3.4863 1.0142,-4.89 0.8693,-1.4321 2.2877,-3.4124 4.1265,-3.249 -1.1404,1.7405 -2.4433,6.1921 1.1921,4.3725 1.0521,-0.018 -2.8637,2.2998 -3.0985,3.8803 -1.4709,1.5631 -3.0278,2.7611 -5.1523,1.5498 -1.0169,-0.8585 -1.5334,-3.3505 -2.1767,-0.5355 1.321,2.2327 -3.3193,0.1439 -3.2046,3.1567 -0.9745,1.8749 -2.7317,2.6429 -4.7638,2.7783 0.7374,0.5834 3.6342,4.0582 0.7605,3.5665 -1.8395,0.2021 -4.5283,1.2406 -3.7837,3.552 -0.8377,2.8784 1.295,2.1534 2.6066,3.9555 2.1371,-0.6072 3.5015,-1.9176 3.8507,-4.1519 2.0001,-0.5874 2.242,-2.8406 4.4377,-2.7951 2.189,-1.2308 2.6991,2.2475 4.7507,2.505 0.2152,1.2457 -1.02,3.9045 1.3917,1.4305 2.3297,-1.6884 -2.4234,-3.8761 -0.9437,-4.2877 2.106,0.6729 2.8652,2.6724 3.2033,4.6301 1.7162,2.9367 2.1392,1.3535 2.2759,-1.2301 2.6737,-1.2022 3.4969,5.0019 7.2787,3.4738 2.8248,0.5844 1.8272,2.5311 -0.058,3.7196 -1.526,1.4359 -4.0786,0.5285 -5.8716,-0.048 -1.7213,-0.8461 -4.022,-0.7563 -4.9418,1.1689 -1.4183,-0.6634 -2.8847,-2.7781 -4.3213,-3.9985 -3.5499,-1.5665 -7.4107,-0.2308 -10.9479,0.7299 -3.0345,3.5454 -6.6896,6.7636 -7.9964,11.3874 -1.9133,1.9463 1.6563,3.073 -0.7434,4.7427 -1.9592,1.563 0.3293,3.5447 0.7492,5.3424 1.8423,2.2675 4.9698,9.3646 7.8356,6.5387 1.6063,-2.446 2.4981,1.877 4.3885,-0.9204 1.5095,-1.2176 2.9549,1.3962 5.15,0.4369 2.1145,1.3058 1.7097,3.1799 0.8379,5.1598 0.4748,1.6486 2.8373,2.8481 1.9193,5.0833 -0.834,2.082 1.7774,3.6606 1.2509,5.4826 -1.7521,3.5088 -1.339,7.8478 0.286,11.3256 1.3005,3.1472 2.0633,6.5486 1.9618,9.9649 2.2639,0.6773 3.4646,-2.2224 5.7227,-1.5641 2.2046,0.2842 3.0232,-2.5291 4.5742,-3.7058 1.7284,-1.4249 -0.2202,-3.619 2.5235,-4.6285 2.6617,-1.2962 -3.371,-3.113 0.046,-4.2747 1.4176,-1.5777 4.3072,-2.1268 4.8789,-4.1865 -1.0313,-3.1694 -0.6643,-6.6451 -0.51,-9.8868 0.992,-2.5654 2.224,-4.972 4.3468,-6.7885 0.8558,-2.8247 2.8931,-5.4187 2.7109,-8.446 -5.0218,1.5361 -3.4995,-0.6552 -0.7,-2.6616 1.9358,-1.2863 4.2825,-2.5775 5.1833,-4.7603 0.4401,-2.4703 -1.3785,-6.4914 -3.072,-2.7584 -0.7471,-1.4347 -3.5179,-2.1867 -3.3922,-4.0559 -0.5383,-3.8484 1.0503,-0.4399 2.6227,0.3289 3.3971,-1.8449 5.1259,5.415 7.2823,1.082 -1.8836,-13.6279 -9.3021,-25.9939 -19.3237,-35.2572 -1.7403,-3.3373 -2.807,2.2862 -4.5747,2.0728 -1.4142,-1.4783 -4.0537,-3.473 -0.3719,-2.7859 3.1515,-0.923 1.015,-2.142 -1.2952,-2.0855 -1.7496,-0.2125 -3.3559,-0.8248 -4.9836,-1.4598 z m -62.6645,1.3555 c -0.8381,4.1252 -6.1289,3.6436 -7.9738,7.7128 -9.0776,9.6107 -14.6803,22.257 -16.2147,35.3516 0.8103,3.0699 3.3846,4.5442 5.9741,5.9052 2.2002,1.278 5.4255,0.7137 6.659,3.3905 1.3773,1.1273 2.8634,3.3521 4.8327,2.6738 2.8548,-0.2773 1.0978,2.616 0.6089,4.0821 -0.1807,1.8501 -2.4621,3.0289 -1.5855,4.8093 -0.7356,2.0168 -1.3198,4.0163 0.3128,5.7626 1.3883,2.5601 2.5186,5.3276 5.0925,6.9348 1.8048,1.5157 3.8479,3.5214 3.1404,6.0881 -0.376,2.0779 0.1312,3.9927 1.1354,5.8159 -0.3602,2.0466 -1.0995,4.1404 -1.2512,6.1519 2.6806,1.896 8.1394,6.2808 8.5434,1.5085 1.5295,-1.3766 1.622,-3.5919 4.1889,-3.5981 1.1914,-1.4562 1.6016,-3.744 2.4902,-5.5221 -1.2974,-1.6411 0.507,-4.175 2.4524,-4.1079 2.4868,0.1868 2.3953,-2.7266 3.3865,-4.338 -0.023,-2.3539 -1.1855,-5.0206 0.9308,-6.7881 1.5923,-1.4432 1.4274,-3.5586 1.6758,-5.5162 -3.5691,-2.2079 -8.2658,-3.3258 -11.0901,-6.3055 -0.5595,-2.332 -2.3158,-3.1178 -4.5489,-3.287 -0.9428,-1.3185 -0.7832,-4.4588 -2.4307,-4.6122 -2.1223,0.4076 -4.2235,0.7344 -5.7658,-1.1106 -1.7464,-2.3653 -3.2581,0.6095 -4.8551,1.6641 -1.4996,2.6094 -5.6945,-0.1309 -5.193,-3.0693 1.4747,-4.0662 -5.0063,0.4513 -2.3467,-4.3435 1.2653,-5.2274 -2.1538,-1.207 -3.9476,-0.033 -2.189,0.025 -3.0159,-2.1564 -2.6256,-4.153 -0.2777,-2.3999 1.4716,-3.6203 3.2517,-4.8226 2.3823,0.3668 2.9867,-1.7096 4.7713,-1.4394 2.2432,-0.115 3.0627,2.0355 4.3376,3.4617 0.5339,-2.036 -0.5591,-4.9232 1.6949,-6.0594 1.7194,-1.3039 3.4654,-2.5886 3.8773,-4.8476 0.4054,-2.3653 3.9296,-1.4252 4.522,-3.8181 0.8193,-2.5012 4.6066,-0.4822 5.4554,-2.9506 2.6618,-2.5021 -0.8303,-1.7428 -2.7386,-1.823 -3.7651,0.3871 0.3742,-0.9984 1.786,-1.7726 2.091,0.2767 4.0217,-0.4078 5.943,-1.1468 0.2575,2.6164 0.7498,3.9966 2.0852,0.9385 -2.6035,-0.6161 -0.3539,-3.1707 -2.9249,-3.8449 -2.0349,0.143 0.02,-4.3249 -2.4864,-3.8336 -3.2602,2.1576 -0.3474,-1.5318 -3.0033,-2.0223 -2.095,-2.2623 -2.604,1.4526 -3.7415,2.7991 0.7378,2.5817 -2.4108,2.0278 -2.9861,4.1472 -1.2745,3.8203 -0.7361,-0.2721 -2.2573,-1.2509 -1.8791,-0.7536 -4.1427,-1.1533 -4.1564,-3.6268 2.5193,-1.8446 6.2991,-2.932 7.9227,-5.8365 0.9433,-2.256 -0.7989,-3.4886 -2.9448,-3.319 l 0,0 z m 44.7277,5.0049 c -0.3806,2.0041 1.6688,3.0755 0.9384,5.2134 -0.6549,2.3422 -0.8451,4.2031 2.0813,2.8361 3.0379,-1.5599 1.099,-2.7477 -0.1176,-4.7939 -0.8286,-1.3599 -0.749,-3.8864 -2.9017,-3.2558 z m -2.2938,3.3367 c -2.4204,-0.7317 -1.8819,4.4177 -0.3706,3.084 2.2176,-0.5461 0.7224,-1.6007 0.3706,-3.084 z m 30.5489,27.4233 c 2.9011,2.574 3.8921,6.3844 5.7477,9.6307 2.7562,1.2185 0.1266,3.2904 1.3569,4.7892 2.5877,2.8111 -3.5818,0.7473 -2.7614,-2.0697 -0.6009,-3.7001 -3.2183,-6.2303 -4.4738,-9.4628 -0.1307,-1.0747 -1.175,-2.188 0.1306,-2.8874 z"
           style="fill:url(#radialGradient3136-5);fill-opacity:1;stroke:url(#radialGradient3138-5);stroke-width:0.42565936"
           id="path3354"
           inkscape:connector-curvature="0" />
        <g
           id="g3356"
           clip-path="url(#clipPath6069-9-9-8-7)">
          <path
             transform="matrix(0.46436298,0,0,0.46436298,-734.40488,913.66471)"
             d="m -1027.3252,863.53308 c 0,33.47351 -27.1356,60.60915 -60.6091,60.60915 -33.4735,0 -60.6092,-27.13564 -60.6092,-60.60915 0,-33.47351 27.1357,-60.60915 60.6092,-60.60915 33.4735,0 60.6091,27.13564 60.6091,60.60915 z"
             sodipodi:ry="60.609154"
             sodipodi:rx="60.609154"
             sodipodi:cy="863.53308"
             sodipodi:cx="-1087.9343"
             id="path3358"
             style="fill:#e50095;fill-opacity:1;stroke:none;filter:url(#filter11724-1-2-8-4)"
             sodipodi:type="arc" />
          <path
             transform="matrix(0.33646015,0,0,0.33646015,-873.55474,1024.1131)"
             d="m -1027.3252,863.53308 c 0,33.47351 -27.1356,60.60915 -60.6091,60.60915 -33.4735,0 -60.6092,-27.13564 -60.6092,-60.60915 0,-33.47351 27.1357,-60.60915 60.6092,-60.60915 33.4735,0 60.6091,27.13564 60.6091,60.60915 z"
             sodipodi:ry="60.609154"
             sodipodi:rx="60.609154"
             sodipodi:cy="863.53308"
             sodipodi:cx="-1087.9343"
             id="path3360"
             style="fill:#ffffff;fill-opacity:1;stroke:none;filter:url(#filter11718-6-2-8-0)"
             sodipodi:type="arc" />
          <path
             sodipodi:nodetypes="csc"
             transform="translate(-132.47406,473.34778)"
             inkscape:connector-curvature="0"
             inkscape:original-d="m -1141.9775,877.67522 c 0,0 54.8442,29.83539 65.4508,21.75417 10.6066,-8.08122 18.3919,-84.38362 18.3919,-84.38362"
             inkscape:path-effect="#path-effect11730;#path-effect11732"
             id="path3362"
             d="m -1141.9775,877.67522 c 0.182,-0.10795 0.8148,0.59712 1.936,1.9256 1.1212,1.32848 2.7419,3.28019 5.0179,5.54497 2.276,2.26477 5.2177,4.84387 8.9337,7.29536 3.716,2.45149 8.2131,4.77554 13.4228,6.3858 5.0247,1.55717 10.7249,2.436 16.7514,2.26518 6.0266,-0.17082 12.3764,-1.39276 18.4402,-3.94651 3.7139,-1.55859 7.3137,-3.63577 10.6689,-6.17549 3.1713,-2.40039 6.0187,-5.13279 8.4916,-8.06589 2.7435,-3.26061 5.032,-6.77719 6.8357,-10.3852 1.8038,-3.60801 3.1225,-7.30701 3.9701,-10.96125 1.0278,-4.40239 1.377,-8.74065 1.2648,-12.80986 -0.1122,-4.0692 -0.6853,-7.86966 -1.509,-11.2879 0,0 0,-10e-6 0,-10e-6 -0.8897,-3.68029 -2.0706,-6.9271 -3.2983,-9.69522 -1.2278,-2.76812 -2.5016,-5.06082 -3.6124,-6.89834 -1.1107,-1.83751 -2.0573,-3.22379 -2.679,-4.18969 -0.6216,-0.96589 -0.9167,-1.51502 -0.7917,-1.631 0.125,-0.11598 0.6652,0.20706 1.5453,0.9802 0.8802,0.77315 2.0991,1.99997 3.4994,3.73389 1.4002,1.73392 2.9808,3.97891 4.5175,6.77276 1.5367,2.79384 3.0283,6.13992 4.1993,10.00417 0,10e-6 0,10e-6 0,10e-6 1.0898,3.58778 1.9041,7.62985 2.2006,12.01429 0.2964,4.38444 0.074,9.11168 -0.9166,13.97004 -0.8274,4.03025 -2.1813,8.1164 -4.0858,12.10028 -1.9045,3.98389 -4.3596,7.86488 -7.3394,11.45697 -2.6797,3.23645 -5.7895,6.24471 -9.2754,8.87986 -3.6881,2.78809 -7.6676,5.05889 -11.788,6.75492 -6.714,2.75456 -13.6889,3.98515 -20.2617,4.02075 -6.5728,0.0356 -12.7403,-1.12025 -18.1191,-3.02095 -5.5742,-1.97402 -10.2678,-4.71353 -14.0455,-7.56832 -3.7777,-2.85479 -6.6473,-5.82378 -8.7602,-8.43052 -2.1128,-2.60675 -3.4798,-4.8522 -4.2977,-6.43308 -0.8179,-1.58088 -1.0974,-2.49787 -0.9154,-2.60582 z"
             style="fill:#ff89d4;fill-opacity:1;fill-rule:evenodd;stroke:none;filter:url(#filter6041-2-6-1-0)" />
          <path
             sodipodi:type="arc"
             style="opacity:0.67333332;fill:#ffb1ed;fill-opacity:1;stroke:none;filter:url(#filter6055-5-6-3-8)"
             id="path3364"
             sodipodi:cx="-1087.9343"
             sodipodi:cy="863.53308"
             sodipodi:rx="60.609154"
             sodipodi:ry="60.609154"
             d="m -1027.3252,863.53308 c 0,33.47351 -27.1356,60.60915 -60.6091,60.60915 -33.4735,0 -60.6092,-27.13564 -60.6092,-60.60915 0,-33.47351 27.1357,-60.60915 60.6092,-60.60915 33.4735,0 60.6091,27.13564 60.6091,60.60915 z"
             transform="matrix(0.29479948,-0.16216874,0.09524973,0.17315033,-961.13011,1039.7791)" />
        </g>
        <g
           id="g3366">
          <path
             sodipodi:nodetypes="cccccccccccccccc"
             inkscape:connector-curvature="0"
             id="path3368"
             d="m -907.11695,-13.279331 c -12.08851,4.2373005 -23.29034,10.9150614 -33.4539,18.8273602 -11.72007,9.1213668 -22.1453,19.8767688 -31.55155,31.4005188 l -10e-6,9e-6 c -22.71093,27.823475 -39.87749,59.948959 -53.64809,93.155343 l 0,1e-5 c -16.1821,38.97209 -27.6819,79.90816 -35.1858,121.54232 -8.0457,44.5852 -11.4877,90.15621 -9.685,135.70948 2.6135,16.27069 19.369,17.57453 19.9622,-1.22926 -3.7057,-43.89712 -2.3474,-88.35545 3.5728,-132.2952 5.5392,-41.04117 14.989,-81.6502 29.1977,-120.66357 l 0,-2e-5 c 12.1307,-33.258605 27.50716,-65.54617 48.68638,-93.955487 l 10e-6,-1.8e-5 c 8.76611,-11.758984 18.54671,-22.812475 29.73019,-32.3391014 9.69849,-8.259327 20.48686,-15.3819113 32.37507,-20.1523846 z"
             style="fill:#ffffff;fill-rule:evenodd;stroke:none;filter:url(#filter4438-3-6)"
             transform="matrix(0.22487811,0,0,0.22487811,-1011.8874,1272.3496)" />
          <path
             style="opacity:0.81927712;fill:url(#linearGradient3140-3);fill-opacity:1;fill-rule:evenodd;stroke:url(#linearGradient3142-1);stroke-width:3.85735726;stroke-miterlimit:4;stroke-dasharray:none;filter:url(#filter3964-1-0)"
             d="m -1170.9002,1306.1635 c -2.054,-1.2475 -4.4893,-1.7605 -6.8786,-2.0811 -3.415,-0.4616 -6.8852,-0.4566 -10.3255,-0.2572 l 0,0 c -9.4126,0.5441 -18.7209,2.5437 -27.7658,5.2496 l 0,0 c -11.0688,3.3076 -21.8148,7.8025 -31.9622,13.4445 -10.8449,6.0259 -21.0375,13.4185 -29.8358,22.3644 -3.044,3.5826 0.2574,6.6125 3.6388,3.429 8.0254,-8.9074 17.5869,-16.489 27.9249,-22.8349 9.6798,-5.938 20.0469,-10.8111 30.8332,-14.544 l 0,0 c 8.8259,-3.051 17.9219,-5.4263 27.2259,-6.3624 l 0,0 c 3.401,-0.3416 6.8281,-0.4961 10.2317,-0.1827 2.3853,0.2221 4.8079,0.6163 6.9134,1.7748 z"
             id="path3370"
             inkscape:connector-curvature="0"
             sodipodi:nodetypes="cccccccccccccccc" />
          <path
             sodipodi:nodetypes="cccccccccccccccc"
             inkscape:connector-curvature="0"
             id="path3372"
             d="m -1170.9002,1306.1635 c -2.054,-1.2475 -4.4893,-1.7605 -6.8786,-2.0811 -3.415,-0.4616 -6.8852,-0.4566 -10.3255,-0.2572 l 0,0 c -9.4126,0.5441 -18.7209,2.5437 -27.7658,5.2496 l 0,0 c -11.0688,3.3076 -21.8148,7.8025 -31.9622,13.4445 -10.8449,6.0259 -21.0375,13.4185 -29.8358,22.3644 -3.044,3.5826 0.2574,6.6125 3.6388,3.429 8.0254,-8.9074 17.5869,-16.489 27.9249,-22.8349 9.6798,-5.938 20.0469,-10.8111 30.8332,-14.544 l 0,0 c 8.8259,-3.051 17.9219,-5.4263 27.2259,-6.3624 l 0,0 c 3.401,-0.3416 6.8281,-0.4961 10.2317,-0.1827 2.3853,0.2221 4.8079,0.6163 6.9134,1.7748 z"
             style="fill:url(#linearGradient3144-9);fill-opacity:1;fill-rule:evenodd;stroke:none;filter:url(#filter4348-5-7)" />
          <path
             transform="matrix(0.22487811,0,0,0.22487811,-1011.8874,1272.3496)"
             style="opacity:0.81927712;fill:url(#linearGradient3146-5);fill-opacity:1;fill-rule:evenodd;stroke:url(#linearGradient3148-3);stroke-width:17.15310097;stroke-miterlimit:4;stroke-dasharray:none;filter:url(#filter4132-6-7)"
             d="m -826.3048,485.73604 c -21.70823,3.57078 -43.85079,4.09756 -65.5929,1.62966 -21.20693,-2.40628 -42.02367,-7.63881 -61.88078,-15.2201 l -1e-5,0 c -39.97127,-15.25336 -75.95051,-39.88195 -106.04691,-69.9543 l 0,-1e-5 c -30.0924,-30.09496 -54.4939,-65.72313 -71.1277,-104.49349 -15.8785,-37.09722 -24.7138,-77.25782 -22.7466,-116.74966 -2.1741,-16.84949 -19.2531,-15.30947 -19.9922,-0.55636 -0.3315,43.11268 10.6979,85.3911 28.9198,123.5664 19.0032,39.894 45.7605,75.78243 77.9309,105.5324 l 0,2e-5 c 32.1612,29.7675 70.05482,53.47355 111.34477,67.43367 l 3e-5,1e-5 c 20.51963,6.93417 41.8463,11.4038 63.35884,13.00095 22.05752,1.63675 44.28006,0.22427 65.83276,-4.18919 z"
             id="path3374"
             inkscape:connector-curvature="0"
             sodipodi:nodetypes="cccccccccccccccc" />
          <path
             sodipodi:nodetypes="cccccccccccccccc"
             inkscape:connector-curvature="0"
             id="path3376"
             d="m -1197.7053,1381.581 c -4.8817,0.803 -9.861,0.9215 -14.7504,0.3665 -4.7689,-0.5411 -9.4502,-1.7178 -13.9156,-3.4227 l 0,0 c -8.9887,-3.4301 -17.0796,-8.9686 -23.8476,-15.7312 l 0,0 c -6.7672,-6.7677 -12.2545,-14.7797 -15.9951,-23.4983 -3.5707,-8.3423 -5.5576,-17.3736 -5.1152,-26.2544 -0.4889,-3.7891 -4.3296,-3.4428 -4.4958,-0.1251 -0.075,9.6951 2.4057,19.2026 6.5034,27.7873 4.2734,8.9713 10.2905,17.0419 17.525,23.732 l 0,0 c 7.2323,6.694 15.7538,12.025 25.039,15.1643 l 0,0 c 4.6144,1.5594 9.4103,2.5645 14.248,2.9237 4.9602,0.368 9.9576,0.05 14.8043,-0.9421 z"
             style="fill:url(#linearGradient3150-4);fill-opacity:1;fill-rule:evenodd;stroke:none;filter:url(#filter4352-9-0)" />
          <path
             style="fill:url(#linearGradient3152-2);fill-opacity:1;fill-rule:evenodd;stroke:none"
             d="m -1215.8781,1269.3634 c -2.7185,0.9528 -5.2375,2.4545 -7.5231,4.2338 -2.6356,2.0512 -4.98,4.4699 -7.0952,7.0613 l -10e-5,0 c -5.1071,6.2569 -8.9675,13.4812 -12.0642,20.9486 l 0,0 c -3.639,8.764 -6.2251,17.9696 -7.9125,27.3322 -1.8093,10.0263 -2.5834,20.2742 -2.178,30.5181 0.5877,3.6589 4.3557,3.9521 4.4891,-0.2764 -0.8334,-9.8715 -0.5279,-19.8692 0.8034,-29.7503 1.2457,-9.2293 3.3707,-18.3614 6.5659,-27.1346 l 0,0 c 2.728,-7.4791 6.1858,-14.7399 10.9485,-21.1285 l 0,0 c 1.9713,-2.6444 4.1708,-5.1301 6.6857,-7.2724 2.181,-1.8573 4.6071,-3.4591 7.2805,-4.5318 z"
             id="path3378"
             inkscape:connector-curvature="0"
             sodipodi:nodetypes="cccccccccccccccc" />
          <path
             style="fill:#ffffff;fill-rule:evenodd;stroke:none;filter:url(#filter4546-2-2)"
             d="m -1156.6247,251.38064 c 11.5563,9.20581 23.3602,18.28779 45.4569,22.22336 l -8.0812,64.64976 -47.4772,-15.15229 z"
             id="path3380"
             inkscape:connector-curvature="0"
             transform="matrix(0.22487811,0,0,0.22487811,-1011.8874,1272.3496)"
             sodipodi:nodetypes="ccccc" />
        </g>
      </g>
    </g>
    <g
       id="16"
       transform="matrix(0.03125,0,0,0.03125,-1246.5606,1628.7107)"
       inkscape:label="#g3340">
      <rect
         style="opacity:0.00100002;fill:#ffffff;fill-opacity:1;fill-rule:nonzero;stroke:none"
         id="rect4571"
         width="512"
         height="512"
         x="-3508.7327"
         y="63.375866" />
      <path
         style="fill:none;stroke:#000000;stroke-width:64;stroke-linecap:round;stroke-linejoin:round;stroke-miterlimit:4;stroke-dasharray:none;opacity:0.29999999999999999"
         d="m -3186.0025,187.06838 c -10.596,0.74883 -20.905,5.81653 -27.7629,14.54246 -39.3534,-20.64939 -86.6576,-18.74293 -121.6278,7.27123 37.5902,-11.28917 79.7376,-4.34999 113.6955,20.49164 1.2499,11.83956 8.0704,22.67676 19.1697,29.08491 4.4251,2.55488 9.1139,4.62194 13.8814,5.28817 23.5043,35.10703 29.1441,78.3724 15.8645,115.67861 28.6457,-34.54461 32.6599,-83.18882 12.5594,-123.61086 3.9922,-3.01635 7.2561,-6.63155 9.9153,-11.23736 10.6367,-18.42322 4.5418,-42.245 -13.8815,-52.88165 -6.9086,-3.98875 -14.413,-5.15016 -21.8136,-4.62715 z m -81.3056,60.15288 c -36.3955,1.084 -70.2544,20.9918 -91.2208,52.22063 -4.7425,-2.08694 -9.6896,-2.64408 -15.2035,-2.64408 -21.2733,0 -39.0002,17.06589 -39.0002,38.3392 0,19.27436 14.5683,34.8475 33.0511,37.67818 1.6576,44.55994 27.2939,84.46906 67.4241,101.79719 -28.5268,-26.86703 -43.4649,-66.64977 -39.0003,-108.4074 9.5878,-7.00632 15.8645,-18.28352 15.8645,-31.06797 0,-4.81366 -1.0312,-9.63336 -2.6441,-13.88143 18.6067,-38.10442 53.4706,-64.87575 92.5429,-72.05125 -7.1305,-1.21458 -14.7786,-2.19259 -21.8137,-1.98307 z m 173.8485,74.69534 c -9.0157,38.18733 -36.2211,70.92348 -74.6954,87.91576 -10.841,-4.75487 -23.335,-4.38978 -34.373,1.98305 -4.318,2.49298 -8.3123,5.57423 -11.2374,9.25428 -42.3681,2.99962 -82.6206,-13.33462 -108.4074,-43.62735 15.5977,42.09109 55.4041,69.25993 100.4751,72.05124 0.5566,5.17526 1.8572,10.40576 4.6272,15.20349 10.6367,18.42322 34.4584,24.51808 52.8816,13.88142 16.5463,-9.55296 23.0219,-29.61494 16.5256,-46.93246 37.6503,-23.7381 59.2541,-66.38074 54.2037,-109.72943 z"
         id="path4660"
         inkscape:connector-curvature="0" />
      <path
         inkscape:connector-curvature="0"
         id="path4552"
         d="m -3186.0025,171.06838 c -10.596,0.74883 -20.905,5.81653 -27.7629,14.54246 -39.3534,-20.64939 -86.6576,-18.74293 -121.6278,7.27123 37.5902,-11.28917 79.7376,-4.34999 113.6955,20.49164 1.2499,11.83956 8.0704,22.67676 19.1697,29.08491 4.4251,2.55488 9.1139,4.62194 13.8814,5.28817 23.5043,35.10703 29.1441,78.3724 15.8645,115.67861 28.6457,-34.54461 32.6599,-83.18882 12.5594,-123.61086 3.9922,-3.01635 7.2561,-6.63155 9.9153,-11.23736 10.6367,-18.42322 4.5418,-42.245 -13.8815,-52.88165 -6.9086,-3.98875 -14.413,-5.15016 -21.8136,-4.62715 z m -81.3056,60.15288 c -36.3955,1.084 -70.2544,20.9918 -91.2208,52.22063 -4.7425,-2.08694 -9.6896,-2.64408 -15.2035,-2.64408 -21.2733,0 -39.0002,17.06589 -39.0002,38.3392 0,19.27436 14.5683,34.8475 33.0511,37.67818 1.6576,44.55994 27.2939,84.46906 67.4241,101.79719 -28.5268,-26.86703 -43.4649,-66.64977 -39.0003,-108.4074 9.5878,-7.00632 15.8645,-18.28352 15.8645,-31.06797 0,-4.81366 -1.0312,-9.63336 -2.6441,-13.88143 18.6067,-38.10442 53.4706,-64.87575 92.5429,-72.05125 -7.1305,-1.21458 -14.7786,-2.19259 -21.8137,-1.98307 z m 173.8485,74.69534 c -9.0157,38.18733 -36.2211,70.92348 -74.6954,87.91576 -10.841,-4.75487 -23.335,-4.38978 -34.373,1.98305 -4.318,2.49298 -8.3123,5.57423 -11.2374,9.25428 -42.3681,2.99962 -82.6206,-13.33462 -108.4074,-43.62735 15.5977,42.09109 55.4041,69.25993 100.4751,72.05124 0.5566,5.17526 1.8572,10.40576 4.6272,15.20349 10.6367,18.42322 34.4584,24.51808 52.8816,13.88142 16.5463,-9.55296 23.0219,-29.61494 16.5256,-46.93246 37.6503,-23.7381 59.2541,-66.38074 54.2037,-109.72943 z"
         style="fill:none;stroke:url(#linearGradient4554);stroke-width:64;stroke-linecap:round;stroke-linejoin:round;stroke-miterlimit:4;stroke-dasharray:none" />
      <path
         inkscape:connector-curvature="0"
         id="path4542"
         d="m -3186.0025,171.06838 c -10.596,0.74883 -20.905,5.81653 -27.7629,14.54246 -39.3534,-20.64939 -86.6576,-18.74293 -121.6278,7.27123 37.5902,-11.28917 79.7376,-4.34999 113.6955,20.49164 1.2499,11.83956 8.0704,22.67676 19.1697,29.08491 4.4251,2.55488 9.1139,4.62194 13.8814,5.28817 23.5043,35.10703 29.1441,78.3724 15.8645,115.67861 28.6457,-34.54461 32.6599,-83.18882 12.5594,-123.61086 3.9922,-3.01635 7.2561,-6.63155 9.9153,-11.23736 10.6367,-18.42322 4.5418,-42.245 -13.8815,-52.88165 -6.9086,-3.98875 -14.413,-5.15016 -21.8136,-4.62715 z m -81.3056,60.15288 c -36.3955,1.084 -70.2544,20.9918 -91.2208,52.22063 -4.7425,-2.08694 -9.6896,-2.64408 -15.2035,-2.64408 -21.2733,0 -39.0002,17.06589 -39.0002,38.3392 0,19.27436 14.5683,34.8475 33.0511,37.67818 1.6576,44.55994 27.2939,84.46906 67.4241,101.79719 -28.5268,-26.86703 -43.4649,-66.64977 -39.0003,-108.4074 9.5878,-7.00632 15.8645,-18.28352 15.8645,-31.06797 0,-4.81366 -1.0312,-9.63336 -2.6441,-13.88143 18.6067,-38.10442 53.4706,-64.87575 92.5429,-72.05125 -7.1305,-1.21458 -14.7786,-2.19259 -21.8137,-1.98307 z m 173.8485,74.69534 c -9.0157,38.18733 -36.2211,70.92348 -74.6954,87.91576 -10.841,-4.75487 -23.335,-4.38978 -34.373,1.98305 -4.318,2.49298 -8.3123,5.57423 -11.2374,9.25428 -42.3681,2.99962 -82.6206,-13.33462 -108.4074,-43.62735 15.5977,42.09109 55.4041,69.25993 100.4751,72.05124 0.5566,5.17526 1.8572,10.40576 4.6272,15.20349 10.6367,18.42322 34.4584,24.51808 52.8816,13.88142 16.5463,-9.55296 23.0219,-29.61494 16.5256,-46.93246 37.6503,-23.7381 59.2541,-66.38074 54.2037,-109.72943 z"
         style="fill:url(#linearGradient4544);fill-opacity:1;fill-rule:nonzero;stroke:none" />
    </g>
  </g>
</svg>
