<?xml version="1.0" encoding="UTF-8"?>
<!-- Created with Inkscape (http://www.inkscape.org/) -->
<svg id="svg2755" width="22" height="22" version="1.0" xmlns="http://www.w3.org/2000/svg" xmlns:xlink="http://www.w3.org/1999/xlink">
 <defs id="defs2757">
  <linearGradient id="linearGradient2664" x1="-51.786" x2="-51.786" y1="50.786" y2="2.9062" gradientTransform="matrix(.39221 0 0 .44736 28.199 .7613)" gradientUnits="userSpaceOnUse">
   <stop id="stop3106" style="stop-color:#aaa" offset="0"/>
   <stop id="stop3108" style="stop-color:#c8c8c8" offset="1"/>
  </linearGradient>
  <linearGradient id="linearGradient2662" x1="25.132" x2="25.132" y1=".98521" y2="47.013" gradientTransform="matrix(.48572 0 0 .47803 -.65717 1.294)" gradientUnits="userSpaceOnUse">
   <stop id="stop3602" style="stop-color:#f4f4f4" offset="0"/>
   <stop id="stop3604" style="stop-color:#dbdbdb" offset="1"/>
  </linearGradient>
  <radialGradient id="radialGradient2659" cx="102" cy="112.3" r="139.56" gradientTransform="matrix(.17021 0 0 -.19072 .10638 25.717)" gradientUnits="userSpaceOnUse">
   <stop id="stop41" style="stop-color:#b7b8b9" offset="0"/>
   <stop id="stop47" style="stop-color:#ececec" offset=".18851"/>
   <stop id="stop49" style="stop-color:#fafafa;stop-opacity:0" offset=".25718"/>
   <stop id="stop51" style="stop-color:#fff;stop-opacity:0" offset=".30111"/>
   <stop id="stop53" style="stop-color:#fafafa;stop-opacity:0" offset=".5313"/>
   <stop id="stop55" style="stop-color:#ebecec;stop-opacity:0" offset=".8449"/>
   <stop id="stop57" style="stop-color:#e1e2e3;stop-opacity:0" offset="1"/>
  </radialGradient>
  <linearGradient id="linearGradient2656" x1="24" x2="24" y1="2" y2="46.017" gradientTransform="matrix(.45454 0 0 .46512 .090934 2.3372)" gradientUnits="userSpaceOnUse">
   <stop id="stop3213" style="stop-color:#fff" offset="0"/>
   <stop id="stop3215" style="stop-color:#fff;stop-opacity:0" offset="1"/>
  </linearGradient>
  <radialGradient id="radialGradient2719" cx="11.25" cy="19.031" r="8.0625" gradientTransform="matrix(.99225 0 0 .27287 -.16279 15.607)" gradientUnits="userSpaceOnUse">
   <stop id="stop2487" style="stop-color:#0d0d0d" offset="0"/>
   <stop id="stop2489" style="stop-color:#0d0d0d;stop-opacity:0" offset="1"/>
  </radialGradient>
  <linearGradient id="linearGradient2723" x1="16.713" x2="16.713" y1="12.415" y2="33.624" gradientTransform="matrix(.66154 0 0 .66501 -4.7331 -.75986)" gradientUnits="userSpaceOnUse">
   <stop id="stop2749" style="stop-color:#517081;stop-opacity:0" offset="0"/>
   <stop id="stop2751" style="stop-color:#3f6479" offset=".2805"/>
   <stop id="stop2753" style="stop-color:#2e5871" offset="1"/>
  </linearGradient>
  <linearGradient id="linearGradient2721" x1="44.715" x2=".81572" y1="20.71" y2="20.71" gradientTransform="matrix(0 -.32702 -.31911 0 18.768 22.122)" gradientUnits="userSpaceOnUse">
   <stop id="stop2741" style="stop-color:#a2bfcf;stop-opacity:0" offset="0"/>
   <stop id="stop2743" style="stop-color:#a2bfcf" offset=".28208"/>
   <stop id="stop2745" style="stop-color:#427da1" offset="1"/>
  </linearGradient>
  <linearGradient id="linearGradient2725" x1="6.0093" x2="57.726" y1="25.411" y2="25.411" gradientTransform="matrix(0 .34265 -.33007 0 20.038 6.4271)" gradientUnits="userSpaceOnUse">
   <stop id="stop2733" style="stop-color:#fff;stop-opacity:0" offset="0"/>
   <stop id="stop2735" style="stop-color:#fff" offset=".17359"/>
   <stop id="stop2737" style="stop-color:#fff;stop-opacity:0" offset="1"/>
  </linearGradient>
  <linearGradient id="linearGradient2652" x1="32.892" x2="36.358" y1="8.059" y2="5.4565" gradientTransform="matrix(.47785 0 0 .55248 -.62775 1.9239)" gradientUnits="userSpaceOnUse">
   <stop id="stop8591" style="stop-color:#fefefe" offset="0"/>
   <stop id="stop8593" style="stop-color:#cbcbcb" offset="1"/>
  </linearGradient>
 </defs>
 <g id="layer1" transform="translate(0,-2)">
  <path id="path4160" d="m2.5 2.5h11.5c0.68337 0.2373 4.5413 3.1282 5.5 5 0 5.7292 3.9e-5 10.271 3.9e-5 16h-17v-21z" style="fill:url(#linearGradient2662);stroke-linejoin:round;stroke-width:.99992;stroke:url(#linearGradient2664)"/>
  <path id="path4191" d="m3.1702 24c-0.093787 0-0.17021-0.08563-0.17021-0.19072v-20.598c0-0.10528 0.076426-0.19072 0.17021-0.19072 3.5215 0.052717 7.4239-0.078858 10.941 0.013125l4.8389 4.3271 0.04987 16.448c3e-6 0.10509-0.076254 0.19072-0.17021 0.19072h-15.66z" style="fill:url(#radialGradient2659)"/>
  <path id="path2435" d="m18.5 7.677v15.823h-15v-20h10.394" style="fill:none;opacity:.6;stroke:url(#linearGradient2656)"/>
  <path id="path4346" d="m19 20.8a8 2.2 0 0 1-16 0 8 2.2 0 1 1 16 0z" style="fill:url(#radialGradient2719);opacity:.16292"/>
  <path id="path3288" d="m17.176 14.5-6.1916 7.0009-6.1605-7.0009h2.676v-8.727h7v8.727h2.676z" style="fill:url(#linearGradient2721);stroke-linecap:round;stroke-linejoin:round;stroke-opacity:.88236;stroke-width:.98543;stroke:url(#linearGradient2723)"/>
  <path id="path3290" d="m14.926 15.5-3.9264 4.5451-4.0369-4.5451h1.5369v-12.952h5v12.952h1.4264z" style="fill:none;opacity:.354;stroke-width:.98543;stroke:url(#linearGradient2725)"/>
  <path id="path3370" d="m13.075 3c1.1563 0.32877 0.33906 4.6144 0.33906 4.6144s4.5154-0.42774 5.6077 1.195c1.4892 2.2123-0.06822-0.63517-0.17345-0.8217-0.75593-1.34-3.8663-4.5471-5.0454-4.9412-0.088232-0.029492-0.28388-0.04647-0.72791-0.04647z" style="fill-rule:evenodd;fill:#c0c0c0"/>
  <path id="path4474" d="m13 3c1.5262 0 1 4 1 4s4.9921-0.45326 4.9921 2c0-0.59774 0.05575-1.4784-0.06407-1.6559-0.83911-1.243-3.7438-3.8619-4.7981-4.2976-0.085978-0.035532-0.6859-0.04647-1.1299-0.04647z" style="fill-rule:evenodd;fill:url(#linearGradient2652)"/>
 </g>
</svg>
