<?xml version="1.0" encoding="UTF-8"?>
<!-- Created with Inkscape (http://www.inkscape.org/) -->
<svg id="svg3386" width="22" height="22" version="1.0" xmlns="http://www.w3.org/2000/svg" xmlns:xlink="http://www.w3.org/1999/xlink">
 <defs id="defs3388">
  <linearGradient id="linearGradient2425" x1="32.892" x2="36.358" y1="8.059" y2="5.4565" gradientTransform="matrix(.47785 0 0 .55248 -.62775 -.076128)" gradientUnits="userSpaceOnUse">
   <stop id="stop8591" style="stop-color:#fefefe" offset="0"/>
   <stop id="stop8593" style="stop-color:#cbcbcb" offset="1"/>
  </linearGradient>
  <linearGradient id="linearGradient2429" x1="24" x2="24" y1="2" y2="46.017" gradientTransform="matrix(.45454 0 0 .46512 .090934 .33723)" gradientUnits="userSpaceOnUse">
   <stop id="stop3213" style="stop-color:#fff" offset="0"/>
   <stop id="stop3215" style="stop-color:#fff;stop-opacity:0" offset="1"/>
  </linearGradient>
  <radialGradient id="radialGradient2432" cx="92.09" cy="102.7" r="139.56" gradientTransform="matrix(.17021 0 0 -.19072 .10638 23.717)" gradientUnits="userSpaceOnUse">
   <stop id="stop41" style="stop-color:#b7b8b9" offset="0"/>
   <stop id="stop47" style="stop-color:#ececec" offset=".17403"/>
   <stop id="stop49" style="stop-color:#fafafa;stop-opacity:0" offset=".23908"/>
   <stop id="stop51" style="stop-color:#fff;stop-opacity:0" offset=".30111"/>
   <stop id="stop53" style="stop-color:#fafafa;stop-opacity:0" offset=".5313"/>
   <stop id="stop55" style="stop-color:#ebecec;stop-opacity:0" offset=".8449"/>
   <stop id="stop57" style="stop-color:#e1e2e3;stop-opacity:0" offset="1"/>
  </radialGradient>
  <linearGradient id="linearGradient2435" x1="25.132" x2="25.132" y1=".98521" y2="47.013" gradientTransform="matrix(.48572 0 0 .47803 -.65717 -.70595)" gradientUnits="userSpaceOnUse">
   <stop id="stop3602" style="stop-color:#f4f4f4" offset="0"/>
   <stop id="stop3604" style="stop-color:#dbdbdb" offset="1"/>
  </linearGradient>
  <linearGradient id="linearGradient2438" x1="-51.786" x2="-51.786" y1="50.786" y2="2.9062" gradientTransform="matrix(.39221 0 0 .44736 28.199 -1.2387)" gradientUnits="userSpaceOnUse">
   <stop id="stop3106" style="stop-color:#aaa" offset="0"/>
   <stop id="stop3108" style="stop-color:#c8c8c8" offset="1"/>
  </linearGradient>
  <linearGradient id="linearGradient4073" x1="-1.9371" x2="-1.9371" y1="-.7236" y2="31.827" gradientTransform="matrix(.14725 0 0 .10172 9.5709 9.3355)" gradientUnits="userSpaceOnUse">
   <stop id="stop3668" style="stop-color:#fff" offset="0"/>
   <stop id="stop3670" style="stop-color:#fff;stop-opacity:0" offset="1"/>
  </linearGradient>
  <linearGradient id="linearGradient4071" x1="87.05" x2="87.05" y1="53.75" y2="41.73" gradientTransform="matrix(.16076 0 0 .24951 -3.1911 3.589)" gradientUnits="userSpaceOnUse">
   <stop id="stop3597" style="stop-color:#fff" offset="0"/>
   <stop id="stop3599" style="stop-color:#fff;stop-opacity:0" offset="1"/>
  </linearGradient>
  <radialGradient id="radialGradient4107" cx="8.4375" cy="32.535" r="26.406" gradientTransform="matrix(.15847 0 0 .06698 9.0295 9.5078)" gradientUnits="userSpaceOnUse">
   <stop id="stop3740" style="stop-color:#8b6a35" offset="0"/>
   <stop id="stop3742" style="stop-color:#754d0d" offset=".60331"/>
   <stop id="stop3744" style="stop-color:#483816" offset="1"/>
  </radialGradient>
  <linearGradient id="linearGradient4067" x1="5.6836" x2="35.033" y1="16.366" y2="16.366" gradientTransform="matrix(.12659 0 0 .094887 9.5654 9.1707)" gradientUnits="userSpaceOnUse" spreadMethod="reflect">
   <stop id="stop3528" style="stop-color:#d1d1d1" offset="0"/>
   <stop id="stop3530" style="stop-color:#959594" offset="1"/>
  </linearGradient>
  <radialGradient id="radialGradient4111" cx="-6.4537" cy="29.206" r="32" gradientTransform="matrix(0 .22965 -.23825 0 15.043 14.058)" gradientUnits="userSpaceOnUse">
   <stop id="stop3491" style="stop-color:#eeeeec" offset="0"/>
   <stop id="stop3497" style="stop-color:#cacac9" offset=".5"/>
   <stop id="stop3493" style="stop-color:#6b6b6b" offset="1"/>
  </radialGradient>
  <linearGradient id="linearGradient4113" x1="117.3" x2="42.135" y1="55.031" y2="-10.978" gradientTransform="matrix(.16076 0 0 .16294 -3.1492 8.324)" gradientUnits="userSpaceOnUse" xlink:href="#linearGradient3584"/>
  <linearGradient id="linearGradient3584">
   <stop id="stop3586" style="stop-color:#5f5f5f" offset="0"/>
   <stop id="stop3588" style="stop-color:#c6c6c6" offset="1"/>
  </linearGradient>
  <linearGradient id="linearGradient4094" x1="34.876" x2="38.155" y1="22.978" y2="23.945" gradientTransform="matrix(.48228 0 0 .48227 -1.3526 .57567)" gradientUnits="userSpaceOnUse">
   <stop id="stop4090" style="stop-color:#7f7f7f" offset="0"/>
   <stop id="stop4092" style="stop-color:#eaeae8;stop-opacity:0" offset="1"/>
  </linearGradient>
  <linearGradient id="linearGradient4102" x1="35.638" x2="41.153" y1="25.259" y2="30.292" gradientTransform="matrix(.48228 0 0 .48227 -1.3526 .57567)" gradientUnits="userSpaceOnUse" xlink:href="#linearGradient3584"/>
  <radialGradient id="radialGradient2959" cx="62.625" cy="4.625" r="10.625" gradientTransform="matrix(.54469 0 0 .18156 -22.899 16.161)" gradientUnits="userSpaceOnUse">
   <stop id="stop8840" offset="0"/>
   <stop id="stop8842" style="stop-opacity:0" offset="1"/>
  </radialGradient>
 </defs>
 <path id="path4160" d="m2.5 0.49996h11.5c0.68337 0.2373 4.5413 3.1282 5.5 5 0 5.7292 3.9e-5 10.271 3.9e-5 16h-17v-21z" style="fill:url(#linearGradient2435);stroke-linejoin:round;stroke-width:.99992;stroke:url(#linearGradient2438)"/>
 <path id="path4191" d="m3.1702 22c-0.093787 0-0.17021-0.08563-0.17021-0.19072v-20.598c0-0.10528 0.076426-0.19072 0.17021-0.19072 3.5215 0.052717 7.4239-0.078858 10.941 0.013125l4.8389 4.3271 0.04987 16.448c3e-6 0.10509-0.076254 0.19072-0.17021 0.19072h-15.66z" style="fill:url(#radialGradient2432)"/>
 <path id="path2435" d="m18.5 5.677v15.823h-15v-20h10.394" style="fill:none;opacity:.6;stroke:url(#linearGradient2429)"/>
 <path id="path3370" d="m13.075 1c1.1563 0.32877 0.33906 4.6144 0.33906 4.6144s4.5154-0.42774 5.6077 1.195c1.4892 2.2123-0.06822-0.63517-0.17345-0.8217-0.75593-1.34-3.8663-4.5471-5.0454-4.9412-0.088232-0.029492-0.28388-0.04647-0.72791-0.04647z" style="fill-rule:evenodd;opacity:.2"/>
 <path id="path4474" d="m13 1c1.5262 0 1 4 1 4s4.9921-0.45326 4.9921 2c0-0.59774 0.05575-1.4784-0.06407-1.6559-0.83911-1.243-3.7438-3.8619-4.7981-4.2976-0.085978-0.035532-0.6859-0.04647-1.1299-0.04647z" style="fill-rule:evenodd;fill:url(#linearGradient2425)"/>
 <path id="path2845" d="m17 17a5.7874 1.9291 0 0 1-11.575 0 5.7874 1.9291 0 1 1 11.575 0z" style="fill-rule:evenodd;fill:url(#radialGradient2959);opacity:.51"/>
 <path id="path4023" d="m14.586 15.873c0.98763-0.0875 3.0076-2.558 3.0076-3.4338 0-0.13313-0.04285-0.26935-0.1023-0.37506-0.07455-0.12587-0.1551-0.20932-0.26598-0.29171-0.50759-0.36362-1.4274-0.307-2.0869-0.307-2.1622 0.4509-2.6198 4.6894-0.55241 4.4076z" style="fill:url(#linearGradient4094);stroke:url(#linearGradient4102)"/>
 <path id="path3674" d="m10.564 8.5379c-2.6894 0-4.8909 0.78402-5.0538 1.772h-0.010045v0.11711 0.99802 0.07638c0.036247 3.1576 2.2911 5.999 5.0639 5.999 2.7728 0 5.0276-2.8414 5.0639-5.999 2.92e-4 -0.02572 0-0.05058 0-0.07638v-0.99802-0.11711h-0.01003c-0.16298-0.98796-2.3645-1.772-5.0538-1.772z" style="fill:url(#radialGradient4111);stroke-linecap:square;stroke-linejoin:round;stroke:url(#linearGradient4113)"/>
 <path id="path3678" d="m14 10.724a3.7066 1.3892 0 0 1-7.4133 0 3.7066 1.3892 0 1 1 7.4133 0z" style="fill:url(#linearGradient4067)"/>
 <path id="path3680" d="m10.367 9.9517c-1.7422 0-3.2068 0.44551-3.6335 1.0486 0.42878 0.60196 1.8935 1.0443 3.6335 1.0443 1.7396 0 3.2044-0.44252 3.6335-1.0443-0.42695-0.60298-1.8916-1.0486-3.6335-1.0486z" style="fill:url(#radialGradient4107)"/>
 <path id="path3682" d="m14.552 13c-0.83877 1.7774-2.3066 2.9552-3.9788 2.9552-1.6688 0-3.1341-1.1758-3.9737-2.9474 0.64597 2.3415 2.1818 3.9922 3.9737 3.9922 1.7943 0 3.3343-1.6536 3.9788-4z" style="fill:url(#linearGradient4071);opacity:.3"/>
 <path id="path3684" d="m14.73 11a4.3117 1.4893 0 0 1-8.6234 0 4.3117 1.4893 0 1 1 8.6234 0z" style="fill:none;opacity:.6;stroke-linecap:square;stroke-linejoin:round;stroke-width:.97425;stroke:url(#linearGradient4073)"/>
</svg>
