<?xml version="1.0" encoding="UTF-8"?>
<!-- Created with Inkscape (http://www.inkscape.org/) -->
<svg id="svg3750" width="22" height="22" version="1.1" xmlns="http://www.w3.org/2000/svg" xmlns:cc="http://creativecommons.org/ns#" xmlns:dc="http://purl.org/dc/elements/1.1/" xmlns:rdf="http://www.w3.org/1999/02/22-rdf-syntax-ns#" xmlns:xlink="http://www.w3.org/1999/xlink">
 <defs id="defs3752">
  <linearGradient id="linearGradient2894" x1="12.299" x2="12.299" y1=".42284" y2="22.687" gradientTransform="matrix(1.0407 0 0 .94322 -2.2997 -5.3988)" gradientUnits="userSpaceOnUse">
   <stop id="stop3618" style="stop-color:#f0c178" offset="0"/>
   <stop id="stop3270" style="stop-color:#e18941" offset=".5"/>
   <stop id="stop3620" style="stop-color:#ec4f18" offset="1"/>
  </linearGradient>
  <radialGradient id="radialGradient2897" cx="33.967" cy="35.737" r="86.708" gradientTransform="matrix(.45689 0 0 .50789 -.24387 -6.2788)" gradientUnits="userSpaceOnUse" xlink:href="#linearGradient259"/>
  <linearGradient id="linearGradient259">
   <stop id="stop260" style="stop-color:#828282" offset="0"/>
   <stop id="stop261" style="stop-color:#434343" offset="1"/>
  </linearGradient>
  <radialGradient id="radialGradient3748" cx="33.967" cy="35.737" r="86.708" gradientTransform="matrix(.49493 0 0 .50886 -1.8886 -6.2822)" gradientUnits="userSpaceOnUse" xlink:href="#linearGradient259"/>
 </defs>
 <metadata id="metadata3755">
  <rdf:RDF>
   <cc:Work rdf:about="">
    <dc:format>image/svg+xml</dc:format>
    <dc:type rdf:resource="http://purl.org/dc/dcmitype/StillImage"/>
    <dc:title/>
   </cc:Work>
  </rdf:RDF>
 </metadata>
 <g id="layer1" transform="translate(0,6)">
  <path id="path3385" d="m4.7691 15.5h-3.1338c-0.2539-0.23681-0.060832-0.70697-0.12116-1.0422v-18.843l0.035409-0.081335 0.085751-0.033586h3.0912" style="display:block;fill:url(#radialGradient3748);stroke:#333"/>
  <path id="rect15391" d="m16.5-4.5h2.8751c0.23439 0.23636 0.05616 0.70564 0.11185 1.0403 0 6.2691 0.0082 12.484 0.0082 18.754 0 0.27612-0.46648 0.19514-1.0226 0.19514-0.64946 0-1.2989-0.02681-1.9484-0.02681" style="display:block;fill:url(#radialGradient2897);stroke:#333"/>
  <rect id="rect3457" x="4.5" y="-4.5" width="12" height="20" rx="0" ry="0" style="fill:url(#linearGradient2894);stroke:#333"/>
  <path id="path3460" d="m4.5 5.5h12.002" style="fill:none;stroke:#333"/>
  <g id="g2547" transform="matrix(.936 0 0 1.045 -1.6329 -6.0885)" style="stroke-width:.99939">
   <rect id="rect3464" x="4.3611" y="2.0974" width="1" height=".89926" style="fill:#fff"/>
   <rect id="rect3466" x="4.3611" y="4.0987" width="1" height=".89926" style="fill:#fff"/>
   <rect id="rect3468" x="4.3611" y="6.1" width="1" height=".89926" style="fill:#fff"/>
   <rect id="rect3470" x="4.3611" y="8.1013" width="1" height=".89926" style="fill:#fff"/>
   <rect id="rect3472" x="4.3611" y="10.103" width="1" height=".89926" style="fill:#fff"/>
   <rect id="rect3474" x="4.3611" y="12.104" width="1" height=".89926" style="fill:#fff"/>
   <rect id="rect3476" x="4.3611" y="14.105" width="1" height=".89926" style="fill:#fff"/>
   <rect id="rect3478" x="4.3611" y="16.107" width="1" height=".89926" style="fill:#fff"/>
   <rect id="rect3480" x="4.3611" y="18.108" width="1" height=".89926" style="fill:#fff"/>
  </g>
  <g id="g2559" transform="matrix(.936 0 0 1.045 13.53 -6.0885)" style="stroke-width:.99939">
   <rect id="rect2561" x="4.3611" y="2.0974" width="1" height=".89926" style="fill:#fff"/>
   <rect id="rect2563" x="4.3611" y="4.0987" width="1" height=".89926" style="fill:#fff"/>
   <rect id="rect2565" x="4.3611" y="6.1" width="1" height=".89926" style="fill:#fff"/>
   <rect id="rect2567" x="4.3611" y="8.1013" width="1" height=".89926" style="fill:#fff"/>
   <rect id="rect2569" x="4.3611" y="10.103" width="1" height=".89926" style="fill:#fff"/>
   <rect id="rect2571" x="4.3611" y="12.104" width="1" height=".89926" style="fill:#fff"/>
   <rect id="rect2573" x="4.3611" y="14.105" width="1" height=".89926" style="fill:#fff"/>
   <rect id="rect2575" x="4.3611" y="16.107" width="1" height=".89926" style="fill:#fff"/>
   <rect id="rect2577" x="4.3611" y="18.108" width="1" height=".89926" style="fill:#fff"/>
  </g>
  <path id="path4015" d="m5.5 6.5h9.9995" style="display:block;fill:none;opacity:.36638;stroke-linecap:square;stroke:#fff"/>
  <path id="path4017" d="m5.5-3.5h9.9995" style="display:block;fill:none;opacity:.36638;stroke-linecap:square;stroke:#fff"/>
 </g>
</svg>
