<?xml version="1.0" encoding="UTF-8"?>
<!-- Created with Inkscape (http://www.inkscape.org/) -->
<svg id="svg3804" width="22" height="22" version="1.1" xmlns="http://www.w3.org/2000/svg" xmlns:cc="http://creativecommons.org/ns#" xmlns:dc="http://purl.org/dc/elements/1.1/" xmlns:rdf="http://www.w3.org/1999/02/22-rdf-syntax-ns#" xmlns:xlink="http://www.w3.org/1999/xlink">
 <defs id="defs3806">
  <linearGradient id="linearGradient2936" x1="32.892" x2="36.358" y1="8.059" y2="5.4565" gradientTransform="matrix(.47785 0 0 .55248 -.62775 -6.0761)" gradientUnits="userSpaceOnUse">
   <stop id="stop8591" style="stop-color:#fefefe" offset="0"/>
   <stop id="stop8593" style="stop-color:#cbcbcb" offset="1"/>
  </linearGradient>
  <linearGradient id="linearGradient3740" x1="19.515" x2="19.515" y1="12.443" y2="46.562" gradientTransform="matrix(.5348 0 0 .51053 -.78495 -6.7235)" gradientUnits="userSpaceOnUse">
   <stop id="stop3618" style="stop-color:#f0c178" offset="0"/>
   <stop id="stop3270" style="stop-color:#e18941" offset=".5"/>
   <stop id="stop3620" style="stop-color:#ec4f18" offset="1"/>
  </linearGradient>
  <linearGradient id="linearGradient2957" x1="24" x2="24" y1="2" y2="46.017" gradientTransform="matrix(.45454 0 0 .46512 .090934 -5.6628)" gradientUnits="userSpaceOnUse">
   <stop id="stop3213" style="stop-color:#fff" offset="0"/>
   <stop id="stop3215" style="stop-color:#fff;stop-opacity:0" offset="1"/>
  </linearGradient>
  <radialGradient id="radialGradient2960" cx="102" cy="112.3" r="139.56" gradientTransform="matrix(.17021 0 0 -.19072 .10638 17.717)" gradientUnits="userSpaceOnUse">
   <stop id="stop41" style="stop-color:#b7b8b9" offset="0"/>
   <stop id="stop47" style="stop-color:#ececec" offset=".18851"/>
   <stop id="stop49" style="stop-color:#fafafa;stop-opacity:0" offset=".25718"/>
   <stop id="stop51" style="stop-color:#fff;stop-opacity:0" offset=".30111"/>
   <stop id="stop53" style="stop-color:#fafafa;stop-opacity:0" offset=".5313"/>
   <stop id="stop55" style="stop-color:#ebecec;stop-opacity:0" offset=".8449"/>
   <stop id="stop57" style="stop-color:#e1e2e3;stop-opacity:0" offset="1"/>
  </radialGradient>
  <linearGradient id="linearGradient3800" x1="25.132" x2="25.132" y1=".98521" y2="47.013" gradientTransform="matrix(.48572 0 0 .47803 -.65717 -6.706)" gradientUnits="userSpaceOnUse">
   <stop id="stop3602" style="stop-color:#f4f4f4" offset="0"/>
   <stop id="stop3604" style="stop-color:#dbdbdb" offset="1"/>
  </linearGradient>
  <linearGradient id="linearGradient3802" x1="-51.786" x2="-51.786" y1="50.786" y2="2.9062" gradientTransform="matrix(.39221 0 0 .44736 28.199 -7.2387)" gradientUnits="userSpaceOnUse">
   <stop id="stop3106" style="stop-color:#aaa" offset="0"/>
   <stop id="stop3108" style="stop-color:#c8c8c8" offset="1"/>
  </linearGradient>
 </defs>
 <metadata id="metadata3809">
  <rdf:RDF>
   <cc:Work rdf:about="">
    <dc:format>image/svg+xml</dc:format>
    <dc:type rdf:resource="http://purl.org/dc/dcmitype/StillImage"/>
    <dc:title/>
   </cc:Work>
  </rdf:RDF>
 </metadata>
 <g id="layer1" transform="translate(0,6)">
  <path id="path4160" d="m2.5-5.5h11.5c0.68337 0.2373 4.5413 3.1282 5.5 5 0 5.7292 3.9e-5 10.271 3.9e-5 16h-17v-21z" style="fill:url(#linearGradient3800);stroke-linejoin:round;stroke-width:.99992;stroke:url(#linearGradient3802)"/>
  <path id="path4191" d="m3.1702 16c-0.093787 0-0.17021-0.08563-0.17021-0.19072v-20.598c0-0.10528 0.076426-0.19072 0.17021-0.19072 3.5215 0.052717 7.4239-0.078858 10.941 0.013125l4.8389 4.3271 0.04987 16.448c3e-6 0.10509-0.076254 0.19072-0.17021 0.19072h-15.66z" style="fill:url(#radialGradient2960)"/>
  <path id="path2435" d="m18.5-0.32296v14.823h-15v-19h10.394" style="fill:none;opacity:.6;stroke:url(#linearGradient2957)"/>
  <path id="path6928" d="m8-2v1.75h-2.4375v13.688h3.0938v-13.438h8.3438v-2h-9z" style="fill:url(#linearGradient3740)"/>
  <rect id="rect3775" x="5" y="-2.0746" width="3.0786" height="2.0746" style="fill:#dfdac0"/>
  <path id="path3595" d="m12.5-2.4306v15.931" style="fill:none;stroke-opacity:.32549;stroke:#5d542c"/>
  <path id="path3605" d="m16.5 0.5h-11.001" style="fill:none;stroke:#6c6c6c"/>
  <path id="path3607" d="m16.5 2.5h-11" style="fill:none;stroke-opacity:.32549;stroke:#5d542c"/>
  <path id="path3597" d="m16.5 5.5h-11" style="fill:none;stroke-opacity:.32549;stroke:#5d542c"/>
  <path id="path3609" d="m16.5 8.5h-11" style="fill:none;stroke-opacity:.32549;stroke:#5d542c"/>
  <path id="path3611" d="m16.5 11.5h-11" style="fill:none;stroke-opacity:.32549;stroke:#5d542c"/>
  <path id="path4743" d="m5.5-1.5 11-0.019039" style="fill-rule:evenodd;fill:#fff;opacity:.2;stroke-linecap:square;stroke-linejoin:round;stroke:#fff"/>
  <path id="path3593" d="m8.5-2.4306v15.931" style="fill:none;stroke:#6c6c6c"/>
  <rect id="rect3580" x="5.5011" y="-2.4989" width="10.998" height="15.998" style="fill:none;stroke-linecap:square;stroke-width:1.0022;stroke:#6c6c6c"/>
  <path id="path3370" d="m13.075-5c1.1563 0.32877 0.33906 4.6144 0.33906 4.6144s4.5154-0.42774 5.6077 1.195c1.4892 2.2123-0.06822-0.63517-0.17345-0.8217-0.75593-1.34-3.8663-4.5471-5.0454-4.9412-0.08823-0.029493-0.28388-0.04647-0.72791-0.04647z" style="fill-rule:evenodd;opacity:.2"/>
  <path id="path4474" d="m13-5c1.5262 0 1 4 1 4s4.9921-0.45326 4.9921 2c0-0.59774 0.05575-1.4784-0.06407-1.6559-0.83911-1.243-3.7438-3.8619-4.7981-4.2976-0.08598-0.035532-0.6859-0.04647-1.1299-0.04647z" style="fill-rule:evenodd;fill:url(#linearGradient2936)"/>
 </g>
</svg>
