<?xml version="1.0" encoding="UTF-8"?>
<!-- Created with Inkscape (http://www.inkscape.org/) -->
<svg id="svg3330" width="14" height="22" version="1.1" xmlns="http://www.w3.org/2000/svg" xmlns:cc="http://creativecommons.org/ns#" xmlns:dc="http://purl.org/dc/elements/1.1/" xmlns:rdf="http://www.w3.org/1999/02/22-rdf-syntax-ns#">
 <metadata id="metadata3335">
  <rdf:RDF>
   <cc:Work rdf:about="">
    <dc:format>image/svg+xml</dc:format>
    <dc:type rdf:resource="http://purl.org/dc/dcmitype/StillImage"/>
    <dc:title/>
   </cc:Work>
  </rdf:RDF>
 </metadata>
 <g id="layer1" transform="translate(-4,6)">
  <path id="path3122-6" d="m11-4c-1.662 0-3 1.338-3 3v8c0 1.662 1.338 3 3 3s3-1.338 3-3v-8c0-1.662-1.338-3-3-3zm-6 7v1h1v3c0 2.4238 1.7175 4.4415 4 4.9062v2.0938h-1v1h4v-1h-1v-2.0938c2.2825-0.46471 4-2.4825 4-4.9062v-3h1v-1h-1-1v4c0 2.216-1.784 4-4 4s-4-1.784-4-4v-4h-1-1z" style="color:#ffffff;fill:#fff;opacity:.3"/>
  <path id="path3122" transform="translate(0,-6)" d="m11 1c-1.662 0-3 1.338-3 3v8c0 1.662 1.338 3 3 3s3-1.338 3-3v-8c0-1.662-1.338-3-3-3zm-6 7v1h1v3c0 2.4238 1.7175 4.4415 4 4.9062v2.0938h-1v1h4v-1h-1v-2.0938c2.2825-0.46471 4-2.4825 4-4.9062v-3h1v-1h-1-1v4c0 2.216-1.784 4-4 4s-4-1.784-4-4v-4h-1-1z" style="color:#ffffff;fill:#3c3c3c"/>
 </g>
</svg>
