<?xml version="1.0" encoding="UTF-8" standalone="no"?>
<!-- Created with Inkscape (http://www.inkscape.org/) -->

<svg
   xmlns:dc="http://purl.org/dc/elements/1.1/"
   xmlns:cc="http://creativecommons.org/ns#"
   xmlns:rdf="http://www.w3.org/1999/02/22-rdf-syntax-ns#"
   xmlns:svg="http://www.w3.org/2000/svg"
   xmlns="http://www.w3.org/2000/svg"
   xmlns:xlink="http://www.w3.org/1999/xlink"
   xmlns:sodipodi="http://sodipodi.sourceforge.net/DTD/sodipodi-0.dtd"
   xmlns:inkscape="http://www.inkscape.org/namespaces/inkscape"
   width="15.99995"
   height="15.99995"
   id="svg27665"
   version="1.1"
   inkscape:version="0.48.3.1 r9886"
   sodipodi:docname="applications-email-panel.svg">
  <defs
     id="defs27667">
    <linearGradient
       inkscape:collect="always"
       id="linearGradient3865">
      <stop
         style="stop-color:#bcbbb2;stop-opacity:1"
         offset="0"
         id="stop3867" />
      <stop
         style="stop-color:#d2d0c6;stop-opacity:1"
         offset="1"
         id="stop3869" />
    </linearGradient>
    <linearGradient
       id="linearGradient3845-6"
       inkscape:collect="always">
      <stop
         id="stop3847-4"
         offset="0"
         style="stop-color:#3e3d39;stop-opacity:1" />
      <stop
         id="stop3849-4"
         offset="1"
         style="stop-color:#5a574e;stop-opacity:1" />
    </linearGradient>
    <linearGradient
       y2="-454.45319"
       x2="10270.645"
       y1="839.69708"
       x1="10270.645"
       gradientTransform="matrix(0.02666658,0,0,0.01193426,3046.2764,2106.5161)"
       gradientUnits="userSpaceOnUse"
       id="linearGradient3033"
       xlink:href="#linearGradient3845-6"
       inkscape:collect="always" />
    <linearGradient
       inkscape:collect="always"
       xlink:href="#linearGradient3865"
       id="linearGradient3947"
       gradientUnits="userSpaceOnUse"
       gradientTransform="matrix(1.2222343,0,0,1.2222343,709.52488,-54.675489)"
       x1="-3192.6887"
       y1="412.39627"
       x2="-3192.6887"
       y2="79.655281" />
    <linearGradient
       inkscape:collect="always"
       xlink:href="#linearGradient7209-9"
       id="linearGradient4053"
       gradientUnits="userSpaceOnUse"
       gradientTransform="matrix(29.577241,0,0,29.577241,-3518.0383,-79.323202)"
       x1="11.000001"
       y1="18.999996"
       x2="11.000001"
       y2="1.9999962" />
    <linearGradient
       id="linearGradient7209-9">
      <stop
         id="stop7211-8"
         offset="0"
         style="stop-color:#a1988f;stop-opacity:1;" />
      <stop
         id="stop7213-9"
         offset="1"
         style="stop-color:#e4dfd4;stop-opacity:1;" />
    </linearGradient>
    <linearGradient
       inkscape:collect="always"
       xlink:href="#linearGradient7251-3"
       id="linearGradient3859"
       x1="-3636.3472"
       y1="482.64426"
       x2="-3636.3472"
       y2="-20.168833"
       gradientUnits="userSpaceOnUse" />
    <linearGradient
       id="linearGradient7251-3">
      <stop
         style="stop-color:#ffffff;stop-opacity:1;"
         offset="0"
         id="stop7253-27" />
      <stop
         style="stop-color:#ffffff;stop-opacity:1;"
         offset="1"
         id="stop7255-3" />
    </linearGradient>
    <linearGradient
       inkscape:collect="always"
       xlink:href="#linearGradient9097-0"
       id="linearGradient3857"
       x1="-3606.77"
       y1="482.64426"
       x2="-3606.77"
       y2="-20.168833"
       gradientUnits="userSpaceOnUse" />
    <linearGradient
       id="linearGradient9097-0">
      <stop
         style="stop-color:#000000;stop-opacity:0.49634215;"
         offset="0"
         id="stop9099-4" />
      <stop
         style="stop-color:#000000;stop-opacity:0.41474396;"
         offset="1"
         id="stop9101-5" />
    </linearGradient>
    <linearGradient
       inkscape:collect="always"
       xlink:href="#linearGradient3865"
       id="linearGradient3076"
       gradientUnits="userSpaceOnUse"
       gradientTransform="matrix(0.03005335,0,0,0.03005335,103.95101,0.60609206)"
       x1="-3192.6887"
       y1="412.39627"
       x2="-3192.6887"
       y2="79.655281" />
    <linearGradient
       inkscape:collect="always"
       xlink:href="#linearGradient7209-9"
       id="linearGradient3081"
       gradientUnits="userSpaceOnUse"
       gradientTransform="matrix(1.2222344,0,0,1.2222344,709.52493,-54.675489)"
       x1="-3192.6887"
       y1="412.39627"
       x2="-3192.6887"
       y2="79.655281" />
    <linearGradient
       inkscape:collect="always"
       xlink:href="#linearGradient3865"
       id="linearGradient3085"
       gradientUnits="userSpaceOnUse"
       gradientTransform="matrix(1.2222344,0,0,1.2222344,709.52493,-54.675489)"
       x1="-3192.6887"
       y1="412.39627"
       x2="-3192.6887"
       y2="79.655281" />
    <linearGradient
       inkscape:collect="always"
       xlink:href="#linearGradient3865"
       id="linearGradient3087"
       gradientUnits="userSpaceOnUse"
       gradientTransform="matrix(0.03005335,0,0,0.03005335,104.45101,1.1060921)"
       x1="-3192.6887"
       y1="412.39627"
       x2="-3192.6887"
       y2="79.655281" />
    <linearGradient
       inkscape:collect="always"
       xlink:href="#linearGradient9097-0"
       id="linearGradient3090"
       gradientUnits="userSpaceOnUse"
       gradientTransform="matrix(1.2222344,0,0,1.2222344,709.52492,-54.675488)"
       x1="-3192.6887"
       y1="412.39627"
       x2="-3192.6887"
       y2="79.655281" />
    <linearGradient
       inkscape:collect="always"
       xlink:href="#linearGradient7251-3"
       id="linearGradient3092"
       x1="-3190.1479"
       y1="449.37015"
       x2="-3190.1479"
       y2="42.681931"
       gradientUnits="userSpaceOnUse" />
  </defs>
  <sodipodi:namedview
     id="base"
     pagecolor="#ffffff"
     bordercolor="#666666"
     borderopacity="1.0"
     inkscape:pageopacity="0.0"
     inkscape:pageshadow="2"
     inkscape:zoom="32"
     inkscape:cx="14.563666"
     inkscape:cy="4.3713305"
     inkscape:document-units="px"
     inkscape:current-layer="layer1"
     showgrid="false"
     inkscape:window-width="1680"
     inkscape:window-height="998"
     inkscape:window-x="-8"
     inkscape:window-y="25"
     inkscape:window-maximized="1"
     inkscape:snap-bbox="true"
     inkscape:bbox-paths="true"
     inkscape:bbox-nodes="true"
     inkscape:snap-bbox-edge-midpoints="true"
     inkscape:snap-bbox-midpoints="true"
     inkscape:object-paths="true"
     inkscape:snap-intersection-paths="true"
     inkscape:object-nodes="true"
     inkscape:snap-smooth-nodes="true"
     inkscape:snap-midpoints="true"
     inkscape:snap-object-midpoints="true"
     inkscape:snap-center="true"
     inkscape:snap-global="true"
     showguides="false"
     inkscape:guide-bbox="true"
     fit-margin-top="0"
     fit-margin-left="0"
     fit-margin-right="0"
     fit-margin-bottom="0"
     inkscape:showpageshadow="false">
    <sodipodi:guide
       orientation="0,1"
       position="600.00003,299.99993"
       id="guide3572" />
    <sodipodi:guide
       orientation="1,0"
       position="294.41953,12.121712"
       id="guide3574" />
    <sodipodi:guide
       orientation="0,1"
       position="456.04393,599.99992"
       id="guide3576" />
    <sodipodi:guide
       orientation="0,1"
       position="3.5857129e-05,-8.869688e-05"
       id="guide3578" />
    <sodipodi:guide
       orientation="1,0"
       position="3.5857129e-05,157.58366"
       id="guide3580" />
    <sodipodi:guide
       orientation="1,0"
       position="600.00003,121.21821"
       id="guide3582" />
    <sodipodi:guide
       orientation="0,1"
       position="600.00003,-714.34359"
       id="guide5928" />
    <sodipodi:guide
       orientation="0,1"
       position="600.00003,-414.34359"
       id="guide5930" />
    <sodipodi:guide
       orientation="0,1"
       position="600.00003,-1014.3435"
       id="guide5932" />
    <sodipodi:guide
       orientation="0,1"
       position="451.57033,524.99606"
       id="guide5294" />
    <sodipodi:guide
       orientation="0,1"
       position="451.57033,75.013512"
       id="guide5296" />
    <sodipodi:guide
       orientation="0,1"
       position="496.01503,-931.36409"
       id="guide5413" />
    <sodipodi:guide
       orientation="0,1"
       position="457.34863,-489.34389"
       id="guide5415" />
    <inkscape:grid
       type="xygrid"
       id="grid3070"
       empspacing="5"
       visible="true"
       enabled="true"
       snapvisiblegridlinesonly="true"
       originx="8.1988623e-05px"
       originy="-3.1237654e-05px" />
  </sodipodi:namedview>
  <metadata
     id="metadata27670">
    <rdf:RDF>
      <cc:Work
         rdf:about="">
        <dc:format>image/svg+xml</dc:format>
        <dc:type
           rdf:resource="http://purl.org/dc/dcmitype/StillImage" />
        <dc:title />
      </cc:Work>
    </rdf:RDF>
  </metadata>
  <g
     inkscape:label="Camada 1"
     inkscape:groupmode="layer"
     id="layer1"
     transform="translate(3364.4172,-2100.7186)">
    <g
       id="normal"
       transform="matrix(0.02458886,0,0,0.02458886,-3277.9126,2102.6691)"
       inkscape:label="#g3217">
      <rect
         y="-79.323952"
         x="-3518.0396"
         height="650.69916"
         width="650.69916"
         id="rect3219"
         style="opacity:0.00100002;fill:#ffffff;stroke:none" />
      <g
         id="g6088">
        <path
           id="path3079"
           d="m -3477.3715,42.681929 c -22.5305,0 -40.6688,18.138295 -40.6688,40.668823 l 0,325.350588 c 0,22.53052 18.1383,40.66882 40.6688,40.66882 l 569.3635,0 c 22.5306,0 40.6689,-18.1383 40.6689,-40.66882 l 0,-325.350588 c 0,-22.530528 -18.1383,-40.668823 -40.6689,-40.668823 l -569.3635,0 z m 40.6688,52.106929 13.98,15.250812 230.033,228.76213 230.033,-228.76213 13.9799,-15.250812 29.2307,29.230722 -15.2508,13.9799 -244.0129,244.01294 -13.9799,15.25081 -13.9799,-15.25081 -244.013,-244.01294 -15.2508,-13.9799 29.2307,-29.230722 z m 81.3377,162.675292 29.2307,29.23072 -15.2508,13.9799 -81.3376,81.33765 -13.98,15.25081 -29.2307,-29.23072 15.2508,-13.9799 81.3377,-81.33765 13.9799,-15.25081 z m 325.3506,0 13.9799,15.25081 81.3376,81.33765 15.2508,13.9799 -29.2307,29.23072 -13.9799,-15.25081 -81.3376,-81.33765 -15.2508,-13.9799 29.2307,-29.23072 z"
           style="fill:url(#linearGradient3081);fill-opacity:1;fill-rule:nonzero;stroke:none"
           inkscape:connector-curvature="0" />
        <path
           style="fill:url(#linearGradient3092);fill-opacity:1;fill-rule:nonzero;stroke:none"
           d="m -3477.3715,42.681929 c -22.5305,0 -40.6688,18.138295 -40.6688,40.668823 l 0,325.350588 c 0,16.28799 10.3815,29.08183 24.1471,35.58522 -2.0525,-4.86883 -3.8127,-9.61818 -3.8127,-15.25081 l 0,-325.35059 c 0,-22.530524 18.1383,-40.668819 40.6688,-40.668819 l 569.3635,0 c 5.6327,0 10.382,1.760199 15.2509,3.812702 -6.5034,-13.765571 -19.2972,-24.147114 -35.5853,-24.147114 l -569.3635,0 z m 557.9254,81.337651 -15.2508,13.97991 -244.0129,244.01294 -13.9799,13.9799 0,1.2709 6.3545,5.08361 13.9799,15.25081 13.9799,-15.25081 108.0266,-108.02656 -8.8964,-7.62541 29.2308,-29.23072 7.6254,8.89631 108.0265,-108.02656 15.2508,-13.97991 -20.3344,-20.33441 z m -406.6882,162.67529 -15.2508,13.97991 -81.3377,81.33765 -13.9799,15.2508 20.3344,20.33442 13.98,-15.25081 81.3376,-81.33765 15.2508,-13.97991 -20.3344,-20.33441 z m 405.4173,81.33765 -27.9598,27.95981 0,1.2709 6.3545,5.08361 13.9799,15.25081 29.2307,-29.23072 -15.2508,-13.97991 -5.0836,-6.3545 -1.2709,0 z"
           id="rect4252"
           inkscape:connector-curvature="0" />
        <path
           style="fill:url(#linearGradient3090);fill-opacity:1;fill-rule:nonzero;stroke:none"
           d="m -2891.4862,47.765532 c 2.0525,4.868818 3.8127,9.618176 3.8127,15.250808 l 0,325.35058 c 0,22.53053 -18.1382,40.66882 -40.6689,40.66882 l -569.3635,0 c -5.6326,0 -10.382,-1.76018 -15.2508,-3.8127 6.5034,13.76558 19.2973,24.14711 35.5852,24.14711 l 569.3636,0 c 22.5304,0 40.6688,-18.13829 40.6688,-40.66882 l 0,-325.350578 c 0,-16.28799 -10.3816,-29.081812 -24.1471,-35.58522 z m -565.5509,26.688915 -29.2307,29.230713 15.2508,13.97991 6.3545,6.3545 27.9599,-29.230716 -6.3545,-5.083599 -13.98,-15.250808 z m 488.0259,0 -13.9799,15.250808 -230.033,228.762125 20.3344,20.33441 230.033,-228.76213 13.9799,-15.250806 -20.3344,-20.334407 z m -406.6882,162.675283 -13.9799,15.25081 -81.3377,81.33765 -15.2508,13.97991 20.3344,20.33441 15.2508,-13.97991 81.3377,-81.33765 13.9799,-15.2508 -20.3344,-20.33442 z m 332.976,8.89631 -27.9598,27.95982 6.3545,6.3545 6.3545,6.3545 27.9598,-27.95981 -6.3545,-6.35451 -6.3545,-6.3545 z"
           id="rect3820"
           inkscape:connector-curvature="0" />
      </g>
    </g>
  </g>
</svg>
