<?xml version="1.0" encoding="UTF-8" standalone="no"?>
<!-- Created with Inkscape (http://www.inkscape.org/) -->

<svg
   xmlns:dc="http://purl.org/dc/elements/1.1/"
   xmlns:cc="http://creativecommons.org/ns#"
   xmlns:rdf="http://www.w3.org/1999/02/22-rdf-syntax-ns#"
   xmlns:svg="http://www.w3.org/2000/svg"
   xmlns="http://www.w3.org/2000/svg"
   xmlns:xlink="http://www.w3.org/1999/xlink"
   xmlns:sodipodi="http://sodipodi.sourceforge.net/DTD/sodipodi-0.dtd"
   xmlns:inkscape="http://www.inkscape.org/namespaces/inkscape"
   sodipodi:docname="banshee-panel.svg"
   inkscape:version="0.48.3.1 r9886"
   version="1.1"
   id="svg27665"
   height="16"
   width="16">
  <defs
     id="defs27667">
    <linearGradient
       id="linearGradient4357"
       inkscape:collect="always">
      <stop
         id="stop4359"
         offset="0"
         style="stop-color:#adaca1;stop-opacity:1" />
      <stop
         id="stop4361"
         offset="1"
         style="stop-color:#e1e0d9;stop-opacity:1" />
    </linearGradient>
    <linearGradient
       inkscape:collect="always"
       xlink:href="#linearGradient4357"
       id="linearGradient4231"
       gradientUnits="userSpaceOnUse"
       x1="-3281.4192"
       y1="541.79962"
       x2="-3281.4192"
       y2="127.71826"
       gradientTransform="matrix(0.03380978,0,0,0.03380978,119.4441,-2.8181)" />
    <linearGradient
       inkscape:collect="always"
       xlink:href="#linearGradient7209-9"
       id="linearGradient4053"
       gradientUnits="userSpaceOnUse"
       gradientTransform="matrix(29.577241,0,0,29.577241,-3518.0383,-79.323202)"
       x1="11.000001"
       y1="18.999996"
       x2="11.000001"
       y2="1.9999962" />
    <linearGradient
       id="linearGradient7209-9">
      <stop
         id="stop7211-8"
         offset="0"
         style="stop-color:#a1988f;stop-opacity:1;" />
      <stop
         id="stop7213-9"
         offset="1"
         style="stop-color:#e4dfd4;stop-opacity:1;" />
    </linearGradient>
    <linearGradient
       inkscape:collect="always"
       xlink:href="#linearGradient7251-3"
       id="linearGradient3859"
       x1="-3636.3472"
       y1="482.64426"
       x2="-3636.3472"
       y2="-20.168833"
       gradientUnits="userSpaceOnUse" />
    <linearGradient
       id="linearGradient7251-3">
      <stop
         style="stop-color:#ffffff;stop-opacity:1;"
         offset="0"
         id="stop7253-27" />
      <stop
         style="stop-color:#ffffff;stop-opacity:1;"
         offset="1"
         id="stop7255-3" />
    </linearGradient>
    <linearGradient
       inkscape:collect="always"
       xlink:href="#linearGradient9097-0"
       id="linearGradient3857"
       x1="-3606.77"
       y1="482.64426"
       x2="-3606.77"
       y2="-20.168833"
       gradientUnits="userSpaceOnUse" />
    <linearGradient
       id="linearGradient9097-0">
      <stop
         style="stop-color:#000000;stop-opacity:0.49634215;"
         offset="0"
         id="stop9099-4" />
      <stop
         style="stop-color:#000000;stop-opacity:0.41474396;"
         offset="1"
         id="stop9101-5" />
    </linearGradient>
    <linearGradient
       inkscape:collect="always"
       xlink:href="#linearGradient7209-9"
       id="linearGradient3061"
       gradientUnits="userSpaceOnUse"
       x1="-3281.4192"
       y1="541.79962"
       x2="-3281.4192"
       y2="127.71826" />
    <linearGradient
       inkscape:collect="always"
       xlink:href="#linearGradient4357"
       id="linearGradient3065"
       gradientUnits="userSpaceOnUse"
       x1="-3281.4192"
       y1="541.79962"
       x2="-3281.4192"
       y2="127.71826" />
    <linearGradient
       inkscape:collect="always"
       xlink:href="#linearGradient9097-0"
       id="linearGradient3068"
       gradientUnits="userSpaceOnUse"
       gradientTransform="translate(1.1632942e-5,-1.1670582e-6)"
       x1="-3281.4192"
       y1="541.79962"
       x2="-3281.4192"
       y2="127.71826" />
    <linearGradient
       inkscape:collect="always"
       xlink:href="#linearGradient7251-3"
       id="linearGradient3070"
       x1="-3281.4192"
       y1="541.79962"
       x2="-3281.4192"
       y2="115.70173"
       gradientUnits="userSpaceOnUse" />
  </defs>
  <sodipodi:namedview
     id="base"
     pagecolor="#ffffff"
     bordercolor="#666666"
     borderopacity="1.0"
     inkscape:pageopacity="0.0"
     inkscape:pageshadow="2"
     inkscape:zoom="32"
     inkscape:cx="13.395016"
     inkscape:cy="4.4936475"
     inkscape:document-units="px"
     inkscape:current-layer="g6088"
     showgrid="true"
     inkscape:window-width="1680"
     inkscape:window-height="998"
     inkscape:window-x="-8"
     inkscape:window-y="25"
     inkscape:window-maximized="1"
     inkscape:snap-bbox="true"
     inkscape:bbox-paths="true"
     inkscape:bbox-nodes="true"
     inkscape:snap-bbox-edge-midpoints="true"
     inkscape:snap-bbox-midpoints="true"
     inkscape:object-paths="true"
     inkscape:snap-intersection-paths="true"
     inkscape:object-nodes="true"
     inkscape:snap-smooth-nodes="true"
     inkscape:snap-midpoints="true"
     inkscape:snap-object-midpoints="true"
     inkscape:snap-center="true"
     inkscape:snap-global="true"
     showguides="false"
     inkscape:guide-bbox="true"
     fit-margin-top="0"
     fit-margin-left="0"
     fit-margin-right="0"
     fit-margin-bottom="0"
     inkscape:showpageshadow="false">
    <sodipodi:guide
       orientation="0,1"
       position="599.99999,299.99993"
       id="guide3572" />
    <sodipodi:guide
       orientation="1,0"
       position="294.41949,12.121717"
       id="guide3574" />
    <sodipodi:guide
       orientation="0,1"
       position="456.04389,599.99992"
       id="guide3576" />
    <sodipodi:guide
       orientation="0,1"
       position="-2.8882813e-06,-8.3890377e-05"
       id="guide3578" />
    <sodipodi:guide
       orientation="1,0"
       position="-2.8882813e-06,157.58366"
       id="guide3580" />
    <sodipodi:guide
       orientation="1,0"
       position="599.99999,121.21821"
       id="guide3582" />
    <sodipodi:guide
       orientation="0,1"
       position="599.99999,-714.34359"
       id="guide5928" />
    <sodipodi:guide
       orientation="0,1"
       position="599.99999,-414.34359"
       id="guide5930" />
    <sodipodi:guide
       orientation="0,1"
       position="599.99999,-1014.3435"
       id="guide5932" />
    <sodipodi:guide
       orientation="0,1"
       position="451.57029,524.99606"
       id="guide5294" />
    <sodipodi:guide
       orientation="0,1"
       position="451.57029,75.013517"
       id="guide5296" />
    <sodipodi:guide
       orientation="0,1"
       position="496.01499,-931.36409"
       id="guide5413" />
    <sodipodi:guide
       orientation="0,1"
       position="457.34859,-489.34389"
       id="guide5415" />
    <inkscape:grid
       type="xygrid"
       id="grid3066"
       empspacing="5"
       visible="true"
       enabled="true"
       snapvisiblegridlinesonly="true"
       originx="4.3243213e-05px"
       originy="-2.6431151e-05px" />
  </sodipodi:namedview>
  <metadata
     id="metadata27670">
    <rdf:RDF>
      <cc:Work
         rdf:about="">
        <dc:format>image/svg+xml</dc:format>
        <dc:type
           rdf:resource="http://purl.org/dc/dcmitype/StillImage" />
        <dc:title />
      </cc:Work>
    </rdf:RDF>
  </metadata>
  <g
     inkscape:label="Camada 1"
     inkscape:groupmode="layer"
     id="layer1"
     transform="translate(3364.4171,-2100.7186)">
    <g
       id="normal"
       transform="matrix(0.03380978,0,0,0.03380978,-3245.473,2097.4005)"
       inkscape:label="#g3217">
      <rect
         y="98.139359"
         x="-3518.0396"
         height="473.23584"
         width="473.23584"
         id="rect3219"
         style="opacity:0.00100002;fill:#ffffff;stroke:none" />
      <g
         id="g6088">
        <path
           inkscape:connector-curvature="0"
           style="font-size:medium;font-style:normal;font-variant:normal;font-weight:normal;font-stretch:normal;text-indent:0;text-align:start;text-decoration:none;line-height:normal;letter-spacing:normal;word-spacing:normal;text-transform:none;direction:ltr;block-progression:tb;writing-mode:lr-tb;text-anchor:start;baseline-shift:baseline;color:#000000;fill:url(#linearGradient3061);fill-opacity:1;stroke:none;stroke-width:0.72727048;marker:none;visibility:visible;display:inline;overflow:visible;enable-background:accumulate;font-family:Sans;-inkscape-font-specification:Sans"
           d="m -3340.5749,115.70173 -50.8358,49.9116 -88.7318,88.73172 42.5173,42.51728 37.8959,-38.82013 0,106.29321 c 0,64.9899 53.319,118.30896 118.3089,118.30896 64.9899,0 118.309,-53.31906 118.309,-118.30896 0,-64.98991 -53.3191,-118.30896 -118.309,-118.30896 -21.6633,0 -41.593,6.29681 -59.1545,16.6372 l 0,-75.79168 0,-71.17024 z m 59.1545,70.24595 0,31.42582 c 81.8508,0 147.8862,65.11118 147.8862,146.96191 l 0,2.77287 c -1.3901,80.63628 -66.9099,145.11333 -147.8862,145.11333 -81.8508,0 -146.9619,-66.03547 -146.9619,-147.8862 l -30.5015,0 c 0,97.83545 79.6279,178.38773 177.4634,178.38773 97.8355,0 178.3877,-80.55228 178.3877,-178.38773 0,-97.83545 -80.5522,-178.38773 -178.3877,-178.38773 z m 0,119.23325 c 33.0204,0 59.1545,26.13403 59.1545,59.15448 0,33.02045 -26.1341,59.15448 -59.1545,59.15448 -33.0205,0 -59.1545,-26.13403 -59.1545,-59.15448 0,-33.02045 26.134,-59.15448 59.1545,-59.15448 z"
           id="path3059" />
        <path
           style="font-size:medium;font-style:normal;font-variant:normal;font-weight:normal;font-stretch:normal;text-indent:0;text-align:start;text-decoration:none;line-height:normal;letter-spacing:normal;word-spacing:normal;text-transform:none;direction:ltr;block-progression:tb;writing-mode:lr-tb;text-anchor:start;baseline-shift:baseline;color:#000000;fill:url(#linearGradient3070);fill-opacity:1;stroke:none;stroke-width:0.72727048000000005;marker:none;visibility:visible;display:inline;overflow:visible;enable-background:accumulate;font-family:Sans;-inkscape-font-specification:Sans"
           d="m -3340.5749,115.70173 -50.8358,49.91159 -88.7318,88.73173 14.7887,14.78862 88.7317,-88.73173 36.0472,-35.12297 0,-29.57724 z m 59.1545,70.24595 0,31.42581 c 5.1157,0 9.8088,0.42742 14.7886,0.92429 l 0,-17.56148 c 42.8031,0 81.8747,15.13045 112.7633,40.6687 -32.534,-33.69973 -77.495,-55.45732 -127.5519,-55.45732 z m 0,60.07877 c -15.9225,0 -30.5684,3.33418 -44.3658,9.24288 l 0,22.18294 c 17.5615,-10.34039 37.4911,-16.6372 59.1544,-16.6372 28.7689,0 54.2851,11.3695 74.8674,28.65295 -21.7605,-25.91392 -53.4349,-43.44157 -89.656,-43.44157 z m 110.9147,22.18293 c 22.5585,25.74192 36.9715,58.93259 36.9715,96.12603 l 0,2.77287 c -1.3901,80.63628 -66.9099,145.11334 -147.8862,145.11334 -37.1935,0 -70.3841,-14.41299 -96.126,-36.97156 26.8395,31.37229 66.0806,51.76018 110.9146,51.76018 80.9763,0 146.4961,-64.47706 147.8862,-145.11334 l 0,-2.77287 c 0,-44.83397 -20.3879,-84.07511 -51.7601,-110.91465 z m -214.435,4.62144 -14.7886,14.78862 0,76.71597 c 0,36.22107 17.5276,67.89547 43.4415,89.65601 -17.2834,-20.5823 -28.6529,-46.09856 -28.6529,-74.86739 l 0,-106.29321 z m 152.5076,58.23019 c 6.3352,9.43086 10.1672,20.89173 10.1672,33.2744 0,33.02045 -26.1341,59.15448 -59.1545,59.15448 -12.3827,0 -23.8435,-3.832 -33.2744,-10.16717 10.647,15.09468 27.9091,24.95579 48.063,24.95579 33.0204,0 59.1545,-26.13403 59.1545,-59.15448 0,-20.15386 -9.8611,-37.41608 -24.9558,-48.06302 z m -226.4507,33.2744 c 0,53.67548 24.1348,102.12294 61.9273,134.94616 -29.1883,-31.85927 -47.1387,-73.82958 -47.1387,-120.15754 l 16.6372,0 c -0.4969,-4.97985 -0.9243,-9.67295 -0.9243,-14.78862 l -30.5015,0 z"
           id="path3794-5"
           inkscape:connector-curvature="0" />
        <path
           style="font-size:medium;font-style:normal;font-variant:normal;font-weight:normal;font-stretch:normal;text-indent:0;text-align:start;text-decoration:none;line-height:normal;letter-spacing:normal;word-spacing:normal;text-transform:none;direction:ltr;block-progression:tb;writing-mode:lr-tb;text-anchor:start;baseline-shift:baseline;color:#000000;fill:url(#linearGradient3068);fill-opacity:1;stroke:none;stroke-width:0.72727048;marker:none;visibility:visible;display:inline;overflow:visible;enable-background:accumulate;font-family:Sans;-inkscape-font-specification:Sans"
           d="m -3340.5748,115.70173 -14.7887,14.78862 0,41.59299 0,75.79168 c 4.6538,-2.7402 9.8141,-5.26395 14.7887,-7.39431 l 0,-53.60874 0,-71.17024 z m 59.1544,87.80743 0,13.86434 c 37.0168,0 70.2238,13.88743 96.1261,36.04726 -23.9828,-27.36712 -57.6342,-46.07102 -96.1261,-49.9116 z m 122.9305,33.2744 c 25.5382,30.88862 40.6687,69.96022 40.6687,112.76323 0,97.83545 -80.5523,178.38774 -178.3878,178.38774 -42.803,0 -82.0736,-15.13045 -112.7632,-40.66871 32.3037,33.756 77.4471,55.45733 127.5518,55.45733 97.8356,0 178.3878,-80.55229 178.3878,-178.38774 0,-50.0569 -21.7576,-95.01783 -55.4573,-127.55185 z m -256.028,6.47002 -37.8959,38.82013 14.7886,14.78862 23.1073,-24.03151 0,-29.57724 z m 207.9649,31.42582 c 17.2835,20.5823 28.653,46.09856 28.653,74.86739 0,64.9899 -53.3191,118.30896 -118.309,118.30896 -28.7688,0 -54.2851,-11.36949 -74.8674,-28.65295 21.7606,25.91392 53.435,43.44158 89.656,43.44158 64.9899,0 118.309,-53.31907 118.309,-118.30897 0,-36.22108 -17.5276,-67.89548 -43.4416,-89.65601 z m -89.656,15.71291 c -33.0205,0 -59.1545,26.13403 -59.1545,59.15448 0,20.15386 9.8612,37.41607 24.9558,48.06302 -6.3351,-9.43085 -10.1671,-20.89173 -10.1671,-33.2744 0,-33.02045 26.1339,-59.15448 59.1544,-59.15448 12.3827,0 23.8436,3.83199 33.2744,10.16718 -10.6469,-15.09469 -27.9091,-24.9558 -48.063,-24.9558 z m -146.0376,73.9431 c 3.8406,38.49182 22.5445,72.14327 49.9116,96.12603 -22.1598,-25.90223 -36.0473,-59.10925 -36.0473,-96.12603 l -13.8643,0 z"
           id="path3106"
           inkscape:connector-curvature="0" />
      </g>
    </g>
  </g>
</svg>
