<?xml version="1.0" encoding="UTF-8" standalone="no"?>
<!-- Created with Inkscape (http://www.inkscape.org/) -->

<svg
   xmlns:dc="http://purl.org/dc/elements/1.1/"
   xmlns:cc="http://creativecommons.org/ns#"
   xmlns:rdf="http://www.w3.org/1999/02/22-rdf-syntax-ns#"
   xmlns:svg="http://www.w3.org/2000/svg"
   xmlns="http://www.w3.org/2000/svg"
   xmlns:xlink="http://www.w3.org/1999/xlink"
   xmlns:sodipodi="http://sodipodi.sourceforge.net/DTD/sodipodi-0.dtd"
   xmlns:inkscape="http://www.inkscape.org/namespaces/inkscape"
   width="15.999998"
   height="15.999998"
   id="svg13094"
   version="1.1"
   inkscape:version="0.48.3.1 r9886"
   sodipodi:docname="printer-symbolic.svg">
  <sodipodi:namedview
     id="base"
     pagecolor="#ffffff"
     bordercolor="#666666"
     borderopacity="1.0"
     inkscape:pageopacity="0.0"
     inkscape:pageshadow="2"
     inkscape:zoom="14.481548"
     inkscape:cx="27.496764"
     inkscape:cy="-4.02201"
     inkscape:document-units="px"
     inkscape:current-layer="layer1"
     showgrid="true"
     inkscape:snap-bbox="true"
     inkscape:bbox-paths="true"
     inkscape:bbox-nodes="true"
     inkscape:snap-bbox-edge-midpoints="true"
     inkscape:snap-bbox-midpoints="true"
     inkscape:object-paths="true"
     inkscape:snap-intersection-paths="true"
     inkscape:object-nodes="true"
     inkscape:snap-smooth-nodes="true"
     inkscape:snap-midpoints="true"
     inkscape:snap-object-midpoints="true"
     inkscape:snap-center="true"
     showguides="false"
     inkscape:guide-bbox="true"
     inkscape:window-width="1680"
     inkscape:window-height="998"
     inkscape:window-x="-8"
     inkscape:window-y="25"
     inkscape:window-maximized="1"
     inkscape:snap-global="true"
     fit-margin-top="0"
     fit-margin-left="0"
     fit-margin-right="0"
     fit-margin-bottom="0"
     showborder="true"
     inkscape:showpageshadow="false">
    <sodipodi:guide
       id="guide16149"
       position="8351.588,1211.4498"
       orientation="0,1" />
    <sodipodi:guide
       id="guide16151"
       position="8124.4451,1162.4411"
       orientation="0,1" />
    <sodipodi:guide
       id="guide16153"
       position="8190.1593,1186.9454"
       orientation="0,1" />
    <sodipodi:guide
       id="guide17725"
       position="8183.7308,1106.7982"
       orientation="0,1" />
    <sodipodi:guide
       id="guide9456"
       position="8681.2291,714.92848"
       orientation="1,0" />
    <sodipodi:guide
       id="guide9458"
       position="8505.4791,1079.9774"
       orientation="0,1" />
    <sodipodi:guide
       id="guide9468"
       position="8276.7093,1025.072"
       orientation="0,1" />
    <sodipodi:guide
       id="guide9470"
       position="8301.2291,1046.442"
       orientation="0,1" />
    <sodipodi:guide
       id="guide11159"
       position="8169.2291,760.44248"
       orientation="1,0" />
    <sodipodi:guide
       id="guide13980"
       position="8482.2603,1024.477"
       orientation="1,0" />
    <sodipodi:guide
       orientation="0,1"
       position="6628.2292,-350.55748"
       id="guide3972" />
    <sodipodi:guide
       orientation="1,0"
       position="6808.2292,-478.55752"
       id="guide3974" />
    <sodipodi:guide
       orientation="0,1"
       position="6502.2292,-713.55742"
       id="guide3976" />
    <sodipodi:guide
       orientation="1,0"
       position="6475.2292,-572.55752"
       id="guide3978" />
    <sodipodi:guide
       orientation="1,0"
       position="1825,892.44248"
       id="guide4287" />
    <sodipodi:guide
       orientation="0,1"
       position="1825,892.44248"
       id="guide4289" />
    <inkscape:grid
       type="xygrid"
       id="grid3048"
       empspacing="5"
       visible="true"
       enabled="true"
       snapvisiblegridlinesonly="true"
       originx="-7.11491e-05px"
       originy="10.999943px" />
  </sodipodi:namedview>
  <defs
     id="defs13096">
    <linearGradient
       inkscape:collect="always"
       xlink:href="#linearGradient7251-0"
       id="linearGradient3209"
       x1="-3570.2795"
       y1="534.29504"
       x2="-3570.2795"
       y2="15.567863"
       gradientUnits="userSpaceOnUse" />
    <linearGradient
       inkscape:collect="always"
       xlink:href="#linearGradient7209-4"
       id="linearGradient3127"
       gradientUnits="userSpaceOnUse"
       x1="-3195.6431"
       y1="534.29504"
       x2="-3195.6431"
       y2="15.567863" />
    <linearGradient
       inkscape:collect="always"
       xlink:href="#linearGradient9097-60"
       id="linearGradient3134"
       gradientUnits="userSpaceOnUse"
       gradientTransform="translate(3.4588595e-5,-1.1405173e-8)"
       x1="-3195.6431"
       y1="534.29504"
       x2="-3195.6431"
       y2="15.567863" />
    <linearGradient
       id="linearGradient7209-4">
      <stop
         id="stop7211-3"
         offset="0"
         style="stop-color:#a1988f;stop-opacity:1;" />
      <stop
         id="stop7213-1"
         offset="1"
         style="stop-color:#e4dfd4;stop-opacity:1;" />
    </linearGradient>
    <linearGradient
       id="linearGradient9097-60">
      <stop
         style="stop-color:#000000;stop-opacity:0.49634215;"
         offset="0"
         id="stop9099-3" />
      <stop
         style="stop-color:#000000;stop-opacity:0.41474396;"
         offset="1"
         id="stop9101-5" />
    </linearGradient>
    <linearGradient
       id="linearGradient7251-0">
      <stop
         style="stop-color:#ffffff;stop-opacity:1;"
         offset="0"
         id="stop7253-8-7" />
      <stop
         style="stop-color:#ffffff;stop-opacity:1;"
         offset="1"
         id="stop7255-1-1" />
    </linearGradient>
    <linearGradient
       inkscape:collect="always"
       xlink:href="#linearGradient7209-4"
       id="linearGradient3033"
       gradientUnits="userSpaceOnUse"
       x1="-3195.647"
       y1="552.30914"
       x2="-3195.647"
       y2="-2.4390738" />
    <linearGradient
       inkscape:collect="always"
       xlink:href="#linearGradient9097-60"
       id="linearGradient3035"
       gradientUnits="userSpaceOnUse"
       gradientTransform="translate(5.7988672e-6,5.5988671e-6)"
       x1="-3195.647"
       y1="552.30914"
       x2="-3195.647"
       y2="-2.4390738" />
    <linearGradient
       inkscape:collect="always"
       xlink:href="#linearGradient7251-0"
       id="linearGradient3037"
       gradientUnits="userSpaceOnUse"
       x1="-3671.1475"
       y1="552.30957"
       x2="-3671.1475"
       y2="-2.4405115" />
  </defs>
  <metadata
     id="metadata13099">
    <rdf:RDF>
      <cc:Work
         rdf:about="">
        <dc:format>image/svg+xml</dc:format>
        <dc:type
           rdf:resource="http://purl.org/dc/dcmitype/StillImage" />
        <dc:title />
      </cc:Work>
    </rdf:RDF>
  </metadata>
  <g
     transform="translate(9815.8737,-1067.3748)"
     id="layer1"
     inkscape:groupmode="layer"
     inkscape:label="Camada 1">
    <g
       id="normal"
       transform="matrix(0.02523659,0,0,0.02523659,-9727.2265,1068.4364)"
       inkscape:label="#g3190">
      <rect
         y="-42.067711"
         x="-3512.6445"
         height="634"
         width="634"
         id="rect3192"
         style="opacity:0.00100002;fill:#ffffff;fill-opacity:1;fill-rule:nonzero;stroke:none" />
      <g
         id="g11540">
        <path
           id="path3076"
           d="m -3274.8957,-2.4409004 c -43.2191,0 -79.25,36.0309064 -79.25,79.2500074 l 0,79.250013 -39.625,0 c -21.9522,0 -39.625,17.67276 -39.625,39.625 l 475.5001,0 c 0,-21.95224 -17.6728,-39.625 -39.625,-39.625 l -39.625,0 0,-79.250013 c 0,-43.219101 -36.0309,-79.2500074 -79.2501,-79.2500074 l -158.5,0 z m 0,79.2500074 158.5,0 0,79.250013 -158.5,0 0,-79.250013 z m -158.5,158.500023 0,118.87501 c 0,21.95226 17.6728,39.62501 39.625,39.62501 l 39.625,0 0,79.25001 c 0,43.21911 36.0309,79.25001 79.25,79.25001 l 158.5,0 c 43.2192,0 79.2501,-36.0309 79.2501,-79.25001 l 0,-79.25001 39.625,0 c 21.9522,0 39.625,-17.67275 39.625,-39.62501 l 0,-118.87501 -475.5001,0 z m 158.5,158.50002 158.5,0 0,79.25001 -158.5,0 0,-79.25001 z"
           style="fill:url(#linearGradient3033);fill-opacity:1;fill-rule:nonzero;stroke:none"
           inkscape:connector-curvature="0" />
        <path
           style="fill:url(#linearGradient3035);fill-opacity:1;fill-rule:nonzero;stroke:none"
           d="m -3070.5833,12.418482 c 8.6127,12.664481 13.6211,28.370969 13.6211,44.578131 l 0,79.250007 19.8125,0 0,-59.437505 c 0,-26.378556 -13.1469,-49.925437 -33.4336,-64.390633 z m -224.1289,44.578131 0,79.250007 19.8125,0 0,-59.437505 138.6875,0 0,-19.812502 -158.5,0 z m 313.2852,104.015637 c 1.9998,4.74387 3.7148,9.37132 3.7148,14.85938 l -449.4961,0 c -3.5435,5.9384 -6.1914,12.36692 -6.1914,19.8125 l 475.5,0 c 0,-15.86993 -10.1151,-28.3354 -23.5273,-34.67188 z m 3.7148,74.29689 0,99.06251 c 0,21.95225 -17.6728,39.625 -39.625,39.625 l -39.625,0 0,79.25001 c 0,43.21912 -36.0308,79.25001 -79.25,79.25001 l -158.5,0 c -16.2072,0 -31.9137,-5.0084 -44.5782,-13.62109 14.4652,20.28665 38.0121,33.4336 64.3907,33.4336 l 158.5,0 c 43.2192,0 79.25,-36.0309 79.25,-79.25001 l 0,-79.25001 39.625,0 c 21.9522,0 39.625,-17.67275 39.625,-39.62501 l 0,-118.87501 -19.8125,0 z m -450.7344,134.97267 c 6.3365,13.41227 18.802,23.52735 34.6719,23.52735 l 19.8125,0 0,-19.81251 -39.625,0 c -5.4881,0 -10.1155,-1.715 -14.8594,-3.71484 z m 133.7344,3.71484 0,79.25001 19.8125,0 0,-59.4375 138.6875,0 0,-19.81251 -158.5,0 z"
           id="path3057"
           inkscape:connector-curvature="0" />
        <path
           style="fill:url(#linearGradient3037);fill-opacity:1;fill-rule:nonzero;stroke:none"
           d="m -3274.8956,-2.4408998 c -43.2191,0 -79.25,36.0309058 -79.25,79.2500098 l 0,79.25001 -39.625,0 c -21.9522,0 -39.625,17.67275 -39.625,39.625 l 26.0039,0 c 6.904,-11.57014 18.9269,-19.8125 33.4336,-19.8125 l 39.625,0 0,-79.250008 c 0,-43.219104 36.0309,-79.25001 79.25,-79.25001 l 158.5,0 c 16.2072,0 31.9136,5.008407 44.5781,13.621095 -14.4652,-20.286668 -38.012,-33.4335968 -64.3906,-33.4335968 l -158.5,0 z m 158.5,99.0625118 0,59.437508 -138.6875,0 0,19.8125 158.5,0 0,-79.250008 -19.8125,0 z m 99.0625,59.437508 0,19.8125 39.625,0 c 5.4881,0 10.1155,1.71502 14.8594,3.71484 -6.3365,-13.41225 -18.802,-23.52734 -34.6719,-23.52734 l -19.8125,0 z m -416.0625,79.25001 0,118.87501 c 0,15.86995 10.1151,28.33541 23.5273,34.67188 -1.9998,-4.74386 -3.7148,-9.37131 -3.7148,-14.85937 l 0,-118.87502 455.6875,0 0,-19.8125 -475.5,0 z m 79.25,178.31252 0,59.43751 c 0,26.37856 13.1469,49.92544 33.4336,64.39063 -8.6127,-12.66447 -13.6211,-28.37095 -13.6211,-44.57813 l 0,-79.25001 -19.8125,0 z m 237.75,0 0,59.43751 -138.6875,0 0,19.8125 158.5,0 0,-79.25001 -19.8125,0 z"
           id="rect3037"
           inkscape:connector-curvature="0" />
      </g>
    </g>
  </g>
</svg>
