<?xml version="1.0" encoding="UTF-8"?>
<!-- Created with Inkscape (http://www.inkscape.org/) -->
<svg id="svg2643" width="48" height="48" version="1.0" xmlns="http://www.w3.org/2000/svg" xmlns:cc="http://creativecommons.org/ns#" xmlns:dc="http://purl.org/dc/elements/1.1/" xmlns:rdf="http://www.w3.org/1999/02/22-rdf-syntax-ns#" xmlns:xlink="http://www.w3.org/1999/xlink">
 <metadata id="metadata2648">
  <rdf:RDF>
   <cc:Work rdf:about="">
    <dc:format>image/svg+xml</dc:format>
    <dc:type rdf:resource="http://purl.org/dc/dcmitype/StillImage"/>
    <cc:license rdf:resource=""/>
    <dc:subject>
     <rdf:Bag>
      <rdf:li>audio</rdf:li>
      <rdf:li>device</rdf:li>
      <rdf:li>speaker</rdf:li>
      <rdf:li>output</rdf:li>
      <rdf:li>center</rdf:li>
     </rdf:Bag>
    </dc:subject>
    <dc:title/>
    <dc:creator>
     <cc:Agent>
      <dc:title>Evangeline McGlynn</dc:title>
     </cc:Agent>
    </dc:creator>
   </cc:Work>
  </rdf:RDF>
 </metadata>
 <g id="layer1">
  <g id="g8093" transform="matrix(2 -8.665e-8 8.665e-8 2 -73.938 -386)" style="stroke-width:.5">
   <path id="path5491" d="m41 202h2.4844l2.9688-3 0.54687 0.0156v12l-0.4753 8.3e-4 -3.0403-3.0164h-2.4844z" style="color:#bebebe"/>
   <rect id="rect6203" x="41" y="197" width="16" height="16" style="color:#bebebe;fill:none;opacity:.1"/>
   <path id="rect11714-3" d="m56 205c0-2.8142-1-5.1717-2.5856-7h-1.4144v1.4807c1.2647 1.5193 2 3.2194 2 5.5193s-0.77953 4-2 5.5193v1.4807h1.3813c1.4658-1.6404 2.6187-4.1858 2.6187-7z" style="color:#000000;fill-opacity:.23529;font-variant-east_asian:normal"/>
   <path id="rect11703-1" d="m53 205c0-2.1666-0.73878-4.0198-2-5h-1v2c0.60652 0.78878 1 1.7589 1 3s-0.39348 2.2194-1 3v2h1c1.2229-0.99478 2-2.8734 2-5z" style="color:#000000;fill-opacity:.23529;font-variant-east_asian:normal"/>
   <path id="path6297-6" d="m50 205c0-1.2573-0.31165-2.2157-1-3h-1v3 0.375 2.625h1c0.67206-0.8369 1-1.7427 1-3z" style="color:#000000;fill-opacity:.23529;font-variant-east_asian:normal;text-decoration-line:none;text-indent:0;text-transform:none"/>
  </g>
 </g>
</svg>
