<?xml version="1.0" encoding="UTF-8"?>
<!-- Created with Inkscape (http://www.inkscape.org/) -->
<svg id="svg7384" width="16" height="16" version="1.1" xmlns="http://www.w3.org/2000/svg" xmlns:cc="http://creativecommons.org/ns#" xmlns:dc="http://purl.org/dc/elements/1.1/" xmlns:rdf="http://www.w3.org/1999/02/22-rdf-syntax-ns#">
 <metadata id="metadata90">
  <rdf:RDF>
   <cc:Work rdf:about="">
    <dc:format>image/svg+xml</dc:format>
    <dc:type rdf:resource="http://purl.org/dc/dcmitype/StillImage"/>
    <dc:title>Gnome Symbolic Icon Theme</dc:title>
   </cc:Work>
  </rdf:RDF>
 </metadata>
 <title id="title9167">Gnome Symbolic Icon Theme</title>
 <g id="layer9" transform="translate(-143 -175)">
  <path id="path10037" transform="matrix(.29307 0 0 .27586 151.16 179.24)" d="m16.5 22.688a1.75 1.8125 0 1 1-3.5 0 1.75 1.8125 0 1 1 3.5 0z" style="color:#000000;fill:#bebebe"/>
  <path id="path10041" d="m153 191h5s0.33504-1 0-2c-0.18036 0.15698-1.5656 1-2.5 1s-2.1393-0.68603-2.5-1c-0.31243 1.2258 0 2 0 2z" style="fill:#bebebe"/>
  <path id="rect22385" d="m143 175v16h8.5v-2h-6.5v-12h12v4h2v-6z" style="fill:#bebebe"/>
  <path id="path22396" d="m145 181v2.2188c0 2.3186 2.7814 4.586 6.5625 4.75-0.62469-0.74109-1.0312-1.6716-1.0312-2.7188 0-1.2461 0.61867-2.4721 1.4688-3.25-6 0.76452-7-1-7-1z" style="fill:#bebebe"/>
  <path id="path22402" d="m150 180c-1.6667-1.4366-3.3333-1.3936-5 0 0-1.1046 1.1193-2 2.5-2s2.5 0.89542 2.5 2z" style="fill:#bebebe"/>
  <path id="path22405" d="m152 180c1.6667-1.4366 3.3333-1.3936 5 0 0-1.1046-1.1193-2-2.5-2s-2.5 0.89542-2.5 2z" style="fill:#bebebe"/>
  <path id="path22411" d="m155.5 182c-1.933 0-3.5 1.567-3.5 3.5s1.567 3.5 3.5 3.5 3.5-1.567 3.5-3.5-1.567-3.5-3.5-3.5zm0 2c0.82955 0 1.5 0.67158 1.5 1.5s-0.67045 1.5-1.5 1.5-1.5-0.67158-1.5-1.5 0.67045-1.5 1.5-1.5z" style="fill:#bebebe"/>
 </g>
</svg>
