<?xml version="1.0" encoding="UTF-8" standalone="no"?>
<!-- Created with Inkscape (http://www.inkscape.org/) -->
<svg id="svg7384" xmlns:rdf="http://www.w3.org/1999/02/22-rdf-syntax-ns#" xmlns="http://www.w3.org/2000/svg" xmlns:osb="http://www.openswatchbook.org/uri/2009/osb" height="16" width="16" version="1.1" xmlns:cc="http://creativecommons.org/ns#" xmlns:dc="http://purl.org/dc/elements/1.1/">
 <metadata id="metadata90">
  <rdf:RDF>
   <cc:Work rdf:about="">
    <dc:format>image/svg+xml</dc:format>
    <dc:type rdf:resource="http://purl.org/dc/dcmitype/StillImage"/>
    <dc:title>Gnome Symbolic Icon Theme</dc:title>
   </cc:Work>
  </rdf:RDF>
 </metadata>
 <title id="title9167">Gnome Symbolic Icon Theme</title>
 <g id="layer9" transform="translate(-383 185)">
  <path id="path234" style="color:#000000;fill:#bebebe" d="m391.28-185c-1.0952 0-2.1948 0.40659-3.0312 1.1875s-1.25 1.7883-1.25 2.8125 0.4136 2.0316 1.25 2.8125c1.2392 1.157 3.0579 1.4322 4.5938 0.875l4.4375 4.3125h1.2812l0.4375-0.40625v-1.8438l-0.75-0.75h-0.75l-0.75-1.5h-0.75v-1.5l-0.75-0.5625c0.59684-1.4339 0.30173-3.093-0.9375-4.25-0.83641-0.78091-1.9361-1.1875-3.0312-1.1875zm-0.78125 1c0.82843 0 1.5 0.67157 1.5 1.5s-0.67157 1.5-1.5 1.5-1.5-0.67157-1.5-1.5 0.67157-1.5 1.5-1.5z"/>
  <path id="path11032" style="color:#000000;fill:#bebebe" d="m387-184c-2.2091 0-4 1.6918-4 3.7812 0 1.5438 0.97334 2.8805 2.375 3.4688v0.75h0.625l1 1-1 1v1l0.81152 1-0.81152 0.48614v0.4342l1 1.0797h1l1-1v-5.4766c-0.15625-0.0547-0.1533-0.0541-0.15625-0.0547-1.2695-0.61624-2.2305-1.7511-2.625-3.125-0.68068-0.0606-1.2188-0.64783-1.2188-1.3438 0-0.6847 0.52256-1.2368 1.1875-1.3125 0.16739-0.61864 0.43612-1.1891 0.8125-1.6875z"/>
 </g>
</svg>
