<?xml version="1.0" encoding="UTF-8"?>
<!-- Created with Inkscape (http://www.inkscape.org/) -->
<svg id="svg2458" width="48" height="48" version="1.0" xmlns="http://www.w3.org/2000/svg" xmlns:cc="http://creativecommons.org/ns#" xmlns:dc="http://purl.org/dc/elements/1.1/" xmlns:rdf="http://www.w3.org/1999/02/22-rdf-syntax-ns#" xmlns:xlink="http://www.w3.org/1999/xlink">
 <metadata id="metadata59">
  <rdf:RDF>
   <cc:Work rdf:about="">
    <dc:format>image/svg+xml</dc:format>
    <dc:type rdf:resource="http://purl.org/dc/dcmitype/StillImage"/>
   </cc:Work>
  </rdf:RDF>
 </metadata>
 <defs id="defs2460">
  <linearGradient id="linearGradient2435" x1="20.578" x2="20.578" y1="-.048192" y2="48.193" gradientUnits="userSpaceOnUse">
   <stop id="stop3213" style="stop-color:#fff" offset="0"/>
   <stop id="stop3215" style="stop-color:#fff;stop-opacity:0" offset="1"/>
  </linearGradient>
  <linearGradient id="linearGradient2438" x1="18.776" x2="18.203" y1="4.0378" y2="45.962" gradientTransform="matrix(.42934 0 0 -.42934 13.547 34.734)" gradientUnits="userSpaceOnUse">
   <stop id="stop6038" style="stop-color:#fff" offset="0"/>
   <stop id="stop6040" style="stop-color:#fff;stop-opacity:0" offset="1"/>
  </linearGradient>
  <radialGradient id="radialGradient2441" cx="8.8913" cy="12.123" r="11" gradientTransform="matrix(0 3.4077 -4.4528 0 77.534 -12.125)" gradientUnits="userSpaceOnUse">
   <stop id="stop3841" style="stop-color:#ffed8c" offset="0"/>
   <stop id="stop3843" style="stop-color:#fb9858" offset=".26238"/>
   <stop id="stop3845" style="stop-color:#dc572a" offset=".66094"/>
   <stop id="stop3847" style="stop-color:#9f3110" offset="1"/>
  </radialGradient>
  <linearGradient id="linearGradient2444" x1="14.085" x2="16.994" y1="13.046" y2="10.732" gradientUnits="userSpaceOnUse" spreadMethod="reflect">
   <stop id="stop3505" style="stop-color:#c4ebdd" offset="0"/>
   <stop id="stop3507" style="stop-color:#c4ebdd;stop-opacity:0" offset="1"/>
  </linearGradient>
  <linearGradient id="linearGradient2447" x1="17.495" x2="21.047" y1="11.2" y2="9.7956" gradientUnits="userSpaceOnUse" spreadMethod="reflect">
   <stop id="stop3497" style="stop-color:#c1cbe4" offset="0"/>
   <stop id="stop3499" style="stop-color:#c1cbe4;stop-opacity:0" offset="1"/>
  </linearGradient>
  <linearGradient id="linearGradient2451" x1="20.58" x2="24.274" y1="10.775" y2="9.8622" gradientTransform="matrix(.9996 .028243 -.028243 .9996 .69241 -.67083)" gradientUnits="userSpaceOnUse" spreadMethod="reflect">
   <stop id="stop3489" style="stop-color:#e6cde2" offset="0"/>
   <stop id="stop3491" style="stop-color:#e6cde2;stop-opacity:0" offset="1"/>
  </linearGradient>
  <linearGradient id="linearGradient2454" x1="21.448" x2="21.448" y1="15.5" y2="32.509" gradientTransform="matrix(.9375 0 0 .9375 1.5 1.5)" gradientUnits="userSpaceOnUse">
   <stop id="stop3430" style="stop-color:#aaa" offset="0"/>
   <stop id="stop3432" style="stop-color:#d4d4d4" offset="1"/>
  </linearGradient>
  <linearGradient id="linearGradient2458" x1="12.274" x2="35.391" y1="32.416" y2="14.203" gradientTransform="matrix(0 1.1714 -1.1714 0 51.06 -4.1145)" gradientUnits="userSpaceOnUse">
   <stop id="stop3265" style="stop-color:#dedbde" offset="0"/>
   <stop id="stop3267" style="stop-color:#e6e6e6" offset=".5"/>
   <stop id="stop3269" style="stop-color:#d2d2d2" offset="1"/>
  </linearGradient>
  <linearGradient id="linearGradient2460" x1="-21.916" x2="-21.916" y1="3" y2="45.033" gradientTransform="translate(50.265)" gradientUnits="userSpaceOnUse">
   <stop id="stop3774" style="stop-color:#b4b4b4" offset="0"/>
   <stop id="stop3776" style="stop-color:#969696" offset="1"/>
  </linearGradient>
  <radialGradient id="radialGradient2463" cx="23.335" cy="41.636" r="22.627" gradientTransform="matrix(.97227 0 0 .28724 1.3125 27.541)" gradientUnits="userSpaceOnUse">
   <stop id="stop23421" offset="0"/>
   <stop id="stop23423" style="stop-opacity:0" offset="1"/>
  </radialGradient>
 </defs>
 <path id="path23417" d="m46 39.5c0.0011 3.5898-9.8489 6.5-22 6.5s-22.001-2.9102-22-6.5c-0.0011331-3.5898 9.8489-6.5 22-6.5s22.001 2.9102 22 6.5z" style="fill-rule:evenodd;fill:url(#radialGradient2463);opacity:.3"/>
 <path id="path2781" d="m44.5 24c0-11.363-9.137-20.5-20.5-20.5-11.363 0-20.5 9.137-20.5 20.5-2e-6 11.363 9.137 20.5 20.5 20.5 11.363-2e-6 20.5-9.137 20.5-20.5zm-13 0c0 4.1281-3.2893 7.5-7.5 7.5-4.2933 0-7.5-3.4553-7.5-7.5 0-4.1273 3.0415-7.5 7.5-7.5s7.5 3.4545 7.5 7.5z" style="fill:url(#linearGradient2458);stroke:url(#linearGradient2460)"/>
 <path id="path2474" d="m24 16c-4.416 0-8 3.584-8 8s3.584 8 8 8 8-3.584 8-8-3.584-8-8-8zm0 4c2.208 0 4 1.792 4 4s-1.792 4-4 4-4-1.792-4-4 1.792-4 4-4z" style="fill:#fff;opacity:.5"/>
 <path id="path3418" d="m24 16.5c-4.14 0-7.5 3.36-7.5 7.5s3.36 7.5 7.5 7.5 7.5-3.36 7.5-7.5-3.36-7.5-7.5-7.5zm0 3.75c2.07 0 3.75 1.68 3.75 3.75s-1.68 3.75-3.75 3.75-3.75-1.68-3.75-3.75 1.68-3.75 3.75-3.75z" style="fill:none;stroke-linejoin:round;stroke:url(#linearGradient2454)"/>
 <path id="path3296" d="m16.381 5.5055 4.4664 10.743c1.0479-0.42914 2.1898-0.65717 3.394-0.62314 0.032047 9.06e-4 0.061765 0.001385 0.093712 0.002648l0.34244-11.615c-2.939-0.15375-5.5594 0.50047-8.2965 1.4923h1e-6z" style="fill:url(#linearGradient2451);opacity:.8"/>
 <path id="path3308" d="m12.121 7.906 6.931 9.3601c0.91311-0.66976 1.9659-1.1671 3.1426-1.4252 0.03132-0.0069 0.06026-0.01359 0.09157-0.02009l-2.4295-11.395c-2.889 0.56132-5.3195 1.8556-7.7357 3.4797z" style="fill:url(#linearGradient2447);opacity:.8"/>
 <path id="path3310" d="m8.2524 11.647 9.2137 7.1558c0.70865-0.88326 1.5969-1.6361 2.6667-2.19 0.02847-0.01474 0.05469-0.02872 0.08325-0.0431l-5.3502-10.319c-2.6453 1.2899-4.7 3.2018-6.6135 5.3959z" style="fill:url(#linearGradient2444);opacity:.8"/>
 <path id="path2559" d="m23.5 3.5c1.09e-4 4.3333 0 8.6667 0 13 4.4296-0.10827 8.7219 4.084 7.9062 8.625-0.60558 3.5211-3.9275 6.1561-7.4375 6.3438-4.0667-0.26647-7.4688-3.5895-7.4688-7.4688 0-2.3782 1.0099-4.4988 2.7188-5.875l-8.375-9.875c-4.4932 3.7536-7.3438 9.4062-7.3438 15.75-0.008275 3.937 1.1496 7.727 3.25 11.031 4.1544 5.654 9.0288 9.0546 17.75 9.4688 7.0162-0.36864 11.131-3.3654 15.5-7.6562 4.6487-5.6968 5.8229-13.954 2.9375-20.719-2.4123-5.8308-7.6258-10.581-13.875-11.875-1.829-0.38768-3.6831-0.80255-5.5625-0.75z" style="fill:url(#radialGradient2441);stroke-linecap:round;stroke-linejoin:round;stroke:#ce5c00"/>
 <path id="path3281" d="m24 32.5c-4.7114 0-8.5-3.7886-8.5-8.5s3.7886-8.5 8.5-8.5c4.7114 0 8.5 3.7886 8.5 8.5s-3.7886 8.5-8.5 8.5z" style="fill:none;opacity:.4;stroke:url(#linearGradient2438)"/>
 <path id="path2561" d="m17.525 17.63-6.4636-7.5644m13.439-5.0657v10m-0.5-10.5c-10.809 0-19.5 8.6914-19.5 19.5 0 10.809 8.6914 19.5 19.5 19.5s19.5-8.6914 19.5-19.5c0-10.809-8.6914-19.5-19.5-19.5z" style="fill:none;opacity:.4;stroke-width:1px;stroke:url(#linearGradient2435)"/>
</svg>
