<?xml version="1.0" encoding="UTF-8"?>
<!-- Created with Inkscape (http://www.inkscape.org/) -->
<svg id="svg2407" width="24" height="24" version="1.0" xmlns="http://www.w3.org/2000/svg">
 <g id="layer1">
  <path id="path2405" d="m12.062 1c-0.85409 0-1.5625 0.70841-1.5625 1.5625v7.5c0 0.85409 0.70841 1.5625 1.5625 1.5625s1.5625-0.70841 1.5625-1.5625v-7.5c0-0.85409-0.70841-1.5625-1.5625-1.5625zm4.2188 2.5625c-0.11818 0.017377-0.22769 0.072133-0.3125 0.15625-0.81995 0.0090548-1.6335 0.3719-1.9375 1.1875-0.27835 0.74689 0.032676 1.4813 0.53125 2.0312 0.005738 0.0063296-0.005818 0.024987 0 0.03125 0.015525 0.044116 0.036522 0.08611 0.0625 0.125 0.042325 0.088039 0.10697 0.16346 0.1875 0.21875 0.010001 0.010824 0.020426 0.021249 0.03125 0.03125 0.12943 0.078196 0.2169 0.14303 0.28125 0.1875-0.003016-0.0020992 0.038376 0.035734 0.15625 0.125 0.047873 0.035869 0.099817 0.073869 0.125 0.09375 0.074777 0.059802 0.17093 0.14862 0.28125 0.25 2.75e-4 2.49e-4 0.010538 0.013634 0.0625 0.0625 0.09366 0.089386 0.17736 0.17092 0.25 0.25 0.087246 0.093614 0.11889 0.14917 0.125 0.15625 0.091706 0.10747 0.13358 0.11128 0.09375 0.0625 0.037896 0.045935 0.10534 0.11504 0.15625 0.1875 0.002847 0.01002-5.1e-5 0.031109 0 0.03125 0.024131 0.034391 0.036126 0.05677 0.0625 0.09375 0.004424 0.008532-5.2e-5 0.031176 0 0.03125 0.10863 0.1535 0.22121 0.27255 0.28125 0.375 0.028606 0.04881 0.058959 0.15215 0.125 0.28125 0.049904 0.097776 0.094124 0.15004 0.125 0.21875 0.041124 0.091259 0.069757 0.14213 0.0625 0.125 0.052728 0.12473 0.083725 0.25364 0.125 0.375 0.036915 0.10854 0.088128 0.26504 0.125 0.40625 0.050706 0.19418 0.067758 0.33336 0.09375 0.5 0.027804 0.17826 0.052716 0.35348 0.0625 0.53125 0.00942 0.1711 0.007956 0.34892 0 0.53125-0.00237 0.054861-0.019304 0.15502-0.03125 0.28125-0.008737 0.09299-0.020261 0.17261-0.03125 0.25-0.024263 0.17012-0.022383 0.18265 0 0.03125-0.023595 0.16017-0.027373 0.32033-0.0625 0.46875-0.007864 0.033312-0.036252 0.092208-0.0625 0.1875-0.03807 0.13794-0.044417 0.19942-0.03125 0.15625-0.028645 0.09388-0.060257 0.15779-0.09375 0.25 0.018048-0.049864-0.028495-0.006645-0.09375 0.15625-0.069164 0.17212-0.094749 0.31274-0.125 0.375-0.023484 0.030142-0.039886 0.0176-0.0625 0.0625-0.082712 0.1639-0.14858 0.32439-0.21875 0.4375-0.074536 0.12043-0.1635 0.23508-0.21875 0.3125-0.013413 0.014853-0.017632 0.012935-0.03125 0.03125-0.071194 0.096339-0.13834 0.19045-0.1875 0.25-0.054014 0.065015-0.11048 0.13708-0.15625 0.1875-0.097547 0.10801-0.16226 0.1622-0.1875 0.1875-0.025304 0.025242-0.079498 0.089957-0.1875 0.1875-0.063471 0.057526-0.1158 0.097428-0.1875 0.15625-0.11252 0.092195-0.20243 0.16251-0.28125 0.21875-0.070879 0.050523-0.1247 0.09355-0.125 0.09375-0.077857 0.052723-0.20081 0.13614-0.34375 0.21875-0.10083 0.058123-0.13266 0.052675-0.09375 0.03125-0.14813 0.081789-0.2459 0.17403-0.34375 0.21875 0.029909-0.013598-0.041991-0.029061-0.1875 0.03125-0.10764 0.044834-0.20004 0.096352-0.28125 0.125-0.015489 0.003942-0.015022-0.005604-0.03125 0-0.16564 0.057349-0.29905 0.12841-0.40625 0.15625-0.010415-2.91e-4 -0.020835-2.91e-4 -0.03125 0-0.12748 0.03329-0.25307 0.031175-0.4375 0.0625-0.19399 0.03326-0.22103 0.050702-0.09375 0.03125-0.058908 0.008873-0.1643 0.019571-0.28125 0.03125-0.2716 0.027729-0.49181 0.042688-0.75 0.03125-0.073315-0.0032-0.097878-0.001917-0.0625 0 0.026642 0.001466-0.043322-0.0184-0.1875-0.03125-0.16171-0.014341-0.26438-0.018885-0.34375-0.03125-0.15529-0.024221-0.33724-0.030801-0.46875-0.0625 0.037869 0.009168 0.043003-0.003623-0.0625-0.03125-0.056337-0.014711-0.11725-0.02907-0.125-0.03125-0.12644-0.035626-0.27032-0.10622-0.40625-0.15625-0.017643-0.007639-0.010106 0.00788-0.03125 0-0.025577-0.012342 0.002439-0.018471-0.03125-0.03125-0.20574-0.078036-0.33818-0.108-0.4375-0.15625-0.030101-0.023513-0.017892-0.039986-0.0625-0.0625-0.14048-0.070895-0.26964-0.12652-0.375-0.1875-0.01756-0.010163-0.046341-0.021226-0.0625-0.03125-0.011923-0.008574 0.014393-0.022177 0-0.03125-0.1686-0.10627-0.32059-0.1908-0.4375-0.28125-0.10953-0.084735-0.19226-0.13703-0.25-0.1875-0.10975-0.095528-0.17041-0.13522-0.125-0.09375-0.04148-0.038059-0.083525-0.1146-0.15625-0.1875-0.072905-0.072731-0.14945-0.11478-0.1875-0.15625-0.068487-0.074992-0.15995-0.21765-0.28125-0.375-0.09045-0.11691-0.17497-0.26889-0.28125-0.4375-0.010686-0.016952-0.022089 0.013073-0.03125 0-0.034878-0.056076-0.01561-0.046878-0.03125-0.0625-0.0806-0.13207-0.15135-0.26954-0.21875-0.40625 0.0072055 0.014616-0.011946-0.014583-0.0625-0.125-0.042119-0.092162-0.067954-0.21685-0.09375-0.28125-0.053484-0.1331-0.078637-0.13705-0.0625-0.09375-0.0058835-0.031344 0.013072-0.026247 0-0.0625-0.014713-0.040958-0.042907-0.12734-0.0625-0.1875-0.04989-0.1532-0.10708-0.24247-0.125-0.3125-0.034067-0.13314-0.042028-0.2634-0.0625-0.375-0.024994-0.13639-0.050884-0.24342-0.0625-0.34375 0.0016121 0.013925 0.012562-0.087383 0-0.28125-0.01081-0.16645-0.030912-0.2475-0.03125-0.28125-0.0010209-0.12296 0.017491-0.32136 0.03125-0.5 0.011278-0.14643 0.037151-0.2816 0.0625-0.4375 0.033646-0.20692 0.0278-0.33586 0.0625-0.46875-0.0095268 0.036482 0.0056125-0.00164 0.03125-0.09375 0.024415-0.087637 0.097999-0.24414 0.15625-0.40625 0.010117-0.028255-0.0047894-0.033455 0-0.0625-0.01294 0.034721 0.031261-0.004783 0.09375-0.15625 0.059339-0.14392 0.048768-0.22648 0.03125-0.1875 0.050882-0.11291 0.12469-0.2273 0.1875-0.34375 0.045804-0.085219 0.086628-0.16902 0.15625-0.28125 0.047336-0.076303 0.1282-0.16497 0.1875-0.25 0.04917-0.069802 0.097942-0.14438 0.15625-0.21875 0.041625-0.053722 0.084378-0.1075 0.125-0.15625 0.11095-0.13157 0.1012-0.14237 0.03125-0.0625 0.050266-0.057397 0.17277-0.14125 0.28125-0.25 0.10125-0.10151 0.19137-0.17831 0.3125-0.28125 0.1069-0.090852 0.18369-0.19194 0.21875-0.21875 0.15277-0.11802 0.18064-0.15134 0.0625-0.0625 0.065504-0.048758 0.13994-0.083734 0.25-0.15625 0.20855-0.13866 0.22573-0.16747 0.0625-0.0625-0.04289 0.027347-0.028197 0.011175 0.09375-0.0625 0.021464-0.0091038 0.042338-0.019541 0.0625-0.03125 0.38649-0.31895 0.65376-0.72657 0.75-1.125 0.096243-0.39843 0.06273-0.74289 0.03125-1.125-0.0029061-0.053308-0.01343-0.10592-0.03125-0.15625-0.32291-0.86647-1.1895-1.271-2.0625-1.2188-0.06083-0.035586-0.12424-0.082677-0.1875-0.09375-0.12391-0.021689-0.12324 0.042969-0.1875 0.0625-0.049725 0.015113-0.12951-0.017184-0.15625 0-0.010824 0.010001-0.021249 0.020426-0.03125 0.03125-0.0045576 0.0029336-0.027236-0.0023488-0.03125 0-0.054965 0.03216-0.095355 0.032316-0.09375 0.03125-0.093206 0.040993-0.17273 0.10794-0.25 0.15625-0.57049 0.35513-1.1124 0.7532-1.5938 1.2188-0.40409 0.39081-0.79753 0.82807-1.125 1.2812-0.14356 0.19866-0.23315 0.38385-0.34375 0.5625-0.095762 0.15273-0.17373 0.26456-0.21875 0.34375-0.052888 0.093906-0.13089 0.23147-0.21875 0.40625-0.028324 0.056066-0.059384 0.1155-0.09375 0.1875-0.11693 0.24575-0.22688 0.49174-0.3125 0.71875-0.0031518 0.0083562 0.0031482 0.022908 0 0.03125-0.012357 0.026032-0.018423-0.0031704-0.03125 0.03125-1.097e-4 2.945e-4 -0.031179 0.09333-0.03125 0.09375-0.0033917 0.012674-2.12e-5 0.031376 0 0.03125-0.0015204 0.011976 4.951e-4 0.024334 0 0.03125-0.0014505 0.011461 4.507e-4 0.024887 0 0.03125-0.042669 0.1321-0.090142 0.26041-0.125 0.375-0.09313 0.30633-0.21423 0.65132-0.28125 1-0.027814 0.1446-0.024724 0.20962-0.03125 0.25-0.01812 0.11219-0.022722 0.217-0.03125 0.28125-0.025049 0.18868-0.047872 0.37978-0.0625 0.59375-0.014982 0.21695-0.032506 0.43716-0.03125 0.6875 0.0011725 0.23378 0.015459 0.44643 0.03125 0.65625 0.0088568 0.11832 0.020108 0.24237 0.03125 0.34375 0.018027 0.16351 0.030359 0.33968 0.0625 0.53125 0.02102 0.12574 0.038006 0.16219 0.03125 0.125 0.037513 0.20578 0.10986 0.40667 0.15625 0.59375 0.03812 0.15394 0.059624 0.32158 0.125 0.53125 0.052809 0.16919 0.10808 0.33745 0.15625 0.46875 0.0024858 0.01099-0.0034696 0.02194 0 0.03125 0.055118 0.1479 0.10724 0.26904 0.125 0.3125 0.049421 0.12082 0.11732 0.25517 0.1875 0.40625 0.091252 0.19667 0.17683 0.33239 0.25 0.46875 0.090126 0.16776 0.19703 0.34579 0.3125 0.53125-0.036872-0.059288-0.035251-0.01113 0.03125 0.09375 0.11734 0.18487 0.24903 0.35961 0.375 0.53125 0.14286 0.19458 0.27102 0.37208 0.40625 0.53125-0.054374-0.064186-0.016899-0.033369 0.09375 0.09375 0.066965 0.076691 0.088971 0.092223 0.0625 0.0625 0.1452 0.16303 0.26716 0.29853 0.375 0.40625 0.10772 0.10784 0.24322 0.2298 0.40625 0.375 0.086831 0.077112 0.13226 0.13593 0.15625 0.15625 0.16245 0.13801 0.3471 0.28088 0.5625 0.4375 0.010855 0.007887 0.075882 0.079106 0.1875 0.15625 0.17915 0.12392 0.36434 0.22647 0.5625 0.34375 0.13815 0.081724 0.22349 0.14161 0.25 0.15625 0.20031 0.11062 0.39536 0.1892 0.59375 0.28125 0.15108 0.070184 0.28542 0.13808 0.40625 0.1875 0.043466 0.017766 0.1646 0.069883 0.3125 0.125 0.0093088 0.003469 0.020261-0.002485 0.03125 0 0.19226 0.070536 0.38055 0.11039 0.53125 0.15625 0.1387 0.042166 0.31249 0.10331 0.53125 0.15625 0.29068 0.070343 0.5539 0.14544 0.84375 0.1875 0.030641 0.004459 0.11786 0.018703 0.21875 0.03125 0.24989 0.030916 0.49222 0.051511 0.75 0.0625 0.27206 0.011596 0.54161 0.011821 0.8125 0 0.25778-0.010989 0.50012-0.031584 0.75-0.0625 0.12915-0.015978 0.20592-0.033857 0.1875-0.03125-0.11973 0.017007-0.081802 0.0323 0.125 0 0.27075-0.042231 0.53194-0.12709 0.78125-0.1875 0.21802-0.052832 0.39336-0.11433 0.53125-0.15625 0.16717-0.050872 0.33372-0.095488 0.5-0.15625 0.1905-0.06961 0.33691-0.16229 0.46875-0.21875 0.019466-0.00832 0.10469-0.026793 0.25-0.09375 0.23805-0.10969 0.50489-0.20439 0.75-0.34375-0.027689 0.015746-0.011388-0.01965 0.0625-0.0625 0.23107-0.13401 0.422-0.25739 0.59375-0.375 0.073172-0.050107 0.18626-0.12485 0.3125-0.21875 0.04392-0.03258 0.074983-0.055179 0.125-0.09375 0.20526-0.1588 0.37994-0.33297 0.53125-0.46875 0.01965-0.017578 0.086075-0.060685 0.1875-0.15625 0.060589-0.05725 0.12612-0.095382 0.15625-0.125 0.12764-0.1251 0.25326-0.26692 0.40625-0.4375 0.12162-0.13561 0.2045-0.25749 0.25-0.3125 0.12315-0.14891 0.20452-0.2585 0.3125-0.40625 0.049452-0.06766 0.10068-0.13471 0.09375-0.125-0.081588 0.11433-0.04043 0.10039 0.09375-0.09375 0.12391-0.17915 0.22647-0.36434 0.34375-0.5625 0.033439-0.056503 0.020599-0.060762 0.03125-0.09375 0.053915-0.093258 0.06663-0.11134 0.0625-0.09375 0.078611-0.13344 0.16693-0.26958 0.25-0.4375 0.00598-0.012131 0.016003-0.030978 0.03125-0.0625 0.13522-0.27871 0.27003-0.59369 0.375-0.875 0.092792-0.24866 0.15161-0.48309 0.21875-0.71875 0.012532-0.027552 0.022183-0.029514 0.03125-0.0625 0.004516-0.016452-0.002884-0.015714 0-0.03125 0.004632-0.017127-0.002729-0.015331 0-0.03125 0.03657-0.13223 0.086736-0.2914 0.125-0.46875 0.042131-0.19586 0.097394-0.38174 0.125-0.5625 0.02938-0.19236 0.017984-0.22044 0-0.09375 0.017762-0.12506 0.045551-0.28585 0.0625-0.46875 0.013887-0.15034 0.024391-0.31078 0.03125-0.46875 0.002695-0.061714 2.87e-4 -0.070728 0-0.0625 0.007907-0.22738 0.008396-0.4906 0-0.71875-1.76e-4 -0.00479 0.005758-0.050221 0-0.15625-0.003548-0.064501-0.020294-0.055716-0.03125-0.09375-0.003409-0.051965 0.007215-0.037281 0-0.0625-0.010811-0.024328-0.028315-0.087502-0.03125-0.09375-0.014258-0.16004-0.011004-0.31626-0.03125-0.46875 0.00974 0.073372 0.03351-0.004022 0-0.21875-0.040575-0.26015-0.12788-0.48288-0.1875-0.71875-0.001071 0.011934 0.00969 0.0042145-0.03125-0.15625-0.001703-0.032344 0.017153-0.028029 0-0.09375-0.054676-0.20938-0.12668-0.3628-0.1875-0.53125-3.69e-4 -0.0057709 7.93e-4 -0.023434 0-0.03125-4.07e-4 -0.0063145 8.49e-4 -0.022939 0-0.03125-0.001004-0.0065328 0.003106-0.018561 0-0.03125-0.003504-0.022666-0.031152-0.093469-0.03125-0.09375-0.014508-0.041697-0.028488-0.096236-0.0625-0.1875-0.0689-0.18488-0.15836-0.33051-0.21875-0.46875-0.033043-0.07564-0.046358-0.096428-0.03125-0.0625-0.005266-0.015381 0.006995-0.015625 0-0.03125-0.087732-0.19498-0.16895-0.34044-0.21875-0.4375-0.086113-0.16881-0.19534-0.36559-0.3125-0.5625-0.1261-0.21195-0.22912-0.44085-0.40625-0.6875-0.030378-0.042304-0.018532-0.015986-0.03125-0.03125-0.039812-0.055151-0.024136-0.023868-0.03125-0.03125-0.001482-2.469e-4 1.09e-4 -0.032714 0-0.03125-0.19334-0.2657-0.36555-0.43823-0.5-0.59375-0.16439-0.19015-0.3677-0.40638-0.59375-0.625-0.21731-0.21017-0.43248-0.37502-0.625-0.53125-0.28233-0.22911-0.57847-0.464-0.9375-0.6875-0.010415-2.911e-4 -0.020835-2.911e-4 -0.03125 0-0.029067-0.023936-0.060476-0.044876-0.09375-0.0625-0.020162-0.011709-0.041036-0.022146-0.0625-0.03125-0.032945-0.0168-0.059491-0.047358-0.09375-0.0625 0.086739 0.049834 0.054951 0.0058402-0.125-0.09375-0.11387-0.06398-0.24654-0.086092-0.375-0.0625z" style="fill-rule:evenodd;fill:#eae3d0;opacity:.6"/>
  <path id="path2404" d="m12.052 1.5594c-0.5543 0-1.0005 0.44624-1.0005 1.0005v7.504c0 0.5543 0.44624 1.0005 1.0005 1.0005 0.5543 0 1.0005-0.44624 1.0005-1.0005v-7.504c0-0.5543-0.44624-1.0005-1.0005-1.0005zm-4.5493 2.6577c-0.097036 0.036163-0.18123 0.087849-0.26577 0.1407-8.25e-5 -1.315e-4 0-0.015633 0-0.015633-0.54183 0.33729-1.0371 0.73915-1.4852 1.1725-0.38165 0.36911-0.72393 0.76208-1.0318 1.1881-0.1261 0.17451-0.24647 0.34885-0.35957 0.53153-0.06713 0.10707-0.12472 0.21769-0.1876 0.3283-0.069949 0.1242-0.13925 0.2479-0.20323 0.3752-0.029915 0.059215-0.065098 0.11183-0.0938 0.17197-0.10821 0.22741-0.20807 0.46777-0.29703 0.7035-0.0041153 0.010913-0.011557 0.020327-0.015633 0.031267-0.0017559 0.0047115 0.0017474 0.010921 0 0.015633-0.063345 0.17059-0.11894 0.3416-0.17197 0.5159-0.092935 0.30569-0.17534 0.61455-0.2345 0.92237-0.0169 0.087863-0.032602 0.17731-0.0469 0.26577-0.013427 0.083133-0.020232 0.16699-0.031267 0.25013-0.025079 0.1889-0.04948 0.37186-0.062533 0.5628-0.015235 0.22061-0.016734 0.43719-0.015633 0.6566 0.0010521 0.20977 0.015616 0.41739 0.031267 0.62533 0.0077186 0.10312 0.0042887 0.20944 0.015633 0.31267 0.018553 0.16829 0.050246 0.33384 0.078167 0.50027 0.0069137 0.041355 0.0081239 0.083725 0.015633 0.12507 0.033872 0.18581 0.079732 0.36433 0.12507 0.54717 0.042934 0.17338 0.086921 0.34342 0.1407 0.5159 0.044169 0.1415 0.08969 0.28306 0.1407 0.4221 0.0057391 0.015659 0.0098017 0.031252 0.015633 0.0469 0.033456 0.089773 0.07344 0.1777 0.10943 0.26577 0.053342 0.13041 0.11262 0.26307 0.17197 0.39083 0.07391 0.1593 0.15236 0.31591 0.2345 0.469 0.091216 0.16978 0.17942 0.33646 0.2814 0.50027 0.013755 0.022118 0.03297 0.040565 0.0469 0.062534 0.10897 0.17168 0.22336 0.33598 0.34393 0.50027 0.12553 0.17099 0.25456 0.33986 0.39083 0.50027 0.026051 0.030752 0.051685 0.063376 0.078167 0.0938 0.019193 0.021979 0.043144 0.040762 0.062533 0.062533 0.11605 0.13031 0.23671 0.25248 0.35957 0.3752 0.12272 0.12286 0.24489 0.24351 0.3752 0.35957 0.052446 0.046577 0.10288 0.095422 0.15633 0.1407 0.1707 0.14502 0.34887 0.28928 0.53153 0.4221 0.057414 0.041715 0.11363 0.084751 0.17197 0.12507 0.17255 0.11935 0.34915 0.23599 0.53153 0.34393 0.07679 0.045424 0.15644 0.081953 0.2345 0.12507 0.18341 0.10129 0.3703 0.19208 0.5628 0.2814 0.12777 0.059352 0.26042 0.11863 0.39083 0.17197 0.088062 0.035994 0.17599 0.075977 0.26577 0.10943 0.015649 0.005833 0.031239 0.009895 0.0469 0.015634 0.15929 0.05844 0.32214 0.10688 0.48463 0.15633 0.16732 0.050868 0.33216 0.10002 0.50027 0.1407 0.2734 0.066162 0.53871 0.13217 0.81293 0.17197 0.061579 0.008961 0.12577 0.007944 0.1876 0.015633 0.23907 0.029577 0.48082 0.052375 0.71914 0.062534 0.25776 0.010986 0.51041 0.011155 0.76603 0 0.23832-0.010159 0.48007-0.032957 0.71913-0.062534 0.051814-0.00641 0.10452-0.008298 0.15633-0.015633 0.041221-0.005855 0.083963-0.009213 0.12507-0.015633 0.24378-0.038023 0.49171-0.097436 0.73477-0.15633 0.16722-0.040522 0.33382-0.090098 0.50027-0.1407 0.15876-0.048311 0.3133-0.099441 0.469-0.15633 0.15408-0.056303 0.30265-0.12306 0.45337-0.1876 0.077793-0.03325 0.1581-0.058596 0.2345-0.0938 0.23428-0.10796 0.46704-0.21838 0.68787-0.34393 0.022265-0.01266 0.040408-0.03407 0.062533-0.046901 0.19437-0.11272 0.37943-0.23399 0.5628-0.35957 0.096223-0.065893 0.18828-0.13397 0.2814-0.20323 0.045127-0.033474 0.09617-0.059461 0.1407-0.0938 0.17235-0.13334 0.33928-0.27764 0.50027-0.4221 0.057606-0.051532 0.11562-0.10324 0.17197-0.15633 0.043041-0.040669 0.082909-0.083618 0.12507-0.12507 0.13684-0.13412 0.27787-0.26308 0.40647-0.40647 0.079517-0.088663 0.14267-0.18927 0.21887-0.2814 0.11327-0.13696 0.22272-0.27764 0.3283-0.4221 0.019448-0.026611 0.043354-0.051306 0.062533-0.078167 0.026282-0.03683 0.052456-0.072233 0.078167-0.10943 0.11935-0.17255 0.23599-0.34915 0.34393-0.53154 0.01555-0.026274 0.031594-0.051691 0.0469-0.078166 0.097773-0.16918 0.19482-0.34089 0.2814-0.5159 0.010066-0.020418 0.021341-0.042011 0.031267-0.062533 0.12474-0.25711 0.22835-0.52945 0.3283-0.7973 0.083953-0.22498 0.15296-0.45655 0.21887-0.68787 0.007665-0.026908 0.023848-0.051182 0.031266-0.078168 0.003057-0.011136 0.01262-0.020126 0.015633-0.031266 0.040834-0.1508 0.076424-0.30036 0.10943-0.45337 0.038139-0.17731 0.066675-0.35393 0.0938-0.53153 0.004774-0.031257 0.011196-0.062542 0.015633-0.0938 0.02045-0.144 0.033438-0.29246 0.0469-0.43773 0.013399-0.14507 0.024983-0.293 0.031267-0.43773 0.001138-0.026085-9.11e-4 -0.052055 0-0.078167 0.007447-0.21418 0.007828-0.42824 0-0.64097-0.001922-0.052232 0.00283-0.10422 0-0.15633-0.001719-0.03123-0.013584-0.062551-0.015634-0.0938-0.013066-0.2014-0.036093-0.39492-0.062533-0.59407-0.009028-0.067999-0.00507-0.13555-0.015633-0.20323-0.043606-0.27958-0.10086-0.56568-0.17197-0.8442-0.004118-0.016141-0.011427-0.030784-0.015633-0.0469-0.058986-0.22589-0.12566-0.44808-0.20323-0.67223-0.001561-0.0045039 0.001568-0.011132 0-0.015633-0.021947-0.06308-0.039093-0.1247-0.062533-0.1876-0.058036-0.15573-0.13754-0.30299-0.20323-0.45337-0.008415-0.019263-0.007095-0.043359-0.015633-0.062534-0.004781-0.010791-0.010811-0.020494-0.015634-0.031267-0.062609-0.13915-0.13428-0.27208-0.20323-0.40647-0.089245-0.17496-0.18089-0.34697-0.2814-0.5159-0.13255-0.22278-0.27053-0.44554-0.4221-0.6566-0.004257-0.0059266-0.011363-0.0097167-0.015634-0.015633-0.006774-0.0092575-0.008825-0.02204-0.015633-0.031267-0.14769-0.20297-0.31982-0.3878-0.48463-0.57843-0.1738-0.20103-0.35499-0.39258-0.54717-0.57843-0.18529-0.1792-0.37668-0.35217-0.57843-0.5159-0.28613-0.2322-0.57333-0.45879-0.8911-0.6566 0 0-0.015551 0.015502-0.015633 0.015633-0.080651-0.050422-0.15852-0.10551-0.25013-0.1407-0.003859-0.0022245-0.011771 0.0022188-0.015634 0-0.042849-0.024618-0.081838-0.054243-0.12507-0.078167l-0.015633 0.0469c-0.73571-0.19211-1.511 0.1946-1.7822 0.92237-0.24269 0.65121 0.020434 1.352 0.5628 1.7353l-0.015633 0.031267c0.10704 0.064667 0.20969 0.13207 0.31267 0.20323 0.065644 0.045687 0.12416 0.092654 0.1876 0.1407 0.040769 0.030546 0.085048 0.062207 0.12507 0.0938 0.10696 0.085544 0.21249 0.17371 0.31267 0.26577 0.027537 0.024945 0.05107 0.052684 0.078167 0.078167 0.095082 0.090744 0.19291 0.16944 0.2814 0.26577 0.051188 0.054925 0.091481 0.11494 0.1407 0.17197 0.028198 0.033044 0.066356 0.060191 0.0938 0.0938 0.087406 0.10595 0.16974 0.2312 0.25013 0.34393 0.004182 0.0059233 0.011475 0.0096963 0.015634 0.015634 0.096532 0.1364 0.1802 0.27609 0.26577 0.4221 0.05671 0.096763 0.12036 0.19615 0.17197 0.29703 0.045429 0.089008 0.084112 0.17463 0.12507 0.26577 0.018522 0.041099 0.029227 0.083348 0.046901 0.12507 0.056522 0.13371 0.10955 0.26892 0.15633 0.40647 0.046816 0.13765 0.088266 0.28117 0.12507 0.4221 0.051231 0.19619 0.094339 0.38142 0.12507 0.57844 0.030728 0.19701 0.051716 0.39753 0.062533 0.59407 0.010819 0.19654 0.008499 0.3993 0 0.59407-0.004365 0.10102-0.006049 0.19576-0.015633 0.29703-0.008859 0.094291-0.017991 0.18792-0.031266 0.2814-0.001455 0.010202 0.001508 0.021066 0 0.031266-0.025189 0.17099-0.069788 0.33276-0.10943 0.50027-0.01695 0.071804-0.027174 0.14725-0.046901 0.21887-0.01431 0.051849-0.031218 0.10492-0.046899 0.15633-0.030734 0.10073-0.057433 0.19692-0.0938 0.29703-0.023127 0.063895-0.052909 0.12455-0.078168 0.1876-0.053231 0.13247-0.11046 0.26425-0.17197 0.39083-0.013141 0.027091-0.033355 0.051273-0.0469 0.078167-0.079594 0.15772-0.15835 0.32104-0.25013 0.469-0.069252 0.11189-0.14228 0.22098-0.21887 0.3283-0.019645 0.027379-0.042468 0.05118-0.062533 0.078166-0.063837 0.086384-0.13468 0.1671-0.20323 0.25013-0.055733 0.067084-0.11359 0.13892-0.17197 0.20323-0.066208 0.073305-0.13323 0.1487-0.20323 0.21887-0.07017 0.07-0.14556 0.13703-0.21887 0.20323-0.072354 0.065576-0.14301 0.12537-0.21887 0.1876-0.10346 0.084775-0.2041 0.17266-0.31267 0.25013-0.039896 0.028438-0.08435 0.050635-0.12507 0.078167-0.11869 0.080371-0.23568 0.1629-0.35957 0.2345-0.033778 0.019472-0.07517 0.028032-0.10943 0.0469-0.13381 0.073885-0.26752 0.15537-0.40647 0.21887-0.061902 0.028144-0.12434 0.051945-0.1876 0.078166-0.10319 0.042978-0.20718 0.072225-0.31267 0.10943-0.010781 0.003793-0.020477 0.011907-0.031266 0.015633-0.15035 0.052055-0.29906 0.10062-0.45337 0.1407-0.16977 0.04433-0.32982 0.080484-0.50027 0.10943-0.035742 0.006127-0.073551 0.010149-0.10943 0.015633-0.098508 0.014838-0.19858 0.021434-0.29703 0.031266-0.28712 0.029313-0.56779 0.044205-0.85983 0.031267-0.020918-9.13e-4 -0.041644 0.001132-0.062533 0-0.067038-0.00369-0.13609-0.009649-0.20323-0.015633-0.13167-0.011676-0.26077-0.026638-0.39084-0.0469-0.16017-0.024982-0.32493-0.055304-0.48463-0.093801-0.036223-0.00877-0.073403-0.021831-0.10943-0.031266-0.036696-0.009583-0.072792-0.020955-0.10943-0.031267-0.15712-0.044272-0.31624-0.099582-0.469-0.15633-0.011101-0.004137-0.020205-0.011438-0.031267-0.015634-0.17127-0.064961-0.33857-0.12468-0.50027-0.20323-0.027294-0.01326-0.051153-0.033267-0.078167-0.046901-0.15772-0.079594-0.32104-0.15835-0.469-0.25013-0.012141-0.007532-0.019193-0.023656-0.031267-0.031267-0.16241-0.10237-0.31903-0.21227-0.469-0.3283-0.094265-0.072929-0.19222-0.14091-0.2814-0.21887-0.03586-0.031215-0.074276-0.061693-0.10943-0.0938-0.064923-0.059567-0.1256-0.12545-0.1876-0.1876-0.062153-0.062004-0.12803-0.12268-0.1876-0.1876-0.11266-0.12336-0.21113-0.25911-0.31267-0.39083-0.11603-0.14997-0.22593-0.30659-0.3283-0.469-0.0063388-0.010056-0.0093489-0.021163-0.015633-0.031267-0.10293-0.16548-0.1938-0.33821-0.2814-0.5159-0.02542-0.051561-0.054103-0.10378-0.078167-0.15633-0.03992-0.087351-0.073713-0.17659-0.10943-0.26577-0.019195-0.04777-0.044452-0.092183-0.062534-0.1407-0.007613-0.020427-0.0082573-0.042077-0.015633-0.062533-0.020447-0.05692-0.043795-0.11443-0.062533-0.17197-0.040007-0.12285-0.092984-0.24981-0.12507-0.3752-0.034273-0.13395-0.053149-0.27008-0.078167-0.40647-0.023728-0.12949-0.047538-0.26131-0.062534-0.39083-0.011563-0.099871-0.0091734-0.19734-0.015633-0.29703-0.0070513-0.10858-0.014539-0.21899-0.015633-0.3283-0.0014097-0.16978 0.002691-0.34786 0.015633-0.5159 0.012942-0.16805 0.035628-0.3348 0.062533-0.50027 0.03034-0.18659 0.061864-0.36499 0.10943-0.54717 0.0081299-0.031133 0.022612-0.062706 0.031267-0.0938 0.039569-0.14203 0.090921-0.28357 0.1407-0.4221 0.0088548-0.02473 0.0064335-0.05348 0.015633-0.078167 0.024358-0.065358 0.051788-0.12366 0.078167-0.1876 0.024027-0.058274 0.052332-0.11448 0.078167-0.17197 0.058336-0.12945 0.12115-0.252 0.1876-0.3752 0.059152-0.11005 0.12166-0.22201 0.1876-0.3283 0.05691-0.091737 0.12575-0.17708 0.1876-0.26577 0.058071-0.082438 0.11013-0.17127 0.17197-0.25013 0.043507-0.056152 0.079515-0.1173 0.12507-0.17197 0.023698-0.028101 0.053991-0.050562 0.078167-0.078167 0.084668-0.096679 0.17548-0.19089 0.26577-0.2814 0.11606-0.11636 0.23493-0.22238 0.35957-0.3283 0.079174-0.067285 0.15213-0.14025 0.2345-0.20323 0.020446-0.015796 0.041852-0.031349 0.062534-0.0469 0.093415-0.069534 0.18429-0.13925 0.2814-0.20323 0.025259-0.016793 0.0526-0.030459 0.078167-0.0469 0.041705-0.026592 0.082743-0.052597 0.12507-0.078167 0.63283-0.52224 0.6244-1.0188 0.5628-1.7666-0.27031-0.72532-1.0487-1.1099-1.7822-0.92237-0.020738-0.087964-0.10376 0.020751-0.15633 0.031267z" style="fill-rule:evenodd;fill:#3a3935"/>
 </g>
</svg>
