<?xml version="1.0" encoding="UTF-8" standalone="no"?>
<svg
   xmlns:dc="http://purl.org/dc/elements/1.1/"
   xmlns:cc="http://creativecommons.org/ns#"
   xmlns:rdf="http://www.w3.org/1999/02/22-rdf-syntax-ns#"
   xmlns:svg="http://www.w3.org/2000/svg"
   xmlns="http://www.w3.org/2000/svg"
   xmlns:xlink="http://www.w3.org/1999/xlink"
   id="svg8860"
   height="16"
   width="16"
   version="1.1">
  <defs
     id="defs8862">
    <linearGradient
       gradientTransform="matrix(0.89189031,0,0,0.94046961,3.14398,5.346537)"
       gradientUnits="userSpaceOnUse"
       xlink:href="#linearGradient3454-2-5-0-3-8"
       id="linearGradient10270-0"
       y2="8.1721792"
       x2="11.350123"
       y1="0.66696572"
       x1="11.350123" />
    <linearGradient
       id="linearGradient3454-2-5-0-3-8">
      <stop
         offset="0"
         style="stop-color:#ffffff;stop-opacity:1"
         id="stop3456-4-9-38-1-9" />
      <stop
         offset="0.0097359"
         style="stop-color:#ffffff;stop-opacity:0.23529412"
         id="stop3458-39-80-3-5-6" />
      <stop
         offset="0.99001008"
         style="stop-color:#ffffff;stop-opacity:0.15686275"
         id="stop3460-7-0-2-4-4" />
      <stop
         offset="1"
         style="stop-color:#ffffff;stop-opacity:0.39215687"
         id="stop3462-0-9-8-7-8" />
    </linearGradient>
    <linearGradient
       id="linearGradient3104-8-8-97-4-6-11-5-5-4-4">
      <stop
         offset="0"
         style="stop-color:#000000;stop-opacity:0.32173914"
         id="stop3106-5-4-3-5-0-2-1-0-7-7" />
      <stop
         offset="1"
         style="stop-color:#000000;stop-opacity:0.27826086"
         id="stop3108-4-3-7-8-2-0-7-9-0-6" />
    </linearGradient>
    <linearGradient
       id="linearGradient4346">
      <stop
         offset="0"
         style="stop-color:#ffffff;stop-opacity:1"
         id="stop4348" />
      <stop
         offset="1"
         style="stop-color:#d8d8d8;stop-opacity:1"
         id="stop4350" />
    </linearGradient>
    <linearGradient
       gradientTransform="matrix(0.59680467,0,0,0.34757012,-0.37047501,-1.117049)"
       gradientUnits="userSpaceOnUse"
       xlink:href="#radialGradient2444"
       id="linearGradient12481"
       y2="44.805866"
       x2="15.029637"
       y1="16.073452"
       x1="15.029637" />
    <radialGradient
       r="23.097"
       gradientTransform="matrix(1.5647,-9.5143e-8,6.1772e-8,1.0159,-59.14917,8.1461003)"
       cx="63.969002"
       cy="14.113"
       gradientUnits="userSpaceOnUse"
       id="radialGradient2444">
      <stop
         offset="0"
         style="stop-color:#ad7fa8"
         id="stop3618" />
      <stop
         offset="0.6875183"
         style="stop-color:#75507b"
         id="stop3270" />
      <stop
         offset="1"
         style="stop-color:#5c3566"
         id="stop3620" />
    </radialGradient>
    <linearGradient
       y2="15.385052"
       x2="62.988873"
       y1="11.645091"
       x1="62.988873"
       gradientTransform="matrix(0.33333327,0,0,0.32971018,-17.44063,-0.6478427)"
       gradientUnits="userSpaceOnUse"
       id="linearGradient4289"
       xlink:href="#linearGradient4346" />
    <linearGradient
       y2="2.0612748"
       x2="-51.786404"
       y1="53.514328"
       x1="-51.786404"
       gradientTransform="matrix(0.31070043,0,0,0.27489387,20.17717,-0.1031627)"
       gradientUnits="userSpaceOnUse"
       id="linearGradient4291"
       xlink:href="#linearGradient3104-8-8-97-4-6-11-5-5-4-4" />
    <radialGradient
       id="radialGradient2882"
       xlink:href="#linearGradient6954-6"
       gradientUnits="userSpaceOnUse"
       cy="28.66"
       cx="25"
       gradientTransform="matrix(0.51375167,0,0,0.13387867,-4.2550246,6.8824926)"
       r="16" />
    <linearGradient
       id="linearGradient6954-6">
      <stop
         id="stop6960-4"
         style="stop-color:#f5f5f5"
         offset="0" />
      <stop
         id="stop6962-9"
         style="stop-color:#d2d2d2"
         offset="1" />
    </linearGradient>
    <radialGradient
       id="radialGradient2872"
       xlink:href="#linearGradient6954-6"
       gradientUnits="userSpaceOnUse"
       cy="12.313"
       cx="26.375999"
       gradientTransform="matrix(0.50601265,-0.03615318,0.03952485,0.4321763,-4.4730908,0.52838525)"
       r="8" />
    <linearGradient
       id="linearGradient2868"
       y2="25.792999"
       xlink:href="#linearGradient3341"
       gradientUnits="userSpaceOnUse"
       x2="30"
       gradientTransform="matrix(0.3085166,0,0,0.27268347,1.2024753,1.9538243)"
       y1="0.91817999"
       x1="30" />
    <linearGradient
       id="linearGradient3341">
      <stop
         id="stop3343"
         style="stop-color:#fff"
         offset="0" />
      <stop
         id="stop3345"
         style="stop-color:#fff;stop-opacity:0"
         offset="1" />
    </linearGradient>
    <linearGradient
       id="linearGradient2897"
       y2="43.144001"
       xlink:href="#linearGradient3341"
       gradientUnits="userSpaceOnUse"
       x2="29.955999"
       gradientTransform="matrix(0.38733551,0,0,0.3589712,-1.0851415,-0.26225353)"
       y1="21.865999"
       x1="29.955999" />
  </defs>
  <metadata
     id="metadata8865">
    <rdf:RDF>
      <cc:Work
         rdf:about="">
        <dc:format>image/svg+xml</dc:format>
        <dc:type
           rdf:resource="http://purl.org/dc/dcmitype/StillImage" />
        <dc:title />
      </cc:Work>
    </rdf:RDF>
  </metadata>
  <path
     d="m 1.010327,1.976667 0.01299,4.9999999 13.999999,0 0,-3.9999999 -6.7495844,0 -2.065922,-1 z"
     id="rect4170-0-9"
     style="color:#000000;display:inline;overflow:visible;visibility:visible;fill:url(#linearGradient4289);fill-opacity:1;fill-rule:nonzero;stroke:none;stroke-width:0.99992168;marker:none;enable-background:accumulate" />
  <path
     d="m 15.52332,3.9999999 0,-1.2733329 c 0,-0.1385 -0.1115,-0.25 -0.25,-0.25 l -6.7499994,0 c -0.495281,0 -1.723724,-0.96875 -2.25,-0.96875 l -5.5003206,0 c -0.1385,0 -0.25,0.1115 -0.25,0.25 l 3.2e-4,2.2420829"
     id="rect4170-1"
     style="color:#000000;display:inline;overflow:visible;visibility:visible;opacity:0.8;fill:none;stroke:url(#linearGradient4291);stroke-width:1;stroke-linecap:butt;stroke-linejoin:miter;stroke-miterlimit:4;stroke-dasharray:none;stroke-dashoffset:0;stroke-opacity:1;marker:none;enable-background:accumulate" />
  <path
     d="m 0.55988,4.453367 c 0.75732,0 14.39951,0.0316 14.98675,0.0316 0,0.6186 -0.0285,10.00962 -0.0624,10.00962 -5.26001,0.0178 -13.45265,-0.014 -14.98423,-0.014 0,-1.16748 0.0599,-7.62459 0.0599,-10.02721 z"
     id="rect3086"
     style="color:#000000;display:inline;overflow:visible;visibility:visible;fill:url(#linearGradient12481);fill-opacity:1;fill-rule:nonzero;stroke:none;stroke-width:1;marker:none;enable-background:accumulate;clip-rule:nonzero;opacity:1;isolation:auto;mix-blend-mode:normal;color-interpolation:sRGB;color-interpolation-filters:linearRGB;solid-color:#000000;solid-opacity:1;stroke-linecap:butt;stroke-linejoin:miter;stroke-miterlimit:4;stroke-dasharray:none;stroke-dashoffset:0;stroke-opacity:1;filter-blend-mode:normal;filter-gaussianBlur-deviation:0;color-rendering:auto;image-rendering:auto;shape-rendering:auto;text-rendering:auto" />
  <path
     d="M 1.57504,5.476667 14.52332,5.501767 14.5,13.5 1.52332,13.461217 Z"
     id="rect3086-9"
     style="color:#000000;display:inline;overflow:visible;visibility:visible;opacity:0.5;fill:none;stroke:url(#linearGradient10270-0);stroke-width:1;stroke-linecap:round;stroke-linejoin:miter;stroke-miterlimit:4;stroke-dasharray:none;stroke-dashoffset:0;stroke-opacity:1;marker:none;enable-background:accumulate" />
  <path
     d="m 0.55988,4.453367 14.98675,0.0316 -0.0624,10.00962 L 0.5,14.480587 Z"
     id="rect3086-0"
     style="color:#000000;display:inline;overflow:visible;visibility:visible;opacity:0.3;fill:none;stroke:#000000;stroke-width:1;stroke-linecap:round;stroke-linejoin:round;stroke-miterlimit:4;stroke-dasharray:none;stroke-dashoffset:0;stroke-opacity:1;marker:none;enable-background:accumulate" />
  <path
     d="M 9.4713356,7.8673784 C 9.3976016,8.4440657 10.01096,9.6481598 9.6713503,10.172737 8.3502222,10.60086 5.969261,11.382054 5.842506,11.895185 c -0.093601,0.797023 -0.2340023,1.960021 -0.3428797,2.755832 2.3159352,1.16014 7.7645697,1.104266 10.0011907,0 -0.07891,-0.564665 -0.149679,-2.191151 -0.228589,-2.755832 C 14.674565,11.233338 13.100724,10.84603 11.443384,10.172737 11.010301,9.6502455 11.665993,8.4825929 11.529108,7.8938319 11.267209,7.8520726 9.7370449,7.8737145 9.4718119,7.8673335 l -2.8e-6,-1e-7 z"
     style="fill:url(#radialGradient2882);stroke:none;stroke-width:0.9992035;stroke-linejoin:round"
     id="path2880" />
  <path
     d="M 9.4713356,7.867378 C 9.3976016,8.4440653 10.01096,9.6481594 9.6713503,10.172737 8.3502222,10.60086 5.969261,11.382054 5.842506,11.895185 c -0.093601,0.797023 -0.2340023,1.960021 -0.3428797,2.755832 2.3159352,1.16014 7.7645697,1.104266 10.0011907,0 -0.07891,-0.564665 -0.149679,-2.191151 -0.228589,-2.755832 C 14.674565,11.233338 13.100724,10.84603 11.443384,10.172737 11.010301,9.6502451 11.665993,8.4825925 11.529108,7.8938315 11.267209,7.8520722 9.7370449,7.8737141 9.4718119,7.8673331 l -2.8e-6,-10e-8 z"
     style="fill:none;stroke:url(#linearGradient4291);stroke-width:1;stroke-linejoin:miter;color:#000000;clip-rule:nonzero;display:inline;overflow:visible;visibility:visible;opacity:0.8;isolation:auto;mix-blend-mode:normal;color-interpolation:sRGB;color-interpolation-filters:linearRGB;solid-color:#000000;solid-opacity:1;fill-opacity:1;fill-rule:nonzero;stroke-linecap:butt;stroke-miterlimit:4;stroke-dasharray:none;stroke-dashoffset:0;stroke-opacity:1;marker:none;filter-blend-mode:normal;filter-gaussianBlur-deviation:0;color-rendering:auto;image-rendering:auto;shape-rendering:auto;text-rendering:auto;enable-background:accumulate"
     id="path2880-9" />
  <path
     d="m 10.4579,3.4495518 c -1.2778995,0 -2.3182248,0.8534659 -2.3182248,1.9077075 0.010025,0.3901389 0.05399,0.8525332 0.3148268,1.9077075 0.1542583,0.4090294 1.5330581,1.5064106 1.545514,1.6427481 0.299156,0.1363375 0.779067,0.1363375 1.087584,0 0,-0.136346 1.219559,-1.2337357 1.37379,-1.6427481 0.293514,-1.0966351 0.299083,-1.4986951 0.314826,-1.9077075 0,-1.0542416 -1.040325,-1.9077075 -2.318224,-1.9077075 z"
     style="fill:url(#radialGradient2872);stroke:none;stroke-width:0.83462876"
     id="path2870" />
  <path
     d="m 10.4579,4.2974218 c -0.5608727,-0.012633 -1.1603946,0.280221 -1.3452152,0.7947933 -0.1040233,0.3480422 -0.00931,0.7095315 0.028621,1.0598375 0.047826,0.2866988 0.1037486,0.5647492 0.1717237,0.84787 0.1777593,0.1453673 0.3307537,0.3369944 0.5151713,0.4769269 0.2412372,0.2171395 0.4495952,0.4419946 0.6865282,0.6624408 0.246366,-0.1842422 0.411221,-0.426733 0.630112,-0.6359025 0.140126,-0.152447 0.283916,-0.3286344 0.429538,-0.4769269 0.14379,-0.602242 0.310477,-1.2058407 0.257357,-1.8282621 -0.114483,-0.5822323 -0.775734,-0.9153604 -1.37379,-0.900777 z"
     style="fill:none;stroke:url(#linearGradient2868);stroke-width:0.83462876"
     id="path2866" />
  <path
     d="m 10.518347,10.186133 c 0.03695,0.5249 -0.438377,0.934438 -0.9613785,1.007863 -0.9607371,0.320453 -1.9590245,0.599606 -2.8275346,1.113932 -0.20333,0.45891 -0.094315,0.985055 -0.2261991,1.458675 -0.2994312,0.601691 0.5149057,0.658643 0.9330782,0.769137 2.0413604,0.458901 4.209293,0.423554 6.248821,-0.02652 0.303873,-0.143087 1.029885,-0.07209 0.848261,-0.530436 -0.05631,-0.498624 -0.08317,-1.011339 -0.1131,-1.511752 -0.832517,-0.60114 -1.888503,-0.81226 -2.82726,-1.220085 -0.744594,-0.0992 -0.77207,-0.610467 -1.074304,-1.060601 z"
     style="fill:none;stroke:url(#linearGradient2897);stroke-width:0.87640691;stroke-linejoin:round"
     id="path2876" />
  <path
     d="m 10.4579,3.4495514 c -1.2778995,0 -2.3182248,0.8534659 -2.3182248,1.9077075 0.010025,0.3901389 0.05399,0.8525332 0.3148268,1.9077075 0.1542583,0.4090294 1.5330581,1.5064106 1.545514,1.6427481 0.299156,0.1363375 0.779067,0.1363375 1.087584,0 0,-0.136346 1.219559,-1.2337357 1.37379,-1.6427481 0.293514,-1.0966351 0.299083,-1.4986951 0.314826,-1.9077075 0,-1.0542416 -1.040325,-1.9077075 -2.318224,-1.9077075 z"
     style="fill:none;stroke:url(#linearGradient4291);stroke-width:1;color:#000000;clip-rule:nonzero;display:inline;overflow:visible;visibility:visible;opacity:0.8;isolation:auto;mix-blend-mode:normal;color-interpolation:sRGB;color-interpolation-filters:linearRGB;solid-color:#000000;solid-opacity:1;fill-opacity:1;fill-rule:nonzero;stroke-linecap:butt;stroke-linejoin:miter;stroke-miterlimit:4;stroke-dasharray:none;stroke-dashoffset:0;stroke-opacity:1;marker:none;filter-blend-mode:normal;filter-gaussianBlur-deviation:0;color-rendering:auto;image-rendering:auto;shape-rendering:auto;text-rendering:auto;enable-background:accumulate"
     id="path2870-1" />
</svg>
