<?xml version="1.0" encoding="UTF-8"?>
<!-- Created with Inkscape (http://www.inkscape.org/) -->
<svg id="svg3740" width="16" height="16" version="1.1" xmlns="http://www.w3.org/2000/svg" xmlns:xlink="http://www.w3.org/1999/xlink">
 <defs id="defs3742">
  <linearGradient id="linearGradient6349" x1="-22.54" x2="-22.54" y1="11.109" y2="46.264" gradientTransform="matrix(.5062 0 0 .59014 12.661 -11.872)" gradientUnits="userSpaceOnUse">
   <stop id="stop3968" style="stop-color:#828282" offset="0"/>
   <stop id="stop3936" style="stop-color:#434343" offset="1"/>
  </linearGradient>
 </defs>
 <g id="layer1">
  <path id="text2044" d="m15.5 15.413c-0.77478 0.041855-1.6475-0.27392-1.6856-1.1665-0.47608-2.5529-0.86442-5.122-1.3042-7.6816-0.36408-2.1829-0.72816-4.3658-1.0922-6.5486-0.30747-0.056291-0.53662 0.024711-0.63334 0.33785-2.537 4.2215-5.0445 8.4608-7.6018 12.67-0.62231 0.88195-1.1835 2.0291-2.3195 2.3164-0.42225-0.14586-0.43306 0.55813-0.25227 0.64734h4.6118c0.084661-0.46318-0.04225-0.73642-0.58548-0.6276-1.055 0.16662-0.94374-1.0669-0.54689-1.6744 0.48066-0.95901 1.0462-1.8736 1.5646-2.8129h5.2826c0.17186 1.1555 0.44331 2.2996 0.52827 3.4652 0.21848 0.95205-0.85333 1.0399-1.5236 1.0617-0.19729-0.04154-0.26351 0.70147 0.035578 0.58809h5.5221v-0.57497zm-9.3407-5.6894c1.2006-2.0722 2.4012-4.1443 3.6018-6.2165 0.35218 2.0722 0.70435 4.1443 1.0565 6.2165h-4.6583z" style="fill:url(#linearGradient6349)"/>
 </g>
</svg>
