<?xml version="1.0" encoding="UTF-8"?>
<!-- Created with Inkscape (http://www.inkscape.org/) -->
<svg id="svg3150" width="16" height="16" version="1.1" xmlns="http://www.w3.org/2000/svg" xmlns:xlink="http://www.w3.org/1999/xlink">
 <defs id="defs3152">
  <linearGradient id="linearGradient4547" x1="-51.786" x2="-51.786" y1="50.786" y2="2.9062" gradientTransform="matrix(.30004 0 0 .31205 21.157 -.37413)" gradientUnits="userSpaceOnUse">
   <stop id="stop2492" style="stop-color:#2e4a5a" offset="0"/>
   <stop id="stop2494" style="stop-color:#6e8796" offset="1"/>
  </linearGradient>
  <linearGradient id="linearGradient4545" x1="25.132" x2="25.132" y1="6.7287" y2="47.013" gradientTransform="matrix(.37156 0 0 .33344 -.91752 -.0025171)" gradientUnits="userSpaceOnUse">
   <stop id="stop3995" style="stop-color:#a3c0d0" offset="0"/>
   <stop id="stop4001" style="stop-color:#427da1" offset="1"/>
  </linearGradient>
  <linearGradient id="linearGradient4565" x1="17.289" x2="15.18" y1="2.1849" y2="5.8215" gradientTransform="matrix(.68443 0 0 .68201 -.21315 .15692)" gradientUnits="userSpaceOnUse">
   <stop id="stop4561" style="stop-color:#c0c0c0" offset="0"/>
   <stop id="stop4563" style="stop-color:#949492" offset="1"/>
  </linearGradient>
  <linearGradient id="linearGradient4543" x1="32.892" x2="36.358" y1="8.059" y2="5.4565" gradientTransform="matrix(.37071 0 0 .35485 -.85666 -.048951)" gradientUnits="userSpaceOnUse">
   <stop id="stop8591" style="stop-color:#fefefe" offset="0"/>
   <stop id="stop8593" style="stop-color:#cbcbcb" offset="1"/>
  </linearGradient>
 </defs>
 <g id="layer1">
  <path id="rect2594" d="m1.4976 0.49763h7.9177c0.52277 0.16184 4.3537 2.6136 5.0871 3.8903v11.114h-13.005v-15.005z" style="fill:url(#linearGradient4545);stroke-linejoin:round;stroke-width:.99525;stroke:url(#linearGradient4547)"/>
  <g id="g2897" style="opacity:.81">
   <path id="path3296" d="m13.518 13.518-11.037-0.037" style="fill:none;opacity:.15;stroke-linecap:square;stroke-linejoin:round;stroke-width:.963;stroke:#fff"/>
   <path id="path2851" d="m13.518 11.518-11.037-0.037" style="fill:none;opacity:.15;stroke-linecap:square;stroke-linejoin:round;stroke-width:.963;stroke:#fff"/>
   <path id="path2853" d="m8.5 3.5175-6.0185-0.0365" style="fill:none;opacity:.15;stroke-linecap:square;stroke-linejoin:round;stroke-width:.963;stroke:#fff"/>
   <path id="path2855" d="m13.518 9.5185-11.037-0.037" style="fill:none;opacity:.15;stroke-linecap:square;stroke-linejoin:round;stroke-width:.963;stroke:#fff"/>
   <path id="path2857" d="m13.518 7.5185-11.037-0.037" style="fill:none;opacity:.15;stroke-linecap:square;stroke-linejoin:round;stroke-width:.963;stroke:#fff"/>
   <path id="path2861" d="m13.518 5.5185-11.037-0.037" style="fill:none;opacity:.15;stroke-linecap:square;stroke-linejoin:round;stroke-width:.963;stroke:#fff"/>
  </g>
  <g id="g2890" style="opacity:.81">
   <path id="path3332" d="m3.5185 1.4815-0.037 13.037" style="fill:none;opacity:.15;stroke-linecap:square;stroke-linejoin:round;stroke-width:.963;stroke:#fff"/>
   <path id="path2849" d="m11.518 5.4815-0.037 9.037" style="fill:none;opacity:.15;stroke-linecap:square;stroke-linejoin:round;stroke-width:.963;stroke:#fff"/>
   <path id="path2863" d="m5.5185 1.4815-0.037 13.037" style="fill:none;opacity:.15;stroke-linecap:square;stroke-linejoin:round;stroke-width:.963;stroke:#fff"/>
   <path id="path2865" d="m7.5185 1.4815-0.037 13.037" style="fill:none;opacity:.15;stroke-linecap:square;stroke-linejoin:round;stroke-width:.963;stroke:#fff"/>
   <path id="path2867" d="m9.5185 1.4815-0.037 13.037" style="fill:none;opacity:.15;stroke-linecap:square;stroke-linejoin:round;stroke-width:.963;stroke:#fff"/>
  </g>
  <path id="text34519" d="m7.0137 7.7479c-0.44654 0.32816-0.39375 1.1901 0.09328 1.4452 1.11 0.44516 1.83-0.18669 2.0924-1.3591 0.007232-0.17278 0.066134-0.42672-0.16647-0.34746-0.69675-0.037129-1.3607 0.015802-2.0192 0.26132zm2.9863-0.5847c6e-7 0.90631 6e-7 1.8126 6e-7 2.7189h-0.79424c-0.015622-0.20075 0.031589-0.62781-0.024218-0.68383-0.31095 0.50014-0.85332 0.7713-1.3934 0.79737-1.4481 0.077049-2.0822-0.88908-1.6592-2.3549 0.812-0.92909 1.9746-0.76718 3.056-0.76759-0.046498-1.5507-1.8236-1.1983-2.7701-0.89107-0.25095 0.18548-0.10684-0.26724-0.14426-0.42649-0.086851-0.34964 0.33738-0.29403 0.53753-0.39647 0.72901-0.19407 1.5261-0.25054 2.2355 0.060458 0.74286 0.40131 0.89837 1.1213 0.95648 1.9436z" style="fill:#fff;opacity:.9"/>
  <path id="path12038" d="m9.5 0.49792v4.0021h5.0021c0-1.9018-3.0057-4.0021-5.0021-4.0021z" style="fill-rule:evenodd;fill:url(#linearGradient4543);stroke-linejoin:round;stroke-width:.99525;stroke:url(#linearGradient4565)"/>
  <g id="g2916">
   <path id="path3556" d="m4.5185 2.4815-0.037 5.037" style="fill:none;opacity:.72;stroke-linecap:square;stroke-linejoin:round;stroke-width:.963;stroke:#fff"/>
   <path id="path3698" d="m3.5185 3.5 3.963 0.0185" style="fill:none;opacity:.72;stroke-linecap:square;stroke-linejoin:round;stroke-width:.963;stroke:#fff"/>
   <path id="path3700" d="m11.482 13.518 0.037-5.037" style="fill:none;opacity:.72;stroke-linecap:square;stroke-linejoin:round;stroke-width:.963;stroke:#fff"/>
   <path id="path3702" d="m12.444 12.518-3.963-0.0185" style="fill:none;opacity:.72;stroke-linecap:square;stroke-linejoin:round;stroke-width:.963;stroke:#fff"/>
  </g>
 </g>
</svg>
