<?xml version="1.0" encoding="UTF-8"?>
<!-- Created with Inkscape (http://www.inkscape.org/) -->
<svg id="svg3215" width="24" height="24" version="1.0" xmlns="http://www.w3.org/2000/svg" xmlns:cc="http://creativecommons.org/ns#" xmlns:dc="http://purl.org/dc/elements/1.1/" xmlns:rdf="http://www.w3.org/1999/02/22-rdf-syntax-ns#">
 <metadata id="metadata12">
  <rdf:RDF>
   <cc:Work rdf:about="">
    <dc:format>image/svg+xml</dc:format>
    <dc:type rdf:resource="http://purl.org/dc/dcmitype/StillImage"/>
    <dc:title/>
   </cc:Work>
  </rdf:RDF>
 </metadata>
 <g id="g3828" transform="translate(1,1)" style="opacity:.4">
  <path id="rect2406-8" d="m7.5 4c-0.831 0-1.5 0.669-1.5 1.5v13c0 0.831 0.669 1.5 1.5 1.5h8c0.831 0 1.5-0.669 1.5-1.5v-13c0-0.831-0.669-1.5-1.5-1.5h-8zm4 2c1.9334 0 3.5005 1.5671 3.5 3.5 4.62e-4 1.9329-1.5666 3.5-3.5 3.5s-3.5005-1.5671-3.5-3.5c-4.624e-4 -1.9329 1.5666-3.5 3.5-3.5zm0 2c-0.82843 0-1.5 0.67157-1.5 1.5 0 0.82843 0.67157 1.5 1.5 1.5s1.5-0.67157 1.5-1.5c0-0.82843-0.67157-1.5-1.5-1.5zm-2.5 8c0.55243 0 1.0002 0.44778 1 1 2.02e-4 0.55222-0.44757 1-1 1-0.55243 0-1.0002-0.44778-1-1-2.019e-4 -0.55222 0.44757-1 1-1zm5 0c0.55243 0 1.0002 0.44778 1 1 2.02e-4 0.55222-0.44757 1-1 1s-1.0002-0.44778-1-1c-2.02e-4 -0.55222 0.44757-1 1-1z" style="fill-rule:evenodd;opacity:.3"/>
  <path id="rect2406" d="m7.5 3c-0.831 0-1.5 0.669-1.5 1.5v13c0 0.831 0.669 1.5 1.5 1.5h8c0.831 0 1.5-0.669 1.5-1.5v-13c0-0.831-0.669-1.5-1.5-1.5h-8zm4 2c1.9334 0 3.5005 1.5671 3.5 3.5 4.62e-4 1.9329-1.5666 3.5-3.5 3.5s-3.5005-1.5671-3.5-3.5c-4.624e-4 -1.9329 1.5666-3.5 3.5-3.5zm0 2c-0.82843 0-1.5 0.67157-1.5 1.5 0 0.82843 0.67157 1.5 1.5 1.5s1.5-0.67157 1.5-1.5c0-0.82843-0.67157-1.5-1.5-1.5zm-2.5 8c0.55243 0 1.0002 0.44778 1 1 2.02e-4 0.55222-0.44757 1-1 1-0.55243 0-1.0002-0.44778-1-1-2.019e-4 -0.55222 0.44757-1 1-1zm5 0c0.55243 0 1.0002 0.44778 1 1 2.02e-4 0.55222-0.44757 1-1 1s-1.0002-0.44778-1-1c-2.02e-4 -0.55222 0.44757-1 1-1z" style="fill-rule:evenodd;fill:#dfdbd2"/>
  <path id="path3201" d="m14.75 8.5c0 1.7949-1.4551 3.25-3.25 3.25-1.7949 0-3.25-1.4551-3.25-3.25 0-1.7949 1.4551-3.25 3.25-3.25 1.7949 0 3.25 1.4551 3.25 3.25v0z" style="fill:none;opacity:.3;stroke-linecap:round;stroke-width:.5;stroke:#fff"/>
 </g>
</svg>
