<?xml version="1.0" encoding="UTF-8"?>
<!-- Created with Inkscape (http://www.inkscape.org/) -->
<svg id="svg4486" width="19" height="19" version="1.1" viewBox="0 0 19 19" xmlns="http://www.w3.org/2000/svg" xmlns:cc="http://creativecommons.org/ns#" xmlns:dc="http://purl.org/dc/elements/1.1/" xmlns:rdf="http://www.w3.org/1999/02/22-rdf-syntax-ns#">
 <defs id="defs4488">
  <filter id="filter4195" x="-.12" y="-.12" width="1.24" height="1.24" style="color-interpolation-filters:sRGB">
   <feGaussianBlur id="feGaussianBlur4197" stdDeviation="0.75"/>
  </filter>
 </defs>
 <metadata id="metadata4491">
  <rdf:RDF>
   <cc:Work rdf:about="">
    <dc:format>image/svg+xml</dc:format>
    <dc:type rdf:resource="http://purl.org/dc/dcmitype/StillImage"/>
    <dc:title/>
   </cc:Work>
  </rdf:RDF>
 </metadata>
 <g id="layer1" transform="translate(290.21 -522.86)">
  <g id="g4131" transform="translate(-289.71 -511)">
   <path id="path4133" transform="translate(-76.5 938.36)" d="m85.5 97.5a7.5 7.5 0 0 0-7.5 7.5 7.5 7.5 0 0 0 7.5 7.5 7.5 7.5 0 0 0 7.5-7.5 7.5 7.5 0 0 0-7.5-7.5zm-2.5 4.2227 0.38867 0.38867 2.1113 2.1113 2.1113-2.1113 0.38867-0.38867 0.77734 0.77734-0.38867 0.39062-2.1113 2.1094 2.1113 2.1113 0.38867 0.38867-0.77734 0.7793-0.38867-0.38868-2.1113-2.1113-2.1113 2.1113-0.38867 0.38868-0.77734-0.7793 0.38867-0.38867 2.1113-2.1113-2.1113-2.1094-0.38867-0.39062 0.77734-0.77734z" style="color:#000000;fill:#dd4814"/>
   <rect id="rect4135" x="-.5" y="1033.9" width="19" height="19" style="color:#000000;fill:none"/>
   <path id="path4137" transform="translate(-76.5 938.36)" d="m85.5 97.5a7.5 7.5 0 0 0-7.5 7.5 7.5 7.5 0 0 0 7.5 7.5 7.5 7.5 0 0 0 7.5-7.5 7.5 7.5 0 0 0-7.5-7.5zm-2.5 4.2227 0.38867 0.38867 2.1113 2.1113 2.1113-2.1113 0.38867-0.38867 0.77734 0.77734-0.38867 0.39062-2.1113 2.1094 2.1113 2.1113 0.38867 0.38867-0.77734 0.7793-0.38867-0.38868-2.1113-2.1113-2.1113 2.1113-0.38867 0.38868-0.77734-0.7793 0.38867-0.38867 2.1113-2.1113-2.1113-2.1094-0.38867-0.39062 0.77734-0.77734z" style="color:#000000;fill:#dd4814;filter:url(#filter4195)"/>
  </g>
 </g>
</svg>
