<?xml version="1.0" encoding="UTF-8"?>
<!-- Created with Inkscape (http://www.inkscape.org/) -->
<svg id="svg11300" width="32" height="32" version="1.0" xmlns="http://www.w3.org/2000/svg" xmlns:xlink="http://www.w3.org/1999/xlink">
 <defs id="defs3">
  <linearGradient id="linearGradient3028">
   <stop id="stop3030" offset="0"/>
   <stop id="stop3032" style="stop-opacity:0" offset="1"/>
  </linearGradient>
  <linearGradient id="linearGradient5536" x1="-104.53" x2="-104.76" y1="74.24" y2="84.22" gradientTransform="matrix(.24798 0 0 .32066 39.341 -2.125)" gradientUnits="userSpaceOnUse">
   <stop id="stop6546" style="stop-color:#ebebeb" offset="0"/>
   <stop id="stop6548" style="stop-color:#b4b4b4" offset="1"/>
  </linearGradient>
  <linearGradient id="linearGradient5538" x1="15.114" x2="15.031" y1="18" y2="40" gradientTransform="matrix(.65957 0 0 .76191 .17021 -5.5953)" gradientUnits="userSpaceOnUse">
   <stop id="stop7605" style="stop-color:#b4b4b4" offset="0"/>
   <stop id="stop7607" style="stop-color:#8c8c8c" offset="1"/>
  </linearGradient>
  <radialGradient id="radialGradient5544" cx="3" cy="33.214" r="3" gradientTransform="matrix(0 -.75 1.3333 0 -40.286 35)" gradientUnits="userSpaceOnUse" xlink:href="#linearGradient3028"/>
  <radialGradient id="radialGradient5546" cx="3" cy="33.214" r="3" gradientTransform="matrix(0 -.75 1.3333 0 -88.286 -30.5)" gradientUnits="userSpaceOnUse" xlink:href="#linearGradient3028"/>
  <linearGradient id="linearGradient5548" x1="37.031" x2="37.031" y1="35.063" y2="29.995" gradientTransform="matrix(1 0 0 .88889 0 3.8333)" gradientUnits="userSpaceOnUse">
   <stop id="stop3044" style="stop-opacity:0" offset="0"/>
   <stop id="stop3050" offset=".5"/>
   <stop id="stop3046" style="stop-opacity:0" offset="1"/>
  </linearGradient>
  <linearGradient id="linearGradient6347" x1="8.6875" x2="9" y1="5.375" y2="23" gradientTransform="translate(0 -2)" gradientUnits="userSpaceOnUse">
   <stop id="stop4576" style="stop-color:#282828" offset="0"/>
   <stop id="stop4578" style="stop-color:#5a5c58" offset="1"/>
  </linearGradient>
 </defs>
 <g id="g6486">
  <g id="g3052" transform="matrix(.66667 0 0 .66667 0 2.6667)" style="enable-background:new;opacity:.3">
   <rect id="rect3026" y="30.5" width="4" height="4.5" style="fill:url(#radialGradient5544)"/>
   <rect id="rect3036" transform="scale(-1)" x="-48" y="-35" width="4" height="4.5" style="fill:url(#radialGradient5546)"/>
   <rect id="rect3040" x="4" y="30.5" width="40" height="4.5" style="fill:url(#linearGradient5548)"/>
  </g>
  <rect id="rect6674" x=".49999" y="8.5" width="31" height="16" rx="1" ry="1" style="enable-background:new;fill:url(#linearGradient5536);stroke-width:.99997;stroke:url(#linearGradient5538)"/>
  <path id="path6794" d="m27.882 11c0 0.4871-0.17101 0.88196-0.38196 0.88196s-0.38196-0.39487-0.38196-0.88196c0-0.48709 0.17101-0.88196 0.38196-0.88196s0.38196 0.39487 0.38196 0.88196z" style="enable-background:new;fill:#3ce010;stroke-width:.23608;stroke:#297713"/>
  <path id="path6806" d="m29.882 11c0 0.48709-0.17101 0.88196-0.38196 0.88196s-0.38196-0.39487-0.38196-0.88196c0-0.48709 0.17101-0.88196 0.38196-0.88196s0.38196 0.39487 0.38196 0.88196z" style="enable-background:new;fill:#146400;stroke-width:.23608;stroke:#154708"/>
  <path id="path6807" d="m25.882 11c0 0.48709-0.17101 0.88196-0.38196 0.88196s-0.38196-0.39487-0.38196-0.88196c0-0.48709 0.17101-0.88196 0.38196-0.88196s0.38196 0.39487 0.38196 0.88196z" style="enable-background:new;fill:#146400;stroke-width:.23608;stroke:#154708"/>
  <path id="rect5550" d="m2 10v2h2v-2h-2zm3 0v2h4v-2h-4zm5 0v2h4v-2h-4zm5 0v2h4v-2h-4zm5 0v2h4v-2h-4zm-18 3v8h17v-8h-17zm18 0v3h4v-3h-4zm5 0v8h5v-8h-5zm-4 4v2h-1v2h4v-2h-1v-2h-2z" style="fill:url(#linearGradient6347)"/>
  <path id="rect6349" d="m2 10c0.068981 0.68102-0.34334 1.8433 0.75 1.5 1.0933 0.34334 0.68102-0.81898 0.75-1.5h-1.5zm3 0c0.068981 0.68102-0.34334 1.8433 0.75 1.5 1.0933 0.34334 0.68102-0.81898 0.75-1.5h-1.5zm2 0c0.068981 0.68102-0.34334 1.8433 0.75 1.5 1.0933 0.34334 0.68102-0.81898 0.75-1.5h-1.5zm3 0c0.06898 0.68102-0.34334 1.8433 0.75 1.5 1.0933 0.34334 0.68102-0.81898 0.75-1.5h-1.5zm2 0c0.06898 0.68102-0.34334 1.8433 0.75 1.5 1.0933 0.34334 0.68102-0.81898 0.75-1.5h-1.5zm3 0c0.06898 0.68102-0.34334 1.8433 0.75 1.5 1.0933 0.34334 0.68102-0.81898 0.75-1.5h-1.5zm2 0c0.06898 0.68102-0.34334 1.8433 0.75 1.5 1.0933 0.34334 0.68102-0.81898 0.75-1.5h-1.5zm3 0c0.06898 0.68102-0.34334 1.8433 0.75 1.5 1.0933 0.34334 0.68102-0.81898 0.75-1.5h-1.5zm2 0c0.06898 0.68102-0.34334 1.8433 0.75 1.5 1.0933 0.34334 0.68102-0.81898 0.75-1.5h-1.5zm-20 3c0.068981 0.68102-0.34334 1.8433 0.75 1.5 1.0933 0.34334 0.68102-0.81898 0.75-1.5h-1.5zm2 0c0.068981 0.68102-0.34334 1.8433 0.75 1.5 1.0933 0.34334 0.68102-0.81898 0.75-1.5h-1.5zm2 0c0.068981 0.68102-0.34334 1.8433 0.75 1.5 1.0933 0.34334 0.68102-0.81898 0.75-1.5h-1.5zm2 0c0.068981 0.68102-0.34334 1.8433 0.75 1.5 1.0933 0.34334 0.68102-0.81898 0.75-1.5h-1.5zm2 0c0.06898 0.68102-0.34334 1.8433 0.75 1.5 1.0933 0.34334 0.68102-0.81898 0.75-1.5h-1.5zm2 0c0.06898 0.68102-0.34334 1.8433 0.75 1.5 1.0933 0.34334 0.68102-0.81898 0.75-1.5h-1.5zm2 0c0.06898 0.68102-0.34334 1.8433 0.75 1.5 1.0933 0.34334 0.68102-0.81898 0.75-1.5h-1.5zm2 0c0.06898 0.68102-0.34334 1.8433 0.75 1.5 1.0933 0.34334 0.68102-0.81898 0.75-1.5h-1.5zm2 0c-0.04042 0.81714-0.20804 1.9132 0.93952 1.4599-0.006134-0.83513 0.56676-1.7361-0.93952-1.4599zm2 0c0.06898 0.68102-0.34334 1.8433 0.75 1.5 1.0933 0.34334 0.68102-0.81898 0.75-1.5h-1.5zm2 0c0.06898 0.68102-0.34334 1.8433 0.75 1.5 1.0933 0.34334 0.68102-0.81898 0.75-1.5h-1.5zm3 0c0.06898 0.68102-0.34334 1.8433 0.75 1.5 1.0933 0.34334 0.68102-0.81898 0.75-1.5h-1.5zm2 0c0.06898 0.68102-0.34334 1.8433 0.75 1.5 1.0933 0.34334 0.68102-0.81898 0.75-1.5h-1.5zm2 0c-0.04042 0.81714-0.20804 1.9132 0.93952 1.4599-0.006134-0.83513 0.56676-1.7361-0.93952-1.4599zm-27 2c0.068981 0.68102-0.34334 1.8433 0.75 1.5 1.0933 0.34334 0.68102-0.81898 0.75-1.5h-1.5zm2 0c0.068981 0.68102-0.34334 1.8433 0.75 1.5 1.0933 0.34334 0.68102-0.81898 0.75-1.5h-1.5zm2 0c0.068981 0.68102-0.34334 1.8433 0.75 1.5 1.0933 0.34334 0.68102-0.81898 0.75-1.5h-1.5zm2 0c0.068981 0.68102-0.34334 1.8433 0.75 1.5 1.0933 0.34334 0.68102-0.81898 0.75-1.5h-1.5zm2 0c0.06898 0.68102-0.34334 1.8433 0.75 1.5 1.0933 0.34334 0.68102-0.81898 0.75-1.5h-1.5zm2 0c0.06898 0.68102-0.34334 1.8433 0.75 1.5 1.0933 0.34334 0.68102-0.81898 0.75-1.5h-1.5zm2 0c0.06898 0.68102-0.34334 1.8433 0.75 1.5 1.0933 0.34334 0.68102-0.81898 0.75-1.5h-1.5zm2 0c0.06898 0.68102-0.34334 1.8433 0.75 1.5 1.0933 0.34334 0.68102-0.81898 0.75-1.5h-1.5zm2 0c-0.04042 0.81714-0.20804 1.9132 0.93952 1.4599-0.006134-0.83513 0.56676-1.7361-0.93952-1.4599zm2 0c-0.20383 0.78081 0.16444 1.2276 0.98236 1 0.91547 0.29745 0.65557-1.5348-0.29216-1h-0.69019zm2 0c-0.20383 0.78081 0.16444 1.2276 0.98236 1 0.91547 0.29745 0.65557-1.5348-0.29216-1h-0.69019zm3 0c0.06898 0.68102-0.34334 1.8433 0.75 1.5 1.0933 0.34334 0.68102-0.81898 0.75-1.5h-1.5zm2 0c0.06898 0.68102-0.34334 1.8433 0.75 1.5 1.0933 0.34334 0.68102-0.81898 0.75-1.5h-1.5zm2 0c-0.04042 0.81714-0.20804 1.9132 0.93952 1.4599-0.006134-0.83513 0.56676-1.7361-0.93952-1.4599zm-27 2c0.068981 0.68102-0.34334 1.8433 0.75 1.5 1.0933 0.34334 0.68102-0.81898 0.75-1.5h-1.5zm2 0c0.068981 0.68102-0.34334 1.8433 0.75 1.5 1.0933 0.34334 0.68102-0.81898 0.75-1.5h-1.5zm2 0c0.068981 0.68102-0.34334 1.8433 0.75 1.5 1.0933 0.34334 0.68102-0.81898 0.75-1.5h-1.5zm2 0c0.068981 0.68102-0.34334 1.8433 0.75 1.5 1.0933 0.34334 0.68102-0.81898 0.75-1.5h-1.5zm2 0c0.06898 0.68102-0.34334 1.8433 0.75 1.5 1.0933 0.34334 0.68102-0.81898 0.75-1.5h-1.5zm2 0c0.06898 0.68102-0.34334 1.8433 0.75 1.5 1.0933 0.34334 0.68102-0.81898 0.75-1.5h-1.5zm2 0c0.06898 0.68102-0.34334 1.8433 0.75 1.5 1.0933 0.34334 0.68102-0.81898 0.75-1.5h-1.5zm2 0c0.06898 0.68102-0.34334 1.8433 0.75 1.5 1.0933 0.34334 0.68102-0.81898 0.75-1.5h-1.5zm2 0c-0.04042 0.81714-0.20804 1.9132 0.93952 1.4599-0.006134-0.83513 0.56676-1.7361-0.93952-1.4599zm3 0c0.06898 0.68102-0.34334 1.8433 0.75 1.5 1.0933 0.34334 0.68102-0.81898 0.75-1.5h-1.5zm4 0c0.06898 0.68102-0.34334 1.8433 0.75 1.5 1.0933 0.34334 0.68102-0.81898 0.75-1.5h-1.5zm2 0c0.06898 0.68102-0.34334 1.8433 0.75 1.5 1.0933 0.34334 0.68102-0.81898 0.75-1.5h-1.5zm2 0c0.08433 1.1137-0.16804 2.6065 0.12508 3.4851 1.5562 0.3999 0.62694-1.7797 0.87492-2.64 0.15894-1.0757-0.14486-0.83028-1-0.8451zm-27 2c0.068981 0.68102-0.34334 1.8433 0.75 1.5 1.0933 0.34334 0.68102-0.81898 0.75-1.5h-1.5zm2 0c0.068981 0.68102-0.34334 1.8433 0.75 1.5 1.0933 0.34334 0.68102-0.81898 0.75-1.5h-1.5zm2 0c0.094094 0.64028-0.37104 1.8398 0.70312 1.5h6.7969c-0.09409-0.64028 0.37104-1.8398-0.70312-1.5h-6.7969zm8 0c0.06898 0.68102-0.34334 1.8433 0.75 1.5 1.0933 0.34334 0.68102-0.81898 0.75-1.5h-1.5zm2 0c0.06898 0.68102-0.34334 1.8433 0.75 1.5 1.0933 0.34334 0.68102-0.81898 0.75-1.5h-1.5zm2 0c-0.04042 0.81714-0.20804 1.9132 0.93952 1.4599-0.006134-0.83513 0.56676-1.7361-0.93952-1.4599zm2 0c0.06898 0.68102-0.34334 1.8433 0.75 1.5 1.0933 0.34334 0.68102-0.81898 0.75-1.5h-1.5zm2 0c0.06898 0.68102-0.34334 1.8433 0.75 1.5 1.0933 0.34334 0.68102-0.81898 0.75-1.5h-1.5zm3 0c0.02223 0.76943-0.29145 1.8748 0.875 1.5 0.81466-0.12284 2.1221 0.24714 2.625-0.1875 0.03051-0.75967 0.18922-1.6476-0.875-1.3125h-2.625z" style="fill:#fff;opacity:.25"/>
 </g>
</svg>
