<?xml version="1.0" encoding="UTF-8"?>
<!-- Created with Inkscape (http://www.inkscape.org/) -->
<svg id="svg2567" width="48" height="48" version="1.0" xmlns="http://www.w3.org/2000/svg" xmlns:xlink="http://www.w3.org/1999/xlink">
 <defs id="defs2569">
  <radialGradient id="radialGradient2551" cx="23.335" cy="41.636" r="22.627" gradientTransform="matrix(.97227 0 0 .28724 1.3125 27.541)" gradientUnits="userSpaceOnUse">
   <stop id="stop23421" offset="0"/>
   <stop id="stop23423" style="stop-opacity:0" offset="1"/>
  </radialGradient>
  <linearGradient id="linearGradient2548" x1="-21.916" x2="-21.916" y1="3" y2="45.033" gradientTransform="translate(50.265)" gradientUnits="userSpaceOnUse">
   <stop id="stop3774" style="stop-color:#b4b4b4" offset="0"/>
   <stop id="stop3776" style="stop-color:#969696" offset="1"/>
  </linearGradient>
  <linearGradient id="linearGradient2546" x1="12.274" x2="35.391" y1="32.416" y2="14.203" gradientTransform="matrix(0 1.1714 -1.1714 0 51.06 -4.1145)" gradientUnits="userSpaceOnUse">
   <stop id="stop3265" style="stop-color:#dedbde" offset="0"/>
   <stop id="stop3267" style="stop-color:#e6e6e6" offset=".5"/>
   <stop id="stop3269" style="stop-color:#d2d2d2" offset="1"/>
  </linearGradient>
  <linearGradient id="linearGradient2542" x1="21.448" x2="21.448" y1="15.5" y2="32.509" gradientTransform="matrix(.9375 0 0 .9375 1.5 1.5)" gradientUnits="userSpaceOnUse">
   <stop id="stop3430" style="stop-color:#aaa" offset="0"/>
   <stop id="stop3432" style="stop-color:#d4d4d4" offset="1"/>
  </linearGradient>
  <linearGradient id="linearGradient3354" x1="10.609" x2="9.7298" y1="17.886" y2="20.613" gradientUnits="userSpaceOnUse" spreadMethod="reflect">
   <stop id="stop3521" style="stop-color:#fcd9cd" offset="0"/>
   <stop id="stop3523" style="stop-color:#fcd9cd;stop-opacity:0" offset="1"/>
  </linearGradient>
  <linearGradient id="linearGradient3352" x1="12.372" x2="14.609" y1="16.188" y2="13.462" gradientUnits="userSpaceOnUse" spreadMethod="reflect">
   <stop id="stop3513" style="stop-color:#ebeec7" offset="0"/>
   <stop id="stop3515" style="stop-color:#ebeec7;stop-opacity:0" offset="1"/>
  </linearGradient>
  <linearGradient id="linearGradient3350" x1="14.085" x2="16.994" y1="13.046" y2="10.732" gradientUnits="userSpaceOnUse" spreadMethod="reflect">
   <stop id="stop3505" style="stop-color:#c4ebdd" offset="0"/>
   <stop id="stop3507" style="stop-color:#c4ebdd;stop-opacity:0" offset="1"/>
  </linearGradient>
  <linearGradient id="linearGradient3348" x1="17.495" x2="21.047" y1="11.2" y2="9.7956" gradientUnits="userSpaceOnUse" spreadMethod="reflect">
   <stop id="stop3497" style="stop-color:#c1cbe4" offset="0"/>
   <stop id="stop3499" style="stop-color:#c1cbe4;stop-opacity:0" offset="1"/>
  </linearGradient>
  <linearGradient id="linearGradient3346" x1="20.58" x2="24.274" y1="10.775" y2="9.8622" gradientUnits="userSpaceOnUse" spreadMethod="reflect">
   <stop id="stop3489" style="stop-color:#e6cde2" offset="0"/>
   <stop id="stop3491" style="stop-color:#e6cde2;stop-opacity:0" offset="1"/>
  </linearGradient>
  <linearGradient id="linearGradient2533" x1="18.776" x2="18.203" y1="4.0378" y2="45.962" gradientTransform="matrix(.42934 0 0 .42934 13.547 13.266)" gradientUnits="userSpaceOnUse" xlink:href="#linearGradient6036"/>
  <radialGradient id="radialGradient2530" cx="8.8913" cy="12.123" r="11" gradientTransform="matrix(0 3.4077 -4.4528 0 77.534 -12.125)" gradientUnits="userSpaceOnUse">
   <stop id="stop3841" style="stop-color:#ffed8c" offset="0"/>
   <stop id="stop3843" style="stop-color:#fb9858" offset=".26238"/>
   <stop id="stop3845" style="stop-color:#dc572a" offset=".66094"/>
   <stop id="stop3847" style="stop-color:#9f3110" offset="1"/>
  </radialGradient>
  <linearGradient id="linearGradient6036">
   <stop id="stop6038" style="stop-color:#fff" offset="0"/>
   <stop id="stop6040" style="stop-color:#fff;stop-opacity:0" offset="1"/>
  </linearGradient>
  <linearGradient id="linearGradient2527" x1="18.776" x2="18.203" y1="4.0378" y2="45.962" gradientTransform="matrix(.42934 0 0 -.42934 13.547 34.734)" gradientUnits="userSpaceOnUse" xlink:href="#linearGradient6036"/>
  <linearGradient id="linearGradient2524" x1="17.301" x2="17.301" y1="29.707" y2="42.501" gradientUnits="userSpaceOnUse" xlink:href="#linearGradient6036"/>
  <linearGradient id="linearGradient2521" x1="17.301" x2="17.301" y1="4.4997" y2="16.043" gradientUnits="userSpaceOnUse" xlink:href="#linearGradient6036"/>
  <linearGradient id="linearGradient2518" x1="17.301" x2="17.301" y1="-.28916" y2="48.156" gradientUnits="userSpaceOnUse" xlink:href="#linearGradient6036"/>
 </defs>
 <g id="layer1">
  <path id="path23417" d="m46 39.5c0.0011 3.5898-9.8489 6.5-22 6.5s-22.001-2.9102-22-6.5c-0.0011331-3.5898 9.8489-6.5 22-6.5s22.001 2.9102 22 6.5z" style="fill-rule:evenodd;fill:url(#radialGradient2551);opacity:.3"/>
  <path id="path2781" d="m44.5 24c0-11.363-9.137-20.5-20.5-20.5-11.363 0-20.5 9.137-20.5 20.5-2e-6 11.363 9.137 20.5 20.5 20.5 11.363-2e-6 20.5-9.137 20.5-20.5zm-13 0c0 4.1281-3.2893 7.5-7.5 7.5-4.2933 0-7.5-3.4553-7.5-7.5 0-4.1273 3.0415-7.5 7.5-7.5s7.5 3.4545 7.5 7.5z" style="fill:url(#linearGradient2546);stroke:url(#linearGradient2548)"/>
  <path id="path2474" d="m24 16c-4.416 0-8 3.584-8 8s3.584 8 8 8 8-3.584 8-8-3.584-8-8-8zm0 4c2.208 0 4 1.792 4 4s-1.792 4-4 4-4-1.792-4-4 1.792-4 4-4z" style="fill:#fff;opacity:.5"/>
  <path id="path3418" d="m24 16.5c-4.14 0-7.5 3.36-7.5 7.5s3.36 7.5 7.5 7.5 7.5-3.36 7.5-7.5-3.36-7.5-7.5-7.5zm0 3.75c2.07 0 3.75 1.68 3.75 3.75s-1.68 3.75-3.75 3.75-3.75-1.68-3.75-3.75 1.68-3.75 3.75-3.75z" style="fill:none;stroke-linejoin:round;stroke:url(#linearGradient2542)"/>
  <g id="g3527">
   <path id="path3296" transform="matrix(.9996 .028243 -.028243 .9996 .69241 -.67083)" d="m15.857 5.7308 4.7681 10.613c1.0354-0.45856 2.1703-0.71875 3.375-0.71875 0.03206 0 0.06178-3.6e-4 0.09375 0l0.01426-11.62c-2.9422-0.070687-5.543 0.65729-8.2511 1.726h1e-6z" style="fill:url(#linearGradient3346);opacity:.8"/>
   <path id="path3308" d="m12.121 7.906 6.931 9.3601c0.91311-0.66976 1.9659-1.1671 3.1426-1.4252 0.03132-0.0069 0.06026-0.01359 0.09157-0.02009l-2.4295-11.395c-2.889 0.56132-5.3195 1.8556-7.7357 3.4797z" style="fill:url(#linearGradient3348);opacity:.8"/>
   <path id="path3310" d="m8.2524 11.647 9.2137 7.1558c0.70865-0.88326 1.5969-1.6361 2.6667-2.19 0.02847-0.01474 0.05469-0.02872 0.08325-0.0431l-5.3502-10.319c-2.6453 1.2899-4.7 3.2018-6.6135 5.3959z" style="fill:url(#linearGradient3350);opacity:.8"/>
   <path id="path3312" d="m5.6329 16.074c7.1748 2.2422 7.8503 7.0315 12.777 1.7541l-7.9097-8.696c-2.2213 1.9306-3.5867 4.3272-4.8671 6.9418z" style="fill:url(#linearGradient3352);opacity:.8"/>
   <path id="path3314" d="m7.1553 13.193c-1.1831 1.752-1.9077 3.6364-2.5251 5.6439l11.339 2.9754c0.21551-0.763 0.51805-1.5148 0.96875-2.2188 0.01729-0.027 0.04496-0.06702 0.0625-0.09375l-9.8447-6.3068z" style="fill:url(#linearGradient3354);opacity:.8"/>
  </g>
  <path id="path2443" d="m24 15.5c-4.7114 0-8.5 3.7886-8.5 8.5s3.7886 8.5 8.5 8.5c4.7114 0 8.5-3.7886 8.5-8.5s-3.7886-8.5-8.5-8.5z" style="fill:none;opacity:.4;stroke:url(#linearGradient2533)"/>
  <path id="path2559" d="m23.5 3.5c1.09e-4 4.3333 0 8.6667 0 13 4.9959 0 9.0914 4.1082 7.7517 9.2906-0.97723 4.162-5.624 6.8972-9.9894 5.1837-0.69415-0.31082-1.3977-0.72778-2.0301-1.2258l-7.6697 10.552c1.7402 1.3331 3.7348 2.4482 5.7903 3.1041 7.5383 2.6522 16.491 0.38562 21.811-5.5891 6.078-6.481 7.0942-17.09 2.2908-24.59-3.9552-6.3782-11.044-10.008-17.954-9.7263z" style="fill:url(#radialGradient2530);stroke-linecap:round;stroke-linejoin:round;stroke:#ce5c00"/>
  <path id="path3281" d="m24 15.5c4.7114 0 8.5 3.7886 8.5 8.5s-3.7886 8.5-8.5 8.5c-1.9227 0-3.6093-0.6555-4.9513-1.6493" style="fill:none;opacity:.4;stroke:url(#linearGradient2527)"/>
  <path id="path2528" d="m19.181 31.548-5.9656 8.1485" style="fill:none;opacity:.4;stroke-width:1px;stroke:url(#linearGradient2524)"/>
  <path id="path2526" d="m24.5 5v10.5" style="fill:none;opacity:.4;stroke-width:1px;stroke:url(#linearGradient2521)"/>
  <path id="path2561" d="m24 4.5c-10.809 0-19.5 8.6914-19.5 19.5 0 10.809 8.6914 19.5 19.5 19.5s19.5-8.6914 19.5-19.5c0-10.809-8.6914-19.5-19.5-19.5z" style="fill:none;opacity:.4;stroke-width:1px;stroke:url(#linearGradient2518)"/>
 </g>
</svg>
