<?xml version="1.0" encoding="UTF-8"?>
<!-- Created with Inkscape (http://www.inkscape.org/) -->
<svg id="svg11300" width="128" height="128" version="1.0" xmlns="http://www.w3.org/2000/svg" xmlns:xlink="http://www.w3.org/1999/xlink">
 <defs id="defs3">
  <linearGradient id="linearGradient4222">
   <stop id="stop4224" style="stop-color:#fff" offset="0"/>
   <stop id="stop4226" style="stop-color:#fff;stop-opacity:0" offset="1"/>
  </linearGradient>
  <linearGradient id="linearGradient9821" x1="40.125" x2="44.562" y1="12.625" y2="17.125" gradientUnits="userSpaceOnUse">
   <stop id="stop2266" style="stop-color:#d7e866" offset="0"/>
   <stop id="stop2268" style="stop-color:#8cab2a" offset="1"/>
  </linearGradient>
  <linearGradient id="linearGradient9833" x1="39.89" x2="43.968" y1="13" y2="17.688" gradientTransform="matrix(.94808 0 0 .94267 2.2406 .78867)" gradientUnits="userSpaceOnUse">
   <stop id="stop9829" style="stop-opacity:0" offset="0"/>
   <stop id="stop9835" style="stop-opacity:.26496" offset=".58448"/>
   <stop id="stop9831" style="stop-opacity:0" offset="1"/>
  </linearGradient>
  <linearGradient id="linearGradient9914" x1="10.866" x2="22.517" y1="47.686" y2="16.166" gradientTransform="matrix(.99965 0 0 1.0201 .0078088 -.99822)" gradientUnits="userSpaceOnUse">
   <stop id="stop9922" style="stop-color:#f0f0f0" offset="0"/>
   <stop id="stop9924" style="stop-color:#c8c8c8" offset=".51945"/>
   <stop id="stop9926" style="stop-color:#a0a0a0" offset=".68466"/>
   <stop id="stop9928" style="stop-color:#8c8c8c" offset=".76485"/>
   <stop id="stop9930" style="stop-color:#c8c8c8" offset=".91405"/>
   <stop id="stop9932" style="stop-color:#dcdcdc" offset="1"/>
  </linearGradient>
  <linearGradient id="linearGradient9940" x1="13.34" x2="23.386" y1="48.039" y2="18.074" gradientTransform="matrix(.99965 0 0 1.0201 .0078088 -.99822)" gradientUnits="userSpaceOnUse">
   <stop id="stop9944" style="stop-color:#a0a0a0" offset="0"/>
   <stop id="stop9946" style="stop-color:#828282" offset=".51945"/>
   <stop id="stop9948" style="stop-color:#5a5a5a" offset=".68466"/>
   <stop id="stop9950" style="stop-color:#5a5a5a" offset=".76485"/>
   <stop id="stop9952" style="stop-color:#828282" offset=".91405"/>
   <stop id="stop9954" style="stop-color:#6e6e6e" offset="1"/>
  </linearGradient>
  <radialGradient id="radialGradient6680" cx="15.459" cy="51.218" r="10.625" gradientTransform="matrix(1.5824 -.10706 .017075 .25236 -13.148 37.917)" gradientUnits="userSpaceOnUse">
   <stop id="stop6674" offset="0"/>
   <stop id="stop6676" style="stop-opacity:0" offset="1"/>
  </radialGradient>
  <filter id="filter6722" x="-.068471" y="-.485" width="1.1369" height="1.97" color-interpolation-filters="sRGB">
   <feGaussianBlur id="feGaussianBlur6724" collect="always" stdDeviation="0.60625"/>
  </filter>
  <radialGradient id="radialGradient6346" cx=".83577" cy="32.749" r="13.125" gradientTransform="matrix(.42975 -.08755 .12439 .61061 18.441 10.041)" gradientUnits="userSpaceOnUse" xlink:href="#linearGradient4222"/>
  <radialGradient id="radialGradient6348" cx="36.258" cy="18.125" r="7.5535" gradientTransform="matrix(.69504 -.17712 .12966 .50883 8.7072 15.018)" gradientUnits="userSpaceOnUse" xlink:href="#linearGradient4222"/>
 </defs>
 <g id="g6744" transform="matrix(2.6695 0 0 2.6694 -12.474 -17.356)">
  <path id="path6670" d="m8.75 50h22.25l-12.682-3.9-9.568 3.9z" style="fill-rule:evenodd;fill:url(#radialGradient6680);filter:url(#filter6722);opacity:.3"/>
  <g id="g5527">
   <path id="path5748" d="m44.835 9.2362-10.653 8.9416c-0.45906 0.42734-0.7117 0.99712-0.7117 1.605 0 0.60784 0.25263 1.178 0.7117 1.605l0.78364 0.72934c0.95083 0.88505 3.4019 0.1997 4.3527-0.68535l9.3694-8.5506c0.95083-0.88505 1.1863-2.2198 0.23505-3.1048l-0.78364-0.72969c-0.95043-0.88435-2.3534-0.69512-3.3042 0.18958z" style="enable-background:new;fill:url(#linearGradient9821);stroke-width:.37461;stroke:#366407"/>
   <path id="path9823" d="m44.757 9.7841-9.9947 8.3953c-0.43451 0.40123-0.54104 0.80361-0.54104 1.3743 0 0.5707 0.01815 0.97342 0.45265 1.3743l0.74172 0.68477c0.89997 0.83097 2.5128 0.40847 3.4128-0.4225l9.3543-8.3817c0.89997-0.83097 1.388-1.819 0.48764-2.65l-0.78592-0.7293c-0.89958-0.83032-2.2275-0.47587-3.1275 0.35477z" style="enable-background:new;fill:url(#linearGradient9833)"/>
   <path id="path9837" d="m34.869 18.844 10.872-9.104c1.0292-0.49316 1.0777-0.28577 1.3258-0.22097 0.4714 0.23731 0.94281 0.61876 1.4142 1.3258 0.14959 0.36828 0.10058 0.73657-0.22097 1.1049l-9.6343 8.8388c-0.81023 0.43468-1.6205 0.84102-2.4307 0.92808-0.55263-0.19109-1.0515-0.48981-1.37-1.149-0.13895-0.47207-0.78331-0.6072 0.04419-1.7236z" style="fill:none;opacity:.6;stroke-width:1px;stroke:url(#radialGradient6348)"/>
   <path id="path5784" d="m35.121 19.499c-0.54853-0.0041-1.1023 0.32775-1.562 0.79694-0.98134 1.0009-1.3943 2.2436-1.3524 5.6049-0.23669 1.4696-1.3866 2.0492-2.7399 2.2051-3.0962-0.22297-8.9148 0.297-10.996 3.2196-2.0842 2.9265-9.9341 16.191-9.9341 18.138 3.1397 1e-6 25.192-10.792 26.49-12.238 1.2984-1.4461 1.2464-4.3015 0.43795-6.1868-0.43849-0.99083-0.95806-2.0013-1.0104-3.1239 0-4.1191 0.16111-4.1532 1.229-5.1961 0.66881-0.65315 1.2326-1.9296 0.40611-2.7733-0.30995-0.31638-0.6393-0.44383-0.96841-0.44629z" style="fill:url(#linearGradient9914);stroke-linejoin:round;stroke-width:.37461;stroke:url(#linearGradient9940)"/>
   <path id="path9956" d="m34.669 20.65c-1.4694 0.66028-0.76869 4.2653-0.85733 5.5336 0.16147 1.2306-3.1796 2.4183-3.8726 2.28-0.03023-3.66e-4 -8.606 0.0619-10.557 2.797-3.3745 5.1425-6.3589 10.594-9.1652 16.648 8.0781-2.984 16.398-7.1313 24.529-11.666 1.7567-0.94128 0.07353-4.192-0.26423-5.2044-0.45695-0.78096-0.7927-1.5946-0.7927-2.6887 0-2.7618 0.34609-5.2666 1.0236-5.9608 1.4463-1.163 0.65054-2.3478-0.04286-1.738z" style="enable-background:new;fill:none;opacity:.6;stroke-width:.74922;stroke:url(#radialGradient6346)"/>
  </g>
 </g>
</svg>
