<?xml version="1.0" encoding="UTF-8"?>
<!-- Created with Inkscape (http://www.inkscape.org/) -->
<svg id="svg2696" width="32" height="32" version="1.0" xmlns="http://www.w3.org/2000/svg" xmlns:xlink="http://www.w3.org/1999/xlink">
 <defs id="defs2698">
  <linearGradient id="linearGradient3997">
   <stop id="stop3999" style="stop-color:#f3f7fa" offset="0"/>
   <stop id="stop4001" style="stop-color:#fdfeff" offset="1"/>
  </linearGradient>
  <linearGradient id="linearGradient4157-401">
   <stop id="stop3688" style="stop-color:#262626" offset="0"/>
   <stop id="stop3690" style="stop-color:#828282" offset="1"/>
  </linearGradient>
  <linearGradient id="linearGradient4342">
   <stop id="stop4344" style="stop-color:#6e8d5d" offset="0"/>
   <stop id="stop4350" style="stop-color:#a2ac34;stop-opacity:.49804" offset=".5"/>
   <stop id="stop4352" style="stop-color:#cbbd40;stop-opacity:.24706" offset=".75"/>
   <stop id="stop4354" style="stop-color:#dbc146;stop-opacity:.12157" offset=".875"/>
   <stop id="stop4346" style="stop-color:#ff480f;stop-opacity:.13265" offset="1"/>
  </linearGradient>
  <linearGradient id="linearGradient2899" x1=".63341" x2="79.104" y1="3.0903" y2="170.29" gradientTransform="matrix(.25856 0 5.7199e-8 .22447 9.1606 .30593)" gradientUnits="userSpaceOnUse" xlink:href="#linearGradient3997"/>
  <linearGradient id="linearGradient2907" x1="20.253" x2="5.525" y1="40.523" y2="11.735" gradientTransform="matrix(.33339 0 0 .33591 2.9802 -1.4923)" gradientUnits="userSpaceOnUse" xlink:href="#linearGradient4157-401"/>
  <radialGradient id="radialGradient2909" cx="34.828" cy="65.617" r="42.271" gradientTransform="matrix(.14818 .010257 -.0089468 .13265 2.708 -1.8757)" gradientUnits="userSpaceOnUse" xlink:href="#linearGradient4342"/>
  <linearGradient id="linearGradient2955" x1="302.86" x2="302.86" y1="366.65" y2="609.51" gradientTransform="matrix(.084291 0 0 .037059 -6.1149 25.412)" gradientUnits="userSpaceOnUse">
   <stop id="stop2667" style="stop-opacity:0" offset="0"/>
   <stop id="stop2669" offset=".5"/>
   <stop id="stop2671" style="stop-opacity:0" offset="1"/>
  </linearGradient>
  <radialGradient id="radialGradient2957" cx="605.71" cy="486.65" r="117.14" gradientTransform="matrix(.03213 0 0 .037059 25.337 25.412)" gradientUnits="userSpaceOnUse">
   <stop id="stop2675" offset="0"/>
   <stop id="stop2677" style="stop-opacity:0" offset="1"/>
  </radialGradient>
  <radialGradient id="radialGradient2959" cx="605.71" cy="486.65" r="117.14" gradientTransform="matrix(-.03213 0 0 .037059 23.363 25.412)" gradientUnits="userSpaceOnUse">
   <stop id="stop2681" offset="0"/>
   <stop id="stop2683" style="stop-opacity:0" offset="1"/>
  </radialGradient>
 </defs>
 <g id="g2868" transform="matrix(.94961 -.31291 .31342 .94807 -7.7183 3.88)">
  <rect id="rect2860" transform="matrix(1 -.0017355 -.0021096 1 0 0)" x="7.564" y="6.5547" width="22.948" height="22.957" style="fill:url(#linearGradient2899);stroke-linecap:round;stroke-linejoin:round;stroke-opacity:.96863;stroke-width:1.0043;stroke:#909090"/>
  <g id="g2862" transform="matrix(1.7398 0 0 1.757 5.0886 4.0622)">
   <rect id="rect2864" transform="matrix(1 -.0017885 -.002047 1 0 0)" x="2.5777" y="2.5667" width="10.867" height="9.6223" rx="0" ry="0" style="fill:url(#linearGradient2907);stroke-linecap:round;stroke-linejoin:round;stroke-opacity:.96863;stroke-width:.60672;stroke:#333"/>
   <rect id="rect2866" transform="matrix(1 -.0017885 -.002047 1 0 0)" x="2.5777" y="2.5667" width="10.866" height="9.6223" rx="0" ry="0" style="fill:url(#radialGradient2909);opacity:.35"/>
  </g>
 </g>
 <g id="g7591" transform="matrix(.53388 0 0 .22222 6 20.333)" style="opacity:.3">
  <rect id="rect4173" x="4" y="39" width="40.7" height="9" style="fill:url(#linearGradient2955)"/>
  <path id="path5058" d="m44.7 39v8.9995c1.6546 0.01694 4-2.0163 4-4.5003 0-2.484-1.8464-4.4992-4-4.4992z" style="fill:url(#radialGradient2957)"/>
  <path id="path5018" d="m4 39v8.9995c-1.6546 0.016941-4-2.0163-4-4.5003 0-2.484 1.8464-4.4992 4-4.4992z" style="fill:url(#radialGradient2959)"/>
 </g>
 <rect id="rect3838" transform="matrix(1 -.0017355 -.0021096 1 0 0)" x="7.564" y="6.5547" width="22.948" height="22.957" style="fill:url(#linearGradient2899);stroke-linecap:round;stroke-linejoin:round;stroke-opacity:.96863;stroke-width:1.0035;stroke:#909090"/>
 <g id="g3840" transform="matrix(1.7398 0 0 1.757 5.0886 4.0622)">
  <rect id="rect3842" transform="matrix(1 -.0017885 -.002047 1 0 0)" x="2.5777" y="2.5667" width="10.867" height="9.6223" rx="0" ry="0" style="fill:url(#linearGradient2907);stroke-linecap:round;stroke-linejoin:round;stroke-opacity:.96863;stroke-width:.60623;stroke:#333"/>
  <rect id="rect3844" transform="matrix(1 -.0017885 -.002047 1 0 0)" x="2.5777" y="2.5667" width="10.866" height="9.6223" rx="0" ry="0" style="fill:url(#radialGradient2909);opacity:.35"/>
 </g>
</svg>
