<?xml version="1.0" encoding="UTF-8"?>
<!-- Created with Inkscape (http://www.inkscape.org/) -->
<svg id="svg2820" width="48" height="48" version="1.0" xmlns="http://www.w3.org/2000/svg" xmlns:cc="http://creativecommons.org/ns#" xmlns:dc="http://purl.org/dc/elements/1.1/" xmlns:rdf="http://www.w3.org/1999/02/22-rdf-syntax-ns#" xmlns:xlink="http://www.w3.org/1999/xlink">
 <metadata id="metadata290">
  <rdf:RDF>
   <cc:Work rdf:about="">
    <dc:format>image/svg+xml</dc:format>
    <dc:type rdf:resource="http://purl.org/dc/dcmitype/StillImage"/>
   </cc:Work>
  </rdf:RDF>
 </metadata>
 <defs id="defs2822">
  <linearGradient id="linearGradient5060">
   <stop id="stop5062" offset="0"/>
   <stop id="stop5064" style="stop-opacity:0" offset="1"/>
  </linearGradient>
  <linearGradient id="linearGradient3104">
   <stop id="stop3106" style="stop-color:#a0a0a0" offset="0"/>
   <stop id="stop3108" style="stop-color:#c8c8c8" offset="1"/>
  </linearGradient>
  <linearGradient id="linearGradient2670" x1="9" x2="9" y1="29.057" y2="26.03" gradientTransform="matrix(.63801 -.64114 .85963 .85535 -3.6613 16.731)" gradientUnits="userSpaceOnUse">
   <stop id="stop2607" style="stop-color:#ece5a5" offset="0"/>
   <stop id="stop2609" style="stop-color:#fcfbf2" offset="1"/>
  </linearGradient>
  <linearGradient id="linearGradient2673" x1="5.5179" x2="9.5221" y1="37.372" y2="41.392" gradientTransform="matrix(.56036 .024186 .024156 .55967 19.547 13.104)" gradientUnits="userSpaceOnUse">
   <stop id="stop2613" style="stop-color:#dbce48" offset="0"/>
   <stop id="stop2615" style="stop-color:#c5b625" offset="1"/>
  </linearGradient>
  <linearGradient id="linearGradient2676" x1="30.038" x2="30.038" y1="24.99" y2="30" gradientTransform="matrix(.63801 -.64114 .85963 .85535 -2.3288 15.392)" gradientUnits="userSpaceOnUse">
   <stop id="stop2599" style="stop-color:#b1b1b1" offset="0"/>
   <stop id="stop2601" style="stop-color:#fff" offset=".5"/>
   <stop id="stop2603" style="stop-color:#8f8f8f" offset="1"/>
  </linearGradient>
  <linearGradient id="linearGradient2679" x1="30.038" x2="30.038" y1="24.99" y2="30" gradientTransform="matrix(.63801 -.64114 .85963 .85535 -2.1461 15.208)" gradientUnits="userSpaceOnUse">
   <stop id="stop2591" style="stop-color:#565656" offset="0"/>
   <stop id="stop2593" style="stop-color:#9a9a9a" offset=".5"/>
   <stop id="stop2595" style="stop-color:#545454" offset="1"/>
  </linearGradient>
  <linearGradient id="linearGradient2682" x1="30.038" x2="30.038" y1="24.99" y2="30" gradientTransform="matrix(.63801 -.64114 .85963 .85535 -2.9668 16.033)" gradientUnits="userSpaceOnUse">
   <stop id="stop2583" style="stop-color:#b1b1b1" offset="0"/>
   <stop id="stop2585" style="stop-color:#fff" offset=".5"/>
   <stop id="stop2587" style="stop-color:#8f8f8f" offset="1"/>
  </linearGradient>
  <linearGradient id="linearGradient2685" x1="30.038" x2="30.038" y1="24.99" y2="30" gradientTransform="matrix(.63801 -.64114 .85963 .85535 -2.7841 15.849)" gradientUnits="userSpaceOnUse">
   <stop id="stop2575" style="stop-color:#565656" offset="0"/>
   <stop id="stop2577" style="stop-color:#9a9a9a" offset=".5"/>
   <stop id="stop2579" style="stop-color:#545454" offset="1"/>
  </linearGradient>
  <linearGradient id="linearGradient2688" x1="30.038" x2="30.038" y1="24.99" y2="30" gradientTransform="matrix(.63801 -.64114 .85963 .85535 -3.6017 16.671)" gradientUnits="userSpaceOnUse">
   <stop id="stop2567" style="stop-color:#b1b1b1" offset="0"/>
   <stop id="stop2569" style="stop-color:#fff" offset=".5"/>
   <stop id="stop2571" style="stop-color:#8f8f8f" offset="1"/>
  </linearGradient>
  <linearGradient id="linearGradient2691" x1="30.038" x2="30.038" y1="24.99" y2="30" gradientTransform="matrix(.63801 -.64114 .85963 .85535 -3.419 16.487)" gradientUnits="userSpaceOnUse">
   <stop id="stop2559" style="stop-color:#565656" offset="0"/>
   <stop id="stop2561" style="stop-color:#9a9a9a" offset=".5"/>
   <stop id="stop2563" style="stop-color:#545454" offset="1"/>
  </linearGradient>
  <linearGradient id="linearGradient2697" x1="23.576" x2="23.576" y1="25.357" y2="31.211" gradientTransform="matrix(.65657 -.65979 .73452 .73087 -1.013 19.863)" gradientUnits="userSpaceOnUse">
   <stop id="stop2541" style="stop-color:#181818" offset="0"/>
   <stop id="stop2543" style="stop-color:#dbdbdb" offset=".13483"/>
   <stop id="stop2545" style="stop-color:#a4a4a4" offset=".20224"/>
   <stop id="stop2547" style="stop-color:#fff" offset=".26966"/>
   <stop id="stop2549" style="stop-color:#8d8d8d" offset=".4465"/>
   <stop id="stop2551" style="stop-color:#959595" offset=".57114"/>
   <stop id="stop2553" style="stop-color:#cecece" offset=".72038"/>
   <stop id="stop2555" style="stop-color:#181818" offset="1"/>
  </linearGradient>
  <linearGradient id="linearGradient2973" x1="-60.97" x2="-60.908" y1="13.668" y2="114.54" gradientTransform="matrix(.45037 .00027173 -.00027421 .4463 46.808 -6.9909)" gradientUnits="userSpaceOnUse">
   <stop id="stop3828" style="stop-color:#f4f4f4" offset="0"/>
   <stop id="stop3604" style="stop-color:#dbdbdb" offset="1"/>
  </linearGradient>
  <linearGradient id="linearGradient2975" x1="11.536" x2="11.536" y1="44.952" y2="-1.0041" gradientTransform="translate(5e-7 .047615)" gradientUnits="userSpaceOnUse" xlink:href="#linearGradient3104"/>
  <radialGradient id="radialGradient2978" cx="605.71" cy="486.65" r="117.14" gradientTransform="matrix(.022892 0 0 .012353 26.354 38.471)" gradientUnits="userSpaceOnUse" xlink:href="#linearGradient5060"/>
  <radialGradient id="radialGradient2981" cx="605.71" cy="486.65" r="117.14" gradientTransform="matrix(-.022892 0 0 .012353 21.646 38.471)" gradientUnits="userSpaceOnUse" xlink:href="#linearGradient5060"/>
  <linearGradient id="linearGradient2984" x1="302.86" x2="302.86" y1="366.65" y2="609.51" gradientTransform="matrix(.066893 0 0 .012353 -.17722 38.471)" gradientUnits="userSpaceOnUse">
   <stop id="stop5050" style="stop-opacity:0" offset="0"/>
   <stop id="stop5056" offset=".5"/>
   <stop id="stop5052" style="stop-opacity:0" offset="1"/>
  </linearGradient>
  <linearGradient id="linearGradient3781" x1="22.004" x2="22.004" y1="44.854" y2="3.0719" gradientUnits="userSpaceOnUse" xlink:href="#linearGradient3104"/>
 </defs>
 <rect id="rect3706" x="7.85" y="43" width="32.3" height="3" style="fill:url(#linearGradient2984);opacity:.40206"/>
 <path id="path3708" d="m7.85 43v2.9998c-1.1789 0.005624-2.85-0.67211-2.85-1.5001s1.3156-1.4997 2.85-1.4997z" style="fill:url(#radialGradient2981);opacity:.40206"/>
 <path id="path3710" d="m40.15 43v2.9998c1.1789 0.0056 2.85-0.67211 2.85-1.5001s-1.3156-1.4997-2.85-1.4997z" style="fill:url(#radialGradient2978);opacity:.40206"/>
 <path id="path2855" d="m7.5 3.5c8.5221 0.00514 24.478-0.00514 33 0 0.07503 1.6058 0.92418 38.198 0.99924 41-11.666-0.007035-23.333-0.014082-34.999-0.021121 0.09181-3.1471 0.90819-39.567 1-40.979z" style="fill:url(#linearGradient2973);stroke-linecap:round;stroke-linejoin:round;stroke:url(#linearGradient2975)"/>
 <path id="path5685" d="m12.688 4.2499-0.43758 39.5" style="fill-rule:evenodd;fill:#80b3ff;opacity:.5907;stroke-linecap:round;stroke-linejoin:round;stroke-width:.5;stroke:#f6abab"/>
 <path id="path6656" d="m40.057 9.875-32.18-0.18453" style="fill-rule:evenodd;fill:#80b3ff;opacity:.43721;stroke-linecap:round;stroke-linejoin:round;stroke-width:.25;stroke:#80b3ff"/>
 <path id="path6658" d="m40.131 11.875-32.263-0.18454" style="fill-rule:evenodd;fill:#80b3ff;opacity:.43721;stroke-linecap:round;stroke-linejoin:round;stroke-width:.25;stroke:#80b3ff"/>
 <path id="path6660" d="m40.214 13.875-32.428-0.18453" style="fill-rule:evenodd;fill:#80b3ff;opacity:.43721;stroke-linecap:round;stroke-linejoin:round;stroke-width:.25;stroke:#80b3ff"/>
 <path id="path6662" d="m40.297 15.875-32.593-0.18453" style="fill-rule:evenodd;fill:#80b3ff;opacity:.43721;stroke-linecap:round;stroke-linejoin:round;stroke-width:.25;stroke:#80b3ff"/>
 <path id="path6664" d="m40.297 17.875-32.593-0.18453" style="fill-rule:evenodd;fill:#80b3ff;opacity:.43721;stroke-linecap:round;stroke-linejoin:round;stroke-width:.25;stroke:#80b3ff"/>
 <path id="path6666" d="m40.379 19.875-32.759-0.18453" style="fill-rule:evenodd;fill:#80b3ff;opacity:.43721;stroke-linecap:round;stroke-linejoin:round;stroke-width:.25;stroke:#80b3ff"/>
 <path id="path7637" d="m40.379 21.875-32.759-0.18453" style="fill-rule:evenodd;fill:#80b3ff;opacity:.43721;stroke-linecap:round;stroke-linejoin:round;stroke-width:.25;stroke:#80b3ff"/>
 <path id="path7639" d="m40.462 23.875-32.924-0.18453" style="fill-rule:evenodd;fill:#80b3ff;opacity:.43721;stroke-linecap:round;stroke-linejoin:round;stroke-width:.25;stroke:#80b3ff"/>
 <path id="path7641" d="m40.462 25.875-32.924-0.18453" style="fill-rule:evenodd;fill:#80b3ff;opacity:.43721;stroke-linecap:round;stroke-linejoin:round;stroke-width:.25;stroke:#80b3ff"/>
 <path id="path7645" d="m40.627 27.875-33.254-0.18453" style="fill-rule:evenodd;fill:#80b3ff;opacity:.43721;stroke-linecap:round;stroke-linejoin:round;stroke-width:.25;stroke:#80b3ff"/>
 <path id="path7647" d="m40.627 29.864-33.254-0.18453" style="fill-rule:evenodd;fill:#80b3ff;opacity:.43721;stroke-linecap:round;stroke-linejoin:round;stroke-width:.25;stroke:#80b3ff"/>
 <path id="path7649" d="m40.875 31.875-33.75-0.18453" style="fill-rule:evenodd;fill:#80b3ff;opacity:.43721;stroke-linecap:round;stroke-linejoin:round;stroke-width:.25;stroke:#80b3ff"/>
 <path id="path7651" d="m40.875 33.83-33.75-0.18453" style="fill-rule:evenodd;fill:#80b3ff;opacity:.43721;stroke-linecap:round;stroke-linejoin:round;stroke-width:.25;stroke:#80b3ff"/>
 <path id="path7653" d="m40.875 35.814-33.75-0.18453" style="fill-rule:evenodd;fill:#80b3ff;opacity:.43721;stroke-linecap:round;stroke-linejoin:round;stroke-width:.25;stroke:#80b3ff"/>
 <path id="path7655" d="m40.875 37.797-33.75-0.18454" style="fill-rule:evenodd;fill:#80b3ff;opacity:.43721;stroke-linecap:round;stroke-linejoin:round;stroke-width:.25;stroke:#80b3ff"/>
 <path id="path7657" d="m40.875 39.78-33.75-0.18453" style="fill-rule:evenodd;fill:#80b3ff;opacity:.43721;stroke-linecap:round;stroke-linejoin:round;stroke-width:.25;stroke:#80b3ff"/>
 <path id="path7659" d="m40.875 41.875-33.75-0.18453" style="fill-rule:evenodd;fill:#80b3ff;opacity:.43721;stroke-linecap:round;stroke-linejoin:round;stroke-width:.25;stroke:#80b3ff"/>
 <path id="path7671" d="m35.25 4.1673 1.0495 39.5" style="fill:none;opacity:.5907;stroke-linecap:round;stroke-linejoin:round;stroke-width:.5;stroke:#b9d5ff"/>
 <path id="path3715" d="m12.999 11.546h2.348m0.33542 0h2.1803m0.35096 0h1.9455m0.31989 0h0.83856m0.33542 0h1.8784m0.36897 0h4.9307m0.33543 0h3.7568m0.33542 0h1.1404m-21.4 1.9537h3.6406m0.42356 0h1.7396m0.32158 0h0.85845m0.34927 0h1.6024m0.33542 0h1.6433m0.31021 0h2.5804m0.33543 0h3.4042m-17.545 1.98h3.0814m0.3237 0h5.0748m0.31103 0h2.4612m0.31545 0h2.3024m0.33018 0h1.9613m0.31545 0 3.0847 0.019972m-19.562 2h4.2844m0.33643 0h4.6306m0.31989 0h1.8197m0.33542 0h4.3311m0.29151 0h2.9685m0.33543 0h1.1749m0.33542 0h0.64989m-21.813 2h1.5992m0.49134 0h5.9215m-8.0121 10h3.6406m0.42356 0h1.7396m0.32158 0h0.85845m0.34927 0h1.6024m0.33542 0h1.6433m0.31021 0h2.5804m-13.805 3.98h3.0814m0.3237 0h5.0748m0.31103 0h2.4612m8.6973 0.061356h5.0269m-24.976-6.0414h4.2844m0.33643 0h4.6306m0.31989 0h1.8197m0.33542 0h4.3311m-16.057-4h2.348m0.33542 0h2.1803m0.35096 0h1.9455m0.31989 0h0.83856m0.33542 0h1.8784m0.36897 0h4.9307m0.33543 0h3.7568m-19.924 2h3.9543m0.31104 0h4.199m0.31989 0h1.6419m0.31004 0h3.9503m0.3169 0h4.3142m-19.318 10h3.6952m0.39666 0h1.6291m0.38158 0h0.81256m0.25866 0h1.604m0.21295 0h8.4921m0.39959 0h2.2669m0.30481 0h0.57237m-16.817 2h1.2054m-5.4151 0h3.8569m1.8665 0h2.8045m0.29667 0h4.1169m0.31989 0h2.7929m0.28114 0h0.57551m0.31468 0h3.5464m0.36257 0h1.8567m-18.782 2h1.7019m-5.9117 0h3.8569m2.4236 0h2.3928" style="fill:none;stroke-width:1px;stroke:url(#linearGradient3781)"/>
 <path id="path2422" d="m38.469 23.944c-0.17326-0.10199-0.30732-0.07546-0.39588-0.01871l-11.796 7.5114-2.171 1.3864-0.06684 0.02805-2.5704 5.792 6.3701 0.19187 0.05288-0.03539 2.185-1.379 11.793-7.5762c0.35427-0.22699-0.20602-1.7314-1.2569-3.3806-0.78813-1.2369-1.6243-2.2138-2.1441-2.5198z" style="fill-rule:evenodd;fill:#0c0c0c;opacity:.15"/>
 <path id="rect2383" d="m24.934 31.028c0.44592-0.33462 1.6971 0.29307 2.8469 1.4371 1.147 1.1413 1.7514 2.3626 1.4244 2.8129-0.0012 0.0017 0.02814 0.02504 0.02686 0.02673l16.01-16.089c0.40648-0.40848-0.22508-1.6993-1.4114-2.8797-1.1863-1.1804-2.4803-1.8055-2.8868-1.3971l-16.01 16.089z" style="fill:url(#linearGradient2697);stroke-linejoin:round;stroke-width:.5;stroke:#0c0c0c"/>
 <path id="rect3175" d="m38.99 16.903c0.44592-0.33462 1.6971 0.29307 2.8469 1.4371 1.147 1.1413 1.7514 2.3626 1.4244 2.8129-0.0012 0.0017 0.02814 0.02504 0.02686 0.02673l1.9539-1.9635 0.03988-0.04007c0.0013-0.0017-0.02811-0.02502-0.02686-0.02673 0.32704-0.45028-0.27735-1.6716-1.4244-2.8129-1.1498-1.1441-2.401-1.7717-2.8469-1.4371l-0.03988 0.04007-1.9539 1.9635h3e-6z" style="fill:#ffb6ed;opacity:.8;stroke-linejoin:round;stroke-width:.5;stroke:#e28ccd"/>
 <path id="path3208" d="m24.934 31.028c0.44592-0.33462 1.6971 0.29307 2.8469 1.4371 1.147 1.1413 1.7514 2.3626 1.4244 2.8129-0.0012 0.0017 0.02814 0.02504 0.02687 0.02673l11.026-11.08 0.03988-0.04007c0.0013-0.0017-0.02811-0.02502-0.02686-0.02673 0.32703-0.45029-0.27735-1.6716-1.4244-2.8129-1.1498-1.1441-2.401-1.7717-2.8469-1.4371l-0.03988 0.04007-11.026 11.08h-5e-6z" style="fill:#0c0c0c;opacity:.6"/>
 <path id="path3233" d="m36.8 19.104c0.44592-0.33462 1.6971 0.29307 2.8469 1.4371 1.147 1.1413 1.7514 2.3626 1.4244 2.8129-0.0012 0.0017 0.02814 0.02504 0.02686 0.02673l0.19938-0.20036c0.0013-0.0017-0.02811-0.02502-0.02686-0.02673 0.32704-0.45029-0.27735-1.6716-1.4244-2.8129-1.1498-1.1441-2.401-1.7717-2.8469-1.4371l-0.19938 0.20036v1e-6z" style="fill:url(#linearGradient2691)"/>
 <path id="path3216" d="m36.617 19.288c0.44592-0.33462 1.6971 0.29307 2.8469 1.4371 1.147 1.1413 1.7514 2.3626 1.4244 2.8129-0.0012 0.0017 0.02813 0.02504 0.02686 0.02673l0.19938-0.20036c0.0013-0.0017-0.02811-0.02502-0.02686-0.02673 0.32704-0.45028-0.27734-1.6716-1.4244-2.8129-1.1498-1.1441-2.401-1.7717-2.8469-1.4371l-0.19938 0.20036v1e-6z" style="fill:url(#linearGradient2688)"/>
 <path id="path3248" d="m37.435 18.466c0.44592-0.33462 1.6971 0.29307 2.8469 1.4371 1.147 1.1413 1.7514 2.3626 1.4244 2.8129-0.0012 0.0017 0.02813 0.02504 0.02686 0.02673l0.19938-0.20036c0.0013-0.0017-0.02811-0.02502-0.02686-0.02673 0.32704-0.45029-0.27735-1.6716-1.4244-2.8129-1.1498-1.1441-2.401-1.7717-2.8469-1.4371l-0.19938 0.20036z" style="fill:url(#linearGradient2685)"/>
 <path id="path3250" d="m37.252 18.65c0.44592-0.33462 1.6971 0.29307 2.8469 1.4371 1.147 1.1413 1.7514 2.3626 1.4244 2.8129-0.0012 0.0017 0.02814 0.02504 0.02686 0.02673l0.19938-0.20036c0.0013-0.0017-0.02811-0.02502-0.02686-0.02673 0.32704-0.45029-0.27734-1.6716-1.4244-2.8129-1.1498-1.1441-2.401-1.7717-2.8469-1.4371l-0.19938 0.20036z" style="fill:url(#linearGradient2682)"/>
 <path id="path3256" d="m38.073 17.825c0.44592-0.33462 1.6971 0.29307 2.8469 1.4371 1.147 1.1413 1.7514 2.3626 1.4244 2.8129-0.0012 0.0017 0.02813 0.02504 0.02686 0.02673l0.19938-0.20036c0.0013-0.0017-0.02811-0.02502-0.02686-0.02673 0.32704-0.45028-0.27735-1.6716-1.4244-2.8129-1.1498-1.1441-2.401-1.7717-2.8469-1.4371l-0.19938 0.20036h1e-6z" style="fill:url(#linearGradient2679)"/>
 <path id="path3258" d="m37.89 18.009c0.44592-0.33462 1.6971 0.29307 2.8469 1.4371 1.147 1.1413 1.7514 2.3626 1.4244 2.8129-0.0012 0.0017 0.02814 0.02504 0.02686 0.02673l0.19938-0.20035c0.0013-0.0017-0.02811-0.02502-0.02686-0.02673 0.32704-0.45029-0.27735-1.6716-1.4244-2.8129-1.1498-1.1441-2.401-1.7717-2.8469-1.4371l-0.19938 0.20036z" style="fill:url(#linearGradient2676)"/>
 <path id="path3270" d="m21.866 38.31 7.2837-2.9708 0.06206-0.06205c0.32704-0.45029-0.28523-1.6717-1.4323-2.813-1.1498-1.1441-2.3995-1.7683-2.8454-1.4337l-3.0681 7.2795h-5e-6z" style="fill-rule:evenodd;fill:url(#linearGradient2670);stroke-width:.5;stroke:url(#linearGradient2673)"/>
 <path id="path3281" d="m22.697 36.339-0.83152 1.9638 1.9866-0.81443c-0.15923-0.19072-0.30622-0.38444-0.49739-0.57466-0.22009-0.219-0.43657-0.39669-0.65773-0.57471z" style="fill-rule:evenodd;fill:#0c0c0c;stroke-width:.5;stroke:#0c0c0c"/>
</svg>
