<?xml version="1.0" encoding="UTF-8"?>
<!-- Created with Inkscape (http://www.inkscape.org/) -->
<svg id="svg19123" width="48" height="48" version="1.1" xmlns="http://www.w3.org/2000/svg" xmlns:xlink="http://www.w3.org/1999/xlink">
 <defs id="defs19125">
  <radialGradient id="radialGradient2873-966-168" cx="4.993" cy="43.5" r="2.5" gradientTransform="matrix(2.0038 0 0 1.4 27.988 -17.4)" gradientUnits="userSpaceOnUse">
   <stop id="stop2883" style="stop-color:#181818" offset="0"/>
   <stop id="stop2885" style="stop-color:#181818;stop-opacity:0" offset="1"/>
  </radialGradient>
  <radialGradient id="radialGradient2875-742-326" cx="4.993" cy="43.5" r="2.5" gradientTransform="matrix(2.0038 0 0 1.4 -20.012 -104.4)" gradientUnits="userSpaceOnUse">
   <stop id="stop2889" style="stop-color:#181818" offset="0"/>
   <stop id="stop2891" style="stop-color:#181818;stop-opacity:0" offset="1"/>
  </radialGradient>
  <linearGradient id="linearGradient2877-634-617" x1="25.058" x2="25.058" y1="47.028" y2="39.999" gradientUnits="userSpaceOnUse">
   <stop id="stop2895" style="stop-color:#181818;stop-opacity:0" offset="0"/>
   <stop id="stop2897" style="stop-color:#181818" offset=".5"/>
   <stop id="stop2899" style="stop-color:#181818;stop-opacity:0" offset="1"/>
  </linearGradient>
  <linearGradient id="linearGradient3003" x1="24" x2="24" y1="5" y2="43" gradientTransform="translate(0 .96744)" gradientUnits="userSpaceOnUse">
   <stop id="stop2919" style="stop-color:#fff" offset="0"/>
   <stop id="stop2921" style="stop-color:#fff;stop-opacity:0" offset="1"/>
  </linearGradient>
  <radialGradient id="radialGradient3006" cx="7.4957" cy="8.4498" r="20" gradientTransform="matrix(0 2.2998 -3.0782 -9.7041e-8 50.01 -11.188)" gradientUnits="userSpaceOnUse">
   <stop id="stop2903" style="stop-color:#d3d3d3" offset="0"/>
   <stop id="stop2905" style="stop-color:#b1b1b1" offset=".26238"/>
   <stop id="stop2907" style="stop-color:#8e8e8e" offset=".66094"/>
   <stop id="stop2909" style="stop-color:#525252" offset="1"/>
  </radialGradient>
  <linearGradient id="linearGradient3008" x1="24" x2="24" y1="44" y2="3.899" gradientTransform="translate(0 .96744)" gradientUnits="userSpaceOnUse">
   <stop id="stop2913" style="stop-color:#545454" offset="0"/>
   <stop id="stop2915" style="stop-color:#a4a4a4" offset="1"/>
  </linearGradient>
 </defs>
 <g id="g2036" transform="matrix(1.1 0 0 .44444 -2.4 25.111)">
  <g id="g3712" transform="matrix(1.0526 0 0 1.2857 -1.2632 -13.429)" style="opacity:.4">
   <rect id="rect2801" x="38" y="40" width="5" height="7" style="fill:url(#radialGradient2873-966-168)"/>
   <rect id="rect3696" transform="scale(-1)" x="-10" y="-47" width="5" height="7" style="fill:url(#radialGradient2875-742-326)"/>
   <rect id="rect3700" x="10" y="40" width="28" height="7" style="fill:url(#linearGradient2877-634-617)"/>
  </g>
 </g>
 <rect id="rect5505" x="4.5" y="5.4674" width="39" height="39" rx="2.2322" ry="2.2322" style="fill:url(#radialGradient3006);stroke-linecap:round;stroke-linejoin:round;stroke:url(#linearGradient3008)"/>
 <rect id="rect6741" x="5.5" y="6.4674" width="37" height="37" rx="1.3652" ry="1.3652" style="fill:none;opacity:.4;stroke-linecap:round;stroke-linejoin:round;stroke:url(#linearGradient3003)"/>
 <path id="path3298" d="m24.91 30.164c-0.06608-2.3588 0.46237-4.6486 2.6909-6.2706 2.3539-1.8344 4.6208-4.1294 4.3812-6.8348-0.05231-2.6091-3.0922-4.6535-6.3675-4.9475-3.6842-0.51039-8.142 0.75174-9.3766 3.6289-0.62613 1.3994-0.0455 3.91 2.0558 3.91 1.2291 0 1.7936-0.79393 1.8863-1.5202 0.07017-0.54951-0.15543-1.0402-0.28867-1.4941-0.15181-0.51719 0.49625-1.5196 1.2021-1.928 0.5898-0.34127 1.2069-0.45571 1.2978-0.47757 2.1181-0.50904 4.2296 0.61537 5.1106 1.9839 0.88095 1.3685-0.08871 3.4444-1.4829 5.463-1.3941 2.0187-2.8903 4.3114-2.8843 6.7467 0 0.92712-0.08261 1.2421-0.02391 1.6172 0.04689 0.29969 1.0392 0.26347 1.7992 0.12291zm-0.96666 3.1748c-2.0253-0.10994-3.4271 2.186-2.2104 3.6488 1.0866 1.6151 4.133 1.2164 4.6552-0.61254 0.54286-1.4222-0.76354-3.06-2.4448-3.0363l-1e-6 1e-6z" style="fill:#fff;opacity:.4"/>
 <path id="path9053" d="m24.91 29.164c-0.06608-2.3588 0.46237-4.6486 2.6909-6.2706 2.3539-1.8344 4.6208-4.1294 4.3812-6.8348-0.05231-2.6091-3.0922-4.6535-6.3675-4.9475-3.6842-0.51039-8.142 0.75174-9.3766 3.6289-0.62613 1.3994-0.0455 3.91 2.0558 3.91 1.2291 0 1.7936-0.79393 1.8863-1.5202 0.07017-0.54951-0.15543-1.0402-0.28867-1.4941-0.15181-0.51719 0.49625-1.5196 1.2021-1.928 0.5898-0.34127 1.2069-0.45571 1.2978-0.47757 2.1181-0.50904 4.2296 0.61537 5.1106 1.9839 0.88095 1.3685-0.08871 3.4444-1.4829 5.463-1.3941 2.0187-2.8903 4.3114-2.8843 6.7467 0 0.92712-0.08261 1.2421-0.02391 1.6172 0.04689 0.29969 1.0392 0.26347 1.7992 0.12291zm-0.96666 3.1748c-2.0253-0.10994-3.4271 2.186-2.2104 3.6488 1.0866 1.6151 4.133 1.2164 4.6552-0.61254 0.54286-1.4222-0.76354-3.06-2.4448-3.0363l-1e-6 1e-6z" style="opacity:.4"/>
</svg>
