<?xml version="1.0" encoding="UTF-8"?>
<!-- Created with Inkscape (http://www.inkscape.org/) -->
<svg id="svg3082" width="48" height="48" version="1.1" xmlns="http://www.w3.org/2000/svg" xmlns:xlink="http://www.w3.org/1999/xlink">
 <defs id="defs3084">
  <linearGradient id="linearGradient5060">
   <stop id="stop5062" offset="0"/>
   <stop id="stop5064" style="stop-opacity:0" offset="1"/>
  </linearGradient>
  <linearGradient id="linearGradient4168">
   <stop id="stop4170" style="stop-color:#f8cd70" offset="0"/>
   <stop id="stop4172" style="stop-color:#cc9110" offset="1"/>
  </linearGradient>
  <radialGradient id="radialGradient5537" cx="40.128" cy="9.9662" r="1.0607" gradientTransform="matrix(1.8725 2.2096e-6 -2.2597e-6 1.9134 -42.642 -9.5692)" gradientUnits="userSpaceOnUse" xlink:href="#linearGradient4168"/>
  <radialGradient id="radialGradient5540" cx="40.128" cy="9.9662" r="1.0607" gradientTransform="matrix(1.8725 2.2587e-6 -2.2597e-6 1.8717 -38.642 -9.1541)" gradientUnits="userSpaceOnUse" xlink:href="#linearGradient4168"/>
  <radialGradient id="radialGradient5543" cx="40.128" cy="9.9662" r="1.0607" gradientTransform="matrix(1.8725 -1.5971e-7 1.5267e-7 1.7884 -34.642 -8.3239)" gradientUnits="userSpaceOnUse" xlink:href="#linearGradient4168"/>
  <linearGradient id="linearGradient5546" x1="24" x2="24" y1="13" y2="40" gradientTransform="matrix(1.0526 0 0 1.0741 -1.2632 -.96296)" gradientUnits="userSpaceOnUse">
   <stop id="stop6459" style="stop-color:#fff;stop-opacity:.94118" offset="0"/>
   <stop id="stop6461" style="stop-color:#fff;stop-opacity:.70588" offset="1"/>
  </linearGradient>
  <linearGradient id="linearGradient5549" x1="16.034" x2="15.935" y1="9.0735" y2="38.927" gradientTransform="matrix(1.3226 0 0 1.2414 -9.0645 -5.2931)" gradientUnits="userSpaceOnUse">
   <stop id="stop3317" style="stop-color:#fff" offset="0"/>
   <stop id="stop3319" style="stop-color:#fff;stop-opacity:0" offset="1"/>
  </linearGradient>
  <linearGradient id="linearGradient5552" x1="21.866" x2="21.78" y1="8.5763" y2="39.924" gradientTransform="matrix(1.303 0 0 1.2459 -8.5757 -5.7131)" gradientUnits="userSpaceOnUse">
   <stop id="stop2783" style="stop-color:#505050" offset="0"/>
   <stop id="stop6301" style="stop-color:#6e6e6e" offset=".13216"/>
   <stop id="stop2785" style="stop-color:#8c8c8c" offset="1"/>
  </linearGradient>
  <radialGradient id="radialGradient6367" cx="605.71" cy="486.65" r="117.14" gradientTransform="matrix(-.062854 0 0 .024706 46.705 31.442)" gradientUnits="userSpaceOnUse" xlink:href="#linearGradient5060"/>
  <radialGradient id="radialGradient6370" cx="605.71" cy="486.65" r="117.14" gradientTransform="matrix(.062854 0 0 .024706 1.295 31.442)" gradientUnits="userSpaceOnUse" xlink:href="#linearGradient5060"/>
  <linearGradient id="linearGradient6381" x1="302.86" x2="302.86" y1="366.65" y2="609.51" gradientTransform="matrix(.062854 0 0 .024706 1.2826 31.442)" gradientUnits="userSpaceOnUse">
   <stop id="stop5050" style="stop-opacity:0" offset="0"/>
   <stop id="stop5056" offset=".5"/>
   <stop id="stop5052" style="stop-opacity:0" offset="1"/>
  </linearGradient>
 </defs>
 <g id="g5519">
  <g id="g5514">
   <path id="rect4173" d="m8.8125 40.5v6h19.5l-5.5938-6h-13.906zm19.406 0 5.5625 6h5.4062v-6h-10.969z" style="fill:url(#linearGradient6381);opacity:.23613"/>
   <path id="path5058" d="m39.175 40.5v5.9997c3.2369 0.01129 7.8251-1.3442 7.8251-3.0002 0-1.656-3.6121-2.9994-7.8251-2.9994z" style="fill:url(#radialGradient6370);opacity:.23613"/>
   <path id="path5018" d="m8.8251 40.5v5.9997c-3.2369 0.011294-7.8251-1.3442-7.8251-3.0002s3.6121-2.9994 7.8251-2.9994z" style="fill:url(#radialGradient6367);opacity:.23613"/>
  </g>
  <path id="rect1887" d="m4.5 5.5c-1.108 0-2 0.892-2 2v34c0 1.108 0.892 2 2 2h21.031l-4.4688-4.7812 8.625-8.3438-18.688-15.375 12.688-9.5h-19.188zm25.812 0-13.312 9.5 18.469 15.281-8.7188 8.6562 4.25 4.5625h12.5c1.108 0 2-0.892 2-2v-34c0-1.108-0.892-2-2-2h-13.188z" style="fill:url(#linearGradient5552);stroke:#565853"/>
  <path id="rect2779" d="m4.5 6.5c-0.554 0-1 0.446-1 1v34c0 0.554 0.446 1 1 1h20.094l-3.5312-3.7812 8.625-8.3438-18.688-15.375 11.344-8.5h-17.844zm24.406 0-11.906 8.5 18.469 15.281-8.7188 8.6562 3.3125 3.5625h13.438c0.554 0 1-0.446 1-1v-34c0-0.554-0.446-1-1-1h-14.594z" style="fill:none;opacity:.2;stroke:url(#linearGradient5549)"/>
  <path id="rect6287" d="m5.0625 13c-0.58316 0-1.0625 0.46746-1.0625 1.0625v26.875c0 0.59504 0.47934 1.0625 1.0625 1.0625h19.062l-3.0625-3.2812 8.625-8.3438-18.688-15.375 2.6562-2h-8.5938zm14.75 0-2.8125 2 18.469 15.281-8.7188 8.6562 2.8438 3.0625h13.344c0.58316 0 1.0625-0.46746 1.0625-1.0625v-26.875c0-0.59504-0.47934-1.0625-1.0625-1.0625h-23.125z" style="fill:url(#linearGradient5546)"/>
  <path id="path6289" d="m42 9.5c3.59e-4 0.82832-0.67132 1.5-1.5 1.5s-1.5004-0.67168-1.5-1.5c-3.59e-4 -0.82832 0.67132-1.5 1.5-1.5s1.5004 0.67168 1.5 1.5z" style="fill:url(#radialGradient5543)"/>
  <path id="path6291" d="m38 9.5c3.59e-4 0.82832-0.67132 1.5-1.5 1.5s-1.5004-0.67168-1.5-1.5c-3.59e-4 -0.82832 0.67132-1.5 1.5-1.5s1.5004 0.67168 1.5 1.5z" style="fill:url(#radialGradient5540)"/>
  <path id="path6293" d="m34 9.5c3.59e-4 0.82832-0.67132 1.5-1.5 1.5s-1.5004-0.67168-1.5-1.5c-3.59e-4 -0.82832 0.67132-1.5 1.5-1.5s1.5004 0.67168 1.5 1.5z" style="fill:url(#radialGradient5537)"/>
 </g>
</svg>
