<?xml version="1.0" encoding="UTF-8"?>
<!-- Created with Inkscape (http://www.inkscape.org/) -->
<svg id="svg11300" width="48" height="48" version="1.0" xmlns="http://www.w3.org/2000/svg" xmlns:xlink="http://www.w3.org/1999/xlink">
 <defs id="defs3">
  <linearGradient id="linearGradient3785">
   <stop id="stop3787" style="stop-color:#bdbdbd" offset="0"/>
   <stop id="stop3789" style="stop-color:#8c8c8c" offset="1"/>
  </linearGradient>
  <linearGradient id="linearGradient6954">
   <stop id="stop6960" style="stop-color:#f5f5f5" offset="0"/>
   <stop id="stop6962" style="stop-color:#d2d2d2" offset="1"/>
  </linearGradient>
  <linearGradient id="linearGradient3341">
   <stop id="stop3343" style="stop-color:#fff" offset="0"/>
   <stop id="stop3345" style="stop-color:#fff;stop-opacity:0" offset="1"/>
  </linearGradient>
  <linearGradient id="linearGradient5060">
   <stop id="stop5062" offset="0"/>
   <stop id="stop5064" style="stop-opacity:0" offset="1"/>
  </linearGradient>
  <radialGradient id="radialGradient2880" cx="32" cy="41.5" r="21" gradientTransform="matrix(1 0 0 .35714 0 26.679)" gradientUnits="userSpaceOnUse" xlink:href="#linearGradient5060"/>
  <radialGradient id="radialGradient2882" cx="25" cy="28.66" r="16" gradientTransform="matrix(1.3125 0 0 .37327 -7.8125 20.302)" gradientUnits="userSpaceOnUse" xlink:href="#linearGradient6954"/>
  <linearGradient id="linearGradient2884" x1="30" x2="30" y1="25.085" y2="45" gradientUnits="userSpaceOnUse" xlink:href="#linearGradient3785"/>
  <linearGradient id="linearGradient2886" x1="24.787" x2="24.875" y1="53.869" y2="83.5" gradientUnits="userSpaceOnUse" xlink:href="#linearGradient3341"/>
  <radialGradient id="radialGradient2888" cx="26.376" cy="12.313" r="8" gradientTransform="matrix(1.6402 -.13258 .12811 1.5849 -18.396 -5.2274)" gradientUnits="userSpaceOnUse" xlink:href="#linearGradient6954"/>
  <linearGradient id="linearGradient2890" x1="30" x2="30" y1="5" y2="44.679" gradientUnits="userSpaceOnUse" xlink:href="#linearGradient3785"/>
  <linearGradient id="linearGradient2892" x1="22" x2="17" y1="39" y2="37.438" gradientUnits="userSpaceOnUse" xlink:href="#linearGradient5060"/>
  <linearGradient id="linearGradient2894" x1="38" x2="43" y1="39" y2="38.6" gradientUnits="userSpaceOnUse" xlink:href="#linearGradient5060"/>
  <radialGradient id="radialGradient2896" cx="30" cy="33.188" r="4.6875" gradientTransform="matrix(1.528 -7.0647e-7 2.1309e-7 .46087 -15.839 14.705)" gradientUnits="userSpaceOnUse" xlink:href="#linearGradient5060"/>
  <linearGradient id="linearGradient2898" x1="30" x2="30" y1="3.0411" y2="27.957" gradientUnits="userSpaceOnUse" xlink:href="#linearGradient3341"/>
  <radialGradient id="radialGradient2456" cx="23.896" cy="3.99" r="20.397" gradientTransform="matrix(0 1.2316 -1.6257 0 18.487 -28.721)" gradientUnits="userSpaceOnUse">
   <stop id="stop2778" style="stop-color:#8badea" offset="0"/>
   <stop id="stop2780" style="stop-color:#6396cd" offset=".26238"/>
   <stop id="stop2782" style="stop-color:#3b7caf" offset=".66094"/>
   <stop id="stop2784" style="stop-color:#194c70" offset="1"/>
  </radialGradient>
  <linearGradient id="linearGradient2458" x1="18.379" x2="18.379" y1="44.98" y2="3.0816" gradientTransform="matrix(.51604 0 0 .51604 -.38499 -.38499)" gradientUnits="userSpaceOnUse">
   <stop id="stop2788" style="stop-color:#1f4b6a" offset="0"/>
   <stop id="stop2790" style="stop-color:#4083c2" offset="1"/>
  </linearGradient>
  <linearGradient id="linearGradient3843" x1="63.397" x2="63.397" y1="-12.489" y2="5.4676" gradientTransform="matrix(1.0863 0 0 1.0862 -55.567 15.814)" gradientUnits="userSpaceOnUse" xlink:href="#linearGradient3341"/>
 </defs>
 <g id="g3055">
  <g id="g3912" transform="translate(-8)">
   <path id="path3823" transform="matrix(.85714 0 0 .8 2.5714 7.8)" d="m53 41.5a21 7.5 0 1 1-42 0 21 7.5 0 1 1 42 0z" style="fill:url(#radialGradient2880);opacity:.7"/>
   <path id="path3766" d="m25.5 20.5c0.46022 2.1767 0.71709 3.8233 0.34375 6-2.9107 2.4149-10.355 3.5-10.344 6l-1 7.5c0 2.4853 6.9396 4.5 15.5 4.5s15.5-2.0147 15.5-4.5l-1-7.5c-0.01187-2.1397-7.5-3.5-10.375-6-0.24557-2.0203-0.05009-3.9797 0.375-6h-9z" style="fill:url(#radialGradient2882);stroke:url(#linearGradient2884)"/>
   <path id="path3894" transform="translate(4.125 -39.5)" d="m22.531 61c0.30464 1.6903 0.51076 3.2715 0.1875 5.1562a1.0027 1.0027 0 0 1-0.375 0.625c-1.7218 1.4285-4.3454 2.2543-6.5312 3.125-1.0929 0.43533-2.0659 0.86976-2.6875 1.2812s-0.75057 0.6854-0.75 0.8125a1.0027 1.0027 0 0 1 0 0.125l-1 7.375c0 3e-3 -1.1e-4 0.02807 0 0.03125 0.0055 0.15834 0.15008 0.47302 0.78125 0.90625 0.64383 0.44193 1.6943 0.89312 3.0312 1.2812 2.6738 0.77627 6.486 1.2812 10.688 1.2812s8.0137-0.50498 10.688-1.2812c1.3369-0.38813 2.3874-0.83932 3.0312-1.2812 0.63117-0.43323 0.77575-0.74791 0.78125-0.90625v-0.03125l-1-7.375a1.0027 1.0027 0 0 1 0-0.125c1.37e-4 0.02464 0.01573 0.0028-0.09375-0.125-0.10948-0.12777-0.33441-0.29902-0.65625-0.5-0.64368-0.40196-1.6457-0.85747-2.75-1.3125-2.2087-0.91006-4.8364-1.8388-6.5312-3.3125a1.0027 1.0027 0 0 1-0.34375-0.625c-0.21189-1.7432-0.057458-3.4407 0.21875-5.125h-6.6875z" style="fill:none;stroke:url(#linearGradient2886)"/>
   <path id="path3764" d="m30 5.5c-4.1421 0-7.5 3.134-7.5 7 0.03246 1.4307 0.15457 3.1304 1 7 0.5 1.5 4.9598 5.5 5 6 0.96967 0.5 2.5 0.5 3.5 0 0-0.5 4-4.5 4.5-6 0.95138-4.0217 0.94897-5.5 1-7 0-3.866-3.3579-7-7.5-7z" style="fill:url(#radialGradient2888);stroke:url(#linearGradient2890)"/>
   <path id="path3848" d="m21 43.2c-2.3623-1.9822-1.2359-6.3829-1-9.2-1 2-1 8-3 8 1.3626 0.45855 2.7496 0.96579 4 1.2z" style="fill:url(#linearGradient2892);opacity:.3"/>
   <path id="path3850" d="m39 43.2c2.35-1.7437 1.1567-6.4859 1-9.2 1 2 1 8 3 8-1.3626 0.45855-2.7496 0.96579-4 1.2z" style="fill:url(#linearGradient2894);opacity:.3"/>
   <path id="path3833" d="m25.312 27c0.6863 1.7448 2.5189 3 4.6875 3s4.0012-1.2552 4.6875-3h-9.375z" style="fill:url(#radialGradient2896);opacity:.2"/>
   <path id="path3906" transform="matrix(1.0045 0 0 1.0034 -.1356 -.051359)" d="m30 6.5312c-3.6136 0-6.4504 2.679-6.4688 5.9375 1.42e-4 0.0063-1.45e-4 0.02499 0 0.03125 0.03183 1.3739 0.15643 2.9814 0.96875 6.7188 0.04059 0.09664 0.33476 0.58291 0.78125 1.125 0.46068 0.55932 1.0398 1.1939 1.625 1.8125s1.1773 1.2325 1.625 1.7188c0.22386 0.24314 0.40533 0.4577 0.5625 0.65625 0.01424 0.01799 0.01751 0.04473 0.03125 0.0625 0.57991 0.22794 1.5899 0.23044 2.2188 0 0.14029-0.2036 0.3001-0.44272 0.5-0.6875 0.3998-0.48956 0.91074-1.0678 1.4375-1.6875s1.0788-1.2822 1.5-1.8438c0.40031-0.53374 0.65761-0.97666 0.71875-1.125 0.0033-0.01388-0.0033-0.01744 0-0.03125 0.92253-3.9093 0.91824-5.2123 0.96875-6.7188 0-0.01056 5.9e-5 -0.0207 0-0.03125-0.018317-3.2585-2.8551-5.9375-6.4688-5.9375z" style="fill:none;opacity:.7;stroke:url(#linearGradient2898)"/>
  </g>
  <g id="layer1" transform="translate(23 25)">
   <path id="path2555" d="m12 1.5018c-5.7926 0-10.498 4.7057-10.498 10.498 0 5.7926 4.7057 10.498 10.498 10.498 5.7926 0 10.498-4.7057 10.498-10.498 0-5.7926-4.7057-10.498-10.498-10.498z" style="fill:url(#radialGradient2456);stroke-linecap:round;stroke-linejoin:round;stroke-width:1.0037;stroke:url(#linearGradient2458)"/>
   <path id="path2463" d="m21.5 12c0 5.2469-4.2536 9.5003-9.4999 9.5003-5.2468 0-9.5001-4.2535-9.5001-9.5003 0-5.2466 4.2534-9.4997 9.5001-9.4997 5.2463 0 9.4999 4.253 9.4999 9.4997z" style="fill:none;opacity:.4;stroke:url(#linearGradient3843)"/>
   <path id="text3482" d="m9 10.851c0.13386 0.36388 0.28452 0.65884 0.60545 0.25553 0.39788-0.23673 1.731-1.2744 1.5976-0.25798-0.42688 1.8808-0.94648 3.7418-1.3438 5.6285-0.41543 1.033 0.52793 1.9674 1.5129 1.2956 1.0469-0.43158 1.9478-1.1346 2.8681-1.7794-0.12558-0.30796-0.20927-0.75035-0.55625-0.34761-0.4556 0.20679-1.4507 1.1817-1.6355 0.37762 0.3827-2.0366 1.0918-3.9978 1.545-6.0181 0.4171-0.92895-0.2641-2.1027-1.2838-1.3343-1.2216 0.53205-2.2432 1.4012-3.3097 2.1802zm4.5338-6.8497c-1.2464-0.066145-1.8981 1.9431-0.71361 2.4929 0.96093 0.39409 2.0072-0.59147 1.7725-1.5763-0.072852-0.51279-0.53324-0.93388-1.0588-0.91663h-1e-6z" style="opacity:.2"/>
   <path id="path3536" d="m9 11.851c0.13386 0.36388 0.28452 0.65884 0.60545 0.25553 0.39788-0.23673 1.731-1.2744 1.5976-0.25798-0.42688 1.8808-0.94648 3.7418-1.3438 5.6285-0.41543 1.033 0.52793 1.9674 1.5129 1.2956 1.0469-0.43158 1.9478-1.1346 2.8681-1.7794-0.12558-0.30796-0.20927-0.75035-0.55625-0.34761-0.4556 0.20679-1.4507 1.1817-1.6355 0.37762 0.3827-2.0366 1.0918-3.9978 1.545-6.0181 0.4171-0.92895-0.2641-2.1027-1.2838-1.3343-1.2216 0.53205-2.2432 1.4012-3.3097 2.1802zm4.5338-6.8497c-1.2464-0.066145-1.8981 1.9431-0.71361 2.4929 0.96093 0.39409 2.0072-0.59147 1.7725-1.5763-0.072852-0.51279-0.53324-0.93388-1.0588-0.91663h-1e-6z" style="fill:#fff"/>
  </g>
 </g>
</svg>
