<?xml version="1.0" encoding="UTF-8"?>
<!-- Created with Inkscape (http://www.inkscape.org/) -->
<svg id="svg3187" width="16" height="16" version="1.0" xmlns="http://www.w3.org/2000/svg" xmlns:cc="http://creativecommons.org/ns#" xmlns:dc="http://purl.org/dc/elements/1.1/" xmlns:rdf="http://www.w3.org/1999/02/22-rdf-syntax-ns#">
 <metadata id="metadata10">
  <rdf:RDF>
   <cc:Work rdf:about="">
    <dc:format>image/svg+xml</dc:format>
    <dc:type rdf:resource="http://purl.org/dc/dcmitype/StillImage"/>
    <dc:title/>
   </cc:Work>
  </rdf:RDF>
 </metadata>
 <path id="path2496-2" d="m12.95 13.95-0.5656-0.5657m0.0707-8.8388 0.4949-0.49498m-9.3338 0.56568-0.5656-0.56568m-2.0503 4.9498h1m12 0h1m-7-6v-1" style="fill:none;opacity:.3;stroke-linecap:round;stroke-width:2;stroke:#000"/>
 <path id="path2876-6-6-4-0-8" d="m8 5c-2.2091-1e-7 -4 1.7909-4 4 0 0.28675 0.036407 0.5741 0.09375 0.84375 0.58104-0.52754 1.3012-0.90625 2.1562-0.90625 1.6151 0 2.9249 1.1871 3.1875 2.7188 0.30803 0.17626 0.5659 0.41094 0.8125 0.65625 0.0052 0.0052 0.02604-0.0053 0.03125 0 1.0524-0.72058 1.7188-1.9407 1.7188-3.3125 0-2.2091-1.7909-4-4-4zm-1.75 5c-0.84473 0-1.5684 0.45537-1.9531 1.1116-0.21663-0.15446-0.49328-0.25446-0.79687-0.25446-0.69 0-1.25 0.48-1.25 1.0714 0 0.13283 0.026505 0.25759 0.078125 0.375-0.78475 0.30055-1.3281 0.98101-1.3281 1.7679 0 1.0684 1.0035 1.9286 2.25 1.9286h4.5c1.2465 0 2.25-0.86014 2.25-1.9286 0-0.84629-0.63436-1.5604-1.5156-1.8214 2e-3 -0.03661 0.01563-0.07007 0.01563-0.10714 0-1.1829-1.008-2.1429-2.25-2.1429z" style="opacity:.3"/>
 <path id="path2496" d="m12.95 12.95-0.5656-0.5657m0.0707-8.8388 0.4949-0.49498m-9.3338 0.56568-0.5656-0.56568m-2.0503 4.9498h1m12 0h1m-7-6v-1" style="fill:none;stroke-linecap:round;stroke-width:2;stroke:#dfdbd2"/>
 <path id="path2876-6-6-4-0" d="m8 4c-2.2091-1e-7 -4 1.7909-4 4 0 0.28675 0.036407 0.5741 0.09375 0.84375 0.58104-0.52754 1.3012-0.90625 2.1562-0.90625 1.6151 0 2.9249 1.1871 3.1875 2.7188 0.30803 0.17626 0.5659 0.41094 0.8125 0.65625 0.0052 0.0052 0.02604-0.0053 0.03125 0 1.0524-0.72058 1.7188-1.9407 1.7188-3.3125 0-2.2091-1.7909-4-4-4zm-1.75 5c-0.84473 0-1.5684 0.45537-1.9531 1.1116-0.21663-0.15446-0.49328-0.25446-0.79687-0.25446-0.69 0-1.25 0.48-1.25 1.0714 0 0.13283 0.026505 0.25759 0.078125 0.375-0.78475 0.30055-1.3281 0.98101-1.3281 1.7679 0 1.0684 1.0035 1.9286 2.25 1.9286h4.5c1.2465 0 2.25-0.86014 2.25-1.9286 0-0.84629-0.63436-1.5604-1.5156-1.8214 2e-3 -0.03661 0.01563-0.07007 0.01563-0.10714 0-1.1829-1.008-2.1429-2.25-2.1429z" style="fill:#dfdbd2"/>
</svg>
