<?xml version="1.0" encoding="UTF-8"?>
<!-- Created with Inkscape (http://www.inkscape.org/) -->
<svg id="svg3014" width="32" height="16" version="1.1" xmlns="http://www.w3.org/2000/svg" xmlns:cc="http://creativecommons.org/ns#" xmlns:dc="http://purl.org/dc/elements/1.1/" xmlns:rdf="http://www.w3.org/1999/02/22-rdf-syntax-ns#">
 <metadata id="metadata3019">
  <rdf:RDF>
   <cc:Work rdf:about="">
    <dc:format>image/svg+xml</dc:format>
    <dc:type rdf:resource="http://purl.org/dc/dcmitype/StillImage"/>
    <dc:title/>
   </cc:Work>
  </rdf:RDF>
 </metadata>
 <path id="rect3190-8" d="m7.5 5c-0.277 0-0.5 0.223-0.5 0.5v7c0 0.277 0.223 0.5 0.5 0.5h10.5l-8-7 6 3v-4h-8.5zm8.5 0 7 7-5-2v3h6.5c0.277 0 0.5-0.223 0.5-0.5v-7c0-0.277-0.223-0.5-0.5-0.5h-8.5z" style="fill-rule:evenodd;opacity:.3"/>
 <path id="rect2401-5" d="m7 3c-1.108 0-2 0.892-2 2v8c0 1.108 0.892 2 2 2h18c1.108 0 2-0.892 2-2v-1h0.38433c1.108 0 1.6157-0.892 1.6157-2v-2c0-1.108-0.42558-2-1.5336-2h-0.46642v-1c0-1.108-0.892-2-2-2zm0 1h18c0.554 0 1 0.446 1 1v8c0 0.554-0.446 1-1 1h-18c-0.554 0-1-0.446-1-1v-8c0-0.554 0.446-1 1-1zm20 3c0.59742 0 1 0.051 1 1v2c0 0.9914-0.40645 1-1 1z" style="opacity:.3"/>
 <path id="rect2401" d="m7 2c-1.108 0-2 0.892-2 2v8c0 1.108 0.892 2 2 2h18c1.108 0 2-0.892 2-2v-1h0.38433c1.108 0 1.6157-0.892 1.6157-2v-2c0-1.108-0.42558-2-1.5336-2h-0.46642v-1c0-1.108-0.892-2-2-2zm0 1h18c0.554 0 1 0.446 1 1v8c0 0.554-0.446 1-1 1h-18c-0.554 0-1-0.446-1-1v-8c0-0.554 0.446-1 1-1zm20 3c0.59742 0 1 0.051 1 1v2c0 0.9914-0.40645 1-1 1z" style="fill:#dfdbd2"/>
 <rect id="rect3192" x="6.25" y="3.25" width="19.5" height="9.5" rx=".75" ry=".75" style="fill:none;opacity:.3;stroke-linecap:round;stroke-width:.5;stroke:#dfdbd2"/>
 <path id="rect3190" d="m7.5 4c-0.277 0-0.5 0.223-0.5 0.5v7c0 0.277 0.223 0.5 0.5 0.5h10.5l-8-7 6 3v-4h-8.5zm8.5 0 7 7-5-2v3h6.5c0.277 0 0.5-0.223 0.5-0.5v-7c0-0.277-0.223-0.5-0.5-0.5h-8.5z" style="fill-rule:evenodd;fill:#dfdbd2"/>
</svg>
