<?xml version="1.0" encoding="UTF-8" standalone="no"?>
<svg
   xmlns:dc="http://purl.org/dc/elements/1.1/"
   xmlns:cc="http://creativecommons.org/ns#"
   xmlns:rdf="http://www.w3.org/1999/02/22-rdf-syntax-ns#"
   xmlns:svg="http://www.w3.org/2000/svg"
   xmlns="http://www.w3.org/2000/svg"
   xmlns:xlink="http://www.w3.org/1999/xlink"
   id="svg2"
   height="22"
   width="22"
   version="1.0">
  <defs
     id="defs4">
    <linearGradient
       gradientTransform="matrix(0.31070043,0,0,0.27489387,20.17717,-0.10316268)"
       gradientUnits="userSpaceOnUse"
       xlink:href="#linearGradient3104-8-8-97-4-6-11-5-5-4-4"
       id="linearGradient3018"
       y2="2.0612748"
       x2="-51.786404"
       y1="53.514328"
       x1="-51.786404" />
    <linearGradient
       gradientTransform="matrix(0.33333327,0,0,0.32971018,-17.44063,-0.64784268)"
       gradientUnits="userSpaceOnUse"
       xlink:href="#linearGradient4346"
       id="linearGradient8858"
       y2="15.385052"
       x2="62.988873"
       y1="11.645091"
       x1="62.988873" />
    <linearGradient
       id="linearGradient4346">
      <stop
         offset="0"
         style="stop-color:#ffffff;stop-opacity:1"
         id="stop4348" />
      <stop
         offset="1"
         style="stop-color:#d8d8d8;stop-opacity:1"
         id="stop4350" />
    </linearGradient>
    <linearGradient
       id="linearGradient3104-8-8-97-4-6-11-5-5-4-4">
      <stop
         offset="0"
         style="stop-color:#000000;stop-opacity:0.32173914"
         id="stop3106-5-4-3-5-0-2-1-0-7-7" />
      <stop
         offset="1"
         style="stop-color:#000000;stop-opacity:0.27826086"
         id="stop3108-4-3-7-8-2-0-7-9-0-6" />
    </linearGradient>
    <linearGradient
       id="linearGradient3454-2-5-0-3-8">
      <stop
         offset="0"
         style="stop-color:#ffffff;stop-opacity:1"
         id="stop3456-4-9-38-1-9" />
      <stop
         offset="0.0097359"
         style="stop-color:#ffffff;stop-opacity:0.23529412"
         id="stop3458-39-80-3-5-6" />
      <stop
         offset="0.99001008"
         style="stop-color:#ffffff;stop-opacity:0.15686275"
         id="stop3460-7-0-2-4-4" />
      <stop
         offset="1"
         style="stop-color:#ffffff;stop-opacity:0.39215687"
         id="stop3462-0-9-8-7-8" />
    </linearGradient>
    <linearGradient
       gradientTransform="matrix(0.89189031,0,0,0.94046961,3.14398,5.346537)"
       gradientUnits="userSpaceOnUse"
       xlink:href="#linearGradient3454-2-5-0-3-8"
       id="linearGradient10270-0"
       y2="8.1721792"
       x2="11.350123"
       y1="0.66696572"
       x1="11.350123" />
    <linearGradient
       x1="15.029637"
       y1="16.073452"
       x2="15.029637"
       y2="44.805866"
       id="linearGradient12481"
       xlink:href="#radialGradient2444"
       gradientUnits="userSpaceOnUse"
       gradientTransform="matrix(0.59680467,0,0,0.34757012,-0.37047501,-1.117049)" />
    <radialGradient
       id="radialGradient2444"
       gradientUnits="userSpaceOnUse"
       cy="14.113"
       cx="63.969002"
       gradientTransform="matrix(1.5647,-9.5143e-8,6.1772e-8,1.0159,-59.14917,8.1461003)"
       r="23.097">
      <stop
         id="stop3618"
         style="stop-color:#ADC980"
         offset="0" />
      <stop
         id="stop3270"
         style="stop-color:#87A752"
         offset="0.6875183" />
      <stop
         id="stop3620"
         style="stop-color:#688933"
         offset="1" />
    </radialGradient>
  </defs>
  <metadata
     id="metadata7">
    <rdf:RDF>
      <cc:Work
         rdf:about="">
        <dc:format>image/svg+xml</dc:format>
        <dc:type
           rdf:resource="http://purl.org/dc/dcmitype/StillImage" />
        <dc:title />
      </cc:Work>
    </rdf:RDF>
  </metadata>
  <path
     d="M 1.1248043,3.1370481 C 0.94426492,3.3543277 1.0001808,3.6685408 1.0001808,3.9999999 l 0,2 c 0,0.554 0.223,1 0.5,1 0.277,0 0.5,-0.446 0.5,-1 l 0,-2 1.25,0 c 0.4155,0 0.75,-0.223 0.75,-0.5 0,-0.277 -0.3345,-0.5 -0.75,-0.5 l -1.5,0 C 1.5524878,3.0172293 1.3053438,2.9197685 1.1248043,3.1370481 Z M 6.7501808,2.9999999 c -0.4155,0 -0.75,0.223 -0.75,0.5 0,0.277 0.3345,0.5 0.75,0.5 l 1.5,0 c 0.4155,0 0.75,-0.223 0.75,-0.5 0,-0.277 -0.3345,-0.5 -0.75,-0.5 z m 5.0000002,0 c -0.4155,0 -0.75,0.223 -0.75,0.5 0,0.277 0.3345,0.5 0.75,0.5 l 1.5,0 c 0.4155,0 0.75,-0.223 0.75,-0.5 0,-0.277 -0.3345,-0.5 -0.75,-0.5 z m 4.75,0 c -0.277,0 -0.5,0.223 -0.5,0.5 0,0.277 0.223,0.5 0.5,0.5 l 0.5,0 0,1.25 c 0,0.4155 0.223,0.75 0.5,0.75 0.277,0 0.5,-0.3345 0.5,-0.75 -0.0033,-0.5741535 0,-1.2026168 0,-1.75 0,-0.277 -0.223,-0.5 -0.5,-0.5 z m 1,5 c -0.277,0 -0.5,1.0000001 -0.5,1.0000001 l 1,0 c 0,0 -0.223,-1.0000001 -0.5,-1.0000001 z M 1.5001808,9 c -0.277,0 -0.5,0.3345 -0.5,0.75 l 0,1.5 c 0,0.4155 0.223,0.75 0.5,0.75 0.277,0 0.5,-0.3345 0.5,-0.75 l 0,-1.5 c 0,-0.4155 -0.223,-0.75 -0.5,-0.75 z m 16.0000002,4 c -0.277,0 -0.5,0.446 -0.5,1 l 0,2 -1.25,0 c -0.4155,0 -0.75,0.223 -0.75,0.5 0,0.277 0.3345,0.5 0.75,0.5 l 1.5,0 c 0.08107,0 0.145728,-0.01553 0.21875,-0.03125 0.01356,0.0022 0.0174,0.03125 0.03125,0.03125 0.06925,0 0.127641,-0.04328 0.1875,-0.09375 0.186084,-0.09082 0.3125,-0.24005 0.3125,-0.40625 0,-0.04501 -0.01467,-0.08357 -0.03125,-0.125 0.02523,-0.119719 0.03125,-0.2365 0.03125,-0.375 l 0,-2 c 0,-0.554 -0.223,-1 -0.5,-1 z M 1.5001808,14 c -0.277,0 -0.5,0.3345 -0.5,0.75 0.00331,0.574154 0,1.202617 0,1.75 0,0.277 0.223,0.5 0.5,0.5 l 1,0 c 0.277,0 0.5,-0.223 0.5,-0.5 0,-0.277 -0.223,-0.5 -0.5,-0.5 l -0.5,0 0,-1.25 c 0,-0.4155 -0.223,-0.75 -0.5,-0.75 z m 5.25,2 c -0.4155,0 -0.75,0.223 -0.75,0.5 0,0.277 0.3345,0.5 0.75,0.5 l 0.5,0 c 0.4155,0 0.75,-0.223 0.75,-0.5 0,-0.277 -0.3345,-0.5 -0.75,-0.5 z m 4.0000002,0 c -0.4155,0 -0.75,0.223 -0.75,0.5 0,0.277 0.3345,0.5 0.75,0.5 l 1.5,0 c 0.4155,0 0.75,-0.223 0.75,-0.5 0,-0.277 -0.3345,-0.5 -0.75,-0.5 z"
     id="path3841"
     style="opacity:0.3;fill:#ffffff;fill-opacity:1;stroke:none" />
  <path
     d="M 1.1248043,2.1370481 C 0.94426492,2.3543277 1.0001808,2.6685408 1.0001808,2.9999999 l 0,2 c 0,0.554 0.223,1 0.5,1 0.277,0 0.5,-0.446 0.5,-1 l 0,-2 1.25,0 c 0.4155,0 0.75,-0.223 0.75,-0.5 0,-0.277 -0.3345,-0.5 -0.75,-0.5 l -1.5,0 C 1.5524878,2.0172293 1.3053438,1.9197685 1.1248043,2.1370481 Z M 6.7501808,1.9999999 c -0.4155,0 -0.75,0.223 -0.75,0.5 0,0.277 0.3345,0.5 0.75,0.5 l 1.5,0 c 0.4155,0 0.75,-0.223 0.75,-0.5 0,-0.277 -0.3345,-0.5 -0.75,-0.5 z m 5.0000002,0 c -0.4155,0 -0.75,0.223 -0.75,0.5 0,0.277 0.3345,0.5 0.75,0.5 l 1.5,0 c 0.4155,0 0.75,-0.223 0.75,-0.5 0,-0.277 -0.3345,-0.5 -0.75,-0.5 z m 4.75,0 c -0.277,0 -0.5,0.223 -0.5,0.5 0,0.277 0.223,0.5 0.5,0.5 l 0.5,0 0,1.25 c 0,0.4155 0.223,0.75 0.5,0.75 0.277,0 0.5,-0.3345 0.5,-0.75 -0.0033,-0.5741535 0,-1.2026168 0,-1.75 0,-0.277 -0.223,-0.5 -0.5,-0.5 z m 1,5 c -0.277,0 -0.5,1 -0.5,1 l 1,0 c 0,0 -0.223,-1 -0.5,-1 z m -16.0000002,1 c -0.277,0 -0.5,0.3345001 -0.5,0.7500001 l 0,1.5 c 0,0.4155 0.223,0.75 0.5,0.75 0.277,0 0.5,-0.3345 0.5,-0.75 l 0,-1.5 c 0,-0.4155 -0.223,-0.7500001 -0.5,-0.7500001 z M 17.500181,12 c -0.277,0 -0.5,0.446 -0.5,1 l 0,2 -1.25,0 c -0.4155,0 -0.75,0.223 -0.75,0.5 0,0.277 0.3345,0.5 0.75,0.5 l 1.5,0 c 0.08107,0 0.145728,-0.01553 0.21875,-0.03125 0.01356,0.0022 0.0174,0.03125 0.03125,0.03125 0.06925,0 0.127641,-0.04328 0.1875,-0.09375 0.186084,-0.09082 0.3125,-0.24005 0.3125,-0.40625 0,-0.04501 -0.01467,-0.08357 -0.03125,-0.125 0.02523,-0.119719 0.03125,-0.2365 0.03125,-0.375 l 0,-2 c 0,-0.554 -0.223,-1 -0.5,-1 z M 1.5001808,13 c -0.277,0 -0.5,0.3345 -0.5,0.75 0.00331,0.574154 0,1.202617 0,1.75 0,0.277 0.223,0.5 0.5,0.5 l 1,0 c 0.277,0 0.5,-0.223 0.5,-0.5 0,-0.277 -0.223,-0.5 -0.5,-0.5 l -0.5,0 0,-1.25 c 0,-0.4155 -0.223,-0.75 -0.5,-0.75 z m 5.25,2 c -0.4155,0 -0.75,0.223 -0.75,0.5 0,0.277 0.3345,0.5 0.75,0.5 l 0.5,0 c 0.4155,0 0.75,-0.223 0.75,-0.5 0,-0.277 -0.3345,-0.5 -0.75,-0.5 z m 4.0000002,0 c -0.4155,0 -0.75,0.223 -0.75,0.5 0,0.277 0.3345,0.5 0.75,0.5 l 1.5,0 c 0.4155,0 0.75,-0.223 0.75,-0.5 0,-0.277 -0.3345,-0.5 -0.75,-0.5 z"
     id="rect4043"
     style="opacity:0.5;fill:#000000;fill-opacity:1;stroke:none" />
  <g
     transform="translate(4.9898544,6.005413)"
     id="g3439">
    <path
       style="color:#000000;display:inline;overflow:visible;visibility:visible;fill:url(#linearGradient8858);fill-opacity:1;fill-rule:nonzero;stroke:none;stroke-width:0.99992168;marker:none;enable-background:accumulate"
       id="rect4170-0-9"
       d="m 1.02332,1.9945869 0,4.9820801 14,0 0,-4 -6.5744681,0 -2.0765957,-1 z" />
    <path
       style="color:#000000;display:inline;overflow:visible;visibility:visible;opacity:0.8;fill:none;stroke:url(#linearGradient3018);stroke-width:1;stroke-linecap:butt;stroke-linejoin:miter;stroke-miterlimit:4;stroke-dasharray:none;stroke-dashoffset:0;stroke-opacity:1;marker:none;enable-background:accumulate"
       id="rect4170-1"
       d="m 15.52332,4 0,-1.273333 c 0,-0.1385 -0.1115,-0.25 -0.25,-0.25 l -6.75,0 c -0.4952806,0 -1.7237233,-0.96875 -2.25,-0.96875 l -5.50032,0 c -0.1385,0 -0.25,0.1115 -0.25,0.25 L 0.52332,4" />
    <path
       style="color:#000000;clip-rule:nonzero;display:inline;overflow:visible;visibility:visible;opacity:1;isolation:auto;mix-blend-mode:normal;color-interpolation:sRGB;color-interpolation-filters:linearRGB;solid-color:#000000;solid-opacity:1;fill:url(#linearGradient12481);fill-opacity:1;fill-rule:nonzero;stroke:none;stroke-width:1;stroke-linecap:butt;stroke-linejoin:miter;stroke-miterlimit:4;stroke-dasharray:none;stroke-dashoffset:0;stroke-opacity:1;marker:none;color-rendering:auto;image-rendering:auto;shape-rendering:auto;text-rendering:auto;enable-background:accumulate"
       id="rect3086-2"
       d="m 0.55988,4.453367 c 0.75732,0 14.39951,0.0316 14.98675,0.0316 0,0.6186 -0.0285,10.00962 -0.0624,10.00962 -5.26001,0.0178 -13.45265,-0.014 -14.98423,-0.014 0,-1.16748 0.0599,-7.62459 0.0599,-10.02721 z" />
    <path
       style="color:#000000;display:inline;overflow:visible;visibility:visible;opacity:0.5;fill:none;stroke:url(#linearGradient10270-0);stroke-width:1;stroke-linecap:round;stroke-linejoin:miter;stroke-miterlimit:4;stroke-dasharray:none;stroke-dashoffset:0;stroke-opacity:1;marker:none;enable-background:accumulate"
       id="rect3086-9-7"
       d="M 1.57504,5.476667 14.52332,5.501767 14.5,13.5 1.52332,13.461217 Z" />
    <path
       style="color:#000000;display:inline;overflow:visible;visibility:visible;opacity:0.3;fill:none;stroke:#000000;stroke-width:1;stroke-linecap:round;stroke-linejoin:round;stroke-miterlimit:4;stroke-dasharray:none;stroke-dashoffset:0;stroke-opacity:1;marker:none;enable-background:accumulate"
       id="rect3086-0-0"
       d="m 0.55988,4.453367 14.98675,0.0316 -0.0624,10.00962 L 0.5,14.480587 Z" />
  </g>
</svg>
