<?xml version="1.0" encoding="UTF-8" standalone="no"?>
<!-- Created with Inkscape (http://www.inkscape.org/) -->

<svg
   xmlns:dc="http://purl.org/dc/elements/1.1/"
   xmlns:cc="http://creativecommons.org/ns#"
   xmlns:rdf="http://www.w3.org/1999/02/22-rdf-syntax-ns#"
   xmlns:svg="http://www.w3.org/2000/svg"
   xmlns="http://www.w3.org/2000/svg"
   xmlns:xlink="http://www.w3.org/1999/xlink"
   xmlns:sodipodi="http://sodipodi.sourceforge.net/DTD/sodipodi-0.dtd"
   xmlns:inkscape="http://www.inkscape.org/namespaces/inkscape"
   width="15.999999"
   height="15.999999"
   id="svg27665"
   version="1.1"
   inkscape:version="0.48.3.1 r9886"
   sodipodi:docname="applications-microblogging-panel.svg">
  <defs
     id="defs27667">
    <linearGradient
       id="linearGradient4357"
       inkscape:collect="always">
      <stop
         id="stop4359"
         offset="0"
         style="stop-color:#adaca1;stop-opacity:1" />
      <stop
         id="stop4361"
         offset="1"
         style="stop-color:#e1e0d9;stop-opacity:1" />
    </linearGradient>
    <linearGradient
       inkscape:collect="always"
       xlink:href="#linearGradient4357"
       id="linearGradient3268"
       gradientUnits="userSpaceOnUse"
       gradientTransform="matrix(0.69998822,0,0,0.69998822,-0.89986574,-0.89991994)"
       x1="11.999965"
       y1="22.000004"
       x2="11.999965"
       y2="1.9999923" />
    <linearGradient
       inkscape:collect="always"
       xlink:href="#linearGradient4357"
       id="linearGradient3084"
       gradientUnits="userSpaceOnUse"
       gradientTransform="matrix(26.877057,0,0,26.877057,-1404.7978,464.14694)"
       x1="11.999965"
       y1="22.000004"
       x2="11.999965"
       y2="1.9999923" />
    <linearGradient
       inkscape:collect="always"
       xlink:href="#linearGradient4357"
       id="linearGradient3088"
       gradientUnits="userSpaceOnUse"
       gradientTransform="matrix(26.877057,0,0,26.877057,-1404.7978,464.14694)"
       x1="11.999965"
       y1="22.000004"
       x2="11.999965"
       y2="1.9999923" />
    <linearGradient
       inkscape:collect="always"
       xlink:href="#linearGradient4357"
       id="linearGradient3095"
       gradientUnits="userSpaceOnUse"
       gradientTransform="matrix(26.877057,0,0,26.877057,-1404.7978,464.14694)"
       x1="11.999965"
       y1="22.000004"
       x2="11.999965"
       y2="1.9999923" />
  </defs>
  <sodipodi:namedview
     id="base"
     pagecolor="#ffffff"
     bordercolor="#666666"
     borderopacity="1.0"
     inkscape:pageopacity="0.0"
     inkscape:pageshadow="2"
     inkscape:zoom="32"
     inkscape:cx="10.739362"
     inkscape:cy="7.9814829"
     inkscape:document-units="px"
     inkscape:current-layer="g3333"
     showgrid="true"
     inkscape:window-width="1615"
     inkscape:window-height="1026"
     inkscape:window-x="65"
     inkscape:window-y="24"
     inkscape:window-maximized="1"
     inkscape:snap-bbox="true"
     inkscape:bbox-paths="true"
     inkscape:bbox-nodes="true"
     inkscape:snap-bbox-edge-midpoints="true"
     inkscape:snap-bbox-midpoints="true"
     inkscape:object-paths="true"
     inkscape:snap-intersection-paths="true"
     inkscape:object-nodes="true"
     inkscape:snap-smooth-nodes="true"
     inkscape:snap-midpoints="true"
     inkscape:snap-object-midpoints="true"
     inkscape:snap-center="true"
     inkscape:snap-global="true"
     showguides="true"
     inkscape:guide-bbox="true"
     fit-margin-top="0"
     fit-margin-left="0"
     fit-margin-right="0"
     fit-margin-bottom="0"
     inkscape:showpageshadow="false">
    <sodipodi:guide
       orientation="-0.86602541,-0.49999999"
       position="443.12236,772.56692"
       id="guide44620" />
    <sodipodi:guide
       orientation="0.86602537,-0.50000006"
       position="443.12237,958.42574"
       id="guide44622" />
    <sodipodi:guide
       orientation="0,1"
       position="282.1639,865.49633"
       id="guide44624" />
    <sodipodi:guide
       orientation="0,1"
       position="335.81342,958.4336"
       id="guide44640" />
    <inkscape:grid
       type="xygrid"
       id="grid3307"
       empspacing="5"
       visible="true"
       enabled="true"
       snapvisiblegridlinesonly="true"
       originx="-0.00012475182px"
       originy="1319.0001px" />
  </sodipodi:namedview>
  <metadata
     id="metadata27670">
    <rdf:RDF>
      <cc:Work
         rdf:about="">
        <dc:format>image/svg+xml</dc:format>
        <dc:type
           rdf:resource="http://purl.org/dc/dcmitype/StillImage" />
        <dc:title />
      </cc:Work>
    </rdf:RDF>
  </metadata>
  <g
     inkscape:label="Camada 1"
     inkscape:groupmode="layer"
     id="layer1"
     transform="translate(1389.4436,-2396.8441)">
    <g
       id="pequeno"
       transform="matrix(0.02604408,0,0,0.02604408,-1353.2568,2384.3559)"
       inkscape:label="#g3229">
      <rect
         y="479.50101"
         x="-1389.4437"
         height="614.34302"
         width="614.34302"
         id="rect4061"
         style="opacity:0.00100002;fill:#ffffff;fill-opacity:1;fill-rule:nonzero;stroke:none" />
      <g
         id="g3333">
        <path
           id="path3097"
           d="m -1063.0749,537.09927 c -148.4378,0 -268.7706,120.33268 -268.7706,268.77057 0,148.43787 120.3328,268.77066 268.7706,268.77066 148.4379,0 268.7706,-120.33279 268.7706,-268.77066 0,-148.43789 -120.3327,-268.77057 -268.7706,-268.77057 z m 2.5198,53.75411 c 7.5599,2.9734 15.1176,6.26662 22.6774,9.23899 1.121,5.36979 -5.1305,13.60165 -6.7192,20.15779 -6.6049,12.20022 -1.9956,7.14056 5.8794,6.71927 9.2,4.23368 -4.2003,13.33419 -8.3991,10.9188 -5.4648,-8.42436 -6.127,-8.43039 -17.6381,-2.51972 -10.5348,5.42968 -24.8512,4.9014 -29.3968,17.63806 -3.1443,7.00407 -12.8132,13.92011 -14.2784,2.51972 -1.8873,-6.54497 -11.6766,-14.56498 -2.5197,-19.31788 7.1214,-5.15353 2.8023,-15.31306 -5.0394,-17.63806 -4.3608,-4.4631 -18.2952,-7.83953 -7.5593,-13.43853 -4.2809,-0.2308 -16.6434,5.58895 -22.6775,7.55917 -12.2584,-0.91355 7.1885,2.88694 11.7587,2.51972 4.1304,5.40472 7.3375,13.24255 15.9583,14.27844 -8.4012,14.19742 -18.4658,0.49335 -28.5568,-5.03945 -7.563,-4.76944 -14.6088,0.0145 -19.318,6.71927 1.8427,-1.53862 4.4486,-2.36448 6.7193,-2.51972 3.8181,-0.26076 7.4726,1.91332 8.3991,5.87935 1.3258,10.10239 -11.4908,2.53399 -15.9583,-1.67982 -0.1561,0.17525 -0.6948,-0.18756 -0.8398,0 -0.9673,1.6538 -1.959,3.35294 -2.5198,5.03945 -6.5978,6.84634 -12.7493,0.23544 -5.8793,-7.55917 6.3711,-4.78599 9.7341,-10.24174 7.5591,-18.47797 2.743,-8.00202 6.2484,14.80125 9.239,-1.67983 8.3034,-0.95099 14.6774,-8.96939 23.5173,-9.23898 7.7489,-0.20536 10.6465,-9.04261 19.3179,-7.55918 14.4094,1.99667 -9.0067,13.13738 5.0395,7.55918 16.6619,-5.48484 33.7825,-8.70125 51.2345,-10.0789 z m 99.94901,36.95595 c 6.09845,2.37902 11.92296,5.08327 18.47798,5.87936 8.6557,-0.21143 16.84735,4.10129 5.03945,7.55917 -13.79409,-2.57391 -3.61879,4.54028 1.67981,10.07889 6.62315,0.79968 10.2782,-20.06302 16.79816,-7.55916 37.54806,34.70664 65.17483,80.80601 72.23209,131.86556 -8.0794,16.23435 -14.14916,-10.27188 -26.87705,-3.35963 -5.89105,-2.88041 -12.09591,-16.09855 -10.0789,-1.67983 -0.47081,7.00322 9.79959,9.74289 12.59862,15.11835 6.34507,-13.9865 13.4077,1.66334 11.75871,10.9188 -3.37493,8.17829 -12.06536,12.81862 -19.31788,17.63807 -10.489,7.51758 -16.2953,15.83427 2.51972,10.0789 0.68281,11.34233 -6.87216,20.4932 -10.07889,31.07661 -7.95339,6.80577 -12.24173,16.42526 -15.95826,26.03713 -0.57799,12.14588 -2.18413,25.08112 1.67981,36.95596 -2.14202,7.71675 -13.16637,9.20738 -18.47797,15.11835 -12.80109,4.35236 9.97271,11.10173 0,15.95825 -10.27972,3.78195 -2.7635,12.29942 -9.239,17.63807 -5.81113,4.40881 -9.37809,15.34317 -17.63806,14.27844 -8.46044,-2.46643 -12.51565,8.41667 -20.99769,5.87935 0.38041,-12.79964 -2.68672,-26.00411 -7.55918,-37.79586 -6.08862,-13.03033 -7.40436,-28.84898 -0.83992,-41.9954 1.97301,-6.82626 -8.16404,-13.19726 -5.03942,-20.9977 3.43973,-8.37476 -4.94032,-12.30139 -6.71922,-18.47797 3.2666,-7.4183 4.5628,-15.2654 -3.3596,-20.15781 -8.22451,3.59441 -13.66282,-5.40222 -19.31792,-0.8399 -7.0831,10.48063 -10.7796,-5.80458 -16.7982,3.35964 -10.7372,10.58789 -22.4941,-15.86148 -29.3968,-24.35734 -1.5734,-6.73534 -9.8605,-14.30167 -2.5197,-20.15779 8.9905,-6.25561 -4.6491,-11.18577 2.5197,-18.47798 4.8962,-17.32395 18.8673,-28.71185 30.2367,-41.9954 13.2527,-3.59961 27.85531,-9.22872 41.15552,-3.35963 5.38253,4.57289 10.64408,12.63286 15.95821,15.11835 3.44623,-7.21305 12.02867,-7.36937 18.47799,-4.19955 6.71773,2.15987 16.11999,5.3799 21.83759,0 7.06314,-4.45293 11.4237,-11.24906 0.83992,-13.43852 -14.16927,5.72533 -17.6994,-17.94288 -27.71696,-13.43854 -0.51233,9.68012 -1.96888,16.04222 -8.39909,5.03945 -1.26666,-7.33487 -3.86824,-15.11719 -11.75872,-17.63807 -5.54397,1.54203 12.08854,9.63242 3.35965,15.95826 -9.0357,9.2691 -4.23331,-0.37209 -5.03945,-5.03945 -7.68664,-0.96483 -10.27674,-13.85022 -18.47795,-9.239 -8.22671,-0.17045 -8.46491,7.878 -15.95831,10.07891 -1.3093,8.37043 -7.1113,13.68322 -15.1183,15.95825 -4.914,-6.75207 -12.3772,-4.33391 -9.239,-15.11835 -2.7896,-8.65959 7.3866,-12.68137 14.2784,-13.43852 10.7669,1.84202 -0.5968,-11.25262 -3.3596,-13.43853 7.6138,-0.50753 14.8268,-3.05433 18.478,-10.0789 -0.4303,-11.28812 16.70832,-3.39315 11.75861,-11.75871 2.4106,-10.54658 4.58891,-1.53656 8.39911,1.67981 7.96,4.53844 13.80708,-0.0227 19.31794,-5.87936 0.87974,-5.92131 14.86077,-14.34594 10.9188,-14.27842 -13.62044,6.81757 -8.47246,-10.27703 -4.19955,-16.79817 -6.88947,-0.6123 -11.8613,7.23282 -15.11835,12.59862 1.91196,5.25904 0.88304,16.84238 -4.19959,18.47797 -7.01285,-1.34943 -10.15655,-14.70073 -16.79816,-5.87935 -6.11371,7.7999 -6.41391,-10.5558 -5.03941,-13.43853 5.15041,-4.91293 16.49972,-6.15011 14.27852,-15.11835 7.43189,-6.49752 16.62601,-8.98595 26.03709,-10.9188 z m -234.33441,5.03945 c 0.503,-0.0393 0.3513,-9.6e-4 0.8399,0 7.3287,0.0145 13.3923,4.67443 10.079,12.59862 -6.083,10.88252 -20.7979,14.92649 -30.2368,21.83761 0.051,9.26764 8.9181,10.61505 15.9583,13.43853 5.6997,3.66735 3.6238,19.35294 8.3991,5.03944 2.1554,-7.9407 13.6827,-6.28544 10.9188,-15.95824 4.2617,-5.04496 6.4291,-18.55503 14.2785,-10.0789 9.9511,1.83749 -1.2958,15.64285 10.9187,7.55917 9.39,-1.84094 2.455,14.81421 10.079,14.27844 9.6327,2.52597 1.1643,11.96998 10.9187,14.27843 -5.0032,11.45741 -7.4346,6.44317 -8.399,-3.35962 -7.1989,2.76883 -14.0034,5.23612 -21.8376,4.19953 -5.2901,2.90062 -20.826,8.16966 -6.7193,6.71926 7.1495,0.30034 20.0517,-2.65535 10.0789,6.71928 -3.1803,9.24823 -17.0883,1.54778 -20.1578,10.91879 -2.2197,8.96549 -15.2795,5.41657 -16.7982,14.27844 -1.543,8.46376 -8.6763,13.59303 -15.1183,18.47797 -8.4449,4.25711 -3.8794,15.04912 -5.8794,22.67753 -4.7767,-5.34338 -8.3936,-13.02941 -16.7981,-12.59863 -6.6863,-1.01251 -8.7127,6.41357 -17.6382,5.03945 -6.6696,4.50452 -13.639,8.64646 -12.5984,17.63808 -1.4623,7.48074 1.877,16.05116 10.0788,15.95823 6.7209,-4.39847 19.8583,-19.5854 15.1183,0 -9.965,17.96444 13.9241,0.72365 8.3991,15.95826 -1.8787,11.00933 13.6995,21.53537 19.3179,11.75871 5.9836,-3.95094 11.935,-14.74144 18.478,-5.87935 5.7784,6.91252 13.886,5.72667 21.8376,4.19954 6.1724,0.57461 5.7058,11.85792 9.2389,16.79816 8.3665,0.63384 14.702,3.86149 16.7983,12.59862 10.5817,11.16392 27.783,15.24494 41.1554,23.51742 -0.931,7.33451 0.087,15.59039 -5.8794,20.99772 -7.9288,6.62212 -3.4479,16.37795 -3.3596,25.19723 -3.7136,6.03742 -3.2813,16.65829 -12.5986,15.95825 -7.2889,-0.25124 -14.0999,9.80927 -9.2389,15.95825 -3.3297,6.66175 -4.7751,14.70192 -9.2391,20.1578 -9.617,0.0231 -10.2275,8.28084 -15.9582,13.43852 -1.5136,17.88008 -21.8731,2.06417 -31.9165,-5.03945 0.5682,-7.53667 2.8499,-15.84925 4.1994,-23.51742 -3.7622,-6.83075 -5.6079,-14.05243 -4.1994,-21.8376 2.6508,-9.6164 -4.9971,-16.99884 -11.7587,-22.67752 -9.6441,-6.02167 -13.2769,-16.4454 -18.478,-26.03716 -6.1173,-6.54288 -4.436,-14.28127 -1.6799,-21.8376 -3.2847,-6.67067 5.2026,-10.70624 5.8795,-17.63807 1.8321,-5.49288 9.0161,-16.15735 -1.6799,-15.11834 -7.3788,2.54147 -13.3172,-5.85504 -18.478,-10.0789 -4.6211,-10.02893 -16.9542,-7.81015 -25.1972,-12.59862 -9.7022,-5.09919 -18.8011,-11.17538 -21.8376,-22.67752 5.7493,-49.06147 26.4628,-95.85709 60.4734,-131.86556 6.9124,-15.24584 27.0964,-13.94099 30.2366,-29.39678 z m 169.6615,18.47797 c 5.3888,0.29876 5.6827,8.14042 8.399,12.59863 4.5587,7.66655 12.222,11.79359 0.84,17.63807 -10.9643,5.12176 -10.8528,-1.30354 -8.3991,-10.0789 2.7368,-8.00992 -4.7855,-11.80925 -3.3596,-19.31788 1.0082,-0.29535 1.7499,-0.88275 2.5197,-0.83992 z m -12.5987,12.59863 c 0.4819,0.0107 1.1133,-0.17135 1.6798,0 1.3184,5.55737 6.6286,9.71268 -1.6798,11.75872 -5.3076,4.68483 -7.2297,-11.91643 0,-11.75872 z m 115.90738,103.30868 c -4.89155,2.62057 -0.49008,6.89212 0,10.91881 4.70343,12.11093 14.54689,21.41319 16.79816,35.27613 -3.07398,10.55466 19.77394,18.09147 10.0789,7.55919 -4.6095,-5.61562 5.28723,-13.07276 -5.03946,-17.63807 -6.95217,-12.16295 -10.96817,-26.47216 -21.8376,-36.11606 z"
           style="fill:#000000;fill-opacity:1;fill-rule:nonzero;stroke:none;opacity:0.3"
           inkscape:connector-curvature="0" />
        <path
           id="path3093"
           d="m -1082.2731,517.90105 c -148.4378,0 -268.7706,120.33268 -268.7706,268.77057 0,148.43787 120.3328,268.77068 268.7706,268.77068 148.43788,0 268.77058,-120.33281 268.77058,-268.77068 0,-148.43789 -120.3327,-268.77057 -268.77058,-268.77057 z m 2.5198,53.75411 c 7.5599,2.9734 15.1176,6.26662 22.6774,9.23899 1.121,5.36979 -5.1305,13.60165 -6.7192,20.15779 -6.6049,12.20022 -1.9956,7.14056 5.8794,6.71927 9.2,4.23368 -4.2003,13.33419 -8.3991,10.9188 -5.4648,-8.42436 -6.127,-8.43039 -17.6381,-2.51972 -10.5348,5.42968 -24.8512,4.9014 -29.3968,17.63806 -3.1443,7.00407 -12.8132,13.92011 -14.2784,2.51972 -1.8873,-6.54497 -11.6766,-14.56498 -2.5197,-19.31788 7.1214,-5.15353 2.8023,-15.31306 -5.0394,-17.63806 -4.3608,-4.4631 -18.2952,-7.83953 -7.5593,-13.43853 -4.2809,-0.2308 -16.6434,5.58895 -22.6775,7.55917 -12.2584,-0.91355 7.1885,2.88694 11.7587,2.51972 4.1304,5.40472 7.3375,13.24255 15.9583,14.27844 -8.4012,14.19742 -18.4658,0.49335 -28.5568,-5.03945 -7.563,-4.76944 -14.6088,0.0145 -19.318,6.71927 1.8427,-1.53862 4.4486,-2.36448 6.7193,-2.51972 3.8181,-0.26076 7.4726,1.91332 8.3991,5.87935 1.3258,10.10239 -11.4908,2.53399 -15.9583,-1.67982 -0.1561,0.17525 -0.6948,-0.18756 -0.8398,0 -0.9673,1.6538 -1.959,3.35294 -2.5198,5.03945 -6.5978,6.84634 -12.7493,0.23544 -5.8793,-7.55917 6.3711,-4.78599 9.7341,-10.24174 7.5591,-18.47797 2.743,-8.00202 6.2484,14.80125 9.239,-1.67983 8.3034,-0.95099 14.6774,-8.96939 23.5173,-9.23898 7.7489,-0.20536 10.6465,-9.04261 19.3179,-7.55918 14.4094,1.99667 -9.0067,13.13738 5.0395,7.55918 16.6619,-5.48484 33.7825,-8.70125 51.2345,-10.0789 z m 99.94899,36.95595 c 6.09845,2.37902 11.92296,5.08327 18.47798,5.87936 8.6557,-0.21143 16.84735,4.10129 5.03945,7.55917 -13.79409,-2.57391 -3.61879,4.54028 1.67981,10.07889 6.62315,0.79968 10.2782,-20.06302 16.79816,-7.55916 37.54806,34.70664 65.17483,80.80601 72.23209,131.86556 -8.0794,16.23435 -14.14916,-10.27188 -26.87705,-3.35963 -5.89105,-2.88041 -12.09591,-16.09855 -10.0789,-1.67983 -0.47081,7.00322 9.79959,9.74289 12.59862,15.11835 6.34507,-13.9865 13.4077,1.66334 11.75871,10.9188 -3.37493,8.17829 -12.06536,12.81862 -19.31788,17.63807 -10.489,7.51758 -16.2953,15.83427 2.51972,10.0789 0.68281,11.34233 -6.87216,20.4932 -10.07889,31.07661 -7.95339,6.80577 -12.24173,16.42526 -15.95826,26.03713 -0.57799,12.14588 -2.18413,25.08112 1.67981,36.95596 -2.14202,7.71675 -13.16637,9.20738 -18.47797,15.11835 -12.80109,4.35236 9.97271,11.10173 0,15.95825 -10.27972,3.78195 -2.7635,12.29942 -9.239,17.63807 -5.81113,4.40881 -9.37809,15.34317 -17.63806,14.27844 -8.46044,-2.46643 -12.51565,8.41667 -20.99769,5.87935 0.38041,-12.79964 -2.68672,-26.00411 -7.55918,-37.79586 -6.08862,-13.03033 -7.40436,-28.84898 -0.83992,-41.9954 1.97301,-6.82626 -8.16404,-13.19726 -5.03942,-20.9977 3.43973,-8.37476 -4.94032,-12.30139 -6.71922,-18.47797 3.2666,-7.4183 4.5628,-15.2654 -3.3596,-20.15781 -8.2245,3.59441 -13.6628,-5.40222 -19.3179,-0.8399 -7.0831,10.48063 -10.7796,-5.80458 -16.7982,3.35964 -10.7372,10.58789 -22.4941,-15.86148 -29.3968,-24.35734 -1.5734,-6.73534 -9.8605,-14.30167 -2.5197,-20.15779 8.9905,-6.25561 -4.6491,-11.18577 2.5197,-18.47798 4.8962,-17.32395 18.8673,-28.71185 30.2367,-41.9954 13.2527,-3.59961 27.8553,-9.22872 41.1555,-3.35963 5.38253,4.57289 10.64408,12.63286 15.95821,15.11835 3.44623,-7.21305 12.02867,-7.36937 18.47799,-4.19955 6.71773,2.15987 16.11999,5.3799 21.83759,0 7.06314,-4.45293 11.4237,-11.24906 0.83992,-13.43852 -14.16927,5.72533 -17.6994,-17.94288 -27.71696,-13.43854 -0.51233,9.68012 -1.96888,16.04222 -8.39909,5.03945 -1.26666,-7.33487 -3.86824,-15.11719 -11.75872,-17.63807 -5.54397,1.54203 12.08854,9.63242 3.35965,15.95826 -9.0357,9.2691 -4.23331,-0.37209 -5.03945,-5.03945 -7.68664,-0.96483 -10.27674,-13.85022 -18.47794,-9.239 -8.2267,-0.17045 -8.4649,7.878 -15.9583,10.07891 -1.3093,8.37043 -7.1113,13.68322 -15.1183,15.95825 -4.914,-6.75207 -12.3772,-4.33391 -9.239,-15.11835 -2.7896,-8.65959 7.3866,-12.68137 14.2784,-13.43852 10.7669,1.84202 -0.5968,-11.25262 -3.3596,-13.43853 7.6138,-0.50753 14.8268,-3.05433 18.478,-10.0789 -0.4303,-11.28812 16.7083,-3.39315 11.7586,-11.75871 2.4106,-10.54658 4.5889,-1.53656 8.3991,1.67981 7.96,4.53844 13.80708,-0.0227 19.31794,-5.87936 0.87974,-5.92131 14.86077,-14.34594 10.9188,-14.27842 -13.62044,6.81757 -8.47246,-10.27703 -4.19955,-16.79817 -6.88947,-0.6123 -11.8613,7.23282 -15.11835,12.59862 1.91196,5.25904 0.88304,16.84238 -4.19959,18.47797 -7.01285,-1.34943 -10.15655,-14.70073 -16.79815,-5.87935 -6.1137,7.7999 -6.4139,-10.5558 -5.0394,-13.43853 5.1504,-4.91293 16.4997,-6.15011 14.2785,-15.11835 7.43189,-6.49752 16.62601,-8.98595 26.03709,-10.9188 z m -234.33439,5.03945 c 0.503,-0.0393 0.3513,-9.6e-4 0.8399,0 7.3287,0.0145 13.3923,4.67443 10.079,12.59862 -6.083,10.88252 -20.7979,14.92649 -30.2368,21.83761 0.051,9.26764 8.9181,10.61505 15.9583,13.43853 5.6997,3.66735 3.6238,19.35294 8.3991,5.03944 2.1554,-7.9407 13.6827,-6.28544 10.9188,-15.95824 4.2617,-5.04496 6.4291,-18.55503 14.2785,-10.0789 9.9511,1.83749 -1.2958,15.64285 10.9187,7.55917 9.39,-1.84094 2.455,14.81421 10.079,14.27844 9.6327,2.52597 1.1643,11.96998 10.9187,14.27843 -5.0032,11.45741 -7.4346,6.44317 -8.399,-3.35962 -7.1989,2.76883 -14.0034,5.23612 -21.8376,4.19953 -5.2901,2.90062 -20.826,8.16966 -6.7193,6.71926 7.1495,0.30034 20.0517,-2.65535 10.0789,6.71928 -3.1803,9.24823 -17.0883,1.54778 -20.1578,10.91879 -2.2197,8.96549 -15.2795,5.41657 -16.7982,14.27844 -1.543,8.46376 -8.6763,13.59303 -15.1183,18.47797 -8.4449,4.25711 -3.8794,15.04912 -5.8794,22.67753 -4.7767,-5.34338 -8.3936,-13.02941 -16.7981,-12.59863 -6.6863,-1.01251 -8.7127,6.41357 -17.6382,5.03945 -6.6696,4.50452 -13.639,8.64646 -12.5984,17.63808 -1.4623,7.48074 1.877,16.05116 10.0788,15.95823 6.7209,-4.39847 19.8583,-19.5854 15.1183,0 -9.965,17.96444 13.9241,0.72365 8.3991,15.95826 -1.8787,11.00933 13.6995,21.53537 19.3179,11.75871 5.9836,-3.95094 11.935,-14.74144 18.478,-5.87935 5.7784,6.91252 13.886,5.72667 21.8376,4.19954 6.1724,0.57461 5.7058,11.85792 9.2389,16.79816 8.3665,0.63384 14.702,3.86149 16.7983,12.59862 10.5817,11.16392 27.783,15.24494 41.1554,23.51742 -0.931,7.33451 0.087,15.59039 -5.8794,20.99772 -7.9288,6.62212 -3.4479,16.37795 -3.3596,25.19723 -3.7136,6.03742 -3.2813,16.65829 -12.5986,15.95825 -7.2889,-0.25124 -14.0999,9.80927 -9.2389,15.95825 -3.3297,6.66175 -4.7751,14.70192 -9.2391,20.1578 -9.617,0.0231 -10.2275,8.28084 -15.9582,13.43852 -1.5136,17.88013 -21.8731,2.06417 -31.9165,-5.03945 0.5682,-7.53667 2.8499,-15.84925 4.1994,-23.51742 -3.7622,-6.83075 -5.6079,-14.05243 -4.1994,-21.8376 2.6508,-9.6164 -4.9971,-16.99884 -11.7587,-22.67752 -9.6441,-6.02167 -13.2769,-16.4454 -18.478,-26.03716 -6.1173,-6.54288 -4.436,-14.28127 -1.6799,-21.8376 -3.2847,-6.67067 5.2026,-10.70624 5.8795,-17.63807 1.8321,-5.49288 9.0161,-16.15735 -1.6799,-15.11834 -7.3788,2.54147 -13.3172,-5.85504 -18.478,-10.0789 -4.6211,-10.02893 -16.9542,-7.81015 -25.1972,-12.59862 -9.7022,-5.09919 -18.8011,-11.17538 -21.8376,-22.67752 5.7493,-49.06147 26.4628,-95.85709 60.4734,-131.86556 6.9124,-15.24584 27.0964,-13.94099 30.2366,-29.39678 z m 169.6615,18.47797 c 5.3888,0.29876 5.6827,8.14042 8.399,12.59863 4.5587,7.66655 12.222,11.79359 0.84,17.63807 -10.9643,5.12176 -10.8528,-1.30354 -8.3991,-10.0789 2.7368,-8.00992 -4.7855,-11.80925 -3.3596,-19.31788 1.0082,-0.29535 1.7499,-0.88275 2.5197,-0.83992 z m -12.5987,12.59863 c 0.4819,0.0107 1.1133,-0.17135 1.6798,0 1.3184,5.55737 6.6286,9.71268 -1.6798,11.75872 -5.3076,4.68483 -7.2297,-11.91643 0,-11.75872 z m 115.90736,103.30868 c -4.89155,2.62057 -0.49008,6.89212 0,10.91881 4.70343,12.11093 14.54689,21.41319 16.79816,35.27613 -3.07398,10.55466 19.77394,18.09147 10.0789,7.55919 -4.6095,-5.61562 5.28723,-13.07276 -5.03946,-17.63807 -6.95217,-12.16295 -10.96817,-26.47216 -21.8376,-36.11606 z"
           style="fill:url(#linearGradient3095);fill-opacity:1;fill-rule:nonzero;stroke:none"
           inkscape:connector-curvature="0" />
        <path
           style="fill:#ffffff;fill-opacity:1;fill-rule:nonzero;stroke:none"
           d="m -1082.2729,517.89888 c -148.4378,0 -268.7751,120.3372 -268.7751,268.77509 0,74.52754 31.3977,140.8974 80.3926,189.58244 -38.3417,-46.45943 -61.1943,-105.44265 -61.1943,-170.38421 0,-148.4379 120.3372,-268.7751 268.775,-268.7751 64.94161,0 123.92488,22.85263 170.38427,61.19433 -48.685,-48.99488 -115.05487,-80.39255 -189.58247,-80.39255 z m 22.7979,73.19322 c -1.6213,3.54871 -4.0052,6.32104 -4.7995,9.59911 -6.6049,12.20022 -1.8756,7.62062 5.9994,7.19933 9.2,4.23368 -4.2004,13.21439 -8.3992,10.799 -5.4648,-8.42436 -5.2874,-8.31045 -16.7985,-2.39978 -7.5499,3.89128 -17.5517,4.75227 -23.9977,9.59911 1.1698,3.4747 -0.039,8.22224 -3.5997,10.799 -9.1569,4.7529 0.5125,12.65326 2.3998,19.19822 1.4652,11.4004 11.2543,4.6043 14.3986,-2.39977 4.5456,-12.73666 19.4625,-12.56866 29.9973,-17.99834 11.5111,-5.91067 11.3336,-6.02458 16.7984,2.39978 0.2624,0.15097 0.8733,-0.065 1.1999,0 -0.4619,-1.53724 -1.5564,-2.9224 -1.1999,-4.79955 1.0082,-0.29535 1.63,-1.24272 2.3998,-1.19989 2.6944,0.14938 4.9128,2.24452 5.9994,4.79955 3.6087,-2.53804 5.29,-7.16474 0,-9.59911 -7.875,0.42129 -12.6043,5.00089 -5.9994,-7.19933 1.5887,-6.55614 8.3203,-13.82843 7.1993,-19.19822 -7.2218,-2.83949 -14.3762,-6.73254 -21.598,-9.59911 z m -74.3931,8.39922 c -0.8803,0.28565 -1.3742,1.17271 -2.3998,1.19989 -3.8999,0.11894 -7.4815,1.73658 -10.799,3.59967 2.1892,2.52621 4.6683,5.26607 8.3993,5.99944 4.5617,-1.81075 8.4491,-2.77085 11.9988,-3.59967 -1.0528,-3.12723 -3.838,-5.81497 -7.1993,-7.19933 z m 7.1993,8.39922 c -0.6635,1.09821 -0.807,2.62738 0,3.59967 0.1455,-1.05022 0.2358,-2.54086 0,-3.59967 z m -40.7962,2.39978 c -0.3642,0.17448 -0.857,0.19963 -1.1999,1.19989 2.175,8.23623 -0.8282,14.41223 -7.1993,19.19822 -6.87,7.79461 -1.7982,14.04567 4.7996,7.19933 0.5608,-1.68651 2.6323,-3.14575 3.5996,-4.79955 4.4675,4.21381 18.1243,11.30228 16.7985,1.19989 -0.9265,-3.96603 -4.5812,-6.26021 -8.3993,-5.99945 -2.2707,0.15524 -5.3566,0.86116 -7.1993,2.39978 4.7092,-6.70477 11.6352,-10.76889 19.1982,-5.99944 6.341,3.47669 12.0844,9.81971 17.9984,10.79899 -2.401,-5.71084 -7.6555,-12.32543 -2.3998,-16.79844 -0.8424,-1.2607 -1.5346,-2.4676 -2.3998,-3.59967 -1.461,0.11739 -5.4195,-0.75562 -8.3992,-1.19988 -5.2472,3.65881 -10.9113,0.74623 -16.7985,-3.59967 -2.6167,14.42094 -5.8497,-1.22137 -8.3992,0 z m 209.98057,19.19822 c 0.93534,0.8805 1.58942,1.5527 2.39978,2.39978 0.8279,0.1 1.65324,-0.73038 2.39978,-1.19989 -1.48556,-0.55014 -3.31868,-0.6051 -4.79956,-1.19989 z m -237.57797,3.59967 c -2.9001,14.27387 -19.5028,14.47538 -27.5975,26.39755 1.6606,0.59814 3.2028,1.7594 4.7996,2.39978 1.7602,1.13256 2.8918,2.61212 3.5997,4.79955 2.0226,-1.48095 4.829,-2.28652 7.1993,-3.59966 0.3334,-0.36149 0.8245,-0.88836 1.1999,-1.19989 4.0218,-3.33785 9.2722,-3.5444 7.1993,-10.799 4.2617,-5.04496 6.5493,-19.27513 14.3987,-10.799 0.398,0.0735 0.8668,-0.10963 1.1999,0 -0.6512,-4.6543 -5.3025,-7.18846 -10.799,-7.19933 -0.4886,-9.6e-4 -0.6969,-0.0393 -1.1999,0 z m 211.18042,4.79955 c -0.74125,0.55084 -1.68937,0.57881 -2.39978,1.19989 1.53486,6.19716 -3.49739,8.22122 -8.39923,10.799 -0.8292,1.92332 -2.03,3.09456 -3.5997,3.59967 -0.5259,-0.10121 -0.7143,-0.97808 -1.1998,-1.19989 -0.4346,0.32404 -0.82381,0.84108 -1.19991,1.19989 -0.5346,1.12106 -0.2155,5.04638 0,8.39922 5.68001,0.87809 10.02801,-3.75429 14.39864,-8.39922 0.87982,-5.92131 15.94086,-13.2663 11.99889,-13.19878 -6.0244,3.01546 -9.21849,0.95684 -9.59911,-2.39978 z m -41.99612,13.19878 c -0.7698,-0.0428 -1.3916,0.90454 -2.3998,1.19989 -1.0694,5.63147 3.9054,9.59895 4.7996,14.39866 1.3669,-2.27151 3.446,-3.25825 5.9994,-3.59966 -2.2687,-4.53666 -3.3663,-11.71986 -8.3992,-11.99889 z m 113.98945,1.19989 c 23.94141,30.00073 41.50271,66.09566 46.79566,104.39032 -8.07942,16.23435 -14.86956,-10.51191 -27.59744,-3.59966 -5.89105,-2.88041 -11.61612,-15.61861 -9.59911,-1.19989 -0.47082,7.00322 9.19986,9.02321 11.99889,14.39867 3.64843,-8.04224 7.26879,-5.90491 9.59911,-1.19989 0.33923,0.31037 0.81066,0.79135 1.19988,1.19989 1.94613,2.04265 3.54484,4.79927 5.99945,5.99944 12.72788,-6.91225 19.51802,19.83402 27.59744,3.59967 -6.54694,-47.36744 -32.54363,-89.89427 -65.99388,-123.58855 z m -254.37645,5.99944 c 0.4311,2.45407 0.9606,3.78513 3.5997,3.59967 -0.6848,-0.63349 -1.0066,-2.14253 -2.3998,-2.39978 -0.5887,-0.63571 -0.6718,-0.79868 -1.1999,-1.19989 z m 128.3881,5.99945 c -7.2297,-0.15771 -5.3076,15.48383 0,10.799 8.3084,-2.04604 2.5183,-5.24163 1.1999,-10.799 -0.5665,-0.17136 -0.718,0.0107 -1.1999,0 z m -116.3892,2.39977 c -2.1986,1.45507 -2.6609,2.16567 -3.5997,2.39978 0.3063,2.9653 1.1223,6.04511 5.9995,7.19933 -5.0032,11.45741 -7.4348,6.20313 -8.3992,-3.59966 -7.1989,2.76883 -13.7638,5.83614 -21.598,4.79955 -0.4198,0.32212 -0.7323,0.90191 -1.1999,1.19989 -2.413,1.53757 -4.5583,3.11853 -5.9995,5.99945 7.1495,0.30034 20.7718,-3.37519 10.799,5.99944 -3.1803,9.24823 -17.3286,1.42799 -20.3981,10.799 -2.2197,8.96549 -15.2797,5.53679 -16.7984,14.39867 -1.543,8.46375 -9.1566,14.31327 -15.5986,19.19822 -8.4449,4.25711 -3.9994,13.96959 -5.9994,21.59799 -4.7767,-5.34337 -8.394,-12.42966 -16.7985,-11.99888 -6.6863,-1.01251 -7.8729,6.17367 -16.7984,4.79955 -2.6012,1.75677 -4.9999,4.04379 -7.1994,5.99945 -2.1813,7.54934 -3.3666,15.05093 -4.7995,22.79788 1.6773,3.06609 4.2983,4.84602 8.3992,4.79956 4.4806,-2.93231 11.4127,-9.37666 14.3987,-8.39922 0.2156,-0.20626 0.9743,0.20058 1.1999,0 2.1994,-1.95566 4.5982,-4.24268 7.1993,-5.99945 8.9255,1.37412 10.1121,-5.81206 16.7984,-4.79955 8.4045,-0.43078 12.0218,6.65551 16.7985,11.99889 2,-7.62841 -2.4455,-17.34089 5.9994,-21.598 6.442,-4.88494 14.0556,-10.73447 15.5986,-19.19822 1.5187,-8.86188 14.5787,-5.43318 16.7984,-14.39867 3.0695,-9.37101 17.2178,-1.55077 20.3981,-10.799 9.9728,-9.37463 -3.6495,-5.6991 -10.799,-5.99944 -14.1067,1.4504 1.9093,-4.29872 7.1994,-7.19934 7.8342,1.03659 14.3991,-2.03072 21.598,-4.79955 0.9644,9.80279 3.396,15.05708 8.3992,3.59967 -9.7544,-2.30846 -1.1663,-11.8727 -10.799,-14.39867 -7.624,0.53577 -1.409,-16.23961 -10.799,-14.39867 z m 159.58521,27.59745 c -5.54391,1.54203 12.32857,9.27271 3.5997,15.59855 -9.03571,9.2691 -3.9934,-0.13219 -4.7996,-4.79955 -7.20621,-0.90453 -9.72811,-11.97948 -16.79841,-9.59911 -2.1534,1.29495 -4.6311,1.85588 -7.1994,2.39977 -1.1487,0.93647 -2.5762,2.44173 -3.5996,3.59967 3.8481,3.87789 11.9,12.42431 2.3998,10.799 -6.4611,0.70983 -15.554,4.41899 -14.3987,11.99889 9.8853,-2.76449 20.31,-5.68776 29.9972,-2.39978 2.9002,-3.02422 5.3145,-7.31297 10.79901,-7.19933 8.20121,-4.61122 10.31172,8.63428 17.99834,9.59911 0.34549,2.00029 0.184,5.252 0,7.19933 0.51601,0.006 0.67977,1.14403 1.19989,1.19989 0.83301,-0.32668 1.34073,-1.28239 3.59967,-3.59967 6.18298,-4.4808 -0.9353,-8.70178 -3.59967,-11.99889 -1.23195,1.4252 -3.98421,0.70183 -7.19933,-4.79955 -1.26659,-7.33487 -4.10839,-15.47745 -11.9989,-17.99833 z m 20.39812,11.99888 c -0.17183,3.24639 -0.66368,5.22914 -1.19989,7.19934 7.89047,2.52088 10.73223,10.66346 11.99889,17.99833 1.60754,2.75069 3.75075,3.99999 4.79955,4.79955 0.37709,0.0551 0.82441,-0.0387 1.19989,0 0.40831,-0.006 0.89191,0.3563 1.19989,0 1.23195,-1.42519 0.94371,-5.95893 1.19989,-10.79899 4.5079,-2.02696 8.55772,1.86222 11.99889,5.99944 4.27955,-4.05936 4.77916,-9.06568 -3.59967,-10.799 -14.16928,5.72533 -17.57989,-18.90301 -27.59744,-14.39867 z m 32.397,47.99556 c 0.5908,1.49436 1.01401,3.27219 1.19989,4.79955 4.70344,12.11093 14.54718,20.93384 16.79844,34.79678 -3.07398,10.55466 19.29413,18.9315 9.59911,8.39922 -2.30475,-2.80781 -0.60716,-6.46221 0,-9.59911 -1.45085,-2.36937 -2.24504,-4.78956 -3.59967,-7.19933 -0.53659,-0.34629 -0.47703,-0.88032 -1.19989,-1.19989 -1.04281,-1.82444 -1.45603,-4.10141 -2.39977,-5.99945 -3.77495,-7.59214 -8.36605,-15.86738 -13.19878,-22.79788 -2.2839,0.16508 -4.82536,-0.67231 -7.19933,-1.19989 z m 63.5941,23.99777 c -3.60554,7.66304 -12.19674,12.14582 -19.19822,16.79845 -1.6765,1.20158 -3.4437,2.41798 -4.79955,3.59966 0.79638,1.57414 1.53075,3.27919 2.39977,4.79956 1.44575,0.63914 1.65151,1.66026 2.39978,2.39978 1.03525,-0.26193 1.15466,-0.81902 2.39978,-1.19989 0.0478,0.79396 0.0286,1.62604 0,2.39977 1.7892,4.28655 -3.45714,10.18696 0,14.39867 5.67515,6.16524 0.10045,5.59846 -4.79956,2.39978 -1.92585,4.14964 -3.4713,7.61523 -4.79955,11.99889 -7.9534,6.80577 -13.0819,16.78568 -16.79844,26.39755 -0.57799,12.14588 -1.46418,25.32172 2.39977,37.19655 -2.14202,7.71677 -13.88661,8.48769 -19.19822,14.39867 -12.8011,4.35235 9.97271,11.94191 0,16.79844 -10.27972,3.78194 -1.92374,11.4598 -8.39922,16.79845 -5.81115,4.40879 -9.73837,15.46339 -17.99833,14.39866 -2.11511,-0.61661 -4.29699,-0.63381 -5.99945,0 2.34641,8.39258 3.85455,16.6219 3.59967,25.19767 8.48204,2.53731 13.13757,-8.46588 21.598,-5.99945 8.25996,1.06474 12.18718,-9.98987 17.99833,-14.39866 6.47549,-5.33864 -1.8805,-13.01651 8.39922,-16.79845 9.97271,-4.85653 -12.8011,-12.44609 0,-16.79844 5.31161,-5.91098 17.0562,-6.6819 19.19822,-14.39867 -3.86394,-11.87482 -2.97775,-25.05068 -2.39977,-37.19655 3.71654,-9.61187 8.84504,-19.59178 16.79844,-26.39755 3.20672,-10.58341 10.28192,-19.85478 9.59911,-31.19711 -18.81502,5.75537 -12.88876,-2.08153 -2.39978,-9.59911 7.25252,-4.81945 15.82329,-9.82005 19.19822,-17.99833 1.64898,-9.25546 -5.65379,-24.7855 -11.99888,-10.799 -1.39952,-2.68774 -4.34072,-4.96708 -7.19934,-7.19934 z m -364.76623,15.59856 c -2.086,1.12118 -4.7395,2.76015 -7.1993,4.79955 -1.6991,9.95697 10.2216,18.69431 16.7984,13.19878 -4.7544,-0.51526 -12.4767,2.07778 -5.9994,-9.59911 2.37,-9.7927 -0.068,-10.29759 -3.5997,-8.39922 z m -40.7962,2.39978 c 3.6246,9.90028 11.4282,15.68376 20.3981,20.39811 8.243,4.78847 20.5766,3.16984 25.1977,13.19877 0.7893,0.646 1.5717,1.61263 2.3998,2.39978 2.4756,-5.62333 5.3136,-12.86473 -3.5997,-11.99889 -7.3788,2.54147 -12.8375,-5.37525 -17.9983,-9.59911 -4.6211,-10.02893 -16.9547,-8.41031 -25.1977,-13.19878 -0.5137,-0.26995 -0.6904,-0.92379 -1.1999,-1.19988 z m 259.176,29.99722 c -1.4336,-0.1457 -2.1859,0.0593 -3.5997,1.19988 -7.0831,10.48064 -10.7798,-5.56455 -16.7984,3.59967 -1.7896,1.76465 -4.1805,2.43817 -5.9995,2.39978 6.9241,10.80371 16.4541,25.42041 25.1977,16.79844 6.0186,-9.16422 9.7153,6.88097 16.7984,-3.59966 1.7465,-1.40896 3.0061,-1.60703 4.7996,-1.19989 1.9768,-6.1925 1.7714,-12.74062 -4.7996,-16.79845 -6.1683,2.69581 -11.2977,-1.96269 -15.5985,-2.39977 z m -148.7862,2.39977 c 2.3778,1.11866 4.5042,2.5392 5.9994,4.79956 -1.0032,-2.25878 -1.3304,-4.5883 -3.5996,-4.79956 -0.7873,0.1512 -1.6119,-0.13698 -2.3998,0 z m 49.1954,43.196 c -0.536,4.11043 -1.4889,7.79859 -4.7995,10.799 -7.9288,6.62212 -3.688,16.37839 -3.5997,25.19767 -3.7136,6.03741 -2.6816,17.49848 -11.9989,16.79844 -7.2889,-0.25123 -14.4601,9.44955 -9.5991,15.59855 -3.3297,6.66175 -5.1351,14.94225 -9.5991,20.39811 -9.617,0.0231 -9.8679,8.0411 -15.5986,13.19878 -0.7038,8.31425 -6.0772,9.19299 -11.9989,7.19933 -0.4037,2.34675 -1.0305,4.95284 -1.1998,7.19934 10.0434,7.10361 30.8834,22.6797 32.397,4.79955 5.7307,-5.15768 5.9815,-13.17566 15.5985,-13.19878 4.464,-5.45586 6.2694,-13.73636 9.5991,-20.39811 -4.861,-6.14899 2.3102,-15.84978 9.5991,-15.59855 9.3173,0.70004 8.2853,-10.76103 11.9989,-16.79844 -0.088,-8.81928 -4.3291,-18.57555 3.5997,-25.19767 5.9664,-5.40733 5.0684,-13.06358 5.9994,-20.39811 -6.2404,-3.86049 -13.5518,-6.41842 -20.3981,-9.59911 z"
           id="path3266"
           inkscape:connector-curvature="0" />
      </g>
    </g>
  </g>
</svg>
