<?xml version="1.0" encoding="UTF-8"?>
<!-- Created with Inkscape (http://www.inkscape.org/) -->
<svg id="svg3498" width="32" height="32" version="1.0" xmlns="http://www.w3.org/2000/svg" xmlns:xlink="http://www.w3.org/1999/xlink">
 <defs id="defs3500">
  <linearGradient id="linearGradient2679" x1="302.86" x2="302.86" y1="366.65" y2="609.51" gradientTransform="matrix(.045769 0 0 .0082353 -.54232 26.981)" gradientUnits="userSpaceOnUse">
   <stop id="stop5050" style="stop-opacity:0" offset="0"/>
   <stop id="stop5056" offset=".5"/>
   <stop id="stop5052" style="stop-opacity:0" offset="1"/>
  </linearGradient>
  <radialGradient id="radialGradient2676" cx="605.71" cy="486.65" r="117.14" gradientTransform="matrix(-.015663 0 0 .0082353 14.39 26.981)" gradientUnits="userSpaceOnUse" xlink:href="#linearGradient5060"/>
  <linearGradient id="linearGradient5060">
   <stop id="stop5062" offset="0"/>
   <stop id="stop5064" style="stop-opacity:0" offset="1"/>
  </linearGradient>
  <radialGradient id="radialGradient2673" cx="605.71" cy="486.65" r="117.14" gradientTransform="matrix(.015663 0 0 .0082353 17.61 26.981)" gradientUnits="userSpaceOnUse" xlink:href="#linearGradient5060"/>
  <linearGradient id="linearGradient2685" x1="-51.786" x2="-51.786" y1="53.624" y2="2.9062" gradientTransform="matrix(.53064 0 0 .5897 39.27 -.79191)" gradientUnits="userSpaceOnUse">
   <stop id="stop4963" style="stop-color:#643340" offset="0"/>
   <stop id="stop4965" style="stop-color:#a77a86" offset="1"/>
  </linearGradient>
  <radialGradient id="radialGradient2683" cx="14.239" cy="11.49" r="18" gradientTransform="matrix(0 2.0947 -3.4819 0 48.983 -24.861)" gradientUnits="userSpaceOnUse">
   <stop id="stop4953" style="stop-color:#e694bb" offset="0"/>
   <stop id="stop4955" style="stop-color:#d3819a" offset=".26238"/>
   <stop id="stop4957" style="stop-color:#b25a64" offset=".70495"/>
   <stop id="stop4959" style="stop-color:#98313d" offset="1"/>
  </radialGradient>
  <linearGradient id="linearGradient2662" x1="24" x2="24" y1="2" y2="46.017" gradientTransform="matrix(.63636 0 0 .62791 .72725 .93022)" gradientUnits="userSpaceOnUse">
   <stop id="stop3213" style="stop-color:#fff" offset="0"/>
   <stop id="stop3215" style="stop-color:#fff;stop-opacity:0" offset="1"/>
  </linearGradient>
  <filter id="filter3212" x="-.14846" y="-.16434" width="1.2969" height="1.3287">
   <feGaussianBlur id="feGaussianBlur3214" stdDeviation="0.77391625"/>
  </filter>
  <linearGradient id="linearGradient2658" x1="32.892" x2="36.358" y1="8.059" y2="5.4565" gradientTransform="matrix(.63713 0 0 .64456 .82968 .74452)" gradientUnits="userSpaceOnUse">
   <stop id="stop8591" style="stop-color:#fefefe" offset="0"/>
   <stop id="stop8593" style="stop-color:#cbcbcb" offset="1"/>
  </linearGradient>
  <linearGradient id="linearGradient2632" x1="16.626" x2="20.055" y1="15.298" y2="24.628" gradientTransform="matrix(.47891 0 0 .9111 4.5061 -3.4381)" gradientUnits="userSpaceOnUse">
   <stop id="stop2687" style="stop-color:#fff" offset="0"/>
   <stop id="stop2689" style="stop-color:#fff;stop-opacity:0" offset="1"/>
  </linearGradient>
  <linearGradient id="linearGradient2626" x1="35.517" x2="34.103" y1="4.8577" y2="6.5436" gradientTransform="matrix(.63768 0 0 .66015 1.0364 1.1699)" gradientUnits="userSpaceOnUse">
   <stop id="stop4269" style="stop-color:#c4c4c4" offset="0"/>
   <stop id="stop4271" style="stop-color:#c4c4c4;stop-opacity:0" offset="1"/>
  </linearGradient>
  <linearGradient id="linearGradient3490" x1="75.854" x2="91" y1="28" y2="12" gradientTransform="matrix(.77094 0 0 .6022 -40.765 4.5056)" gradientUnits="userSpaceOnUse" spreadMethod="reflect">
   <stop id="stop4002" offset="0"/>
   <stop id="stop4004" style="stop-opacity:0" offset="1"/>
  </linearGradient>
  <linearGradient id="linearGradient3488" x1="75.854" x2="91" y1="28" y2="12" gradientTransform="matrix(.77094 0 0 .6022 -40.765 3.7776)" gradientUnits="userSpaceOnUse" spreadMethod="reflect">
   <stop id="stop5295" style="stop-color:#fff" offset="0"/>
   <stop id="stop5297" style="stop-color:#fff;stop-opacity:0" offset="1"/>
  </linearGradient>
  <linearGradient id="linearGradient3492" x1="24.239" x2="24.239" y1="44.11" y2=".19081" gradientTransform="matrix(.60511 0 0 .64008 3.8886 1.8183)" gradientUnits="userSpaceOnUse">
   <stop id="stop4108" style="stop-color:#51293c" offset="0"/>
   <stop id="stop4110" style="stop-color:#876374" offset="1"/>
  </linearGradient>
 </defs>
 <g id="layer1">
  <rect id="rect2879" x="4.95" y="30" width="22.1" height="2" style="fill:url(#linearGradient2679);opacity:.15"/>
  <path id="path2881" d="m4.95 30v1.9999c-0.80662 0.003766-1.95-0.44807-1.95-1.0001s0.90012-0.99982 1.95-0.99982z" style="fill:url(#radialGradient2676);opacity:.15"/>
  <path id="path2883" d="m27.05 30v1.9999c0.80661 0.003766 1.95-0.44807 1.95-1.0001s-0.90012-0.99982-1.95-0.99982z" style="fill:url(#radialGradient2673);opacity:.15"/>
  <path id="path4160" d="m4.5 1.5h15.811c0.92456 0.3128 5.8916 3.8764 7.1886 6.3439v22.656h-23v-29z" style="fill:url(#radialGradient2683);stroke-linejoin:round;stroke-width:.99992;stroke:url(#linearGradient2685)"/>
  <path id="path2435" d="m26.5 8.139v21.361h-21v-27h14.551" style="fill:none;opacity:.4;stroke:url(#linearGradient2662)"/>
  <path id="path12038" transform="matrix(.6386 0 0 .61936 .72508 1.4294)" d="m28.617 0.92126c4.2825 0 2.1532 8.4832 2.1532 8.4832s10.358-1.8023 10.358 2.8187c0-2.6097-11.302-10.729-12.511-11.302z" style="fill-rule:evenodd;filter:url(#filter3212);opacity:.4"/>
  <path id="path4474" d="m19 2c2.0349 0 1.4916 4.7455 1.4916 4.7455s6.4978-0.60763 6.4978 2.2545c0-0.69737 0.054866-1.1968-0.085429-1.4144-1.0079-1.5634-5.3614-5.0716-6.9334-5.5314-0.11764-0.034408-0.3785-0.054215-0.97055-0.054215z" style="fill-rule:evenodd;fill:url(#linearGradient2658)"/>
  <path id="path3879" d="m6.0476 2c-0.57866 0-1.0476 0.89216-1.0476 1.993v14.578c0.0013274 0.12264 0.029596 0.23861 0.077942 0.31976 0.048348 0.081157 0.11235 0.12008 0.17648 0.10731l21.551-6.4916c0.11086-0.033258 0.19301-0.21359 0.19456-0.42708v-3.9233l-7.01-6.1557h-13.942z" style="fill-rule:evenodd;fill:url(#linearGradient2632);opacity:.2"/>
  <path id="path3883" d="m20.287 1.4703c0.89717 0.31334 5.9541 3.9109 7.2127 6.3827v8.1102c-25.791 10.383-22.706-14.493-7.2127-14.493z" style="fill:none;stroke-linejoin:round;stroke-width:.99992;stroke:url(#linearGradient2626)"/>
  <path id="path5316" d="m21.975 11.732c-0.28316-0.011046-0.5653 0.001491-0.84127 0.023162-2.4285 0.19071-4.5281 1.6286-5.3354 3.9143-0.49747 1.4085-0.39806 2.9004 0.13283 4.2849l-10.931 9.3904v0.65517h6.4661l-0.14023-1.8 3.5643 0.69485 0.42063-3.2195 3.3429 0.69485 2.1917-1.8298c2.2382 0.71161 4.5094 0.34808 6.1545-0.83382v-7.7128c-0.27157 0.066955-0.58671 0.050394-0.88554-0.069483-0.72954-0.29266-1.1416-1.0748-0.90768-1.7371 0.17544-0.49672 0.67896-0.8187 1.2176-0.81066 0.17955 0.002683 0.37108 0.042644 0.55347 0.11581 0.009874 0.003961 0.012391 0.019023 0.022138 0.023161v-1.2044c-0.71273-0.18794-1.4303-0.11148-1.9925 0.20846-0.15262-0.072637-0.28383-0.16786-0.44277-0.23162-0.85834-0.34433-1.7408-0.52274-2.5902-0.55588z" style="fill:url(#linearGradient3490);opacity:.1"/>
  <path id="path5283" d="m21.975 11.004c-0.28316-0.011047-0.5653 0.00149-0.84127 0.023161-2.4285 0.19071-4.5281 1.6286-5.3354 3.9143-0.49747 1.4085-0.39806 2.9004 0.13283 4.2849l-10.931 9.4632 0.029916 1.3103h6.4952l-0.19925-2.5279 3.5643 0.69485 0.42063-3.2195 3.3429 0.69485 2.1917-1.8298c2.2382 0.71161 4.5094 0.34808 6.1545-0.83382v-7.7128c-0.27157 0.066953-0.58671 0.050393-0.88554-0.069485-0.72954-0.29266-1.1416-1.0748-0.90768-1.7371 0.17544-0.49673 0.67896-0.8187 1.2176-0.81066 0.17955 0.002682 0.37108 0.042645 0.55347 0.11581 0.009874 0.003961 0.012391 0.019023 0.022138 0.023162v-1.2044c-0.71273-0.18794-1.4303-0.11148-1.9925 0.20846-0.15262-0.072636-0.28383-0.16786-0.44277-0.23162-0.85834-0.34433-1.7408-0.52274-2.5902-0.55588z" style="fill:url(#linearGradient3488);opacity:.4"/>
  <path id="path3496" d="m19.178 25c-0.30053-1.1063-0.60105-1.8937-0.90158-3h-4.544c-0.30353 1.1063-0.60706 1.8937-0.91059 3h-2.8219c1.4275-4.6667 2.855-9.3333 4.2825-14h3.417c1.4335 4.6667 2.867 9.3333 4.3005 14h-2.8219zm-1.5507-6c-0.49526-1.8489-1.0657-3.4742-1.4956-5.3418-0.083048-0.28131-0.11977-1.0294-0.19652-0.33602-0.4198 1.9844-0.99865 3.7237-1.5265 5.6778h3.2186z" style="fill:#fff;opacity:.4"/>
  <path id="text3893" d="m19.178 24c-0.30053-1.1063-0.60105-1.8937-0.90158-3h-4.544c-0.30353 1.1063-0.60706 1.8937-0.91059 3h-2.8219c1.4275-4.6667 2.855-9.3333 4.2825-14h3.417c1.4335 4.6667 2.867 9.3333 4.3005 14h-2.8219zm-1.5507-6c-0.49526-1.8489-1.0657-3.4742-1.4956-5.3418-0.083048-0.28131-0.11977-1.0294-0.19652-0.33602-0.4198 1.9844-0.99865 3.7237-1.5265 5.6778h3.2186z" style="fill:url(#linearGradient3492)"/>
 </g>
</svg>
