<?xml version="1.0" encoding="UTF-8" standalone="no"?>
<!-- Created with Inkscape (http://www.inkscape.org/) -->

<svg
   xmlns:dc="http://purl.org/dc/elements/1.1/"
   xmlns:cc="http://creativecommons.org/ns#"
   xmlns:rdf="http://www.w3.org/1999/02/22-rdf-syntax-ns#"
   xmlns:svg="http://www.w3.org/2000/svg"
   xmlns="http://www.w3.org/2000/svg"
   xmlns:sodipodi="http://sodipodi.sourceforge.net/DTD/sodipodi-0.dtd"
   xmlns:inkscape="http://www.inkscape.org/namespaces/inkscape"
   version="1.1"
   width="16"
   height="16"
   id="svg3014"
   inkscape:version="0.91 r13725"
   sodipodi:docname="battery-040.svg">
  <sodipodi:namedview
     pagecolor="#ffffff"
     bordercolor="#666666"
     borderopacity="1"
     objecttolerance="10"
     gridtolerance="10"
     guidetolerance="10"
     inkscape:pageopacity="0"
     inkscape:pageshadow="2"
     inkscape:window-width="1920"
     inkscape:window-height="998"
     id="namedview10"
     showgrid="false"
     inkscape:zoom="13.227273"
     inkscape:cx="13.941581"
     inkscape:cy="5.7457042"
     inkscape:window-x="0"
     inkscape:window-y="32"
     inkscape:window-maximized="1"
     inkscape:current-layer="svg3014" />
  <defs
     id="defs3016" />
  <metadata
     id="metadata3019">
    <rdf:RDF>
      <cc:Work
         rdf:about="">
        <dc:format>image/svg+xml</dc:format>
        <dc:type
           rdf:resource="http://purl.org/dc/dcmitype/StillImage" />
        <dc:title></dc:title>
      </cc:Work>
    </rdf:RDF>
  </metadata>
  <path
     d="m 1.7,4.835 c -0.69804,0 -1.26,0.56196 -1.26,1.26 l 0,5.04 c 0,0.69804 0.56196,1.26 1.26,1.26 l 11.34,0 c 0.69804,0 1.26,-0.56196 1.26,-1.26 l 0,-0.63 0.242126,0 c 0.69804,0 1.017874,-0.56196 1.017874,-1.26 l 0,-1.26 c 0,-0.69804 -0.268117,-1.26 -0.966157,-1.26 l -0.293843,0 0,-0.63 c 0,-0.69804 -0.56196,-1.26 -1.26,-1.26 z m 0,0.63 11.34,0 c 0.34902,0 0.63,0.28098 0.63,0.63 l 0,5.04 c 0,0.34902 -0.28098,0.63 -0.63,0.63 l -11.34,0 c -0.34902,0 -0.63,-0.28098 -0.63,-0.63 l 0,-5.04 c 0,-0.34902 0.28098,-0.63 0.63,-0.63 z m 12.6,1.89 c 0.376371,0 0.63,0.03213 0.63,0.63 l 0,1.26 c 0,0.624582 -0.256062,0.63 -0.63,0.63 z"
     id="rect2401-5"
     style="display:inline;overflow:visible;visibility:visible;opacity:0.3;fill:#000000;fill-opacity:1;fill-rule:nonzero;stroke:none;stroke-width:1;marker:none;enable-background:accumulate"
     inkscape:connector-curvature="0" />
  <rect
     width="5.04"
     height="4.4100003"
     rx="0.315"
     ry="0.315"
     x="6.0950003"
     y="-6.1100006"
     transform="matrix(0,1,-1,0,0,0)"
     id="rect3190-4"
     style="display:inline;overflow:visible;visibility:visible;opacity:0.3;fill:#000000;fill-opacity:1;fill-rule:evenodd;stroke:none;stroke-width:1.69999993;marker:none;enable-background:accumulate" />
  <path
     d="m 1.7,4.205 c -0.69804,0 -1.26,0.56196 -1.26,1.26 l 0,5.04 c 0,0.69804 0.56196,1.26 1.26,1.26 l 11.34,0 c 0.69804,0 1.26,-0.56196 1.26,-1.26 l 0,-0.63 0.242126,0 C 15.240166,9.875 15.56,9.31304 15.56,8.615 l 0,-1.26 c 0,-0.69804 -0.268117,-1.26 -0.966157,-1.26 l -0.293843,0 0,-0.63 c 0,-0.69804 -0.56196,-1.26 -1.26,-1.26 z m 0,0.63 11.34,0 c 0.34902,0 0.63,0.28098 0.63,0.63 l 0,5.04 c 0,0.34902 -0.28098,0.63 -0.63,0.63 l -11.34,0 c -0.34902,0 -0.63,-0.28098 -0.63,-0.63 l 0,-5.04 c 0,-0.34902 0.28098,-0.63 0.63,-0.63 z m 12.6,1.89 c 0.376371,0 0.63,0.03213 0.63,0.63 l 0,1.26 c 0,0.624582 -0.256062,0.63 -0.63,0.63 z"
     id="rect2401"
     style="display:inline;overflow:visible;visibility:visible;fill:#dfdbd2;fill-opacity:1;fill-rule:nonzero;stroke:none;stroke-width:1;marker:none;enable-background:accumulate"
     inkscape:connector-curvature="0" />
  <rect
     width="12.285"
     height="5.9850006"
     rx="0.4725"
     ry="0.4725"
     x="1.2275"
     y="4.9925003"
     id="rect3192"
     style="display:inline;overflow:visible;visibility:visible;opacity:0.3;fill:none;stroke:#dfdbd2;stroke-width:0.31499997;stroke-linecap:round;stroke-linejoin:miter;stroke-miterlimit:4;stroke-dasharray:none;stroke-dashoffset:0;stroke-opacity:1;marker:none;enable-background:accumulate" />
  <rect
     width="5.04"
     height="4.4100003"
     rx="0.315"
     ry="0.31499481"
     x="5.4650002"
     y="-6.1100006"
     transform="matrix(0,1,-1,0,0,0)"
     id="rect3190"
     style="display:inline;overflow:visible;visibility:visible;fill:#dfdbd2;fill-opacity:1;fill-rule:evenodd;stroke:none;stroke-width:1.69999993;marker:none;enable-background:accumulate" />
</svg>
