<?xml version="1.0" encoding="UTF-8" standalone="no"?>
<svg
   xmlns:dc="http://purl.org/dc/elements/1.1/"
   xmlns:cc="http://creativecommons.org/ns#"
   xmlns:rdf="http://www.w3.org/1999/02/22-rdf-syntax-ns#"
   xmlns:svg="http://www.w3.org/2000/svg"
   xmlns="http://www.w3.org/2000/svg"
   xmlns:xlink="http://www.w3.org/1999/xlink"
   id="svg8860"
   height="16"
   width="16"
   version="1.1">
  <defs
     id="defs8862">
    <linearGradient
       gradientTransform="matrix(0.89189031,0,0,0.94046961,3.14398,5.346537)"
       gradientUnits="userSpaceOnUse"
       xlink:href="#linearGradient3454-2-5-0-3-8"
       id="linearGradient10270-0"
       y2="8.1721792"
       x2="11.350123"
       y1="0.66696572"
       x1="11.350123" />
    <linearGradient
       id="linearGradient3454-2-5-0-3-8">
      <stop
         offset="0"
         style="stop-color:#ffffff;stop-opacity:1"
         id="stop3456-4-9-38-1-9" />
      <stop
         offset="0.0097359"
         style="stop-color:#ffffff;stop-opacity:0.23529412"
         id="stop3458-39-80-3-5-6" />
      <stop
         offset="0.99001008"
         style="stop-color:#ffffff;stop-opacity:0.15686275"
         id="stop3460-7-0-2-4-4" />
      <stop
         offset="1"
         style="stop-color:#ffffff;stop-opacity:0.39215687"
         id="stop3462-0-9-8-7-8" />
    </linearGradient>
    <linearGradient
       id="linearGradient3104-8-8-97-4-6-11-5-5-4-4">
      <stop
         offset="0"
         style="stop-color:#000000;stop-opacity:0.32173914"
         id="stop3106-5-4-3-5-0-2-1-0-7-7" />
      <stop
         offset="1"
         style="stop-color:#000000;stop-opacity:0.27826086"
         id="stop3108-4-3-7-8-2-0-7-9-0-6" />
    </linearGradient>
    <linearGradient
       id="linearGradient4346">
      <stop
         offset="0"
         style="stop-color:#ffffff;stop-opacity:1"
         id="stop4348" />
      <stop
         offset="1"
         style="stop-color:#d8d8d8;stop-opacity:1"
         id="stop4350" />
    </linearGradient>
    <linearGradient
       gradientTransform="matrix(0.59680467,0,0,0.34757012,-0.37047501,-1.117049)"
       gradientUnits="userSpaceOnUse"
       xlink:href="#radialGradient2444"
       id="linearGradient12481"
       y2="44.805866"
       x2="15.029637"
       y1="16.073452"
       x1="15.029637" />
    <radialGradient
       r="23.097"
       gradientTransform="matrix(1.5647,-9.5143e-8,6.1772e-8,1.0159,-59.14917,8.1461003)"
       cx="63.969002"
       cy="14.113"
       gradientUnits="userSpaceOnUse"
       id="radialGradient2444">
      <stop
         offset="0"
         style="stop-color:#888a85"
         id="stop3618" />
      <stop
         offset="0.6875183"
         style="stop-color:#555753"
         id="stop3270" />
      <stop
         offset="1"
         style="stop-color:#2e3436"
         id="stop3620" />
    </radialGradient>
    <linearGradient
       y2="15.385052"
       x2="62.988873"
       y1="11.645091"
       x1="62.988873"
       gradientTransform="matrix(0.33333327,0,0,0.32971018,-17.44063,-0.6478427)"
       gradientUnits="userSpaceOnUse"
       id="linearGradient4289"
       xlink:href="#linearGradient4346" />
    <linearGradient
       y2="2.0612748"
       x2="-51.786404"
       y1="53.514328"
       x1="-51.786404"
       gradientTransform="matrix(0.31070043,0,0,0.27489387,20.17717,-0.1031627)"
       gradientUnits="userSpaceOnUse"
       id="linearGradient4291"
       xlink:href="#linearGradient3104-8-8-97-4-6-11-5-5-4-4" />
    <radialGradient
       id="radialGradient2983"
       fx="15.544"
       fy="39.027"
       gradientUnits="userSpaceOnUse"
       cy="41.058998"
       cx="17.059"
       gradientTransform="matrix(0.37668,-0.063113,0,0.36451,-2.4462,-0.69065)"
       r="5.7385001">
      <stop
         id="stop3877"
         style="stop-color:#aaa"
         offset="0" />
      <stop
         id="stop3879"
         style="stop-color:#4d4d4d"
         offset="1" />
    </radialGradient>
    <linearGradient
       id="linearGradient2977"
       y2="119.86"
       gradientUnits="userSpaceOnUse"
       x2="25.4"
       gradientTransform="matrix(0.1265,0,0,0.12876,2.114,-14.057)"
       y1="144.12"
       x1="28.739">
      <stop
         id="stop2374"
         style="stop-color:#fff"
         offset="0" />
      <stop
         id="stop2376"
         style="stop-color:#fff;stop-opacity:.37931"
         offset="1" />
    </linearGradient>
  </defs>
  <metadata
     id="metadata8865">
    <rdf:RDF>
      <cc:Work
         rdf:about="">
        <dc:format>image/svg+xml</dc:format>
        <dc:type
           rdf:resource="http://purl.org/dc/dcmitype/StillImage" />
        <dc:title />
      </cc:Work>
    </rdf:RDF>
  </metadata>
  <path
     d="m 1.010327,1.976667 0.01299,4.9999999 13.999999,0 0,-3.9999999 -6.7495844,0 -2.065922,-1 z"
     id="rect4170-0-9"
     style="color:#000000;display:inline;overflow:visible;visibility:visible;fill:url(#linearGradient4289);fill-opacity:1;fill-rule:nonzero;stroke:none;stroke-width:0.99992168;marker:none;enable-background:accumulate" />
  <path
     d="m 15.52332,3.9999999 0,-1.2733329 c 0,-0.1385 -0.1115,-0.25 -0.25,-0.25 l -6.7499994,0 c -0.495281,0 -1.723724,-0.96875 -2.25,-0.96875 l -5.5003206,0 c -0.1385,0 -0.25,0.1115 -0.25,0.25 l 3.2e-4,2.2420829"
     id="rect4170-1"
     style="color:#000000;display:inline;overflow:visible;visibility:visible;opacity:0.8;fill:none;stroke:url(#linearGradient4291);stroke-width:1;stroke-linecap:butt;stroke-linejoin:miter;stroke-miterlimit:4;stroke-dasharray:none;stroke-dashoffset:0;stroke-opacity:1;marker:none;enable-background:accumulate" />
  <path
     d="m 0.55988,4.453367 c 0.75732,0 14.39951,0.0316 14.98675,0.0316 0,0.6186 -0.0285,10.00962 -0.0624,10.00962 -5.26001,0.0178 -13.45265,-0.014 -14.98423,-0.014 0,-1.16748 0.0599,-7.62459 0.0599,-10.02721 z"
     id="rect3086"
     style="color:#000000;display:inline;overflow:visible;visibility:visible;fill:url(#linearGradient12481);fill-opacity:1;fill-rule:nonzero;stroke:none;stroke-width:1;marker:none;enable-background:accumulate;clip-rule:nonzero;opacity:1;isolation:auto;mix-blend-mode:normal;color-interpolation:sRGB;color-interpolation-filters:linearRGB;solid-color:#000000;solid-opacity:1;stroke-linecap:butt;stroke-linejoin:miter;stroke-miterlimit:4;stroke-dasharray:none;stroke-dashoffset:0;stroke-opacity:1;filter-blend-mode:normal;filter-gaussianBlur-deviation:0;color-rendering:auto;image-rendering:auto;shape-rendering:auto;text-rendering:auto" />
  <path
     d="M 1.57504,5.476667 14.52332,5.501767 14.5,13.5 1.52332,13.461217 Z"
     id="rect3086-9"
     style="color:#000000;display:inline;overflow:visible;visibility:visible;opacity:0.5;fill:none;stroke:url(#linearGradient10270-0);stroke-width:1;stroke-linecap:round;stroke-linejoin:miter;stroke-miterlimit:4;stroke-dasharray:none;stroke-dashoffset:0;stroke-opacity:1;marker:none;enable-background:accumulate" />
  <path
     d="m 0.55988,4.453367 14.98675,0.0316 -0.0624,10.00962 L 0.5,14.480587 Z"
     id="rect3086-0"
     style="color:#000000;display:inline;overflow:visible;visibility:visible;opacity:0.3;fill:none;stroke:#000000;stroke-width:1;stroke-linecap:round;stroke-linejoin:round;stroke-miterlimit:4;stroke-dasharray:none;stroke-dashoffset:0;stroke-opacity:1;marker:none;enable-background:accumulate" />
  <g
     id="layer1-9"
     transform="translate(4,4.4727154e-7)">
    <path
       id="path4031"
       style="fill:#4d4d4d;stroke:#333333;stroke-linecap:round;stroke-linejoin:round"
       d="M 9.6501,10.501 C 9.9362,3.9204 7.2293,4.3447 5,3.473 4.3776,3.7767 4.5175,4.7587 4.49,5.3261 l 0,5.5959 C 3.1782,10.675 1.5786,11.759 1.5092,13.475 1.396,14.544 2.3434,15.474 3.3737,15.499 5.2184,15.544 6.48,14.32 6.5,12.772 6.4799,10.173 6.5057,9.5721 6.5,6.9723 7.6463,7.655 9.1517,7.5231 9.6501,10.501 Z" />
    <path
       id="path2937"
       style="fill:url(#radialGradient2983)"
       d="m 5.9736,12.865 c -2e-4,0.998 -0.893,1.957 -1.9942,2.141 -1.1012,0.185 -1.994,-0.475 -1.9942,-1.473 2e-4,-0.998 0.893,-1.956 1.9942,-2.141 1.1012,-0.184 1.994,0.475 1.9942,1.473 z" />
    <path
       id="path2945"
       style="opacity:0.4;fill:url(#linearGradient2977);fill-rule:evenodd"
       d="M 5.0537,11.476 5,4.7939 c 0,0 0.024,-0.6551 0.1814,-0.6919 4.1937,0.6352 3.8398,3.725 3.8398,3.725 0,0 -0.3108,-2.3173 -3.2291,-3.027 C 5.2843,4.6765 5.5915,4.6697 5.5942,5.1596 5.6016,6.4812 5.5639,6.9556 5.5639,11.768 c 0,0.034 -0.3255,-0.244 -0.5102,-0.292 z" />
  </g>
</svg>
