<?xml version="1.0" encoding="UTF-8"?>
<!-- Created with Inkscape (http://www.inkscape.org/) -->
<svg id="svg4135" width="16" height="16" version="1.1" xmlns="http://www.w3.org/2000/svg" xmlns:xlink="http://www.w3.org/1999/xlink">
 <defs id="defs4137">
  <linearGradient id="linearGradient9796" x1="318.06" x2="321" y1="169" y2="185.24" gradientTransform="matrix(.75 0 0 .77778 75.125 78.667)" gradientUnits="userSpaceOnUse">
   <stop id="stop9730" style="stop-color:#babdb6" offset="0"/>
   <stop id="stop9732" style="stop-color:#555753" offset="1"/>
  </linearGradient>
  <linearGradient id="linearGradient9860" x1="313.5" x2="311.14" y1="182.35" y2="174.98" gradientTransform="matrix(.73333 0 0 .8 79.6 75.8)" gradientUnits="userSpaceOnUse">
   <stop id="stop9304" style="stop-color:#fff" offset="0"/>
   <stop id="stop9306" style="stop-color:#eeeeec" offset="1"/>
  </linearGradient>
  <linearGradient id="linearGradient9858" x1="304.54" x2="304.54" y1="218.95" y2="226.2" gradientUnits="userSpaceOnUse">
   <stop id="stop9854" style="stop-color:#fff" offset="0"/>
   <stop id="stop9856" style="stop-color:#fff;stop-opacity:0" offset="1"/>
  </linearGradient>
  <linearGradient id="linearGradient4300" x1="308.43" x2="308.43" y1="169.16" y2="171.16" gradientTransform="matrix(1 0 0 .75 0 41.875)" gradientUnits="userSpaceOnUse">
   <stop id="stop9392" style="stop-color:#d3d7cf" offset="0"/>
   <stop id="stop9394" style="stop-color:#eeeeec" offset="1"/>
  </linearGradient>
  <linearGradient id="linearGradient4302" x1="309.56" x2="309.56" y1="171.28" y2="167.34" gradientTransform="matrix(1 0 0 .75 0 41.875)" gradientUnits="userSpaceOnUse">
   <stop id="stop9608" style="stop-color:#555753" offset="0"/>
   <stop id="stop9610" style="stop-color:#d3d7cf" offset=".66795"/>
   <stop id="stop9612" style="stop-color:#888a85" offset="1"/>
  </linearGradient>
 </defs>
 <g id="layer1">
  <g id="g9840" transform="translate(-302,-209)" style="enable-background:new">
   <rect id="rect9736" x="303.5" y="210.5" width="12" height="14" rx=".79167" ry=".79167" style="enable-background:new;fill:#babdb6;stroke:url(#linearGradient9796)"/>
   <rect id="rect9738" x="304" y="211" width="11" height="12" rx="0" ry="0" style="enable-background:new;fill:url(#linearGradient9860)"/>
   <rect id="rect9740" x="303" y="224" width="13" height="1" rx="0" ry="0" style="enable-background:new;fill:#2e3436"/>
   <rect id="rect9742" x="304.5" y="211.5" width="10" height="12" rx="0" ry="0" style="enable-background:new;fill:none;opacity:.5;stroke:url(#linearGradient9858)"/>
   <path id="path9862" d="m306.5 211c-0.828 0-1.5 0.672-1.5 1.5 0 0.828 0.67201 1.5 1.5 1.5 0.38234 0 0.73499-0.13923 1-0.375 0.26501 0.23577 0.61766 0.375 1 0.375s0.73499-0.13923 1-0.375c0.26501 0.23577 0.61766 0.375 1 0.375s0.73499-0.13923 1-0.375c0.26501 0.23577 0.61766 0.375 1 0.375 0.828 0 1.5-0.672 1.5-1.5 0-0.828-0.67199-1.5-1.5-1.5-0.38234 0-0.73499 0.13923-1 0.375-0.26501-0.23577-0.61766-0.375-1-0.375s-0.73499 0.13923-1 0.375c-0.26501-0.23577-0.61766-0.375-1-0.375s-0.73499 0.13923-1 0.375c-0.26501-0.23577-0.61766-0.375-1-0.375z" style="enable-background:new;opacity:.1"/>
   <g id="g9746" transform="translate(-2,42)" style="enable-background:new">
    <rect id="rect9748" x="307.5" y="167.5" width="2" height="3" rx="1" ry="1" style="fill:url(#linearGradient4300);stroke-linejoin:round;stroke:url(#linearGradient4302)"/>
    <rect id="rect9750" x="307.5" y="167.69" width="1.3438" height="1.3438" rx="1.5926" ry="1.3438" style="fill:#fff"/>
   </g>
   <use id="use9834" transform="translate(2)" width="400" height="300" xlink:href="#g9746"/>
   <use id="use9836" transform="translate(4)" width="400" height="300" style="enable-background:new" xlink:href="#g9746"/>
   <use id="use9838" transform="translate(6)" width="400" height="300" style="enable-background:new" xlink:href="#g9746"/>
  </g>
  <g id="g9871" transform="translate(-302,-209)" style="enable-background:new">
   <rect id="rect9762" x="306" y="215" width="1" height="1" rx="0" ry="0" style="enable-background:new;fill:#888a85;opacity:.48"/>
   <rect id="rect9764" x="308" y="215" width="4" height="1" rx="0" ry="0" style="enable-background:new;fill:#888a85;opacity:.48"/>
   <rect id="rect9766" x="308" y="221" width="4" height="1" rx="0" ry="0" style="enable-background:new;fill:#888a85;opacity:.48"/>
   <rect id="rect9770" x="306" y="217" width="1" height="1" rx="0" ry="0" style="enable-background:new;fill:#888a85;opacity:.48"/>
   <rect id="rect9772" x="308" y="217" width="4" height="1" rx="0" ry="0" style="enable-background:new;fill:#888a85;opacity:.48"/>
   <rect id="rect9776" x="306" y="219" width="1" height="1" rx="0" ry="0" style="enable-background:new;fill:#888a85;opacity:.48"/>
   <rect id="rect9780" x="308" y="219" width="5.0001" height="1.0002" rx="0" ry="0" style="enable-background:new;fill:#888a85;opacity:.48"/>
   <rect id="rect9784" x="306" y="221" width="1" height="1" rx="0" ry="0" style="enable-background:new;fill:#888a85;opacity:.48"/>
  </g>
 </g>
</svg>
