<?xml version="1.0" encoding="UTF-8"?>
<!-- Created with Inkscape (http://www.inkscape.org/) -->
<svg id="svg2" width="24" height="24" version="1.0" xmlns="http://www.w3.org/2000/svg" xmlns:cc="http://creativecommons.org/ns#" xmlns:dc="http://purl.org/dc/elements/1.1/" xmlns:rdf="http://www.w3.org/1999/02/22-rdf-syntax-ns#" xmlns:xlink="http://www.w3.org/1999/xlink">
 <metadata id="metadata15">
  <rdf:RDF>
   <cc:Work rdf:about="">
    <dc:format>image/svg+xml</dc:format>
    <dc:type rdf:resource="http://purl.org/dc/dcmitype/StillImage"/>
   </cc:Work>
  </rdf:RDF>
 </metadata>
 <defs id="defs4">
  <linearGradient id="linearGradient3161" x1="35.008" x2="35.008" y1="23.179" y2="4.9946" gradientTransform="translate(-24.786 -2.0357)" gradientUnits="userSpaceOnUse">
   <stop id="stop3589-9-2" offset="0"/>
   <stop id="stop3591-7-4" style="stop-color:#363636" offset="1"/>
  </linearGradient>
 </defs>
 <path id="path3229" d="m12 5c-4.416 0-8 3.584-8 8 0 4.416 3.584 8 8 8 4.416 0 8-3.584 8-8 0-4.416-3.584-8-8-8zm0 5c1.656 0 3 1.344 3 3s-1.344 3-3 3-3-1.344-3-3c1e-7 -1.656 1.344-3 3-3z" style="fill-rule:evenodd;fill:#fff;opacity:.6"/>
 <path id="path3170" d="m12 4c-4.416 0-8 3.584-8 8 0 4.416 3.584 8 8 8 4.416 0 8-3.584 8-8 0-4.416-3.584-8-8-8zm0 5c1.656 1e-7 3 1.344 3 3s-1.344 3-3 3-3-1.344-3-3c1e-7 -1.656 1.344-3 3-3z" style="fill-rule:evenodd;fill:url(#linearGradient3161);opacity:.42"/>
</svg>
