<?xml version="1.0" encoding="UTF-8"?>
<!-- Created with Inkscape (http://www.inkscape.org/) -->
<svg id="svg3041" width="128" height="128" version="1.1" xmlns="http://www.w3.org/2000/svg" xmlns:cc="http://creativecommons.org/ns#" xmlns:dc="http://purl.org/dc/elements/1.1/" xmlns:rdf="http://www.w3.org/1999/02/22-rdf-syntax-ns#" xmlns:xlink="http://www.w3.org/1999/xlink">
 <defs id="defs3043">
  <linearGradient id="linearGradient2986" x1="63.397" x2="63.397" y1="-12.489" y2="5.4676" gradientTransform="matrix(4.2307 0 0 -4.2307 -198.64 -15.402)" gradientUnits="userSpaceOnUse">
   <stop id="stop4875-7-7" style="stop-color:#fff" offset="0"/>
   <stop id="stop4877-6-7" style="stop-color:#fff;stop-opacity:0" offset="1"/>
  </linearGradient>
  <linearGradient id="linearGradient2989" x1="24.481" x2="24.481" y1="5.0809" y2="45.074" gradientTransform="matrix(2.6667 0 0 2.6667 .96819 -68.217)" gradientUnits="userSpaceOnUse">
   <stop id="stop3783" style="stop-color:#fff" offset="0"/>
   <stop id="stop3785" style="stop-color:#fff;stop-opacity:0" offset="1"/>
  </linearGradient>
  <linearGradient id="linearGradient2407" x1="63.397" x2="63.397" y1="-12.489" y2="5.4676" gradientTransform="matrix(5.6434 0 0 5.6429 -286.51 19.309)" gradientUnits="userSpaceOnUse">
   <stop id="stop4875" style="stop-color:#fff" offset="0"/>
   <stop id="stop4877" style="stop-color:#fff;stop-opacity:0" offset="1"/>
  </linearGradient>
  <radialGradient id="radialGradient2980" cx="23.896" cy="3.99" r="20.397" gradientTransform="matrix(0 6.1021 -8.0553 0 96.659 -202.26)" gradientUnits="userSpaceOnUse">
   <stop id="stop3244" style="stop-color:#f8b17e" offset="0"/>
   <stop id="stop3246" style="stop-color:#e35d4f" offset=".26238"/>
   <stop id="stop3248" style="stop-color:#c6262e" offset=".66094"/>
   <stop id="stop3250" style="stop-color:#690b54" offset="1"/>
  </radialGradient>
  <linearGradient id="linearGradient2982" x1="18.379" x2="18.379" y1="44.98" y2="3.0816" gradientTransform="matrix(2.5569 0 0 2.5568 3.1524 -61.865)" gradientUnits="userSpaceOnUse">
   <stop id="stop2492" style="stop-color:#791235" offset="0"/>
   <stop id="stop2494" style="stop-color:#dd3b27" offset="1"/>
  </linearGradient>
  <radialGradient id="radialGradient3039" cx="62.625" cy="4.625" r="10.625" gradientTransform="matrix(5.1765 0 0 1.8004 -260.18 33.544)" gradientUnits="userSpaceOnUse">
   <stop id="stop8840" offset="0"/>
   <stop id="stop8842" style="stop-opacity:0" offset="1"/>
  </radialGradient>
 </defs>
 <metadata id="metadata3046">
  <rdf:RDF>
   <cc:Work rdf:about="">
    <dc:format>image/svg+xml</dc:format>
    <dc:type rdf:resource="http://purl.org/dc/dcmitype/StillImage"/>
   </cc:Work>
  </rdf:RDF>
 </metadata>
 <g id="layer1" transform="translate(0,64)">
  <path id="path8836" d="m119 41.871c0 10.565-24.624 19.129-55 19.129-30.376 0-55-8.5644-55-19.129 0-10.565 24.624-19.129 55-19.129 30.376 0 55 8.5644 55 19.129z" style="fill-rule:evenodd;fill:url(#radialGradient3039);opacity:.5"/>
  <path id="path2555" d="m64.531-52.531c-28.702 0-52.031 23.332-52.031 52.031 0 28.7 23.33 52 52.031 52 28.702 0 52-23.3 52-52 0-28.7-23.298-52.031-52-52.031zm-0.03125 16.031c19.882 0 36 16.118 36 36 0 8.3633-2.8719 16.045-7.6562 22.156l-46.062-53.469c5.2353-2.9699 11.27-4.6875 17.719-4.6875zm-28.312 13.781 46.062 53.531c-5.2407 2.9782-11.291 4.6875-17.75 4.6875-19.882 0-36-16.118-36-36 0-8.3878 2.8778-16.098 7.6875-22.219z" style="fill:url(#radialGradient2980);stroke-linecap:round;stroke-linejoin:round;stroke-width:.99915;stroke:url(#linearGradient2982)"/>
  <path id="path8655" d="m115.5-0.504c0 27.257-22.3 51.241-50.98 51.004-29.513-0.24532-50.674-23.749-51.02-51.004-0.35612-28.087 23.287-51.115 51.02-50.996 27.255 0.11666 50.98 21.96 50.98 50.996z" style="fill:none;opacity:.4;stroke-width:.99915;stroke:url(#linearGradient2407)"/>
  <path id="path3270" d="m45.881-31.076 45.925 52.914" style="fill:none;opacity:.4;stroke-linecap:round;stroke-width:1px;stroke:url(#linearGradient2989)"/>
  <path id="path8655-9-6" d="m36.082-24.225c-5.3488 6.4164-8.5666 14.671-8.5666 23.678 0 20.434 16.566 36.999 37 36.999 6.7841 0 13.142-1.826 18.609-5.0134m9.988-8.5072c5.2504-6.3873 8.4027-14.565 8.4027-23.478 0-20.435-16.567-37.001-37-37.001" style="fill:none;opacity:.2;stroke:url(#linearGradient2986)"/>
 </g>
</svg>
