<?xml version="1.0" encoding="UTF-8"?>
<!-- Created with Inkscape (http://www.inkscape.org/) -->
<svg id="svg9903" width="64" height="64" version="1.0" xmlns="http://www.w3.org/2000/svg" xmlns:xlink="http://www.w3.org/1999/xlink">
 <defs id="defs9905">
  <linearGradient id="linearGradient2884" x1="11.566" x2="15.215" y1="22.292" y2="33.955" gradientTransform="matrix(1.3408 0 0 1.33 -.37331 -1.31)" gradientUnits="userSpaceOnUse">
   <stop id="stop2687" style="stop-color:#fff;stop-opacity:.27451" offset="0"/>
   <stop id="stop2689" style="stop-color:#fff;stop-opacity:.078431" offset="1"/>
  </linearGradient>
  <radialGradient id="radialGradient2887" cx="7.2647" cy="8.3021" r="20.98" gradientTransform="matrix(0 1.6066 -2.1817 0 34.686 9.2848)" gradientUnits="userSpaceOnUse">
   <stop id="stop2693" style="stop-color:#fff;stop-opacity:.4" offset="0"/>
   <stop id="stop2695" style="stop-color:#fff;stop-opacity:0" offset="1"/>
  </radialGradient>
  <linearGradient id="linearGradient2890" x1="22.935" x2="22.809" y1="49.629" y2="36.658" gradientTransform="matrix(1.5348 0 0 1.327 -5.0206 -.048542)" gradientUnits="userSpaceOnUse">
   <stop id="stop2661" style="stop-color:#0a0a0a;stop-opacity:.498" offset="0"/>
   <stop id="stop2663" style="stop-color:#0a0a0a;stop-opacity:0" offset="1"/>
  </linearGradient>
  <linearGradient id="linearGradient2895" x1="82.453" x2="65.34" y1="45.114" y2="15.944" gradientTransform="matrix(1.3408 0 0 1.3265 -72.463 -1.6032)" gradientUnits="userSpaceOnUse">
   <stop id="stop3624-5" style="stop-color:#bb2b12" offset="0"/>
   <stop id="stop3626-7" style="stop-color:#cd7233" offset="1"/>
  </linearGradient>
  <radialGradient id="radialGradient2893" cx="63.969" cy="14.113" r="23.097" gradientTransform="matrix(2.0979 -1.262e-7 8.2824e-8 1.3475 -115.97 9.3537)" gradientUnits="userSpaceOnUse">
   <stop id="stop3618-2" style="stop-color:#edb763" offset="0"/>
   <stop id="stop2559" style="stop-color:#de7f32" offset=".5"/>
   <stop id="stop3620-1" style="stop-color:#d24413" offset="1"/>
  </radialGradient>
  <radialGradient id="radialGradient2880" cx="605.71" cy="486.65" r="117.14" gradientTransform="matrix(-.03213 0 0 .037059 23.363 25.412)" gradientUnits="userSpaceOnUse">
   <stop id="stop2681" offset="0"/>
   <stop id="stop2683" style="stop-opacity:0" offset="1"/>
  </radialGradient>
  <radialGradient id="radialGradient2878" cx="605.71" cy="486.65" r="117.14" gradientTransform="matrix(.03213 0 0 .037059 24.637 25.412)" gradientUnits="userSpaceOnUse">
   <stop id="stop2675" offset="0"/>
   <stop id="stop2677" style="stop-opacity:0" offset="1"/>
  </radialGradient>
  <linearGradient id="linearGradient2876" x1="302.86" x2="302.86" y1="366.65" y2="609.51" gradientTransform="matrix(.08284 0 0 .037059 -5.9408 25.412)" gradientUnits="userSpaceOnUse">
   <stop id="stop2667" style="stop-opacity:0" offset="0"/>
   <stop id="stop2669" offset=".5"/>
   <stop id="stop2671" style="stop-opacity:0" offset="1"/>
  </linearGradient>
  <radialGradient id="radialGradient2904" cx="3" cy="5.0172" r="21" gradientTransform="matrix(-1.7093e-8 2.28 -2.8952 -1.9417e-8 16.801 2.2898)" gradientUnits="userSpaceOnUse">
   <stop id="stop3486" style="stop-color:#bdbdbd" offset="0"/>
   <stop id="stop3488" style="stop-color:#d0d0d0" offset="1"/>
  </radialGradient>
  <linearGradient id="linearGradient2902" x1="62.989" x2="62.989" y1="13.183" y2="16.19" gradientTransform="matrix(1.3408 0 0 1.33 -68.673 -1.51)" gradientUnits="userSpaceOnUse">
   <stop id="stop6406" style="stop-color:#f9f9f9" offset="0"/>
   <stop id="stop6408" style="stop-color:#c9c9c9" offset="1"/>
  </linearGradient>
  <radialGradient id="radialGradient3016" cx="32" cy="41.5" r="21" gradientTransform="matrix(.82333 0 0 .25333 14.201 45.662)" gradientUnits="userSpaceOnUse" xlink:href="#linearGradient5060"/>
  <linearGradient id="linearGradient3090" x1="30.491" x2="30" y1="6.4785" y2="45" gradientTransform="matrix(1.0344 0 0 1.0133 10.254 14.407)" gradientUnits="userSpaceOnUse" xlink:href="#linearGradient3785"/>
  <radialGradient id="radialGradient3088" cx="29.184" cy="19.226" r="16" gradientTransform="matrix(1.2469 -2.1463e-8 0 .37824 5.4065 34.98)" gradientUnits="userSpaceOnUse" xlink:href="#linearGradient6954"/>
  <linearGradient id="linearGradient3092" x1="29.286" x2="29.286" y1="14.969" y2="45.156" gradientTransform="matrix(1.062 0 0 1.0127 9.5254 14.426)" gradientUnits="userSpaceOnUse" xlink:href="#linearGradient3341"/>
  <linearGradient id="linearGradient3785">
   <stop id="stop3787" style="stop-color:#bdbdbd" offset="0"/>
   <stop id="stop3789" style="stop-color:#8c8c8c" offset="1"/>
  </linearGradient>
  <linearGradient id="linearGradient3096" x1="30" x2="30.656" y1="5" y2="49.206" gradientTransform="matrix(.88667 0 0 .91387 14.613 15.904)" gradientUnits="userSpaceOnUse" xlink:href="#linearGradient3785"/>
  <linearGradient id="linearGradient6954">
   <stop id="stop6960" style="stop-color:#f5f5f5" offset="0"/>
   <stop id="stop6962" style="stop-color:#d2d2d2" offset="1"/>
  </linearGradient>
  <radialGradient id="radialGradient3094" cx="26.376" cy="12.313" r="8" gradientTransform="matrix(1.4543 -.12116 .11359 1.4484 -1.6987 11.127)" gradientUnits="userSpaceOnUse" xlink:href="#linearGradient6954"/>
  <linearGradient id="linearGradient3098" x1="22" x2="17" y1="39" y2="37.438" gradientTransform="matrix(1.0344 0 0 1.0133 10.859 14.394)" gradientUnits="userSpaceOnUse" xlink:href="#linearGradient5060"/>
  <radialGradient id="radialGradient3100" cx="30" cy="33.188" r="4.6875" gradientTransform="matrix(1.5174 -6.2641e-7 2.1161e-7 .40863 -4.3084 30.643)" gradientUnits="userSpaceOnUse" xlink:href="#linearGradient5060"/>
  <linearGradient id="linearGradient3341">
   <stop id="stop3343" style="stop-color:#fff" offset="0"/>
   <stop id="stop3345" style="stop-color:#fff;stop-opacity:0" offset="1"/>
  </linearGradient>
  <linearGradient id="linearGradient3102" x1="29.25" x2="29.25" y1="-1.049" y2="29.513" gradientTransform="matrix(.92505 0 0 .94002 13.411 15.541)" gradientUnits="userSpaceOnUse" xlink:href="#linearGradient3341"/>
  <linearGradient id="linearGradient5060">
   <stop id="stop5062" offset="0"/>
   <stop id="stop5064" style="stop-opacity:0" offset="1"/>
  </linearGradient>
  <linearGradient id="linearGradient3878" x1="22" x2="17" y1="39" y2="37.438" gradientTransform="matrix(-1.0344 0 0 1.0133 71.35 14.322)" gradientUnits="userSpaceOnUse" xlink:href="#linearGradient5060"/>
 </defs>
 <g id="layer1">
  <g id="g9977">
   <path id="path2856" d="m5.2811 9.6095c-0.9255 0.010201-1.6448 0.65505-1.6448 1.53 0 7.3342 0.043023 12.954 0 19.618 1.9246 0 56.896-4.9352 56.896-7.0532v-8.5805c0-0.87494-0.64331-1.54-1.5688-1.5298h-27.158c-2.7452 0-4.6912-3.999-6.7039-3.999l-19.82 0.014506z" style="fill:url(#linearGradient2902);stroke-linecap:round;stroke-linejoin:round;stroke:url(#radialGradient2904)"/>
   <g id="g2858" transform="matrix(1.2849 0 0 .88667 .96746 18.44)" style="opacity:.4">
    <rect id="rect2860" x="4" y="39" width="40.7" height="9" style="fill:url(#linearGradient2876)"/>
    <path id="path2862" d="m44.7 39v8.9995c1.6546 0.01694 4-2.0163 4-4.5003 0-2.484-1.8464-4.4992-4-4.4992z" style="fill:url(#radialGradient2878)"/>
    <path id="path2864" d="m4 39v8.9995c-1.6546 0.016941-4-2.0163-4-4.5003 0-2.484 1.8464-4.4992 4-4.4992z" style="fill:url(#radialGradient2880)"/>
   </g>
   <path id="path2866" d="m2.5259 20.468c-1.4383 0.16407-0.86993 1.8599-0.9846 2.8134 0.52631 11.235 1.2576 22.244 1.7807 33.479 0.45833 1.281 2.1378 0.62498 3.202 0.78758h53.07c1.4606-0.14147 0.85337-1.8672 1.0588-2.8549 0.52632-11.235 1.258-22.244 1.7811-33.479-0.33677-1.2658-2.2376-0.56244-3.2346-0.74613h-56.673v0z" style="fill:url(#radialGradient2893);stroke-linecap:round;stroke-linejoin:round;stroke-width:.99868;stroke:url(#linearGradient2895)"/>
   <path id="path2868" d="m2.3863 19.857 58.855 5.36e-4c0.85026 0 1.4013 0.59133 1.4013 1.3265l-1.6682 35.829c0 0.73516-0.68451 1.327-1.5348 1.327h-55.252c-0.85026 0-1.5348-0.59185-1.5348-1.327l-1.6682-35.829c0-0.73517 0.55105-1.327 1.4013-1.327z" style="fill:url(#linearGradient2890);opacity:.4"/>
   <path id="path2870" d="m61.673 21.565h-58.994c0.321 10.435 1.0335 21.751 1.5503 32.627" style="fill:none;stroke-linecap:round;stroke-linejoin:round;stroke:url(#radialGradient2887)"/>
   <path id="path2872" d="m60.967 19.97c-19.508 0.097556-39.023-0.028129-58.533 0-2.4225 0.54679-1.1187 3.2806-1.3038 5.0161 0.29769 5.5373 0.43316 11.099 0.8319 16.621 20.112-3.1425 40.125-6.1276 59.885-9.376 1.0471-3.4401 1.0557-7.5419 0.88137-11.211-0.30722-0.67107-1.0552-1.0651-1.7612-1.0501z" style="fill:url(#linearGradient2884)"/>
   <rect id="rect2874" x="6" y="12" width="19" height="2.1212" rx="1.3408" ry=".99632" style="display:block;fill:#eda374"/>
  </g>
  <path id="path3823-4" d="m57.838 56.175c0 2.9382-7.741 5.32-17.29 5.32s-17.29-2.3818-17.29-5.32 7.741-5.32 17.29-5.32 17.29 2.3818 17.29 5.32z" style="fill:url(#radialGradient3016);opacity:.7"/>
  <path id="path3766-9" d="m36.632 35.18c0.47607 2.2058 0.74179 3.8742 0.35559 6.08-3.011 2.4471-10.712 3.5467-10.7 6.08l-1.0344 7.6c0 2.5184 7.1786 4.56 16.034 4.56s16.034-2.0416 16.034-4.56l-1.0344-7.6c-0.01224-2.1682-7.7583-3.5467-10.732-6.08-0.25403-2.0473-0.05182-4.0327 0.38792-6.08h-9.31z" style="fill:url(#radialGradient3088);stroke:url(#linearGradient3090)"/>
  <path id="path4244" d="m38.153 36.481c0.27608 1.6136 0.45519 3.1655 0.12801 4.9845-0.053022 0.30976-0.21982 0.59022-0.46938 0.78922-1.9006 1.5036-4.6907 2.3232-6.998 3.1984-1.1536 0.43761-2.1897 0.89218-2.8163 1.2877-0.62654 0.39548-0.68262 0.60363-0.68273 0.58153 0.003652 0.055325 0.003652 0.11082 0 0.16615l-1.0668 7.4353c0 0.01303 0.07745 0.28163 0.7254 0.70614 0.64793 0.42452 1.7526 0.89761 3.1576 1.2877 2.81 0.78012 6.8222 1.2877 11.265 1.2877 4.4428 0 8.455-0.50755 11.265-1.2877 1.405-0.39006 2.5097-0.86316 3.1576-1.2877 0.64793-0.42451 0.7254-0.69307 0.7254-0.70614l-1.0668-7.4353c-0.002054-0.041514-0.002054-0.083101 0-0.12462 0.01035 0.03016 0.0096 0.09959-0.04268 0.04156-0.0874-0.09677-0.31041-0.30337-0.64005-0.49845-0.6593-0.39016-1.6848-0.82942-2.8589-1.2877-2.3482-0.91651-5.168-1.8117-7.0406-3.3646-0.25868-0.20923-0.42638-0.50605-0.46938-0.83076-0.21655-1.6989 0.07691-3.3267 0.34136-4.943h-6.6139l7e-6 -2.2e-5z" style="fill:none;opacity:.4;stroke:url(#linearGradient3092)"/>
  <path id="path3764-4" d="m41.213 20.93c-3.6727 0-6.65 2.8641-6.65 6.3971 0.02878 1.3075 0.13705 2.8608 0.88667 6.3971 0.44334 1.3708 4.3977 5.2918 4.4334 5.7487 0.85978 0.45693 2.2167 0.45693 3.1034 0 0-0.45693 3.5467-4.3779 3.99-5.7487 0.84356-3.6753 0.84143-5.0263 0.88667-6.3971 0-3.533-2.9773-6.3971-6.65-6.3971z" style="fill:url(#radialGradient3094);stroke:url(#linearGradient3096)"/>
  <path id="path3848-2" d="m32.583 58.17c-2.4437-2.0086-1.2784-6.468-1.0344-9.3227-1.0344 2.0267-1.0344 8.1067-3.1033 8.1067 1.4095 0.46467 2.8443 0.97866 4.1378 1.216z" style="fill:url(#linearGradient3098);opacity:.4"/>
  <path id="path3833-8" d="m36.558 41.545c0.68154 1.547 2.5014 2.66 4.655 2.66s3.9735-1.113 4.655-2.66h-9.31z" style="fill:url(#radialGradient3100);opacity:.2"/>
  <path id="path4234" d="m41.162 22.036c-3.1266 0-5.5691 2.335-5.5936 5.2157-1.23e-4 0.01447 0 0.02826 0 0.04276 0.02926 1.2811 0.12975 2.7841 0.86723 6.2418 0.02121 0.03267 0.24912 0.46814 0.65042 0.9833 0.42157 0.54118 0.97559 1.1831 1.5177 1.7956 0.54207 0.61244 1.0983 1.2233 1.5177 1.7101 0.19433 0.22557 0.33181 0.40747 0.47698 0.59853 0.41365 0.12211 1.0985 0.12321 1.561 0 0.11811-0.17388 0.23811-0.356 0.39026-0.55578 0.37366-0.49064 0.85752-1.0961 1.3442-1.7101 0.48669-0.61399 0.95911-1.2511 1.3442-1.7956 0.35624-0.50373 0.60289-0.8818 0.65042-0.9833 0.0055-0.02458-0.0055-0.0184 0-0.04276 0.84021-3.6265 0.82042-4.8159 0.86723-6.2418 0-0.01447 1.25e-4 -0.02829 0-0.04276-0.02449-2.8807-2.4671-5.2157-5.5936-5.2157v9e-6z" style="fill:none;opacity:.4;stroke-width:1.0142;stroke:url(#linearGradient3102)"/>
  <path id="path3876" d="m49.627 58.098c2.4437-2.0086 1.2784-6.468 1.0344-9.3227 1.0344 2.0267 1.0344 8.1067 3.1033 8.1067-1.4095 0.46467-2.8443 0.97867-4.1378 1.216z" style="fill:url(#linearGradient3878);opacity:.4"/>
 </g>
</svg>
