<?xml version="1.0" encoding="UTF-8"?>
<!-- Created with Inkscape (http://www.inkscape.org/) -->
<svg id="svg2605" width="64" height="64" version="1.0" xmlns="http://www.w3.org/2000/svg" xmlns:xlink="http://www.w3.org/1999/xlink">
 <defs id="defs2607">
  <radialGradient id="radialGradient2788" cx="3" cy="5.0172" r="21" gradientTransform="matrix(-1.2749e-8 1.7143 -2.1593 -1.46e-8 12.809 2.857)" gradientUnits="userSpaceOnUse">
   <stop id="stop3486" style="stop-color:#bdbdbd" offset="0"/>
   <stop id="stop3488" style="stop-color:#d0d0d0" offset="1"/>
  </radialGradient>
  <linearGradient id="linearGradient2786" x1="62.989" x2="62.989" y1="18" y2="21.008" gradientTransform="translate(-50.941)" gradientUnits="userSpaceOnUse">
   <stop id="stop6406" style="stop-color:#f9f9f9" offset="0"/>
   <stop id="stop6408" style="stop-color:#c9c9c9" offset="1"/>
  </linearGradient>
  <radialGradient id="radialGradient7600-312" cx="605.71" cy="486.65" r="117.14" gradientTransform="matrix(-.03213 0 0 .037059 23.363 25.412)" gradientUnits="userSpaceOnUse">
   <stop id="stop2681" offset="0"/>
   <stop id="stop2683" style="stop-opacity:0" offset="1"/>
  </radialGradient>
  <radialGradient id="radialGradient7598-526" cx="605.71" cy="486.65" r="117.14" gradientTransform="matrix(.03213 0 0 .037059 24.637 25.412)" gradientUnits="userSpaceOnUse">
   <stop id="stop2675" offset="0"/>
   <stop id="stop2677" style="stop-opacity:0" offset="1"/>
  </radialGradient>
  <linearGradient id="linearGradient7596-975" x1="302.86" x2="302.86" y1="366.65" y2="609.51" gradientTransform="matrix(.08284 0 0 .037059 -5.9408 25.412)" gradientUnits="userSpaceOnUse">
   <stop id="stop2667" style="stop-opacity:0" offset="0"/>
   <stop id="stop2669" offset=".5"/>
   <stop id="stop2671" style="stop-opacity:0" offset="1"/>
  </linearGradient>
  <radialGradient id="radialGradient2603" cx="7.2647" cy="8.3021" r="20.98" gradientTransform="matrix(0 .98627 -1.6272 0 -25.127 13.676)" gradientUnits="userSpaceOnUse">
   <stop id="stop4655" style="stop-color:#fff" offset="0"/>
   <stop id="stop4657" style="stop-color:#fff;stop-opacity:0" offset="1"/>
  </radialGradient>
  <linearGradient id="linearGradient2601" x1="13.08" x2="16.362" y1="20.73" y2="32.979" gradientTransform="matrix(1.1447 0 0 .80409 -54.965 8.5078)" gradientUnits="userSpaceOnUse">
   <stop id="stop4667" style="stop-color:#fff" offset="0"/>
   <stop id="stop4669" style="stop-color:#fff;stop-opacity:0" offset="1"/>
  </linearGradient>
  <linearGradient id="linearGradient2599" x1="22.935" x2="22.809" y1="49.629" y2="36.658" gradientTransform="matrix(1.1447 0 0 .81463 -54.965 7.7486)" gradientUnits="userSpaceOnUse">
   <stop id="stop4661" style="stop-opacity:.498" offset="0"/>
   <stop id="stop4663" style="stop-opacity:0" offset="1"/>
  </linearGradient>
  <linearGradient id="linearGradient2597" x1="34.954" x2="25.474" y1="45.114" y2="20.981" gradientTransform="translate(-51.502 -1.3368)" gradientUnits="userSpaceOnUse">
   <stop id="stop3624-5" style="stop-color:#bb2b12" offset="0"/>
   <stop id="stop3626-7" style="stop-color:#cd7233" offset="1"/>
  </linearGradient>
  <radialGradient id="radialGradient2595" cx="13.857" cy="19.544" r="24.097" gradientTransform="matrix(1.488 0 0 .79126 -58.265 9.4843)" gradientUnits="userSpaceOnUse">
   <stop id="stop3618-2" style="stop-color:#edb763" offset="0"/>
   <stop id="stop3270" style="stop-color:#de7f32" offset=".5"/>
   <stop id="stop3620-1" style="stop-color:#d24413" offset="1"/>
  </radialGradient>
 </defs>
 <g id="layer1" transform="matrix(1.33 0 0 1.33 .12948 -1.51)">
  <path id="path3468" d="m3.5062 8.3496c-0.69027 0.00767-1.0004 0.49252-1.0004 1.1504 0 5.5145 0.026278 9.7396-0.00581 14.75 1.4355 0 42.876 0.3421 42.876-1.2504l0.04887-10.493c0-0.65785-0.47938-1.1579-1.1697-1.1503h-20.256c-2.0475 0-3.4989-3.0068-5-3.0068h-15.494z" style="fill:url(#linearGradient2786);stroke-linecap:round;stroke-linejoin:round;stroke-width:.75188;stroke:url(#radialGradient2788)"/>
  <g id="g7591" transform="matrix(.95833 0 0 .66667 1 15)" style="opacity:.4">
   <rect id="rect4173" x="4" y="39" width="40" height="9" style="fill:url(#linearGradient7596-975)"/>
   <path id="path5058" d="m44 39v8.9995c1.6546 0.01694 4-2.0163 4-4.5003 0-2.484-1.8464-4.4992-4-4.4992z" style="fill:url(#radialGradient7598-526)"/>
   <path id="path5018" d="m4 39v8.9995c-1.6546 0.016941-4-2.0163-4-4.5003 0-2.484 1.8464-4.4992 4-4.4992z" style="fill:url(#radialGradient7600-312)"/>
  </g>
  <rect id="rect3562" x="4.4139" y="10.158" width="14.286" height="1.5038" rx="1" ry=".75188" style="display:block;fill:#eda374"/>
  <g id="g2629" transform="translate(51.502 1.2227)">
   <path id="path7314" d="m-50.437 20.689c-1.0727 0.10099-0.49947 0.75299-0.585 1.3399 0.30046 1.217 1.9764 19.434 2.1792 20.747 0.34184 0.78845 1.5944 0.38468 2.3881 0.48478h39.581c1.0894-0.08708 0.63646-1.1493 0.7897-1.7572 0.062067-0.88455 1.7066-14.213 2.1793-20.22-0.25117-0.77914-1.4877-0.59398-2.263-0.59398h-44.269z" style="fill:url(#radialGradient2595);stroke-linecap:round;stroke-linejoin:round;stroke-width:.75188;stroke:url(#linearGradient2597)"/>
   <path id="path2541" d="m-50.441 19.968 45.897 3.3e-4c0.63416 0 1.045 0.36301 1.045 0.81431l-2.2444 21.995c0 0.4513-0.51053 0.81463-1.1447 0.81463h-41.209c-0.63416 0-1.1447-0.36332-1.1447-0.81463l-2.2443-21.995c0-0.45131 0.41084-0.81463 1.045-0.81463z" style="fill:url(#linearGradient2599);opacity:.4"/>
   <path id="path8263" d="m-50.441 20.264h45.897c0.63416 0 1.045 0.66391 1.045 1.1094l-0.46 6.0029-46.843 5.8285-0.684-11.832c0-0.44547 0.41084-1.109 1.045-1.109z" style="fill:url(#linearGradient2601);opacity:.3"/>
   <path id="path2544" d="m-4.698 21.313h-45.677c0.22018 0.89316 2.3031 19.615 2.6059 21.086" style="fill:none;opacity:.4;stroke-linecap:round;stroke-linejoin:round;stroke-width:.75188;stroke:url(#radialGradient2603)"/>
  </g>
 </g>
</svg>
