<?xml version="1.0" encoding="UTF-8"?>
<!-- Created with Inkscape (http://www.inkscape.org/) -->
<svg id="svg249" width="24" height="24" version="1.0" xmlns="http://www.w3.org/2000/svg" xmlns:xlink="http://www.w3.org/1999/xlink">
 <defs id="defs3">
  <radialGradient id="radialGradient3504-701" cx="9.375" cy="9.375" r="9.375" gradientUnits="userSpaceOnUse">
   <stop id="stop2847" style="stop-color:#979797;stop-opacity:0" offset="0"/>
   <stop id="stop2849" style="stop-color:#979797;stop-opacity:0" offset=".85"/>
   <stop id="stop2851" style="stop-color:#979797" offset="1"/>
  </radialGradient>
  <linearGradient id="linearGradient3510-693" x1="28.976" x2="29" y1="31.07" y2="40.005" gradientTransform="translate(-1,-1)" gradientUnits="userSpaceOnUse">
   <stop id="stop2871" style="stop-color:#3d3d3d" offset="0"/>
   <stop id="stop2873" style="stop-color:#646464" offset="1"/>
  </linearGradient>
  <linearGradient id="linearGradient4624-152" x1="28.976" x2="29" y1="31.07" y2="40.005" gradientTransform="translate(-335.21 -143.62)" gradientUnits="userSpaceOnUse">
   <stop id="stop2877" style="stop-color:#3d3d3d" offset="0"/>
   <stop id="stop2879" style="stop-color:#646464" offset="1"/>
  </linearGradient>
  <linearGradient id="linearGradient3514-427" x1="28.976" x2="29" y1="31.07" y2="40.005" gradientTransform="matrix(.75005 0 0 .75005 49.873 11.124)" gradientUnits="userSpaceOnUse">
   <stop id="stop2883" style="stop-color:#3d3d3d" offset="0"/>
   <stop id="stop2885" style="stop-color:#646464" offset="1"/>
  </linearGradient>
  <radialGradient id="radialGradient2493-648" cx="62.625" cy="4.625" r="10.625" gradientTransform="matrix(1 0 0 .34118 0 3.0471)" gradientUnits="userSpaceOnUse">
   <stop id="stop2889" style="stop-color:#7e7e7e" offset="0"/>
   <stop id="stop2891" style="stop-color:#868686;stop-opacity:0" offset="1"/>
  </radialGradient>
  <linearGradient id="linearGradient3899-40" x1="21.483" x2="21.483" y1="21.671" y2="33.41" gradientTransform="matrix(.77327 0 0 .81215 -4.6125 -7.6493)" gradientUnits="userSpaceOnUse">
   <stop id="stop2895" style="stop-color:#c7c7c7" offset="0"/>
   <stop id="stop2897" style="stop-color:#a5a5a5" offset="1"/>
  </linearGradient>
  <linearGradient id="linearGradient3901-939" x1="21.483" x2="21.483" y1="36.346" y2="13.091" gradientTransform="matrix(.77327 0 0 .81215 -4.6125 -7.6493)" gradientUnits="userSpaceOnUse">
   <stop id="stop2901" style="stop-color:#616161" offset="0"/>
   <stop id="stop2903" style="stop-color:#9a9a9a" offset="1"/>
  </linearGradient>
  <linearGradient id="linearGradient3892-42" x1="21.483" x2="21.483" y1="9.4631" y2="26.294" gradientTransform="matrix(.72954 0 0 .7559 -3.6884 -6.3976)" gradientUnits="userSpaceOnUse">
   <stop id="stop2907" style="stop-color:#fff" offset="0"/>
   <stop id="stop2909" style="stop-color:#e1e1e1" offset=".89189"/>
   <stop id="stop2911" style="stop-color:#c3c3c3;stop-opacity:0" offset="1"/>
  </linearGradient>
  <linearGradient id="linearGradient3890-98" x1="24.097" x2="23.673" y1="9.5958" y2="22.839" gradientTransform="matrix(.63089 0 0 .66023 -3.1414 -3.5254)" gradientUnits="userSpaceOnUse">
   <stop id="stop2915" style="stop-color:#ececec" offset="0"/>
   <stop id="stop2917" style="stop-color:#c9c9c9" offset="1"/>
  </linearGradient>
 </defs>
 <g id="layer5">
  <rect id="rect3141" x="-316.21" y="-119.62" width="16" height="16" style="display:none;fill-rule:evenodd;fill:#d5d5d5"/>
  <rect id="rect3143" x="-316.21" y="-93.618" width="22" height="22" style="display:none;fill-rule:evenodd;fill:#d5d5d5"/>
  <path id="path3145" transform="matrix(1.7067 0 0 1.7067 -264.21 -64.618)" d="m18.75 9.375a9.375 9.375 0 1 1-18.75 0 9.375 9.375 0 1 1 18.75 0z" style="display:none;fill-rule:evenodd;fill:url(#radialGradient3504-701)"/>
  <path id="path3147" transform="matrix(2.1333 0 0 2.1333 -268.21 -68.618)" d="m18.75 9.375a9.375 9.375 0 1 1-18.75 0 9.375 9.375 0 1 1 18.75 0z" style="display:none;fill-rule:evenodd;fill:url(#radialGradient3504-701)"/>
  <path id="path3149" transform="matrix(2.56 0 0 2.56 -272.21 -72.618)" d="m18.75 9.375a9.375 9.375 0 1 1-18.75 0 9.375 9.375 0 1 1 18.75 0z" style="display:none;fill-rule:evenodd;fill:url(#radialGradient3504-701)"/>
  <g id="g3151" transform="translate(-452.21 -85.118)" style="display:none">
   <path id="path3153" transform="matrix(1.1429 0 0 1.5 -11.143 -8.25)" d="m57 28.5a1.75 1 0 1 1-3.5 0 1.75 1 0 1 1 3.5 0z" style="display:inline;fill-rule:evenodd"/>
   <rect id="rect3155" x="53" y="26" width="1" height="8.5" style="display:inline;fill-rule:evenodd"/>
   <path id="path3157" d="m54 26c2 0 1.5 3 2.5 3-2 1e-6 -0.5-1.5-2.5-1.5v-1.5z" style="fill-rule:evenodd"/>
  </g>
  <g id="g3159" transform="translate(-452.21 -85.118)" style="display:none">
   <path id="path3161" transform="matrix(1.1429 0 0 1.5 -2.6428 -8.25)" d="m57 28.5a1.75 1 0 1 1-3.5 0 1.75 1 0 1 1 3.5 0z" style="display:inline;fill-rule:evenodd"/>
   <rect id="rect3163" x="61.5" y="26" width="1" height="8.5" style="display:inline;fill-rule:evenodd"/>
   <path id="path3165" d="m62.5 26c2 0 1.5 2.5 2.5 2.5-1.5 1e-6 -0.5-1-2.5-1v-1.5z" style="fill-rule:evenodd"/>
   <path id="path3167" d="m62.5 28c2 0 1.5 2.5 2.5 2.5-1.5 1e-6 -0.5-1-2.5-1v-1.5z" style="display:inline;fill-rule:evenodd"/>
  </g>
  <g id="g3169" transform="translate(-374.21 -119.62)" style="display:none">
   <path id="path3171" transform="matrix(-1.1429 0 0 -1.5 56.143 104.75)" d="m57 28.5a1.75 1 0 1 1-3.5 0 1.75 1 0 1 1 3.5 0z" style="display:inline;fill-rule:evenodd"/>
   <rect id="rect3173" transform="scale(-1)" x="8" y="-70.5" width="1" height="8.5" style="display:inline;fill-rule:evenodd"/>
   <path id="path3175" d="m-8 70.5c2 0 1.5-3 2.5-3-2-1e-6 -0.5 1.5-2.5 1.5v1.5z" style="display:inline;fill-rule:evenodd"/>
  </g>
  <g id="g3177" transform="translate(-452.71 -85.118)" style="display:none">
   <path id="path3179" transform="matrix(-1.1429 0 0 -1.5 142.64 70.25)" d="m57 28.5a1.75 1 0 1 1-3.5 0 1.75 1 0 1 1 3.5 0z" style="display:inline;fill-rule:evenodd"/>
   <rect id="rect3181" transform="scale(-1)" x="-78.5" y="-36" width="1" height="8.5" style="display:inline;fill-rule:evenodd"/>
   <path id="path3183" d="m78.5 36c2 0 1.5-2.5 2.5-2.5-1.5-1e-6 -0.5 1-2.5 1v1.5z" style="fill-rule:evenodd"/>
   <path id="path3185" d="m78.5 34c2 0 1.5-2.5 2.5-2.5-1.5-1e-6 -0.5 1-2.5 1v1.5z" style="display:inline;fill-rule:evenodd"/>
  </g>
  <g id="g3187" transform="translate(-373.21 -120.62)" style="display:none">
   <path id="path3189" transform="matrix(1.1429 0 0 1.5 -89.143 39.75)" d="m57 28.5a1.75 1 0 1 1-3.5 0 1.75 1 0 1 1 3.5 0z" style="display:inline;fill-rule:evenodd"/>
   <path id="path3191" d="m-25 74 6 1.5v8.5h-1v-7l-4-1v6.5h-1v-8.5z" style="display:inline;fill-rule:evenodd"/>
   <path id="path3193" transform="matrix(1.1429 0 0 1.5 -84.143 41.25)" d="m57 28.5a1.75 1 0 1 1-3.5 0 1.75 1 0 1 1 3.5 0z" style="display:inline;fill-rule:evenodd"/>
  </g>
  <g id="g3195" transform="translate(-374.71 -121.62)" style="display:none">
   <path id="path3197" transform="matrix(1.1429 0 0 -1.5 -74.643 120.75)" d="m57 28.5a1.75 1 0 1 1-3.5 0 1.75 1 0 1 1 3.5 0z" style="display:inline;fill-rule:evenodd"/>
   <path id="path3199" d="m-13.5 86.5 6-1.5v-8.5h-1v7l-4 1v-6.5h-1v8.5z" style="display:inline;fill-rule:evenodd"/>
   <path id="path3201" transform="matrix(1.1429 0 0 -1.5 -69.643 119.25)" d="m57 28.5a1.75 1 0 1 1-3.5 0 1.75 1 0 1 1 3.5 0z" style="display:inline;fill-rule:evenodd"/>
  </g>
  <path id="path3203" transform="translate(-310.7 -40.613)" d="m80 37a16 16 0 1 1-32 0 16 16 0 1 1 32 0z" style="display:none;fill-rule:evenodd;fill:#464646"/>
  <path id="path3205" transform="matrix(.7503 0 0 .7503 -294.72 -31.374)" d="m80 37a16 16 0 1 1-32 0 16 16 0 1 1 32 0z" style="display:none;fill-rule:evenodd;fill:#606060"/>
  <path id="path3207" transform="matrix(.49992 0 0 .49992 -278.7 -22.11)" d="m80 37a16 16 0 1 1-32 0 16 16 0 1 1 32 0z" style="display:none;fill-rule:evenodd;fill:#919191"/>
  <g id="g3210" transform="translate(-374.21 -120.62)" style="display:none">
   <rect id="rect3212" x="26.5" y="27.5" width="12" height="12" ry="1.0853" style="display:inline;fill-rule:evenodd;fill:url(#linearGradient3510-693);stroke-linecap:round;stroke:#313131"/>
   <g id="g3214" transform="translate(-2 -2)">
    <rect id="rect3216" transform="matrix(.70711 .70711 -.70711 .70711 0 0)" x="44.998" y="-.29289" width="9" height="2" ry="0" style="display:inline;fill-rule:evenodd;fill:#fff"/>
    <rect id="rect3218" transform="matrix(-.70711 .70711 .70711 .70711 0 0)" x="-3.7929" y="48.498" width="9" height="2" ry="0" style="display:inline;fill-rule:evenodd;fill:#fff"/>
   </g>
   <rect id="rect3220" x="27.5" y="28.5" width="10" height="10" ry="0" style="display:inline;fill:none;stroke-linecap:round;stroke-linejoin:round;stroke:#646464"/>
  </g>
  <rect id="rect3222" x="-307.71" y="-115.12" width="7" height="7" ry="1.0853" style="display:none;fill-rule:evenodd;fill:url(#linearGradient4624-152);stroke-linecap:round;stroke:#313131"/>
  <path id="path3224" d="m-306.71-113.12 1-1 4 4-1 1-4-4z" style="display:none;fill-rule:evenodd;fill:#fff"/>
  <path id="path3226" d="m-305.71-109.12-1-1 4-4 1 1-4 4z" style="display:none;fill-rule:evenodd;fill:#fff"/>
  <g id="g3228" transform="translate(-374.21 -119.62)" style="display:none">
   <rect id="rect3230" x="70.499" y="32.5" width="9.0006" height="9.0006" ry=".99254" style="display:inline;fill-rule:evenodd;fill:url(#linearGradient3514-427);stroke-linecap:round;stroke:#313131"/>
   <rect id="rect3232" x="71.5" y="33.5" width="7" height="7" ry="0" style="display:inline;fill:none;stroke-linecap:round;stroke-linejoin:round;stroke:#646464"/>
   <g id="g3234">
    <path id="path3236" d="m72.5 35.5 1-1 4 4-1 1-4-4z" style="display:inline;fill-rule:evenodd;fill:#fff"/>
    <path id="path3238" d="m73.5 39.5-1-1 4-4 1 1-4 4z" style="display:inline;fill-rule:evenodd;fill:#fff"/>
   </g>
  </g>
  <path id="path8836" transform="matrix(1.0824 0 0 .96552 -55.782 16.034)" d="m73.25 4.625a10.625 3.625 0 1 1-21.25 0 10.625 3.625 0 1 1 21.25 0z" style="fill-rule:evenodd;fill:url(#radialGradient2493-648);opacity:.56044"/>
  <path id="path1307" d="m12 0.4592c0.68671 0.44233 0.94957 1.3643 1.3612 2.0633 0.71599 1.4053 1.2817 2.898 2.092 4.2482 0.7015 0.54323 1.6896 0.44804 2.5221 0.65085 1.4528 0.25786 2.9594 0.33883 4.3491 0.88261 0.59241 0.5916-0.63416 1.3493-0.93756 1.8655-1.1374 1.2727-2.4326 2.3885-3.5017 3.727-0.27514 0.86858 0.11638 1.8261 0.19002 2.7204 0.21543 1.5308 0.60768 3.0608 0.54471 4.6169-0.35265 0.77456-1.4178-0.21649-1.979-0.36004-1.5039-0.7428-2.9146-1.6918-4.457-2.346-0.87155-0.0064-1.6176 0.68055-2.4047 1.0305-1.3196 0.68825-2.5838 1.5528-4.0124 1.9708-0.81036-0.1129-0.36469-1.3605-0.28551-2.088 0.2079-1.7317 0.63134-3.4341 0.74713-5.1769-0.26351-0.87254-1.1161-1.4055-1.6762-2.0836-1.031-1.1055-2.2046-2.1011-3.0245-3.3989-0.14818-0.84433 1.2682-0.70011 1.8025-0.93041 1.6324-0.32748 3.3048-0.43056 4.9187-0.85346 0.70869-0.53284 0.92782-1.5492 1.3688-2.3182 0.68244-1.3715 1.2213-2.8514 2.1432-4.0714 0.066883-0.064666 0.14133-0.14388 0.23908-0.1491z" style="fill:url(#linearGradient3899-40);stroke-linejoin:round;stroke:url(#linearGradient3901-939)"/>
  <path id="path1309" d="m12 1.9045c1.0565 2.1162 2.0171 3.8409 3.0737 5.9571 2.2689 0.38718 3.8556 0.70896 6.1245 1.0961-1.6159 1.695-3.2366 3.3472-4.8526 5.0422 6.077 10.181-10.587 8.9202-8.7648-0.13139-1.6159-1.695-3.2349-3.2588-4.8508-4.9539 2.2689-0.38718 4.0175-0.60865 6.2864-0.99583 1.0565-2.1162 1.927-3.8982 2.9835-6.0144z" style="fill:none;stroke:url(#linearGradient3892-42)"/>
  <path id="path1322" d="m12 3-2.6499 5.3318-5.5925 0.93574 3.2204 3.352c1.9483-1.9956 2.6609-1.6612 5.022-1.6195 2.3611 0.04178 3.197-0.17922 5.0714 1.561l3.171-3.3264-5.472-0.94713-2.7704-5.2875z" style="fill:url(#linearGradient3890-98)"/>
 </g>
</svg>
