<?xml version="1.0" encoding="UTF-8"?>
<!-- Created with Inkscape (http://www.inkscape.org/) -->
<svg id="svg11300" width="24" height="24" version="1.1" xmlns="http://www.w3.org/2000/svg" xmlns:xlink="http://www.w3.org/1999/xlink">
 <defs id="defs3">
  <linearGradient id="linearGradient10591">
   <stop id="stop10593" style="stop-color:#dcdcdc" offset="0"/>
   <stop id="stop10599" style="stop-color:#fafafa" offset=".5"/>
   <stop id="stop10595" style="stop-color:#c8c8c8" offset="1"/>
  </linearGradient>
  <linearGradient id="linearGradient14780-7-6">
   <stop id="stop14782-0-3" style="stop-color:#d3ba00" offset="0"/>
   <stop id="stop14784-4-7" style="stop-color:#d3ba00;stop-opacity:0" offset="1"/>
  </linearGradient>
  <linearGradient id="linearGradient3222" x1="16.965" x2="18.968" y1="20.166" y2="31.347" gradientTransform="matrix(.39731 0 0 .39082 2.143 -.10673)" gradientUnits="userSpaceOnUse">
   <stop id="stop14863-5" style="stop-color:#fff" offset="0"/>
   <stop id="stop14865-8" style="stop-color:#fff;stop-opacity:0" offset="1"/>
  </linearGradient>
  <radialGradient id="radialGradient3226" cx="10" cy="16.655" r="16" gradientTransform="matrix(1.4044 .045555 -.034272 1.0005 -11.151 -10.219)" gradientUnits="userSpaceOnUse">
   <stop id="stop7624-1" style="stop-color:#fff" offset="0"/>
   <stop id="stop7626-5" style="stop-color:#fff;stop-opacity:0" offset="1"/>
  </radialGradient>
  <linearGradient id="linearGradient3240" x1="6.221" x2="6.2377" y1="42.891" y2="39.267" gradientTransform="matrix(1 0 0 .56326 4 -4.3017)" gradientUnits="userSpaceOnUse" xlink:href="#linearGradient14780-7-6"/>
  <linearGradient id="linearGradient3243" x1="6.221" x2="6.2377" y1="42.891" y2="39.267" gradientTransform="matrix(1 0 0 .56326 2 -4.3017)" gradientUnits="userSpaceOnUse" xlink:href="#linearGradient14780-7-6"/>
  <linearGradient id="linearGradient3246" x1="6.221" x2="6.2377" y1="42.891" y2="39.267" gradientTransform="matrix(1 0 0 .56326 -2e-6 -4.3017)" gradientUnits="userSpaceOnUse" xlink:href="#linearGradient14780-7-6"/>
  <linearGradient id="linearGradient3249" x1="6.221" x2="6.2377" y1="42.891" y2="39.267" gradientTransform="matrix(1 0 0 .56326 -2 -4.3017)" gradientUnits="userSpaceOnUse" xlink:href="#linearGradient14780-7-6"/>
  <radialGradient id="radialGradient3259" cx="21.5" cy="44.75" r="17" gradientTransform="matrix(.64706 0 0 .17647 -2.9118 13.103)" gradientUnits="userSpaceOnUse">
   <stop id="stop14995" offset="0"/>
   <stop id="stop14997" style="stop-opacity:0" offset="1"/>
  </radialGradient>
  <radialGradient id="radialGradient3262" cx="15" cy="19.77" r="17.001" gradientTransform="matrix(2.2011 0 0 .99282 -28.199 -11.348)" gradientUnits="userSpaceOnUse">
   <stop id="stop14983-1-0" style="stop-color:#6d9335" offset="0"/>
   <stop id="stop14985-7-7" style="stop-color:#364d17" offset="1"/>
  </radialGradient>
  <linearGradient id="linearGradient4304" x1="42.366" x2="42.401" y1="15.05" y2="20.018" gradientTransform="matrix(.73901 0 0 .62998 -8.456 -1.546)" gradientUnits="userSpaceOnUse" xlink:href="#linearGradient10591"/>
  <linearGradient id="linearGradient4308" x1="42.366" x2="42.401" y1="15.05" y2="20.018" gradientTransform="matrix(.73901 0 0 .62998 -8.456 2.454)" gradientUnits="userSpaceOnUse" xlink:href="#linearGradient10591"/>
  <linearGradient id="linearGradient4316" x1="20" x2="23" y1="11.25" y2="11.25" gradientTransform="translate(0,-1)" gradientUnits="userSpaceOnUse" xlink:href="#linearGradient10591"/>
  <radialGradient id="radialGradient3260" cx="23.896" cy="3.99" r="20.397" gradientTransform="matrix(0 .86033 -1.1356 0 12.531 -20.445)" gradientUnits="userSpaceOnUse">
   <stop id="stop3870" style="stop-color:#8badea" offset="0"/>
   <stop id="stop3872" style="stop-color:#6396cd" offset=".26238"/>
   <stop id="stop3874" style="stop-color:#3b7caf" offset=".66094"/>
   <stop id="stop3876" style="stop-color:#194c70" offset="1"/>
  </radialGradient>
  <linearGradient id="linearGradient3262" x1="18.379" x2="18.379" y1="44.98" y2="3.0816" gradientTransform="matrix(.36048 0 0 .36048 -.65141 -.65142)" gradientUnits="userSpaceOnUse">
   <stop id="stop3880" style="stop-color:#1f4b6a" offset="0"/>
   <stop id="stop3882" style="stop-color:#4083c2" offset="1"/>
  </linearGradient>
  <linearGradient id="linearGradient3264" x1="63.397" x2="63.397" y1="-12.489" y2="5.4676" gradientTransform="matrix(.68609 0 0 .68607 -34.675 10.409)" gradientUnits="userSpaceOnUse">
   <stop id="stop3343" style="stop-color:#fff" offset="0"/>
   <stop id="stop3345" style="stop-color:#fff;stop-opacity:0" offset="1"/>
  </linearGradient>
 </defs>
 <path id="path14991" d="m22 21a11 3 0 0 1-22 0 11 3 0 1 1 22 0z" style="color:black;display:block;fill:url(#radialGradient3259);opacity:.4"/>
 <rect id="rect4306" x="20.25" y="12.25" width="3.5" height="2.5" rx="1" ry="1" style="color:black;display:block;fill:url(#linearGradient4308);stroke-linecap:round;stroke-linejoin:round;stroke-width:.5;stroke:#787878"/>
 <path id="rect14772-0" d="m0.50267 18.5h1.9973v3h10v-3h7v-15l-19-1.7e-6 0.00273 15h-6.1e-5z" style="color:black;display:block;fill:url(#radialGradient3262);stroke-linejoin:round;stroke:#2d410f"/>
 <path id="path14957-6" d="m12.874 13.275h-7.632v2.0204" style="color:black;display:block;fill:none;stroke-width:.5;stroke:#305526"/>
 <path id="path14826-5" d="m4.25 19.95 0.03097-3.2419 1.0734-1.4954h11.936v-4.8127l-2.6233-1.641h2.0384v-1.9664h-4.1051" style="color:black;display:block;fill:none;stroke-width:.5;stroke:#305526"/>
 <path id="path14830" d="m8.25 20.078 0.03097-3.2419 1.0734-1.4954" style="color:black;display:block;fill:none;stroke-width:.5;stroke:#305526"/>
 <path id="path14838" d="m6.25 20.078 0.03097-3.2419 1.0734-1.4954" style="color:black;display:block;fill:none;stroke-width:.5;stroke:#305526"/>
 <path id="path14840" d="m10.25 20.078 0.03096-3.2419 1.0734-1.4954" style="color:black;display:block;fill:none;stroke-width:.5;stroke:#305526"/>
 <path id="path14788" d="m4.5 18c0.40298 0 0.5 0.35443 0.5 0.51046v2.4895h-1v-2.4895c0-0.15602 0.10489-0.51046 0.5-0.51046z" style="color:black;display:block;fill:url(#linearGradient3249)"/>
 <path id="path14792" d="m6.5 18c0.40298 0 0.5 0.35443 0.5 0.51046v2.4895h-1v-2.4895c0-0.15602 0.10489-0.51046 0.5-0.51046z" style="color:black;display:block;fill:url(#linearGradient3246)"/>
 <path id="path14796-8" d="m8.5 18c0.40298 0 0.5 0.35443 0.5 0.51046v2.4895h-1v-2.4895c0-0.15602 0.10489-0.51046 0.5-0.51046z" style="color:black;display:block;fill:url(#linearGradient3243)"/>
 <path id="path14800" d="m10.5 18c0.40298 0 0.5 0.35443 0.5 0.51046v2.4895h-1v-2.4895c0-0.15602 0.10489-0.51046 0.5-0.51046z" style="color:black;display:block;fill:url(#linearGradient3240)"/>
 <path id="path15029-1" d="m4.3828 7.0925-1.5828 0.59587v6.5126h2.5" style="color:black;display:block;fill:none;stroke-width:.5;stroke:#305526"/>
 <path id="path14959-2" d="m4.9931 10.735 0.5989 2.3544h1.098l-0.5989-2.3544" style="color:black;display:block;fill:none;stroke-width:.5;stroke:#305526"/>
 <path id="path14961-2" d="m7.2517 10.792 0.5989 2.2979h1.098l-0.5989-2.2979" style="color:black;display:block;fill:none;stroke-width:.5;stroke:#305526"/>
 <path id="path14963-6" d="m9.5103 10.706 0.5989 2.3836h1.098l-0.5989-2.3836" style="color:black;display:block;fill:none;stroke-width:.5;stroke:#305526"/>
 <path id="path14965-9" d="m11.769 10.682 0.5989 2.4076" style="color:black;display:block;fill:none;stroke-width:.5;stroke:#305526"/>
 <path id="path14989-1" d="m1.5001 17.5h1.9999v3l8-0.0013v-2.9987h6.9979c0.0022-2.19e-4 0.0021-12.999 0.0021-12.999l-16.998-0.0011311c0.002189 4.4498-0.00192 13-0.00192 13h8.9e-5z" style="color:black;display:block;fill:none;opacity:.23864;stroke:url(#radialGradient3226)"/>
 <rect id="rect14857-2" x="4.5" y="6.5" width="8" height="4" rx=".5" ry=".5" style="color:black;display:block;fill:#646662;stroke:#2e3436"/>
 <rect id="rect14859-2" x="5.5" y="7.5" width="6" height="2" rx="0" ry="0" style="color:black;display:block;fill:none;opacity:.25;stroke:url(#linearGradient3222)"/>
 <rect id="rect15011" x="20.25" y="8.25" width="3.5" height="2.5" rx="1" ry="1" style="color:black;display:block;fill:url(#linearGradient4304);stroke-linecap:round;stroke-linejoin:round;stroke-width:.5;stroke:#787878"/>
 <path id="path15001" d="m20.5 19.5v-17.95h2" style="color:black;display:block;fill:none;stroke-linecap:round;stroke-linejoin:round;stroke-width:3;stroke:#787878"/>
 <path id="path15003" d="m20.5 19.4v-17.9h2" style="color:black;display:block;fill:none;stroke-linecap:round;stroke-linejoin:round;stroke-width:2;stroke:url(#linearGradient4316)"/>
 <g id="layer1" transform="matrix(.75 0 0 .75 9 11)">
  <path id="path2449" d="m8 0.66657c-4.0463 0-7.3334 3.2871-7.3334 7.3334 0 4.0463 3.2871 7.3334 7.3334 7.3334 4.0463 0 7.3334-3.2871 7.3334-7.3334 0-4.0463-3.2871-7.3334-7.3334-7.3334z" style="fill:url(#radialGradient3260);stroke-linecap:round;stroke-linejoin:round;stroke-width:1.3331;stroke:url(#linearGradient3262)"/>
  <path id="path2451" d="m14 7.9998c0 3.3139-2.6866 6.0004-6.0001 6.0004-3.3138 0-6.0003-2.6865-6.0003-6.0004 0-3.3138 2.6864-6 6.0003-6 3.3135 0 6.0001 2.6862 6.0001 6z" style="fill:none;opacity:.4;stroke-width:1.333;stroke:url(#linearGradient3264)"/>
  <path id="path3536" d="m5.6 7.9819c0.109 0.27094 0.22833 0.48929 0.45221 0.17481 0.28529-0.19092 1.234-1.0154 1.1659-0.24323-0.25831 1.4342-0.5853 2.8563-0.82171 4.294-0.27479 0.79319 0.44554 1.4708 1.1492 0.9334 0.75629-0.35778 1.3973-0.91624 2.0544-1.4314-0.10128-0.22894-0.17574-0.56072-0.41877-0.24588-0.32856 0.17004-1.0308 0.93687-1.1902 0.33479 0.22128-1.5506 0.68448-3.0541 0.95805-4.5946 0.27908-0.71461-0.25573-1.581-0.98212-0.96952-0.88164 0.43898-1.6065 1.1266-2.367 1.7476zm3.1289-5.3133c-0.91741-0.012327-1.337 1.5257-0.45094 1.9054 0.71737 0.26878 1.4569-0.50762 1.2556-1.2447-0.068568-0.38532-0.41909-0.68962-0.80463-0.66071h-9e-7z" style="fill:#fff"/>
 </g>
</svg>
