<?xml version="1.0" encoding="UTF-8"?>
<!-- Created with Inkscape (http://www.inkscape.org/) -->
<svg id="svg11300" width="24" height="24" version="1.1" xmlns="http://www.w3.org/2000/svg" xmlns:xlink="http://www.w3.org/1999/xlink">
 <defs id="defs3">
  <linearGradient id="linearGradient10591">
   <stop id="stop10593" style="stop-color:#dcdcdc" offset="0"/>
   <stop id="stop10599" style="stop-color:#fafafa" offset=".5"/>
   <stop id="stop10595" style="stop-color:#c8c8c8" offset="1"/>
  </linearGradient>
  <linearGradient id="linearGradient14780-7-6">
   <stop id="stop14782-0-3" style="stop-color:#d3ba00" offset="0"/>
   <stop id="stop14784-4-7" style="stop-color:#d3ba00;stop-opacity:0" offset="1"/>
  </linearGradient>
  <linearGradient id="linearGradient3222" x1="16.965" x2="18.968" y1="20.166" y2="31.347" gradientTransform="matrix(.39731 0 0 .39082 2.143 -.10673)" gradientUnits="userSpaceOnUse">
   <stop id="stop14863-5" style="stop-color:#fff" offset="0"/>
   <stop id="stop14865-8" style="stop-color:#fff;stop-opacity:0" offset="1"/>
  </linearGradient>
  <radialGradient id="radialGradient3226" cx="10" cy="16.655" r="16" gradientTransform="matrix(1.4044 .045555 -.034272 1.0005 -11.151 -10.219)" gradientUnits="userSpaceOnUse">
   <stop id="stop7624-1" style="stop-color:#fff" offset="0"/>
   <stop id="stop7626-5" style="stop-color:#fff;stop-opacity:0" offset="1"/>
  </radialGradient>
  <linearGradient id="linearGradient3240" x1="6.221" x2="6.2377" y1="42.891" y2="39.267" gradientTransform="matrix(1 0 0 .56326 4 -4.3017)" gradientUnits="userSpaceOnUse" xlink:href="#linearGradient14780-7-6"/>
  <linearGradient id="linearGradient3243" x1="6.221" x2="6.2377" y1="42.891" y2="39.267" gradientTransform="matrix(1 0 0 .56326 2 -4.3017)" gradientUnits="userSpaceOnUse" xlink:href="#linearGradient14780-7-6"/>
  <linearGradient id="linearGradient3246" x1="6.221" x2="6.2377" y1="42.891" y2="39.267" gradientTransform="matrix(1 0 0 .56326 -2e-6 -4.3017)" gradientUnits="userSpaceOnUse" xlink:href="#linearGradient14780-7-6"/>
  <linearGradient id="linearGradient3249" x1="6.221" x2="6.2377" y1="42.891" y2="39.267" gradientTransform="matrix(1 0 0 .56326 -2 -4.3017)" gradientUnits="userSpaceOnUse" xlink:href="#linearGradient14780-7-6"/>
  <radialGradient id="radialGradient3259" cx="21.5" cy="44.75" r="17" gradientTransform="matrix(.64706 0 0 .17647 -2.9118 13.103)" gradientUnits="userSpaceOnUse">
   <stop id="stop14995" offset="0"/>
   <stop id="stop14997" style="stop-opacity:0" offset="1"/>
  </radialGradient>
  <radialGradient id="radialGradient3262" cx="15" cy="19.77" r="17.001" gradientTransform="matrix(2.2011 0 0 .99282 -28.199 -11.348)" gradientUnits="userSpaceOnUse">
   <stop id="stop14983-1-0" style="stop-color:#6d9335" offset="0"/>
   <stop id="stop14985-7-7" style="stop-color:#364d17" offset="1"/>
  </radialGradient>
  <linearGradient id="linearGradient4275" x1="3.1505" x2="46.798" y1="14.443" y2="14.443" gradientTransform="matrix(.25317 0 0 .30434 9.4063 9.6046)" gradientUnits="userSpaceOnUse" xlink:href="#linearGradient10591"/>
  <linearGradient id="linearGradient4281" x1="24.875" x2="24.75" y1="21" y2="17" gradientTransform="matrix(.20588 0 0 .40374 10.559 9.4056)" gradientUnits="userSpaceOnUse">
   <stop id="stop5883" style="stop-color:#d6c8a7" offset="0"/>
   <stop id="stop5885" style="stop-color:#d0bd99" offset="1"/>
  </linearGradient>
  <linearGradient id="linearGradient4287" x1="6.7268" x2="40.938" y1="32.162" y2="32.162" gradientTransform="matrix(.22861 0 0 .26449 10.014 10.247)" gradientUnits="userSpaceOnUse">
   <stop id="stop2413-5" style="stop-color:#fee7b1" offset="0"/>
   <stop id="stop2419-3" style="stop-color:#ebd4b4" offset=".25797"/>
   <stop id="stop2421-5" style="stop-color:#c8a775" offset=".50797"/>
   <stop id="stop2423-1" style="stop-color:#b0935b" offset=".7401"/>
   <stop id="stop2415-1" style="stop-color:#fcebbf" offset="1"/>
  </linearGradient>
  <linearGradient id="linearGradient4297" x1="21.942" x2="21.942" y1="21.551" y2="18.038" gradientTransform="matrix(.18182 0 0 .25159 11.136 12.097)" gradientUnits="userSpaceOnUse">
   <stop id="stop12073" style="stop-color:#fff" offset="0"/>
   <stop id="stop12075" style="stop-color:#fff;stop-opacity:0" offset="1"/>
  </linearGradient>
  <linearGradient id="linearGradient4304" x1="42.366" x2="42.401" y1="15.05" y2="20.018" gradientTransform="matrix(.73901 0 0 .62998 -8.456 -1.546)" gradientUnits="userSpaceOnUse" xlink:href="#linearGradient10591"/>
  <linearGradient id="linearGradient4308" x1="42.366" x2="42.401" y1="15.05" y2="20.018" gradientTransform="matrix(.73901 0 0 .62998 -8.456 2.454)" gradientUnits="userSpaceOnUse" xlink:href="#linearGradient10591"/>
  <linearGradient id="linearGradient4316" x1="20" x2="23" y1="11.25" y2="11.25" gradientTransform="translate(0,-1)" gradientUnits="userSpaceOnUse" xlink:href="#linearGradient10591"/>
 </defs>
 <path id="path14991" d="m22 21a11 3 0 0 1-22 0 11 3 0 1 1 22 0z" style="color:black;display:block;fill:url(#radialGradient3259);opacity:.4"/>
 <rect id="rect4306" x="20.25" y="12.25" width="3.5" height="2.5" rx="1" ry="1" style="color:black;display:block;fill:url(#linearGradient4308);stroke-linecap:round;stroke-linejoin:round;stroke-width:.5;stroke:#787878"/>
 <path id="rect14772-0" d="m0.50267 18.5h1.9973v3h10v-3h7v-15l-19-1.7e-6 0.00273 15h-6.1e-5z" style="color:black;display:block;fill:url(#radialGradient3262);stroke-linejoin:round;stroke:#2d410f"/>
 <path id="path14957-6" d="m12.874 13.275h-7.632v2.0204" style="color:black;display:block;fill:none;stroke-width:.5;stroke:#305526"/>
 <path id="path14826-5" d="m4.25 19.95 0.03097-3.2419 1.0734-1.4954h11.936v-4.8127l-2.6233-1.641h2.0384v-1.9664h-4.1051" style="color:black;display:block;fill:none;stroke-width:.5;stroke:#305526"/>
 <path id="path14830" d="m8.25 20.078 0.03097-3.2419 1.0734-1.4954" style="color:black;display:block;fill:none;stroke-width:.5;stroke:#305526"/>
 <path id="path14838" d="m6.25 20.078 0.03097-3.2419 1.0734-1.4954" style="color:black;display:block;fill:none;stroke-width:.5;stroke:#305526"/>
 <path id="path14840" d="m10.25 20.078 0.03096-3.2419 1.0734-1.4954" style="color:black;display:block;fill:none;stroke-width:.5;stroke:#305526"/>
 <path id="path14788" d="m4.5 18c0.40298 0 0.5 0.35443 0.5 0.51046v2.4895h-1v-2.4895c0-0.15602 0.10489-0.51046 0.5-0.51046z" style="color:black;display:block;fill:url(#linearGradient3249)"/>
 <path id="path14792" d="m6.5 18c0.40298 0 0.5 0.35443 0.5 0.51046v2.4895h-1v-2.4895c0-0.15602 0.10489-0.51046 0.5-0.51046z" style="color:black;display:block;fill:url(#linearGradient3246)"/>
 <path id="path14796-8" d="m8.5 18c0.40298 0 0.5 0.35443 0.5 0.51046v2.4895h-1v-2.4895c0-0.15602 0.10489-0.51046 0.5-0.51046z" style="color:black;display:block;fill:url(#linearGradient3243)"/>
 <path id="path14800" d="m10.5 18c0.40298 0 0.5 0.35443 0.5 0.51046v2.4895h-1v-2.4895c0-0.15602 0.10489-0.51046 0.5-0.51046z" style="color:black;display:block;fill:url(#linearGradient3240)"/>
 <path id="path15029-1" d="m4.3828 7.0925-1.5828 0.59587v6.5126h2.5" style="color:black;display:block;fill:none;stroke-width:.5;stroke:#305526"/>
 <path id="path14959-2" d="m4.9931 10.735 0.5989 2.3544h1.098l-0.5989-2.3544" style="color:black;display:block;fill:none;stroke-width:.5;stroke:#305526"/>
 <path id="path14961-2" d="m7.2517 10.792 0.5989 2.2979h1.098l-0.5989-2.2979" style="color:black;display:block;fill:none;stroke-width:.5;stroke:#305526"/>
 <path id="path14963-6" d="m9.5103 10.706 0.5989 2.3836h1.098l-0.5989-2.3836" style="color:black;display:block;fill:none;stroke-width:.5;stroke:#305526"/>
 <path id="path14965-9" d="m11.769 10.682 0.5989 2.4076" style="color:black;display:block;fill:none;stroke-width:.5;stroke:#305526"/>
 <path id="path14989-1" d="m1.5001 17.5h1.9999v3l8-0.0013v-2.9987h6.9979c0.0022-2.19e-4 0.0021-12.999 0.0021-12.999l-16.998-0.0011311c0.002189 4.4498-0.00192 13-0.00192 13h8.9e-5z" style="color:black;display:block;fill:none;opacity:.23864;stroke:url(#radialGradient3226)"/>
 <rect id="rect14857-2" x="4.5" y="6.5" width="8" height="4" rx=".5" ry=".5" style="color:black;display:block;fill:#646662;stroke:#2e3436"/>
 <rect id="rect14859-2" x="5.5" y="7.5" width="6" height="2" rx="0" ry="0" style="color:black;display:block;fill:none;opacity:.25;stroke:url(#linearGradient3222)"/>
 <rect id="rect15011" x="20.25" y="8.25" width="3.5" height="2.5" rx="1" ry="1" style="color:black;display:block;fill:url(#linearGradient4304);stroke-linecap:round;stroke-linejoin:round;stroke-width:.5;stroke:#787878"/>
 <path id="path15001" d="m20.5 19.5v-17.95h2" style="color:black;display:block;fill:none;stroke-linecap:round;stroke-linejoin:round;stroke-width:3;stroke:#787878"/>
 <path id="path15003" d="m20.5 19.4v-17.9h2" style="color:black;display:block;fill:none;stroke-linecap:round;stroke-linejoin:round;stroke-width:2;stroke:url(#linearGradient4316)"/>
 <path id="rect1314" d="m12.011 15.734c2.3048-0.33788 4.6341-0.28543 6.9781 0 0.28306 0 0.51094 0.24429 0.51094 0.54773v5.459c0 0.30344-0.24259 0.50384-0.51094 0.54773-2.4301 0.28292-4.5138 0.28069-6.9781 0-0.32718-0.10241-0.51094-0.24429-0.51094-0.54773v-5.459c0-0.30345 0.22788-0.54773 0.51094-0.54773z" style="fill-rule:evenodd;fill:url(#linearGradient4287);stroke-linecap:round;stroke-linejoin:round;stroke:#876c41"/>
 <path id="rect1460" d="m12.341 16.269c2.106-0.39318 4.212-0.32315 6.318 0 0.18891 0 0.341 0.193 0.341 0.43274v0.74949c0 0.23974-0.15209 0.43274-0.341 0.43274-2.1977 0.18575-4.2198 0.11946-6.318 0-0.18891 0-0.341-0.193-0.341-0.43274v-0.74949c0-0.23974 0.15209-0.43274 0.341-0.43274z" style="fill-rule:evenodd;fill:url(#linearGradient4281)"/>
 <path id="rect1593" d="m12.718 16.5h5.5636c0.12089 0 0.21822 0.1293 0.21822 0.2899v0.17499c0 0.1606-0.09733 0.2899-0.21822 0.2899-1.8372 0.31718-3.6952 0.33659-5.5636 0-0.12089 0-0.21822-0.1293-0.21822-0.2899v-0.17499c0-0.1606 0.09732-0.2899 0.21822-0.2899z" style="fill:none;opacity:.6;stroke-linecap:round;stroke-linejoin:round;stroke:url(#linearGradient4297)"/>
 <path id="path2086" d="m12.1 16.349v-1.7453c0-2.1452 1.331-3.4706 3.3873-3.5031 2.0675-0.032764 3.4127 1.2985 3.4127 3.5031v1.8214c0 0.59474-1.8 0.67044-1.8 0v-1.2127c0.05008-1.2124-0.096678-2.3185-1.5977-2.3124-1.5335 0.00625-1.6105 1.1-1.6023 2.31v1.1493c0 0.7166-1.8 0.71355-1.8-0.01023v-4.2e-5 2.1e-5z" style="fill-rule:evenodd;fill:url(#linearGradient4275);stroke-width:.2;stroke:#969696"/>
</svg>
