<?xml version="1.0" encoding="UTF-8"?>
<!-- Created with Inkscape (http://www.inkscape.org/) -->
<svg id="svg3309" width="24" height="24" version="1.1" xmlns="http://www.w3.org/2000/svg" xmlns:xlink="http://www.w3.org/1999/xlink">
 <defs id="defs3311">
  <linearGradient id="linearGradient4786" x1="66" x2="66" y1="61.889" y2="75.497" gradientUnits="userSpaceOnUse">
   <stop id="stop3660" style="stop-color:#ef3b3b" offset="0"/>
   <stop id="stop3662" style="stop-color:#f14646" offset=".3827"/>
   <stop id="stop3664" style="stop-color:#f76060" offset="1"/>
  </linearGradient>
  <linearGradient id="linearGradient4797" x1="79.236" x2="61.338" y1="72.834" y2="59.877" gradientTransform="matrix(.5625 0 0 .47059 -25.125 -15.176)" gradientUnits="userSpaceOnUse">
   <stop id="stop3707" style="stop-color:#85b6d1" offset="0"/>
   <stop id="stop3709" style="stop-color:#7ab1d0" offset=".1707"/>
   <stop id="stop3711" style="stop-color:#5ea5cd" offset=".4684"/>
   <stop id="stop3713" style="stop-color:#2f92c9" offset=".8553"/>
   <stop id="stop3715" style="stop-color:#1c8ac7" offset="1"/>
  </linearGradient>
  <linearGradient id="linearGradient4800" x1="72.138" x2="80.393" y1="74.042" y2="74.042" gradientTransform="matrix(.5625 0 0 .47059 -25.125 -15.176)" gradientUnits="userSpaceOnUse">
   <stop id="stop3689" style="stop-color:#1773a6" offset="0"/>
   <stop id="stop3691" style="stop-color:#1773a6" offset="1"/>
  </linearGradient>
  <linearGradient id="linearGradient4803" x1="65.277" x2="65.277" y1="74.939" y2="67.132" gradientTransform="matrix(.5625 0 0 .47059 -25.125 -15.176)" gradientUnits="userSpaceOnUse">
   <stop id="stop3695" style="stop-color:#f5f2b0" offset="0"/>
   <stop id="stop3697" style="stop-color:#f5efa5" offset=".1374"/>
   <stop id="stop3699" style="stop-color:#f4e988" offset=".377"/>
   <stop id="stop3701" style="stop-color:#f3de5a" offset=".6886"/>
   <stop id="stop3703" style="stop-color:#f2d125" offset="1"/>
  </linearGradient>
  <linearGradient id="linearGradient4806" x1="57.16" x2="73.087" y1="73.962" y2="73.962" gradientTransform="matrix(.5625 0 0 .47059 -25.125 -15.176)" gradientUnits="userSpaceOnUse">
   <stop id="stop3679" style="stop-color:#e1da1a" offset="0"/>
   <stop id="stop3681" style="stop-color:#d6cf14" offset=".3128"/>
   <stop id="stop3683" style="stop-color:#bab305" offset=".8568"/>
   <stop id="stop3685" style="stop-color:#b2aa00" offset="1"/>
  </linearGradient>
  <linearGradient id="linearGradient4810" x1="50" x2="82" y1="73.065" y2="73.065" gradientTransform="matrix(.5625 0 0 .47059 -25.125 -15.176)" gradientUnits="userSpaceOnUse">
   <stop id="stop3669" style="stop-color:#bb2f2f" offset="0"/>
   <stop id="stop3671" style="stop-color:#d53c3c" offset=".3087"/>
   <stop id="stop3673" style="stop-color:#e04242" offset=".5"/>
   <stop id="stop3675" style="stop-color:#bb2f2f" offset="1"/>
  </linearGradient>
  <linearGradient id="linearGradient3496" x1="10.148" x2="10.55" y1="43.124" y2="-1.0863" gradientUnits="userSpaceOnUse">
   <stop id="stop3765-0" style="stop-color:#1f4b6a" offset="0"/>
   <stop id="stop3767-4" style="stop-color:#4083c2" offset="1"/>
  </linearGradient>
  <radialGradient id="radialGradient3494" cx="16.961" cy="5.8834" r="22.105" gradientTransform="matrix(0 2 -1.3459 0 28.919 -35.008)" gradientUnits="userSpaceOnUse">
   <stop id="stop3722-0" style="stop-color:#8badea" offset="0"/>
   <stop id="stop3728-2" style="stop-color:#6396cd" offset=".5"/>
   <stop id="stop3730-8" style="stop-color:#3b7caf" offset=".84091"/>
   <stop id="stop3724-3" style="stop-color:#194c70" offset="1"/>
  </radialGradient>
  <linearGradient id="linearGradient3246" x1="25.132" x2="25.132" y1="6.7287" y2="47.013" gradientTransform="matrix(.54288 0 0 .46564 -1.0291 .84832)" gradientUnits="userSpaceOnUse">
   <stop id="stop3602-9" style="stop-color:#f4f4f4" offset="0"/>
   <stop id="stop3604-1" style="stop-color:#e6e6e6" offset="1"/>
  </linearGradient>
  <linearGradient id="linearGradient3248" x1="-51.786" x2="-51.786" y1="50.786" y2="2.9062" gradientTransform="matrix(.43837 0 0 .43577 31.224 .32938)" gradientUnits="userSpaceOnUse">
   <stop id="stop3933" style="stop-color:#797b75" offset="0"/>
   <stop id="stop3935" style="stop-color:#bebebe" offset="1"/>
  </linearGradient>
  <linearGradient id="linearGradient2264">
   <stop id="stop2266" style="stop-color:#d7e866" offset="0"/>
   <stop id="stop2268" style="stop-color:#8cab2a" offset="1"/>
  </linearGradient>
  <linearGradient id="linearGradient4174" x1="12" x2="12" y1="2" y2="7" gradientTransform="matrix(.94444 0 0 .8 .66667 .9)" gradientUnits="userSpaceOnUse" xlink:href="#linearGradient2264"/>
  <linearGradient id="linearGradient4198" x1="12" x2="12" y1="2" y2="7" gradientTransform="matrix(.66667 0 0 .6 5.5 -7.7)" gradientUnits="userSpaceOnUse" xlink:href="#linearGradient2264"/>
  <radialGradient id="radialGradient4208" cx="12" cy="25.749" r="11" gradientTransform="matrix(1 0 0 .29557 0 18.138)" gradientUnits="userSpaceOnUse">
   <stop id="stop4204" offset="0"/>
   <stop id="stop4206" style="stop-opacity:0" offset="1"/>
  </radialGradient>
 </defs>
 <path id="path4200" transform="matrix(1.0909 0 0 .61514 -1.0909 6.161)" d="m23 25.749a11 3.2513 0 1 1-22 0 11 3.2513 0 1 1 22 0z" style="fill:url(#radialGradient4208);opacity:.5"/>
 <path id="rect2594" d="m3.5 2.5h17v17h-17v-17z" style="fill:url(#linearGradient3246);stroke-linejoin:round;stroke-width:.99914;stroke:url(#linearGradient3248)"/>
 <rect id="rect2875" x="3.5" y="2.5" width="17" height="4" style="fill:url(#linearGradient4174);stroke-linejoin:round;stroke:#699536"/>
 <rect id="rect4194" x="4" y="9" width="16" height="1" style="fill:#bebebe"/>
 <rect id="rect4192" x="4" y="12" width="16" height="1" style="fill:#bebebe"/>
 <rect id="rect4196" transform="rotate(90)" x="7.5" y="-6.5" width="12" height="3" style="fill:url(#linearGradient4198);stroke-linejoin:round;stroke:#699536"/>
 <circle id="circle51" transform="matrix(.2381 0 0 .2381 .5 .49548)" cx="21" cy="21.019" r="21" style="fill:url(#radialGradient3494);stroke-width:4.2;stroke:url(#linearGradient3496)"/>
 <path id="path4552" d="m0.76567 6.0706c-0.046537 0.00577 3.4823-0.59156 4.7831 3.3404 0.81138-3.6487 4.7188-3.6825 4.6862-3.6808 0.09308 0-3.218-0.92324-4.7087 1.4271-1.513-2.075-4.8678-1.0866-4.7605-1.0866z" style="fill:#173561"/>
 <path id="path53" d="m0.71732 5.636c-0.046537 0.0057729 3.4823-0.59156 4.7831 3.3404 0.81138-3.6487 4.7188-3.6825 4.6862-3.6808 0.09308 0-3.218-1.1565-4.7087 1.1938-1.513-2.075-4.8678-0.85336-4.7605-0.85336z" style="fill:#fff"/>
 <path id="path4554" d="m3.572 3.0367s2.1007-0.45439 2.9244 1.8303c0.51607-2.1306 2.8651-1.9491 2.8651-1.9491s-1.9107-0.74511-2.879 0.65589c-0.99001-1.2466-2.9112-0.53709-2.9104-0.53709z" style="fill:#173561"/>
 <path id="path55" d="m3.572 2.5104s2.1007-0.45439 2.9244 1.8303c0.51607-2.1306 2.8651-1.9491 2.8651-1.9491s-1.9107-0.74511-2.879 0.65589c-0.99001-1.2466-2.9112-0.53709-2.9104-0.53709z" style="fill:#fff"/>
 <path id="path4812" d="m3 18v2.8411h0.00168c0.042176 1.1941 4.0539 2.1589 8.9983 2.1589 4.9449 0 8.9561-0.96485 8.9977-2.1589h0.0023l-5e-5 -2.8411h-18z" style="fill:#646464"/>
 <path id="path3652" d="m3 16.436v3.1496h0.00168c0.042184 1.3238 4.0539 2.3934 8.9983 2.3934 4.9449 0 8.9561-1.0696 8.9977-2.3934h0.0023v-3.1496h-18z" style="fill:url(#linearGradient4810)"/>
 <ellipse id="ellipse3654" transform="matrix(.5625 0 0 .47059 -25.125 -15.176)" cx="66" cy="67.131" rx="16" ry="5.131" style="fill:url(#linearGradient4786)"/>
 <path id="path3656" d="m7.2024 18.479v3.1496c1.3888 0.2353 3.033 0.37176 4.7976 0.37176 1.4304 0 2.7816-0.08988 3.9825-0.24894l0.0028-3.1496-4.3959-1.3431-4.3869 1.2202z" style="fill:url(#linearGradient4806)"/>
 <path id="path3658" d="m12 18.829c1.4316 0 2.7838-0.08941 3.9853-0.24894l-3.9853-2.1656-4.7976 2.0433c1.3888 0.2353 3.033 0.37129 4.7976 0.37129z" style="fill:url(#linearGradient4803)"/>
 <path id="path3660" d="m15.985 18.601-0.0028 3.1496c1.6746-0.22259 3.0538-0.57977 3.9392-1.0202v-3.1478l-2.8671 0.23529-1.0693 0.78306z" style="fill:url(#linearGradient4800)"/>
 <path id="path3662" d="m15.985 18.58c1.6723-0.22259 3.051-0.57882 3.9364-1.0184l-7.9217-1.1468 3.9853 2.1652z" style="fill:url(#linearGradient4797)"/>
</svg>
