<?xml version="1.0" encoding="UTF-8"?>
<!-- Created with Inkscape (http://www.inkscape.org/) -->
<svg id="svg2454" width="24" height="24" version="1.1" xmlns="http://www.w3.org/2000/svg" xmlns:xlink="http://www.w3.org/1999/xlink">
 <defs id="defs2456">
  <linearGradient id="linearGradient5060">
   <stop id="stop5062" offset="0"/>
   <stop id="stop5064" style="stop-opacity:0" offset="1"/>
  </linearGradient>
  <linearGradient id="linearGradient2601">
   <stop id="stop2603" style="stop-color:#5d5d5d" offset="0"/>
   <stop id="stop2605" style="stop-color:#444" offset="1"/>
  </linearGradient>
  <linearGradient id="linearGradient2613">
   <stop id="stop2615" style="stop-color:#fff" offset="0"/>
   <stop id="stop2617" style="stop-color:#fff;stop-opacity:0" offset="1"/>
  </linearGradient>
  <linearGradient id="linearGradient2502">
   <stop id="stop2504" style="stop-color:#fdfdfd" offset="0"/>
   <stop id="stop2506" style="stop-color:#d4d4d4" offset="1"/>
  </linearGradient>
  <linearGradient id="linearGradient2926" x1="5.4635" x2="21.536" y1="13.143" y2="49.143" gradientTransform="matrix(.47129 0 0 .46051 .48696 1.4455)" gradientUnits="userSpaceOnUse" xlink:href="#linearGradient2613"/>
  <radialGradient id="radialGradient2929" cx="27.216" cy="35.673" r="19.571" gradientTransform="matrix(1.4363 0 0 1.0682 -32.571 -26.034)" gradientUnits="userSpaceOnUse" xlink:href="#linearGradient2601"/>
  <linearGradient id="linearGradient3010" x1="2.7612" x2="18.773" y1="6.1103" y2="18.693" gradientTransform="matrix(.50608 0 0 .52813 -21.56 -.91009)" gradientUnits="userSpaceOnUse" xlink:href="#linearGradient2502"/>
  <linearGradient id="linearGradient3036" x1="13.303" x2="8.693" y1="11.104" y2="18.146" gradientTransform="matrix(.48523 0 0 .42676 -.6728 .71027)" gradientUnits="userSpaceOnUse" xlink:href="#linearGradient2613"/>
  <linearGradient id="linearGradient3041" x1="10.661" x2="10.661" y1="10.733" y2="19.656" gradientTransform="matrix(.48523 0 0 .42676 -.6728 .71027)" gradientUnits="userSpaceOnUse" xlink:href="#linearGradient2601"/>
  <linearGradient id="linearGradient3057" x1="2.7612" x2="18.773" y1="6.1103" y2="18.693" gradientTransform="matrix(.52675 0 0 .52557 .59835 3.043)" gradientUnits="userSpaceOnUse" xlink:href="#linearGradient2502"/>
  <radialGradient id="radialGradient3060" cx="605.71" cy="486.65" r="117.14" gradientTransform="matrix(-.035497 0 0 .012353 25.812 16.471)" gradientUnits="userSpaceOnUse" xlink:href="#linearGradient5060"/>
  <radialGradient id="radialGradient3063" cx="605.71" cy="486.65" r="117.14" gradientTransform="matrix(.035497 0 0 .012353 -1.8118 16.471)" gradientUnits="userSpaceOnUse" xlink:href="#linearGradient5060"/>
  <linearGradient id="linearGradient3066" x1="302.86" x2="302.86" y1="366.65" y2="609.51" gradientTransform="matrix(.031409 0 0 .012353 .64534 16.471)" gradientUnits="userSpaceOnUse">
   <stop id="stop5050" style="stop-opacity:0" offset="0"/>
   <stop id="stop5056" offset=".5"/>
   <stop id="stop5052" style="stop-opacity:0" offset="1"/>
  </linearGradient>
 </defs>
 <rect id="rect2990" transform="matrix(-.97986 .19969 .15288 .98824 0 0)" x="-20.697" y="4.5577" width="20.145" height="3.4375" rx="1.1483" ry="1.1331" style="display:block;fill:url(#linearGradient3010);stroke-width:1.0006;stroke:#2b2b2b"/>
 <path id="path2992" d="m18.453 1.2862 2.3359 2.3407-2.4421 0.40274-2.2838-2.2175 2.3899-0.52595z" style="fill-rule:evenodd"/>
 <path id="path2994" d="m13.794 2.2493 2.256 2.3389-2.416 0.46434-2.2299-2.2773 2.3899-0.52595z" style="fill-rule:evenodd"/>
 <path id="path2996" d="m8.908 3.2378 2.243 2.3081-2.416 0.46436-2.2169-2.2465 2.3899-0.52595z" style="fill-rule:evenodd"/>
 <path id="path2998" d="m1.7785 4.6707 2.076 2.3234 2.3929-0.48393-2.2279-2.2782-2.241 0.43876z" style="display:block"/>
 <rect id="rect3000" transform="matrix(-.98003 .19886 .15375 .98811 0 0)" x="-20.22" y="5.1812" width="19.202" height="2.1719" rx=".26632" ry=".26279" style="display:block;fill:none;stroke-opacity:.57513;stroke-width:1.0005;stroke:#fff"/>
 <rect id="rect4173" x="4.4145" y="21" width="15.166" height="3" style="fill:url(#linearGradient3066);opacity:.5"/>
 <path id="path5058" d="m19.581 21v2.9998c1.828 0.0056 4.4192-0.67211 4.4192-1.5001 0-0.828-2.0399-1.4997-4.4192-1.4997z" style="fill:url(#radialGradient3063);opacity:.5"/>
 <path id="path5018" d="m4.4192 21v2.9998c-1.828 0.005647-4.4192-0.67211-4.4192-1.5001 0-0.828 2.0399-1.4997 4.4192-1.4997z" style="fill:url(#radialGradient3060);opacity:.5"/>
 <rect id="rect1440" x="2.4991" y="8.4991" width="19.002" height="14.002" rx="1.1386" ry="1.1429" style="display:block;fill:url(#radialGradient2929);stroke-width:.99818;stroke:#1b1b1b"/>
 <rect id="rect2609" x="3.4995" y="9.4995" width="17.001" height="12.001" rx=".27318" ry=".27373" style="display:block;fill:none;opacity:.31156;stroke-width:.99902;stroke:url(#linearGradient2926)"/>
 <rect id="rect4362" transform="matrix(1 -.0019564 .0019232 1 0 0)" x="1.4966" y="8.4844" width="20.968" height="3.4208" rx="1.1501" ry="1.1341" style="display:block;fill:url(#linearGradient3057);stroke:#2b2b2b"/>
 <path id="path4364" d="m4.2588 8.8672-2.0273 2.7538 2.5788-0.097735 1.9935-2.6231-2.545-0.032981z" style="fill-rule:evenodd"/>
 <path id="path4366" d="m9.2101 8.8708-1.9453 2.736 2.5619-0.032385 1.9284-2.6706-2.545-0.032981z" style="fill-rule:evenodd"/>
 <path id="path4368" d="m14.399 8.8536-1.9369 2.7033 2.5619-0.03236 1.92-2.6379-2.545-0.032981z" style="fill-rule:evenodd"/>
 <path id="path4370" d="m21.969 8.8192-1.7625 2.6846-2.5412 0.0086 1.9261-2.6711 2.3776-0.022183z" style="display:block"/>
 <rect id="rect4372" transform="matrix(1 -.0027696 .0010057 1 0 0)" x="1.9964" y="9.1238" width="19.987" height="2.1615" rx=".26674" ry=".26304" style="display:block;fill:none;stroke-opacity:.57513;stroke:#fff"/>
 <path id="path3601" d="m5 15.505h14.394" style="fill:none;opacity:.26131;stroke:#fff"/>
 <path id="path3603" d="m5 17.5h14.394" style="fill:none;opacity:.26131;stroke:#fff"/>
 <path id="path3607" d="m16.5 15v-2.0605" style="fill:none;opacity:.26131;stroke:#fff"/>
 <path id="path3605" d="m5 17.5h14.394" style="fill:none;opacity:.26131;stroke:#fff"/>
 <path id="path3611" d="m11.5 15v-2.0605" style="fill:none;opacity:.26131;stroke:#fff"/>
 <path id="path3615" d="m5 19.5h6.8368" style="fill:none;opacity:.26131;stroke:#fff"/>
 <path id="path3674" d="m10.715 16.636c0.03987 0.38177 0.08593 0.76251 0.13859 1.1423l-0.73968 0.44117c-0.04666-0.37315-0.0858-0.74889-0.15828-1.1169l0.75936-0.46655z" style="fill:#fff"/>
 <path id="path3676" d="m12.066 16.966c-0.0085 0.82245 0.23794 0.47181-0.67063 1.0241 0.28616-0.51563 0.76912-1.0357 1.2453-0.57158 0.90934 0.16679-0.50319 0.98176 0.12464 0.12433 0.91244-0.89785 0.77989-0.39457 1.5456-0.34356 0.62475 0.17017 0.63035 0.02228-0.20012 0.56036 0.01124-0.01105 0.02248-0.02209 0.03372-0.03314l0.78562-0.37457c-0.0089 0.0153-0.01775 0.03061-0.02663 0.04591-0.98661 0.66353-0.5855 0.46824-1.28 0.3664-0.65497-0.12962-1.0091-0.21886-0.0775-0.58728-0.39987 0.51181-1.0462 1.3053-1.6208 0.7448-0.55747-0.46301 0.74838-0.9546 0.26833-0.28914-0.94141 0.58487-0.84241 0.61384-0.89866-0.22385l0.77105-0.44282z" style="fill:#fff"/>
 <path id="path3678" d="m16.105 16c0.05121 0.59648 0.07924 1.1944 0.14218 1.7898 0.49955 0.73207-0.64115 1.833-0.47279 0.71549 0.12005-1.2831 0.22822-1.5206 1.2384-1.9303 0.1922 0.38896 0.2975 0.84567 0.598 1.0791-1.6986 1.0093 0.5944-0.5859 0.8496-0.73863 0.16316-0.04317 0.32983-0.06539 0.49562-0.09127l-0.67406 0.56853c-0.16313 0.02693-0.32815 0.04703-0.48604 0.1033 1.0523-0.75613-0.19947 0.33301-0.87946 0.71894-0.32418-0.28647-0.40128-0.74934-0.6258-1.1393 1.104-0.87765 0.22201-0.05587 0.22386 1.0195-0.0995 0.92959-1.1652 1.4042-0.98788 0.12122-0.06063-0.58613-0.08774-1.1797-0.18603-1.7592l0.76443-0.45709z" style="fill:#fff"/>
 <path id="path3693" d="m5.3974 13.96c0.97152-0.71923 0.6014-0.15164 0.60208 0.6187-0.00782 0.69395 0.093843 1.3794 0.24672 2.0536l-0.67383 0.368c-0.15321-0.67968-0.25578-1.3704-0.25361-2.0697-0.01057-0.83769-0.15401-1.0534 0.71878-1.4409l-0.64014 0.47026z" style="fill:#fff"/>
 <path id="path3695" d="m7.6889 13.981c-0.013003 0.42635-0.012795 0.85306-0.0144 1.2796-5.869e-4 0.17907-5.335e-4 0.35814-6.936e-4 0.53721l-0.67479 0.34764c-1.638e-4 -0.17882-1.377e-4 -0.35765-6.936e-4 -0.53648-0.0016-0.42158-0.00128-0.84335-0.0144-1.2647l0.70502-0.36322z" style="fill:#fff"/>
 <path id="path3697" d="m8.8746 13.327c0.052699 0.42961 0.062482 0.89292 0.077444 1.334 0.00427 0.13011 0.00704 0.26025 0.010559 0.39038l-0.67097 0.34806c-0.00416-0.12954-0.00704-0.25913-0.012522-0.38863-0.019096-0.43973-0.02226-0.88917-0.10954-1.3206l0.70502-0.36322z" style="fill:#fff"/>
 <path id="path3699" d="m10.168 13c-0.10466 0.36804-0.14344 0.75304-0.18016 1.1349-0.035961 0.41067-0.052085 0.82264-0.068645 1.2344l-0.67073 0.3424c0.015985-0.41183 0.031784-0.82373 0.061649-1.2348 0.029543-0.37123 0.044285-0.75827 0.15287-1.1136l0.70502-0.36322z" style="fill:#fff"/>
 <path id="path3701" d="m4.6401 13.925c0.48378 0.103 0.97468 0.18804 1.4631 0.27175 1.1471 0.17919 2.2978 0.33822 3.4511 0.47129 0.4823 0.049907 0.96425 0.10265 1.4457 0.16008l-0.6232 0.44582c-0.4771-0.059606-0.95463-0.11534-1.4325-0.16844-1.1537-0.1405-2.3055-0.29925-3.4547-0.47321-0.4952-0.08049-0.99341-0.17879-1.4896-0.23704l0.64014-0.47026z" style="fill:#fff"/>
 <path id="path3583" d="m3.9515 9.3812 2.4417-1.8128c0.14561-0.1081 0.13015-0.28784-0.035761-0.39064l-3.0109-1.6064c-0.32946-0.17577-0.88168 0.034541-0.83644 0.32546l0.085647 2.9611c-0.068975 0.52055 0.97489 0.80594 1.3557 0.52322z" style="fill-rule:evenodd;fill:url(#linearGradient3041);stroke-width:1.015;stroke:#1b1b1b"/>
 <path id="path3587" d="m3.6769 6.6146a0.23395 0.20576 0 0 1-0.4679 0 0.23395 0.20576 0 1 1 0.4679 0z" style="display:block;fill:#fff"/>
 <path id="path3589" d="m3.6769 8.5825a0.23395 0.20576 0 0 1-0.4679 0 0.23395 0.20576 0 1 1 0.4679 0z" style="display:block;fill:#fff"/>
 <path id="path10163" d="m3.8436 8.942 2.0236-1.5621-2.843-1.4732 0.06333 2.8569c-0.046922 0.34938 0.49702 0.3682 0.75608 0.17844z" style="fill:none;opacity:.4;stroke-linejoin:round;stroke-width:1.015;stroke:url(#linearGradient3036)"/>
</svg>
