<?xml version="1.0" encoding="UTF-8"?>
<!-- Created with Inkscape (http://www.inkscape.org/) -->
<svg id="svg4289" width="24" height="24" version="1.1" xmlns="http://www.w3.org/2000/svg" xmlns:xlink="http://www.w3.org/1999/xlink">
 <defs id="defs4291">
  <linearGradient id="linearGradient2871" x1="-2.8532" x2="28.06" y1="19.599" y2="19.599" gradientTransform="matrix(.67783 0 0 .66753 -3.9523 -.83078)" gradientUnits="userSpaceOnUse">
   <stop id="stop3929" style="stop-color:#8badea" offset="0"/>
   <stop id="stop3931" style="stop-color:#6396cd" offset=".34315"/>
   <stop id="stop3933" style="stop-color:#3b7caf" offset=".69598"/>
   <stop id="stop3935" style="stop-color:#206494" offset="1"/>
  </linearGradient>
  <linearGradient id="linearGradient3943" x1="30" x2="-11" y1="30" y2="30" gradientTransform="matrix(.51106 0 0 .49987 -.26455 .25543)" gradientUnits="userSpaceOnUse">
   <stop id="stop2788" style="stop-color:#1f4a69" offset="0"/>
   <stop id="stop2790" style="stop-color:#4083c2" offset="1"/>
  </linearGradient>
  <radialGradient id="radialGradient3991" cx="62.625" cy="4.625" r="10.625" gradientTransform="matrix(1.2235 0 0 .37647 -64.624 18.259)" gradientUnits="userSpaceOnUse">
   <stop id="stop8840" offset="0"/>
   <stop id="stop8842" style="stop-opacity:0" offset="1"/>
  </radialGradient>
  <linearGradient id="linearGradient4007" x1="1.9997" x2="37.661" y1="24.491" y2="24.491" gradientTransform="matrix(.48837 0 0 .47033 .27925 .98095)" gradientUnits="userSpaceOnUse">
   <stop id="stop4875" style="stop-color:#fff" offset="0"/>
   <stop id="stop4877" style="stop-color:#fff;stop-opacity:0" offset="1"/>
  </linearGradient>
  <linearGradient id="linearGradient4019" x1="6.0052" x2="18.982" y1="12.517" y2="12.517" gradientUnits="userSpaceOnUse">
   <stop id="stop4122" style="stop-color:#fff" offset="0"/>
   <stop id="stop4124" style="stop-color:#fff;stop-opacity:.23529" offset="1"/>
  </linearGradient>
 </defs>
 <path id="path8836" d="m25 20c0 2.2091-5.8203 4-13 4-7.1797 0-13-1.7909-13-4 0-2.2091 5.8203-4 13-4 7.1797 0 13 1.7909 13 4z" style="fill-rule:evenodd;fill:url(#radialGradient3991);opacity:.3"/>
 <path id="path4319" d="m0.50204 5.1407c-0.022586-0.78642 3.4291-1.7545 6.9656-1.6297 3.5364 0.12478 4.4805 1.3282 8.4876 1.4932 3.7116 0.15291 7.5671-0.99944 7.5445-0.19819v14.91c0.03194 1.0591-3.4972 1.7956-7.5052 1.784-4.008-0.01152-4.7525-1.4324-8.5269-1.4996-3.7723-0.0672-7.0614 1.3686-6.9656-0.11126v-14.748z" style="fill-rule:evenodd;fill:url(#linearGradient2871);stroke-linejoin:round;stroke:url(#linearGradient3943)"/>
 <path id="path5213" d="m1.5002 5.7279c-0.026646-0.51391 3.187-1.3489 6.4157-1.2132 3.2159 0.13514 4.0748 1.2819 7.721 1.4048 3.6865 0.12422 6.8789-0.67544 6.8631-0.27046v13.714c-0.0083 0.43167-3.178 1.15-6.8273 1.1372-3.646-0.01276-4.3235-1.4281-7.7567-1.4986-3.4315-0.07043-6.4157 1.0654-6.4157-0.017225v-13.256z" style="fill:none;opacity:.3;stroke:url(#linearGradient4007)"/>
 <path id="path5577-5" d="m11.781 7.0625c-0.87001 0.13151-1.6921 0.55054-2.3358 1.1492-0.594 0.54703-1.007 1.277-1.258 2.0383-0.20998 0.82782-0.30593 1.7381 0.03906 2.5437 0.21237 0.56509 0.49367 1.1051 0.86719 1.5813 0.00716 0.20161-0.26831 0.25786-0.25 0.46875 0.27447-0.22702 0.77934-0.12537 0.90625 0.21875 0.88861 0.6685 1.9611 1.0658 3.0543 1.2546 0.93433 0.08063 1.9271-0.10652 2.727-0.6296 0.82258-0.52311 1.2657-1.4598 1.4077-2.3986 0.17429-0.92077-0.0095-1.8747-0.39547-2.7187-0.46484-0.97497-1.0165-1.9686-1.9116-2.6131-0.78997-0.58657-1.7844-0.99998-2.782-0.90315l-0.068605 0.0085756zm-4.625 0.9375c-0.73451 0.67527-0.90047 1.7473-1.0938 2.6875-0.1099 0.85422-0.063114 1.7231 0.16934 2.5523 0.23118 0.90613 0.66619 1.7499 1.2057 2.5102 0.63815 0.73601 1.3581 1.4243 2.2917 1.7625 0.643 0.31361 1.4013 0.59026 2.1145 0.39373 0.34538-0.35886-0.04078-0.88992-0.46875-0.9375-0.8764-0.18045-1.7124-0.56238-2.42-1.119-0.69474-0.61662-1.2714-1.4042-1.6112-2.2716-0.31759-0.86394-0.40619-1.7895-0.31253-2.7032 0.065375-0.74785 0.32479-1.4443 0.6875-2.0938 0.11359-0.26855 0.11602-0.64971-0.21875-0.75-0.098228-0.070059-0.23623-0.090234-0.34375-0.03125zm5.0625 0.09375c0.87814 0.078962 1.7561 0.41208 2.3438 1.0938 0.40987 0.64212 0.98203 1.2037 1.1562 1.9688-0.53125-0.625-1.0625-1.25-1.5938-1.875 0.09375 0.42708 0.1875 0.85417 0.28125 1.2812-0.61537-0.69943-1.3457-1.6005-2.3958-1.4095-0.77736 0.11811-1.5213 0.61925-1.7917 1.3782-0.04786 0.4749-0.49091 0.7205-0.875 0.90625 0.55417 0.10948 0.78535 0.66915 0.90625 1.1562-0.19128-0.21438-0.28306 0.18628-0.34375 0.3125-0.10417 0.1875-0.20833 0.375-0.3125 0.5625-0.46271-0.73123-0.66944-1.6399-0.5625-2.5 0.18792-0.93306 0.69586-1.8125 1.5-2.3438 0.4874-0.34122 1.0826-0.58227 1.6875-0.53125zm5.4375 0.53125c-0.57721 0.29623-0.30519 1.0537-0.09375 1.5 0.31405 0.89497 0.55518 1.8475 0.44071 2.802-0.05618 0.80889-0.27352 1.6227-0.69071 2.323-0.48527 0.64898-1.0138 1.3389-1.7818 1.6566-0.74 0.46118-1.6483 0.28877-2.4427 0.54472-0.1541-2.56e-4 -0.02039 0.21206-0.0568 0.29873-0.0075 0.38154 0.37988 0.56842 0.71294 0.44856 0.95491-0.0597 1.9103-0.28383 2.7204-0.79996 0.86854-0.60066 1.5459-1.4866 1.9679-2.4502 0.32497-0.85215 0.46542-1.7616 0.53621-2.6672 0.0412-0.93553-0.17719-1.8622-0.50781-2.7312-0.17492-0.34205-0.30822-0.89441-0.74219-0.95626l-0.0625 0.03125zm-5.0938 1.5312c0.59204 0.17637 1.1168 0.69864 1.125 1.3438 0.16863 0.38789 0.50102 0.85637 0.16825 1.2573-0.39731 0.7514-1.4729 0.69622-2.0391 0.17259-0.15562-0.07949-0.28137-0.19223-0.37914-0.3361 0.36257 0.134 0.27758-0.38285 0.28125-0.58906v-0.56719h-0.71875c0.19909-0.67635 0.74738-1.4831 1.5625-1.2812zm3.3438 1.7188c0.17689 0.81528 0.14048 1.7656-0.40625 2.4375v-1.25c-0.16667-0.1875-0.33333-0.375-0.5-0.5625 0.23946-0.32426 0.62017-0.49973 0.875-0.8125l0.03005 0.18032 0.0012 0.0072zm-4.0312 2.2188c0.47156 0.18427 0.96688 0.27407 1.4688 0.21875 0.41667 0.27083 0.83333 0.54167 1.25 0.8125-0.88468 0.225-1.8333 0.37343-2.7031 2.7e-5 -0.55936-0.20489-1.058-0.54095-1.5469-0.87503 0.3023-0.29845 0.86053-0.51427 1.2525-0.31555l0.15872 0.0907 0.12006 0.0686z" style="block-progression:tb;color:black;fill:url(#linearGradient4019);opacity:.8;text-indent:0;text-transform:none"/>
</svg>
