<?xml version="1.0" encoding="UTF-8"?>
<!-- Created with Inkscape (http://www.inkscape.org/) -->
<svg id="svg2" width="24" height="24" version="1.0" xmlns="http://www.w3.org/2000/svg" xmlns:xlink="http://www.w3.org/1999/xlink">
 <defs id="defs4">
  <radialGradient id="radialGradient3418" cx="11.25" cy="19.031" r="8.0625" gradientTransform="matrix(1.1045 0 0 .21477 -.29917 9.2762)" gradientUnits="userSpaceOnUse">
   <stop id="stop2487" style="stop-color:#0d0d0d" offset="0"/>
   <stop id="stop2489" style="stop-color:#0d0d0d;stop-opacity:0" offset="1"/>
  </radialGradient>
  <radialGradient id="radialGradient3415" cx="96.124" cy="-26.1" r="38.213" gradientTransform="matrix(-.00013187 .23597 -.37128 -.00024367 -6.7165 -21.775)" gradientUnits="userSpaceOnUse">
   <stop id="stop6164" style="stop-color:#f9650d" offset="0"/>
   <stop id="stop6166" style="stop-color:#c15619" offset="1"/>
  </radialGradient>
  <radialGradient id="radialGradient3413" cx="103.94" cy="-34.004" r="38.213" gradientTransform="matrix(-.0001319 .23597 -.37473 0 -9.7672 -23.612)" gradientUnits="userSpaceOnUse">
   <stop id="stop6158" style="stop-color:#ffc391" offset="0"/>
   <stop id="stop6160" style="stop-color:#fa650b" offset="1"/>
  </radialGradient>
  <radialGradient id="radialGradient3410" cx="100.62" cy="-22.827" r="116.22" gradientTransform="matrix(.0092348 .0060766 -.035938 .053571 2.5942 4.7626)" gradientUnits="userSpaceOnUse" xlink:href="#linearGradient6280"/>
  <radialGradient id="radialGradient3407" cx="26.686" cy="30.946" r="26.269" gradientTransform="matrix(.039713 -.0014146 .0020071 .055268 .08772 5.3741)" gradientUnits="userSpaceOnUse" xlink:href="#linearGradient6280"/>
  <radialGradient id="radialGradient3404" cx="26.686" cy="30.946" r="26.269" gradientTransform="matrix(.0365 -.0013001 .0018447 .050797 10.491 -.33746)" gradientUnits="userSpaceOnUse" xlink:href="#linearGradient6280"/>
  <linearGradient id="linearGradient6280">
   <stop id="stop6282" style="stop-color:#fff" offset="0"/>
   <stop id="stop6284" style="stop-color:#fff;stop-opacity:0" offset="1"/>
  </linearGradient>
  <radialGradient id="radialGradient3401" cx="100.62" cy="-22.827" r="116.22" gradientTransform="matrix(.00057345 .010718 .063085 -.003525 9.1891 1.017)" gradientUnits="userSpaceOnUse" xlink:href="#linearGradient6280"/>
  <linearGradient id="linearGradient3398" x1="25" x2="25" y1="11.923" y2="40.322" gradientTransform="matrix(.30348 0 0 .30156 7.8002 1.6983)" gradientUnits="userSpaceOnUse">
   <stop id="stop2266" style="stop-color:#d7e866" offset="0"/>
   <stop id="stop2268" style="stop-color:#8cab2a" offset="1"/>
  </linearGradient>
  <linearGradient id="linearGradient3395" x1="58.749" x2="105.32" y1="2.0478" y2="58.048" gradientTransform="matrix(.30489 0 0 .30156 -8.8977 .77916)" gradientUnits="userSpaceOnUse">
   <stop id="stop5115" style="stop-color:#fff" offset="0"/>
   <stop id="stop5117" style="stop-color:#fff;stop-opacity:0" offset="1"/>
  </linearGradient>
  <linearGradient id="linearGradient5060">
   <stop id="stop5062" offset="0"/>
   <stop id="stop5064" style="stop-opacity:0" offset="1"/>
  </linearGradient>
  <linearGradient id="linearGradient2869" x1="9.599" x2="4.459" y1="13.499" y2="8.3495" gradientTransform="matrix(.98925 0 0 1.4696 .12903 -10.339)" gradientUnits="userSpaceOnUse">
   <stop id="stop3486-2" style="stop-color:#969696" offset="0"/>
   <stop id="stop3488-0" style="stop-color:#b4b4b4" offset="1"/>
  </linearGradient>
  <linearGradient id="linearGradient2872" x1="53.991" x2="53.991" y1="87.896" y2="104.28" gradientTransform="matrix(.19046 0 0 .24853 .090799 -3.4847)" gradientUnits="userSpaceOnUse">
   <stop id="stop2223-6" style="stop-color:#7a7a7a" offset="0"/>
   <stop id="stop2219-1" style="stop-color:#474747" offset="1"/>
  </linearGradient>
  <radialGradient id="radialGradient2877" cx="605.71" cy="486.65" r="117.14" gradientTransform="matrix(-.022183 0 0 .01086 16.259 17.381)" gradientUnits="userSpaceOnUse" xlink:href="#linearGradient5060"/>
  <radialGradient id="radialGradient2880" cx="605.71" cy="486.65" r="117.14" gradientTransform="matrix(.022183 0 0 .01086 7.7407 17.381)" gradientUnits="userSpaceOnUse" xlink:href="#linearGradient5060"/>
  <linearGradient id="linearGradient2883" x1="302.86" x2="302.86" y1="366.65" y2="609.51" gradientTransform="matrix(.037768 0 0 .01086 -1.6503 17.381)" gradientUnits="userSpaceOnUse">
   <stop id="stop5050" style="stop-opacity:0" offset="0"/>
   <stop id="stop5056" offset=".5"/>
   <stop id="stop5052" style="stop-opacity:0" offset="1"/>
  </linearGradient>
  <linearGradient id="linearGradient4035">
   <stop id="stop4037" style="stop-color:#f5f5f5" offset="0"/>
   <stop id="stop4039" style="stop-color:#e7e7e7" offset=".47026"/>
   <stop id="stop4041" style="stop-color:#8c8c8c" offset=".69349"/>
   <stop id="stop4043" style="stop-color:#ddd" offset=".83543"/>
   <stop id="stop4045" style="stop-color:#a8a8a8" offset="1"/>
  </linearGradient>
  <radialGradient id="radialGradient4241" cx="113.07" cy="97.588" r="2.5631" fx="113.67" fy="98" gradientUnits="userSpaceOnUse">
   <stop id="stop4243" style="stop-color:#eee" offset="0"/>
   <stop id="stop4245" style="stop-color:#cecece" offset=".16"/>
   <stop id="stop4247" style="stop-color:#888" offset=".4675"/>
   <stop id="stop4249" style="stop-color:#555" offset="1"/>
  </radialGradient>
  <radialGradient id="radialGradient3248" cx="24" cy="42" r="21" gradientTransform="matrix(.52381 0 1.4569e-8 .21429 -.57143 11.5)" gradientUnits="userSpaceOnUse">
   <stop id="stop6312-6" style="stop-color:#fff" offset="0"/>
   <stop id="stop6314-6" style="stop-color:#fff;stop-opacity:0" offset="1"/>
  </radialGradient>
  <radialGradient id="radialGradient4072" cx="7.2203" cy="4.2333" r="12" gradientTransform="matrix(1.5194 .0037157 -.0030247 1.2368 -3.7373 .067833)" gradientUnits="userSpaceOnUse">
   <stop id="stop7064-4" style="stop-color:#e6e6e6" offset="0"/>
   <stop id="stop7060-2" style="stop-color:#c8c8c8" offset="1"/>
  </radialGradient>
  <radialGradient id="radialGradient8443" cx="113.07" cy="97.588" r="2.5631" fx="113.67" fy="98" gradientTransform="matrix(2.4957 0 0 2.4957 -223.98 -53.226)" gradientUnits="userSpaceOnUse" xlink:href="#radialGradient4241"/>
  <radialGradient id="radialGradient8464" cx="142.62" cy="191.85" r="78.728" gradientTransform="matrix(.092476 0 0 -.087162 -1.5556 24.366)" gradientUnits="userSpaceOnUse">
   <stop id="stop7611-3" style="stop-color:#fff" offset="0"/>
   <stop id="stop7677-2" style="stop-color:#e7e7e7" offset=".47026"/>
   <stop id="stop7613-4" style="stop-color:#8c8c8c" offset=".67184"/>
   <stop id="stop7617-3" style="stop-color:#ddd" offset=".83543"/>
   <stop id="stop7615-6" style="stop-color:#a8a8a8" offset="1"/>
  </radialGradient>
  <radialGradient id="radialGradient8471" cx="141.75" cy="206.43" r="78.728" gradientTransform="matrix(.18615 -.0031402 .0013777 .18068 -15.013 -20.636)" gradientUnits="userSpaceOnUse" xlink:href="#linearGradient4035"/>
  <radialGradient id="radialGradient8475" cx="127.32" cy="143.83" r="78.728" gradientTransform="matrix(.10006 -.023376 .0082168 .059717 -5.2741 -.91135)" gradientUnits="userSpaceOnUse" xlink:href="#linearGradient4035"/>
  <linearGradient id="linearGradient8487" x1="12.277" x2="12.222" y1="37.206" y2="33.759" gradientTransform="matrix(.73759 0 0 .53933 -2.796 2.187)" gradientUnits="userSpaceOnUse">
   <stop id="stop4238-4" style="stop-color:#eee" offset="0"/>
   <stop id="stop4240-3" style="stop-color:#eee;stop-opacity:0" offset="1"/>
  </linearGradient>
  <linearGradient id="linearGradient8490" x1="7.0625" x2="24.688" y1="35.281" y2="35.281" gradientTransform="matrix(.73759 0 0 .53933 -2.2092 1.4719)" gradientUnits="userSpaceOnUse">
   <stop id="stop6311" offset="0"/>
   <stop id="stop6313" style="stop-color:#bbb;stop-opacity:0" offset="1"/>
  </linearGradient>
 </defs>
 <rect id="rect2723" x="2.8818" y="21.363" width="18.236" height="2.6374" style="fill:url(#linearGradient2883);opacity:.40206"/>
 <path id="path2725" d="m21.109 21.363v2.6373c1.1423 5e-3 2.7616-0.59088 2.7616-1.3188 0-0.72793-1.2748-1.3185-2.7616-1.3185z" style="fill:url(#radialGradient2880);opacity:.40206"/>
 <path id="path2727" d="m2.8907 21.363v2.6373c-1.1424 5e-3 -2.7616-0.59088-2.7616-1.3188 0-0.72793 1.2748-1.3185 2.7616-1.3185z" style="fill:url(#radialGradient2877);opacity:.40206"/>
 <path id="rect2992" d="m23.5 18.5c-0.46639 3.38-0.35138 3.9815-1.1959 3.9815-0.33079 0.04823-13.337 0-20.654 0-0.91714 0-0.68541 0.06576-1.1498-3.9786l23-0.0029v-4.9e-5z" style="fill:url(#linearGradient2872);stroke-linejoin:round;stroke:#353537"/>
 <path id="rect9146" d="m2.7 19h13.3v3h-13l-0.3-3z" style="fill-rule:evenodd;fill:url(#linearGradient8490)"/>
 <path id="path9148" d="m3 22-0.2-2.1635c1.3539 1.7146 6.3194 2.1635 9.7426 2.1635h-9.5426z" style="fill-rule:evenodd;fill:url(#linearGradient8487);opacity:.81143"/>
 <path id="rect2990" d="m2.5 2-1.9774 16.483c-0.014949 0-0.022616 0.0044-0.022616 0.01667h23c0-0.01232-0.0077-0.01667-0.02261-0.01667l-1.9774-16.483c-0.09926-0.8274-1.1667-1.5-2-1.5h-15c-0.83333 0-1.9007 0.6726-2 1.5z" style="fill:url(#radialGradient4072);stroke-linecap:round;stroke-linejoin:round;stroke:url(#linearGradient2869)"/>
 <path id="path2215" d="m1.4991 18.5h21.002" style="fill:none;opacity:.6;stroke-linecap:round;stroke-linejoin:round;stroke:#fff"/>
 <rect id="rect6300-3" x="1" y="19" width="22" height="3" style="fill:url(#radialGradient3248);opacity:.2"/>
 <g id="g9164" transform="matrix(.066101 -.011416 .0079191 .045854 -.89214 -6.4254)">
  <path id="path9166" d="m48.3 190.28c0.31446 4.2476 5.0238 7.7116 10.514 7.7116 5.4879 0 9.6432-3.464 9.2763-7.7116-0.36437-4.2251-5.0712-7.6367-10.507-7.6367-5.438 2e-3 -9.5933 3.4116-9.2838 7.6367z" style="fill:#e6e6e6"/>
  <path id="path9168" d="m51.851 187.29c-0.50163 0.53906-1.0756 1.4026-1.0756 2.5506 0 0.0824 5e-3 0.16471 0.01 0.25206 0.21713 2.9274 3.8932 5.4006 8.026 5.4006 2.3534 0 4.5046-0.81109 5.7525-2.1737 0.53656-0.58149 1.148-1.5448 1.0382-2.8276-0.25206-2.9024-3.9232-5.3557-8.021-5.3557-2.3359 2e-3 -4.4797 0.8061-5.73 2.1538h-2e-5z" style="fill:url(#radialGradient8443)"/>
 </g>
 <g id="g9170" transform="matrix(.067079 0 0 .046533 15.651 -7.2131)">
  <path id="path9172" d="m48.3 190.28c0.31446 4.2476 5.0238 7.7116 10.514 7.7116 5.4879 0 9.6432-3.464 9.2763-7.7116-0.36437-4.2251-5.0712-7.6367-10.507-7.6367-5.438 2e-3 -9.5933 3.4116-9.2838 7.6367z" style="fill:#e6e6e6"/>
  <path id="path9174" d="m51.851 187.29c-0.50163 0.53906-1.0756 1.4026-1.0756 2.5506 0 0.0824 5e-3 0.16471 0.01 0.25206 0.21713 2.9274 3.8932 5.4006 8.026 5.4006 2.3534 0 4.5046-0.81109 5.7525-2.1737 0.53656-0.58149 1.148-1.5448 1.0382-2.8276-0.25206-2.9024-3.9232-5.3557-8.021-5.3557-2.3359 2e-3 -4.4797 0.8061-5.73 2.1538h-2e-5z" style="fill:url(#radialGradient8443)"/>
 </g>
 <path id="path8469" d="m14.531 1.8125c-0.27749 0-0.52468 0.080669-0.71875 0.21875-0.19407 0.13808-0.33544 0.35016-0.34375 0.59375-0.02564 0.74969-0.40816 1.2893-1.125 1.7812-0.71102 0.48797-1.7547 0.89986-3 1.2812-0.010197 0.00312-0.021024-0.00312-0.03125 0-0.471 0.098904-1.245 0.37608-2 0.65625-0.76572 0.28413-1.4648 0.5581-1.7812 0.78125-1.5979 1.0054-2.583 2.3417-2.7188 3.8125-0.12364 1.3391 0.47939 2.6794 1.6562 3.75 1.7217 1.5662 4.5353 2.5 7.5312 2.5 2.9959 0 5.8094-0.93383 7.5312-2.5 1.075-0.97766 1.6562-2.1551 1.6562-3.375 0-0.09948 0.0114-0.24227 0-0.375-0.11916-1.2911-0.91587-2.4834-2.1875-3.4375-0.03561-0.50437-0.34375-4.875-0.34375-4.875-0.017277-0.24368-0.17603-0.4572-0.375-0.59375s-0.44212-0.21875-0.71875-0.21875h-3.0312zm0 0.53125h3.0312c0.06724 0 0.12597 0.018412 0.15625 0.03125l0.375 5.125c-0.003496 0.020687-0.003496 0.041813 0 0.0625 0.009148 0.011612 0.019638 0.022102 0.03125 0.03125 0.015556 0.025516 0.036984 0.046944 0.0625 0.0625 1.232 0.84283 1.959 2.1272 2.0625 3.25 0.12887 1.3951-0.69926 2.5486-2.1875 3.4062s-3.6257 1.375-6.0625 1.375c-2.4368 0-4.5743-0.51734-6.0625-1.375s-2.3163-2.0111-2.1875-3.4062c0.11087-1.2006 0.95562-2.5364 2.3438-3.4062 0.011612-0.0091485 0.022102-0.019638 0.03125-0.03125 0.0045861-0.0040809 0.068685-0.04762 0.15625-0.09375s0.20815-0.095076 0.34375-0.15625c0.27119-0.12235 0.60098-0.26438 0.96875-0.40625 0.73555-0.28374 1.5684-0.54985 1.9688-0.625 0.010398 8.695e-4 0.020852 8.695e-4 0.03125 0 1.2093-0.36821 2.3581-0.8066 3.25-1.4062 0.87385-0.5875 1.5033-1.369 1.5625-2.4062 0.02028-0.00976 0.06108-0.03125 0.125-0.03125z" style="fill:url(#radialGradient8471)"/>
 <path id="path9156" d="m12 13c-1.6825 0-2.9723-0.84474-2.9995-1.9652-2.11e-4 -0.01254-4.212e-4 -0.02408-4.212e-4 -0.03587 0-0.40546 0.16905-0.79106 0.49029-1.1175 0.5434-0.55189 1.4816-0.88131 2.5098-0.88131 1.028 0 1.9662 0.32942 2.5096 0.8813 0.33072 0.33567 0.50019 0.73466 0.48986 1.1533-0.027622 1.1205-1.3174 1.9654-2.9997 1.9654v-6.3e-5 3e-6zm0.05026-2.746c-1.5809 0-2.4365 0.21014-2.4175 0.97447 0.01833 0.75242 1.0782 1.3536 2.3673 1.3536s2.349-0.60139 2.3673-1.3536c0.01876-0.76453-0.73621-0.97447-2.3171-0.97447z" style="fill:url(#radialGradient8464)"/>
 <path id="path8473" d="m4.9688 1.75c-0.067213 0.0181-0.12384 0.0634-0.15625 0.125-0.013291 0.019268-0.02381 0.040307-0.03125 0.0625l-0.0625 0.21875-0.84375 3.25-0.125 0.53125c-0.0059112 0.03097-0.0059112 0.06278 0 0.09375 0.0040757 0.033018 0.0147 0.06489 0.03125 0.09375 0.032413 0.0616 0.089037 0.1069 0.15625 0.125 0.040995 0.010584 0.084005 0.010584 0.125 0l0.40625-0.125 6.875-2.0312h0.03125c0.010406 6.516e-4 0.020844 6.516e-4 0.03125 0 0.010406 6.516e-4 0.020844 6.516e-4 0.03125 0 0.022193-0.0074397 0.043232-0.017959 0.0625-0.03125 0.46004-0.25376 0.69521-0.7426 0.75-1.1875 0.028063-0.22824 0.008372-0.4565-0.0625-0.65625-0.040252-0.1135-0.12619-0.22125-0.21875-0.3125s-0.21132-0.16107-0.375-0.15625h-0.03125-6.375-0.15625c-0.020751-0.0026142-0.041749-0.0026142-0.0625 0zm0.5 0.6875h5.9062c-0.01531 0.07778-0.03526 0.13056-0.0625 0.21875-0.04998 0.16184-0.14564 0.29336-0.125 0.28125l-6.25 1.8125 0.53125-2.3125z" style="fill:url(#radialGradient8475)"/>
 <g id="g9158" transform="matrix(-.097811 0 0 .10767 8.1622 -3.8183)">
  <path id="path9160" d="m48.3 190.28c0.31446 4.2476 5.0238 7.7116 10.514 7.7116 5.4879 0 9.6432-3.464 9.2763-7.7116-0.36437-4.2251-5.0712-7.6367-10.507-7.6367-5.438 2e-3 -9.5933 3.4116-9.2838 7.6367z" style="fill:#e6e6e6"/>
  <path id="path9162" d="m51.851 187.29c-0.50163 0.53906-1.0756 1.4026-1.0756 2.5506 0 0.0824 5e-3 0.16471 0.01 0.25206 0.21713 2.9274 3.8932 5.4006 8.026 5.4006 2.3534 0 4.5046-0.81109 5.7525-2.1737 0.53656-0.58149 1.148-1.5448 1.0382-2.8276-0.25206-2.9024-3.9232-5.3557-8.021-5.3557-2.3359 2e-3 -4.4797 0.8061-5.73 2.1538h-2e-5z" style="fill:url(#radialGradient8443)"/>
 </g>
 <g id="g9190" transform="matrix(.097811 0 0 .10767 15.777 -3.8183)">
  <path id="path9192" d="m48.3 190.28c0.31446 4.2476 5.0238 7.7116 10.514 7.7116 5.4879 0 9.6432-3.464 9.2763-7.7116-0.36437-4.2251-5.0712-7.6367-10.507-7.6367-5.438 2e-3 -9.5933 3.4116-9.2838 7.6367z" style="fill:#e6e6e6"/>
  <path id="path9194" d="m51.851 187.29c-0.50163 0.53906-1.0756 1.4026-1.0756 2.5506 0 0.0824 5e-3 0.16471 0.01 0.25206 0.21713 2.9274 3.8932 5.4006 8.026 5.4006 2.3534 0 4.5046-0.81109 5.7525-2.1737 0.53656-0.58149 1.148-1.5448 1.0382-2.8276-0.25206-2.9024-3.9232-5.3557-8.021-5.3557-2.3359 2e-3 -4.4797 0.8061-5.73 2.1538h-2e-5z" style="fill:url(#radialGradient8443)"/>
 </g>
 <path id="path2638" d="m21.032 13.363c0 0.95631-3.987 1.7316-8.9051 1.7316s-8.9051-0.77524-8.9051-1.7316c-1e-7 -0.95631 3.987-1.7316 8.9051-1.7316s8.9051 0.77524 8.9051 1.7316z" style="fill:url(#radialGradient3418);opacity:.16292"/>
 <path id="path2317" d="m12.091 0.50089c-0.7113 0-1.2835 0.57076-1.2833 1.2752-1.23e-4 0.70446 0.57204 1.2752 1.2833 1.2752 0.7113 0 1.2935-0.57076 1.2934-1.2752 1.22e-4 -0.70446-0.58207-1.2752-1.2934-1.2752zm-3.8199 1.2752c-0.64105 0.046939-1.2558 0.20576-1.8248 0.43836l1.153 1.9527c0.29428-0.092447 0.60018-0.14321 0.9224-0.1594 0.063074-0.0031562 0.12663 0 0.1905 0 1.7669 0 3.2414 1.2286 3.6094 2.8693h2.296c-0.16293-1.1927-0.69186-2.272-1.4638-3.1283-0.31704 0.16867-0.67791 0.25903-1.0628 0.25903-1.2083 0-2.2003-0.93885-2.2559-2.1221-0.36366-0.068815-0.73926-0.10959-1.1229-0.10959-0.077054 0-0.15425-0.0028788-0.2306 0-0.024852 9.373e-4 -0.045409-0.001237-0.070183 0-0.02334 0.0011668-0.046901-0.0014346-0.070182 0-0.022552 0.00139-0.04769-0.0016482-0.070183 0zm-3.2084 1.2354c-0.92455 0.71293-1.6297 1.6945-2.0052 2.8194 0.59319 0.40216 0.98256 1.0779 0.98256 1.8431 0 0.7652-0.38937 1.4409-0.98256 1.8431 0.37541 1.1252 1.0804 2.1072 2.0052 2.8194l1.143-1.9626c-0.73518-0.67013-1.1931-1.6333-1.1931-2.6999 0-1.0662 0.45882-2.0281 1.1931-2.6999l-1.143-1.9626zm-3.2685 3.3873c-0.7113 0-1.2935 0.57076-1.2934 1.2752-1.2192e-4 0.70446 0.58207 1.2752 1.2934 1.2752 0.7113 0 1.2835-0.57076 1.2833-1.2752 1.22e-4 -0.70446-0.57204-1.2752-1.2833-1.2752zm10.527 2.0722c-0.36795 1.6407-1.8425 2.8693-3.6094 2.8693-0.39117 0-0.75981-0.058497-1.1129-0.16936l-1.153 1.9527c0.69866 0.28566 1.4633 0.44832 2.2659 0.44832 0.38367 1e-6 0.75926-0.040774 1.1229-0.10959 0.05602-1.1335 0.97562-2.0504 2.1155-2.1221 0.047833-0.002997 0.091773 1e-6 0.14037 0 0.38486 0 0.74573 0.090359 1.0628 0.25903 0.77195-0.85633 1.3009-1.9356 1.4638-3.1283h-2.296zm-0.2306 3.8257c-0.7113 0-1.2835 0.57076-1.2833 1.2752-1.23e-4 0.70446 0.57204 1.2752 1.2833 1.2752 0.7113 0 1.2935-0.57076 1.2934-1.2752 1.22e-4 -0.70446-0.58207-1.2752-1.2934-1.2752z" style="fill:url(#radialGradient3413);stroke-width:1.0018;stroke:url(#radialGradient3415)"/>
 <path id="path2272" d="m5.0073 3.3922c-0.7758 0.63936-1.3755 1.4828-1.7174 2.4451 0.55943 0.42391 0.92703 1.0858 0.92703 1.8362 0 0.7504-0.3676 1.4123-0.92703 1.8362 0.34174 0.96254 0.94155 1.8062 1.7174 2.4451l0.9563-1.6429c-0.69006-0.67328-1.1222-1.605-1.1222-2.6384 0-1.0334 0.43272-1.9639 1.1222-2.6384l-0.9563-1.6429zm-0.078066 0.47355 0.64404 1.1211c-0.61704 0.68017-1.0088 1.5663-1.0441 2.5417-0.038881-0.70926-0.37068-1.3468-0.86848-1.7976 0.28527-0.70995 0.7221-1.3458 1.2686-1.8652zm-0.40009 3.9527c0.035272 0.97531 0.42612 1.862 1.0441 2.5417l-0.64404 1.1211c-0.54614-0.51912-0.98361-1.1551-1.2686-1.8652 0.49817-0.45083 0.8295-1.0882 0.86848-1.7976z" style="fill:url(#radialGradient3410);opacity:.6"/>
 <path id="path2284" d="m1.6684 6.6396c-0.52061 0.058163-0.92274 0.50095-0.92274 1.0339 0 0.57232 0.46604 1.0339 1.0439 1.0339 0.57787 0 1.0439-0.46156 1.0439-1.0339-3e-7 -0.57232-0.46604-1.0339-1.0439-1.0339-0.038298 0-0.069055-0.001122-0.083885 0-0.012625 9.455e-4 -0.024788-0.0013882-0.037282 0zm0.027962 0.29539c0.011853-0.0014476 0.025267 9.153e-4 0.037282 0 0.0093462-1.519e-4 0.029346 0 0.055924 0 0.4165 0 0.74565 0.32599 0.74565 0.73848 0 0.41249-0.32915 0.73848-0.74565 0.73848s-0.74565-0.32599-0.74565-0.73848c0-0.38153 0.28498-0.69323 0.65244-0.73848z" style="fill:url(#radialGradient3407);opacity:.6"/>
 <path id="path4951" d="m11.943 0.82571c-0.47849 0.053457-0.84809 0.46042-0.84809 0.95023 0 0.52601 0.42833 0.95023 0.95945 0.95023 0.53112 0 0.95946-0.42422 0.95946-0.95023 0-0.52601-0.42833-0.95023-0.95946-0.95023-0.035199 0-0.063468-0.0010316-0.077098 0-0.011604 8.6865e-4 -0.022783-0.0012759-0.034267 0zm0.0257 0.27149c0.010895-0.0013301 0.023223 8.415e-4 0.034266 0 0.00859-1.393e-4 0.026972 0 0.0514 0 0.3828 0 0.68532 0.29961 0.68532 0.67874 0 0.37912-0.30252 0.67873-0.68532 0.67873-0.3828 0-0.68533-0.29962-0.68533-0.67873 0-0.35067 0.26193-0.63714 0.59966-0.67874z" style="fill:url(#radialGradient3404);opacity:.6"/>
 <path id="path4955" d="m6.8367 2.3549c0.92445-0.33179 1.9345-0.41563 2.9175-0.22534 0.081943 0.67686 0.46006 1.3112 1.0948 1.6823 0.63474 0.37107 1.3764 0.39136 2.0116 0.13374 0.64521 0.7614 1.0623 1.6796 1.219 2.6435l-1.8626-0.013715c-0.22828-0.90929-0.80273-1.7309-1.6768-2.2419-0.87414-0.51102-1.8752-0.60973-2.7867-0.3674l-0.91684-1.6111zm0.43917 0.16897 0.62981 1.0923c0.88046-0.17902 1.8238-0.067982 2.6663 0.38481-0.58072-0.3832-0.95589-0.97557-1.0911-1.6143-0.7416-0.1128-1.4955-0.062404-2.205 0.13717zm3.5414 1.6205c0.80755 0.51175 1.3643 1.2766 1.6337 2.1289l1.2668 0.016453c-0.16905-0.71284-0.49069-1.3927-0.95045-1.9819-0.62769 0.19314-1.3307 0.15468-1.95-0.16353z" style="fill:url(#radialGradient3401);opacity:.6"/>
 <path id="path4972" d="m21.5 9.5-4.4544 5-4.5456-5h2.7602c0.62131-1.6544-0.65451-2.8116-2.1338-2.8116-1.0512 0-2.4774 0.57446-2.9591 2.0028-0.25057 0.7429-0.69191 0.41746-0.67486-0.2282 0.066016-2.4914 1.9249-4.4839 4.7-4.4839s4.8365 2.2449 4.6808 5.5209h2.6268z" style="fill:url(#linearGradient3398);stroke:#699536"/>
 <path id="path4980" d="m19.265 10.556-2.2615 2.4295-2.2037-2.5132h1.2099c0.95082-2.1044-0.61187-4.7207-2.4958-4.7509-1.3569-0.10565-2.8253 1.3845-3.5657 2.2783 0.47183-2.1162 1.9809-2.9838 4.3015-2.9882 2.3445-0.0044085 3.9769 1.9426 3.4586 5.4608l1.5567 0.083769z" style="fill:none;opacity:.354;stroke:url(#linearGradient3395)"/>
</svg>
