<?xml version="1.0" encoding="UTF-8" standalone="no"?>
<!-- Created with Inkscape (http://www.inkscape.org/) -->

<svg
   xmlns:dc="http://purl.org/dc/elements/1.1/"
   xmlns:cc="http://creativecommons.org/ns#"
   xmlns:rdf="http://www.w3.org/1999/02/22-rdf-syntax-ns#"
   xmlns:svg="http://www.w3.org/2000/svg"
   xmlns="http://www.w3.org/2000/svg"
   xmlns:xlink="http://www.w3.org/1999/xlink"
   xmlns:sodipodi="http://sodipodi.sourceforge.net/DTD/sodipodi-0.dtd"
   xmlns:inkscape="http://www.inkscape.org/namespaces/inkscape"
   width="48.000008"
   height="48"
   id="svg4545"
   version="1.1"
   inkscape:version="0.48.3.1 r9886"
   sodipodi:docname="New document 5">
  <defs
     id="defs4547">
    <radialGradient
       inkscape:collect="always"
       xlink:href="#linearGradient4147"
       id="radialGradient4548"
       gradientUnits="userSpaceOnUse"
       gradientTransform="matrix(1,0,0,0.14285714,0,116.57143)"
       cx="88"
       cy="136"
       fx="88"
       fy="136"
       r="56" />
    <linearGradient
       inkscape:collect="always"
       id="linearGradient4147">
      <stop
         style="stop-color:#000000;stop-opacity:1;"
         offset="0"
         id="stop4149" />
      <stop
         style="stop-color:#000000;stop-opacity:0;"
         offset="1"
         id="stop4151" />
    </linearGradient>
    <filter
       color-interpolation-filters="sRGB"
       inkscape:collect="always"
       id="filter7008-1-41"
       x="-0.05617585"
       width="1.1123517"
       y="-0.39323094"
       height="1.7864619">
      <feGaussianBlur
         inkscape:collect="always"
         stdDeviation="2.6215397"
         id="feGaussianBlur7010-9-35" />
    </filter>
    <linearGradient
       inkscape:collect="always"
       xlink:href="#linearGradient5449"
       id="linearGradient4550"
       gradientUnits="userSpaceOnUse"
       x1="232"
       y1="948.36218"
       x2="232"
       y2="951.36218" />
    <linearGradient
       id="linearGradient5449">
      <stop
         id="stop5451"
         offset="0"
         style="stop-color:#ed5012;stop-opacity:1;" />
      <stop
         id="stop5453"
         offset="1"
         style="stop-color:#bc3f0e;stop-opacity:1;" />
    </linearGradient>
    <linearGradient
       inkscape:collect="always"
       xlink:href="#radialGradient4201"
       id="linearGradient4552"
       gradientUnits="userSpaceOnUse"
       gradientTransform="translate(0,476.36218)"
       x1="229.45494"
       y1="436.2261"
       x2="229.45494"
       y2="469" />
    <radialGradient
       r="145.95"
       gradientTransform="matrix(0.5424,0,0,0.5424,338.17,67.963)"
       cx="-514.13"
       cy="9.8095999"
       gradientUnits="userSpaceOnUse"
       id="radialGradient4201">
      <stop
         id="stop4203"
         offset="0"
         style="stop-color:#ed8246;stop-opacity:1;" />
      <stop
         style="stop-color:#ee6d2e;stop-opacity:1;"
         offset="0.68272263"
         id="stop4205" />
      <stop
         style="stop-color:#ef783d;stop-opacity:1;"
         offset="0.70102447"
         id="stop4207" />
      <stop
         id="stop4209"
         offset="1"
         style="stop-color:#f07f48;stop-opacity:1;" />
    </radialGradient>
    <linearGradient
       inkscape:collect="always"
       xlink:href="#linearGradient5410"
       id="linearGradient4554"
       gradientUnits="userSpaceOnUse"
       gradientTransform="translate(0,-64)"
       x1="225"
       y1="972.36218"
       x2="225"
       y2="976.36218" />
    <linearGradient
       id="linearGradient5410">
      <stop
         id="stop5412"
         offset="0"
         style="stop-color:#e55016;stop-opacity:1;" />
      <stop
         id="stop5414"
         offset="1"
         style="stop-color:#c44c1c;stop-opacity:1;" />
    </linearGradient>
    <linearGradient
       inkscape:collect="always"
       xlink:href="#linearGradient5428"
       id="linearGradient4556"
       gradientUnits="userSpaceOnUse"
       x1="231.83519"
       y1="912.2973"
       x2="232.16481"
       y2="907.32751" />
    <linearGradient
       inkscape:collect="always"
       id="linearGradient5428">
      <stop
         style="stop-color:#ed9666;stop-opacity:1;"
         offset="0"
         id="stop5430" />
      <stop
         style="stop-color:#ed9666;stop-opacity:0;"
         offset="1"
         id="stop5432" />
    </linearGradient>
    <linearGradient
       inkscape:collect="always"
       xlink:href="#linearGradient5416"
       id="linearGradient4558"
       gradientUnits="userSpaceOnUse"
       gradientTransform="translate(0,476.36218)"
       x1="215"
       y1="434"
       x2="215"
       y2="438" />
    <linearGradient
       id="linearGradient5416">
      <stop
         id="stop5418"
         offset="0"
         style="stop-color:#d64912;stop-opacity:1;" />
      <stop
         id="stop5420"
         offset="1"
         style="stop-color:#d64912;stop-opacity:0;" />
    </linearGradient>
    <linearGradient
       inkscape:collect="always"
       xlink:href="#linearGradient4147"
       id="linearGradient4560"
       gradientUnits="userSpaceOnUse"
       gradientTransform="translate(0,476.36218)"
       x1="215"
       y1="434.5"
       x2="221"
       y2="434.5" />
    <linearGradient
       inkscape:collect="always"
       xlink:href="#linearGradient5416"
       id="linearGradient4562"
       gradientUnits="userSpaceOnUse"
       gradientTransform="matrix(-1,0,0,1,464,476.36218)"
       x1="215"
       y1="434"
       x2="215"
       y2="438" />
    <linearGradient
       id="linearGradient4446">
      <stop
         id="stop4448"
         offset="0"
         style="stop-color:#d64912;stop-opacity:1;" />
      <stop
         id="stop4450"
         offset="1"
         style="stop-color:#d64912;stop-opacity:0;" />
    </linearGradient>
    <linearGradient
       inkscape:collect="always"
       xlink:href="#linearGradient4147"
       id="linearGradient4564"
       gradientUnits="userSpaceOnUse"
       gradientTransform="matrix(-1,0,0,1,464,476.36218)"
       x1="215"
       y1="434.5"
       x2="221"
       y2="434.5" />
    <radialGradient
       inkscape:collect="always"
       xlink:href="#linearGradient5404"
       id="radialGradient4566"
       gradientUnits="userSpaceOnUse"
       gradientTransform="matrix(7.7508966e-7,1.5172416,-1.9310345,9.8647762e-7,1051.5725,590.18928)"
       cx="213"
       cy="434.26086"
       fx="213"
       fy="434.26086"
       r="14.5" />
    <linearGradient
       id="linearGradient5404">
      <stop
         id="stop5406"
         offset="0"
         style="stop-color:#e89c59;stop-opacity:1;" />
      <stop
         id="stop5408"
         offset="1"
         style="stop-color:#e89c59;stop-opacity:0;" />
    </linearGradient>
    <linearGradient
       inkscape:collect="always"
       xlink:href="#linearGradient5436"
       id="linearGradient4568"
       gradientUnits="userSpaceOnUse"
       x1="227"
       y1="431"
       x2="227"
       y2="439" />
    <linearGradient
       id="linearGradient5436">
      <stop
         id="stop5438"
         offset="0"
         style="stop-color:#f07e51;stop-opacity:1;" />
      <stop
         id="stop5440"
         offset="1"
         style="stop-color:#ec5d24;stop-opacity:1;" />
    </linearGradient>
    <linearGradient
       inkscape:collect="always"
       xlink:href="#linearGradient5442"
       id="linearGradient4570"
       gradientUnits="userSpaceOnUse"
       x1="232"
       y1="428"
       x2="232"
       y2="431" />
    <linearGradient
       id="linearGradient5442">
      <stop
         id="stop5444"
         offset="0"
         style="stop-color:#ef7545;stop-opacity:1;" />
      <stop
         id="stop5446"
         offset="1"
         style="stop-color:#eb5114;stop-opacity:1;" />
    </linearGradient>
    <linearGradient
       inkscape:collect="always"
       xlink:href="#linearGradient4100-5"
       id="linearGradient4572"
       gradientUnits="userSpaceOnUse"
       gradientTransform="matrix(1.1666667,0,0,1,-38.333333,540.36218)"
       spreadMethod="reflect"
       x1="227"
       y1="440.5"
       x2="230"
       y2="440.5" />
    <linearGradient
       inkscape:collect="always"
       id="linearGradient4100-5">
      <stop
         style="stop-color:#ffffff;stop-opacity:1;"
         offset="0"
         id="stop4102-6" />
      <stop
         style="stop-color:#ffffff;stop-opacity:0;"
         offset="1"
         id="stop4104-89" />
    </linearGradient>
    <linearGradient
       inkscape:collect="always"
       xlink:href="#linearGradient4100-5"
       id="linearGradient4574"
       gradientUnits="userSpaceOnUse"
       gradientTransform="matrix(1.1666667,0,0,1,-27.333333,540.36218)"
       spreadMethod="reflect"
       x1="227"
       y1="440.5"
       x2="230"
       y2="440.5" />
    <linearGradient
       inkscape:collect="always"
       xlink:href="#linearGradient4100-5"
       id="linearGradient4576"
       gradientUnits="userSpaceOnUse"
       spreadMethod="reflect"
       x1="232"
       y1="404.5"
       x2="253.00005"
       y2="404.5" />
    <linearGradient
       inkscape:collect="always"
       xlink:href="#linearGradient8054"
       id="linearGradient4578"
       gradientUnits="userSpaceOnUse"
       gradientTransform="translate(-64,7)"
       x1="288"
       y1="925.36218"
       x2="297"
       y2="925.36218" />
    <linearGradient
       id="linearGradient8054">
      <stop
         style="stop-color:#de4814;stop-opacity:1;"
         offset="0"
         id="stop8056" />
      <stop
         style="stop-color:#ff6000;stop-opacity:1;"
         offset="1"
         id="stop8058" />
    </linearGradient>
    <linearGradient
       inkscape:collect="always"
       xlink:href="#linearGradient5449"
       id="linearGradient4580"
       gradientUnits="userSpaceOnUse"
       gradientTransform="translate(-1,475.36218)"
       x1="214.5"
       y1="433.00003"
       x2="214.5"
       y2="435.84375" />
    <linearGradient
       id="linearGradient4494">
      <stop
         id="stop4496"
         offset="0"
         style="stop-color:#ed5012;stop-opacity:1;" />
      <stop
         id="stop4498"
         offset="1"
         style="stop-color:#bc3f0e;stop-opacity:1;" />
    </linearGradient>
    <linearGradient
       inkscape:collect="always"
       xlink:href="#linearGradient5449"
       id="linearGradient4582"
       gradientUnits="userSpaceOnUse"
       gradientTransform="matrix(-1,0,0,1,465,475.36218)"
       x1="214.5"
       y1="433.00003"
       x2="214.5"
       y2="435.84375" />
    <linearGradient
       id="linearGradient4501">
      <stop
         id="stop4503"
         offset="0"
         style="stop-color:#ed5012;stop-opacity:1;" />
      <stop
         id="stop4505"
         offset="1"
         style="stop-color:#bc3f0e;stop-opacity:1;" />
    </linearGradient>
  </defs>
  <sodipodi:namedview
     id="base"
     pagecolor="#ffffff"
     bordercolor="#666666"
     borderopacity="1.0"
     inkscape:pageopacity="0.0"
     inkscape:pageshadow="2"
     inkscape:zoom="0.35"
     inkscape:cx="1227.5714"
     inkscape:cy="-576"
     inkscape:document-units="px"
     inkscape:current-layer="layer1"
     showgrid="false"
     fit-margin-top="0"
     fit-margin-left="0"
     fit-margin-right="0"
     fit-margin-bottom="0"
     inkscape:window-width="1855"
     inkscape:window-height="1056"
     inkscape:window-x="65"
     inkscape:window-y="24"
     inkscape:window-maximized="1" />
  <metadata
     id="metadata4550">
    <rdf:RDF>
      <cc:Work
         rdf:about="">
        <dc:format>image/svg+xml</dc:format>
        <dc:type
           rdf:resource="http://purl.org/dc/dcmitype/StillImage" />
        <dc:title></dc:title>
      </cc:Work>
    </rdf:RDF>
  </metadata>
  <g
     inkscape:label="Layer 1"
     inkscape:groupmode="layer"
     id="layer1"
     transform="translate(852.5714,91.63782)">
    <g
       style="display:inline"
       inkscape:export-ydpi="180"
       inkscape:export-xdpi="180"
       inkscape:export-filename="software-center.png"
       transform="translate(-1060.5714,-992)"
       id="48px"
       inkscape:label="#g4471">
      <path
         sodipodi:type="arc"
         style="opacity:0.3;color:#000000;fill:url(#radialGradient4548);fill-opacity:1;fill-rule:nonzero;stroke:none;stroke-width:1;marker:none;visibility:visible;display:inline;overflow:visible;enable-background:accumulate"
         id="path4474"
         sodipodi:cx="88"
         sodipodi:cy="136"
         sodipodi:rx="56"
         sodipodi:ry="8"
         d="m 144,136 c 0,4.41828 -25.07205,8 -56,8 -30.927946,0 -56,-3.58172 -56,-8 0,-4.41828 25.072054,-8 56,-8 30.92795,0 56,3.58172 56,8 z"
         transform="matrix(0.42857135,0,0,0.37499866,194.28573,894.36237)" />
      <path
         transform="matrix(0.38528414,0,0,0.1049559,198.095,931.0882)"
         d="m 144,136 c 0,4.41828 -25.07205,8 -56,8 -30.927946,0 -56,-3.58172 -56,-8 0,-4.41828 25.072054,-8 56,-8 30.92795,0 56,3.58172 56,8 z"
         sodipodi:ry="8"
         sodipodi:rx="56"
         sodipodi:cy="136"
         sodipodi:cx="88"
         id="path4476"
         style="opacity:0.3;color:#000000;fill:#000000;fill-opacity:1;fill-rule:nonzero;stroke:none;stroke-width:1;marker:none;visibility:visible;display:inline;overflow:visible;filter:url(#filter7008-1-41);enable-background:accumulate"
         sodipodi:type="arc" />
      <g
         transform="translate(0,-46)"
         id="g4478">
        <rect
           y="951.36218"
           x="226"
           height="4.999999"
           width="3"
           id="rect4480"
           style="fill:#a42b06;fill-opacity:1;stroke:none" />
        <rect
           style="fill:#a42b06;fill-opacity:1;stroke:none"
           id="rect4482"
           width="3"
           height="4.999999"
           x="235"
           y="951.36218" />
        <path
           inkscape:connector-curvature="0"
           id="path4484"
           d="m 226,951.36218 12,0 -3,-3 -6,0 z"
           style="fill:url(#linearGradient4550);fill-opacity:1;stroke:none"
           sodipodi:nodetypes="ccccc" />
        <path
           id="path4486"
           transform="translate(0,522.36218)"
           d="m 229,426 -3,3 1,0 2,-2 6,0 2,2 1,0 -3,-3 -6,0 z"
           style="opacity:0.1;fill:#ffffff;fill-opacity:1;stroke:none"
           inkscape:connector-curvature="0" />
      </g>
      <path
         sodipodi:nodetypes="ccccccc"
         inkscape:connector-curvature="0"
         id="path4488"
         d="m 211,945.36218 42,0 0,-10 0,-23 -42,0 0,23 z"
         style="fill:url(#linearGradient4552);fill-opacity:1;stroke:none" />
      <path
         sodipodi:nodetypes="ccccccc"
         inkscape:connector-curvature="0"
         id="path4490"
         d="m 211,912.36218 42,0 -3,-2.3 1,-1.7 -38,0 1,1.7 z"
         style="fill:url(#linearGradient4554);fill-opacity:1;stroke:none" />
      <path
         sodipodi:nodetypes="ccccccccccccccc"
         id="path4492"
         d="m 213,908.36218 1,1.6875 -3,2.3125 1,0 3,-2.3125 -0.5,-0.6875 17.5,0 17.5,0 -0.5,0.6875 3,2.3125 1,0 -3,-2.3125 1,-1.6875 -19,0 z"
         style="fill:url(#linearGradient4556);fill-opacity:1;stroke:none"
         inkscape:connector-curvature="0" />
      <path
         sodipodi:nodetypes="cccc"
         inkscape:connector-curvature="0"
         id="path4494"
         d="m 215,910.04968 0,2.3125 -3,0 z"
         style="fill:url(#linearGradient4558);fill-opacity:1;stroke:none" />
      <path
         sodipodi:nodetypes="cccccc"
         inkscape:connector-curvature="0"
         id="path4496"
         d="m 214.5,909.36218 0.5,0.6875 0,2.3125 6,0 0,-3 z"
         style="opacity:0.15;fill:url(#linearGradient4560);fill-opacity:1;stroke:none" />
      <path
         sodipodi:nodetypes="cccc"
         style="fill:url(#linearGradient4562);fill-opacity:1;stroke:none"
         d="m 249,910.04968 0,2.3125 3,0 z"
         id="path4498"
         inkscape:connector-curvature="0" />
      <path
         style="opacity:0.15;fill:url(#linearGradient4564);fill-opacity:1;stroke:none"
         d="m 249.5,909.36218 -0.5,0.6875 0,2.3125 -6,0 0,-3 z"
         id="path4500"
         inkscape:connector-curvature="0"
         sodipodi:nodetypes="cccccc" />
      <path
         sodipodi:nodetypes="ccccc"
         inkscape:connector-curvature="0"
         id="path4502"
         d="m 211,912.36218 30,0 0,23 -30,0 z"
         style="fill:url(#radialGradient4566);fill-opacity:1;stroke:none" />
      <path
         sodipodi:nodetypes="ccccc"
         inkscape:connector-curvature="0"
         id="path4504"
         d="m 211.00125,912.36218 41.99876,0 -0.0431,0.99219 -41.91338,0.008 z"
         style="opacity:0.5;fill:#f29272;fill-opacity:1;stroke:none" />
      <g
         id="g4506"
         transform="translate(0,-64)">
        <path
           sodipodi:nodetypes="cccccccccc"
           inkscape:connector-curvature="0"
           id="path4508"
           transform="translate(0,540.36218)"
           d="m 225,431 0,8 3,0 0,-8 z m 11,0 0,8 3,0 0,-8 z"
           style="fill:url(#linearGradient4568);fill-opacity:1;stroke:none" />
        <path
           style="fill:url(#linearGradient4570);fill-opacity:1;stroke:none"
           d="m 225,431 14,0 -3,-3 -8,0 z"
           id="path4510"
           inkscape:connector-curvature="0"
           transform="translate(0,540.36218)" />
        <path
           inkscape:connector-curvature="0"
           id="path4512"
           transform="translate(0,540.36218)"
           d="m 225,431 0,1 3,0 0,-1 -3,0 z m 11,0 0,1 3,0 0,-1 -3,0 z"
           style="opacity:0.3;fill:#a82206;fill-opacity:1;stroke:none" />
        <path
           inkscape:connector-curvature="0"
           id="path4514"
           transform="translate(0,540.36218)"
           d="m 228,428 -3,3 1,0 2,-2 8,0 2,2 1,0 -3,-3 -8,0 z"
           style="opacity:0.1;fill:#ffffff;fill-opacity:1;stroke:none" />
        <path
           inkscape:connector-curvature="0"
           id="path4516"
           d="m 225,979.36218 0,1 3,0 0,-1 -3,0 z m 11,0 0,1 3,0 0,-1 -3,0 z"
           style="opacity:0.5;fill:#9f2105;fill-opacity:1;stroke:none" />
        <rect
           y="980.36218"
           x="223"
           height="1"
           width="7"
           id="rect4518"
           style="opacity:0.2;fill:url(#linearGradient4572);fill-opacity:1;stroke:none" />
        <rect
           style="opacity:0.2;fill:url(#linearGradient4574);fill-opacity:1;stroke:none"
           id="rect4520"
           width="7"
           height="1"
           x="234"
           y="980.36218" />
      </g>
      <path
         style="opacity:0.15;fill:url(#linearGradient4576);fill-opacity:1;stroke:none"
         d="m 211.09375,404 -0.0937,1 42,0 -0.0937,-1 -41.8125,0 z"
         transform="translate(0,540.36218)"
         id="path4522"
         inkscape:connector-curvature="0" />
      <rect
         style="opacity:0.2;fill:none;stroke:none"
         id="rect4524"
         width="48"
         height="48"
         x="208"
         y="208"
         transform="translate(0,692.36218)" />
      <path
         d="m 236.69197,938.3243 c -0.18752,-0.6208 -0.4006,-1.2588 -0.63923,-1.914 -0.22161,-0.6552 -0.44322,-1.3105 -0.6648,-1.9657 l -6.90373,0 c -0.22161,0.6552 -0.45173,1.3105 -0.69037,1.9657 -0.22162,0.6553 -0.42617,1.2932 -0.61368,1.914 l -4.14224,0 c 0.66481,-1.9312 1.29552,-3.7159 1.89213,-5.354 0.59663,-1.6381 1.1762,-3.1814 1.73873,-4.6298 0.57956,-1.4484 1.14209,-2.8192 1.68758,-4.1124 0.56253,-1.3105 1.14209,-2.5865 1.73871,-3.828 l 3.80984,0 c 0.57958,1.2415 1.15062,2.5175 1.71315,3.828 0.56251,1.2932 1.12504,2.664 1.68758,4.1124 0.57956,1.4484 1.16765,2.9917 1.7643,4.6298 0.5966,1.6381 1.2273,3.4228 1.89212,5.354 l -4.27009,0 m -4.78146,-13.8635 c -0.0852,0.2587 -0.21309,0.6122 -0.38355,1.0605 -0.17047,0.4483 -0.36649,0.9656 -0.5881,1.5519 -0.2216,0.5862 -0.46878,1.2328 -0.74151,1.9398 -0.25569,0.707 -0.51991,1.4484 -0.79265,2.2244 l 5.03718,0 c -0.27276,-0.776 -0.53697,-1.5174 -0.79267,-2.2244 -0.25569,-0.707 -0.50286,-1.3536 -0.74151,-1.9398 -0.22159,-0.5863 -0.41763,-1.1036 -0.58809,-1.5519 -0.17046,-0.4484 -0.30683,-0.8018 -0.4091,-1.0605"
         id="path4526"
         inkscape:connector-curvature="0"
         style="font-size:18px;font-style:normal;font-variant:normal;font-weight:bold;font-stretch:normal;text-align:start;line-height:125%;letter-spacing:0px;word-spacing:0px;writing-mode:lr-tb;text-anchor:start;fill:#ffffff;fill-opacity:1;stroke:none;font-family:Ubuntu;-inkscape-font-specification:Ubuntu Bold" />
      <path
         transform="translate(-108,538.36218)"
         d="m 333,391.0625 c -1.60873,0 -2.9375,1.32877 -2.9375,2.9375 0,1.60873 1.32877,2.9375 2.9375,2.9375 l 14,0 c 1.60873,0 2.9375,-1.32877 2.9375,-2.9375 0,-1.60873 -1.32877,-2.9375 -2.9375,-2.9375 l -14,0 z"
         id="path4528"
         style="fill:#ed5d24;fill-opacity:1;stroke:none"
         inkscape:original="M 333 392 C 331.892 392 331 392.892 331 394 C 331 395.108 331.892 396 333 396 L 347 396 C 348.108 396 349 395.108 349 394 C 349 392.892 348.108 392 347 392 L 333 392 z "
         inkscape:radius="0.93296653"
         sodipodi:type="inkscape:offset" />
      <rect
         ry="2"
         y="930.36218"
         x="223"
         height="4"
         width="18"
         id="rect4530"
         style="fill:#ffffff;fill-opacity:1;stroke:none" />
      <path
         sodipodi:nodetypes="sssssss"
         inkscape:connector-curvature="0"
         id="path4532"
         d="m 225,931.3622 c -0.5651,0 -1,0.4349 -1,1 0,0.5651 0.4349,1 1,1 l 9,0 c 0.5651,0 1,-0.4349 1,-1 0,-0.5651 -0.4349,-1 -1,-1 z"
         style="fill:url(#linearGradient4578);fill-opacity:1;stroke:none" />
      <path
         style="fill:url(#linearGradient4580);fill-opacity:1;stroke:none"
         d="m 213,908.3622 1,1.69998 -1.00037,0.75861 z"
         id="path4534"
         inkscape:connector-curvature="0"
         sodipodi:nodetypes="cccc" />
      <path
         sodipodi:nodetypes="cccc"
         inkscape:connector-curvature="0"
         id="path4536"
         d="m 251,908.3622 -1,1.69998 1.00391,0.76966 z"
         style="fill:url(#linearGradient4582);fill-opacity:1;stroke:none" />
      <path
         style="opacity:0.15;fill:#000000;stroke:none;display:inline"
         d="m 228,916.3622 1,-4 1,-1 -1,-3 0,-1 -1,0 z"
         id="path4538"
         inkscape:connector-curvature="0" />
      <path
         inkscape:connector-curvature="0"
         id="path4540"
         d="m 236,916.3622 -1,-4 -1,-1 1,-3 0,-1 1,0 z"
         style="opacity:0.15;fill:#000000;stroke:none;display:inline" />
      <path
         style="opacity:0.1;fill:#000000;stroke:none"
         d="m 201,40 -1,-4 -1,-4 2,0 z"
         id="path4542"
         inkscape:connector-curvature="0"
         transform="translate(24,876.3622)" />
      <path
         inkscape:connector-curvature="0"
         id="path4544"
         d="m 239,916.3622 1,-4 1,-4 -2,0 z"
         style="opacity:0.1;fill:#000000;stroke:none" />
      <path
         style="opacity:0.1;fill:#000000;stroke:none"
         d="m 202,30 0,-1 2,-2 8,0 2,2 0,1 -2,-2 -8,0 z"
         id="path4546"
         inkscape:connector-curvature="0"
         transform="translate(24,876.3622)" />
    </g>
  </g>
</svg>
