<?xml version="1.0" encoding="UTF-8"?>
<!-- Created with Inkscape (http://www.inkscape.org/) -->
<svg id="svg3229" width="22" height="22" version="1.0" xmlns="http://www.w3.org/2000/svg" xmlns:cc="http://creativecommons.org/ns#" xmlns:dc="http://purl.org/dc/elements/1.1/" xmlns:rdf="http://www.w3.org/1999/02/22-rdf-syntax-ns#">
 <metadata id="metadata9">
  <rdf:RDF>
   <cc:Work rdf:about="">
    <dc:format>image/svg+xml</dc:format>
    <dc:type rdf:resource="http://purl.org/dc/dcmitype/StillImage"/>
    <dc:title/>
   </cc:Work>
  </rdf:RDF>
 </metadata>
 <path id="rect3170-2" d="m3.305 6.0221c-0.60941 0-1.305 0.7602-1.305 1.3142v9.2987c0 0.73098 0.7889 1.365 1.4535 1.365h15.049c0.79734 0 1.4978-0.67784 1.4978-1.3761v-9.1594c0-0.77554-0.68926-1.4646-1.4093-1.4646l-15.286 0.022122zm0.53871 1.1341 6.8438 6.8438h0.59375l6.875-6.8438 0.6875 0.6875-4.0938 4.1562 3.0938 3.1562-0.6875 0.6875-3.1562-3.1562-2.2812 2.3125h-1.4375l-2.2812-2.3125-3.1562 3.1875-0.6875-0.71875 3.125-3.1562-4.125-4.1562 0.6875-0.6875z" style="opacity:.3"/>
 <path id="rect3170" d="m3.305 5.0221c-0.60941 0-1.305 0.7602-1.305 1.3142v9.2987c0 0.73098 0.7889 1.365 1.4535 1.365h15.049c0.79734 0 1.4978-0.67784 1.4978-1.3761v-9.1594c0-0.77554-0.68926-1.4646-1.4093-1.4646l-15.286 0.022122zm0.53871 1.1341 6.8438 6.8438h0.59375l6.875-6.8438 0.6875 0.6875-4.0938 4.1562 3.0938 3.1562-0.6875 0.6875-3.1562-3.1562-2.2812 2.3125h-1.4375l-2.2812-2.3125-3.1562 3.1875-0.6875-0.71875 3.125-3.1562-4.125-4.1562 0.6875-0.6875z" style="fill:#df382c"/>
</svg>
