<?xml version="1.0" encoding="UTF-8"?>
<svg id="svg3014" width="22" height="22" version="1.1" xmlns="http://www.w3.org/2000/svg" xmlns:cc="http://creativecommons.org/ns#" xmlns:dc="http://purl.org/dc/elements/1.1/" xmlns:rdf="http://www.w3.org/1999/02/22-rdf-syntax-ns#">
 <metadata id="metadata3019">
  <rdf:RDF>
   <cc:Work rdf:about="">
    <dc:format>image/svg+xml</dc:format>
    <dc:type rdf:resource="http://purl.org/dc/dcmitype/StillImage"/>
    <dc:title/>
   </cc:Work>
  </rdf:RDF>
 </metadata>
 <path id="rect2401-5" d="m2 6c-1.108 0-2 0.892-2 2v8c0 1.108 0.892 2 2 2h16c1.108 0 2-0.892 2-2v-1h0.38433c1.108 0 1.6157-0.892 1.6157-2v-2c0-1.108-0.42558-2-1.5336-2h-0.46642v-1c0-1.108-0.892-2-2-2zm0 1h16c0.554 0 1 0.446 1 1v8c0 0.554-0.446 1-1 1h-16c-0.554 0-1-0.446-1-1v-8c0-0.554 0.446-1 1-1zm18 3c0.59742 0 1 0.051 1 1v2c0 0.9914-0.40645 1-1 1z" style="opacity:.3"/>
 <path id="rect2401" d="m2 5c-1.108 0-2 0.892-2 2v8c0 1.108 0.892 2 2 2h16c1.108 0 2-0.892 2-2v-1h0.38433c1.108 0 1.6157-0.892 1.6157-2v-2c0-1.108-0.42558-2-1.5336-2h-0.46642v-1c0-1.108-0.892-2-2-2zm0 1h16c0.554 0 1 0.446 1 1v8c0 0.554-0.446 1-1 1h-16c-0.554 0-1-0.446-1-1v-8c0-0.554 0.446-1 1-1zm18 3c0.59742 0 1 0.051 1 1v2c0 0.9914-0.40645 1-1 1z" style="fill:#dfdbd2"/>
 <rect id="rect3192" x="1.2452" y="6.2452" width="17.51" height="9.5096" rx=".73984" ry=".7315" style="fill:none;opacity:.3;stroke-linecap:round;stroke-width:.5;stroke:#dfdbd2"/>
 <path id="path3172-8" d="m16.5 14.995-7-7v4l-6-3 8 7v-3l5 2z" style="fill-rule:evenodd;opacity:.3"/>
 <path id="path3172" d="m16.5 14-7-7v4l-6-3 8 7v-3l5 2z" style="fill-rule:evenodd;fill:#dfdbd2"/>
 <g id="g3076" transform="matrix(.38889 0 0 1 -.72222 0)" style="opacity:.4">
  <rect id="rect3190-4" transform="rotate(90)" x="8" y="-22.429" width="8" height="15.429" rx=".5" ry="1.2857" style="fill-rule:evenodd;opacity:.3"/>
  <rect id="rect3190" transform="rotate(90)" x="7" y="-22.429" width="8" height="15.429" rx=".5" ry="1.2857" style="fill-rule:evenodd;fill:#dfdbd2"/>
 </g>
</svg>
