<?xml version="1.0" encoding="UTF-8"?>
<!-- Created with Inkscape (http://www.inkscape.org/) -->
<svg id="svg2755" width="24" height="24" version="1.0" xmlns="http://www.w3.org/2000/svg" xmlns:xlink="http://www.w3.org/1999/xlink">
 <defs id="defs2757">
  <linearGradient id="linearGradient2673" x1="302.86" x2="302.86" y1="366.65" y2="609.51" gradientTransform="matrix(.035207 0 0 .0082353 -.72485 18.981)" gradientUnits="userSpaceOnUse">
   <stop id="stop5050" style="stop-opacity:0" offset="0"/>
   <stop id="stop5056" offset=".5"/>
   <stop id="stop5052" style="stop-opacity:0" offset="1"/>
  </linearGradient>
  <radialGradient id="radialGradient2670" cx="605.71" cy="486.65" r="117.14" gradientTransform="matrix(-.012049 0 0 .0082353 10.761 18.981)" gradientUnits="userSpaceOnUse" xlink:href="#linearGradient5060"/>
  <linearGradient id="linearGradient5060">
   <stop id="stop5062" offset="0"/>
   <stop id="stop5064" style="stop-opacity:0" offset="1"/>
  </linearGradient>
  <radialGradient id="radialGradient2667" cx="605.71" cy="486.65" r="117.14" gradientTransform="matrix(.012049 0 0 .0082353 13.239 18.981)" gradientUnits="userSpaceOnUse" xlink:href="#linearGradient5060"/>
  <linearGradient id="linearGradient2664" x1="-55.613" x2="-51.786" y1="44.819" y2="2.9062" gradientTransform="matrix(.39221 0 0 .44736 29.199 -1.2387)" gradientUnits="userSpaceOnUse">
   <stop id="stop2492" style="stop-color:#2e4a5a" offset="0"/>
   <stop id="stop2494" style="stop-color:#6e8796" offset="1"/>
  </linearGradient>
  <linearGradient id="linearGradient2656" x1="24" x2="24" y1="2" y2="46.017" gradientTransform="matrix(.45454 0 0 .46512 1.0909 .33723)" gradientUnits="userSpaceOnUse">
   <stop id="stop3213" style="stop-color:#fff" offset="0"/>
   <stop id="stop3215" style="stop-color:#fff;stop-opacity:0" offset="1"/>
  </linearGradient>
  <linearGradient id="linearGradient2652" x1="32.892" x2="36.358" y1="8.059" y2="5.4565" gradientTransform="matrix(.47785 0 0 .55248 .37225 -.076128)" gradientUnits="userSpaceOnUse">
   <stop id="stop8591" style="stop-color:#fefefe" offset="0"/>
   <stop id="stop8593" style="stop-color:#cbcbcb" offset="1"/>
  </linearGradient>
  <radialGradient id="radialGradient3679" cx="6.6147" cy="6.8818" r="9" gradientTransform="matrix(.0087506 1.8049 -2.3301 .011297 23.286 -9.4487)" gradientUnits="userSpaceOnUse">
   <stop id="stop3995" style="stop-color:#a3c0d0" offset="0"/>
   <stop id="stop4001" style="stop-color:#427da1" offset="1"/>
  </radialGradient>
 </defs>
 <g id="layer1">
  <rect id="rect2879" x="3.5" y="22" width="17" height="2" style="fill:url(#linearGradient2673);opacity:.15"/>
  <path id="path2881" d="m3.5 22v1.9999c-0.62047 0.003765-1.5-0.44807-1.5-1.0001 0-0.552 0.6924-0.99982 1.5-0.99982z" style="fill:url(#radialGradient2670);opacity:.15"/>
  <path id="path2883" d="m20.5 22v1.9999c0.62047 0.0038 1.5-0.44807 1.5-1.0001 0-0.552-0.6924-0.99982-1.5-0.99982z" style="fill:url(#radialGradient2667);opacity:.15"/>
  <path id="path4160" d="m3.5 0.49996h11.5c0.68337 0.2373 4.5413 3.1282 5.5 5 0 5.7292 3.9e-5 11.271 3.9e-5 17h-17v-22z" style="fill:url(#radialGradient3679);stroke-linejoin:round;stroke-width:.99992;stroke:url(#linearGradient2664)"/>
  <path id="path3605" d="m8.8235 4.6358c-1.794 2.76e-4 -3.958 1.7903-4.8235 4.7483v6.9338c0.39873 2.1175 1.0372 3.7494 1.5735 5.5033l2.4706-1.3907c-0.56729-1.57-1.2966-3.1368-1.5588-3.9139-0.7342-2.1759-0.70259-3.1495-0.64129-4.8079 0.059271-1.6034 0.155-2.5912 0.87659-3.5364 0.7216-0.94517 1.7198-1.4149 2.9118-1.1921 2.5245 0.4725 3.3368 3.0538 3.3971 4.3113 0.04959 1.0343-0.5017 3.5814-2.4412 3.457-1.3445-0.08643-2.1003-1.0933-2.1912-2.8013-0.066961-1.2588 0.83463-2.5294 2.2941-1.8874 0.23492 0.10327 0.2508-0.46588-0.01471-0.75497-0.68356-0.74421-3.3915-0.45971-3.3824 2.4636 0.00849 2.709 1.6125 4.5177 3.1618 4.5298 3.2447 0.0258 3.8819-3.4346 3.7647-5.8212-0.12983-2.6446-2.5986-5.8415-5.3971-5.8411z" style="fill-rule:evenodd;fill:#4a6574"/>
  <path id="path3607" d="m8.8235 4c-1.796 2.765e-4 -3.9586 1.8046-4.8235 4.7682v6.9139c0.40168 2.1168 1.0372 3.7494 1.5735 5.5033l2.4706-1.3907c-0.56729-1.57-1.3113-3.1368-1.5735-3.9139-0.7342-2.1759-0.60289-3.1495-0.54159-4.8079 0.059271-1.6034 0.069997-2.5912 0.79159-3.5364 0.7216-0.94517 1.7051-1.4149 2.8971-1.1921 2.5245 0.4725 3.3368 3.0538 3.3971 4.3113 0.04959 1.0343-0.48698 3.5814-2.4265 3.457-1.3445-0.08643-2.1003-1.1132-2.1912-2.8212-0.06696-1.2588 0.83463-2.5095 2.2941-1.8676 0.23492 0.10327 0.25081-0.46589-0.01471-0.75497-0.68356-0.74421-3.3915-0.45971-3.3824 2.4636 0.00849 2.709 1.6125 4.5177 3.1618 4.5298 3.2447 0.0258 3.8672-3.4346 3.75-5.8212-0.12983-2.6446-2.5838-5.8415-5.3823-5.8411z" style="fill-rule:evenodd;fill:#eeeeec"/>
  <path id="path3609" d="m18.426 4.8146-2.4706 1.3907c0.56728 1.5701 1.3113 3.1365 1.5735 3.9139 0.7342 2.1759 1.0025 3.1494 0.94118 4.8079-0.05927 1.6031-0.46957 2.5712-1.1912 3.5166-0.72159 0.94517-1.7051 1.4349-2.8971 1.2119-2.5245-0.47214-3.3368-3.0538-3.3971-4.3113-0.04958-1.0341 0.48699-3.5814 2.4265-3.457 1.3445 0.08643 2.1003 1.0933 2.1912 2.8013 0.06696 1.2587-0.83463 2.5295-2.2941 1.8874-0.23493-0.10318-0.25081 0.46589 0.01471 0.75497 0.68356 0.74429 3.3915 0.45962 3.3824-2.4636-0.008445-2.7089-1.6125-4.5375-3.1618-4.5497-3.2447-0.02597-3.8672 3.4542-3.75 5.8411 0.12982 2.6443 2.5838 5.8418 5.3824 5.8411 1.794-1.34e-4 3.9567-1.8104 4.8235-4.7682v-6.9139c-0.40168-2.1168-1.0372-3.7492-1.5735-5.5033z" style="fill-rule:evenodd;fill:#466170;opacity:.77381"/>
  <path id="path3611" d="m18.353 4-2.4706 1.3907c0.56728 1.5701 1.3113 3.1365 1.5735 3.9139 0.7342 2.1759 0.70242 3.1494 0.64112 4.8079-0.05927 1.6031-0.16952 2.5712-0.89112 3.5166-0.7216 0.94517-1.7051 1.4349-2.8971 1.2119-2.5245-0.47214-3.3368-3.0538-3.3971-4.3113-0.04958-1.0341 0.48699-3.5814 2.4265-3.457 1.3445 0.08643 2.1003 1.0933 2.1912 2.8013 0.06696 1.2587-0.83463 2.5295-2.2941 1.8874-0.23493-0.10318-0.25081 0.46589 0.01471 0.75497 0.68356 0.74429 3.4062 0.45962 3.3971-2.4636-0.0085-2.7089-1.6272-4.5375-3.1765-4.5497-3.2447-0.02597-3.8672 3.4542-3.75 5.8411 0.12983 2.6443 2.5838 5.8418 5.3824 5.8411 1.8461-1.37e-4 4.084-1.914 4.8971-5.0265v-6.298c-0.394-2.2924-1.0813-4.0106-1.6471-5.8609z" style="fill-rule:evenodd;fill:#a9c5d3"/>
  <path id="path2435" d="m19.5 5.677v15.823h-15v-20h10.394" style="fill:none;opacity:.42;stroke:url(#linearGradient2656)"/>
  <path id="path3370" d="m14.075 1c1.1563 0.32877 0.33906 4.6144 0.33906 4.6144s4.5154-0.42774 5.6077 1.195c1.4892 2.2123-0.068225-0.63517-0.17345-0.8217-0.75593-1.34-3.8663-4.5471-5.0454-4.9412-0.088232-0.029492-0.28388-0.04647-0.72791-0.04647z" style="fill-rule:evenodd;opacity:.3"/>
  <path id="path4474" d="m14 0c1.5262 0 1 5 1 5s6.0748-0.45326 6.0748 2c0-0.59774 0.04504-1.8225-0.07478-2-0.83911-1.243-4.6708-4.6821-6-5-0.09048-0.021638-0.55596 0-1 0z" style="fill-rule:evenodd;fill:url(#linearGradient2652)"/>
 </g>
</svg>
