<?xml version="1.0" encoding="UTF-8"?>
<!-- Created with Inkscape (http://www.inkscape.org/) -->
<svg id="svg3548" width="24" height="24" version="1.0" xmlns="http://www.w3.org/2000/svg" xmlns:xlink="http://www.w3.org/1999/xlink">
 <defs id="defs3550">
  <linearGradient id="linearGradient2479" x1="302.86" x2="302.86" y1="366.65" y2="609.51" gradientTransform="matrix(.035207 0 0 .0082353 -.72485 18.981)" gradientUnits="userSpaceOnUse">
   <stop id="stop5050" style="stop-opacity:0" offset="0"/>
   <stop id="stop5056" offset=".5"/>
   <stop id="stop5052" style="stop-opacity:0" offset="1"/>
  </linearGradient>
  <radialGradient id="radialGradient2476" cx="605.71" cy="486.65" r="117.14" gradientTransform="matrix(-.012049 0 0 .0082353 10.761 18.981)" gradientUnits="userSpaceOnUse" xlink:href="#linearGradient5060"/>
  <linearGradient id="linearGradient5060">
   <stop id="stop5062" offset="0"/>
   <stop id="stop5064" style="stop-opacity:0" offset="1"/>
  </linearGradient>
  <radialGradient id="radialGradient2473" cx="605.71" cy="486.65" r="117.14" gradientTransform="matrix(.012049 0 0 .0082353 13.239 18.981)" gradientUnits="userSpaceOnUse" xlink:href="#linearGradient5060"/>
  <linearGradient id="linearGradient2470" x1="-51.786" x2="-51.786" y1="50.786" y2="2.9062" gradientTransform="matrix(.39221 0 0 .44736 29.199 -1.2387)" gradientUnits="userSpaceOnUse">
   <stop id="stop3106" style="stop-color:#aaa" offset="0"/>
   <stop id="stop3108" style="stop-color:#c8c8c8" offset="1"/>
  </linearGradient>
  <linearGradient id="linearGradient2468" x1="25.132" x2="25.132" y1=".98521" y2="47.013" gradientTransform="matrix(.48572 0 0 .47803 .34283 -.70595)" gradientUnits="userSpaceOnUse">
   <stop id="stop3602" style="stop-color:#f4f4f4" offset="0"/>
   <stop id="stop3604" style="stop-color:#dbdbdb" offset="1"/>
  </linearGradient>
  <radialGradient id="radialGradient2465" cx="102" cy="112.3" r="139.56" gradientTransform="matrix(.17021 0 0 -.19072 1.1064 23.717)" gradientUnits="userSpaceOnUse">
   <stop id="stop41" style="stop-color:#b7b8b9" offset="0"/>
   <stop id="stop47" style="stop-color:#ececec" offset=".18851"/>
   <stop id="stop49" style="stop-color:#fafafa;stop-opacity:0" offset=".25718"/>
   <stop id="stop51" style="stop-color:#fff;stop-opacity:0" offset=".30111"/>
   <stop id="stop53" style="stop-color:#fafafa;stop-opacity:0" offset=".5313"/>
   <stop id="stop55" style="stop-color:#ebecec;stop-opacity:0" offset=".8449"/>
   <stop id="stop57" style="stop-color:#e1e2e3;stop-opacity:0" offset="1"/>
  </radialGradient>
  <linearGradient id="linearGradient2462" x1="24" x2="24" y1="2" y2="46.017" gradientTransform="matrix(.45454 0 0 .46512 1.0909 .33723)" gradientUnits="userSpaceOnUse">
   <stop id="stop3213" style="stop-color:#fff" offset="0"/>
   <stop id="stop3215" style="stop-color:#fff;stop-opacity:0" offset="1"/>
  </linearGradient>
  <linearGradient id="linearGradient3544" x1="28.739" x2="26.257" y1="144.12" y2="125.39" gradientTransform="matrix(.25452 0 0 .12876 6.085 -15.174)" gradientUnits="userSpaceOnUse" xlink:href="#linearGradient2372-7"/>
  <linearGradient id="linearGradient2372-7">
   <stop id="stop2374-5" style="stop-color:#fff" offset="0"/>
   <stop id="stop2376-3" style="stop-color:#fff;stop-opacity:.37931" offset="1"/>
  </linearGradient>
  <linearGradient id="linearGradient3542" x1="28.739" x2="25.4" y1="144.12" y2="119.86" gradientTransform="matrix(.1265 0 0 .12876 2.114 -14.057)" gradientUnits="userSpaceOnUse" xlink:href="#linearGradient2372-7"/>
  <radialGradient id="radialGradient3540" cx="17.059" cy="41.059" r="5.7385" fx="15.97" fy="39.106" gradientTransform="matrix(.36986 -.062123 0 .3588 4.6705 -1.5148)" gradientUnits="userSpaceOnUse" xlink:href="#linearGradient7067-814-120-245"/>
  <linearGradient id="linearGradient7067-814-120-245">
   <stop id="stop3877" style="stop-color:#aaa" offset="0"/>
   <stop id="stop3879" style="stop-color:#4d4d4d" offset="1"/>
  </linearGradient>
  <radialGradient id="radialGradient3538" cx="17.059" cy="41.059" r="5.7385" fx="15.544" fy="39.027" gradientTransform="matrix(.37668 -.063113 0 .36451 -2.4462 -.69065)" gradientUnits="userSpaceOnUse" xlink:href="#linearGradient7067-814-120-245"/>
  <linearGradient id="linearGradient2447" x1="32.892" x2="36.358" y1="8.059" y2="5.4565" gradientTransform="matrix(.47785 0 0 .55248 .37225 -.076128)" gradientUnits="userSpaceOnUse">
   <stop id="stop8591" style="stop-color:#fefefe" offset="0"/>
   <stop id="stop8593" style="stop-color:#cbcbcb" offset="1"/>
  </linearGradient>
  <linearGradient id="linearGradient2895" x1="-22.54" x2="-22.54" y1="11.109" y2="46.264" gradientTransform="matrix(.5227 0 0 .50171 25.968 -.52771)" gradientUnits="userSpaceOnUse">
   <stop id="stop4032" style="stop-color:#767676" offset="0"/>
   <stop id="stop4034" style="stop-color:#4c4c4c" offset="1"/>
  </linearGradient>
  <linearGradient id="linearGradient2897" x1="9.492" x2="9.492" y1="46.314" y2="1.7165" gradientTransform="matrix(.59574 0 0 .48839 -.35475 -.22138)" gradientUnits="userSpaceOnUse">
   <stop id="stop4044" style="stop-color:#333" offset="0"/>
   <stop id="stop4046" style="stop-color:#666" offset="1"/>
  </linearGradient>
 </defs>
 <g id="layer1">
  <rect id="rect2879" x="3.5" y="22" width="17" height="2" style="fill:url(#linearGradient2479);opacity:.15"/>
  <path id="path2881" d="m3.5 22v1.9999c-0.62047 0.003765-1.5-0.44807-1.5-1.0001 0-0.552 0.6924-0.99982 1.5-0.99982z" style="fill:url(#radialGradient2476);opacity:.15"/>
  <path id="path2883" d="m20.5 22v1.9999c0.62047 0.0038 1.5-0.44807 1.5-1.0001 0-0.552-0.6924-0.99982-1.5-0.99982z" style="fill:url(#radialGradient2473);opacity:.15"/>
  <path id="path4160" d="m3.5 0.49996h11.5c0.68337 0.2373 4.5413 3.1282 5.5 5 0 5.7292 3.9e-5 11.271 3.9e-5 17h-17v-22z" style="fill:url(#linearGradient2468);stroke-linejoin:round;stroke-width:.99992;stroke:url(#linearGradient2470)"/>
  <path id="path4530" d="m6 22.495h-2.3466c-0.27885-0.26038-0.066807-0.77733-0.13306-1.1459v-20.718l0.038889-0.089429 0.094173-0.036928h2.3466" style="display:block;fill:url(#linearGradient2895);stroke-linejoin:round;stroke-width:1.0097;stroke:url(#linearGradient2897)"/>
  <path id="path4191" d="m4.1702 22c-0.093787 0-0.17021-0.085634-0.17021-0.19072v-20.598c0-0.10528 0.076426-0.19072 0.17021-0.19072 3.5215 0.052717 7.4239-0.078858 10.941 0.013125l4.8389 4.3271 0.049873 16.448c0 0.10509-0.076257 0.19072-0.17021 0.19072h-15.66z" style="fill:url(#radialGradient2465)"/>
  <g id="layer1-8" transform="translate(5 5)">
   <path id="path2931" d="m12.887 11.243-0.36668-2.955" style="fill:none"/>
   <path id="path4031" d="m12.862 0.50108c-2.3571 0.37984-5.5116 0.77085-7.8622 1.1719-0.62244 0.30369-0.48251 1.0857-0.51004 1.6531v7.5958c-1.3117-0.24661-2.9114 0.83727-2.9807 2.5534-0.11325 1.0684 0.83421 1.9985 1.8645 2.0235 1.8447 0.04478 3.1063-1.1791 3.1263-2.7269-0.020145-2.5994 0.00566-5.1998 0-7.7996 0.28558-0.02115 4.611-0.8465 5-0.90146v5.8414c-1.1464-0.27464-2.6119 0.47872-2.9753 2.0173-0.15337 0.86238 0.1365 1.9448 1.0115 2.31 1.7082 0.78494 4.0533-0.80504 3.9579-2.6711-0.02646-3.4662 0.02169-6.9338 0-10.4-0.04486-0.32576-0.26561-0.69059-0.63203-0.66708v0z" style="fill:#4d4d4d;stroke-linecap:round;stroke-linejoin:round;stroke:#333"/>
   <path id="path2937" d="m5.9736 12.865c-1.897e-4 0.99807-0.89295 1.9566-1.9942 2.1411-1.1012 0.18451-1.994-0.47488-1.9942-1.4729 1.897e-4 -0.99807 0.89295-1.9566 1.9942-2.1411 1.1012-0.18451 1.994 0.47488 1.9942 1.4729z" style="fill:url(#radialGradient3538)"/>
   <path id="path2941" d="m12.938 11.828c-4.9e-5 0.98249-0.87669 1.9262-1.9581 2.1078-1.0814 0.18163-1.958-0.46755-1.9581-1.45-4.89e-5 -0.98253 0.87663-1.9263 1.9581-2.108s1.9581 0.46764 1.9581 1.4502z" style="fill:url(#radialGradient3540)"/>
   <path id="path2945" d="m5.0537 11.476-0.053687-8.6824s0.05877-0.66376 0.49472-0.66579c0.15461-0.027048 6.9317-1.1565 6.9317-1.1565s0.13298 0.70947-6.0695 1.6297c-0.51693 0.077068-0.76544 0.068481-0.76272 0.55837 0.00735 1.3216-0.030358 3.796-0.030358 8.6083 0 0.03443-0.32544-0.24394-0.51018-0.2915h5e-7z" style="fill-rule:evenodd;fill:url(#linearGradient3542);opacity:.4"/>
   <path id="path2947" d="m12 10.271 0.03393-6.559c0.35749-0.0323 0.05489-0.00519 0.53695-0.053577 0.0066 1.2252 2.74e-4 2.2421 2.74e-4 6.8692 0 0.03443-0.19942-0.20903-0.57115-0.2566h-3e-6z" style="fill-rule:evenodd;fill:url(#linearGradient3544);opacity:.4"/>
  </g>
  <path id="path2435" d="m19.5 5.677v15.823h-15v-20h10.394" style="fill:none;opacity:.6;stroke:url(#linearGradient2462)"/>
  <path id="path3370" d="m14.075 1c1.1563 0.32877 0.33906 4.6144 0.33906 4.6144s4.5154-0.42774 5.6077 1.195c1.4892 2.2123-0.068225-0.63517-0.17345-0.8217-0.75593-1.34-3.8663-4.5471-5.0454-4.9412-0.088232-0.029492-0.28388-0.04647-0.72791-0.04647z" style="fill-rule:evenodd;opacity:.2"/>
  <path id="path4474" d="m14 1c1.5262 0 1 4 1 4s4.9921-0.45326 4.9921 2c0-0.59774 0.05575-1.4784-0.06407-1.6559-0.83911-1.243-3.7438-3.8619-4.7981-4.2976-0.085978-0.035532-0.6859-0.04647-1.1299-0.04647z" style="fill-rule:evenodd;fill:url(#linearGradient2447)"/>
 </g>
</svg>
