<?xml version="1.0" encoding="UTF-8"?>
<!-- Created with Inkscape (http://www.inkscape.org/) -->
<svg id="svg2816" width="24" height="24" version="1.0" xmlns="http://www.w3.org/2000/svg" xmlns:cc="http://creativecommons.org/ns#" xmlns:dc="http://purl.org/dc/elements/1.1/" xmlns:rdf="http://www.w3.org/1999/02/22-rdf-syntax-ns#">
 <metadata id="metadata8">
  <rdf:RDF>
   <cc:Work rdf:about="">
    <dc:format>image/svg+xml</dc:format>
    <dc:type rdf:resource="http://purl.org/dc/dcmitype/StillImage"/>
    <dc:title/>
   </cc:Work>
  </rdf:RDF>
 </metadata>
 <path id="path2396-4" d="m11.5 6c-4.14 0-7.5 3.36-7.5 7.5 0 4.14 3.36 7.5 7.5 7.5 1.9648 0 3.7561-0.76222 5.0938-2h5.4062l-3.3438-3.3438c0.20794-0.68762 0.34375-1.4011 0.34375-2.1562 0-4.14-3.36-7.5-7.5-7.5zm4.5 9h-9v-2h9v2z" style="fill-rule:evenodd;fill:#fff;opacity:.3"/>
 <path id="path2396" d="m11.5 5c-4.14 0-7.5 3.36-7.5 7.5 0 4.14 3.36 7.5 7.5 7.5 1.9648 0 3.7561-0.76222 5.0938-2h5.4062l-3.3438-3.3438c0.20794-0.68762 0.34375-1.4011 0.34375-2.1562 0-4.14-3.36-7.5-7.5-7.5zm4.5 9h-9v-2h9v2z" style="fill-rule:evenodd;fill:#3c3c3c"/>
</svg>
