<?xml version="1.0" encoding="UTF-8"?>
<!-- Created with Inkscape (http://www.inkscape.org/) -->
<svg id="svg3856" width="24" height="24" version="1.1" xmlns="http://www.w3.org/2000/svg" xmlns:cc="http://creativecommons.org/ns#" xmlns:dc="http://purl.org/dc/elements/1.1/" xmlns:rdf="http://www.w3.org/1999/02/22-rdf-syntax-ns#">
 <metadata id="metadata3861">
  <rdf:RDF>
   <cc:Work rdf:about="">
    <dc:format>image/svg+xml</dc:format>
    <dc:type rdf:resource="http://purl.org/dc/dcmitype/StillImage"/>
    <dc:title/>
   </cc:Work>
  </rdf:RDF>
 </metadata>
 <g id="layer1" transform="translate(0,8)">
  <path id="path3324-2" d="m10 6c-0.554 0-1 0.446-1 1v2c0 1.108 1.338 2 3 2h1c1.662 0 3-0.892 3-2v-2c0-0.554-0.446-1-1-1h-5z" style="fill-rule:evenodd;fill:#fff;opacity:.3"/>
  <path id="rect2406-4" d="m11.5-2.5h2c2.216 0 4 1.338 4 3v9c0 1.662-1.784 3-4 3h-2c-2.216 0-4-1.338-4-3v-9c0-1.662 1.784-3 4-3zm1.0419 1e-6v4" style="fill:none;opacity:.3;stroke-linecap:round;stroke:#fff"/>
  <g id="g3195" transform="translate(0,-8)" style="fill:none;opacity:.3;stroke:#3c3c3c">
   <path id="path3193" d="m12.5 5.3333v3.3333" style="fill:none;stroke-linecap:round;stroke-width:2;stroke:#3c3c3c"/>
   <rect id="rect3236" transform="rotate(-90)" x="-18.75" y="8.25" width="13.5" height="8.5" rx="2.3" ry="3.3001" style="fill:none;stroke-linecap:round;stroke-width:.5;stroke:#3c3c3c"/>
  </g>
  <path id="rect2406" d="m11.5-3.5h2c2.216 0 4 1.338 4 3v9c0 1.662-1.784 3-4 3h-2c-2.216 0-4-1.338-4-3v-9c0-1.662 1.784-3 4-3zm1.0419 1e-6v4" style="fill:none;stroke-linecap:round;stroke:#3c3c3c"/>
  <path id="path3234" d="m10 0c-0.552 0-1 0.448-1 1v7c0 1.108 1.338 2 3 2h1c1.662 0 3-0.892 3-2v-7.125c-0.0088 0.00299-0.02236-0.0029-0.03125 0-0.066255-0.48792-0.46275-0.875-0.96875-0.875-0.552 0-1 0.448-1 1 0 0.554-0.446 1-1 1h-1c-0.554 0-1-0.446-1-1 0-0.552-0.448-1-1-1z" style="fill-rule:evenodd;fill:#3c3c3c"/>
 </g>
</svg>
