<?xml version="1.0" encoding="UTF-8" standalone="no"?>
<svg
   xmlns:dc="http://purl.org/dc/elements/1.1/"
   xmlns:cc="http://creativecommons.org/ns#"
   xmlns:rdf="http://www.w3.org/1999/02/22-rdf-syntax-ns#"
   xmlns:svg="http://www.w3.org/2000/svg"
   xmlns="http://www.w3.org/2000/svg"
   xmlns:xlink="http://www.w3.org/1999/xlink"
   version="1.0"
   width="22"
   height="22"
   id="svg2">
  <metadata
     id="metadata60">
    <rdf:RDF>
      <cc:Work
         rdf:about="">
        <dc:format>image/svg+xml</dc:format>
        <dc:type
           rdf:resource="http://purl.org/dc/dcmitype/StillImage" />
        <dc:title />
      </cc:Work>
    </rdf:RDF>
  </metadata>
  <defs
     id="defs4">
    <linearGradient
       x1="316.85999"
       y1="85.620003"
       gradientTransform="matrix(0.40476,0,0,0.5,-119.52,-25.5)"
       x2="319.39001"
       gradientUnits="userSpaceOnUse"
       y2="93.916"
       id="linearGradient3007">
      <stop
         offset="0"
         style="stop-color:#282828"
         id="stop4576" />
      <stop
         offset="1"
         style="stop-color:#5a5c58"
         id="stop4578" />
    </linearGradient>
    <linearGradient
       x1="145.44"
       y1="372.67001"
       gradientTransform="matrix(0.091559,0,0,0.079246,-3.3161,-11.282)"
       x2="145.44"
       gradientUnits="userSpaceOnUse"
       y2="416.82999"
       id="linearGradient3010">
      <stop
         offset="0"
         style="stop-color:#fff"
         id="stop7257" />
      <stop
         offset="1"
         style="stop-color:#e6e6e6"
         id="stop7259" />
    </linearGradient>
    <linearGradient
       x1="20.146999"
       y1="-0.0004971"
       gradientTransform="matrix(0.46681905,0,0,0.48222533,-0.68001905,-0.6488267)"
       x2="20.104"
       gradientUnits="userSpaceOnUse"
       y2="31.983"
       id="linearGradient3024">
      <stop
         offset="0"
         style="stop-color:#f0f0f0"
         id="stop6546" />
      <stop
         offset="1"
         style="stop-color:#d2d2d2"
         id="stop6548" />
    </linearGradient>
    <linearGradient
       id="linearGradient4402">
      <stop
         id="stop4404"
         offset="0"
         style="stop-color:#000000;stop-opacity:0.23921569" />
      <stop
         id="stop4406"
         offset="1"
         style="stop-color:#000000;stop-opacity:0.31764707" />
    </linearGradient>
    <linearGradient
       id="linearGradient4850">
      <stop
         offset="0"
         style="stop-color:#ffffff;stop-opacity:1"
         id="stop4852" />
      <stop
         offset="0"
         style="stop-color:#ffffff;stop-opacity:0.23529412"
         id="stop4854" />
      <stop
         offset="0.96892834"
         style="stop-color:#ffffff;stop-opacity:0.15686275"
         id="stop4856" />
      <stop
         offset="1"
         style="stop-color:#ffffff;stop-opacity:0.39215687"
         id="stop4858" />
    </linearGradient>
    <linearGradient
       id="linearGradient4691">
      <stop
         id="stop4693"
         style="stop-color:#ffffff;stop-opacity:1"
         offset="0" />
      <stop
         id="stop4695"
         style="stop-color:#ffffff;stop-opacity:0.23529412"
         offset="0.00000001" />
      <stop
         id="stop4697"
         style="stop-color:#ffffff;stop-opacity:0.15686275"
         offset="1" />
      <stop
         id="stop4699"
         style="stop-color:#ffffff;stop-opacity:0.39215687"
         offset="1" />
    </linearGradient>
    <linearGradient
       id="linearGradient3080"
       y2="94.125999"
       gradientUnits="userSpaceOnUse"
       x2="320.03"
       gradientTransform="matrix(0.54028488,0,0,0.43901437,-152.53451,-22.068384)"
       y1="82.323402"
       x1="320.03">
      <stop
         id="stop3205"
         style="stop-color:#787878"
         offset="0" />
      <stop
         id="stop3207"
         style="stop-color:#bebebe"
         offset=".35047" />
      <stop
         id="stop3209"
         style="stop-color:#c8c8c8"
         offset="0.62510502" />
      <stop
         id="stop3211"
         style="stop-color:#e6e6e6"
         offset="0.72935736" />
      <stop
         id="stop3213"
         style="stop-color:#8c8c8c"
         offset="1" />
    </linearGradient>
    <linearGradient
       y2="40.265266"
       x2="25.004524"
       y1="51.228981"
       x1="25.004524"
       gradientTransform="matrix(1.0242156,0,0,0.69699789,-12.774071,-16.403425)"
       gradientUnits="userSpaceOnUse"
       id="linearGradient3152-7"
       xlink:href="#linearGradient4850" />
    <linearGradient
       x1="23.999992"
       y1="6.4487038"
       x2="23.999992"
       y2="41.551361"
       id="linearGradient3093-0"
       xlink:href="#linearGradient4691"
       gradientUnits="userSpaceOnUse"
       gradientTransform="matrix(0.49484035,0,0,0.34185448,-0.87616485,-0.2045183)" />
    <linearGradient
       x1="35.792694"
       y1="16.344582"
       x2="35.792694"
       y2="57.823132"
       id="linearGradient12481-7"
       xlink:href="#radialGradient2444-8"
       gradientUnits="userSpaceOnUse"
       gradientTransform="matrix(0.37045339,0,0,0.42670734,1.7871753,-5.0407144)" />
    <radialGradient
       id="radialGradient2444-8"
       gradientUnits="userSpaceOnUse"
       cy="14.113"
       cx="63.969002"
       gradientTransform="matrix(1.5647,-9.5143e-8,6.1772e-8,1.0159,-59.14917,8.1461003)"
       r="23.097">
      <stop
         id="stop3618-4"
         style="stop-color:#ADC980"
         offset="0" />
      <stop
         id="stop3270-5"
         style="stop-color:#87A752"
         offset="0.52338964" />
      <stop
         id="stop3620-0"
         style="stop-color:#688933"
         offset="1" />
    </radialGradient>
    <linearGradient
       gradientUnits="userSpaceOnUse"
       y2="31.460361"
       x2="26.534502"
       y1="0.68323833"
       x1="26.534502"
       id="linearGradient4408"
       xlink:href="#linearGradient4402"
       gradientTransform="matrix(0.44680851,0,0,0.48387097,0.2765872,0.2581178)" />
    <linearGradient
       xlink:href="#linearGradient4402"
       id="linearGradient4666"
       gradientUnits="userSpaceOnUse"
       gradientTransform="matrix(0.44680851,0,0,0.48387097,0.2765872,0.2581178)"
       x1="26.534502"
       y1="36.666557"
       x2="26.534502"
       y2="44.933224" />
  </defs>
  <path
     d="m 8.5,13.5 0,3.5 c -0.0117,0.901 -1.4064,1.5 -1.4064,1.5 -0.3963,0.044 -0.5934,0.223 -0.5934,0.5 0,0.277 0.2668,0.5 0.5934,0.5 l 7.8124,0 c 0.327,0 0.594,-0.223 0.594,-0.5 0,-0.277 -0.197,-0.456 -0.594,-0.5 0,0 -1.394,-0.599 -1.406,-1.5 l 0,-3.5 -5,0 z"
     style="color:#000000;clip-rule:nonzero;display:inline;overflow:visible;visibility:visible;opacity:1;isolation:auto;mix-blend-mode:normal;color-interpolation:sRGB;color-interpolation-filters:linearRGB;solid-color:#000000;solid-opacity:1;fill:url(#linearGradient3080);fill-opacity:1;fill-rule:nonzero;stroke:none;stroke-width:0.99826998;stroke-linecap:round;stroke-linejoin:round;stroke-miterlimit:4;stroke-dasharray:none;stroke-dashoffset:0.5;stroke-opacity:1;color-rendering:auto;image-rendering:auto;shape-rendering:auto;text-rendering:auto;enable-background:new"
     id="path4675" />
  <path
     d="m 8.5,13.5 0,3.5 c -0.0117,0.901 -1.4064,1.5 -1.4064,1.5 -0.3963,0.044 -0.5934,0.223 -0.5934,0.5 0,0.277 0.2668,0.5 0.5934,0.5 l 7.8124,0 c 0.327,0 0.594,-0.223 0.594,-0.5 0,-0.277 -0.197,-0.456 -0.594,-0.5 0,0 -1.394,-0.599 -1.406,-1.5 l 0,-3.5 -5,0 z"
     style="color:#000000;clip-rule:nonzero;display:inline;overflow:visible;visibility:visible;opacity:0.25;isolation:auto;mix-blend-mode:normal;color-interpolation:sRGB;color-interpolation-filters:linearRGB;solid-color:#000000;solid-opacity:1;fill:none;fill-opacity:1;fill-rule:nonzero;stroke:#000000;stroke-width:0.99827462;stroke-linecap:round;stroke-linejoin:round;stroke-miterlimit:4;stroke-dasharray:none;stroke-dashoffset:0.5;stroke-opacity:1;marker:none;color-rendering:auto;image-rendering:auto;shape-rendering:auto;text-rendering:auto;enable-background:new"
     id="path4675-6" />
  <path
     style="color:#000000;clip-rule:nonzero;display:inline;overflow:visible;visibility:visible;opacity:0.8;isolation:auto;mix-blend-mode:normal;color-interpolation:sRGB;color-interpolation-filters:linearRGB;solid-color:#000000;solid-opacity:1;fill:none;fill-opacity:1;fill-rule:nonzero;stroke:url(#linearGradient3152-7);stroke-width:0.99999994;stroke-linecap:round;stroke-linejoin:round;stroke-miterlimit:4;stroke-dasharray:none;stroke-dashoffset:0;stroke-opacity:1;marker:none;color-rendering:auto;image-rendering:auto;shape-rendering:auto;text-rendering:auto;enable-background:accumulate"
     id="path4780"
     d="m 10.498047,15.498047 0,2.501953 a 0.9972344,0.9972344 0 0 1 -0.002,0.01367 c -0.0091,0.699722 -0.352392,1.140381 -0.7128909,1.488281 l 4.4335939,0 C 13.85636,19.154114 13.513224,18.713255 13.503906,18.013672 A 0.9972344,0.9972344 0 0 1 13.501953,18 l 0,-2.501953 -3.003906,0 z"
     transform="translate(-1,-1)" />
  <path
     d="m 3.156,18.499 c -0.129,0.012 -0.2415,0.078 -0.3033,0.176 l -1.3076,2.09 c -0.0307,0.05 -0.0468,0.108 -0.0458,0.164 -10e-5,-0.006 -3e-4,-0.005 0,0.005 l 0,0.233 0,0.024 c -3e-4,0.035 0.0116,0.069 0.0344,0.097 0.0069,0.017 0.0067,0.03 0.02,0.049 0.0695,0.101 0.1966,0.163 0.3348,0.164 l 18.22,0 c 0.139,0 0.267,-0.062 0.338,-0.166 0.031,-0.044 0.04,-0.085 0.046,-0.116 0.011,-0.054 0.009,-0.092 0.009,-0.092 l 0,-0.005 0,-0.166 c 0,-0.047 -0.001,-0.12 -0.049,-0.196 l -1.359,-2.09 -0.003,0 c -0.07,-0.106 -0.201,-0.172 -0.343,-0.171 l -15.542,0 -0.009,0 -0.0286,0 -0.0114,0 z"
     style="fill:url(#linearGradient3010);stroke:none;stroke-width:0.99829;stroke-linecap:square;stroke-dashoffset:0.3612;enable-background:new"
     id="path3698" />
  <path
     d="M 4.5247,18 3.5,20.198 l 15.1,0 L 17.5,18 4.525,18 Z"
     style="fill:url(#linearGradient3007);fill-rule:evenodd;enable-background:new"
     id="path3704" />
  <path
     d="m 3.156,18.499 c -0.129,0.012 -0.2415,0.078 -0.3033,0.176 l -1.3076,2.09 c -0.0307,0.05 -0.0468,0.108 -0.0458,0.164 -10e-5,-0.006 -3e-4,-0.005 0,0.005 l 0,0.233 0,0.024 c -3e-4,0.035 0.0116,0.069 0.0344,0.097 0.0069,0.017 0.0067,0.03 0.02,0.049 0.0695,0.101 0.1966,0.163 0.3348,0.164 l 18.22,0 c 0.139,0 0.267,-0.062 0.338,-0.166 0.031,-0.044 0.04,-0.085 0.046,-0.116 0.011,-0.054 0.009,-0.092 0.009,-0.092 l 0,-0.005 0,-0.166 c 0,-0.047 -0.001,-0.12 -0.049,-0.196 l -1.359,-2.09 -0.003,0 c -0.07,-0.106 -0.201,-0.172 -0.343,-0.171 l -15.542,0 -0.009,0 -0.0286,0 -0.0114,0 z"
     style="color:#000000;clip-rule:nonzero;display:inline;overflow:visible;visibility:visible;opacity:1;isolation:auto;mix-blend-mode:normal;color-interpolation:sRGB;color-interpolation-filters:linearRGB;solid-color:#000000;solid-opacity:1;fill:none;fill-opacity:1;fill-rule:nonzero;stroke:url(#linearGradient4666);stroke-width:1;stroke-linecap:round;stroke-linejoin:round;stroke-miterlimit:4;stroke-dasharray:none;stroke-dashoffset:0.5;stroke-opacity:1;color-rendering:auto;image-rendering:auto;shape-rendering:auto;text-rendering:auto;enable-background:accumulate"
     id="path3698-1" />
  <rect
     x="1"
     y="1"
     width="20"
     height="14"
     style="fill:url(#linearGradient3024);stroke:none;stroke-width:0.99993998;stroke-linecap:round;stroke-linejoin:round;stroke-dashoffset:0.5"
     id="rect2722" />
  <rect
     id="rect2722-7"
     style="color:#000000;clip-rule:nonzero;display:inline;overflow:visible;visibility:visible;opacity:1;isolation:auto;mix-blend-mode:normal;color-interpolation:sRGB;color-interpolation-filters:linearRGB;solid-color:#000000;solid-opacity:1;fill:none;fill-opacity:1;fill-rule:nonzero;stroke:url(#linearGradient3093-0);stroke-width:1;stroke-linecap:round;stroke-linejoin:miter;stroke-miterlimit:4;stroke-dasharray:none;stroke-dashoffset:0;stroke-opacity:1;color-rendering:auto;image-rendering:auto;shape-rendering:auto;text-rendering:auto;enable-background:accumulate"
     height="13"
     width="19"
     y="1.5"
     x="1.5" />
  <rect
     x="0.5"
     y="0.5"
     width="21"
     height="15"
     ry="0.5"
     rx="0.5"
     style="fill:none;stroke:url(#linearGradient4408);stroke-width:1;stroke-linecap:round;stroke-linejoin:round;stroke-dashoffset:0.5"
     id="rect2722-61" />
  <rect
     x="2"
     y="2"
     width="18"
     height="12"
     ry="0"
     rx="0"
     style="color:#000000;clip-rule:nonzero;display:inline;overflow:visible;visibility:visible;opacity:1;isolation:auto;mix-blend-mode:normal;color-interpolation:sRGB;color-interpolation-filters:linearRGB;solid-color:#000000;solid-opacity:1;fill:url(#linearGradient12481-7);fill-opacity:1;fill-rule:nonzero;stroke:none;stroke-width:1;stroke-linecap:butt;stroke-linejoin:miter;stroke-miterlimit:4;stroke-dasharray:none;stroke-dashoffset:0;stroke-opacity:1;marker:none;color-rendering:auto;image-rendering:auto;shape-rendering:auto;text-rendering:auto;enable-background:accumulate"
     id="rect2573-3" />
  <path
     id="path3942-6"
     d="M 2.0000005,2.0000001 2.0000005,14 20,14 20,2.0000001 Z M 3,3 19,3 19,13 3,13 Z"
     style="display:inline;opacity:0.25;fill:#000000;fill-opacity:1;stroke:none" />
</svg>
