<?xml version="1.0" encoding="UTF-8"?>
<!-- Created with Inkscape (http://www.inkscape.org/) -->
<svg id="svg4456" width="48" height="48" version="1.1" xmlns="http://www.w3.org/2000/svg" xmlns:xlink="http://www.w3.org/1999/xlink">
 <defs id="defs4458">
  <linearGradient id="linearGradient3167" x1="16.626" x2="20.055" y1="15.298" y2="24.628" gradientTransform="matrix(.95782 0 0 1.0183 1.0122 1.9221)" gradientUnits="userSpaceOnUse">
   <stop id="stop2687-1-9-0-2" style="stop-color:#fff" offset="0"/>
   <stop id="stop2689-5-4-3-1" style="stop-color:#fff;stop-opacity:0" offset="1"/>
  </linearGradient>
  <linearGradient id="linearGradient3164" x1="16.143" x2="16.143" y1="4" y2="44" gradientTransform="matrix(.89749 0 0 .69236 2.4796 9.3834)" gradientUnits="userSpaceOnUse">
   <stop id="stop2225-6-4-7-2" style="stop-color:#fff" offset="0"/>
   <stop id="stop2229-2-5-5-8" style="stop-color:#fff;stop-opacity:0" offset="1"/>
  </linearGradient>
  <linearGradient id="linearGradient3178" x1="12.579" x2="12.213" y1="2.9165" y2="47.279" gradientTransform="matrix(.95464 0 0 .89653 1.0875 5.3852)" gradientUnits="userSpaceOnUse">
   <stop id="stop2240-1-6-7-0" style="stop-color:#fff" offset="0"/>
   <stop id="stop2242-7-3-7-2" style="stop-color:#fff;stop-opacity:0" offset="1"/>
  </linearGradient>
  <linearGradient id="linearGradient3181" x1="23.071" x2="23.071" y1="36.047" y2="33.296" gradientTransform="matrix(.99105 0 0 1.0115 .2205 5.8121)" gradientUnits="userSpaceOnUse">
   <stop id="stop2225-6-4-7" style="stop-color:#fff" offset="0"/>
   <stop id="stop2229-2-5-5" style="stop-color:#fff;stop-opacity:0" offset="1"/>
  </linearGradient>
  <radialGradient id="radialGradient3528" cx="7.4957" cy="8.4498" r="20" gradientTransform="matrix(0 1.7102 -2.9205 -7.2164e-8 48.678 -.88704)" gradientUnits="userSpaceOnUse">
   <stop id="stop3790-0-0-9" style="stop-color:#4a5653" offset="0"/>
   <stop id="stop3792-0-2-3" style="stop-color:#141414" offset="1"/>
  </radialGradient>
  <linearGradient id="linearGradient3530" x1="16.143" x2="16.143" y1="4" y2="44" gradientTransform="matrix(.94877 0 0 .74364 1.2295 8.1525)" gradientUnits="userSpaceOnUse">
   <stop id="stop3796-3-0-0" style="stop-color:#323232" offset="0"/>
   <stop id="stop3798-8-6-5" offset="1"/>
  </linearGradient>
  <linearGradient id="linearGradient3189" x1="24" x2="24" y1="7.96" y2="43.865" gradientTransform="translate(-3.5244e-6 -6.6e-6)" gradientUnits="userSpaceOnUse">
   <stop id="stop4324-9-7" style="stop-color:#f0f0f0" offset="0"/>
   <stop id="stop2860-4-4" style="stop-color:#d7d7d8" offset=".085525"/>
   <stop id="stop2862-5-9" style="stop-color:#b2b2b3" offset=".92166"/>
   <stop id="stop4326-1-1" style="stop-color:#979798" offset="1"/>
  </linearGradient>
  <linearGradient id="linearGradient3191" x1="10.014" x2="10.014" y1="44.96" y2="2.8765" gradientTransform="matrix(.95745 0 0 .90347 1.0212 4.3056)" gradientUnits="userSpaceOnUse">
   <stop id="stop4334-7-6" style="stop-color:#595959" offset="0"/>
   <stop id="stop4336-8-0" style="stop-color:#b3b3b3" offset="1"/>
  </linearGradient>
  <radialGradient id="radialGradient3194" cx="605.71" cy="486.65" r="117.14" gradientTransform="matrix(-.065587 0 0 .024706 47.692 31.942)" gradientUnits="userSpaceOnUse" xlink:href="#linearGradient5060-6-6-5"/>
  <linearGradient id="linearGradient5060-6-6-5">
   <stop id="stop5062-3-0-3" offset="0"/>
   <stop id="stop5064-1-4-9" style="stop-opacity:0" offset="1"/>
  </linearGradient>
  <radialGradient id="radialGradient3197" cx="605.71" cy="486.65" r="117.14" gradientTransform="matrix(.065587 0 0 .024706 .30779 31.942)" gradientUnits="userSpaceOnUse" xlink:href="#linearGradient5060-6-6-5"/>
  <linearGradient id="linearGradient4454" x1="302.86" x2="302.86" y1="366.65" y2="609.51" gradientTransform="matrix(.065587 0 0 .024706 .29488 31.942)" gradientUnits="userSpaceOnUse">
   <stop id="stop5050-5-6-4" style="stop-opacity:0" offset="0"/>
   <stop id="stop5056-9-0-1" offset=".5"/>
   <stop id="stop5052-6-9-5" style="stop-opacity:0" offset="1"/>
  </linearGradient>
 </defs>
 <g id="layer1">
  <rect id="rect2512-9-5" x="8.1654" y="41" width="31.669" height="6" style="fill:url(#linearGradient4454);opacity:.40206"/>
  <path id="path2514-7-4" d="m39.835 41v5.9997c3.3776 0.01129 8.1654-1.3442 8.1654-3.0002 0-1.656-3.7691-2.9994-8.1654-2.9994z" style="fill:url(#radialGradient3197);opacity:.40206"/>
  <path id="path2516-8-9" d="m8.1654 41v5.9997c-3.3776 0.01129-8.1654-1.3442-8.1654-3.0002 0-1.656 3.7691-2.9994 8.1654-2.9994z" style="fill:url(#radialGradient3194);opacity:.40206"/>
  <rect id="rect2551-5-8" x="1.5011" y="7.5011" width="44.998" height="36.998" rx="1.4989" ry="1.4989" style="fill-rule:evenodd;fill:url(#linearGradient3189);stroke-linecap:round;stroke-linejoin:round;stroke-width:1.0021;stroke:url(#linearGradient3191)"/>
  <rect id="rect1314-3-3-1" x="5.5" y="11.5" width="37" height="29" rx="0" ry="0" style="color:#000000;fill:url(#radialGradient3528);stroke-linecap:round;stroke-linejoin:round;stroke:url(#linearGradient3530)"/>
  <rect id="rect2221-3-8" x="4.5011" y="10.501" width="38.998" height="30.998" rx="0" ry="0" style="fill:none;opacity:.4;stroke-linecap:round;stroke-linejoin:round;stroke-width:1.0021;stroke:url(#linearGradient3181)"/>
  <rect id="rect2556-8-5" x="2.5019" y="8.5019" width="42.996" height="34.996" rx=".49813" ry=".49813" style="fill:none;opacity:.8;stroke-linecap:round;stroke-linejoin:round;stroke-width:1.0037;stroke:url(#linearGradient3178)"/>
  <rect id="rect1314-3-3-9" x="6.5193" y="12.5" width="35" height="27" rx="0" ry="0" style="color:#000000;fill:none;opacity:.1;stroke-linecap:round;stroke-linejoin:round;stroke:url(#linearGradient3164)"/>
  <path id="path2233" d="m6.5 13.5h35" style="fill:none;opacity:.1;stroke-linecap:square;stroke-width:1px;stroke:#b9ffeb"/>
  <path id="path2235" d="m6.5 17.5h35" style="fill:none;opacity:.1;stroke-linecap:square;stroke-width:1px;stroke:#b9ffeb"/>
  <path id="path2237" d="m6.5 21.5h35" style="fill:none;opacity:.1;stroke-linecap:square;stroke-width:1px;stroke:#b9ffeb"/>
  <path id="path2239" d="m6.5 25.5h35" style="fill:none;opacity:.1;stroke-linecap:square;stroke-width:1px;stroke:#b9ffeb"/>
  <path id="path2241" d="m6.5 29.5h35" style="fill:none;opacity:.1;stroke-linecap:square;stroke-width:1px;stroke:#b9ffeb"/>
  <path id="path2243" d="m6.5 33.5h35" style="fill:none;opacity:.1;stroke-linecap:square;stroke-width:1px;stroke:#b9ffeb"/>
  <path id="path2245" d="m6.5 37.5h35" style="fill:none;opacity:.1;stroke-linecap:square;stroke-width:1px;stroke:#b9ffeb"/>
  <path id="path2239-3" d="m9.5118 39.535v-27.061" style="fill:none;opacity:.1;stroke-linecap:square;stroke-width:.8793px;stroke:#b9ffeb"/>
  <path id="path2239-3-7" d="m14.512 39.517v-27.061" style="fill:none;opacity:.1;stroke-linecap:square;stroke-width:.8793px;stroke:#b9ffeb"/>
  <path id="path2239-3-7-3" d="m19.509 39.542v-27.061" style="fill:none;opacity:.1;stroke-linecap:square;stroke-width:.8793px;stroke:#b9ffeb"/>
  <path id="path2239-3-2" d="m24.483 39.517v-27.061" style="fill:none;opacity:.1;stroke-linecap:square;stroke-width:.8793px;stroke:#b9ffeb"/>
  <path id="path2239-3-7-6" d="m29.483 39.499v-27.061" style="fill:none;opacity:.1;stroke-linecap:square;stroke-width:.8793px;stroke:#b9ffeb"/>
  <path id="path2239-3-7-3-5" d="m34.48 39.524v-27.061" style="fill:none;opacity:.1;stroke-linecap:square;stroke-width:.8793px;stroke:#b9ffeb"/>
  <path id="path2239-3-7-3-5-2" d="m39.485 39.509v-27.061" style="fill:none;opacity:.1;stroke-linecap:square;stroke-width:.8793px;stroke:#b9ffeb"/>
  <path id="rect4271" d="m23.907 18c-9.5191 0-13.907 7.9685-13.907 7.9685 0.1272 0 2.8116 8.0733 13.784 8.0313 11.169-0.04252 14.216-8.0313 14.216-8.0313s-4.5734-7.9685-14.093-7.9685zm2.3744 1.8823c6.4058 0.91353 9.0352 6.0235 9.0352 6.0235s-1.3565 5.0038-8.3568 6.0862c2.1125-1.0445 3.5976-3.1723 3.7004-5.647l-1.5418-0.09412c-0.12326 2.7716-2.3663 4.9882-5.1498 4.9882-2.8627 0-5.1806-2.3264-5.1806-5.2078 0-2.7013 2.0118-4.9406 4.6256-5.2078 0.17425-0.01782 0.37614 0 0.55507 0 1.6825 0 3.1565 0.79336 4.1013 2.0392l1.1718-0.84705c-0.76559-0.96291-1.7794-1.7072-2.9604-2.1333zm-4.9031 0.12549c-2.3911 1.003-4.0088 3.318-4.0088 6.0548 0 2.4998 1.3584 4.7128 3.4229 5.8352-6.3535-1.2719-8.141-5.898-8.141-5.898s2.1416-4.8179 8.7269-5.9921zm2.5903 2.0078c-2.1986 0-3.978 1.8027-3.978 4.0156 0 2.2129 1.7793 3.9843 3.978 3.9843 2.1372 0 3.851-1.7 3.9471-3.8274l-4.2555-0.21961 3.4229-2.4157c-0.73075-0.92355-1.8517-1.5372-3.1145-1.5372z" style="fill:#91ffe0"/>
  <path id="path3333-3-0" d="m4.0952 8c-1.1573 0-2.0952 0.99713-2.0952 2.2275v16.293c3e-3 0.13706 0.0592 0.26668 0.15589 0.35738 0.0967 0.0907 0.2247 0.1342 0.35295 0.11994l43.102-7.2553c0.22172-0.03717 0.38602-0.23872 0.38912-0.47732v-9.0373c0-1.2304-0.93792-2.2275-2.0952-2.2275h-39.81z" style="fill-rule:evenodd;fill:url(#linearGradient3167);opacity:.2"/>
  <path id="path3568" d="m23.906 17c-10.07 0-14.781 8.5-14.781 8.5a0.98787 0.98787 0 0 0 0.03125 1c0.00303 0.0061 0.027224 0.02295 0.03125 0.03125 0.022816 0.04703 0.045926 0.12005 0.09375 0.21875 0.11253 0.23223 0.29409 0.56182 0.53125 0.96875 0.47432 0.81385 1.2058 1.9173 2.3125 3 2.2135 2.1653 5.9274 4.3032 11.656 4.2812 5.8198-0.02215 9.6552-2.1662 11.969-4.3125s3.1875-4.375 3.1875-4.375a0.98787 0.98787 0 0 0-0.09375-0.84375s-4.8672-8.4688-14.938-8.4688zm6.3125 5.2812c2.6259 1.5024 3.7129 3.3119 3.9375 3.7188-0.07712 0.24348-0.20997 0.85729-1.125 1.9062-0.55124 0.63192-1.3315 1.2711-2.375 1.8438 0.5671-1.0116 0.94915-2.1514 1-3.375a0.98787 0.98787 0 0 0-0.9375-1.0312l-1.5312-0.09375a0.98787 0.98787 0 0 0-0.625 0.1875 0.98787 0.98787 0 0 0-0.59375-0.25l-1.375-0.0625 1.0625-0.75a0.98787 0.98787 0 0 0 0.375-0.5 0.98787 0.98787 0 0 0 0.59375-0.1875l1.1875-0.84375a0.98787 0.98787 0 0 0 0.40625-0.5625zm-12.906 0.28125c-0.55458 1.0578-0.9375 2.2234-0.9375 3.5 0 1.2738 0.35511 2.4604 0.90625 3.5312-2.5488-1.4636-3.2578-3.1328-3.4375-3.5625 0.19895-0.41426 1.0332-1.9998 3.4688-3.4688z" style="fill:#91ffe0;opacity:.16"/>
  <path id="path3568-1" d="m23.906 15.938c-10.668 0-15.719 9.0312-15.719 9.0312a2.059 2.059 0 0 0 0.03125 2.0312c5.428e-4 0.0021-0.00402 0.0035 0.03125 0.0625 0.021114 0.04406 0.025134 0.07914 0.0625 0.15625 0.1186 0.24476 0.30713 0.62433 0.5625 1.0625 0.51074 0.87634 1.3089 2.0223 2.5 3.1875 2.3822 2.3304 6.4144 4.6167 12.406 4.5938 6.0747-0.02313 10.206-2.2914 12.688-4.5938s3.4688-4.7812 3.4688-4.7812a2.059 2.059 0 0 0-0.15625-1.75s-5.2069-9-15.875-9zm6.5312 7.7812c0.40476 0.28295 0.87328 0.55398 1.1875 0.84375a2.059 2.059 0 0 0-0.84375-0.28125l-1.0312-0.0625 0.6875-0.5zm-15.062 1.9688c-0.0057 0.12877-0.0625 0.24498-0.0625 0.375 0 0.14062 0.05598 0.26688 0.0625 0.40625-0.1146-0.17964-0.21386-0.27294-0.28125-0.40625 0.06305-0.11342 0.18074-0.22273 0.28125-0.375zm17.281 0.125c0.06809 0.09999 0.17006 0.20296 0.21875 0.28125-0.03237 0.0737-0.10655 0.15504-0.15625 0.25a2.059 2.059 0 0 0-0.0625-0.53125z" style="fill:#91ffe0;opacity:.07"/>
 </g>
</svg>
