<?xml version="1.0" encoding="UTF-8"?>
<!-- Created with Inkscape (http://www.inkscape.org/) -->
<svg id="svg2999" width="48" height="48" version="1.1" xmlns="http://www.w3.org/2000/svg" xmlns:xlink="http://www.w3.org/1999/xlink">
 <defs id="defs3001">
  <linearGradient id="linearGradient3711" x1="-1.9371" x2="-1.9371" y1=".98802" y2="31.827" gradientTransform="matrix(.57166 0 0 .41385 18.435 9.4856)" gradientUnits="userSpaceOnUse">
   <stop id="stop3668" style="stop-color:#fff" offset="0"/>
   <stop id="stop3670" style="stop-color:#fff;stop-opacity:0" offset="1"/>
  </linearGradient>
  <linearGradient id="linearGradient3714" x1="87.05" x2="87.05" y1="53.75" y2="41.73" gradientTransform="translate(-64.303 -.03125)" gradientUnits="userSpaceOnUse">
   <stop id="stop3597" style="stop-color:#fff" offset="0"/>
   <stop id="stop3599" style="stop-color:#fff;stop-opacity:0" offset="1"/>
  </linearGradient>
  <filter id="filter3615" color-interpolation-filters="sRGB">
   <feGaussianBlur id="feGaussianBlur3617" stdDeviation="0.655"/>
  </filter>
  <radialGradient id="radialGradient3717" cx="8.4375" cy="32.535" r="26.406" gradientTransform="matrix(.68425 -1.8109e-8 0 .2772 15.949 11.768)" gradientUnits="userSpaceOnUse">
   <stop id="stop3743" style="stop-color:#8b6a35" offset="0"/>
   <stop id="stop3771" style="stop-color:#885f22" offset=".37136"/>
   <stop id="stop3745" style="stop-color:#754d0d" offset=".68556"/>
   <stop id="stop3747" style="stop-color:#483816" offset="1"/>
  </radialGradient>
  <linearGradient id="linearGradient3720" x1="5.6836" x2="35.033" y1="16.366" y2="16.366" gradientTransform="matrix(.55458 0 0 .40111 18.533 9.6941)" gradientUnits="userSpaceOnUse" spreadMethod="reflect">
   <stop id="stop3528" style="stop-color:#d1d1d1" offset="0"/>
   <stop id="stop3530" style="stop-color:#959594" offset="1"/>
  </linearGradient>
  <filter id="filter3550" x="-.056301" y="-.1126" width="1.1126" height="1.2252" color-interpolation-filters="sRGB">
   <feGaussianBlur id="feGaussianBlur3552" stdDeviation="1.3737999"/>
  </filter>
  <radialGradient id="radialGradient3724" cx="-6.4537" cy="29.206" r="32" gradientTransform="matrix(-1.2727e-8 .81386 -.85578 0 37.81 28.709)" gradientUnits="userSpaceOnUse">
   <stop id="stop3491" style="stop-color:#eeeeec" offset="0"/>
   <stop id="stop3497" style="stop-color:#cacac9" offset=".5"/>
   <stop id="stop3493" style="stop-color:#6b6b6b" offset="1"/>
  </radialGradient>
  <linearGradient id="linearGradient3726" x1="117.3" x2="53.303" y1="55.031" y2="2.3599" gradientTransform="matrix(.57744 0 0 .57744 -27.534 8.3902)" gradientUnits="userSpaceOnUse" xlink:href="#linearGradient3584"/>
  <linearGradient id="linearGradient3584">
   <stop id="stop3586" style="stop-color:#5f5f5f" offset="0"/>
   <stop id="stop3588" style="stop-color:#c6c6c6" offset="1"/>
  </linearGradient>
  <radialGradient id="radialGradient3687" cx="106.33" cy="65.468" r="13.983" gradientTransform="matrix(-.32952 .027304 -.013263 -.16006 75.27 27.026)" gradientUnits="userSpaceOnUse" xlink:href="#linearGradient8838"/>
  <linearGradient id="linearGradient8838">
   <stop id="stop8840" offset="0"/>
   <stop id="stop8842" style="stop-opacity:0" offset="1"/>
  </linearGradient>
  <radialGradient id="radialGradient3689" cx="94.239" cy="62.312" r="13.983" gradientTransform="matrix(-.45004 .022889 -.019946 -.39217 88.662 39.173)" gradientUnits="userSpaceOnUse">
   <stop id="stop2813" style="stop-color:#fff" offset="0"/>
   <stop id="stop2815" style="stop-color:#fff;stop-opacity:0" offset="1"/>
  </radialGradient>
  <radialGradient id="radialGradient3664" cx="118.48" cy="58.119" r="13.983" gradientTransform="matrix(-.40417 .4026 -.25545 -.25644 101.46 -7.9535)" gradientUnits="userSpaceOnUse">
   <stop id="stop3669" style="stop-color:#fefefe" offset="0"/>
   <stop id="stop3671" style="stop-color:#b4b4b3" offset="1"/>
  </radialGradient>
  <linearGradient id="linearGradient2863" x1="34.463" x2="40.883" y1="24.868" y2="27.884" gradientTransform="matrix(1.731 0 0 1.7321 -21.483 -21.131)" gradientUnits="userSpaceOnUse" xlink:href="#linearGradient3584"/>
  <radialGradient id="radialGradient2997" cx="62.625" cy="4.625" r="10.625" gradientTransform="matrix(1.7391 0 0 .57064 -87.52 34.352)" gradientUnits="userSpaceOnUse" xlink:href="#linearGradient8838"/>
 </defs>
 <g id="layer1" transform="matrix(1 0 0 1.0078 0 .26635)">
  <path id="path2845" d="m39.87 36.991c0 3.3486-8.2729 6.0631-18.478 6.0631-10.205 0-18.478-2.7145-18.478-6.0631s8.2729-6.0631 18.478-6.0631c10.205 0 18.478 2.7145 18.478 6.0631z" style="fill-rule:evenodd;fill:url(#radialGradient2997);opacity:.3"/>
  <path id="path4023" d="m35.725 31.657c3.5448-0.31424 11.355-1.1823 10.795-10.178-0.029736-0.47722-0.15385-0.9674-0.36718-1.3471-0.26758-0.45208-0.55671-0.7518-0.95466-1.0477-1.8219-1.306-5.1232-1.1026-7.4903-1.1026-7.7606 1.6194-9.4029 14.687-1.9827 13.675zm1.2442-10.554h6.561c0.24255 8.2688-6.5422 6.5202-6.5422 6.5202l-0.01879-6.098 1e-6 -0.42223z" style="fill:url(#radialGradient3664);stroke:url(#linearGradient2863)"/>
  <path id="path3677" d="m37.754 18.272c-3.7324 0.77886-6.0068 4.339-6.442 7.5789-0.21762 1.62 0.02712 3.1421 0.73984 4.1684 0.71273 1.0263 1.871 1.5954 3.6451 1.3534 0.0061-1.9e-4 0.01204-1.9e-4 0.01805 0 1.6097-0.1427 5.8294-1.0146 8.0585-3.1026 1.1146-1.044 0.60635-3.026 1.3249-4.0793 0.71852-1.0533 1.1368-2.031 1.1368-2.7067 0-0.41158-0.15079-0.86719-0.34285-1.209-0.25218-0.42605-0.49211-0.67825-0.86616-0.95638-1.664-1.1928-4.8927-1.0487-7.2721-1.0466zm-0.83007 2.9594c0.01802-0.0017 0.03612-0.0017 0.05414 0 0 0 4.1123-0.1684 5.4834-0.1684 0.0766-1.12e-4 -0.05417-0.05418 0 0 0.05416 0.05417 1e-4 -0.07661 0 0 2e-6 1.6107 0.25436 4.2614-0.89302 5.002-1.1474 0.74069-2.2917 1.1007-2.2917 1.1007-0.08737 0.02895-0.18333 0.01444-0.25823-0.03906-0.07491-0.05351-0.11975-0.13956-0.12071-0.2316l-2.2084-5.375c-0.0027-0.14056 0.09645-0.26255 0.23458-0.28872l6e-6 -2.4e-5z" style="fill:url(#radialGradient3689)"/>
  <path id="path3685" d="m37.754 18.272c-3.7324 0.77886-6.0068 4.339-6.442 7.5789-0.21762 1.62 0.02712 3.1421 0.73984 4.1684 0.71273 1.0263 1.871 1.5954 3.6451 1.3534 0.0061-1.9e-4 0.01204-1.9e-4 0.01805 0 1.6097-0.1427 6.5116-0.83772 8.7407-2.9257 1.1146-1.044-0.07584-3.2029 0.64268-4.2562 0.71852-1.0533 1.1368-2.031 1.1368-2.7067 0-0.41158-0.15079-0.86719-0.34285-1.209-0.25218-0.42605-0.49211-0.67825-0.86616-0.95638-1.664-1.1928-4.8927-1.0487-7.2721-1.0466zm-0.83007 2.9594c0.01802-0.0017 0.03612-0.0017 0.05414 0 0 0 5.1356 0.13492 6.5066 0.13492 0.0766-1.12e-4 0.15011 0.03026 0.20428 0.08444 0.05416 0.05417 0.08454 0.12767 0.08444 0.20428 2e-6 1.6107-1.0576 3.6693-2.205 4.41-1.1474 0.74069-2.2917 1.1007-2.2917 1.1007-0.08737 0.02895-0.18333 0.01444-0.25823-0.03906-0.07491-0.05351-0.11975-0.13956-0.12071-0.2316l-2.2084-5.375c-0.0027-0.14056 0.09645-0.26255 0.23458-0.28872l6e-6 -2.4e-5z" style="fill:url(#radialGradient3687);opacity:.3"/>
  <path id="path2706" d="m21.723 9.1481c-9.6601 0-17.568 2.7784-18.153 6.2796h-0.036091v0.41503 3.5368 0.27068c0.1302 11.19 8.2295 20.228 18.189 20.228 9.9598 0 18.059-9.0384 18.189-20.228 9.44e-4 -0.09114 0-0.17925 0-0.27068v-3.5368-0.41503h-0.0361c-0.58534-3.5012-8.4931-6.2796-18.153-6.2796z" style="fill:url(#radialGradient3724);stroke-linecap:square;stroke-linejoin:round;stroke:url(#linearGradient3726)"/>
  <path id="path3534" transform="matrix(.5984 0 0 .48271 18.357 8.4342)" d="m35.033 16.366c3e-3 8.0869-13.108 14.643-29.281 14.643s-29.284-6.5565-29.281-14.643c-3e-3 -8.0869 13.108-14.643 29.281-14.643s29.284 6.5565 29.281 14.643z" style="fill:#fff;filter:url(#filter3550);opacity:.6"/>
  <path id="path3499" d="m37.962 16.259c0.0017 3.2437-7.2692 5.8736-16.239 5.8736-8.9696 0-16.24-2.6299-16.239-5.8736-0.00169-3.2437 7.2692-5.8736 16.239-5.8736 8.9696 0 16.24 2.6299 16.239 5.8736z" style="fill:url(#linearGradient3720)"/>
  <path id="path3736" d="m21.722 13.028c-7.5222 0-13.846 1.7208-15.688 4.0504 1.8513 2.3251 8.1757 4.0337 15.688 4.0337 7.5112 0 13.836-1.7093 15.688-4.0337-1.8435-2.3291-8.1674-4.0504-15.688-4.0504z" style="fill:#36290f"/>
  <path id="path3501" d="m21.722 13.605c-7.5222 0-13.846 1.8438-15.688 4.3398 1.8513 2.4912 8.1757 4.3218 15.688 4.3218 7.5112 0 13.836-1.8314 15.688-4.3218-1.8435-2.4954-8.1674-4.3398-15.688-4.3398z" style="fill:url(#radialGradient3717)"/>
  <path id="path3590" transform="matrix(.57744 0 0 .57744 9.5967 8.4082)" d="m46.072 37.688c-5.2176 7.1236-14.348 11.844-24.75 11.844-10.381 1e-6 -19.496-4.7124-24.719-11.812 4.0183 9.3841 13.572 16 24.719 16 11.161 0 20.741-6.6275 24.75-16.031z" style="fill:url(#linearGradient3714);filter:url(#filter3615);opacity:.3"/>
  <path id="path3664" d="m38.462 16.259c0.0018 3.3467-7.493 6.0601-16.739 6.0601-9.2458 0-16.741-2.7134-16.739-6.0601-0.00173-3.3467 7.493-6.0601 16.739-6.0601 9.2458 0 16.741 2.7134 16.739 6.0601v0z" style="fill:none;opacity:.4;stroke-linecap:square;stroke-linejoin:round;stroke:url(#linearGradient3711)"/>
 </g>
</svg>
