<?xml version="1.0" encoding="UTF-8"?>
<!-- Created with Inkscape (http://www.inkscape.org/) -->
<svg id="svg7324" width="48" height="48" version="1.1" xmlns="http://www.w3.org/2000/svg" xmlns:cc="http://creativecommons.org/ns#" xmlns:dc="http://purl.org/dc/elements/1.1/" xmlns:rdf="http://www.w3.org/1999/02/22-rdf-syntax-ns#" xmlns:xlink="http://www.w3.org/1999/xlink">
 <metadata id="metadata68">
  <rdf:RDF>
   <cc:Work rdf:about="">
    <dc:format>image/svg+xml</dc:format>
    <dc:type rdf:resource="http://purl.org/dc/dcmitype/StillImage"/>
   </cc:Work>
  </rdf:RDF>
 </metadata>
 <defs id="defs7326">
  <linearGradient id="linearGradient3269">
   <stop id="stop3271" style="stop-color:#787878" offset="0"/>
   <stop id="stop3273" style="stop-color:#bebebe" offset=".34447"/>
   <stop id="stop3275" style="stop-color:#c8c8c8" offset=".37315"/>
   <stop id="stop3277" style="stop-color:#e6e6e6" offset=".48991"/>
   <stop id="stop3279" style="stop-color:#8c8c8c" offset="1"/>
  </linearGradient>
  <linearGradient id="linearGradient3257">
   <stop id="stop3259" style="stop-color:#3c3c3c" offset="0"/>
   <stop id="stop3261" style="stop-color:#8c8c8c" offset=".34847"/>
   <stop id="stop3263" style="stop-color:#969696" offset=".36564"/>
   <stop id="stop3265" style="stop-color:#bebebe" offset=".49353"/>
   <stop id="stop3267" style="stop-color:#5a5a5a" offset="1"/>
  </linearGradient>
  <linearGradient id="linearGradient6592">
   <stop id="stop6594" style="stop-color:#fff;stop-opacity:.27451" offset="0"/>
   <stop id="stop6596" style="stop-color:#fff;stop-opacity:0" offset="1"/>
  </linearGradient>
  <linearGradient id="linearGradient6544">
   <stop id="stop6546" style="stop-color:#f0f0f0" offset="0"/>
   <stop id="stop6548" style="stop-color:#d2d2d2" offset="1"/>
  </linearGradient>
  <linearGradient id="linearGradient10691">
   <stop id="stop10693" offset="0"/>
   <stop id="stop10695" style="stop-opacity:0" offset="1"/>
  </linearGradient>
  <linearGradient id="linearGradient2951" x1="46.581" x2="46.164" y1="42.182" y2="29.439" gradientTransform="matrix(.67871 0 0 .71886 -.43159 13.87)" gradientUnits="userSpaceOnUse">
   <stop id="stop3698" style="stop-color:#969696" offset="0"/>
   <stop id="stop3700" style="stop-color:#505050" offset="1"/>
  </linearGradient>
  <radialGradient id="radialGradient2908" cx="6.7027" cy="73.616" r="7.2284" gradientTransform="matrix(.83006 0 0 .20751 28.436 7.2237)" gradientUnits="userSpaceOnUse" xlink:href="#linearGradient10691"/>
  <linearGradient id="linearGradient2910" x1="321.58" x2="321.58" y1="86.05" y2="96.245" gradientTransform="matrix(.41035 0 0 .51289 -97.323 -25.968)" gradientUnits="userSpaceOnUse" xlink:href="#linearGradient3269"/>
  <linearGradient id="linearGradient2912" x1="22.452" x2="22.452" y1="30.05" y2="40.186" gradientTransform="matrix(.41182 0 0 .51282 24.116 2.7569)" gradientUnits="userSpaceOnUse" xlink:href="#linearGradient3257"/>
  <linearGradient id="linearGradient2914" x1="20.147" x2="20.104" y1="-.0004971" y2="31.983" gradientTransform="matrix(.42622 0 0 .45209 25.27 2.267)" gradientUnits="userSpaceOnUse" xlink:href="#linearGradient6544"/>
  <linearGradient id="linearGradient2920" x1="12.938" x2="15.25" y1="8.4375" y2="19.812" gradientTransform="matrix(.40476 0 0 .46667 25.786 2.4336)" gradientUnits="userSpaceOnUse" xlink:href="#linearGradient6592"/>
  <radialGradient id="radialGradient2938" cx="6.7027" cy="73.616" r="7.2284" gradientTransform="matrix(.83006 0 0 .20751 8.4364 30.224)" gradientUnits="userSpaceOnUse" xlink:href="#linearGradient10691"/>
  <linearGradient id="linearGradient2940" x1="321.58" x2="321.58" y1="86.05" y2="96.245" gradientTransform="matrix(.41035 0 0 .51289 -117.32 -2.9677)" gradientUnits="userSpaceOnUse" xlink:href="#linearGradient3269"/>
  <linearGradient id="linearGradient2942" x1="22.452" x2="22.452" y1="30.05" y2="40.186" gradientTransform="matrix(.41182 0 0 .51282 4.1162 25.757)" gradientUnits="userSpaceOnUse" xlink:href="#linearGradient3257"/>
  <linearGradient id="linearGradient2944" x1="20.147" x2="20.104" y1="-.0004971" y2="31.983" gradientTransform="matrix(.42622 0 0 .45209 5.2705 25.267)" gradientUnits="userSpaceOnUse" xlink:href="#linearGradient6544"/>
  <linearGradient id="linearGradient2950" x1="12.938" x2="15.25" y1="8.4375" y2="19.812" gradientTransform="matrix(.40476 0 0 .46667 5.7857 25.434)" gradientUnits="userSpaceOnUse" xlink:href="#linearGradient6592"/>
  <linearGradient id="linearGradient3242-593-605-251-305">
   <stop id="stop2749" style="stop-color:#d78ec1" offset="0"/>
   <stop id="stop2751" style="stop-color:#c564be" offset=".26238"/>
   <stop id="stop2753" style="stop-color:#9d3ea4" offset=".66094"/>
   <stop id="stop2755" style="stop-color:#5e2c73" offset="1"/>
  </linearGradient>
  <linearGradient id="linearGradient3332-412-419-652-471">
   <stop id="stop2759" style="stop-color:#650d5c" offset="0"/>
   <stop id="stop2761" style="stop-color:#5e2c59" offset="1"/>
  </linearGradient>
  <radialGradient id="radialGradient2843" cx="26.617" cy="-2.0645" r="23" gradientTransform="matrix(0 -.34355 .58896 0 39.034 21.115)" gradientUnits="userSpaceOnUse" xlink:href="#linearGradient3242-593-605-251-305"/>
  <linearGradient id="linearGradient2845" x1="10.014" x2="10.014" y1="44.96" y2="2.8765" gradientTransform="matrix(.40374 0 0 .29126 24.299 3.6246)" gradientUnits="userSpaceOnUse" xlink:href="#linearGradient3332-412-419-652-471"/>
  <radialGradient id="radialGradient2892" cx="26.617" cy="-2.0645" r="23" gradientTransform="matrix(0 -.34355 .58896 0 19.034 44.031)" gradientUnits="userSpaceOnUse" xlink:href="#linearGradient3242-593-605-251-305"/>
  <linearGradient id="linearGradient2894" x1="10.014" x2="10.014" y1="44.96" y2="2.8765" gradientTransform="matrix(.40374 0 0 .29126 4.2992 26.541)" gradientUnits="userSpaceOnUse" xlink:href="#linearGradient3332-412-419-652-471"/>
 </defs>
 <path id="path7035" d="m36.689 21.667c8.9288-0.64651 0.4868 3.5031-4.8675 7.4178-4.3846 4.7632 5.8519 4.088 7.3557 10.069 1.0935 4.349-6.9948 4.6081-10.056 4.3638-2.4668 0.24169-9.1894-0.75179-12.621 1.9831" style="fill:none;stroke-linecap:round;stroke:url(#linearGradient2951)"/>
 <path id="path2892" d="m40 22.5c0 0.82843-2.6863 1.5-6 1.5-3.3137 0-6-0.67157-6-1.5s2.6863-1.5 6-1.5c3.3137 0 6 0.67157 6 1.5z" style="fill:url(#radialGradient2908);opacity:.5"/>
 <path id="path2894" d="m31.772 16.346v3.5903c-0.0091 0.92422-0.81125 1.5387-0.81125 1.5387-0.30832 0.04535-0.46164 0.22875-0.46164 0.5129 0 0.28414 0.20756 0.51289 0.46164 0.51289h6.0784c0.25408 0 0.46164-0.22875 0.46164-0.51289 0-0.28414-0.15332-0.46754-0.46164-0.5129 0 0-0.80496-0.61446-0.81403-1.5387v-3.5903h-4.4532z" style="enable-background:new;fill:url(#linearGradient2910);stroke-dashoffset:.5;stroke-linecap:round;stroke-linejoin:round;stroke-width:.99827;stroke:url(#linearGradient2912)"/>
 <rect id="rect2896" x="22.591" y="2.6215" width="22.909" height="15.939" rx=".5" ry=".5" style="fill:url(#linearGradient2914);stroke-dashoffset:.5;stroke-linecap:round;stroke-linejoin:round;stroke:#969696"/>
 <rect id="rect3063" x="24.501" y="4.5848" width="18.998" height="11.998" style="fill-rule:evenodd;fill:url(#radialGradient2843);stroke-linecap:round;stroke-linejoin:round;stroke-width:1.0021;stroke:url(#linearGradient2845)"/>
 <rect id="rect2900" x="25.091" y="5" width="17.909" height="1" style="fill:#fff;opacity:.8"/>
 <rect id="rect2902" x="29" y="11" width="5" height="4" rx=".5" ry=".5" style="fill:#fff;opacity:.9"/>
 <rect id="rect2904" x="36" y="7" width="6" height="5" rx=".5" ry=".5" style="fill:#fff;opacity:.9"/>
 <path id="path2906" d="m24 3.8336h20v3.7333l-20 3.2667v-7z" style="fill:url(#linearGradient2920)"/>
 <path id="path2922" d="m20 45.5c0 0.82843-2.6863 1.5-6 1.5-3.3137 0-6-0.67157-6-1.5s2.6863-1.5 6-1.5c3.3137 0 6 0.67157 6 1.5z" style="fill:url(#radialGradient2938);opacity:.5"/>
 <path id="path2924" d="m11.772 39.346v3.5903c-0.0091 0.92422-0.81125 1.5387-0.81125 1.5387-0.30832 0.04535-0.46164 0.22875-0.46164 0.5129 0 0.28414 0.20756 0.51289 0.46164 0.51289h6.0784c0.25408 0 0.46164-0.22875 0.46164-0.51289 0-0.28414-0.15332-0.46754-0.46164-0.5129 0 0-0.80496-0.61446-0.81403-1.5387v-3.5903h-4.4532z" style="enable-background:new;fill:url(#linearGradient2940);stroke-dashoffset:.5;stroke-linecap:round;stroke-linejoin:round;stroke-width:.99827;stroke:url(#linearGradient2942)"/>
 <rect id="rect2926" x="2.5909" y="25.622" width="22.909" height="15.939" rx=".5" ry=".5" style="fill:url(#linearGradient2944);stroke-dashoffset:.5;stroke-linecap:round;stroke-linejoin:round;stroke:#969696"/>
 <rect id="rect2890" x="4.5011" y="27.501" width="18.998" height="11.998" style="fill-rule:evenodd;fill:url(#radialGradient2892);stroke-linecap:round;stroke-linejoin:round;stroke-width:1.0021;stroke:url(#linearGradient2894)"/>
 <rect id="rect2932" x="10" y="35" width="5" height="4" rx=".5" ry=".5" style="fill:#fff;opacity:.9"/>
 <rect id="rect2934" x="16" y="30" width="6" height="5" rx=".5" ry=".5" style="fill:#fff;opacity:.9"/>
 <path id="rect7291" d="m5 28v1h1v5h4v-5h13v-1h-18z" style="fill:#fff;opacity:.8"/>
 <path id="rect7293" d="m7 30v1h2v-1h-2zm0 2v1h2v-1h-2z" style="opacity:.2"/>
 <path id="path2936" d="m4 26.834h20v3.7333l-20 3.2667v-7z" style="fill:url(#linearGradient2950)"/>
</svg>
