<?xml version="1.0" encoding="UTF-8"?>
<!-- Created with Inkscape (http://www.inkscape.org/) -->
<svg id="svg7384" width="16" height="16" version="1.1" xmlns="http://www.w3.org/2000/svg" xmlns:cc="http://creativecommons.org/ns#" xmlns:dc="http://purl.org/dc/elements/1.1/" xmlns:rdf="http://www.w3.org/1999/02/22-rdf-syntax-ns#">
 <metadata id="metadata90">
  <rdf:RDF>
   <cc:Work rdf:about="">
    <dc:format>image/svg+xml</dc:format>
    <dc:type rdf:resource="http://purl.org/dc/dcmitype/StillImage"/>
    <dc:title>Gnome Symbolic Icon Theme</dc:title>
   </cc:Work>
  </rdf:RDF>
 </metadata>
 <title id="title9167">Gnome Symbolic Icon Theme</title>
 <defs id="defs7386">
  <clipPath id="clipPath6810-7-0-7-1">
   <rect id="rect6812-2-2-4-8" x="21" y="281" width="14" height="11" style="color:#bebebe;fill:none;stroke-linecap:round;stroke-linejoin:round;stroke-width:2;stroke:#fff"/>
  </clipPath>
 </defs>
 <g id="layer9" transform="translate(-101 -177)">
  <path id="path3761-2-3-5-4-8-9-8-0-1-7" d="m112 188h1.375l1.125 1.0938 1.0938-1.0938h1.4062v1.4688l-1.0938 1.0625 1.0938 1.0625v1.4062h-1.4375l-1.0625-1.0625-1.0625 1.0625h-1.4375v-1.4062l1.0625-1.0625-1.0625-1.0625v-1.4688z" style="color:#bebebe;fill:#bebebe"/>
  <g id="g14804" transform="translate(81 -40)" style="opacity:.25">
   <rect id="rect13968-5" x="24" y="217.99" width="5" height="10.013" rx="2.5" ry="2.5" style="color:#bebebe;fill:#bebebe"/>
   <rect id="rect13970-1" transform="matrix(.99397 0 0 1 -1.2933 -58.486)" x="23.938" y="274.13" width="8.0625" height="13.869" rx="4.0313" ry="4.0313" clip-path="url(#clipPath6810-7-0-7-1)" style="color:#bebebe;fill:none;stroke-width:1.003;stroke:#bebebe"/>
   <path id="path13972-1" transform="matrix(.5 0 0 .5 11 42)" d="m24 361c0 0.55228-0.44772 1-1 1s-1-0.44772-1-1 0.44772-1 1-1 1 0.44772 1 1z" style="color:#bebebe;fill:#bebebe"/>
   <path id="path13974-3" transform="matrix(.5 0 0 .5 19 42)" d="m24 361c0 0.55228-0.44772 1-1 1s-1-0.44772-1-1 0.44772-1 1-1 1 0.44772 1 1z" style="color:#bebebe;fill:#bebebe"/>
   <path id="path13976-0" d="m22.987 232h6.0125" style="color:#bebebe;fill:none;stroke-linecap:round;stroke-width:2;stroke:#bebebe"/>
   <rect id="rect13978-6" x="22" y="232" width="1" height="1" style="color:#bebebe;fill:#bebebe"/>
   <rect id="rect13980-4" x="25" y="229" width="3" height="4" style="color:#bebebe;fill:#bebebe"/>
   <rect id="rect14813" x="29" y="231" width="1" height="2" style="color:#bebebe;fill:#bebebe"/>
  </g>
 </g>
</svg>
