<?xml version="1.0" encoding="UTF-8"?>
<!-- Created with Inkscape (http://www.inkscape.org/) -->
<svg id="svg2511" width="32" height="32" version="1.0" xmlns="http://www.w3.org/2000/svg" xmlns:xlink="http://www.w3.org/1999/xlink">
 <defs id="defs2513">
  <radialGradient id="radialGradient2499" cx="24.454" cy="46.87" r="19.614" gradientTransform="matrix(.66278 0 0 .13377 -.2078 23.106)" gradientUnits="userSpaceOnUse">
   <stop id="stop3439" offset="0"/>
   <stop id="stop3441" style="stop-opacity:0" offset="1"/>
  </radialGradient>
  <linearGradient id="linearGradient2496" x1="22.015" x2="22.015" y1="45" y2="13.997" gradientTransform="matrix(.63636 0 0 .66883 .72727 .73726)" gradientUnits="userSpaceOnUse">
   <stop id="stop3259" style="stop-color:#957747" offset="0"/>
   <stop id="stop3261" style="stop-color:#ae8c56" offset="1"/>
  </linearGradient>
  <linearGradient id="linearGradient2494" x1="6.7268" x2="40.938" y1="32.162" y2="32.162" gradientTransform="matrix(.60011 0 0 .75568 1.5993 -4.5077)" gradientUnits="userSpaceOnUse">
   <stop id="stop2413" style="stop-color:#fee7b1" offset="0"/>
   <stop id="stop2419" style="stop-color:#ebd4b4" offset=".25797"/>
   <stop id="stop2421" style="stop-color:#c8a775" offset=".50797"/>
   <stop id="stop2423" style="stop-color:#b0935b" offset=".7401"/>
   <stop id="stop2415" style="stop-color:#fcebbf" offset="1"/>
  </linearGradient>
  <linearGradient id="linearGradient2481" x1="10.907" x2="30.875" y1="25.002" y2="36.127" gradientTransform="matrix(.57523 0 0 .7195 2.2029 -2.3653)" gradientUnits="userSpaceOnUse">
   <stop id="stop9847" style="stop-color:#fff" offset="0"/>
   <stop id="stop9849" style="stop-color:#fff;stop-opacity:.49485" offset="1"/>
  </linearGradient>
  <linearGradient id="linearGradient2478" x1="24.875" x2="24.75" y1="21" y2="17" gradientTransform="matrix(.58824 0 0 1.0094 1.8824 -5.4859)" gradientUnits="userSpaceOnUse">
   <stop id="stop5883" style="stop-color:#d6c8a7" offset="0"/>
   <stop id="stop5885" style="stop-color:#d0bd99" offset="1"/>
  </linearGradient>
  <linearGradient id="linearGradient2475" x1="21.942" x2="21.942" y1="21.551" y2="18.038" gradientTransform="matrix(.57576 0 0 .50319 2.1818 5.6942)" gradientUnits="userSpaceOnUse">
   <stop id="stop12073" style="stop-color:#fff" offset="0"/>
   <stop id="stop12075" style="stop-color:#fff;stop-opacity:0" offset="1"/>
  </linearGradient>
  <filter id="filter5957" x="-.49412" y="-.082353" width="1.9882" height="1.1647" color-interpolation-filters="sRGB">
   <feGaussianBlur id="feGaussianBlur5959" stdDeviation="0.69878785"/>
  </filter>
  <radialGradient id="radialGradient2471" cx="15.938" cy="20.312" r="3.3125" gradientTransform="matrix(.90161 0 0 .5322 -4.1579 2.5753)" gradientUnits="userSpaceOnUse" xlink:href="#linearGradient6075"/>
  <linearGradient id="linearGradient6075">
   <stop id="stop6077" offset="0"/>
   <stop id="stop6079" style="stop-opacity:0" offset="1"/>
  </linearGradient>
  <radialGradient id="radialGradient2468" cx="15.938" cy="20.312" r="3.3125" gradientTransform="matrix(.90161 0 0 .5322 7.5421 2.5753)" gradientUnits="userSpaceOnUse" xlink:href="#linearGradient6075"/>
  <linearGradient id="linearGradient2507" x1="32.128" x2="35.021" y1="13.789" y2="13.789" gradientTransform="translate(-19.533 1.7437)" gradientUnits="userSpaceOnUse" xlink:href="#linearGradient6075"/>
  <filter id="filter6251" x="-.24243" y="-.047579" width="1.4849" height="1.0952" color-interpolation-filters="sRGB">
   <feGaussianBlur id="feGaussianBlur6253" stdDeviation="0.24444548"/>
  </filter>
  <linearGradient id="linearGradient2505" x1="35.005" x2="33.004" y1="14.85" y2="14.85" gradientTransform="translate(1.6824 1.125)" gradientUnits="userSpaceOnUse" xlink:href="#linearGradient6075"/>
  <linearGradient id="linearGradient2503" x1="10.651" x2="27.192" y1="2.9137" y2="17.47" gradientTransform="translate(0 -1.9263)" gradientUnits="userSpaceOnUse">
   <stop id="stop10593" style="stop-color:#cad0c6" offset="0"/>
   <stop id="stop10599" style="stop-color:#eaece9" offset=".5"/>
   <stop id="stop10595" style="stop-color:#c5cbc0" offset="1"/>
  </linearGradient>
  <filter id="filter5745" color-interpolation-filters="sRGB">
   <feGaussianBlur id="feGaussianBlur5747" stdDeviation="0.8362597"/>
  </filter>
  <radialGradient id="radialGradient2501" cx="18.031" cy="6.2807" r="3.182" gradientUnits="userSpaceOnUse">
   <stop id="stop6059" style="stop-color:#fff" offset="0"/>
   <stop id="stop6061" style="stop-color:#fff;stop-opacity:0" offset="1"/>
  </radialGradient>
 </defs>
 <g id="layer1">
  <path id="path3435" d="m29 29.376c0 1.4491-5.8203 2.6239-13 2.6239-7.1797 0-13-1.1747-13-2.6239s5.8203-2.6239 13-2.6239c7.1797 0 13 1.1747 13 2.6239z" style="fill:url(#radialGradient2499);opacity:.4"/>
  <path id="rect1314" d="m6.8412 11.169c6.0501-0.96538 12.165-0.81551 18.318 0 0.74304 0 1.3412 0.69797 1.3412 1.5649v15.597c0 0.86698-0.63679 1.4395-1.3412 1.5649-6.3791 0.80834-11.849 0.80196-18.318 0-0.85886-0.29261-1.3412-0.69797-1.3412-1.5649v-15.597c0-0.86698 0.59819-1.5649 1.3412-1.5649z" style="fill-rule:evenodd;fill:url(#linearGradient2494);stroke-linecap:round;stroke-linejoin:round;stroke:url(#linearGradient2496)"/>
  <g id="g4695" transform="matrix(.61351 0 0 .65171 .21485 .069219)">
   <path id="path6193" d="m41.94 24.445c-0.39821 1.3303-4.5342 1.6704-5.3021 1.7734l-16.309 0.48047 16.263 0.15913c0.82591-0.09712 5.2187 0.10339 5.4361-1.7059l-0.08839-0.70711z" style="fill-rule:evenodd;opacity:.14118"/>
   <path id="path4678" d="m41.94 26.445c-0.39821 1.3303-4.5342 1.6704-5.3021 1.7734l-19.059 0.48047 19.013 0.15913c0.82591-0.09712 5.2187 0.10339 5.4361-1.7059l-0.08839-0.70711z" style="fill-rule:evenodd;opacity:.14118"/>
   <path id="path4680" d="m41.94 28.445c-0.39821 1.3303-4.5342 1.6704-5.3021 1.7734l-16.309 0.48047 16.263 0.15913c0.82591-0.09712 5.2187 0.10339 5.4361-1.7059l-0.08839-0.70711z" style="fill-rule:evenodd;opacity:.14118"/>
   <path id="path4682" d="m41.94 30.445c-0.39821 1.3303-4.5342 1.6704-5.3021 1.7734l-11.059 0.48047 11.013 0.15913c0.82591-0.09712 5.2187 0.10339 5.4361-1.7059l-0.08839-0.70711z" style="fill-rule:evenodd;opacity:.14118"/>
   <path id="path4684" d="m41.94 32.445c-0.39821 1.3303-4.5342 1.6704-5.3021 1.7734l-16.309 0.48047 16.263 0.15913c0.82591-0.09712 5.2187 0.10339 5.4361-1.7059l-0.08839-0.70711z" style="fill-rule:evenodd;opacity:.14118"/>
   <path id="path4686" d="m41.94 34.445c-0.39821 1.3303-4.5342 1.6704-5.3021 1.7734l-18.746 0.48047 18.701 0.15913c0.82591-0.09712 5.2187 0.10339 5.4361-1.7059l-0.08839-0.70711z" style="fill-rule:evenodd;opacity:.14118"/>
   <path id="path4688" d="m41.94 36.445c-0.39821 1.3303-4.5342 1.6704-5.3021 1.7734 0 0-13.996 0.48047-13.996 0.48047l13.951 0.15913c0.82591-0.09712 5.2187 0.10339 5.4361-1.7059l-0.08839-0.70711z" style="fill-rule:evenodd;opacity:.14118"/>
   <path id="path4690" d="m41.94 38.445c-0.39821 1.3303-4.5342 1.6704-5.3021 1.7734l-8.4339 0.48047 8.3882 0.15913c0.82591-0.09712 5.2187 0.10339 5.4361-1.7059l-0.08839-0.70711z" style="fill-rule:evenodd;opacity:.14118"/>
   <path id="path4692" d="m41.94 40.445c-0.39821 1.3303-4.5342 1.6704-5.3021 1.7734l-16.309 0.48047 16.263 0.15913c0.82591-0.09712 5.2187 0.10339 5.4361-1.7059l-0.08839-0.70711z" style="fill-rule:evenodd;opacity:.14118"/>
  </g>
  <path id="rect6903" d="m7.2418 12.5h17.516c0.41098 0 0.74185 0.37733 0.74185 0.84604v14.727c0 0.4687-0.29376 0.68509-0.74185 0.84604-5.7275 0.77487-11.381 0.77307-17.516 0-0.41098-0.16095-0.74185-0.37733-0.74185-0.84604v-14.727c0-0.4687 0.33086-0.84604 0.74185-0.84604z" style="fill:none;opacity:.38;stroke-linecap:round;stroke-linejoin:round;stroke-opacity:.60109;stroke:url(#linearGradient2481)"/>
  <path id="rect1460" d="m6.9743 11.673c6.0171-0.98294 12.034-0.80787 18.051 0 0.53976 0 0.97429 0.4825 0.97429 1.0818v1.8737c0 0.59934-0.43453 1.0818-0.97429 1.0818-6.2792 0.46437-12.057 0.29864-18.051 0-0.53975 0-0.97429-0.4825-0.97429-1.0818v-1.8737c0-0.59934 0.43453-1.0818 0.97429-1.0818z" style="fill-rule:evenodd;fill:url(#linearGradient2478)"/>
  <path id="rect1593" d="m7.191 14.5h17.618c0.38283 0 0.69102 0.25859 0.69102 0.5798v0.34997c0 0.32121-0.3082 0.5798-0.69102 0.5798-5.8178 0.63436-11.701 0.67318-17.618 0-0.38283 0-0.69102-0.25859-0.69102-0.5798v-0.34997c0-0.32121 0.3082-0.5798 0.69102-0.5798z" style="fill:none;opacity:.6;stroke-linecap:round;stroke-linejoin:round;stroke:url(#linearGradient2475)"/>
  <rect id="rect5887" transform="matrix(1.2444 0 0 .80575 -9.9082 -3.4175)" x="14.594" y="23.226" width="2.8284" height="16.971" rx="1.6077" ry="1.6077" style="fill-rule:evenodd;fill:#fff;filter:url(#filter5957);opacity:.2"/>
  <path id="path6073" d="m13.198 13.386c0 0.97363-1.3371 1.7629-2.9866 1.7629-1.6494 0-2.9866-0.78928-2.9866-1.7629s1.3371-1.7629 2.9866-1.7629c1.6494 0 2.9866 0.78928 2.9866 1.7629z" style="fill-rule:evenodd;fill:url(#radialGradient2471);opacity:.3"/>
  <path id="path6083" d="m24.898 13.386c0 0.97363-1.3371 1.7629-2.9866 1.7629s-2.9866-0.78928-2.9866-1.7629 1.3371-1.7629 2.9866-1.7629 2.9866 0.78928 2.9866 1.7629z" style="fill-rule:evenodd;fill:url(#radialGradient2468);opacity:.3"/>
  <g id="g1387" transform="matrix(.55859 0 0 .62755 2.5798 .24623)">
   <path id="path2086" d="m10.64 20.235v-5.7348c0-7.8701 5.2574-11.609 13.38-11.511 8.1666 0.098286 13.48 3.548 13.48 11.511v5.9848c0 1.9542-5.4907 2.203-5.4907 0v-3.9848c0-2 0.56845-8.4719-7.9321-8.4719-8.4304 0-7.8162 6.5117-7.7835 8.4639v3.7765c0 2.3546-5.6536 2.3446-5.6536-0.03368z" style="fill-rule:evenodd;fill:url(#linearGradient2503);stroke-width:1.689;stroke:#888a85"/>
   <path id="rect1345" d="m34.687 10.837 1.2639 0.125c0.92724 2.8227 0.73605 9.5104 0.73605 9.5104-0.0625 1.125-2.0312 0.53125-2 0v-9.6354z" style="fill-rule:evenodd;fill:url(#linearGradient2505);filter:url(#filter6251);opacity:.18235"/>
   <path id="path6332" transform="matrix(-1 0 0 1 29.059 -.61872)" d="m12.927 11.544 0.37172 0.1692c1.7203 1.055 2.1735 9.3778 2.1735 9.3778-0.0625 1.125-2.0312 0.53125-2 0 0 0 0.37822-6.8706-0.54525-9.547z" style="fill-rule:evenodd;fill:url(#linearGradient2507);filter:url(#filter6251);opacity:.14118"/>
  </g>
  <path id="path5675" transform="matrix(.62651 0 0 .62755 .98581 1.7492)" d="m13.877 17.722 0.125-7.5c0-9.8764 18.688-10.676 18.688 0.875v6.875" style="fill:none;filter:url(#filter5745);opacity:.62353;stroke-linecap:round;stroke-width:3.1896;stroke:#fff"/>
  <g id="g6067" transform="matrix(.62651 0 0 .62755 .60078 .22221)">
   <path id="path6055" d="m21.213 6.2807c4.41e-4 1.7577-1.4243 3.1828-3.182 3.1828-1.7577 0-3.1824-1.4251-3.182-3.1828-4.41e-4 -1.7577 1.4243-3.1828 3.182-3.1828 1.7577 0 3.1824 1.4251 3.182 3.1828z" style="fill-rule:evenodd;fill:url(#radialGradient2501)"/>
   <path id="path6065" transform="matrix(.43433 0 0 .43433 10.2 3.5528)" d="m21.213 6.2807c4.41e-4 1.7577-1.4243 3.1828-3.182 3.1828-1.7577 0-3.1824-1.4251-3.182-3.1828-4.41e-4 -1.7577 1.4243-3.1828 3.182-3.1828 1.7577 0 3.1824 1.4251 3.182 3.1828z" style="fill-rule:evenodd;fill:#fff"/>
  </g>
 </g>
</svg>
