<?xml version="1.0" encoding="UTF-8"?>
<!-- Created with Inkscape (http://www.inkscape.org/) -->
<svg id="svg3186" width="16" height="16" version="1.0" xmlns="http://www.w3.org/2000/svg" xmlns:cc="http://creativecommons.org/ns#" xmlns:dc="http://purl.org/dc/elements/1.1/" xmlns:rdf="http://www.w3.org/1999/02/22-rdf-syntax-ns#">
 <metadata id="metadata9">
  <rdf:RDF>
   <cc:Work rdf:about="">
    <dc:format>image/svg+xml</dc:format>
    <dc:type rdf:resource="http://purl.org/dc/dcmitype/StillImage"/>
    <dc:title/>
   </cc:Work>
  </rdf:RDF>
 </metadata>
 <path id="rect3193-4" d="m8 3c-1.551 0.26033-2.9614 1.1824-3.875 2.4688-0.88324 1.2438-1.272 2.8307-1.0625 4.3438 0.14081-0.025838 0.29127-0.03125 0.4375-0.03125 0.21151 0 0.32041 0.10592 0.5 0.15625 0.59758-0.57375 1.3469-1 2.25-1 1.6151 0 2.9249 1.1871 3.1875 2.7188 0.89132 0.51002 1.625 1.3059 1.625 2.4062 0 0.19505-0.02459 0.38036-0.0625 0.5625 1.1494-0.41425 2.1963-1.1566 2.9062-2.1562 0.91369-1.2864-4.3035 0.02764-4.5625-1.5312 0.07108-1.9643-1.166-2.5159-1.5-2.8125-1.1783-1.0466 1.7073-5.3853 0.15625-5.125zm-1.75 7c-0.84473 0-1.5528 0.46876-1.9375 1.125-0.21663-0.15446-0.5089-0.28125-0.8125-0.28125-0.69 0-1.25 0.50232-1.25 1.0938 0 0.13283 0.04213 0.25759 0.09375 0.375-0.78475 0.30055-1.3438 0.96316-1.3438 1.75 0 1.0684 1.0035 1.9375 2.25 1.9375h4.5c1.2465 0 2.25-0.86907 2.25-1.9375 0-0.84629-0.64999-1.5515-1.5312-1.8125 0.001958-0.036611 0.03125-0.056677 0.03125-0.09375 0-1.1829-1.008-2.1562-2.25-2.1562z" style="fill-rule:evenodd;opacity:.3"/>
 <path id="rect3193" d="m8 2c-1.551 0.26033-2.9614 1.1824-3.875 2.4688-0.88324 1.2438-1.272 2.8307-1.0625 4.3438 0.14081-0.025838 0.29127-0.03125 0.4375-0.03125 0.21151 0 0.32041 0.10592 0.5 0.15625 0.59758-0.57375 1.3469-1 2.25-1 1.6151 0 2.9249 1.1871 3.1875 2.7188 0.89132 0.51002 1.625 1.3059 1.625 2.4062 0 0.19505-0.02459 0.38036-0.0625 0.5625 1.1494-0.41425 2.1963-1.1566 2.9062-2.1562 0.91369-1.2864-4.3035 0.02764-4.5625-1.5312 0.07108-1.9643-1.166-2.5159-1.5-2.8125-1.1783-1.0466 1.7073-5.3853 0.15625-5.125zm-1.75 7c-0.84473 0-1.5528 0.46876-1.9375 1.125-0.21663-0.15446-0.5089-0.28125-0.8125-0.28125-0.69 0-1.25 0.50232-1.25 1.0938 0 0.13283 0.04213 0.25759 0.09375 0.375-0.78475 0.30055-1.3438 0.96316-1.3438 1.75 0 1.0684 1.0035 1.9375 2.25 1.9375h4.5c1.2465 0 2.25-0.86907 2.25-1.9375 0-0.84629-0.64999-1.5515-1.5312-1.8125 0.001958-0.036611 0.03125-0.056677 0.03125-0.09375 0-1.1829-1.008-2.1562-2.25-2.1562z" style="fill-rule:evenodd;fill:#dfdbd2"/>
</svg>
