<?xml version="1.0" encoding="UTF-8"?>
<!-- Created with Inkscape (http://www.inkscape.org/) -->
<svg id="svg7384" width="16" height="16" version="1.1" xmlns="http://www.w3.org/2000/svg" xmlns:cc="http://creativecommons.org/ns#" xmlns:dc="http://purl.org/dc/elements/1.1/" xmlns:rdf="http://www.w3.org/1999/02/22-rdf-syntax-ns#">
 <metadata id="metadata90">
  <rdf:RDF>
   <cc:Work rdf:about="">
    <dc:format>image/svg+xml</dc:format>
    <dc:type rdf:resource="http://purl.org/dc/dcmitype/StillImage"/>
    <dc:title>Gnome Symbolic Icon Theme</dc:title>
   </cc:Work>
  </rdf:RDF>
 </metadata>
 <title id="title9167">Gnome Symbolic Icon Theme</title>
 <defs id="defs7386">
  <clipPath id="clipPath6279-2-3">
   <rect id="rect6281-5-3" x="26.85" y="220.75" width="3.825" height="6.375" style="color:#bebebe;fill:#bebebe"/>
  </clipPath>
  <clipPath id="clipPath3668">
   <rect id="rect3670" x="26.999" y="221.5" width="1.8763" height="3.3729" style="color:#bebebe;fill:#bebebe"/>
  </clipPath>
  <clipPath id="clipPath3697">
   <path id="path3699" d="m26.966 221.33v5.2159h0.57955v-1.1591h2.3182v-4.0568h-2.8977z" style="color:#bebebe;fill:#bebebe"/>
  </clipPath>
 </defs>
 <g id="layer9" transform="translate(-101 -197)">
  <path id="path3268" d="m101 202h2.4844l2.9688-3 0.54687 0.0156v11l-0.4753 8.3e-4 -3.0403-3.0164h-2.4844v-5z" style="color:#bebebe;fill:#bebebe;opacity:.35"/>
  <path id="path3272" transform="matrix(.78431 0 0 .78431 86.941 28.863)" d="m26.938 220.41a1.2751 1.2751 0 0 0-0.65625 2.1875c0.75756 0.75756 0.75756 1.9299 0 2.6875a1.2816 1.2816 0 1 0 1.8125 1.8125c1.732-1.732 1.732-4.5805 0-6.3125a1.2751 1.2751 0 0 0-1.1562-0.375z" clip-path="url(#clipPath6279-2-3)" style="block-progression:tb;color:#000000;fill:#bebebe;opacity:.35;text-indent:0;text-transform:none"/>
  <path id="path3274" transform="matrix(1.7255 0 0 1.7255 63.471 -181.9)" d="m27.125 221.09a0.5796 0.5796 0 0 0-0.34375 1c1.0233 1.0233 1.0233 2.6642 0 3.6875a0.5796 0.5796 0 1 0 0.8125 0.8125c1.4663-1.4663 1.4663-3.8462 0-5.3125a0.5796 0.5796 0 0 0-0.46875-0.1875z" clip-path="url(#clipPath3697)" style="block-progression:tb;color:#000000;fill:#bebebe;opacity:.35;text-indent:0;text-transform:none"/>
  <path id="path3276" transform="matrix(2.6667 0 0 2.6667 40 -392.67)" d="m27.062 221.31a0.37504 0.37504 0 0 0-0.125 0.625c1.1015 1.1015 1.1015 2.8985 0 4a0.37565 0.37565 0 1 0 0.53125 0.53125c1.3881-1.3881 1.3881-3.6744 0-5.0625a0.37504 0.37504 0 0 0-0.40625-0.0937z" clip-path="url(#clipPath3668)" style="block-progression:tb;color:#000000;fill:#bebebe;opacity:.35;text-indent:0;text-transform:none"/>
  <path id="path3761-2-3-5-4-8-9-8-0-1-7" d="m112 208h1.375l1.125 1.0938 1.0938-1.0938h1.4062v1.4688l-1.0938 1.0625 1.0938 1.0625v1.4062h-1.4375l-1.0625-1.0625-1.0625 1.0625h-1.4375v-1.4062l1.0625-1.0625-1.0625-1.0625v-1.4688z" style="color:#bebebe;fill:#bebebe"/>
 </g>
</svg>
