<?xml version="1.0" encoding="UTF-8"?>
<!-- Created with Inkscape (http://www.inkscape.org/) -->
<svg id="svg7384" width="16" height="16" version="1.1" xmlns="http://www.w3.org/2000/svg" xmlns:cc="http://creativecommons.org/ns#" xmlns:dc="http://purl.org/dc/elements/1.1/" xmlns:rdf="http://www.w3.org/1999/02/22-rdf-syntax-ns#">
 <metadata id="metadata90">
  <rdf:RDF>
   <cc:Work rdf:about="">
    <dc:format>image/svg+xml</dc:format>
    <dc:type rdf:resource="http://purl.org/dc/dcmitype/StillImage"/>
    <dc:title>Gnome Symbolic Icon Theme</dc:title>
   </cc:Work>
  </rdf:RDF>
 </metadata>
 <title id="title9167">Gnome Symbolic Icon Theme</title>
 <g id="layer9" transform="translate(-41 -317)">
  <path id="path3807" d="m47.875 317a1.0001 1.0001 0 0 0-0.875 1v3.5625l-1.2812-1.2812a1.0165 1.0165 0 1 0-1.4375 1.4375l2.7188 2.7188v1.125l-2.7188 2.7188a1.0165 1.0165 0 1 0 1.4375 1.4375l1.2812-1.2812v3.5625a1.0001 1.0001 0 0 0 1.7188 0.71875l4-4a1.0001 1.0001 0 0 0 0-1.4375l-2.2812-2.2812 2.2812-2.2812a1.0001 1.0001 0 0 0 0-1.4375l-4-4a1.0001 1.0001 0 0 0-0.84375-0.28125zm1.125 3.4375 1.5625 1.5625-1.5625 1.5625v-3.125zm0 6 1.5625 1.5625-1.5625 1.5625v-3.125z" style="block-progression:tb;color:#000000;fill:#bebebe;text-indent:0;text-transform:none"/>
  <rect id="rect3940" x="44" y="320" width="1" height="1" style="fill:#bebebe;opacity:.98"/>
  <rect id="rect3942" x="44" y="329" width="1" height="1" style="fill:#bebebe;opacity:.98"/>
  <rect id="rect3944" x="47" y="332" width="1" height="1" style="fill:#bebebe;opacity:.98"/>
  <rect id="rect3946" x="47" y="317" width="1" height="1" style="fill:#bebebe;opacity:.98"/>
 </g>
</svg>
