<?xml version="1.0" encoding="UTF-8"?>
<svg id="svg2" width="15" height="15" font-size="12" stroke-miterlimit="10" style="color-interpolation:auto;color-rendering:auto;fill:#000000;font-family:Dialog;font-size:12px;image-rendering:auto;shape-rendering:auto;stroke-linecap:square;stroke-miterlimit:10;stroke:#000000;text-rendering:auto" version="1.1" xmlns="http://www.w3.org/2000/svg" xmlns:cc="http://creativecommons.org/ns#" xmlns:dc="http://purl.org/dc/elements/1.1/" xmlns:rdf="http://www.w3.org/1999/02/22-rdf-syntax-ns#">
 <metadata id="metadata13">
  <rdf:RDF>
   <cc:Work rdf:about="">
    <dc:format>image/svg+xml</dc:format>
    <dc:type rdf:resource="http://purl.org/dc/dcmitype/StillImage"/>
    <dc:title/>
   </cc:Work>
  </rdf:RDF>
 </metadata>
<!--Unicode Character 'EARTH GLOBE EUROPE-AFRICA' (U+1F30D)-->
 <path id="path4182" d="m1.4723 1.4723c-1.963 1.963-1.963 5.1721 0 7.1351 1.7027 1.7027 4.341 1.9218 6.2923 0.67064l5.3992 5.6818c0.32949 0.32949 2.1254-1.4665 1.796-1.796l-5.6672-5.4268c1.2321-1.9487 1.0097-4.5697-0.68526-6.2647-1.963-1.963-5.1721-1.963-7.1351-1e-7zm1.2585 1.2585c1.2825-1.2825 3.3356-1.2825 4.6182 1e-7 1.2825 1.2825 1.2825 3.3356 0 4.6182-1.2825 1.2825-3.3356 1.2825-4.6182 1e-7 -1.2825-1.2825-1.2825-3.3356 0-4.6182z" style="block-progression:tb;color-interpolation:sRGB;color-rendering:auto;color:#000000;fill:#000;image-rendering:auto;isolation:auto;mix-blend-mode:normal;shape-rendering:auto;solid-color:#000000;stroke:none;text-decoration-color:#000000;text-decoration-line:none;text-decoration-style:solid;text-indent:0;text-transform:none;white-space:normal"/>
</svg>
