<?xml version="1.0" encoding="UTF-8" standalone="no"?>
<svg
   xmlns:dc="http://purl.org/dc/elements/1.1/"
   xmlns:cc="http://creativecommons.org/ns#"
   xmlns:rdf="http://www.w3.org/1999/02/22-rdf-syntax-ns#"
   xmlns:svg="http://www.w3.org/2000/svg"
   xmlns="http://www.w3.org/2000/svg"
   stroke-miterlimit="10"
   font-weight="normal"
   font-style="normal"
   font-size="12"
   id="svg2"
   version="1.1"
   width="10.444866"
   height="15"
   style="font-style:normal;font-weight:normal;font-size:12px;font-family:Dialog;color-interpolation:auto;fill:#000000;fill-opacity:1;stroke:#000000;stroke-width:1;stroke-linecap:square;stroke-linejoin:miter;stroke-miterlimit:10;stroke-dasharray:none;stroke-dashoffset:0;stroke-opacity:1;color-rendering:auto;image-rendering:auto;shape-rendering:auto;text-rendering:auto">
  <metadata
     id="metadata13">
    <rdf:RDF>
      <cc:Work
         rdf:about="">
        <dc:format>image/svg+xml</dc:format>
        <dc:type
           rdf:resource="http://purl.org/dc/dcmitype/StillImage" />
        <dc:title></dc:title>
      </cc:Work>
    </rdf:RDF>
  </metadata>
  <!--Unicode Character 'POCKET CALCULATOR' (U+1F5A9)-->
  <defs
     id="genericDefs" />
  <path
     id="path9"
     d="m 0,0 0,15 10.444866,0 0,-15 L 0,0 Z m 1.4199241,1.7568553 7.6028297,0 0,2.5357351 -7.6028297,0 0,-2.5357351 z m 0,4.1109976 1.5993291,0 0,1.2317678 -1.5993291,0 0,-1.2317678 z m 3.0039383,0 1.5971411,0 0,1.2317678 -1.5971411,0 0,-1.2317678 z m 3.0017501,0 1.5971413,0 0,1.2317678 -1.5971413,0 0,-1.2317678 z m -6.0056884,2.0084598 1.5993291,0 0,1.2317678 -1.5993291,0 0,-1.2317678 z m 3.0039383,0 1.5971411,0 0,1.2317678 -1.5971411,0 0,-1.2317678 z m 3.0017501,0 1.5971413,0 0,1.2317678 -1.5971413,0 0,-1.2317678 z m -6.0056884,2.0084598 1.5993291,0 0,1.2339555 -1.5993291,0 0,-1.2339555 z m 3.0039383,0 1.5971411,0 0,1.2339555 -1.5971411,0 0,-1.2339555 z m 3.0017501,0 1.5971413,0 0,1.2339555 -1.5971413,0 0,-1.2339555 z m -6.0056884,2.0106475 1.5993291,0 0,1.231768 -1.5993291,0 0,-1.231768 z m 3.0039383,0 1.5971411,0 0,1.231768 -1.5971411,0 0,-1.231768 z m 3.0017501,0 1.5971413,0 0,1.231768 -1.5971413,0 0,-1.231768 z"
     style="fill:#000000;stroke:none" />
</svg>
