<?xml version="1.0" encoding="UTF-8"?>
<svg id="svg2" width="17.395" height="14" version="1.1" xmlns="http://www.w3.org/2000/svg" xmlns:cc="http://creativecommons.org/ns#" xmlns:dc="http://purl.org/dc/elements/1.1/" xmlns:rdf="http://www.w3.org/1999/02/22-rdf-syntax-ns#">
 <metadata id="metadata11">
  <rdf:RDF>
   <cc:Work rdf:about="">
    <dc:format>image/svg+xml</dc:format>
    <dc:type rdf:resource="http://purl.org/dc/dcmitype/StillImage"/>
    <dc:title/>
   </cc:Work>
  </rdf:RDF>
 </metadata>
 <g id="g3" transform="matrix(.035354 0 0 .035354 -.35315 13.788)">
  <path id="path5" d="m256.26-389.99c-1.4502-0.0629-2.8741 0.40198-4.0078 1.3086l-240 192c-4.4276 3.5435-1.9229 10.684 3.748 10.686h42l0.016949 191.92 179.98 0.076933v-159.99h84v159.99l132 0.00573 0.00132-192h42c5.6111-8.4e-4 8.1514-7.0161 3.8418-10.609l-93.842-78.201-5e-3 -75.192h-59.997l0.00233 26.002-86.4-64.801c-0.96761-0.72522-2.1318-1.1412-3.3398-1.1934z" style="block-progression:tb;color-rendering:auto;color:#000000;image-rendering:auto;isolation:auto;mix-blend-mode:normal;shape-rendering:auto;solid-color:#000000;text-decoration-color:#000000;text-decoration-line:none;text-decoration-style:solid;text-indent:0;text-transform:none;white-space:normal"/>
 </g>
</svg>
