<?xml version="1.0" encoding="UTF-8"?>
<!-- Created with Inkscape (http://www.inkscape.org/) -->
<svg id="svg7384" width="16" height="16" version="1.1" xmlns="http://www.w3.org/2000/svg" xmlns:cc="http://creativecommons.org/ns#" xmlns:dc="http://purl.org/dc/elements/1.1/" xmlns:rdf="http://www.w3.org/1999/02/22-rdf-syntax-ns#">
 <metadata id="metadata90">
  <rdf:RDF>
   <cc:Work rdf:about="">
    <dc:format>image/svg+xml</dc:format>
    <dc:type rdf:resource="http://purl.org/dc/dcmitype/StillImage"/>
    <dc:title>Gnome Symbolic Icon Theme</dc:title>
   </cc:Work>
  </rdf:RDF>
 </metadata>
 <title id="title9167">Gnome Symbolic Icon Theme</title>
 <g id="layer9" transform="translate(-241 -237)">
  <g id="g5019" transform="translate(40 -272)" style="opacity:.35">
   <path id="path4998" d="m209 521.1v0.9" style="color:#bebebe;fill:#bebebe;stroke-width:2;stroke:#bebebe"/>
   <path id="path5000" d="m203 523h12" style="color:#bebebe;fill:#bebebe;stroke-width:2;stroke:#bebebe"/>
   <rect id="rect5002" x="205" y="514" width="8" height="1.9375" ry="0" style="color:#bebebe;fill:#bebebe"/>
   <path id="path5004" d="m209 510c-1.645 0-3 1.355-3 3v2 1h1 4 1v-1-2c0-1.645-1.355-3-3-3zm0 2c0.56413 0 1 0.43588 1 1v1h-2v-1c0-0.56412 0.43587-1 1-1z" style="block-progression:tb;color:#bebebe;fill:#bebebe;text-indent:0;text-transform:none"/>
  </g>
  <path id="path4955-1-1" transform="matrix(1.5 0 0 1.5 202.51 -66.977)" d="m29 209a1 1 0 1 1-2 0 1 1 0 1 1 2 0z" style="fill:#bebebe"/>
  <path id="path4957-2-6" transform="matrix(1.5 0 0 1.5 206.51 -66.977)" d="m29 209a1 1 0 1 1-2 0 1 1 0 1 1 2 0z" style="fill:#bebebe"/>
  <path id="path4959-4-4" transform="matrix(1.5 0 0 1.5 210.51 -66.977)" d="m29 209a1 1 0 1 1-2 0 1 1 0 1 1 2 0z" style="fill:#bebebe"/>
 </g>
</svg>
