<?xml version="1.0" encoding="UTF-8"?>
<!-- Created with Inkscape (http://www.inkscape.org/) -->
<svg id="svg7384" width="16" height="16" version="1.1" xmlns="http://www.w3.org/2000/svg" xmlns:cc="http://creativecommons.org/ns#" xmlns:dc="http://purl.org/dc/elements/1.1/" xmlns:rdf="http://www.w3.org/1999/02/22-rdf-syntax-ns#">
 <metadata id="metadata90">
  <rdf:RDF>
   <cc:Work rdf:about="">
    <dc:format>image/svg+xml</dc:format>
    <dc:type rdf:resource="http://purl.org/dc/dcmitype/StillImage"/>
    <dc:title>Gnome Symbolic Icon Theme</dc:title>
   </cc:Work>
  </rdf:RDF>
 </metadata>
 <title id="title9167">Gnome Symbolic Icon Theme</title>
 <g id="layer9" transform="translate(-341 -177)">
  <g id="g4172-7-1" transform="translate(321 -40)" style="opacity:.35">
   <g id="g4166-5-5">
    <path id="rect12675-3-8-70-9" transform="translate(-80 257)" d="m101.75-36c-0.9522 0-1.75 0.7978-1.75 1.75v4.5c0 0.9522 0.7978 1.75 1.75 1.75h0.125l-0.78125 1.5625-0.71875 1.4375h1.625 6 1.625l-0.71875-1.4375-0.78125-1.5625h0.125c0.9522 0 1.75-0.7978 1.75-1.75v-4.5c0-0.9522-0.7978-1.75-1.75-1.75h-6.5zm0.25 2h6v4h-6v-4z" style="block-progression:tb;color:#bebebe;fill:#bebebe;text-indent:0;text-transform:none"/>
   </g>
   <path id="rect12675-3-8-5-2-9" transform="translate(-281 19)" d="m308.75 199c-0.9522 0-1.75 0.7978-1.75 1.75v0.25h2 0.25 5.75v4h-3v3h3.625l-0.5-1h0.125c0.9522 0 1.75-0.7978 1.75-1.75v-4.5c0-0.9522-0.7978-1.75-1.75-1.75h-6.5z" style="color:#bebebe;fill:#bebebe;text-indent:0pt;text-transform:none"/>
  </g>
  <path id="path3761-2-3-5-4-8-9-8-0" d="m352 188h1.375l1.125 1.0938 1.0938-1.0938h1.4062v1.4688l-1.0938 1.0625 1.0938 1.0625v1.4062h-1.4375l-1.0625-1.0625-1.0625 1.0625h-1.4375v-1.4062l1.0625-1.0625-1.0625-1.0625v-1.4688z" style="color:#bebebe;fill:#bebebe"/>
 </g>
</svg>
