<?xml version="1.0" encoding="UTF-8"?>
<!-- Created with Inkscape (http://www.inkscape.org/) -->
<svg id="svg7384" width="16" height="16" version="1.1" xmlns="http://www.w3.org/2000/svg" xmlns:cc="http://creativecommons.org/ns#" xmlns:dc="http://purl.org/dc/elements/1.1/" xmlns:rdf="http://www.w3.org/1999/02/22-rdf-syntax-ns#">
 <metadata id="metadata90">
  <rdf:RDF>
   <cc:Work rdf:about="">
    <dc:format>image/svg+xml</dc:format>
    <dc:type rdf:resource="http://purl.org/dc/dcmitype/StillImage"/>
    <dc:title>Gnome Symbolic Icon Theme</dc:title>
   </cc:Work>
  </rdf:RDF>
 </metadata>
 <title id="title9167">Gnome Symbolic Icon Theme</title>
 <defs id="defs7386">
  <clipPath id="clipPath6259-6-8-2-1-6-6">
   <rect id="rect6261-4-9-2-0-9-0" x="26.999" y="221.5" width="1.8763" height="4.8735" style="color:#bebebe;fill:#bebebe"/>
  </clipPath>
  <clipPath id="clipPath3157-7-0">
   <rect id="rect3159-5-5" x="28.125" y="221.33" width="1.7386" height="5.2159" style="color:#bebebe;fill:#bebebe"/>
  </clipPath>
 </defs>
 <g id="layer9" transform="translate(-141 -177)">
  <path id="path4175" transform="matrix(1.5 0 0 1.5 106.5 -124)" d="m29 209a1 1 0 1 1-2 0 1 1 0 1 1 2 0z" style="fill:#bebebe;opacity:.35"/>
  <path id="path4181" transform="matrix(0 -2.6667 2.6667 0 -448.67 255)" d="m27.062 221.31a0.37504 0.37504 0 0 0-0.125 0.625c1.1015 1.1015 1.1015 2.8985 0 4a0.37565 0.37565 0 1 0 0.53125 0.53125c1.3881-1.3881 1.3881-3.6744 0-5.0625a0.37504 0.37504 0 0 0-0.40625-0.0937z" clip-path="url(#clipPath6259-6-8-2-1-6-6)" style="block-progression:tb;color:#000000;fill:#bebebe;opacity:.35;text-indent:0;text-transform:none"/>
  <path id="path4955" transform="matrix(1.5 0 0 1.5 102.5 -128)" d="m29 209a1 1 0 1 1-2 0 1 1 0 1 1 2 0z" style="fill:#bebebe"/>
  <path id="path4957" transform="matrix(1.5 0 0 1.5 106.5 -128)" d="m29 209a1 1 0 1 1-2 0 1 1 0 1 1 2 0z" style="fill:#bebebe"/>
  <path id="path4959" transform="matrix(1.5 0 0 1.5 110.5 -128)" d="m29 209a1 1 0 1 1-2 0 1 1 0 1 1 2 0z" style="fill:#bebebe"/>
  <path id="path3745-5-4-5-6" transform="matrix(0 -1.7255 1.7255 0 -237.9 231.53)" d="m27.125 221.09a0.5796 0.5796 0 0 0-0.34375 1c1.0233 1.0233 1.0233 2.6642 0 3.6875a0.5796 0.5796 0 1 0 0.8125 0.8125c1.4663-1.4663 1.4663-3.8462 0-5.3125a0.5796 0.5796 0 0 0-0.46875-0.1875z" clip-path="url(#clipPath3157-7-0)" style="block-progression:tb;color:#000000;fill:#bebebe;opacity:.35;text-indent:0;text-transform:none"/>
 </g>
</svg>
