<?xml version="1.0" encoding="UTF-8"?>
<!-- Created with Inkscape (http://www.inkscape.org/) -->
<svg id="svg7384" width="16" height="16" version="1.1" xmlns="http://www.w3.org/2000/svg" xmlns:cc="http://creativecommons.org/ns#" xmlns:dc="http://purl.org/dc/elements/1.1/" xmlns:rdf="http://www.w3.org/1999/02/22-rdf-syntax-ns#">
 <metadata id="metadata90">
  <rdf:RDF>
   <cc:Work rdf:about="">
    <dc:format>image/svg+xml</dc:format>
    <dc:type rdf:resource="http://purl.org/dc/dcmitype/StillImage"/>
    <dc:title>Gnome Symbolic Icon Theme</dc:title>
   </cc:Work>
  </rdf:RDF>
 </metadata>
 <title id="title9167">Gnome Symbolic Icon Theme</title>
 <g id="layer9" transform="translate(-161 -197)">
  <path id="rect12689-2" d="m165.75 197c-0.9522 0-1.75 0.7978-1.75 1.75v4.5c0 0.26247 0.0485 0.52447 0.15625 0.75h10.688c0.10776-0.22553 0.15625-0.48753 0.15625-0.75v-4.5c0-0.9522-0.7978-1.75-1.75-1.75h-7.5zm0.25 2h7v4h-7v-4zm2 9.9375v1.0625h-5v2h13v-2h-5v-1.0625h-3z" style="color:#bebebe;fill:#bebebe;opacity:.35;text-indent:0pt;text-transform:none"/>
  <path id="path4955-1" transform="matrix(1.5,0,0,1.5,123.5,-107)" d="m29 209a1 1 0 1 1-2 0 1 1 0 1 1 2 0z" style="fill:#bebebe"/>
  <path id="path4957-2" transform="matrix(1.5,0,0,1.5,127.5,-107)" d="m29 209a1 1 0 1 1-2 0 1 1 0 1 1 2 0z" style="fill:#bebebe"/>
  <path id="path4959-4" transform="matrix(1.5 0 0 1.5 131.5 -107)" d="m29 209a1 1 0 1 1-2 0 1 1 0 1 1 2 0z" style="fill:#bebebe"/>
 </g>
</svg>
