<?xml version="1.0" encoding="UTF-8"?>
<!-- Created with Inkscape (http://www.inkscape.org/) -->
<svg id="svg7384" width="16" height="16" version="1.1" xmlns="http://www.w3.org/2000/svg" xmlns:cc="http://creativecommons.org/ns#" xmlns:dc="http://purl.org/dc/elements/1.1/" xmlns:rdf="http://www.w3.org/1999/02/22-rdf-syntax-ns#">
 <metadata id="metadata90">
  <rdf:RDF>
   <cc:Work rdf:about="">
    <dc:format>image/svg+xml</dc:format>
    <dc:type rdf:resource="http://purl.org/dc/dcmitype/StillImage"/>
    <dc:title>Gnome Symbolic Icon Theme</dc:title>
   </cc:Work>
  </rdf:RDF>
 </metadata>
 <title id="title9167">Gnome Symbolic Icon Theme</title>
 <g id="layer9" transform="translate(-361 -177)">
  <path id="path4215" d="m364 184c-0.554 0-1 0.446-1 1v0.53125 5.4688h12v-5.4688-0.53125c0-0.554-0.446-1-1-1h-10z" style="color:#bebebe;fill:#bebebe"/>
  <path id="rect4217" d="m368 178c-1.6447 0-3 1.3553-3 3v7c0 1.6447 1.3553 3 3 3h2c1.6447 0 3-1.3553 3-3v-7c0-1.6447-1.3553-3-3-3h-2zm0 2h2c0.5713 0 1 0.4287 1 1v7c0 0.5713-0.4287 1-1 1h-2c-0.5713 0-1-0.4287-1-1v-7c0-0.5713 0.4287-1 1-1z" style="block-progression:tb;color:#bebebe;fill:#bebebe;text-indent:0;text-transform:none"/>
 </g>
</svg>
