<?xml version="1.0" encoding="UTF-8"?>
<!-- Created with Inkscape (http://www.inkscape.org/) -->
<svg id="svg4297" width="48" height="48" version="1.1" xmlns="http://www.w3.org/2000/svg" xmlns:xlink="http://www.w3.org/1999/xlink">
 <defs id="defs4299">
  <radialGradient id="radialGradient3314" cx="5" cy="41.5" r="5" gradientTransform="matrix(.59382 0 0 1.5367 41.141 -103.94)" gradientUnits="userSpaceOnUse" xlink:href="#linearGradient3681"/>
  <linearGradient id="linearGradient3312" x1="17.554" x2="17.554" y1="46" y2="35" gradientTransform="matrix(1.757 0 0 1.397 -17.394 -16.412)" gradientUnits="userSpaceOnUse">
   <stop id="stop3705" style="stop-opacity:0" offset="0"/>
   <stop id="stop3711" offset=".5"/>
   <stop id="stop3707" style="stop-opacity:0" offset="1"/>
  </linearGradient>
  <linearGradient id="linearGradient3681">
   <stop id="stop3683" offset="0"/>
   <stop id="stop3685" style="stop-opacity:0" offset="1"/>
  </linearGradient>
  <radialGradient id="radialGradient3310" cx="5" cy="41.5" r="5" gradientTransform="matrix(.59382 0 0 1.5367 -6.6595 -103.94)" gradientUnits="userSpaceOnUse" xlink:href="#linearGradient3681"/>
  <linearGradient id="linearGradient3293" x1="15.464" x2="15.464" y1="7.9757" y2="45.042" gradientUnits="userSpaceOnUse">
   <stop id="stop3297" style="stop-color:#c9af8b" offset="0"/>
   <stop id="stop3299" style="stop-color:#ad8757" offset=".23942"/>
   <stop id="stop3301" style="stop-color:#c2a57f" offset=".27582"/>
   <stop id="stop3303" style="stop-color:#9d7d53" offset="1"/>
  </linearGradient>
  <linearGradient id="linearGradient3197" x1="24.823" x2="24.997" y1="15.378" y2="37.277" gradientTransform="matrix(1.2822 0 0 1.5573 -6.0702 -15.291)" gradientUnits="userSpaceOnUse">
   <stop id="stop3201" style="stop-color:#dac197" offset="0"/>
   <stop id="stop3203" style="stop-color:#c1a581" offset=".23942"/>
   <stop id="stop3205" style="stop-color:#dbc298" offset=".27582"/>
   <stop id="stop3207" style="stop-color:#a68b60" offset="1"/>
  </linearGradient>
  <linearGradient id="linearGradient2659" x1="23.452" x2="43.007" y1="30.555" y2="45.934" gradientTransform="matrix(1.2822 0 0 1.1747 -6.0702 -5.3032)" gradientUnits="userSpaceOnUse">
   <stop id="stop4561" style="stop-color:#fff;stop-opacity:0" offset="0"/>
   <stop id="stop4563" style="stop-color:#fff;stop-opacity:0" offset="1"/>
  </linearGradient>
  <linearGradient id="linearGradient3834" x1="26" x2="26" y1="22" y2="8" gradientUnits="userSpaceOnUse">
   <stop id="stop3829" style="stop-color:#fff" offset="0"/>
   <stop id="stop4295" style="stop-color:#fff" offset=".30213"/>
   <stop id="stop4293" style="stop-color:#fff;stop-opacity:.6902" offset=".34361"/>
   <stop id="stop3832" style="stop-color:#fff;stop-opacity:0" offset="1"/>
  </linearGradient>
  <linearGradient id="linearGradient3281" x1="44.995" x2="3.0052" y1="17.5" y2="17.5" gradientUnits="userSpaceOnUse" spreadMethod="reflect">
   <stop id="stop3277" style="stop-color:#fff;stop-opacity:0" offset="0"/>
   <stop id="stop3283" style="stop-color:#fff" offset=".245"/>
   <stop id="stop3285" style="stop-color:#fff" offset=".7735"/>
   <stop id="stop3279" style="stop-color:#fff;stop-opacity:0" offset="1"/>
  </linearGradient>
 </defs>
 <g id="layer1">
  <g id="g3305" transform="matrix(.99266 0 0 .97615 .27519 1.293)" style="opacity:.4">
   <rect id="rect2484" transform="scale(-1)" x="-3.6904" y="-47.848" width="2.9602" height="15.367" style="fill:url(#radialGradient3310)"/>
   <rect id="rect2486" x="3.6904" y="32.482" width="40.412" height="15.367" style="fill:url(#linearGradient3312)"/>
   <rect id="rect3444" transform="scale(1,-1)" x="44.11" y="-47.848" width="2.9602" height="15.367" style="fill:url(#radialGradient3314)"/>
  </g>
  <path id="path2488" d="m9.0107 8.5h29.498c1.722 0 2.4969-0.28655 2.9916 1l3.0017 8v25.674c0 1.5533 0.10293 1.316-1.6191 1.316h-37.765c-1.722 0-1.6191 0.23733-1.6191-1.316v-25.674l3.0017-8c0.48083-1.2606 0.78873-1 2.5107-1z" style="display:block;fill:url(#linearGradient3197);stroke-linecap:round;stroke-width:.9942;stroke:url(#linearGradient3293)"/>
  <path id="path2490" d="m9.9482 9.5129h27.653c1.6143 0 2.6134 0.55654 3.2895 2.086l2.3289 6.4197v23.145c0 1.4607-0.81876 2.1961-2.4331 2.1961h-33.733c-1.6143 0-2.2728-0.80883-2.2728-2.2695v-23.071l2.2538-6.5574c0.45076-1.1854 1.2996-1.9484 2.9139-1.9484z" style="display:block;fill:none;opacity:.50549;stroke-width:.74212;stroke:url(#linearGradient2659)"/>
  <path id="rect3326" d="m22 8h4v14h-1.1812-1.2094-0.97358-0.63585v-14z" style="fill:url(#linearGradient3834);opacity:.4"/>
  <path id="text3329" d="m13.192 41.143h1.8c1.08-2.456 2.16-4.912 3.24-7.368v-1.5h-5.22v1.5h3.54c-1.12 2.456-2.24 4.912-3.36 7.368zm6.0066 0h5.064v-1.428h-3.156c0.976-1.264 1.952-2.528 2.928-3.792v-1.428h-4.5v1.428h2.592c-0.976 1.264-1.952 2.528-2.928 3.792v1.428zm5.9392 0h1.596v-6.648h-1.596v6.648zm0-7.368h1.596v-1.5h-1.596v1.5zm2.8828 9.588h1.596v-2.844c1.5027 1.4596 4.3091 0.76654 5.0506-1.1697 0.79425-1.7371 0.08508-4.1721-1.8234-4.8113-1.1307-0.40611-2.5539-0.21369-3.3592 0.73698-0.08219-0.25043 0.20116-0.8664-0.21786-0.78h-1.2461v8.868zm3.444-7.56c1.4784-0.05671 2.3679 1.7667 1.6837 2.9926-0.57098 1.3057-2.5934 1.3782-3.3025 0.16457-0.84594-1.2619 0.01461-3.2113 1.6187-3.1572l-1e-6 -1e-6z" style="opacity:.4"/>
  <path id="path3273" d="m3.5052 17.5h40.99" style="fill:none;opacity:.4;stroke-linecap:square;stroke-width:1px;stroke:url(#linearGradient3281)"/>
 </g>
</svg>
