<?xml version="1.0" encoding="UTF-8"?>
<!-- Created with Inkscape (http://www.inkscape.org/) -->
<svg id="svg4297" width="48" height="48" version="1.1" xmlns="http://www.w3.org/2000/svg" xmlns:xlink="http://www.w3.org/1999/xlink">
 <defs id="defs4299">
  <radialGradient id="radialGradient3314" cx="5" cy="41.5" r="5" gradientTransform="matrix(.59382 0 0 1.5367 41.141 -103.94)" gradientUnits="userSpaceOnUse" xlink:href="#linearGradient3681"/>
  <linearGradient id="linearGradient3312" x1="17.554" x2="17.554" y1="46" y2="35" gradientTransform="matrix(1.757 0 0 1.397 -17.394 -16.412)" gradientUnits="userSpaceOnUse">
   <stop id="stop3705" style="stop-opacity:0" offset="0"/>
   <stop id="stop3711" offset=".5"/>
   <stop id="stop3707" style="stop-opacity:0" offset="1"/>
  </linearGradient>
  <linearGradient id="linearGradient3681">
   <stop id="stop3683" offset="0"/>
   <stop id="stop3685" style="stop-opacity:0" offset="1"/>
  </linearGradient>
  <radialGradient id="radialGradient3310" cx="5" cy="41.5" r="5" gradientTransform="matrix(.59382 0 0 1.5367 -6.6595 -103.94)" gradientUnits="userSpaceOnUse" xlink:href="#linearGradient3681"/>
  <linearGradient id="linearGradient3293" x1="15.464" x2="15.464" y1="7.9757" y2="45.042" gradientUnits="userSpaceOnUse">
   <stop id="stop3297" style="stop-color:#c9af8b" offset="0"/>
   <stop id="stop3299" style="stop-color:#ad8757" offset=".23942"/>
   <stop id="stop3301" style="stop-color:#c2a57f" offset=".27582"/>
   <stop id="stop3303" style="stop-color:#9d7d53" offset="1"/>
  </linearGradient>
  <linearGradient id="linearGradient3197" x1="24.823" x2="24.997" y1="15.378" y2="37.277" gradientTransform="matrix(1.2822 0 0 1.5573 -6.0702 -15.291)" gradientUnits="userSpaceOnUse">
   <stop id="stop3201" style="stop-color:#dac197" offset="0"/>
   <stop id="stop3203" style="stop-color:#c1a581" offset=".23942"/>
   <stop id="stop3205" style="stop-color:#dbc298" offset=".27582"/>
   <stop id="stop3207" style="stop-color:#a68b60" offset="1"/>
  </linearGradient>
  <linearGradient id="linearGradient2659" x1="23.452" x2="43.007" y1="30.555" y2="45.934" gradientTransform="matrix(1.2822 0 0 1.1747 -6.0702 -5.3032)" gradientUnits="userSpaceOnUse">
   <stop id="stop4561" style="stop-color:#fff;stop-opacity:0" offset="0"/>
   <stop id="stop4563" style="stop-color:#fff;stop-opacity:0" offset="1"/>
  </linearGradient>
  <linearGradient id="linearGradient3834" x1="26" x2="26" y1="22" y2="8" gradientUnits="userSpaceOnUse">
   <stop id="stop3829" style="stop-color:#fff" offset="0"/>
   <stop id="stop4295" style="stop-color:#fff" offset=".30213"/>
   <stop id="stop4293" style="stop-color:#fff;stop-opacity:.6902" offset=".34361"/>
   <stop id="stop3832" style="stop-color:#fff;stop-opacity:0" offset="1"/>
  </linearGradient>
  <linearGradient id="linearGradient3281" x1="44.995" x2="3.0052" y1="17.5" y2="17.5" gradientUnits="userSpaceOnUse" spreadMethod="reflect">
   <stop id="stop3277" style="stop-color:#fff;stop-opacity:0" offset="0"/>
   <stop id="stop3283" style="stop-color:#fff" offset=".245"/>
   <stop id="stop3285" style="stop-color:#fff" offset=".7735"/>
   <stop id="stop3279" style="stop-color:#fff;stop-opacity:0" offset="1"/>
  </linearGradient>
 </defs>
 <g id="layer1">
  <g id="g3305" transform="matrix(.99266 0 0 .97615 .27519 1.293)" style="opacity:.4">
   <rect id="rect2484" transform="scale(-1)" x="-3.6904" y="-47.848" width="2.9602" height="15.367" style="fill:url(#radialGradient3310)"/>
   <rect id="rect2486" x="3.6904" y="32.482" width="40.412" height="15.367" style="fill:url(#linearGradient3312)"/>
   <rect id="rect3444" transform="scale(1,-1)" x="44.11" y="-47.848" width="2.9602" height="15.367" style="fill:url(#radialGradient3314)"/>
  </g>
  <path id="path2488" d="m9.0107 8.5h29.498c1.722 0 2.4969-0.28655 2.9916 1l3.0017 8v25.674c0 1.5533 0.10293 1.316-1.6191 1.316h-37.765c-1.722 0-1.6191 0.23733-1.6191-1.316v-25.674l3.0017-8c0.48083-1.2606 0.78873-1 2.5107-1z" style="display:block;fill:url(#linearGradient3197);stroke-linecap:round;stroke-width:.9942;stroke:url(#linearGradient3293)"/>
  <path id="path2490" d="m9.9482 9.5129h27.653c1.6143 0 2.6134 0.55654 3.2895 2.086l2.3289 6.4197v23.145c0 1.4607-0.81876 2.1961-2.4331 2.1961h-33.733c-1.6143 0-2.2728-0.80883-2.2728-2.2695v-23.071l2.2538-6.5574c0.45076-1.1854 1.2996-1.9484 2.9139-1.9484z" style="display:block;fill:none;opacity:.50549;stroke-width:.74212;stroke:url(#linearGradient2659)"/>
  <path id="rect3326" d="m22 8h4v14h-1.1812-1.2094-0.97358-0.63585v-14z" style="fill:url(#linearGradient3834);opacity:.4"/>
  <path id="text3329" d="m5.6383 41.143h1.596v-5.196c0.52439 0.0054 1.2074 0.16949 0.96-0.59683 0.082465-0.59489 0.044839-1.0697-0.68209-0.85517-0.57699 0.05805-0.14419-0.8937-0.27791-1.2789 0.00948-0.52212 0.16447-1.1897-0.59683-0.94108-0.52861 0.0034-1.2449-0.18086-0.99917 0.59683v1.6232c-0.66618-0.1504-0.93903 0.09254-0.78 0.76735-0.18375 0.67196 0.18308 0.79335 0.78 0.68465v5.196zm10.101-6.648c-0.45385 0.06257-1.1545-0.12169-1.464 0.08526 0.29162 1.7594-1.1297-0.81371-2.172-0.24126-2.0361-0.10482-3.6492 1.9119-3.3678 3.8731 0.051785 2.191 2.5662 3.7376 4.5483 2.8469 0.91605-0.75615 0.99252-0.8437 1.0768 0.084 0.40544-0.11098 1.2575 0.22466 1.3787-0.17052v-6.4775zm-3.468 1.308c1.7319-0.0995 2.5505 2.2254 1.476 3.432-1.0326 1.1978-3.386 0.51871-3.4107-1.1422-0.15732-1.1472 0.72051-2.3484 1.9347-2.2898v-1e-6zm4.6579 5.34h1.596c0.04427-1.4565-0.09723-2.9296 0.08812-4.3736 0.41637-0.98551 1.7586-0.68743 1.3399-2.0028 0.19579-1.2896-1.7703 0.5463-1.56 0.12061 0.17551-0.70413-0.78121-0.27604-1.1937-0.39221-0.56776-0.05134-0.13595 0.89689-0.27034 1.2789v5.3691zm4.0598 0h1.596v-1.536h-1.596v1.536zm3.1356 0c0.45385-0.06257 1.1545 0.12169 1.464-0.08526-0.28416-1.6935 1.2938 0.82498 2.304 0.24126 2.2447 0.12186 3.7005-2.414 3.1382-4.4274-0.37221-2.3295-3.6544-3.5591-5.3102-1.7646v-2.832h-1.596v8.868zm3.432-5.424c1.8604-0.10048 2.6406 2.5531 1.2952 3.6728-1.1437 1.0298-3.2189 0.1735-3.2178-1.3979-0.15932-1.1401 0.7202-2.3291 1.9226-2.2749h1e-6zm4.0819 5.424h5.064c-0.10279-0.43005 0.21276-1.2784-0.17052-1.428h-2.9855c0.976-1.264 1.952-2.528 2.928-3.792-0.10279-0.43005 0.21277-1.2784-0.17052-1.428h-4.3295c0.10279 0.43005-0.21277 1.2784 0.17052 1.428h2.4215c-0.976 1.264-1.952 2.528-2.928 3.792v1.428zm5.7592 0h5.736c-0.05916-0.46926 0.117-1.1738-0.08526-1.5h-3.4067c1.1794-1.1998 2.7846-2.1173 3.3945-3.756 0.67172-1.8541-0.97117-4.0012-2.9508-3.7623-1.6394 0.02439-2.9189 1.6048-2.7477 3.2103 0.524 0 1.048 0 1.572 1e-6 -0.38892-2.0609 3.0081-2.3307 2.6497-0.14637-0.35985 1.3307-1.6639 2.0599-2.5536 3.0278-0.51572 0.54468-1.1955 1.0188-1.6081 1.6078v1.3187z" style="opacity:.4"/>
  <path id="path3273" d="m3.5052 17.5h40.99" style="fill:none;opacity:.4;stroke-linecap:square;stroke-width:1px;stroke:url(#linearGradient3281)"/>
 </g>
</svg>
