<?xml version="1.0" encoding="UTF-8"?>
<!-- Created with Inkscape (http://www.inkscape.org/) -->
<svg id="svg2453" width="48" height="48" version="1.0" xmlns="http://www.w3.org/2000/svg" xmlns:xlink="http://www.w3.org/1999/xlink">
 <defs id="defs2455">
  <linearGradient id="linearGradient3217" x1="22.726" x2="22.726" y1="34" y2="38.432" gradientTransform="translate(0 -1)" gradientUnits="userSpaceOnUse">
   <stop id="stop3213" style="stop-color:#fff" offset="0"/>
   <stop id="stop3215" style="stop-color:#fff;stop-opacity:0" offset="1"/>
  </linearGradient>
  <radialGradient id="radialGradient19613" cx="605.71" cy="486.65" r="117.14" gradientTransform="matrix(.028917 0 0 .012353 26.973 38.471)" gradientUnits="userSpaceOnUse" xlink:href="#linearGradient5060"/>
  <linearGradient id="linearGradient5060">
   <stop id="stop5062" offset="0"/>
   <stop id="stop5064" style="stop-opacity:0" offset="1"/>
  </linearGradient>
  <radialGradient id="radialGradient19616" cx="605.71" cy="486.65" r="117.14" gradientTransform="matrix(-.028917 0 0 .012353 21.027 38.471)" gradientUnits="userSpaceOnUse" xlink:href="#linearGradient5060"/>
  <linearGradient id="linearGradient19619" x1="302.86" x2="302.86" y1="366.65" y2="609.51" gradientTransform="matrix(.084497 0 0 .012353 -6.5396 38.471)" gradientUnits="userSpaceOnUse">
   <stop id="stop5050" style="stop-opacity:0" offset="0"/>
   <stop id="stop5056" offset=".5"/>
   <stop id="stop5052" style="stop-opacity:0" offset="1"/>
  </linearGradient>
  <linearGradient id="linearGradient2447" x1="108.26" x2="25.818" y1="110.28" y2="14.029" gradientTransform="matrix(.50664 0 0 .35125 -58.338 -49.086)" gradientUnits="userSpaceOnUse">
   <stop id="stop3802" style="stop-color:#fff" offset="0"/>
   <stop id="stop3804" style="stop-color:#e0e0e0" offset="1"/>
  </linearGradient>
  <linearGradient id="linearGradient2444" x1="-24.032" x2="-24.098" y1="-13.091" y2="-40.164" gradientTransform="matrix(1.1143 0 0 1.1111 2.7514 3.5103)" gradientUnits="userSpaceOnUse">
   <stop id="stop3796" style="stop-color:#333" offset="0"/>
   <stop id="stop3798" style="stop-color:#292929" offset="1"/>
  </linearGradient>
  <linearGradient id="linearGradient2442" x1="28.938" x2="105.37" y1="17.333" y2="92.824" gradientTransform="matrix(.49084 0 0 .38034 -57.357 -48.338)" gradientUnits="userSpaceOnUse">
   <stop id="stop3790" style="stop-color:#262626" offset="0"/>
   <stop id="stop3792" style="stop-color:#828282" offset="1"/>
  </linearGradient>
 </defs>
 <g id="layer1">
  <g id="g3257" style="opacity:.4">
   <rect id="rect2879" x="3.6" y="43" width="40.8" height="3" style="fill:url(#linearGradient19619)"/>
   <path id="path2881" d="m3.6 43v2.9998c-1.4891 0.005647-3.6-0.67211-3.6-1.5001 0-0.828 1.6618-1.4997 3.6-1.4997z" style="fill:url(#radialGradient19616)"/>
   <path id="path2883" d="m44.4 43v2.9998c1.4891 0.0056 3.6-0.67211 3.6-1.5001 0-0.828-1.6618-1.4997-3.6-1.4997z" style="fill:url(#radialGradient19613)"/>
  </g>
  <rect id="rect3580" transform="matrix(-1 .0017332 -.00096053 -1 0 0)" x="-46.457" y="-44.503" width="44.966" height="35.922" style="fill:url(#linearGradient2447);stroke-linecap:round;stroke-opacity:.96863;stroke:#c1c1c1"/>
  <rect id="rect3582" transform="matrix(-.99999 .0037552 .0024409 -1 0 0)" x="-43.529" y="-41.517" width="38.927" height="29.854" rx="0" ry="0" style="fill:url(#linearGradient2442);stroke-linecap:round;stroke:url(#linearGradient2444)"/>
 </g>
 <path id="path2435" d="m13.766 21h1.2289c-0.02147 3.0362 0.04688 6.0745-0.04204 9.1091 0.01522 1.2104-0.67556 2.5096-1.9985 2.7804-1.4225 0.36874-2.8981-0.22988-3.9544-1.1355 0.26637-0.22738 0.43613-0.94537 0.76574-0.85159 1.0086 0.81452 2.9192 1.6472 3.7263 0.13522 0.4495-1.3064 0.21575-2.715 0.27401-4.071v-5.9667zm4.234 0.004017v11.919c0.24846 0.15527 0.78031 0.02137 1.1327 0.06549v-4.977c-0.12865-0.55594 0.12707-0.69 0.61227-0.58938 1.5854-0.06455 3.5062 0.21432 4.6532-1.2442 1.1817-1.5816 0.56611-4.3535-1.347-4.9115-1.652-0.40672-3.3683-0.21177-5.0512-0.26195zm1.1327 1.1788c1.1557 0.03672 2.323-0.10519 3.4593 0.16372 1.4638 0.41976 1.6926 2.8172 0.36736 3.569-1.2 0.56943-2.5516 0.2782-3.8267 0.32743v-4.0602zm19.198 1.0232c-0.29086 0.27926-0.58172 0.55853-0.87258 0.83779-1.6672-1.7374-4.4376-2.5269-6.6233-1.3288-2.1873 1.0205-3.3095 3.8812-2.2781 6.115 1.1868 3.0132 5.4904 4.1105 7.8996 1.9525 0.57466-0.49723 1.6181-2.0281 1.0262-2.449-1.1129-1e-6 -2.2258-1e-6 -3.3387-1e-6 0.04527-0.34251-0.08851-0.86648 0.06278-1.1015h4.79c0.06778 2.1147-1.0025 4.33-2.9694 5.209-2.6065 1.1346-6.0419 0.54875-7.8013-1.8191-1.9754-2.4176-1.4989-6.3798 0.95986-8.2782 2.5601-2.0626 6.5168-1.6588 8.8436 0.58328l0.15093 0.13702 0.15046 0.14199h1e-6z" style="fill:#fff"/>
 <path id="path2439" d="m13.766 45h1.2289c-0.02147-3.0362 0.04688-6.0745-0.04204-9.1091 0.01522-1.2104-0.67556-2.5096-1.9985-2.7804-1.4225-0.36874-2.8981 0.22988-3.9544 1.1355 0.26637 0.22738 0.43613 0.94537 0.76574 0.85159 1.0086-0.81452 2.9192-1.6472 3.7263-0.13522 0.4495 1.3064 0.21575 2.715 0.27401 4.071v5.9667zm4.234-0.004017v-11.919c0.24846-0.15527 0.78031-0.02137 1.1327-0.06549v4.977c-0.12865 0.55594 0.12707 0.69 0.61227 0.58938 1.5854 0.06455 3.5062-0.21432 4.6532 1.2442 1.1817 1.5816 0.56611 4.3535-1.347 4.9115-1.652 0.40672-3.3683 0.21177-5.0512 0.26195zm1.1327-1.1788c1.1557-0.03672 2.323 0.10519 3.4593-0.16372 1.4638-0.41976 1.6926-2.8172 0.36736-3.569-1.2-0.56943-2.5516-0.2782-3.8267-0.32743v4.0602zm19.198-1.0232c-0.29086-0.27926-0.58172-0.55853-0.87258-0.83779-1.6672 1.7374-4.4376 2.5269-6.6233 1.3288-2.1873-1.0205-3.3095-3.8812-2.2781-6.115 1.1868-3.0132 5.4904-4.1105 7.8996-1.9525 0.57466 0.49723 1.6181 2.0281 1.0262 2.449-1.1129 1e-6 -2.2258 1e-6 -3.3387 1e-6 0.04527 0.34251-0.08851 0.86648 0.06278 1.1015h4.79c0.06778-2.1147-1.0025-4.33-2.9694-5.209-2.6065-1.1346-6.0419-0.54875-7.8013 1.8191-1.9754 2.4176-1.4989 6.3798 0.95986 8.2782 2.5601 2.0626 6.5168 1.6588 8.8436-0.58328l0.15093-0.13702 0.15046-0.14199h1e-6z" style="fill:url(#linearGradient3217);opacity:.3"/>
</svg>
