<?xml version="1.0" encoding="UTF-8"?>
<!-- Created with Inkscape (http://www.inkscape.org/) -->
<svg id="svg2453" width="48" height="48" version="1.0" xmlns="http://www.w3.org/2000/svg" xmlns:xlink="http://www.w3.org/1999/xlink">
 <defs id="defs2455">
  <radialGradient id="radialGradient19613" cx="605.71" cy="486.65" r="117.14" gradientTransform="matrix(.028917 0 0 .012353 26.973 38.471)" gradientUnits="userSpaceOnUse" xlink:href="#linearGradient5060"/>
  <linearGradient id="linearGradient5060">
   <stop id="stop5062" offset="0"/>
   <stop id="stop5064" style="stop-opacity:0" offset="1"/>
  </linearGradient>
  <radialGradient id="radialGradient19616" cx="605.71" cy="486.65" r="117.14" gradientTransform="matrix(-.028917 0 0 .012353 21.027 38.471)" gradientUnits="userSpaceOnUse" xlink:href="#linearGradient5060"/>
  <linearGradient id="linearGradient19619" x1="302.86" x2="302.86" y1="366.65" y2="609.51" gradientTransform="matrix(.084497 0 0 .012353 -6.5396 38.471)" gradientUnits="userSpaceOnUse">
   <stop id="stop5050" style="stop-opacity:0" offset="0"/>
   <stop id="stop5056" offset=".5"/>
   <stop id="stop5052" style="stop-opacity:0" offset="1"/>
  </linearGradient>
  <linearGradient id="linearGradient2447" x1="108.26" x2="25.818" y1="110.28" y2="14.029" gradientTransform="matrix(.50664 0 0 .35125 -58.338 -49.086)" gradientUnits="userSpaceOnUse">
   <stop id="stop3802" style="stop-color:#fff" offset="0"/>
   <stop id="stop3804" style="stop-color:#e0e0e0" offset="1"/>
  </linearGradient>
  <linearGradient id="linearGradient2444" x1="-24.032" x2="-24.098" y1="-13.091" y2="-40.164" gradientTransform="matrix(1.1143 0 0 1.1111 2.7514 3.5103)" gradientUnits="userSpaceOnUse">
   <stop id="stop3796" style="stop-color:#333" offset="0"/>
   <stop id="stop3798" style="stop-color:#292929" offset="1"/>
  </linearGradient>
  <linearGradient id="linearGradient2442" x1="28.938" x2="105.37" y1="17.333" y2="92.824" gradientTransform="matrix(.49084 0 0 .38034 -57.357 -48.338)" gradientUnits="userSpaceOnUse">
   <stop id="stop3790" style="stop-color:#262626" offset="0"/>
   <stop id="stop3792" style="stop-color:#828282" offset="1"/>
  </linearGradient>
 </defs>
 <g id="layer1">
  <g id="g3257" style="opacity:.4">
   <rect id="rect2879" x="3.6" y="43" width="40.8" height="3" style="fill:url(#linearGradient19619)"/>
   <path id="path2881" d="m3.6 43v2.9998c-1.4891 0.005647-3.6-0.67211-3.6-1.5001 0-0.828 1.6618-1.4997 3.6-1.4997z" style="fill:url(#radialGradient19616)"/>
   <path id="path2883" d="m44.4 43v2.9998c1.4891 0.0056 3.6-0.67211 3.6-1.5001 0-0.828-1.6618-1.4997-3.6-1.4997z" style="fill:url(#radialGradient19613)"/>
  </g>
  <rect id="rect3580" transform="matrix(-1 .0017332 -.00096053 -1 0 0)" x="-46.457" y="-44.503" width="44.966" height="35.922" style="fill:url(#linearGradient2447);stroke-linecap:round;stroke-opacity:.96863;stroke:#c1c1c1"/>
  <rect id="rect3582" transform="matrix(-.99999 .0037552 .0024409 -1 0 0)" x="-43.529" y="-41.517" width="38.927" height="29.854" rx="0" ry="0" style="fill:url(#linearGradient2442);stroke-linecap:round;stroke:url(#linearGradient2444)"/>
 </g>
</svg>
