<?xml version="1.0" encoding="UTF-8"?>
<!-- Created with Inkscape (http://www.inkscape.org/) -->
<svg id="svg3853" width="48px" height="48px" version="1.1" xmlns="http://www.w3.org/2000/svg" xmlns:cc="http://creativecommons.org/ns#" xmlns:dc="http://purl.org/dc/elements/1.1/" xmlns:rdf="http://www.w3.org/1999/02/22-rdf-syntax-ns#" xmlns:xlink="http://www.w3.org/1999/xlink">
 <defs id="defs3855">
  <linearGradient id="linearGradient3764" x1="25.076" x2="25.076" y1="45.915" y2="6.4426" gradientUnits="userSpaceOnUse" xlink:href="#linearGradient2490-3"/>
  <linearGradient id="linearGradient2490-3">
   <stop id="stop2492-3" style="stop-color:#365f0e" offset="0"/>
   <stop id="stop2494-8" style="stop-color:#84a718" offset="1"/>
  </linearGradient>
  <linearGradient id="linearGradient3766" x1="25.076" x2="25.076" y1="45.915" y2="6.4426" gradientUnits="userSpaceOnUse">
   <stop id="stop2492-3-7" style="stop-color:#365f0e" offset="0"/>
   <stop id="stop2494-8-5" style="stop-color:#84a718" offset="1"/>
  </linearGradient>
  <linearGradient id="linearGradient3312" x1="32.892" x2="36.358" y1="8.059" y2="5.4565" gradientTransform="matrix(.9977 0 0 1.0407 .1638 -1.1058)" gradientUnits="userSpaceOnUse">
   <stop id="stop8591" style="stop-color:#fefefe" offset="0"/>
   <stop id="stop8593" style="stop-color:#cbcbcb" offset="1"/>
  </linearGradient>
  <filter id="filter3212" x="-.14846" y="-.16434" width="1.2969" height="1.3287" color-interpolation-filters="sRGB">
   <feGaussianBlur id="feGaussianBlur3214" stdDeviation="0.77391625"/>
  </filter>
  <linearGradient id="linearGradient3316" x1="24" x2="24" y1="2" y2="46.017" gradientTransform="matrix(1 0 0 .97778 0 -.96667)" gradientUnits="userSpaceOnUse">
   <stop id="stop3213" style="stop-color:#fff" offset="0"/>
   <stop id="stop3215" style="stop-color:#fff;stop-opacity:0" offset="1"/>
  </linearGradient>
  <radialGradient id="radialGradient3319" cx="102" cy="112.3" r="139.56" gradientTransform="matrix(.3617 0 0 -.39078 .85106 47.517)" gradientUnits="userSpaceOnUse">
   <stop id="stop3756" style="stop-color:#181818" offset="0"/>
   <stop id="stop3762" style="stop-color:#181818;stop-opacity:0" offset=".25"/>
   <stop id="stop3758" style="stop-color:#181818;stop-opacity:0" offset="1"/>
  </radialGradient>
  <radialGradient id="radialGradient3752" cx="24" cy="4.5" r="18" gradientTransform="matrix(0 3.0597 -3.2852 0 38.783 -73.435)" gradientUnits="userSpaceOnUse">
   <stop id="stop3244-5" style="stop-color:#eef87e" offset="0"/>
   <stop id="stop3246-9" style="stop-color:#cde34f" offset=".26238"/>
   <stop id="stop3248-7" style="stop-color:#93b723" offset=".66094"/>
   <stop id="stop3250-8" style="stop-color:#5a7e0d" offset="1"/>
  </radialGradient>
  <linearGradient id="linearGradient3324" x1="-51.786" x2="-51.786" y1="50.786" y2="2.9062" gradientTransform="matrix(.8075 0 0 .89483 59.41 -2.9806)" gradientUnits="userSpaceOnUse" xlink:href="#linearGradient2490-3"/>
  <radialGradient id="radialGradient3327" cx="605.71" cy="486.65" r="117.14" gradientTransform="matrix(.02304 0 0 .0147 26.361 37.04)" gradientUnits="userSpaceOnUse" xlink:href="#linearGradient5060"/>
  <linearGradient id="linearGradient5060">
   <stop id="stop5062" offset="0"/>
   <stop id="stop5064" style="stop-opacity:0" offset="1"/>
  </linearGradient>
  <radialGradient id="radialGradient3330" cx="605.71" cy="486.65" r="117.14" gradientTransform="matrix(-.02304 0 0 .0147 21.623 37.04)" gradientUnits="userSpaceOnUse" xlink:href="#linearGradient5060"/>
  <linearGradient id="linearGradient3851" x1="302.86" x2="302.86" y1="366.65" y2="609.51" gradientTransform="matrix(.067325 0 0 .0147 -.34114 37.04)" gradientUnits="userSpaceOnUse">
   <stop id="stop5050" style="stop-opacity:0" offset="0"/>
   <stop id="stop5056" offset=".5"/>
   <stop id="stop5052" style="stop-opacity:0" offset="1"/>
  </linearGradient>
 </defs>
 <metadata id="metadata3858">
  <rdf:RDF>
   <cc:Work rdf:about="">
    <dc:format>image/svg+xml</dc:format>
    <dc:type rdf:resource="http://purl.org/dc/dcmitype/StillImage"/>
    <dc:title/>
   </cc:Work>
  </rdf:RDF>
 </metadata>
 <g id="layer1">
  <rect id="rect2879" x="7.7378" y="42.43" width="32.508" height="3.5701" style="fill:url(#linearGradient3851);opacity:.3"/>
  <path id="path2881" d="m7.7378 42.43v3.5699c-1.1865 0.0067-2.8684-0.79982-2.8684-1.7852 0-0.98533 1.324-1.7847 2.8684-1.7847z" style="fill:url(#radialGradient3330);opacity:.3"/>
  <path id="path2883" d="m40.246 42.43v3.5699c1.1865 0.0067 2.8684-0.79982 2.8684-1.7852 0-0.98533-1.324-1.7847-2.8684-1.7847z" style="fill:url(#radialGradient3327);opacity:.3"/>
  <path id="path4160" d="m6.5 0.4972h24.061c1.4069 0.47465 8.9655 5.8822 10.939 9.6264v34.379h-35v-44.006z" style="fill:url(#radialGradient3752);stroke-linejoin:round;stroke-width:.99992;stroke:url(#linearGradient3324)"/>
  <path id="path4191" d="m7.3617 44c-0.1993 0-0.3617-0.17546-0.3617-0.39078v-42.204c0-0.21571 0.1624-0.39078 0.3617-0.39078 7.4831 0.10801 15.776-0.16158 23.25 0.026895l10.283 8.866 0.10598 33.702c0 0.21532-0.16204 0.39078-0.3617 0.39078h-33.277z" style="fill:url(#radialGradient3319);opacity:.3"/>
  <path id="path2435" d="m40.5 10.259v33.263h-33v-42.045h22.866" style="fill:none;opacity:.4;stroke-linejoin:round;stroke-width:.99992;stroke:url(#linearGradient3316)"/>
  <path id="path12038" d="m28.617 0.92126c4.2825 0 2.1532 8.4832 2.1532 8.4832s10.358-1.8023 10.358 2.8187c0-2.6097-11.302-10.729-12.511-11.302z" style="fill-rule:evenodd;filter:url(#filter3212);opacity:.4"/>
  <path id="path4474" d="m28.617 0.92126c3.1865 0 2.3358 7.6619 2.3358 7.6619s10.175-0.98105 10.175 3.64c0-1.1259 0.08591-1.9322-0.13378-2.2836-1.5783-2.5242-8.3955-8.1884-10.857-8.9308-0.18422-0.055555-0.5927-0.087535-1.5198-0.087535z" style="fill-rule:evenodd;fill:url(#linearGradient3312)"/>
  <path id="path3932-8-3" transform="translate(0 -1.9996)" d="m18.719 14.094a2.9092 2.9092 0 0 0-2.625 2.9062v6.0938h-1.5938a2.9092 2.9092 0 0 0-2.1875 4.8125l9.5 11a2.9092 2.9092 0 0 0 4.375 0l9.5-11a2.9092 2.9092 0 0 0-2.1875-4.8125h-1.5938v-6.0938a2.9092 2.9092 0 0 0-2.9062-2.9062h-10a2.9092 2.9092 0 0 0-0.28125 0z" style="color:#000000;fill:url(#linearGradient3766);opacity:.05"/>
  <path id="path3932-8" transform="translate(0 -1.9996)" d="m18.812 14.969a2.0262 2.0262 0 0 0-1.8438 2.0312v6.9688h-2.4688a2.0262 2.0262 0 0 0-1.5312 3.3438l9.5 11a2.0262 2.0262 0 0 0 3.0625 0l9.5-11a2.0262 2.0262 0 0 0-1.5312-3.3438h-2.4688v-6.9688a2.0262 2.0262 0 0 0-2.0312-2.0312h-10a2.0262 2.0262 0 0 0-0.1875 0z" style="color:#000000;fill:url(#linearGradient3766);opacity:.1"/>
  <path id="path3932" transform="translate(0 -1.9996)" d="m18.906 15.938a1.0548 1.0548 0 0 0-0.96875 1.0625v7.9375h-3.4375a1.0548 1.0548 0 0 0-0.8125 1.75l9.5 11a1.0548 1.0548 0 0 0 1.625 0l9.5-11a1.0548 1.0548 0 0 0-0.8125-1.75h-3.4375v-7.9375a1.0548 1.0548 0 0 0-1.0625-1.0625h-10a1.0548 1.0548 0 0 0-0.09375 0z" style="fill:url(#linearGradient3764);opacity:.25"/>
  <path id="path3288" d="m33.507 24.011-9.5073 11-9.5073-11h4.5073v-9.0146h10v9.0146h4.5073z" style="fill:#f2f2f2"/>
  <path id="path3288-2" d="m32.5 24.503-8.5 10-8.5-10h4v-9h9v9h4z" style="fill:none;stroke-width:.98543;stroke:#fff"/>
 </g>
</svg>
