<?xml version="1.0" encoding="UTF-8"?>
<!-- Created with Inkscape (http://www.inkscape.org/) -->
<svg id="svg4351" width="48px" height="48px" version="1.1" xmlns="http://www.w3.org/2000/svg" xmlns:cc="http://creativecommons.org/ns#" xmlns:dc="http://purl.org/dc/elements/1.1/" xmlns:rdf="http://www.w3.org/1999/02/22-rdf-syntax-ns#" xmlns:xlink="http://www.w3.org/1999/xlink">
 <defs id="defs4353">
  <linearGradient id="linearGradient3409" x1="35.517" x2="34.103" y1="4.8577" y2="6.5436" gradientUnits="userSpaceOnUse">
   <stop id="stop4269" style="stop-color:#c4c4c4" offset="0"/>
   <stop id="stop4271" style="stop-color:#c4c4c4;stop-opacity:0" offset="1"/>
  </linearGradient>
  <linearGradient id="linearGradient3412" x1="32.892" x2="36.358" y1="8.059" y2="5.4565" gradientTransform="matrix(.9977 0 0 1.0407 .1638 -1.1058)" gradientUnits="userSpaceOnUse">
   <stop id="stop8591" style="stop-color:#fefefe" offset="0"/>
   <stop id="stop8593" style="stop-color:#cbcbcb" offset="1"/>
  </linearGradient>
  <filter id="filter3212" x="-.14846" y="-.16434" width="1.2969" height="1.3287" color-interpolation-filters="sRGB">
   <feGaussianBlur id="feGaussianBlur3214" stdDeviation="0.77391625"/>
  </filter>
  <linearGradient id="linearGradient3416" x1="24" x2="24" y1="2" y2="46.017" gradientTransform="matrix(1 0 0 .97778 0 -.96667)" gradientUnits="userSpaceOnUse">
   <stop id="stop3213" style="stop-color:#fff" offset="0"/>
   <stop id="stop3215" style="stop-color:#fff;stop-opacity:0" offset="1"/>
  </linearGradient>
  <linearGradient id="linearGradient3438" x1="-22.54" x2="-22.54" y1="11.109" y2="46.264" gradientTransform="matrix(.88575 0 0 1.0074 46.104 -1.718)" gradientUnits="userSpaceOnUse" xlink:href="#linearGradient3932"/>
  <linearGradient id="linearGradient3932">
   <stop id="stop3934" style="stop-color:#828282" offset="0"/>
   <stop id="stop3936" style="stop-color:#434343" offset="1"/>
  </linearGradient>
  <linearGradient id="linearGradient3440" x1="16.746" x2="16.746" y1="46.133" y2="1.4098" gradientTransform="matrix(.94724 0 0 .97076 2.0425 -.79435)" gradientUnits="userSpaceOnUse" xlink:href="#linearGradient3582"/>
  <linearGradient id="linearGradient3582">
   <stop id="stop3584" style="stop-color:#333" offset="0"/>
   <stop id="stop3586" style="stop-color:#5a5a5a" offset="1"/>
  </linearGradient>
  <linearGradient id="linearGradient3443" x1="-22.54" x2="-22.54" y1="11.109" y2="46.264" gradientTransform="matrix(.87741 0 0 1.0045 44.193 -1.5806)" gradientUnits="userSpaceOnUse" xlink:href="#linearGradient3932"/>
  <linearGradient id="linearGradient3445" x1="16.746" x2="16.746" y1="46.133" y2="1.4098" gradientTransform="matrix(.93832 0 0 .96794 .54721 -.65965)" gradientUnits="userSpaceOnUse" xlink:href="#linearGradient3582"/>
  <radialGradient id="radialGradient3450" cx="102" cy="112.3" r="139.56" gradientTransform="matrix(.3617 0 0 -.39078 .85106 47.517)" gradientUnits="userSpaceOnUse">
   <stop id="stop41" offset="0"/>
   <stop id="stop47" offset=".18851"/>
   <stop id="stop49" style="stop-opacity:0" offset=".25718"/>
   <stop id="stop51" style="stop-opacity:0" offset="1"/>
  </radialGradient>
  <radialGradient id="radialGradient3453" cx="14.766" cy="10.898" r="18" gradientTransform="matrix(-2.2703e-8 2.1357 -3.5601 -3.7845e-8 54.621 -24.438)" gradientUnits="userSpaceOnUse">
   <stop id="stop3618" style="stop-color:#f0c178" offset="0"/>
   <stop id="stop3270" style="stop-color:#e18941" offset=".5"/>
   <stop id="stop3620" style="stop-color:#ec4f18" offset="1"/>
  </radialGradient>
  <linearGradient id="linearGradient3455" x1="-51.786" x2="-51.786" y1="53.624" y2="2.9062" gradientTransform="matrix(.8075 0 0 .89483 59.41 -2.9806)" gradientUnits="userSpaceOnUse">
   <stop id="stop3624" style="stop-color:#c92e13" offset="0"/>
   <stop id="stop3626" style="stop-color:#dea176" offset="1"/>
  </linearGradient>
  <radialGradient id="radialGradient3458" cx="605.71" cy="486.65" r="117.14" gradientTransform="matrix(.02304 0 0 .0147 26.361 37.04)" gradientUnits="userSpaceOnUse" xlink:href="#linearGradient5060"/>
  <linearGradient id="linearGradient5060">
   <stop id="stop5062" offset="0"/>
   <stop id="stop5064" style="stop-opacity:0" offset="1"/>
  </linearGradient>
  <radialGradient id="radialGradient3461" cx="605.71" cy="486.65" r="117.14" gradientTransform="matrix(-.02304 0 0 .0147 21.623 37.04)" gradientUnits="userSpaceOnUse" xlink:href="#linearGradient5060"/>
  <linearGradient id="linearGradient4349" x1="302.86" x2="302.86" y1="366.65" y2="609.51" gradientTransform="matrix(.067325 0 0 .0147 -.34114 37.04)" gradientUnits="userSpaceOnUse">
   <stop id="stop5050" style="stop-opacity:0" offset="0"/>
   <stop id="stop5056" offset=".5"/>
   <stop id="stop5052" style="stop-opacity:0" offset="1"/>
  </linearGradient>
 </defs>
 <metadata id="metadata4356">
  <rdf:RDF>
   <cc:Work rdf:about="">
    <dc:format>image/svg+xml</dc:format>
    <dc:type rdf:resource="http://purl.org/dc/dcmitype/StillImage"/>
    <dc:title/>
   </cc:Work>
  </rdf:RDF>
 </metadata>
 <g id="layer1">
  <rect id="rect2879" x="7.7378" y="42.43" width="32.508" height="3.5701" style="fill:url(#linearGradient4349);opacity:.3"/>
  <path id="path2881" d="m7.7378 42.43v3.5699c-1.1865 0.0067-2.8684-0.79982-2.8684-1.7852 0-0.98533 1.324-1.7847 2.8684-1.7847z" style="fill:url(#radialGradient3461);opacity:.3"/>
  <path id="path2883" d="m40.246 42.43v3.5699c1.1865 0.0067 2.8684-0.79982 2.8684-1.7852 0-0.98533-1.324-1.7847-2.8684-1.7847z" style="fill:url(#radialGradient3458);opacity:.3"/>
  <path id="path4160" d="m6.5 0.4972h24.061c0.52523 1.9602 6.1331 6.8516 10.939 9.6264v34.379h-35v-44.006z" style="fill:url(#radialGradient3453);stroke-linejoin:round;stroke-width:.99992;stroke:url(#linearGradient3455)"/>
  <path id="path4191" d="m7.3617 44c-0.1993 0-0.3617-0.17546-0.3617-0.39078v-42.204c0-0.21571 0.1624-0.39078 0.3617-0.39078 7.4831 0.10801 15.776-0.16158 23.25 0.026895l10.283 8.866 0.10598 33.702c0 0.21532-0.16204 0.39078-0.3617 0.39078h-33.277z" style="fill:url(#radialGradient3450);opacity:.05"/>
  <path id="path3460" d="m13.482 22.518 23.037-0.03716" style="fill:none;stroke-linecap:square;stroke-linejoin:round;stroke-width:.963;stroke:#464646"/>
  <path id="path4720" d="m13.481 23.518 23.037-0.03716" style="fill-rule:evenodd;fill:#fff;opacity:.3;stroke-linecap:square;stroke-linejoin:round;stroke-width:.963;stroke:#fff"/>
  <path id="path3489" d="m12.435 0.48668c0 2.6105 0.07856 41.917 0.07856 44.027h-5.7772c-0.46808-0.5213-0.11214-1.5563-0.22336-2.2943v-41.479l0.065276-0.17905 0.15808-0.073933h5.6987z" style="display:block;fill:url(#linearGradient3443);stroke-linejoin:round;stroke-width:.97336;stroke:url(#linearGradient3445)"/>
  <path id="path4696" d="m35.538 44.481c0-2.3164-0.04879-36.575-0.04879-38.992 1.6474 2.3487 5.0717 3.0723 6.022 4.8768 1e-6 11.287 3e-6 22.575 3e-6 33.862-0.46468 0.53134-1.3872 0.1273-2.0451 0.25355h-3.9282z" style="display:block;fill:url(#linearGradient3438);stroke-linejoin:round;stroke-width:.97796;stroke:url(#linearGradient3440)"/>
  <rect id="rect3464" x="8" y="4" width="3" height="2" style="fill:#fff"/>
  <rect id="rect3466" x="8" y="8" width="3" height="2" style="fill:#fff"/>
  <rect id="rect3468" x="8" y="12" width="3" height="2" style="fill:#fff"/>
  <rect id="rect3470" x="8" y="16" width="3" height="2" style="fill:#fff"/>
  <rect id="rect3472" x="8" y="20" width="3" height="2" style="fill:#fff"/>
  <rect id="rect3474" x="8" y="24" width="3" height="2" style="fill:#fff"/>
  <rect id="rect3476" x="8" y="28" width="3" height="2" style="fill:#fff"/>
  <rect id="rect3478" x="8" y="32" width="3" height="2" style="fill:#fff"/>
  <rect id="rect3480" x="8" y="36" width="3" height="2" style="fill:#fff"/>
  <rect id="rect3482" x="8" y="40" width="3" height="2" style="fill:#fff"/>
  <g id="g4684" transform="matrix(1.2089 0 0 .95191 -8.5145 -.32751)" style="stroke-width:.91854">
   <rect id="rect2565" x="37.648" y="11.9" width="2.4815" height="1.9644" style="fill:#fff"/>
   <rect id="rect2567" x="37.648" y="16.271" width="2.4815" height="1.9644" style="fill:#fff"/>
   <rect id="rect2569" x="37.648" y="20.643" width="2.4815" height="1.9644" style="fill:#fff"/>
   <rect id="rect2571" x="37.648" y="25.015" width="2.4815" height="1.9644" style="fill:#fff"/>
   <rect id="rect2573" x="37.648" y="29.387" width="2.4815" height="1.9644" style="fill:#fff"/>
   <rect id="rect2575" x="37.648" y="33.758" width="2.4815" height="1.9644" style="fill:#fff"/>
   <rect id="rect2577" x="37.648" y="38.13" width="2.4815" height="1.9644" style="fill:#fff"/>
   <rect id="rect2579" x="37.648" y="42.502" width="2.4815" height="1.9644" style="fill:#fff"/>
  </g>
  <path id="path2435" d="m40.5 10.259v33.263h-33v-42.045h22.866" style="fill:none;opacity:.4;stroke-linejoin:round;stroke-width:.99992;stroke:url(#linearGradient3416)"/>
  <path id="path12038" d="m28.617 0.92126c4.2825 0 2.1532 8.4832 2.1532 8.4832s10.358-1.8023 10.358 2.8187c0-2.6097-11.302-10.729-12.511-11.302z" style="fill-rule:evenodd;filter:url(#filter3212);opacity:.4"/>
  <path id="path4474" d="m28.617 0.92126c3.1865 0 2.3358 7.6619 2.3358 7.6619s10.175-0.98105 10.175 3.64c0-1.1259 0.08591-1.9322-0.13378-2.2836-1.5783-2.5242-8.1132-8.1884-10.575-8.9308-0.18422-0.055555-0.87504-0.087535-1.8022-0.087535z" style="fill-rule:evenodd;fill:url(#linearGradient3412)"/>
  <path id="path4238" d="m30.561 0.5c1.4069 0.47465 8.9655 5.8794 10.939 9.6236v12.285c-40.446 15.729-35.236-21.909-10.939-21.909z" style="fill:none;stroke-linejoin:round;stroke-width:.99992;stroke:url(#linearGradient3409)"/>
 </g>
</svg>
