<?xml version="1.0" encoding="UTF-8"?>
<!-- Created with Inkscape (http://www.inkscape.org/) -->
<svg id="svg2453" width="48" height="48" version="1.1" xmlns="http://www.w3.org/2000/svg" xmlns:xlink="http://www.w3.org/1999/xlink">
 <defs id="defs2455">
  <radialGradient id="radialGradient2470" cx="62.712" cy="108.02" r="47.383" gradientTransform="matrix(.34709 0 0 .096818 2.1862 31.803)" gradientUnits="userSpaceOnUse">
   <stop id="stop5062" offset="0"/>
   <stop id="stop5064" style="stop-opacity:0" offset="1"/>
  </radialGradient>
  <linearGradient id="linearGradient2474" x1="27.405" x2="37.462" y1="52.355" y2="68.298" gradientUnits="userSpaceOnUse" spreadMethod="reflect" xlink:href="#linearGradient2793"/>
  <linearGradient id="linearGradient2505" x1="29.233" x2="29.233" y1="1.2616" y2="57.746" gradientTransform="matrix(.78329 0 0 .78329 .63518 -.56898)" gradientUnits="userSpaceOnUse">
   <stop id="stop4296" style="stop-color:#e6e7e7" offset="0"/>
   <stop id="stop4298" style="stop-color:#676b73" offset="1"/>
  </linearGradient>
  <linearGradient id="linearGradient2503" x1="4.885" x2="35.515" y1="38.13" y2="39.751" gradientTransform="matrix(.94757 0 0 1.1088 4.3119 -14.553)" gradientUnits="userSpaceOnUse">
   <stop id="stop3317" style="stop-color:#f8f8f8;stop-opacity:.15464" offset="0"/>
   <stop id="stop3322" style="stop-color:#b0b2b6;stop-opacity:.17526" offset=".49817"/>
   <stop id="stop3319" style="stop-color:#5b5e62;stop-opacity:.3299" offset=".83784"/>
   <stop id="stop2342" style="stop-color:#fff;stop-opacity:.15464" offset="1"/>
  </linearGradient>
  <linearGradient id="linearGradient2499" x1="97.718" x2="62.373" y1="17.834" y2="17.834" gradientTransform="matrix(.46198 0 0 .44517 -5.998 -4.5012)" gradientUnits="userSpaceOnUse" spreadMethod="reflect" xlink:href="#linearGradient2793"/>
  <linearGradient id="linearGradient2495" x1="32.627" x2="64" y1="37.217" y2="37.217" gradientTransform="matrix(.44818 0 0 .40468 -5.1148 -3.6094)" gradientUnits="userSpaceOnUse" spreadMethod="reflect" xlink:href="#linearGradient2793"/>
  <linearGradient id="linearGradient2492" x1="63.999" x2="63.999" y1="6.4738" y2="31.226" gradientTransform="matrix(.43037 0 0 .43037 -3.9747 -5.3456)" gradientUnits="userSpaceOnUse">
   <stop id="stop4304" style="stop-color:#c0c0c0" offset="0"/>
   <stop id="stop4306" style="stop-color:#abacb0" offset="1"/>
  </linearGradient>
  <linearGradient id="linearGradient2793">
   <stop id="stop2795" style="stop-color:#555753" offset="0"/>
   <stop id="stop2797" style="stop-color:#d3d7cf;stop-opacity:0" offset="1"/>
  </linearGradient>
  <linearGradient id="linearGradient2489" x1="92.005" x2="55.992" y1="47.259" y2="10.9" gradientTransform="matrix(.37566 0 0 .37566 -.47392 -.089301)" gradientUnits="userSpaceOnUse" spreadMethod="reflect" xlink:href="#linearGradient2793"/>
 </defs>
 <g id="layer1" transform="translate(0 1)">
  <path id="path12941" d="m40.399 42.262a16.446 4.5875 0 0 1-32.892 0 16.446 4.5875 0 1 1 32.892 0z" style="fill-rule:evenodd;fill:url(#radialGradient2470)"/>
  <path id="path5870" transform="matrix(.84576 0 0 .75429 -1.8511 1.0178)" d="m46.332 53.131a16.276 4.2702 0 1 1-32.552 0 16.276 4.2702 0 1 1 32.552 0z" style="fill-rule:evenodd;fill:#d9dcd5;stroke-linecap:round;stroke-linejoin:round;stroke-width:.47033;stroke:#838383"/>
  <path id="path18342" transform="matrix(.46198 0 0 .44517 -5.998 -4.5012)" d="m98.723 24.096a32.812 6.9078 0 1 1-65.624 0 32.812 6.9078 0 1 1 65.624 0z" style="fill-opacity:.51309;fill-rule:evenodd;fill:#585858;opacity:.77273;stroke-linecap:round;stroke-linejoin:round;stroke-width:.82836;stroke:#636363"/>
  <path id="path3037" transform="matrix(.84576 0 0 .75429 -1.8511 1.0178)" d="m46.332 53.131a16.276 4.2702 0 1 1-32.552 0 16.276 4.2702 0 1 1 32.552 0z" style="fill-rule:evenodd;fill:url(#linearGradient2474);opacity:.5"/>
  <path id="path1751" d="m6.5436 7.3608c-0.035536-0.045708 3.1174 32.881 3.1179 32.891 0.13429 3.2883 5.983 3.8801 14.056 4.1384 9.8651-0.10171 13.566-1.7583 13.706-4.0449 0.01121-0.04509 3.1635-32.94 3.1747-32.985 1.8632-7.2801-12.977-6.7449-18.174-6.7449-5.5805 0-17.98-0.17112-15.881 6.7449z" style="fill-rule:evenodd;fill:url(#linearGradient2503);stroke-linecap:round;stroke-linejoin:round;stroke-width:.37566;stroke:url(#linearGradient2505)"/>
  <path id="path18338" d="m7.7418 6.5441s12.588-3.9063 31.071-0.57492c7.0474-5.2533-16.621-5.6377-16.621-5.6377s-20.3 1.0874-14.45 6.2126z" style="fill-rule:evenodd;fill:#d9dcd5"/>
  <path id="path13701" d="m7.7418 6.5441s12.588-3.9063 31.071-0.57492c7.0474-5.2533-16.621-5.6377-16.621-5.6377s-20.3 1.0874-14.45 6.2126z" style="fill-rule:evenodd;fill:url(#linearGradient2499);stroke-linecap:round;stroke-linejoin:round;stroke-width:.37566;stroke:#636363"/>
  <path id="path18314" d="m36.519 2.0372c0.01846 0.00482 0.03927 0.00905 0.05775 0.013912 0.08256 0.021748 0.16289 0.046897 0.24543 0.069557 0.01982 0.00542 0.03794 0.00844 0.05775 0.013912 0.04804 0.013327 0.09649 0.02805 0.14437 0.041734 0.01405 4e-3 0.02927 0.00988 0.04331 0.013911 0.0092 0.00265 0.01969-0.00267 0.02887 0 0.02527 0.0073 0.04699 0.020413 0.07218 0.027823 0.02957 0.00873 0.05718 0.018934 0.08662 0.027823 0.02042 0.00612 0.03739 0.00771 0.05775 0.013912 0.04731 0.014479 0.09748 0.026816 0.14437 0.041734 0.01242 0.00393 0.03092 0.00995 0.04331 0.013912 0.03937 0.012684 0.07649 0.028715 0.11549 0.041735 0.01396 0.00463 0.02941 0.00924 0.04331 0.013911 0.09221 0.031255 0.18479 0.064043 0.2743 0.097381 0.0237 0.00877 0.0487 0.018901 0.07218 0.027823 0.02754 0.010518 0.04497 0.017086 0.07219 0.027823 0.0561 0.022131 0.11864 0.04645 0.17324 0.069557 0.0184 0.00772 0.03953 0.019987 0.05775 0.027823 0.0042 0.00184 0.01023-0.00184 0.01444 0 0.02736 0.011982 0.05971 0.029482 0.08662 0.041734 0.01449 0.0066 0.02895 0.00723 0.04331 0.013911 0.0053 0.00245 0.0091 0.011454 0.01444 0.013912 0.05163 0.024236 0.10904 0.044238 0.15881 0.069557 0.01324 0.00674 0.03021 0.021009 0.04331 0.027823 0.01675 0.0087 0.04123 0.018995 0.05775 0.027823 0.0096 0.00516 0.01938 0.00871 0.02887 0.013912 0.01007 0.00548 0.0189 0.00838 0.02887 0.013911 0.0094 0.00525 0.0051 0.00862 0.01444 0.013911 0.0094 0.00529 0.01954 0.00858 0.02888 0.013912 0.0092 0.00534 0.01971 0.00853 0.02887 0.013912 0.0048 0.00276 0.0097 0.01114 0.01444 0.013911 0.02278 0.013524 0.04997 0.027912 0.07218 0.041734 0.0094 0.00583 0.01955 0.00803 0.02887 0.013912 0.01231 0.00781 0.01675 0.019918 0.02888 0.027822 0.01386 0.00903 0.0297 0.018662 0.04331 0.027823 0.04691 0.031406 0.10053 0.064416 0.14437 0.097381 4e-3 0.00302 0.01051 0.010882 0.01444 0.013912 0.04421 0.033632 0.08915 0.062059 0.12993 0.097381 0.0029 0.00254-0.0029 0.01136 0 0.013911 0.01246 0.010909 0.03119 0.016749 0.04331 0.027823 7e-3 0.00647 0.0075 0.021299 0.01444 0.027823 0.0095 0.00895 0.01959 0.018761 0.02887 0.027823 0.0034 0.0033 0.01111-0.00332 0.01444 0 0.0035 0.00341 0.01101 0.010488 0.01444 0.013911 0.0092 0.00934 0.01989 0.01837 0.02887 0.027823 0.0022 0.00231-0.0022 0.011595 0 0.013912 0.0038 0.00407 0.01066 0.00982 0.01444 0.013911 0.04349 0.046683 0.07815 0.089573 0.11549 0.13912 0.0076 0.010089 0.02152 0.017614 0.02887 0.027823 0.0023 0.00313-0.0022 0.010769 0 0.013912 0.0031 0.00439 0.01137 0.0095 0.01444 0.013911 0.0087 0.012663 0.02055 0.028885 0.02887 0.041735 0.0034 0.00661 0.01123 0.00727 0.01444 0.013912 0.0065 0.013189 0.0087 0.028576 0.01444 0.041734 0.01404 0.033549 0.02005 0.063215 0.02887 0.09738 0.0056 0.019854 0.01086 0.049471 0.01444 0.069557 0.0011 0.00688-8.91e-4 0.00702 0 0.013912 0.0016 0.010068 0.01335 0.017669 0.01444 0.027823 0.0014 0.017261 2.3e-5 0.038359 0 0.055646-0.0011 0.011106 0.0015 0.030742 0 0.041734-0.0011 0.0073-0.01316 0.020571-0.01444 0.027823-0.0019 0.010878 0.0023 0.017058 0 0.027823-0.01021 0.050414-0.02461 0.091113-0.04331 0.13912-0.0027 0.00686 0.0028 0.0071 0 0.013911-0.0044 0.010941-0.0096 0.017005-0.01444 0.027823-0.0045 0.010141-0.0096 0.01779-0.01444 0.027823-0.0063 0.013427-0.0075 0.014585-0.01444 0.027823-0.0035 0.00662-0.0108 0.021252-0.01444 0.027823-0.0091 0.01643-0.01882 0.039507-0.02887 0.055646-2e-3 0.00322-0.01235-0.0032-0.01444 0-0.0041 0.00643 0.0043 0.00752 0 0.013911-0.02124 0.031925-0.04733 0.066587-0.07218 0.097381-5e-3 0.00616-0.0093 0.0078-0.01444 0.013911-0.0051 0.00611-0.0092 0.021753-0.01444 0.027823-0.04198 0.048577-0.09411 0.093294-0.14437 0.13911-0.0063 0.00573-8e-3 0.00823-0.01444 0.013911-0.01025 0.0091-0.03276 0.018833-0.04331 0.027823-0.0066 0.0056-0.0077 0.022264-0.01444 0.027823-0.02432 0.020021-0.06085 0.036151-0.08662 0.055646-0.0043 0.00324-0.01008 0.010688-0.01444 0.013911-0.04492 0.033377-0.09554 0.06551-0.14437 0.097381-0.01103 0.0072-0.01766 0.020701-0.02887 0.027823-0.02013 0.012663-0.05149 0.029307-0.07219 0.041735-0.16893 0.10147-0.36497 0.19121-0.56304 0.27823-0.03895 0.016975-0.07579 0.039175-0.11549 0.055646-0.0443 0.018487-0.08483 0.03777-0.12993 0.055646-0.04035 0.015994-0.07461 0.026211-0.1155 0.041735-0.02044 0.00776-0.05163 0.020175-0.07218 0.027823-4e-3 0.00147-0.01048-0.00146-0.01444 0-0.03702 0.013723-0.06375 0.028373-0.10106 0.041734-0.06218 0.022254-0.12503 0.048263-0.18768 0.069558-0.10443 0.035511-0.2133 0.06434-0.31761 0.097381-0.06259 0.019824-0.12564 0.036638-0.18768 0.055645-0.04759 0.014582-0.0973 0.041519-0.14437 0.055646-0.07564 0.022706-0.14286 0.034026-0.21655 0.055647-0.03483 0.00909-0.0806 0.018851-0.1155 0.027822-0.05614 0.014433-0.10249 0.027612-0.1588 0.041734-0.035 0.00878-0.08042 0.019164-0.1155 0.027824-0.05642 0.013931-0.10222 0.028107-0.15881 0.041734-0.06118 0.014733-0.12631 0.027354-0.18768 0.041735-0.18411 0.043141-0.36283 0.085152-0.5486 0.1252-0.06192 0.013351-0.12558 0.028718-0.18768 0.041735-0.09781 0.0205-0.20494 0.035962-0.30317 0.055645-0.04896 0.00981-0.09531 0.032125-0.14437 0.041735-0.0047 9.194e-4 -0.0097-9.164e-4 -0.01444 0-0.19192 0.037518-0.38406 0.062838-0.57748 0.097382-0.063 0.011252-0.12453 0.030789-0.18768 0.041734-0.12631 0.02189-0.24848 0.034958-0.37536 0.055646-0.09516 0.015516-0.19327 0.04079-0.28874 0.055646-0.19094 0.029714-0.38538 0.056306-0.57748 0.083468-0.06404 0.0091-0.12352 0.018999-0.18768 0.027823-0.1283 0.01756-0.26104 0.025249-0.3898 0.041735-0.06439 0.00829-0.12318 0.019795-0.18768 0.027823-0.06933 0.00858-0.1471 0.019541-0.21655 0.027823-0.11516 0.013734-0.23101 0.0288-0.34648 0.041735-0.0049 5.475e-4 -0.0096-5.466e-4 -0.01444 0-0.52284 0.058416-1.0457 0.1096-1.5736 0.15303-0.13082 0.010859-0.25874 0.017801-0.3898 0.027823-0.45864 0.03474-0.92541 0.071922-1.3859 0.097381-0.12692 0.00707-0.2628 0.00748-0.3898 0.013911-0.06583 0.0033-0.13627 0.010779-0.20212 0.013912-0.12702 0.00609-0.26274 0.00841-0.3898 0.013911-0.5269 0.022544-1.0475 0.041807-1.5736 0.055646-0.13154 0.00349-0.25839 0.010886-0.3898 0.013912-0.26748 0.00614-0.52728 0.00946-0.79403 0.013911-0.13709 5.542e-4 -0.28139-1.005e-4 -0.41867 0-0.0047 3e-6 -0.0097-1.5e-6 -0.01444 0-0.06628 4.05e-5 -0.1358 6.97e-5 -0.20212 0-0.0047-6e-6 -0.0097 6.7e-6 -0.01444 0-0.27949-3.27e-4 -0.5573 0.00245-0.83734 0-0.0047-4.35e-5 -0.0097 4.42e-5 -0.01444 0-0.13768-0.00128-0.28089-0.012064-0.41867-0.013911-0.14249-0.00186-0.29055 0.00249-0.43311 0-0.1426-0.00255-0.27603-0.010694-0.41867-0.013912-0.0048-1.08e-4 -0.0097 1.079e-4 -0.01444 0-0.07129-0.00158-0.13082 0.00175-0.20212 0-0.14265-0.00356-0.29046-0.00963-0.43311-0.013912-0.14265-0.00428-0.27606-0.00888-0.41867-0.013912-0.0048-1.672e-4 -0.0097 1.688e-4 -0.01444 0-0.13786-0.00488-0.28088-0.0083-0.41867-0.013911-0.20898-0.00839-0.42648-0.017689-0.63522-0.027823-0.0047-2.332e-4 -0.0097 2.339e-4 -0.01444 0-0.5645-0.027517-1.1277-0.069603-1.6891-0.11129-0.0047-3.539e-4 -0.0097 3.54e-4 -0.01444 0-0.41996-0.031279-0.83869-0.071098-1.256-0.11129-0.0047-4.545e-4 -0.0098 4.544e-4 -0.01444 0-0.28126-0.027163-0.55758-0.051934-0.83734-0.083469-0.06998-0.00793-0.13224-0.019609-0.20212-0.027822-0.10475-0.012251-0.2131-0.014924-0.31761-0.027824-0.31353-0.038698-0.62729-0.080424-0.9384-0.1252-0.1037-0.014927-0.21421-0.040017-0.31761-0.055646-0.13788-0.020839-0.26691-0.03353-0.40423-0.055646-0.06866-0.011059-0.1336-0.03035-0.20212-0.041735-0.03848-0.00639-0.07707-0.00742-0.1155-0.013911-0.03423-0.00579-0.06686-0.00804-0.10106-0.013911-0.06837-0.011713-0.1339-0.029688-0.20212-0.041734-0.03411-0.00602-0.06699-0.00781-0.10106-0.013912-0.06814-0.012214-0.13413-0.02918-0.20212-0.041734-0.03399-0.00628-0.0671-0.00755-0.10106-0.013912-0.06791-0.012725-0.13437-0.028664-0.20212-0.041735-0.27098-0.052282-0.54024-0.10897-0.80847-0.16694-0.06706-0.014492-0.13524-0.026878-0.20212-0.041734-0.06688-0.014857-0.13542-0.026509-0.20212-0.041735-0.03335-0.00761-0.06776-0.020116-0.10106-0.027822-0.08844-0.02355-0.18358-0.045132-0.2743-0.069558-0.04536-0.012213-0.08416-0.029265-0.12993-0.041735-0.09155-0.02494-0.18173-0.043441-0.2743-0.069558-0.04629-0.013058-0.09798-0.028344-0.14437-0.041734-0.04638-0.013391-0.08356-0.027987-0.12993-0.041735-0.046374-0.013747-0.09811-0.027604-0.14437-0.041734-0.04622-0.014128-0.098289-0.027195-0.14433-0.041732-0.069059-0.021807-0.13385-0.046764-0.20212-0.069558-0.04551-0.015195-0.084906-0.026068-0.12993-0.041734-0.022514-0.0078336-0.049812-0.019868-0.072185-0.027824-0.044745-0.01591-0.08583-0.025316-0.12993-0.041734-0.088203-0.032836-0.17486-0.076274-0.25986-0.11129-0.14875-0.061282-0.29773-0.12595-0.43311-0.19476-0.054151-0.027524-0.1073-0.05462-0.15881-0.083469-0.00366-0.00206-0.010792 0.00207-0.014436 0-0.029776-0.016799-0.043386-0.038381-0.072185-0.055646-0.0088714-0.0052891-0.020098-0.0085775-0.028874-0.013911-0.096685-0.058808-0.19036-0.11633-0.2743-0.18085-0.00762-0.00586-0.00693-0.00801-0.014436-0.013912-0.010523-0.00828-0.018583-0.019443-0.028875-0.027822-0.00739-0.00596-0.00717-0.00791-0.014436-0.013911-0.061152-0.050532-0.121-0.098809-0.17324-0.15303-0.00626-0.00642-0.00831-0.00743-0.014437-0.013911-0.010743-0.011351-0.018547-0.030215-0.028874-0.041734-0.00234-0.00264-0.012115 0.00264-0.014437 0-0.025814-0.029022-0.034666-0.053369-0.057747-0.083469-0.0053-0.00681-0.00928-0.00704-0.014436-0.013912-0.017539-0.023375-0.02749-0.045517-0.043311-0.069558-0.00471-0.00704-0.00988-0.00681-0.014437-0.013911-0.018249-0.028422-0.04199-0.054099-0.057747-0.083469-0.00394-0.00734-0.010657-0.020421-0.014437-0.027823-0.01323-0.025909-0.017648-0.056811-0.028874-0.083468-0.00481-0.011425-0.010003-0.016259-0.014437-0.027823-0.00205-0.010717 0.00159-0.031104 0-0.041735-0.00159-0.01063-0.013302-0.017278-0.014437-0.027823-0.00151-0.014059 7.194e-4 -0.027827 0-0.041735-3.618e-4 -0.00696 1.675e-4 -0.00699 0-0.013911-1.634e-4 -0.00692-2.97e-5 -0.020945 0-0.027823 2.7e-5 -0.00688-2.172e-4 -0.00707 0-0.013911 4.444e-4 -0.013681-0.0012-0.028204 0-0.041735 5.95e-4 -0.00677-7.803e-4 -0.00718 0-0.013911 0.00118-0.010091 0.012845-0.017816 0.014437-0.027823 0.00159-0.010007-2e-3 -0.031811 0-0.041734 0.00133-0.00662-0.0015-0.00733 0-0.013911 0.00151-0.00658 0.012749-0.021281 0.014437-0.027823 0.00168-0.00655-0.00185-0.0074 0-0.013911 0.00186-0.00651-0.00204-0.00744 0-0.013912 0.0081-0.025902 0.018088-0.058148 0.028874-0.083469 0.00271-0.00632 0.011567-0.00763 0.014437-0.013911 0.0043-0.00943 0.00977-0.018477 0.014436-0.027823 0.00467-0.00935 0.00942-0.01856 0.014437-0.027823 0.00502-0.00926 0.00907-0.018641 0.014437-0.027823 0.00179-0.00306-0.00183-0.01086 0-0.013912 0.00729-0.012228 0.020985-0.029648 0.028874-0.041734 0.011873-0.018095 0.015688-0.023961 0.028874-0.041734 0.0044-0.00592 0.0099-0.021934 0.014437-0.027823 0.00452-0.0059 0.00977-0.00805 0.014436-0.013912 0.00468-0.00585 0.00962-0.00809 0.014437-0.013911 0.0096-0.011662 0.018733-0.030213 0.028874-0.041734 0.00712-0.00805 0.021495-0.00593 0.028874-0.013912 0.010406-0.011451 0.017952-0.016511 0.028874-0.027823 0.00548-0.00564 0.00883-0.022215 0.014437-0.027823 0.011174-0.011243 0.017205-0.016719 0.028874-0.027823 0.00585-0.00554 0.00846-0.00841 0.014436-0.013912 0.011911-0.011035 0.030929-0.030837 0.043311-0.041734 0.00621-0.00543 0.00811-0.00851 0.014437-0.013912 0.018916-0.016244 0.037831-0.025798 0.057747-0.041734 0.00666-0.0053 0.02211-0.00865 0.028874-0.013911 0.026985-0.021113 0.04356-0.048986 0.072185-0.069558 0.021523-0.015382 0.049799-0.026655 0.072185-0.041734 0.022331-0.015127 0.049043-0.026907 0.072185-0.041734 0.015465-0.00985 0.027505-0.018102 0.043311-0.027823 0.081183-0.050501 0.15633-0.10602 0.24543-0.15303 0.06898-0.036394 0.14395-0.063035 0.21655-0.097381 0.054452-0.025759 0.1028-0.058844 0.15881-0.083469 0.03734-0.016417 0.077617-0.025815 0.11549-0.041734 0.01894-0.00796 0.038697-0.019987 0.057748-0.027823 0.038102-0.015671 0.077039-0.026553 0.11549-0.041734 0.019228-0.00759 0.038453-0.020354 0.057747-0.027823 0.03859-0.014937 0.076734-0.027281 0.11549-0.041734 0.038762-0.014454 0.076686-0.02776 0.1155-0.041735 0.03881-0.013975 0.076758-0.028233 0.11549-0.041734 0.038737-0.013501 0.076954-0.028702 0.11549-0.041734 0.019284-0.00651 0.038538-0.00752 0.057749-0.013912 0.038398-0.012799 0.077475-0.029398 0.11549-0.041735 0.057029-0.018505 0.11741-0.038167 0.17324-0.055646 0.02103-0.00606 0.036752-0.00794 0.057748-0.013911 0.062987-0.017904 0.12467-0.038346 0.18768-0.055646 0.0042-0.00115 0.01023 0.00115 0.01444 0 0.07984-0.021876 0.16458-0.04807 0.24543-0.069558-2.9374 0.34127-4.7353 0.90968-4.7353 1.9198 4e-7 0.19671 0 3.2951 0 3.4918 4e-7 2.1338 8.005 3.8674 17.873 3.8674s17.873-1.7336 17.873-3.8674v-3.4918c0-1.0319-1.8735-1.6145-4.923-1.9615z" style="fill-rule:evenodd;fill:#fff;stroke-linecap:round;stroke-linejoin:round;stroke-width:.18748;stroke:#808389"/>
  <path id="path3959" d="m36.519 2.0372c0.01846 0.00482 0.03927 0.00905 0.05775 0.013912 0.08256 0.021748 0.16289 0.046897 0.24543 0.069557 0.01982 0.00542 0.03794 0.00844 0.05775 0.013912 0.04804 0.013327 0.09649 0.02805 0.14437 0.041734 0.01405 4e-3 0.02927 0.00988 0.04331 0.013911 0.0092 0.00265 0.01969-0.00267 0.02887 0 0.02527 0.0073 0.04699 0.020413 0.07218 0.027823 0.02957 0.00873 0.05718 0.018934 0.08662 0.027823 0.02042 0.00612 0.03739 0.00771 0.05775 0.013912 0.04731 0.014479 0.09748 0.026816 0.14437 0.041734 0.01242 0.00393 0.03092 0.00995 0.04331 0.013912 0.03937 0.012684 0.07649 0.028715 0.11549 0.041735 0.01396 0.00463 0.02941 0.00924 0.04331 0.013911 0.09221 0.031255 0.18479 0.064043 0.2743 0.097381 0.0237 0.00877 0.0487 0.018901 0.07218 0.027823 0.02754 0.010518 0.04497 0.017086 0.07219 0.027823 0.0561 0.022131 0.11864 0.04645 0.17324 0.069557 0.0184 0.00772 0.03953 0.019987 0.05775 0.027823 0.0042 0.00184 0.01023-0.00184 0.01444 0 0.02736 0.011982 0.05971 0.029482 0.08662 0.041734 0.01449 0.0066 0.02895 0.00723 0.04331 0.013911 0.0053 0.00245 0.0091 0.011454 0.01444 0.013912 0.05163 0.024236 0.10904 0.044238 0.15881 0.069557 0.01324 0.00674 0.03021 0.021009 0.04331 0.027823 0.01675 0.0087 0.04123 0.018995 0.05775 0.027823 0.0096 0.00516 0.01938 0.00871 0.02887 0.013912 0.01007 0.00548 0.0189 0.00838 0.02887 0.013911 0.0094 0.00525 0.0051 0.00862 0.01444 0.013911 0.0094 0.00529 0.01954 0.00858 0.02888 0.013912 0.0092 0.00534 0.01971 0.00853 0.02887 0.013912 0.0048 0.00276 0.0097 0.01114 0.01444 0.013911 0.02278 0.013524 0.04997 0.027912 0.07218 0.041734 0.0094 0.00583 0.01955 0.00803 0.02887 0.013912 0.01231 0.00781 0.01675 0.019918 0.02888 0.027822 0.01386 0.00903 0.0297 0.018662 0.04331 0.027823 0.04691 0.031406 0.10053 0.064416 0.14437 0.097381 4e-3 0.00302 0.01051 0.010882 0.01444 0.013912 0.04421 0.033632 0.08915 0.062059 0.12993 0.097381 0.0029 0.00254-0.0029 0.01136 0 0.013911 0.01246 0.010909 0.03119 0.016749 0.04331 0.027823 7e-3 0.00647 0.0075 0.021299 0.01444 0.027823 0.0095 0.00895 0.01959 0.018761 0.02887 0.027823 0.0034 0.0033 0.01111-0.00332 0.01444 0 0.0035 0.00341 0.01101 0.010488 0.01444 0.013911 0.0092 0.00934 0.01989 0.01837 0.02887 0.027823 0.0022 0.00231-0.0022 0.011595 0 0.013912 0.0038 0.00407 0.01066 0.00982 0.01444 0.013911 0.04349 0.046683 0.07815 0.089573 0.11549 0.13912 0.0076 0.010089 0.02152 0.017614 0.02887 0.027823 0.0023 0.00313-0.0022 0.010769 0 0.013912 0.0031 0.00439 0.01137 0.0095 0.01444 0.013911 0.0087 0.012663 0.02055 0.028885 0.02887 0.041735 0.0034 0.00661 0.01123 0.00727 0.01444 0.013912 0.0065 0.013189 0.0087 0.028576 0.01444 0.041734 0.01404 0.033549 0.02005 0.063215 0.02887 0.09738 0.0056 0.019854 0.01086 0.049471 0.01444 0.069557 0.0011 0.00688-8.91e-4 0.00702 0 0.013912 0.0016 0.010068 0.01335 0.017669 0.01444 0.027823 0.0014 0.017261 2.3e-5 0.038359 0 0.055646-0.0011 0.011106 0.0015 0.030742 0 0.041734-0.0011 0.0073-0.01316 0.020571-0.01444 0.027823-0.0019 0.010878 0.0023 0.017058 0 0.027823-0.01021 0.050414-0.02461 0.091113-0.04331 0.13912-0.0027 0.00686 0.0028 0.0071 0 0.013911-0.0044 0.010941-0.0096 0.017005-0.01444 0.027823-0.0045 0.010141-0.0096 0.01779-0.01444 0.027823-0.0063 0.013427-0.0075 0.014585-0.01444 0.027823-0.0035 0.00662-0.0108 0.021252-0.01444 0.027823-0.0091 0.01643-0.01882 0.039507-0.02887 0.055646-2e-3 0.00322-0.01235-0.0032-0.01444 0-0.0041 0.00643 0.0043 0.00752 0 0.013911-0.02124 0.031925-0.04733 0.066587-0.07218 0.097381-5e-3 0.00616-0.0093 0.00779-0.01444 0.013911-0.0051 0.00611-0.0092 0.021753-0.01444 0.027823-0.04198 0.048577-0.09411 0.093294-0.14437 0.13911-0.0063 0.00573-8e-3 0.00823-0.01444 0.013911-0.01025 0.0091-0.03276 0.018833-0.04331 0.027823-0.0066 0.0056-0.0077 0.022264-0.01444 0.027823-0.02432 0.020022-0.06085 0.036151-0.08662 0.055647-0.0043 0.00324-0.01008 0.010687-0.01444 0.013911-0.04492 0.033376-0.09554 0.06551-0.14437 0.09738-0.01103 0.0072-0.01766 0.020701-0.02887 0.027823-0.02013 0.012663-0.05149 0.029307-0.07219 0.041735-0.16893 0.10147-0.36497 0.19121-0.56304 0.27823-0.03895 0.016975-0.07579 0.039175-0.11549 0.055646-0.0443 0.018487-0.08483 0.03777-0.12993 0.055646-0.04035 0.015994-0.07461 0.026212-0.1155 0.041734-0.02044 0.00776-0.05163 0.020176-0.07218 0.027823-4e-3 0.00147-0.01048-0.00146-0.01444 0-0.03702 0.013723-0.06375 0.028373-0.10106 0.041734-0.06218 0.022254-0.12503 0.048263-0.18768 0.069557-0.10443 0.035512-0.2133 0.06434-0.31761 0.09738-0.06259 0.019824-0.12564 0.036639-0.18768 0.055646-0.04759 0.014581-0.0973 0.041518-0.14437 0.055646-0.07564 0.022706-0.14286 0.034026-0.21655 0.055646-0.03483 0.00909-0.0806 0.018851-0.1155 0.027823-0.05614 0.014432-0.10249 0.027612-0.1588 0.041734-0.035 0.00878-0.08042 0.019163-0.1155 0.027823-0.05642 0.013931-0.10222 0.028108-0.15881 0.041734-0.06118 0.014732-0.12631 0.027354-0.18768 0.041734-0.18411 0.043141-0.36283 0.085152-0.5486 0.1252-0.06192 0.013351-0.12558 0.028718-0.18768 0.041735-0.09781 0.0205-0.20494 0.035962-0.30317 0.055645-0.04896 0.00981-0.09531 0.032125-0.14437 0.041735-0.0047 9.194e-4 -0.0097-9.164e-4 -0.01444 0-0.19192 0.037518-0.38406 0.062838-0.57748 0.097382-0.063 0.011252-0.12453 0.030789-0.18768 0.041734-0.12631 0.02189-0.24848 0.034958-0.37536 0.055646-0.09516 0.015516-0.19327 0.04079-0.28874 0.055646-0.19094 0.029714-0.38538 0.056306-0.57748 0.083468-0.06404 0.0091-0.12352 0.018999-0.18768 0.027823-0.1283 0.01756-0.26104 0.025249-0.3898 0.041735-0.06439 0.00829-0.12318 0.019795-0.18768 0.027823-0.06933 0.00858-0.1471 0.019541-0.21655 0.027823-0.11516 0.013734-0.23101 0.0288-0.34648 0.041735-0.0049 5.475e-4 -0.0096-5.466e-4 -0.01444 0-0.52284 0.058416-1.0457 0.1096-1.5736 0.15303-0.13082 0.010859-0.25874 0.017801-0.3898 0.027823-0.45864 0.03474-0.92541 0.071922-1.3859 0.097381-0.12692 0.00707-0.2628 0.00748-0.3898 0.013911-0.06583 0.0033-0.13627 0.010779-0.20212 0.013912-0.12702 0.00609-0.26274 0.00841-0.3898 0.013911-0.5269 0.022544-1.0475 0.041807-1.5736 0.055646-0.13154 0.00349-0.25839 0.010886-0.3898 0.013912-0.26748 0.00614-0.52728 0.00946-0.79403 0.013911-0.13709 5.542e-4 -0.28139-1.005e-4 -0.41867 0-0.0047 3e-6 -0.0097-1.5e-6 -0.01444 0-0.06628 4.05e-5 -0.1358 6.97e-5 -0.20212 0-0.0047-6e-6 -0.0097 6.7e-6 -0.01444 0-0.27949-3.27e-4 -0.5573 0.00245-0.83734 0-0.0047-4.35e-5 -0.0097 4.42e-5 -0.01444 0-0.13768-0.00128-0.28089-0.012064-0.41867-0.013911-0.14249-0.00186-0.29055 0.00249-0.43311 0-0.1426-0.00255-0.27603-0.010694-0.41867-0.013912-0.0048-1.08e-4 -0.0097 1.079e-4 -0.01444 0-0.07129-0.00158-0.13082 0.00175-0.20212 0-0.14265-0.00356-0.29046-0.00963-0.43311-0.013912-0.14265-0.00428-0.27606-0.00888-0.41867-0.013912-0.0048-1.672e-4 -0.0097 1.688e-4 -0.01444 0-0.13786-0.00488-0.28088-0.0083-0.41867-0.013911-0.20898-0.00839-0.42648-0.017689-0.63522-0.027823-0.0047-2.332e-4 -0.0097 2.339e-4 -0.01444 0-0.5645-0.027517-1.1277-0.069603-1.6891-0.11129-0.0047-3.539e-4 -0.0097 3.54e-4 -0.01444 0-0.41996-0.031279-0.83869-0.071098-1.256-0.11129-0.0047-4.545e-4 -0.0098 4.544e-4 -0.01444 0-0.28126-0.027163-0.55758-0.051934-0.83734-0.083469-0.06998-0.00793-0.13224-0.019609-0.20212-0.027822-0.10475-0.012251-0.2131-0.014924-0.31761-0.027824-0.31353-0.038698-0.62729-0.080424-0.9384-0.1252-0.1037-0.014927-0.21421-0.040017-0.31761-0.055646-0.13788-0.020839-0.26691-0.03353-0.40423-0.055646-0.06866-0.011059-0.1336-0.03035-0.20212-0.041735-0.03848-0.00639-0.07707-0.00742-0.1155-0.013911-0.03423-0.00579-0.06686-0.00804-0.10106-0.013911-0.06837-0.011713-0.1339-0.029688-0.20212-0.041734-0.03411-0.00602-0.06699-0.00781-0.10106-0.013912-0.06814-0.012214-0.13413-0.02918-0.20212-0.041734-0.03399-0.00628-0.0671-0.00755-0.10106-0.013912-0.06791-0.012725-0.13437-0.028664-0.20212-0.041735-0.27098-0.052282-0.54024-0.10897-0.80847-0.16694-0.06706-0.014492-0.13524-0.026878-0.20212-0.041734-0.06688-0.014857-0.13542-0.026509-0.20212-0.041735-0.03335-0.00761-0.06776-0.020116-0.10106-0.027822-0.08844-0.02355-0.18358-0.045132-0.2743-0.069558-0.04536-0.012213-0.08416-0.029265-0.12993-0.041734-0.09155-0.02494-0.18173-0.043441-0.2743-0.069558-0.04629-0.013059-0.09798-0.028344-0.14437-0.041734-0.04638-0.013391-0.08356-0.027987-0.12993-0.041735-0.046374-0.013748-0.09811-0.027605-0.14437-0.041734-0.04622-0.014125-0.098289-0.027192-0.14433-0.041729-0.069059-0.021806-0.13385-0.046764-0.20212-0.069558-0.04551-0.015195-0.084906-0.026068-0.12993-0.041734-0.022514-0.0078333-0.049812-0.019868-0.072185-0.027823-0.044745-0.01591-0.08583-0.025316-0.12993-0.041734-0.088203-0.032836-0.17486-0.076274-0.25986-0.11129-0.14875-0.061282-0.29773-0.12595-0.43311-0.19476-0.054151-0.027524-0.1073-0.05462-0.15881-0.083469-0.00366-0.00206-0.010792 0.00207-0.014436 0-0.029776-0.0168-0.043386-0.038381-0.072185-0.055646-0.0088714-0.0052889-0.020098-0.0085774-0.028874-0.013911-0.096685-0.058808-0.19036-0.11633-0.2743-0.18085-0.00762-0.00586-0.00693-0.00801-0.014436-0.013912-0.010523-0.00828-0.018583-0.019443-0.028875-0.027822-0.00739-0.00596-0.00717-0.00791-0.014436-0.013912-0.061152-0.050531-0.121-0.098809-0.17324-0.15303-0.00626-0.00642-0.00831-0.00743-0.014437-0.013911-0.010743-0.011352-0.018547-0.030216-0.028874-0.041734-0.00234-0.00264-0.012115 0.00264-0.014437 0-0.025814-0.029022-0.034666-0.053368-0.057747-0.083469-0.0053-0.00681-0.00928-0.00704-0.014436-0.013912-0.017539-0.023375-0.02749-0.045517-0.043311-0.069558-0.00471-0.00704-0.00988-0.00681-0.014437-0.013911-0.018249-0.028422-0.04199-0.054099-0.057747-0.083469-0.00394-0.00734-0.010657-0.020421-0.014437-0.027823-0.01323-0.025909-0.017648-0.056811-0.028874-0.083468-0.00481-0.011425-0.010003-0.016259-0.014437-0.027823-0.00205-0.010717 0.00159-0.031104 0-0.041735-0.00159-0.01063-0.013302-0.017278-0.014437-0.027823-0.00151-0.014059 7.194e-4 -0.027827 0-0.041735-3.618e-4 -0.00696 1.675e-4 -0.00699 0-0.013911-1.634e-4 -0.00692-2.97e-5 -0.020945 0-0.027823 2.7e-5 -0.00688-2.172e-4 -0.00707 0-0.013911 4.444e-4 -0.013681-0.0012-0.028204 0-0.041735 5.95e-4 -0.00677-7.803e-4 -0.00718 0-0.013911 0.00118-0.010091 0.012845-0.017816 0.014437-0.027823 0.00159-0.010007-2e-3 -0.031811 0-0.041734 0.00133-0.00662-0.0015-0.00733 0-0.013911 0.00151-0.00658 0.012749-0.021281 0.014437-0.027823 0.00168-0.00655-0.00185-0.0074 0-0.013911 0.00186-0.00651-0.00204-0.00744 0-0.013912 0.0081-0.025902 0.018088-0.058148 0.028874-0.083469 0.00271-0.00632 0.011567-0.00763 0.014437-0.013911 0.0043-0.00943 0.00977-0.018477 0.014436-0.027823 0.00467-0.00935 0.00942-0.01856 0.014437-0.027823 0.00502-0.00926 0.00907-0.018641 0.014437-0.027823 0.00179-0.00306-0.00183-0.01086 0-0.013912 0.00729-0.012228 0.020985-0.029648 0.028874-0.041734 0.011873-0.018095 0.015688-0.023961 0.028874-0.041734 0.0044-0.00592 0.0099-0.021934 0.014437-0.027823 0.00452-0.0059 0.00977-0.00805 0.014436-0.013912 0.00468-0.00585 0.00962-0.00809 0.014437-0.013911 0.0096-0.011662 0.018733-0.030213 0.028874-0.041734 0.00712-0.00805 0.021495-0.00593 0.028874-0.013912 0.010406-0.011451 0.017952-0.016511 0.028874-0.027823 0.00548-0.00564 0.00883-0.022215 0.014437-0.027823 0.011174-0.011243 0.017205-0.016719 0.028874-0.027823 0.00585-0.00554 0.00846-0.00841 0.014436-0.013912 0.011911-0.011035 0.030929-0.030837 0.043311-0.041734 0.00621-0.00543 0.00811-0.00851 0.014437-0.013912 0.018916-0.016244 0.037831-0.025798 0.057747-0.041734 0.00666-0.0053 0.02211-0.00865 0.028874-0.013911 0.026985-0.021113 0.04356-0.048986 0.072185-0.069558 0.021523-0.015382 0.049799-0.026655 0.072185-0.041734 0.022331-0.015127 0.049043-0.026907 0.072185-0.041734 0.015465-0.00985 0.027505-0.018102 0.043311-0.027823 0.081183-0.050501 0.15633-0.10602 0.24543-0.15303 0.06898-0.036394 0.14395-0.063035 0.21655-0.097381 0.054452-0.025759 0.1028-0.058844 0.15881-0.083469 0.03734-0.016417 0.077617-0.025815 0.11549-0.041734 0.01894-0.00796 0.038697-0.019987 0.057748-0.027823 0.038102-0.015671 0.077039-0.026553 0.11549-0.041734 0.019228-0.00759 0.038453-0.020354 0.057747-0.027823 0.03859-0.014937 0.076734-0.027281 0.11549-0.041734 0.038762-0.014454 0.076686-0.02776 0.1155-0.041735 0.03881-0.013975 0.076758-0.028233 0.11549-0.041734 0.038737-0.013501 0.076954-0.028702 0.11549-0.041734 0.019284-0.00651 0.038538-0.00752 0.057749-0.013912 0.038398-0.012799 0.077475-0.029398 0.11549-0.041735 0.057029-0.018505 0.11741-0.038167 0.17324-0.055646 0.02103-0.00606 0.036752-0.00794 0.057748-0.013911 0.062987-0.017904 0.12467-0.038346 0.18768-0.055646 0.0042-0.00115 0.01023 0.00115 0.01444 0 0.07984-0.021876 0.16458-0.04807 0.24543-0.069558-2.9374 0.34127-4.7353 0.90968-4.7353 1.9198 4e-7 0.19671 0 3.2951 0 3.4918 4e-7 2.1338 8.005 3.8674 17.873 3.8674s17.873-1.7336 17.873-3.8674v-3.4918c0-1.0319-1.8735-1.6145-4.923-1.9615z" style="fill-rule:evenodd;fill:url(#linearGradient2495);stroke-width:0"/>
  <path id="path18219" d="m23.035 0.14522c-0.5835 0.003164-1.1659 0.015698-1.7469 0.027823-4.3497 0.15471-8.8145 0.50343-12.777 1.7528-1.3149 0.45068-2.9939 1.1762-2.8008 2.2815 0.41769 1.1927 2.3647 1.7704 3.9268 2.2258 4.7053 1.1922 9.8455 1.455 14.856 1.4329 4.6294-0.084554 9.3777-0.39054 13.657-1.6137 1.4077-0.45216 3.1888-1.0942 3.2916-2.2398 1.8e-4 -0.13372-0.026353-0.27562-0.086624-0.40343-0.68456-1.1573-2.6314-1.6829-4.2733-2.1285-4.4825-1.0563-9.2957-1.3613-14.047-1.3355zm-0.85178 0.61211c4.5961-0.061149 9.283 0.16378 13.628 1.099 1.4873 0.3686 3.249 0.80929 3.8691 1.7668 0.05459 0.10574 0.08678 0.20933 0.08662 0.31996-0.09312 0.94777-1.7133 1.4761-2.9884 1.8502-3.8766 1.012-8.179 1.2795-12.372 1.3494-4.5383 0.018333-9.193-0.20997-13.455-1.1964-1.415-0.3768-3.1731-0.84951-3.5515-1.8363-0.17497-0.91447 1.3354-1.5191 2.5265-1.892 3.5891-1.0337 7.6383-1.3188 11.578-1.4468 0.22556-0.0043 0.45249-0.010904 0.67853-0.013912z" style="fill-rule:evenodd;fill:#d9dcd5;stroke-linecap:round;stroke-linejoin:round;stroke-width:.18748;stroke:url(#linearGradient2492)"/>
  <path id="path7867" d="m23.035 0.14522c-0.5835 0.003164-1.1659 0.015698-1.7469 0.027823-4.3497 0.15471-8.8145 0.50343-12.777 1.7528-1.3149 0.45068-2.9939 1.1762-2.8008 2.2815 0.41769 1.1927 2.3647 1.7704 3.9268 2.2258 4.7053 1.1922 9.8455 1.455 14.856 1.4329 4.6294-0.084554 9.3777-0.39054 13.657-1.6137 1.4077-0.45217 3.1888-1.0942 3.2916-2.2398 1.81e-4 -0.13372-0.026352-0.27562-0.086623-0.40343-0.68457-1.1573-2.6314-1.6829-4.2733-2.1285-4.4825-1.0563-9.2957-1.3613-14.047-1.3355zm-0.85178 0.61211c4.5961-0.061149 9.283 0.16378 13.628 1.099 1.4873 0.3686 3.249 0.80929 3.8691 1.7668 0.05459 0.10574 0.08678 0.20933 0.08662 0.31996-0.09312 0.94777-1.7133 1.4761-2.9884 1.8502-3.8766 1.012-8.1789 1.2795-12.372 1.3494-4.5383 0.018334-9.193-0.20997-13.455-1.1964-1.415-0.3768-3.1731-0.84951-3.5515-1.8363-0.17497-0.91447 1.3354-1.5191 2.5265-1.892 3.5891-1.0337 7.6383-1.3188 11.578-1.4468 0.22556-0.0043 0.4525-0.010904 0.67853-0.013912z" style="fill-rule:evenodd;fill:url(#linearGradient2489)"/>
 </g>
</svg>
