<?xml version="1.0" encoding="UTF-8"?>
<!-- Created with Inkscape (http://www.inkscape.org/) -->
<svg id="svg2541" width="48" height="48" version="1.1" xmlns="http://www.w3.org/2000/svg" xmlns:xlink="http://www.w3.org/1999/xlink">
 <defs id="defs2543">
  <linearGradient id="linearGradient14689" x1="92.005" x2="55.992" y1="47.259" y2="10.9" gradientTransform="matrix(.50094 0 0 .50094 -.57317 -.060288)" gradientUnits="userSpaceOnUse" spreadMethod="reflect" xlink:href="#linearGradient2793"/>
  <linearGradient id="linearGradient2857" x1="63.999" x2="63.999" y1="6.4738" y2="31.226" gradientTransform="matrix(1.1456 0 0 1.1456 -9.319 -13.992)" gradientUnits="userSpaceOnUse">
   <stop id="stop4304" style="stop-color:#c0c0c0" offset="0"/>
   <stop id="stop4306" style="stop-color:#abacb0" offset="1"/>
  </linearGradient>
  <linearGradient id="linearGradient3961" x1="32.627" x2="64" y1="37.217" y2="37.217" gradientTransform="matrix(.59765 0 0 .53965 -6.7617 -4.7543)" gradientUnits="userSpaceOnUse" spreadMethod="reflect" xlink:href="#linearGradient2793"/>
  <linearGradient id="linearGradient13703" x1="97.718" x2="62.373" y1="17.834" y2="17.834" gradientTransform="matrix(.61605 0 0 .59363 -7.9395 -5.9436)" gradientUnits="userSpaceOnUse" spreadMethod="reflect" xlink:href="#linearGradient2793"/>
  <linearGradient id="linearGradient2944" x1="29.233" x2="29.233" y1="1.2616" y2="57.746" gradientTransform="matrix(1.0445 0 0 1.0445 .90581 -.69994)" gradientUnits="userSpaceOnUse">
   <stop id="stop4296" style="stop-color:#e6e7e7" offset="0"/>
   <stop id="stop4298" style="stop-color:#676b73" offset="1"/>
  </linearGradient>
  <linearGradient id="linearGradient2942" x1="4.885" x2="35.515" y1="38.13" y2="39.751" gradientTransform="matrix(1.2636 0 0 1.4786 5.8087 -19.347)" gradientUnits="userSpaceOnUse">
   <stop id="stop3317" style="stop-color:#f8f8f8;stop-opacity:.15464" offset="0"/>
   <stop id="stop3322" style="stop-color:#b0b2b6;stop-opacity:.17526" offset=".49817"/>
   <stop id="stop3319" style="stop-color:#5b5e62;stop-opacity:.3299" offset=".83784"/>
   <stop id="stop2342" style="stop-color:#fff;stop-opacity:.15464" offset="1"/>
  </linearGradient>
  <linearGradient id="linearGradient16586" x1="25.633" x2="38.714" y1="10.612" y2="18.39" gradientTransform="matrix(-1 0 0 1 -164.71 28.239)" gradientUnits="userSpaceOnUse" xlink:href="#linearGradient5176"/>
  <linearGradient id="linearGradient16584" x1="24.366" x2="32.601" y1="20.246" y2="28.555" gradientTransform="matrix(-1 0 0 1 -164.71 28.239)" gradientUnits="userSpaceOnUse" xlink:href="#linearGradient5162"/>
  <linearGradient id="linearGradient16582" x1="22.009" x2="23.585" y1="36.51" y2="14.412" gradientTransform="matrix(-1 0 0 1 -164.71 28.239)" gradientUnits="userSpaceOnUse" xlink:href="#linearGradient5162"/>
  <radialGradient id="radialGradient16580" cx="20.09" cy="10.854" r="22.597" gradientTransform="matrix(-1.7903 0 0 1.7693 -148.9 16.29)" gradientUnits="userSpaceOnUse" xlink:href="#linearGradient5196"/>
  <radialGradient id="radialGradient16578" cx="23.688" cy="14.211" r="22.597" gradientTransform="matrix(-2.1357 0 0 2.1106 -137.81 12.57)" gradientUnits="userSpaceOnUse" xlink:href="#linearGradient5188"/>
  <linearGradient id="linearGradient16556" x1="25.633" x2="38.714" y1="10.612" y2="18.39" gradientTransform="matrix(-.50094 0 0 .50094 127.8 34.543)" gradientUnits="userSpaceOnUse" xlink:href="#linearGradient5176"/>
  <linearGradient id="linearGradient16554" x1="24.366" x2="32.601" y1="20.246" y2="28.555" gradientTransform="matrix(-.50094 0 0 .50094 127.8 34.543)" gradientUnits="userSpaceOnUse" xlink:href="#linearGradient5162"/>
  <linearGradient id="linearGradient16552" x1="22.009" x2="23.585" y1="36.51" y2="14.412" gradientTransform="matrix(-.50094 0 0 .50094 127.8 34.543)" gradientUnits="userSpaceOnUse" xlink:href="#linearGradient5162"/>
  <radialGradient id="radialGradient16550" cx="20.09" cy="10.854" r="22.597" gradientTransform="matrix(-.89682 0 0 .8863 135.72 28.557)" gradientUnits="userSpaceOnUse" xlink:href="#linearGradient5196"/>
  <radialGradient id="radialGradient16548" cx="23.688" cy="14.211" r="22.597" gradientTransform="matrix(-1.0698 0 0 1.0573 141.27 26.694)" gradientUnits="userSpaceOnUse" xlink:href="#linearGradient5188"/>
  <radialGradient id="radialGradient16546" cx="24.837" cy="40.664" r="21.478" gradientTransform="matrix(1 0 0 .3251 0 27.444)" gradientUnits="userSpaceOnUse" xlink:href="#linearGradient5176"/>
  <linearGradient id="linearGradient5176">
   <stop id="stop5178" offset="0"/>
   <stop id="stop5180" style="stop-opacity:0" offset="1"/>
  </linearGradient>
  <linearGradient id="linearGradient16532" x1="73.374" x2="89.456" y1="82.789" y2="82.789" gradientTransform="matrix(.51208 0 0 .49005 90.554 .024085)" gradientUnits="userSpaceOnUse" xlink:href="#linearGradient2793"/>
  <linearGradient id="linearGradient16530" x1="24.366" x2="32.601" y1="20.246" y2="28.555" gradientTransform="matrix(.50094 0 0 .50094 116.97 34.748)" gradientUnits="userSpaceOnUse" xlink:href="#linearGradient5162"/>
  <linearGradient id="linearGradient5162">
   <stop id="stop5164" style="stop-color:#babdb6" offset="0"/>
   <stop id="stop5166" style="stop-color:#fff" offset="1"/>
  </linearGradient>
  <linearGradient id="linearGradient16528" x1="22.009" x2="23.585" y1="36.51" y2="14.412" gradientTransform="matrix(.50094 0 0 .50094 116.97 34.748)" gradientUnits="userSpaceOnUse" xlink:href="#linearGradient5162"/>
  <linearGradient id="linearGradient5196">
   <stop id="stop5198" style="stop-color:#dfe2dc" offset="0"/>
   <stop id="stop5200" style="stop-color:#86917a" offset="1"/>
  </linearGradient>
  <radialGradient id="radialGradient16526" cx="20.09" cy="10.854" r="22.597" gradientTransform="matrix(.89682 0 0 .8863 109.05 28.761)" gradientUnits="userSpaceOnUse" xlink:href="#linearGradient5196"/>
  <linearGradient id="linearGradient5188">
   <stop id="stop5190" style="stop-color:#fff" offset="0"/>
   <stop id="stop5192" style="stop-color:#aeaea3" offset="1"/>
  </linearGradient>
  <radialGradient id="radialGradient16524" cx="23.688" cy="14.211" r="22.597" gradientTransform="matrix(1.0698 0 0 1.0573 103.49 26.898)" gradientUnits="userSpaceOnUse" xlink:href="#linearGradient5188"/>
  <linearGradient id="linearGradient2793">
   <stop id="stop2795" style="stop-color:#555753" offset="0"/>
   <stop id="stop2797" style="stop-color:#d3d7cf;stop-opacity:0" offset="1"/>
  </linearGradient>
  <linearGradient id="linearGradient2781" x1="27.405" x2="37.462" y1="52.355" y2="68.298" gradientUnits="userSpaceOnUse" spreadMethod="reflect" xlink:href="#linearGradient2793"/>
  <radialGradient id="radialGradient2773" cx="62.712" cy="108.02" r="47.383" gradientTransform="matrix(.46585 0 0 .12995 2.7852 42.535)" gradientUnits="userSpaceOnUse">
   <stop id="stop5062" offset="0"/>
   <stop id="stop5064" style="stop-opacity:0" offset="1"/>
  </radialGradient>
 </defs>
 <g id="layer1" transform="translate(0 1)">
  <g id="g2519" transform="matrix(.74507 0 0 .74507 .1111 .1111)">
   <path id="path12941" d="m54.073 56.573a22.073 6.1572 0 0 1-44.146 0 22.073 6.1572 0 1 1 44.146 0z" style="color:#000000;fill-rule:evenodd;fill:url(#radialGradient2773)"/>
   <path id="path5870" transform="matrix(1.1278 0 0 1.0058 -2.4096 1.4161)" d="m46.332 53.131a16.276 4.2702 0 1 1-32.552 0 16.276 4.2702 0 1 1 32.552 0z" style="color:#000000;fill-rule:evenodd;fill:#d9dcd5;stroke-linecap:round;stroke-linejoin:round;stroke-width:.47033;stroke:#838383"/>
   <path id="path3037" transform="matrix(1.1278 0 0 1.0058 -2.4096 1.4161)" d="m46.332 53.131a16.276 4.2702 0 1 1-32.552 0 16.276 4.2702 0 1 1 32.552 0z" style="color:#000000;fill-rule:evenodd;fill:url(#linearGradient2781);opacity:.5"/>
   <g id="g16471" transform="translate(-90.693 -.73584)">
    <path id="path4275" transform="matrix(.55454 0 0 .55454 115.28 32.037)" d="m46.315 40.664a21.478 6.9827 0 1 1-42.957 0 21.478 6.9827 0 1 1 42.957 0z" style="color:#000000;fill-rule:evenodd;fill:url(#radialGradient16546);opacity:.32584"/>
    <path id="path4273" d="m121.49 53.568-0.88555 1.4169 1.8597 0.79699 1.3283-1.0627 5.9332 0.44277 1.8596 2.4795 1.6825-2.7452 2.1253 1.1512 2.8338-0.35422-0.70844-1.5054 1.9482-1.9482-2.7452-3.0994 2.6566 0.35422 1.1512-1.0627-1.5054 0.26566-1.594-2.7452-2.3024-0.53133 1.8597-0.61988 0.0885-1.594-3.6308-3.188-1.3283-4.2506-6.0217 1.7711-1.5054 3.5422-0.53133-1.1512-1.5054 0.08855v1.4169l-1.7711-2.0368-2.391 2.5681v3.6308l4.1621 3.6308-2.6566 1.5054 0.0886 1.5054 1.5054 1.3283z" style="color:#000000;fill-rule:evenodd;fill:url(#radialGradient16524);stroke-width:.50094;stroke:url(#radialGradient16526)"/>
    <path id="path5158" d="m126.71 46.129-0.44278 3.2765 1.0627 1.6825-2.3024 0.70844-1.3283 2.6566 6.0217 0.44277 1.4169 2.0368 1.1512-3.0994-2.2139-1.4169-3.3651 0.9741 1.3283-1.7711-0.70844-3.0994-0.61988-2.391z" style="color:#000000;fill-rule:evenodd;fill:url(#linearGradient16528);opacity:.76966"/>
    <path id="path5160" d="m127.24 46.661 2.2139 3.4536 3.6308-2.4795 2.2139 1.2398 1.7711-1.5054 1.594 1.4169-1.5054-2.4795-3.4536-0.79699-4.3392-2.1253s-6.1988 1.8597-5.8446 1.8597c0.35421 0 5.1362 0.08855 5.1362 0.08855l0.79699-1.1512 2.1253 0.9741-4.3392 1.5054z" style="color:#000000;fill-rule:evenodd;fill:url(#linearGradient16530);opacity:.61798"/>
    <path id="path5172" d="m131.76 36.477-5.2247 1.7711-0.70844 1.9482 3.0109 2.1253 2.8338-2.7452 0.0886-3.0994z" style="color:#000000;fill-rule:evenodd;fill:#fff"/>
    <path id="path5174" d="m131.85 36.654 1.1512 3.7193 2.1253 1.8597-4.3392-0.9741s-1.2398 1.4169-0.70843 1.4169c0.53132 0 6.2874 0.70844 6.2874 0.70844l-0.0885 1.1512-8.147-1.5054 3.5422-3.2765 0.17711-3.0994z" style="color:#000000;fill-rule:evenodd;fill:url(#linearGradient16532);opacity:.13483"/>
    <path id="path5184" d="m120.69 41.879-0.44277 4.4277 0.9741-3.0109 2.5681 0.79699 0.61988-1.3283 3.0994 0.44277 0.70843-0.61988-4.5163-0.17711-0.44278 1.2398-1.9482-0.9741-0.61988-0.79699z" style="color:#000000;fill-rule:evenodd;fill:#fff"/>
    <path id="path5186" d="m128.22 48.432 1.5054 1.7711 3.4536-2.3024 2.1253 1.1512 3.4536 3.2765-3.8079-2.9223-1.8596-0.53133-3.6308 2.4795-1.2398-2.9223z" style="color:#000000;fill-rule:evenodd;fill:#fff"/>
    <path id="path2423" transform="matrix(-.55454 0 0 .55454 134.44 32.718)" d="m46.315 40.664a21.478 6.9827 0 1 1-42.957 0 21.478 6.9827 0 1 1 42.957 0z" style="color:#000000;fill-rule:evenodd;fill:url(#radialGradient16546);opacity:.32584"/>
    <g id="g2507" transform="matrix(-.50094 0 0 .50094 18.542 6.4016)">
     <path id="path2425" d="m-173.73 65.81 1.7678 2.8284-3.7123 1.591-2.6516-2.1213-11.844 0.88388-3.7123 4.9497-3.3588-5.4801-4.2426 2.2981-5.6568-0.70711 1.4142-3.0052-3.8891-3.8891 5.4801-6.1872-5.3033 0.70711-2.2981-2.1213 3.0052 0.53033 3.182-5.4801 4.5962-1.0607-3.7123-1.2374-0.17678-3.182 7.2478-6.364 2.6516-8.4853 12.021 3.5355 3.0052 7.0711 1.0607-2.2981 3.0052 0.17678v2.8284l3.5355-4.0659 4.773 5.1265v7.2478l-8.3085 7.2478 5.3033 3.0052-0.17678 3.0052-3.0052 2.6517z" style="color:#000000;fill-rule:evenodd;fill:url(#radialGradient16578);stroke:url(#radialGradient16580)"/>
     <path id="path2427" d="m-184.16 50.96 0.88389 6.5407-2.1213 3.3588 4.5962 1.4142 2.6516 5.3033-12.021 0.88388-2.8284 4.0659-2.2981-6.1872 4.4194-2.8284 6.7175 1.9445-2.6516-3.5355 1.4142-6.1872 1.2374-4.773z" style="color:#000000;fill-rule:evenodd;fill:url(#linearGradient16582);opacity:.76966"/>
     <path id="path2429" d="m-185.22 52.021-4.4194 6.8943-7.2478-4.9497-4.4194 2.4749-3.5355-3.0052-3.182 2.8284 3.0052-4.9497 6.8943-1.591 8.662-4.2426s12.374 3.7123 11.667 3.7123c-0.7071 0-10.253 0.17678-10.253 0.17678l-1.591-2.2981-4.2426 1.9445 8.662 3.0052z" style="color:#000000;fill-rule:evenodd;fill:url(#linearGradient16584);opacity:.61798"/>
     <path id="path2431" d="m-194.23 31.692 10.43 3.5355 1.4142 3.8891-6.0104 4.2426-5.6568-5.4801-0.17678-6.1872z" style="color:#000000;fill-rule:evenodd;fill:#fff"/>
     <path id="path2433" d="m-194.41 32.045-2.2981 7.4246-4.2426 3.7123 8.6621-1.9445s2.4749 2.8284 1.4142 2.8284-12.551 1.4142-12.551 1.4142l0.17677 2.2981 16.263-3.0052-7.0711-6.5407-0.35355-6.1872z" style="color:#000000;fill-rule:evenodd;fill:url(#linearGradient16586);opacity:.13483"/>
     <path id="path2435" d="m-172.14 42.475 0.88388 8.8388-1.9445-6.0104-5.1265 1.591-1.2374-2.6517-6.1872 0.88388-1.4142-1.2374 9.0156-0.35355 0.88388 2.4749 3.8891-1.9445 1.2374-1.591z" style="color:#000000;fill-rule:evenodd;fill:#fff"/>
     <path id="path2437" d="m-187.16 55.557-3.0052 3.5355-6.8943-4.5962-4.2426 2.2981-6.8943 6.5407 7.6014-5.8336 3.7123-1.0607 7.2478 4.9497 2.4749-5.8336z" style="color:#000000;fill-rule:evenodd;fill:#fff"/>
    </g>
    <path id="path2479" transform="matrix(-.55454 0 0 .55454 129.48 31.832)" d="m46.315 40.664a21.478 6.9827 0 1 1-42.957 0 21.478 6.9827 0 1 1 42.957 0z" style="color:#000000;fill-rule:evenodd;fill:url(#radialGradient16546);opacity:.32584"/>
    <path id="path2481" d="m123.28 53.363 0.88556 1.4169-1.8597 0.79699-1.3283-1.0627-5.9332 0.44277-1.8596 2.4795-1.6825-2.7452-2.1253 1.1512-2.8338-0.35422 0.70843-1.5054-1.9482-1.9482 2.7452-3.0994-2.6566 0.35422-1.1512-1.0627 1.5054 0.26566 1.594-2.7452 2.3024-0.53133-1.8597-0.61988-0.0886-1.594 3.6308-3.188 1.3283-4.2506 6.0217 1.7711 1.5054 3.5422 0.53133-1.1512 1.5054 0.08855v1.4169l1.7711-2.0368 2.391 2.5681v3.6307l-4.1621 3.6308 2.6566 1.5054-0.0885 1.5054-1.5054 1.3283z" style="color:#000000;fill-rule:evenodd;fill:url(#radialGradient16548);stroke-width:.50094;stroke:url(#radialGradient16550)"/>
    <path id="path2483" d="m118.06 45.925 0.44278 3.2765-1.0627 1.6825 2.3024 0.70844 1.3283 2.6567-6.0217 0.44277-1.4169 2.0368-1.1512-3.0994 2.2139-1.4169 3.3651 0.97411-1.3283-1.7711 0.70844-3.0994 0.61988-2.391z" style="color:#000000;fill-rule:evenodd;fill:url(#linearGradient16552);opacity:.76966"/>
    <path id="path2485" d="m117.53 46.456-2.2139 3.4536-3.6308-2.4795-2.2139 1.2398-1.7711-1.5054-1.594 1.4169 1.5054-2.4795 3.4536-0.79699 4.3392-2.1253s6.1988 1.8597 5.8446 1.8597-5.1362 0.08855-5.1362 0.08855l-0.79699-1.1512-2.1253 0.9741 4.3392 1.5054z" style="color:#000000;fill-rule:evenodd;fill:url(#linearGradient16554);opacity:.61798"/>
    <path id="path2487" d="m113.01 36.272 5.2247 1.7711 0.70844 1.9482-3.0109 2.1253-2.8338-2.7452-0.0885-3.0994z" style="color:#000000;fill-rule:evenodd;fill:#fff"/>
    <path id="path2489" d="m112.92 36.449-1.1512 3.7193-2.1253 1.8597 4.3392-0.9741s1.2398 1.4169 0.70844 1.4169-6.2874 0.70844-6.2874 0.70844l0.0885 1.1512 8.147-1.5054-3.5422-3.2765-0.1771-3.0994z" style="color:#000000;fill-rule:evenodd;fill:url(#linearGradient16556);opacity:.13483"/>
    <path id="path2491" d="m124.08 41.674 0.44277 4.4277-0.9741-3.0109-2.5681 0.79699-0.61989-1.3283-3.0994 0.44277-0.70844-0.61988 4.5163-0.17711 0.44277 1.2398 1.9482-0.9741 0.61989-0.79699z" style="color:#000000;fill-rule:evenodd;fill:#fff"/>
    <path id="path2493" d="m116.55 48.227-1.5054 1.7711-3.4536-2.3024-2.1253 1.1512-3.4536 3.2765 3.8078-2.9223 1.8597-0.53133 3.6308 2.4795 1.2398-2.9223z" style="color:#000000;fill-rule:evenodd;fill:#fff"/>
    <g id="g2586" transform="matrix(0 -.50094 -.50094 0 143.56 -60.068)">
     <path id="path2588" d="m-173.73 65.81 1.7678 2.8284-3.7123 1.591-2.6516-2.1213-11.844 0.88388-3.7123 4.9497-3.3588-5.4801-4.2426 2.2981-5.6568-0.70711 1.4142-3.0052-3.8891-3.8891 5.4801-6.1872-5.3033 0.70711-2.2981-2.1213 3.0052 0.53033 3.182-5.4801 4.5962-1.0607-3.7123-1.2374-0.17678-3.182 7.2478-6.364 2.6516-8.4853 12.021 3.5355 3.0052 7.0711 1.0607-2.2981 3.0052 0.17678v2.8284l3.5355-4.0659 4.773 5.1265v7.2478l-8.3085 7.2478 5.3033 3.0052-0.17678 3.0052-3.0052 2.6517z" style="color:#000000;fill-rule:evenodd;fill:url(#radialGradient16578);stroke:url(#radialGradient16580)"/>
     <path id="path2590" d="m-184.16 50.96 0.88389 6.5407-2.1213 3.3588 4.5962 1.4142 2.6516 5.3033-12.021 0.88388-2.8284 4.0659-2.2981-6.1872 4.4194-2.8284 6.7175 1.9445-2.6516-3.5355 1.4142-6.1872 1.2374-4.773z" style="color:#000000;fill-rule:evenodd;fill:url(#linearGradient16582);opacity:.76966"/>
     <path id="path2592" d="m-185.22 52.021-4.4194 6.8943-7.2478-4.9497-4.4194 2.4749-3.5355-3.0052-3.182 2.8284 3.0052-4.9497 6.8943-1.591 8.662-4.2426s12.374 3.7123 11.667 3.7123c-0.7071 0-10.253 0.17678-10.253 0.17678l-1.591-2.2981-4.2426 1.9445 8.662 3.0052z" style="color:#000000;fill-rule:evenodd;fill:url(#linearGradient16584);opacity:.61798"/>
     <path id="path2594" d="m-194.23 31.692 10.43 3.5355 1.4142 3.8891-6.0104 4.2426-5.6568-5.4801-0.17678-6.1872z" style="color:#000000;fill-rule:evenodd;fill:#fff"/>
     <path id="path2596" d="m-194.41 32.045-2.2981 7.4246-4.2426 3.7123 8.6621-1.9445s2.4749 2.8284 1.4142 2.8284-12.551 1.4142-12.551 1.4142l0.17677 2.2981 16.263-3.0052-7.0711-6.5407-0.35355-6.1872z" style="color:#000000;fill-rule:evenodd;fill:url(#linearGradient16586);opacity:.13483"/>
     <path id="path2598" d="m-172.14 42.475 0.88388 8.8388-1.9445-6.0104-5.1265 1.591-1.2374-2.6517-6.1872 0.88388-1.4142-1.2374 9.0156-0.35355 0.88388 2.4749 3.8891-1.9445 1.2374-1.591z" style="color:#000000;fill-rule:evenodd;fill:#fff"/>
     <path id="path2600" d="m-187.16 55.557-3.0052 3.5355-6.8943-4.5962-4.2426 2.2981-6.8943 6.5407 7.6014-5.8336 3.7123-1.0607 7.2478 4.9497 2.4749-5.8336z" style="color:#000000;fill-rule:evenodd;fill:#fff"/>
    </g>
    <g id="g2552" transform="matrix(.50094 0 0 .50094 226.25 6.2244)">
     <path id="path2554" d="m-173.73 65.81 1.7678 2.8284-3.7123 1.591-2.6516-2.1213-11.844 0.88388-3.7123 4.9497-3.3588-5.4801-4.2426 2.2981-5.6568-0.70711 1.4142-3.0052-3.8891-3.8891 5.4801-6.1872-5.3033 0.70711-2.2981-2.1213 3.0052 0.53033 3.182-5.4801 4.5962-1.0607-3.7123-1.2374-0.17678-3.182 7.2478-6.364 2.6516-8.4853 12.021 3.5355 3.0052 7.0711 1.0607-2.2981 3.0052 0.17678v2.8284l3.5355-4.0659 4.773 5.1265v7.2478l-8.3085 7.2478 5.3033 3.0052-0.17678 3.0052-3.0052 2.6517z" style="color:#000000;fill-rule:evenodd;fill:url(#radialGradient16578);stroke:url(#radialGradient16580)"/>
     <path id="path2556" d="m-184.16 50.96 0.88389 6.5407-2.1213 3.3588 4.5962 1.4142 2.6516 5.3033-12.021 0.88388-2.8284 4.0659-2.2981-6.1872 4.4194-2.8284 6.7175 1.9445-2.6516-3.5355 1.4142-6.1872 1.2374-4.773z" style="color:#000000;fill-rule:evenodd;fill:url(#linearGradient16582);opacity:.76966"/>
     <path id="path2558" d="m-185.22 52.021-4.4194 6.8943-7.2478-4.9497-4.4194 2.4749-3.5355-3.0052-3.182 2.8284 3.0052-4.9497 6.8943-1.591 8.662-4.2426s12.374 3.7123 11.667 3.7123c-0.7071 0-10.253 0.17678-10.253 0.17678l-1.591-2.2981-4.2426 1.9445 8.662 3.0052z" style="color:#000000;fill-rule:evenodd;fill:url(#linearGradient16584);opacity:.61798"/>
     <path id="path2560" d="m-194.23 31.692 10.43 3.5355 1.4142 3.8891-6.0104 4.2426-5.6568-5.4801-0.17678-6.1872z" style="color:#000000;fill-rule:evenodd;fill:#fff"/>
     <path id="path2562" d="m-194.41 32.045-2.2981 7.4246-4.2426 3.7123 8.6621-1.9445s2.4749 2.8284 1.4142 2.8284-12.551 1.4142-12.551 1.4142l0.17677 2.2981 16.263-3.0052-7.0711-6.5407-0.35355-6.1872z" style="color:#000000;fill-rule:evenodd;fill:url(#linearGradient16586);opacity:.13483"/>
     <path id="path2564" d="m-172.14 42.475 0.88388 8.8388-1.9445-6.0104-5.1265 1.591-1.2374-2.6517-6.1872 0.88388-1.4142-1.2374 9.0156-0.35355 0.88388 2.4749 3.8891-1.9445 1.2374-1.591z" style="color:#000000;fill-rule:evenodd;fill:#fff"/>
     <path id="path2566" d="m-187.16 55.557-3.0052 3.5355-6.8943-4.5962-4.2426 2.2981-6.8943 6.5407 7.6014-5.8336 3.7123-1.0607 7.2478 4.9497 2.4749-5.8336z" style="color:#000000;fill-rule:evenodd;fill:#fff"/>
    </g>
    <g id="g2526" transform="matrix(0 .50094 .50094 0 97.571 143.1)">
     <path id="path2528" d="m-173.73 65.81 1.7678 2.8284-3.7123 1.591-2.6516-2.1213-11.844 0.88388-3.7123 4.9497-3.3588-5.4801-4.2426 2.2981-5.6568-0.70711 1.4142-3.0052-3.8891-3.8891 5.4801-6.1872-5.3033 0.70711-2.2981-2.1213 3.0052 0.53033 3.182-5.4801 4.5962-1.0607-3.7123-1.2374-0.17678-3.182 7.2478-6.364 2.6516-8.4853 12.021 3.5355 3.0052 7.0711 1.0607-2.2981 3.0052 0.17678v2.8284l3.5355-4.0659 4.773 5.1265v7.2478l-8.3085 7.2478 5.3033 3.0052-0.17678 3.0052-3.0052 2.6517z" style="color:#000000;fill-rule:evenodd;fill:url(#radialGradient16578);stroke:url(#radialGradient16580)"/>
     <path id="path2530" d="m-184.16 50.96 0.88389 6.5407-2.1213 3.3588 4.5962 1.4142 2.6516 5.3033-12.021 0.88388-2.8284 4.0659-2.2981-6.1872 4.4194-2.8284 6.7175 1.9445-2.6516-3.5355 1.4142-6.1872 1.2374-4.773z" style="color:#000000;fill-rule:evenodd;fill:url(#linearGradient16582);opacity:.76966"/>
     <path id="path2532" d="m-185.22 52.021-4.4194 6.8943-7.2478-4.9497-4.4194 2.4749-3.5355-3.0052-3.182 2.8284 3.0052-4.9497 6.8943-1.591 8.662-4.2426s12.374 3.7123 11.667 3.7123c-0.7071 0-10.253 0.17678-10.253 0.17678l-1.591-2.2981-4.2426 1.9445 8.662 3.0052z" style="color:#000000;fill-rule:evenodd;fill:url(#linearGradient16584);opacity:.61798"/>
     <path id="path2534" d="m-194.23 31.692 10.43 3.5355 1.4142 3.8891-6.0104 4.2426-5.6568-5.4801-0.17678-6.1872z" style="color:#000000;fill-rule:evenodd;fill:#fff"/>
     <path id="path2536" d="m-194.41 32.045-2.2981 7.4246-4.2426 3.7123 8.6621-1.9445s2.4749 2.8284 1.4142 2.8284-12.551 1.4142-12.551 1.4142l0.17677 2.2981 16.263-3.0052-7.0711-6.5407-0.35355-6.1872z" style="color:#000000;fill-rule:evenodd;fill:url(#linearGradient16586);opacity:.13483"/>
     <path id="path2538" d="m-172.14 42.475 0.88388 8.8388-1.9445-6.0104-5.1265 1.591-1.2374-2.6517-6.1872 0.88388-1.4142-1.2374 9.0156-0.35355 0.88388 2.4749 3.8891-1.9445 1.2374-1.591z" style="color:#000000;fill-rule:evenodd;fill:#fff"/>
     <path id="path2540" d="m-187.16 55.557-3.0052 3.5355-6.8943-4.5962-4.2426 2.2981-6.8943 6.5407 7.6014-5.8336 3.7123-1.0607 7.2478 4.9497 2.4749-5.8336z" style="color:#000000;fill-rule:evenodd;fill:#fff"/>
    </g>
   </g>
   <path id="path18342" transform="matrix(.61605 0 0 .59363 -7.9395 -5.9436)" d="m98.723 24.096a32.812 6.9078 0 1 1-65.624 0 32.812 6.9078 0 1 1 65.624 0z" style="color:#000000;fill-opacity:.51309;fill-rule:evenodd;fill:#585858;opacity:.77273;stroke-linecap:round;stroke-linejoin:round;stroke-width:.82836;stroke:#636363"/>
   <path id="path1751" d="m8.7846 9.8744c-0.047387-0.060952 4.1571 43.847 4.1576 43.86 0.17908 4.385 7.9783 5.1741 18.744 5.5185 13.155-0.13563 18.091-2.3447 18.277-5.3939 0.01495-0.06012 4.2185-43.925 4.2334-43.985 2.4845-9.7079-17.305-8.9944-24.235-8.9944-7.4416 0-23.977-0.22819-21.177 8.9944z" style="fill-rule:evenodd;fill:url(#linearGradient2942);stroke-linecap:round;stroke-linejoin:round;stroke-width:.50094;stroke:url(#linearGradient2944)"/>
   <path id="path18338" d="m10.382 8.7854s16.786-5.209 41.433-0.76665c9.3976-7.0053-22.164-7.5179-22.164-7.5179s-27.07 1.4501-19.268 8.2845z" style="fill-rule:evenodd;fill:#d9dcd5"/>
   <path id="path13701" d="m10.382 8.7854s16.786-5.209 41.433-0.76665c9.3976-7.0053-22.164-7.5179-22.164-7.5179s-27.07 1.4501-19.268 8.2845z" style="fill-rule:evenodd;fill:url(#linearGradient13703);stroke-linecap:round;stroke-linejoin:round;stroke-width:.50094;stroke:#636363"/>
   <path id="path18314" d="m48.756 2.7754c0.02461 0.00642 0.05237 0.012074 0.07701 0.018551 0.1101 0.029 0.21721 0.062537 0.32728 0.092754 0.02643 0.00723 0.05059 0.011249 0.07701 0.018552 0.06406 0.017771 0.12867 0.037405 0.19252 0.055652 0.01874 0.00533 0.03904 0.013175 0.05775 0.01855 0.01226 0.00354 0.02625-0.00356 0.0385 0 0.03369 0.00974 0.06266 0.027221 0.09626 0.037102 0.03943 0.011644 0.07624 0.025249 0.11551 0.037102 0.02723 0.00817 0.04985 0.010284 0.077 0.018551 0.06308 0.019308 0.12998 0.035759 0.19252 0.055653 0.01656 0.00524 0.04124 0.013265 0.05775 0.018551 0.0525 0.016914 0.102 0.038291 0.15401 0.055653 0.01861 0.00617 0.03921 0.012319 0.05776 0.01855 0.12296 0.041679 0.24641 0.085401 0.36578 0.12986 0.03161 0.011691 0.06494 0.025205 0.09626 0.037101 0.03672 0.014027 0.05997 0.022784 0.09626 0.037102 0.07481 0.029512 0.1582 0.061941 0.23102 0.092755 0.02454 0.010297 0.05271 0.026653 0.077 0.037102 0.0056 0.00245 0.01364-0.00246 0.01925 0 0.03648 0.015978 0.07962 0.039314 0.11551 0.055653 0.01933 0.0088 0.03861 0.00965 0.05776 0.018551 0.0071 0.00326 0.0122 0.015274 0.01925 0.018551 0.06885 0.032318 0.14541 0.058992 0.21177 0.092754 0.01765 0.00898 0.04029 0.028015 0.05775 0.037102 0.02234 0.011597 0.05498 0.025329 0.077 0.037102 0.01277 0.00688 0.02584 0.011615 0.0385 0.018551 0.01343 0.00731 0.0252 0.01117 0.0385 0.018551 0.01256 7e-3 0.0068 0.011493 0.01925 0.018551 0.01257 0.00705 0.02606 0.011436 0.03851 0.018551 0.01232 0.00712 0.02629 0.011369 0.0385 0.018551 0.0063 0.00368 0.01294 0.014856 0.01925 0.018551 0.03038 0.018034 0.06663 0.037221 0.09626 0.055653 0.01258 0.00777 0.02606 0.010711 0.0385 0.018552 0.01642 0.010413 0.02233 0.026561 0.03851 0.037101 0.01848 0.012047 0.0396 0.024886 0.05775 0.037102 0.06256 0.04188 0.13406 0.085899 0.19251 0.12986 0.0053 0.00402 0.01402 0.014511 0.01926 0.018551 0.05896 0.044848 0.11888 0.082755 0.17327 0.12986 0.0039 0.00339-0.0038 0.015149 0 0.01855 0.01662 0.014548 0.04159 0.022334 0.05775 0.037102 0.0094 0.00862 0.01005 0.028403 0.01926 0.037102 0.01267 0.011939 0.02613 0.025018 0.0385 0.037102 0.0045 0.00441 0.01481-0.00443 0.01925 0 0.0046 0.00454 0.01468 0.013986 0.01925 0.018551 0.0123 0.012455 0.02652 0.024496 0.0385 0.037102 3e-3 0.00308-0.0029 0.015462 0 0.018552 0.0051 0.00542 0.01421 0.013101 0.01925 0.01855 0.05799 0.062251 0.10421 0.11945 0.15401 0.18551 0.01017 0.013454 0.02869 0.023488 0.0385 0.037102 3e-3 0.00417-3e-3 0.014361 0 0.018551 0.0042 0.00585 0.01516 0.012666 0.01926 0.01855 0.01164 0.016886 0.0274 0.038517 0.0385 0.055653 0.0045 0.00881 0.01497 0.00969 0.01925 0.018551 0.0086 0.017588 0.01161 0.038107 0.01925 0.055652 0.01872 0.044737 0.02674 0.084297 0.0385 0.12986 0.0074 0.026475 0.01448 0.06597 0.01925 0.092754 0.0015 0.00918-0.0012 0.00936 0 0.018551 0.0022 0.013426 0.0178 0.023561 0.01926 0.037102 0.0019 0.023017 3e-5 0.051151 0 0.074204-0.0015 0.01481 2e-3 0.040994 0 0.055653-0.0015 0.00974-0.01755 0.027432-0.01926 0.037102-0.0026 0.014506 0.0031 0.022747 0 0.037101-0.01362 0.067227-0.03282 0.1215-0.05775 0.18551-0.0036 0.00914 0.0038 0.00947 0 0.01855-0.0058 0.01459-0.01285 0.022677-0.01925 0.037102-6e-3 0.013523-0.01277 0.023723-0.01925 0.037102-0.0084 0.017905-0.01 0.019449-0.01925 0.037102-0.0046 0.00882-0.0144 0.02834-0.01925 0.037102-0.01213 0.02191-0.02509 0.052683-0.0385 0.074204-0.0027 0.00429-0.01647-0.00427-0.01926 0-0.0055 0.00858 0.0057 0.010034 0 0.01855-0.02832 0.042572-0.06311 0.088794-0.09625 0.12986-0.0066 0.00821-0.01244 0.010395-0.01926 0.018551-0.0068 0.00815-0.01225 0.029008-0.01925 0.037102-0.05598 0.064777-0.1255 0.12441-0.19251 0.18551-0.0084 0.00763-0.01071 0.010973-0.01926 0.018551-0.01367 0.012131-0.04368 0.025114-0.05775 0.037102-0.0089 0.00747-0.01024 0.029689-0.01926 0.037102-0.03244 0.026698-0.08114 0.048207-0.11551 0.074204-0.0058 0.00432-0.01344 0.014252-0.01926 0.01855-0.0599 0.044508-0.1274 0.087358-0.19251 0.12986-0.0147 0.0096-0.02356 0.027605-0.0385 0.037102-0.02685 0.016886-0.06866 0.039081-0.09626 0.055654-0.22527 0.13531-0.48668 0.25497-0.75081 0.37102-0.05194 0.022636-0.10106 0.05224-0.15401 0.074204-0.05907 0.024653-0.11312 0.050366-0.17327 0.074204-0.05381 0.021328-0.0995 0.034953-0.15402 0.055653-0.02726 0.010349-0.06885 0.026904-0.09626 0.037102-0.0053 0.00195-0.01397-0.00195-0.01925 0-0.04937 0.018299-0.08501 0.037835-0.13476 0.055652-0.08291 0.029676-0.16673 0.064359-0.25027 0.092755-0.13926 0.047354-0.28443 0.085797-0.42354 0.12986-0.08347 0.026435-0.16754 0.048857-0.25027 0.074203-0.06346 0.019445-0.12976 0.055365-0.19252 0.074204-0.10086 0.030279-0.1905 0.045374-0.28877 0.074205-0.04644 0.012124-0.10748 0.025138-0.15401 0.037101-0.07486 0.019246-0.13667 0.036821-0.21177 0.055652-0.04668 0.011707-0.10724 0.025555-0.15401 0.037103-0.07523 0.018577-0.13631 0.037481-0.21177 0.055652-0.08158 0.019646-0.16844 0.036477-0.25027 0.055653-0.24551 0.057529-0.48383 0.11355-0.73156 0.16696-0.08257 0.017804-0.16746 0.038296-0.25027 0.055653-0.13043 0.027337-0.27328 0.047955-0.40428 0.074203-0.06529 0.013083-0.12709 0.042838-0.19252 0.055653-0.0063 0.00123-0.013-0.00122-0.01925 0-0.25592 0.05003-0.51214 0.083794-0.77006 0.12986-0.08401 0.015004-0.16606 0.041057-0.25027 0.055652-0.16843 0.029191-0.33134 0.046617-0.50054 0.074204-0.1269 0.020691-0.25772 0.054393-0.38503 0.074204-0.25462 0.039623-0.5139 0.075084-0.77006 0.1113-0.08539 0.012133-0.16472 0.025335-0.25027 0.037102-0.17109 0.023416-0.34809 0.033669-0.51979 0.055653-0.08586 0.011054-0.16427 0.026396-0.25027 0.037102-0.09246 0.011442-0.19616 0.026058-0.28877 0.037102-0.15357 0.018314-0.30806 0.038405-0.46204 0.055653-0.0065 7.3e-4 -0.01276-7.29e-4 -0.01925 0-0.69721 0.077897-1.3945 0.14616-2.0984 0.20406-0.17446 0.01448-0.34503 0.023738-0.51979 0.037102-0.61159 0.046326-1.234 0.095908-1.8482 0.12986-0.16925 0.00943-0.35044 0.00997-0.51979 0.018551-0.08779 0.0044-0.18172 0.014373-0.26952 0.018551-0.16939 0.00812-0.35037 0.011214-0.51979 0.018551-0.70262 0.030062-1.3968 0.05575-2.0984 0.074204-0.1754 0.00466-0.34456 0.014517-0.51979 0.018551-0.35669 0.00819-0.70313 0.012617-1.0588 0.01855-0.18281 7.39e-4 -0.37523-1.34e-4 -0.5583 0-0.0063 4e-6 -0.01294-2e-6 -0.01925 0-0.08838 5.4e-5 -0.18109 9.3e-5 -0.26952 0-0.0063-8e-6 -0.01293 9e-6 -0.01925 0-0.3727-4.36e-4 -0.74316 0.00326-1.1166 0-0.0063-5.8e-5 -0.01292 5.9e-5 -0.01925 0-0.1836-0.00171-0.37457-0.016087-0.5583-0.01855-0.19001-0.00248-0.38745 0.00332-0.57755 0-0.19016-0.0034-0.36808-0.014261-0.5583-0.018551-0.0063-1.44e-4 -0.01291 1.44e-4 -0.01925 0-0.09507-0.0021-0.17445 0.00233-0.26952 0-0.1902-0.0047476-0.3873-0.012839-0.57752-0.018546s-0.36813-0.011848-0.5583-0.018552c-0.0063-2.23e-4 -0.01291 2.25e-4 -0.01925 0-0.18383-0.00651-0.37455-0.011067-0.5583-0.01855-0.27867-0.011182-0.56871-0.023588-0.84707-0.037102-0.0063-3.11e-4 -0.01295 3.12e-4 -0.01925 0-0.75276-0.036694-1.5037-0.092816-2.2524-0.14841-0.0063-4.72e-4 -0.01298 4.72e-4 -0.01925 0-0.56001-0.041711-1.1184-0.094809-1.6749-0.14841-0.0062-6.06e-4 -0.01302 6.06e-4 -0.01925 0-0.37506-0.036221-0.74354-0.069254-1.1166-0.11131-0.093314-0.010576-0.17634-0.026149-0.26952-0.037101-0.13969-0.016337-0.28417-0.019901-0.42354-0.037103-0.41809-0.051604-0.83649-0.10724-1.2514-0.16696-0.13829-0.019905-0.28564-0.053363-0.42354-0.074204-0.18386-0.027789-0.35592-0.044712-0.53904-0.074204-0.091562-0.014747-0.17815-0.040472-0.26952-0.055653-0.051308-0.008524-0.10277-0.009889-0.15401-0.018551-0.045652-0.007719-0.089159-0.010723-0.13476-0.018551-0.091174-0.015619-0.17855-0.039589-0.26952-0.055652-0.045486-0.008032-0.089326-0.010408-0.13476-0.018552-0.090869-0.016288-0.17886-0.038912-0.26952-0.055652-0.045331-0.008371-0.089484-0.010067-0.13476-0.018551-0.090554-0.016969-0.17918-0.038224-0.26952-0.055653-0.36135-0.069718-0.7204-0.14531-1.0781-0.22261-0.089421-0.019325-0.18034-0.035841-0.26952-0.055652-0.089179-0.019812-0.18059-0.035349-0.26952-0.055654-0.044466-0.010152-0.090356-0.026825-0.13476-0.037101-0.11793-0.031404-0.2448-0.060183-0.36578-0.092755-0.060492-0.016286-0.11222-0.039025-0.17326-0.055653-0.12209-0.033257-0.24234-0.057928-0.36578-0.092755-0.061723-0.017413-0.13066-0.037796-0.19252-0.055652-0.061852-0.017857-0.11142-0.037321-0.17326-0.055654-0.06184-0.018332-0.13083-0.03681-0.19252-0.055652-0.061687-0.018843-0.13112-0.036268-0.19252-0.055653-0.09209-0.029079-0.17849-0.062359-0.26952-0.092755-0.060688-0.020263-0.11322-0.034762-0.17326-0.055652-0.030022-0.010446-0.066424-0.026494-0.096258-0.037103-0.059667-0.021216-0.11445-0.033759-0.17326-0.055652-0.11762-0.043787-0.23318-0.10171-0.34653-0.14841-0.19836-0.081719-0.39702-0.16796-0.57755-0.25971-0.07221-0.036703-0.14309-0.072836-0.21177-0.11131-0.0049-0.00275-0.01439 0.00276-0.01925 0-0.0397-0.022402-0.05785-0.051181-0.09626-0.074204-0.01183-0.00705-0.0268-0.011438-0.0385-0.01855-0.12893-0.078421-0.25385-0.15512-0.36578-0.24116-0.01016-0.00781-0.0092-0.010676-0.01925-0.018552-0.01403-0.011043-0.02478-0.025927-0.0385-0.037101-0.0099-0.00794-0.0096-0.010542-0.01925-0.018551-0.08155-0.067384-0.16136-0.13176-0.23102-0.20406-0.0084-0.00857-0.01108-0.00991-0.01925-0.018551-0.01433-0.015137-0.02473-0.040292-0.0385-0.055652-0.0031-0.00351-0.01615 0.00353-0.01925 0-0.03442-0.038701-0.04623-0.071167-0.07701-0.11131-0.0071-0.00909-0.01238-0.00939-0.01925-0.018551-0.02339-0.03117-0.03666-0.060697-0.05776-0.092755-0.0063-0.00939-0.01317-0.00908-0.01925-0.01855-0.02434-0.037901-0.05599-0.072141-0.07701-0.11131-0.00525-0.00979-0.014211-0.027231-0.019252-0.037102-0.017642-0.03455-0.023533-0.075757-0.038503-0.1113-0.00642-0.015235-0.013339-0.021682-0.019252-0.037102-0.00273-0.014291 0.00212-0.041478 0-0.055653s-0.017738-0.02304-0.019252-0.037102c-0.00202-0.018748 9.593e-4 -0.037107 0-0.055653-4.824e-4 -0.00928 2.234e-4 -0.00932 0-0.01855-2.179e-4 -0.00922-3.96e-5 -0.02793 0-0.037102 3.6e-5 -0.00918-2.896e-4 -0.00942 0-0.01855 5.926e-4 -0.018243-0.0016-0.037611 0-0.055653 7.935e-4 -0.00903-0.00104-0.00957 0-0.018551 0.00157-0.013457 0.017129-0.023757 0.019252-0.037102 0.00212-0.013345-0.00267-0.04242 0-0.055653 0.00177-0.00883-0.00201-0.00977 0-0.018551 0.00202-0.00877 0.017-0.028378 0.019252-0.037102 0.00224-0.00873-0.00247-0.00987 0-0.01855 0.00248-0.00867-0.00271-0.00993 0-0.018552 0.010808-0.03454 0.02412-0.07754 0.038503-0.11131 0.00361-0.00843 0.015424-0.01017 0.019252-0.018551 0.0057-0.012571 0.01303-0.024639 0.01925-0.037102 0.0062-0.012462 0.01256-0.024749 0.01925-0.037102 0.0067-0.012353 0.01209-0.024857 0.01925-0.037102 0.0024-0.00408-0.0024-0.014482 0-0.018551 0.0097-0.016307 0.02798-0.039536 0.0385-0.055653 0.01583-0.02413 0.02092-0.031952 0.0385-0.055653 0.0059-0.0079 0.0132-0.029249 0.01925-0.037102 6e-3 -0.00787 0.01303-0.010728 0.01925-0.018551 0.0062-0.00781 0.01283-0.010793 0.01925-0.01855 0.0128-0.015551 0.02498-0.040289 0.0385-0.055653 0.0095-0.01073 0.02866-0.00791 0.0385-0.018552 0.01388-0.01527 0.02394-0.022017 0.0385-0.037102 0.0073-0.00752 0.01178-0.029624 0.01925-0.037102 0.0149-0.014992 0.02294-0.022295 0.0385-0.037101 0.0078-0.00738 0.01129-0.011213 0.01925-0.018551 0.01588-0.014716 0.04124-0.041121 0.05776-0.055653 0.0083-0.00725 0.01082-0.01135 0.01925-0.018552 0.02522-0.021661 0.05045-0.034401 0.07701-0.055653 0.0089-0.00706 0.02948-0.011533 0.0385-0.01855 0.03598-0.028154 0.05809-0.065322 0.09626-0.092755 0.0287-0.020511 0.06641-0.035544 0.09626-0.055653 0.02978-0.020172 0.0654-0.035881 0.09626-0.055653 0.02062-0.013139 0.03668-0.024139 0.05776-0.037102 0.10826-0.067343 0.20846-0.14137 0.32728-0.20406 0.09199-0.048532 0.19196-0.084057 0.28877-0.12986 0.07261-0.03435 0.13708-0.078468 0.21177-0.11131 0.04979-0.021892 0.1035-0.034424 0.15401-0.055653 0.02526-0.010614 0.0516-0.026653 0.07701-0.037102 0.05081-0.020898 0.10273-0.035409 0.15401-0.055653 0.02564-0.010122 0.05128-0.027142 0.07701-0.037102 0.05146-0.019919 0.10232-0.036379 0.15401-0.055653 0.05169-0.019274 0.10226-0.037017 0.15401-0.055653 0.05175-0.018635 0.10236-0.037649 0.15401-0.055653 0.05166-0.018004 0.10262-0.038275 0.15401-0.055653 0.02571-0.00867 0.05139-0.010029 0.07701-0.018551 0.0512-0.017068 0.10331-0.039202 0.15401-0.055653 0.07605-0.024676 0.15657-0.050896 0.23102-0.074204 0.02804-0.00808 0.04901-0.010592 0.07701-0.01855 0.08399-0.023875 0.16624-0.051134 0.25027-0.074204 0.0056-0.00154 0.01365 0.00154 0.01925 0 0.10647-0.029172 0.21947-0.064101 0.32728-0.092755-3.917 0.45508-6.3145 1.2131-6.3145 2.56 5e-7 0.26231 0 4.394 0 4.6563 5e-7 2.8454 10.675 5.1572 23.833 5.1572 13.159 1e-6 23.833-2.3118 23.833-5.1572v-4.6563c0-1.3761-2.4984-2.1529-6.5648-2.6157z" style="color:#000000;fill-rule:evenodd;fill:#fff;stroke-linecap:round;stroke-linejoin:round;stroke-width:.25;stroke:#808389"/>
   <path id="path3959" d="m48.756 2.7754c0.02461 0.00642 0.05237 0.012074 0.07701 0.018551 0.1101 0.029 0.21721 0.062537 0.32728 0.092754 0.02643 0.00723 0.05059 0.011249 0.07701 0.018552 0.06406 0.017771 0.12867 0.037405 0.19252 0.055652 0.01874 0.00533 0.03904 0.013175 0.05775 0.01855 0.01226 0.00354 0.02625-0.00356 0.0385 0 0.03369 0.00974 0.06266 0.027221 0.09626 0.037102 0.03943 0.011644 0.07624 0.025249 0.11551 0.037102 0.02723 0.00817 0.04985 0.010284 0.077 0.018551 0.06308 0.019308 0.12998 0.035759 0.19252 0.055653 0.01656 0.00524 0.04124 0.013265 0.05775 0.018551 0.0525 0.016914 0.102 0.038291 0.15401 0.055653 0.01861 0.00617 0.03921 0.012319 0.05776 0.01855 0.12296 0.041679 0.24641 0.085401 0.36578 0.12986 0.03161 0.011691 0.06494 0.025205 0.09626 0.037101 0.03672 0.014027 0.05997 0.022784 0.09626 0.037102 0.07481 0.029512 0.1582 0.061941 0.23102 0.092755 0.02454 0.010297 0.05271 0.026653 0.077 0.037102 0.0056 0.00245 0.01364-0.00246 0.01925 0 0.03648 0.015978 0.07962 0.039314 0.11551 0.055653 0.01933 0.0088 0.03861 0.00965 0.05776 0.018551 0.0071 0.00326 0.0122 0.015274 0.01925 0.018551 0.06885 0.032318 0.14541 0.058992 0.21177 0.092754 0.01765 0.00898 0.04029 0.028015 0.05775 0.037102 0.02234 0.011597 0.05498 0.025329 0.077 0.037102 0.01277 0.00688 0.02584 0.011615 0.0385 0.018551 0.01343 0.00731 0.0252 0.01117 0.0385 0.018551 0.01256 7e-3 0.0068 0.011493 0.01925 0.018551 0.01257 0.00705 0.02606 0.011436 0.03851 0.018551 0.01232 0.00712 0.02629 0.011369 0.0385 0.018551 0.0063 0.00368 0.01294 0.014856 0.01925 0.018551 0.03038 0.018034 0.06663 0.037221 0.09626 0.055653 0.01258 0.00777 0.02606 0.010711 0.0385 0.018552 0.01642 0.010413 0.02233 0.026561 0.03851 0.037101 0.01848 0.012047 0.0396 0.024886 0.05775 0.037102 0.06256 0.04188 0.13406 0.085899 0.19251 0.12986 0.0053 0.00402 0.01402 0.014511 0.01926 0.018551 0.05896 0.044848 0.11888 0.082755 0.17327 0.12986 0.0039 0.00339-0.0038 0.015149 0 0.01855 0.01662 0.014548 0.04159 0.022334 0.05775 0.037102 0.0094 0.00862 0.01005 0.028403 0.01926 0.037102 0.01267 0.011939 0.02613 0.025018 0.0385 0.037102 0.0045 0.00441 0.01481-0.00443 0.01925 0 0.0046 0.00454 0.01468 0.013986 0.01925 0.018551 0.0123 0.012455 0.02652 0.024496 0.0385 0.037102 3e-3 0.00308-0.0029 0.015462 0 0.018552 0.0051 0.00542 0.01421 0.013101 0.01925 0.01855 0.05799 0.062251 0.10421 0.11945 0.15401 0.18551 0.01017 0.013454 0.02869 0.023488 0.0385 0.037102 3e-3 0.00417-3e-3 0.014361 0 0.018551 0.0042 0.00585 0.01516 0.012666 0.01926 0.01855 0.01164 0.016886 0.0274 0.038517 0.0385 0.055653 0.0045 0.00881 0.01497 0.00969 0.01925 0.018551 0.0086 0.017588 0.01161 0.038107 0.01925 0.055652 0.01872 0.044737 0.02674 0.084297 0.0385 0.12986 0.0074 0.026475 0.01448 0.06597 0.01925 0.092754 0.0015 0.00918-0.0012 0.00936 0 0.018551 0.0022 0.013426 0.0178 0.023561 0.01926 0.037102 0.0019 0.023017 3e-5 0.051151 0 0.074204-0.0015 0.01481 2e-3 0.040994 0 0.055653-0.0015 0.00974-0.01755 0.027432-0.01926 0.037102-0.0026 0.014506 0.0031 0.022747 0 0.037101-0.01362 0.067227-0.03282 0.1215-0.05775 0.18551-0.0036 0.00914 0.0038 0.00947 0 0.01855-0.0058 0.01459-0.01285 0.022677-0.01925 0.037102-6e-3 0.013523-0.01277 0.023723-0.01925 0.037102-0.0084 0.017905-0.01 0.019449-0.01925 0.037102-0.0046 0.00882-0.0144 0.02834-0.01925 0.037102-0.01213 0.02191-0.02509 0.052683-0.0385 0.074204-0.0027 0.00429-0.01647-0.00427-0.01926 0-0.0055 0.00858 0.0057 0.010034 0 0.01855-0.02832 0.042572-0.06311 0.088794-0.09625 0.12986-0.0066 0.00822-0.01244 0.010395-0.01926 0.018551-0.0068 0.00815-0.01225 0.029008-0.01925 0.037102-0.05598 0.064777-0.1255 0.12441-0.19251 0.18551-0.0084 0.00763-0.01071 0.010973-0.01926 0.018551-0.01367 0.012131-0.04368 0.025114-0.05775 0.037102-0.0089 0.00747-0.01024 0.029689-0.01926 0.037101-0.03244 0.026699-0.08114 0.048207-0.11551 0.074205-0.0058 0.00432-0.01344 0.014252-0.01926 0.01855-0.0599 0.044507-0.1274 0.087357-0.19251 0.12986-0.0147 0.0096-0.02356 0.027605-0.0385 0.037102-0.02685 0.016886-0.06866 0.039081-0.09626 0.055654-0.22527 0.13531-0.48668 0.25497-0.75081 0.37102-0.05194 0.022637-0.10106 0.05224-0.15401 0.074204-0.05907 0.024653-0.11312 0.050366-0.17327 0.074204-0.05381 0.021329-0.0995 0.034953-0.15402 0.055653-0.02726 0.010349-0.06885 0.026905-0.09626 0.037102-0.0053 0.00195-0.01397-0.00195-0.01925 0-0.04937 0.018299-0.08501 0.037836-0.13476 0.055653-0.08291 0.029676-0.16673 0.064358-0.25027 0.092754-0.13926 0.047355-0.28443 0.085797-0.42354 0.12986-0.08347 0.026436-0.16754 0.048857-0.25027 0.074204-0.06346 0.019444-0.12976 0.055364-0.19252 0.074204-0.10086 0.030279-0.1905 0.045374-0.28877 0.074205-0.04644 0.012124-0.10748 0.025138-0.15401 0.037101-0.07486 0.019246-0.13667 0.036821-0.21177 0.055653-0.04668 0.011706-0.10724 0.025554-0.15401 0.037102-0.07523 0.018577-0.13631 0.037482-0.21177 0.055653-0.08158 0.019645-0.16844 0.036477-0.25027 0.055652-0.24551 0.057529-0.48383 0.11355-0.73156 0.16696-0.08257 0.017804-0.16746 0.038296-0.25027 0.055653-0.13043 0.027337-0.27328 0.047955-0.40428 0.074203-0.06529 0.013083-0.12709 0.042838-0.19252 0.055653-0.0063 0.00123-0.013-0.00122-0.01925 0-0.25592 0.05003-0.51214 0.083794-0.77006 0.12986-0.08401 0.015004-0.16606 0.041057-0.25027 0.055652-0.16843 0.029191-0.33134 0.046617-0.50054 0.074204-0.1269 0.020691-0.25772 0.054393-0.38503 0.074204-0.25462 0.039623-0.5139 0.075084-0.77006 0.1113-0.08539 0.012133-0.16472 0.025335-0.25027 0.037102-0.17109 0.023416-0.34809 0.033669-0.51979 0.055653-0.08586 0.011054-0.16427 0.026396-0.25027 0.037102-0.09246 0.011442-0.19616 0.026058-0.28877 0.037102-0.15357 0.018314-0.30806 0.038405-0.46204 0.055653-0.0065 7.3e-4 -0.01276-7.29e-4 -0.01925 0-0.69721 0.077897-1.3945 0.14616-2.0984 0.20406-0.17446 0.01448-0.34503 0.023738-0.51979 0.037102-0.61159 0.046326-1.234 0.095908-1.8482 0.12986-0.16925 0.00943-0.35044 0.00997-0.51979 0.018551-0.08779 0.0044-0.18172 0.014373-0.26952 0.018551-0.16939 0.00812-0.35037 0.011214-0.51979 0.018551-0.70262 0.030062-1.3968 0.05575-2.0984 0.074204-0.1754 0.00466-0.34456 0.014517-0.51979 0.018551-0.35669 0.00819-0.70313 0.012617-1.0588 0.01855-0.18281 7.39e-4 -0.37523-1.34e-4 -0.5583 0-0.0063 4e-6 -0.01294-2e-6 -0.01925 0-0.08838 5.4e-5 -0.18109 9.3e-5 -0.26952 0-0.0063-8e-6 -0.01293 9e-6 -0.01925 0-0.3727-4.36e-4 -0.74316 0.00326-1.1166 0-0.0063-5.8e-5 -0.01292 5.9e-5 -0.01925 0-0.1836-0.00171-0.37457-0.016087-0.5583-0.01855-0.19001-0.00248-0.38745 0.00332-0.57755 0-0.19016-0.0034-0.36808-0.014261-0.5583-0.018551-0.0063-1.44e-4 -0.01291 1.44e-4 -0.01925 0-0.09507-0.0021-0.17445 0.00233-0.26952 0-0.1902-0.00475-0.3873-0.01284-0.57752-0.018546-0.19022-0.00571-0.36813-0.011848-0.5583-0.018552-0.0063-2.23e-4 -0.01291 2.25e-4 -0.01925 0-0.18383-0.00651-0.37455-0.011067-0.5583-0.01855-0.27867-0.011182-0.56871-0.023588-0.84707-0.037102-0.0063-3.11e-4 -0.01295 3.12e-4 -0.01925 0-0.75276-0.036694-1.5037-0.092816-2.2524-0.14841-0.0063-4.72e-4 -0.01298 4.72e-4 -0.01925 0-0.56001-0.041711-1.1184-0.094809-1.6749-0.14841-0.0062-6.06e-4 -0.01302 6.06e-4 -0.01925 0-0.37506-0.036221-0.74354-0.069254-1.1166-0.11131-0.093314-0.010576-0.17634-0.026149-0.26952-0.037101-0.13969-0.016337-0.28417-0.019901-0.42354-0.037103-0.41809-0.051604-0.83649-0.10724-1.2514-0.16696-0.13829-0.019905-0.28564-0.053363-0.42354-0.074204-0.18386-0.027789-0.35592-0.044712-0.53904-0.074204-0.091562-0.014747-0.17815-0.040472-0.26952-0.055653-0.051308-0.008524-0.10277-0.009889-0.15401-0.018551-0.045652-0.007719-0.089159-0.010723-0.13476-0.018551-0.091174-0.015619-0.17855-0.039589-0.26952-0.055652-0.045486-0.008032-0.089326-0.010408-0.13476-0.018552-0.090869-0.016288-0.17886-0.038912-0.26952-0.055652-0.045331-0.008371-0.089484-0.010067-0.13476-0.018551-0.090554-0.016969-0.17918-0.038224-0.26952-0.055653-0.36135-0.069718-0.7204-0.14531-1.0781-0.22261-0.089421-0.019325-0.18034-0.035841-0.26952-0.055652-0.089179-0.019812-0.18059-0.035349-0.26952-0.055654-0.04447-0.010152-0.09036-0.026825-0.13476-0.037101-0.11793-0.031404-0.2448-0.060183-0.36578-0.092755-0.06049-0.016286-0.11222-0.039025-0.17326-0.055653-0.12209-0.033257-0.24234-0.057928-0.36578-0.092755-0.06172-0.017414-0.13066-0.037796-0.19252-0.055653-0.06185-0.017857-0.11142-0.037321-0.17326-0.055653-0.06184-0.018333-0.13083-0.036811-0.19252-0.055653-0.06169-0.018842-0.13112-0.036268-0.19252-0.055653-0.09209-0.029079-0.17849-0.062359-0.26952-0.092755-0.06069-0.020263-0.11322-0.034762-0.17326-0.055652-0.03002-0.010446-0.06642-0.026494-0.09626-0.037102-0.059665-0.021216-0.11445-0.033759-0.17326-0.055652-0.11762-0.043787-0.23318-0.10171-0.34653-0.14841-0.19836-0.081719-0.39702-0.16796-0.57755-0.25971-0.07221-0.036703-0.14309-0.072836-0.21177-0.11131-0.0049-0.00275-0.01439 0.00276-0.01925 0-0.0397-0.022402-0.05785-0.051181-0.09626-0.074204-0.01183-0.00705-0.0268-0.011438-0.0385-0.01855-0.12893-0.078421-0.25385-0.15512-0.36578-0.24116-0.01016-0.00781-0.0092-0.010676-0.01925-0.018552-0.01403-0.011043-0.02478-0.025927-0.0385-0.037101-0.0099-0.00794-0.0096-0.010542-0.01925-0.018552-0.08155-0.067384-0.16136-0.13176-0.23102-0.20406-0.0084-0.00857-0.01108-0.00991-0.01925-0.018551-0.01433-0.015137-0.02473-0.040293-0.0385-0.055653-0.0031-0.00351-0.01615 0.00353-0.01925 0-0.03442-0.0387-0.04623-0.071166-0.07701-0.11131-0.0071-0.00909-0.01238-0.00939-0.01925-0.018551-0.02339-0.03117-0.03666-0.060697-0.05776-0.092755-0.0063-0.00939-0.01317-0.00908-0.01925-0.01855-0.02434-0.037901-0.05599-0.072141-0.07701-0.11131-0.00525-0.00979-0.014211-0.027231-0.019252-0.037102-0.017642-0.03455-0.023533-0.075757-0.038503-0.1113-0.00642-0.015235-0.013339-0.021682-0.019252-0.037102-0.00273-0.014291 0.00212-0.041478 0-0.055653s-0.017738-0.02304-0.019252-0.037102c-0.00202-0.018748 9.593e-4 -0.037107 0-0.055653-4.824e-4 -0.00928 2.234e-4 -0.00932 0-0.01855-2.179e-4 -0.00922-3.96e-5 -0.02793 0-0.037102 3.6e-5 -0.00918-2.896e-4 -0.00942 0-0.01855 5.926e-4 -0.018243-0.0016-0.037611 0-0.055653 7.935e-4 -0.00903-0.00104-0.00957 0-0.018551 0.00157-0.013457 0.017129-0.023757 0.019252-0.037102 0.00212-0.013345-0.00267-0.04242 0-0.055653 0.00177-0.00883-0.00201-0.00977 0-0.018551 0.00202-0.00877 0.017-0.028378 0.019252-0.037102 0.00224-0.00873-0.00247-0.00987 0-0.01855 0.00248-0.00867-0.00271-0.00993 0-0.018552 0.010808-0.03454 0.02412-0.07754 0.038503-0.11131 0.00361-0.00843 0.015424-0.01017 0.019252-0.018551 0.0057-0.012571 0.01303-0.024639 0.01925-0.037102 0.0062-0.012462 0.01256-0.024749 0.01925-0.037102 0.0067-0.012353 0.01209-0.024857 0.01925-0.037102 0.0024-0.00408-0.0024-0.014482 0-0.018551 0.0097-0.016307 0.02798-0.039536 0.0385-0.055653 0.01583-0.02413 0.02092-0.031952 0.0385-0.055653 0.0059-0.0079 0.0132-0.029249 0.01925-0.037102 6e-3 -0.00787 0.01303-0.010728 0.01925-0.018551 0.0062-0.00781 0.01283-0.010793 0.01925-0.01855 0.0128-0.015551 0.02498-0.040289 0.0385-0.055653 0.0095-0.01073 0.02866-0.00791 0.0385-0.018552 0.01388-0.01527 0.02394-0.022017 0.0385-0.037102 0.0073-0.00752 0.01178-0.029624 0.01925-0.037102 0.0149-0.014992 0.02294-0.022295 0.0385-0.037101 0.0078-0.00738 0.01129-0.011213 0.01925-0.018551 0.01588-0.014716 0.04124-0.041121 0.05776-0.055653 0.0083-0.00725 0.01082-0.01135 0.01925-0.018552 0.02522-0.021661 0.05045-0.034401 0.07701-0.055653 0.0089-0.00706 0.02948-0.011533 0.0385-0.01855 0.03598-0.028154 0.05809-0.065322 0.09626-0.092755 0.0287-0.020511 0.06641-0.035544 0.09626-0.055653 0.02978-0.020172 0.0654-0.035881 0.09626-0.055653 0.02062-0.013139 0.03668-0.024139 0.05776-0.037102 0.10826-0.067343 0.20846-0.14137 0.32728-0.20406 0.09199-0.048532 0.19196-0.084057 0.28877-0.12986 0.07261-0.03435 0.13708-0.078468 0.21177-0.11131 0.04979-0.021892 0.1035-0.034424 0.15401-0.055653 0.02526-0.010614 0.0516-0.026653 0.07701-0.037102 0.05081-0.020898 0.10273-0.035409 0.15401-0.055653 0.02564-0.010122 0.05128-0.027142 0.07701-0.037102 0.05146-0.019919 0.10232-0.036379 0.15401-0.055653 0.05169-0.019274 0.10226-0.037017 0.15401-0.055653 0.05175-0.018635 0.10236-0.037649 0.15401-0.055653 0.05166-0.018004 0.10262-0.038275 0.15401-0.055653 0.02571-0.00867 0.05139-0.010029 0.07701-0.018551 0.0512-0.017068 0.10331-0.039202 0.15401-0.055653 0.07605-0.024676 0.15657-0.050896 0.23102-0.074204 0.02804-0.00808 0.04901-0.010592 0.07701-0.01855 0.08399-0.023875 0.16624-0.051134 0.25027-0.074204 0.0056-0.00154 0.01365 0.00154 0.01925 0 0.10647-0.029172 0.21947-0.064101 0.32728-0.092755-3.917 0.45508-6.3145 1.2131-6.3145 2.56 5e-7 0.26231 0 4.394 0 4.6563 5e-7 2.8454 10.675 5.1572 23.833 5.1572 13.159 1e-6 23.833-2.3118 23.833-5.1572v-4.6563c0-1.3761-2.4984-2.1529-6.5648-2.6157z" style="color:#000000;fill-rule:evenodd;fill:url(#linearGradient3961);stroke-width:0"/>
   <path id="path18219" transform="matrix(.50094 0 0 .50094 -.57317 -.060288)" d="m62.579 0.62429c-1.5533 0.008421-3.1035 0.041787-4.6501 0.074065-11.579 0.41183-23.464 1.3401-34.011 4.666-3.5003 1.1997-7.9698 3.131-7.4556 6.0733 1.1119 3.175 6.2948 4.7128 10.453 5.9251 12.525 3.1737 26.208 3.8733 39.545 3.8143 12.323-0.22508 24.963-1.0396 36.355-4.2957 3.7473-1.2037 8.4886-2.9128 8.7622-5.9622 4.8e-4 -0.35597-0.0701-0.73371-0.23059-1.0739-1.8223-3.0806-7.0049-4.48-11.375-5.6659-11.932-2.8117-24.745-3.6237-37.393-3.5551zm-2.2674 1.6294c12.235-0.16278 24.711 0.43597 36.279 2.9255 3.9591 0.9812 8.6487 2.1543 10.299 4.7031 0.14532 0.28149 0.23101 0.55723 0.23059 0.85174-0.24788 2.5229-4.5607 3.9294-7.9552 4.9253-10.32 2.694-21.772 3.4059-32.935 3.5921-12.081 0.0488-24.472-0.55893-35.817-3.1848-3.7668-1.003-8.4468-2.2614-9.454-4.8882-0.46577-2.4343 3.5547-4.0438 6.7254-5.0364 9.5541-2.7517 20.333-3.5106 30.821-3.8513 0.60042-0.011446 1.2045-0.029027 1.8062-0.037034z" style="color:#000000;fill-rule:evenodd;fill:#d9dcd5;stroke-linecap:round;stroke-linejoin:round;stroke-width:.49906;stroke:url(#linearGradient2857)"/>
   <path id="path7867" d="m30.775 0.25244c-0.7781 0.0042187-1.5547 0.020933-2.3294 0.037102-5.8003 0.2063-11.754 0.67133-17.038 2.3374-1.7534 0.60098-3.9924 1.5685-3.7348 3.0424 0.55699 1.5905 3.1533 2.3608 5.2364 2.9682 6.2745 1.5899 13.129 1.9403 19.81 1.9107 6.1733-0.11275 12.505-0.52079 18.212-2.1519 1.8772-0.60296 4.2523-1.4591 4.3894-2.9867 2.41e-4 -0.17832-0.035141-0.36755-0.11551-0.53798-0.91287-1.5432-3.509-2.2442-5.6985-2.8383-5.9775-1.4085-12.396-1.8152-18.732-1.7809zm-1.1358 0.81624c6.1289-0.081542 12.379 0.21839 18.173 1.4655 1.9833 0.49152 4.3325 1.0792 5.1594 2.356 0.0728 0.14101 0.11572 0.27914 0.11551 0.42667-0.12417 1.2638-2.2847 1.9684-3.9851 2.4673-5.1695 1.3495-10.907 1.7062-16.499 1.7994-6.0518 0.024448-12.259-0.27999-17.942-1.5954-1.8869-0.50246-4.2313-1.1328-4.7359-2.4487-0.23332-1.2194 1.7807-2.0257 3.369-2.5229 4.786-1.3785 10.186-1.7586 15.44-1.9293 0.30078-0.00573 0.6034-0.014541 0.90482-0.018552z" style="color:#000000;fill-rule:evenodd;fill:url(#linearGradient14689)"/>
  </g>
 </g>
</svg>
