<?xml version="1.0" encoding="UTF-8"?>
<!-- Created with Inkscape (http://www.inkscape.org/) -->
<svg id="svg2" width="64" height="64" version="1.0" xmlns="http://www.w3.org/2000/svg" xmlns:cc="http://creativecommons.org/ns#" xmlns:dc="http://purl.org/dc/elements/1.1/" xmlns:rdf="http://www.w3.org/1999/02/22-rdf-syntax-ns#" xmlns:xlink="http://www.w3.org/1999/xlink">
 <metadata id="metadata68">
  <rdf:RDF>
   <cc:Work rdf:about="">
    <dc:format>image/svg+xml</dc:format>
    <dc:type rdf:resource="http://purl.org/dc/dcmitype/StillImage"/>
   </cc:Work>
  </rdf:RDF>
 </metadata>
 <defs id="defs4">
  <linearGradient id="linearGradient10691">
   <stop id="stop10693" offset="0"/>
   <stop id="stop10695" style="stop-opacity:0" offset="1"/>
  </linearGradient>
  <linearGradient id="linearGradient6544">
   <stop id="stop6546" style="stop-color:#f0f0f0" offset="0"/>
   <stop id="stop6548" style="stop-color:#d2d2d2" offset="1"/>
  </linearGradient>
  <linearGradient id="linearGradient6602">
   <stop id="stop6604" style="stop-color:#fff" offset="0"/>
   <stop id="stop6606" style="stop-color:#fff;stop-opacity:0" offset="1"/>
  </linearGradient>
  <radialGradient id="radialGradient2992" cx="5.9688" cy="-.64647" r="20" gradientTransform="matrix(1.9085 -.010481 .0033084 .69841 -1.1188 10.06)" gradientUnits="userSpaceOnUse" xlink:href="#linearGradient6602"/>
  <linearGradient id="linearGradient2995" x1="12.938" x2="15.25" y1="8.4375" y2="19.812" gradientTransform="matrix(1.1907 0 0 1.3504 3.4277 1.933)" gradientUnits="userSpaceOnUse">
   <stop id="stop6594" style="stop-color:#fff;stop-opacity:.27451" offset="0"/>
   <stop id="stop6596" style="stop-color:#fff;stop-opacity:0" offset="1"/>
  </linearGradient>
  <linearGradient id="linearGradient3056" x1="316.86" x2="319.39" y1="85.62" y2="93.916" gradientTransform="matrix(1.1429 0 0 .93704 -333.71 -28.523)" gradientUnits="userSpaceOnUse">
   <stop id="stop4576" style="stop-color:#282828" offset="0"/>
   <stop id="stop4578" style="stop-color:#5a5c58" offset="1"/>
  </linearGradient>
  <radialGradient id="radialGradient3063" cx="6.7027" cy="73.616" r="7.2284" gradientTransform="matrix(4.1791 -3.5773e-6 4.7438e-7 .20751 3.9886 45.224)" gradientUnits="userSpaceOnUse" xlink:href="#linearGradient10691"/>
  <radialGradient id="radialGradient3071" cx="1" cy="5.5643" r="23" gradientTransform="matrix(1.1778 0 0 .8096 3.7333 9.5465)" gradientUnits="userSpaceOnUse" xlink:href="#linearGradient6602"/>
  <linearGradient id="linearGradient3074" x1="20.147" x2="20.104" y1="-.0004971" y2="31.983" gradientTransform="matrix(1.1721 0 0 1.2271 3.8688 2.8668)" gradientUnits="userSpaceOnUse" xlink:href="#linearGradient6544"/>
  <radialGradient id="radialGradient3077" cx="24" cy="38.641" r="8" gradientTransform="matrix(2.286 -3.144e-8 0 .43815 -22.903 33.069)" gradientUnits="userSpaceOnUse" xlink:href="#linearGradient6602"/>
  <linearGradient id="linearGradient3080" x1="320.03" x2="320.03" y1="85.028" y2="94.126" gradientTransform="matrix(1.2308 0 0 1.0001 -361.91 -44.013)" gradientUnits="userSpaceOnUse">
   <stop id="stop3205" style="stop-color:#787878" offset="0"/>
   <stop id="stop3207" style="stop-color:#bebebe" offset=".35047"/>
   <stop id="stop3209" style="stop-color:#c8c8c8" offset=".55131"/>
   <stop id="stop3211" style="stop-color:#e6e6e6" offset=".68275"/>
   <stop id="stop3213" style="stop-color:#8c8c8c" offset="1"/>
  </linearGradient>
  <linearGradient id="linearGradient3082" x1="22.381" x2="22.381" y1="29.027" y2="38.127" gradientTransform="matrix(1.2353 0 0 1 2.3535 12)" gradientUnits="userSpaceOnUse">
   <stop id="stop3217" style="stop-color:#505050" offset="0"/>
   <stop id="stop3219" style="stop-color:#a0a0a0" offset=".35047"/>
   <stop id="stop3221" style="stop-color:#aaa" offset=".55131"/>
   <stop id="stop3223" style="stop-color:#bebebe" offset=".69074"/>
   <stop id="stop3225" style="stop-color:#6e6e6e" offset="1"/>
  </linearGradient>
  <radialGradient id="radialGradient3085" cx="6.7027" cy="73.616" r="7.2284" gradientTransform="matrix(1.9368 0 0 .55337 19.018 8.2632)" gradientUnits="userSpaceOnUse" xlink:href="#linearGradient10691"/>
  <linearGradient id="linearGradient4427" x1="327.19" x2="327.19" y1="77.875" y2="86.188" gradientTransform="translate(-292,-27)" gradientUnits="userSpaceOnUse">
   <stop id="stop6604-5" style="stop-color:#fff" offset="0"/>
   <stop id="stop6606-8" style="stop-color:#fff;stop-opacity:0" offset="1"/>
  </linearGradient>
  <linearGradient id="linearGradient4430" x1="145.44" x2="145.44" y1="372.67" y2="416.83" gradientTransform="matrix(.23108 0 0 .18491 -1.6072 -15.992)" gradientUnits="userSpaceOnUse" xlink:href="#linearGradient6544"/>
  <radialGradient id="radialGradient2973" cx="26.617" cy="-2.0645" r="23" gradientTransform="matrix(-1.9706e-8 -.9032 1.5133 0 44.845 50.051)" gradientUnits="userSpaceOnUse">
   <stop id="stop2749" style="stop-color:#d78ec1" offset="0"/>
   <stop id="stop2751" style="stop-color:#c564be" offset=".26238"/>
   <stop id="stop2753" style="stop-color:#9d3ea4" offset=".66094"/>
   <stop id="stop2755" style="stop-color:#5e2c73" offset="1"/>
  </radialGradient>
  <linearGradient id="linearGradient2975" x1="10.014" x2="10.014" y1="44.96" y2="2.8765" gradientTransform="matrix(1.0374 0 0 .76574 6.9829 4.0684)" gradientUnits="userSpaceOnUse">
   <stop id="stop2759" style="stop-color:#650d5c" offset="0"/>
   <stop id="stop2761" style="stop-color:#5e2c59" offset="1"/>
  </linearGradient>
 </defs>
 <path id="path2589" d="m46 49c0 2.2091-6.268 4-14 4-7.732 0-14-1.7909-14-4 0-2.2091 6.268-4 14-4 7.732 0 14 1.7909 14 4z" style="fill:url(#radialGradient3085);opacity:.5"/>
 <path id="path4675" d="m25.5 38.499v7.001c-0.0272 1.8022-2.6162 3.0004-2.6162 3.0004-0.9248 0.08844-1.3847 0.44607-1.3847 1.0002 0 0.55408 0.62259 1.0001 1.3847 1.0001h18.232c0.7621 0 1.3847-0.44606 1.3847-1.0001 0-0.55408-0.45989-0.91171-1.3847-1.0002 0 0-2.589-1.1982-2.6162-3.0004v-7.001h-13z" style="enable-background:new;fill:url(#linearGradient3080);stroke-dashoffset:.5;stroke-linecap:round;stroke-linejoin:round;stroke-width:.99827;stroke:url(#linearGradient3082)"/>
 <rect id="rect4703" x="21.96" y="49" width="20.002" height="1" rx=".44444" ry=".5" style="enable-background:new;fill:url(#radialGradient3077);opacity:.8"/>
 <rect id="rect2722" x="4.5" y="3.5" width="55" height="38" rx="1.0016" ry="1.001" style="fill:url(#linearGradient3074);stroke-dashoffset:.5;stroke-linecap:round;stroke-linejoin:round;stroke:#aaa"/>
 <rect id="rect4642" x="5.5" y="4.5" width="53" height="36" rx="0" ry="0" style="enable-background:new;fill:none;stroke-dashoffset:.5;stroke-linecap:round;stroke-linejoin:round;stroke-width:1.0001;stroke:url(#radialGradient3071)"/>
 <rect id="rect2716" x="7.5" y="6.5172" width="49.01" height="31.983" style="color:#000000;fill-rule:evenodd;fill:url(#radialGradient2973);stroke-linecap:round;stroke-linejoin:round;stroke-width:1.0021;stroke:url(#linearGradient2975)"/>
 <path id="path6096" d="m61 60.5c0 0.82843-12.984 1.5-29 1.5-16.016 0-29-0.67157-29-1.5s12.984-1.5 29-1.5c16.016 0 29 0.67157 29 1.5z" style="fill:url(#radialGradient3063);opacity:.5"/>
 <path id="path3698" d="m9.6795 53.499c-1.0339 0.25979-1.3445 1.4695-1.9892 2.2187-0.71315 1.0893-1.496 2.1389-2.1642 3.2539-0.32463 0.97871 0.51831 1.772 1.5002 1.5308h50.486c1.2557 0.01982 1.2151-1.6286 0.48968-2.2635-1.0838-1.4934-2.0869-3.062-3.2205-4.5089-1.0625-0.451-2.296-0.13781-3.436-0.23097-13.889-7e-6 -27.778 1.3e-5 -41.666-1e-5z" style="enable-background:new;fill:url(#linearGradient4430);stroke-dashoffset:.3612;stroke-linecap:square;stroke-width:.996;stroke:#a0a0a0"/>
 <path id="path3702" d="m10.893 53.5-2.8933 5.4998 31-7e-3 -0.88427-5.493h-27.222v1.41e-4zm28.107 0.49985 1 2h6l-1-2h-6zm7.5 0 1.5 4.9931h8l-2.4882-4.9931h-7.0118zm-4.2866 3.0157 0.15913 0.87888h-2.3725l0.5 1.0986h6.5l-0.5-1.0986h-1.9937l-0.25314-0.87888h-2.0398z" style="enable-background:new;fill-rule:evenodd;fill:#1e1e1e;opacity:.83105"/>
 <path id="path3704" d="m11 53-3 5h31l-1-5h-27zm28 2e-6 0.9783 2h6.047l-1.0253-2h-6zm7.5-2e-6 1.7152 5h7.7848l-3-5h-6.5zm-4.5 3 0.5 1h-2.5l0.5 1h6.5l-0.5-1h-2l-0.5-1h-2z" style="enable-background:new;fill-rule:evenodd;fill:url(#linearGradient3056)"/>
 <path id="rect6588" d="m6.9999 5.9841h50.01v10.803l-50.01 9.4527v-20.256z" style="fill:url(#linearGradient2995)"/>
 <rect id="rect6600" x="8.5002" y="7.5833" width="47.01" height="29.851" style="fill:none;opacity:.3;stroke-linecap:square;stroke:url(#radialGradient2992)"/>
 <path id="rect4584" d="m12.281 53c-1.06 0.56784 0.77666 1.7028 0.71875 0.44709 0.097902-0.49128-0.3951-0.46344-0.71875-0.44709zm2 0c-1.06 0.56784 0.77666 1.7028 0.71875 0.44709 0.097902-0.49128-0.3951-0.46344-0.71875-0.44709zm2 0c-1.06 0.56784 0.77666 1.7028 0.71875 0.44709 0.097902-0.49128-0.3951-0.46344-0.71875-0.44709zm2 0c-1.06 0.56784 0.77666 1.7028 0.71875 0.44709 0.097902-0.49128-0.3951-0.46344-0.71875-0.44709zm2 0c-1.06 0.56784 0.77666 1.7028 0.71875 0.44709 0.097902-0.49128-0.3951-0.46344-0.71875-0.44709zm2 0c-1.06 0.56784 0.77666 1.7028 0.71875 0.44709 0.097902-0.49128-0.3951-0.46344-0.71875-0.44709zm2 0c-1.06 0.56784 0.77666 1.7028 0.71875 0.44709 0.097902-0.49128-0.3951-0.46344-0.71875-0.44709zm2 0c-1.06 0.56784 0.77666 1.7028 0.71875 0.44709 0.097902-0.49128-0.3951-0.46344-0.71875-0.44709zm2 0c-1.06 0.56784 0.77666 1.7028 0.71875 0.44709 0.097902-0.49128-0.3951-0.46344-0.71875-0.44709zm2 0c-1.06 0.56784 0.77666 1.7028 0.71875 0.44709 0.097902-0.49128-0.3951-0.46344-0.71875-0.44709zm2 0c-1.06 0.56784 0.77666 1.7028 0.71875 0.44709 0.097902-0.49128-0.3951-0.46344-0.71875-0.44709zm2 0c-1.06 0.56784 0.77666 1.7028 0.71875 0.44709 0.097902-0.49128-0.3951-0.46344-0.71875-0.44709zm2 0c-1.06 0.56784 0.77666 1.7028 0.71875 0.44709 0.097902-0.49128-0.3951-0.46344-0.71875-0.44709zm4 0c-1.06 0.56784 0.77666 1.7028 0.71875 0.44709 0.097902-0.49128-0.3951-0.46344-0.71875-0.44709zm2 0c-1.06 0.56784 0.77666 1.7028 0.71875 0.44709 0.097902-0.49128-0.3951-0.46344-0.71875-0.44709zm2 0c-1.06 0.56784 0.77666 1.7028 0.71875 0.44709 0.097902-0.49128-0.3951-0.46344-0.71875-0.44709zm-33 1c-1.06 0.56784 0.77666 1.7028 0.71875 0.44709 0.097902-0.49128-0.3951-0.46344-0.71875-0.44709zm2 0c-1.06 0.56784 0.77666 1.7028 0.71875 0.44709 0.097902-0.49128-0.3951-0.46344-0.71875-0.44709zm2 0c-1.06 0.56784 0.77666 1.7028 0.71875 0.44709 0.097902-0.49128-0.3951-0.46344-0.71875-0.44709zm2 0c-1.06 0.56784 0.77666 1.7028 0.71875 0.44709 0.097902-0.49128-0.3951-0.46344-0.71875-0.44709zm2 0c-1.06 0.56784 0.77666 1.7028 0.71875 0.44709 0.097902-0.49128-0.3951-0.46344-0.71875-0.44709zm2 0c-1.06 0.56784 0.77666 1.7028 0.71875 0.44709 0.097902-0.49128-0.3951-0.46344-0.71875-0.44709zm2 0c-1.06 0.56784 0.77666 1.7028 0.71875 0.44709 0.097902-0.49128-0.3951-0.46344-0.71875-0.44709zm2 0c-1.06 0.56784 0.77666 1.7028 0.71875 0.44709 0.097902-0.49128-0.3951-0.46344-0.71875-0.44709zm2 0c-1.06 0.56784 0.77666 1.7028 0.71875 0.44709 0.097902-0.49128-0.3951-0.46344-0.71875-0.44709zm2 0c-1.06 0.56784 0.77666 1.7028 0.71875 0.44709 0.097902-0.49128-0.3951-0.46344-0.71875-0.44709zm2 0c-1.06 0.56784 0.77666 1.7028 0.71875 0.44709 0.097902-0.49128-0.3951-0.46344-0.71875-0.44709zm2 0c-1.06 0.56784 0.77666 1.7028 0.71875 0.44709 0.097902-0.49128-0.3951-0.46344-0.71875-0.44709zm2 0c-1.06 0.56784 0.77666 1.7028 0.71875 0.44709 0.097902-0.49128-0.3951-0.46344-0.71875-0.44709zm2 0c-1.06 0.56784 0.77666 1.7028 0.71875 0.44709 0.097902-0.49128-0.3951-0.46344-0.71875-0.44709zm4 0c-1.06 0.56784 0.77666 1.7028 0.71875 0.44709 0.097902-0.49128-0.3951-0.46344-0.71875-0.44709zm2 0c-1.06 0.56784 0.77666 1.7028 0.71875 0.44709 0.097902-0.49128-0.3951-0.46344-0.71875-0.44709zm5 0c-1.06 0.56784 0.77666 1.7028 0.71875 0.44709 0.097902-0.49128-0.3951-0.46344-0.71875-0.44709zm2 0c-1.06 0.56784 0.77666 1.7028 0.71875 0.44709 0.097902-0.49128-0.3951-0.46344-0.71875-0.44709zm2 0c-1.06 0.56784 0.77666 1.7028 0.71875 0.44709 0.097902-0.49128-0.3951-0.46344-0.71875-0.44709zm-42 1c-1.06 0.56784 0.77666 1.7028 0.71875 0.44709 0.097902-0.49128-0.3951-0.46344-0.71875-0.44709zm2 0c-1.06 0.56784 0.77666 1.7028 0.71875 0.44709 0.097902-0.49128-0.3951-0.46344-0.71875-0.44709zm2 0c-1.06 0.56784 0.77666 1.7028 0.71875 0.44709 0.097902-0.49128-0.3951-0.46344-0.71875-0.44709zm2 0c-1.06 0.56784 0.77666 1.7028 0.71875 0.44709 0.097902-0.49128-0.3951-0.46344-0.71875-0.44709zm2 0c-1.06 0.56784 0.77666 1.7028 0.71875 0.44709 0.097902-0.49128-0.3951-0.46344-0.71875-0.44709zm2 0c-1.06 0.56784 0.77666 1.7028 0.71875 0.44709 0.097902-0.49128-0.3951-0.46344-0.71875-0.44709zm2 0c-1.06 0.56784 0.77666 1.7028 0.71875 0.44709 0.097902-0.49128-0.3951-0.46344-0.71875-0.44709zm2 0c-1.06 0.56784 0.77666 1.7028 0.71875 0.44709 0.097902-0.49128-0.3951-0.46344-0.71875-0.44709zm2 0c-1.06 0.56784 0.77666 1.7028 0.71875 0.44709 0.097902-0.49128-0.3951-0.46344-0.71875-0.44709zm2 0c-1.06 0.56784 0.77666 1.7028 0.71875 0.44709 0.097902-0.49128-0.3951-0.46344-0.71875-0.44709zm2 0c-1.06 0.56784 0.77666 1.7028 0.71875 0.44709 0.097902-0.49128-0.3951-0.46344-0.71875-0.44709zm2 0c-1.06 0.56784 0.77666 1.7028 0.71875 0.44709 0.097902-0.49128-0.3951-0.46344-0.71875-0.44709zm2 0c-1.06 0.56784 0.77666 1.7028 0.71875 0.44709 0.097902-0.49128-0.3951-0.46344-0.71875-0.44709zm2 0c-1.06 0.56784 0.77666 1.7028 0.71875 0.44709 0.097902-0.49128-0.3951-0.46344-0.71875-0.44709zm13 0c-1.06 0.56784 0.77666 1.7028 0.71875 0.44709 0.097902-0.49128-0.3951-0.46344-0.71875-0.44709zm2 0c-1.06 0.56784 0.77666 1.7028 0.71875 0.44709 0.097902-0.49128-0.3951-0.46344-0.71875-0.44709zm2 0c-1.06 0.56784 0.77666 1.7028 0.71875 0.44709 0.097902-0.49128-0.3951-0.46344-0.71875-0.44709zm-44 1c-1.06 0.56784 0.77666 1.7028 0.71875 0.44709 0.097902-0.49128-0.3951-0.46344-0.71875-0.44709zm2 0c-1.06 0.56784 0.77666 1.7028 0.71875 0.44709 0.097902-0.49128-0.3951-0.46344-0.71875-0.44709zm2 0c-1.06 0.56784 0.77666 1.7028 0.71875 0.44709 0.097902-0.49128-0.3951-0.46344-0.71875-0.44709zm2 0c-1.06 0.56784 0.77666 1.7028 0.71875 0.44709 0.097902-0.49128-0.3951-0.46344-0.71875-0.44709zm2 0c-1.06 0.56784 0.77666 1.7028 0.71875 0.44709 0.097902-0.49128-0.3951-0.46344-0.71875-0.44709zm2 0c-1.06 0.56784 0.77666 1.7028 0.71875 0.44709 0.097902-0.49128-0.3951-0.46344-0.71875-0.44709zm2 0c-1.06 0.56784 0.77666 1.7028 0.71875 0.44709 0.097902-0.49128-0.3951-0.46344-0.71875-0.44709zm2 0c-1.06 0.56784 0.77666 1.7028 0.71875 0.44709 0.097902-0.49128-0.3951-0.46344-0.71875-0.44709zm2 0c-1.06 0.56784 0.77666 1.7028 0.71875 0.44709 0.097902-0.49128-0.3951-0.46344-0.71875-0.44709zm2 0c-1.06 0.56784 0.77666 1.7028 0.71875 0.44709 0.097902-0.49128-0.3951-0.46344-0.71875-0.44709zm2 0c-1.06 0.56784 0.77666 1.7028 0.71875 0.44709 0.097902-0.49128-0.3951-0.46344-0.71875-0.44709zm2 0c-1.06 0.56784 0.77666 1.7028 0.71875 0.44709 0.097902-0.49128-0.3951-0.46344-0.71875-0.44709zm2 0c-1.06 0.56784 0.77666 1.7028 0.71875 0.44709 0.097902-0.49128-0.3951-0.46344-0.71875-0.44709zm2 0c-1.06 0.56784 0.77666 1.7028 0.71875 0.44709 0.097902-0.49128-0.3951-0.46344-0.71875-0.44709zm2 0c-1.06 0.56784 0.77666 1.7028 0.71875 0.44709 0.097902-0.49128-0.3951-0.46344-0.71875-0.44709zm11 0c-1.06 0.56784 0.77666 1.7028 0.71875 0.44709 0.097902-0.49128-0.3951-0.46344-0.71875-0.44709zm2 0c-1.06 0.56784 0.77666 1.7028 0.71875 0.44709 0.097902-0.49128-0.3951-0.46344-0.71875-0.44709zm2 0c-1.06 0.56784 0.77666 1.7028 0.71875 0.44709 0.097902-0.49128-0.3951-0.46344-0.71875-0.44709zm-11 1c-1.06 0.56784 0.77666 1.7028 0.71875 0.44709 0.097902-0.49128-0.3951-0.46344-0.71875-0.44709zm2 0c-1.06 0.56784 0.77666 1.7028 0.71875 0.44709 0.097902-0.49128-0.3951-0.46344-0.71875-0.44709zm2 0c-1.06 0.56784 0.77666 1.7028 0.71875 0.44709 0.097902-0.49128-0.3951-0.46344-0.71875-0.44709z" style="enable-background:new;fill:url(#linearGradient4427);opacity:.5"/>
</svg>
