<?xml version="1.0" encoding="UTF-8"?>
<!-- Created with Inkscape (http://www.inkscape.org/) -->
<svg id="svg3338" width="64" height="64" version="1.0" xmlns="http://www.w3.org/2000/svg" xmlns:xlink="http://www.w3.org/1999/xlink">
 <defs id="defs3340">
  <linearGradient id="linearGradient2566" x1="302.86" x2="302.86" y1="366.65" y2="609.51" gradientTransform="matrix(.10181 0 0 .027451 -4.7966 43.268)" gradientUnits="userSpaceOnUse">
   <stop id="stop5050" style="stop-opacity:0" offset="0"/>
   <stop id="stop5056" offset=".5"/>
   <stop id="stop5052" style="stop-opacity:0" offset="1"/>
  </linearGradient>
  <radialGradient id="radialGradient2563" cx="605.71" cy="486.65" r="117.14" gradientTransform="matrix(.059797 0 0 .027451 20.519 43.268)" gradientUnits="userSpaceOnUse" xlink:href="#linearGradient5060"/>
  <radialGradient id="radialGradient2560" cx="605.71" cy="486.65" r="117.14" gradientTransform="matrix(-.059797 0 0 .027451 43.482 43.268)" gradientUnits="userSpaceOnUse" xlink:href="#linearGradient5060"/>
  <linearGradient id="linearGradient2557" x1="29.938" x2="30" y1="41" y2="50" gradientTransform="matrix(1.3574 0 0 1.0099 -7.3634 6.5518)" gradientUnits="userSpaceOnUse">
   <stop id="stop2223" style="stop-color:#7a7a7a" offset="0"/>
   <stop id="stop2219" style="stop-color:#474747" offset="1"/>
  </linearGradient>
  <linearGradient id="linearGradient2553" x1="17.814" x2="18.073" y1="29.797" y2="10" gradientTransform="matrix(1.3526 0 0 1.3653 -.46328 -2.8344)" gradientUnits="userSpaceOnUse">
   <stop id="stop3486" style="stop-color:#969696" offset="0"/>
   <stop id="stop3488" style="stop-color:#b4b4b4" offset="1"/>
  </linearGradient>
  <radialGradient id="radialGradient2551" cx="11.734" cy="8.49" r="23.048" gradientTransform="matrix(1.8622 .95185 -.63318 1.262 -.52977 -5.481)" gradientUnits="userSpaceOnUse">
   <stop id="stop7064" style="stop-color:#e6e6e6" offset="0"/>
   <stop id="stop7060" style="stop-color:#c8c8c8" offset="1"/>
  </radialGradient>
  <radialGradient id="radialGradient2547" cx="141.75" cy="206.43" r="78.728" gradientTransform="matrix(.47571 -.0069085 .0035207 .3975 -37.033 -36.799)" gradientUnits="userSpaceOnUse" xlink:href="#linearGradient4035"/>
  <radialGradient id="radialGradient2544" cx="142.62" cy="191.85" r="78.728" gradientTransform="matrix(.2466 0 0 -.17432 -4.1482 59.731)" gradientUnits="userSpaceOnUse">
   <stop id="stop7611" style="stop-color:#fff" offset="0"/>
   <stop id="stop7677" style="stop-color:#e7e7e7" offset=".47026"/>
   <stop id="stop7613" style="stop-color:#8c8c8c" offset=".67184"/>
   <stop id="stop7617" style="stop-color:#ddd" offset=".83543"/>
   <stop id="stop7615" style="stop-color:#a8a8a8" offset="1"/>
  </radialGradient>
  <radialGradient id="radialGradient2540" cx="113.07" cy="97.588" r="2.5631" fx="113.67" fy="98" gradientTransform="matrix(-.50343 0 0 .4878 62.921 -2.1034)" gradientUnits="userSpaceOnUse" xlink:href="#radialGradient4241"/>
  <radialGradient id="radialGradient2536" cx="113.07" cy="97.588" r="2.5631" fx="113.67" fy="98" gradientTransform="matrix(.37411 -.079296 .042139 .31499 -33.912 -8.7733)" gradientUnits="userSpaceOnUse" xlink:href="#radialGradient4241"/>
  <radialGradient id="radialGradient2532" cx="113.07" cy="97.588" r="2.5631" fx="113.67" fy="98" gradientTransform="matrix(.37825 .070564 -.038964 .3065 11.536 -24.903)" gradientUnits="userSpaceOnUse" xlink:href="#radialGradient4241"/>
  <linearGradient id="linearGradient5060">
   <stop id="stop5062" offset="0"/>
   <stop id="stop5064" style="stop-opacity:0" offset="1"/>
  </linearGradient>
  <linearGradient id="linearGradient2529" x1="7.0625" x2="24.688" y1="35.281" y2="35.281" gradientTransform="matrix(1.3801 0 0 1.2584 .92871 8.1011)" gradientUnits="userSpaceOnUse" xlink:href="#linearGradient5060"/>
  <linearGradient id="linearGradient2526" x1="12.277" x2="12.222" y1="37.206" y2="33.759" gradientTransform="matrix(1.3504 0 0 1.2464 -.08268 10.211)" gradientUnits="userSpaceOnUse">
   <stop id="stop4238" style="stop-color:#eee" offset="0"/>
   <stop id="stop4240" style="stop-color:#eee;stop-opacity:0" offset="1"/>
  </linearGradient>
  <linearGradient id="linearGradient4035">
   <stop id="stop4037" style="stop-color:#f5f5f5" offset="0"/>
   <stop id="stop4039" style="stop-color:#e7e7e7" offset=".47026"/>
   <stop id="stop4041" style="stop-color:#8c8c8c" offset=".69349"/>
   <stop id="stop4043" style="stop-color:#ddd" offset=".83543"/>
   <stop id="stop4045" style="stop-color:#a8a8a8" offset="1"/>
  </linearGradient>
  <radialGradient id="radialGradient2523" cx="127.32" cy="143.83" r="78.728" gradientTransform="matrix(.25406 -.035794 .008258 .14391 -9.9162 3.6124)" gradientUnits="userSpaceOnUse" xlink:href="#linearGradient4035"/>
  <radialGradient id="radialGradient4241" cx="113.07" cy="97.588" r="2.5631" fx="113.67" fy="98" gradientUnits="userSpaceOnUse">
   <stop id="stop4243" style="stop-color:#eee" offset="0"/>
   <stop id="stop4245" style="stop-color:#cecece" offset=".16"/>
   <stop id="stop4247" style="stop-color:#888" offset=".4675"/>
   <stop id="stop4249" style="stop-color:#555" offset="1"/>
  </radialGradient>
  <radialGradient id="radialGradient2519" cx="113.07" cy="97.588" r="2.5631" fx="113.67" fy="98" gradientTransform="matrix(.50343 0 0 .4878 1.0794 -2.1034)" gradientUnits="userSpaceOnUse" xlink:href="#radialGradient4241"/>
  <radialGradient id="radialGradient2516" cx="24" cy="42" r="21" gradientTransform="matrix(1.3526 -1.4521e-8 3.762e-8 .48686 -.46328 31.949)" gradientUnits="userSpaceOnUse">
   <stop id="stop6312-6" style="stop-color:#fff" offset="0"/>
   <stop id="stop6314-6" style="stop-color:#fff;stop-opacity:0" offset="1"/>
  </radialGradient>
 </defs>
 <g id="layer1">
  <rect id="rect2723" x="7.4204" y="53.333" width="49.159" height="6.6667" style="fill:url(#linearGradient2566);opacity:.3"/>
  <path id="path2725" d="m56.556 53.334v6.6663c3.0794 0.012552 7.4444-1.4936 7.4444-3.3336s-3.4363-3.3327-7.4444-3.3327z" style="fill:url(#radialGradient2563);opacity:.3"/>
  <path id="path2727" d="m7.4444 53.334v6.6663c-3.0794 0.012552-7.4444-1.4936-7.4444-3.3336s3.4364-3.3327 7.4444-3.3327z" style="fill:url(#radialGradient2560);opacity:.3"/>
  <path id="rect6431" d="m1.464 48.464h61.072l-1.2211 8.072h-58.494l-1.3569-8.072v0z" style="enable-background:new;fill-rule:evenodd;fill:url(#linearGradient2557);stroke-linecap:round;stroke-linejoin:round;stroke-width:.928;stroke:#353537"/>
  <rect id="rect6381" x="1.5657" y="47.626" width="60.869" height="1.3632" style="enable-background:new;fill-rule:evenodd;fill:#d2d2d3"/>
  <path id="path6345" d="m62.502 48.502-9.211-35.189c-0.26046-1.0021-1.6248-1.8156-2.7718-1.8156h-37.356c-1.7621 0-2.7719 0.2711-3.1435 1.8156l-8.5216 35.154" style="fill:url(#radialGradient2551);stroke-linecap:round;stroke-linejoin:round;stroke-width:.99578;stroke:url(#linearGradient2553)"/>
  <path id="path7046" d="m61.5 48.516-59-0.031746" style="fill:none;opacity:.4;stroke-linecap:round;stroke:#fff"/>
  <path id="path9001" d="m54.961 32.764c-0.29451-2.7472-2.2682-5.3668-5.5476-7.4339-0.065968-0.79456-0.90654-10.959-0.90654-10.959-0.064426-0.78136-1.0441-1.3711-2.2797-1.3711h-7.7541c-1.2445 0-2.2065 0.59747-2.2379 1.3897-0.14229 3.5794-4.481 5.4483-10.953 7.1484-2.2677 0.39922-8.1799 2.2758-9.5368 3.0995-3.9945 2.1637-6.3767 5.0483-6.7068 8.1264-0.30027 2.7996 1.143 5.6011 4.0641 7.8886 4.2754 3.3482 11.339 5.3474 18.897 5.3474 7.5574 0 14.621-1.9992 18.897-5.3474 2.6679-2.0888 4.1028-4.6072 4.1028-7.1608 0-0.2425-0.013948-0.48536-0.038776-0.72784h7.7e-5zm-22.961 11.847c-12.587 0-22.225-5.6104-21.528-12.114 0.3008-2.8039 2.5088-5.797 6.1654-7.7695 0.68475-0.52454 6.869-2.5649 9.0875-2.9234 6.1487-1.6116 11.772-3.7032 11.948-8.1109 0.007712-0.21106 0.36199-0.37827 0.80088-0.37827h7.753c0.44882 0 0.82759 0.17536 0.84537 0.39185l0.94157 11.388c3.259 1.9193 5.2337 4.784 5.5141 7.4025 0.69782 6.5035-8.9405 12.114-21.528 12.114z" style="fill:url(#radialGradient2547)"/>
  <path id="path9003" d="m32 37c-4.4866 0-7.9261-1.6895-7.9986-3.9304-5.7e-4 -0.024233-0.001128-0.048051-0.001128-0.071869 0-0.8109 0.4508-1.5821 1.3074-2.2351 1.4491-1.1038 3.9509-1.7626 6.6928-1.7626 2.7413 0 5.2432 0.65884 6.6923 1.7626 0.88192 0.67136 1.3339 1.4693 1.3063 2.3065-0.073654 2.2409-3.5131 3.9308-7.9991 3.9308v4e-6 3e-6zm0-6.7462c-4.2157 0-6.3635 1.6744-6.3129 3.2031 0.048893 1.5048 2.8751 2.7072 6.3129 2.7072s6.2639-1.2028 6.3128-2.7072c0.049987-1.5291-2.0972-3.2031-6.3128-3.2031z" style="fill:url(#radialGradient2544)"/>
  <path id="path9007" d="m7.9967 45.493c-0.063433 0.83024-1.0134 1.5073-2.1209 1.5073-1.107 0-1.9452-0.67707-1.8712-1.5073 0.073501-0.82586 1.023-1.4927 2.1194-1.4927 1.097 3.91e-4 1.9352 0.66683 1.8728 1.4927z" style="fill:#e1e1e1"/>
  <path id="path9009" d="m7.2803 44.909c0.10119 0.10536 0.21698 0.27415 0.21698 0.49854 0 0.016111-0.0010087 0.032192-0.0020168 0.049277-0.0438 0.57219-0.78535 1.0556-1.619 1.0556-0.47473 0-0.90869-0.15854-1.1604-0.42488-0.10824-0.11366-0.23158-0.30195-0.20943-0.55268 0.050846-0.56732 0.79139-1.0468 1.618-1.0468 0.47121 3.9e-4 0.90365 0.15756 1.1559 0.42097h4.1e-6l-5e-7 -7e-6z" style="fill:url(#radialGradient2540)"/>
  <path id="path9019" d="m11.016 13.31c0.11886 0.52612 0.8833 0.8137 1.7064 0.63925 0.82267-0.17437 1.3871-0.74361 1.2604-1.2681-0.12597-0.5217-0.88915-0.80274-1.704-0.63004-0.81516 0.17304-1.3805 0.73541-1.2628 1.2589z" style="fill:#f0f0f0"/>
  <path id="path9021" d="m11.497 12.82c-0.066096 0.083981-0.13756 0.2112-0.11818 0.3561 0.001392 0.010354 0.003527 0.020709 0.00576 0.031488 0.081978 0.36258 0.67481 0.55794 1.2943 0.42662 0.35279-0.074768 0.66158-0.2455 0.82562-0.45713 0.070616-0.09045 0.146-0.23146 0.10789-0.38987-0.0868-0.35833-0.67854-0.55132-1.2928-0.42111-0.35014 0.074475-0.65792 0.24408-0.8226 0.4539l-2e-6 2e-6 -5e-6 9e-6z" style="fill:url(#radialGradient2536)"/>
  <path id="path9025" d="m49 12.701c-0.018648 0.53056 0.64101 1.0891 1.4732 1.2444 0.83176 0.15517 1.5156-0.15277 1.5263-0.6848 0.010671-0.52921-0.64937-1.0813-1.4732-1.235-0.82423-0.15351-1.5072 0.14774-1.5263 0.67539z" style="fill:#e1e1e1"/>
  <path id="path9027" d="m49.585 12.435c-0.084446 0.052011-0.18492 0.14184-0.20284 0.28283-0.001287 0.010053-0.001863 0.020312-0.002372 0.031247-0.012871 0.36566 0.50575 0.77335 1.1321 0.8902 0.35668 0.066538 0.6954 0.02776 0.90579-0.10431 0.090406-0.056237 0.19811-0.15726 0.2015-0.31791 0.007113-0.36359-0.51098-0.76868-1.1321-0.88454-0.35407-0.065798-0.69154-0.027655-0.90208 0.1025l-4e-6 -4e-6 -4.7e-5 -1.8e-5z" style="fill:url(#radialGradient2532)"/>
  <path id="rect8993" d="m10 49h25v7h-24.324l-0.67569-7z" style="fill-rule:evenodd;fill:url(#linearGradient2529)"/>
  <path id="path8995" d="m10.529 56-0.52892-5c2.4787 3.9627 11.733 5 18 5h-17.471z" style="fill-rule:evenodd;fill:url(#linearGradient2526);opacity:.81143"/>
  <path id="path9039" d="m14.542 13-0.1377 0.5443-2.0557 8.1013-0.34874 1.3544 1.0187-0.29114 17.326-5.0633 0.055026-0.0253 0.045894-0.0253c0.91751-0.50622 1.4078-1.5292 1.5234-2.4684 0.057867-0.46958 0.04052-0.92939-0.11005-1.3544-0.14219-0.40125-0.51237-0.75825-0.89936-0.74684v-0.025301h-0.064279-15.941-0.41297l4.4e-5 1e-6 -9e-6 -5.1e-5zm0.58645 0.50054h15.969c0.007467 0.068385 0.025412 0.10633 0.008933 0.23571-0.050093 0.40717-0.26559 1.8639-0.80699 2.1816l-16.795 4.9107 1.6235-7.328h5.21e-4l9.8e-5 -3e-6z" style="fill:url(#radialGradient2523)"/>
  <path id="path9091" d="m56.003 45.493c0.063435 0.83024 1.0134 1.5073 2.1209 1.5073 1.107 0 1.9452-0.67707 1.8712-1.5073-0.073509-0.82586-1.023-1.4927-2.1194-1.4927-1.097 3.91e-4 -1.9352 0.66683-1.8728 1.4927z" style="fill:#e1e1e1"/>
  <path id="path9093" d="m56.72 44.909c-0.10119 0.10536-0.21698 0.27415-0.21698 0.49854 0 0.016111 0.001008 0.032192 0.001986 0.049277 0.043805 0.57219 0.78535 1.0556 1.619 1.0556 0.47473 0 0.90869-0.15854 1.1604-0.42488 0.10824-0.11366 0.23158-0.30195 0.20943-0.55268-0.050848-0.56732-0.79139-1.0468-1.618-1.0468-0.47121 3.9e-4 -0.90365 0.15756-1.1559 0.42097h-3e-6l3.3e-5 -7e-6z" style="fill:url(#radialGradient2519)"/>
  <rect id="rect6300-3" x="3.5946" y="48.99" width="56.811" height="6.8161" style="fill:url(#radialGradient2516);opacity:.3"/>
 </g>
</svg>
