<?xml version="1.0" encoding="UTF-8" standalone="no"?>
<!-- Created with Inkscape (http://www.inkscape.org/) -->

<svg
   xmlns:dc="http://purl.org/dc/elements/1.1/"
   xmlns:cc="http://creativecommons.org/ns#"
   xmlns:rdf="http://www.w3.org/1999/02/22-rdf-syntax-ns#"
   xmlns:svg="http://www.w3.org/2000/svg"
   xmlns="http://www.w3.org/2000/svg"
   xmlns:sodipodi="http://sodipodi.sourceforge.net/DTD/sodipodi-0.dtd"
   xmlns:inkscape="http://www.inkscape.org/namespaces/inkscape"
   id="svg3164"
   version="1.1"
   inkscape:version="0.92.1 unknown"
   width="22"
   height="22"
   sodipodi:docname="twitch-mate.svg"
   inkscape:export-filename="/home/terzag/Boulot/icones &amp; interface/MATE-COLORS/Ambiant/status/22/twitch-mate.png"
   inkscape:export-xdpi="96"
   inkscape:export-ydpi="96">
  <metadata
     id="metadata3170">
    <rdf:RDF>
      <cc:Work
         rdf:about="">
        <dc:format>image/svg+xml</dc:format>
        <dc:type
           rdf:resource="http://purl.org/dc/dcmitype/StillImage" />
        <dc:title></dc:title>
      </cc:Work>
    </rdf:RDF>
  </metadata>
  <defs
     id="defs3168" />
  <sodipodi:namedview
     pagecolor="#ffffff"
     bordercolor="#666666"
     borderopacity="1"
     objecttolerance="10"
     gridtolerance="10"
     guidetolerance="10"
     inkscape:pageopacity="0"
     inkscape:pageshadow="2"
     inkscape:window-width="1920"
     inkscape:window-height="1028"
     id="namedview3166"
     showgrid="false"
     inkscape:zoom="20"
     inkscape:cx="0.9516809"
     inkscape:cy="5.5117025"
     inkscape:window-x="0"
     inkscape:window-y="0"
     inkscape:window-maximized="1"
     inkscape:current-layer="svg3164"
     showguides="true"
     inkscape:guide-bbox="true">
    <sodipodi:guide
       orientation="1,0"
       position="0.99436891,16.241359"
       id="guide3079"
       inkscape:locked="false" />
    <sodipodi:guide
       orientation="1,0"
       position="15.003922,18.119611"
       id="guide3081"
       inkscape:locked="false" />
    <sodipodi:guide
       orientation="0,1"
       position="9.6122328,15.003922"
       id="guide3083"
       inkscape:locked="false" />
    <sodipodi:guide
       orientation="0,1"
       position="4.7950679,0.99436891"
       id="guide3085"
       inkscape:locked="false" />
  </sodipodi:namedview>
  <path
     sodipodi:nodetypes="ccccccccccccccccccccccccccccccccccccccc"
     inkscape:connector-curvature="0"
     id="path3727"
     d="M 3.2282353,3 2.5929411,4.496628 2,5.95281 v 6.310111 6.147311 H 4.3294116 6.6588233 V 19.786516 21 H 7.8447058 9.030588 l 1.270588,-1.213484 1.270588,-1.376284 h 1.778824 1.821176 L 17.585881,16.104612 20,13.961798 V 8.501124 3 H 11.614117 Z M 7.6624745,6.8831451 H 9.3174533 10.206865 V 9.755058 13.936296 H 9.3174533 7.6624745 V 9.755058 Z m 5.5058825,0 h 1.654979 0.931765 V 9.755058 13.936296 H 14.823336 13.168357 V 9.755058 Z"
     style="fill:#000000;fill-opacity:0.29803922;stroke-width:1.53856504" />
  <path
     style="fill:#dfdbd2;fill-opacity:1;stroke-width:1.53856504"
     d="M 3.2282353,2 2.5929411,3.496628 2,4.95281 v 6.310111 6.147311 H 4.3294116 6.6588233 V 18.786516 20 H 7.8447058 9.030588 l 1.270588,-1.213484 1.270588,-1.376284 h 1.778824 1.821176 L 17.585881,15.104612 20,12.961798 V 7.501124 2 H 11.614117 Z M 7.6624745,5.8831451 H 9.3174533 10.206865 V 8.755058 12.936296 H 9.3174533 7.6624745 V 8.755058 Z m 5.5058825,0 h 1.654979 0.931765 V 8.755058 12.936296 H 14.823336 13.168357 V 8.755058 Z"
     id="path3194"
     inkscape:connector-curvature="0"
     sodipodi:nodetypes="ccccccccccccccccccccccccccccccccccccccc" />
</svg>
