<?xml version="1.0" encoding="UTF-8"?>
<!-- Created with Inkscape (http://www.inkscape.org/) -->
<svg id="svg3951" width="16" height="16" version="1.1" xmlns="http://www.w3.org/2000/svg" xmlns:cc="http://creativecommons.org/ns#" xmlns:dc="http://purl.org/dc/elements/1.1/" xmlns:rdf="http://www.w3.org/1999/02/22-rdf-syntax-ns#">
 <metadata id="metadata3956">
  <rdf:RDF>
   <cc:Work rdf:about="">
    <dc:format>image/svg+xml</dc:format>
    <dc:type rdf:resource="http://purl.org/dc/dcmitype/StillImage"/>
    <dc:title/>
   </cc:Work>
  </rdf:RDF>
 </metadata>
 <g id="layer1" transform="translate(0 -1036.4)">
  <path id="path4561" d="m8 1037.4c-2.7496 0-5 2.2504-5 5 0 1.5862 0.84459 2.9034 2 3.8125v2.1875 1h1 4 1v-1-2.1875c1.1554-0.9091 2-2.2263 2-3.8125 0-2.7496-2.2504-5-5-5zm0 2c1.6687 0 3 1.3313 3 3 0 1.1159-0.59507 2.0379-1.5 2.5625l-0.5 0.3125v0.5625 1.5625h-2v-1.5625-0.5625l-0.5-0.3125c-0.90493-0.5246-1.5-1.4466-1.5-2.5625 0-1.6687 1.3313-3 3-3z" style="block-progression:tb;color:#000000;fill:#bebebe;text-indent:0;text-transform:none"/>
  <path id="path4488-4-4" d="m7 1042.4v1h2v-1h-2z" style="block-progression:tb;color:#000000;fill:#bebebe;opacity:.35;text-indent:0;text-transform:none"/>
  <rect id="rect4033" x="6" y="1050.4" width="4" height="1" style="fill:#babdb6"/>
 </g>
</svg>
