<?xml version="1.0" encoding="UTF-8"?>
<!-- Created with Inkscape (http://www.inkscape.org/) -->
<svg id="svg2" width="16" height="16" version="1.1" xmlns="http://www.w3.org/2000/svg" xmlns:cc="http://creativecommons.org/ns#" xmlns:dc="http://purl.org/dc/elements/1.1/" xmlns:rdf="http://www.w3.org/1999/02/22-rdf-syntax-ns#">
 <metadata id="metadata7">
  <rdf:RDF>
   <cc:Work rdf:about="">
    <dc:format>image/svg+xml</dc:format>
    <dc:type rdf:resource="http://purl.org/dc/dcmitype/StillImage"/>
    <dc:title/>
   </cc:Work>
  </rdf:RDF>
 </metadata>
 <g id="layer1" transform="translate(0 -1036.4)">
  <g id="g11497-6-7" transform="translate(-86 649.36)">
   <path id="rect10727-3-4" d="m48 398h16v16h-16z" style="color:#bebebe;fill:none;opacity:.51464"/>
   <path id="path4387" d="m41.906 398.97c-0.51032 0.0397-0.94644 0.51947-0.9375 1.0312v13c-0.0079 0.54208 0.48917 1.0391 1.0312 1.0312h10c0.54208 8e-3 1.0391-0.48917 1.0312-1.0312v-10c-0.0039-0.26817-0.11902-0.53303-0.3125-0.71875l-3-3c-0.18572-0.19348-0.45058-0.30864-0.71875-0.3125h-7c-0.03123-1e-3 -0.06252-1e-3 -0.09375 0zm6.5938 1.0312c0.277 0 0.5 0.223 0.5 0.5v2.5h2.5c0.277 0 0.5 0.223 0.5 0.5s-0.223 0.5-0.5 0.5h-3c-0.277 0-0.5-0.223-0.5-0.5v-3c0-0.277 0.223-0.5 0.5-0.5z" style="color:#bebebe;fill:#bebebe"/>
   <path id="path3054" transform="translate(86,387)" d="m-44.094 11.969c-0.51032 0.0397-0.94644 0.51947-0.9375 1.0312v13c-0.0079 0.54208 0.48917 1.0391 1.0312 1.0312h10c0.54208 8e-3 1.0391-0.48917 1.0312-1.0312v-10c-0.0039-0.26817-0.11902-0.53303-0.3125-0.71875l-3-3c-0.18572-0.19348-0.45058-0.30864-0.71875-0.3125h-7c-0.03123-1e-3 -0.06252-1e-3 -0.09375 0zm1.5938 3.0312h6v1h-3.5c0.277 0 0.5 0.223 0.5 0.5v2.5h2.5c0.277 0 0.5 0.223 0.5 0.5s-0.223 0.5-0.5 0.5h-3c-0.277 0-0.5-0.223-0.5-0.5v-3c0-0.277 0.223-0.5 0.5-0.5h-2.5v-1z" style="color:#bebebe;fill:#bebebe"/>
  </g>
  <path id="rect2987" d="m25 1070.4h12v-13h-12zm1-12h10v11h-10z" style="block-progression:tb;color:#000000;fill:#888a85;text-indent:0;text-transform:none"/>
  <path id="path3774" d="m27 1060.4h0.99998 1.7e-5l1.7e-5 1h-1.7e-5 -0.99998-1.7e-5l-1.7e-5 -1z" style="fill:#888a85"/>
  <path id="path2990" d="m29 1063.4h6 1.7e-5l1.7e-5 0.9999-1.7e-5 1e-4h-6-1.7e-5l-1.7e-5 -1z" style="fill:#888a85"/>
  <path id="path2992" d="m29 1066.4h6 1.7e-5l1.7e-5 0.9999-1.7e-5 1e-4h-6-1.7e-5l-1.7e-5 -1z" style="fill:#888a85"/>
  <path id="path2994" d="m27 1063.4h0.99998 1.7e-5l1.7e-5 1h-1.7e-5 -0.99998-1.7e-5l-1.7e-5 -1z" style="fill:#888a85"/>
  <path id="path2996" d="m27 1066.4h0.99998 1.7e-5l1.7e-5 1h-1.7e-5 -0.99998-1.7e-5l-1.7e-5 -1z" style="fill:#888a85"/>
  <path id="rect3096" transform="translate(0 1036.4)" d="m2 2v13h12v-11l-2-2zm2 2h7l1 1v8h-8z" style="fill:#babdb6"/>
 </g>
</svg>
