<?xml version="1.0" encoding="UTF-8"?>
<!-- Created with Inkscape (http://www.inkscape.org/) -->
<svg id="svg3341" width="24" height="24" version="1.0" xmlns="http://www.w3.org/2000/svg">
 <g id="layer1">
  <path id="path3339" d="m12 2c-5.515 0-10 4.485-10 10 0 5.515 4.485 10 10 10 5.515 0 10-4.485 10-10 0-5.515-4.485-10-10-10zm-2.125 5.5312c-0.0097671 0.083561-0.09375 0.13273-0.09375 0.21875 0 0.29914 0.20516 0.51686 0.3125 0.78125l-1.375-0.21875c0.34734-0.3086 0.73166-0.57883 1.1562-0.78125zm4.4375 0.125c0.34672 0.18527 0.6775 0.39748 0.96875 0.65625l-1.25 0.1875c0.10042-0.25681 0.3125-0.46116 0.3125-0.75 0-0.035638-0.029545-0.058509-0.03125-0.09375zm-7.0625 3.1562 2.4062 0.75-0.03125 1.5-0.8125 2.4688c-1.0229-0.90218-1.8125-2.0568-1.8125-3.5312 0-0.42374 0.15159-0.79523 0.25-1.1875zm9.5 0.03125c0.093657 0.3833 0.25 0.74319 0.25 1.1562 0 1.5045-0.70422 2.8057-1.75 3.7188l-0.84375-2.6562-0.03125-1.375 2.375-0.84375zm-4.75 4.8125 0.59375 1.2188c-0.20476 0.02536-0.38188 0.125-0.59375 0.125-0.20867 0-0.39077-0.12619-0.59375-0.15625l0.59375-1.1875z" style="fill-rule:evenodd;fill:#eae3d0;opacity:.6"/>
  <path id="path3157" d="m12 3c-4.968 0-9 4.032-9 9s4.032 9 9 9 9-4.032 9-9-4.032-9-9-9zm0 3c3.312 0 6 2.688 6 6s-2.688 6-6 6-6-2.688-6-6 2.688-6 6-6zm0.0625 0.5c-0.71302 0-1.2812 0.55471-1.2812 1.25 0 0.69529 0.56823 1.2812 1.2812 1.2812 0.71302 0 1.2812-0.58596 1.2812-1.2812 0-0.69529-0.56823-1.25-1.2812-1.25zm-4.6562 2.5938c-0.0699-0.0085897-0.12412 0.0014661-0.1875 0.03125-0.12676 0.059567-0.217 0.17815-0.21875 0.3125-0.0015989 0.13437 0.093565 0.24998 0.21875 0.3125l3.4375 1.0625-0.03125 2.4688-1.2188 3.6562c-0.11687 0.16654-0.081546 0.35772 0.09375 0.46875 0.1753 0.11105 0.44562 0.072813 0.5625-0.09375l1.9375-3.9375 1.9375 3.9375c0.10389 0.17274 0.3182 0.22371 0.5 0.125 0.1818-0.098706 0.26013-0.29601 0.15625-0.46875l-1.1875-3.6875-0.0625-2.2812 3.5-1.25c0.1409-0.093876 0.18602-0.28465 0.125-0.4375-0.061027-0.15287-0.23528-0.23727-0.40625-0.21875-0.059745 0.0094396-0.10787 0.027887-0.15625 0.0625l-4.4062 0.6875-4.375-0.6875c-0.056722-0.040117-0.14885-0.05391-0.21875-0.0625z" style="fill-rule:evenodd;fill:#3a3935"/>
 </g>
</svg>
