<?xml version="1.0" encoding="UTF-8"?>
<!-- Created with Inkscape (http://www.inkscape.org/) -->
<svg id="svg4813" width="64" height="64" version="1.1" xmlns="http://www.w3.org/2000/svg" xmlns:cc="http://creativecommons.org/ns#" xmlns:dc="http://purl.org/dc/elements/1.1/" xmlns:rdf="http://www.w3.org/1999/02/22-rdf-syntax-ns#" xmlns:xlink="http://www.w3.org/1999/xlink">
 <metadata id="metadata69">
  <rdf:RDF>
   <cc:Work rdf:about="">
    <dc:format>image/svg+xml</dc:format>
    <dc:type rdf:resource="http://purl.org/dc/dcmitype/StillImage"/>
    <dc:title/>
   </cc:Work>
  </rdf:RDF>
 </metadata>
 <defs id="defs4815">
  <linearGradient id="linearGradient3680-6">
   <stop id="stop3682-4" style="stop-color:#dcdcdc" offset="0"/>
   <stop id="stop3684-8" style="stop-color:#fff" offset="1"/>
  </linearGradient>
  <linearGradient id="linearGradient5060-6-6-5">
   <stop id="stop5062-3-0-3" offset="0"/>
   <stop id="stop5064-1-4-9" style="stop-opacity:0" offset="1"/>
  </linearGradient>
  <linearGradient id="linearGradient3652" x1="16.143" x2="16.143" y1="4" y2="44" gradientTransform="matrix(1.2052 0 0 .94879 3.0752 12.229)" gradientUnits="userSpaceOnUse">
   <stop id="stop2225-6-4-7-2" style="stop-color:#fff" offset="0"/>
   <stop id="stop2229-2-5-5-8" style="stop-color:#fff;stop-opacity:0" offset="1"/>
  </linearGradient>
  <linearGradient id="linearGradient3655" x1="16.626" x2="20.055" y1="15.298" y2="24.628" gradientTransform="matrix(1.2626 0 0 1.3398 1.698 3.0028)" gradientUnits="userSpaceOnUse">
   <stop id="stop2687-1-9-0-2" style="stop-color:#fff" offset="0"/>
   <stop id="stop2689-5-4-3-1" style="stop-color:#fff;stop-opacity:0" offset="1"/>
  </linearGradient>
  <linearGradient id="linearGradient3658" x1="16" x2="16" y1="27.045" y2="16" gradientTransform="matrix(1.3714 0 0 1.3636 -1.7143 -.81819)" gradientUnits="userSpaceOnUse" xlink:href="#linearGradient3680-6"/>
  <linearGradient id="linearGradient3662" x1="20" x2="20" y1="28" y2="26" gradientTransform="matrix(1.375 0 0 1.5 -.75001 -3)" gradientUnits="userSpaceOnUse" xlink:href="#linearGradient3680-6"/>
  <linearGradient id="linearGradient3666" x1="12.579" x2="12.213" y1="2.9165" y2="47.279" gradientTransform="matrix(1.2655 0 0 1.2039 1.6269 7.3166)" gradientUnits="userSpaceOnUse">
   <stop id="stop2240-1-6-7-0" style="stop-color:#fff" offset="0"/>
   <stop id="stop2242-7-3-7-2" style="stop-color:#fff;stop-opacity:0" offset="1"/>
  </linearGradient>
  <linearGradient id="linearGradient3669" x1="23.071" x2="23.071" y1="36.047" y2="33.296" gradientTransform="matrix(1.296 0 0 1.3378 .90331 8.2994)" gradientUnits="userSpaceOnUse">
   <stop id="stop2225-6-4-7" style="stop-color:#fff" offset="0"/>
   <stop id="stop2229-2-5-5" style="stop-color:#fff;stop-opacity:0" offset="1"/>
  </linearGradient>
  <radialGradient id="radialGradient3672" cx="7.4957" cy="8.4498" r="20" gradientTransform="matrix(0 2.2999 -3.8677 -9.7048e-8 64.681 -1.1584)" gradientUnits="userSpaceOnUse">
   <stop id="stop3790-0-0" style="stop-color:#505050" offset="0"/>
   <stop id="stop3792-0-2" style="stop-color:#141414" offset="1"/>
  </radialGradient>
  <linearGradient id="linearGradient3674" x1="16.143" x2="16.143" y1="4" y2="44" gradientTransform="matrix(1.2565 0 0 1.0001 1.8444 10.998)" gradientUnits="userSpaceOnUse">
   <stop id="stop3796-3-0" style="stop-color:#323232" offset="0"/>
   <stop id="stop3798-8-6" offset="1"/>
  </linearGradient>
  <linearGradient id="linearGradient3677" x1="24" x2="24" y1="7.96" y2="43.865" gradientTransform="matrix(1.3111 0 0 1.3243 .53297 .56708)" gradientUnits="userSpaceOnUse">
   <stop id="stop4324-9-7" style="stop-color:#f0f0f0" offset="0"/>
   <stop id="stop2860-4-4" style="stop-color:#d7d7d8" offset=".085525"/>
   <stop id="stop2862-5-9" style="stop-color:#b2b2b3" offset=".92166"/>
   <stop id="stop4326-1-1" style="stop-color:#979798" offset="1"/>
  </linearGradient>
  <linearGradient id="linearGradient3679" x1="10.014" x2="10.014" y1="44.96" y2="2.8765" gradientTransform="matrix(1.2553 0 0 1.1965 1.8719 6.2692)" gradientUnits="userSpaceOnUse">
   <stop id="stop4334-7-6" style="stop-color:#595959" offset="0"/>
   <stop id="stop4336-8-0" style="stop-color:#b3b3b3" offset="1"/>
  </linearGradient>
  <radialGradient id="radialGradient3682" cx="605.71" cy="486.65" r="117.14" gradientTransform="matrix(-.08745 0 0 .032941 63.59 42.589)" gradientUnits="userSpaceOnUse" xlink:href="#linearGradient5060-6-6-5"/>
  <radialGradient id="radialGradient3685" cx="605.71" cy="486.65" r="117.14" gradientTransform="matrix(.08745 0 0 .032941 .41038 42.589)" gradientUnits="userSpaceOnUse" xlink:href="#linearGradient5060-6-6-5"/>
  <linearGradient id="linearGradient3688" x1="302.86" x2="302.86" y1="366.65" y2="609.51" gradientTransform="matrix(.08745 0 0 .032941 .39317 42.589)" gradientUnits="userSpaceOnUse">
   <stop id="stop5050-5-6-4" style="stop-opacity:0" offset="0"/>
   <stop id="stop5056-9-0-1" offset=".5"/>
   <stop id="stop5052-6-9-5" style="stop-opacity:0" offset="1"/>
  </linearGradient>
 </defs>
 <rect id="rect2512-9-5" x="10.887" y="54.667" width="42.226" height="8" style="fill:url(#linearGradient3688);opacity:.40206"/>
 <path id="path2514-7-4" d="m53.113 54.667v7.9996c4.5034 0.01505 10.887-1.7923 10.887-4.0003 0-2.208-5.0255-3.9993-10.887-3.9993z" style="fill:url(#radialGradient3685);opacity:.40206"/>
 <path id="path2516-8-9" d="m10.887 54.667v7.9996c-4.5034 0.015054-10.887-1.7923-10.887-4.0003 0-2.208 5.0255-3.9993 10.887-3.9993z" style="fill:url(#radialGradient3682);opacity:.40206"/>
 <rect id="rect2551-5-8" x="2.5011" y="10.501" width="58.998" height="48.998" rx="1.4989" ry="1.4989" style="fill-rule:evenodd;fill:url(#linearGradient3677);stroke-linecap:round;stroke-linejoin:round;stroke-width:1.0021;stroke:url(#linearGradient3679)"/>
 <rect id="rect1314-3-3" x="7.5" y="15.5" width="49" height="39" rx="0" ry="0" style="color:#000000;fill:url(#radialGradient3672);stroke-linecap:round;stroke-linejoin:round;stroke:url(#linearGradient3674)"/>
 <rect id="rect2221-3-8" x="6.5011" y="14.501" width="50.998" height="40.998" rx="0" ry="0" style="fill:none;opacity:.4;stroke-linecap:round;stroke-linejoin:round;stroke-width:1.0021;stroke:url(#linearGradient3669)"/>
 <rect id="rect2556-8-5" x="3.5019" y="11.502" width="56.996" height="46.996" rx=".49813" ry=".49813" style="fill:none;opacity:.8;stroke-linecap:round;stroke-linejoin:round;stroke-width:1.0037;stroke:url(#linearGradient3666)"/>
 <path id="path3651-7-2" d="m35 40v-3h-11v3h11z" style="opacity:.4"/>
 <path id="path3651-2" d="m35 39v-3h-11v3h11z" style="fill:url(#linearGradient3662)"/>
 <path id="path3653-3-2" d="m14.743 37-2.7429-2.7273 6.1714-4.7727-6.1714-4.7727 2.7429-2.7273 9.2571 7.5-9.2571 7.5z" style="opacity:.4"/>
 <path id="path3653-7" d="m14.743 36-2.7429-2.7273 6.1714-4.7727-6.1714-4.7727 2.7429-2.7273 9.2571 7.5-9.2571 7.5z" style="fill:url(#linearGradient3658)"/>
 <path id="path3333-3-0" d="m5.7619 11c-1.5256 0-2.7619 1.312-2.7619 2.9309v21.438c0.00395 0.18035 0.078036 0.3509 0.20549 0.47024 0.12747 0.11934 0.2962 0.17658 0.46525 0.15781l56.816-9.5464c0.29227-0.048908 0.50884-0.3141 0.51293-0.62805v-11.891c0-1.6189-1.2363-2.9309-2.7619-2.9309h-52.476z" style="fill-rule:evenodd;fill:url(#linearGradient3655);opacity:.2"/>
 <rect id="rect1314-3-3-9" x="8.5" y="16.5" width="47" height="37" rx="0" ry="0" style="color:#000000;fill:none;opacity:.1;stroke-linecap:round;stroke-linejoin:round;stroke:url(#linearGradient3652)"/>
</svg>
