<?xml version="1.0" encoding="UTF-8" standalone="no"?>
<svg
   xmlns:dc="http://purl.org/dc/elements/1.1/"
   xmlns:cc="http://creativecommons.org/ns#"
   xmlns:rdf="http://www.w3.org/1999/02/22-rdf-syntax-ns#"
   xmlns:svg="http://www.w3.org/2000/svg"
   xmlns="http://www.w3.org/2000/svg"
   xmlns:xlink="http://www.w3.org/1999/xlink"
   version="1.1"
   width="24"
   height="24"
   id="svg10994">
  <defs
     id="defs10996">
    <linearGradient
       id="linearGradient4280">
      <stop
         style="stop-color:#000000;stop-opacity:0.31764707"
         offset="0"
         id="stop4282" />
      <stop
         style="stop-color:#000000;stop-opacity:0.23921569"
         offset="1"
         id="stop4284" />
    </linearGradient>
    <linearGradient
       x1="27.557428"
       y1="6.0348444"
       x2="27.557428"
       y2="21.386522"
       id="linearGradient4440-9"
       xlink:href="#linearGradient3454-2-5-0-3-4-1"
       gradientUnits="userSpaceOnUse"
       gradientTransform="matrix(0.62762637,0,0,0.7245642,2.9730682,4.6273679)" />
    <linearGradient
       id="linearGradient3454-2-5-0-3-4-1">
      <stop
         id="stop3456-4-9-38-1-8-8"
         style="stop-color:#ffffff;stop-opacity:1"
         offset="0" />
      <stop
         id="stop3458-39-80-3-5-5-8"
         style="stop-color:#ffffff;stop-opacity:0.23529412"
         offset="0.0097359" />
      <stop
         id="stop3460-7-0-2-4-2-7"
         style="stop-color:#ffffff;stop-opacity:0.15686275"
         offset="0.99001008" />
      <stop
         id="stop3462-0-9-8-7-2-3"
         style="stop-color:#ffffff;stop-opacity:0.39215687"
         offset="1" />
    </linearGradient>
    <linearGradient
       id="linearGradient4646-7-4-3-5-6">
      <stop
         id="stop4648-8-0-3-6-5"
         style="stop-color:#f9f9f9;stop-opacity:1"
         offset="0" />
      <stop
         id="stop4650-1-7-3-4-8"
         style="stop-color:#d8d8d8;stop-opacity:1"
         offset="1" />
    </linearGradient>
    <linearGradient
       x1="302.85715"
       y1="366.64789"
       x2="302.85715"
       y2="609.50507"
       id="linearGradient3028"
       xlink:href="#linearGradient5048"
       gradientUnits="userSpaceOnUse"
       gradientTransform="matrix(2.774389,0,0,1.969706,-1892.179,-872.8854)" />
    <linearGradient
       id="linearGradient5048">
      <stop
         id="stop5050"
         style="stop-color:#000000;stop-opacity:0"
         offset="0" />
      <stop
         id="stop5056"
         style="stop-color:#000000;stop-opacity:1"
         offset="0.5" />
      <stop
         id="stop5052"
         style="stop-color:#000000;stop-opacity:0"
         offset="1" />
    </linearGradient>
    <radialGradient
       cx="605.71429"
       cy="486.64789"
       r="117.14286"
       fx="605.71429"
       fy="486.64789"
       id="radialGradient3030"
       xlink:href="#linearGradient5060"
       gradientUnits="userSpaceOnUse"
       gradientTransform="matrix(2.774389,0,0,1.969706,-1891.633,-872.8854)" />
    <linearGradient
       id="linearGradient5060">
      <stop
         id="stop5062"
         style="stop-color:#000000;stop-opacity:1"
         offset="0" />
      <stop
         id="stop5064"
         style="stop-color:#000000;stop-opacity:0"
         offset="1" />
    </linearGradient>
    <radialGradient
       cx="605.71429"
       cy="486.64789"
       r="117.14286"
       fx="605.71429"
       fy="486.64789"
       id="radialGradient3032"
       xlink:href="#linearGradient5060"
       gradientUnits="userSpaceOnUse"
       gradientTransform="matrix(-2.774389,0,0,1.969706,112.7623,-872.8854)" />
    <linearGradient
       x1="-103.57845"
       y1="36.026463"
       x2="-103.57845"
       y2="13.286324"
       id="linearGradient18155"
       xlink:href="#linearGradient4280"
       gradientUnits="userSpaceOnUse"
       gradientTransform="matrix(0.80749834,0,0,0.83374395,104.87672,-8.06984)" />
    <linearGradient
       x1="62.988873"
       y1="13"
       x2="62.988873"
       y2="16"
       id="linearGradient5899"
       xlink:href="#linearGradient4646-7-4-3-5-6"
       gradientUnits="userSpaceOnUse"
       gradientTransform="matrix(0.47619047,0,0,0.47619047,1.7349636,-0.2857183)" />
    <linearGradient
       x1="35.792694"
       y1="17.118193"
       x2="35.792694"
       y2="43.761127"
       id="linearGradient12481"
       xlink:href="#radialGradient2444"
       gradientUnits="userSpaceOnUse"
       gradientTransform="matrix(0.45873037,0,0,0.4869622,1.1307079,-0.40203808)" />
    <radialGradient
       id="radialGradient2444"
       gradientUnits="userSpaceOnUse"
       cy="14.113"
       cx="63.969002"
       gradientTransform="matrix(1.5647,-9.5143e-8,6.1772e-8,1.0159,-59.14917,8.1461003)"
       r="23.097">
      <stop
         id="stop3618"
         style="stop-color:#ADC980"
         offset="0" />
      <stop
         id="stop3270"
         style="stop-color:#87A752"
         offset="0.6875183" />
      <stop
         id="stop3620"
         style="stop-color:#688933"
         offset="1" />
    </radialGradient>
    <linearGradient
       x1="-51.786404"
       y1="53.514328"
       x2="-51.786404"
       y2="3.6336823"
       id="linearGradient14236"
       xlink:href="#linearGradient4280"
       gradientUnits="userSpaceOnUse"
       gradientTransform="matrix(0.50674954,0,0,0.50300255,96.00792,-6.88056)" />
    <linearGradient
       id="linearGradient3260"
       y2="20.895"
       gradientUnits="userSpaceOnUse"
       x2="84.639"
       gradientTransform="matrix(0.096142,0,0,0.096142,9.8469,8.943)"
       y1="105.1"
       x1="86.133003">
      <stop
         id="stop5130"
         style="stop-color:#e5e5e5"
         offset="0" />
      <stop
         id="stop5132"
         style="stop-color:#ababab"
         offset="1" />
    </linearGradient>
    <linearGradient
       id="linearGradient3262"
       y2="16"
       gradientUnits="userSpaceOnUse"
       x2="25"
       gradientTransform="translate(-9.058,7)"
       x1="25">
      <stop
         id="stop3311"
         style="stop-color:#f6f6f6"
         offset="0" />
      <stop
         id="stop3313"
         style="stop-color:#ccc"
         offset="1" />
    </linearGradient>
  </defs>
  <metadata
     id="metadata10999">
    <rdf:RDF>
      <cc:Work
         rdf:about="">
        <dc:format>image/svg+xml</dc:format>
        <dc:type
           rdf:resource="http://purl.org/dc/dcmitype/StillImage" />
        <dc:title />
      </cc:Work>
    </rdf:RDF>
  </metadata>
  <path
     id="rect4598"
     d="m 2.016049,3.9999979 0,4.6153841 20,0 0,-2.615382 -9.682784,0 C 11.488134,6 10.074078,3.9999979 9.4119619,3.9999979 Z"
     style="color:#000000;clip-rule:nonzero;display:inline;overflow:visible;visibility:visible;opacity:1;isolation:auto;mix-blend-mode:normal;color-interpolation:sRGB;color-interpolation-filters:linearRGB;solid-color:#000000;solid-opacity:1;fill:url(#linearGradient5899);fill-opacity:1;fill-rule:nonzero;stroke:none;stroke-width:1;stroke-linecap:butt;stroke-linejoin:miter;stroke-miterlimit:4;stroke-dasharray:none;stroke-dashoffset:0;stroke-opacity:1;marker:none;color-rendering:auto;image-rendering:auto;shape-rendering:auto;text-rendering:auto;enable-background:accumulate" />
  <g
     style="stroke-width:1.88256383;stroke-miterlimit:4;stroke-dasharray:none"
     id="g3490"
     transform="matrix(0.5459263,0,0,0.5168524,-0.96573178,-1.578182)">
    <g
       style="display:inline;stroke-width:104.96237946;stroke-miterlimit:4;stroke-dasharray:none"
       id="g5022"
       transform="matrix(0.02165152,0,0,0.01485743,43.0076,42.68539)">
      <rect
         style="display:inline;overflow:visible;visibility:visible;opacity:0.40206185;fill:url(#linearGradient3028);fill-opacity:1;fill-rule:nonzero;stroke:none;stroke-width:104.96237946;marker:none"
         id="rect4173-4"
         y="-150.69685"
         x="-1559.2523"
         height="478.35718"
         width="1339.6335" />
      <path
         style="display:inline;overflow:visible;visibility:visible;opacity:0.40206185;fill:url(#radialGradient3030);fill-opacity:1;fill-rule:nonzero;stroke:none;stroke-width:104.96237946;marker:none"
         id="path5058-9"
         d="m -219.61876,-150.68038 c 0,0 0,478.33079 0,478.33079 142.874166,0.90045 345.40022,-107.16966 345.40014,-239.196175 0,-132.026537 -159.436816,-239.134595 -345.40014,-239.134615 z" />
      <path
         style="display:inline;overflow:visible;visibility:visible;opacity:0.40206185;fill:url(#radialGradient3032);fill-opacity:1;fill-rule:nonzero;stroke:none;stroke-width:104.96237946;marker:none"
         id="path5018-53"
         d="m -1559.2523,-150.68038 c 0,0 0,478.33079 0,478.33079 -142.8742,0.90045 -345.4002,-107.16966 -345.4002,-239.196175 0,-132.026537 159.4368,-239.134595 345.4002,-239.134615 z" />
    </g>
  </g>
  <path
     style="color:#000000;clip-rule:nonzero;display:inline;overflow:visible;visibility:visible;opacity:0.8;isolation:auto;mix-blend-mode:normal;color-interpolation:sRGB;color-interpolation-filters:linearRGB;solid-color:#000000;solid-opacity:1;fill:none;fill-opacity:1;fill-rule:nonzero;stroke:url(#linearGradient18155);stroke-width:1;stroke-linecap:butt;stroke-linejoin:miter;stroke-miterlimit:4;stroke-dasharray:none;stroke-dashoffset:0;stroke-opacity:1;marker:none;color-rendering:auto;image-rendering:auto;shape-rendering:auto;text-rendering:auto;enable-background:accumulate"
     id="rect3186"
     d="m 22.536298,7.0465624 0,-1.0465645 c 0,-0.277 -0.223,-0.5 -0.5,-0.5 l -9.536298,0 c -0.94238,0.017326 -2.110392,-1.995614 -3,-1.995614 l -7.464,0 c -0.277,0 -0.5,0.223 -0.5,0.5 l 2.982e-4,3.0421785" />
  <path
     style="color:#000000;font-style:normal;font-variant:normal;font-weight:normal;font-stretch:normal;font-size:medium;line-height:normal;font-family:sans-serif;text-indent:0;text-align:start;text-decoration:none;text-decoration-line:none;text-decoration-style:solid;text-decoration-color:#000000;letter-spacing:normal;word-spacing:normal;text-transform:none;direction:ltr;block-progression:tb;writing-mode:lr-tb;baseline-shift:baseline;text-anchor:start;white-space:normal;clip-rule:nonzero;display:inline;overflow:visible;visibility:visible;opacity:1;isolation:auto;mix-blend-mode:normal;color-interpolation:sRGB;color-interpolation-filters:linearRGB;solid-color:#000000;solid-opacity:1;fill:url(#linearGradient12481);fill-opacity:1;fill-rule:nonzero;stroke:none;stroke-width:1;stroke-linecap:butt;stroke-linejoin:miter;stroke-miterlimit:4;stroke-dasharray:none;stroke-dashoffset:0;stroke-opacity:1;color-rendering:auto;image-rendering:auto;shape-rendering:auto;text-rendering:auto;enable-background:accumulate;marker:none;filter-blend-mode:normal;filter-gaussianBlur-deviation:0"
     d="M 1.5,7.5 1.5,8 1.5,18.000264 1.75,21.5 22.25,21.5 22.5,18.000264 22.5,7.5 Z"
     id="rect4198" />
  <path
     style="color:#000000;display:inline;overflow:visible;visibility:visible;opacity:0.5;fill:none;stroke:url(#linearGradient4440-9);stroke-width:1.00000012;stroke-linecap:round;stroke-linejoin:miter;stroke-miterlimit:4;stroke-dasharray:none;stroke-dashoffset:0;stroke-opacity:1;marker:none;enable-background:accumulate"
     id="path3309-8"
     d="M 2.5,8.4999979 2.4462368,18.004917 2.75,20.499998 l 18.5,0 0.258854,-2.444262 L 21.5,8.4999979 Z" />
  <rect
     x="3"
     y="5"
     width="6"
     height="1"
     ry="0.5"
     rx="0.49999997"
     style="display:block;fill:#87a752"
     id="rect2892" />
  <path
     style="color:#000000;font-style:normal;font-variant:normal;font-weight:normal;font-stretch:normal;font-size:medium;line-height:normal;font-family:sans-serif;text-indent:0;text-align:start;text-decoration:none;text-decoration-line:none;text-decoration-style:solid;text-decoration-color:#000000;letter-spacing:normal;word-spacing:normal;text-transform:none;direction:ltr;block-progression:tb;writing-mode:lr-tb;baseline-shift:baseline;text-anchor:start;white-space:normal;clip-rule:nonzero;display:inline;overflow:visible;visibility:visible;opacity:0.3;isolation:auto;mix-blend-mode:normal;color-interpolation:sRGB;color-interpolation-filters:linearRGB;solid-color:#000000;solid-opacity:1;fill:none;fill-opacity:1;fill-rule:nonzero;stroke:#000000;stroke-width:1;stroke-linecap:round;stroke-linejoin:round;stroke-miterlimit:4;stroke-dasharray:none;stroke-dashoffset:0;stroke-opacity:1;marker:none;color-rendering:auto;image-rendering:auto;shape-rendering:auto;text-rendering:auto;enable-background:accumulate;filter-blend-mode:normal;filter-gaussianBlur-deviation:0"
     d="M 1.5,7.5 1.5,8 1.5,18.000264 1.75,21.5 22.25,21.5 22.5,18.000264 22.5,7.5 Z"
     id="rect4198-7" />
  <path
     id="path2426"
     style="display:block;fill:url(#linearGradient3262);stroke:none;stroke-linejoin:round"
     d="M 14.9375,7.5 C 14.6891,7.5 14.5,7.68908 14.5,7.9375 l 0,1.25 C 13.9461,9.3297 13.4488,9.5594 12.9688,9.8438 L 12.0625,8.9375 c -0.1757,-0.1757 -0.4493,-0.1757 -0.625,0 l -1.5,1.5 c -0.1757,0.1757 -0.1757,0.4493 0,0.625 l 0.9063,0.9063 c -0.2844,0.48 -0.5141,0.9773 -0.6563,1.5312 l -1.25,0 C 8.68908,13.5 8.5,13.6891 8.5,13.9375 l 0,2.125 C 8.5,16.3109 8.68908,16.5 8.9375,16.5 l 1.25,0 c 0.1422,0.554 0.3719,1.051 0.6563,1.531 l -0.9063,0.907 c -0.1757,0.175 -0.1757,0.449 0,0.624 l 1.5,1.5 c 0.1757,0.176 0.4493,0.176 0.625,0 l 0.9063,-0.906 c 0.48,0.285 0.9773,0.514 1.5312,0.656 l 0,1.25 c 0,0.249 0.1891,0.438 0.4375,0.438 l 2.125,0 c 0.2484,0 0.4375,-0.189 0.4375,-0.438 l 0,-1.25 c 0.554,-0.142 1.051,-0.371 1.531,-0.656 l 0.907,0.906 c 0.175,0.176 0.449,0.176 0.624,0 l 1.5,-1.5 c 0.176,-0.175 0.176,-0.449 0,-0.624 l -0.906,-0.907 c 0.285,-0.48 0.514,-0.977 0.656,-1.531 l 1.25,0 c 0.249,0 0.438,-0.1891 0.438,-0.4375 l 0,-2.125 C 23.5,13.6891 23.311,13.5 23.062,13.5 l -1.25,0 C 21.67,12.9461 21.441,12.4488 21.156,11.9688 l 0.906,-0.9063 c 0.176,-0.1757 0.176,-0.4493 0,-0.625 l -1.5,-1.5 c -0.175,-0.1757 -0.449,-0.1757 -0.624,0 L 19.031,9.8438 C 18.551,9.5594 18.054,9.3297 17.5,9.1875 l 0,-1.25 C 17.5,7.68908 17.3109,7.5 17.0625,7.5 l -2.125,0 z M 16,13 c 1.104,0 2,0.896 2,2 0,1.104 -0.896,2 -2,2 -1.104,0 -2,-0.896 -2,-2 0,-1.104 0.896,-2 2,-2 z" />
  <path
     id="path3315"
     style="opacity:0.05"
     d="m 16,10.4651 c -2.5006,0 -4.5349,2.0343 -4.5349,4.5349 0,2.501 2.0343,4.535 4.5349,4.535 2.501,0 4.535,-2.034 4.535,-4.535 0,-2.5006 -2.034,-4.5349 -4.535,-4.5349 z m 0,2.093 c 1.3479,0 2.442,1.094 2.442,2.4419 0,1.3479 -1.0941,2.442 -2.442,2.442 -1.3479,0 -2.4419,-1.0941 -2.4419,-2.442 0,-1.3479 1.094,-2.4419 2.4419,-2.4419 z" />
  <path
     id="path28"
     style="fill:none;stroke:url(#linearGradient3260)"
     d="m 16,11 c -2.2056,0 -4,1.7944 -4,4 0,2.206 1.7944,4 4,4 2.206,0 4,-1.794 4,-4 0,-2.2056 -1.794,-4 -4,-4 z" />
  <path
     id="path2426-6"
     style="color:#000000;clip-rule:nonzero;display:inline;overflow:visible;visibility:visible;opacity:0.8;isolation:auto;mix-blend-mode:normal;color-interpolation:sRGB;color-interpolation-filters:linearRGB;solid-color:#000000;solid-opacity:1;fill:none;fill-opacity:1;fill-rule:nonzero;stroke:url(#linearGradient14236);stroke-width:1;stroke-linecap:butt;stroke-linejoin:miter;stroke-miterlimit:4;stroke-dasharray:none;stroke-dashoffset:0;stroke-opacity:1;marker:none;color-rendering:auto;image-rendering:auto;shape-rendering:auto;text-rendering:auto;enable-background:accumulate"
     d="M 14.9375,7.5 C 14.6891,7.5 14.5,7.68908 14.5,7.9375 l 0,1.25 C 13.9461,9.3297 13.4488,9.5594 12.9688,9.8438 L 12.0625,8.9375 c -0.1757,-0.1757 -0.4493,-0.1757 -0.625,0 l -1.5,1.5 c -0.1757,0.1757 -0.1757,0.4493 0,0.625 l 0.9063,0.9063 c -0.2844,0.48 -0.5141,0.9773 -0.6563,1.5312 l -1.25,0 C 8.68908,13.5 8.5,13.6891 8.5,13.9375 l 0,2.125 C 8.5,16.3109 8.68908,16.5 8.9375,16.5 l 1.25,0 c 0.1422,0.554 0.3719,1.051 0.6563,1.531 l -0.9063,0.907 c -0.1757,0.175 -0.1757,0.449 0,0.624 l 1.5,1.5 c 0.1757,0.176 0.4493,0.176 0.625,0 l 0.9063,-0.906 c 0.48,0.285 0.9773,0.514 1.5312,0.656 l 0,1.25 c 0,0.249 0.1891,0.438 0.4375,0.438 l 2.125,0 c 0.2484,0 0.4375,-0.189 0.4375,-0.438 l 0,-1.25 c 0.554,-0.142 1.051,-0.371 1.531,-0.656 l 0.907,0.906 c 0.175,0.176 0.449,0.176 0.624,0 l 1.5,-1.5 c 0.176,-0.175 0.176,-0.449 0,-0.624 l -0.906,-0.907 c 0.285,-0.48 0.514,-0.977 0.656,-1.531 l 1.25,0 c 0.249,0 0.438,-0.1891 0.438,-0.4375 l 0,-2.125 C 23.5,13.6891 23.311,13.5 23.062,13.5 l -1.25,0 C 21.67,12.9461 21.441,12.4488 21.156,11.9688 l 0.906,-0.9063 c 0.176,-0.1757 0.176,-0.4493 0,-0.625 l -1.5,-1.5 c -0.175,-0.1757 -0.449,-0.1757 -0.624,0 L 19.031,9.8438 C 18.551,9.5594 18.054,9.3297 17.5,9.1875 l 0,-1.25 C 17.5,7.68908 17.3109,7.5 17.0625,7.5 l -2.125,0 z M 16,13 c 1.104,0 2,0.896 2,2 0,1.104 -0.896,2 -2,2 -1.104,0 -2,-0.896 -2,-2 0,-1.104 0.896,-2 2,-2 z" />
</svg>
