<?xml version="1.0" encoding="UTF-8" standalone="no"?>
<svg
   xmlns:dc="http://purl.org/dc/elements/1.1/"
   xmlns:cc="http://creativecommons.org/ns#"
   xmlns:rdf="http://www.w3.org/1999/02/22-rdf-syntax-ns#"
   xmlns:svg="http://www.w3.org/2000/svg"
   xmlns="http://www.w3.org/2000/svg"
   xmlns:xlink="http://www.w3.org/1999/xlink"
   id="svg10994"
   height="24"
   width="24"
   version="1.1">
  <defs
     id="defs10996">
    <linearGradient
       id="linearGradient4280">
      <stop
         id="stop4282"
         offset="0"
         style="stop-color:#000000;stop-opacity:0.31764707" />
      <stop
         id="stop4284"
         offset="1"
         style="stop-color:#000000;stop-opacity:0.23921569" />
    </linearGradient>
    <linearGradient
       gradientTransform="matrix(0.62762637,0,0,0.7245642,2.9730682,4.6273679)"
       gradientUnits="userSpaceOnUse"
       xlink:href="#linearGradient3454-2-5-0-3-4-1"
       id="linearGradient4440-9"
       y2="21.386522"
       x2="27.557428"
       y1="6.0348444"
       x1="27.557428" />
    <linearGradient
       id="linearGradient3454-2-5-0-3-4-1">
      <stop
         offset="0"
         style="stop-color:#ffffff;stop-opacity:1"
         id="stop3456-4-9-38-1-8-8" />
      <stop
         offset="0.0097359"
         style="stop-color:#ffffff;stop-opacity:0.23529412"
         id="stop3458-39-80-3-5-5-8" />
      <stop
         offset="0.99001008"
         style="stop-color:#ffffff;stop-opacity:0.15686275"
         id="stop3460-7-0-2-4-2-7" />
      <stop
         offset="1"
         style="stop-color:#ffffff;stop-opacity:0.39215687"
         id="stop3462-0-9-8-7-2-3" />
    </linearGradient>
    <linearGradient
       id="linearGradient4646-7-4-3-5-6">
      <stop
         offset="0"
         style="stop-color:#f9f9f9;stop-opacity:1"
         id="stop4648-8-0-3-6-5" />
      <stop
         offset="1"
         style="stop-color:#d8d8d8;stop-opacity:1"
         id="stop4650-1-7-3-4-8" />
    </linearGradient>
    <linearGradient
       gradientTransform="matrix(2.774389,0,0,1.969706,-1892.179,-872.8854)"
       gradientUnits="userSpaceOnUse"
       xlink:href="#linearGradient5048"
       id="linearGradient3028"
       y2="609.50507"
       x2="302.85715"
       y1="366.64789"
       x1="302.85715" />
    <linearGradient
       id="linearGradient5048">
      <stop
         offset="0"
         style="stop-color:#000000;stop-opacity:0"
         id="stop5050" />
      <stop
         offset="0.5"
         style="stop-color:#000000;stop-opacity:1"
         id="stop5056" />
      <stop
         offset="1"
         style="stop-color:#000000;stop-opacity:0"
         id="stop5052" />
    </linearGradient>
    <radialGradient
       gradientTransform="matrix(2.774389,0,0,1.969706,-1891.633,-872.8854)"
       gradientUnits="userSpaceOnUse"
       xlink:href="#linearGradient5060"
       id="radialGradient3030"
       fy="486.64789"
       fx="605.71429"
       r="117.14286"
       cy="486.64789"
       cx="605.71429" />
    <linearGradient
       id="linearGradient5060">
      <stop
         offset="0"
         style="stop-color:#000000;stop-opacity:1"
         id="stop5062" />
      <stop
         offset="1"
         style="stop-color:#000000;stop-opacity:0"
         id="stop5064" />
    </linearGradient>
    <radialGradient
       gradientTransform="matrix(-2.774389,0,0,1.969706,112.7623,-872.8854)"
       gradientUnits="userSpaceOnUse"
       xlink:href="#linearGradient5060"
       id="radialGradient3032"
       fy="486.64789"
       fx="605.71429"
       r="117.14286"
       cy="486.64789"
       cx="605.71429" />
    <linearGradient
       gradientTransform="matrix(0.80749834,0,0,0.83374395,104.87672,-8.06984)"
       gradientUnits="userSpaceOnUse"
       xlink:href="#linearGradient4280"
       id="linearGradient18155"
       y2="13.286324"
       x2="-103.57845"
       y1="36.026463"
       x1="-103.57845" />
    <linearGradient
       gradientTransform="matrix(0.47619047,0,0,0.47619047,1.7349636,-0.2857183)"
       gradientUnits="userSpaceOnUse"
       xlink:href="#linearGradient4646-7-4-3-5-6"
       id="linearGradient5899"
       y2="16"
       x2="62.988873"
       y1="13"
       x1="62.988873" />
    <linearGradient
       gradientTransform="matrix(0.45873037,0,0,0.4869622,1.1307079,-0.40203808)"
       gradientUnits="userSpaceOnUse"
       xlink:href="#radialGradient2444"
       id="linearGradient12481"
       y2="43.761127"
       x2="35.792694"
       y1="17.118193"
       x1="35.792694" />
    <radialGradient
       r="23.097"
       gradientTransform="matrix(1.5647,-9.5143e-8,6.1772e-8,1.0159,-59.14917,8.1461003)"
       cx="63.969002"
       cy="14.113"
       gradientUnits="userSpaceOnUse"
       id="radialGradient2444">
      <stop
         offset="0"
         style="stop-color:#ADC980"
         id="stop3618" />
      <stop
         offset="0.6875183"
         style="stop-color:#87A752"
         id="stop3270" />
      <stop
         offset="1"
         style="stop-color:#688933"
         id="stop3620" />
    </radialGradient>
    <linearGradient
       id="linearGradient2649"
       y2="93.653999"
       gradientUnits="userSpaceOnUse"
       x2="-166.64"
       gradientTransform="matrix(0.13233,0,0,0.13755,41.439,5.0887)"
       y1="99.667"
       x1="-172.64999">
      <stop
         id="stop11116"
         style="stop-color:#242424;stop-opacity:.99216"
         offset="0" />
      <stop
         id="stop11118"
         style="stop-color:#656565"
         offset="1" />
    </linearGradient>
    <radialGradient
       id="radialGradient2651"
       gradientUnits="userSpaceOnUse"
       cy="21.818001"
       cx="18.240999"
       r="8.3085003">
      <stop
         id="stop4456"
         style="stop-color:#a1a1a1;stop-opacity:.20784"
         offset="0" />
      <stop
         id="stop4458"
         style="stop-color:#a1a1a1;stop-opacity:.67843"
         offset="1" />
    </radialGradient>
    <radialGradient
       id="radialGradient2653"
       gradientUnits="userSpaceOnUse"
       cy="13.078"
       cx="15.414"
       gradientTransform="matrix(1.0064,0,0,0.81302,-3.3277,-0.58269)"
       r="6.6561999">
      <stop
         id="stop4469"
         style="stop-color:#fff"
         offset="0" />
      <stop
         id="stop4471"
         style="stop-color:#fff;stop-opacity:.24762"
         offset="1" />
    </radialGradient>
    <linearGradient
       id="linearGradient2655"
       y2="11.949"
       gradientUnits="userSpaceOnUse"
       x2="173.10001"
       gradientTransform="matrix(0.13233,0,0,0.13755,-9.4965,6.6474)"
       y1="75.319"
       x1="173.10001">
      <stop
         id="stop2302"
         style="stop-color:#343435;stop-opacity:.97647"
         offset="0" />
      <stop
         id="stop2304"
         style="stop-color:#919295"
         offset="1" />
    </linearGradient>
    <linearGradient
       id="linearGradient2657"
       y2="4.5363002"
       gradientUnits="userSpaceOnUse"
       x2="41.485001"
       gradientTransform="matrix(0.13233,0,0,0.13755,7.6677,7.6826)"
       y1="68.292"
       x1="41.542">
      <stop
         id="stop11106"
         style="stop-color:#333"
         offset="0" />
      <stop
         id="stop11108"
         style="stop-color:#333;stop-opacity:.61224"
         offset="1" />
    </linearGradient>
    <linearGradient
       id="linearGradient2659"
       y2="11.949"
       gradientUnits="userSpaceOnUse"
       x2="173.10001"
       gradientTransform="matrix(0.95235,0,0,0.95235,-117.1,-1.9494)"
       y1="75.319"
       x1="173.10001">
      <stop
         id="stop6211"
         style="stop-color:#96979b"
         offset="0" />
      <stop
         id="stop6213"
         style="stop-opacity:.34118"
         offset="1" />
    </linearGradient>
  </defs>
  <metadata
     id="metadata10999">
    <rdf:RDF>
      <cc:Work
         rdf:about="">
        <dc:format>image/svg+xml</dc:format>
        <dc:type
           rdf:resource="http://purl.org/dc/dcmitype/StillImage" />
        <dc:title />
      </cc:Work>
    </rdf:RDF>
  </metadata>
  <path
     style="color:#000000;clip-rule:nonzero;display:inline;overflow:visible;visibility:visible;opacity:1;isolation:auto;mix-blend-mode:normal;color-interpolation:sRGB;color-interpolation-filters:linearRGB;solid-color:#000000;solid-opacity:1;fill:url(#linearGradient5899);fill-opacity:1;fill-rule:nonzero;stroke:none;stroke-width:1;stroke-linecap:butt;stroke-linejoin:miter;stroke-miterlimit:4;stroke-dasharray:none;stroke-dashoffset:0;stroke-opacity:1;marker:none;color-rendering:auto;image-rendering:auto;shape-rendering:auto;text-rendering:auto;enable-background:accumulate"
     d="m 2.016049,3.9999979 0,4.6153841 20,0 0,-2.615382 -9.682784,0 C 11.488134,6 10.074078,3.9999979 9.4119619,3.9999979 Z"
     id="rect4598" />
  <g
     transform="matrix(0.5459263,0,0,0.5168524,-0.96573178,-1.578182)"
     id="g3490"
     style="stroke-width:1.88256383;stroke-miterlimit:4;stroke-dasharray:none">
    <g
       transform="matrix(0.02165152,0,0,0.01485743,43.0076,42.68539)"
       id="g5022"
       style="display:inline;stroke-width:104.96237946;stroke-miterlimit:4;stroke-dasharray:none">
      <rect
         width="1339.6335"
         height="478.35718"
         x="-1559.2523"
         y="-150.69685"
         id="rect4173-4"
         style="display:inline;overflow:visible;visibility:visible;opacity:0.40206185;fill:url(#linearGradient3028);fill-opacity:1;fill-rule:nonzero;stroke:none;stroke-width:104.96237946;marker:none" />
      <path
         d="m -219.61876,-150.68038 c 0,0 0,478.33079 0,478.33079 142.874166,0.90045 345.40022,-107.16966 345.40014,-239.196175 0,-132.026537 -159.436816,-239.134595 -345.40014,-239.134615 z"
         id="path5058-9"
         style="display:inline;overflow:visible;visibility:visible;opacity:0.40206185;fill:url(#radialGradient3030);fill-opacity:1;fill-rule:nonzero;stroke:none;stroke-width:104.96237946;marker:none" />
      <path
         d="m -1559.2523,-150.68038 c 0,0 0,478.33079 0,478.33079 -142.8742,0.90045 -345.4002,-107.16966 -345.4002,-239.196175 0,-132.026537 159.4368,-239.134595 345.4002,-239.134615 z"
         id="path5018-53"
         style="display:inline;overflow:visible;visibility:visible;opacity:0.40206185;fill:url(#radialGradient3032);fill-opacity:1;fill-rule:nonzero;stroke:none;stroke-width:104.96237946;marker:none" />
    </g>
  </g>
  <path
     d="m 22.536298,7.0465624 0,-1.0465645 c 0,-0.277 -0.223,-0.5 -0.5,-0.5 l -9.536298,0 c -0.94238,0.017326 -2.110392,-1.995614 -3,-1.995614 l -7.464,0 c -0.277,0 -0.5,0.223 -0.5,0.5 l 2.982e-4,3.0421785"
     id="rect3186"
     style="color:#000000;clip-rule:nonzero;display:inline;overflow:visible;visibility:visible;opacity:0.8;isolation:auto;mix-blend-mode:normal;color-interpolation:sRGB;color-interpolation-filters:linearRGB;solid-color:#000000;solid-opacity:1;fill:none;fill-opacity:1;fill-rule:nonzero;stroke:url(#linearGradient18155);stroke-width:1;stroke-linecap:butt;stroke-linejoin:miter;stroke-miterlimit:4;stroke-dasharray:none;stroke-dashoffset:0;stroke-opacity:1;marker:none;color-rendering:auto;image-rendering:auto;shape-rendering:auto;text-rendering:auto;enable-background:accumulate" />
  <path
     id="rect4198"
     d="M 1.5,7.5 1.5,8 1.5,18.000264 1.75,21.5 22.25,21.5 22.5,18.000264 22.5,7.5 Z"
     style="color:#000000;font-style:normal;font-variant:normal;font-weight:normal;font-stretch:normal;font-size:medium;line-height:normal;font-family:sans-serif;text-indent:0;text-align:start;text-decoration:none;text-decoration-line:none;text-decoration-style:solid;text-decoration-color:#000000;letter-spacing:normal;word-spacing:normal;text-transform:none;direction:ltr;block-progression:tb;writing-mode:lr-tb;baseline-shift:baseline;text-anchor:start;white-space:normal;clip-rule:nonzero;display:inline;overflow:visible;visibility:visible;opacity:1;isolation:auto;mix-blend-mode:normal;color-interpolation:sRGB;color-interpolation-filters:linearRGB;solid-color:#000000;solid-opacity:1;fill:url(#linearGradient12481);fill-opacity:1;fill-rule:nonzero;stroke:none;stroke-width:1;stroke-linecap:butt;stroke-linejoin:miter;stroke-miterlimit:4;stroke-dasharray:none;stroke-dashoffset:0;stroke-opacity:1;color-rendering:auto;image-rendering:auto;shape-rendering:auto;text-rendering:auto;enable-background:accumulate;marker:none;filter-blend-mode:normal;filter-gaussianBlur-deviation:0" />
  <path
     d="M 2.5,8.4999979 2.4462368,18.004917 2.75,20.499998 l 18.5,0 0.258854,-2.444262 L 21.5,8.4999979 Z"
     id="path3309-8"
     style="color:#000000;display:inline;overflow:visible;visibility:visible;opacity:0.5;fill:none;stroke:url(#linearGradient4440-9);stroke-width:1.00000012;stroke-linecap:round;stroke-linejoin:miter;stroke-miterlimit:4;stroke-dasharray:none;stroke-dashoffset:0;stroke-opacity:1;marker:none;enable-background:accumulate" />
  <rect
     id="rect2892"
     style="display:block;fill:#87a752"
     rx="0.49999997"
     ry="0.5"
     height="1"
     width="6"
     y="5"
     x="3" />
  <path
     id="rect4198-7"
     d="M 1.5,7.5 1.5,8 1.5,18.000264 1.75,21.5 22.25,21.5 22.5,18.000264 22.5,7.5 Z"
     style="color:#000000;font-style:normal;font-variant:normal;font-weight:normal;font-stretch:normal;font-size:medium;line-height:normal;font-family:sans-serif;text-indent:0;text-align:start;text-decoration:none;text-decoration-line:none;text-decoration-style:solid;text-decoration-color:#000000;letter-spacing:normal;word-spacing:normal;text-transform:none;direction:ltr;block-progression:tb;writing-mode:lr-tb;baseline-shift:baseline;text-anchor:start;white-space:normal;clip-rule:nonzero;display:inline;overflow:visible;visibility:visible;opacity:0.3;isolation:auto;mix-blend-mode:normal;color-interpolation:sRGB;color-interpolation-filters:linearRGB;solid-color:#000000;solid-opacity:1;fill:none;fill-opacity:1;fill-rule:nonzero;stroke:#000000;stroke-width:1;stroke-linecap:round;stroke-linejoin:round;stroke-miterlimit:4;stroke-dasharray:none;stroke-dashoffset:0;stroke-opacity:1;marker:none;color-rendering:auto;image-rendering:auto;shape-rendering:auto;text-rendering:auto;enable-background:accumulate;filter-blend-mode:normal;filter-gaussianBlur-deviation:0" />
  <g
     id="g3968"
     transform="matrix(1.0321,0,0,1.0266,0.08452499,0.81504026)">
    <path
       id="path11112"
       style="fill:url(#linearGradient2649);fill-rule:evenodd;stroke:#333333;stroke-width:0.75;stroke-linecap:round;stroke-linejoin:round"
       d="m 16.836,15.327 5.916,5.725 -0.82,1.157 -5.895,-6.193 0.799,-0.689 z" />
    <path
       id="path13082"
       style="fill:#3e3e3e"
       d="m 248.35,110.29 c 0.01,1.47 -2.37,2.66 -5.31,2.66 -2.93,0 -5.31,-1.19 -5.31,-2.66 0,-1.47 2.38,-2.66 5.31,-2.66 2.94,0 5.32,1.19 5.31,2.66 z"
       transform="matrix(0.13119,-0.15242,0.14662,0.13637,-25.682,43.656)" />
    <path
       id="path4452"
       style="fill:url(#radialGradient2651);fill-rule:evenodd"
       d="m 25.898,18.478 c 0,4.589 -3.72,8.31 -8.309,8.31 -4.589,0 -8.3089,-3.721 -8.3082,-8.31 -7e-4,-4.589 3.7192,-8.31 8.3082,-8.31 4.589,0 8.309,3.721 8.309,8.31 z"
       transform="matrix(0.48797,0,0,0.49492,5.0307,3.32)" />
    <path
       id="path4462"
       style="opacity:0.83422002;fill:url(#radialGradient2653);fill-rule:evenodd"
       d="m 13.447,8.9253 c -2.022,0 -3.6584,1.5227 -3.6584,3.4027 0,0.543 0.1631,1.042 0.4064,1.498 0.486,0.166 1.003,0.28 1.551,0.28 2.395,0 4.308,-1.755 4.456,-3.949 C 15.53,9.419 14.567,8.9253 13.447,8.9253 Z" />
    <path
       id="path2298"
       style="fill:url(#linearGradient2655);stroke:url(#linearGradient2657);stroke-width:0.75;stroke-linecap:round;stroke-linejoin:round"
       d="m 13.525,8.3589 c -2.49,0 -4.5119,1.9381 -4.5119,4.3241 0,2.387 2.0219,4.325 4.5119,4.325 2.489,0 4.511,-1.938 4.511,-4.325 0,-2.386 -2.022,-4.3241 -4.511,-4.3241 z m 0.053,0.2837 c 2.229,0 4.04,1.7324 4.04,3.8684 0,2.136 -1.811,3.869 -4.04,3.869 -2.228,0 -4.0356,-1.733 -4.0356,-3.869 0,-2.136 1.8076,-3.8684 4.0356,-3.8684 z" />
    <path
       id="path4267"
       style="fill:url(#linearGradient2659)"
       d="m 48.577,9.9205 c -17.92,0 -32.437,13.414 -32.437,29.938 0,16.524 14.517,29.938 32.437,29.938 17.92,0 32.469,-13.414 32.469,-29.938 0,-16.524 -14.549,-29.938 -32.469,-29.938 l 0,5e-4 z m 0.188,1.1565 c 16.841,0 30.531,12.596 30.531,28.125 0,15.528 -13.69,28.125 -30.531,28.125 -16.841,0 -30.5,-12.597 -30.5,-28.125 0,-15.529 13.659,-28.125 30.5,-28.125 z"
       transform="matrix(0.13233,0,0,0.13755,7.1255,7.119)" />
  </g>
</svg>
