<?xml version="1.0" encoding="UTF-8"?>
<!-- Created with Inkscape (http://www.inkscape.org/) -->
<svg id="svg3099" width="128" height="128" version="1.1" xmlns="http://www.w3.org/2000/svg" xmlns:cc="http://creativecommons.org/ns#" xmlns:dc="http://purl.org/dc/elements/1.1/" xmlns:rdf="http://www.w3.org/1999/02/22-rdf-syntax-ns#" xmlns:xlink="http://www.w3.org/1999/xlink">
 <defs id="defs3101">
  <linearGradient id="linearGradient2455" x1="32.892" x2="36.358" y1="8.059" y2="5.4565" gradientTransform="matrix(2.6605 0 0 2.7752 .74553 -67.566)" gradientUnits="userSpaceOnUse">
   <stop id="stop8591" style="stop-color:#fefefe" offset="0"/>
   <stop id="stop8593" style="stop-color:#cbcbcb" offset="1"/>
  </linearGradient>
  <linearGradient id="linearGradient2459" x1="24" x2="24" y1="2" y2="46.017" gradientTransform="matrix(2.7576 0 0 2.6744 -2.1817 -68.186)" gradientUnits="userSpaceOnUse">
   <stop id="stop3213" style="stop-color:#fff" offset="0"/>
   <stop id="stop3215" style="stop-color:#fff;stop-opacity:0" offset="1"/>
  </linearGradient>
  <radialGradient id="radialGradient2462" cx="102" cy="112.3" r="139.56" gradientTransform="matrix(.97872 0 0 -1.0535 1.3617 63.482)" gradientUnits="userSpaceOnUse">
   <stop id="stop41" style="stop-color:#b7b8b9" offset="0"/>
   <stop id="stop47" style="stop-color:#ececec" offset=".18851"/>
   <stop id="stop49" style="stop-color:#fafafa;stop-opacity:0" offset=".25718"/>
   <stop id="stop51" style="stop-color:#fff;stop-opacity:0" offset=".30111"/>
   <stop id="stop53" style="stop-color:#fafafa;stop-opacity:0" offset=".5313"/>
   <stop id="stop55" style="stop-color:#ebecec;stop-opacity:0" offset=".8449"/>
   <stop id="stop57" style="stop-color:#e1e2e3;stop-opacity:0" offset="1"/>
  </radialGradient>
  <linearGradient id="linearGradient2465" x1="25.132" x2="25.132" y1=".98521" y2="47.013" gradientTransform="matrix(2.6571 0 0 2.5422 .22866 -68.913)" gradientUnits="userSpaceOnUse">
   <stop id="stop3602" style="stop-color:#f4f4f4" offset="0"/>
   <stop id="stop3604" style="stop-color:#dbdbdb" offset="1"/>
  </linearGradient>
  <linearGradient id="linearGradient2467" x1="-51.786" x2="-51.786" y1="50.786" y2="2.9062" gradientTransform="matrix(2.1456 0 0 2.3791 158.09 -71.747)" gradientUnits="userSpaceOnUse">
   <stop id="stop3106" style="stop-color:#aaa" offset="0"/>
   <stop id="stop3108" style="stop-color:#c8c8c8" offset="1"/>
  </linearGradient>
  <linearGradient id="linearGradient2483" x1="302.86" x2="302.86" y1="366.65" y2="609.51" gradientTransform="matrix(.17251 0 0 .039201 .64822 98.774)" gradientUnits="userSpaceOnUse">
   <stop id="stop5050" style="stop-opacity:0" offset="0"/>
   <stop id="stop5056" offset=".5"/>
   <stop id="stop5052" style="stop-opacity:0" offset="1"/>
  </linearGradient>
  <radialGradient id="radialGradient2485" cx="605.71" cy="486.65" r="117.14" gradientTransform="matrix(-.059038 0 0 .039201 56.93 98.774)" gradientUnits="userSpaceOnUse" xlink:href="#linearGradient5060"/>
  <linearGradient id="linearGradient5060">
   <stop id="stop5062" offset="0"/>
   <stop id="stop5064" style="stop-opacity:0" offset="1"/>
  </linearGradient>
  <radialGradient id="radialGradient3097" cx="605.71" cy="486.65" r="117.14" gradientTransform="matrix(.059038 0 0 .039201 69.07 98.774)" gradientUnits="userSpaceOnUse" xlink:href="#linearGradient5060"/>
 </defs>
 <metadata id="metadata3104">
  <rdf:RDF>
   <cc:Work rdf:about="">
    <dc:format>image/svg+xml</dc:format>
    <dc:type rdf:resource="http://purl.org/dc/dcmitype/StillImage"/>
    <dc:title/>
   </cc:Work>
  </rdf:RDF>
 </metadata>
 <g id="layer1" transform="translate(0,64)">
  <g id="g2478" transform="matrix(1.0408 0 0 .63024 -1.5714 -20.31)">
   <rect id="rect2879" x="21.35" y="113.15" width="83.3" height="9.5201" style="fill:url(#linearGradient2483);opacity:.3"/>
   <path id="path2881" d="m21.35 113.15v9.5196c-3.0403 0.0179-7.35-2.1329-7.35-4.7604 0-2.6276 3.3928-4.7592 7.35-4.7592z" style="fill:url(#radialGradient2485);opacity:.3"/>
   <path id="path2883" d="m104.65 113.15v9.5196c3.0403 0.0179 7.35-2.1329 7.35-4.7604 0-2.6276-3.3928-4.7592-7.35-4.7592z" style="fill:url(#radialGradient3097);opacity:.3"/>
  </g>
  <path id="path4160" d="m17.5-62.5h63.933c3.7384 1.262 23.822 15.639 29.067 25.594v91.406h-93v-117z" style="fill:url(#linearGradient2465);stroke-linejoin:round;stroke-width:.99992;stroke:url(#linearGradient2467)"/>
  <path id="path4191" d="m18.979 54c-0.53927 0-0.97872-0.47303-0.97872-1.0535v-113.78c0-0.58154 0.43945-1.0535 0.97872-1.0535 20.248 0.2912 42.687-0.4356 62.911 0.07251l27.824 23.902 0.28677 90.858c0 0.58049-0.43846 1.0535-0.97872 1.0535h-90.043z" style="fill:url(#radialGradient2462)"/>
  <path id="path2435" d="m109.5-37.482v90.982h-91v-115h63.056" style="fill:none;opacity:.6;stroke-linejoin:round;stroke-width:.99992;stroke:url(#linearGradient2459)"/>
  <path id="path3232" d="m71.923-62.161c13.028 0 6.5506 25.808 6.5506 25.808s31.51-7.1895 31.51 5.5624l0.0719-6.0584c-6.7309-6.731-20.995-19.9-30.174-24.913l-7.9583-0.39845z" style="fill-rule:evenodd;opacity:.05"/>
  <path id="path3230" d="m74.396-62.161c12.182 0 6.125 24.131 6.125 24.131s29.463-5.6405 29.463 6.1405c1.5603-10.052-25.987-33.399-35.588-30.271z" style="fill-rule:evenodd;opacity:.1"/>
  <path id="path12038" d="m82.363-39.539s27.62-4.8063 27.62 7.5167c0-6.9593-15.551-26.425-33.362-30.138 8.6589 3.3145 7.4824 14.419 5.742 22.622z" style="fill-rule:evenodd;opacity:.15"/>
  <path id="path4474" d="m76.621-62.161c8.4973 0 6.2287 20.432 6.2287 20.432s27.134-2.6161 27.134 9.7068c0-3.0025 0.2291-5.1527-0.35674-6.0896-4.2088-6.7311-22.388-21.836-28.953-23.815-0.49126-0.14814-1.5805-0.23342-4.0528-0.23342z" style="fill-rule:evenodd;fill:url(#linearGradient2455)"/>
  <rect id="rect2888-1" transform="matrix(1 0 -.36013 .9329 0 0)" x="64.107" y="-17.151" width="4.7166" height="39.661" style="color:#000000;fill-rule:evenodd;fill:#fff;opacity:.6"/>
  <path id="path2882-04-0" d="m94.939 1.608-11.169-15.456 3.723-5.152 14.507 20.608-14.892 21.392-4.1081-4.704 11.939-16.688z" style="fill:#fff;opacity:.6"/>
  <path id="path2882-3" d="m33.061 1.608 11.169-15.456-3.723-5.152-14.507 20.608 14.892 21.392 4.1081-4.704-11.939-16.688z" style="fill:#fff;opacity:.6"/>
  <path id="path2882" d="m33.061 0.608 11.169-15.456-3.723-5.152-14.507 20.608 14.892 21.392 4.1081-4.704-11.939-16.688z" style="fill:#666;opacity:.4"/>
  <rect id="rect2888" transform="matrix(1 0 -.36013 .9329 0 0)" x="63.721" y="-18.223" width="4.7166" height="39.661" style="color:#000000;fill-rule:evenodd;opacity:.4"/>
  <path id="path2882-04" d="m94.939 0.608-11.169-15.456 3.723-5.152 14.507 20.608-14.892 21.392-4.1081-4.704 11.939-16.688z" style="fill:#666;opacity:.4"/>
 </g>
</svg>
