<?xml version="1.0" encoding="UTF-8"?>
<!-- Created with Inkscape (http://www.inkscape.org/) -->
<svg id="svg2639" width="22" height="22" version="1.0" xmlns="http://www.w3.org/2000/svg" xmlns:xlink="http://www.w3.org/1999/xlink">
 <defs id="defs2641">
  <linearGradient id="linearGradient2419" x1="33.579" x2="33.579" y1="5.7086" y2="16.323" gradientTransform="matrix(.38025 0 0 .32985 -1.2544 .36644)" gradientUnits="userSpaceOnUse">
   <stop id="stop2524" style="stop-color:#fdfdf8" offset="0"/>
   <stop id="stop2526" style="stop-color:#d6d3b4" offset="1"/>
  </linearGradient>
  <linearGradient id="linearGradient2421" x1="16.916" x2="16.916" y1="7.0006" y2="14" gradientTransform="matrix(.46665 0 0 .50005 -.19997 -1.2507)" gradientUnits="userSpaceOnUse">
   <stop id="stop2517" style="stop-color:#aeae94" offset="0"/>
   <stop id="stop2519" style="stop-color:#626337" offset="1"/>
  </linearGradient>
  <linearGradient id="linearGradient2424" x1="24.683" x2="24.683" y1="9.2417" y2="13.523" gradientTransform="matrix(.43469 0 0 .234 .57047 3.8374)" gradientUnits="userSpaceOnUse">
   <stop id="stop3284" offset="0"/>
   <stop id="stop3286" style="stop-opacity:0" offset="1"/>
  </linearGradient>
  <linearGradient id="linearGradient2427" x1="22.763" x2="22.763" y1="-4.8771" y2="43.844" gradientTransform="matrix(.42181 0 0 .38421 .87611 2.1654)" gradientUnits="userSpaceOnUse">
   <stop id="stop2240" style="stop-color:#fff" offset="0"/>
   <stop id="stop2242" style="stop-color:#fff;stop-opacity:0" offset="1"/>
  </linearGradient>
  <linearGradient id="linearGradient2430" x1="16.626" x2="20.055" y1="15.298" y2="24.628" gradientTransform="matrix(.43537 0 0 .48234 .55102 .12101)" gradientUnits="userSpaceOnUse">
   <stop id="stop2687" style="stop-color:#fff" offset="0"/>
   <stop id="stop2689" style="stop-color:#fff;stop-opacity:0" offset="1"/>
  </linearGradient>
  <radialGradient id="radialGradient2433" cx="26.617" cy="-2.0645" r="23" gradientTransform="matrix(0 -.48959 .65176 0 16.583 25.947)" gradientUnits="userSpaceOnUse">
   <stop id="stop2749" style="stop-color:#d78ec1" offset="0"/>
   <stop id="stop2751" style="stop-color:#c564be" offset=".26238"/>
   <stop id="stop2753" style="stop-color:#9d3ea4" offset=".66094"/>
   <stop id="stop2755" style="stop-color:#5e2c73" offset="1"/>
  </radialGradient>
  <linearGradient id="linearGradient2435" x1="10.014" x2="10.014" y1="44.96" y2="2.8765" gradientTransform="matrix(.44679 0 0 .41508 .27713 1.0213)" gradientUnits="userSpaceOnUse">
   <stop id="stop2759" style="stop-color:#650d5c" offset="0"/>
   <stop id="stop2761" style="stop-color:#ad53a5" offset="1"/>
  </linearGradient>
 </defs>
 <rect id="rect1316" x=".50109" y="2.5008" width="20.998" height="16.998" rx="1.4533" ry="1.4242" style="fill-rule:evenodd;fill:url(#radialGradient2433);stroke-linecap:round;stroke-linejoin:round;stroke-width:1.0021;stroke:url(#linearGradient2435)"/>
 <path id="path3278" d="m1.9524 3c-0.52605 0-0.95238 0.47232-0.95238 1.0551v7.7175c0.00121 0.06493 0.026905 0.12632 0.070857 0.16929 0.043952 0.04297 0.10214 0.06357 0.16044 0.05681l19.592-3.4367c0.10078-0.017609 0.17546-0.11308 0.17687-0.2261v-4.2808c0-0.5828-0.42633-1.0551-0.95238-1.0551h-18.095z" style="fill-rule:evenodd;fill:url(#linearGradient2430);opacity:.2"/>
 <rect id="rect2232" x="1.5011" y="3.5011" width="18.998" height="14.998" rx=".55884" ry=".54499" style="fill:none;opacity:.4;stroke-linecap:round;stroke-linejoin:round;stroke-width:1.0021;stroke:url(#linearGradient2427)"/>
 <rect id="rect1436" x="1" y="6" width="20" height="1" rx="0" ry="0" style="fill-rule:evenodd;fill:url(#linearGradient2424);opacity:.2"/>
 <path id="rect2311" d="m1.8999 2.5 18.356 0.004295c0.73027 0 1.243 0.63066 1.243 1.3285v1.6672h-20.999v-1.6672c0-0.74384 0.56408-1.3328 1.3999-1.3328z" style="fill-rule:evenodd;fill:url(#linearGradient2419);stroke:url(#linearGradient2421)"/>
 <path id="path4160" d="m2.5 7.5h1.4069c0.073699 0.03236 0.48977 0.42658 0.59316 0.68184 0 0.78127 4.4e-6 1.537 4.4e-6 2.3182h-2.0001v-3.0001z" style="fill:#f2f2f2;stroke-linejoin:round;stroke-width:.99992;stroke:#ccc"/>
 <path id="path4156" d="m2.5 12.5h1.4069c0.073699 0.03236 0.48977 0.42658 0.59316 0.68184 0 0.78127 4.4e-6 1.537 4.4e-6 2.3182h-2.0001v-3.0001z" style="fill:#f2f2f2;stroke-linejoin:round;stroke-width:.99992;stroke:#ccc"/>
</svg>
