<?xml version="1.0" encoding="UTF-8"?>
<!-- Created with Inkscape (http://www.inkscape.org/) -->
<svg id="svg3229" width="16" height="16" version="1.0" xmlns="http://www.w3.org/2000/svg" xmlns:cc="http://creativecommons.org/ns#" xmlns:dc="http://purl.org/dc/elements/1.1/" xmlns:rdf="http://www.w3.org/1999/02/22-rdf-syntax-ns#">
 <metadata id="metadata9">
  <rdf:RDF>
   <cc:Work rdf:about="">
    <dc:format>image/svg+xml</dc:format>
    <dc:type rdf:resource="http://purl.org/dc/dcmitype/StillImage"/>
    <dc:title/>
   </cc:Work>
  </rdf:RDF>
 </metadata>
 <g id="g3893" transform="matrix(.8 0 0 .8 -1.6 -2.4)" style="opacity:.4">
  <path id="path3683-5" d="m2.85 11.144s2.8978-3.2944 9.132-3.2944c6.2036 0 9.168 3.3 9.168 3.3" style="fill:none;opacity:.3;stroke-linecap:round;stroke-width:1.7;stroke:#fff"/>
  <path id="path3683" d="m2.85 10.144s2.8978-3.2944 9.132-3.2944c6.2036 0 9.168 3.3 9.168 3.3" style="fill:none;stroke-linecap:round;stroke-width:1.7;stroke:#3c3c3c"/>
 </g>
 <path id="path3681-0" d="m2.68 8.6021s1.7175-1.7726 5.32-1.7095c3.6324 0.063592 5.32 1.738 5.32 1.738" style="fill:none;opacity:.3;stroke-linecap:round;stroke-width:1.36;stroke:#fff"/>
 <path id="path3681" d="m2.68 7.8021s1.7175-1.7726 5.32-1.7095c3.6324 0.063592 5.32 1.738 5.32 1.738" style="fill:none;stroke-linecap:round;stroke-width:1.36;stroke:#3c3c3c"/>
 <path id="path3209-5" d="m5.08 10.553s0.77352-0.85759 2.8789-0.87377c2.0792-0.015976 2.9611 0.87377 2.9611 0.87377" style="fill:none;opacity:.3;stroke-linecap:round;stroke-width:1.36;stroke:#fff"/>
 <path id="path3209" d="m5.08 9.7528s0.77352-0.85759 2.8789-0.87377c2.0792-0.015976 2.9611 0.87377 2.9611 0.87377" style="fill:none;stroke-linecap:round;stroke-width:1.36;stroke:#3c3c3c"/>
 <path id="path3196-5-7" d="m7.3161 12c-0.37752 0-0.68392 0.23893-0.68392 0.53333 0 0.10941 0.04232 0.21115 0.11487 0.29582l0.80608 0.64115c0.11989 0.0808 0.27611 0.12969 0.44688 0.12969 0.20264 0 0.38479-0.06884 0.51006-0.17815l0.72073-0.56832c0.086033-0.08919 0.13704-0.20008 0.13704-0.32019 0-0.2944-0.30639-0.53333-0.68392-0.53333h-1.3678z" style="fill-rule:evenodd;fill:#fff;opacity:.3"/>
 <path id="path3196-5" d="m7.3161 11.2c-0.37752 0-0.68392 0.23893-0.68392 0.53333 0 0.10941 0.04232 0.21115 0.11487 0.29582l0.80608 0.64115c0.11989 0.0808 0.27611 0.12969 0.44688 0.12969 0.20264 0 0.38479-0.06884 0.51006-0.17815l0.72073-0.56832c0.086033-0.08919 0.13704-0.20008 0.13704-0.32019 0-0.2944-0.30639-0.53333-0.68392-0.53333h-1.3678z" style="fill-rule:evenodd;fill:#3c3c3c"/>
</svg>
