<?xml version="1.0" encoding="UTF-8"?>
<!-- Created with Inkscape (http://www.inkscape.org/) -->
<svg id="svg3187" width="16" height="16" version="1.0" xmlns="http://www.w3.org/2000/svg" xmlns:cc="http://creativecommons.org/ns#" xmlns:dc="http://purl.org/dc/elements/1.1/" xmlns:rdf="http://www.w3.org/1999/02/22-rdf-syntax-ns#">
 <metadata id="metadata8">
  <rdf:RDF>
   <cc:Work rdf:about="">
    <dc:format>image/svg+xml</dc:format>
    <dc:type rdf:resource="http://purl.org/dc/dcmitype/StillImage"/>
    <dc:title/>
   </cc:Work>
  </rdf:RDF>
 </metadata>
 <path id="path2397-5" d="m9 2c-1.1263 0-2.0808 0.59376-2.5938 1.4688-0.28885-0.20595-0.6577-0.3125-1.0625-0.3125-0.92-1e-7 -1.6875 0.61768-1.6875 1.4062 1e-7 0.1771 0.056173 0.34346 0.125 0.5-1.0463 0.40073-1.7812 1.3259-1.7812 2.375 0 1.1271 0.85836 2.0573 2.0312 2.4062-0.015856-0.11379-0.03125-0.22559-0.03125-0.34375 0-1.3807 1.1193-2.5 2.5-2.5 1.3807 0 2.5 1.1193 2.5 2.5 0 0.17259-0.0292 0.33726-0.0625 0.5h2.0625c1.662 0 3-1.1379 3-2.5625 0-1.1284-0.85624-2.0895-2.0312-2.4375 0.0026-0.048815 0.03125-0.10682 0.03125-0.15625 0-1.5771-1.344-2.8438-3-2.8438zm-1 10.5c0 0.82843 0.67157 1.5 1.5 1.5 0.82843 0 1.5-0.67157 1.5-1.5s-0.67157-1.5-1.5-1.5c-0.82843 0-1.5 0.67157-1.5 1.5zm-3-3c0 0.82843 0.67157 1.5 1.5 1.5 0.82843 0 1.5-0.67157 1.5-1.5s-0.67157-1.5-1.5-1.5c-0.82843 0-1.5 0.67157-1.5 1.5zm-1 5c0 0.82843 0.67157 1.5 1.5 1.5 0.82843 0 1.5-0.67157 1.5-1.5s-0.67157-1.5-1.5-1.5c-0.82843 0-1.5 0.67157-1.5 1.5z" style="fill-rule:evenodd;fill:#fff;opacity:.3"/>
 <path id="path2397" d="m9 1c-1.1263 0-2.0808 0.59376-2.5938 1.4688-0.28885-0.20595-0.6577-0.3125-1.0625-0.3125-0.92-1e-7 -1.6875 0.61768-1.6875 1.4062 1e-7 0.1771 0.056173 0.34346 0.125 0.5-1.0463 0.40073-1.7812 1.3259-1.7812 2.375 0 1.1271 0.85836 2.0573 2.0312 2.4062-0.015856-0.11379-0.03125-0.22559-0.03125-0.34375 0-1.3807 1.1193-2.5 2.5-2.5 1.3807 0 2.5 1.1193 2.5 2.5 0 0.17259-0.0292 0.33726-0.0625 0.5h2.0625c1.662 0 3-1.1379 3-2.5625 0-1.1284-0.85624-2.0895-2.0312-2.4375 0.0026-0.048815 0.03125-0.10682 0.03125-0.15625 0-1.5771-1.344-2.8438-3-2.8438zm-1 10.5c0 0.82843 0.67157 1.5 1.5 1.5 0.82843 0 1.5-0.67157 1.5-1.5s-0.67157-1.5-1.5-1.5c-0.82843 0-1.5 0.67157-1.5 1.5zm-3-3c0 0.82843 0.67157 1.5 1.5 1.5 0.82843 0 1.5-0.67157 1.5-1.5s-0.67157-1.5-1.5-1.5c-0.82843 0-1.5 0.67157-1.5 1.5zm-1 5c0 0.82843 0.67157 1.5 1.5 1.5 0.82843 0 1.5-0.67157 1.5-1.5s-0.67157-1.5-1.5-1.5c-0.82843 0-1.5 0.67157-1.5 1.5z" style="fill-rule:evenodd;fill:#3c3c3c"/>
</svg>
