<?xml version="1.0" encoding="UTF-8"?>
<!-- Created with Inkscape (http://www.inkscape.org/) -->
<svg id="svg3793" width="16" height="16" version="1.1" xmlns="http://www.w3.org/2000/svg" xmlns:cc="http://creativecommons.org/ns#" xmlns:dc="http://purl.org/dc/elements/1.1/" xmlns:rdf="http://www.w3.org/1999/02/22-rdf-syntax-ns#">
 <metadata id="metadata3798">
  <rdf:RDF>
   <cc:Work rdf:about="">
    <dc:format>image/svg+xml</dc:format>
    <dc:type rdf:resource="http://purl.org/dc/dcmitype/StillImage"/>
    <dc:title/>
   </cc:Work>
  </rdf:RDF>
 </metadata>
 <g id="layer1">
  <path id="path2876-6-6-4-4" d="m9.3338 10.95c0.07108-1.9643-1.1481-2.5149-1.4821-2.8115-1.1783-1.0466 1.714-5.3881 0.16288-5.1278-1.551 0.26033-2.9858 1.1608-3.8994 2.4471-0.91349 1.2864-1.2946 2.9428-1.0356 4.5017 0.25898 1.5589 1.1549 3.0009 2.4348 3.9191 1.2799 0.9182 2.928 1.3012 4.4789 1.0409 1.5511-0.26033 2.9858-1.1608 3.8994-2.4471 0.91369-1.2864-4.2999 0.03642-4.5589-1.5225z" style="fill:#fff;opacity:.3"/>
  <path id="path2876-6-6-4" d="m9.3338 9.9505c0.07108-1.9643-1.1481-2.5149-1.4821-2.8115-1.1783-1.0466 1.714-5.3881 0.16288-5.1278-1.551 0.26033-2.9858 1.1608-3.8994 2.4471-0.91349 1.2864-1.2946 2.9428-1.0356 4.5017 0.25898 1.5589 1.1549 3.0009 2.4348 3.9191 1.2799 0.9182 2.928 1.3012 4.4789 1.0409 1.5511-0.26033 2.9858-1.1608 3.8994-2.4471 0.91369-1.2864-4.2999 0.03642-4.5589-1.5225z" style="fill:#3c3c3c"/>
 </g>
</svg>
