<?xml version="1.0" encoding="UTF-8" standalone="no"?>
<!-- Created with Inkscape (http://www.inkscape.org/) -->

<svg
   xmlns:dc="http://purl.org/dc/elements/1.1/"
   xmlns:cc="http://creativecommons.org/ns#"
   xmlns:rdf="http://www.w3.org/1999/02/22-rdf-syntax-ns#"
   xmlns:svg="http://www.w3.org/2000/svg"
   xmlns="http://www.w3.org/2000/svg"
   xmlns:xlink="http://www.w3.org/1999/xlink"
   xmlns:sodipodi="http://sodipodi.sourceforge.net/DTD/sodipodi-0.dtd"
   xmlns:inkscape="http://www.inkscape.org/namespaces/inkscape"
   width="22"
   height="22"
   id="svg27665"
   version="1.1"
   inkscape:version="0.48.3.1 r9886"
   sodipodi:docname="emblem-web.svg">
  <defs
     id="defs27667">
    <linearGradient
       inkscape:collect="always"
       id="linearGradient3947">
      <stop
         style="stop-color:#ffffff;stop-opacity:1;"
         offset="0"
         id="stop3949" />
      <stop
         style="stop-color:#ffffff;stop-opacity:0;"
         offset="1"
         id="stop3951" />
    </linearGradient>
    <linearGradient
       inkscape:collect="always"
       id="linearGradient4101">
      <stop
         style="stop-color:#ffffff;stop-opacity:0.76461988"
         offset="0"
         id="stop4103" />
      <stop
         style="stop-color:#de43e4;stop-opacity:0.34795322"
         offset="1"
         id="stop4105" />
    </linearGradient>
    <linearGradient
       inkscape:collect="always"
       id="linearGradient4093">
      <stop
         style="stop-color:#ffffff;stop-opacity:1;"
         offset="0"
         id="stop4095" />
      <stop
         id="stop3151"
         offset="0.33804417"
         style="stop-color:#ffffff;stop-opacity:1" />
      <stop
         style="stop-color:#ffffff;stop-opacity:0;"
         offset="1"
         id="stop4097" />
    </linearGradient>
    <linearGradient
       id="linearGradient4085"
       inkscape:collect="always">
      <stop
         id="stop4087"
         offset="0"
         style="stop-color:#d17ae3;stop-opacity:1" />
      <stop
         id="stop4089"
         offset="1"
         style="stop-color:#d17ae3;stop-opacity:0" />
    </linearGradient>
    <linearGradient
       inkscape:collect="always"
       id="linearGradient4073">
      <stop
         style="stop-color:#aa73b5;stop-opacity:1"
         offset="0"
         id="stop4075" />
      <stop
         style="stop-color:#9d5daa;stop-opacity:0"
         offset="1"
         id="stop4077" />
    </linearGradient>
    <linearGradient
       inkscape:collect="always"
       id="linearGradient4055">
      <stop
         style="stop-color:#ffffff;stop-opacity:1;"
         offset="0"
         id="stop4057" />
      <stop
         style="stop-color:#ffffff;stop-opacity:0;"
         offset="1"
         id="stop4059" />
    </linearGradient>
    <linearGradient
       id="linearGradient4047"
       inkscape:collect="always">
      <stop
         id="stop4049"
         offset="0"
         style="stop-color:#ffffff;stop-opacity:1;" />
      <stop
         id="stop4051"
         offset="1"
         style="stop-color:#ffffff;stop-opacity:0" />
    </linearGradient>
    <linearGradient
       inkscape:collect="always"
       id="linearGradient3695">
      <stop
         style="stop-color:#e6e6e6;stop-opacity:1"
         offset="0"
         id="stop3697" />
      <stop
         style="stop-color:#f9f9f9;stop-opacity:1"
         offset="1"
         id="stop3699" />
    </linearGradient>
    <inkscape:path-effect
       effect="skeletal"
       id="path-effect11732"
       is_visible="true"
       pattern="M 0,5 C 0,2.24 2.24,0 5,0 7.76,0 10,2.24 10,5 10,7.76 7.76,10 5,10 2.24,10 0,7.76 0,5 z"
       copytype="single_stretched"
       prop_scale="0.5"
       scale_y_rel="false"
       spacing="0"
       normal_offset="0"
       tang_offset="0"
       prop_units="false"
       vertical_pattern="false"
       fuse_tolerance="0" />
    <inkscape:path-effect
       effect="spiro"
       id="path-effect11730"
       is_visible="true" />
    <linearGradient
       id="linearGradient11690">
      <stop
         style="stop-color:#a65682;stop-opacity:1;"
         offset="0"
         id="stop11692" />
      <stop
         style="stop-color:#42182f;stop-opacity:1"
         offset="1"
         id="stop11694" />
    </linearGradient>
    <radialGradient
       inkscape:collect="always"
       xlink:href="#linearGradient11690"
       id="radialGradient6073"
       gradientUnits="userSpaceOnUse"
       cx="-1097.0258"
       cy="851.41125"
       fx="-1097.0258"
       fy="851.41125"
       r="60.609154" />
    <linearGradient
       inkscape:collect="always"
       id="linearGradient4442-1-8-8-5-2-2">
      <stop
         style="stop-color:#ffffff;stop-opacity:1;"
         offset="0"
         id="stop4444-4-6-8-3-8-2" />
      <stop
         style="stop-color:#ffffff;stop-opacity:0;"
         offset="1"
         id="stop4446-1-9-7-1-9-6" />
    </linearGradient>
    <linearGradient
       id="linearGradient4678-7-6-0-7-2-0"
       inkscape:collect="always">
      <stop
         id="stop4680-4-8-9-5-9-6"
         offset="0"
         style="stop-color:#ffffff;stop-opacity:1" />
      <stop
         id="stop4682-9-5-6-2-9-9"
         offset="1"
         style="stop-color:#ffffff;stop-opacity:0" />
    </linearGradient>
    <filter
       inkscape:collect="always"
       id="filter9351-4"
       color-interpolation-filters="sRGB">
      <feGaussianBlur
         inkscape:collect="always"
         stdDeviation="4.3638591"
         id="feGaussianBlur9353-2" />
    </filter>
    <radialGradient
       inkscape:collect="always"
       xlink:href="#linearGradient11690-2-0-2-0"
       id="radialGradient3134-6"
       gradientUnits="userSpaceOnUse"
       cx="-1097.0258"
       cy="851.41125"
       fx="-1097.0258"
       fy="851.41125"
       r="60.609154" />
    <linearGradient
       id="linearGradient11690-2-0-2-0">
      <stop
         style="stop-color:#a65682;stop-opacity:1;"
         offset="0"
         id="stop11692-8-1-6-5" />
      <stop
         style="stop-color:#42182f;stop-opacity:1"
         offset="1"
         id="stop11694-4-0-8-2" />
    </linearGradient>
    <radialGradient
       inkscape:collect="always"
       xlink:href="#linearGradient11306-1-0-0"
       id="radialGradient3136-5"
       gradientUnits="userSpaceOnUse"
       gradientTransform="matrix(1.1645027,0,0,1.0873774,204.2828,-113.20914)"
       cx="-1246.502"
       cy="1307.4569"
       fx="-1246.502"
       fy="1307.4569"
       r="58.903805" />
    <linearGradient
       id="linearGradient11306-1-0-0"
       inkscape:collect="always">
      <stop
         id="stop11308-5-3-5"
         offset="0"
         style="stop-color:#ffffff;stop-opacity:1" />
      <stop
         id="stop11310-5-2-6"
         offset="1"
         style="stop-color:#e455a5;stop-opacity:0" />
    </linearGradient>
    <radialGradient
       inkscape:collect="always"
       xlink:href="#radialGradient5147-2-3-7-9"
       id="radialGradient3138-5"
       gradientUnits="userSpaceOnUse"
       gradientTransform="matrix(3.3633379,0,0,3.1288535,-1310.5923,1248.4606)"
       cx="62.224998"
       cy="-3.4419999"
       r="10.081" />
    <radialGradient
       r="10.081"
       gradientTransform="matrix(1.1035,0,0,1.0265,-4.1555,3.1930325)"
       cx="62.224998"
       cy="-3.4419999"
       gradientUnits="userSpaceOnUse"
       id="radialGradient5147-2-3-7-9">
      <stop
         offset="0"
         style="stop-color:#9e9e9e"
         id="stop14118-3-8-9-8" />
      <stop
         offset="1"
         style="stop-color:#9e9e9e;stop-opacity:0"
         id="stop14120-8-6-8-9" />
    </radialGradient>
    <clipPath
       clipPathUnits="userSpaceOnUse"
       id="clipPath6069-9-9-8-7">
      <path
         transform="translate(-138.53498,465.26656)"
         d="m -1027.3252,863.53308 a 60.609154,60.609154 0 1 1 -121.2183,0 60.609154,60.609154 0 1 1 121.2183,0 z"
         sodipodi:ry="60.609154"
         sodipodi:rx="60.609154"
         sodipodi:cy="863.53308"
         sodipodi:cx="-1087.9343"
         id="path6071-1-5-5-5"
         style="fill:url(#radialGradient6073);fill-opacity:1;stroke:none"
         sodipodi:type="arc" />
    </clipPath>
    <filter
       color-interpolation-filters="sRGB"
       inkscape:collect="always"
       id="filter11724-1-2-8-4"
       x="-0.42631578"
       width="1.8526316"
       y="-0.42631578"
       height="1.8526316">
      <feGaussianBlur
         inkscape:collect="always"
         stdDeviation="21.532199"
         id="feGaussianBlur11726-0-7-9-5" />
    </filter>
    <filter
       color-interpolation-filters="sRGB"
       inkscape:collect="always"
       id="filter11718-6-2-8-0"
       x="-0.49736843"
       width="1.9947368"
       y="-0.49736843"
       height="1.9947368">
      <feGaussianBlur
         inkscape:collect="always"
         stdDeviation="25.120899"
         id="feGaussianBlur11720-69-3-8-3" />
    </filter>
    <filter
       color-interpolation-filters="sRGB"
       inkscape:collect="always"
       id="filter6041-2-6-1-0"
       x="-0.10874003"
       width="1.2174801"
       y="-0.12084564"
       height="1.2416914">
      <feGaussianBlur
         inkscape:collect="always"
         stdDeviation="4.4420492"
         id="feGaussianBlur6043-5-4-6-1" />
    </filter>
    <filter
       color-interpolation-filters="sRGB"
       inkscape:collect="always"
       id="filter6055-5-6-3-8"
       x="-0.66838384"
       width="2.3367677"
       y="-0.51280332"
       height="2.0256066">
      <feGaussianBlur
         inkscape:collect="always"
         stdDeviation="31.092455"
         id="feGaussianBlur6057-6-9-2-2" />
    </filter>
    <filter
       color-interpolation-filters="sRGB"
       inkscape:collect="always"
       id="filter4438-3-6"
       x="-0.14189155"
       width="1.2837831"
       y="-0.056318086"
       height="1.1126362">
      <feGaussianBlur
         inkscape:collect="always"
         stdDeviation="9.6954717"
         id="feGaussianBlur4440-7-3" />
    </filter>
    <linearGradient
       inkscape:collect="always"
       xlink:href="#linearGradient4002-1-9"
       id="linearGradient3140-3"
       gradientUnits="userSpaceOnUse"
       x1="-1248.9731"
       y1="1321.9513"
       x2="-1177.0122"
       y2="1305.246" />
    <linearGradient
       inkscape:collect="always"
       id="linearGradient4002-1-9">
      <stop
         style="stop-color:#ffffff;stop-opacity:1;"
         offset="0"
         id="stop4004-2-9" />
      <stop
         style="stop-color:#ffffff;stop-opacity:0;"
         offset="1"
         id="stop4006-7-7" />
    </linearGradient>
    <linearGradient
       inkscape:collect="always"
       xlink:href="#linearGradient3968-6-8"
       id="linearGradient3142-1"
       gradientUnits="userSpaceOnUse"
       x1="-1255.3982"
       y1="1331.5889"
       x2="-1177.0122"
       y2="1305.246" />
    <linearGradient
       inkscape:collect="always"
       id="linearGradient3968-6-8">
      <stop
         style="stop-color:#ffffff;stop-opacity:1;"
         offset="0"
         id="stop3970-5-9" />
      <stop
         style="stop-color:#ffffff;stop-opacity:0;"
         offset="1"
         id="stop3972-8-6" />
    </linearGradient>
    <filter
       color-interpolation-filters="sRGB"
       inkscape:collect="always"
       id="filter3964-1-0"
       x="-0.060857464"
       width="1.1217149"
       y="-0.14297789"
       height="1.2859558">
      <feGaussianBlur
         inkscape:collect="always"
         stdDeviation="2.7378256"
         id="feGaussianBlur3966-5-6" />
    </filter>
    <linearGradient
       inkscape:collect="always"
       xlink:href="#linearGradient4678-6-7"
       id="linearGradient3144-9"
       gradientUnits="userSpaceOnUse"
       x1="-1275.3162"
       y1="1345.724"
       x2="-1176.3696"
       y2="1305.246" />
    <linearGradient
       id="linearGradient4678-6-7"
       inkscape:collect="always">
      <stop
         id="stop4680-9-3"
         offset="0"
         style="stop-color:#ffffff;stop-opacity:1" />
      <stop
         id="stop4682-1-4"
         offset="1"
         style="stop-color:#ffffff;stop-opacity:0" />
    </linearGradient>
    <filter
       color-interpolation-filters="sRGB"
       inkscape:collect="always"
       id="filter4348-5-7">
      <feGaussianBlur
         inkscape:collect="always"
         stdDeviation="0.36945603"
         id="feGaussianBlur4350-9-1" />
    </filter>
    <linearGradient
       inkscape:collect="always"
       xlink:href="#linearGradient4206-2-6"
       id="linearGradient3146-5"
       gradientUnits="userSpaceOnUse"
       x1="-1137.1427"
       y1="329.14276"
       x2="-965.71417"
       y2="486.28561" />
    <linearGradient
       inkscape:collect="always"
       id="linearGradient4206-2-6">
      <stop
         style="stop-color:#ffffff;stop-opacity:1;"
         offset="0"
         id="stop4208-7-8" />
      <stop
         style="stop-color:#ffffff;stop-opacity:0;"
         offset="1"
         id="stop4210-9-2" />
    </linearGradient>
    <linearGradient
       inkscape:collect="always"
       xlink:href="#linearGradient4158-8-8"
       id="linearGradient3148-3"
       gradientUnits="userSpaceOnUse"
       x1="-1137.1427"
       y1="329.14276"
       x2="-857.14276"
       y2="509.14276" />
    <linearGradient
       inkscape:collect="always"
       id="linearGradient4158-8-8">
      <stop
         style="stop-color:#ffffff;stop-opacity:1;"
         offset="0"
         id="stop4160-1-7" />
      <stop
         style="stop-color:#ffffff;stop-opacity:0;"
         offset="1"
         id="stop4162-2-3" />
    </linearGradient>
    <filter
       color-interpolation-filters="sRGB"
       inkscape:collect="always"
       id="filter4132-6-7">
      <feGaussianBlur
         inkscape:collect="always"
         stdDeviation="10.579658"
         id="feGaussianBlur4134-2-8" />
    </filter>
    <linearGradient
       inkscape:collect="always"
       xlink:href="#linearGradient4260-2-7"
       id="linearGradient3150-4"
       gradientUnits="userSpaceOnUse"
       x1="-1277.2435"
       y1="1314.8837"
       x2="-1240.6205"
       y2="1372.7095" />
    <linearGradient
       inkscape:collect="always"
       id="linearGradient4260-2-7">
      <stop
         style="stop-color:#ffffff;stop-opacity:1;"
         offset="0"
         id="stop4262-7-0" />
      <stop
         style="stop-color:#f69dff;stop-opacity:0"
         offset="1"
         id="stop4264-2-1" />
    </linearGradient>
    <filter
       color-interpolation-filters="sRGB"
       inkscape:collect="always"
       id="filter4352-9-0">
      <feGaussianBlur
         inkscape:collect="always"
         stdDeviation="0.36945603"
         id="feGaussianBlur4354-9-6" />
    </filter>
    <linearGradient
       inkscape:collect="always"
       xlink:href="#linearGradient4442-18-2"
       id="linearGradient3152-2"
       gradientUnits="userSpaceOnUse"
       x1="-1249.6157"
       y1="1360.5018"
       x2="-1235.4805"
       y2="1280.1882" />
    <linearGradient
       inkscape:collect="always"
       id="linearGradient4442-18-2">
      <stop
         style="stop-color:#ffffff;stop-opacity:1;"
         offset="0"
         id="stop4444-48-3" />
      <stop
         style="stop-color:#ffffff;stop-opacity:0;"
         offset="1"
         id="stop4446-4-4" />
    </linearGradient>
    <filter
       color-interpolation-filters="sRGB"
       inkscape:collect="always"
       id="filter4546-2-2"
       x="-0.74781162"
       width="2.4956234"
       y="-0.4782517"
       height="1.9565034">
      <feGaussianBlur
         inkscape:collect="always"
         stdDeviation="17.311341"
         id="feGaussianBlur4548-1-5" />
    </filter>
    <linearGradient
       inkscape:collect="always"
       xlink:href="#linearGradient4101"
       id="linearGradient3263"
       gradientUnits="userSpaceOnUse"
       x1="-1123.3976"
       y1="814.711"
       x2="-1062.6179"
       y2="919.9845" />
    <linearGradient
       inkscape:collect="always"
       xlink:href="#linearGradient3695"
       id="linearGradient4045"
       gradientUnits="userSpaceOnUse"
       x1="341.42291"
       y1="534.19281"
       x2="341.42291"
       y2="115.16986" />
    <radialGradient
       inkscape:collect="always"
       xlink:href="#linearGradient4085"
       id="radialGradient4079"
       cx="-1088.801"
       cy="829.52222"
       fx="-1088.801"
       fy="829.52222"
       r="60.609154"
       gradientUnits="userSpaceOnUse"
       gradientTransform="matrix(1.6191633,0,0,1.1813958,673.85275,-150.47187)" />
    <radialGradient
       inkscape:collect="always"
       xlink:href="#linearGradient4073"
       id="radialGradient4083"
       gradientUnits="userSpaceOnUse"
       gradientTransform="matrix(1.338014,0,0,1,367.73709,0)"
       cx="-1087.9343"
       cy="924.22522"
       fx="-1087.9343"
       fy="924.22522"
       r="60.609154" />
    <linearGradient
       inkscape:collect="always"
       xlink:href="#linearGradient3947"
       id="linearGradient3964"
       gradientUnits="userSpaceOnUse"
       x1="-1244.436"
       y1="1293.7211"
       x2="-1244.436"
       y2="1375.1824"
       gradientTransform="matrix(2.6398118,0,0,2.6398118,-15.084423,-3188.4052)" />
    <radialGradient
       inkscape:collect="always"
       xlink:href="#linearGradient4093"
       id="radialGradient3967"
       gradientUnits="userSpaceOnUse"
       gradientTransform="matrix(3.380119,0,0,3.1554795,894.67983,-3849.6267)"
       cx="-1228.9011"
       cy="1293.1102"
       fx="-1228.9011"
       fy="1293.1102"
       r="58.701" />
    <linearGradient
       inkscape:collect="always"
       xlink:href="#linearGradient4047"
       id="linearGradient3985"
       gradientUnits="userSpaceOnUse"
       x1="-1277.2435"
       y1="1314.8837"
       x2="-1210.6425"
       y2="1379.4368"
       gradientTransform="matrix(0.16109642,2.6892275,-2.6892275,0.16109642,537.62879,3398.5604)" />
    <linearGradient
       inkscape:collect="always"
       xlink:href="#linearGradient4678-7-6-0-7-2-0"
       id="linearGradient3994"
       gradientUnits="userSpaceOnUse"
       x1="-1275.3162"
       y1="1345.724"
       x2="-1176.3696"
       y2="1305.246"
       gradientTransform="matrix(0.16109642,2.6892275,-2.6892275,0.16109642,537.62879,3398.5604)" />
    <linearGradient
       inkscape:collect="always"
       xlink:href="#linearGradient4442-1-8-8-5-2-2"
       id="linearGradient3999"
       gradientUnits="userSpaceOnUse"
       x1="-1249.6157"
       y1="1360.5018"
       x2="-1235.4805"
       y2="1280.1882"
       gradientTransform="matrix(0.16109642,2.6892275,-2.6892275,0.16109642,555.49757,3432.5111)" />
    <radialGradient
       inkscape:collect="always"
       xlink:href="#linearGradient4055"
       id="radialGradient4017"
       gradientUnits="userSpaceOnUse"
       cx="9.9999094"
       cy="5.99998"
       fx="9.9999094"
       fy="5.99998"
       r="1" />
  </defs>
  <sodipodi:namedview
     id="base"
     pagecolor="#ffffff"
     bordercolor="#666666"
     borderopacity="1.0"
     inkscape:pageopacity="0.0"
     inkscape:pageshadow="2"
     inkscape:zoom="22.4"
     inkscape:cx="13.603156"
     inkscape:cy="12.690789"
     inkscape:document-units="px"
     inkscape:current-layer="pequeno"
     showgrid="true"
     inkscape:window-width="1680"
     inkscape:window-height="1002"
     inkscape:window-x="-8"
     inkscape:window-y="21"
     inkscape:window-maximized="1"
     inkscape:snap-bbox="true"
     inkscape:bbox-paths="true"
     inkscape:bbox-nodes="true"
     inkscape:snap-bbox-edge-midpoints="true"
     inkscape:snap-bbox-midpoints="true"
     inkscape:object-paths="true"
     inkscape:snap-intersection-paths="true"
     inkscape:object-nodes="true"
     inkscape:snap-smooth-nodes="true"
     inkscape:snap-midpoints="true"
     inkscape:snap-object-midpoints="true"
     inkscape:snap-center="true"
     inkscape:snap-global="true"
     showguides="true"
     inkscape:guide-bbox="true"
     fit-margin-top="0"
     fit-margin-left="0"
     fit-margin-right="0"
     fit-margin-bottom="0"
     inkscape:showpageshadow="false">
    <inkscape:grid
       type="xygrid"
       id="grid4559"
       empspacing="5"
       visible="true"
       enabled="true"
       snapvisiblegridlinesonly="true"
       originx="-0.00013814545px"
       originy="565px" />
  </sodipodi:namedview>
  <metadata
     id="metadata27670">
    <rdf:RDF>
      <cc:Work
         rdf:about="">
        <dc:format>image/svg+xml</dc:format>
        <dc:type
           rdf:resource="http://purl.org/dc/dcmitype/StillImage" />
        <dc:title />
      </cc:Work>
    </rdf:RDF>
  </metadata>
  <g
     inkscape:label="Camada 1"
     inkscape:groupmode="layer"
     id="layer1"
     transform="translate(1356.2085,-1600.6912)">
    <g
       transform="matrix(1.01396,0,0,1.01396,582.76416,-418.28939)"
       id="g3344">
      <path
         transform="matrix(2.533413,0,0,2.533413,-435.37432,-1904.2338)"
         d="m -1027.3252,863.53308 c 0,33.47351 -27.1356,60.60915 -60.6091,60.60915 -33.4735,0 -60.6092,-27.13564 -60.6092,-60.60915 0,-33.47351 27.1357,-60.60915 60.6092,-60.60915 33.4735,0 60.6091,27.13564 60.6091,60.60915 z"
         sodipodi:ry="60.609154"
         sodipodi:rx="60.609154"
         sodipodi:cy="863.53308"
         sodipodi:cx="-1087.9343"
         id="path3346"
         style="opacity:0.25200004;fill:none;stroke:#000000;stroke-width:19.46449852;stroke-miterlimit:4;stroke-dasharray:none;filter:url(#filter9351-4)"
         sodipodi:type="arc" />
      <path
         sodipodi:type="arc"
         style="fill:none;stroke:#ffffff;stroke-width:19.46449852;stroke-miterlimit:4;stroke-dasharray:none"
         id="path3348"
         sodipodi:cx="-1087.9343"
         sodipodi:cy="863.53308"
         sodipodi:rx="60.609154"
         sodipodi:ry="60.609154"
         d="m -1027.3252,863.53308 c 0,33.47351 -27.1356,60.60915 -60.6091,60.60915 -33.4735,0 -60.6092,-27.13564 -60.6092,-60.60915 0,-33.47351 27.1357,-60.60915 60.6092,-60.60915 33.4735,0 60.6091,27.13564 60.6091,60.60915 z"
         transform="matrix(2.533413,0,0,2.533413,-448.77226,-1917.6318)" />
      <g
         transform="matrix(2.5567561,0,0,2.5567561,-69.35216,-3127.3238)"
         id="g3350">
        <path
           sodipodi:type="arc"
           style="fill:url(#radialGradient3134-6);fill-opacity:1;stroke:none"
           id="path3352"
           sodipodi:cx="-1087.9343"
           sodipodi:cy="863.53308"
           sodipodi:rx="60.609154"
           sodipodi:ry="60.609154"
           d="m -1027.3252,863.53308 c 0,33.47351 -27.1356,60.60915 -60.6091,60.60915 -33.4735,0 -60.6092,-27.13564 -60.6092,-60.60915 0,-33.47351 27.1357,-60.60915 60.6092,-60.60915 33.4735,0 60.6091,27.13564 60.6091,60.60915 z"
           transform="translate(-138.53498,465.26656)" />
        <path
           d="m -1225.6128,1270.1931 c -4.6579,0.3677 -9.2435,1.1137 -13.6906,2.5776 -3.749,1.4888 2.7031,-1.3103 -1.1428,-1.8432 -2.3145,-0.396 -3.2841,1.9889 -5.3522,2.0437 -2.3594,0.072 -3.9769,2.1816 -6.1931,2.4354 -0.7981,4.3989 -1.8264,-1.7343 -2.5586,0.4015 0.5805,2.1982 -0.2375,3.6356 -1.9379,4.913 -1.8336,2.0804 -0.1087,3.9426 1.6522,2.1153 0.8459,-2.5436 3.6043,-5.3699 6.2956,-3.6726 2.6934,1.4767 5.3586,5.0371 7.6008,1.2477 -2.3008,-0.2765 -3.1888,-2.2445 -4.2912,-3.687 -1.2198,0.098 -6.3377,-0.9759 -3.0659,-0.7321 1.6105,-0.5258 4.7213,-2.0898 5.8639,-2.0282 -2.8654,1.4944 1.0672,2.4771 2.2311,3.6683 2.093,0.6206 3.0411,3.2789 1.1404,4.6544 -2.444,1.2686 0.1698,3.3582 0.6735,5.1051 0.391,3.0428 3.0364,1.3192 3.8757,-0.5501 1.2132,-3.3995 5.0999,-3.282 7.9117,-4.7312 3.0723,-1.5776 3.1235,-1.633 4.582,0.6154 1.1207,0.6447 4.8606,-1.7015 2.4051,-2.8315 -2.1019,0.1124 -3.4808,1.403 -1.7179,-1.8533 0.4241,-1.7498 2.0697,-4.0342 1.7705,-5.4674 -2.0177,-0.7933 -4.0354,-1.5871 -6.0531,-2.3808 z m -28.5683,11.2611 c 1.0854,1.1103 4.7436,3.1193 4.3792,0.3429 -0.4395,-1.8819 -3.1754,-1.899 -4.3792,-0.3429 z m 55.3647,-1.3556 c -2.5118,0.5158 -5.002,1.0811 -6.9856,2.8153 0.5928,2.3936 -2.5423,2.7368 -3.917,4.0481 -0.3668,0.7694 -0.074,5.6094 1.5578,3.5276 1.7725,-2.3544 2.5409,1.2457 4.4126,1.6059 1.3566,-0.4366 1.5245,-3.4863 1.0142,-4.89 0.8693,-1.4321 2.2877,-3.4124 4.1265,-3.249 -1.1404,1.7405 -2.4433,6.1921 1.1921,4.3725 1.0521,-0.018 -2.8637,2.2998 -3.0985,3.8803 -1.4709,1.5631 -3.0278,2.7611 -5.1523,1.5498 -1.0169,-0.8585 -1.5334,-3.3505 -2.1767,-0.5355 1.321,2.2327 -3.3193,0.1439 -3.2046,3.1567 -0.9745,1.8749 -2.7317,2.6429 -4.7638,2.7783 0.7374,0.5834 3.6342,4.0582 0.7605,3.5665 -1.8395,0.2021 -4.5283,1.2406 -3.7837,3.552 -0.8377,2.8784 1.295,2.1534 2.6066,3.9555 2.1371,-0.6072 3.5015,-1.9176 3.8507,-4.1519 2.0001,-0.5874 2.242,-2.8406 4.4377,-2.7951 2.189,-1.2308 2.6991,2.2475 4.7507,2.505 0.2152,1.2457 -1.02,3.9045 1.3917,1.4305 2.3297,-1.6884 -2.4234,-3.8761 -0.9437,-4.2877 2.106,0.6729 2.8652,2.6724 3.2033,4.6301 1.7162,2.9367 2.1392,1.3535 2.2759,-1.2301 2.6737,-1.2022 3.4969,5.0019 7.2787,3.4738 2.8248,0.5844 1.8272,2.5311 -0.058,3.7196 -1.526,1.4359 -4.0786,0.5285 -5.8716,-0.048 -1.7213,-0.8461 -4.022,-0.7563 -4.9418,1.1689 -1.4183,-0.6634 -2.8847,-2.7781 -4.3213,-3.9985 -3.5499,-1.5665 -7.4107,-0.2308 -10.9479,0.7299 -3.0345,3.5454 -6.6896,6.7636 -7.9964,11.3874 -1.9133,1.9463 1.6563,3.073 -0.7434,4.7427 -1.9592,1.563 0.3293,3.5447 0.7492,5.3424 1.8423,2.2675 4.9698,9.3646 7.8356,6.5387 1.6063,-2.446 2.4981,1.877 4.3885,-0.9204 1.5095,-1.2176 2.9549,1.3962 5.15,0.4369 2.1145,1.3058 1.7097,3.1799 0.8379,5.1598 0.4748,1.6486 2.8373,2.8481 1.9193,5.0833 -0.834,2.082 1.7774,3.6606 1.2509,5.4826 -1.7521,3.5088 -1.339,7.8478 0.286,11.3256 1.3005,3.1472 2.0633,6.5486 1.9618,9.9649 2.2639,0.6773 3.4646,-2.2224 5.7227,-1.5641 2.2046,0.2842 3.0232,-2.5291 4.5742,-3.7058 1.7284,-1.4249 -0.2202,-3.619 2.5235,-4.6285 2.6617,-1.2962 -3.371,-3.113 0.046,-4.2747 1.4176,-1.5777 4.3072,-2.1268 4.8789,-4.1865 -1.0313,-3.1694 -0.6643,-6.6451 -0.51,-9.8868 0.992,-2.5654 2.224,-4.972 4.3468,-6.7885 0.8558,-2.8247 2.8931,-5.4187 2.7109,-8.446 -5.0218,1.5361 -3.4995,-0.6552 -0.7,-2.6616 1.9358,-1.2863 4.2825,-2.5775 5.1833,-4.7603 0.4401,-2.4703 -1.3785,-6.4914 -3.072,-2.7584 -0.7471,-1.4347 -3.5179,-2.1867 -3.3922,-4.0559 -0.5383,-3.8484 1.0503,-0.4399 2.6227,0.3289 3.3971,-1.8449 5.1259,5.415 7.2823,1.082 -1.8836,-13.6279 -9.3021,-25.9939 -19.3237,-35.2572 -1.7403,-3.3373 -2.807,2.2862 -4.5747,2.0728 -1.4142,-1.4783 -4.0537,-3.473 -0.3719,-2.7859 3.1515,-0.923 1.015,-2.142 -1.2952,-2.0855 -1.7496,-0.2125 -3.3559,-0.8248 -4.9836,-1.4598 z m -62.6645,1.3555 c -0.8381,4.1252 -6.1289,3.6436 -7.9738,7.7128 -9.0776,9.6107 -14.6803,22.257 -16.2147,35.3516 0.8103,3.0699 3.3846,4.5442 5.9741,5.9052 2.2002,1.278 5.4255,0.7137 6.659,3.3905 1.3773,1.1273 2.8634,3.3521 4.8327,2.6738 2.8548,-0.2773 1.0978,2.616 0.6089,4.0821 -0.1807,1.8501 -2.4621,3.0289 -1.5855,4.8093 -0.7356,2.0168 -1.3198,4.0163 0.3128,5.7626 1.3883,2.5601 2.5186,5.3276 5.0925,6.9348 1.8048,1.5157 3.8479,3.5214 3.1404,6.0881 -0.376,2.0779 0.1312,3.9927 1.1354,5.8159 -0.3602,2.0466 -1.0995,4.1404 -1.2512,6.1519 2.6806,1.896 8.1394,6.2808 8.5434,1.5085 1.5295,-1.3766 1.622,-3.5919 4.1889,-3.5981 1.1914,-1.4562 1.6016,-3.744 2.4902,-5.5221 -1.2974,-1.6411 0.507,-4.175 2.4524,-4.1079 2.4868,0.1868 2.3953,-2.7266 3.3865,-4.338 -0.023,-2.3539 -1.1855,-5.0206 0.9308,-6.7881 1.5923,-1.4432 1.4274,-3.5586 1.6758,-5.5162 -3.5691,-2.2079 -8.2658,-3.3258 -11.0901,-6.3055 -0.5595,-2.332 -2.3158,-3.1178 -4.5489,-3.287 -0.9428,-1.3185 -0.7832,-4.4588 -2.4307,-4.6122 -2.1223,0.4076 -4.2235,0.7344 -5.7658,-1.1106 -1.7464,-2.3653 -3.2581,0.6095 -4.8551,1.6641 -1.4996,2.6094 -5.6945,-0.1309 -5.193,-3.0693 1.4747,-4.0662 -5.0063,0.4513 -2.3467,-4.3435 1.2653,-5.2274 -2.1538,-1.207 -3.9476,-0.033 -2.189,0.025 -3.0159,-2.1564 -2.6256,-4.153 -0.2777,-2.3999 1.4716,-3.6203 3.2517,-4.8226 2.3823,0.3668 2.9867,-1.7096 4.7713,-1.4394 2.2432,-0.115 3.0627,2.0355 4.3376,3.4617 0.5339,-2.036 -0.5591,-4.9232 1.6949,-6.0594 1.7194,-1.3039 3.4654,-2.5886 3.8773,-4.8476 0.4054,-2.3653 3.9296,-1.4252 4.522,-3.8181 0.8193,-2.5012 4.6066,-0.4822 5.4554,-2.9506 2.6618,-2.5021 -0.8303,-1.7428 -2.7386,-1.823 -3.7651,0.3871 0.3742,-0.9984 1.786,-1.7726 2.091,0.2767 4.0217,-0.4078 5.943,-1.1468 0.2575,2.6164 0.7498,3.9966 2.0852,0.9385 -2.6035,-0.6161 -0.3539,-3.1707 -2.9249,-3.8449 -2.0349,0.143 0.02,-4.3249 -2.4864,-3.8336 -3.2602,2.1576 -0.3474,-1.5318 -3.0033,-2.0223 -2.095,-2.2623 -2.604,1.4526 -3.7415,2.7991 0.7378,2.5817 -2.4108,2.0278 -2.9861,4.1472 -1.2745,3.8203 -0.7361,-0.2721 -2.2573,-1.2509 -1.8791,-0.7536 -4.1427,-1.1533 -4.1564,-3.6268 2.5193,-1.8446 6.2991,-2.932 7.9227,-5.8365 0.9433,-2.256 -0.7989,-3.4886 -2.9448,-3.319 l 0,0 z m 44.7277,5.0049 c -0.3806,2.0041 1.6688,3.0755 0.9384,5.2134 -0.6549,2.3422 -0.8451,4.2031 2.0813,2.8361 3.0379,-1.5599 1.099,-2.7477 -0.1176,-4.7939 -0.8286,-1.3599 -0.749,-3.8864 -2.9017,-3.2558 z m -2.2938,3.3367 c -2.4204,-0.7317 -1.8819,4.4177 -0.3706,3.084 2.2176,-0.5461 0.7224,-1.6007 0.3706,-3.084 z m 30.5489,27.4233 c 2.9011,2.574 3.8921,6.3844 5.7477,9.6307 2.7562,1.2185 0.1266,3.2904 1.3569,4.7892 2.5877,2.8111 -3.5818,0.7473 -2.7614,-2.0697 -0.6009,-3.7001 -3.2183,-6.2303 -4.4738,-9.4628 -0.1307,-1.0747 -1.175,-2.188 0.1306,-2.8874 z"
           style="fill:url(#radialGradient3136-5);fill-opacity:1;stroke:url(#radialGradient3138-5);stroke-width:0.42565936"
           id="path3354"
           inkscape:connector-curvature="0" />
        <g
           id="g3356"
           clip-path="url(#clipPath6069-9-9-8-7)">
          <path
             transform="matrix(0.46436298,0,0,0.46436298,-734.40488,913.66471)"
             d="m -1027.3252,863.53308 c 0,33.47351 -27.1356,60.60915 -60.6091,60.60915 -33.4735,0 -60.6092,-27.13564 -60.6092,-60.60915 0,-33.47351 27.1357,-60.60915 60.6092,-60.60915 33.4735,0 60.6091,27.13564 60.6091,60.60915 z"
             sodipodi:ry="60.609154"
             sodipodi:rx="60.609154"
             sodipodi:cy="863.53308"
             sodipodi:cx="-1087.9343"
             id="path3358"
             style="fill:#e50095;fill-opacity:1;stroke:none;filter:url(#filter11724-1-2-8-4)"
             sodipodi:type="arc" />
          <path
             transform="matrix(0.33646015,0,0,0.33646015,-873.55474,1024.1131)"
             d="m -1027.3252,863.53308 c 0,33.47351 -27.1356,60.60915 -60.6091,60.60915 -33.4735,0 -60.6092,-27.13564 -60.6092,-60.60915 0,-33.47351 27.1357,-60.60915 60.6092,-60.60915 33.4735,0 60.6091,27.13564 60.6091,60.60915 z"
             sodipodi:ry="60.609154"
             sodipodi:rx="60.609154"
             sodipodi:cy="863.53308"
             sodipodi:cx="-1087.9343"
             id="path3360"
             style="fill:#ffffff;fill-opacity:1;stroke:none;filter:url(#filter11718-6-2-8-0)"
             sodipodi:type="arc" />
          <path
             sodipodi:nodetypes="csc"
             transform="translate(-132.47406,473.34778)"
             inkscape:connector-curvature="0"
             inkscape:original-d="m -1141.9775,877.67522 c 0,0 54.8442,29.83539 65.4508,21.75417 10.6066,-8.08122 18.3919,-84.38362 18.3919,-84.38362"
             inkscape:path-effect="#path-effect11730;#path-effect11732"
             id="path3362"
             d="m -1141.9775,877.67522 c 0.182,-0.10795 0.8148,0.59712 1.936,1.9256 1.1212,1.32848 2.7419,3.28019 5.0179,5.54497 2.276,2.26477 5.2177,4.84387 8.9337,7.29536 3.716,2.45149 8.2131,4.77554 13.4228,6.3858 5.0247,1.55717 10.7249,2.436 16.7514,2.26518 6.0266,-0.17082 12.3764,-1.39276 18.4402,-3.94651 3.7139,-1.55859 7.3137,-3.63577 10.6689,-6.17549 3.1713,-2.40039 6.0187,-5.13279 8.4916,-8.06589 2.7435,-3.26061 5.032,-6.77719 6.8357,-10.3852 1.8038,-3.60801 3.1225,-7.30701 3.9701,-10.96125 1.0278,-4.40239 1.377,-8.74065 1.2648,-12.80986 -0.1122,-4.0692 -0.6853,-7.86966 -1.509,-11.2879 0,0 0,-10e-6 0,-10e-6 -0.8897,-3.68029 -2.0706,-6.9271 -3.2983,-9.69522 -1.2278,-2.76812 -2.5016,-5.06082 -3.6124,-6.89834 -1.1107,-1.83751 -2.0573,-3.22379 -2.679,-4.18969 -0.6216,-0.96589 -0.9167,-1.51502 -0.7917,-1.631 0.125,-0.11598 0.6652,0.20706 1.5453,0.9802 0.8802,0.77315 2.0991,1.99997 3.4994,3.73389 1.4002,1.73392 2.9808,3.97891 4.5175,6.77276 1.5367,2.79384 3.0283,6.13992 4.1993,10.00417 0,10e-6 0,10e-6 0,10e-6 1.0898,3.58778 1.9041,7.62985 2.2006,12.01429 0.2964,4.38444 0.074,9.11168 -0.9166,13.97004 -0.8274,4.03025 -2.1813,8.1164 -4.0858,12.10028 -1.9045,3.98389 -4.3596,7.86488 -7.3394,11.45697 -2.6797,3.23645 -5.7895,6.24471 -9.2754,8.87986 -3.6881,2.78809 -7.6676,5.05889 -11.788,6.75492 -6.714,2.75456 -13.6889,3.98515 -20.2617,4.02075 -6.5728,0.0356 -12.7403,-1.12025 -18.1191,-3.02095 -5.5742,-1.97402 -10.2678,-4.71353 -14.0455,-7.56832 -3.7777,-2.85479 -6.6473,-5.82378 -8.7602,-8.43052 -2.1128,-2.60675 -3.4798,-4.8522 -4.2977,-6.43308 -0.8179,-1.58088 -1.0974,-2.49787 -0.9154,-2.60582 z"
             style="fill:#ff89d4;fill-opacity:1;fill-rule:evenodd;stroke:none;filter:url(#filter6041-2-6-1-0)" />
          <path
             sodipodi:type="arc"
             style="opacity:0.67333332;fill:#ffb1ed;fill-opacity:1;stroke:none;filter:url(#filter6055-5-6-3-8)"
             id="path3364"
             sodipodi:cx="-1087.9343"
             sodipodi:cy="863.53308"
             sodipodi:rx="60.609154"
             sodipodi:ry="60.609154"
             d="m -1027.3252,863.53308 c 0,33.47351 -27.1356,60.60915 -60.6091,60.60915 -33.4735,0 -60.6092,-27.13564 -60.6092,-60.60915 0,-33.47351 27.1357,-60.60915 60.6092,-60.60915 33.4735,0 60.6091,27.13564 60.6091,60.60915 z"
             transform="matrix(0.29479948,-0.16216874,0.09524973,0.17315033,-961.13011,1039.7791)" />
        </g>
        <g
           id="g3366">
          <path
             sodipodi:nodetypes="cccccccccccccccc"
             inkscape:connector-curvature="0"
             id="path3368"
             d="m -907.11695,-13.279331 c -12.08851,4.2373005 -23.29034,10.9150614 -33.4539,18.8273602 -11.72007,9.1213668 -22.1453,19.8767688 -31.55155,31.4005188 l -10e-6,9e-6 c -22.71093,27.823475 -39.87749,59.948959 -53.64809,93.155343 l 0,1e-5 c -16.1821,38.97209 -27.6819,79.90816 -35.1858,121.54232 -8.0457,44.5852 -11.4877,90.15621 -9.685,135.70948 2.6135,16.27069 19.369,17.57453 19.9622,-1.22926 -3.7057,-43.89712 -2.3474,-88.35545 3.5728,-132.2952 5.5392,-41.04117 14.989,-81.6502 29.1977,-120.66357 l 0,-2e-5 c 12.1307,-33.258605 27.50716,-65.54617 48.68638,-93.955487 l 10e-6,-1.8e-5 c 8.76611,-11.758984 18.54671,-22.812475 29.73019,-32.3391014 9.69849,-8.259327 20.48686,-15.3819113 32.37507,-20.1523846 z"
             style="fill:#ffffff;fill-rule:evenodd;stroke:none;filter:url(#filter4438-3-6)"
             transform="matrix(0.22487811,0,0,0.22487811,-1011.8874,1272.3496)" />
          <path
             style="opacity:0.81927712;fill:url(#linearGradient3140-3);fill-opacity:1;fill-rule:evenodd;stroke:url(#linearGradient3142-1);stroke-width:3.85735726;stroke-miterlimit:4;stroke-dasharray:none;filter:url(#filter3964-1-0)"
             d="m -1170.9002,1306.1635 c -2.054,-1.2475 -4.4893,-1.7605 -6.8786,-2.0811 -3.415,-0.4616 -6.8852,-0.4566 -10.3255,-0.2572 l 0,0 c -9.4126,0.5441 -18.7209,2.5437 -27.7658,5.2496 l 0,0 c -11.0688,3.3076 -21.8148,7.8025 -31.9622,13.4445 -10.8449,6.0259 -21.0375,13.4185 -29.8358,22.3644 -3.044,3.5826 0.2574,6.6125 3.6388,3.429 8.0254,-8.9074 17.5869,-16.489 27.9249,-22.8349 9.6798,-5.938 20.0469,-10.8111 30.8332,-14.544 l 0,0 c 8.8259,-3.051 17.9219,-5.4263 27.2259,-6.3624 l 0,0 c 3.401,-0.3416 6.8281,-0.4961 10.2317,-0.1827 2.3853,0.2221 4.8079,0.6163 6.9134,1.7748 z"
             id="path3370"
             inkscape:connector-curvature="0"
             sodipodi:nodetypes="cccccccccccccccc" />
          <path
             sodipodi:nodetypes="cccccccccccccccc"
             inkscape:connector-curvature="0"
             id="path3372"
             d="m -1170.9002,1306.1635 c -2.054,-1.2475 -4.4893,-1.7605 -6.8786,-2.0811 -3.415,-0.4616 -6.8852,-0.4566 -10.3255,-0.2572 l 0,0 c -9.4126,0.5441 -18.7209,2.5437 -27.7658,5.2496 l 0,0 c -11.0688,3.3076 -21.8148,7.8025 -31.9622,13.4445 -10.8449,6.0259 -21.0375,13.4185 -29.8358,22.3644 -3.044,3.5826 0.2574,6.6125 3.6388,3.429 8.0254,-8.9074 17.5869,-16.489 27.9249,-22.8349 9.6798,-5.938 20.0469,-10.8111 30.8332,-14.544 l 0,0 c 8.8259,-3.051 17.9219,-5.4263 27.2259,-6.3624 l 0,0 c 3.401,-0.3416 6.8281,-0.4961 10.2317,-0.1827 2.3853,0.2221 4.8079,0.6163 6.9134,1.7748 z"
             style="fill:url(#linearGradient3144-9);fill-opacity:1;fill-rule:evenodd;stroke:none;filter:url(#filter4348-5-7)" />
          <path
             transform="matrix(0.22487811,0,0,0.22487811,-1011.8874,1272.3496)"
             style="opacity:0.81927712;fill:url(#linearGradient3146-5);fill-opacity:1;fill-rule:evenodd;stroke:url(#linearGradient3148-3);stroke-width:17.15310097;stroke-miterlimit:4;stroke-dasharray:none;filter:url(#filter4132-6-7)"
             d="m -826.3048,485.73604 c -21.70823,3.57078 -43.85079,4.09756 -65.5929,1.62966 -21.20693,-2.40628 -42.02367,-7.63881 -61.88078,-15.2201 l -1e-5,0 c -39.97127,-15.25336 -75.95051,-39.88195 -106.04691,-69.9543 l 0,-1e-5 c -30.0924,-30.09496 -54.4939,-65.72313 -71.1277,-104.49349 -15.8785,-37.09722 -24.7138,-77.25782 -22.7466,-116.74966 -2.1741,-16.84949 -19.2531,-15.30947 -19.9922,-0.55636 -0.3315,43.11268 10.6979,85.3911 28.9198,123.5664 19.0032,39.894 45.7605,75.78243 77.9309,105.5324 l 0,2e-5 c 32.1612,29.7675 70.05482,53.47355 111.34477,67.43367 l 3e-5,1e-5 c 20.51963,6.93417 41.8463,11.4038 63.35884,13.00095 22.05752,1.63675 44.28006,0.22427 65.83276,-4.18919 z"
             id="path3374"
             inkscape:connector-curvature="0"
             sodipodi:nodetypes="cccccccccccccccc" />
          <path
             sodipodi:nodetypes="cccccccccccccccc"
             inkscape:connector-curvature="0"
             id="path3376"
             d="m -1197.7053,1381.581 c -4.8817,0.803 -9.861,0.9215 -14.7504,0.3665 -4.7689,-0.5411 -9.4502,-1.7178 -13.9156,-3.4227 l 0,0 c -8.9887,-3.4301 -17.0796,-8.9686 -23.8476,-15.7312 l 0,0 c -6.7672,-6.7677 -12.2545,-14.7797 -15.9951,-23.4983 -3.5707,-8.3423 -5.5576,-17.3736 -5.1152,-26.2544 -0.4889,-3.7891 -4.3296,-3.4428 -4.4958,-0.1251 -0.075,9.6951 2.4057,19.2026 6.5034,27.7873 4.2734,8.9713 10.2905,17.0419 17.525,23.732 l 0,0 c 7.2323,6.694 15.7538,12.025 25.039,15.1643 l 0,0 c 4.6144,1.5594 9.4103,2.5645 14.248,2.9237 4.9602,0.368 9.9576,0.05 14.8043,-0.9421 z"
             style="fill:url(#linearGradient3150-4);fill-opacity:1;fill-rule:evenodd;stroke:none;filter:url(#filter4352-9-0)" />
          <path
             style="fill:url(#linearGradient3152-2);fill-opacity:1;fill-rule:evenodd;stroke:none"
             d="m -1215.8781,1269.3634 c -2.7185,0.9528 -5.2375,2.4545 -7.5231,4.2338 -2.6356,2.0512 -4.98,4.4699 -7.0952,7.0613 l -10e-5,0 c -5.1071,6.2569 -8.9675,13.4812 -12.0642,20.9486 l 0,0 c -3.639,8.764 -6.2251,17.9696 -7.9125,27.3322 -1.8093,10.0263 -2.5834,20.2742 -2.178,30.5181 0.5877,3.6589 4.3557,3.9521 4.4891,-0.2764 -0.8334,-9.8715 -0.5279,-19.8692 0.8034,-29.7503 1.2457,-9.2293 3.3707,-18.3614 6.5659,-27.1346 l 0,0 c 2.728,-7.4791 6.1858,-14.7399 10.9485,-21.1285 l 0,0 c 1.9713,-2.6444 4.1708,-5.1301 6.6857,-7.2724 2.181,-1.8573 4.6071,-3.4591 7.2805,-4.5318 z"
             id="path3378"
             inkscape:connector-curvature="0"
             sodipodi:nodetypes="cccccccccccccccc" />
          <path
             style="fill:#ffffff;fill-rule:evenodd;stroke:none;filter:url(#filter4546-2-2)"
             d="m -1156.6247,251.38064 c 11.5563,9.20581 23.3602,18.28779 45.4569,22.22336 l -8.0812,64.64976 -47.4772,-15.15229 z"
             id="path3380"
             inkscape:connector-curvature="0"
             transform="matrix(0.22487811,0,0,0.22487811,-1011.8874,1272.3496)"
             sodipodi:nodetypes="ccccc" />
        </g>
      </g>
    </g>
    <g
       inkscape:label="#g3340"
       transform="matrix(0.04296875,0,0,0.04296875,-1205.4426,1597.968)"
       id="pequeno">
      <rect
         y="63.375866"
         x="-3508.7327"
         height="512"
         width="512"
         id="rect4489"
         style="opacity:0.00100002;fill:#ffffff;fill-opacity:1;fill-rule:nonzero;stroke:none" />
      <path
         d="m 520.22855,325.62854 a 208.5965,208.5965 0 1 1 -417.193,0 208.5965,208.5965 0 1 1 417.193,0 z"
         sodipodi:ry="208.5965"
         sodipodi:rx="208.5965"
         sodipodi:cy="325.62854"
         sodipodi:cx="311.63205"
         id="path4561"
         style="opacity:0.3;fill:none;stroke:#000000;stroke-width:60.68382645;stroke-miterlimit:4;stroke-dasharray:none"
         sodipodi:type="arc"
         transform="matrix(0.76701578,0,0,0.76701578,-3491.7593,87.068179)" />
      <path
         transform="matrix(0.78097918,0,0,0.78097918,-3496.1107,65.066751)"
         sodipodi:type="arc"
         style="fill:none;stroke:url(#linearGradient4045);stroke-width:59.59883881;stroke-miterlimit:4;stroke-dasharray:none"
         id="path4041"
         sodipodi:cx="311.63205"
         sodipodi:cy="325.62854"
         sodipodi:rx="208.5965"
         sodipodi:ry="208.5965"
         d="m 520.22855,325.62854 a 208.5965,208.5965 0 1 1 -417.193,0 208.5965,208.5965 0 1 1 417.193,0 z" />
      <g
         id="g4001"
         transform="matrix(1.0181755,0,0,1.0181755,59.119932,-5.8048045)">
        <path
           transform="matrix(2.6398118,0,0,2.6398118,-380.7907,-1960.189)"
           d="m -1027.3252,863.53308 c 0,33.47351 -27.1356,60.60915 -60.6091,60.60915 -33.4735,0 -60.6092,-27.13564 -60.6092,-60.60915 0,-33.47351 27.1357,-60.60915 60.6092,-60.60915 33.4735,0 60.6091,27.13564 60.6091,60.60915 z"
           sodipodi:ry="60.609154"
           sodipodi:rx="60.609154"
           sodipodi:cy="863.53308"
           sodipodi:cx="-1087.9343"
           id="path4063"
           style="fill:#45334f;fill-opacity:1;stroke:none"
           sodipodi:type="arc" />
        <path
           transform="matrix(2.6398118,0,0,2.6398118,-380.7907,-1960.189)"
           d="m -1027.3252,863.53308 c 0,33.47351 -27.1356,60.60915 -60.6091,60.60915 -33.4735,0 -60.6092,-27.13564 -60.6092,-60.60915 0,-33.47351 27.1357,-60.60915 60.6092,-60.60915 33.4735,0 60.6091,27.13564 60.6091,60.60915 z"
           sodipodi:ry="60.609154"
           sodipodi:rx="60.609154"
           sodipodi:cy="863.53308"
           sodipodi:cx="-1087.9343"
           id="path4081"
           style="fill:url(#radialGradient4083);fill-opacity:1;stroke:none"
           sodipodi:type="arc" />
        <path
           sodipodi:type="arc"
           style="fill:url(#radialGradient4079);fill-opacity:1;stroke:none"
           id="path4497"
           sodipodi:cx="-1087.9343"
           sodipodi:cy="863.53308"
           sodipodi:rx="60.609154"
           sodipodi:ry="60.609154"
           d="m -1027.3252,863.53308 c 0,33.47351 -27.1356,60.60915 -60.6091,60.60915 -33.4735,0 -60.6092,-27.13564 -60.6092,-60.60915 0,-33.47351 27.1357,-60.60915 60.6092,-60.60915 33.4735,0 60.6091,27.13564 60.6091,60.60915 z"
           transform="matrix(2.6398118,0,0,2.6398118,-380.7907,-1960.189)" />
        <path
           d="m -3250.786,177.37253 c -11.2157,0.88539 -22.2575,2.68179 -32.9659,6.20673 -9.0274,3.58486 6.509,-3.15537 -2.7518,-4.43832 -5.5731,-0.9535 -7.9078,4.78915 -12.8878,4.92087 -5.6814,0.17423 -9.5762,5.25349 -14.9126,5.86461 -1.9217,10.59198 -4.3979,-4.17618 -6.1607,0.9667 1.3977,5.29309 -0.5718,8.75441 -4.6664,11.83005 -4.4154,5.00957 -0.2614,9.49356 3.9782,5.09352 2.0368,-6.12463 8.6791,-12.93033 15.1596,-8.84337 6.4855,3.55583 12.9031,12.12888 18.3021,3.00463 -5.5402,-0.66602 -7.6784,-5.40475 -10.333,-8.87821 -2.9371,0.23494 -15.2605,-2.34996 -7.3823,-1.76287 3.8779,-1.26605 11.3684,-5.03201 14.1196,-4.88365 -6.8994,3.59833 2.5699,5.96439 5.3725,8.83307 5.0397,1.49414 7.3229,7.89515 2.746,11.20733 -5.885,3.05452 0.4089,8.08627 1.6219,12.29281 0.9413,7.32679 7.3112,3.17648 9.3322,-1.32466 2.9213,-8.18579 12.2804,-7.90307 19.051,-11.39237 7.3978,-3.79869 7.5211,-3.93227 11.0331,1.48172 2.6984,1.55248 11.7039,-4.09698 5.7912,-6.8181 -5.0613,0.27058 -8.3814,3.37843 -4.1365,-4.4626 1.021,-4.21341 4.9837,-9.71398 4.2633,-13.16501 -4.8586,-1.91017 -9.7169,-3.82165 -14.5755,-5.73288 z m -68.7903,27.11588 c 2.6134,2.67361 11.422,7.51106 10.5447,0.82574 -1.0583,-4.5315 -7.6462,-4.57268 -10.5447,-0.82574 z m 133.3145,-3.26412 c -6.0486,1.24203 -12.0447,2.60312 -16.8209,6.77903 1.4273,5.76377 -6.122,6.59003 -9.4318,9.74751 -0.8835,1.85288 -0.1795,13.50712 3.7509,8.49439 4.2678,-5.66953 6.1183,2.99935 10.6253,3.86679 3.2667,-1.05144 3.6706,-8.39486 2.442,-11.77488 2.0932,-3.44838 5.5085,-8.21668 9.9363,-7.82334 -2.7459,4.19096 -5.8831,14.91018 2.8705,10.52862 2.5335,-0.0449 -6.8957,5.5378 -7.4609,9.34361 -3.5418,3.76385 -7.2906,6.64863 -12.4066,3.73191 -2.4484,-2.06724 -3.6923,-8.06806 -5.241,-1.28955 3.1809,5.37624 -7.9929,0.34661 -7.7165,7.60107 -2.3468,4.51487 -6.5779,6.3638 -11.471,6.69008 1.7755,1.40464 8.751,9.77179 1.8312,8.58783 -4.4293,0.48652 -10.9037,2.98721 -9.1108,8.55299 -2.0173,6.93109 3.1182,5.18512 6.2765,9.52471 5.146,-1.46219 8.4313,-4.61756 9.2723,-9.99776 4.8161,-1.41441 5.3984,-6.83975 10.6854,-6.7302 5.2709,-2.96372 6.4995,5.41188 11.4397,6.0317 0.5179,2.99962 -2.4564,9.40169 3.3509,3.4447 5.6096,-4.06558 -5.8355,-9.33359 -2.2723,-10.32457 5.0711,1.62031 6.8991,6.43507 7.7132,11.14898 4.1327,7.07126 5.1511,3.25911 5.4803,-2.96187 6.438,-2.89482 8.4202,12.04388 17.5265,8.36451 6.802,1.40728 4.3998,6.09479 -0.1399,8.95661 -3.6746,3.45763 -9.8209,1.27266 -14.1383,-0.11615 -4.145,-2.03714 -9.685,-1.8212 -11.8995,2.81457 -3.4154,-1.59735 -6.9464,-6.68928 -10.4053,-9.62819 -8.548,-3.77176 -17.8446,-0.55568 -26.362,1.75759 -7.3067,8.53715 -16.1079,16.28632 -19.2548,27.41999 -4.607,4.68672 3.9882,7.39966 -1.7898,11.42009 -4.7176,3.76358 0.7928,8.53557 1.8038,12.86433 4.4362,5.45992 11.9668,22.54927 18.8675,15.74489 3.8679,-5.88994 6.0154,4.51936 10.5672,-2.21638 3.635,-2.93204 7.1154,3.3618 12.401,1.05196 5.0915,3.14428 4.1168,7.65704 2.0174,12.42454 1.1433,3.96975 6.8324,6.85797 4.6218,12.24002 -2.0084,5.01353 4.2799,8.81459 3.012,13.20196 -4.2189,8.44898 -3.2243,18.89683 0.6887,27.2711 3.1314,7.57838 4.9682,15.76866 4.7237,23.99484 5.4515,1.63087 8.3429,-5.35143 13.7801,-3.76622 5.3084,0.68424 7.2795,-6.09005 11.0143,-8.92336 4.162,-3.43096 -0.5303,-8.71428 6.0764,-11.14528 6.4092,-3.12079 -8.1172,-7.49575 0.1108,-10.29316 3.4136,-3.79869 10.3716,-5.12123 11.748,-10.08065 -2.4833,-7.63169 -1.5995,-16.00095 -1.2281,-23.80661 2.3888,-6.17743 5.3554,-11.97234 10.4669,-16.34651 2.0606,-6.80147 6.9662,-13.0478 6.5275,-20.33711 -12.092,3.69864 -8.4266,-1.57781 -1.6853,-6.40893 4.6611,-3.09729 10.3119,-6.20647 12.481,-11.46259 1.0597,-5.94856 -3.3193,-15.63086 -7.3972,-6.64203 -1.7988,-3.45473 -8.4709,-5.26564 -8.1684,-9.76625 -1.2959,-9.2668 2.5295,-1.05936 6.3152,0.79194 8.1803,-4.44254 12.343,13.03882 17.5355,2.60523 -4.5357,-32.81497 -22.3988,-62.59126 -46.5301,-84.89687 -4.1907,-8.03586 -6.7593,5.5048 -11.0157,4.99135 -3.4051,-3.55978 -9.761,-8.36292 -0.8954,-6.70855 7.5886,-2.2222 2.4442,-5.15767 -3.1187,-5.02145 -4.2129,-0.51186 -8.0807,-1.9862 -12.0001,-3.51544 z m -150.8919,3.26386 c -2.0182,9.93308 -14.7582,8.77368 -19.2004,18.57187 -21.8582,23.14191 -35.3492,53.59346 -39.0439,85.12443 1.9511,7.392 8.1499,10.94202 14.3851,14.21934 5.2981,3.07723 13.0642,1.71852 16.0345,8.16388 3.3164,2.71479 6.8949,8.07176 11.6368,6.4385 6.8741,-0.66787 2.6435,6.29912 1.4662,9.82934 -0.4353,4.45495 -5.9288,7.29328 -3.8177,11.58033 -1.7713,4.85646 -3.1781,9.67095 0.7531,13.87591 3.3428,6.16475 6.0647,12.82869 12.2625,16.69865 4.3456,3.64981 9.2654,8.47934 7.562,14.65967 -0.9055,5.0035 0.3157,9.61446 2.7338,14.0042 -0.8675,4.92827 -2.6475,9.97004 -3.0129,14.81357 6.4546,4.56556 19.5991,15.12375 20.5721,3.63238 3.6828,-3.31481 3.9056,-8.64908 10.0864,-8.66412 2.869,-3.5062 3.8568,-9.01523 5.9964,-13.29674 -3.1242,-3.95179 1.2206,-10.05319 5.9052,-9.89137 5.9879,0.44982 5.7678,-6.56574 8.1544,-10.446 -0.055,-5.66794 -2.8547,-12.08902 2.2412,-16.34519 3.8341,-3.47478 3.4371,-8.56856 4.0352,-13.28247 -8.5941,-5.31658 -19.9034,-8.0084 -26.7043,-15.18341 -1.3471,-5.61514 -5.5761,-7.50736 -10.9534,-7.91468 -2.2699,-3.1749 -1.8856,-10.73665 -5.8527,-11.10596 -5.1104,0.98149 -10.1701,1.76841 -13.8838,-2.67439 -4.2052,-5.69539 -7.8453,1.468 -11.6907,4.00724 -3.611,6.28328 -13.712,-0.31493 -12.5045,-7.39069 3.5511,-9.79106 -12.0547,1.08681 -5.6505,-10.45867 3.0468,-12.58741 -5.1865,-2.90669 -9.5057,-0.0792 -5.271,0.0607 -7.2622,-5.19251 -6.3224,-10.00014 -0.6687,-5.77881 3.5437,-8.71718 7.83,-11.61253 5.7363,0.88355 7.1919,-4.11626 11.4889,-3.46581 5.4014,-0.27691 7.3749,4.90134 10.4447,8.33574 1.2856,-4.90266 -1.3463,-11.85513 4.0812,-14.59077 4.1403,-3.13979 8.3444,-6.23312 9.3365,-11.67272 0.9759,-5.69539 9.4621,-3.43176 10.8887,-9.19394 1.9727,-6.02246 11.0919,-1.16099 13.1359,-7.10479 6.4095,-6.02457 -1.9991,-4.19624 -6.5942,-4.38948 -9.0662,0.93212 0.9012,-2.40407 4.3005,-4.26831 5.0349,0.66629 9.6839,-0.98201 14.3101,-2.76124 0.6204,6.29991 1.8057,9.62343 5.0212,2.25941 -6.269,-1.48331 -0.8521,-7.63459 -7.0427,-9.25808 -4.9,0.34423 0.048,-10.41406 -5.9874,-9.23089 -7.8502,5.19541 -0.8363,-3.68861 -7.2315,-4.86966 -5.0449,-5.44752 -6.2706,3.49775 -9.0094,6.73996 1.7766,6.2165 -5.8049,4.88286 -7.1903,9.98615 -3.0691,9.19921 -1.7726,-0.65494 -5.4354,-3.01203 -4.5249,-1.8146 -9.9756,-2.77708 -10.0083,-8.73302 6.066,-4.44149 15.1678,-7.06018 19.0771,-14.05383 2.2716,-5.43247 -1.9233,-8.40041 -7.0908,-7.99203 l 0,0 z m 107.7011,12.05153 c -0.9163,4.82584 4.0183,7.40573 2.2597,12.55363 -1.577,5.63996 -2.035,10.12051 5.0117,6.82893 7.3149,-3.75619 2.6464,-6.61616 -0.2833,-11.54337 -1.9954,-3.27469 -1.8038,-9.35813 -6.9873,-7.83971 z m -5.5233,8.03453 c -5.8281,-1.76181 -4.5315,10.63739 -0.8925,7.42632 5.3398,-1.31542 1.7397,-3.85465 0.8925,-7.42632 z m 73.5597,66.03358 c 6.9858,6.19801 9.3719,15.3732 13.84,23.18995 6.6368,2.93415 0.3049,7.92287 3.2673,11.53202 6.231,6.769 -8.6248,1.79956 -6.6491,-4.98344 -1.4472,-8.90989 -7.7495,-15.00231 -10.7728,-22.78606 -0.3147,-2.58781 -2.8291,-5.26854 0.3146,-6.95247 z"
           style="opacity:0.46345029;fill:#201823;fill-opacity:1;stroke:none"
           id="path4505"
           inkscape:connector-curvature="0" />
        <path
           d="m -3250.4716,164.66553 c -12.2959,0.97066 -24.4011,2.93996 -36.1406,6.80438 -9.8966,3.93015 7.1357,-3.45894 -3.0167,-4.8657 -6.1099,-1.04536 -8.6694,5.25032 -14.1288,5.39498 -6.2284,0.19007 -10.4983,5.75902 -16.3487,6.429 -2.1068,11.61227 -4.8213,-4.57822 -6.7542,1.05989 1.5324,5.80283 -0.6269,9.5973 -5.1157,12.96939 -4.8403,5.49187 -0.2869,10.40772 4.3615,5.584 2.233,-6.71463 9.5147,-14.17553 16.6192,-9.69498 7.1101,3.89821 14.1457,13.297 20.0647,3.2937 -6.0737,-0.72991 -8.4178,-5.92506 -11.328,-9.73299 -3.22,0.2587 -16.7303,-2.57619 -8.0934,-1.93261 4.2515,-1.38801 12.4634,-5.51667 15.4796,-5.35406 -7.5641,3.94493 2.8172,6.53908 5.8897,9.68362 5.5251,1.63827 8.028,8.65568 3.0105,12.28674 -6.4517,3.34886 0.4482,8.86502 1.7779,13.4765 1.0321,8.03242 8.0155,3.48244 10.2311,-1.45216 3.2026,-8.97404 13.4628,-8.66386 20.8854,-12.48948 8.1103,-4.16456 8.2454,-4.31081 12.0956,1.62454 2.9584,1.70189 12.8311,-4.49163 6.349,-7.47462 -5.5486,0.29671 -9.1886,3.70365 -4.5349,-4.89237 1.1195,-4.61914 5.4636,-10.64952 4.6738,-14.4329 -5.3264,-2.09417 -10.6527,-4.18965 -15.9791,-6.28487 z m -75.4149,29.72719 c 2.8653,2.93098 12.5222,8.23436 11.5603,0.90519 -1.1602,-4.96786 -8.3825,-5.013 -11.5603,-0.90519 z m 146.1524,-3.57853 c -6.6307,1.36161 -13.2043,2.8539 -18.4407,7.43186 1.5649,6.31866 -6.7112,7.22464 -10.3401,10.68622 -0.9683,2.03107 -0.1954,14.80776 4.1123,9.3122 4.6791,-6.21517 6.7075,3.28842 11.6484,4.23928 3.5812,-1.15254 4.0244,-9.20318 2.6773,-12.90868 2.2948,-3.78048 6.0391,-9.0081 10.8932,-8.57675 -3.0104,4.59459 -6.4499,16.34598 3.1469,11.54258 2.7774,-0.0475 -7.5596,6.07104 -8.1794,10.24326 -3.8829,4.12629 -7.9929,7.28878 -13.6011,4.09118 -2.6845,-2.26628 -4.0479,-8.84469 -5.7461,-1.41362 3.4872,5.89391 -8.7623,0.37987 -8.4596,8.33309 -2.5725,4.94939 -7.2111,6.97676 -12.5755,7.33419 1.9466,1.54007 9.5936,10.71289 2.0076,9.41489 -4.856,0.53351 -11.9539,3.27495 -9.9883,9.37661 -2.2113,7.59844 3.4186,5.68457 6.881,10.44178 5.6415,-1.6029 9.2433,-5.0621 10.1651,-10.96024 5.2799,-1.55062 5.9184,-7.49865 11.7147,-7.37853 5.7785,-3.24908 7.1251,5.93297 12.5409,6.61272 0.5681,3.28842 -2.6926,10.30715 3.6739,3.77625 6.1499,-4.45705 -6.3974,-10.23217 -2.4912,-11.31872 5.5594,1.77633 7.5636,7.05464 8.4561,12.2226 4.5304,7.75233 5.6471,3.57298 6.0079,-3.24724 7.0581,-3.17358 9.2312,13.20408 19.2144,9.17018 7.457,1.54271 4.8235,6.68163 -0.1531,9.81905 -4.0283,3.7905 -10.7667,1.39514 -15.4999,-0.12671 -4.5439,-2.23355 -10.6173,-1.99649 -13.0454,3.08567 -3.7441,-1.75125 -7.6151,-7.33366 -11.4074,-10.55529 -9.3711,-4.13526 -19.5629,-0.60926 -28.9004,1.9268 -8.0106,9.35919 -17.6593,17.85463 -21.109,30.0606 -5.0508,5.13786 4.3723,8.11214 -1.9625,12.51983 -5.1719,4.12603 0.8693,9.35734 1.9778,14.10293 4.8633,5.98577 13.1193,24.72078 20.6845,17.26094 4.2403,-6.45698 6.5945,4.95493 11.5848,-2.42968 3.9848,-3.21424 7.8004,3.6857 13.595,1.15333 5.5819,3.44707 4.5133,8.39434 2.2119,13.6209 1.2534,4.35199 7.49,7.51845 5.0666,13.41896 -2.2016,5.49608 4.692,9.66329 3.3022,14.47303 -4.6253,9.26257 -3.5347,20.71671 0.7549,29.89745 3.4331,8.30802 5.4468,17.28707 5.1788,26.30546 5.9763,1.78795 9.1459,-5.86672 15.1069,-4.12893 5.8197,0.75024 7.9807,-6.67635 12.075,-9.78261 4.5627,-3.76147 -0.5813,-9.55348 6.6616,-12.21837 7.0264,-3.42173 -8.8988,-8.21774 0.1214,-11.28441 3.7422,-4.16483 11.3702,-5.61435 12.8794,-11.05157 -2.7225,-8.36662 -1.7536,-17.54181 -1.3463,-26.09929 2.6187,-6.77217 5.8709,-13.12514 11.4747,-17.92036 2.2592,-7.45668 7.6372,-14.30435 7.1563,-22.29585 -13.2566,4.05501 -9.238,-1.72961 -1.8479,-7.02612 5.1102,-3.39559 11.305,-6.80412 13.6829,-12.5663 1.1618,-6.52113 -3.6389,-17.13608 -8.1095,-7.28166 -1.9722,-3.78734 -9.2866,-5.77247 -8.9547,-10.70681 -1.421,-10.15905 2.7726,-1.16125 6.9234,0.86823 8.9677,-4.87019 13.5314,14.29458 19.2239,2.85628 -4.9723,-35.97509 -24.5558,-68.619 -51.0109,-93.07237 -4.5941,-8.80985 -7.41,6.03514 -12.0764,5.4718 -3.7332,-3.90243 -10.701,-9.16807 -0.9817,-7.35425 8.3194,-2.43655 2.6794,-5.65448 -3.4191,-5.50533 -4.6186,-0.56096 -8.8589,-2.17732 -13.1558,-3.8536 z m -165.4225,3.57826 c -2.2124,10.88976 -16.1791,9.61842 -21.0493,20.36034 -23.9632,25.37044 -38.7532,58.7543 -42.8038,93.32158 2.1391,8.10395 8.9347,11.99583 15.7705,15.58861 5.8081,3.37368 14.3223,1.88404 17.5785,8.95028 3.6358,2.97586 7.5589,8.84892 12.7574,7.05833 7.5362,-0.73202 2.898,6.90575 1.6074,10.77598 -0.477,4.88391 -6.4995,7.99572 -4.1854,12.69565 -1.9418,5.32397 -3.484,10.60227 0.8257,15.21218 3.6649,6.75818 6.6487,14.06386 13.4433,18.30656 4.7643,4.00116 10.1577,9.29584 8.29,16.07144 -0.9925,5.48527 0.3464,10.53998 2.9973,15.35288 -0.9509,5.40264 -2.9025,10.92988 -3.3029,16.23986 7.0762,5.00508 21.4864,16.58013 22.5529,3.98216 4.0376,-3.63397 4.2818,-9.48194 11.0579,-9.49831 3.1451,-3.84409 4.228,-9.88346 6.5737,-14.57731 -3.4249,-4.33219 1.3384,-11.02121 6.4739,-10.84408 6.5647,0.49312 6.3231,-7.19771 8.9397,-11.4515 -0.061,-6.21386 -3.1295,-13.25344 2.4571,-17.91931 4.2034,-3.80978 3.7681,-9.39403 4.4238,-14.56173 -9.4217,-5.82844 -21.8201,-8.77948 -29.2758,-16.64533 -1.4769,-6.15604 -6.1132,-8.23041 -12.0082,-8.67706 -2.4888,-3.4806 -2.0675,-11.7704 -6.4166,-12.17534 -5.6025,1.07598 -11.1492,1.93867 -15.2206,-2.93178 -4.6102,-6.24394 -8.6008,1.60897 -12.8166,4.39291 -3.9586,6.88833 -15.0324,-0.34555 -13.7085,-8.10237 3.8929,-10.734 -13.2157,1.19135 -6.1948,-11.46602 3.3401,-13.79936 -5.6857,-3.18626 -10.421,-0.0871 -5.7785,0.066 -7.9614,-5.69249 -6.9311,-10.96314 -0.733,-6.33528 3.8848,-9.55691 8.5839,-12.73075 6.2888,0.96828 7.8843,-4.51303 12.5953,-3.79975 5.9217,-0.30358 8.085,5.37334 11.4505,9.13824 1.4094,-5.37466 -1.4759,-12.99632 4.4742,-15.99568 4.5389,-3.44205 9.148,-6.83341 10.2354,-12.79675 1.0701,-6.24395 10.3734,-3.76226 11.9372,-10.07906 2.1628,-6.6027 12.1605,-1.27292 14.4012,-7.78903 7.0267,-6.60508 -2.1918,-4.60067 -7.2294,-4.81238 -9.9391,1.02187 0.9878,-2.63559 4.7147,-4.67933 5.5199,0.73044 10.6166,-1.07652 15.6884,-3.02734 0.6798,6.90681 1.9794,10.55028 5.5046,2.47747 -6.8728,-1.62639 -0.9343,-8.37005 -7.7212,-10.14982 -5.3718,0.3775 0.053,-11.41692 -6.5636,-10.11998 -8.6064,5.69566 -0.9171,-4.04366 -7.9282,-5.33849 -5.5304,-5.97205 -6.8741,3.83459 -9.8768,7.3891 1.9476,6.8152 -6.3641,5.35301 -7.8828,10.94783 -3.3644,10.08487 -1.9432,-0.7183 -5.9588,-3.30215 -4.9605,-1.98936 -10.936,-3.04449 -10.9722,-9.57406 6.6505,-4.8694 16.6285,-7.73993 20.9145,-15.40727 2.4901,-5.95541 -2.109,-9.20924 -7.7737,-8.76153 l 0,0 z m 118.0727,13.212 c -1.0047,5.29045 4.4053,8.11874 2.4772,13.76239 -1.7288,6.18297 -2.2309,11.0954 5.4943,7.48677 8.0194,-4.11784 2.9011,-7.25341 -0.3105,-12.65499 -2.1873,-3.58988 -1.9772,-10.25936 -7.6599,-8.5947 z m -6.0552,8.80826 c -6.3894,-1.93155 -4.9678,11.6619 -0.9783,8.14118 5.8541,-1.4416 1.907,-4.22555 0.9783,-8.14118 z m 80.6434,72.39235 c 7.6583,6.79487 10.2744,16.85361 15.1728,25.42323 7.2759,3.21662 0.3342,8.68604 3.582,12.64259 6.831,7.42078 -9.4553,1.97273 -7.2896,-5.46362 -1.5863,-9.76756 -8.4957,-16.44682 -11.81,-24.98001 -0.345,-2.837 -3.1018,-5.77591 0.3448,-7.62219 z"
           style="fill:#9966af;fill-opacity:1;stroke:none"
           id="path4091"
           inkscape:connector-curvature="0" />
        <path
           d="m -3250.4716,164.66553 c -12.2959,0.97066 -24.4011,2.93996 -36.1406,6.80438 -9.8966,3.93015 7.1357,-3.45894 -3.0167,-4.8657 -6.1099,-1.04536 -8.6694,5.25032 -14.1288,5.39498 -6.2284,0.19007 -10.4983,5.75902 -16.3487,6.429 -2.1068,11.61227 -4.8213,-4.57822 -6.7542,1.05989 1.5324,5.80283 -0.6269,9.5973 -5.1157,12.96939 -4.8403,5.49187 -0.2869,10.40772 4.3615,5.584 2.233,-6.71463 9.5147,-14.17553 16.6192,-9.69498 7.1101,3.89821 14.1457,13.297 20.0647,3.2937 -6.0737,-0.72991 -8.4178,-5.92506 -11.328,-9.73299 -3.22,0.2587 -16.7303,-2.57619 -8.0934,-1.93261 4.2515,-1.38801 12.4634,-5.51667 15.4796,-5.35406 -7.5641,3.94493 2.8172,6.53908 5.8897,9.68362 5.5251,1.63827 8.028,8.65568 3.0105,12.28674 -6.4517,3.34886 0.4482,8.86502 1.7779,13.4765 1.0321,8.03242 8.0155,3.48244 10.2311,-1.45216 3.2026,-8.97404 13.4628,-8.66386 20.8854,-12.48948 8.1103,-4.16456 8.2454,-4.31081 12.0956,1.62454 2.9584,1.70189 12.8311,-4.49163 6.349,-7.47462 -5.5486,0.29671 -9.1886,3.70365 -4.5349,-4.89237 1.1195,-4.61914 5.4636,-10.64952 4.6738,-14.4329 -5.3264,-2.09417 -10.6527,-4.18965 -15.9791,-6.28487 z m -75.4149,29.72719 c 2.8653,2.93098 12.5222,8.23436 11.5603,0.90519 -1.1602,-4.96786 -8.3825,-5.013 -11.5603,-0.90519 z m 146.1524,-3.57853 c -6.6307,1.36161 -13.2043,2.8539 -18.4407,7.43186 1.5649,6.31866 -6.7112,7.22464 -10.3401,10.68622 -0.9683,2.03107 -0.1954,14.80776 4.1123,9.3122 4.6791,-6.21517 6.7075,3.28842 11.6484,4.23928 3.5812,-1.15254 4.0244,-9.20318 2.6773,-12.90868 2.2948,-3.78048 6.0391,-9.0081 10.8932,-8.57675 -3.0104,4.59459 -6.4499,16.34598 3.1469,11.54258 2.7774,-0.0475 -7.5596,6.07104 -8.1794,10.24326 -3.8829,4.12629 -7.9929,7.28878 -13.6011,4.09118 -2.6845,-2.26628 -4.0479,-8.84469 -5.7461,-1.41362 3.4872,5.89391 -8.7623,0.37987 -8.4596,8.33309 -2.5725,4.94939 -7.2111,6.97676 -12.5755,7.33419 1.9466,1.54007 9.5936,10.71289 2.0076,9.41489 -4.856,0.53351 -11.9539,3.27495 -9.9883,9.37661 -2.2113,7.59844 3.4186,5.68457 6.881,10.44178 5.6415,-1.6029 9.2433,-5.0621 10.1651,-10.96024 5.2799,-1.55062 5.9184,-7.49865 11.7147,-7.37853 5.7785,-3.24908 7.1251,5.93297 12.5409,6.61272 0.5681,3.28842 -2.6926,10.30715 3.6739,3.77625 6.1499,-4.45705 -6.3974,-10.23217 -2.4912,-11.31872 5.5594,1.77633 7.5636,7.05464 8.4561,12.2226 4.5304,7.75233 5.6471,3.57298 6.0079,-3.24724 7.0581,-3.17358 9.2312,13.20408 19.2144,9.17018 7.457,1.54271 4.8235,6.68163 -0.1531,9.81905 -4.0283,3.7905 -10.7667,1.39514 -15.4999,-0.12671 -4.5439,-2.23355 -10.6173,-1.99649 -13.0454,3.08567 -3.7441,-1.75125 -7.6151,-7.33366 -11.4074,-10.55529 -9.3711,-4.13526 -19.5629,-0.60926 -28.9004,1.9268 -8.0106,9.35919 -17.6593,17.85463 -21.109,30.0606 -5.0508,5.13786 4.3723,8.11214 -1.9625,12.51983 -5.1719,4.12603 0.8693,9.35734 1.9778,14.10293 4.8633,5.98577 13.1193,24.72078 20.6845,17.26094 4.2403,-6.45698 6.5945,4.95493 11.5848,-2.42968 3.9848,-3.21424 7.8004,3.6857 13.595,1.15333 5.5819,3.44707 4.5133,8.39434 2.2119,13.6209 1.2534,4.35199 7.49,7.51845 5.0666,13.41896 -2.2016,5.49608 4.692,9.66329 3.3022,14.47303 -4.6253,9.26257 -3.5347,20.71671 0.7549,29.89745 3.4331,8.30802 5.4468,17.28707 5.1788,26.30546 5.9763,1.78795 9.1459,-5.86672 15.1069,-4.12893 5.8197,0.75024 7.9807,-6.67635 12.075,-9.78261 4.5627,-3.76147 -0.5813,-9.55348 6.6616,-12.21837 7.0264,-3.42173 -8.8988,-8.21774 0.1214,-11.28441 3.7422,-4.16483 11.3702,-5.61435 12.8794,-11.05157 -2.7225,-8.36662 -1.7536,-17.54181 -1.3463,-26.09929 2.6187,-6.77217 5.8709,-13.12514 11.4747,-17.92036 2.2592,-7.45668 7.6372,-14.30435 7.1563,-22.29585 -13.2566,4.05501 -9.238,-1.72961 -1.8479,-7.02612 5.1102,-3.39559 11.305,-6.80412 13.6829,-12.5663 1.1618,-6.52113 -3.6389,-17.13608 -8.1095,-7.28166 -1.9722,-3.78734 -9.2866,-5.77247 -8.9547,-10.70681 -1.421,-10.15905 2.7726,-1.16125 6.9234,0.86823 8.9677,-4.87019 13.5314,14.29458 19.2239,2.85628 -4.9723,-35.97509 -24.5558,-68.619 -51.0109,-93.07237 -4.5941,-8.80985 -7.41,6.03514 -12.0764,5.4718 -3.7332,-3.90243 -10.701,-9.16807 -0.9817,-7.35425 8.3194,-2.43655 2.6794,-5.65448 -3.4191,-5.50533 -4.6186,-0.56096 -8.8589,-2.17732 -13.1558,-3.8536 z m -165.4225,3.57826 c -2.2124,10.88976 -16.1791,9.61842 -21.0493,20.36034 -23.9632,25.37044 -38.7532,58.7543 -42.8038,93.32158 2.1391,8.10395 8.9347,11.99583 15.7705,15.58861 5.8081,3.37368 14.3223,1.88404 17.5785,8.95028 3.6358,2.97586 7.5589,8.84892 12.7574,7.05833 7.5362,-0.73202 2.898,6.90575 1.6074,10.77598 -0.477,4.88391 -6.4995,7.99572 -4.1854,12.69565 -1.9418,5.32397 -3.484,10.60227 0.8257,15.21218 3.6649,6.75818 6.6487,14.06386 13.4433,18.30656 4.7643,4.00116 10.1577,9.29584 8.29,16.07144 -0.9925,5.48527 0.3464,10.53998 2.9973,15.35288 -0.9509,5.40264 -2.9025,10.92988 -3.3029,16.23986 7.0762,5.00508 21.4864,16.58013 22.5529,3.98216 4.0376,-3.63397 4.2818,-9.48194 11.0579,-9.49831 3.1451,-3.84409 4.228,-9.88346 6.5737,-14.57731 -3.4249,-4.33219 1.3384,-11.02121 6.4739,-10.84408 6.5647,0.49312 6.3231,-7.19771 8.9397,-11.4515 -0.061,-6.21386 -3.1295,-13.25344 2.4571,-17.91931 4.2034,-3.80978 3.7681,-9.39403 4.4238,-14.56173 -9.4217,-5.82844 -21.8201,-8.77948 -29.2758,-16.64533 -1.4769,-6.15604 -6.1132,-8.23041 -12.0082,-8.67706 -2.4888,-3.4806 -2.0675,-11.7704 -6.4166,-12.17534 -5.6025,1.07598 -11.1492,1.93867 -15.2206,-2.93178 -4.6102,-6.24394 -8.6008,1.60897 -12.8166,4.39291 -3.9586,6.88833 -15.0324,-0.34555 -13.7085,-8.10237 3.8929,-10.734 -13.2157,1.19135 -6.1948,-11.46602 3.3401,-13.79936 -5.6857,-3.18626 -10.421,-0.0871 -5.7785,0.066 -7.9614,-5.69249 -6.9311,-10.96314 -0.733,-6.33528 3.8848,-9.55691 8.5839,-12.73075 6.2888,0.96828 7.8843,-4.51303 12.5953,-3.79975 5.9217,-0.30358 8.085,5.37334 11.4505,9.13824 1.4094,-5.37466 -1.4759,-12.99632 4.4742,-15.99568 4.5389,-3.44205 9.148,-6.83341 10.2354,-12.79675 1.0701,-6.24395 10.3734,-3.76226 11.9372,-10.07906 2.1628,-6.6027 12.1605,-1.27292 14.4012,-7.78903 7.0267,-6.60508 -2.1918,-4.60067 -7.2294,-4.81238 -9.9391,1.02187 0.9878,-2.63559 4.7147,-4.67933 5.5199,0.73044 10.6166,-1.07652 15.6884,-3.02734 0.6798,6.90681 1.9794,10.55028 5.5046,2.47747 -6.8728,-1.62639 -0.9343,-8.37005 -7.7212,-10.14982 -5.3718,0.3775 0.053,-11.41692 -6.5636,-10.11998 -8.6064,5.69566 -0.9171,-4.04366 -7.9282,-5.33849 -5.5304,-5.97205 -6.8741,3.83459 -9.8768,7.3891 1.9476,6.8152 -6.3641,5.35301 -7.8828,10.94783 -3.3644,10.08487 -1.9432,-0.7183 -5.9588,-3.30215 -4.9605,-1.98936 -10.936,-3.04449 -10.9722,-9.57406 6.6505,-4.8694 16.6285,-7.73993 20.9145,-15.40727 2.4901,-5.95541 -2.109,-9.20924 -7.7737,-8.76153 l 0,0 z m 118.0727,13.212 c -1.0047,5.29045 4.4053,8.11874 2.4772,13.76239 -1.7288,6.18297 -2.2309,11.0954 5.4943,7.48677 8.0194,-4.11784 2.9011,-7.25341 -0.3105,-12.65499 -2.1873,-3.58988 -1.9772,-10.25936 -7.6599,-8.5947 z m -6.0552,8.80826 c -6.3894,-1.93155 -4.9678,11.6619 -0.9783,8.14118 5.8541,-1.4416 1.907,-4.22555 0.9783,-8.14118 z m 80.6434,72.39235 c 7.6583,6.79487 10.2744,16.85361 15.1728,25.42323 7.2759,3.21662 0.3342,8.68604 3.582,12.64259 6.831,7.42078 -9.4553,1.97273 -7.2896,-5.46362 -1.5863,-9.76756 -8.4957,-16.44682 -11.81,-24.98001 -0.345,-2.837 -3.1018,-5.77591 0.3448,-7.62219 z"
           style="fill:url(#radialGradient3967);fill-opacity:1;stroke:none"
           id="path3938"
           inkscape:connector-curvature="0" />
        <path
           style="fill:url(#linearGradient3964);fill-opacity:1;stroke:none"
           d="m -3250.7329,164.37595 c -12.296,0.97066 -24.2604,3.13556 -35.9999,6.99999 -0.7423,0.29486 -0.538,-0.17423 -1,0 1.7521,-1.53189 3.0762,-4.29656 -1.9999,-5.00007 -6.1098,-1.04537 -8.5408,5.85536 -14.0002,6.00003 -6.2284,0.19006 -10.1496,5.33004 -15.9999,6.00002 -2.1069,11.61227 -5.0671,-4.63815 -7,0.99996 0.7663,2.90142 0.9094,5.90447 0,7.99995 1.4498,-4.22845 3.2572,3.60968 5.0001,3.00015 0.1742,-0.0607 0.8291,-0.74495 0.9999,-0.99996 0.3984,-0.59528 0.6312,-0.96802 1,-3.00015 4.7685,-0.54591 8.4152,-3.50989 13,-4.9998 -1.5844,-0.2191 -2.6499,-0.70219 -4.0001,-1.00022 4.2514,-1.38802 12.9839,-6.16238 16.0001,-5.99977 -1.2607,0.65731 -1.6195,1.4086 -1.9999,1.99992 2.086,-1.4614 3.945,-2.5226 7,-1.99992 5.0761,0.70325 3.752,3.46792 1.9999,4.9998 0.462,-0.17422 0.2587,0.29487 1,0 11.7395,-3.86442 23.7039,-6.02933 35.9999,-6.99998 4.6453,1.82727 9.3547,4.17327 14,6.00002 1.3526,-2.96767 2.4545,-4.8232 2.0002,-6.99998 -5.3264,-2.09417 -10.6738,-4.90478 -16.0002,-6.99999 z m -75.9999,22.99988 c -0.9094,2.09549 -2.7557,3.31402 -5.0001,5.00007 -3.267,3.70709 -2.4328,7.63619 0,7.99995 0.2703,0.0396 0.6985,0.0396 1,0 1.9136,-1.53822 3.1817,-3.11392 4.0001,-4.9998 0.9094,-2.09548 0.7663,-5.0988 0,-8.00022 z m 25.0001,-2.99988 c -2.9616,1.18528 -6.8744,3.3061 -9.0002,4.00011 2.7005,0.5958 6.3902,2.12927 8.0002,1.99992 1.4551,1.90383 3.2908,4.13395 4.9998,6.00003 2.2734,0.15311 4.9512,-1.53743 7,-5.00007 -4.9784,-0.59818 -7.6673,-3.62472 -9.9999,-6.99999 -0.1161,-0.16895 -0.8838,0.16631 -0.9999,0 z m 67,6.00003 c -1.4247,0.0766 -1.9353,0.76951 -3.0002,0.99996 -0.2376,0.64095 -0.8542,1.39884 -0.9999,1.99992 -1.1634,2.14907 -1.7735,3.11524 -2,4.00011 2.9585,1.70189 12.4821,-4.017 6.0001,-6.99999 z m 54.9999,0 c -6.6307,1.36162 -12.7637,3.42199 -18.0001,7.99995 1.5649,6.31865 -7.3708,7.53851 -10.9998,11.0001 -0.5401,1.13274 -0.8542,5.21626 0,7.99995 3.629,-3.46159 12.5647,-4.68145 10.9998,-11.0001 5.2364,-4.57796 11.3694,-6.63833 18.0001,-7.99995 4.2968,1.67628 8.3814,3.43915 13,4.00011 -1.7325,-2.08413 -1.6696,-3.05822 3.9999,-2.00019 8.3193,-2.43654 2.0986,-6.14918 -3.9999,-6.00003 -4.6186,-0.56096 -8.7032,-2.32356 -13,-3.99984 z m -165.0001,3.99984 c -2.2124,10.88976 -16.1298,9.25809 -21,20.00001 -23.9631,25.37044 -38.9493,59.43272 -42.9999,94 0.3134,1.18765 0.5011,1.98118 1,3.00015 4.8364,-32.7796 19.1906,-64.85094 41.9999,-88.99994 4.8702,-10.74192 18.7876,-9.11025 21,-20 2.4585,-0.19535 4.4354,0.88169 6,1.99992 0.2376,0.16895 0.7959,-0.19799 1,0 0.1399,-0.22439 -0.132,-0.76634 0,-0.99996 2.4901,-5.95542 -1.3352,-9.44789 -7,-9.00018 z m 28.0002,1.00023 c -1.7166,0.17423 -2.5062,0.92763 -4.0001,1.99992 3.5059,1.70664 6.613,2.6707 6,-1.99992 -0.5688,-0.066 -1.4431,-0.0581 -1.9999,0 z m 31.9998,0 c -0.3474,0.40389 -0.5174,0.65071 -0.9999,0.99996 -4.3549,2.26047 -2.9925,5.70938 -1,8.99991 0.3632,-0.30727 0.4625,-0.72093 1,-0.99996 3.2807,-2.37425 2.8921,-6.18059 0.9999,-8.99991 z m 131.0002,3.99984 c -2.3439,0.34344 -3.5065,5.06078 -6.0001,6.99999 -0.6436,0.50051 -1.2821,1.08681 -1.9999,0.99996 -0.5538,0.2455 -0.2006,0.76581 -1.0002,1.00023 -9.7193,-1.81382 -2.733,3.09755 1.0002,6.99998 4.6664,0.56334 7.4057,-13.80991 11.9998,-5.00006 25.0185,23.12528 43.8185,53.33423 50.0001,87.00001 0.4272,-0.54274 0.5621,-1.12007 1,-1.99992 -4.9723,-35.97509 -24.545,-68.54667 -51.0001,-93.00004 -1.1483,-2.20266 -3.017,-3.14402 -3.9998,-3.00015 z m -73.0001,7.99995 c -0.5776,3.04212 -0.05,5.58294 1,8.00021 4.3617,-0.32548 3.9948,5.70913 6,8.99991 0.6726,1.13143 1.2983,2.03768 1.9999,2.99989 5.0906,-3.57827 0.9028,-6.11777 -1.9999,-10.99983 -2.1873,-3.58989 -1.3173,-10.66484 -7,-9.00018 z m 43.9999,2.00019 c -0.1875,1.83994 0.8381,3.40958 2.0002,3.99984 0.5696,-1.50153 1.3172,-2.95791 1.9999,-3.99984 -1.2135,-0.10824 -2.9305,-0.48863 -4.0001,0 z m -143.9999,1.99992 c -2.8518,0.40521 -4.748,6.33423 -7,8.99991 1.9477,6.8152 -6.4813,5.40528 -8,11.00009 -3.3644,10.08488 -1.9843,-0.41603 -6,-2.99988 -2.8935,-1.16046 -5.796,-2.20345 -7.9999,-4.00011 -0.9836,0.59423 -2.1135,1.3508 -3.0002,1.99993 0.037,6.52957 6.0396,8.01077 11.0001,10.00013 4.0157,2.58385 2.6356,13.08476 6,2.99988 1.5187,-5.59481 9.9477,-4.18463 8,-10.99983 3.0028,-3.55451 4.4697,-12.97203 10.0001,-6.99999 7.0111,1.29483 -0.6063,10.69546 8,4.99981 6.6164,-1.29694 1.6282,10.37762 7,10.00013 0.3915,0.10295 0.6882,-0.13463 0.9999,0 0.2986,-0.11351 0.7017,0.11351 1,0 0.09,0.91206 -0.1162,1.22091 0,1.99992 0.1637,0.19007 0.8835,-0.20854 1,0 0.061,0.37829 -0.069,0.66365 0,0.99996 0.19,0.66154 -0.074,1.29615 0,1.99992 0.1979,0.54328 0.7433,1.76921 0.9999,2.00019 0.8506,0.76502 1.2376,-0.96353 3.0002,-5.00007 -6.8728,-1.62639 -0.2139,-8.22011 -7,-9.99987 -5.3718,0.37749 -0.3836,-11.29707 -7,-10.00013 -8.6063,5.69565 -0.9889,-3.70524 -8,-5.00007 -1.3827,-1.49281 -2.0495,-2.13508 -3.0001,-1.99992 z m 94,5.00007 c -6.3894,-1.93156 -4.9895,11.52066 -1,7.99994 0.5855,-0.14518 0.5977,0.17159 1,0 3.6197,-1.53716 0.8358,-4.47606 0,-7.99994 z m 51.0001,3.99984 c -0.6101,0.83154 -1.8883,1.24784 -2.0002,2.00018 -1.9413,2.06302 -4.786,4.0933 -7,4.99981 -0.5472,1.44582 -0.836,2.62555 -1.9999,3.00014 -2.0588,-0.39623 -3.55,-2.38982 -5.0001,-4.0001 -0.3756,-0.31731 -0.6713,-0.56387 -0.9999,-0.99996 -1.3809,-1.38749 -3.2956,-1.37983 -5.0001,0 3.4872,5.8939 -8.3027,0.0475 -7.9999,7.99995 -2.5725,4.94938 -7.6357,7.64251 -13.0001,7.99994 0.9733,0.77004 3.7932,3.67673 5.0001,6.00003 2.9384,-1.10977 6.3741,-2.87158 8,-6.00003 -0.3028,-7.95322 11.4871,-2.10604 7.9999,-7.99994 1.6982,-7.43108 3.3156,-1.26632 6,0.99996 5.6083,3.1976 10.1171,0.12671 14,-3.99985 0.6198,-4.17222 10.7776,-10.04765 8.0002,-10.00013 -3.3222,1.66282 -5.2437,1.32122 -6,0 z m -43.0002,5.00007 c -0.1689,1.69159 -0.8759,3.39189 0,4.0001 0.4821,-1.41098 0.2191,-2.85865 0,-4.0001 z m -97.9998,21.99992 c -3.7269,2.04375 -14.9392,6.02194 -5.0001,5.00007 3.0498,-0.30727 6.8796,-0.74179 8,-3.99984 0.6758,-0.63514 0.6066,-0.5145 0.9999,-1.00023 -1.3133,0.0924 -2.6411,0.17951 -3.9998,0 z m 98.9998,3.00015 c -4.7783,0.75551 -10.847,4.26646 -8.9999,9.99987 -0.5528,1.89961 -0.2709,3.03658 0,4.00011 1.3946,-3.37025 6.358,-5.59984 10.0001,-6.00003 6.9021,1.18105 1.5514,-5.48051 -1.0002,-7.99995 z m 34,8.99991 c -1.7903,0.49813 0.2613,1.11057 2.0002,3.00015 0.5913,-0.42871 0.723,-0.55252 0.9999,-1.00023 -0.931,-0.73281 -1.724,-1.59207 -3.0001,-1.99992 z m 2.0002,3.00015 c 0,0 -1,0.99996 -1,0.99996 0.1584,0.17158 0.8432,-0.17687 1,0 0.2323,-0.22703 -0.2653,-0.72806 0,-0.99996 z m -16.0002,6.99998 c -4.6521,-0.40653 -9.3478,0.82574 -14,1.99993 -1.7232,3.19417 -4.012,5.86698 -7.9999,6.99998 -0.8656,-1.18923 -2.0197,-1.3917 -2.9999,-1.99992 -7.3331,8.16336 -14.9461,16.19393 -18.0001,27 -2.5255,2.5688 -0.9326,5.06316 0,6.99999 3.6609,-11.72288 13.1898,-19.87488 21,-29.00018 9.3375,-2.53607 19.6288,-6.13519 28.9999,-1.99992 3.7923,3.22162 8.256,9.24884 12.0001,11.00009 2.428,-5.08216 8.4561,-5.23369 13,-3.00014 4.7332,1.52185 10.9716,3.7905 14.9999,0 4.6033,-2.90195 6.538,-7.10295 1.0002,-8.99992 -0.4049,0.31124 -0.5514,0.71724 -1.0002,0.99997 -4.0283,3.7905 -10.2667,1.52185 -14.9999,0 -4.5439,-2.23355 -10.572,-2.08202 -13,3.00014 -3.7441,-1.75125 -8.2078,-7.77847 -12.0001,-11.00009 -2.3426,-1.03375 -4.5806,-1.78874 -7,-1.99993 z m 78.0001,26.00004 c -0.2587,0.5533 -0.3553,1.46008 0,3.99984 -0.3318,4.93434 7.0277,7.21276 8.9999,11.0001 3.138,-6.9171 6.7131,-3.75857 8.0002,0.99996 0.3773,-0.61666 0.7202,-1.32202 1,-1.99992 0.2904,-1.63035 -0.6436,-3.24196 -1,-5.00007 -0.069,-0.33816 0.087,-0.67421 0,-0.99996 -1.6596,-1.54007 -2.9484,-3.49538 -5,-4.00011 -0.1373,0.095 -0.8619,-0.12671 -1,0 -0.6908,0.63408 -1.3017,1.46035 -2.0002,3.00015 -0.3944,-0.75763 -1.2819,-1.34895 -1.9999,-2.00019 -1.6752,-1.51974 -3.4494,-3.3684 -5.0001,-4.9998 -0.6948,-0.61666 -1.7417,-0.55357 -1.9999,0 z m -27,0.99996 c -3.4465,1.84628 -0.345,5.16294 0,7.99995 3.3143,8.53319 10.4138,15.23251 12.0001,25.00007 -2.1657,7.43635 13.831,12.42058 7,4.99981 -1.2991,-1.58257 -1.3997,-3.17411 -1,-4.99981 -3.0535,-0.89278 -7.2455,-3.72424 -6,-8.00021 -1.5863,-9.76757 -8.6858,-16.46662 -12.0001,-24.99981 z m -241,9.99987 c -0.4031,1.24256 -0.1822,2.41622 0,4.00011 -1.0303,5.27065 1.2214,11.06582 7,10.99983 3.1569,-2.06592 7.9645,-6.71436 10.0001,-6.00003 0.2759,-0.72806 -0.5694,-0.97356 0,-1.99992 3.3402,-13.79935 -5.2648,-3.09914 -10.0001,0 -4.3562,0.0502 -6.5668,-3.13398 -7,-6.99999 z m 146.0001,8.99991 c -0.3266,0.34951 -0.4723,0.63276 -1,1.00023 -3.2591,2.59995 -1.6061,4.92034 0,7.99995 4.7509,-3.30584 1.2225,-5.78938 1,-9.00018 z m -129,4.00011 c -0.1161,0.81491 0.2708,0.88117 0,1.99992 -7.0208,12.65737 10.8929,1.26605 7,12.00006 -0.331,1.9392 0.087,3.33857 1,5.00006 1.8243,1.19663 3.7905,1.76102 6,0.99996 3.768,-0.36587 4.3786,1.69819 3.9998,4.00011 0.7796,-0.44824 1.4458,-1.0356 2.0002,-2.00018 4.2158,-2.78395 8.3899,-10.24379 13,-3.99985 4.0714,4.87046 9.3975,4.07587 15,2.99988 4.3491,0.40495 4.5111,8.51947 7,12.00006 5.8949,0.44666 10.523,1.84391 12,7.99995 7.2516,7.6507 18.6833,11.47869 28,17.00012 0.4984,-2.51838 0.6721,-5.4161 0.9999,-7.99994 -9.4217,-5.82845 -21.5443,-9.13428 -28.9999,-17.00013 -1.477,-6.15604 -6.1051,-7.55329 -12,-7.99995 -2.4889,-3.48059 -2.6509,-11.59511 -7,-12.00005 -5.6025,1.07598 -10.9286,1.87057 -15,-2.99989 -4.6101,-6.24394 -8.7842,1.2159 -13,3.99985 -3.9587,6.88832 -14.3239,-0.24287 -13,-7.99995 2.6277,-7.2455 -4.37,-4.87362 -7,-6.00003 z m 256,10.00013 c -0.3667,0.23759 -0.6423,0.76212 -1,0.99996 -6.873,4.92563 -10.1429,9.53712 0,6.99999 0.9939,-2.76758 2.1802,-5.00323 1.9999,-7.99995 -0.2111,0.13727 -0.7906,-0.13727 -0.9999,0 z m -240.0001,18.99978 c -0.284,0.69084 -0.8109,1.43289 -1,2.00019 -0.477,4.88392 -6.3141,8.3001 -4.0001,13.00002 -1.4563,3.99298 -2.2934,7.32099 -0.9999,10.99983 0.3038,-1.00999 0.6288,-1.98224 0.9999,-2.99988 -2.314,-4.69992 3.5231,-8.1161 4.0001,-13.00002 1.0647,-3.19285 4.0941,-8.49386 1,-10.00014 z m 162.9999,9.00018 c -0.2724,0.77188 -0.6525,1.21114 -0.9999,1.99992 0.2402,0.83682 1.4875,1.22302 1.9999,1.99992 0.066,-1.50232 -0.1795,-2.69762 -1,-3.99984 z m 4.0001,17.99982 c -0.045,1.14885 0.5549,1.93577 1,3.00015 -0.071,-0.91892 -0.6043,-2.19105 -1,-3.00015 z m 55,6.99999 c -0.2508,4.6957 -0.5565,9.32751 0,14.00024 0.2481,-0.4551 0.8548,-0.47728 1,-1.00022 -1.3611,-4.18331 -0.9528,-8.59048 -1,-13.00002 z m -52.0001,8.00021 c -1.3758,3.8338 -2.1828,7.90043 -1.9999,11.99979 0.4812,-2.5197 1.8436,-4.68434 2.9999,-6.99998 0.5111,-1.76815 -0.1346,-3.30742 -1,-4.99981 z m -96.9999,7.99995 c -0.2639,1.97511 -1.2689,3.87868 -0.9999,6.00003 0.2911,-0.73466 0.6164,-1.37666 0.9999,-2.00019 0,-1.23041 0.1584,-2.72956 0,-3.99984 z m 137.9999,15.9999 c -3.3824,1.15017 -3.1073,2.52736 -1.9999,4.00011 0.4443,-0.26398 0.3965,-0.77795 0.9999,-0.99996 1.7568,-0.85557 2.364,-2.02131 2.0002,-3.00015 -0.1927,0.18479 -0.8231,-0.19798 -1.0002,0 z m -190.9999,19.00005 c -0.9115,3.74114 -1.7248,7.35319 -1.9999,11.00009 0.3112,0.21911 0.6618,0.75684 0.9999,0.99996 0.7168,-3.07591 1.4617,-5.94195 2,-9.00017 -0.4902,-0.88988 -0.6059,-2.09205 -1,-2.99988 z"
           id="path4509"
           inkscape:connector-curvature="0" />
        <path
           sodipodi:nodetypes="ccccccccccccc"
           inkscape:connector-curvature="0"
           id="path4521"
           d="m -3096.4718,322.18251 0,-2.7e-4 c -17.649,-12.72619 -27.9399,-14.39054 -48.5203,-21.5153 l 0,0 c -24.1546,-8.37425 -49.3272,-13.84587 -74.7772,-16.87539 -27.2545,-3.25042 -54.9381,-3.68125 -82.421,-0.94078 -9.7449,2.16989 -9.9264,12.35013 1.4665,12.02768 26.4125,-3.83147 53.3478,-4.6205 80.1348,-2.63214 25.0203,1.86316 49.9209,6.10662 74.0288,13.28591 l 0,0 c 20.5525,6.13136 30.8767,6.70714 48.8244,18.48595 l 0,0 z"
           style="fill:url(#linearGradient3999);fill-opacity:1;fill-rule:evenodd;stroke:none" />
        <path
           style="fill:url(#linearGradient3994);fill-opacity:1;fill-rule:evenodd;stroke:none"
           d="m -3163.5698,460.16165 c 3.0239,-5.72464 4.0111,-12.35636 4.4884,-18.83338 0.6912,-9.25808 0.1187,-18.58943 -0.9717,-27.80905 l 0,0 c -2.9796,-25.22497 -9.8565,-49.93498 -18.5904,-73.82287 l 0,0 c -10.678,-29.23367 -24.497,-57.408 -41.3043,-83.78776 -17.9521,-28.19365 -39.4745,-54.41295 -64.9494,-76.63243 -10.1248,-7.60887 -17.741,1.75746 -8.6352,10.33796 25.2469,20.14718 47.1759,44.63886 65.9069,71.41779 17.528,25.07459 32.303,52.16904 44.0792,80.5745 l 0,0 c 9.6267,23.24335 17.4797,47.32191 21.496,72.19168 l 0,0 c 1.4665,9.09103 2.4341,18.28239 2.1396,27.48594 -0.213,6.45039 -0.8829,13.02882 -3.6591,18.87762 z"
           id="path4527"
           inkscape:connector-curvature="0"
           sodipodi:nodetypes="cccccccccccccccc" />
        <path
           style="fill:url(#linearGradient3985);fill-opacity:1;fill-rule:evenodd;stroke:none"
           d="m -3370.7029,400.22612 c -2.9458,-12.99864 -4.0667,-26.37002 -3.3618,-39.60814 0.6869,-12.91182 3.0972,-25.69047 6.9627,-37.9736 l 0,0 c 7.7762,-24.72523 21.3671,-47.37573 38.463,-66.66586 l 0,0 c 17.1097,-19.28879 37.7718,-35.33609 60.6155,-46.79995 21.8591,-10.94634 45.8262,-17.74448 69.78,-17.98543 10.111,-1.92517 8.561,-12.1979 -0.3878,-12.11038 -26.0844,1.36015 -51.2526,9.56294 -73.6787,21.96556 -23.4375,12.93739 -44.1718,30.41888 -60.9976,50.95185 l 0,0 c -16.8365,20.52768 -29.8,44.30274 -36.7465,69.77848 l 0,0 c -3.4502,12.66039 -5.3806,25.71957 -5.5672,38.78711 -0.1906,13.39839 1.4697,26.78631 4.9184,39.66036 z"
           id="path4531"
           inkscape:connector-curvature="0"
           sodipodi:nodetypes="cccccccccccccccc" />
        <path
           sodipodi:type="arc"
           style="fill:url(#radialGradient4017);fill-opacity:1;fill-rule:nonzero;stroke:none"
           id="path4053"
           sodipodi:cx="9.9999094"
           sodipodi:cy="5.99998"
           sodipodi:rx="1"
           sodipodi:ry="1"
           d="m 10.999909,5.99998 c 0,0.5522847 -0.447715,1 -0.9999996,1 -0.5522847,0 -1,-0.4477153 -1,-1 0,-0.5522848 0.4477153,-1 1,-1 0.5522846,0 0.9999996,0.4477152 0.9999996,1 z"
           transform="matrix(41.428203,-8.4995214e-8,8.4995214e-8,41.428203,-3683.0851,-42.558998)" />
        <path
           transform="matrix(2.2041269,1.2725533,-1.2725533,2.2041269,244.10464,-199.50644)"
           d="m -1027.3252,863.53308 a 60.609154,60.609154 0 1 1 -121.2183,0 60.609154,60.609154 0 1 1 121.2183,0 z"
           sodipodi:ry="60.609154"
           sodipodi:rx="60.609154"
           sodipodi:cy="863.53308"
           sodipodi:cx="-1087.9343"
           id="path4537"
           style="fill:none;stroke:url(#linearGradient3263);stroke-width:4.49043751;stroke-miterlimit:4;stroke-opacity:1;stroke-dasharray:none"
           sodipodi:type="arc" />
      </g>
    </g>
  </g>
</svg>
