<?xml version="1.0" encoding="UTF-8"?>
<!-- Created with Inkscape (http://www.inkscape.org/) -->
<svg id="svg3397" width="32" height="32" version="1.1" xmlns="http://www.w3.org/2000/svg" xmlns:xlink="http://www.w3.org/1999/xlink">
 <defs id="defs3399">
  <linearGradient id="linearGradient3780" x1="18" x2="18" y1="39" y2="45.78" gradientTransform="matrix(1 0 0 .83333 9.7317e-7 6.4899)" gradientUnits="userSpaceOnUse">
   <stop id="stop2709" style="stop-color:#eeeeec" offset="0"/>
   <stop id="stop2711" style="stop-color:#eeeeec;stop-opacity:0" offset="1"/>
  </linearGradient>
  <radialGradient id="radialGradient4275" cx="12.047" cy="10.047" r="9.5469" gradientTransform="matrix(1.6759 0 0 .31424 -4.1899 25.843)" gradientUnits="userSpaceOnUse">
   <stop id="stop3736" offset="0"/>
   <stop id="stop3738" style="stop-opacity:0" offset="1"/>
  </radialGradient>
 </defs>
 <path id="path6446" d="m32 29a16 3 0 0 1-32 0 16 3 0 1 1 32 0z" style="fill:url(#radialGradient4275);opacity:.4"/>
 <g id="g2986" transform="translate(-19.013 -16.002)">
  <path id="path2773" d="m46.529 39.003a5.0034 2.4983 0 1 1-10.007 0 5.0034 2.4983 0 1 1 10.007 0z" style="fill-rule:evenodd;fill:#ddca10;stroke:#7d6c0f"/>
  <path id="path2777" d="m46.539 37.01a5.0034 2.4983 0 1 1-10.007 0 5.0034 2.4983 0 1 1 10.007 0z" style="fill-rule:evenodd;fill:#ddca10;stroke:#7d6c0f"/>
  <path id="path2781" d="m46.539 35.01a5.0034 2.4983 0 1 1-10.007 0 5.0034 2.4983 0 1 1 10.007 0z" style="fill-rule:evenodd;fill:#ddca10;stroke:#7d6c0f"/>
  <path id="path2785" d="m46.526 33.005a5.0034 2.4983 0 1 1-10.007 0 5.0034 2.4983 0 1 1 10.007 0z" style="fill-rule:evenodd;fill:#ddca10;stroke:#7d6c0f"/>
  <path id="path2789" d="m46.539 31.003a5.0034 2.4983 0 1 1-10.007 0 5.0034 2.4983 0 1 1 10.007 0z" style="fill-rule:evenodd;fill:#ddca10;stroke:#7d6c0f"/>
  <path id="path2797" d="m46.539 29.008a5.0034 2.4983 0 1 1-10.007 0 5.0034 2.4983 0 1 1 10.007 0z" style="fill-rule:evenodd;fill:#ddca10;stroke:#7d6c0f"/>
  <path id="path2799" d="m46.526 27.003a5.0034 2.4983 0 1 1-10.007 0 5.0034 2.4983 0 1 1 10.007 0z" style="fill-rule:evenodd;fill:#ddca10;stroke:#7d6c0f"/>
  <path id="path2801" d="m46.539 25.002a5.0034 2.4983 0 1 1-10.007 0 5.0034 2.4983 0 1 1 10.007 0z" style="fill-rule:evenodd;fill:#ddca10;stroke:#7d6c0f"/>
  <path id="path2809" d="m46.539 23.002a5.0034 2.4983 0 1 1-10.007 0 5.0034 2.4983 0 1 1 10.007 0z" style="fill-rule:evenodd;fill:#ddc910;stroke:#7d6c0f"/>
  <path id="path2793" d="m46.519 20.998a5.0034 2.4983 0 1 1-10.007 0 5.0034 2.4983 0 1 1 10.007 0z" style="fill-rule:evenodd;fill:#fce94f;stroke:#8c7200"/>
  <path id="path2795" d="m45.51 20.997a4.0039 1.4968 0 1 1-8.0078 0 4.0039 1.4968 0 1 1 8.0078 0z" style="fill:none;opacity:.3;stroke:#fff"/>
 </g>
 <g id="g2999" transform="translate(-24.003 -21.003)">
  <path id="path2413" d="m41.519 41.997a5.0034 2.4983 0 1 1-10.007 0 5.0034 2.4983 0 1 1 10.007 0z" style="fill-rule:evenodd;fill:#dcc610;stroke:#7d6c0f"/>
  <path id="path2417" d="m41.529 40.003a5.0034 2.4983 0 1 1-10.007 0 5.0034 2.4983 0 1 1 10.007 0z" style="fill-rule:evenodd;fill:#dcc610;stroke:#7d6c0f"/>
  <path id="path2421" d="m41.529 38.003a5.0034 2.4983 0 1 1-10.007 0 5.0034 2.4983 0 1 1 10.007 0z" style="fill-rule:evenodd;fill:#dcc610;stroke:#7d6c0f"/>
  <path id="path2425" d="m41.516 35.998a5.0034 2.4983 0 1 1-10.007 0 5.0034 2.4983 0 1 1 10.007 0z" style="fill-rule:evenodd;fill:#dcc610;stroke:#7d6c0f"/>
  <path id="path2429" d="m41.529 33.997a5.0034 2.4983 0 1 1-10.007 0 5.0034 2.4983 0 1 1 10.007 0z" style="fill-rule:evenodd;fill:#dcc610;stroke:#7d6c0f"/>
  <path id="path2761" d="m41.51 31.997a5.0034 2.4983 0 1 1-10.007 0 5.0034 2.4983 0 1 1 10.007 0z" style="fill-rule:evenodd;fill:#fce94f;stroke:#8c7200"/>
  <path id="path2763" d="m40.508 31.997a4.0039 1.4968 0 1 1-8.0078 0 4.0039 1.4968 0 1 1 8.0078 0z" style="fill:none;opacity:.3;stroke:#fff"/>
 </g>
 <g id="g2969" transform="translate(-1.9915 -15)">
  <path id="rect2271" d="m5.4915 38.461h24.009v6.0391h-24.009v-6.0391z" style="fill-rule:evenodd;fill:#4f7f21;stroke-linejoin:round;stroke:#2e5c02"/>
  <path id="path3816" d="m7.4508 32.495h20.209l1.8399 5.994h-23.999l1.9508-5.994z" style="fill-rule:evenodd;fill:#57ae06;stroke-linejoin:round;stroke:#2e5c02"/>
  <rect id="rect2441" x="6" y="41.99" width="23" height="1" style="fill-rule:evenodd;fill:#2e5c02"/>
  <rect id="rect2443" x="6" y="39.99" width="23" height="1" style="fill-rule:evenodd;fill:#2e5c02"/>
  <path id="path2269" d="m8.2188 33.521-1.2812 3.9375h21.156l-1.2188-3.9375h-18.656z" style="fill:none;opacity:.25;stroke:#fff"/>
  <path id="path3837" d="m23 35.49a5 1.5 0 1 1-10 0 5 1.5 0 1 1 10 0z" style="fill-rule:evenodd;fill:#2e5c02"/>
  <path id="path3839" d="m11 36.474a1.5156 0.5 0 0 1-3.0312 0 1.5156 0.5 0 1 1 3.0312 0z" style="fill-rule:evenodd;fill:#2e5c02"/>
  <path id="path3841" d="m27 36.49a1.5 0.5 0 1 1-3 0 1.5 0.5 0 1 1 3 0z" style="fill-rule:evenodd;fill:#2e5c02"/>
  <path id="rect1372" d="m16.5 32.511-1 5.6252v6.3579h5v-6.4118l-1.0938-5.5714h-2.9062z" style="fill-rule:evenodd;fill:#d3d7cf;stroke:#555753"/>
  <rect id="rect2721" x="16" y="38.99" width="4" height="5" style="fill-rule:evenodd;fill:#888a85"/>
  <rect id="rect2673" x="16" y="38.99" width="4" height="5" style="fill-rule:evenodd;fill:url(#linearGradient3780)"/>
  <path id="path2691" d="m26 34.49a1.5 0.5 0 1 1-3 0 1.5 0.5 0 1 1 3 0z" style="fill-rule:evenodd;fill:#2e5c02"/>
  <path id="path2693" d="m12 34.49a1.5 0.5 0 1 1-3 0 1.5 0.5 0 1 1 3 0z" style="fill-rule:evenodd;fill:#2e5c02"/>
 </g>
</svg>
