<?xml version="1.0" encoding="UTF-8"?>
<!-- Created with Inkscape (http://www.inkscape.org/) -->
<svg id="svg3309" width="32" height="32" version="1.1" xmlns="http://www.w3.org/2000/svg" xmlns:xlink="http://www.w3.org/1999/xlink">
 <defs id="defs3311">
  <radialGradient id="radialGradient3093" cx="62.625" cy="4.625" r="10.625" gradientTransform="matrix(1.1294 0 0 .28235 -54.729 27.694)" gradientUnits="userSpaceOnUse">
   <stop id="stop8840" offset="0"/>
   <stop id="stop8842" style="stop-opacity:0" offset="1"/>
  </radialGradient>
  <linearGradient id="linearGradient5220-2" x1="66" x2="66" y1="61.889" y2="75.497" gradientUnits="userSpaceOnUse">
   <stop id="stop3660-2" style="stop-color:#ef3b3b" offset="0"/>
   <stop id="stop3662-5" style="stop-color:#f14646" offset=".3827"/>
   <stop id="stop3664-3" style="stop-color:#f76060" offset="1"/>
  </linearGradient>
  <linearGradient id="linearGradient3309" x1="79.236" x2="61.338" y1="72.834" y2="59.877" gradientTransform="matrix(.375 0 0 .38603 -11.794 -12.934)" gradientUnits="userSpaceOnUse">
   <stop id="stop3707-1" style="stop-color:#85b6d1" offset="0"/>
   <stop id="stop3709-5" style="stop-color:#7ab1d0" offset=".1707"/>
   <stop id="stop3711-4" style="stop-color:#5ea5cd" offset=".4684"/>
   <stop id="stop3713-9" style="stop-color:#2f92c9" offset=".8553"/>
   <stop id="stop3715-2" style="stop-color:#1c8ac7" offset="1"/>
  </linearGradient>
  <linearGradient id="linearGradient3312" x1="72.138" x2="80.393" y1="74.042" y2="74.042" gradientTransform="matrix(.375 0 0 .38603 -11.794 -12.934)" gradientUnits="userSpaceOnUse">
   <stop id="stop3689-4" style="stop-color:#1773a6" offset="0"/>
   <stop id="stop3691-9" style="stop-color:#1773a6" offset="1"/>
  </linearGradient>
  <linearGradient id="linearGradient3315" x1="65.277" x2="65.277" y1="74.939" y2="67.132" gradientTransform="matrix(.375 0 0 .38603 -11.794 -12.934)" gradientUnits="userSpaceOnUse">
   <stop id="stop3695-5" style="stop-color:#f5f2b0" offset="0"/>
   <stop id="stop3697-9" style="stop-color:#f5efa5" offset=".1374"/>
   <stop id="stop3699-3" style="stop-color:#f4e988" offset=".377"/>
   <stop id="stop3701-5" style="stop-color:#f3de5a" offset=".6886"/>
   <stop id="stop3703-7" style="stop-color:#f2d125" offset="1"/>
  </linearGradient>
  <linearGradient id="linearGradient3318" x1="57.16" x2="73.087" y1="73.962" y2="73.962" gradientTransform="matrix(.375 0 0 .38603 -11.794 -12.934)" gradientUnits="userSpaceOnUse">
   <stop id="stop3679-1" style="stop-color:#e1da1a" offset="0"/>
   <stop id="stop3681-9" style="stop-color:#d6cf14" offset=".3128"/>
   <stop id="stop3683-9" style="stop-color:#bab305" offset=".8568"/>
   <stop id="stop3685-7" style="stop-color:#b2aa00" offset="1"/>
  </linearGradient>
  <linearGradient id="linearGradient3322" x1="50" x2="82" y1="73.065" y2="73.065" gradientTransform="matrix(.375 0 0 .38603 -11.794 -12.979)" gradientUnits="userSpaceOnUse">
   <stop id="stop3669-9" style="stop-color:#bb2f2f" offset="0"/>
   <stop id="stop3671-6" style="stop-color:#d53c3c" offset=".3087"/>
   <stop id="stop3673-2" style="stop-color:#e04242" offset=".5"/>
   <stop id="stop3675-1" style="stop-color:#bb2f2f" offset="1"/>
  </linearGradient>
  <linearGradient id="linearGradient3328" x1="25" x2="25" y1="20.875" y2="24" gradientTransform="translate(-9.044 -15)" gradientUnits="userSpaceOnUse">
   <stop id="stop4603-0" style="stop-color:#f0f0f0" offset="0"/>
   <stop id="stop4605-1" style="stop-color:#848484" offset="1"/>
  </linearGradient>
 </defs>
 <path id="path8836" d="m28 29c0 1.6569-5.3726 3-12 3-6.6274 0-12-1.3431-12-3 0-1.6569 5.3726-3 12-3 6.6274 0 12 1.3431 12 3z" style="fill-rule:evenodd;fill:url(#radialGradient3093);opacity:.2"/>
 <g id="g5539" transform="matrix(.73169 0 0 .73169 -16.953 -14.023)">
  <path id="path7081-0" transform="matrix(1.276 0 0 1.276 3.5192 5.1386)" d="m33.026 37.039v2.552l-5.8909 2.9979" style="fill:none;stroke-linecap:round;stroke-width:1.0711;stroke:#555753"/>
  <path id="path4607" d="m45.66 52.401v3.2564l7.5169 3.8254" style="fill:none;stroke-linecap:round;stroke-width:1.3667;stroke:#555753"/>
 </g>
 <path id="path5290-7" d="m4.456 24.5 0.09358-17 22.812 0.048397 0.0943 16.903-23 0.048153z" style="fill:#ededed;stroke:#a0a0a0"/>
 <rect id="rect9278-3" x="5.456" y="7.5" width="21" height="16" style="color:black;fill:none;opacity:.8;stroke:#fff"/>
 <path id="path5315-1" d="m25.971 8.9174h-21.015v3.0826c1.1841-3.3498 21.015-3.0826 21.015-3.0826z" style="opacity:.16"/>
 <path id="path5334" d="m24.956 14h-5v-1h5v1z" style="fill-opacity:.18713"/>
 <path id="path5540" d="m24.956 16h-5v-1h5v1z" style="fill-opacity:.18713"/>
 <path id="path7065" d="m24.956 18h-5v-1h5v1z" style="fill-opacity:.18713"/>
 <path id="path7067" d="m24.956 22h-18v-1h18v1z" style="fill-opacity:.18713"/>
 <path id="path4607-0-1" d="m16.456 3.3173v2.3827" style="fill:none;stroke-linecap:round;stroke:#555753"/>
 <rect id="rect3819-9" x="3.456" y="5.5" width="25" height="3" style="fill:url(#linearGradient3328);stroke-linejoin:round;stroke:#8c8c8c"/>
 <path id="path4609" d="m24.956 12h-5v-1h5v1z" style="fill-opacity:.18713"/>
 <path id="path4611" d="m24.956 20h-18v-1h18v1z" style="fill-opacity:.18713"/>
 <path id="path4812-0" d="m6.956 13.453v2.5837h0.0011c0.02814 1.0859 2.7026 1.9633 5.9989 1.9633 3.2966 0 5.9707-0.87745 5.9985-1.9633h0.0014v-2.5837h-12z" style="opacity:.3"/>
 <path id="path3652-5" d="m6.956 12.953v2.5837h0.0011c0.02813 1.0859 2.7026 1.9633 5.9988 1.9633 3.2966 0 5.9707-0.87744 5.9985-1.9633h0.0014v-2.5837h-12z" style="fill:url(#linearGradient3322)"/>
 <ellipse id="ellipse3654-6" transform="matrix(.375 0 0 .38603 -11.794 -12.934)" cx="66" cy="67.131" rx="16" ry="5.131" style="fill:url(#linearGradient5220-2)"/>
 <path id="path3656-7" d="m9.7576 14.674v2.5837c0.92587 0.19301 2.022 0.30496 3.1984 0.30496 0.95362 0 1.8544-0.07373 2.655-0.20421l0.0019-2.5837-2.9306-1.1017-2.9246 1.001z" style="fill:url(#linearGradient3318)"/>
 <path id="path3658-7" d="m12.956 14.961c0.95437 0 1.8559-0.07334 2.6569-0.20421l-2.6569-1.7765-3.1984 1.6761c0.92587 0.19301 2.022 0.30458 3.1984 0.30458z" style="fill:url(#linearGradient3315)"/>
 <path id="path3660-4" d="m15.613 14.774-0.0019 2.5837c1.1164-0.18259 2.0359-0.47559 2.6261-0.83691v-2.5822l-1.9114 0.19302-0.71287 0.64235z" style="fill:url(#linearGradient3312)"/>
 <path id="path3662-0" d="m15.613 14.757c1.1149-0.18259 2.034-0.47482 2.6242-0.83537l-5.2811-0.94075 2.6569 1.7761z" style="fill:url(#linearGradient3309)"/>
</svg>
