<?xml version="1.0" encoding="UTF-8"?>
<!-- Created with Inkscape (http://www.inkscape.org/) -->
<svg id="svg2" width="32" height="32" version="1.0" xmlns="http://www.w3.org/2000/svg" xmlns:xlink="http://www.w3.org/1999/xlink">
 <defs id="defs4">
  <linearGradient id="linearGradient3156">
   <stop id="stop3158" style="stop-color:#fff" offset="0"/>
   <stop id="stop3160" style="stop-color:#fff;stop-opacity:0" offset="1"/>
  </linearGradient>
  <radialGradient id="radialGradient6203" cx="62.625" cy="4.625" r="10.625" gradientTransform="matrix(1 0 0 .34118 0 3.0471)" gradientUnits="userSpaceOnUse">
   <stop id="stop8840" offset="0"/>
   <stop id="stop8842" style="stop-opacity:0" offset="1"/>
  </radialGradient>
  <linearGradient id="linearGradient6223" x1="24.335" x2="28.29" y1="61.853" y2="20.664" gradientUnits="userSpaceOnUse" xlink:href="#linearGradient3156"/>
  <linearGradient id="linearGradient6225" x1="27.889" x2="28.29" y1="-.81503" y2="20.664" gradientUnits="userSpaceOnUse" xlink:href="#linearGradient3156"/>
  <linearGradient id="linearGradient6227" x1="28.221" x2="28.29" y1="-2.3103" y2="20.664" gradientUnits="userSpaceOnUse" xlink:href="#linearGradient3156"/>
  <linearGradient id="linearGradient6229" x1="30.502" x2="29.725" y1="55.647" y2="24.654" gradientUnits="userSpaceOnUse" xlink:href="#linearGradient3156"/>
  <radialGradient id="radialGradient5550" cx="21.8" cy="10.143" r="14" fy="3.6817" gradientTransform="matrix(1.117 -.029228 .017775 .77129 -11.972 .055783)" gradientUnits="userSpaceOnUse" xlink:href="#linearGradient3156"/>
  <radialGradient id="radialGradient5553" cx="68.432" cy="25.946" r="13" gradientTransform="matrix(1.3261 -.02467 .013598 .73096 -80.67 -12.369)" gradientUnits="userSpaceOnUse" xlink:href="#linearGradient3156"/>
  <radialGradient id="radialGradient5563" cx="19.126" cy="12.904" r="22.464" gradientTransform="matrix(1.1062 -.0037037 .0029629 .89853 -9.1962 -3.0978)" gradientUnits="userSpaceOnUse">
   <stop id="stop4105" style="stop-color:#70adfb" offset="0"/>
   <stop id="stop4107" style="stop-color:#3465a4" offset="1"/>
  </radialGradient>
  <linearGradient id="linearGradient5565" x1="74" x2="74" y1="37.048" y2="51.096" gradientTransform="translate(-58 -21.006)" gradientUnits="userSpaceOnUse">
   <stop id="stop6495" style="stop-color:#4580d4" offset="0"/>
   <stop id="stop6497" style="stop-color:#114796" offset="1"/>
  </linearGradient>
  <radialGradient id="radialGradient6347" cx="16.311" cy="11.715" r="9.7989" gradientTransform="matrix(1.5861 .027993 -.032215 1.8253 -9.182 -10.697)" gradientUnits="userSpaceOnUse">
   <stop id="stop8920" style="stop-color:#debc8c" offset="0"/>
   <stop id="stop8922" style="stop-color:#f4ac72" offset="1"/>
  </radialGradient>
 </defs>
 <g id="layer1">
  <g id="g6349">
   <path id="path6401" transform="matrix(1.0353 0 0 .99388 -48.835 23)" d="m73.25 4.625c0 2.002-4.757 3.625-10.625 3.625s-10.625-1.623-10.625-3.625 4.757-3.625 10.625-3.625 10.625 1.623 10.625 3.625z" style="enable-background:new;fill-rule:evenodd;fill:url(#radialGradient6203);opacity:.56044"/>
   <path id="path6453" d="m29.501 16.042c0 7.4792-6.0486 13.549-13.501 13.549-7.4527 0-13.501-6.0701-13.501-13.549 0-7.4792 6.0486-13.549 13.501-13.549 7.4527 0 13.501 6.0701 13.501 13.549z" style="fill:url(#radialGradient5563);stroke-linecap:round;stroke-linejoin:round;stroke-width:.99742;stroke:url(#linearGradient5565)"/>
   <path id="path3630" d="m28.509 13.979-0.12145 0.45799c-0.35941-0.29207-0.76293-0.53768-1.1727-0.7942l-0.89948 0.09127-0.82179-0.6406v0.7928l0.70407 0.36738 0.46863 0.36597 0.62627-0.48841c0.15764 0.20362 0.31314 0.40723 0.4697 0.61085v0.61018l-0.70515 0.54926-1.2904 0.61085-0.97729 0.67251-0.62627-0.48989 0.31314-0.54926-0.6253-0.48841-1.0561-1.5566-0.89948-0.70145-0.23544 0.18262 0.35306 0.88555 0.66415 0.51883c0.37931 0.7551 0.75454 1.4768 1.2527 2.1986 0.7724 0 1.5006-0.05654 2.2677-0.12318v0.42756l-0.93844 1.5874-0.86064 0.67103-0.70407 1.0392v1.7087l0.23544 0.67251-0.39094 0.30438-0.86172 0.36664-0.89948 0.51883 0.74399 0.57976-1.0172 0.61159 0.19541 0.39566-1.5259 1.1913h-1.0161l-0.86064 0.36664h-0.54858v-0.48841l-0.23329-0.9783c-0.3027-0.61307-0.61788-1.2218-0.93844-1.8305 0-0.4493 0.03885-0.89423 0.0778-1.3435l0.39201-0.61018-0.54858-0.73336 0.03992-1.0072-0.74399-0.57976 0.372-0.83917-0.60529-0.47357h-1.0571l-0.35198-0.27463-1.0561 0.45836-0.42978-0.33659-0.97836 0.58005c-0.66415-0.5192-1.3294-1.038-1.9945-1.5569l-0.78187-1.2826 0.70407-0.73187-0.39094-0.30505 0.85956-1.4051c0.70622-0.6058 1.4439-1.187 2.19-1.7703l1.3303-0.2442 1.4859-0.12177 1.0172 0.18336 1.447 1.0065 0.50866-0.3964 0.703-0.06085 1.3303 0.30505h1.0172l0.70407-0.42756 0.31314-0.30505-0.70515-0.30505-1.1738-0.06085c-0.32573-0.31158-0.62842-0.63911-1.0152-0.91597l-0.39201 0.12177-0.15657 0.7942-0.70407-0.54926-0.15549-0.61159-0.78187-0.42608h-0.31421l0.78284 0.61018-0.31314 0.54926-0.6253 0.12177 0.39094-0.54926-0.70515-0.24346-0.62423-0.48841-1.1749 0.18262-0.15549 0.24346-0.70407 0.30579-0.39094 0.67177-0.97729 0.33548-0.43086-0.33548h-0.46863v-1.0993l1.0172-0.36664h0.78187l-0.15764-0.42682-0.62423-0.42756 1.0551-0.15293 0.58635-0.45724 0.46863-0.55h0.86172l-0.23544-0.42682 0.54858-0.24421v0.48841l1.1727 0.18262 1.1727-0.67103 0.07877-0.30579 1.0161-0.48804c-0.3678 0.031537-0.7356 0.054688-1.095 0.12214v-0.54993l0.39094-0.61055h-0.39094l-0.85913 0.54926-0.23544 0.30542 0.23544 0.42793-0.39201 0.73187-0.6253-0.24421-0.54643-0.42682-0.86172 0.42682-0.31314-0.97645 1.4859-0.6714v-0.36664l0.93941-0.42719 1.4859-0.24458 1.0172 0.24458 1.4081 0.61018h-1.0172l1.0172 0.73262 0.78187-0.61018s3.1112 1.5275 4.7181 3.64c1.5636 2.0555 2.218 4.3917 2.2864 4.8773z" style="opacity:.5"/>
   <path id="path6457" d="m28.509 12.98-0.12145 0.45799c-0.35941-0.29207-0.76293-0.53768-1.1727-0.7942l-0.89948 0.09127-0.82179-0.6406v0.7928l0.70407 0.36738 0.46863 0.36597 0.62627-0.48841c0.15764 0.20362 0.31314 0.40723 0.4697 0.61085v0.61018l-0.70515 0.54926-1.2904 0.61085-0.97729 0.67251-0.62627-0.48989 0.31314-0.54926-0.6253-0.48841-1.0561-1.5566-0.89948-0.70145-0.23544 0.18262 0.35306 0.88555 0.66415 0.51883c0.37931 0.7551 0.75454 1.4768 1.2527 2.1986 0.7724 0 1.5006-0.05654 2.2677-0.12318v0.42756l-0.93844 1.5874-0.86064 0.67103-0.70407 1.0392v1.7087l0.23544 0.67251-0.39094 0.30438-0.86172 0.36664-0.89948 0.51883 0.74399 0.57976-1.0172 0.61159 0.19541 0.39566-1.5259 1.1913h-1.0161l-0.86064 0.36664h-0.54858v-0.48841l-0.23329-0.9783c-0.3027-0.61307-0.61788-1.2218-0.93844-1.8305 0-0.4493 0.03885-0.89423 0.0778-1.3435l0.39201-0.61018-0.54858-0.73336 0.03992-1.0072-0.74399-0.57976 0.372-0.83917-0.60529-0.47357h-1.0571l-0.35198-0.27463-1.0561 0.45836-0.42978-0.33659-0.97836 0.58005c-0.66415-0.5192-1.3294-1.038-1.9945-1.5569l-0.78187-1.2826 0.70407-0.73187-0.39094-0.30505 0.85956-1.4051c0.70622-0.6058 1.4439-1.187 2.19-1.7703l1.3303-0.2442 1.4859-0.12177 1.0172 0.18336 1.447 1.0065 0.50866-0.3964 0.703-0.06085 1.3303 0.30505h1.0172l0.70407-0.42756 0.31314-0.30505-0.70515-0.30505-1.1738-0.06085c-0.32573-0.31158-0.62842-0.63911-1.0152-0.91597l-0.39201 0.12177-0.15657 0.7942-0.70407-0.54926-0.15549-0.61159-0.78187-0.42608h-0.31421l0.78284 0.61018-0.31314 0.54926-0.6253 0.12177 0.39094-0.54926-0.70515-0.24346-0.62423-0.48841-1.1749 0.18262-0.15549 0.24346-0.70407 0.30579-0.39094 0.67177-0.97729 0.33548-0.43086-0.33548h-0.46863v-1.0993l1.0172-0.36664h0.78187l-0.15764-0.42682-0.62423-0.42756 1.0551-0.15293 0.58635-0.45724 0.46863-0.55h0.86172l-0.23544-0.42682 0.54858-0.24421v0.48841l1.1727 0.18262 1.1727-0.67103 0.07877-0.30579 1.0161-0.48804c-0.3678 0.031537-0.7356 0.054688-1.095 0.12214v-0.54993l0.39094-0.61055h-0.39094l-0.85913 0.54926-0.23544 0.30542 0.23544 0.42793-0.39201 0.73187-0.6253-0.24421-0.54643-0.42682-0.86172 0.42682-0.31314-0.97645 1.4859-0.6714v-0.36664l0.93941-0.42719 1.4859-0.24458 1.0172 0.24458 1.4081 0.61018h-1.0172l1.0172 0.73262 0.78187-0.61018s3.1112 1.5275 4.7181 3.64c1.5636 2.0555 2.218 4.3917 2.2864 4.8773z" style="fill:url(#radialGradient6347)"/>
   <path id="path6461" d="m28.504 15.956c0 6.9234-5.602 12.542-12.504 12.542-6.9025 0-12.504-5.619-12.504-12.542 0-6.9234 5.602-12.542 12.504-12.542 6.9024 0 12.504 5.619 12.504 12.542z" style="fill:none;opacity:.3;stroke-linecap:round;stroke-linejoin:round;stroke-width:.99113;stroke:url(#radialGradient5553)"/>
   <path id="path6463" d="m28.2 11.72c0 4.692-5.4656 7.274-12.2 7.274-6.7344 0-12.2-2.582-12.2-7.274 0-4.692 5.4656-9.7259 12.2-9.7259 6.7344 0 12.2 5.0339 12.2 9.7259z" style="fill:url(#radialGradient5550);opacity:.4"/>
   <path id="path6465" transform="matrix(.70278 -.19419 .12752 .4762 -7.1217 10.481)" d="m46 24.25c0 9.665-7.835 17.5-17.5 17.5s-17.5-7.835-17.5-17.5 7.835-17.5 17.5-17.5 17.5 7.835 17.5 17.5v0z" style="fill:none;opacity:.5;stroke-linecap:round;stroke-width:1.6632;stroke:url(#linearGradient6223)"/>
   <path id="path6467" transform="matrix(.71575 -.0041918 .00071473 .45859 -4.4163 3.4929)" d="m46 24.25c0 9.665-7.835 17.5-17.5 17.5s-17.5-7.835-17.5-17.5 7.835-17.5 17.5-17.5 17.5 7.835 17.5 17.5v0z" style="fill:none;opacity:.5;stroke-linecap:round;stroke-width:1.6557;stroke:url(#linearGradient6225)"/>
   <path id="path6469" transform="matrix(-.064839 -.71519 .45309 -.02554 5.3604 36.984)" d="m46 24.25c0 9.665-7.835 17.5-17.5 17.5s-17.5-7.835-17.5-17.5 7.835-17.5 17.5-17.5 17.5 7.835 17.5 17.5v0z" style="fill:none;opacity:.5;stroke-linecap:round;stroke-width:1.7143;stroke:url(#linearGradient6227)"/>
   <path id="path6471" transform="matrix(-.1055 -.72482 .32007 .011117 11.335 36.386)" d="m46 24.25c0 9.665-7.835 17.5-17.5 17.5s-17.5-7.835-17.5-17.5 7.835-17.5 17.5-17.5 17.5 7.835 17.5 17.5v0z" style="fill:none;stroke-linecap:round;stroke-width:2.0761;stroke:url(#linearGradient6229)"/>
   <g id="g6473" transform="matrix(.64316 -.17495 .17495 .64316 -3.5337 4.0368)" style="stroke-width:1.5914">
    <path id="path6475" transform="matrix(.85714 0 0 .85714 4.1071 5.0357)" d="m31.375 37.875c0 0.9665-0.7835 1.75-1.75 1.75s-1.75-0.7835-1.75-1.75 0.7835-1.75 1.75-1.75 1.75 0.7835 1.75 1.75z" style="fill:#fff;opacity:.5"/>
   </g>
   <g id="g6477" transform="matrix(.6353 -.15135 .20161 .64913 -16.302 5.1167)" style="opacity:.4;stroke-width:1.7189">
    <path id="path6479" transform="matrix(.85714 0 0 .85714 4.1071 5.0357)" d="m31.375 37.875c0 0.9665-0.7835 1.75-1.75 1.75s-1.75-0.7835-1.75-1.75 0.7835-1.75 1.75-1.75 1.75 0.7835 1.75 1.75z" style="fill:#fff;opacity:.5"/>
   </g>
   <g id="g6481" transform="matrix(.61635 -.21252 .25377 .63174 -9.6985 -11.426)" style="stroke-width:1.7189">
    <path id="path6483" transform="matrix(.85714 0 0 .85714 4.1071 5.0357)" d="m31.375 37.875c0 0.9665-0.7835 1.75-1.75 1.75s-1.75-0.7835-1.75-1.75 0.7835-1.75 1.75-1.75 1.75 0.7835 1.75 1.75z" style="fill:#fff;opacity:.5"/>
   </g>
   <g id="g6485" transform="matrix(.66657 -.18801 -.011228 .63946 -11.243 -10.439)" style="opacity:.4;stroke-width:1.7189">
    <path id="path6487" transform="matrix(.85714 0 0 .85714 4.1071 5.0357)" d="m31.375 37.875c0 0.9665-0.7835 1.75-1.75 1.75s-1.75-0.7835-1.75-1.75 0.7835-1.75 1.75-1.75 1.75 0.7835 1.75 1.75z" style="fill:#fff;opacity:.5"/>
   </g>
  </g>
 </g>
</svg>
