<?xml version="1.0" encoding="UTF-8"?>
<!-- Created with Inkscape (http://www.inkscape.org/) -->
<svg id="svg2" width="22" height="22" version="1.0" xmlns="http://www.w3.org/2000/svg" xmlns:xlink="http://www.w3.org/1999/xlink">
 <defs id="defs4">
  <linearGradient id="linearGradient5533" x1="21.866" x2="21.78" y1="8.5763" y2="39.924" gradientTransform="matrix(.63636 0 0 .62295 -3.9091 -4.6066)" gradientUnits="userSpaceOnUse">
   <stop id="stop2783" style="stop-color:#505050" offset="0"/>
   <stop id="stop6301" style="stop-color:#6e6e6e" offset=".13216"/>
   <stop id="stop2785" style="stop-color:#8c8c8c" offset="1"/>
  </linearGradient>
  <linearGradient id="linearGradient5535" x1="15.211" x2="15.211" y1="8.6471" y2="18.882" gradientTransform="matrix(.61291 0 0 .58621 -3.3226 -3.569)" gradientUnits="userSpaceOnUse">
   <stop id="stop4224" style="stop-color:#fff" offset="0"/>
   <stop id="stop4226" style="stop-color:#fff;stop-opacity:0" offset="1"/>
  </linearGradient>
  <linearGradient id="linearGradient5537" x1="24" x2="24" y1="13" y2="40" gradientTransform="matrix(.52632 0 0 .48148 -.63158 .24074)" gradientUnits="userSpaceOnUse">
   <stop id="stop6459" style="stop-color:#fff;stop-opacity:.94118" offset="0"/>
   <stop id="stop6461" style="stop-color:#fff;stop-opacity:.70588" offset="1"/>
  </linearGradient>
 </defs>
 <g id="g5525" transform="translate(-1 .50002)">
  <path id="rect1887" d="m2.5 1c-0.554 0-1 0.446-1 1v17c0 0.554 0.446 1 1 1h10.5l-2.5625-2.5938 4.625-4.25-10.062-7.8438 6.0938-4.3125h-8.5938zm12.125 0-6.375 4.3125 9.9375 7.7812-4.6875 4.4375 2.4375 2.4688h5.5625c0.554 0 1-0.446 1-1v-17c0-0.554-0.446-1-1-1h-6.875z" style="fill:url(#linearGradient5533);stroke-width:.99995;stroke:#565853"/>
  <path id="rect2779" d="m3 2c-0.277 0-0.5 0.223-0.5 0.5v16c0 0.277 0.223 0.5 0.5 0.5h9l-1.5625-1.5938 4.625-4.25-10.062-7.8438 4.6875-3.3125h-6.6875zm10.156 0-4.9062 3.3125 9.9375 7.7812-4.6875 4.4375 1.4375 1.4688h6.0625c0.277 0 0.5-0.223 0.5-0.5v-16c0-0.277-0.223-0.5-0.5-0.5h-7.8438z" style="fill:none;opacity:.2;stroke-width:.99994;stroke:url(#linearGradient5535)"/>
  <path id="rect6287" d="m2.5 6.5c-0.27709 0-0.5 0.223-0.5 0.5v12c0 0.277 0.22291 0.5 0.5 0.5h10l-2.0625-2.0938 4.625-4.25-8.5312-6.6562h-4.0312zm7.2812 0 8.4062 6.5938-4.6875 4.4375 1.9375 1.9688h6.0625c0.27709 0 0.5-0.223 0.5-0.5v-12c0-0.277-0.22291-0.5-0.5-0.5h-11.719z" style="fill:url(#linearGradient5537)"/>
  <path id="path6293" d="m21 3.5c2.38e-4 0.55221-0.44755 1-1 1-0.55246 0-1.0002-0.44779-1-1-2.41e-4 -0.55221 0.44754-1 1-1 0.55245 0 1.0002 0.44779 1 1z" style="fill:#ffc24c"/>
  <path id="path6622" d="m18 3.5c2.38e-4 0.55221-0.44755 1-1 1-0.55246 0-1.0002-0.44779-1-1-2.41e-4 -0.55222 0.44754-1 1-1 0.55245 0 1.0002 0.44778 1 1z" style="fill:#ffc24c"/>
  <path id="path6630" d="m15 3.5c2.37e-4 0.55221-0.44755 1-1 1-0.55246 0-1.0002-0.44779-1-1-2.41e-4 -0.55222 0.44754-1 1-1 0.55245 0 1.0002 0.44778 1 1z" style="fill:#ffc24c"/>
 </g>
</svg>
