<?xml version="1.0" encoding="UTF-8"?>
<!-- Created with Inkscape (http://www.inkscape.org/) -->
<svg id="svg3196" width="22" height="22" version="1.0" xmlns="http://www.w3.org/2000/svg">
 <rect id="rect2388" transform="rotate(-90)" x="-18.5" y="5.5001" width="16" height="11" rx="1.39" ry="1.5155" style="fill:none;stroke-linecap:square;stroke:#606060"/>
 <path id="path3593" d="m11 8v0" style="fill:none;stroke-linecap:round;stroke-width:2;stroke:#606060"/>
 <path id="path3622" d="m2 5c-2 0-2 6 0 6m18-6c2 0 2 6 0 6m-2-4c1 0 1 2 0 2m-14-2c-1 0-1 2 0 2" style="fill:none;stroke-linecap:round;stroke-width:1px;stroke:#606060"/>
 <path id="path2820" transform="matrix(1.0167 0 0 1.0167 -.097852 -1.0179)" d="m13.366 8.8697a2.4507 2.4507 0 1 1-4.9014 0 2.4507 2.4507 0 1 1 4.9014 0z" style="fill:none;opacity:.4;stroke-linecap:round;stroke-linejoin:round;stroke-width:.98357;stroke:#606060"/>
 <path id="path3594" d="m12.5 15a1.5 1.4993 0 1 1-3.0001 0 1.5 1.4993 0 1 1 3.0001 0z" style="fill:none;stroke-linecap:round;stroke-linejoin:round;stroke-width:.99993;stroke:#606060"/>
 <path id="path3621" d="m14.5 7.9999a3.5002 3.499 0 1 1-7.0004 0 3.5002 3.499 0 1 1 7.0004 0z" style="fill:none;stroke-linecap:round;stroke-linejoin:round;stroke-width:.99956;stroke:#606060"/>
</svg>
