<?xml version="1.0" encoding="UTF-8"?>
<!-- Created with Inkscape (http://www.inkscape.org/) -->
<svg id="svg3402" width="128" height="128" version="1.0" xmlns="http://www.w3.org/2000/svg" xmlns:cc="http://creativecommons.org/ns#" xmlns:dc="http://purl.org/dc/elements/1.1/" xmlns:rdf="http://www.w3.org/1999/02/22-rdf-syntax-ns#" xmlns:xlink="http://www.w3.org/1999/xlink">
 <metadata id="metadata54">
  <rdf:RDF>
   <cc:Work rdf:about="">
    <dc:format>image/svg+xml</dc:format>
    <dc:type rdf:resource="http://purl.org/dc/dcmitype/StillImage"/>
   </cc:Work>
  </rdf:RDF>
 </metadata>
 <defs id="defs3404">
  <linearGradient id="linearGradient3688">
   <stop id="stop3690" offset="0"/>
   <stop id="stop3692" style="stop-opacity:0" offset="1"/>
  </linearGradient>
  <linearGradient id="linearGradient2490-113-765">
   <stop id="stop3686" style="stop-color:#861318" offset="0"/>
   <stop id="stop3688" style="stop-color:#f67e2a" offset="1"/>
  </linearGradient>
  <linearGradient id="linearGradient3839">
   <stop id="stop3841" style="stop-color:#ffed8c" offset="0"/>
   <stop id="stop3843" style="stop-color:#fb9858" offset=".26238"/>
   <stop id="stop3845" style="stop-color:#dc572a" offset=".66094"/>
   <stop id="stop3847" style="stop-color:#9f3110" offset="1"/>
  </linearGradient>
  <linearGradient id="linearGradient8265-821-176-38-919-66-249-7-7">
   <stop id="stop2687-1-9" style="stop-color:#fff" offset="0"/>
   <stop id="stop2689-5-4" style="stop-color:#fff;stop-opacity:0" offset="1"/>
  </linearGradient>
  <linearGradient id="linearGradient2430" x1="15.8" x2="15.8" y1="20.445" y2="44.109" gradientTransform="matrix(2.605 0 0 2.6039 2.0705 5.8551)" gradientUnits="userSpaceOnUse" xlink:href="#linearGradient8265-821-176-38-919-66-249-7-7"/>
  <linearGradient id="linearGradient2433" x1="30.15" x2="30.15" y1="5.0701" y2="44.02" gradientTransform="matrix(2.6008 0 0 2.6008 2.0865 6.0019)" gradientUnits="userSpaceOnUse" xlink:href="#linearGradient8265-821-176-38-919-66-249-7-7"/>
  <linearGradient id="linearGradient2436" x1="9.65" x2="9.65" y1="36.845" y2="42.995" gradientTransform="matrix(2.3574 0 0 2.3701 3.8909 15.15)" gradientUnits="userSpaceOnUse" xlink:href="#linearGradient8265-821-176-38-919-66-249-7-7"/>
  <linearGradient id="linearGradient2439" x1="16.626" x2="20.055" y1="15.298" y2="24.628" gradientTransform="matrix(2.5575 0 0 2.7178 12.26 16.869)" gradientUnits="userSpaceOnUse" xlink:href="#linearGradient8265-821-176-38-919-66-249-7-7"/>
  <linearGradient id="linearGradient2442" x1="16.626" x2="20.055" y1="15.298" y2="24.628" gradientTransform="matrix(2.5534 0 0 2.7145 12.259 17.002)" gradientUnits="userSpaceOnUse" xlink:href="#linearGradient8265-821-176-38-919-66-249-7-7"/>
  <radialGradient id="radialGradient2445" cx="22.139" cy="17.654" r="20" gradientTransform="matrix(0 2.5665 -3.7021 -1.0829e-7 76.878 27.712)" gradientUnits="userSpaceOnUse" xlink:href="#linearGradient3839"/>
  <linearGradient id="linearGradient2447" x1="24" x2="24" y1="44" y2="3.899" gradientTransform="matrix(2.7157 0 0 2.7157 .947 1.16)" gradientUnits="userSpaceOnUse" xlink:href="#linearGradient2490-113-765"/>
  <radialGradient id="radialGradient2450" cx="12.011" cy="10.291" r="20" gradientTransform="matrix(1.5699e-7 5.3646 -7.7418 0 132.64 -23.986)" gradientUnits="userSpaceOnUse" xlink:href="#linearGradient3839"/>
  <linearGradient id="linearGradient2452" x1="24" x2="24" y1="44" y2="3.899" gradientTransform="matrix(2.605 0 0 2.6039 2.0705 5.8551)" gradientUnits="userSpaceOnUse" xlink:href="#linearGradient2490-113-765"/>
  <radialGradient id="radialGradient2455" cx="12.011" cy="10.291" r="20" gradientTransform="matrix(1.5674e-7 5.3581 -7.7293 0 132.44 -23.803)" gradientUnits="userSpaceOnUse" xlink:href="#linearGradient3839"/>
  <linearGradient id="linearGradient2457" x1="24" x2="24" y1="44" y2="-2.167" gradientTransform="matrix(2.6008 0 0 2.6008 2.0865 6.0019)" gradientUnits="userSpaceOnUse" xlink:href="#linearGradient2490-113-765"/>
  <radialGradient id="radialGradient2466" cx="-8.3117" cy="44.75" r="2.5" gradientTransform="matrix(4.8091 0 0 1.6 62.972 47.4)" gradientUnits="userSpaceOnUse" xlink:href="#linearGradient3688"/>
  <radialGradient id="radialGradient2468" cx="4.993" cy="43.5" r="2.5" gradientTransform="matrix(2.4045 0 0 .8 -52.014 -79.8)" gradientUnits="userSpaceOnUse" xlink:href="#linearGradient3688"/>
  <radialGradient id="radialGradient2470" cx="4.993" cy="43.5" r="2.5" gradientTransform="matrix(2.4045 0 0 .8 27.986 10.2)" gradientUnits="userSpaceOnUse" xlink:href="#linearGradient3688"/>
 </defs>
 <path id="path3629" d="m35 119c0 2.2091-5.3726 4-12 4-6.6274 0-12-1.7909-12-4s5.3726-4 12-4c6.6274 0 12 1.7909 12 4z" style="fill:url(#radialGradient2466);opacity:.3"/>
 <g id="g3619" transform="matrix(2.5,0,0,2,-34,29)">
  <rect id="rect3621" transform="scale(-1)" x="-40" y="-47" width="6" height="4" style="fill:url(#radialGradient2468);opacity:.3"/>
  <rect id="rect3623" x="40" y="43" width="6" height="4" style="fill:url(#radialGradient2470);opacity:.3"/>
 </g>
 <g id="g3615" transform="matrix(2.4957 0 0 1.9966 7.1958 29.161)">
  <rect id="rect3611" transform="scale(-1)" x="-40" y="-47" width="6" height="4" style="fill:url(#radialGradient2468);opacity:.3"/>
  <rect id="rect2801" x="40" y="43" width="6" height="4" style="fill:url(#radialGradient2470);opacity:.3"/>
 </g>
 <path id="path3343" d="m12.49 16.49v18.295c46.89 0.87374 84.767 38.802 85.629 85.736h18.403c-0.87003-57.09-46.994-103.16-104.03-104.03z" style="fill:url(#radialGradient2455);stroke-linecap:round;stroke-linejoin:round;stroke-width:.97561;stroke:url(#linearGradient2457)"/>
 <path id="path3341" d="m12.491 58.517v16.474c24.79 0.86222 44.677 20.72 45.54 45.521h16.481c-0.87051-33.945-28.093-61.126-62.022-61.995z" style="fill:url(#radialGradient2450);stroke-linecap:round;stroke-linejoin:round;stroke-width:.97561;stroke:url(#linearGradient2452)"/>
 <path id="path8636" d="m23.113 99.601c-3.0305 9.3e-5 -5.3613 1.0641-7.4603 3.165-2.1018 2.0664-3.165 4.314-3.165 7.3473 0 2.9859 1.0706 5.2884 3.165 7.3473 2.0881 2.0529 4.4065 3.052 7.4603 3.052 2.959 6e-5 5.1779-0.99362 7.2342-3.052 2.1056-2.1076 3.1649-4.4091 3.165-7.3473-3.3e-5 -3.0334-1.0632-5.281-3.165-7.3473-2.0671-2.1066-4.299-3.1649-7.2342-3.165z" style="fill:url(#radialGradient2445);stroke-linecap:round;stroke-linejoin:round;stroke-width:.97561;stroke:url(#linearGradient2447)"/>
 <path id="path3325" d="m12.468 16c-0.26788 0.011683-0.47372 0.22326-0.46795 0.49914 1.98e-4 0.010398 1.98e-4 0.020798 0 0.031197v18.25c1.98e-4 0.010398 1.98e-4 0.020799 0 0.031197-0.002951 0.14635 0.05672 0.2127 0.15598 0.31196 0.075353 0.075351 0.19779 0.15891 0.34316 0.15598 0.010399-1.98e-4 0.020799-1.98e-4 0.031197 0 28.488 0.53085 53.498 14.821 68.945 36.5 0.1114 0.15086 0.3097 0.19779 0.49915 0.15598 0.020791-7.94e-4 0.041603-7.94e-4 0.062394 0l19.81-3.338c0.00748-0.002465 0.024 0.002772 0.0312 0 0.10944-0.042134 0.18939-0.11112 0.24958-0.24957 0.0638-0.14673 0.04912-0.2952-0.0312-0.43675-18.257-30.673-51.444-51.33-89.566-51.911-0.010398 1.99e-4 -0.020798 1.99e-4 -0.031197 0-0.003951-1.26e-4 -0.027245-1.26e-4 -0.031196 0z" style="fill-rule:evenodd;fill:url(#linearGradient2442);opacity:.2"/>
 <path id="path3331" d="m12.469 58c-0.29031 0.012655-0.47446 0.19382-0.46871 0.46851 1.98e-4 0.010411 1.98e-4 0.020823 0 0.031234v16.523c1.98e-4 0.010411 1.98e-4 0.020824 0 0.031234-0.005737 0.27419 0.20245 0.48814 0.46871 0.49975 6.8848 0.23946 13.398 1.9123 19.217 4.8101 0.12932 0.058617 0.1555 0.052989 0.24998 0.031234 0.020824-7.9e-4 0.041671-7.9e-4 0.062495 0l22.811-3.9355c0.19132-0.043373 0.32745-0.15796 0.37497-0.31234 0.045148-0.14667 0.003623-0.33073-0.12499-0.46851-11.126-10.56-26.062-17.256-42.559-17.679-0.003801-1.21e-4 -0.027381-1.23e-4 -0.031248 0z" style="fill-rule:evenodd;fill:url(#linearGradient2439);opacity:.2"/>
 <path id="path3351" d="m23.102 100.49c-2.7422 9e-5 -4.8513 0.96808-6.7506 2.8794-1.9018 1.8799-2.8639 3.9247-2.8639 6.6843 0 2.7165 0.96873 4.8111 2.8639 6.6842 1.8895 1.8676 3.9873 2.7766 6.7506 2.7765 2.6776 6e-5 4.6854-0.90394 6.546-2.7765 1.9053-1.9174 2.8639-4.0112 2.8639-6.6842-3e-5 -2.7596-0.96204-4.8044-2.8639-6.6843-1.8704-1.9165-3.89-2.8793-6.546-2.8794z" style="fill:none;opacity:.4;stroke-linecap:round;stroke-linejoin:round;stroke-width:.97561;stroke:url(#linearGradient2436)"/>
 <path id="path3381" d="m13.466 17.529v16.347c46.64 1.3632 84.191 38.982 85.542 85.665h16.472c-1.3637-55.804-46.261-100.65-102.01-102.01z" style="fill:none;opacity:.4;stroke-linecap:round;stroke-linejoin:round;stroke-width:.97561;stroke:url(#linearGradient2433)"/>
 <path id="path3394" d="m13.469 59.562v14.586c24.519 1.3353 44.065 20.855 45.403 45.383h14.624c-1.3514-32.632-27.409-58.621-60.026-59.97z" style="fill:none;opacity:.4;stroke-linecap:round;stroke-linejoin:round;stroke-width:.97561;stroke:url(#linearGradient2430)"/>
</svg>
