<?xml version="1.0" encoding="UTF-8"?>
<!-- Created with Inkscape (http://www.inkscape.org/) -->
<svg id="svg2411" width="16" height="16" version="1.0" xmlns="http://www.w3.org/2000/svg">
 <g id="layer1">
  <path id="path2409" d="m2.5625 0c-1.4402 0-2.5625 1.2291-2.5625 2.6562v10.688c-1.564e-8 1.4271 1.1223 2.6562 2.5625 2.6562h10.875c1.4402 0 2.5625-1.2291 2.5625-2.6562v-10.688c0-1.4271-1.1223-2.6562-2.5625-2.6562h-10.875zm4.4375 6.4375v0.5625c0.0029173 0.55107 0.44893 0.99708 1 1h5v2h-5c-0.55107 0.002917-0.99708 0.44893-1 1v0.5625l-2.5625-2.5625 2.5625-2.5625z" style="fill-rule:evenodd;fill:#eae3d0;opacity:.6"/>
  <path id="rect2396" d="m2.5625 1c-0.86178 0-1.5625 0.74378-1.5625 1.6562v10.688c-1e-8 0.91247 0.70072 1.6562 1.5625 1.6562h10.875c0.86178 0 1.5625-0.74378 1.5625-1.6562v-10.688c0-0.91247-0.70072-1.6562-1.5625-1.6562h-10.875zm-0.0625 1h11c0.277 0 0.5 0.223 0.5 0.5s-0.223 0.5-0.5 0.5h-11c-0.277 0-0.5-0.223-0.5-0.5s0.223-0.5 0.5-0.5zm5.5 2v3h6v4h-6v3l-5-5 5-5z" style="fill-rule:evenodd;fill:#3a3935"/>
 </g>
</svg>
