<?xml version="1.0" encoding="UTF-8"?>
<!-- Created with Inkscape (http://www.inkscape.org/) -->
<svg id="svg3786" width="16" height="16" version="1.0" xmlns="http://www.w3.org/2000/svg" xmlns:xlink="http://www.w3.org/1999/xlink">
 <defs id="defs3788">
  <linearGradient id="linearGradient3212" x1="-35.539" x2="-35.539" y1="-144.21" y2="-108.32" gradientTransform="matrix(.23599 0 0 .35556 18.232 51.44)" gradientUnits="userSpaceOnUse">
   <stop id="stop7064" style="stop-color:#f0f0f1" offset="0"/>
   <stop id="stop7060" style="stop-color:#ddddde" offset="1"/>
  </linearGradient>
  <linearGradient id="linearGradient3214" x1="7.8514" x2="7.8514" y1="19.968" y2="7.0348" gradientTransform="matrix(.64516 0 0 .97976 .25806 -6.7257)" gradientUnits="userSpaceOnUse">
   <stop id="stop3486" style="stop-color:#aaa" offset="0"/>
   <stop id="stop3488" style="stop-color:#c8c8c8" offset="1"/>
  </linearGradient>
  <linearGradient id="linearGradient3217" x1="46.427" x2="46.427" y1="101.88" y2="85.788" gradientTransform="matrix(.12584 0 0 .1986 .13145 -5.1684)" gradientUnits="userSpaceOnUse">
   <stop id="stop2223" style="stop-color:#aaa" offset="0"/>
   <stop id="stop2219" style="stop-color:#646464" offset="1"/>
  </linearGradient>
 </defs>
 <g id="g4069">
  <path id="rect2992" d="m0.41963 12.522h15.158c0.04071 0.12546 0.0066 0.18174 0.01782 0.33377-0.30815 2.701-0.0731 2.1444-0.78734 2.7254-0.21855 0.03855-8.8122 0-13.647 0-0.58008-0.58106-0.45286 0.05255-0.75972-3.1792l0.017819 0.12004z" style="fill:url(#linearGradient3217);stroke-width:.80362;stroke:#59595b"/>
  <path id="rect2990" d="m1.4897 1.4658-0.97496 11.023c-0.009749 0-0.014749 0.002903-0.014749 0.011114h15c0-0.0082-5e-3 -0.01111-0.01475-0.01111l-1.0054-11.241s-0.18775-0.7434-0.90964-0.7434c-0.68815 0-10.535-0.004447-11.26-0.004447-0.75868 0-0.82051 0.96576-0.82051 0.96576z" style="fill:url(#linearGradient3212);stroke-linecap:round;stroke-linejoin:round;stroke:url(#linearGradient3214)"/>
  <path id="path2215" d="m1.4763 12.5h13.047" style="fill:none;opacity:.8;stroke-linecap:round;stroke-linejoin:round;stroke:#fff"/>
  <rect id="rect4015" x="2" y="13" width="12" height="1.5" rx=".5" ry=".75" style="fill:#fff;opacity:.5"/>
  <rect id="rect6287-2" x="2" y="13" width="12" height="1" rx=".5" ry=".5" style="fill:#282828"/>
  <rect id="rect4067" x="1.1" y="10.5" width="13.8" height="1" rx=".30896" ry=".3" style="fill:#fff;opacity:.5"/>
  <rect id="rect4065" x="1" y="10.5" width="14" height=".5" rx=".3" ry=".3" style="fill:#adadad"/>
 </g>
</svg>
