<?xml version="1.0" encoding="UTF-8"?>
<!-- Created with Inkscape (http://www.inkscape.org/) -->
<svg id="svg4460" width="24" height="24" version="1.1" xmlns="http://www.w3.org/2000/svg" xmlns:cc="http://creativecommons.org/ns#" xmlns:dc="http://purl.org/dc/elements/1.1/" xmlns:rdf="http://www.w3.org/1999/02/22-rdf-syntax-ns#">
 <metadata id="metadata4465">
  <rdf:RDF>
   <cc:Work rdf:about="">
    <dc:format>image/svg+xml</dc:format>
    <dc:type rdf:resource="http://purl.org/dc/dcmitype/StillImage"/>
    <dc:title/>
   </cc:Work>
  </rdf:RDF>
 </metadata>
 <g id="layer1" transform="translate(0 -1028.4)">
  <g id="town-24" transform="translate(-630,-262)">
   <path id="path9470" d="m638 1296.4-3 1.5c-0.51116 0.2556-1 1-1 1.5v8h3v-3h2v3h3v-8c0-0.5-0.50201-1.251-1-1.5l-3-1.5zm9 2-3 1.5c-0.51116 0.2556-1 1-1 1.5v8h3v-3h2v3h3v-8c0-0.5-0.50201-1.251-1-1.5l-3-1.5zm-12 2h2v1h-2v-1zm4 0h2v1h-2v-1zm-4 2h2v1h-2v-1zm4 0h2v1h-2v-1zm5 0h2v1h-2v-1zm4 0h2v1h-2v-1zm-4 2h2v1h-2v-1zm4 0h2v1h-2v-1z" style="color:#000000;fill:#fff;opacity:.3;stroke-linecap:round;stroke-linejoin:round;stroke-width:2;stroke:#fff"/>
   <path id="path9357" d="m638 1296.4-3 1.5c-0.51116 0.2556-1 1-1 1.5v8h3v-3h2v3h3v-8c0-0.5-0.50201-1.251-1-1.5l-3-1.5zm9 2-3 1.5c-0.51116 0.2556-1 1-1 1.5v8h3v-3h2v3h3v-8c0-0.5-0.50201-1.251-1-1.5l-3-1.5zm-12 2h2v1h-2v-1zm4 0h2v1h-2v-1zm-4 2h2v1h-2v-1zm4 0h2v1h-2v-1zm5 0h2v1h-2v-1zm4 0h2v1h-2v-1zm-4 2h2v1h-2v-1zm4 0h2v1h-2v-1z" style="color:#000000;fill:#444"/>
   <rect id="rect7325-2-7-0" x="630" y="1290.4" width="24" height="24" style="color:#000000;fill:none;opacity:.5"/>
  </g>
 </g>
</svg>
