<?xml version="1.0" encoding="UTF-8"?>
<!-- Created with Inkscape (http://www.inkscape.org/) -->
<svg id="svg4460" width="24" height="24" version="1.1" xmlns="http://www.w3.org/2000/svg" xmlns:cc="http://creativecommons.org/ns#" xmlns:dc="http://purl.org/dc/elements/1.1/" xmlns:rdf="http://www.w3.org/1999/02/22-rdf-syntax-ns#">
 <metadata id="metadata4465">
  <rdf:RDF>
   <cc:Work rdf:about="">
    <dc:format>image/svg+xml</dc:format>
    <dc:type rdf:resource="http://purl.org/dc/dcmitype/StillImage"/>
    <dc:title/>
   </cc:Work>
  </rdf:RDF>
 </metadata>
 <g id="layer1" transform="translate(0 -1028.4)">
  <g id="building-24" transform="translate(-630 -46)">
   <path id="path6138" d="m641 1077.4-7.5 6.5c-0.3561 0.3086-0.5 0.5-0.5 0.75 0 0.4959 0.5 0.75 1 0.75h1v8c0 0.554 0.446 1 1 1h6.5 6.5c0.554 0 1-0.446 1-1v-8h1c0.5 0 1-0.2541 1-0.75 0-0.25-0.13799-0.4483-0.5-0.75l-7.5-6.5z" style="color:#000000;fill:#fff;opacity:.3;stroke-linejoin:round;stroke-width:2;stroke:#fff"/>
   <rect id="rect5877" x="630" y="1074.4" width="24" height="24" style="color:#000000;fill:none;opacity:.5"/>
   <path id="path5881" d="m641 1077.4-7.5 6.5c-0.3561 0.3086-0.5 0.5-0.5 0.75 0 0.4959 0.5 0.75 1 0.75h1v8c0 0.554 0.446 1 1 1h6.5 6.5c0.554 0 1-0.446 1-1v-8h1c0.5 0 1-0.2541 1-0.75 0-0.25-0.13799-0.4483-0.5-0.75l-7.5-6.5z" style="color:#000000;fill:#444"/>
  </g>
 </g>
</svg>
