<?xml version="1.0" encoding="UTF-8"?>
<!-- Created with Inkscape (http://www.inkscape.org/) -->
<svg id="svg4460" width="24" height="24" version="1.1" xmlns="http://www.w3.org/2000/svg" xmlns:cc="http://creativecommons.org/ns#" xmlns:dc="http://purl.org/dc/elements/1.1/" xmlns:rdf="http://www.w3.org/1999/02/22-rdf-syntax-ns#">
 <metadata id="metadata4465">
  <rdf:RDF>
   <cc:Work rdf:about="">
    <dc:format>image/svg+xml</dc:format>
    <dc:type rdf:resource="http://purl.org/dc/dcmitype/StillImage"/>
    <dc:title/>
   </cc:Work>
  </rdf:RDF>
 </metadata>
 <g id="layer1" transform="translate(0 -1028.4)">
  <path id="path4598" transform="translate(0 1028.4)" d="m8.9062 1c-0.23256 0.017-0.45803 0.11845-0.625 0.28125l-4 4c-0.18369 0.1898-0.28735 0.45475-0.28125 0.71875v7 3c0 1.0907 0.9093 2 2 2h0.5625l-2.2812 2.2812c-0.57437 0.55535-0.079973 1.7376 0.71875 1.7188h4c0.33576-0.001194 0.66538-0.18429 0.84375-0.46875l2-3c0.10447-0.16669 0.14247-0.34097 0.125-0.53125h1.0625c-0.010024 0.19072 0.018335 0.36822 0.125 0.53125l2 3c0.17837 0.28446 0.50799 0.46756 0.84375 0.46875h4c0.79872 0.018832 1.2931-1.1634 0.71875-1.7188l-2.2812-2.2812h0.5625c1.0907 0 2-0.9093 2-2v-3-7c0.0061-0.264-0.09756-0.52895-0.28125-0.71875l-4-4c-0.18977-0.1837-0.45469-0.28735-0.71875-0.28125h-7-0.09375zm-0.90625 7h9v2h-9v-2z" style="block-progression:tb;color:#000000;fill:#fff;opacity:.3;text-indent:0;text-transform:none"/>
  <path id="rect3226" transform="translate(0 1028.4)" d="m9 2-4 4v7 3c0 0.554 0.446 1 1 1h13c0.554 0 1-0.446 1-1v-3-7l-4-4h-7zm1 2h5v2h-5v-2zm-3 3h11v4h-11v-4zm1 6c0.55228 0 1 0.44772 1 1s-0.44772 1-1 1-1-0.44772-1-1 0.44772-1 1-1zm9 0c0.55228 0 1 0.44772 1 1s-0.44772 1-1 1-1-0.44772-1-1 0.44772-1 1-1z" style="fill:#444"/>
  <path id="path3047" d="m11 1046.4h-3l-3 3h4z" style="fill:#444"/>
  <path id="path3049" d="m14 1046.4h3l3 3h-4z" style="fill:#444"/>
 </g>
</svg>
