<?xml version="1.0" encoding="UTF-8"?>
<!-- Created with Inkscape (http://www.inkscape.org/) -->
<svg id="svg4460" width="24" height="24" version="1.1" xmlns="http://www.w3.org/2000/svg" xmlns:cc="http://creativecommons.org/ns#" xmlns:dc="http://purl.org/dc/elements/1.1/" xmlns:rdf="http://www.w3.org/1999/02/22-rdf-syntax-ns#">
 <metadata id="metadata4465">
  <rdf:RDF>
   <cc:Work rdf:about="">
    <dc:format>image/svg+xml</dc:format>
    <dc:type rdf:resource="http://purl.org/dc/dcmitype/StillImage"/>
    <dc:title/>
   </cc:Work>
  </rdf:RDF>
 </metadata>
 <g id="layer1" transform="translate(0 -1028.4)">
  <path id="path4064" transform="translate(0 1028.4)" d="m12.5 1c-4.0887 0-7.5 3.1008-7.5 7v8c0 1.0907 0.9093 2 2 2h0.5625l-2.2812 2.2812c-0.57437 0.5554-0.079973 1.7376 0.71875 1.7188h4c0.33576 0 0.66538-0.18425 0.84375-0.46875l1.6562-2.4688 1.6562 2.4688c0.17837 0.2845 0.50799 0.46755 0.84375 0.46875h4c0.79872 0.019 1.2931-1.1634 0.71875-1.7188l-2.2812-2.2812h0.5625c1.0907 0 2-0.9093 2-2v-8c0-3.8992-3.4113-7-7.5-7zm-1.5 4.5312v3.4688h-2v-1c0-1.1222 0.8624-1.9672 2-2.4688zm3 0c1.1376 0.5015 2 1.3466 2 2.4688v1h-2v-3.4688z" style="block-progression:tb;color:#000000;fill:#fff;opacity:.3;text-indent:0;text-transform:none"/>
  <path id="rect3109" transform="translate(0 1028.4)" d="m12.5 2c-3.5899 0-6.5 2.6863-6.5 6v8c0 0.554 0.446 1 1 1h11c0.554 0 1-0.446 1-1v-8c0-3.3137-2.9102-6-6.5-6zm-0.5 2.0625v5.9375h-4v-2c0-2.0564 1.7539-3.7132 4-3.9375zm1 0c2.2461 0.22435 4 1.8811 4 3.9375v2h-4v-5.9375zm-4 8.9375c0.55228 0 1 0.44772 1 1s-0.44772 1-1 1-1-0.44772-1-1 0.44772-1 1-1zm7 0c0.55228 0 1 0.44772 1 1s-0.44772 1-1 1-1-0.44772-1-1 0.44772-1 1-1z" style="fill:#444"/>
  <path id="path3067-4" d="m12 1046.4h-3l-3 3h4z" style="fill:#444"/>
  <path id="path3069-8" d="m13 1046.4h3l3 3h-4z" style="fill:#444"/>
 </g>
</svg>
