<?xml version="1.0" encoding="UTF-8"?>
<!-- Created with Inkscape (http://www.inkscape.org/) -->
<svg id="svg4460" width="24" height="24" version="1.1" xmlns="http://www.w3.org/2000/svg" xmlns:cc="http://creativecommons.org/ns#" xmlns:dc="http://purl.org/dc/elements/1.1/" xmlns:rdf="http://www.w3.org/1999/02/22-rdf-syntax-ns#">
 <metadata id="metadata4465">
  <rdf:RDF>
   <cc:Work rdf:about="">
    <dc:format>image/svg+xml</dc:format>
    <dc:type rdf:resource="http://purl.org/dc/dcmitype/StillImage"/>
    <dc:title/>
   </cc:Work>
  </rdf:RDF>
 </metadata>
 <g id="layer1" transform="translate(0 -1028.4)">
  <g id="airport-24" transform="translate(-84,-22)">
   <g id="g6678" transform="translate(84,-2)">
    <g id="g14771">
     <path id="path14304" d="m21 1065.4v1l-7-1v0.031 3.9688l2 2.0002c0 0.5-0.5 1-1 1h-5c-0.5 0-1-0.5-1-1l2-2.0002v-4l-7 1v-1l7-4v-2c0-1 0.5-4 1.5-4s1.5 3 1.5 4v2z" style="color:#000000;fill:none;opacity:.3;stroke-linecap:round;stroke-linejoin:round;stroke-width:2;stroke:#fff"/>
     <path id="path7712" d="m21 1065.9v0.5l-7-1v3.9998l2 2.0002c0 0.5-0.5 1-1 1h-5c-0.5 0-1-0.5-1-1l2-2.0002v-4l-7 1v-0.4998c0-0.5 0.30567-0.6379 0.5-0.75l6.5-3.7502v-2c0-1 0.5-4 1.5-4s1.5 3 1.5 4v2l6.5 3.7502c0.27841 0.1606 0.5 0.2411 0.5 0.75z" style="fill:#444"/>
    </g>
   </g>
   <rect id="rect22075-7" x="84" y="1050.4" width="24" height="24" style="color:#000000;fill:none;opacity:.5"/>
  </g>
 </g>
</svg>
