<?xml version="1.0" encoding="UTF-8"?>
<!-- Created with Inkscape (http://www.inkscape.org/) -->
<svg id="svg4460" width="24" height="24" version="1.1" xmlns="http://www.w3.org/2000/svg" xmlns:cc="http://creativecommons.org/ns#" xmlns:dc="http://purl.org/dc/elements/1.1/" xmlns:rdf="http://www.w3.org/1999/02/22-rdf-syntax-ns#">
 <metadata id="metadata4465">
  <rdf:RDF>
   <cc:Work rdf:about="">
    <dc:format>image/svg+xml</dc:format>
    <dc:type rdf:resource="http://purl.org/dc/dcmitype/StillImage"/>
    <dc:title/>
   </cc:Work>
  </rdf:RDF>
 </metadata>
 <g id="layer1" transform="translate(0 -1028.4)">
  <g id="bar-24" transform="translate(-318 -118)">
   <g id="g16670" transform="translate(-1)">
    <path id="path15624" d="m324 1150.4c-0.5 0-1 6e-4 -1 0.25 0 0.2506 0.34281 0.5479 0.5 0.75l7.5 7.8125v6.1875l-4 1c-0.5 0.1667-1 0.5-1 1h11c0-0.5-0.5-0.8333-1-1l-4-1v-6.1875l7.5-7.8125c0.15719-0.2021 0.5-0.4994 0.5-0.75 0-0.2494-0.5-0.25-1-0.25z" style="color:#000000;fill:none;opacity:.3;stroke-linecap:round;stroke-linejoin:round;stroke-width:2;stroke:#fff"/>
    <path id="path15601-4" d="m324 1150.4c-0.5 0-1 6e-4 -1 0.25 0 0.2506 0.34281 0.5479 0.5 0.75l7.5 7.8125v6.1875l-4 1c-0.5 0.1667-1 0.5-1 1h11c0-0.5-0.5-0.8333-1-1l-4-1v-6.1875l7.5-7.8125c0.15719-0.2021 0.5-0.4994 0.5-0.75 0-0.2494-0.5-0.25-1-0.25z" style="color:#000000;fill:#444"/>
   </g>
   <rect id="rect22415" x="318" y="1146.4" width="24" height="24" style="color:#000000;fill:none;opacity:.5"/>
  </g>
 </g>
</svg>
