<?xml version="1.0" encoding="UTF-8"?>
<!-- Created with Inkscape (http://www.inkscape.org/) -->
<svg id="svg3775" width="128" height="128" version="1.0" xmlns="http://www.w3.org/2000/svg" xmlns:xlink="http://www.w3.org/1999/xlink">
 <defs id="defs3777">
  <radialGradient id="radialGradient2487" cx="605.71" cy="486.65" r="117.14" gradientTransform="matrix(.059038 0 0 .039201 69.07 98.774)" gradientUnits="userSpaceOnUse" xlink:href="#linearGradient5060"/>
  <linearGradient id="linearGradient5060">
   <stop id="stop5062" offset="0"/>
   <stop id="stop5064" style="stop-opacity:0" offset="1"/>
  </linearGradient>
  <radialGradient id="radialGradient2485" cx="605.71" cy="486.65" r="117.14" gradientTransform="matrix(-.059038 0 0 .039201 56.93 98.774)" gradientUnits="userSpaceOnUse" xlink:href="#linearGradient5060"/>
  <linearGradient id="linearGradient2483" x1="302.86" x2="302.86" y1="366.65" y2="609.51" gradientTransform="matrix(.17251 0 0 .039201 .64822 98.774)" gradientUnits="userSpaceOnUse">
   <stop id="stop5050" style="stop-opacity:0" offset="0"/>
   <stop id="stop5056" offset=".5"/>
   <stop id="stop5052" style="stop-opacity:0" offset="1"/>
  </linearGradient>
  <linearGradient id="linearGradient2467" x1="-51.786" x2="-51.786" y1="50.786" y2="2.9062" gradientTransform="matrix(2.1456 0 0 2.3791 158.09 -7.7465)" gradientUnits="userSpaceOnUse">
   <stop id="stop3106" style="stop-color:#aaa" offset="0"/>
   <stop id="stop3108" style="stop-color:#c8c8c8" offset="1"/>
  </linearGradient>
  <linearGradient id="linearGradient2465" x1="25.132" x2="25.132" y1=".98521" y2="47.013" gradientTransform="matrix(2.6571 0 0 2.5422 .22866 -4.9133)" gradientUnits="userSpaceOnUse">
   <stop id="stop3602" style="stop-color:#f4f4f4" offset="0"/>
   <stop id="stop3604" style="stop-color:#dbdbdb" offset="1"/>
  </linearGradient>
  <radialGradient id="radialGradient2462" cx="102" cy="112.3" r="139.56" gradientTransform="matrix(.97872 0 0 -1.0535 1.3617 127.48)" gradientUnits="userSpaceOnUse">
   <stop id="stop41" style="stop-color:#b7b8b9" offset="0"/>
   <stop id="stop47" style="stop-color:#ececec" offset=".18851"/>
   <stop id="stop49" style="stop-color:#fafafa;stop-opacity:0" offset=".25718"/>
   <stop id="stop51" style="stop-color:#fff;stop-opacity:0" offset=".30111"/>
   <stop id="stop53" style="stop-color:#fafafa;stop-opacity:0" offset=".5313"/>
   <stop id="stop55" style="stop-color:#ebecec;stop-opacity:0" offset=".8449"/>
   <stop id="stop57" style="stop-color:#e1e2e3;stop-opacity:0" offset="1"/>
  </radialGradient>
  <linearGradient id="linearGradient2459" x1="24" x2="24" y1="2" y2="46.017" gradientTransform="matrix(2.7576 0 0 2.6744 -2.1817 -4.186)" gradientUnits="userSpaceOnUse">
   <stop id="stop3213" style="stop-color:#fff" offset="0"/>
   <stop id="stop3215" style="stop-color:#fff;stop-opacity:0" offset="1"/>
  </linearGradient>
  <filter id="filter3212" x="-.14846" y="-.16434" width="1.2969" height="1.3287" color-interpolation-filters="sRGB">
   <feGaussianBlur id="feGaussianBlur3214" stdDeviation="0.77391625"/>
  </filter>
  <linearGradient id="linearGradient2455" x1="32.892" x2="36.358" y1="8.059" y2="5.4565" gradientTransform="matrix(2.6605 0 0 2.7752 .74553 -3.5662)" gradientUnits="userSpaceOnUse">
   <stop id="stop8591" style="stop-color:#fefefe" offset="0"/>
   <stop id="stop8593" style="stop-color:#cbcbcb" offset="1"/>
  </linearGradient>
  <radialGradient id="radialGradient2873" cx="62.625" cy="4.625" r="10.625" gradientTransform="matrix(3.0118 0 0 .98823 -127.61 80.929)" gradientUnits="userSpaceOnUse" xlink:href="#linearGradient5060"/>
  <linearGradient id="linearGradient2863" x1="34.463" x2="39.781" y1="24.868" y2="27.549" gradientTransform="matrix(2.9977 0 0 2.9997 -12.296 -14.01)" gradientUnits="userSpaceOnUse" xlink:href="#linearGradient3584"/>
  <radialGradient id="radialGradient3664" cx="118.48" cy="58.119" r="13.983" gradientTransform="matrix(-.69993 .69721 -.44238 -.44411 200.62 8.81)" gradientUnits="userSpaceOnUse">
   <stop id="stop3669" style="stop-color:#fefefe" offset="0"/>
   <stop id="stop3671" style="stop-color:#b4b4b3" offset="1"/>
  </radialGradient>
  <radialGradient id="radialGradient3689" cx="94.239" cy="62.312" r="13.983" gradientTransform="matrix(-.77938 .039639 -.034542 -.67916 180.07 93.727)" gradientUnits="userSpaceOnUse">
   <stop id="stop2813" style="stop-color:#fff" offset="0"/>
   <stop id="stop2815" style="stop-color:#fff;stop-opacity:0" offset="1"/>
  </radialGradient>
  <radialGradient id="radialGradient3687" cx="112.17" cy="51.945" r="13.983" gradientTransform="matrix(-.57065 .047284 -.022968 -.27719 156.88 72.69)" gradientUnits="userSpaceOnUse" xlink:href="#linearGradient5060"/>
  <linearGradient id="linearGradient3584">
   <stop id="stop3586" style="stop-color:#5f5f5f" offset="0"/>
   <stop id="stop3588" style="stop-color:#c6c6c6" offset="1"/>
  </linearGradient>
  <linearGradient id="linearGradient3726" x1="117.3" x2="53.303" y1="55.031" y2="2.3599" gradientTransform="translate(-24.303 35.969)" gradientUnits="userSpaceOnUse" xlink:href="#linearGradient3584"/>
  <radialGradient id="radialGradient3724" cx="-6.4537" cy="29.206" r="32" gradientTransform="matrix(-2.204e-8 1.4094 -1.482 0 88.86 71.157)" gradientUnits="userSpaceOnUse">
   <stop id="stop3491" style="stop-color:#eeeeec" offset="0"/>
   <stop id="stop3497" style="stop-color:#cacac9" offset=".5"/>
   <stop id="stop3493" style="stop-color:#6b6b6b" offset="1"/>
  </radialGradient>
  <filter id="filter3550" x="-.056301" y="-.1126" width="1.1126" height="1.2252" color-interpolation-filters="sRGB">
   <feGaussianBlur id="feGaussianBlur3552" stdDeviation="1.3737999"/>
  </filter>
  <linearGradient id="linearGradient3720" x1="5.6836" x2="35.033" y1="16.366" y2="16.366" gradientTransform="matrix(.96042 0 0 .69464 55.476 38.227)" gradientUnits="userSpaceOnUse" spreadMethod="reflect">
   <stop id="stop3528" style="stop-color:#d1d1d1" offset="0"/>
   <stop id="stop3530" style="stop-color:#959594" offset="1"/>
  </linearGradient>
  <radialGradient id="radialGradient3717" cx="8.4375" cy="32.535" r="26.406" gradientTransform="matrix(1.185 -3.1361e-8 1.4149e-8 .48005 51 41.818)" gradientUnits="userSpaceOnUse">
   <stop id="stop3743" style="stop-color:#8b6a35" offset="0"/>
   <stop id="stop3771" style="stop-color:#885f22" offset=".37136"/>
   <stop id="stop3745" style="stop-color:#754d0d" offset=".68556"/>
   <stop id="stop3747" style="stop-color:#483816" offset="1"/>
  </radialGradient>
  <filter id="filter3615" color-interpolation-filters="sRGB">
   <feGaussianBlur id="feGaussianBlur3617" stdDeviation="0.655"/>
  </filter>
  <linearGradient id="linearGradient3714" x1="87.05" x2="87.05" y1="53.75" y2="41.73" gradientTransform="translate(-24.303 35.969)" gradientUnits="userSpaceOnUse">
   <stop id="stop3597" style="stop-color:#fff" offset="0"/>
   <stop id="stop3599" style="stop-color:#fff;stop-opacity:0" offset="1"/>
  </linearGradient>
  <linearGradient id="linearGradient3711" x1="-1.9371" x2="-1.9371" y1=".98802" y2="31.827" gradientTransform="matrix(.98999 0 0 .7167 55.306 37.866)" gradientUnits="userSpaceOnUse">
   <stop id="stop3668" style="stop-color:#fff" offset="0"/>
   <stop id="stop3670" style="stop-color:#fff;stop-opacity:0" offset="1"/>
  </linearGradient>
 </defs>
 <g id="layer1">
  <g id="g2478" transform="matrix(1.0408 0 0 .63024 -1.5714 43.69)">
   <rect id="rect2879" x="21.35" y="113.15" width="83.3" height="9.5201" style="fill:url(#linearGradient2483);opacity:.3"/>
   <path id="path2881" d="m21.35 113.15v9.5196c-3.0403 0.0179-7.35-2.1329-7.35-4.7604 0-2.6276 3.3928-4.7592 7.35-4.7592z" style="fill:url(#radialGradient2485);opacity:.3"/>
   <path id="path2883" d="m104.65 113.15v9.5196c3.0403 0.0179 7.35-2.1329 7.35-4.7604 0-2.6276-3.3928-4.7592-7.35-4.7592z" style="fill:url(#radialGradient2487);opacity:.3"/>
  </g>
  <path id="path4160" d="m17.5 1.5h63.933c3.7384 1.262 23.822 15.639 29.067 25.594v91.406h-93v-117z" style="fill:url(#linearGradient2465);stroke-linejoin:round;stroke-width:.99992;stroke:url(#linearGradient2467)"/>
  <path id="path4191" d="m18.979 118c-0.53927 0-0.97872-0.47303-0.97872-1.0535v-113.78c0-0.58154 0.43945-1.0535 0.97872-1.0535 20.248 0.2912 42.687-0.4356 62.911 0.072506l27.824 23.902 0.28677 90.858c0 0.58049-0.43846 1.0535-0.97872 1.0535h-90.043z" style="fill:url(#radialGradient2462)"/>
  <path id="path2435" d="m109.5 26.518v90.982h-91v-115h63.056" style="fill:none;opacity:.6;stroke-linejoin:round;stroke-width:.99992;stroke:url(#linearGradient2459)"/>
  <path id="path12038" transform="matrix(2.6667 0 0 2.6667 .30873 -.61745)" d="m28.617 0.92126c4.2825 0 2.1532 8.4832 2.1532 8.4832s10.358-1.8023 10.358 2.8187c0-2.6097-11.302-10.729-12.511-11.302z" style="fill-rule:evenodd;filter:url(#filter3212);opacity:.4"/>
  <path id="path4474" d="m76.621 1.8392c8.4973 0 6.2287 20.432 6.2287 20.432s27.134-2.6161 27.134 9.7068c0-3.0025 0.2291-5.1527-0.35674-6.0896-4.2088-6.7311-22.388-21.836-28.953-23.815-0.49126-0.14815-1.5805-0.23343-4.0528-0.23343z" style="fill-rule:evenodd;fill:url(#linearGradient2455)"/>
  <path id="path2845" d="m93 85.5c0 5.799-14.327 10.5-32 10.5-17.673 0-32-4.701-32-10.5 0-5.799 14.327-10.5 32-10.5 17.673 0 32 4.701 32 10.5z" style="fill-rule:evenodd;fill:url(#radialGradient2873);opacity:.3"/>
  <path id="path4023" d="m86.777 77.408c6.1389-0.5442 18.694-12.178 18.694-17.626 0-0.82805-0.26643-1.6753-0.63587-2.3328-0.46339-0.7829-0.9641-1.302-1.6533-1.8144-3.1551-2.2616-8.8723-1.9095-12.972-1.9095-13.44 2.8045-16.284 25.436-3.4337 23.682zm2.1547-17.545s5.3558 0.01764 7.7345 0.01764c0 5.0747-7.7019 7.4878-7.7019 7.4878l-0.03255-7.5054z" style="fill:url(#radialGradient3664);stroke-width:.99112;stroke:url(#linearGradient2863)"/>
  <path id="path3677" transform="translate(-1.6166 -3.304)" d="m91.906 57.531c-6.4638 1.3488-10.403 7.5141-11.156 13.125-0.37687 2.8054 0.04695 5.4414 1.2812 7.2188 1.2343 1.7773 3.2401 2.7629 6.3125 2.3438 0.01041-3.26e-4 0.02084-3.26e-4 0.03125 0 2.7876-0.24712 7.4834-3.2278 11.344-6.8438 1.9302-1.808 3.6619-3.7697 4.9062-5.5938s1.9688-3.5172 1.9688-4.6875c0-0.71277-0.26114-1.5018-0.59375-2.0938-0.43672-0.73784-0.85223-1.1746-1.5-1.6562-2.8818-2.0657-8.4731-1.8161-12.594-1.8125zm-1.4375 5.125c0.03118-0.0029 0.06257-0.0029 0.09375 0 0 0 5.3444 0.03125 7.7188 0.03125 0.13267-1.93e-4 0.25996 0.05242 0.35377 0.14623 0.09381 0.09381 0.14643 0.2211 0.14623 0.35377 2e-6 2.7894-2.0755 4.7798-4.0625 6.0625s-3.9688 1.9062-3.9688 1.9062c-0.15132 0.05013-0.31748 0.02499-0.4472-0.06767-0.12972-0.092654-0.20739-0.24168-0.20905-0.40108l-0.03125-7.5312c-0.0046-0.24343 0.16704-0.45468 0.40625-0.5z" style="fill:url(#radialGradient3689)"/>
  <path id="path3685" transform="translate(-1.6166 -3.304)" d="m91.906 57.531c-6.4638 1.3488-10.403 7.5141-11.156 13.125-0.37687 2.8054 0.04695 5.4414 1.2812 7.2188 1.2343 1.7773 3.2401 2.7629 6.3125 2.3438 0.01041-3.26e-4 0.02084-3.26e-4 0.03125 0 2.7876-0.24712 7.4834-3.2278 11.344-6.8438 1.9302-1.808 3.6619-3.7697 4.9062-5.5938s1.9688-3.5172 1.9688-4.6875c0-0.71277-0.26114-1.5018-0.59375-2.0938-0.43672-0.73784-0.85223-1.1746-1.5-1.6562-2.8818-2.0657-8.4731-1.8161-12.594-1.8125zm-1.4375 5.125c0.03118-0.0029 0.06257-0.0029 0.09375 0 0 0 5.3444 0.03125 7.7188 0.03125 0.13267-1.93e-4 0.25996 0.05242 0.35377 0.14623 0.09381 0.09381 0.14643 0.2211 0.14623 0.35377 2e-6 2.7894-2.0755 4.7798-4.0625 6.0625s-3.9688 1.9062-3.9688 1.9062c-0.15132 0.05013-0.31748 0.02499-0.4472-0.06767-0.12972-0.092654-0.20739-0.24168-0.20905-0.40108l-0.03125-7.5312c-0.0046-0.24343 0.16704-0.45468 0.40625-0.5z" style="fill:url(#radialGradient3687);opacity:.3"/>
  <path id="path2706" d="m61 37.281c-16.729 0-30.424 4.8117-31.438 10.875h-0.0625v0.71875 6.125 0.46875c0.22548 19.379 14.252 35.031 31.5 35.031 17.248 0 31.275-15.653 31.5-35.031 0.0018-0.15784 0-0.31042 0-0.46875v-6.125-0.71875h-0.0625c-1.0137-6.0633-14.708-10.875-31.438-10.875z" style="fill:url(#radialGradient3724);stroke-linecap:square;stroke-linejoin:round;stroke:url(#linearGradient3726)"/>
  <path id="path3534" transform="matrix(1.0363 0 0 .83595 55.171 36.045)" d="m35.033 16.366c3e-3 8.0869-13.108 14.643-29.281 14.643s-29.284-6.5565-29.281-14.643c-3e-3 -8.0869 13.108-14.643 29.281-14.643s29.284 6.5565 29.281 14.643z" style="fill:#fff;filter:url(#filter3550);opacity:.6"/>
  <path id="path3499" d="m89.123 49.595c0.0029 5.6174-12.589 10.172-28.122 10.172s-28.125-4.5544-28.122-10.172c-0.0029-5.6174 12.589-10.172 28.122-10.172s28.125 4.5544 28.122 10.172z" style="fill:url(#linearGradient3720)"/>
  <path id="path3736" d="m60.998 44c-13.027 0-23.978 2.9801-27.169 7.0145 3.2061 4.0267 14.159 6.9855 27.169 6.9855 13.008 0 23.96-2.9602 27.169-6.9855-3.1925-4.0335-14.144-7.0145-27.169-7.0145z" style="fill:#36290f"/>
  <path id="path3501" d="m60.998 45c-13.027 0-23.978 3.193-27.169 7.5155 3.2061 4.3143 14.159 7.4845 27.169 7.4845 13.008 0 23.96-3.1716 27.169-7.4845-3.1925-4.3216-14.144-7.5155-27.169-7.5155z" style="fill:url(#radialGradient3717)"/>
  <path id="path3590" d="m86.072 73.688c-5.2176 7.1236-14.348 11.844-24.75 11.844-10.381 1e-6 -19.496-4.7124-24.719-11.812 4.0183 9.3841 13.572 16 24.719 16 11.161 0 20.741-6.6275 24.75-16.031z" style="fill:url(#linearGradient3714);filter:url(#filter3615);opacity:.3"/>
  <path id="path3664" d="m89.988 49.595c3e-3 5.7958-12.976 10.495-28.988 10.495-16.012 0-28.991-4.699-28.988-10.495-3e-3 -5.7958 12.976-10.495 28.988-10.495 16.012 0 28.991 4.699 28.988 10.495v0z" style="fill:none;opacity:.4;stroke-linecap:square;stroke-linejoin:round;stroke-width:1.0241;stroke:url(#linearGradient3711)"/>
 </g>
</svg>
