<?xml version="1.0" encoding="UTF-8" standalone="no"?>
<svg
   xmlns:dc="http://purl.org/dc/elements/1.1/"
   xmlns:cc="http://creativecommons.org/ns#"
   xmlns:rdf="http://www.w3.org/1999/02/22-rdf-syntax-ns#"
   xmlns:svg="http://www.w3.org/2000/svg"
   xmlns="http://www.w3.org/2000/svg"
   xmlns:xlink="http://www.w3.org/1999/xlink"
   version="1.1"
   width="64"
   height="64"
   id="svg22774">
  <defs
     id="defs22776">
    <linearGradient
       id="linearGradient4647">
      <stop
         offset="0"
         style="stop-color:#000000;stop-opacity:0.31764707"
         id="stop4649" />
      <stop
         offset="1"
         style="stop-color:#000000;stop-opacity:0.23921569"
         id="stop4651" />
    </linearGradient>
    <linearGradient
       id="linearGradient4583">
      <stop
         offset="0"
         style="stop-color:#ffffff;stop-opacity:1"
         id="stop4585" />
      <stop
         offset="0.23890026"
         style="stop-color:#ffffff;stop-opacity:0.23529412"
         id="stop4587" />
      <stop
         offset="0.97909725"
         style="stop-color:#ffffff;stop-opacity:0.15686275"
         id="stop4589" />
      <stop
         offset="1"
         style="stop-color:#ffffff;stop-opacity:0.39215687"
         id="stop4591" />
    </linearGradient>
    <linearGradient
       x1="97.538795"
       y1="16.962049"
       x2="97.538795"
       y2="44.260689"
       id="linearGradient5962"
       xlink:href="#linearGradient8272-8-8"
       gradientUnits="userSpaceOnUse"
       gradientTransform="matrix(1.3210282,0,0,1.2679796,-70.729885,0.17381034)" />
    <linearGradient
       id="linearGradient8272-8-8">
      <stop
         id="stop8274-4"
         style="stop-color:#ffffff;stop-opacity:1"
         offset="0" />
      <stop
         id="stop8276-5"
         style="stop-color:#ffffff;stop-opacity:0.23529412"
         offset="0.0221225" />
      <stop
         id="stop8278-0"
         style="stop-color:#ffffff;stop-opacity:0.15686275"
         offset="0.97909725" />
      <stop
         id="stop8280-5-9"
         style="stop-color:#ffffff;stop-opacity:0.39215687"
         offset="1" />
    </linearGradient>
    <radialGradient
       cx="605.71429"
       cy="486.64789"
       r="117.14286"
       fx="605.71429"
       fy="486.64789"
       id="radialGradient5950"
       xlink:href="#linearGradient5060-820-8"
       gradientUnits="userSpaceOnUse"
       gradientTransform="matrix(-0.04016195,0,0,0.0329426,30.204677,40.92132)" />
    <linearGradient
       id="linearGradient5060-820-8">
      <stop
         id="stop2681-37"
         style="stop-color:#000000;stop-opacity:1"
         offset="0" />
      <stop
         id="stop2683-05"
         style="stop-color:#000000;stop-opacity:0"
         offset="1" />
    </linearGradient>
    <linearGradient
       x1="302.85715"
       y1="366.64789"
       x2="302.85715"
       y2="609.50507"
       id="linearGradient5946"
       xlink:href="#linearGradient5048-585-1"
       gradientUnits="userSpaceOnUse"
       gradientTransform="matrix(0.1076923,0,0,0.03294117,-6.9224153,40.92219)" />
    <linearGradient
       id="linearGradient5048-585-1">
      <stop
         id="stop2667-0"
         style="stop-color:#000000;stop-opacity:0"
         offset="0" />
      <stop
         id="stop2669-91"
         style="stop-color:#000000;stop-opacity:1"
         offset="0.5" />
      <stop
         id="stop2671-6"
         style="stop-color:#000000;stop-opacity:0"
         offset="1" />
    </linearGradient>
    <radialGradient
       cx="605.71429"
       cy="486.64789"
       r="117.14286"
       fx="605.71429"
       fy="486.64789"
       id="radialGradient5942"
       xlink:href="#linearGradient5060-820-8"
       gradientUnits="userSpaceOnUse"
       gradientTransform="matrix(0.04016195,0,0,0.0329426,33.796647,40.92132)" />
    <linearGradient
       x1="117.7744"
       y1="9.3074646"
       x2="117.7744"
       y2="23.050795"
       id="linearGradient5938"
       xlink:href="#linearGradient4583"
       gradientUnits="userSpaceOnUse"
       gradientTransform="matrix(1.2749674,0,0,1.218292,-129.15852,-0.33920966)" />
    <linearGradient
       id="linearGradient6404-7-5-7">
      <stop
         id="stop6406-1-8-2"
         style="stop-color:#f9f9f9;stop-opacity:1"
         offset="0" />
      <stop
         id="stop6408-9-6-4"
         style="stop-color:#c9c9c9;stop-opacity:1"
         offset="1" />
    </linearGradient>
    <linearGradient
       x1="62.988873"
       y1="14.090554"
       x2="62.988873"
       y2="16.997795"
       id="linearGradient22772"
       xlink:href="#linearGradient6404-7-5-7"
       gradientUnits="userSpaceOnUse"
       gradientTransform="matrix(1.3135526,0,0,1.2900554,-117.48496,-1.2218597)" />
    <linearGradient
       gradientTransform="matrix(1.2553842,0,0,1.3002193,1.871663,-0.65363088)"
       gradientUnits="userSpaceOnUse"
       xlink:href="#radialGradient2444"
       id="linearGradient12481"
       y2="43.761127"
       x2="35.792694"
       y1="17.118193"
       x1="35.792694" />
    <radialGradient
       r="23.097"
       gradientTransform="matrix(1.5647,-9.5143e-8,6.1772e-8,1.0159,-59.14917,8.1461003)"
       cx="63.969002"
       cy="14.113"
       gradientUnits="userSpaceOnUse"
       id="radialGradient2444">
      <stop
         offset="0"
         style="stop-color:#877fad"
         id="stop3618" />
      <stop
         offset="0.6875183"
         style="stop-color:#50537b"
         id="stop3270" />
      <stop
         offset="1"
         style="stop-color:#353c66"
         id="stop3620" />
    </radialGradient>
    <linearGradient
       id="linearGradient3878"
       y2="37.438"
       xlink:href="#linearGradient5060-820-8"
       gradientUnits="userSpaceOnUse"
       x2="17"
       gradientTransform="matrix(-1.0344,0,0,1.0133,71.35,14.322)"
       y1="39"
       x1="22" />
    <linearGradient
       id="linearGradient3102"
       y2="29.513"
       xlink:href="#linearGradient3341"
       gradientUnits="userSpaceOnUse"
       x2="29.25"
       gradientTransform="matrix(0.92505,0,0,0.94002,13.411,15.541)"
       y1="-1.049"
       x1="29.25" />
    <linearGradient
       id="linearGradient3341">
      <stop
         id="stop3343"
         style="stop-color:#fff"
         offset="0" />
      <stop
         id="stop3345"
         style="stop-color:#fff;stop-opacity:0"
         offset="1" />
    </linearGradient>
    <radialGradient
       id="radialGradient3100"
       xlink:href="#linearGradient5060-820-8"
       gradientUnits="userSpaceOnUse"
       cy="33.188"
       cx="30"
       gradientTransform="matrix(1.5174,-6.2641e-7,2.1161e-7,0.40863,-4.3084,30.643)"
       r="4.6875" />
    <linearGradient
       id="linearGradient3098"
       y2="37.438"
       xlink:href="#linearGradient5060-820-8"
       gradientUnits="userSpaceOnUse"
       x2="17"
       gradientTransform="matrix(1.0344,0,0,1.0133,10.859,14.394)"
       y1="39"
       x1="22" />
    <radialGradient
       id="radialGradient3094"
       xlink:href="#linearGradient6954"
       gradientUnits="userSpaceOnUse"
       cy="12.313"
       cx="26.375999"
       gradientTransform="matrix(1.4543,-0.12116,0.11359,1.4484,-1.6987,11.127)"
       r="8" />
    <linearGradient
       id="linearGradient6954">
      <stop
         id="stop6960"
         style="stop-color:#f5f5f5"
         offset="0" />
      <stop
         id="stop6962"
         style="stop-color:#d2d2d2"
         offset="1" />
    </linearGradient>
    <linearGradient
       id="linearGradient3092"
       y2="45.155998"
       xlink:href="#linearGradient3341"
       gradientUnits="userSpaceOnUse"
       x2="29.285999"
       gradientTransform="matrix(1.062,0,0,1.0127,9.5254,14.426)"
       y1="14.969"
       x1="29.285999" />
    <radialGradient
       id="radialGradient3088"
       xlink:href="#linearGradient6954"
       gradientUnits="userSpaceOnUse"
       cy="19.226"
       cx="29.184"
       gradientTransform="matrix(1.2469,-2.1463e-8,0,0.37824,5.4065,34.98)"
       r="16" />
    <radialGradient
       id="radialGradient3016"
       xlink:href="#linearGradient5060-820-8"
       gradientUnits="userSpaceOnUse"
       cy="41.5"
       cx="32"
       gradientTransform="matrix(0.82333,0,0,0.25333,14.201,45.662)"
       r="21" />
    <linearGradient
       xlink:href="#linearGradient4647"
       id="linearGradient4645"
       gradientUnits="userSpaceOnUse"
       gradientTransform="matrix(1.0751259,0,0,1.1308007,77.393701,-1.9367307)"
       x1="-34.476868"
       y1="37.297863"
       x2="-34.476868"
       y2="19.850145" />
    <linearGradient
       xlink:href="#linearGradient4647"
       id="linearGradient4845"
       gradientUnits="userSpaceOnUse"
       gradientTransform="matrix(1.0751259,0,0,1.1308007,77.393701,-1.9367307)"
       x1="-34.476868"
       y1="51.262348"
       x2="-34.476868"
       y2="9.5186977" />
  </defs>
  <metadata
     id="metadata22779">
    <rdf:RDF>
      <cc:Work
         rdf:about="">
        <dc:format>image/svg+xml</dc:format>
        <dc:type
           rdf:resource="http://purl.org/dc/dcmitype/StillImage" />
        <dc:title />
      </cc:Work>
    </rdf:RDF>
  </metadata>
  <path
     id="path2856-0"
     style="fill:none;stroke:url(#linearGradient4845);stroke-width:0.99999994;stroke-linecap:butt;stroke-linejoin:miter;color:#000000;clip-rule:nonzero;display:inline;overflow:visible;visibility:visible;opacity:0.8;isolation:auto;mix-blend-mode:normal;color-interpolation:sRGB;color-interpolation-filters:linearRGB;solid-color:#000000;solid-opacity:1;fill-opacity:1;fill-rule:nonzero;stroke-miterlimit:4;stroke-dasharray:none;stroke-dashoffset:0;stroke-opacity:1;marker:none;filter-blend-mode:normal;filter-gaussianBlur-deviation:0;color-rendering:auto;image-rendering:auto;shape-rendering:auto;text-rendering:auto;enable-background:accumulate"
     d="M 5.1483764,9.51453 C 4.2211846,9.52473 3.5007153,10.17003 3.50067,11.04503 L 3.5,24 l 57,0 6.7e-4,-8.97097 c 6.5e-5,-0.875 -0.644175,-1.54 -1.571868,-1.53 l -27.207642,0 c -2.750017,0 -4.699575,-3.999 -6.716254,-3.999 L 5.1486769,9.51453 Z" />
  <path
     style="color:#000000;clip-rule:nonzero;display:inline;overflow:visible;visibility:visible;opacity:1;isolation:auto;mix-blend-mode:normal;color-interpolation:sRGB;color-interpolation-filters:linearRGB;solid-color:#000000;solid-opacity:1;fill:url(#linearGradient22772);fill-opacity:1;fill-rule:nonzero;stroke:none;stroke-width:1.00000012;stroke-linecap:butt;stroke-linejoin:miter;stroke-miterlimit:4;stroke-dasharray:none;stroke-dashoffset:0;stroke-opacity:1;marker:none;color-rendering:auto;image-rendering:auto;shape-rendering:auto;text-rendering:auto;enable-background:accumulate"
     d="M 25.005859,9.9960938 5.1542969,10.009766 c -0.6999739,0.0077 -1.1581719,0.432313 -1.1582031,1.035156 l 0,12.474609 56.0078122,0.261717 0,-8.751953 c 4.7e-5,-0.632443 -0.379547,-1.040628 -1.068359,-1.033203 l -0.0059,0 -27.208985,0 c -1.61516,0 -2.87564,-1.123361 -3.96875,-2.132813 -0.546555,-0.504726 -1.058136,-0.994299 -1.527344,-1.339843 -0.469207,-0.345547 -0.87832,-0.5273442 -1.21875,-0.5273442 z"
     id="path4502" />
  <rect
     id="rect2874"
     style="color:#000000;clip-rule:nonzero;display:block;overflow:visible;visibility:visible;opacity:1;isolation:auto;mix-blend-mode:normal;color-interpolation:sRGB;color-interpolation-filters:linearRGB;solid-color:#000000;solid-opacity:1;fill:#50537b;fill-opacity:1;fill-rule:nonzero;stroke-width:1;stroke-linecap:butt;stroke-linejoin:miter;stroke-miterlimit:4;stroke-dasharray:none;stroke-dashoffset:0;stroke-opacity:1;color-rendering:auto;image-rendering:auto;shape-rendering:auto;text-rendering:auto;enable-background:accumulate"
     rx="1.0606"
     ry="1.0606"
     height="2.1212001"
     width="19"
     y="11.905029"
     x="5.8642626" />
  <path
     style="color:#000000;clip-rule:nonzero;display:inline;overflow:visible;visibility:visible;opacity:1;isolation:auto;mix-blend-mode:normal;color-interpolation:sRGB;color-interpolation-filters:linearRGB;solid-color:#000000;solid-opacity:1;fill:none;fill-opacity:1;fill-rule:nonzero;stroke:url(#linearGradient5938);stroke-width:0.99999976;stroke-linecap:round;stroke-linejoin:round;stroke-miterlimit:4;stroke-dasharray:none;stroke-dashoffset:0;stroke-opacity:1;marker:none;color-rendering:auto;image-rendering:auto;shape-rendering:auto;text-rendering:auto;enable-background:accumulate"
     id="path4581"
     d="m 25.005859,10.470703 -19.8457028,0.01367 c -0.2551663,0.0028 -0.425455,0.0781 -0.5292968,0.171875 -0.1038419,0.09378 -0.1601469,0.2075 -0.1601563,0.388672 l 0,12.001953 55.0585939,0.257813 0,-8.275391 c 1.6e-5,-0.221251 -0.05885,-0.342404 -0.136719,-0.419922 -0.07787,-0.07752 -0.201448,-0.141364 -0.451172,-0.138672 a 0.47470181,0.47470181 0 0 1 -0.0059,0 l -0.0059,0 -27.208985,0 c -1.835245,0 -3.193239,-1.244051 -4.291015,-2.257812 -0.550491,-0.508361 -1.056844,-0.990351 -1.486329,-1.306641 -0.427135,-0.314563 -0.766054,-0.435547 -0.9375,-0.435547 z" />
  <path
     style="display:inline;overflow:visible;visibility:visible;opacity:0.3;fill:url(#radialGradient5942);fill-opacity:1;fill-rule:nonzero;stroke:none;stroke-width:1;marker:none"
     id="path3411"
     d="m 58.000667,52.99993 c 0,0 0,7.99991 0,7.99991 2.06824,0.0151 5,-1.79238 5,-4.00047 0,-2.2081 -2.308,-3.99944 -5,-3.99944 z" />
  <rect
     style="display:inline;overflow:visible;visibility:visible;opacity:0.3;fill:url(#linearGradient5946);fill-opacity:1;fill-rule:nonzero;stroke:none;stroke-width:1;marker:none"
     id="rect4173-14"
     y="53"
     x="6.000669"
     height="8"
     width="52" />
  <path
     style="display:inline;overflow:visible;visibility:visible;opacity:0.3;fill:url(#radialGradient5950);fill-opacity:1;fill-rule:nonzero;stroke:none;stroke-width:1;marker:none"
     id="path5018-7"
     d="m 6.0006657,52.99993 c 0,0 0,7.99991 0,7.99991 -2.06825,0.0151 -5,-1.79238 -5,-4.00047 0,-2.2081 2.308,-3.99944 5,-3.99944 z" />
  <path
     style="color:#000000;display:inline;overflow:visible;visibility:visible;fill:url(#linearGradient12481);fill-opacity:1;fill-rule:nonzero;stroke:none;stroke-width:1;marker:none;enable-background:accumulate;clip-rule:nonzero;opacity:1;isolation:auto;mix-blend-mode:normal;color-interpolation:sRGB;color-interpolation-filters:linearRGB;solid-color:#000000;solid-opacity:1;stroke-linecap:butt;stroke-linejoin:miter;stroke-miterlimit:4;stroke-dasharray:none;stroke-dashoffset:0;stroke-opacity:1;filter-blend-mode:normal;filter-gaussianBlur-deviation:0;color-rendering:auto;image-rendering:auto;shape-rendering:auto;text-rendering:auto"
     id="path3388-0"
     d="m 2.5042057,20.53211 c -1.44043,0.16346 -0.87122,1.85289 -0.98607,2.8029 0.5271,11.19318 1.25951,21.80885 1.78336,33.0021 0,1.18996 1.19486,1.13653 1.86516,1.13653 0,0 36.7742113,0 54.4905113,0 1.46281,-0.14093 0.85463,-1.86024 1.0604,-2.8442 0.52711,-11.19317 1.25992,-21.56889 1.78376,-32.76214 0.0178,-0.7521 -0.50074,-1.33519 -1.21534,-1.33519 0,0 -39.86255,0 -58.7817813,0 z" />
  <path
     style="color:#000000;display:inline;overflow:visible;visibility:visible;opacity:0.5;fill:none;stroke:url(#linearGradient5962);stroke-width:0.99999988;stroke-linecap:round;stroke-linejoin:round;stroke-miterlimit:4;stroke-dasharray:none;stroke-dashoffset:0;stroke-opacity:1;marker:none;enable-background:accumulate"
     id="path3290"
     d="M 61.069097,21.5 3.9511557,21.5313 c -1.70924,0 -1.43419,0.0338 -1.43419,1.07579 l 1.62114,32.91358 c 0.0163,0.94321 -0.0656,0.9793 1.0726,0.9793 0,0 36.7779513,0 54.4396613,0 0.53983,-11.58225 1.25805,-22.68226 1.81479,-34.32182 0.0519,-0.55489 0.0134,-0.67818 -0.39606,-0.67818 z" />
  <path
     style="color:#000000;display:inline;overflow:visible;visibility:visible;opacity:0.3;fill:none;stroke:#000000;stroke-width:1;stroke-linecap:round;stroke-linejoin:round;stroke-miterlimit:4;stroke-dasharray:none;stroke-dashoffset:0;stroke-opacity:1;marker:none;enable-background:accumulate;clip-rule:nonzero;isolation:auto;mix-blend-mode:normal;color-interpolation:sRGB;color-interpolation-filters:linearRGB;solid-color:#000000;solid-opacity:1;fill-opacity:1;fill-rule:nonzero;filter-blend-mode:normal;filter-gaussianBlur-deviation:0;color-rendering:auto;image-rendering:auto;shape-rendering:auto;text-rendering:auto"
     id="path3388-0-1"
     d="m 2.5042057,20.53211 c -1.44043,0.16346 -0.87122,1.85289 -0.98607,2.8029 0.5271,11.19318 1.25951,21.80885 1.78336,33.0021 0,1.18996 1.19486,1.13653 1.86516,1.13653 0,0 36.7742113,0 54.4905113,0 1.46281,-0.14093 0.85463,-1.86024 1.0604,-2.8442 0.52711,-11.19317 1.25992,-21.56889 1.78376,-32.76214 0.0178,-0.7521 -0.50074,-1.33519 -1.21534,-1.33519 0,0 -39.86255,0 -58.7817813,0 z" />
  <path
     id="path3823-4"
     style="opacity:0.7;fill:url(#radialGradient3016)"
     d="m 57.838,56.175 c 0,2.938 -7.741,5.32 -17.29,5.32 -9.549,0 -17.29,-2.382 -17.29,-5.32 0,-2.938 7.741,-5.32 17.29,-5.32 9.549,0 17.29,2.382 17.29,5.32 z" />
  <path
     id="path3766-9"
     style="fill:url(#radialGradient3088);stroke:none;color:#000000;clip-rule:nonzero;display:inline;overflow:visible;visibility:visible;opacity:1;isolation:auto;mix-blend-mode:normal;color-interpolation:sRGB;color-interpolation-filters:linearRGB;solid-color:#000000;solid-opacity:1;fill-opacity:1;fill-rule:nonzero;stroke-width:1;stroke-linecap:butt;stroke-linejoin:miter;stroke-miterlimit:4;stroke-dasharray:none;stroke-dashoffset:0;stroke-opacity:1;filter-blend-mode:normal;filter-gaussianBlur-deviation:0;color-rendering:auto;image-rendering:auto;shape-rendering:auto;text-rendering:auto;enable-background:accumulate"
     d="m 36.632,35.18 c 0.476,2.206 0.742,3.874 0.355,6.08 -3.01,2.447 -10.711,3.547 -10.7,6.08 l -1.034,7.6 c 0,2.518 7.179,4.56 16.034,4.56 8.855,0 16.034,-2.042 16.034,-4.56 l -1.035,-7.6 C 56.274,45.172 48.528,43.793 45.554,41.26 45.3,39.213 45.502,37.227 45.942,35.18 l -9.31,0 z" />
  <path
     id="path3766-9-1"
     style="color:#000000;clip-rule:nonzero;display:inline;overflow:visible;visibility:visible;opacity:0.8;isolation:auto;mix-blend-mode:normal;color-interpolation:sRGB;color-interpolation-filters:linearRGB;solid-color:#000000;solid-opacity:1;fill:none;fill-opacity:1;fill-rule:nonzero;stroke:url(#linearGradient4645);stroke-width:0.99999994;stroke-linecap:butt;stroke-linejoin:miter;stroke-miterlimit:4;stroke-dasharray:none;stroke-dashoffset:0;stroke-opacity:1;color-rendering:auto;image-rendering:auto;shape-rendering:auto;text-rendering:auto;enable-background:accumulate;marker:none;filter-blend-mode:normal;filter-gaussianBlur-deviation:0"
     d="m 36.632,35.18 c 0.476,2.206 0.742,3.874 0.355,6.08 -3.01,2.447 -10.711,3.547 -10.7,6.08 l -1.034,7.6 c 0,2.518 7.179,4.56 16.034,4.56 8.855,0 16.034,-2.042 16.034,-4.56 l -1.035,-7.6 C 56.274,45.172 48.528,43.793 45.554,41.26 45.3,39.213 45.502,37.227 45.942,35.18 l -9.31,0 z" />
  <path
     id="path4244"
     style="opacity:0.4;fill:none;stroke:url(#linearGradient3092)"
     d="m 38.153,36.481 c 0.276,1.613 0.455,3.165 0.128,4.984 -0.053,0.31 -0.22,0.591 -0.47,0.79 -1.9,1.503 -4.691,2.323 -6.998,3.198 -1.153,0.438 -2.19,0.892 -2.816,1.288 -0.627,0.395 -0.683,0.603 -0.683,0.581 0.004,0.056 0.004,0.111 0,0.166 l -1.067,7.436 c 0,0.013 0.078,0.281 0.726,0.706 0.648,0.424 1.752,0.897 3.157,1.287 2.81,0.781 6.823,1.288 11.266,1.288 4.442,0 8.455,-0.507 11.265,-1.288 1.405,-0.39 2.509,-0.863 3.157,-1.287 0.648,-0.425 0.726,-0.693 0.726,-0.706 l -1.067,-7.436 c -0.002,-0.041 -0.002,-0.083 0,-0.124 0.01,0.03 0.009,0.099 -0.043,0.041 -0.087,-0.096 -0.31,-0.303 -0.64,-0.498 -0.659,-0.39 -1.685,-0.83 -2.859,-1.288 -2.348,-0.916 -5.168,-1.812 -7.041,-3.364 -0.258,-0.21 -0.426,-0.506 -0.469,-0.831 -0.216,-1.699 0.077,-3.327 0.341,-4.943 l -6.613,0 z" />
  <path
     id="path3764-4"
     style="fill:url(#radialGradient3094);stroke:none"
     d="m 41.213,20.93 c -3.673,0 -6.65,2.864 -6.65,6.397 0.029,1.308 0.137,2.861 0.887,6.397 0.443,1.371 4.397,5.292 4.433,5.749 0.86,0.457 2.217,0.457 3.103,0 0,-0.457 3.547,-4.378 3.99,-5.749 0.844,-3.675 0.842,-5.026 0.887,-6.397 0,-3.533 -2.977,-6.397 -6.65,-6.397 z" />
  <path
     id="path3848-2"
     style="opacity:0.4;fill:url(#linearGradient3098)"
     d="m 32.583,58.17 c -2.444,-2.009 -1.279,-6.468 -1.035,-9.323 -1.034,2.027 -1.034,8.107 -3.103,8.107 1.41,0.465 2.844,0.979 4.138,1.216 z" />
  <path
     id="path3833-8"
     style="opacity:0.2;fill:url(#radialGradient3100)"
     d="m 36.558,41.545 c 0.682,1.547 2.501,2.66 4.655,2.66 2.154,0 3.973,-1.113 4.655,-2.66 l -9.31,0 z" />
  <path
     id="path4234"
     style="opacity:0.4;fill:none;stroke:url(#linearGradient3102);stroke-width:1.01419997"
     d="m 41.162,22.036 c -3.126,0 -5.569,2.335 -5.593,5.216 l 0,0.043 c 0.029,1.281 0.13,2.784 0.867,6.241 0.021,0.033 0.249,0.469 0.651,0.984 0.421,0.541 0.975,1.183 1.517,1.795 0.542,0.613 1.098,1.224 1.518,1.71 0.194,0.226 0.332,0.408 0.477,0.599 0.413,0.122 1.098,0.123 1.561,0 0.118,-0.174 0.238,-0.356 0.39,-0.556 0.374,-0.491 0.858,-1.096 1.344,-1.71 0.487,-0.614 0.959,-1.251 1.344,-1.796 0.357,-0.503 0.603,-0.881 0.651,-0.983 0.005,-0.024 -0.006,-0.018 0,-0.043 0.84,-3.626 0.82,-4.816 0.867,-6.241 l 0,-0.043 c -0.024,-2.881 -2.467,-5.216 -5.594,-5.216 z" />
  <path
     id="path3876"
     style="opacity:0.4;fill:url(#linearGradient3878)"
     d="m 49.627,58.098 c 2.444,-2.009 1.279,-6.468 1.035,-9.323 1.034,2.027 1.034,8.107 3.103,8.107 -1.41,0.464 -2.844,0.978 -4.138,1.216 z" />
  <path
     id="path3764-4-2"
     style="fill:none;stroke:url(#linearGradient4645);color:#000000;clip-rule:nonzero;display:inline;overflow:visible;visibility:visible;opacity:0.8;isolation:auto;mix-blend-mode:normal;color-interpolation:sRGB;color-interpolation-filters:linearRGB;solid-color:#000000;solid-opacity:1;fill-opacity:1;fill-rule:nonzero;stroke-width:0.99999994;stroke-linecap:butt;stroke-linejoin:miter;stroke-miterlimit:4;stroke-dasharray:none;stroke-dashoffset:0;stroke-opacity:1;filter-blend-mode:normal;filter-gaussianBlur-deviation:0;color-rendering:auto;image-rendering:auto;shape-rendering:auto;text-rendering:auto;enable-background:accumulate;marker:none"
     d="m 41.213,20.93 c -3.673,0 -6.65,2.864 -6.65,6.397 0.029,1.308 0.137,2.861 0.887,6.397 0.443,1.371 4.397,5.292 4.433,5.749 0.86,0.457 2.217,0.457 3.103,0 0,-0.457 3.547,-4.378 3.99,-5.749 0.844,-3.675 0.842,-5.026 0.887,-6.397 0,-3.533 -2.977,-6.397 -6.65,-6.397 z" />
</svg>
