<?xml version="1.0" encoding="UTF-8" standalone="no"?>
<svg
   xmlns:dc="http://purl.org/dc/elements/1.1/"
   xmlns:cc="http://creativecommons.org/ns#"
   xmlns:rdf="http://www.w3.org/1999/02/22-rdf-syntax-ns#"
   xmlns:svg="http://www.w3.org/2000/svg"
   xmlns="http://www.w3.org/2000/svg"
   xmlns:xlink="http://www.w3.org/1999/xlink"
   version="1.1"
   width="64"
   height="64"
   id="svg22774">
  <defs
     id="defs22776">
    <linearGradient
       id="linearGradient4647">
      <stop
         offset="0"
         style="stop-color:#000000;stop-opacity:0.31764707"
         id="stop4649" />
      <stop
         offset="1"
         style="stop-color:#000000;stop-opacity:0.23921569"
         id="stop4651" />
    </linearGradient>
    <linearGradient
       id="linearGradient4583">
      <stop
         offset="0"
         style="stop-color:#ffffff;stop-opacity:1"
         id="stop4585" />
      <stop
         offset="0.23890026"
         style="stop-color:#ffffff;stop-opacity:0.23529412"
         id="stop4587" />
      <stop
         offset="0.97909725"
         style="stop-color:#ffffff;stop-opacity:0.15686275"
         id="stop4589" />
      <stop
         offset="1"
         style="stop-color:#ffffff;stop-opacity:0.39215687"
         id="stop4591" />
    </linearGradient>
    <linearGradient
       x1="97.538795"
       y1="16.962049"
       x2="97.538795"
       y2="44.260689"
       id="linearGradient5962"
       xlink:href="#linearGradient8272-8-8"
       gradientUnits="userSpaceOnUse"
       gradientTransform="matrix(1.3210282,0,0,1.2679796,-70.729885,0.17381034)" />
    <linearGradient
       id="linearGradient8272-8-8">
      <stop
         id="stop8274-4"
         style="stop-color:#ffffff;stop-opacity:1"
         offset="0" />
      <stop
         id="stop8276-5"
         style="stop-color:#ffffff;stop-opacity:0.23529412"
         offset="0.0221225" />
      <stop
         id="stop8278-0"
         style="stop-color:#ffffff;stop-opacity:0.15686275"
         offset="0.97909725" />
      <stop
         id="stop8280-5-9"
         style="stop-color:#ffffff;stop-opacity:0.39215687"
         offset="1" />
    </linearGradient>
    <radialGradient
       cx="605.71429"
       cy="486.64789"
       r="117.14286"
       fx="605.71429"
       fy="486.64789"
       id="radialGradient5950"
       xlink:href="#linearGradient5060-820-8"
       gradientUnits="userSpaceOnUse"
       gradientTransform="matrix(-0.04016195,0,0,0.0329426,30.204677,40.92132)" />
    <linearGradient
       id="linearGradient5060-820-8">
      <stop
         id="stop2681-37"
         style="stop-color:#000000;stop-opacity:1"
         offset="0" />
      <stop
         id="stop2683-05"
         style="stop-color:#000000;stop-opacity:0"
         offset="1" />
    </linearGradient>
    <linearGradient
       x1="302.85715"
       y1="366.64789"
       x2="302.85715"
       y2="609.50507"
       id="linearGradient5946"
       xlink:href="#linearGradient5048-585-1"
       gradientUnits="userSpaceOnUse"
       gradientTransform="matrix(0.1076923,0,0,0.03294117,-6.9224153,40.92219)" />
    <linearGradient
       id="linearGradient5048-585-1">
      <stop
         id="stop2667-0"
         style="stop-color:#000000;stop-opacity:0"
         offset="0" />
      <stop
         id="stop2669-91"
         style="stop-color:#000000;stop-opacity:1"
         offset="0.5" />
      <stop
         id="stop2671-6"
         style="stop-color:#000000;stop-opacity:0"
         offset="1" />
    </linearGradient>
    <radialGradient
       cx="605.71429"
       cy="486.64789"
       r="117.14286"
       fx="605.71429"
       fy="486.64789"
       id="radialGradient5942"
       xlink:href="#linearGradient5060-820-8"
       gradientUnits="userSpaceOnUse"
       gradientTransform="matrix(0.04016195,0,0,0.0329426,33.796647,40.92132)" />
    <linearGradient
       x1="117.7744"
       y1="9.3074646"
       x2="117.7744"
       y2="23.050795"
       id="linearGradient5938"
       xlink:href="#linearGradient4583"
       gradientUnits="userSpaceOnUse"
       gradientTransform="matrix(1.2749674,0,0,1.218292,-129.15852,-0.33920966)" />
    <linearGradient
       id="linearGradient6404-7-5-7">
      <stop
         id="stop6406-1-8-2"
         style="stop-color:#f9f9f9;stop-opacity:1"
         offset="0" />
      <stop
         id="stop6408-9-6-4"
         style="stop-color:#c9c9c9;stop-opacity:1"
         offset="1" />
    </linearGradient>
    <linearGradient
       x1="62.988873"
       y1="14.090554"
       x2="62.988873"
       y2="16.997795"
       id="linearGradient22772"
       xlink:href="#linearGradient6404-7-5-7"
       gradientUnits="userSpaceOnUse"
       gradientTransform="matrix(1.3135526,0,0,1.2900554,-117.48496,-1.2218597)" />
    <linearGradient
       gradientTransform="matrix(1.2553842,0,0,1.3002193,1.871663,-0.65363088)"
       gradientUnits="userSpaceOnUse"
       xlink:href="#radialGradient2444"
       id="linearGradient12481"
       y2="43.761127"
       x2="35.792694"
       y1="17.118193"
       x1="35.792694" />
    <radialGradient
       r="23.097"
       gradientTransform="matrix(1.5647,-9.5143e-8,6.1772e-8,1.0159,-59.14917,8.1461003)"
       cx="63.969002"
       cy="14.113"
       gradientUnits="userSpaceOnUse"
       id="radialGradient2444">
      <stop
         offset="0"
         style="stop-color:#729fcf"
         id="stop3618" />
      <stop
         offset="0.6875183"
         style="stop-color:#3465a4"
         id="stop3270" />
      <stop
         offset="1"
         style="stop-color:#204a87"
         id="stop3620" />
    </radialGradient>
    <linearGradient
       xlink:href="#linearGradient4647"
       id="linearGradient4845"
       gradientUnits="userSpaceOnUse"
       gradientTransform="matrix(1.0751259,0,0,1.1308007,77.393701,-1.9367307)"
       x1="-34.476868"
       y1="51.262348"
       x2="-34.476868"
       y2="9.5186977" />
    <linearGradient
       id="linearGradient3769"
       y2="11.817"
       gradientUnits="userSpaceOnUse"
       x2="22.104"
       gradientTransform="matrix(1.0196,0,0,1.8409681,43.802225,-28.544415)"
       y1="43.199001"
       x1="22.104">
      <stop
         id="stop4340"
         style="stop-color:#8e8e8e"
         offset="0" />
      <stop
         id="stop4342"
         style="stop-color:#b5b5b5"
         offset="1" />
    </linearGradient>
    <linearGradient
       y2="2.9062471"
       x2="-51.786404"
       y1="53.172558"
       x1="-51.786404"
       gradientTransform="matrix(0.64599792,0,0,0.73204074,71.828404,20.710094)"
       gradientUnits="userSpaceOnUse"
       id="linearGradient3148-6"
       xlink:href="#linearGradient4647" />
    <linearGradient
       gradientTransform="matrix(0.70270291,0,0,0.91891887,26.635136,19.445955)"
       gradientUnits="userSpaceOnUse"
       xlink:href="#linearGradient3977-9"
       id="linearGradient3013-2"
       y2="41.955875"
       x2="23.99999"
       y1="6.0441079"
       x1="23.99999" />
    <linearGradient
       id="linearGradient3977-9">
      <stop
         offset="0"
         style="stop-color:#ffffff;stop-opacity:1"
         id="stop3979-1" />
      <stop
         offset="0.00000001"
         style="stop-color:#ffffff;stop-opacity:0.23529412"
         id="stop3981-2" />
      <stop
         offset="0.99999994"
         style="stop-color:#ffffff;stop-opacity:0.15686275"
         id="stop3983-7" />
      <stop
         offset="1"
         style="stop-color:#ffffff;stop-opacity:0.39215687"
         id="stop3985-0" />
    </linearGradient>
    <linearGradient
       gradientTransform="matrix(0.77142676,0,0,0.76049251,24.98575,22.08154)"
       gradientUnits="userSpaceOnUse"
       xlink:href="#linearGradient3600"
       id="linearGradient3016-9"
       y2="47.013336"
       x2="25.132275"
       y1="0.98520643"
       x1="25.132275" />
    <linearGradient
       id="linearGradient3600">
      <stop
         offset="0"
         style="stop-color:#f4f4f4;stop-opacity:1"
         id="stop3602" />
      <stop
         offset="1"
         style="stop-color:#dbdbdb;stop-opacity:1"
         id="stop3604" />
    </linearGradient>
    <radialGradient
       gradientTransform="matrix(0.01606478,0,0,0.00823529,47.318389,55.980565)"
       gradientUnits="userSpaceOnUse"
       xlink:href="#linearGradient4647"
       id="radialGradient3021-3"
       fy="486.64789"
       fx="605.71429"
       r="117.14286"
       cy="486.64789"
       cx="605.71429" />
    <radialGradient
       gradientTransform="matrix(-0.0160648,0,0,0.00823529,39.681621,55.980565)"
       gradientUnits="userSpaceOnUse"
       xlink:href="#linearGradient4647"
       id="radialGradient3024-6"
       fy="486.64789"
       fx="605.71429"
       r="117.14286"
       cy="486.64789"
       cx="605.71429" />
    <linearGradient
       gradientTransform="matrix(0.05591717,0,0,0.00823529,23.289928,55.980548)"
       gradientUnits="userSpaceOnUse"
       xlink:href="#linearGradient5048-585-1"
       id="linearGradient3027-0"
       y2="609.50507"
       x2="302.85715"
       y1="366.64789"
       x1="302.85715" />
  </defs>
  <metadata
     id="metadata22779">
    <rdf:RDF>
      <cc:Work
         rdf:about="">
        <dc:format>image/svg+xml</dc:format>
        <dc:type
           rdf:resource="http://purl.org/dc/dcmitype/StillImage" />
        <dc:title />
      </cc:Work>
    </rdf:RDF>
  </metadata>
  <path
     id="path2856-0"
     style="fill:none;stroke:url(#linearGradient4845);stroke-width:0.99999994;stroke-linecap:butt;stroke-linejoin:miter;color:#000000;clip-rule:nonzero;display:inline;overflow:visible;visibility:visible;opacity:0.8;isolation:auto;mix-blend-mode:normal;color-interpolation:sRGB;color-interpolation-filters:linearRGB;solid-color:#000000;solid-opacity:1;fill-opacity:1;fill-rule:nonzero;stroke-miterlimit:4;stroke-dasharray:none;stroke-dashoffset:0;stroke-opacity:1;marker:none;filter-blend-mode:normal;filter-gaussianBlur-deviation:0;color-rendering:auto;image-rendering:auto;shape-rendering:auto;text-rendering:auto;enable-background:accumulate"
     d="M 5.1483764,9.51453 C 4.2211846,9.52473 3.5007153,10.17003 3.50067,11.04503 L 3.5,24 l 57,0 6.7e-4,-8.97097 c 6.5e-5,-0.875 -0.644175,-1.54 -1.571868,-1.53 l -27.207642,0 c -2.750017,0 -4.699575,-3.999 -6.716254,-3.999 L 5.1486769,9.51453 Z" />
  <path
     style="color:#000000;clip-rule:nonzero;display:inline;overflow:visible;visibility:visible;opacity:1;isolation:auto;mix-blend-mode:normal;color-interpolation:sRGB;color-interpolation-filters:linearRGB;solid-color:#000000;solid-opacity:1;fill:url(#linearGradient22772);fill-opacity:1;fill-rule:nonzero;stroke:none;stroke-width:1.00000012;stroke-linecap:butt;stroke-linejoin:miter;stroke-miterlimit:4;stroke-dasharray:none;stroke-dashoffset:0;stroke-opacity:1;marker:none;color-rendering:auto;image-rendering:auto;shape-rendering:auto;text-rendering:auto;enable-background:accumulate"
     d="M 25.005859,9.9960938 5.1542969,10.009766 c -0.6999739,0.0077 -1.1581719,0.432313 -1.1582031,1.035156 l 0,12.474609 56.0078122,0.261717 0,-8.751953 c 4.7e-5,-0.632443 -0.379547,-1.040628 -1.068359,-1.033203 l -0.0059,0 -27.208985,0 c -1.61516,0 -2.87564,-1.123361 -3.96875,-2.132813 -0.546555,-0.504726 -1.058136,-0.994299 -1.527344,-1.339843 -0.469207,-0.345547 -0.87832,-0.5273442 -1.21875,-0.5273442 z"
     id="path4502" />
  <rect
     id="rect2874"
     style="color:#000000;clip-rule:nonzero;display:block;overflow:visible;visibility:visible;opacity:1;isolation:auto;mix-blend-mode:normal;color-interpolation:sRGB;color-interpolation-filters:linearRGB;solid-color:#000000;solid-opacity:1;fill:#3465a4;fill-opacity:1;fill-rule:nonzero;stroke-width:1;stroke-linecap:butt;stroke-linejoin:miter;stroke-miterlimit:4;stroke-dasharray:none;stroke-dashoffset:0;stroke-opacity:1;color-rendering:auto;image-rendering:auto;shape-rendering:auto;text-rendering:auto;enable-background:accumulate"
     rx="1.0606"
     ry="1.0606"
     height="2.1212001"
     width="19"
     y="11.905029"
     x="5.8642626" />
  <path
     style="color:#000000;clip-rule:nonzero;display:inline;overflow:visible;visibility:visible;opacity:1;isolation:auto;mix-blend-mode:normal;color-interpolation:sRGB;color-interpolation-filters:linearRGB;solid-color:#000000;solid-opacity:1;fill:none;fill-opacity:1;fill-rule:nonzero;stroke:url(#linearGradient5938);stroke-width:0.99999976;stroke-linecap:round;stroke-linejoin:round;stroke-miterlimit:4;stroke-dasharray:none;stroke-dashoffset:0;stroke-opacity:1;marker:none;color-rendering:auto;image-rendering:auto;shape-rendering:auto;text-rendering:auto;enable-background:accumulate"
     id="path4581"
     d="m 25.005859,10.470703 -19.8457028,0.01367 c -0.2551663,0.0028 -0.425455,0.0781 -0.5292968,0.171875 -0.1038419,0.09378 -0.1601469,0.2075 -0.1601563,0.388672 l 0,12.001953 55.0585939,0.257813 0,-8.275391 c 1.6e-5,-0.221251 -0.05885,-0.342404 -0.136719,-0.419922 -0.07787,-0.07752 -0.201448,-0.141364 -0.451172,-0.138672 a 0.47470181,0.47470181 0 0 1 -0.0059,0 l -0.0059,0 -27.208985,0 c -1.835245,0 -3.193239,-1.244051 -4.291015,-2.257812 -0.550491,-0.508361 -1.056844,-0.990351 -1.486329,-1.306641 -0.427135,-0.314563 -0.766054,-0.435547 -0.9375,-0.435547 z" />
  <path
     style="display:inline;overflow:visible;visibility:visible;opacity:0.3;fill:url(#radialGradient5942);fill-opacity:1;fill-rule:nonzero;stroke:none;stroke-width:1;marker:none"
     id="path3411"
     d="m 58.000667,52.99993 c 0,0 0,7.99991 0,7.99991 2.06824,0.0151 5,-1.79238 5,-4.00047 0,-2.2081 -2.308,-3.99944 -5,-3.99944 z" />
  <rect
     style="display:inline;overflow:visible;visibility:visible;opacity:0.3;fill:url(#linearGradient5946);fill-opacity:1;fill-rule:nonzero;stroke:none;stroke-width:1;marker:none"
     id="rect4173-14"
     y="53"
     x="6.000669"
     height="8"
     width="52" />
  <path
     style="display:inline;overflow:visible;visibility:visible;opacity:0.3;fill:url(#radialGradient5950);fill-opacity:1;fill-rule:nonzero;stroke:none;stroke-width:1;marker:none"
     id="path5018-7"
     d="m 6.0006657,52.99993 c 0,0 0,7.99991 0,7.99991 -2.06825,0.0151 -5,-1.79238 -5,-4.00047 0,-2.2081 2.308,-3.99944 5,-3.99944 z" />
  <path
     style="color:#000000;display:inline;overflow:visible;visibility:visible;fill:url(#linearGradient12481);fill-opacity:1;fill-rule:nonzero;stroke:none;stroke-width:1;marker:none;enable-background:accumulate;clip-rule:nonzero;opacity:1;isolation:auto;mix-blend-mode:normal;color-interpolation:sRGB;color-interpolation-filters:linearRGB;solid-color:#000000;solid-opacity:1;stroke-linecap:butt;stroke-linejoin:miter;stroke-miterlimit:4;stroke-dasharray:none;stroke-dashoffset:0;stroke-opacity:1;filter-blend-mode:normal;filter-gaussianBlur-deviation:0;color-rendering:auto;image-rendering:auto;shape-rendering:auto;text-rendering:auto"
     id="path3388-0"
     d="m 2.5042057,20.53211 c -1.44043,0.16346 -0.87122,1.85289 -0.98607,2.8029 0.5271,11.19318 1.25951,21.80885 1.78336,33.0021 0,1.18996 1.19486,1.13653 1.86516,1.13653 0,0 36.7742113,0 54.4905113,0 1.46281,-0.14093 0.85463,-1.86024 1.0604,-2.8442 0.52711,-11.19317 1.25992,-21.56889 1.78376,-32.76214 0.0178,-0.7521 -0.50074,-1.33519 -1.21534,-1.33519 0,0 -39.86255,0 -58.7817813,0 z" />
  <path
     style="color:#000000;display:inline;overflow:visible;visibility:visible;opacity:0.5;fill:none;stroke:url(#linearGradient5962);stroke-width:0.99999988;stroke-linecap:round;stroke-linejoin:round;stroke-miterlimit:4;stroke-dasharray:none;stroke-dashoffset:0;stroke-opacity:1;marker:none;enable-background:accumulate"
     id="path3290"
     d="M 61.069097,21.5 3.9511557,21.5313 c -1.70924,0 -1.43419,0.0338 -1.43419,1.07579 l 1.62114,32.91358 c 0.0163,0.94321 -0.0656,0.9793 1.0726,0.9793 0,0 36.7779513,0 54.4396613,0 0.53983,-11.58225 1.25805,-22.68226 1.81479,-34.32182 0.0519,-0.55489 0.0134,-0.67818 -0.39606,-0.67818 z" />
  <path
     style="color:#000000;display:inline;overflow:visible;visibility:visible;opacity:0.3;fill:none;stroke:#000000;stroke-width:1;stroke-linecap:round;stroke-linejoin:round;stroke-miterlimit:4;stroke-dasharray:none;stroke-dashoffset:0;stroke-opacity:1;marker:none;enable-background:accumulate;clip-rule:nonzero;isolation:auto;mix-blend-mode:normal;color-interpolation:sRGB;color-interpolation-filters:linearRGB;solid-color:#000000;solid-opacity:1;fill-opacity:1;fill-rule:nonzero;filter-blend-mode:normal;filter-gaussianBlur-deviation:0;color-rendering:auto;image-rendering:auto;shape-rendering:auto;text-rendering:auto"
     id="path3388-0-1"
     d="m 2.5042057,20.53211 c -1.44043,0.16346 -0.87122,1.85289 -0.98607,2.8029 0.5271,11.19318 1.25951,21.80885 1.78336,33.0021 0,1.18996 1.19486,1.13653 1.86516,1.13653 0,0 36.7742113,0 54.4905113,0 1.46281,-0.14093 0.85463,-1.86024 1.0604,-2.8442 0.52711,-11.19317 1.25992,-21.56889 1.78376,-32.76214 0.0178,-0.7521 -0.50074,-1.33519 -1.21534,-1.33519 0,0 -39.86255,0 -58.7817813,0 z" />
  <rect
     width="27"
     height="2"
     x="30"
     y="59"
     id="rect2879"
     style="display:inline;overflow:visible;visibility:visible;opacity:0.15;fill:url(#linearGradient3027-0);fill-opacity:1;fill-rule:nonzero;stroke:none;stroke-width:1;marker:none" />
  <path
     d="m 30,59.000086 c 0,0 0,1.99989 0,1.99989 -0.827292,0.0038 -2,-0.448074 -2,-1.000074 0,-0.552 0.9232,-0.999816 2,-0.999816 z"
     id="path2881"
     style="display:inline;overflow:visible;visibility:visible;opacity:0.15;fill:url(#radialGradient3024-6);fill-opacity:1;fill-rule:nonzero;stroke:none;stroke-width:1;marker:none" />
  <path
     d="m 57,59.000086 c 0,0 0,1.99989 0,1.99989 0.827291,0.0038 2,-0.448074 2,-1.000074 0,-0.552 -0.923201,-0.999816 -2,-0.999816 z"
     id="path2883"
     style="display:inline;overflow:visible;visibility:visible;opacity:0.15;fill:url(#radialGradient3021-3);fill-opacity:1;fill-rule:nonzero;stroke:none;stroke-width:1;marker:none" />
  <path
     d="m 30,24.000029 c 6.187064,0 26.99996,0.0022 26.99996,0.0022 L 57,59 c 0,0 -18.000004,0 -27,0 0,-11.666668 0,-23.333333 0,-35 z"
     id="path4160-3"
     style="display:inline;fill:url(#linearGradient3016-9);fill-opacity:1;stroke:none" />
  <path
     d="m 56.500001,58.499998 -26,0 0,-33.999999 26,0 z"
     id="rect6741-1"
     style="fill:none;stroke:url(#linearGradient3013-2);stroke-width:1;stroke-linecap:round;stroke-linejoin:miter;stroke-miterlimit:4;stroke-dasharray:none;stroke-dashoffset:0;stroke-opacity:1" />
  <path
     style="display:inline;fill:none;stroke:url(#linearGradient3148-6);stroke-width:0.9999218;stroke-linecap:butt;stroke-linejoin:round;stroke-miterlimit:4;stroke-dasharray:none;stroke-dashoffset:0;stroke-opacity:1"
     id="path4160-6-1"
     d="m 29.500172,23.555159 c 6.416238,0 28.000052,0.0025 28.000052,0.0025 l 3e-5,35.997595 c 0,0 -18.66672,0 -28.000082,0 0,-12.000048 0,-23.999975 0,-35.999884 z" />
  <g
     transform="matrix(0.85708,0,0,0.79811,-14.437,20.821)"
     id="g3288">
    <path
       d="m 59.610225,41.573916 1.76,0 0,1.251008 -1.76,0 0,-1.251008 z m 7.484,0 1.93,0 0,1.251008 -1.93,0 0,-1.251008 z m 2.28,0 0.776,0 0,1.251008 -0.776,0 0,-1.251008 z m 1.126,0 1.964,0 0,1.251008 -1.964,0 0,-1.251008 z m -5.991,0 2.235,0 0,1.251008 -2.235,0 0,-1.251008 z m -2.789,0 2.439,0 0,1.251008 -2.439,0 0,-1.251008 z m -6.256,0 3.796,0 0,1.251008 -3.796,0 0,-1.251008 z m 21.102,-2.497023 1.898,0 0,1.251008 -1.898,0 0,-1.251008 z m -3.883,0 3.563,0 0,1.251008 -3.563,0 0,-1.251008 z m -0.892,0 0.573,0 0,1.251008 -0.573,0 0,-1.251008 z m -3.066,0 2.747,0 0,1.251008 -2.747,0 0,-1.251008 z m -2.218,0 1.898,0 0,1.251008 -1.898,0 0,-1.251008 z m -2.217,0 1.898,0 0,1.251008 -1.898,0 0,-1.251008 z m -3.101,0 2.782,0 0,1.251008 -2.782,0 0,-1.251008 z m -1.537,0 1.218,0 0,1.251008 -1.218,0 0,-1.251008 z m -4.188,0 3.868,0 0,1.251008 -3.868,0 0,-1.251008 z m 20.467,-2.497023 0.533,0 0,1.251007 -0.533,0 0,-1.251007 z m -2.554,0 2.28,0 0,1.251007 -2.28,0 0,-1.251007 z m -3.865,0 3.389,0 0,1.251007 -3.389,0 0,-1.251007 z m -2.891,0 2.583,0 0,1.251007 -2.583,0 0,-1.251007 z m -2.117,0 1.608,0 0,1.251007 -1.608,0 0,-1.251007 z m -1.882,0 1.608,0 0,1.251007 -1.608,0 0,-1.251007 z m -1.042,0 0.835,0 0,1.251007 -0.835,0 0,-1.251007 z m -2.151,0 1.776,0 0,1.251007 -1.776,0 0,-1.251007 z m -3.965,0 3.691,0 0,1.251007 -3.691,0 0,-1.251007 z m 2.056,-17.595977 5.944,0 0,1.251007 -5.944,0 0,-1.251007 z m -2.056,0 1.633,0 0,1.251007 -1.633,0 0,-1.251007 z m 11.575,-4.995045 2.287,0 0,1.251007 -2.287,0 0,-1.251007 z m 8.341,0 5.084,0 0,1.251007 -5.084,0 0,-1.251007 z m -3.454,0 3.129,0 0,1.251007 -3.129,0 0,-1.251007 z m -2.275,0 1.95,0 0,1.251007 -1.95,0 0,-1.251007 z m -5.392,0 2.455,0 0,1.251007 -2.455,0 0,-1.251007 z m -5.409,0 5.084,0 0,1.251007 -5.084,0 0,-1.251007 z m -3.386,0 3.061,0 0,1.251007 -3.061,0 0,-1.251007 z m 22.166,2.622823 1.834,0 0,1.251007 -1.834,0 0,-1.251007 z m -1.012,0 0.676,0 0,1.251007 -0.676,0 0,-1.251007 z m -4.781,0 2.957,0 0,1.251007 -2.957,0 0,-1.251007 z m 3.293,0 1.152,0 0,1.251007 -1.152,0 0,-1.251007 z m -7.948,0 4.319,0 0,1.251007 -4.319,0 0,-1.251007 z m -2.17,0 1.834,0 0,1.251007 -1.834,0 0,-1.251007 z m -4.927,0 4.591,0 0,1.251007 -4.591,0 0,-1.251007 z m -4.621,0 4.285,0 0,1.251007 -4.285,0 0,-1.251007 z m 20.35,-4.995045 0.533,0 0,1.251007 -0.533,0 0,-1.251007 z m -2.617,0 2.28,0 0,1.251007 -2.28,0 0,-1.251007 z m -3.726,0 3.389,0 0,1.251007 -3.389,0 0,-1.251007 z m -2.92,0 2.583,0 0,1.251007 -2.583,0 0,-1.251007 z m -1.945,0 1.608,0 0,1.251007 -1.608,0 0,-1.251007 z m -1.945,0 1.608,0 0,1.251007 -1.608,0 0,-1.251007 z m -1.172,0 0.835,0 0,1.251007 -0.835,0 0,-1.251007 z m -2.113,0 1.776,0 0,1.251007 -1.776,0 0,-1.251007 z m -4.029,0 3.692,0 0,1.251007 -3.692,0 0,-1.251007 z m 21.72,-2.6216252 2.28,0 0,1.2508082 -2.28,0 0,-1.2508082 z m -1.473,0 1.154,0 0,1.2508082 -1.154,0 0,-1.2508082 z m -4.089,0 3.769,0 0,1.2508082 -3.769,0 0,-1.2508082 z m -5.281,0 4.961,0 0,1.2508082 -4.961,0 0,-1.2508082 z m -2.235,0 1.915,0 0,1.2508082 -1.915,0 0,-1.2508082 z m -1.176,0 0.856,0 0,1.2508082 -0.856,0 0,-1.2508082 z m -2.268,0 1.949,0 0,1.2508082 -1.949,0 0,-1.2508082 z m -2.533,0 2.214,0 0,1.2508082 -2.214,0 0,-1.2508082 z m -2.665,0 2.346,0 0,1.2508082 -2.346,0 0,-1.2508082 z m 22.283,18.8469852 1.834,0 0,1.251007 -1.834,0 0,-1.251007 z m -1.012,0 0.676,0 0,1.251007 -0.676,0 0,-1.251007 z m -4.781,0 2.957,0 0,1.251007 -2.957,0 0,-1.251007 z m 3.293,0 1.152,0 0,1.251007 -1.152,0 0,-1.251007 z m -7.948,0 4.319,0 0,1.251007 -4.319,0 0,-1.251007 z m -2.17,0 1.834,0 0,1.251007 -1.834,0 0,-1.251007 z m -4.927,0 4.591,0 0,1.251007 -4.591,0 0,-1.251007 z m -4.621,0 4.285,0 0,1.251007 -4.285,0 0,-1.251007 z m 20.319,-2.497024 1.681,0 0,1.251008 -1.681,0 0,-1.251008 z m -0.928,0 0.62,0 0,1.251008 -0.62,0 0,-1.251008 z m -4.383,0 2.711,0 0,1.251008 -2.711,0 0,-1.251008 z m 3.019,0 1.056,0 0,1.251008 -1.056,0 0,-1.251008 z m -7.286,0 3.959,0 0,1.251008 -3.959,0 0,-1.251008 z m -1.989,0 1.681,0 0,1.251008 -1.681,0 0,-1.251008 z m -4.516,0 4.208,0 0,1.251008 -4.208,0 0,-1.251008 z m -4.236,0 3.928,0 0,1.251008 -3.928,0 0,-1.251008 z m 20.467,4.994047 0.533,0 0,1.251008 -0.533,0 0,-1.251008 z m -2.554,0 2.28,0 0,1.251008 -2.28,0 0,-1.251008 z m -3.865,0 3.389,0 0,1.251008 -3.389,0 0,-1.251008 z m -2.891,0 2.583,0 0,1.251008 -2.583,0 0,-1.251008 z m -2.117,0 1.608,0 0,1.251008 -1.608,0 0,-1.251008 z m -1.882,0 1.608,0 0,1.251008 -1.608,0 0,-1.251008 z m -1.042,0 0.835,0 0,1.251008 -0.835,0 0,-1.251008 z m -2.151,0 1.776,0 0,1.251008 -1.776,0 0,-1.251008 z m -3.965,0 3.691,0 0,1.251008 -3.691,0 0,-1.251008 z"
       style="opacity:0.7;fill:url(#linearGradient3769)"
       id="path3248" />
  </g>
</svg>
