<?xml version="1.0" encoding="UTF-8" standalone="no"?>
<svg
   xmlns:dc="http://purl.org/dc/elements/1.1/"
   xmlns:cc="http://creativecommons.org/ns#"
   xmlns:rdf="http://www.w3.org/1999/02/22-rdf-syntax-ns#"
   xmlns:svg="http://www.w3.org/2000/svg"
   xmlns="http://www.w3.org/2000/svg"
   xmlns:xlink="http://www.w3.org/1999/xlink"
   id="svg22774"
   height="64"
   width="64"
   version="1.1">
  <defs
     id="defs22776">
    <linearGradient
       id="linearGradient4583">
      <stop
         id="stop4585"
         style="stop-color:#ffffff;stop-opacity:1"
         offset="0" />
      <stop
         id="stop4587"
         style="stop-color:#ffffff;stop-opacity:0.23529412"
         offset="0.23890026" />
      <stop
         id="stop4589"
         style="stop-color:#ffffff;stop-opacity:0.15686275"
         offset="0.97909725" />
      <stop
         id="stop4591"
         style="stop-color:#ffffff;stop-opacity:0.39215687"
         offset="1" />
    </linearGradient>
    <linearGradient
       gradientTransform="matrix(1.3210282,0,0,1.2679796,-70.729885,0.17381034)"
       gradientUnits="userSpaceOnUse"
       xlink:href="#linearGradient8272-8-8"
       id="linearGradient5962"
       y2="44.260689"
       x2="97.538795"
       y1="16.962049"
       x1="97.538795" />
    <linearGradient
       id="linearGradient8272-8-8">
      <stop
         offset="0"
         style="stop-color:#ffffff;stop-opacity:1"
         id="stop8274-4" />
      <stop
         offset="0.0221225"
         style="stop-color:#ffffff;stop-opacity:0.23529412"
         id="stop8276-5" />
      <stop
         offset="0.97909725"
         style="stop-color:#ffffff;stop-opacity:0.15686275"
         id="stop8278-0" />
      <stop
         offset="1"
         style="stop-color:#ffffff;stop-opacity:0.39215687"
         id="stop8280-5-9" />
    </linearGradient>
    <radialGradient
       gradientTransform="matrix(-0.04016195,0,0,0.0329426,30.204677,40.92132)"
       gradientUnits="userSpaceOnUse"
       xlink:href="#linearGradient5060-820-8"
       id="radialGradient5950"
       fy="486.64789"
       fx="605.71429"
       r="117.14286"
       cy="486.64789"
       cx="605.71429" />
    <linearGradient
       id="linearGradient5060-820-8">
      <stop
         offset="0"
         style="stop-color:#000000;stop-opacity:1"
         id="stop2681-37" />
      <stop
         offset="1"
         style="stop-color:#000000;stop-opacity:0"
         id="stop2683-05" />
    </linearGradient>
    <linearGradient
       gradientTransform="matrix(0.1076923,0,0,0.03294117,-6.9224153,40.92219)"
       gradientUnits="userSpaceOnUse"
       xlink:href="#linearGradient5048-585-1"
       id="linearGradient5946"
       y2="609.50507"
       x2="302.85715"
       y1="366.64789"
       x1="302.85715" />
    <linearGradient
       id="linearGradient5048-585-1">
      <stop
         offset="0"
         style="stop-color:#000000;stop-opacity:0"
         id="stop2667-0" />
      <stop
         offset="0.5"
         style="stop-color:#000000;stop-opacity:1"
         id="stop2669-91" />
      <stop
         offset="1"
         style="stop-color:#000000;stop-opacity:0"
         id="stop2671-6" />
    </linearGradient>
    <radialGradient
       gradientTransform="matrix(0.04016195,0,0,0.0329426,33.796647,40.92132)"
       gradientUnits="userSpaceOnUse"
       xlink:href="#linearGradient5060-820-8"
       id="radialGradient5942"
       fy="486.64789"
       fx="605.71429"
       r="117.14286"
       cy="486.64789"
       cx="605.71429" />
    <linearGradient
       gradientTransform="matrix(1.2749674,0,0,1.218292,-129.15852,-0.33920966)"
       gradientUnits="userSpaceOnUse"
       xlink:href="#linearGradient4583"
       id="linearGradient5938"
       y2="23.050795"
       x2="117.7744"
       y1="9.3074646"
       x1="117.7744" />
    <linearGradient
       id="linearGradient6404-7-5-7">
      <stop
         offset="0"
         style="stop-color:#f9f9f9;stop-opacity:1"
         id="stop6406-1-8-2" />
      <stop
         offset="1"
         style="stop-color:#c9c9c9;stop-opacity:1"
         id="stop6408-9-6-4" />
    </linearGradient>
    <linearGradient
       gradientTransform="matrix(1.3135526,0,0,1.2900554,-117.48496,-1.2218597)"
       gradientUnits="userSpaceOnUse"
       xlink:href="#linearGradient6404-7-5-7"
       id="linearGradient22772"
       y2="16.997795"
       x2="62.988873"
       y1="14.090554"
       x1="62.988873" />
    <linearGradient
       x1="35.792694"
       y1="17.118193"
       x2="35.792694"
       y2="43.761127"
       id="linearGradient12481"
       xlink:href="#radialGradient2444"
       gradientUnits="userSpaceOnUse"
       gradientTransform="matrix(1.2553842,0,0,1.3002193,1.871663,-0.65363088)" />
    <radialGradient
       id="radialGradient2444"
       gradientUnits="userSpaceOnUse"
       cy="14.113"
       cx="63.969002"
       gradientTransform="matrix(1.5647,-9.5143e-8,6.1772e-8,1.0159,-59.14917,8.1461003)"
       r="23.097">
      <stop
         id="stop3618"
         style="stop-color:#ADC980"
         offset="0" />
      <stop
         id="stop3270"
         style="stop-color:#87A752"
         offset="0.6875183" />
      <stop
         id="stop3620"
         style="stop-color:#688933"
         offset="1" />
    </radialGradient>
    <radialGradient
       id="radialGradient2904-1"
       gradientUnits="userSpaceOnUse"
       cy="5.0172"
       cx="3"
       gradientTransform="matrix(-1.7124244e-8,2.28,-2.9004921,-1.9417e-8,16.689334,2.1948297)"
       r="21">
      <stop
         id="stop3486-2"
         style="stop-color:#bdbdbd"
         offset="0" />
      <stop
         id="stop3488-7"
         style="stop-color:#d0d0d0"
         offset="1" />
    </radialGradient>
  </defs>
  <metadata
     id="metadata22779">
    <rdf:RDF>
      <cc:Work
         rdf:about="">
        <dc:format>image/svg+xml</dc:format>
        <dc:type
           rdf:resource="http://purl.org/dc/dcmitype/StillImage" />
        <dc:title />
      </cc:Work>
    </rdf:RDF>
  </metadata>
  <path
     d="M 5.1483764,9.51453 C 4.2211846,9.52473 3.5007153,10.17003 3.50067,11.04503 L 3.5,24 l 57,0 6.7e-4,-8.97097 c 6.5e-5,-0.875 -0.644175,-1.54 -1.571868,-1.53 l -27.207642,0 c -2.750017,0 -4.699575,-3.999 -6.716254,-3.999 L 5.1486769,9.51453 Z"
     style="fill:none;stroke:url(#radialGradient2904-1);stroke-width:1;stroke-linecap:round;stroke-linejoin:round"
     id="path2856-0" />
  <path
     id="path4502"
     d="M 25.005859,9.9960938 5.1542969,10.009766 c -0.6999739,0.0077 -1.1581719,0.432313 -1.1582031,1.035156 l 0,12.474609 56.0078122,0.261717 0,-8.751953 c 4.7e-5,-0.632443 -0.379547,-1.040628 -1.068359,-1.033203 l -0.0059,0 -27.208985,0 c -1.61516,0 -2.87564,-1.123361 -3.96875,-2.132813 -0.546555,-0.504726 -1.058136,-0.994299 -1.527344,-1.339843 -0.469207,-0.345547 -0.87832,-0.5273442 -1.21875,-0.5273442 z"
     style="color:#000000;clip-rule:nonzero;display:inline;overflow:visible;visibility:visible;opacity:1;isolation:auto;mix-blend-mode:normal;color-interpolation:sRGB;color-interpolation-filters:linearRGB;solid-color:#000000;solid-opacity:1;fill:url(#linearGradient22772);fill-opacity:1;fill-rule:nonzero;stroke:none;stroke-width:1.00000012;stroke-linecap:butt;stroke-linejoin:miter;stroke-miterlimit:4;stroke-dasharray:none;stroke-dashoffset:0;stroke-opacity:1;marker:none;color-rendering:auto;image-rendering:auto;shape-rendering:auto;text-rendering:auto;enable-background:accumulate" />
  <rect
     x="5.8642626"
     y="11.905029"
     width="19"
     height="2.1212001"
     ry="1.0606"
     rx="1.0606"
     style="color:#000000;clip-rule:nonzero;display:block;overflow:visible;visibility:visible;opacity:1;isolation:auto;mix-blend-mode:normal;color-interpolation:sRGB;color-interpolation-filters:linearRGB;solid-color:#000000;solid-opacity:1;fill:#87a752;fill-opacity:1;fill-rule:nonzero;stroke-width:1;stroke-linecap:butt;stroke-linejoin:miter;stroke-miterlimit:4;stroke-dasharray:none;stroke-dashoffset:0;stroke-opacity:1;color-rendering:auto;image-rendering:auto;shape-rendering:auto;text-rendering:auto;enable-background:accumulate"
     id="rect2874" />
  <path
     d="m 25.005859,10.470703 -19.8457028,0.01367 c -0.2551663,0.0028 -0.425455,0.0781 -0.5292968,0.171875 -0.1038419,0.09378 -0.1601469,0.2075 -0.1601563,0.388672 l 0,12.001953 55.0585939,0.257813 0,-8.275391 c 1.6e-5,-0.221251 -0.05885,-0.342404 -0.136719,-0.419922 -0.07787,-0.07752 -0.201448,-0.141364 -0.451172,-0.138672 a 0.47470181,0.47470181 0 0 1 -0.0059,0 l -0.0059,0 -27.208985,0 c -1.835245,0 -3.193239,-1.244051 -4.291015,-2.257812 -0.550491,-0.508361 -1.056844,-0.990351 -1.486329,-1.306641 -0.427135,-0.314563 -0.766054,-0.435547 -0.9375,-0.435547 z"
     id="path4581"
     style="color:#000000;clip-rule:nonzero;display:inline;overflow:visible;visibility:visible;opacity:1;isolation:auto;mix-blend-mode:normal;color-interpolation:sRGB;color-interpolation-filters:linearRGB;solid-color:#000000;solid-opacity:1;fill:none;fill-opacity:1;fill-rule:nonzero;stroke:url(#linearGradient5938);stroke-width:0.99999976;stroke-linecap:round;stroke-linejoin:round;stroke-miterlimit:4;stroke-dasharray:none;stroke-dashoffset:0;stroke-opacity:1;marker:none;color-rendering:auto;image-rendering:auto;shape-rendering:auto;text-rendering:auto;enable-background:accumulate" />
  <path
     d="m 58.000667,52.99993 c 0,0 0,7.99991 0,7.99991 2.06824,0.0151 5,-1.79238 5,-4.00047 0,-2.2081 -2.308,-3.99944 -5,-3.99944 z"
     id="path3411"
     style="display:inline;overflow:visible;visibility:visible;opacity:0.3;fill:url(#radialGradient5942);fill-opacity:1;fill-rule:nonzero;stroke:none;stroke-width:1;marker:none" />
  <rect
     width="52"
     height="8"
     x="6.000669"
     y="53"
     id="rect4173-14"
     style="display:inline;overflow:visible;visibility:visible;opacity:0.3;fill:url(#linearGradient5946);fill-opacity:1;fill-rule:nonzero;stroke:none;stroke-width:1;marker:none" />
  <path
     d="m 6.0006657,52.99993 c 0,0 0,7.99991 0,7.99991 -2.06825,0.0151 -5,-1.79238 -5,-4.00047 0,-2.2081 2.308,-3.99944 5,-3.99944 z"
     id="path5018-7"
     style="display:inline;overflow:visible;visibility:visible;opacity:0.3;fill:url(#radialGradient5950);fill-opacity:1;fill-rule:nonzero;stroke:none;stroke-width:1;marker:none" />
  <path
     d="m 2.5042057,20.53211 c -1.44043,0.16346 -0.87122,1.85289 -0.98607,2.8029 0.5271,11.19318 1.25951,21.80885 1.78336,33.0021 0,1.18996 1.19486,1.13653 1.86516,1.13653 0,0 36.7742113,0 54.4905113,0 1.46281,-0.14093 0.85463,-1.86024 1.0604,-2.8442 0.52711,-11.19317 1.25992,-21.56889 1.78376,-32.76214 0.0178,-0.7521 -0.50074,-1.33519 -1.21534,-1.33519 0,0 -39.86255,0 -58.7817813,0 z"
     id="path3388-0"
     style="color:#000000;display:inline;overflow:visible;visibility:visible;fill:url(#linearGradient12481);fill-opacity:1;fill-rule:nonzero;stroke:none;stroke-width:1;marker:none;enable-background:accumulate;clip-rule:nonzero;opacity:1;isolation:auto;mix-blend-mode:normal;color-interpolation:sRGB;color-interpolation-filters:linearRGB;solid-color:#000000;solid-opacity:1;stroke-linecap:butt;stroke-linejoin:miter;stroke-miterlimit:4;stroke-dasharray:none;stroke-dashoffset:0;stroke-opacity:1;filter-blend-mode:normal;filter-gaussianBlur-deviation:0;color-rendering:auto;image-rendering:auto;shape-rendering:auto;text-rendering:auto" />
  <path
     d="M 61.069097,21.5 3.9511557,21.5313 c -1.70924,0 -1.43419,0.0338 -1.43419,1.07579 l 1.62114,32.91358 c 0.0163,0.94321 -0.0656,0.9793 1.0726,0.9793 0,0 36.7779513,0 54.4396613,0 0.53983,-11.58225 1.25805,-22.68226 1.81479,-34.32182 0.0519,-0.55489 0.0134,-0.67818 -0.39606,-0.67818 z"
     id="path3290"
     style="color:#000000;display:inline;overflow:visible;visibility:visible;opacity:0.5;fill:none;stroke:url(#linearGradient5962);stroke-width:0.99999988;stroke-linecap:round;stroke-linejoin:round;stroke-miterlimit:4;stroke-dasharray:none;stroke-dashoffset:0;stroke-opacity:1;marker:none;enable-background:accumulate" />
  <path
     d="m 2.5042057,20.53211 c -1.44043,0.16346 -0.87122,1.85289 -0.98607,2.8029 0.5271,11.19318 1.25951,21.80885 1.78336,33.0021 0,1.18996 1.19486,1.13653 1.86516,1.13653 0,0 36.7742113,0 54.4905113,0 1.46281,-0.14093 0.85463,-1.86024 1.0604,-2.8442 0.52711,-11.19317 1.25992,-21.56889 1.78376,-32.76214 0.0178,-0.7521 -0.50074,-1.33519 -1.21534,-1.33519 0,0 -39.86255,0 -58.7817813,0 z"
     id="path3388-0-1"
     style="color:#000000;display:inline;overflow:visible;visibility:visible;opacity:0.3;fill:none;stroke:#000000;stroke-width:1;stroke-linecap:round;stroke-linejoin:round;stroke-miterlimit:4;stroke-dasharray:none;stroke-dashoffset:0;stroke-opacity:1;marker:none;enable-background:accumulate;clip-rule:nonzero;isolation:auto;mix-blend-mode:normal;color-interpolation:sRGB;color-interpolation-filters:linearRGB;solid-color:#000000;solid-opacity:1;fill-opacity:1;fill-rule:nonzero;filter-blend-mode:normal;filter-gaussianBlur-deviation:0;color-rendering:auto;image-rendering:auto;shape-rendering:auto;text-rendering:auto" />
  <g
     style="color:#000000;display:inline;overflow:visible;visibility:visible;opacity:0.3;fill:#ffffff;fill-opacity:1;fill-rule:nonzero;stroke:none;stroke-width:3.18764749;marker:none;enable-background:accumulate;clip-rule:nonzero;isolation:auto;mix-blend-mode:normal;color-interpolation:sRGB;color-interpolation-filters:linearRGB;solid-color:#000000;solid-opacity:1;stroke-linecap:butt;stroke-linejoin:miter;stroke-miterlimit:4;stroke-dasharray:none;stroke-dashoffset:0;stroke-opacity:1;filter-blend-mode:normal;filter-gaussianBlur-deviation:0;color-rendering:auto;image-rendering:auto;shape-rendering:auto;text-rendering:auto"
     id="g3294-2-5-26-1"
     transform="matrix(0.49108617,0,0,0.57916137,-5.7665157,25.977471)">
    <path
       style="color:#000000;display:inline;overflow:visible;visibility:visible;fill:#ffffff;fill-opacity:1;fill-rule:nonzero;stroke:none;stroke-width:3.18764749;marker:none;enable-background:accumulate;clip-rule:nonzero;isolation:auto;mix-blend-mode:normal;color-interpolation:sRGB;color-interpolation-filters:linearRGB;solid-color:#000000;solid-opacity:1;stroke-linecap:butt;stroke-linejoin:miter;stroke-miterlimit:4;stroke-dasharray:none;stroke-dashoffset:0;stroke-opacity:1;filter-blend-mode:normal;filter-gaussianBlur-deviation:0;color-rendering:auto;image-rendering:auto;shape-rendering:auto;text-rendering:auto"
       id="path2504-1-2-2-5"
       d="m 77.5703,6.9454345 c -11.317079,0 -20.630635,6.3193555 -21.648617,15.5397085 l -5.489571,0 8.107675,8.633172 8.107674,-8.633172 -5.29251,0 c 1.001307,-6.722239 7.890308,-11.035445 16.215349,-11.035445 9.013029,0 16.327956,6.104178 16.327956,13.625397 -3e-6,7.521219 -7.314924,13.625398 -16.327956,13.625398 -4.889999,0 -9.280846,-1.799942 -12.274118,-4.645022 L 61.3268,37.124 c 3.98185,3.735752 9.784188,6.080755 16.2435,6.080756 11.996656,0 21.733071,-8.122088 21.733072,-18.129661 0,-10.007573 -9.736418,-18.1296605 -21.733072,-18.1296605 z" />
    <path
       style="color:#000000;display:inline;overflow:visible;visibility:visible;fill:#ffffff;fill-opacity:1;fill-rule:nonzero;stroke:none;stroke-width:3.18764749;marker:none;enable-background:accumulate;clip-rule:nonzero;isolation:auto;mix-blend-mode:normal;color-interpolation:sRGB;color-interpolation-filters:linearRGB;solid-color:#000000;solid-opacity:1;stroke-linecap:butt;stroke-linejoin:miter;stroke-miterlimit:4;stroke-dasharray:none;stroke-dashoffset:0;stroke-opacity:1;filter-blend-mode:normal;filter-gaussianBlur-deviation:0;color-rendering:auto;image-rendering:auto;shape-rendering:auto;text-rendering:auto"
       id="path3288-4-0-74-3"
       d="m 78.940345,13.851971 -2.036302,0 -2.036301,12.086441 10.18151,6.906538 2e-6,-1.726635 -6.108907,-6.906537 -2e-6,-10.359807 z" />
  </g>
  <g
     style="color:#000000;display:inline;overflow:visible;visibility:visible;fill:#3b550e;fill-opacity:1;fill-rule:nonzero;stroke:none;stroke-width:3.18764749;marker:none;enable-background:accumulate;clip-rule:nonzero;opacity:0.7;isolation:auto;mix-blend-mode:normal;color-interpolation:sRGB;color-interpolation-filters:linearRGB;solid-color:#000000;solid-opacity:1;stroke-linecap:butt;stroke-linejoin:miter;stroke-miterlimit:4;stroke-dasharray:none;stroke-dashoffset:0;stroke-opacity:1;filter-blend-mode:normal;filter-gaussianBlur-deviation:0;color-rendering:auto;image-rendering:auto;shape-rendering:auto;text-rendering:auto"
     id="g3294-2-5-26"
     transform="matrix(0.49108617,0,0,0.57916137,-5.7665157,24.977471)">
    <path
       style="color:#000000;display:inline;overflow:visible;visibility:visible;fill:#3b550e;fill-opacity:1;fill-rule:nonzero;stroke:none;stroke-width:3.18764749;marker:none;enable-background:accumulate;clip-rule:nonzero;isolation:auto;mix-blend-mode:normal;color-interpolation:sRGB;color-interpolation-filters:linearRGB;solid-color:#000000;solid-opacity:1;stroke-linecap:butt;stroke-linejoin:miter;stroke-miterlimit:4;stroke-dasharray:none;stroke-dashoffset:0;stroke-opacity:1;filter-blend-mode:normal;filter-gaussianBlur-deviation:0;color-rendering:auto;image-rendering:auto;shape-rendering:auto;text-rendering:auto"
       id="path2504-1-2-2"
       d="m 77.5703,6.9454345 c -11.317079,0 -20.630635,6.3193555 -21.648617,15.5397085 l -5.489571,0 8.107675,8.633172 8.107674,-8.633172 -5.29251,0 c 1.001307,-6.722239 7.890308,-11.035445 16.215349,-11.035445 9.013029,0 16.327956,6.104178 16.327956,13.625397 -3e-6,7.521219 -7.314924,13.625398 -16.327956,13.625398 -4.889999,0 -9.280846,-1.799942 -12.274118,-4.645022 L 61.3268,37.124 c 3.98185,3.735752 9.784188,6.080755 16.2435,6.080756 11.996656,0 21.733071,-8.122088 21.733072,-18.129661 0,-10.007573 -9.736418,-18.1296605 -21.733072,-18.1296605 z" />
    <path
       style="color:#000000;display:inline;overflow:visible;visibility:visible;fill:#3b550e;fill-opacity:1;fill-rule:nonzero;stroke:none;stroke-width:3.18764749;marker:none;enable-background:accumulate;clip-rule:nonzero;isolation:auto;mix-blend-mode:normal;color-interpolation:sRGB;color-interpolation-filters:linearRGB;solid-color:#000000;solid-opacity:1;stroke-linecap:butt;stroke-linejoin:miter;stroke-miterlimit:4;stroke-dasharray:none;stroke-dashoffset:0;stroke-opacity:1;filter-blend-mode:normal;filter-gaussianBlur-deviation:0;color-rendering:auto;image-rendering:auto;shape-rendering:auto;text-rendering:auto"
       id="path3288-4-0-74"
       d="m 78.940345,13.851971 -2.036302,0 -2.036301,12.086441 10.18151,6.906538 2e-6,-1.726635 -6.108907,-6.906537 -2e-6,-10.359807 z" />
  </g>
</svg>
