<?xml version="1.0" encoding="UTF-8"?>
<!-- Created with Inkscape (http://www.inkscape.org/) -->
<svg id="svg3272" width="16" height="16" version="1.0" xmlns="http://www.w3.org/2000/svg" xmlns:xlink="http://www.w3.org/1999/xlink">
 <defs id="defs3274">
  <linearGradient id="linearGradient3725" x1="7.3228" x2="13.384" y1="5.6505" y2="21.723" gradientTransform="matrix(.70192 0 0 .70574 -.68337 -.19657)" gradientUnits="userSpaceOnUse">
   <stop id="stop3375" style="stop-color:#4d4d4d" offset="0"/>
   <stop id="stop3377" style="stop-color:#3c3c3c" offset="1"/>
  </linearGradient>
  <linearGradient id="linearGradient3856" x1="5.0678" x2="5.0678" y1="4.5037" y2="18.154" gradientTransform="matrix(.91283 0 0 .90776 -.72105 -.66183)" gradientUnits="userSpaceOnUse">
   <stop id="stop3934" style="stop-color:#828282" offset="0"/>
   <stop id="stop3936" style="stop-color:#434343" offset="1"/>
  </linearGradient>
  <linearGradient id="linearGradient2687" x1="18.031" x2="20.055" y1="16.408" y2="24.628" gradientTransform="matrix(.29669 0 0 .35207 1.8805 2.1186)" gradientUnits="userSpaceOnUse">
   <stop id="stop2687" style="stop-color:#fff;stop-opacity:.27451" offset="0"/>
   <stop id="stop2689" style="stop-color:#fff;stop-opacity:.078431" offset="1"/>
  </linearGradient>
  <linearGradient id="linearGradient2692" x1="10.318" x2="4.176" y1="14.993" y2="4.0514" gradientTransform="matrix(1.0083 0 0 1.0006 -.00082398 -.0066205)" gradientUnits="userSpaceOnUse">
   <stop id="stop3624" style="stop-color:#bb2b12" offset="0"/>
   <stop id="stop3626" style="stop-color:#cd7233" offset="1"/>
  </linearGradient>
  <linearGradient id="linearGradient2690" x1="126.7" x2="169.23" y1="58.583" y2="238.4" gradientTransform="matrix(.054893 .013851 .0025726 .052482 -.7128 -.26741)" gradientUnits="userSpaceOnUse" xlink:href="#linearGradient7012-661-145-733-759-865-745-661-970-94"/>
  <radialGradient id="radialGradient2677" cx="605.71" cy="486.65" r="117.14" gradientTransform="matrix(-2.7744 0 0 1.9697 112.76 -872.89)" gradientUnits="userSpaceOnUse" xlink:href="#linearGradient5060"/>
  <radialGradient id="radialGradient2675" cx="605.71" cy="486.65" r="117.14" gradientTransform="matrix(2.7744 0 0 1.9697 -1891.6 -872.89)" gradientUnits="userSpaceOnUse" xlink:href="#linearGradient5060"/>
  <linearGradient id="linearGradient2673" x1="302.86" x2="302.86" y1="366.65" y2="609.51" gradientTransform="matrix(2.7744 0 0 1.9697 -1892.2 -872.89)" gradientUnits="userSpaceOnUse">
   <stop id="stop5050" style="stop-opacity:0" offset="0"/>
   <stop id="stop5056" offset=".5"/>
   <stop id="stop5052" style="stop-opacity:0" offset="1"/>
  </linearGradient>
  <linearGradient id="linearGradient5060">
   <stop id="stop5062" offset="0"/>
   <stop id="stop5064" style="stop-opacity:0" offset="1"/>
  </linearGradient>
  <linearGradient id="linearGradient7012-661-145-733-759-865-745-661-970-94">
   <stop id="stop3618" style="stop-color:#edb763" offset="0"/>
   <stop id="stop3270" style="stop-color:#de7f32" offset=".5"/>
   <stop id="stop3620" style="stop-color:#d24413" offset="1"/>
  </linearGradient>
  <linearGradient id="linearGradient3024" x1="12.938" x2="15.25" y1="8.4375" y2="19.812" gradientTransform="matrix(.11905 0 0 .53333 7.6429 2.4)" gradientUnits="userSpaceOnUse">
   <stop id="stop6594" style="stop-color:#fff;stop-opacity:.35294" offset="0"/>
   <stop id="stop6596" style="stop-color:#fff;stop-opacity:0" offset="1"/>
  </linearGradient>
  <linearGradient id="linearGradient4432-9-4-1">
   <stop id="stop4434-0-4-9" style="stop-color:#f6b2ee" offset="0"/>
   <stop id="stop4436-9-3-0" style="stop-color:#d979cd" offset=".26238"/>
   <stop id="stop4438-1-2-9" style="stop-color:#753da6" offset="1"/>
  </linearGradient>
  <radialGradient id="radialGradient3818" cx="33" cy="37.277" r="8" gradientTransform="matrix(.54555 -.3691 .27984 .56798 -21.912 2.7618)" gradientUnits="userSpaceOnUse" xlink:href="#linearGradient4432-9-4-1"/>
  <radialGradient id="radialGradient3843" cx="33" cy="37.277" r="8" gradientTransform="matrix(.54555 -.3691 .27984 .56798 -21.912 -3.2382)" gradientUnits="userSpaceOnUse" xlink:href="#linearGradient4432-9-4-1"/>
  <radialGradient id="radialGradient3865" cx="-.43962" cy="6.7185" r="4.5" gradientTransform="matrix(3.2109 -.04709 .025342 1.728 1.2543 -5.6211)" gradientUnits="userSpaceOnUse" xlink:href="#linearGradient7012-661-145-733-759-865-745-661-970-94"/>
 </defs>
 <g id="layer1">
  <g id="layer6" transform="matrix(.36395 0 0 .34457 -.64485 -.38545)">
   <g id="g2488" transform="matrix(.021652 0 0 .014857 43.008 42.685)">
    <rect id="rect2490" x="-1559.3" y="-150.7" width="1339.6" height="478.36" style="fill:url(#linearGradient2673);opacity:.40206"/>
    <path id="path2492" d="m-219.62-150.68v478.33c142.87 0.90045 345.4-107.17 345.4-239.2 0-132.03-159.44-239.13-345.4-239.13z" style="fill:url(#radialGradient2675);opacity:.40206"/>
    <path id="path2494" d="m-1559.3-150.68v478.33c-142.87 0.90045-345.4-107.17-345.4-239.2 0-132.03 159.44-239.13 345.4-239.13z" style="fill:url(#radialGradient2677);opacity:.40206"/>
   </g>
  </g>
  <path id="rect2196" d="m0.6015 1.5215c-0.056258 0-0.10449 0.060345-0.10449 0.12267 0 4.6046 0.003374 8.6512-6.5534e-4 12.857 4.7063-0.02397 9.4151-0.04826 14.123-0.06552-0.41713 0-1.1123-0.07009-1.1024-0.94049 0.0035-3.597 0.02296-7.4084 0.01078-10.981h-6.0519c-0.47749 0-1.0963-0.99306-1.5261-0.99306h-5.3477l-3e-6 -1e-6z" style="fill:#fff;stroke-linecap:round;stroke-linejoin:round;stroke-width:.979;stroke:#a8a8a8"/>
  <path id="rect3086" d="m2.5254 4.524c0.65636 0 12.48 0.031393 12.989 0.031393 0 0.61541-0.02468 9.9581-0.05407 9.9581-4.5588 0.01775-11.659-0.01389-12.987-0.01389 0-1.1615 0.05188-7.5853 0.05188-9.9756l3e-6 -5e-6z" style="fill:url(#linearGradient2690);stroke-linecap:round;stroke-linejoin:round;stroke-width:.95339;stroke:url(#linearGradient2692)"/>
  <path id="path2509" d="m2.8355 4c-0.45659 0-0.83444 0.44838-0.83444 0.9902v5.6331c0.00175 0.10077 0.044034 0.21567 0.11126 0.28606 0.067223 0.07039 0.15315 0.10008 0.25033 0.08802 0.00309 9.4e-5 0.00618 9.4e-5 0.00927 0l13.351-2.5085c0.1548-0.028972 0.27598-0.18812 0.27815-0.37407v-3.1246c0-0.54182-0.37785-0.9902-0.83444-0.9902h-12.331z" style="fill-rule:evenodd;fill:url(#linearGradient2687)"/>
  <path id="path2406" d="m3.499 14v-8.5h11.5" style="fill:none;opacity:.35;stroke-width:1px;stroke:#fff"/>
 </g>
 <g id="layer1-2" transform="translate(4 9.5367e-7)">
  <path id="path3385" d="m3.8626 15.496h-2.2649c-0.1835-0.17752-0.043962-0.52997-0.087562-0.78129v-11.125l0.025587-0.061 0.061975-0.025h2.2341m5.3586 0.12021h2.251c0.10583 0 0.08757 0.47088 0.08757 0.781v11.116c-0.18046 0.18042-0.53872 0.04323-0.79418 0.08609h-1.5255" style="display:block;fill:url(#linearGradient3856);stroke-linejoin:round;stroke:#333"/>
  <rect id="rect3457" x="3.4991" y="3.4991" width="6.0018" height="12.002" rx="0" ry="0" style="fill:url(#linearGradient3725);stroke-width:.99818;stroke:#333"/>
  <rect id="rect3841" x="3.4892" y="3.4892" width="6.0217" height="6.0217" rx="0" ry="0" style="fill:url(#radialGradient3843);opacity:.6;stroke:#333"/>
  <path id="rect15660" d="m4.5049 4.5h3.9901" style="display:block;fill:none;opacity:.27;stroke-linecap:square;stroke-linejoin:round;stroke:#fff"/>
  <path id="path4320" d="m4.5 9.5c2.3333 0 1.6667-1.1e-6 4-1.1e-6" style="display:block;fill:none;stroke-linecap:square;stroke-linejoin:round;stroke:#464646"/>
  <rect id="rect2704-7" x="3.4892" y="9.4892" width="6.0217" height="6.0217" rx="0" ry="0" style="fill:url(#radialGradient3818);opacity:.6;stroke:#333"/>
  <path id="path4820" d="m4.5 10.5c2.3333 0 1.6667-1e-6 4-1e-6" style="display:block;fill:none;opacity:.27;stroke-linecap:square;stroke-linejoin:round;stroke:#fff"/>
  <path id="rect3867" d="m9.9848 13.985h1v1h-1v-1zm0-2h1v1h-1v-1zm0-2h1v1h-1v-1zm0-2h1v1h-1v-1zm0-2h1v1h-1v-1zm0-2h1v1h-1v-1zm-8 10h1v1h-1v-1zm0-2h1v1h-1v-1zm0-2h1v1h-1v-1zm0-2h1v1h-1v-1zm0-2h1v1h-1v-1zm0-2h1v1h-1v-1z" style="fill:url(#radialGradient3865);opacity:.8"/>
 </g>
 <path id="rect6588" d="m8 4h5v5.2667l-5 2.7333v-8z" style="fill:url(#linearGradient3024)"/>
</svg>
