<?xml version="1.0" encoding="UTF-8"?>
<!-- Created with Inkscape (http://www.inkscape.org/) -->
<svg id="svg3203" width="16" height="16" version="1.1" xmlns="http://www.w3.org/2000/svg" xmlns:xlink="http://www.w3.org/1999/xlink">
 <defs id="defs3205">
  <linearGradient id="linearGradient2417" x1="8.1772" x2="8.1772" y1="1.0433" y2="15.677" gradientTransform="matrix(1.0307 0 0 1.012 -.42805 -.52505)" gradientUnits="userSpaceOnUse">
   <stop id="stop2612" style="stop-color:#f0c178" offset="0"/>
   <stop id="stop2614" style="stop-color:#e18941" offset=".5"/>
   <stop id="stop2616" style="stop-color:#ec4f18" offset="1"/>
  </linearGradient>
  <linearGradient id="linearGradient3201" x1="8" x2="8" y1="1.9688" y2="17.887" gradientUnits="userSpaceOnUse">
   <stop id="stop3197" style="stop-color:#fff" offset="0"/>
   <stop id="stop3199" style="stop-color:#fff;stop-opacity:0" offset="1"/>
  </linearGradient>
  <linearGradient id="linearGradient3632" x1="4.3698" x2="4.3322" y1="16" y2=".53072" gradientUnits="userSpaceOnUse">
   <stop id="stop2605" style="stop-color:#bb2b12" offset="0"/>
   <stop id="stop2607" style="stop-color:#cd7233" offset="1"/>
  </linearGradient>
 </defs>
 <g id="layer1">
  <path id="rect5117" d="m8 1.0307-7.5 7.4916h2.0278l-7e-7 6.9776h10.944l1e-6 -6.9776h2.0278l-2-2.0224v-5h-3v2l-2.5-2.4693z" style="fill:url(#linearGradient2417);stroke-linejoin:round;stroke:url(#linearGradient3632)"/>
  <path id="path3193" d="m8 2.4688-5.125 5.0938a1.0127 1.0127 0 0 1 0.65625 0.96875v5.9688h8.9375v-5.9688a1.0127 1.0127 0 0 1 0.65625-0.9375l-0.34375-0.375a1.0127 1.0127 0 0 1-0.28125-0.71875v-4h-1v1a1.0127 1.0127 0 0 1-1.7188 0.71875l-1.7812-1.75z" style="fill:none;opacity:.4;stroke:url(#linearGradient3201)"/>
 </g>
</svg>
