<?xml version="1.0" encoding="UTF-8"?>
<!-- Created with Inkscape (http://www.inkscape.org/) -->
<svg id="svg3187" width="16" height="16" version="1.0" xmlns="http://www.w3.org/2000/svg" xmlns:cc="http://creativecommons.org/ns#" xmlns:dc="http://purl.org/dc/elements/1.1/" xmlns:rdf="http://www.w3.org/1999/02/22-rdf-syntax-ns#">
 <metadata id="metadata8">
  <rdf:RDF>
   <cc:Work rdf:about="">
    <dc:format>image/svg+xml</dc:format>
    <dc:type rdf:resource="http://purl.org/dc/dcmitype/StillImage"/>
    <dc:title/>
   </cc:Work>
  </rdf:RDF>
 </metadata>
 <path id="path2397-9" d="m8 2c-1.1263 0-2.0808 0.59376-2.5938 1.4688-0.28885-0.20595-0.6577-0.3125-1.0625-0.3125-0.92 1e-7 -1.6875 0.61768-1.6875 1.4062 1e-7 0.1771 0.056173 0.34346 0.125 0.5-1.0463 0.40073-1.7812 1.3259-1.7812 2.375 0 1.3309 1.1787 2.3939 2.6875 2.5312 0.3082-1.1393 1.4598-1.875 2.6562-1.875 0.27246 0 0.51793 0.14835 0.78125 0.21875 0.7394-0.78437 1.7015-1.375 2.875-1.375 1.1316 0 2.147 0.47058 2.875 1.2188 0.079138-0.23117 0.125-0.46506 0.125-0.71875 0-1.1284-0.85624-2.0895-2.0312-2.4375 0.00261-0.048815 0.03125-0.10682 0.03125-0.15625 0-1.5771-1.344-2.8438-3-2.8438zm2 6c-1.1263 0-2.0912 0.60715-2.6042 1.4821-0.28885-0.20595-0.6577-0.33928-1.0625-0.33928-0.92 0-1.6667 0.64-1.6667 1.4286 0 0.1771 0.03534 0.34345 0.10417 0.5-1.0463 0.40073-1.7708 1.308-1.7708 2.3571 0 1.4246 1.338 2.5714 3 2.5714h6c1.662 0 3-1.1469 3-2.5714 0-1.1284-0.84582-2.0806-2.0208-2.4286 0.00261-0.048815 0.020834-0.093428 0.020834-0.14286 0-1.5771-1.344-2.8571-3-2.8571z" style="fill-rule:evenodd;fill:#fff;opacity:.3"/>
 <path id="path2397" d="m8 1c-1.1263 0-2.0808 0.59376-2.5938 1.4688-0.28885-0.20595-0.6577-0.3125-1.0625-0.3125-0.92 1e-7 -1.6875 0.61768-1.6875 1.4062 1e-7 0.1771 0.056173 0.34346 0.125 0.5-1.0463 0.40073-1.7812 1.3259-1.7812 2.375 0 1.3309 1.1787 2.3939 2.6875 2.5312 0.3082-1.1393 1.4598-1.875 2.6562-1.875 0.27246 0 0.51793 0.14835 0.78125 0.21875 0.7394-0.78437 1.7015-1.375 2.875-1.375 1.1316 0 2.147 0.47058 2.875 1.2188 0.079138-0.23117 0.125-0.46506 0.125-0.71875 0-1.1284-0.85624-2.0895-2.0312-2.4375 0.00261-0.048815 0.03125-0.10682 0.03125-0.15625 0-1.5771-1.344-2.8438-3-2.8438zm2 6c-1.1263 0-2.0912 0.60715-2.6042 1.4821-0.28885-0.20595-0.6577-0.33928-1.0625-0.33928-0.92 0-1.6667 0.64-1.6667 1.4286 0 0.1771 0.03534 0.34345 0.10417 0.5-1.0463 0.40073-1.7708 1.308-1.7708 2.3571 0 1.4246 1.338 2.5714 3 2.5714h6c1.662 0 3-1.1469 3-2.5714 0-1.1284-0.84582-2.0806-2.0208-2.4286 0.00261-0.048815 0.020834-0.093428 0.020834-0.14286 0-1.5771-1.344-2.8571-3-2.8571z" style="fill-rule:evenodd;fill:#3c3c3c"/>
</svg>
