<?xml version="1.0" encoding="UTF-8"?>
<!-- Created with Inkscape (http://www.inkscape.org/) -->
<svg id="svg2679" width="48" height="48" version="1.0" xmlns="http://www.w3.org/2000/svg" xmlns:xlink="http://www.w3.org/1999/xlink">
 <defs id="defs2681">
  <linearGradient id="linearGradient2837" x1="63.397" x2="63.397" y1="-12.489" y2="5.4676" gradientTransform="matrix(.85758 0 0 .85756 -40.342 15.011)" gradientUnits="userSpaceOnUse">
   <stop id="stop4875" style="stop-color:#fff" offset="0"/>
   <stop id="stop4877" style="stop-color:#fff;stop-opacity:0" offset="1"/>
  </linearGradient>
  <linearGradient id="linearGradient2887" x1="18.379" x2="18.379" y1="44.98" y2="3.0816" gradientTransform="matrix(.41773 0 0 .41773 2.9745 1.9743)" gradientUnits="userSpaceOnUse">
   <stop id="stop2492" style="stop-color:#791235" offset="0"/>
   <stop id="stop2494" style="stop-color:#dd3b27" offset="1"/>
  </linearGradient>
  <radialGradient id="radialGradient2885" cx="23.896" cy="3.99" r="20.397" gradientTransform="matrix(0 .99699 -1.316 0 18.251 -20.963)" gradientUnits="userSpaceOnUse">
   <stop id="stop3244" style="stop-color:#f8b17e" offset="0"/>
   <stop id="stop3246" style="stop-color:#e35d4f" offset=".26238"/>
   <stop id="stop3248" style="stop-color:#c6262e" offset=".66094"/>
   <stop id="stop3250" style="stop-color:#690b54" offset="1"/>
  </radialGradient>
  <linearGradient id="linearGradient3165">
   <stop id="stop3167" style="stop-color:#1e1e1e" offset="0"/>
   <stop id="stop3173" style="stop-color:#8d8d8d" offset=".26636"/>
   <stop id="stop3169" style="stop-color:#eee" offset="1"/>
  </linearGradient>
  <radialGradient id="radialGradient4192" cx="25" cy="45" r="20" gradientTransform="matrix(.5 0 0 .125 1.5 37.875)" gradientUnits="userSpaceOnUse">
   <stop id="stop6674" offset="0"/>
   <stop id="stop6676" style="stop-opacity:0" offset="1"/>
  </radialGradient>
  <linearGradient id="linearGradient4195" x1="26.546" x2="28.415" y1="25.605" y2="23.377" gradientTransform="matrix(1.0726 0 0 1.0995 .74609 -7.6196)" gradientUnits="userSpaceOnUse" xlink:href="#linearGradient3165"/>
  <linearGradient id="linearGradient4285" x1="17.676" x2="14.221" y1="28.648" y2="25.907" gradientTransform="matrix(1.0726 0 0 1.0995 -1.4604 -.66657)" gradientUnits="userSpaceOnUse">
   <stop id="stop3830" style="stop-color:#fff;stop-opacity:.74902" offset="0"/>
   <stop id="stop3328" style="stop-color:#fff;stop-opacity:0" offset="1"/>
  </linearGradient>
  <radialGradient id="radialGradient4288" cx="22.68" cy="15.931" r="17.407" gradientTransform="matrix(-.62443 1.494 -.56278 -.25924 48.027 -12.424)" gradientUnits="userSpaceOnUse">
   <stop id="stop3789" style="stop-color:#3c3c3c" offset="0"/>
   <stop id="stop3791" style="stop-color:#1e1e1e" offset="1"/>
  </radialGradient>
  <radialGradient id="radialGradient4463" cx="37.972" cy="11.218" r="10.024" gradientTransform="matrix(1.0812 .020604 -.019475 1.1083 -.65783 -6.7467)" gradientUnits="userSpaceOnUse">
   <stop id="stop3451" style="stop-color:#fff" offset="0"/>
   <stop id="stop3453" style="stop-color:#9b9b9b;stop-opacity:0" offset="1"/>
  </radialGradient>
  <linearGradient id="linearGradient4466" x1="34.204" x2="39" y1="17.334" y2="23.119" gradientTransform="matrix(.97777 .018633 -.017612 1.0023 3.3377 -5.444)" gradientUnits="userSpaceOnUse" spreadMethod="reflect">
   <stop id="stop3181" style="stop-color:#fff" offset="0"/>
   <stop id="stop3183" style="stop-color:#fff;stop-opacity:0" offset="1"/>
  </linearGradient>
  <linearGradient id="linearGradient4469" x1="32.303" x2="34.59" y1="18.646" y2="16.081" gradientTransform="matrix(.97777 .018633 -.017612 1.0023 3.3377 -5.444)" gradientUnits="userSpaceOnUse" xlink:href="#linearGradient3165"/>
  <radialGradient id="radialGradient4472" cx="31.002" cy="20.938" r=".91429" gradientTransform="matrix(17.957 .3422 -.3286 18.7 -506.5 -395.59)" gradientUnits="userSpaceOnUse">
   <stop id="stop3687" style="stop-color:#fff;stop-opacity:0" offset="0"/>
   <stop id="stop3689" style="stop-opacity:.49804" offset=".77083"/>
   <stop id="stop3691" offset="1"/>
  </radialGradient>
  <radialGradient id="radialGradient4718" cx="37.972" cy="11.218" r="10.024" gradientTransform="matrix(1.0812 .020604 -.019475 1.1083 -.65783 -6.7467)" gradientUnits="userSpaceOnUse">
   <stop id="stop3157" style="stop-color:#fff" offset="0"/>
   <stop id="stop3159" style="stop-color:#9b9b9b" offset="1"/>
  </radialGradient>
 </defs>
 <path id="path3412" d="m24 43.5c0 1.3807-4.4772 2.5-10 2.5s-10-1.1193-10-2.5 4.4772-2.5 10-2.5 10 1.1193 10 2.5z" style="fill:url(#radialGradient4192);opacity:.4"/>
 <path id="path3320" d="m25.205 15.429-19.205 23.707c0.98067 5.6127 6.5378 5.864 6.5378 5.864l22.474-20.859-9.8067-8.7122z" style="fill-rule:evenodd;fill:url(#radialGradient4288)"/>
 <path id="path3322" d="m27.026 19.16c-18.881 22.041-19.706 22.486-19.706 22.486s-1.1214-1.1786-1.2031-2.4351l18.633-22.953s0.64651 1.359 2.2763 2.9025z" style="fill-rule:evenodd;fill:url(#linearGradient4285);opacity:.24"/>
 <path id="path2383" d="m45.998 13.247c-0.095569 5.5502-4.5634 9.967-9.9778 9.8638s-9.7241-4.6872-9.6246-10.237c0.095569-5.5502 4.5634-9.967 9.9778-9.8638 5.4145 0.10318 9.7241 4.6872 9.6246 10.237z" style="fill:url(#radialGradient4718)"/>
 <path id="path2561" d="m35.156 3.1875c-1.4899 0.20559-0.07627 2.6909 0.7748 1.3206 0.33983-0.53793-0.076887-1.4518-0.7748-1.3206zm1.6875 0.03125c-1.4899 0.20559-0.07627 2.6909 0.7748 1.3206 0.33983-0.53793-0.076887-1.4518-0.7748-1.3206zm-3.3125 0.71875c-1.4369 0.22935-0.067316 2.6111 0.77921 1.3669 0.40146-0.53953-0.052365-1.5314-0.77921-1.3669zm5.0312 0.09375c-1.4899 0.20559-0.076273 2.6909 0.7748 1.3206 0.33983-0.53793-0.076887-1.4518-0.7748-1.3206zm1.6875 0.03125c-1.4899 0.20559-0.076273 2.6909 0.7748 1.3206 0.33983-0.53793-0.076887-1.4518-0.7748-1.3206zm-8.4688 0.625c-1.4899 0.20559-0.07627 2.6909 0.7748 1.3206 0.33983-0.53793-0.076887-1.4518-0.7748-1.3206zm4.9375 0.1875c-1.4369 0.22935-0.067316 2.6111 0.77921 1.3669 0.40146-0.53953-0.052365-1.5314-0.77921-1.3669zm-1.5938 0.0625c-1.4899 0.20559-0.076273 2.6909 0.7748 1.3206 0.33983-0.53793-0.076887-1.4518-0.7748-1.3206zm-5.0938 0.6875c-1.4899 0.20559-0.07627 2.6909 0.7748 1.3206 0.33983-0.53793-0.076887-1.4518-0.7748-1.3206zm3.4688 0.0625c-1.4369 0.22935-0.067316 2.6111 0.77921 1.3669 0.40146-0.53953-0.052365-1.5314-0.77921-1.3669zm6.5625 0.125c-1.4899 0.20559-0.076273 2.6909 0.7748 1.3206 0.33983-0.53793-0.076887-1.4518-0.7748-1.3206zm1.6875 0.03125c-1.4899 0.20559-0.076273 2.6909 0.7748 1.3206 0.33983-0.53793-0.076887-1.4518-0.7748-1.3206zm-3.2812 0.03125c-1.4899 0.20559-0.07627 2.6909 0.7748 1.3206 0.33983-0.53793-0.076887-1.4518-0.7748-1.3206zm-3.3125 0.71875c-1.4369 0.22935-0.067316 2.6111 0.77921 1.3669 0.40146-0.53953-0.052365-1.5314-0.77921-1.3669zm-3.5 0.03125c-1.3799 0.32305 0.06548 2.5795 0.85203 1.335 0.40382-0.56368-0.11612-1.5662-0.85203-1.335zm5.1875 0c-1.4899 0.20559-0.07627 2.6909 0.7748 1.3206 0.33983-0.53793-0.076887-1.4518-0.7748-1.3206zm-8.4688 0.71875c-1.4278 0.34402 0.14228 2.6366 0.88197 1.3005 0.35339-0.56989-0.16578-1.5259-0.88197-1.3005zm1.6875 0.03125c-1.4278 0.34402 0.14228 2.6366 0.88197 1.3005 0.35339-0.56989-0.16578-1.5259-0.88197-1.3005zm3.1875 0.0625c-1.4278 0.34402 0.14228 2.6366 0.88197 1.3005 0.35339-0.56989-0.16578-1.5259-0.88197-1.3005zm5.25 0.09375c-1.4899 0.20559-0.07627 2.6909 0.7748 1.3206 0.33983-0.53793-0.076887-1.4518-0.7748-1.3206zm1.6875 0.03125c-1.4899 0.20559-0.07627 2.6909 0.7748 1.3206 0.33983-0.53793-0.076887-1.4518-0.7748-1.3206zm1.5 0.125c-1.4278 0.34402 0.14228 2.6366 0.88197 1.3005 0.35339-0.56989-0.16578-1.5259-0.88197-1.3005zm1.6875 0.03125c-1.4278 0.34402 0.14228 2.6366 0.88197 1.3005 0.35339-0.56989-0.16578-1.5259-0.88197-1.3005zm-8.4688 0.625c-1.3799 0.32304 0.06548 2.5795 0.85203 1.335 0.40382-0.56368-0.11612-1.5662-0.85203-1.335zm1.9062 0.09375c-1.4544 0.060522-0.34132 2.5811 0.62668 1.4356 0.45634-0.49344 0.10434-1.5098-0.62668-1.4356zm-8.4688 0.71875c-1.4369 0.22935-0.06732 2.6111 0.77921 1.3669 0.40146-0.53953-0.052366-1.5314-0.77921-1.3669zm1.6875 0.03125c-1.4899 0.2056-0.07627 2.6909 0.7748 1.3206 0.33983-0.53794-0.076891-1.4518-0.7748-1.3206zm9.2188 0.1875c-1.4899 0.2056-0.07627 2.6909 0.7748 1.3206 0.33983-0.53794-0.076891-1.4518-0.7748-1.3206zm4.9375 0c-1.4899 0.2056-0.07627 2.6909 0.7748 1.3206 0.33983-0.53794-0.076891-1.4518-0.7748-1.3206zm-3.2812 0.03125c-1.4899 0.2056-0.07627 2.6909 0.7748 1.3206 0.33983-0.53794-0.07689-1.4518-0.7748-1.3206zm1.6875 0.03125c-1.4899 0.2056-0.07627 2.6909 0.7748 1.3206 0.33983-0.53794-0.07689-1.4518-0.7748-1.3206zm-10.812 0.46875c-1.4658 0.018898-0.42649 2.6093 0.59614 1.4326 0.43871-0.49402 0.1273-1.4701-0.59614-1.4326zm2.5 0.15625c-1.3981 0.18681-0.06571 2.4 0.75784 1.1909 0.57192 0.19953 1.4437 0.67882 1.6373-0.32697 0.040469-0.85933-1.1275-1.0304-1.557-0.42901-0.3363-0.04942-0.41525-0.73605-0.83816-0.43494zm3.1875 0.0625c-1.4464 0.22296-0.12529 2.677 0.7608 1.4228 0.38472-0.54341-0.02192-1.5486-0.7608-1.4228zm-10 0.6875c-1.4278 0.34402 0.14228 2.6366 0.88197 1.3005 0.35339-0.56989-0.16578-1.5259-0.88197-1.3005zm1.625 0.125c-1.4329 0.30286 0.05863 2.6321 0.84644 1.2776 0.33967-0.55628-0.14828-1.4708-0.84644-1.2776zm10.031 0.09375c-1.4369 0.22935-0.06732 2.6111 0.77921 1.3669 0.40146-0.53953-0.052366-1.5314-0.77921-1.3669zm1.6875 0.03125c-1.4658 0.19324-0.12122 2.6639 0.75597 1.3496 0.36003-0.53868-0.03533-1.4847-0.75597-1.3496zm3.5 0.0625c-1.4899 0.2056-0.07627 2.6909 0.7748 1.3206 0.33983-0.53794-0.076891-1.4518-0.7748-1.3206zm-1.8438 0.0625c-1.4278 0.34402 0.14228 2.6366 0.88197 1.3005 0.35339-0.56989-0.16578-1.5259-0.88197-1.3005zm-9.9688 0.59375c-1.4085 0.37124 0.01269 2.7095 0.85279 1.3648 0.34665-0.58041-0.10423-1.5444-0.85279-1.3648zm-1.5938 0.03125c-1.361 0.02116-0.5344 2.5118 0.52848 1.5744 0.56432-0.45811 0.24548-1.604-0.52848-1.5744zm6.5312 0.15625c-1.4165 0.34733 0.14699 2.6336 0.8833 1.2572 0.33009-0.57983-0.17267-1.4705-0.8833-1.2572zm-9.9062 0.65625c-1.4544 0.06052-0.34132 2.5811 0.62668 1.4356 0.45634-0.49344 0.10434-1.5098-0.62668-1.4356zm1.6875 0.03125c-1.361 0.02116-0.5344 2.5118 0.52848 1.5744 0.56432-0.45811 0.24548-1.604-0.52848-1.5744zm10.031 0.1875c-1.4544 0.06052-0.34132 2.5811 0.62668 1.4356 0.45634-0.49344 0.10434-1.5098-0.62668-1.4356zm1.6875 0.03125c-1.4658 0.0189-0.42649 2.6093 0.59614 1.4326 0.43871-0.49402 0.1273-1.4701-0.59614-1.4326zm3.25 0c-1.4278 0.34402 0.14228 2.6366 0.88197 1.3005 0.35339-0.56989-0.16578-1.5259-0.88197-1.3005zm-1.5938 0.03125c-1.5123 0.08912-0.24506 2.6836 0.68474 1.3634 0.35812-0.51474 0.01417-1.4389-0.68474-1.3634zm-8.4375 0.625c-1.4669 0.01856-0.42467 2.611 0.59578 1.4314 0.43914-0.49678 0.12968-1.4662-0.59578-1.4314zm-3.375 0.03125c-1.4369 0.22935-0.06732 2.6111 0.77921 1.3669 0.40146-0.53953-0.05237-1.5314-0.77921-1.3669zm5.0312 0c-1.4544 0.06052-0.34132 2.5811 0.62668 1.4356 0.45634-0.49344 0.10434-1.5098-0.62668-1.4356zm-3.3438 0.03125c-1.4658 0.19324-0.12122 2.6639 0.75597 1.3496 0.36003-0.53868-0.03533-1.4847-0.75597-1.3496zm-4.125 0.71875c-1.4658 0.19324-0.12122 2.6639 0.75597 1.3496 0.36003-0.53868-0.03533-1.4847-0.75597-1.3496zm9.125 0.25c-1.4658 0.19324-0.12122 2.6639 0.75597 1.3496 0.36003-0.53868-0.03533-1.4847-0.75597-1.3496zm6.8438 0.03125c-1.4544 0.06052-0.34132 2.5811 0.62668 1.4356 0.45747-0.49267 0.10267-1.5106-0.62668-1.4356zm-3.5 0.03125c-1.4464 0.22296-0.12529 2.677 0.7608 1.4228 0.38472-0.54341-0.02192-1.5486-0.7608-1.4228zm1.75 0.03125c-1.4544 0.06052-0.34132 2.5811 0.62668 1.4356 0.45747-0.49267 0.10267-1.5106-0.62668-1.4356zm-12.781 0.5625c-1.4104 0.37076 0.01627 2.7123 0.85162 1.3624 0.34837-0.58332-0.10048-1.5399-0.85162-1.3624zm1.75 0.125c-1.4329 0.30286 0.05863 2.6321 0.84644 1.2776 0.33967-0.55628-0.14828-1.4708-0.84644-1.2776zm1.6562 0.03125c-1.3799 0.32304 0.06548 2.5795 0.85203 1.335 0.40382-0.56368-0.11612-1.5662-0.85203-1.335zm1.6875 0.03125c-1.3849 0.34329-8.96e-4 2.6747 0.85203 1.3791 0.35271-0.57127-0.10516-1.5713-0.85203-1.3791zm4.3125 0.84375c-1.4899 0.2056-0.07627 2.6909 0.7748 1.3206 0.33983-0.53794-0.076891-1.4518-0.7748-1.3206zm-2.5 0.03125c-1.4544 0.06052-0.34132 2.5811 0.62668 1.4356 0.45634-0.49344 0.10434-1.5098-0.62668-1.4356zm5.6875 0.03125c-1.4369 0.22935-0.06732 2.6111 0.77921 1.3669 0.40146-0.53953-0.052366-1.5314-0.77921-1.3669zm1.9062 0.03125c-1.4544 0.06052-0.34132 2.5811 0.62668 1.4356 0.45634-0.49344 0.10434-1.5098-0.62668-1.4356zm-11.031 0.65625c-1.4544 0.06052-0.34132 2.5811 0.62668 1.4356 0.45634-0.49344 0.10434-1.5098-0.62668-1.4356zm-1.5938 0.0625c-1.4658 0.0189-0.42649 2.6093 0.59614 1.4326 0.43871-0.49402 0.1273-1.4701-0.59614-1.4326zm3.3438 0.0625c-1.361 0.02116-0.5344 2.5118 0.52848 1.5744 0.56432-0.45811 0.24548-1.604-0.52848-1.5744zm4.0938 0.78125c-1.4658 0.19324-0.12122 2.6639 0.75597 1.3496 0.36003-0.53868-0.03533-1.4847-0.75597-1.3496zm1.75 0.125c-1.4658 0.19324-0.12122 2.6639 0.75597 1.3496 0.36003-0.53868-0.03533-1.4847-0.75597-1.3496zm1.6562 0.03125c-1.4899 0.2056-0.07627 2.6909 0.7748 1.3206 0.33983-0.53794-0.076891-1.4518-0.7748-1.3206zm-8.5938 0.71875c-1.4104 0.37076 0.01627 2.7123 0.85162 1.3624 0.34837-0.58332-0.10048-1.5399-0.85162-1.3624zm3.4062 0.0625c-1.4369 0.22935-0.06732 2.6111 0.77921 1.3669 0.40146-0.53953-0.05237-1.5314-0.77921-1.3669zm-1.6562 0.0625c-1.405 0.27244-0.01727 2.601 0.8077 1.3623 0.41515-0.55106-0.06742-1.5609-0.8077-1.3623zm6 0.78125c-1.4658 0.0189-0.42649 2.6093 0.59614 1.4326 0.43871-0.49402 0.1273-1.4701-0.59614-1.4326zm-1.8438 0.0625c-1.4464 0.22296-0.12529 2.677 0.7608 1.4228 0.38472-0.54341-0.02192-1.5486-0.7608-1.4228zm-3.2188 0.71875c-1.5123 0.08912-0.24506 2.6836 0.68474 1.3634 0.35812-0.51474 0.01417-1.4389-0.68474-1.3634zm-1.6562 0.0625c-1.4658 0.19324-0.12122 2.6639 0.75597 1.3496 0.36003-0.53868-0.03533-1.4847-0.75597-1.3496zm3.25 0.15625c-1.4369 0.22935-0.06732 2.6111 0.77921 1.3669 0.40146-0.53953-0.052366-1.5314-0.77921-1.3669z" style="opacity:.1"/>
 <path id="path3681" d="m45.58 13.216c-0.093704 5.5391-4.4834 9.9492-9.8022 9.8478s-9.5506-4.6758-9.4497-10.215c0.093704-5.5391 4.4834-9.9492 9.8022-9.8478 5.3188 0.10136 9.5506 4.6758 9.4497 10.215z" style="fill:url(#radialGradient4472);opacity:.1907"/>
 <path id="path3163" d="m29.926 5.1131s3.8803 5.3923 14.469 13.515c0.43266 0.33189-0.81959 1.7189-1.2489 1.3291 0 0-6.5563-3.2938-14.569-13.227-0.39694-0.49211 0.29801-0.86406 1.3483-1.6171z" style="fill-rule:evenodd;fill:url(#linearGradient4469)"/>
 <path id="path3177" d="m29.926 5.1131s3.8803 5.3923 14.469 13.515c0.43266 0.33189-0.81959 1.7189-1.2489 1.3291 0 0-6.5563-3.2938-14.569-13.227-0.39694-0.49211 0.29801-0.86406 1.3483-1.6171z" style="fill-rule:evenodd;fill:url(#linearGradient4466);opacity:.67442"/>
 <path id="path2677" d="m45.998 13.247c-0.095569 5.5502-4.5634 9.967-9.9778 9.8638s-9.7241-4.6872-9.6246-10.237c0.095569-5.5502 4.5634-9.967 9.9778-9.8638 5.4145 0.10318 9.7241 4.6872 9.6246 10.237z" style="fill:url(#radialGradient4463);opacity:.47907"/>
 <path id="path3302" d="m34.644 24.358c0.78039-0.09999 2.6338-1.2499 2.6338-1.2499-2.6826-1.3999-10.828-9.7994-10.828-9.7994s-1.4145 1.8999-1.2681 2.4499c0 0 4.6823 5.6997 9.4622 8.5995z" style="fill-rule:evenodd;fill:url(#linearGradient4195)"/>
 <path id="path2555" d="m13 3.5016c-4.6891 0-8.4983 3.8092-8.4983 8.4983 0 4.6891 3.8092 8.4983 8.4983 8.4983 4.689 0 8.4983-3.8092 8.4983-8.4983 0-4.6891-3.8092-8.4983-8.4983-8.4983v0z" style="fill:url(#radialGradient2885);stroke-linecap:round;stroke-linejoin:round;stroke-width:1.0037;stroke:url(#linearGradient2887)"/>
 <path id="path2463" d="m20.5 12c0 4.1423-3.3581 7.5003-7.4999 7.5003-4.1422 0-7.5001-3.358-7.5001-7.5003 0-4.1421 3.3579-7.4997 7.5001-7.4997 4.1418 0 7.4999 3.3577 7.4999 7.4997z" style="fill:none;opacity:.4;stroke:url(#linearGradient2837)"/>
</svg>
