<?xml version="1.0" encoding="UTF-8"?>
<!-- Created with Inkscape (http://www.inkscape.org/) -->
<svg id="svg11300" width="48" height="48" version="1.1" xmlns="http://www.w3.org/2000/svg" xmlns:xlink="http://www.w3.org/1999/xlink">
 <defs id="defs3">
  <linearGradient id="linearGradient4909">
   <stop id="stop4911" style="stop-color:#747474" offset="0"/>
   <stop id="stop4913" style="stop-color:#b0b0b0" offset=".47842"/>
   <stop id="stop4915" style="stop-color:#3f3f3f" offset="1"/>
  </linearGradient>
  <linearGradient id="linearGradient4877">
   <stop id="stop4879" style="stop-color:#747474" offset="0"/>
   <stop id="stop4881" style="stop-color:#fff" offset=".45349"/>
   <stop id="stop4883" style="stop-color:#3f3f3f" offset="1"/>
  </linearGradient>
  <linearGradient id="linearGradient6215">
   <stop id="stop6217" style="stop-color:#cfb900" offset="0"/>
   <stop id="stop6219" style="stop-color:#e2d44d" offset=".21"/>
   <stop id="stop6221" style="stop-color:#9a8b00" offset=".84"/>
   <stop id="stop6223" style="stop-color:#cfb900" offset="1"/>
  </linearGradient>
  <linearGradient id="linearGradient3956" x1="12.647" x2="4.7127" y1="11.5" y2="11.5" gradientTransform="matrix(0 .66667 -1 0 29 16.667)" gradientUnits="userSpaceOnUse" xlink:href="#linearGradient6215"/>
  <linearGradient id="linearGradient3982" x1="8" x2="4.3284" y1="19.5" y2="19.5" gradientTransform="matrix(0 .66667 -1 0 29 7.6667)" gradientUnits="userSpaceOnUse" xlink:href="#linearGradient6215"/>
  <linearGradient id="linearGradient4002" x1="8" x2="4.3284" y1="19.5" y2="19.5" gradientTransform="matrix(.66667 0 0 1 2.6667 -5)" gradientUnits="userSpaceOnUse" xlink:href="#linearGradient6215"/>
  <linearGradient id="linearGradient4005" x1="16.965" x2="18.968" y1="20.166" y2="31.347" gradientTransform="matrix(.93474 0 0 1.1494 .51875 -8.8596)" gradientUnits="userSpaceOnUse">
   <stop id="stop14863" style="stop-color:#fff" offset="0"/>
   <stop id="stop14865" style="stop-color:#fff;stop-opacity:0" offset="1"/>
  </linearGradient>
  <linearGradient id="linearGradient4022" x1="6.221" x2="6.2377" y1="42.891" y2="39.267" gradientTransform="matrix(1.9844 0 0 1 3.0938 -5.0136)" gradientUnits="userSpaceOnUse">
   <stop id="stop14782-0" style="stop-color:#d3ba00" offset="0"/>
   <stop id="stop14784-4" style="stop-color:#d3ba00;stop-opacity:0" offset="1"/>
  </linearGradient>
  <radialGradient id="radialGradient4820" cx="9" cy="15.407" r="20" gradientTransform="matrix(2.3161 .014304 -.01017 1.6466 -11.688 -8.4984)" gradientUnits="userSpaceOnUse">
   <stop id="stop14983-1" style="stop-color:#628430" offset="0"/>
   <stop id="stop14985-7" style="stop-color:#364d17" offset="1"/>
  </radialGradient>
  <radialGradient id="radialGradient4830" cx="4" cy="9.1705" r="19" gradientTransform="matrix(1.9989 .083289 -.052631 1.2631 -3.5131 .083257)" gradientUnits="userSpaceOnUse">
   <stop id="stop7624" style="stop-color:#fff" offset="0"/>
   <stop id="stop7626" style="stop-color:#fff;stop-opacity:0" offset="1"/>
  </radialGradient>
  <linearGradient id="linearGradient4859" x1="24" x2="27" y1="19.5" y2="19.5" gradientTransform="matrix(-.66667 0 0 1 41 -5)" gradientUnits="userSpaceOnUse" xlink:href="#linearGradient6215"/>
  <linearGradient id="linearGradient4867" x1="35.934" x2="51.449" y1="22.75" y2="22.75" gradientUnits="userSpaceOnUse" xlink:href="#linearGradient4877"/>
  <linearGradient id="linearGradient4891" x1="39" x2="47.5" y1="22.75" y2="22.75" gradientUnits="userSpaceOnUse">
   <stop id="stop14975" style="stop-color:#747474" offset="0"/>
   <stop id="stop14977" style="stop-color:#b0b0b0" offset=".62069"/>
   <stop id="stop14979" style="stop-color:#3f3f3f" offset="1"/>
  </linearGradient>
  <linearGradient id="linearGradient4899" x1="42.366" x2="42.401" y1="15.05" y2="20.018" gradientTransform="matrix(1.1613 0 0 1.134 -5.8595 -2.3828)" gradientUnits="userSpaceOnUse" xlink:href="#linearGradient4877"/>
  <linearGradient id="linearGradient4907" x1="43.161" x2="43.064" y1="13.901" y2="20.99" gradientTransform="matrix(1.1613 0 0 1.134 -5.8595 -2.3828)" gradientUnits="userSpaceOnUse" xlink:href="#linearGradient4909"/>
  <linearGradient id="linearGradient4925" x1="42.366" x2="42.401" y1="15.05" y2="20.018" gradientTransform="matrix(1.1613 0 0 1.134 -5.8595 4.6172)" gradientUnits="userSpaceOnUse" xlink:href="#linearGradient4877"/>
  <linearGradient id="linearGradient4927" x1="43.161" x2="43.064" y1="13.901" y2="20.99" gradientTransform="matrix(1.1613 0 0 1.134 -5.8595 4.6172)" gradientUnits="userSpaceOnUse" xlink:href="#linearGradient4909"/>
  <radialGradient id="radialGradient3018" cx="24.454" cy="46.87" r="19.614" gradientTransform="matrix(.81573 0 0 .12746 3.0519 34.526)" gradientUnits="userSpaceOnUse">
   <stop id="stop3439" offset="0"/>
   <stop id="stop3441" style="stop-opacity:0" offset="1"/>
  </radialGradient>
  <radialGradient id="radialGradient2461" cx="62.625" cy="4.625" r="10.625" gradientTransform="matrix(1.1294 0 0 .28235 -58.729 20.694)" gradientUnits="userSpaceOnUse">
   <stop id="stop8840" offset="0"/>
   <stop id="stop8842" style="stop-opacity:0" offset="1"/>
  </radialGradient>
  <radialGradient id="radialGradient2456" cx="23.896" cy="3.99" r="20.397" gradientTransform="matrix(0 1.2316 -1.6257 0 18.487 -28.721)" gradientUnits="userSpaceOnUse">
   <stop id="stop2778" style="stop-color:#8badea" offset="0"/>
   <stop id="stop2780" style="stop-color:#6396cd" offset=".26238"/>
   <stop id="stop2782" style="stop-color:#3b7caf" offset=".66094"/>
   <stop id="stop2784" style="stop-color:#194c70" offset="1"/>
  </radialGradient>
  <linearGradient id="linearGradient2458" x1="18.379" x2="18.379" y1="44.98" y2="3.0816" gradientTransform="matrix(.51604 0 0 .51604 -.38499 -.38499)" gradientUnits="userSpaceOnUse">
   <stop id="stop2788" style="stop-color:#1f4b6a" offset="0"/>
   <stop id="stop2790" style="stop-color:#4083c2" offset="1"/>
  </linearGradient>
  <linearGradient id="linearGradient2453" x1="63.397" x2="63.397" y1="-12.489" y2="5.4676" gradientTransform="matrix(1.0863 0 0 1.0862 -55.567 15.814)" gradientUnits="userSpaceOnUse">
   <stop id="stop4875" style="stop-color:#fff" offset="0"/>
   <stop id="stop4877" style="stop-color:#fff;stop-opacity:0" offset="1"/>
  </linearGradient>
 </defs>
 <rect id="rect4923" x="39.25" y="22.25" width="5.5" height="4.5" rx="1" ry="1" style="color:black;display:block;fill:url(#linearGradient4925);stroke-linecap:round;stroke-linejoin:round;stroke-width:.5;stroke:url(#linearGradient4927)"/>
 <rect id="rect15011" x="39.25" y="15.25" width="5.5" height="4.5" rx="1" ry="1" style="color:black;display:block;fill:url(#linearGradient4899);stroke-linecap:round;stroke-linejoin:round;stroke-width:.5;stroke:url(#linearGradient4907)"/>
 <path id="rect14772" d="m1.501 8.6302 0.0039073 26.72c0 0.07888 0.088802 0.15021 0.18678 0.15021l10.812 0.01563-0.0039 4.8533c0 0.07127 0.0224 0.12634 0.12428 0.12677l18.756-0.0078c0.09242-0.0037 0.12428-0.06374 0.12428-0.12677l0.0039-4.8689 8.9924 0.0078v-26.997h-38.875c-0.078447 0.0043-0.13209 0.05255-0.12428 0.12677z" style="color:black;display:block;fill:url(#radialGradient4820);stroke:#28390d"/>
 <path id="path14957" d="m25 18.472 0.06435 0.53094 2.4244 1.8922v4.6038h-17.059v3.9333" style="color:black;display:block;fill:none;stroke-width:.5;stroke:#305526"/>
 <path id="path14826" d="m15.504 37.961 0.05485-5.645 1.901-2.7914h14.009l2.0442-2.0245 0.04419-3.0336-8.0431-5.9613 8.1101 0.04703-0.1875-3.9897h-8.9375" style="color:black;display:block;fill:none;stroke-width:.5;stroke:#305526"/>
 <path id="path14842" d="m19.5 37.961 0.05485-5.7807 1.901-2.6665" style="color:black;display:block;fill:none;stroke-width:.5;stroke:#305526"/>
 <path id="path14844" d="m22.5 37.961 0.05485-5.7807 1.901-2.6665" style="color:black;display:block;fill:none;stroke-width:.5;stroke:#305526"/>
 <path id="path14846" d="m25.544 37.961 0.054846-5.7807 1.901-2.6665" style="color:black;display:block;fill:none;stroke-width:.5;stroke:#305526"/>
 <path id="path14796" d="m15.719 34.594c-0.56509 0.12423-0.71875 0.66388-0.71875 0.90625v4.4062h2v-4.4062c0-0.277-0.20033-0.90625-1-0.90625-0.09801 0-0.20052-0.01775-0.28125 0zm3 0c-0.56509 0.12423-0.71875 0.66388-0.71875 0.90625v4.4062h2v-4.4062c0-0.277-0.20033-0.90625-1-0.90625-0.09801 0-0.20052-0.01775-0.28125 0zm3.0312 0c-0.56509 0.12423-0.75 0.66388-0.75 0.90625v4.4062h2v-4.4062c0-0.277-0.20033-0.90625-1-0.90625-0.09801 0-0.16927-0.01775-0.25 0zm3 0c-0.56509 0.12423-0.75 0.66388-0.75 0.90625v4.4062h2v-4.4062c0-0.277-0.20033-0.90625-1-0.90625-0.09801 0-0.16927-0.01775-0.25 0zm3 0c-0.56509 0.12423-0.75 0.66388-0.75 0.90625v4.4062h2v-4.4062c0-0.277-0.20033-0.90625-1-0.90625-0.09801 0-0.16927-0.01775-0.25 0z" style="color:black;display:block;fill:url(#linearGradient4022)"/>
 <path id="path15029" d="m6.5 14.5-2.9688 1.0625v1.875 10.062l7 0.0625" style="color:black;display:block;fill:none;stroke-width:.5;stroke:#305526"/>
 <rect id="rect14857" x="7.4722" y="12.504" width="16.056" height="7.9305" rx=".94194" ry=".94194" style="color:black;display:block;fill:#555753;stroke:#2e3436"/>
 <rect id="rect14859" x="8.4166" y="13.511" width="14.116" height="5.8817" rx="0" ry="0" style="color:black;display:block;fill:none;opacity:.17045;stroke:url(#linearGradient4005)"/>
 <path id="path15031" d="m6.5 16.5-2.9844 1.0625" style="color:black;display:block;fill:none;stroke-width:.5;stroke:#305526"/>
 <path id="path15033" d="m6.5 18.5-3 1.5" style="color:black;display:block;fill:#98a332;stroke-width:.5;stroke:#305526"/>
 <path id="rect14875" d="m23 14v1h2v-1h-2zm0 2v1h2v-1h-2zm0 2v1h2v-1h-2z" style="color:black;display:block;fill:url(#linearGradient4859)"/>
 <path id="rect14901" d="m9 11v2h1v-2h-1zm2 0v2h1v-2h-1zm2 0v2h1v-2h-1zm2 0v2h1v-2h-1zm2 0v2h1v-2h-1zm2 0v2h1v-2h-1zm2 0v2h1v-2h-1z" style="color:black;display:block;fill:url(#linearGradient3982)"/>
 <path id="path14959" d="m9.4576 21.86 1.0607 3.6391h1.9445l-1.0607-3.6391" style="color:black;display:block;fill:none;stroke-width:.5;stroke:#305526"/>
 <path id="path14961" d="m13.458 21.86 1.0607 3.6391h1.9445l-1.0607-3.6391" style="color:black;display:block;fill:none;stroke-width:.5;stroke:#305526"/>
 <path id="path14963" d="m17.458 21.76 1.0607 3.7391h1.9445l-1.0607-3.7391" style="color:black;display:block;fill:none;stroke-width:.5;stroke:#305526"/>
 <path id="path14965" d="m21.458 21.782 1.0607 3.7171" style="color:black;display:block;fill:none;stroke-width:.5;stroke:#305526"/>
 <path id="rect14929" d="m9 20v2h1v-2h-1zm2 0v2h1v-2h-1zm2 0v2h1v-2h-1zm2 0v2h1v-2h-1zm2 0v2h1v-2h-1zm2 0v2h1v-2h-1zm2 0v2h1v-2h-1z" style="color:black;display:block;fill:url(#linearGradient3956)"/>
 <path id="path14989" d="m2.5012 34.502 10.998-5.6e-5 0.01105 4.9831 17.001-0.0024-0.0029-4.9873 8.9915 0.0027c4e-3 -4.09e-4 0-24.994 0-24.994l-36.995-0.0022c0.00404 8.3386-0.0035 25-0.0035 25l7.39e-5 -9e-6z" style="color:black;display:block;fill:none;opacity:.4;stroke:url(#radialGradient4830)"/>
 <path id="path15001" d="m40.5 42v-38.5h5.5" style="color:black;display:block;fill:none;stroke-linecap:square;stroke-linejoin:round;stroke-width:3;stroke:url(#linearGradient4891)"/>
 <path id="path15003" d="m40.5 42v-38.5h5.5" style="color:black;display:block;fill:none;stroke-linecap:square;stroke-linejoin:round;stroke-width:2;stroke:url(#linearGradient4867)"/>
 <path id="path15005" d="m35.486 14a1.4857 1.4857 0 1 1-2.9714 0 1.4857 1.4857 0 1 1 2.9714 0z" style="color:black;display:block;fill:#477ec5;stroke-linecap:round;stroke-linejoin:round;stroke-width:.5;stroke:#334560"/>
 <path id="path15007" d="m35.486 18.986a1.4857 1.4857 0 1 1-2.9714 0 1.4857 1.4857 0 1 1 2.9714 0z" style="color:black;display:block;fill:#477ec5;stroke-linecap:round;stroke-linejoin:round;stroke-width:.5;stroke:#334560"/>
 <path id="path15009" d="m35.486 24.014a1.4857 1.4857 0 1 1-2.9714 0 1.4857 1.4857 0 1 1 2.9714 0z" style="color:black;display:block;fill:#477ec5;stroke-linecap:round;stroke-linejoin:round;stroke-width:.5;stroke:#334560"/>
 <path id="path2983" d="m39 40.5c0 1.3807-7.1634 2.5-16 2.5-8.8366 0-16-1.1193-16-2.5 0-1.3807 7.1634-2.5 16-2.5 8.8366 0 16 1.1193 16 2.5z" style="fill:url(#radialGradient3018);opacity:.45"/>
 <path id="path14848" d="m28.5 37.961 0.05485-5.7807 1.901-2.6665" style="color:black;display:block;fill:none;stroke-width:.5;stroke:#305526"/>
 <g id="layer1" transform="translate(25,23)">
  <path id="path8836" d="m24 22c0 1.6569-5.3726 3-12 3-6.6274 0-12-1.3431-12-3s5.3726-3 12-3c6.6274 0 12 1.3431 12 3z" style="fill-rule:evenodd;fill:url(#radialGradient2461);opacity:.3"/>
  <path id="path2555" d="m12 1.5018c-5.7926 0-10.498 4.7057-10.498 10.498 0 5.7926 4.7057 10.498 10.498 10.498 5.7926 0 10.498-4.7057 10.498-10.498 0-5.7926-4.7057-10.498-10.498-10.498z" style="fill:url(#radialGradient2456);stroke-linecap:round;stroke-linejoin:round;stroke-width:1.0037;stroke:url(#linearGradient2458)"/>
  <path id="path2463" d="m21.5 12c0 5.2469-4.2536 9.5003-9.4999 9.5003-5.2468 0-9.5001-4.2535-9.5001-9.5003 0-5.2466 4.2534-9.4997 9.5001-9.4997 5.2463 0 9.4999 4.253 9.4999 9.4997z" style="fill:none;opacity:.4;stroke:url(#linearGradient2453)"/>
  <path id="text3482" d="m9 10.851c0.13386 0.36388 0.28452 0.65884 0.60545 0.25553 0.39788-0.23673 1.731-1.2744 1.5976-0.25798-0.42688 1.8808-0.94648 3.7418-1.3438 5.6285-0.41543 1.033 0.52793 1.9674 1.5129 1.2956 1.0469-0.43158 1.9478-1.1346 2.8681-1.7794-0.12558-0.30796-0.20927-0.75035-0.55625-0.34761-0.4556 0.20679-1.4507 1.1817-1.6355 0.37762 0.3827-2.0366 1.0918-3.9978 1.545-6.0181 0.4171-0.92895-0.2641-2.1027-1.2838-1.3343-1.2216 0.53205-2.2432 1.4012-3.3097 2.1802zm4.5338-6.8497c-1.2464-0.066145-1.8981 1.9431-0.71361 2.4929 0.96093 0.39409 2.0072-0.59147 1.7725-1.5763-0.072852-0.51279-0.53324-0.93388-1.0588-0.91663h-1e-6z" style="opacity:.2"/>
  <path id="path3536" d="m9 11.851c0.13386 0.36388 0.28452 0.65884 0.60545 0.25553 0.39788-0.23673 1.731-1.2744 1.5976-0.25798-0.42688 1.8808-0.94648 3.7418-1.3438 5.6285-0.41543 1.033 0.52793 1.9674 1.5129 1.2956 1.0469-0.43158 1.9478-1.1346 2.8681-1.7794-0.12558-0.30796-0.20927-0.75035-0.55625-0.34761-0.4556 0.20679-1.4507 1.1817-1.6355 0.37762 0.3827-2.0366 1.0918-3.9978 1.545-6.0181 0.4171-0.92895-0.2641-2.1027-1.2838-1.3343-1.2216 0.53205-2.2432 1.4012-3.3097 2.1802zm4.5338-6.8497c-1.2464-0.066145-1.8981 1.9431-0.71361 2.4929 0.96093 0.39409 2.0072-0.59147 1.7725-1.5763-0.072852-0.51279-0.53324-0.93388-1.0588-0.91663h-1e-6z" style="fill:#fff"/>
 </g>
 <path id="rect14869" d="m6 14v1h2v-1h-2zm0 2v1h2v-1h-2zm0 2v1h2v-1h-2z" style="color:black;display:block;fill:url(#linearGradient4002)"/>
</svg>
