<?xml version="1.0" encoding="UTF-8"?>
<!-- Created with Inkscape (http://www.inkscape.org/) -->
<svg id="svg4908" width="48" height="48" version="1.0" xmlns="http://www.w3.org/2000/svg" xmlns:xlink="http://www.w3.org/1999/xlink">
 <defs id="defs4910">
  <linearGradient id="linearGradient5946">
   <stop id="stop5948" style="stop-color:#fff" offset="0"/>
   <stop id="stop5950" style="stop-color:#fff;stop-opacity:0" offset="1"/>
  </linearGradient>
  <linearGradient id="linearGradient3888" x1="9.1899" x2="6.7953" y1="38.017" y2="40.668" gradientTransform="matrix(.95086 0 0 .94972 1.1023 1.1877)" gradientUnits="userSpaceOnUse">
   <stop id="stop5956" style="stop-color:#fff" offset="0"/>
   <stop id="stop5958" style="stop-color:#fff;stop-opacity:0" offset="1"/>
  </linearGradient>
  <linearGradient id="linearGradient3891" x1="39.767" x2="40.912" y1="38.498" y2="40.531" gradientTransform="matrix(.95086 0 0 .94972 1.1023 1.1877)" gradientUnits="userSpaceOnUse" xlink:href="#linearGradient5946"/>
  <linearGradient id="linearGradient3896" x1="8.0708" x2="8.1333" y1="9.5092" y2="5.6961" gradientTransform="matrix(2.0764 0 0 2.0772 1.1448 .13342)" gradientUnits="userSpaceOnUse">
   <stop id="stop5568" style="stop-color:#eeeeec" offset="0"/>
   <stop id="stop5570" style="stop-color:#eeeeec;stop-opacity:0" offset="1"/>
  </linearGradient>
  <linearGradient id="linearGradient3898" x1="11.054" x2="11.054" y1="7.0687" y2="-.064231" gradientTransform="matrix(2.0915 0 0 2.0772 .88082 .13342)" gradientUnits="userSpaceOnUse">
   <stop id="stop5686" style="stop-color:#fff" offset="0"/>
   <stop id="stop5688" style="stop-color:#fbfbfa;stop-opacity:0" offset="1"/>
  </linearGradient>
  <radialGradient id="radialGradient3901" cx="4.0799" cy="5.0787" r="9.9909" gradientTransform="matrix(1.7011 0 -2.5149e-6 2.0544 6.1379 1.3749)" gradientUnits="userSpaceOnUse">
   <stop id="stop5584" style="stop-color:#f1f1ef" offset="0"/>
   <stop id="stop5586" style="stop-color:#dcdfd8" offset="1"/>
  </radialGradient>
  <linearGradient id="linearGradient3903" x1="16.066" x2="16.363" y1="26.937" y2="2.9877" gradientTransform="matrix(.95086 0 0 .94972 1.1023 1.1877)" gradientUnits="userSpaceOnUse">
   <stop id="stop5556" style="stop-color:#7d7f79" offset="0"/>
   <stop id="stop5558" style="stop-color:#a5a7a2" offset="1"/>
  </linearGradient>
  <linearGradient id="linearGradient3913" x1="38" x2="40" y1="9" y2="7" gradientUnits="userSpaceOnUse" xlink:href="#linearGradient5946"/>
  <linearGradient id="linearGradient2783">
   <stop id="stop2785" style="stop-color:#8fb3d9" offset="0"/>
   <stop id="stop2787" style="stop-color:#4d78b7" offset="1"/>
  </linearGradient>
  <linearGradient id="linearGradient4142" x1="24" x2="24" y1="3" y2="45" gradientUnits="userSpaceOnUse" xlink:href="#linearGradient2783"/>
  <linearGradient id="linearGradient4146" x1="24" x2="24" y1="3" y2="45" gradientTransform="matrix(1.0476 0 0 1.0476 -1.1429 -1.1429)" gradientUnits="userSpaceOnUse" xlink:href="#linearGradient2783"/>
 </defs>
 <g id="g4169">
  <rect id="rect4144" x="2" y="2" width="44" height="44" rx="4.5" ry="4.5" style="fill:url(#linearGradient4146);opacity:.3"/>
  <rect id="rect3915" x="3" y="3" width="42" height="42" rx="3.8" ry="3.8" style="fill:url(#linearGradient4142)"/>
  <path id="path5548" d="m41.792 5.6086-4.1924 3.94v28.44l4.0943 3.7635 0.09809-36.144z" style="fill-rule:evenodd;fill:#d3d7cf"/>
  <rect id="rect4965" x="4.5" y="4.5" width="39" height="39" rx="2.5" ry="2.5" style="fill:url(#radialGradient3901);stroke-linecap:round;stroke:url(#linearGradient3903)"/>
  <rect id="rect5570" x="10.5" y="9.5" width="27" height="27" rx="1.473" ry="1.473" style="fill:url(#linearGradient3896);stroke-linecap:round;stroke:url(#linearGradient3898)"/>
  <rect id="rect5580" x="5.5" y="5.5" width="37" height="37" rx="1.3391" ry="1.3391" style="fill:none;opacity:.42708;stroke-linecap:round;stroke:#fff"/>
  <path id="path5574" d="m40.868 6.5641-3.5694 3.4796" style="fill-rule:evenodd;fill:#eff0ed;stroke-width:1px;stroke:url(#linearGradient3913)"/>
  <path id="path5576" d="m37.041 36.157 3.7479 4.1933" style="fill:none;stroke-width:1px;stroke:url(#linearGradient3891)"/>
  <path id="path5578" d="m10.702 36.288-3.7479 4.1933" style="fill:none;stroke-width:1px;stroke:url(#linearGradient3888)"/>
  <path id="text1891" d="m26.857 30.955 2.1426 0.044922v2h-9v-2h2v-8h-2v-2h7v10"/>
  <path id="path2782" transform="matrix(1.6667 0 0 1.6667 -24.667 -21)" d="m31 22.5a1.5 1.5 0 1 1-3 0 1.5 1.5 0 1 1 3 0z"/>
 </g>
</svg>
