<?xml version="1.0" encoding="UTF-8"?>
<!-- Created with Inkscape (http://www.inkscape.org/) -->
<svg id="svg3141" width="48" height="48" version="1.0" xmlns="http://www.w3.org/2000/svg" xmlns:xlink="http://www.w3.org/1999/xlink">
 <defs id="defs3143">
  <linearGradient id="linearGradient2720" x1="302.86" x2="302.86" y1="366.65" y2="609.51" gradientTransform="matrix(.067325 0 0 .0147 -.34114 39.04)" gradientUnits="userSpaceOnUse">
   <stop id="stop5050" style="stop-opacity:0" offset="0"/>
   <stop id="stop5056" offset=".5"/>
   <stop id="stop5052" style="stop-opacity:0" offset="1"/>
  </linearGradient>
  <radialGradient id="radialGradient2717" cx="605.71" cy="486.65" r="117.14" gradientTransform="matrix(-.02304 0 0 .0147 21.623 39.04)" gradientUnits="userSpaceOnUse" xlink:href="#linearGradient5060"/>
  <linearGradient id="linearGradient5060">
   <stop id="stop5062" offset="0"/>
   <stop id="stop5064" style="stop-opacity:0" offset="1"/>
  </linearGradient>
  <radialGradient id="radialGradient2714" cx="605.71" cy="486.65" r="117.14" gradientTransform="matrix(.02304 0 0 .0147 26.361 39.04)" gradientUnits="userSpaceOnUse" xlink:href="#linearGradient5060"/>
  <linearGradient id="linearGradient2711" x1="-51.786" x2="-51.786" y1="50.786" y2="2.9062" gradientTransform="matrix(.8075 0 0 .89483 59.41 -.98055)" gradientUnits="userSpaceOnUse">
   <stop id="stop3106" style="stop-color:#aaa" offset="0"/>
   <stop id="stop3108" style="stop-color:#c8c8c8" offset="1"/>
  </linearGradient>
  <linearGradient id="linearGradient2709" x1="25.132" x2="25.132" y1=".98521" y2="47.013" gradientTransform="matrix(1 0 0 .95617 -1.0065e-7 .085078)" gradientUnits="userSpaceOnUse">
   <stop id="stop3602" style="stop-color:#f4f4f4" offset="0"/>
   <stop id="stop3604" style="stop-color:#dbdbdb" offset="1"/>
  </linearGradient>
  <radialGradient id="radialGradient2706" cx="102" cy="112.3" r="139.56" gradientTransform="matrix(.3617 0 0 -.39078 .85106 49.517)" gradientUnits="userSpaceOnUse">
   <stop id="stop41" style="stop-color:#b7b8b9" offset="0"/>
   <stop id="stop47" style="stop-color:#ececec" offset=".18851"/>
   <stop id="stop49" style="stop-color:#fafafa;stop-opacity:0" offset=".25718"/>
   <stop id="stop51" style="stop-color:#fff;stop-opacity:0" offset=".30111"/>
   <stop id="stop53" style="stop-color:#fafafa;stop-opacity:0" offset=".5313"/>
   <stop id="stop55" style="stop-color:#ebecec;stop-opacity:0" offset=".8449"/>
   <stop id="stop57" style="stop-color:#e1e2e3;stop-opacity:0" offset="1"/>
  </radialGradient>
  <linearGradient id="linearGradient2700" x1="24" x2="24" y1="2" y2="46.017" gradientTransform="matrix(1 0 0 .97778 0 1.0333)" gradientUnits="userSpaceOnUse">
   <stop id="stop3213" style="stop-color:#fff" offset="0"/>
   <stop id="stop3215" style="stop-color:#fff;stop-opacity:0" offset="1"/>
  </linearGradient>
  <filter id="filter3212" x="-.14846" y="-.16434" width="1.2969" height="1.3287" color-interpolation-filters="sRGB">
   <feGaussianBlur id="feGaussianBlur3214" stdDeviation="0.77391625"/>
  </filter>
  <linearGradient id="linearGradient2696" x1="32.892" x2="36.358" y1="8.059" y2="5.4565" gradientTransform="matrix(.9977 0 0 1.0407 .1638 .89421)" gradientUnits="userSpaceOnUse">
   <stop id="stop8591" style="stop-color:#fefefe" offset="0"/>
   <stop id="stop8593" style="stop-color:#cbcbcb" offset="1"/>
  </linearGradient>
  <linearGradient id="linearGradient3112" x1="30.502" x2="29.725" y1="55.647" y2="24.654" gradientUnits="userSpaceOnUse" xlink:href="#linearGradient3156"/>
  <linearGradient id="linearGradient3110" x1="28.221" x2="28.29" y1="-2.3103" y2="20.664" gradientUnits="userSpaceOnUse" xlink:href="#linearGradient3156"/>
  <linearGradient id="linearGradient3108" x1="27.889" x2="28.29" y1="-.81503" y2="20.664" gradientUnits="userSpaceOnUse" xlink:href="#linearGradient3156"/>
  <linearGradient id="linearGradient3106" x1="24.335" x2="28.29" y1="61.853" y2="20.664" gradientUnits="userSpaceOnUse" xlink:href="#linearGradient3156"/>
  <radialGradient id="radialGradient3104" cx="21.8" cy="10.143" r="14" fy="3.6817" gradientTransform="matrix(1.117 -.029228 .017775 .77129 -11.972 .055783)" gradientUnits="userSpaceOnUse" xlink:href="#linearGradient3156"/>
  <linearGradient id="linearGradient3156">
   <stop id="stop3158" style="stop-color:#fff" offset="0"/>
   <stop id="stop3160" style="stop-color:#fff;stop-opacity:0" offset="1"/>
  </linearGradient>
  <radialGradient id="radialGradient3102" cx="68.432" cy="25.946" r="13" gradientTransform="matrix(1.3261 -.02467 .013598 .73096 -80.67 -12.369)" gradientUnits="userSpaceOnUse" xlink:href="#linearGradient3156"/>
  <linearGradient id="linearGradient3098" x1="80.292" x2="76.337" y1="51.096" y2="20.663" gradientTransform="translate(-58 -21.006)" gradientUnits="userSpaceOnUse" xlink:href="#linearGradient2532"/>
  <radialGradient id="radialGradient3096" cx="19.126" cy="12.904" r="22.464" gradientTransform="matrix(1.1062 -.0037037 .0029629 .89853 -9.1962 -3.0978)" gradientUnits="userSpaceOnUse">
   <stop id="stop2541" style="stop-color:#f0c178" offset="0"/>
   <stop id="stop2543" style="stop-color:#e18941" offset=".5"/>
   <stop id="stop2545" style="stop-color:#ec4f18" offset="1"/>
  </radialGradient>
  <radialGradient id="radialGradient3740" cx="16.961" cy="5.8834" r="22.105" gradientTransform="matrix(0 2 -1.3459 0 28.919 -35.008)" gradientUnits="userSpaceOnUse">
   <stop id="stop3722" style="stop-color:#8badea" offset="0"/>
   <stop id="stop3728" style="stop-color:#6396cd" offset=".5"/>
   <stop id="stop3730" style="stop-color:#3b7caf" offset=".84091"/>
   <stop id="stop3724" style="stop-color:#194c70" offset="1"/>
  </radialGradient>
  <linearGradient id="linearGradient3769" x1="10.148" x2="10.55" y1="43.124" y2="-1.0863" gradientUnits="userSpaceOnUse">
   <stop id="stop3765" style="stop-color:#1f4b6a" offset="0"/>
   <stop id="stop3767" style="stop-color:#4083c2" offset="1"/>
  </linearGradient>
  <linearGradient id="linearGradient2945" x1="21" x2="21" y1="-1.2163" y2="43.254" gradientUnits="userSpaceOnUse">
   <stop id="stop4546-7" style="stop-color:#fff" offset="0"/>
   <stop id="stop4548-8" style="stop-color:#fff;stop-opacity:0" offset="1"/>
  </linearGradient>
  <linearGradient id="linearGradient2532">
   <stop id="stop2534" style="stop-color:#bb2b12" offset="0"/>
   <stop id="stop2536" style="stop-color:#cd7233" offset="1"/>
  </linearGradient>
  <linearGradient id="linearGradient3725" x1="16.642" x2="15.386" y1="26.503" y2="3.4852" gradientUnits="userSpaceOnUse" xlink:href="#linearGradient2532"/>
 </defs>
 <g id="layer1">
  <rect id="rect2879" x="7.7378" y="44.43" width="32.508" height="3.5701" style="fill:url(#linearGradient2720);opacity:.3"/>
  <path id="path2881" d="m7.7378 44.43v3.5699c-1.1865 0.0067-2.8684-0.79982-2.8684-1.7852 0-0.98533 1.324-1.7847 2.8684-1.7847z" style="fill:url(#radialGradient2717);opacity:.3"/>
  <path id="path2883" d="m40.246 44.43v3.5699c1.1865 0.0067 2.8684-0.79982 2.8684-1.7852 0-0.98533-1.324-1.7847-2.8684-1.7847z" style="fill:url(#radialGradient2714);opacity:.3"/>
  <path id="path4160" d="m6.5 2.4972h24.061c1.4069 0.47465 8.9655 5.8822 10.939 9.6264v34.379h-35v-44.006z" style="fill:url(#linearGradient2709);stroke-linejoin:round;stroke-width:.99992;stroke:url(#linearGradient2711)"/>
  <path id="path4191" d="m7.3617 46c-0.1993 0-0.3617-0.17546-0.3617-0.39078v-42.204c0-0.21571 0.1624-0.39078 0.3617-0.39078 7.4831 0.10801 15.776-0.16158 23.25 0.026895l10.283 8.866 0.10598 33.702c0 0.21532-0.16204 0.39078-0.3617 0.39078h-33.277z" style="fill:url(#radialGradient2706)"/>
  <path id="path2435" d="m40.5 12.259v33.263h-33v-42.045h22.866" style="fill:none;opacity:.6;stroke-linejoin:round;stroke-width:.99992;stroke:url(#linearGradient2700)"/>
  <path id="path12038" d="m28.617 2.9213c4.2825 0 2.1532 8.4832 2.1532 8.4832s10.358-1.8023 10.358 2.8187c0-2.6097-11.302-10.729-12.511-11.302z" style="fill-rule:evenodd;filter:url(#filter3212);opacity:.4"/>
  <path id="path4474" d="m28.617 2.9213c3.1865 0 2.3358 7.6619 2.3358 7.6619s10.175-0.98105 10.175 3.64c0-1.1259 0.08591-1.9322-0.13378-2.2836-1.5783-2.5242-8.3955-8.1884-10.857-8.9308-0.18422-0.055555-0.5927-0.087535-1.5198-0.087535z" style="fill-rule:evenodd;fill:url(#linearGradient2696)"/>
  <g id="g3075" transform="translate(59.952 -9.8434)">
   <path id="path4022" d="m-22.001 37.843c0 7.732-6.268 14-14 14-7.732 0-14-6.268-14-14 0-7.732 6.268-14 14-14 7.732 0 14 6.268 14 14z" style="opacity:.2"/>
   <g id="g3223" transform="translate(-52.001 20.753)">
    <g id="g6349">
     <path id="path6453" d="m29.501 16.042c0 7.4792-6.0486 13.549-13.501 13.549-7.4527 0-13.501-6.0701-13.501-13.549 0-7.4792 6.0486-13.549 13.501-13.549 7.4527 0 13.501 6.0701 13.501 13.549v0z" style="fill:url(#radialGradient3096);stroke-linecap:round;stroke-linejoin:round;stroke-width:.99742;stroke:url(#linearGradient3098)"/>
     <path id="path6457" d="m28.509 12.98-0.12145 0.45799c-0.35941-0.29207-0.76293-0.53768-1.1727-0.7942l-0.89948 0.09127-0.82179-0.6406v0.7928l0.70407 0.36738 0.46863 0.36597 0.62627-0.48841c0.15764 0.20362 0.31314 0.40723 0.4697 0.61085v0.61018l-0.70515 0.54926-1.2904 0.61085-0.97729 0.67251-0.62627-0.48989 0.31314-0.54926-0.6253-0.48841-1.0561-1.5566-0.89948-0.70145-0.23544 0.18262 0.35306 0.88555 0.66415 0.51883c0.37931 0.7551 0.75454 1.4768 1.2527 2.1986 0.7724 0 1.5006-0.05654 2.2677-0.12318v0.42756l-0.93844 1.5874-0.86064 0.67103-0.70407 1.0392v1.7087l0.23544 0.67251-0.39094 0.30438-0.86172 0.36664-0.89948 0.51883 0.74399 0.57976-1.0172 0.61159 0.19541 0.39566-1.5259 1.1913h-1.0161l-0.86064 0.36664h-0.54858v-0.48841l-0.23329-0.9783c-0.3027-0.61307-0.61788-1.2218-0.93844-1.8305 0-0.4493 0.03885-0.89423 0.0778-1.3435l0.39201-0.61018-0.54858-0.73336 0.03992-1.0072-0.74399-0.57976 0.372-0.83917-0.60529-0.47357h-1.0571l-0.35198-0.27463-1.0561 0.45836-0.42978-0.33659-0.97836 0.58005c-0.66415-0.5192-1.3294-1.038-1.9945-1.5569l-0.78187-1.2826 0.70407-0.73187-0.39094-0.30505 0.85956-1.4051c0.70622-0.6058 1.4439-1.187 2.19-1.7703l1.3303-0.2442 1.4859-0.12177 1.0172 0.18336 1.447 1.0065 0.50866-0.3964 0.703-0.06085 1.3303 0.30505h1.0172l0.70407-0.42756 0.31314-0.30505-0.70515-0.30505-1.1738-0.06085c-0.32573-0.31158-0.62842-0.63911-1.0152-0.91597l-0.39201 0.12177-0.15657 0.7942-0.70407-0.54926-0.15549-0.61159-0.78187-0.42608h-0.31421l0.78284 0.61018-0.31314 0.54926-0.6253 0.12177 0.39094-0.54926-0.70515-0.24346-0.62423-0.48841-1.1749 0.18262-0.15549 0.24346-0.70407 0.30579-0.39094 0.67177-0.97729 0.33548-0.43086-0.33548h-0.46863v-1.0993l1.0172-0.36664h0.78187l-0.15764-0.42682-0.62423-0.42756 1.0551-0.15293 0.58635-0.45724 0.46863-0.55h0.86172l-0.23544-0.42682 0.54858-0.24421v0.48841l1.1727 0.18262 1.1727-0.67103 0.07877-0.30579 1.0161-0.48804c-0.3678 0.031537-0.7356 0.054688-1.095 0.12214v-0.54993l0.39094-0.61055h-0.39094l-0.85913 0.54926-0.23544 0.30542 0.23544 0.42793-0.39201 0.73187-0.6253-0.24421-0.54643-0.42682-0.86172 0.42682-0.31314-0.97645 1.4859-0.6714v-0.36664l0.93941-0.42719 1.4859-0.24458 1.0172 0.24458 1.4081 0.61018h-1.0172l1.0172 0.73262 0.78187-0.61018s3.1112 1.5275 4.7181 3.64c1.5636 2.0555 2.218 4.3917 2.2864 4.8773h-2e-6z" style="fill:url(#linearGradient3725)"/>
     <path id="path6461" d="m28.504 15.956c0 6.9234-5.602 12.542-12.504 12.542-6.9025 0-12.504-5.619-12.504-12.542 0-6.9234 5.602-12.542 12.504-12.542 6.9024 0 12.504 5.619 12.504 12.542z" style="fill:none;opacity:.7;stroke-linecap:round;stroke-linejoin:round;stroke-width:.99113;stroke:url(#radialGradient3102)"/>
     <path id="path6463" d="m28.2 11.72c0 4.692-5.4656 7.274-12.2 7.274-6.7344 0-12.2-2.582-12.2-7.274 0-4.692 5.4656-9.7259 12.2-9.7259 6.7344 0 12.2 5.0339 12.2 9.7259z" style="fill:url(#radialGradient3104);opacity:.5"/>
     <path id="path6465" transform="matrix(.70278 -.19419 .12752 .4762 -7.1217 10.481)" d="m46 24.25c0 9.665-7.835 17.5-17.5 17.5s-17.5-7.835-17.5-17.5 7.835-17.5 17.5-17.5 17.5 7.835 17.5 17.5v0z" style="fill:none;opacity:.5;stroke-linecap:round;stroke-width:1.6632;stroke:url(#linearGradient3106)"/>
     <path id="path6467" transform="matrix(.71575 -.0041918 .00071473 .45859 -4.4163 3.4929)" d="m46 24.25c0 9.665-7.835 17.5-17.5 17.5s-17.5-7.835-17.5-17.5 7.835-17.5 17.5-17.5 17.5 7.835 17.5 17.5v0z" style="fill:none;opacity:.5;stroke-linecap:round;stroke-width:1.6557;stroke:url(#linearGradient3108)"/>
     <path id="path6469" transform="matrix(-.064839 -.71519 .45309 -.02554 5.3604 36.984)" d="m46 24.25c0 9.665-7.835 17.5-17.5 17.5s-17.5-7.835-17.5-17.5 7.835-17.5 17.5-17.5 17.5 7.835 17.5 17.5v0z" style="fill:none;opacity:.5;stroke-linecap:round;stroke-width:1.7143;stroke:url(#linearGradient3110)"/>
     <path id="path6471" transform="matrix(-.1055 -.72482 .32007 .011117 11.335 36.386)" d="m46 24.25c0 9.665-7.835 17.5-17.5 17.5s-17.5-7.835-17.5-17.5 7.835-17.5 17.5-17.5 17.5 7.835 17.5 17.5v0z" style="fill:none;opacity:.5;stroke-linecap:round;stroke-width:2.0761;stroke:url(#linearGradient3112)"/>
     <g id="g6473" transform="matrix(.64316 -.17495 .17495 .64316 -3.5337 4.0368)" style="opacity:.4;stroke-width:1.5914">
      <path id="path6475" transform="matrix(.85714 0 0 .85714 4.1071 5.0357)" d="m31.375 37.875c0 0.9665-0.7835 1.75-1.75 1.75s-1.75-0.7835-1.75-1.75 0.7835-1.75 1.75-1.75 1.75 0.7835 1.75 1.75z" style="fill:#fff;opacity:.5"/>
     </g>
     <g id="g6477" transform="matrix(.6353 -.15135 .20161 .64913 -16.302 5.1167)" style="opacity:.4;stroke-width:1.7189">
      <path id="path6479" transform="matrix(.85714 0 0 .85714 4.1071 5.0357)" d="m31.375 37.875c0 0.9665-0.7835 1.75-1.75 1.75s-1.75-0.7835-1.75-1.75 0.7835-1.75 1.75-1.75 1.75 0.7835 1.75 1.75z" style="fill:#fff;opacity:.5"/>
     </g>
     <g id="g6481" transform="matrix(.61635 -.21252 .25377 .63174 -9.6985 -11.426)" style="opacity:.4;stroke-width:1.7189">
      <path id="path6483" transform="matrix(.85714 0 0 .85714 4.1071 5.0357)" d="m31.375 37.875c0 0.9665-0.7835 1.75-1.75 1.75s-1.75-0.7835-1.75-1.75 0.7835-1.75 1.75-1.75 1.75 0.7835 1.75 1.75z" style="fill:#fff;opacity:.5"/>
     </g>
     <g id="g6485" transform="matrix(.66657 -.18801 -.011228 .63946 -11.243 -10.439)" style="opacity:.4;stroke-width:1.7189">
      <path id="path6487" transform="matrix(.85714 0 0 .85714 4.1071 5.0357)" d="m31.375 37.875c0 0.9665-0.7835 1.75-1.75 1.75s-1.75-0.7835-1.75-1.75 0.7835-1.75 1.75-1.75 1.75 0.7835 1.75 1.75z" style="fill:#fff;opacity:.5"/>
     </g>
    </g>
   </g>
  </g>
  <g id="g2663" transform="translate(76.808 -2.8916)">
   <circle id="circle51" transform="matrix(.45238 0 0 .45238 -76.308 3.383)" cx="21" cy="21.019" r="21" style="fill:url(#radialGradient3740);stroke-width:2.2105;stroke:url(#linearGradient3769)"/>
   <path id="path4552" d="m-75.803 14.833c-0.08842 0.01047 6.6163-1.0729 9.0878 6.0584 1.5416-6.6175 8.9658-6.6789 8.9038-6.6759 0.17685 0-6.1141-1.6745-8.9465 2.5882-2.8747-3.7634-9.2488-1.9707-9.045-1.9707z" style="fill:#173561"/>
   <path id="path53" d="m-75.895 13.833c-0.08842 0.01047 6.6163-1.0729 9.0878 6.0584 1.5416-6.6175 8.9658-6.6789 8.9038-6.6759 0.17685 0-6.1141-1.6745-8.9465 2.5882-2.8747-3.7634-9.2488-1.9707-9.045-1.9707z" style="fill:#fff"/>
   <path id="path4554" d="m-70.808 9.4139s3.9913-0.86333 5.5564 3.4776c0.98054-4.0481 5.4436-3.7033 5.4436-3.7033s-3.6304-1.4157-5.4702 1.2462c-1.881-2.3686-5.5313-1.0205-5.5298-1.0205z" style="fill:#173561"/>
   <path id="path55" d="m-70.808 8.4139s3.9913-0.86333 5.5564 3.4776c0.98054-4.0481 5.4436-3.7033 5.4436-3.7033s-3.6304-1.4157-5.4702 1.2462c-1.881-2.3686-5.5313-1.0205-5.5298-1.0205z" style="fill:#fff"/>
   <circle id="circle4534" transform="matrix(.40476 0 0 .40476 -75.308 4.3839)" cx="21" cy="21.019" r="21" style="fill:none;opacity:.3;stroke-width:2.4706;stroke:url(#linearGradient2945)"/>
  </g>
 </g>
</svg>
