<?xml version="1.0" encoding="UTF-8"?>
<!-- Created with Inkscape (http://www.inkscape.org/) -->
<svg id="svg3735" width="48px" height="48px" version="1.1" xmlns="http://www.w3.org/2000/svg" xmlns:cc="http://creativecommons.org/ns#" xmlns:dc="http://purl.org/dc/elements/1.1/" xmlns:rdf="http://www.w3.org/1999/02/22-rdf-syntax-ns#" xmlns:xlink="http://www.w3.org/1999/xlink">
 <defs id="defs3737">
  <linearGradient id="linearGradient2902" x1="22.72" x2="1.4802" y1="26.023" y2="26.023" gradientTransform="matrix(0 -.70247 -.67583 0 53.586 48.86)" gradientUnits="userSpaceOnUse">
   <stop id="stop4224" style="stop-color:#fff" offset="0"/>
   <stop id="stop4226" style="stop-color:#fff;stop-opacity:0" offset="1"/>
  </linearGradient>
  <linearGradient id="linearGradient2905" x1="10.912" x2="49.243" y1="23.891" y2="23.891" gradientTransform="matrix(0 .60568 -.58541 0 49.985 17.732)" gradientUnits="userSpaceOnUse">
   <stop id="stop4170-6-1" style="stop-color:#ecb56c" offset="0"/>
   <stop id="stop4172-1-1" style="stop-color:#e86225" offset=".74264"/>
   <stop id="stop4174-5-5" style="stop-color:#b07c0b;stop-opacity:0" offset="1"/>
  </linearGradient>
  <linearGradient id="linearGradient2907" x1="22.76" x2="22.76" y1="22.943" y2="42.242" gradientTransform="matrix(1.1627 0 0 1.203 9.5353 -3.2585)" gradientUnits="userSpaceOnUse">
   <stop id="stop4178-6-4" style="stop-color:#cc7032" offset="0"/>
   <stop id="stop3223-8" style="stop-color:#bb2d13" offset=".73855"/>
   <stop id="stop4180-1-1" style="stop-color:#a87300;stop-opacity:0" offset="1"/>
  </linearGradient>
  <radialGradient id="radialGradient2485" cx="6.7027" cy="73.616" r="7.2284" gradientTransform="matrix(3.3202 0 0 .69171 1.7455 -7.9211)" gradientUnits="userSpaceOnUse">
   <stop id="stop10693" offset="0"/>
   <stop id="stop10695" style="stop-opacity:0" offset="1"/>
  </radialGradient>
  <linearGradient id="linearGradient2480" x1="20.759" x2="20.759" y1="1" y2="45.017" gradientUnits="userSpaceOnUse">
   <stop id="stop3311" style="stop-color:#f6f6f6" offset="0"/>
   <stop id="stop3313" style="stop-color:#d2d2d2" offset="1"/>
  </linearGradient>
  <linearGradient id="linearGradient2482" x1="37.201" x2="37.201" y1="1" y2="45" gradientUnits="userSpaceOnUse">
   <stop id="stop3399" style="stop-color:#aaa" offset="0"/>
   <stop id="stop3401" style="stop-color:#8c8c8c" offset="1"/>
  </linearGradient>
  <linearGradient id="linearGradient2477" x1="86.133" x2="84.639" y1="105.1" y2="20.895" gradientTransform="matrix(.32448 0 0 .32448 3.2333 2.5577)" gradientUnits="userSpaceOnUse">
   <stop id="stop5130" style="stop-color:#e5e5e5" offset="0"/>
   <stop id="stop5132" style="stop-color:#ababab" offset="1"/>
  </linearGradient>
 </defs>
 <metadata id="metadata3740">
  <rdf:RDF>
   <cc:Work rdf:about="">
    <dc:format>image/svg+xml</dc:format>
    <dc:type rdf:resource="http://purl.org/dc/dcmitype/StillImage"/>
    <dc:title/>
   </cc:Work>
  </rdf:RDF>
 </metadata>
 <g id="layer1">
  <g id="g2569">
   <path id="path10689" d="m48 43c0 2.7614-10.745 5-24 5s-24-2.2386-24-5c0-2.7614 10.745-5 24-5s24 2.2386 24 5z" style="fill:url(#radialGradient2485);opacity:.2"/>
   <path id="rect3267" d="m21.031 1.5c-0.84613 0-1.5312 0.70191-1.5312 1.5625v3.0312c-1.5129 0.40311-2.9586 1.012-4.2812 1.7812l-2.1562-2.1562c-0.30427-0.30427-0.66875-0.46541-1.0625-0.46875s-0.7946 0.13835-1.0938 0.4375l-4.2188 4.2188c-0.5983 0.5983-0.57728 1.5477 0.03125 2.1562l2.1562 2.1562c-0.76926 1.3227-1.3781 2.7683-1.7812 4.2812h-3.0312c-0.86059 0-1.5625 0.68512-1.5625 1.5312v5.9375c0 0.84613 0.70191 1.5312 1.5625 1.5312h3.0312c0.40311 1.5129 1.012 2.9586 1.7812 4.2812l-2.1562 2.1562c-0.60853 0.60853-0.62955 1.5579-0.03125 2.1562l4.2188 4.2188c0.5983 0.5983 1.5477 0.57728 2.1562-0.03125l2.1562-2.1562c1.3227 0.76926 2.7683 1.3781 4.2812 1.7812v3.0312c0 0.86059 0.68512 1.5625 1.5312 1.5625h5.9375c0.84613 0 1.5312-0.70191 1.5312-1.5625v-3.0312c1.5129-0.40311 2.9586-1.012 4.2812-1.7812l2.1562 2.1562c0.60853 0.60853 1.5579 0.62956 2.1562 0.03125l4.2188-4.2188c0.5983-0.5983 0.57728-1.5477-0.03125-2.1562l-2.1562-2.1562c0.76926-1.3227 1.3781-2.7683 1.7812-4.2812h3.0312c0.86059 0 1.5625-0.68512 1.5625-1.5312v-5.9375c0-0.84613-0.70191-1.5312-1.5625-1.5312h-3.0312c-0.40311-1.5129-1.012-2.9586-1.7812-4.2812l2.1562-2.1562c0.60853-0.60853 0.62956-1.5579 0.03125-2.1562l-4.2188-4.2188c-0.5983-0.5983-1.5477-0.57728-2.1562 0.03125l-2.1562 2.1562c-1.3227-0.76926-2.7683-1.3781-4.2812-1.7812v-3.0312c0-0.86059-0.68512-1.5625-1.5312-1.5625h-5.9375zm2.9688 15c3.588 0 6.5 2.912 6.5 6.5s-2.912 6.5-6.5 6.5-6.5-2.912-6.5-6.5 2.912-6.5 6.5-6.5z" style="display:block;fill:url(#linearGradient2480);stroke-linejoin:round;stroke:url(#linearGradient2482)"/>
   <path id="path28" d="m24 9.5c-7.4439 0-13.5 6.0561-13.5 13.5 0 7.4439 6.0561 13.5 13.5 13.5s13.5-6.0561 13.5-13.5c0-7.4439-6.0561-13.5-13.5-13.5z" style="fill:none;stroke:url(#linearGradient2477)"/>
   <path id="path3315" d="m24 10c-7.1683-5e-7 -13 5.8317-13 13s5.8317 13 13 13c7.1683-1e-6 13-5.8317 13-13s-5.8317-13-13-13zm0 6c3.864 0 7 3.136 7 7s-3.136 7-7 7-7-3.136-7-7 3.136-7 7-7z" style="opacity:.05"/>
  </g>
  <path id="path2426" d="m47.557 33.057-11.587-14.216-11.529 14.216h5.0581v14.5h13v-14.5h5.0581z" style="fill:url(#linearGradient2905);stroke-linecap:round;stroke-linejoin:round;stroke-width:.88612;stroke:url(#linearGradient2907)"/>
  <path id="path2428" d="m45.634 32.057-9.633-11.875-9.7171 11.875h4.2148v15.5h11v-15.5h4.1353z" style="fill:none;opacity:.4;stroke-width:.88612;stroke:url(#linearGradient2902)"/>
 </g>
</svg>
