<?xml version="1.0" encoding="UTF-8"?>
<!-- Created with Inkscape (http://www.inkscape.org/) -->
<svg id="svg2466" width="48" height="48" version="1.0" xmlns="http://www.w3.org/2000/svg" xmlns:xlink="http://www.w3.org/1999/xlink">
 <defs id="defs2468">
  <linearGradient id="linearGradient5536" x1="302.86" x2="302.86" y1="366.65" y2="609.51" gradientTransform="matrix(.067325 0 0 .0147 -.33314 37.04)" gradientUnits="userSpaceOnUse">
   <stop id="stop5050" style="stop-opacity:0" offset="0"/>
   <stop id="stop5056" offset=".5"/>
   <stop id="stop5052" style="stop-opacity:0" offset="1"/>
  </linearGradient>
  <radialGradient id="radialGradient5533" cx="605.71" cy="486.65" r="117.14" gradientTransform="matrix(-.02304 0 0 .0147 21.631 37.04)" gradientUnits="userSpaceOnUse" xlink:href="#linearGradient5060"/>
  <linearGradient id="linearGradient5060">
   <stop id="stop5062" offset="0"/>
   <stop id="stop5064" style="stop-opacity:0" offset="1"/>
  </linearGradient>
  <radialGradient id="radialGradient5530" cx="605.71" cy="486.65" r="117.14" gradientTransform="matrix(.02304 0 0 .0147 26.369 37.04)" gradientUnits="userSpaceOnUse" xlink:href="#linearGradient5060"/>
  <linearGradient id="linearGradient5527-35-740-559-500-69-407-137" x1="-51.786" x2="-51.786" y1="53.624" y2="2.9062" gradientTransform="matrix(.8075 0 0 .89483 59.418 -2.9806)" gradientUnits="userSpaceOnUse">
   <stop id="stop5651" style="stop-color:#425a2d" offset="0"/>
   <stop id="stop5653" style="stop-color:#7f956d" offset="1"/>
  </linearGradient>
  <radialGradient id="radialGradient5525-350-404-120-454-819-403-836" cx="14.239" cy="11.49" r="18" gradientTransform="matrix(0 3.1786 -5.2985 0 74.199 -39.503)" gradientUnits="userSpaceOnUse">
   <stop id="stop5641" style="stop-color:#b5cc85" offset="0"/>
   <stop id="stop5643" style="stop-color:#9abe74" offset=".26238"/>
   <stop id="stop5645" style="stop-color:#669f4d" offset=".70495"/>
   <stop id="stop5647" style="stop-color:#47892b" offset="1"/>
  </radialGradient>
  <linearGradient id="linearGradient2464" x1="75.854" x2="91" y1="28" y2="12" gradientTransform="matrix(1.1872 0 0 .91915 -63.589 5.0314)" gradientUnits="userSpaceOnUse" spreadMethod="reflect">
   <stop id="stop4002" offset="0"/>
   <stop id="stop4004" style="stop-opacity:0" offset="1"/>
  </linearGradient>
  <linearGradient id="linearGradient2461" x1="75.854" x2="91" y1="28" y2="12" gradientTransform="matrix(1.1872 0 0 .91915 -63.46 3.9203)" gradientUnits="userSpaceOnUse" spreadMethod="reflect">
   <stop id="stop5295" style="stop-color:#fff" offset="0"/>
   <stop id="stop5297" style="stop-color:#fff;stop-opacity:0" offset="1"/>
  </linearGradient>
  <linearGradient id="linearGradient2457" x1="-43.305" x2="-25.366" y1="34.497" y2="20.127" gradientTransform="translate(69.562 -4.0093)" gradientUnits="userSpaceOnUse" spreadMethod="reflect">
   <stop id="stop3761" offset="0"/>
   <stop id="stop3763" style="stop-opacity:0" offset="1"/>
  </linearGradient>
  <radialGradient id="radialGradient5516" cx="102" cy="112.3" r="139.56" gradientTransform="matrix(.3617 0 0 -.39078 .85906 47.517)" gradientUnits="userSpaceOnUse">
   <stop id="stop41" offset="0"/>
   <stop id="stop47" offset=".18851"/>
   <stop id="stop49" style="stop-opacity:0" offset=".25718"/>
   <stop id="stop51" style="stop-opacity:0" offset="1"/>
  </radialGradient>
  <linearGradient id="linearGradient5513" x1="16.626" x2="20.055" y1="15.298" y2="24.628" gradientTransform="matrix(.74014 0 0 1.3934 6.2447 -7.3171)" gradientUnits="userSpaceOnUse">
   <stop id="stop2687" style="stop-color:#fff" offset="0"/>
   <stop id="stop2689" style="stop-color:#fff;stop-opacity:0" offset="1"/>
  </linearGradient>
  <linearGradient id="linearGradient5510" x1="24" x2="24" y1="2" y2="46.017" gradientTransform="matrix(1 0 0 .97778 .008002 -.96667)" gradientUnits="userSpaceOnUse">
   <stop id="stop3213" style="stop-color:#fff" offset="0"/>
   <stop id="stop3215" style="stop-color:#fff;stop-opacity:0" offset="1"/>
  </linearGradient>
  <linearGradient id="linearGradient5507" x1="35.517" x2="34.103" y1="4.8577" y2="6.5436" gradientTransform="translate(.008002)" gradientUnits="userSpaceOnUse">
   <stop id="stop4269" style="stop-color:#c4c4c4" offset="0"/>
   <stop id="stop4271" style="stop-color:#c4c4c4;stop-opacity:0" offset="1"/>
  </linearGradient>
  <filter id="filter3212" x="-.14846" y="-.16434" width="1.2969" height="1.3287" color-interpolation-filters="sRGB">
   <feGaussianBlur id="feGaussianBlur3214" stdDeviation="0.77391625"/>
  </filter>
  <linearGradient id="linearGradient5503" x1="32.892" x2="36.358" y1="8.059" y2="5.4565" gradientTransform="matrix(.9977 0 0 1.0407 .1718 -1.1058)" gradientUnits="userSpaceOnUse">
   <stop id="stop8591" style="stop-color:#fefefe" offset="0"/>
   <stop id="stop8593" style="stop-color:#cbcbcb" offset="1"/>
  </linearGradient>
  <linearGradient id="linearGradient2460" x1="24.239" x2="24.239" y1="44.11" y2=".19081" gradientTransform="matrix(1.0454 0 0 1.01 3.4415 0)" gradientUnits="userSpaceOnUse">
   <stop id="stop4108" style="stop-color:#355129" offset="0"/>
   <stop id="stop4110" style="stop-color:#7c8763" offset="1"/>
  </linearGradient>
 </defs>
 <g id="layer1">
  <rect id="rect3869" x="7.7458" y="42.43" width="32.508" height="3.5701" style="fill:url(#linearGradient5536);opacity:.3"/>
  <path id="path3871" d="m7.7458 42.43v3.5699c-1.1865 0.0067-2.8684-0.79982-2.8684-1.7852 0-0.98533 1.324-1.7847 2.8684-1.7847z" style="fill:url(#radialGradient5533);opacity:.3"/>
  <path id="path3873" d="m40.254 42.43v3.5699c1.1865 0.0067 2.8684-0.79982 2.8684-1.7852 0-0.98533-1.324-1.7847-2.8684-1.7847z" style="fill:url(#radialGradient5530);opacity:.3"/>
  <path id="path3875" d="m6.508 0.4972h24.061c0.52523 1.9602 6.1331 6.8516 10.939 9.6264v34.379h-35v-44.006z" style="fill:url(#radialGradient5525-350-404-120-454-819-403-836);stroke-linejoin:round;stroke-width:.99992;stroke:url(#linearGradient5527-35-740-559-500-69-407-137)"/>
  <path id="path3743" d="m18.921 14.003c-3.9716 5.1179-7.9413 10.242-11.913 15.36v15.64h28.301c2.61-3.3634 3.0123-3.8761 5.6989-7.338v-14.179c-7.7954-3.3485-17.025-7.309-22.087-9.4834z" style="fill:url(#linearGradient2464);opacity:.1"/>
  <path id="path3697" d="m18.921 13.003c-3.9716 5.1179-7.9413 10.242-11.913 15.36v15.64h28.301c2.61-3.3634 3.0123-3.8761 5.6989-7.338v-14.179c-7.7954-3.3485-17.025-7.309-22.087-9.4834z" style="fill:url(#linearGradient2461);opacity:.4"/>
  <path id="path6223" d="m19.812 18.084-1.25 1.5625 6.625 2.9375 1.25-1.5625-6.625-2.9375zm-2.5 3.0938-1.25 1.5625 6.625 2.9375 1.25-1.5625-6.625-2.9375zm11.031 0.6875-1.25 1.5625 6.625 2.9375 1.25-1.5625-6.625-2.9375zm-13.531 2.4375-1.2812 1.5625 6.625 2.9375 1.2812-1.5625-6.625-2.9375zm11.031 0.65625-1.25 1.5625 6.625 2.9375 1.25-1.5625-6.625-2.9375zm11.031 0.6875-1.2812 1.5312 4.9062 2.1875v-2.125l-3.625-1.5938zm-24.594 1.7812-1.25 1.5312 6.625 2.9375 1.25-1.5312-6.625-2.9375zm11.062 0.65625-1.2812 1.5625 6.625 2.9375 1.2812-1.5625-6.625-2.9375zm11 0.65625-1.25 1.5625 6.625 2.9375 0.78125-0.96875v-0.8125l-6.1562-2.7188zm-24.562 1.7812-1.25 1.5625 6.625 2.9375 1.25-1.5625-6.625-2.9375zm11.031 0.6875-1.25 1.5312 6.625 2.9375 1.25-1.5312-6.625-2.9375zm11.031 0.65625-1.25 1.5312 6.625 2.9375 1.25-1.5312-6.625-2.9375zm-24.344 1.9062v2.0938l5.125 2.2812 1.25-1.5625-6.375-2.8125zm10.812 0.53125-1.25 1.5625 6.625 2.9375 1.25-1.5625-6.625-2.9375zm11 0.65625-1.25 1.5625 6.625 2.9375 1.25-1.5625-6.625-2.9375zm-13.531 2.4688-1.25 1.5625 6.625 2.9375 1.25-1.5625-6.625-2.9375zm-8.2812 0.53125v2.125l2.625 1.1562 1.25-1.5625-3.875-1.7188zm19.312 0.125-1.25 1.5625 6.625 2.9375 1.25-1.5625-6.625-2.9375zm-13.531 2.4375-1.25 1.5625 3.25 1.4375h4.5625l0.0625-0.0625-6.625-2.9375zm11.031 0.65625-1.2812 1.5625 1.75 0.78125h4.8125l-5.2812-2.3438zm-16.812 1v1.3438h0.78125l0.59375-0.71875-1.375-0.625z" style="fill-rule:evenodd;fill:url(#linearGradient2457);opacity:.1"/>
  <path id="path3877" d="m7.3697 44c-0.1993 0-0.3617-0.17546-0.3617-0.39078v-42.204c0-0.21571 0.1624-0.39078 0.3617-0.39078 7.4831 0.10801 15.776-0.16158 23.25 0.026895l10.283 8.866 0.10598 33.702c0 0.21532-0.16204 0.39078-0.3617 0.39078h-33.277z" style="fill:url(#radialGradient5516);opacity:.1"/>
  <path id="path3879" d="m8.627 1c-0.89429 0-1.619 1.3645-1.619 3.0481v22.295c0.00205 0.18756 0.045738 0.36493 0.12046 0.48905s0.17364 0.18365 0.27274 0.16412l33.306-9.9283c0.17133-0.050867 0.29828-0.32667 0.30068-0.65318v-6.0003l-10.834-9.4146h-21.547z" style="fill-rule:evenodd;fill:url(#linearGradient5513);opacity:.2"/>
  <path id="path3881" d="m40.508 10.259v33.263h-33v-42.045h22.866" style="fill:none;opacity:.4;stroke-linejoin:round;stroke-width:.99992;stroke:url(#linearGradient5510)"/>
  <path id="path3883" d="m30.569 0.5c1.4069 0.47465 8.9655 5.8794 10.939 9.6236v12.285c-40.446 15.729-35.236-21.909-10.939-21.909z" style="fill:none;stroke-linejoin:round;stroke-width:.99992;stroke:url(#linearGradient5507)"/>
  <path id="path3885" d="m28.625 0.92126c4.2825 0 2.1532 8.4832 2.1532 8.4832s10.358-1.8023 10.358 2.8187c0-2.6097-11.302-10.729-12.511-11.302z" style="fill-rule:evenodd;filter:url(#filter3212);opacity:.4"/>
  <path id="path3887" d="m28.625 0.92126c3.1865 0 2.3358 7.6619 2.3358 7.6619s10.175-0.98105 10.175 3.64c0-1.1259 0.08591-1.9322-0.13378-2.2836-1.5783-2.5242-8.1132-8.1884-10.575-8.9308-0.18422-0.055555-0.87504-0.087535-1.8022-0.087535z" style="fill-rule:evenodd;fill:url(#linearGradient5503)"/>
  <path id="text4083" d="m34 36h-5.514c-1.5524-2.7738-3.1049-5.5477-4.6573-8.3215-1.5524 2.7738-3.1049 5.5477-4.6573 8.3215h-5.1713c2.3053-3.782 4.6106-7.5641 6.9159-11.346-2.1443-3.5513-4.2887-7.1026-6.433-10.654h5.3271c1.4226 2.6384 2.8453 5.2768 4.2679 7.9152 1.3915-2.6384 2.783-5.2768 4.1745-7.9152h5.2025c-2.1703 3.6366-4.3406 7.2731-6.5109 10.91 2.352 3.6968 4.704 7.3935 7.0561 11.09z" style="fill:#fff;opacity:.4"/>
  <path id="text3893" d="m34 35h-5.514c-1.5524-2.7738-3.1049-5.5477-4.6573-8.3215-1.5524 2.7738-3.1049 5.5477-4.6573 8.3215h-5.1713c2.3053-3.782 4.6106-7.5641 6.9159-11.346-2.1443-3.5513-4.2887-7.1026-6.433-10.654h5.3271c1.4226 2.6384 2.8453 5.2768 4.2679 7.9152 1.3915-2.6384 2.783-5.2768 4.1745-7.9152h5.2025c-2.1703 3.6366-4.3406 7.2731-6.5109 10.91 2.352 3.6968 4.704 7.3935 7.0561 11.09z" style="fill:url(#linearGradient2460)"/>
 </g>
</svg>
