<?xml version="1.0" encoding="UTF-8"?>
<!-- Created with Inkscape (http://www.inkscape.org/) -->
<svg id="svg3693" width="48" height="48" version="1.0" xmlns="http://www.w3.org/2000/svg" xmlns:xlink="http://www.w3.org/1999/xlink">
 <defs id="defs3695">
  <linearGradient id="linearGradient3406" x1="302.86" x2="302.86" y1="366.65" y2="609.51" gradientTransform="matrix(.067325 0 0 .0147 -.34114 37.04)" gradientUnits="userSpaceOnUse">
   <stop id="stop5050" style="stop-opacity:0" offset="0"/>
   <stop id="stop5056" offset=".5"/>
   <stop id="stop5052" style="stop-opacity:0" offset="1"/>
  </linearGradient>
  <radialGradient id="radialGradient3403" cx="605.71" cy="486.65" r="117.14" gradientTransform="matrix(-.02304 0 0 .0147 21.623 37.04)" gradientUnits="userSpaceOnUse" xlink:href="#linearGradient5060"/>
  <linearGradient id="linearGradient5060">
   <stop id="stop5062" offset="0"/>
   <stop id="stop5064" style="stop-opacity:0" offset="1"/>
  </linearGradient>
  <radialGradient id="radialGradient3400" cx="605.71" cy="486.65" r="117.14" gradientTransform="matrix(.02304 0 0 .0147 26.361 37.04)" gradientUnits="userSpaceOnUse" xlink:href="#linearGradient5060"/>
  <linearGradient id="linearGradient3397" x1="-51.786" x2="-51.786" y1="50.786" y2="2.9062" gradientTransform="matrix(.8075 0 0 .89483 59.41 -2.9806)" gradientUnits="userSpaceOnUse">
   <stop id="stop3106" style="stop-color:#aaa" offset="0"/>
   <stop id="stop3108" style="stop-color:#c8c8c8" offset="1"/>
  </linearGradient>
  <linearGradient id="linearGradient3395" x1="25.132" x2="25.132" y1=".98521" y2="47.013" gradientTransform="matrix(1 0 0 .95617 -1.0065e-7 -1.9149)" gradientUnits="userSpaceOnUse">
   <stop id="stop3602" style="stop-color:#f4f4f4" offset="0"/>
   <stop id="stop3604" style="stop-color:#dbdbdb" offset="1"/>
  </linearGradient>
  <radialGradient id="radialGradient3392" cx="102" cy="112.3" r="139.56" gradientTransform="matrix(.3617 0 0 -.39078 .85106 47.517)" gradientUnits="userSpaceOnUse">
   <stop id="stop41" style="stop-color:#b7b8b9" offset="0"/>
   <stop id="stop47" style="stop-color:#ececec" offset=".18851"/>
   <stop id="stop49" style="stop-color:#fafafa;stop-opacity:0" offset=".25718"/>
   <stop id="stop51" style="stop-color:#fff;stop-opacity:0" offset=".30111"/>
   <stop id="stop53" style="stop-color:#fafafa;stop-opacity:0" offset=".5313"/>
   <stop id="stop55" style="stop-color:#ebecec;stop-opacity:0" offset=".8449"/>
   <stop id="stop57" style="stop-color:#e1e2e3;stop-opacity:0" offset="1"/>
  </radialGradient>
  <linearGradient id="linearGradient3389" x1="24" x2="24" y1="2" y2="46.017" gradientTransform="matrix(1 0 0 .97778 0 -.96667)" gradientUnits="userSpaceOnUse">
   <stop id="stop3213" style="stop-color:#fff" offset="0"/>
   <stop id="stop3215" style="stop-color:#fff;stop-opacity:0" offset="1"/>
  </linearGradient>
  <radialGradient id="radialGradient3386" cx="22.902" cy="45.867" r="7.9059" gradientTransform="matrix(.69765 0 0 .29961 12.507 15.89)" gradientUnits="userSpaceOnUse">
   <stop id="stop3197" offset="0"/>
   <stop id="stop3199" style="stop-opacity:0" offset="1"/>
  </radialGradient>
  <radialGradient id="radialGradient3383" cx="22.902" cy="45.867" r="7.9059" gradientTransform="matrix(.75875 0 0 .32584 -.80598 16.479)" gradientUnits="userSpaceOnUse">
   <stop id="stop3203" offset="0"/>
   <stop id="stop3205" style="stop-opacity:0" offset="1"/>
  </radialGradient>
  <radialGradient id="radialGradient3379" cx="17.059" cy="41.059" r="5.7385" fx="14.638" fy="38.175" gradientTransform="matrix(.66498 0 -.10886 .63739 9.9382 2.2626)" gradientUnits="userSpaceOnUse">
   <stop id="stop3877" style="stop-color:#aaa" offset="0"/>
   <stop id="stop3879" style="stop-color:#4d4d4d" offset="1"/>
  </radialGradient>
  <radialGradient id="radialGradient3376" cx="17.059" cy="41.059" r="5.7385" fx="14.109" fy="38.981" gradientTransform="matrix(.66333 0 -.10859 .6358 21.997 .49746)" gradientUnits="userSpaceOnUse">
   <stop id="stop3871" style="stop-color:#aaa" offset="0"/>
   <stop id="stop3873" style="stop-color:#4d4d4d" offset="1"/>
  </radialGradient>
  <linearGradient id="linearGradient3373" x1="28.739" x2="25.4" y1="144.12" y2="119.86" gradientTransform="matrix(.22147 0 0 .22311 14.032 -19.079)" gradientUnits="userSpaceOnUse">
   <stop id="stop3239" style="stop-color:#fff" offset="0"/>
   <stop id="stop3241" style="stop-color:#fff;stop-opacity:.37931" offset="1"/>
  </linearGradient>
  <linearGradient id="linearGradient3370" x1="28.739" x2="26.257" y1="144.12" y2="125.39" gradientTransform="matrix(.44563 0 0 .22311 20.716 -20.657)" gradientUnits="userSpaceOnUse">
   <stop id="stop3245" style="stop-color:#fff" offset="0"/>
   <stop id="stop3247" style="stop-color:#fff;stop-opacity:.37931" offset="1"/>
  </linearGradient>
  <filter id="filter3212" x="-.14846" y="-.16434" width="1.2969" height="1.3287" color-interpolation-filters="sRGB">
   <feGaussianBlur id="feGaussianBlur3214" stdDeviation="0.77391625"/>
  </filter>
  <linearGradient id="linearGradient3366" x1="32.892" x2="36.358" y1="8.059" y2="5.4565" gradientTransform="matrix(.9977 0 0 1.0407 .1638 -1.1058)" gradientUnits="userSpaceOnUse">
   <stop id="stop8591" style="stop-color:#fefefe" offset="0"/>
   <stop id="stop8593" style="stop-color:#cbcbcb" offset="1"/>
  </linearGradient>
 </defs>
 <g id="layer1">
  <rect id="rect2879" x="7.7378" y="42.43" width="32.508" height="3.5701" style="fill:url(#linearGradient3406);opacity:.3"/>
  <path id="path2881" d="m7.7378 42.43v3.5699c-1.1865 0.0067-2.8684-0.79982-2.8684-1.7852 0-0.98533 1.324-1.7847 2.8684-1.7847z" style="fill:url(#radialGradient3403);opacity:.3"/>
  <path id="path2883" d="m40.246 42.43v3.5699c1.1865 0.0067 2.8684-0.79982 2.8684-1.7852 0-0.98533-1.324-1.7847-2.8684-1.7847z" style="fill:url(#radialGradient3400);opacity:.3"/>
  <path id="path4160" d="m6.5 0.4972h24.061c1.4069 0.47465 8.9655 5.8822 10.939 9.6264v34.379h-35v-44.006z" style="fill:url(#linearGradient3395);stroke-linejoin:round;stroke-width:.99992;stroke:url(#linearGradient3397)"/>
  <path id="path4191" d="m7.3617 44c-0.1993 0-0.3617-0.17546-0.3617-0.39078v-42.204c0-0.21571 0.1624-0.39078 0.3617-0.39078 7.4831 0.10801 15.776-0.16158 23.25 0.026895l10.283 8.866 0.10598 33.702c0 0.21532-0.16204 0.39078-0.3617 0.39078h-33.277z" style="fill:url(#radialGradient3392)"/>
  <path id="path2435" d="m40.5 10.259v33.263h-33v-42.045h22.866" style="fill:none;opacity:.6;stroke-linejoin:round;stroke-width:.99992;stroke:url(#linearGradient3389)"/>
  <path id="path2704" d="m34 29.632c0 1.3082-2.4694 2.3687-5.5156 2.3687s-5.5156-1.0605-5.5156-2.3687 2.4694-2.3687 5.5156-2.3687 5.5156 1.0605 5.5156 2.3687z" style="fill:url(#radialGradient3386);opacity:.3"/>
  <path id="path4121" d="m22.569 31.425c-8.55e-4 1.4225-2.6862 2.5754-5.9986 2.5754s-5.9977-1.153-5.9986-2.5754c-8.56e-4 -1.423 2.685-2.5768 5.9986-2.5768s5.9994 1.1538 5.9986 2.5768z" style="fill:url(#radialGradient3383);opacity:.3"/>
  <path id="path4031" d="m32.466 6.5042c-4.1269 0.65819-8.8722 1.3357-12.988 2.0307-1.0898 0.52625-0.84479 1.8813-0.89301 2.8646v13.162c-2.8008-0.6412-5.8751 1.4509-5.9966 4.4247-0.19829 1.8514 1.4606 3.463 3.2644 3.5063 3.2297 0.07759 5.6844-2.0431 5.7194-4.7252-0.03527-4.5043 0.0099-9.0104 0-13.515 0.5-0.03665 8.319-1.4668 9-1.5621v10.122c-2.5834-0.76106-5.1657 0.82954-5.8019 3.4956-0.47074 1.5444 0.23898 3.3701 1.7711 4.0028 2.9909 1.3602 7.1978-1.395 7.0308-4.6285-0.04632-6.0063 0.03797-12.015 0-18.022-0.07855-0.56448-0.46504-1.1967-1.1066-1.1559z" style="fill:#4d4d4d;stroke-linecap:round;stroke-linejoin:round;stroke:#333"/>
  <path id="path2937" d="m20.708 27.768c0 1.9878-1.7443 3.8972-3.8959 4.2647-2.1516 0.3675-3.8959-0.94604-3.8959-2.9339s1.7443-3.8972 3.8959-4.2647c2.1516-0.3675 3.8959 0.94604 3.8959 2.9339z" style="fill:url(#radialGradient3379)"/>
  <path id="path2941" d="m32.75 25.937c4.91e-4 1.9881-1.7439 3.898-3.8959 4.2655s-3.8964-0.94646-3.8959-2.9347c4.91e-4 -1.9876 1.7446-3.8964 3.8959-4.2639s3.8954 0.94563 3.8959 2.933z" style="fill:url(#radialGradient3376)"/>
  <path id="path2945" d="m19.179 25.166-0.094-15.045s0.1029-1.1502 0.86617-1.1537c0.2707-0.04687 12.136-2.0041 12.136-2.0041s1.5321 0.72791-11.015 2.7677c-1.2871 0.24744-1 0.73094-1 1.58 0 2.2902 2e-6 6.0215 2e-6 14.36 0 0.05966-0.56979-0.4227-0.89325-0.50513h2e-6z" style="fill-rule:evenodd;fill:url(#linearGradient3373);opacity:.3"/>
  <path id="path2947" d="m31.072 23.434 0.0594-11.366c0.62592-0.05597 0.0961-9e-3 0.94012-0.09284 0.01161 2.123 4.8e-4 3.8852 4.8e-4 11.903 0 0.05966-0.34916-0.36221-1-0.44464z" style="fill-rule:evenodd;fill:url(#linearGradient3370);opacity:.3"/>
  <path id="path12038" d="m28.617 0.92126c4.2825 0 2.1532 8.4832 2.1532 8.4832s10.358-1.8023 10.358 2.8187c0-2.6097-11.302-10.729-12.511-11.302z" style="fill-rule:evenodd;filter:url(#filter3212);opacity:.4"/>
  <path id="path4474" d="m28.617 0.92126c3.1865 0 2.3358 7.6619 2.3358 7.6619s10.175-0.98105 10.175 3.64c0-1.1259 0.08591-1.9322-0.13378-2.2836-1.5783-2.5242-8.3955-8.1884-10.857-8.9308-0.18422-0.055555-0.5927-0.087535-1.5198-0.087535z" style="fill-rule:evenodd;fill:url(#linearGradient3366)"/>
  <path id="text2457" d="m13.681 40.912h1.33c0.02796-1.2266-0.06942-2.462 0.08016-3.6806 0.14692-1.0189 1.8848-1.0274 2.0248-0.0056 0.11011 1.2229 0.03108 2.4579 0.055 3.6863h1.33c0.02616-1.1972-0.06294-2.4023 0.06836-3.5927 0.10606-0.99224 1.6932-1.1831 1.9998-0.23148 0.17117 1.0004 0.05979 2.0284 0.0918 3.0418 0.07548 0.23547-0.16633 0.78823 0.15051 0.78233h1.1795c-0.02304-1.2987 0.05224-2.6026-0.05062-3.8973-0.06353-1.04-1.0336-1.7801-2.0353-1.7689-0.78233-0.21579-1.5996 0.55777-2.0066 0.74774-0.64227-0.97777-2.2909-1.0232-2.9974-0.10146 0.04319-0.35031 0.0338-0.64804-0.40136-0.52-0.2423 0.06403-0.74301-0.13036-0.81864 0.10034v5.4397zm9.3945 1.85h1.33v-2.37c1.2523 1.2163 3.5909 0.63878 4.2088-0.97471 0.68866-1.4897 0.0219-3.5922-1.65-4.0526-0.9151-0.27917-2.0297-0.09921-2.6688 0.65733-0.03797-0.27904 0.15526-0.78927-0.30102-0.65h-0.91898v7.39zm2.87-6.3c1.2979-0.05015 2.0243 1.6174 1.3253 2.6315-0.61323 1.0954-2.43 0.8917-2.8212-0.2882-0.44743-1.052 0.29766-2.3815 1.4959-2.3433l1e-6 -1e-6zm5.3716 0.89c0.76876-0.1024 1.7157 0.36023 1.67 1.24 0.07431 0.87131-0.94035 1.5335-1.7038 1.1043-0.64554-0.1372-0.37759-1.2086-1.0576-1.0243-0.31288 0-0.62576 0-0.93864-1e-6 0.01416 1.3268 1.2341 2.4348 2.55 2.37 1.3446 0.06678 2.5468-1.1354 2.48-2.48 0.03841-0.79258-0.3902-1.6131-1.15-1.91 1.171-0.83412 0.56769-2.8671-0.76303-3.174-1.1346-0.38258-2.5503 0.43586-2.5567 1.6948 0.07717 0.23722 0.62104 0.04935 0.89284 0.10929 0.68638 0.23706 0.5146-1.0313 1.3288-0.61828 0.94129 0.53723-0.0045 1.6309-0.75188 1.4585 0 0.40994-1e-6 0.81989-1e-6 1.2298z" style="opacity:.4"/>
 </g>
</svg>
