<?xml version="1.0" encoding="UTF-8"?>
<!-- Created with Inkscape (http://www.inkscape.org/) -->
<svg id="svg5795" width="48" height="48" version="1.1" xmlns="http://www.w3.org/2000/svg" xmlns:cc="http://creativecommons.org/ns#" xmlns:dc="http://purl.org/dc/elements/1.1/" xmlns:rdf="http://www.w3.org/1999/02/22-rdf-syntax-ns#" xmlns:xlink="http://www.w3.org/1999/xlink">
 <metadata id="metadata136">
  <rdf:RDF>
   <cc:Work rdf:about="">
    <dc:format>image/svg+xml</dc:format>
    <dc:type rdf:resource="http://purl.org/dc/dcmitype/StillImage"/>
    <dc:title/>
   </cc:Work>
  </rdf:RDF>
 </metadata>
 <defs id="defs5797">
  <filter id="filter3212" x="-.14846" y="-.16434" width="1.2969" height="1.3287" color-interpolation-filters="sRGB">
   <feGaussianBlur id="feGaussianBlur3214" stdDeviation="0.77391625"/>
  </filter>
  <linearGradient id="linearGradient5060">
   <stop id="stop5062" offset="0"/>
   <stop id="stop5064" style="stop-opacity:0" offset="1"/>
  </linearGradient>
  <linearGradient id="linearGradient2946" x1="-22.607" x2="-22.57" y1="14.214" y2="18.246" gradientTransform="matrix(1.0224 0 0 .99211 45.495 17.898)" gradientUnits="userSpaceOnUse">
   <stop id="stop5200" style="stop-color:#b5d5e7" offset="0"/>
   <stop id="stop5202" style="stop-color:#498bb3" offset="1"/>
  </linearGradient>
  <linearGradient id="linearGradient2948" x1="-14.177" x2="-14.177" y1="18.246" y2="14.214" gradientTransform="matrix(1.0224 0 0 .99211 45.495 17.898)" gradientUnits="userSpaceOnUse">
   <stop id="stop5206" style="stop-color:#335264" offset="0"/>
   <stop id="stop5208" style="stop-color:#7a96a7" offset="1"/>
  </linearGradient>
  <linearGradient id="linearGradient2953" x1="-22.607" x2="-22.57" y1="14.214" y2="18.246" gradientTransform="matrix(1.0224 0 0 .99211 45.495 17.898)" gradientUnits="userSpaceOnUse">
   <stop id="stop2266-4-4" style="stop-color:#d7e866" offset="0"/>
   <stop id="stop2268-7-6" style="stop-color:#8cab2a" offset="1"/>
  </linearGradient>
  <linearGradient id="linearGradient2955" x1="-14.177" x2="-14.177" y1="18.246" y2="14.214" gradientTransform="matrix(1.0224 0 0 .99211 45.495 17.898)" gradientUnits="userSpaceOnUse">
   <stop id="stop3928-4-6" style="stop-color:#5d8430" offset="0"/>
   <stop id="stop3930-8-1" style="stop-color:#6d9a38" offset="1"/>
  </linearGradient>
  <linearGradient id="linearGradient2959" x1="-22.607" x2="-22.57" y1="14.214" y2="18.246" gradientTransform="matrix(1.0224 0 0 .99211 47.495 11.898)" gradientUnits="userSpaceOnUse">
   <stop id="stop4170" style="stop-color:#f8cd70" offset="0"/>
   <stop id="stop4172" style="stop-color:#d99a11" offset="1"/>
  </linearGradient>
  <linearGradient id="linearGradient2961" x1="-14.177" x2="-14.177" y1="18.246" y2="14.214" gradientTransform="matrix(1.0224 0 0 .99211 47.495 11.898)" gradientUnits="userSpaceOnUse">
   <stop id="stop4095" style="stop-color:#bb5e12" offset="0"/>
   <stop id="stop4097" style="stop-color:#cd8033" offset="1"/>
  </linearGradient>
  <linearGradient id="linearGradient2966" x1="-22.607" x2="-22.57" y1="14.214" y2="18.246" gradientTransform="matrix(1.0224 0 0 .99211 47.495 11.898)" gradientUnits="userSpaceOnUse">
   <stop id="stop2266-4-0" style="stop-color:#d7e866" offset="0"/>
   <stop id="stop2268-7-33" style="stop-color:#8cab2a" offset="1"/>
  </linearGradient>
  <linearGradient id="linearGradient2968" x1="-14.177" x2="-14.177" y1="18.246" y2="14.214" gradientTransform="matrix(1.0224 0 0 .99211 47.495 11.898)" gradientUnits="userSpaceOnUse">
   <stop id="stop3928-4-7" style="stop-color:#5d8430" offset="0"/>
   <stop id="stop3930-8-0" style="stop-color:#6d9a38" offset="1"/>
  </linearGradient>
  <linearGradient id="linearGradient2972" x1="-22.607" x2="-22.57" y1="14.214" y2="18.246" gradientTransform="matrix(1.0224 0 0 .99211 47.495 5.8982)" gradientUnits="userSpaceOnUse">
   <stop id="stop2266-4-8-7-4" style="stop-color:#d7e866" offset="0"/>
   <stop id="stop2268-7-3-4-0" style="stop-color:#8cab2a" offset="1"/>
  </linearGradient>
  <linearGradient id="linearGradient2974" x1="-14.177" x2="-14.177" y1="18.246" y2="14.214" gradientTransform="matrix(1.0224 0 0 .99211 47.495 5.8982)" gradientUnits="userSpaceOnUse">
   <stop id="stop3928-4-3-7-4" style="stop-color:#5d8430" offset="0"/>
   <stop id="stop3930-8-7-0-6" style="stop-color:#6d9a38" offset="1"/>
  </linearGradient>
  <linearGradient id="linearGradient2985" x1="-22.607" x2="-22.57" y1="14.214" y2="18.246" gradientTransform="matrix(1.0224 0 0 .99211 45.495 -.10179)" gradientUnits="userSpaceOnUse">
   <stop id="stop5212" style="stop-color:#b5d5e7" offset="0"/>
   <stop id="stop5214" style="stop-color:#498bb3" offset="1"/>
  </linearGradient>
  <linearGradient id="linearGradient2987" x1="-14.177" x2="-14.177" y1="18.246" y2="14.214" gradientTransform="matrix(1.0224 0 0 .99211 45.495 -.10179)" gradientUnits="userSpaceOnUse">
   <stop id="stop5218" style="stop-color:#335264" offset="0"/>
   <stop id="stop5220" style="stop-color:#7a96a7" offset="1"/>
  </linearGradient>
  <linearGradient id="linearGradient2992" x1="-22.607" x2="-22.57" y1="14.214" y2="18.246" gradientTransform="matrix(1.0224 0 0 .99211 45.495 -.10179)" gradientUnits="userSpaceOnUse">
   <stop id="stop2266-4" style="stop-color:#d7e866" offset="0"/>
   <stop id="stop2268-7" style="stop-color:#8cab2a" offset="1"/>
  </linearGradient>
  <linearGradient id="linearGradient2994" x1="-14.177" x2="-14.177" y1="18.246" y2="14.214" gradientTransform="matrix(1.0224 0 0 .99211 45.495 -.10179)" gradientUnits="userSpaceOnUse">
   <stop id="stop3928-4" style="stop-color:#5d8430" offset="0"/>
   <stop id="stop3930-8" style="stop-color:#6d9a38" offset="1"/>
  </linearGradient>
  <linearGradient id="linearGradient2997" x1="32.892" x2="36.358" y1="8.059" y2="5.4565" gradientTransform="matrix(.9977 0 0 1.0407 .1638 -1.1058)" gradientUnits="userSpaceOnUse">
   <stop id="stop8591" style="stop-color:#fefefe" offset="0"/>
   <stop id="stop8593" style="stop-color:#cbcbcb" offset="1"/>
  </linearGradient>
  <linearGradient id="linearGradient3001" x1="24" x2="24" y1="2" y2="46.017" gradientTransform="matrix(1 0 0 .97778 0 -.96667)" gradientUnits="userSpaceOnUse">
   <stop id="stop3213" style="stop-color:#fff" offset="0"/>
   <stop id="stop3215" style="stop-color:#fff;stop-opacity:0" offset="1"/>
  </linearGradient>
  <radialGradient id="radialGradient3004" cx="102" cy="112.3" r="139.56" gradientTransform="matrix(.3617 0 0 -.39078 .85106 47.517)" gradientUnits="userSpaceOnUse">
   <stop id="stop41" style="stop-color:#b7b8b9" offset="0"/>
   <stop id="stop47" style="stop-color:#ececec" offset=".18851"/>
   <stop id="stop49" style="stop-color:#fafafa;stop-opacity:0" offset=".25718"/>
   <stop id="stop51" style="stop-color:#fff;stop-opacity:0" offset=".30111"/>
   <stop id="stop53" style="stop-color:#fafafa;stop-opacity:0" offset=".5313"/>
   <stop id="stop55" style="stop-color:#ebecec;stop-opacity:0" offset=".8449"/>
   <stop id="stop57" style="stop-color:#e1e2e3;stop-opacity:0" offset="1"/>
  </radialGradient>
  <linearGradient id="linearGradient3007" x1="25.132" x2="25.132" y1=".98521" y2="47.013" gradientTransform="matrix(1 0 0 .95617 -1e-7 -1.9149)" gradientUnits="userSpaceOnUse">
   <stop id="stop3602" style="stop-color:#f4f4f4" offset="0"/>
   <stop id="stop3604" style="stop-color:#dbdbdb" offset="1"/>
  </linearGradient>
  <linearGradient id="linearGradient3009" x1="-51.786" x2="-51.786" y1="50.786" y2="2.9062" gradientTransform="matrix(.8075 0 0 .89483 59.41 -2.9806)" gradientUnits="userSpaceOnUse">
   <stop id="stop3106" style="stop-color:#aaa" offset="0"/>
   <stop id="stop3108" style="stop-color:#c8c8c8" offset="1"/>
  </linearGradient>
  <radialGradient id="radialGradient3012" cx="605.71" cy="486.65" r="117.14" gradientTransform="matrix(.02304 0 0 .0147 26.361 37.04)" gradientUnits="userSpaceOnUse" xlink:href="#linearGradient5060"/>
  <radialGradient id="radialGradient3015" cx="605.71" cy="486.65" r="117.14" gradientTransform="matrix(-.02304 0 0 .0147 21.623 37.04)" gradientUnits="userSpaceOnUse" xlink:href="#linearGradient5060"/>
  <linearGradient id="linearGradient3018" x1="302.86" x2="302.86" y1="366.65" y2="609.51" gradientTransform="matrix(.067325 0 0 .0147 -.34114 37.04)" gradientUnits="userSpaceOnUse">
   <stop id="stop5050" style="stop-opacity:0" offset="0"/>
   <stop id="stop5056" offset=".5"/>
   <stop id="stop5052" style="stop-opacity:0" offset="1"/>
  </linearGradient>
 </defs>
 <rect id="rect2879" x="7.7378" y="42.43" width="32.508" height="3.5701" style="fill:url(#linearGradient3018);opacity:.3"/>
 <path id="path2881" d="m7.7378 42.43v3.5699c-1.1865 0.0067-2.8684-0.79982-2.8684-1.7852 0-0.98533 1.324-1.7847 2.8684-1.7847z" style="fill:url(#radialGradient3015);opacity:.3"/>
 <path id="path2883" d="m40.246 42.43v3.5699c1.1865 0.0067 2.8684-0.79982 2.8684-1.7852 0-0.98533-1.324-1.7847-2.8684-1.7847z" style="fill:url(#radialGradient3012);opacity:.3"/>
 <path id="path4160" d="m6.5 0.4972h24.061c1.4069 0.47465 8.9655 5.8822 10.939 9.6264v34.379h-35v-44.006z" style="fill:url(#linearGradient3007);stroke-linejoin:round;stroke-width:.99992;stroke:url(#linearGradient3009)"/>
 <path id="path4191" d="m7.3617 44c-0.1993 0-0.3617-0.17546-0.3617-0.39078v-42.204c0-0.21571 0.1624-0.39078 0.3617-0.39078 7.4831 0.10801 15.776-0.16158 23.25 0.026895l10.283 8.866 0.10598 33.702c0 0.21532-0.16204 0.39078-0.3617 0.39078h-33.277z" style="fill:url(#radialGradient3004)"/>
 <path id="path2435" d="m40.5 10.259v33.263h-33v-42.045h22.866" style="fill:none;opacity:.6;stroke-linejoin:round;stroke-width:.99992;stroke:url(#linearGradient3001)"/>
 <path id="path12038" d="m28.617 0.92126c4.2825 0 2.1532 8.4832 2.1532 8.4832s10.358-1.8023 10.358 2.8187c0-2.6097-11.302-10.729-12.511-11.302z" style="fill-rule:evenodd;filter:url(#filter3212);opacity:.4"/>
 <path id="path4474" d="m28.617 0.92126c3.1865 0 2.3358 7.6619 2.3358 7.6619s10.175-0.98105 10.175 3.64c0-1.1259 0.08591-1.9322-0.13378-2.2836-1.5783-2.5242-8.3955-8.1884-10.857-8.9308-0.18422-0.055555-0.5927-0.087535-1.5198-0.087535z" style="fill-rule:evenodd;fill:url(#linearGradient2997)"/>
 <path id="path4098" d="m16.921 14.5c-0.22895 0.01557-0.42426 0.19346-0.42122 0.38367v2.2322c-0.0025 0.20143 0.22008 0.38567 0.46334 0.38367h17.073c0.24325 2e-3 0.46575-0.18224 0.46334-0.38367v-2.2322c0.0025-0.20143-0.22008-0.38567-0.46334-0.38367h-17.073c-0.01403-5.34e-4 -0.02809-5.34e-4 -0.04212 0z" style="color:#000000;fill:url(#linearGradient2992);stroke-linecap:square;stroke:url(#linearGradient2994)"/>
 <path id="path4106" d="m16.445 15.001c-0.24167 0.02075-0.44783 0.25795-0.44462 0.51156v2.9763c-0.0026 0.26857 0.23231 0.51422 0.48908 0.51156h18.022c0.25677 0.0026 0.49163-0.24299 0.48908-0.51156v-2.9763c0.0026-0.26857-0.23231-0.51422-0.48908-0.51156h-18.022c-0.01481-7.12e-4 -0.02965-7.12e-4 -0.04446 0zm-4.9795 0c-0.25281 0.02075-0.46846 0.25795-0.46511 0.51156v2.9763c-0.0027 0.26857 0.24302 0.51422 0.51162 0.51156h2.9767c0.2686 0.0026 0.51429-0.24299 0.51162-0.51156v-2.9763c0.0027-0.26857-0.24302-0.51422-0.51162-0.51156h-2.9767c-0.01549-7.12e-4 -0.03101-7.12e-4 -0.04651 0z" style="opacity:.15"/>
 <path id="path4373" d="m17 15.5h17" style="fill:none;opacity:.4;stroke-width:1px;stroke:#fff"/>
 <path id="rect4432" d="m12 14.5h2c0.277 0 0.5 0.223 0.5 0.5v2c0 0.277-0.223 0.5-0.5 0.5h-2c-0.277 0-0.5-0.223-0.5-0.5v-2c0-0.277 0.223-0.5 0.5-0.5zm4.9213 4.01e-4c-0.22895 0.01557-0.42426 0.19346-0.42122 0.38367v2.2322c-0.0025 0.20143 0.22008 0.38567 0.46334 0.38367h17.073c0.24325 2e-3 0.46575-0.18224 0.46334-0.38367v-2.2322c0.0025-0.20143-0.22008-0.38567-0.46334-0.38367h-17.073c-0.01403-5.34e-4 -0.02809-5.34e-4 -0.04212 0z" style="color:#000000;fill:url(#linearGradient2985);stroke-linecap:square;stroke:url(#linearGradient2987)"/>
 <path id="path4373-7-4" d="m12 15.5h1.9995m3.0005 0h17" style="fill:none;opacity:.4;stroke-width:1px;stroke:#fff"/>
 <path id="path4098-9" d="m18.921 20.5c-0.22895 0.01557-0.42426 0.19346-0.42122 0.38367v2.2322c-0.0025 0.20143 0.22008 0.38567 0.46334 0.38367h17.073c0.24325 2e-3 0.46575-0.18224 0.46334-0.38367v-2.2322c0.0025-0.20143-0.22008-0.38567-0.46334-0.38367h-17.073c-0.01403-5.34e-4 -0.02809-5.34e-4 -0.04212 0z" style="color:#000000;fill:url(#linearGradient2972);stroke-linecap:square;stroke:url(#linearGradient2974)"/>
 <path id="path4106-1" d="m18.445 21.001c-0.24167 0.02075-0.44783 0.25795-0.44462 0.51156v2.9763c-0.0026 0.26857 0.23231 0.51422 0.48908 0.51156h18.022c0.25677 0.0026 0.49163-0.24299 0.48908-0.51156v-2.9763c0.0026-0.26857-0.23231-0.51422-0.48908-0.51156h-18.022c-0.01481-7.12e-4 -0.02965-7.12e-4 -0.04446 0zm-4.9795 0c-0.25281 0.02075-0.46846 0.25795-0.46511 0.51156v2.9763c-0.0027 0.26857 0.24302 0.51422 0.51162 0.51156h2.9767c0.2686 0.0026 0.51429-0.24299 0.51162-0.51156v-2.9763c0.0027-0.26857-0.24302-0.51422-0.51162-0.51156h-2.9767c-0.01549-7.12e-4 -0.03101-7.12e-4 -0.04651 0z" style="opacity:.15"/>
 <path id="path4373-3" d="m19 21.5h17" style="fill:none;opacity:.4;stroke-width:1px;stroke:#fff"/>
 <path id="rect4432-4" d="m14 20.5h2c0.277 0 0.5 0.223 0.5 0.5v2c0 0.277-0.223 0.5-0.5 0.5h-2c-0.277 0-0.5-0.223-0.5-0.5v-2c0-0.277 0.223-0.5 0.5-0.5zm4.9213 4.01e-4c-0.22895 0.01557-0.42426 0.19346-0.42122 0.38367v2.2322c-0.0025 0.20143 0.22008 0.38567 0.46334 0.38367h17.073c0.24325 2e-3 0.46575-0.18224 0.46334-0.38367v-2.2322c0.0025-0.20143-0.22008-0.38567-0.46334-0.38367h-17.073c-0.01403-5.34e-4 -0.02809-5.34e-4 -0.04212 0z" style="color:#000000;fill:url(#linearGradient2972);stroke-linecap:square;stroke:url(#linearGradient2974)"/>
 <path id="path4373-7-4-5" d="m14 21.5h1.9995m3.0005 0h17" style="fill:none;opacity:.4;stroke-width:1px;stroke:#fff"/>
 <path id="path4098-1" d="m18.921 26.5c-0.22895 0.01557-0.42426 0.19346-0.42122 0.38367v2.2322c-0.0025 0.20143 0.22008 0.38567 0.46334 0.38367h17.073c0.24325 2e-3 0.46575-0.18224 0.46334-0.38367v-2.2322c0.0025-0.20143-0.22008-0.38567-0.46334-0.38367h-17.073c-0.01403-5.34e-4 -0.02809-5.34e-4 -0.04212 0z" style="color:#000000;fill:url(#linearGradient2966);stroke-linecap:square;stroke:url(#linearGradient2968)"/>
 <path id="path4106-0" d="m18.445 27.001c-0.24167 0.02075-0.44783 0.25795-0.44462 0.51156v2.9763c-0.0026 0.26857 0.23231 0.51422 0.48908 0.51156h18.022c0.25677 0.0026 0.49163-0.24299 0.48908-0.51156v-2.9763c0.0026-0.26857-0.23231-0.51422-0.48908-0.51156h-18.022c-0.01481-7.12e-4 -0.02965-7.12e-4 -0.04446 0zm-4.9795 0c-0.25281 0.02075-0.46846 0.25795-0.46511 0.51156v2.9763c-0.0027 0.26857 0.24302 0.51422 0.51162 0.51156h2.9767c0.2686 0.0026 0.51429-0.24299 0.51162-0.51156v-2.9763c0.0027-0.26857-0.24302-0.51422-0.51162-0.51156h-2.9767c-0.01549-7.12e-4 -0.03101-7.12e-4 -0.04651 0z" style="opacity:.15"/>
 <path id="path4373-30" d="m19 27.5h17" style="fill:none;opacity:.4;stroke-width:1px;stroke:#fff"/>
 <path id="rect4432-0" d="m14 26.5h2c0.277 0 0.5 0.223 0.5 0.5v2c0 0.277-0.223 0.5-0.5 0.5h-2c-0.277 0-0.5-0.223-0.5-0.5v-2c0-0.277 0.223-0.5 0.5-0.5zm4.9213 4.01e-4c-0.22895 0.01557-0.42426 0.19346-0.42122 0.38367v2.2322c-0.0025 0.20143 0.22008 0.38567 0.46334 0.38367h17.073c0.24325 2e-3 0.46575-0.18224 0.46334-0.38367v-2.2322c0.0025-0.20143-0.22008-0.38567-0.46334-0.38367h-17.073c-0.01403-5.34e-4 -0.02809-5.34e-4 -0.04212 0z" style="color:#000000;fill:url(#linearGradient2959);stroke-linecap:square;stroke:url(#linearGradient2961)"/>
 <path id="path4373-7-4-4" d="m14 27.5h1.9995m3.0005 0h17" style="fill:none;opacity:.4;stroke-width:1px;stroke:#fff"/>
 <path id="path4098-2" d="m16.921 32.5c-0.22895 0.01557-0.42426 0.19346-0.42122 0.38367v2.2322c-0.0025 0.20143 0.22008 0.38567 0.46334 0.38367h17.073c0.24325 2e-3 0.46575-0.18224 0.46334-0.38367v-2.2322c0.0025-0.20143-0.22008-0.38567-0.46334-0.38367h-17.073c-0.01403-5.34e-4 -0.02809-5.34e-4 -0.04212 0z" style="color:#000000;fill:url(#linearGradient2953);stroke-linecap:square;stroke:url(#linearGradient2955)"/>
 <path id="path4106-9" d="m16.445 33.001c-0.24167 0.02075-0.44783 0.25795-0.44462 0.51156v2.9763c-0.0026 0.26857 0.23231 0.51422 0.48908 0.51156h18.022c0.25677 0.0026 0.49163-0.24299 0.48908-0.51156v-2.9763c0.0026-0.26857-0.23231-0.51422-0.48908-0.51156h-18.022c-0.01481-7.12e-4 -0.02965-7.12e-4 -0.04446 0zm-4.9795 0c-0.25281 0.02075-0.46846 0.25795-0.46511 0.51156v2.9763c-0.0027 0.26857 0.24302 0.51422 0.51162 0.51156h2.9767c0.2686 0.0026 0.51429-0.24299 0.51162-0.51156v-2.9763c0.0027-0.26857-0.24302-0.51422-0.51162-0.51156h-2.9767c-0.01549-7.12e-4 -0.03101-7.12e-4 -0.04651 0z" style="opacity:.15"/>
 <path id="path4373-2" d="m17 33.5h17" style="fill:none;opacity:.4;stroke-width:1px;stroke:#fff"/>
 <path id="rect4432-8" d="m12 32.5h2c0.277 0 0.5 0.223 0.5 0.5v2c0 0.277-0.223 0.5-0.5 0.5h-2c-0.277 0-0.5-0.223-0.5-0.5v-2c0-0.277 0.223-0.5 0.5-0.5zm4.9213 4e-4c-0.22895 0.01557-0.42426 0.19346-0.42122 0.38367v2.2322c-0.0025 0.20143 0.22008 0.38567 0.46334 0.38367h17.073c0.24325 2e-3 0.46575-0.18224 0.46334-0.38367v-2.2322c0.0025-0.20143-0.22008-0.38567-0.46334-0.38367h-17.073c-0.01403-5.33e-4 -0.02809-5.33e-4 -0.04212 0z" style="color:#000000;fill:url(#linearGradient2946);stroke-linecap:square;stroke:url(#linearGradient2948)"/>
 <path id="path4373-7-4-1" d="m12 33.5h1.9995m3.0005 0h17" style="fill:none;opacity:.4;stroke-width:1px;stroke:#fff"/>
</svg>
