<?xml version="1.0" encoding="UTF-8"?>
<!-- Created with Inkscape (http://www.inkscape.org/) -->
<svg id="svg4250" width="48" height="48" version="1.0" xmlns="http://www.w3.org/2000/svg" xmlns:xlink="http://www.w3.org/1999/xlink">
 <defs id="defs4252">
  <linearGradient id="linearGradient2631" x1="302.86" x2="302.86" y1="366.65" y2="609.51" gradientTransform="matrix(.067325 0 0 .0147 -.34114 37.04)" gradientUnits="userSpaceOnUse">
   <stop id="stop5050" style="stop-opacity:0" offset="0"/>
   <stop id="stop5056" offset=".5"/>
   <stop id="stop5052" style="stop-opacity:0" offset="1"/>
  </linearGradient>
  <radialGradient id="radialGradient2628" cx="605.71" cy="486.65" r="117.14" gradientTransform="matrix(-.02304 0 0 .0147 21.623 37.04)" gradientUnits="userSpaceOnUse" xlink:href="#linearGradient5060"/>
  <linearGradient id="linearGradient5060">
   <stop id="stop5062" offset="0"/>
   <stop id="stop5064" style="stop-opacity:0" offset="1"/>
  </linearGradient>
  <radialGradient id="radialGradient2625" cx="605.71" cy="486.65" r="117.14" gradientTransform="matrix(.02304 0 0 .0147 26.361 37.04)" gradientUnits="userSpaceOnUse" xlink:href="#linearGradient5060"/>
  <linearGradient id="linearGradient2622" x1="-51.786" x2="-51.786" y1="50.786" y2="2.9062" gradientTransform="matrix(.8075 0 0 .89483 59.41 -2.9806)" gradientUnits="userSpaceOnUse" xlink:href="#linearGradient3104"/>
  <linearGradient id="linearGradient2620" x1="25.132" x2="25.132" y1=".98521" y2="47.013" gradientTransform="matrix(1 0 0 .95617 -1.0065e-7 -1.9149)" gradientUnits="userSpaceOnUse">
   <stop id="stop3602" style="stop-color:#f4f4f4" offset="0"/>
   <stop id="stop3604" style="stop-color:#dbdbdb" offset="1"/>
  </linearGradient>
  <radialGradient id="radialGradient2617" cx="102" cy="112.3" r="139.56" gradientTransform="matrix(.3617 0 0 -.39078 .85106 47.517)" gradientUnits="userSpaceOnUse">
   <stop id="stop41" style="stop-color:#b7b8b9" offset="0"/>
   <stop id="stop47" style="stop-color:#ececec" offset=".18851"/>
   <stop id="stop49" style="stop-color:#fafafa;stop-opacity:0" offset=".25718"/>
   <stop id="stop51" style="stop-color:#fff;stop-opacity:0" offset=".30111"/>
   <stop id="stop53" style="stop-color:#fafafa;stop-opacity:0" offset=".5313"/>
   <stop id="stop55" style="stop-color:#ebecec;stop-opacity:0" offset=".8449"/>
   <stop id="stop57" style="stop-color:#e1e2e3;stop-opacity:0" offset="1"/>
  </radialGradient>
  <linearGradient id="linearGradient2614" x1="24" x2="24" y1="2" y2="46.017" gradientTransform="matrix(1 0 0 .97778 0 -.96667)" gradientUnits="userSpaceOnUse">
   <stop id="stop3213" style="stop-color:#fff" offset="0"/>
   <stop id="stop3215" style="stop-color:#fff;stop-opacity:0" offset="1"/>
  </linearGradient>
  <filter id="filter3212" x="-.14846" y="-.16434" width="1.2969" height="1.3287">
   <feGaussianBlur id="feGaussianBlur3214" stdDeviation="0.77391625"/>
  </filter>
  <linearGradient id="linearGradient2610" x1="32.892" x2="36.358" y1="8.059" y2="5.4565" gradientTransform="matrix(.9977 0 0 1.0407 .1638 -1.1058)" gradientUnits="userSpaceOnUse">
   <stop id="stop8591" style="stop-color:#fefefe" offset="0"/>
   <stop id="stop8593" style="stop-color:#cbcbcb" offset="1"/>
  </linearGradient>
  <linearGradient id="linearGradient3104">
   <stop id="stop3106" style="stop-color:#aaa" offset="0"/>
   <stop id="stop3108" style="stop-color:#c8c8c8" offset="1"/>
  </linearGradient>
  <linearGradient id="linearGradient3055" x1="17.425" x2="17.425" y1="44.873" y2="-.027397" gradientTransform="translate(.03013 2.4578e-7)" gradientUnits="userSpaceOnUse" xlink:href="#linearGradient3104"/>
  <radialGradient id="radialGradient3121" cx="15.116" cy="63.965" r="12.289" gradientTransform="scale(1.644 .60828)" gradientUnits="userSpaceOnUse">
   <stop id="stop4116" offset="0"/>
   <stop id="stop4118" style="stop-opacity:0" offset="1"/>
  </radialGradient>
  <radialGradient id="radialGradient4234" cx="23.515" cy="23.143" r="9.0193" gradientTransform="matrix(1.3814e-7 1.3722 -1.4915 1.5015e-7 58.033 -9.1428)" gradientUnits="userSpaceOnUse">
   <stop id="stop3232" style="stop-color:#ffefa7" offset="0"/>
   <stop id="stop3234" style="stop-color:#ffc64c" offset="1"/>
  </radialGradient>
  <linearGradient id="linearGradient3132" x1="94.693" x2="94.693" y1="112.51" y2="64.053" gradientTransform="matrix(.21718 0 0 .21718 5.4071 4.1691)" gradientUnits="userSpaceOnUse" xlink:href="#linearGradient4126"/>
  <linearGradient id="linearGradient4242" x1="29.812" x2="29.812" y1="36" y2="16.857" gradientUnits="userSpaceOnUse">
   <stop id="stop4246" style="stop-color:#b27700" offset="0"/>
   <stop id="stop4248" style="stop-color:#c79f00" offset="1"/>
  </linearGradient>
  <linearGradient id="linearGradient3927" x1="31.121" x2="31.121" y1="17.857" y2="35.008" gradientUnits="userSpaceOnUse">
   <stop id="stop3923" style="stop-color:#fff" offset="0"/>
   <stop id="stop3925" style="stop-color:#fff;stop-opacity:0" offset="1"/>
  </linearGradient>
  <radialGradient id="radialGradient4129" cx="22.504" cy="23.333" r="9.001" gradientTransform="matrix(0 -1.4011 1.3226 0 -7.3801 54.416)" gradientUnits="userSpaceOnUse">
   <stop id="stop3995" style="stop-color:#a3c0d0" offset="0"/>
   <stop id="stop4001" style="stop-color:#427da1" offset="1"/>
  </radialGradient>
  <linearGradient id="linearGradient4126">
   <stop id="stop4128" style="stop-color:#fff" offset="0"/>
   <stop id="stop4130" style="stop-color:#fff;stop-opacity:.16495" offset="1"/>
  </linearGradient>
  <linearGradient id="linearGradient3144" x1="94.693" x2="94.693" y1="112.51" y2="64.053" gradientTransform="matrix(.21718 0 0 .21718 -1.3943 -2.8679)" gradientUnits="userSpaceOnUse" xlink:href="#linearGradient4126"/>
  <linearGradient id="linearGradient4137" x1="17.849" x2="17.849" y1="29.074" y2="10" gradientUnits="userSpaceOnUse">
   <stop id="stop2492" style="stop-color:#2e4a5a" offset="0"/>
   <stop id="stop2494" style="stop-color:#6e8796" offset="1"/>
  </linearGradient>
  <linearGradient id="linearGradient4153" x1="25.315" x2="25.315" y1="10.905" y2="35.926" gradientUnits="userSpaceOnUse">
   <stop id="stop4149" style="stop-color:#fff" offset="0"/>
   <stop id="stop4151" style="stop-color:#fff;stop-opacity:0" offset="1"/>
  </linearGradient>
 </defs>
 <g id="layer1">
  <rect id="rect2879" x="7.7378" y="42.43" width="32.508" height="3.5701" style="fill:url(#linearGradient2631);opacity:.3"/>
  <path id="path2881" d="m7.7378 42.43v3.5699c-1.1865 0.006721-2.8684-0.79982-2.8684-1.7852 0-0.98533 1.324-1.7847 2.8684-1.7847z" style="fill:url(#radialGradient2628);opacity:.3"/>
  <path id="path2883" d="m40.246 42.43v3.5699c1.1865 0.006721 2.8684-0.79982 2.8684-1.7852 0-0.98533-1.324-1.7847-2.8684-1.7847z" style="fill:url(#radialGradient2625);opacity:.3"/>
  <path id="path4160" d="m6.5 0.4972h24.061c1.4069 0.47465 8.9655 5.8822 10.939 9.6264v34.379h-35v-44.006z" style="fill:url(#linearGradient2620);stroke-linejoin:round;stroke-width:.99992;stroke:url(#linearGradient2622)"/>
  <path id="path4191" d="m7.3617 44c-0.1993 0-0.3617-0.17546-0.3617-0.39078v-42.204c0-0.21571 0.1624-0.39078 0.3617-0.39078 7.4831 0.10801 15.776-0.16158 23.25 0.026895l10.283 8.866 0.10598 33.702c0 0.21532-0.16204 0.39078-0.3617 0.39078h-33.277z" style="fill:url(#radialGradient2617)"/>
  <path id="path2435" d="m40.5 10.259v33.263h-33v-42.045h22.866" style="fill:none;opacity:.6;stroke-linejoin:round;stroke-width:.99992;stroke:url(#linearGradient2614)"/>
  <path id="path12038" d="m28.617 0.92126c4.2825 0 2.1532 8.4832 2.1532 8.4832s10.358-1.8023 10.358 2.8187c0-2.6097-11.302-10.729-12.511-11.302z" style="fill-rule:evenodd;filter:url(#filter3212);opacity:.4"/>
  <path id="path4474" d="m28.617 0.92126c3.1865 0 2.3358 7.6619 2.3358 7.6619s10.175-0.98105 10.175 3.64c0-1.1259 0.085913-1.9322-0.13378-2.2836-1.5783-2.5242-8.3955-8.1884-10.857-8.9308-0.18422-0.055555-0.5927-0.087535-1.5198-0.087535z" style="fill-rule:evenodd;fill:url(#linearGradient2610)"/>
  <path id="path4009" d="m11 37h3.0367v1h-3.0367v-1zm0-22v1h3.0625v-1h-3.0625zm0 2v1h3.0938v-1h-3.0938zm0-11v1h2.375v-1h-2.375zm2.6875 0v1h2.25v-1h-2.25zm2.5625 0v1h1.9688v-1h-1.9688zm2.2812 0v1h0.875v-1h-0.875zm1.1875 0v1h1.9375v-1h-1.9375zm2.2812 0v1h5v-1h-5zm-11 2v1h3.7812v-1h-3.7812zm4.1562 0v1h1.8125v-1h-1.8125zm2.1562 0v1h0.84375v-1h-0.84375zm1.2188 0v1h1.625v-1h-1.625zm2 0v1h1.625v-1h-1.625zm1.9688 0v1h2.6562v-1h-2.6562zm3.0312 0v1h3.4688v-1h-3.4688zm-14.531 2v1h4.1875v-1h-4.1875zm4.5 0v1h4.5v-1h-4.5zm-4.5 2v1h2.3125v-1h-2.3125zm2.625 0v1h2.1562v-1h-2.1562zm2.4688 0v1h1.9062v-1h-1.9062zm12.219 18.125v0.96875h3.5312v-0.96875h-3.5312zm-8.375 6.875v1h2.4375v-1h-2.4375zm2.75 0v1h2.25v-1h-2.25zm2.5938 0v1h1.9375v-1h-1.9375zm2.25 0v1h3.0938v-1h-3.0938zm3.4375 0v1h5.0312v-1h-5.0312zm-16.562-22v1h5.5938v-1h-5.5938zm1.2188 18v1h4.5938v-1h-4.5938zm15.031 0v1h1.1562v-1h-1.1562zm1.5 0v1h0.6875v-1h-0.6875zm1 0v1h1.8438v-1h-1.8438zm-16.031 2v1h0.8125v-1h-0.8125zm1.0312 0v1h1.625v-1h-1.625zm1.875 0v1h1.625v-1h-1.625zm5.0312 0v1h3.375v-1h-3.375zm3.8438 0v1h2.2812v-1h-2.2812zm2.5625 0v1h0.53125v-1h-0.53125zm-20.469-13v1h1v-1h-1zm2.5625 8.1562v0.96875h2.125v-0.96875h-2.125zm-2.5625 2.8438v1h4.2812v-1h-4.2812zm0 2v1h3.6875v-1h-3.6875zm3.9688 0v1h1.7812v-1h-1.7812zm-0.625 2v1h3.3438v-1h-3.3438zm-3.3438-17v1h2.3438v-1h-2.3438zm0 4v1h2.75v-1h-2.75zm0 2v1h2.9375v-1h-2.9375zm0 2v1h2.5312v-1h-2.5312zm0 2.1562v0.96875h2.2188v-0.96875h-2.2188z" style="fill:url(#linearGradient3055)"/>
  <path id="path2917" transform="matrix(.69296 0 0 .66888 6.78 5.9746)" d="m45.053 38.909a20.203 7.4751 0 1 1-40.406 0 20.203 7.4751 0 1 1 40.406 0z" style="fill:url(#radialGradient3121);opacity:.3"/>
  <path id="path2732" d="m30.187 32.108c0 1.6766-1.4551 2.5257-2.9319 2.9492-2.2217 0.6385-4.0047 0.54077-5.8616 0-1.5506-0.45172-2.9319-1.3747-2.9319-2.9492v-5.5314c0-1.5919 1.3269-2.9514 2.9319-2.9514l5.7678-0.375c1.9524 0 3.2284-1.2187 3.2284-3.2189l0.53125-2.6738h2.1978c1.707 0 2.5105 1.2683 2.9319 2.9492 0.58637 2.3346 0.61243 4.0807 0 5.9006-0.59289 1.7678-1.227 2.9492-2.9319 2.9492h-2.9319-5.8616v-0.011604h5.8616v2.963z" style="fill:url(#radialGradient4234)"/>
  <path id="path2736" d="m26.523 32.475c0-0.61026 0.49299-1.1054 1.0989-1.1054 0.60809 0 1.0989 0.49516 1.0989 1.1054 0 0.61243-0.49082 1.1076-1.0989 1.1076-0.60592 0-1.0989-0.49516-1.0989-1.1076z" style="fill:#fff"/>
  <path id="path2742" d="m30.914 17.357v2.5938c0 1.6408-3.3817 3.6875-3.6562 3.6875h-5.75l-1.2379 0.12593c-1.261 0.32321-1.1088 1.1481-1.4809 2.6866-0.13868 0.56982-0.24227 1.1031-0.3125 1.5938-0.005017 0.035047 0.004656 0.058948 0 0.09375v1.625c3.8357-4.28 7.9275-4.6029 9.9688-4.5938 4.0735 0.017953 5.992-0.98372 7.9375-3.1875-0.006152-0.043279 0.006655-0.081351 0-0.125-0.074867-0.49105-0.20632-1.0153-0.34375-1.5625-0.19749-0.78794-0.45585-1.4815-0.875-2-0.008383-0.010369-0.022756-0.021024-0.03125-0.03125-0.004811-0.00354-0.026418 0.003518-0.03125 0-0.01428-0.016882-0.016659-0.046025-0.03125-0.0625-0.029357-0.020712-0.032433-0.042591-0.0625-0.0625-0.007454-0.008031-0.023717 0.007926-0.03125 0-0.44436-0.28803-0.98404-0.50342-1.5312-0.59375-0.49597-0.081771-0.99373-0.14449-1.5-0.1875h-0.3125-0.71875z" style="fill:url(#linearGradient3132);opacity:.6"/>
  <path id="path2744" d="m30.481 32.108c0 1.6766-1.7489 2.5257-3.2257 2.9492-2.2217 0.6385-4.0047 0.54077-5.8616 0-1.5506-0.45172-2.9319-1.3747-2.9319-2.9492v-5.8253c0-1.8862 1.3689-2.9094 2.9319-2.9094l5.2131-0.03125c1.9524 0 3.9285-1.9981 3.9285-3.9983v-1.9863h2.5837c1.707 0 2.5105 1.2683 2.9319 2.9492 0.58637 2.3346 0.61243 4.0807 0 5.9006-0.59289 1.7678-1.227 3.1591-2.9319 3.1591h-2.638-6.1554v-0.011604l6.1554 0.020989v2.7321z" style="fill:none;stroke:url(#linearGradient4242)"/>
  <path id="path2746" d="m31.037 17.857v1.4688c0 2.2857-2.3504 4.5606-4.591 4.5606h-5.0625c-1.3226 0-2.4062 1.3753-2.4062 2.6894v5.5312c0 0.64105 0.22844 1.1191 0.6875 1.5312s1.1492 0.72606 1.875 0.9375c1.7899 0.52126 3.4221 0.61514 5.5625 0 0.6951-0.19933 1.6199-0.57688 2.0851-0.97971s0.80247-0.79539 0.80247-1.489v-2.2276h-5.6688-0.5v-0.5-0.03125-0.5h0.5 5.875 0.5v0.03125h2.4375c0.73691 0 1.0972-0.28997 1.4633-0.71397s0.6842-1.2561 0.97423-2.1209c0.58023-1.7242 0.57287-3.3441 0-5.625-0.19964-0.79652-0.48955-1.4398-0.875-1.875s-0.83284-0.6875-1.5625-0.6875h-2.0965zm1 1h1.0965c0.31921 0 0.73602 0.25739 0.8125 0.34375 0.2225 0.25122 0.47864 0.76012 0.65625 1.4688 0.54588 2.1734 0.54708 3.5296 0.03125 5.0625-0.27721 0.82655-0.56493 1.6043-0.78125 1.8349-0.19535 0.20826-0.60808 0.3125-0.71875 0.3125h-1.4375v-0.03125h-1.5-5.875-1.5v1.5 0.03125 1.5h1.5 4.6688v1.2276c0 0.44617-0.59731 0.7235-0.70009 0.8125-0.29901 0.25889-0.82898 0.513-1.4375 0.6875-1.9779 0.56843-3.3753 0.48225-5.0312 0-0.62675-0.18258-1.1699-0.45041-1.4688-0.71875-0.007005-0.006289-0.024196-0.024678-0.03125-0.03125-0.042136-0.040498-0.093991-0.091327-0.125-0.125-0.029296-0.035206-0.07291-0.093439-0.09375-0.125-0.011656-0.018981-0.047845-0.069057-0.0625-0.09375-0.015173-0.035035-0.022206-0.085901-0.03125-0.125-0.006376-0.032012-0.027909-0.089781-0.03125-0.125-0.003354-0.045112 0-0.10518 0-0.15625v-5.5312c0-0.75833 0.64842-1.6894 1.4062-1.6894h5.0625c2.8167-1e-6 5.591-2.7038 5.591-5.5606v-0.46875z" style="fill:url(#linearGradient3927);opacity:.6"/>
  <path id="path2730" d="m17.854 13.538c0-1.6766 0.44955-2.5887 2.9319-3.0231 1.6853-0.29536 3.8462-0.33228 5.8616 0 1.5919 0.26278 2.9319 1.4486 2.9319 3.0231v5.5314c0 1.6223-1.3009 2.9514-2.9319 2.9514l-5.3158 0.29384c-1.9893 0-4.0437 1.7381-4.0437 3.6558l-0.16791 2.3181h-2.0154c-1.7048 0-2.6973-1.2292-3.1143-2.9492-0.56248-2.3107-0.53859-3.6876 0-5.9006 0.46693-1.9307 1.9589-2.9492 3.6637-2.9492h2.2 5.8637v-0.019645h-5.8637v-2.9318z" style="fill:url(#radialGradient4129)"/>
  <path id="path2734" d="m19.32 13.17c0-0.61243 0.49082-1.1076 1.0989-1.1076 0.60592 0 1.0989 0.49516 1.0989 1.1076 0 0.61026-0.49299 1.1054-1.0989 1.1054-0.60809 0-1.0989-0.49516-1.0989-1.1054z" style="fill:#fff"/>
  <path id="path2738" d="m23.213 10.27c-0.86737 0.021011-1.7002 0.12078-2.4375 0.25-2.4823 0.43435-2.9062 1.3547-2.9062 3.0312v2.9062h5.8438v0.03125h-5.8438-2.2188c-1.7048 0-3.1893 1.0068-3.6562 2.9375-0.31698 1.3025-0.46044 2.3222-0.40625 3.4062 3.8616-4.3769 8.0052-4.6968 10.062-4.6875 4.0735 0.017954 5.992-0.98372 7.9375-3.1875v-1.4062c0-1.5745-1.3456-2.7685-2.9375-3.0312-1.1337-0.18691-2.3223-0.27701-3.4375-0.25z" style="fill:url(#linearGradient3144);opacity:.4"/>
  <path id="path3530" d="m17.507 13.866c0-1.6634 1.7452-2.5059 3.2188-2.926 2.2169-0.63347 3.9961-0.53651 5.849 0 1.5473 0.44817 2.9256 1.3639 2.9256 2.926v5.4879c0 1.5794-1.3241 3.1781-2.9256 3.1781h-5.4496c-1.5299 0-3.6724 1.6742-3.6724 3.6586v2.3099h-2.5782c-1.7033 0-2.5052-1.2583-2.9256-2.926-0.58512-2.3163-0.61112-4.0486 0-5.8542 0.59162-1.7539 1.2244-3.1343 2.9256-3.1343h2.6324 6.1422v0.011513l-6.1422-0.020824v-2.7106z" style="fill:none;stroke:url(#linearGradient4137)"/>
  <path id="path4143" d="m23.781 11.406c-0.86272-0.010966-1.777 0.079119-2.8125 0.375-0.67284 0.19184-1.397 0.50989-1.875 0.875s-0.6875 0.69908-0.6875 1.2188v1.7812l5.25 0.03125c0.50051 0 0.90625 0.40574 0.90625 0.90625s-0.40574 0.90625-0.90625 0.90625h-6.1562-2.625c-0.61088 0-0.86615 0.15916-1.1875 0.5625s-0.61931 1.0868-0.90625 1.9375c-0.55343 1.6352-0.52969 3.1232 0.03125 5.3438 0.18998 0.75359 0.45754 1.3557 0.78125 1.7188s0.6513 0.53125 1.2812 0.53125h1.6562v-1.4062c0-1.3156 0.69306-2.4262 1.5625-3.2188s1.9413-1.3438 3.0312-1.3438h5.4375c1.0042 0 2.0313-1.2051 2.0312-2.2812v-5.4688c0-0.51638-0.16388-0.86278-0.5625-1.2188s-1.0344-0.67679-1.7188-0.875c-0.86734-0.25114-1.6686-0.36404-2.5312-0.375z" style="fill:none;opacity:.4;stroke:url(#linearGradient4153)"/>
 </g>
</svg>
