<?xml version="1.0" encoding="UTF-8"?>
<!-- Created with Inkscape (http://www.inkscape.org/) -->
<svg id="svg11300" width="16" height="16" version="1.0" xmlns="http://www.w3.org/2000/svg" xmlns:xlink="http://www.w3.org/1999/xlink">
 <defs id="defs3">
  <linearGradient id="linearGradient5460">
   <stop id="stop5462" style="stop-color:#e5e5e5" offset="0"/>
   <stop id="stop5464" style="stop-color:#c8c8c8" offset="1"/>
  </linearGradient>
  <linearGradient id="linearGradient2296">
   <stop id="stop2298" style="stop-color:#fff" offset="0"/>
   <stop id="stop2300" style="stop-color:#fff;stop-opacity:0" offset="1"/>
  </linearGradient>
  <linearGradient id="linearGradient3116">
   <stop id="stop3118" style="stop-color:#e5e5e5" offset="0"/>
   <stop id="stop3120" style="stop-color:#dfdfdf" offset="1"/>
  </linearGradient>
  <linearGradient id="linearGradient5596" x1="48" x2="78" y1="18.534" y2="18.534" gradientTransform="matrix(.96932 .30347 -.31303 .99988 -26.514 -28.878)" gradientUnits="userSpaceOnUse" xlink:href="#linearGradient2296"/>
  <linearGradient id="linearGradient5621" x1="54.287" x2="68.843" y1="9.1136" y2="38.118" gradientTransform="matrix(.29023 -.0042309 .003864 .29211 -12.896 1.8392)" gradientUnits="userSpaceOnUse" xlink:href="#linearGradient2296"/>
  <linearGradient id="linearGradient5625" x1="34.562" x2="50.809" y1="17.249" y2="44.77" gradientTransform="matrix(.21256 0 0 .30196 -2.6789 1.9684)" gradientUnits="userSpaceOnUse" xlink:href="#linearGradient3116"/>
  <linearGradient id="linearGradient5628" x1="35.321" x2="51.861" y1="24.984" y2="41.37" gradientTransform="matrix(.25938 0 0 .34386 -4.2615 .85874)" gradientUnits="userSpaceOnUse" xlink:href="#linearGradient5460"/>
  <linearGradient id="linearGradient5634" x1="54.287" x2="68.843" y1="9.1136" y2="38.118" gradientTransform="matrix(.29023 -.0042309 .003864 .29211 -6.8962 -1.1608)" gradientUnits="userSpaceOnUse" xlink:href="#linearGradient2296"/>
  <linearGradient id="linearGradient5637" x1="34.562" x2="50.809" y1="17.249" y2="44.77" gradientTransform="matrix(.21256 0 0 .30196 3.3163 -1.0429)" gradientUnits="userSpaceOnUse" xlink:href="#linearGradient3116"/>
  <linearGradient id="linearGradient5640" x1="35.321" x2="51.861" y1="24.984" y2="41.37" gradientTransform="matrix(.25938 0 0 .34386 1.7337 -2.1522)" gradientUnits="userSpaceOnUse" xlink:href="#linearGradient5460"/>
  <radialGradient id="radialGradient6420" cx="1.5696" cy="5.8844" r="3.9924" gradientTransform="matrix(1 0 0 1.376 0 -3.5688)" gradientUnits="userSpaceOnUse" xlink:href="#linearGradient2296"/>
  <radialGradient id="radialGradient6428" cx="7.5023" cy="2.8504" r="3.9924" gradientTransform="matrix(1 0 0 1.376 0 -2.4365)" gradientUnits="userSpaceOnUse" xlink:href="#linearGradient2296"/>
 </defs>
 <g id="g6430">
  <g id="g7999" transform="matrix(.22639 -.060946 .059739 .23097 3.8244 4.0372)" style="enable-background:new;stroke-width:4.2665">
   <path id="path8001" d="m11.249 13.686c11.018 7.8164 20.074 0.26802 29.08 9.104l5.1758-18.011-1.1939-2.5247-24.804-7.853-2.7171 1.3052-5.5407 17.98z" style="fill-rule:evenodd;fill:url(#linearGradient5596);opacity:.51648"/>
  </g>
  <rect id="rect8003" transform="matrix(1 .00182 -.0016279 1 0 0)" x="6.5189" y=".48657" width="8.9832" height="11.987" rx=".88015" ry=".8686" style="enable-background:new;fill:url(#linearGradient5640);stroke-linecap:round;stroke-width:1.0001;stroke:#888a85"/>
  <rect id="rect8005" transform="matrix(1 .0018854 -.0015701 1 0 0)" x="7.5179" y="1.4857" width="6.9845" height="9.9871" rx=".13934" ry=".14237" style="enable-background:new;fill:url(#linearGradient5637);stroke-linecap:round;stroke-width:1.0003;stroke:url(#radialGradient6428)"/>
  <path id="path8007" d="m7.0441 6.7388c3.6872 1.1083 4.721-1.767 7.9523-0.21298l0.0035-4.967c3e-3 -0.28099-0.13098-0.46808-0.54753-0.46279l-6.8298-0.09599c-0.3921-0.001002-0.637 0.3319-0.62193 0.58278l0.043456 5.156z" style="enable-background:new;fill-rule:evenodd;fill:url(#linearGradient5634);opacity:.51648"/>
  <path id="path8032" d="m10.966 8.4187c1.2897 1.3264 3.0507 0.092384 3.0343-1.1702-0.01489-1.1542-0.86587-1.7037-3.0063-3.7485-2.2252 1.9186-3.0101 2.3621-2.9934 3.7316 0.016896 1.4176 1.5323 2.4757 2.9653 1.1871z" style="enable-background:new;fill-rule:evenodd"/>
  <g id="g7873" transform="matrix(.22696 -.060799 .059888 .23041 -2.1832 7.0296)" style="stroke-width:4.2665">
   <path id="path7875" d="m11.249 13.686c11.018 7.8164 20.074 0.26802 29.08 9.104l5.1758-18.011-1.1939-2.5247-24.804-7.853-2.7171 1.3052-5.5407 17.98z" style="fill-rule:evenodd;fill:url(#linearGradient5596);opacity:.51648"/>
  </g>
  <rect id="rect7877" transform="matrix(1 .00182 -.0016279 1 0 0)" x=".52383" y="3.4975" width="8.9833" height="11.987" rx=".88015" ry=".8686" style="fill:url(#linearGradient5628);stroke-linecap:round;stroke-width:1.0001;stroke:#888a85"/>
  <rect id="rect7879" transform="matrix(1 .0018854 -.0015701 1 0 0)" x="1.5227" y="4.497" width="6.9845" height="9.9871" rx=".13934" ry=".14237" style="fill:url(#linearGradient5625);stroke-linecap:round;stroke-width:1.0003;stroke:url(#radialGradient6420)"/>
  <path id="path7881" d="m4.9655 7.6341c1.2897-1.447 3.0507-0.10078 3.0343 1.2766-0.014892 1.2592-0.86587 1.8586-3.0063 4.0893-2.2252-2.0931-3.0101-2.5769-2.9934-4.0708 0.016896-1.5465 1.5323-2.7007 2.9653-1.295z" style="fill-rule:evenodd;fill:#c00"/>
  <path id="path7885" d="m1.0441 9.7388c3.6872 1.1083 4.721-1.767 7.9523-0.21298l0.0035259-4.967c0.002997-0.28099-0.13098-0.46808-0.54753-0.46279l-6.8298-0.09599c-0.3921-1e-3 -0.637 0.3319-0.62193 0.58278l0.043456 5.156z" style="fill-rule:evenodd;fill:url(#linearGradient5621);opacity:.51648"/>
 </g>
</svg>
