<?xml version="1.0" encoding="UTF-8"?>
<!-- Created with Inkscape (http://www.inkscape.org/) -->
<svg id="svg3034" width="32px" height="32px" version="1.1" xmlns="http://www.w3.org/2000/svg" xmlns:cc="http://creativecommons.org/ns#" xmlns:dc="http://purl.org/dc/elements/1.1/" xmlns:rdf="http://www.w3.org/1999/02/22-rdf-syntax-ns#" xmlns:xlink="http://www.w3.org/1999/xlink">
 <defs id="defs3036">
  <linearGradient id="linearGradient4076" x1="28.739" x2="26.257" y1="144.12" y2="125.39" gradientTransform="matrix(.29553 0 0 .21508 23.132 -21.36)" gradientUnits="userSpaceOnUse" xlink:href="#linearGradient2372"/>
  <linearGradient id="linearGradient2372">
   <stop id="stop2374" style="stop-color:#fff" offset="0"/>
   <stop id="stop2376" style="stop-color:#fff;stop-opacity:.34483" offset="1"/>
  </linearGradient>
  <radialGradient id="radialGradient4078" cx="17.059" cy="41.059" r="5.7385" fx="14.758" fy="37.841" gradientTransform="matrix(.66924 -.10851 .014607 .62555 15.262 .80827)" gradientUnits="userSpaceOnUse">
   <stop id="stop3670" style="stop-color:#fff" offset="0"/>
   <stop id="stop3672" style="stop-color:#fff;stop-opacity:0" offset="1"/>
  </radialGradient>
  <linearGradient id="linearGradient4080" x1="28.503" x2="26.257" y1="137.54" y2="125.39" gradientTransform="matrix(.21411 0 0 .21508 13.115 -19.583)" gradientUnits="userSpaceOnUse" xlink:href="#linearGradient2372"/>
  <radialGradient id="radialGradient4082" cx="17.059" cy="41.059" r="5.7385" fx="14.688" fy="37.456" gradientTransform="matrix(.6356 -.11376 .022316 .60479 3.8662 3.5773)" gradientUnits="userSpaceOnUse">
   <stop id="stop7069" style="stop-color:#fff" offset="0"/>
   <stop id="stop7071" style="stop-color:#fff;stop-opacity:0" offset="1"/>
  </radialGradient>
  <linearGradient id="linearGradient4672" x1="12.872" x2="12.872" y1="5.0561" y2="18.912" gradientTransform="matrix(1.0407 0 0 .99038 -1.2997 1.5562)" gradientUnits="userSpaceOnUse">
   <stop id="stop3618" style="stop-color:#f0c178" offset="0"/>
   <stop id="stop3270" style="stop-color:#e18941" offset=".5"/>
   <stop id="stop3620" style="stop-color:#ec4f18" offset="1"/>
  </linearGradient>
  <radialGradient id="radialGradient4675" cx="33.967" cy="35.737" r="86.708" gradientTransform="matrix(.45689 0 0 .53329 .75614 .63223)" gradientUnits="userSpaceOnUse" xlink:href="#linearGradient259-3"/>
  <linearGradient id="linearGradient259-3">
   <stop id="stop260-6" style="stop-color:#828282" offset="0"/>
   <stop id="stop261-5" style="stop-color:#434343" offset="1"/>
  </linearGradient>
  <radialGradient id="radialGradient4678" cx="33.967" cy="35.737" r="86.708" gradientTransform="matrix(.49493 0 0 .53363 -.8886 .63131)" gradientUnits="userSpaceOnUse" xlink:href="#linearGradient259-3"/>
  <linearGradient id="linearGradient2543" x1="302.86" x2="302.86" y1="366.65" y2="609.51" gradientTransform="matrix(2.7744 0 0 1.9697 -1892.2 -872.89)" gradientUnits="userSpaceOnUse">
   <stop id="stop5050-7" style="stop-opacity:0" offset="0"/>
   <stop id="stop5056-6" offset=".5"/>
   <stop id="stop5052-7" style="stop-opacity:0" offset="1"/>
  </linearGradient>
  <radialGradient id="radialGradient2545" cx="605.71" cy="486.65" r="117.14" gradientTransform="matrix(2.7744 0 0 1.9697 -1891.6 -872.89)" gradientUnits="userSpaceOnUse" xlink:href="#linearGradient5060-1"/>
  <linearGradient id="linearGradient5060-1">
   <stop id="stop5062-5" offset="0"/>
   <stop id="stop5064-9" style="stop-opacity:0" offset="1"/>
  </linearGradient>
  <radialGradient id="radialGradient3032" cx="605.71" cy="486.65" r="117.14" gradientTransform="matrix(-2.7744 0 0 1.9697 112.76 -872.89)" gradientUnits="userSpaceOnUse" xlink:href="#linearGradient5060-1"/>
 </defs>
 <metadata id="metadata3039">
  <rdf:RDF>
   <cc:Work rdf:about="">
    <dc:format>image/svg+xml</dc:format>
    <dc:type rdf:resource="http://purl.org/dc/dcmitype/StillImage"/>
    <dc:title/>
   </cc:Work>
  </rdf:RDF>
 </metadata>
 <g id="layer1">
  <g id="g5022" transform="matrix(.011328 0 0 .0062715 21.575 22.945)">
   <rect id="rect4173-3" x="-1559.3" y="-150.7" width="1339.6" height="478.36" style="fill:url(#linearGradient2543);opacity:.40206"/>
   <path id="path5058-9" d="m-219.62-150.68v478.33c142.87 0.90045 345.4-107.17 345.4-239.2 0-132.03-159.44-239.13-345.4-239.13z" style="fill:url(#radialGradient2545);opacity:.40206"/>
   <path id="path5018-4" d="m-1559.3-150.68v478.33c-142.87 0.90045-345.4-107.17-345.4-239.2 0-132.03 159.44-239.13 345.4-239.13z" style="fill:url(#radialGradient3032);opacity:.40206"/>
  </g>
  <path id="path3385-8" d="m5.7691 23.474h-3.1338c-0.2539-0.24834-0.060832-0.74139-0.12116-1.093v-19.76l0.035409-0.085295 0.085751-0.035221h3.0912" style="display:block;fill:url(#radialGradient4678);stroke:#333"/>
  <path id="rect15391-1" d="m17.5 2.5h2.8751c0.23439 0.24818 0.05616 0.74092 0.11185 1.0923 0 6.5825 0.0082 13.109 0.0082 19.691 0 0.28993-0.46648 0.2049-1.0226 0.2049-0.64946 0-1.2989-0.02815-1.9484-0.02815" style="display:block;fill:url(#radialGradient4675);stroke:#333"/>
  <rect id="rect3457-2" x="5.5" y="2.5" width="12" height="21" rx="0" ry="0" style="fill:url(#linearGradient4672);stroke:#333"/>
  <path id="path3460-9" d="m5.5 12.5h12.002" style="fill:none;stroke:#333"/>
  <g id="g2547" transform="matrix(.936 0 0 1.045 -.63289 .91146)" style="stroke-width:.99939">
   <rect id="rect3464-3" x="4.3611" y="2.0974" width="1" height=".89926" style="fill:#fff"/>
   <rect id="rect3466-9" x="4.3611" y="4.0987" width="1" height=".89926" style="fill:#fff"/>
   <rect id="rect3468-0" x="4.3611" y="6.1" width="1" height=".89926" style="fill:#fff"/>
   <rect id="rect3470-8" x="4.3611" y="8.1013" width="1" height=".89926" style="fill:#fff"/>
   <rect id="rect3472-8" x="4.3611" y="10.103" width="1" height=".89926" style="fill:#fff"/>
   <rect id="rect3474-5" x="4.3611" y="12.104" width="1" height=".89926" style="fill:#fff"/>
   <rect id="rect3476-0" x="4.3611" y="14.105" width="1" height=".89926" style="fill:#fff"/>
   <rect id="rect3478-9" x="4.3611" y="16.107" width="1" height=".89926" style="fill:#fff"/>
   <rect id="rect3480-6" x="4.3611" y="18.108" width="1" height=".89926" style="fill:#fff"/>
   <rect id="rect3482-3" x="4.3611" y="20.109" width="1" height=".89926" style="fill:#fff"/>
  </g>
  <g id="g2559" transform="matrix(.936 0 0 1.045 14.53 .91146)" style="stroke-width:.99939">
   <rect id="rect2561" x="4.3611" y="2.0974" width="1" height=".89926" style="fill:#fff"/>
   <rect id="rect2563" x="4.3611" y="4.0987" width="1" height=".89926" style="fill:#fff"/>
   <rect id="rect2565" x="4.3611" y="6.1" width="1" height=".89926" style="fill:#fff"/>
   <rect id="rect2567" x="4.3611" y="8.1013" width="1" height=".89926" style="fill:#fff"/>
   <rect id="rect2569" x="4.3611" y="10.103" width="1" height=".89926" style="fill:#fff"/>
   <rect id="rect2571" x="4.3611" y="12.104" width="1" height=".89926" style="fill:#fff"/>
   <rect id="rect2573" x="4.3611" y="14.105" width="1" height=".89926" style="fill:#fff"/>
   <rect id="rect2575" x="4.3611" y="16.107" width="1" height=".89926" style="fill:#fff"/>
   <rect id="rect2577" x="4.3611" y="18.108" width="1" height=".89926" style="fill:#fff"/>
   <rect id="rect2579" x="4.3611" y="20.109" width="1" height=".89926" style="fill:#fff"/>
  </g>
  <path id="path4015" d="m6.5 13.5h9.9995" style="display:block;fill:none;opacity:.36638;stroke-linecap:square;stroke:#fff"/>
  <path id="path4017" d="m6.5 3.5h9.9995" style="display:block;fill:none;opacity:.36638;stroke-linecap:square;stroke:#fff"/>
  <g id="g4069" transform="translate(-1.0897 -4e-7)">
   <path id="path3406" d="m30.337 5.1374c-3.9838 0.63708-7.9786 1.2092-11.959 1.8626-1.0835 0.54371-0.69575 1.9246-0.76556 2.8987v12.643c-2.7818-0.61998-5.9922 1.5503-6.016 4.4985-0.12525 1.8932 1.7014 3.462 3.5391 3.2886 2.491-0.12775 4.6319-2.5408 4.3651-5.1174-1e-6 -4.2149 0-9.0866 0-13.301 3.2853-0.47372 6.7148-0.99473 10-1.4693-1e-6 3.2491 0 7.1551 0 10.404-2.6656-0.76794-5.8845 0.99247-6.3262 3.8067-0.36934 1.6584 0.78957 3.3253 2.3726 3.7993 2.9632 0.97133 6.2777-1.8935 5.9282-4.957-0.0083-5.7463 0.02496-11.493 0-17.239-0.06963-0.57117-0.51587-1.1464-1.138-1.1175z" style="fill:#4d4d4d;stroke-linecap:round;stroke-linejoin:round;stroke:#333"/>
   <path id="path3996" d="m30 21.145 0.03938-10.957c0.41508-0.05396 0.06373-0.0087 0.62345-0.0895 0.0077 2.0466 0.01052 3.425 0.01052 11.154 0 0.05752-0.24175-0.02887-0.67336-0.10832h2e-6z" style="fill-rule:evenodd;fill:url(#linearGradient4076);opacity:.4"/>
   <path id="path2716" d="m31.119 23.988c0 1.9529-1.7194 3.8286-3.8404 4.1897-2.121 0.36103-3.8404-0.9294-3.8404-2.8823 0-1.9529 1.7194-3.8286 3.8404-4.1897 2.121-0.36103 3.8404 0.9294 3.8404 2.8823z" style="fill:url(#radialGradient4078);opacity:.6"/>
   <path id="path2720" d="m18 23.021 0.10886-14.912s0.12112-0.68589 0.823-0.68874c0.06098 0.10562 11.515-1.8024 11.515-1.8024s0.71208 0.88402-4.3824 1.6158c-7.2513 1.0416-7.2487 1.0831-7.2487 1.8316 0 2.2078-0.15241 6.268-0.15241 14.307-0.15591-0.13304-0.35046-0.27139-0.66316-0.35085z" style="fill-rule:evenodd;fill:url(#linearGradient4080);opacity:.4"/>
   <path id="path2712" d="m19.272 25.836c0 1.8888-1.633 3.7031-3.6474 4.0523-2.0144 0.3492-3.6474-0.89894-3.6474-2.7878 0-1.8888 1.633-3.7031 3.6474-4.0523 2.0144-0.3492 3.6474 0.89894 3.6474 2.7878z" style="fill:url(#radialGradient4082);opacity:.6"/>
  </g>
 </g>
</svg>
