<?xml version="1.0" encoding="UTF-8"?>
<!-- Created with Inkscape (http://www.inkscape.org/) -->
<svg id="svg3439" width="32px" height="32px" version="1.1" xmlns="http://www.w3.org/2000/svg" xmlns:cc="http://creativecommons.org/ns#" xmlns:dc="http://purl.org/dc/elements/1.1/" xmlns:rdf="http://www.w3.org/1999/02/22-rdf-syntax-ns#" xmlns:xlink="http://www.w3.org/1999/xlink">
 <defs id="defs3441">
  <linearGradient id="linearGradient3098" x1="44.995" x2="3.0052" y1="17.5" y2="17.5" gradientTransform="matrix(.46475 0 0 .66667 4.8461 5.8333)" gradientUnits="userSpaceOnUse" spreadMethod="reflect">
   <stop id="stop3277" style="stop-color:#fff;stop-opacity:0" offset="0"/>
   <stop id="stop3283" style="stop-color:#fff" offset=".245"/>
   <stop id="stop3285" style="stop-color:#fff" offset=".7735"/>
   <stop id="stop3279" style="stop-color:#fff;stop-opacity:0" offset="1"/>
  </linearGradient>
  <linearGradient id="linearGradient3102" x1="20.781" x2="20.812" y1="24.594" y2="23.531" gradientTransform="matrix(.7225 0 0 .66667 -1.2895 -4.8454e-7)" gradientUnits="userSpaceOnUse">
   <stop id="stop3245" offset="0"/>
   <stop id="stop3247" style="stop-opacity:0" offset="1"/>
  </linearGradient>
  <linearGradient id="linearGradient3088" x1="30.5" x2="30.5" y1="18.665" y2="26" gradientUnits="userSpaceOnUse" xlink:href="#linearGradient3919"/>
  <linearGradient id="linearGradient3919">
   <stop id="stop3921" style="stop-color:#fff" offset="0"/>
   <stop id="stop3923" style="stop-color:#fff;stop-opacity:0" offset="1"/>
  </linearGradient>
  <radialGradient id="radialGradient3090" cx="27.233" cy="22.5" r="7" gradientTransform="matrix(1.4456 0 0 1.2532 -10.146 -5.6961)" gradientUnits="userSpaceOnUse">
   <stop id="stop3472" style="stop-color:#f5e0be" offset="0"/>
   <stop id="stop3474" style="stop-color:#8ae234" offset="1"/>
  </radialGradient>
  <linearGradient id="linearGradient3082" x1="20.812" x2="22.719" y1="15.281" y2="24.594" gradientUnits="userSpaceOnUse" xlink:href="#linearGradient2384"/>
  <linearGradient id="linearGradient2384">
   <stop id="stop2386" style="stop-color:#5c3566" offset="0"/>
   <stop id="stop2388" style="stop-color:#43274b" offset="1"/>
  </linearGradient>
  <linearGradient id="linearGradient3084" x1="2.0518" x2="2.0518" y1="23.776" y2="20.549" gradientTransform="matrix(.96593 .25882 .25882 -.96593 12.366 46.03)" gradientUnits="userSpaceOnUse" xlink:href="#linearGradient3517"/>
  <linearGradient id="linearGradient3517">
   <stop id="stop3519" style="stop-color:#fff" offset="0"/>
   <stop id="stop3521" style="stop-color:#eeeeec" offset="1"/>
  </linearGradient>
  <linearGradient id="linearGradient3086" x1="12.5" x2="12.5" y1="16.248" y2="13.748" gradientTransform="translate(3)" gradientUnits="userSpaceOnUse">
   <stop id="stop3553" style="stop-color:#fff" offset="0"/>
   <stop id="stop3555" style="stop-color:#888a85" offset="1"/>
  </linearGradient>
  <linearGradient id="linearGradient3120" x1="12.812" x2="12.812" y1="16.279" y2="13.742" gradientTransform="scale(.66667 .66667)" gradientUnits="userSpaceOnUse" xlink:href="#linearGradient3539"/>
  <linearGradient id="linearGradient3539">
   <stop id="stop3541" style="stop-color:#fff" offset="0"/>
   <stop id="stop3543" style="stop-color:#888a85" offset="1"/>
  </linearGradient>
  <linearGradient id="linearGradient3074" x1="13.562" x2="13.562" y1="19.844" y2="21.312" gradientUnits="userSpaceOnUse">
   <stop id="stop2396" style="stop-color:#5c3566" offset="0"/>
   <stop id="stop2398" style="stop-color:#45284d" offset="1"/>
  </linearGradient>
  <linearGradient id="linearGradient3076" x1="2.0518" x2="2.0518" y1="23.776" y2="20.549" gradientTransform="translate(13)" gradientUnits="userSpaceOnUse" xlink:href="#linearGradient3517"/>
  <linearGradient id="linearGradient3078" x1="12.812" x2="12.812" y1="16.279" y2="13.742" gradientTransform="translate(3)" gradientUnits="userSpaceOnUse" xlink:href="#linearGradient3539"/>
  <linearGradient id="linearGradient3130" x1="2.0518" x2="2.0518" y1="23.776" y2="20.549" gradientTransform="matrix(.66667 0 0 .66667 6.6667 -8.8454e-7)" gradientUnits="userSpaceOnUse" xlink:href="#linearGradient3517"/>
  <linearGradient id="linearGradient3133" x1="10.5" x2="10.5" y1="19.837" y2="21.077" gradientTransform="scale(.66667 .66667)" gradientUnits="userSpaceOnUse" xlink:href="#linearGradient2384"/>
  <linearGradient id="linearGradient3064" x1="27.617" x2="35.258" y1="15.721" y2="15.5" gradientTransform="matrix(1,0,0,-1,0,48)" gradientUnits="userSpaceOnUse">
   <stop id="stop3802" style="stop-color:#babdb6" offset="0"/>
   <stop id="stop3804" style="stop-color:#eeeeec" offset=".5"/>
   <stop id="stop3806" style="stop-color:#babdb6" offset="1"/>
  </linearGradient>
  <radialGradient id="radialGradient3066" cx="31.264" cy="12.943" r="4.5558" gradientTransform="matrix(1.3567 0 0 .75253 -11.152 1.0041)" gradientUnits="userSpaceOnUse">
   <stop id="stop3794" style="stop-color:#fff" offset="0"/>
   <stop id="stop3796" style="stop-color:#fff" offset=".5"/>
   <stop id="stop3798" style="stop-color:#888a85" offset="1"/>
  </radialGradient>
  <linearGradient id="linearGradient3068" x1="30.369" x2="30.513" y1="6.7116" y2="24.091" gradientUnits="userSpaceOnUse" xlink:href="#linearGradient3919"/>
  <radialGradient id="radialGradient3142" cx="19.219" cy="22.255" r="4.4688" gradientTransform="matrix(.81777 0 0 .43919 -2.904 5.6257)" gradientUnits="userSpaceOnUse">
   <stop id="stop3788" style="stop-color:#888a85" offset="0"/>
   <stop id="stop3790" style="stop-color:#2e3436" offset="1"/>
  </radialGradient>
  <linearGradient id="linearGradient3058" x1="13.896" x2="12.92" y1="4.6659" y2="13.139" gradientUnits="userSpaceOnUse" xlink:href="#linearGradient3887"/>
  <linearGradient id="linearGradient3887">
   <stop id="stop3889" style="stop-color:#edd400" offset="0"/>
   <stop id="stop3891" style="stop-color:#fce94f" offset="1"/>
  </linearGradient>
  <linearGradient id="linearGradient3060" x1="14.177" x2="13.837" y1="2.1587" y2="13.282" gradientUnits="userSpaceOnUse" xlink:href="#linearGradient3919"/>
  <linearGradient id="linearGradient3154" x1="11.124" x2="13.168" y1="21.562" y2="21.562" gradientTransform="matrix(-.83062 0 0 -.66667 33.579 32)" gradientUnits="userSpaceOnUse" xlink:href="#linearGradient3251"/>
  <linearGradient id="linearGradient3251">
   <stop id="stop3253" style="stop-color:#695337" offset="0"/>
   <stop id="stop3255" style="stop-color:#695337;stop-opacity:0" offset="1"/>
  </linearGradient>
  <linearGradient id="linearGradient3194" x1="14" x2="14" y1="3" y2="16.361" gradientTransform="matrix(.33333 0 0 .63158 7.3333 .28947)" gradientUnits="userSpaceOnUse" xlink:href="#linearGradient3919"/>
  <linearGradient id="linearGradient3197" x1="13.896" x2="12.92" y1="4.6659" y2="13.139" gradientTransform="matrix(.60094 0 0 .66667 3.5892 -.16667)" gradientUnits="userSpaceOnUse" xlink:href="#linearGradient3887"/>
  <linearGradient id="linearGradient3166" x1="10.749" x2="12.11" y1="21.5" y2="21.5" gradientTransform="matrix(.82051 0 0 -.66667 -2.1538 32)" gradientUnits="userSpaceOnUse" xlink:href="#linearGradient3251"/>
  <linearGradient id="linearGradient3169" x1="22.188" x2="22.188" y1="20" y2="24.08" gradientTransform="matrix(.69426 0 0 .66667 -.25182 -4.8454e-7)" gradientUnits="userSpaceOnUse" xlink:href="#linearGradient3251"/>
  <linearGradient id="linearGradient3172" x1="23" x2="23" y1="19" y2="44" gradientTransform="matrix(.65515 0 0 .6241 .60394 1.3352)" gradientUnits="userSpaceOnUse" xlink:href="#linearGradient3919"/>
  <linearGradient id="linearGradient3175" x1="24.823" x2="24.997" y1="15.378" y2="37.277" gradientTransform="matrix(.71938 0 0 .73501 -.8705 1.281)" gradientUnits="userSpaceOnUse">
   <stop id="stop3201" style="stop-color:#dac197" offset="0"/>
   <stop id="stop3203" style="stop-color:#c1a581" offset=".23942"/>
   <stop id="stop3205" style="stop-color:#dbc298" offset=".27582"/>
   <stop id="stop3207" style="stop-color:#a68b60" offset="1"/>
  </linearGradient>
  <linearGradient id="linearGradient3177" x1="15.464" x2="15.464" y1="7.9757" y2="45.042" gradientTransform="matrix(.56104 0 0 .47199 2.5351 8.498)" gradientUnits="userSpaceOnUse">
   <stop id="stop3297" style="stop-color:#c3a67d" offset="0"/>
   <stop id="stop3299" style="stop-color:#a17d4f" offset=".23942"/>
   <stop id="stop3301" style="stop-color:#bb9b71" offset=".27582"/>
   <stop id="stop3303" style="stop-color:#836945" offset="1"/>
  </linearGradient>
  <radialGradient id="radialGradient3036" cx="5" cy="41.5" r="5" gradientTransform="matrix(.59382 0 0 1.5367 -6.6595 -103.94)" gradientUnits="userSpaceOnUse" xlink:href="#linearGradient3681-3"/>
  <linearGradient id="linearGradient3681-3">
   <stop id="stop3683-8" offset="0"/>
   <stop id="stop3685-0" style="stop-opacity:0" offset="1"/>
  </linearGradient>
  <linearGradient id="linearGradient3038" x1="17.554" x2="17.554" y1="46" y2="35" gradientTransform="matrix(1.757 0 0 1.397 -17.394 -16.412)" gradientUnits="userSpaceOnUse">
   <stop id="stop3705-0" style="stop-opacity:0" offset="0"/>
   <stop id="stop3711-2" offset=".5"/>
   <stop id="stop3707-8" style="stop-opacity:0" offset="1"/>
  </linearGradient>
  <radialGradient id="radialGradient3437" cx="5" cy="41.5" r="5" gradientTransform="matrix(.59382 0 0 1.5367 41.141 -103.94)" gradientUnits="userSpaceOnUse" xlink:href="#linearGradient3681-3"/>
 </defs>
 <metadata id="metadata3444">
  <rdf:RDF>
   <cc:Work rdf:about="">
    <dc:format>image/svg+xml</dc:format>
    <dc:type rdf:resource="http://purl.org/dc/dcmitype/StillImage"/>
    <dc:title/>
   </cc:Work>
  </rdf:RDF>
 </metadata>
 <g id="layer1">
  <g id="g3305" transform="matrix(.5323 0 0 .52061 2.9447 7.0896)" style="opacity:.4">
   <rect id="rect2484" transform="scale(-1)" x="-3.6904" y="-47.848" width="2.9602" height="15.367" style="fill:url(#radialGradient3036)"/>
   <rect id="rect2486" x="3.6904" y="32.482" width="40.412" height="15.367" style="fill:url(#linearGradient3038)"/>
   <rect id="rect3444" transform="scale(1,-1)" x="44.11" y="-47.848" width="2.9602" height="15.367" style="fill:url(#radialGradient3437)"/>
  </g>
  <path id="path2488" d="m7.5905 12.51h16.549c0.9661 0 1.4009-0.13525 1.6784 0.47199l1.6841 3.7759v12.118c0 0.73314 0.05775 0.62113-0.90835 0.62113h-21.188c-0.9661 0-0.90836 0.11202-0.90836-0.62113v-12.118l1.6841-3.7759c0.26976-0.59497 0.44251-0.47199 1.4086-0.47199z" style="display:block;fill:url(#linearGradient3175);stroke-linecap:round;stroke-width:.9942;stroke:url(#linearGradient3177)"/>
  <path id="path3772" d="m7.1555 13.505c-0.58001 1.1828-1.1012 2.3945-1.6584 3.5886v11.409h21.006v-11.409c-0.53822-1.1927-1.1018-2.3765-1.6242-3.5748-0.42678-0.04762-1.0363-9.6e-5 -1.5398-0.01375-5.3945-9e-6 -10.789 1.3e-5 -16.183 0z" style="display:block;fill:none;opacity:.5;stroke-linecap:round;stroke-width:.9942;stroke:url(#linearGradient3172)"/>
  <path id="path3692" d="m7.9275 12.667c-0.2876 0-0.37972 0.04694-0.45561 0.10417-0.075886 0.05723-0.17435 0.17802-0.26035 0.41667l-1.1282 3.4792h19.917l-1.1499-3.3542c-0.14486-0.34579-0.24853-0.45725-0.34713-0.52083-0.0986-0.06359-0.24912-0.125-0.58578-0.125h-15.99z" style="color:#000000;display:block;fill:url(#linearGradient3169);opacity:.6"/>
  <path id="path3694" d="m7.5128 12.667c-0.3399 0-0.44878 0.04694-0.53846 0.10417-0.089685 0.05723-0.20605 0.17802-0.30769 0.41667l-1.3333 3.4792h4v-4h-1.8205z" style="color:#000000;display:block;fill:url(#linearGradient3166);opacity:.6"/>
  <path id="path3901" d="m10.5 1.5h3.0047l-0.06505 13.958-2.9396 0.04167v-14z" style="color:#000000;fill:url(#linearGradient3197);opacity:.84;stroke-linecap:round;stroke-linejoin:round;stroke:#c4a000"/>
  <rect id="rect3903" x="11.5" y="2.5" width="1" height="12" style="color:#000000;fill:none;opacity:.42;stroke-linecap:round;stroke:url(#linearGradient3194)"/>
  <g id="g3905" transform="matrix(.60094 0 0 .66667 3.5892 -.16667)" style="opacity:.84">
   <rect id="rect3907" x="14" y="6" width="2" height="1.0312" style="color:#000000;fill:#c4a000;opacity:.62069"/>
   <rect id="rect3909" x="14" y="9" width="2" height="1.0312" style="color:#000000;fill:#c4a000;opacity:.62069"/>
   <rect id="rect3911" x="14" y="12" width="2" height="1.0312" style="color:#000000;fill:#c4a000;opacity:.62069"/>
   <rect id="rect3913" x="14" y="15" width="2" height="1.0312" style="color:#000000;fill:#c4a000;opacity:.62069"/>
   <rect id="rect3915" x="14" y="18" width="2" height="1.0312" style="color:#000000;fill:#c4a000;opacity:.62069"/>
  </g>
  <path id="path3696" d="m23.794 12.667c0.34408 0 0.4543 0.04694 0.54509 0.10417 0.09079 0.05723 0.20859 0.17802 0.31148 0.41667l1.3498 3.4792h-4.0492v-4h1.8429z" style="color:#000000;display:block;fill:url(#linearGradient3154);opacity:.6705"/>
  <g id="g3877" transform="matrix(.57735 -.33333 .33333 .57735 -3.9946 8.9683)">
   <path id="rect3846" d="m11.5 2.5h5l-0.10825 20.938-4.8055-2.7744-0.086278-18.163z" style="color:#000000;fill:url(#linearGradient3058);stroke-linecap:round;stroke-linejoin:round;stroke-width:1.5;stroke:#b89600"/>
   <path id="rect3858" d="m12.5 3.5h3v19l-2.9121-1.4648-0.087921-17.535z" style="color:#000000;fill:none;opacity:.5;stroke-linecap:round;stroke-width:1.5;stroke:url(#linearGradient3060)"/>
   <g id="g3870">
    <rect id="rect3860" x="14" y="6" width="2" height="1.0312" style="color:#000000;fill:#c4a000;opacity:.62069"/>
    <rect id="rect3862" x="14" y="9" width="2" height="1.0312" style="color:#000000;fill:#c4a000;opacity:.62069"/>
    <rect id="rect3864" x="14" y="12" width="2" height="1.0312" style="color:#000000;fill:#c4a000;opacity:.62069"/>
    <rect id="rect3866" x="14" y="15" width="2" height="1.0312" style="color:#000000;fill:#c4a000;opacity:.62069"/>
    <rect id="rect3868" x="14" y="18" width="2" height="1.0312" style="color:#000000;fill:#c4a000;opacity:.62069"/>
   </g>
  </g>
  <path id="path3698" d="m13.979 14.333c-1.4605 0-2.6458 0.896-2.6458 2 0 0.23422 0.06866 0.45774 0.16667 0.66667h4.9583c0.09801-0.20892 0.16667-0.43245 0.16667-0.66667 0-1.104-1.1853-2-2.6458-2z" style="color:#000000;fill:url(#radialGradient3142);stroke-linecap:round;stroke-linejoin:round;stroke:#2e3436"/>
  <g id="g3927" transform="matrix(.64395 .17255 -.17255 .64395 6.1203 -8.2329)">
   <g id="g3700" transform="translate(-2,20)">
    <path id="path3702" transform="translate(0,-20)" d="m32.5 6.5c-2.2078 0-4 0.672-4 1.5l-0.02527 18.251 8.0253-0.75088c-2.14e-4 -6.5471 0-14.06 0-17.5 0-0.828-1.7922-1.5-4-1.5z" style="color:#000000;fill:url(#linearGradient3064);stroke-linecap:round;stroke-width:1.5;stroke:#888a85"/>
    <path id="path3704" transform="matrix(1 0 0 .80812 0 -18.683)" d="m36.504 8.2694a3.9996 1.8562 0 1 1-7.9991 0 3.9996 1.8562 0 1 1 7.9991 0z" style="color:#000000;fill:#fff;stroke-linecap:round;stroke-width:1.6686;stroke:url(#radialGradient3066)"/>
    <path id="path3706" d="m36.504-5c0 0.828-1.7918 1.5-3.9996 1.5s-3.9996-0.672-3.9996-1.5" style="color:#000000;fill:none;opacity:.52874;stroke-linecap:round;stroke-width:1.5;stroke:#888a85"/>
   </g>
   <path id="path3708" d="m30.5 7.5c-1.003 0-1.9003 0.16183-2.4688 0.375-0.26529 0.099481-0.4521 0.18624-0.53125 0.25v17.375h6c-4.58e-4 -6.3975-5.1e-5 -13.895 0-17.375-0.079146-0.063758-0.26596-0.15052-0.53125-0.25-0.56848-0.21317-1.4657-0.375-2.4688-0.375z" style="color:#000000;fill:none;opacity:.5;stroke-linecap:round;stroke-width:1.5;stroke:url(#linearGradient3068)"/>
  </g>
  <path id="path3718" d="m7.6667 9.7812-0.66667 3.8854v3.3333h2.6667v-7.2188l-0.5-0.11458h-0.5-0.5l-0.5 0.11458z" style="color:#000000;fill:#75507b;stroke-linecap:round;stroke-linejoin:round;stroke:url(#linearGradient3133)"/>
  <path id="path3720" d="m8.1667 10-0.20833 0.041667-0.625 3.625 0.01042-0.10417v3.625l1.3333-0.0052-0.01042-3.5165 0.66667-3.6241-0.16667-0.041667h-0.5-0.5z" style="color:#000000;fill:url(#linearGradient3130)"/>
  <g id="g2417" transform="scale(.66667 .66667)">
   <path id="path2387" d="m14.5 14.672-1 5.8281v5h4v-10.828l-0.75-0.17188h-0.75-0.75l-0.75 0.17188z" style="color:#000000;fill:#5c3566;stroke-linecap:round;stroke-linejoin:round;stroke-width:1.5;stroke:url(#linearGradient3074)"/>
   <path id="path2391" d="m15.25 15-0.3125 0.0625-0.9375 5.4375 0.01563-0.15625v5.4375l2-0.0078-0.01563-5.2748 1-5.4362-0.25-0.0625h-0.75-0.75z" style="color:#000000;fill:url(#linearGradient3076)"/>
   <path id="path2393" d="m15.25 15-0.3125 0.0625-0.9375 5.4375 2-0.001327 1-5.4362-0.25-0.0625h-0.75-0.75z" style="color:#000000;fill:url(#linearGradient3078)"/>
   <path id="path2395" d="m15.688 17.5-0.375 3 0.09375 5.2812 0.0625-5.2812 0.21875-3z" style="fill-rule:evenodd;opacity:.31801"/>
   <path id="path2397" d="m15.312 15.031-1 5.4688 0.09375 5.2812 0.0625-5.2812 0.84375-5.4688z" style="fill-rule:evenodd;opacity:.2682"/>
   <path id="path2399" d="m15.156 18.438-0.28125 2.0625 0.10938 4.1094 0.046875-4.1094 0.125-2.0625z" style="fill-rule:evenodd;opacity:.51341"/>
  </g>
  <path id="path3722" d="m8.1667 10-0.20833 0.041667-0.625 3.625 1.3333-8.67e-4 0.66667-3.6241-0.16667-0.04167h-0.5-0.5z" style="color:#000000;fill:url(#linearGradient3120)"/>
  <path id="path3951" d="m8.4583 11.667-0.25 2 0.0625 3.5208 0.041667-3.5208 0.14583-2z" style="fill-rule:evenodd;opacity:.31801"/>
  <path id="path3948" d="m8.2083 10.021-0.66667 3.6458 0.0625 3.5208 0.041667-3.5208 0.5625-3.6458z" style="fill-rule:evenodd;opacity:.2682"/>
  <g id="g2371" transform="matrix(.64395 -.17255 .17255 .64395 -.21072 3.8686)">
   <path id="path3724" transform="matrix(.96593 .25882 -.25882 .96593 1.5652 -5.103)" d="m19.75 15-0.71875 0.1875-0.75 0.21875-0.65625 0.34375 0.53125 5.9062 0.95312 3.4375h4.125l-2.5469-9.4062c-0.24068-0.72033-0.67393-0.70158-0.9375-0.6875z" style="color:#000000;fill:#75507b;stroke-linecap:round;stroke-linejoin:round;stroke-width:1.5;stroke:url(#linearGradient3082)"/>
   <path id="path3726" transform="matrix(.96593 .25882 -.25882 .96593 1.5652 -5.103)" d="m20.125 15.469-0.25 0.03125-0.71875 0.1875-0.75 0.1875-0.28125 0.15625 0.5 5.3125 1.0938 4.1562h2.0625l-1.0625-4.5312-0.59375-5.5z" style="color:#000000;fill:url(#linearGradient3084)"/>
   <path id="path3732" d="M 15.25,15 14.9375,15.0625 14,20.5 16.163058,20.493836 17,15.0625 16.75,15 16,15 15.25,15 z" style="color:#000000;fill:url(#linearGradient3086)"/>
   <path id="path3955" d="m15.812 17.781-0.34375 2.7188 0.080612 4.4851 0.075638-4.4851 0.1875-2.7188z" style="fill-rule:evenodd;opacity:.31801"/>
   <path id="path3957" d="m14.574 19.359-0.2615 1.1412 0.11616 1.6961 0.040092-1.6961 0.10524-1.1412z" style="fill-rule:evenodd;opacity:.49425"/>
   <path id="path3959" d="m15.802 15.22-0.92707 5.2801 0.10938 4.1094 0.046875-4.1094 0.77082-5.2801z" style="fill-rule:evenodd;opacity:.31801"/>
  </g>
  <path id="path3953" d="m8.1042 12.292-0.1875 1.375 0.072917 2.7396 0.031247-2.7396 0.083333-1.375z" style="fill-rule:evenodd;opacity:.51341"/>
  <g id="g2433" transform="scale(.66667 .66667)">
   <path id="path3710" d="m26.188 19.5c-0.93908 0-1.6875 0.74842-1.6875 1.6875v4.3125h12v-4.3125c0-0.93908-0.74842-1.6875-1.6875-1.6875h-8.625z" style="color:#000000;fill:#aacd37;stroke-linecap:round;stroke-width:1.5;stroke:#699536"/>
   <rect id="rect3712" x="25" y="22" width="11" height="4" style="color:#000000;fill:#c17d11;opacity:.62452"/>
   <path id="path3714" d="m26.188 20.5c-0.40088 0-0.6875 0.28662-0.6875 0.6875v4.3125h10v-4.3125c0-0.40088-0.28662-0.6875-0.6875-0.6875h-8.625z" style="color:#000000;fill:none;opacity:.29502;stroke-linecap:round;stroke-width:1.5;stroke:url(#linearGradient3088)"/>
   <rect id="rect3716" x="25" y="22" width="11" height="1" rx="0" ry="0" style="color:#000000;fill:url(#radialGradient3090)"/>
  </g>
  <path id="path3730" d="m7.2224 13c-0.12918 0-0.20154 0.01441-0.22578 0.02083-0.024247 0.0064-0.00127 0.0053-0.022587 0.02083-0.0042 3e-3 -0.084094 0.05281-0.15805 0.25l-1.016 3.0417h19.733l-1.0386-2.8958v-0.02083c-0.12567-0.28112-0.18968-0.33179-0.22578-0.35416-0.05072-0.03143-0.1018-0.0625-0.40641-0.0625h-16.64z" style="color:#000000;display:block;fill:none;opacity:.15;stroke:url(#linearGradient3102)"/>
  <rect id="rect4133" x="5" y="17" width="22" height="1" style="fill:#dac197"/>
  <path id="path3357" d="m6.4751 17.5h19.05" style="fill:none;opacity:.4;stroke-linecap:square;stroke-width:1px;stroke:url(#linearGradient3098)"/>
 </g>
</svg>
