<?xml version="1.0" encoding="UTF-8"?>
<!-- Created with Inkscape (http://www.inkscape.org/) -->
<svg id="svg7365" width="48" height="48" version="1.1" xmlns="http://www.w3.org/2000/svg" xmlns:xlink="http://www.w3.org/1999/xlink">
 <defs id="defs7367">
  <linearGradient id="linearGradient4444" x1="-26" x2="-26" y1="-38" y2="-13" gradientTransform="translate(50 50)" gradientUnits="userSpaceOnUse">
   <stop id="stop4436" style="stop-color:#eeeeec" offset="0"/>
   <stop id="stop4438" style="stop-color:#babdb6" offset=".75692"/>
   <stop id="stop4440" style="stop-color:#a1a59b" offset="1"/>
  </linearGradient>
  <linearGradient id="linearGradient4448" x1="24" x2="24" y1="13" y2="37" gradientUnits="userSpaceOnUse">
   <stop id="stop3203" style="stop-color:#fff" offset="0"/>
   <stop id="stop3205" style="stop-color:#fff;stop-opacity:0" offset="1"/>
  </linearGradient>
 </defs>
 <g id="layer1">
  <path id="rect7213" d="m13.5 14.5c-2.7359 0-5 2.2641-5 5v9.0625c0 2.7359 2.2641 5 5 5h5v-4h-5c-0.58909 0-1-0.41091-1-1v-9.0625c0-0.58909 0.41091-1 1-1h21c0.58909 0 1 0.41091 1 1v9.0625c0 0.58909-0.41091 1-1 1h-5v-3.0625l-7 5 7 5v-2.9375h5c2.7359 0 5-2.2641 5-5v-9.0625c0-2.7359-2.2641-5-5-5h-21z" style="fill:url(#linearGradient4444);stroke-dashoffset:.7;stroke-linecap:round;stroke-linejoin:round;stroke:#888a85"/>
  <path id="path7239" transform="translate(-.00625 -.01875)" d="m13.5 15.406c-2.2359 0-4.0938 1.8578-4.0938 4.0938v9.0625c0 2.2359 1.8578 4.0938 4.0938 4.0938h4.0938v-2.1875h-4.0938c-1.0105 0-1.9062-0.89573-1.9062-1.9062v-9.0625c0-1.0105 0.89573-1.9062 1.9062-1.9062h21c1.0105 0 1.9062 0.89574 1.9062 1.9062v9.0625c0 1.0105-0.89573 1.9062-1.9062 1.9062h-5a0.90634 0.90634 0 0 1-0.90625-0.90625v-1.2812l-4.5 3.2188 4.5 3.2188v-1.1562a0.90634 0.90634 0 0 1 0.90625-0.90625h5c2.2359 0 4.0937-1.8578 4.0938-4.0938v-9.0625c0-2.2359-1.8578-4.0938-4.0938-4.0938h-21z" style="fill:none;opacity:.6;stroke-dashoffset:.7;stroke-linecap:round;stroke-width:.8;stroke:url(#linearGradient4448)"/>
 </g>
</svg>
