<?xml version="1.0" encoding="UTF-8"?>
<!-- Created with Inkscape (http://www.inkscape.org/) -->
<svg id="svg5069" width="22" height="22" version="1.0" xmlns="http://www.w3.org/2000/svg" xmlns:cc="http://creativecommons.org/ns#" xmlns:dc="http://purl.org/dc/elements/1.1/" xmlns:rdf="http://www.w3.org/1999/02/22-rdf-syntax-ns#" xmlns:xlink="http://www.w3.org/1999/xlink">
 <defs id="defs5071">
  <linearGradient id="linearGradient5060">
   <stop id="stop5062" offset="0"/>
   <stop id="stop5064" style="stop-opacity:0" offset="1"/>
  </linearGradient>
  <linearGradient id="linearGradient5470" x1="302.86" x2="302.86" y1="366.65" y2="609.51" gradientTransform="matrix(3.2949 0 0 2.5953 -2121.9 -1254.2)" gradientUnits="userSpaceOnUse">
   <stop id="stop5050" style="stop-opacity:0" offset="0"/>
   <stop id="stop5056" offset=".5"/>
   <stop id="stop5052" style="stop-opacity:0" offset="1"/>
  </linearGradient>
  <radialGradient id="radialGradient5472" cx="605.71" cy="486.65" r="117.14" gradientTransform="matrix(3.2949 0 0 2.5953 -2121.2 -1254.2)" gradientUnits="userSpaceOnUse" xlink:href="#linearGradient5060"/>
  <radialGradient id="radialGradient5474" cx="605.71" cy="486.65" r="117.14" gradientTransform="matrix(-3.2949 0 0 2.5953 259.22 -1254.2)" gradientUnits="userSpaceOnUse" xlink:href="#linearGradient5060"/>
  <linearGradient id="linearGradient5476" x1="-393.43" x2="-221.41" y1="67.439" y2="68.025" gradientUnits="userSpaceOnUse">
   <stop id="stop3795" style="stop-color:#3f3f3f" offset="0"/>
   <stop id="stop5268" style="stop-color:#3c3c3c" offset=".36093"/>
   <stop id="stop5266" style="stop-color:#2e2e2e" offset=".66032"/>
   <stop id="stop3797" style="stop-color:#202020" offset="1"/>
  </linearGradient>
  <linearGradient id="linearGradient5478" x1="-397.06" x2="-212.12" y1="72.438" y2="72.438" gradientUnits="userSpaceOnUse">
   <stop id="stop3711" style="stop-color:#adadad" offset="0"/>
   <stop id="stop3713" style="stop-color:#434343" offset="1"/>
  </linearGradient>
  <linearGradient id="linearGradient2450" x1="-282.75" x2="-362.78" y1="4.703" y2="11.719" gradientTransform="matrix(.053751 0 0 .056635 27.6 6.5483)" gradientUnits="userSpaceOnUse">
   <stop id="stop3969" style="stop-color:#fff" offset="0"/>
   <stop id="stop3971" style="stop-color:#fff;stop-opacity:0" offset="1"/>
  </linearGradient>
  <linearGradient id="linearGradient2456" x1="-396.4" x2="-134.4" y1="65.211" y2="65.211" gradientTransform="matrix(.064941 0 0 .052735 30.811 6.5675)" gradientUnits="userSpaceOnUse">
   <stop id="stop3733-3" style="stop-color:#cdcdcd" offset="0"/>
   <stop id="stop3735-2" style="stop-color:#303030" offset="1"/>
  </linearGradient>
 </defs>
 <metadata id="metadata5074">
  <rdf:RDF>
   <cc:Work rdf:about="">
    <dc:format>image/svg+xml</dc:format>
    <dc:type rdf:resource="http://purl.org/dc/dcmitype/StillImage"/>
   </cc:Work>
  </rdf:RDF>
 </metadata>
 <g id="layer1">
  <g id="g3240">
   <g id="g3661" transform="matrix(.0056376 0 0 .003255 16.249 20.933)">
    <rect id="rect3663" x="-1726.5" y="-302.63" width="1591" height="630.29" style="fill:url(#linearGradient5470);opacity:.40206"/>
    <path id="path3665" d="m-135.53-302.61v630.26c169.68 1.1864 410.2-141.21 410.2-315.17 0-173.96-189.35-315.09-410.2-315.09z" style="fill:url(#radialGradient5472);opacity:.40206"/>
    <path id="path3667" d="m-1726.5-302.61v630.26c-169.68 1.1864-410.2-141.21-410.2-315.17 0-173.96 189.35-315.09 410.2-315.09z" style="fill:url(#radialGradient5474);opacity:.40206"/>
   </g>
   <g id="g3672" transform="matrix(.065631 0 0 .055274 31.013 6.3706)" style="stroke-width:.10076">
    <rect id="rect3674" x="-398.44" y="-110.02" width="187.69" height="364.93" ry="12.769" style="fill:url(#linearGradient5476);stroke-width:7.7591;stroke:#000"/>
    <path id="path3676" d="m-385.66-108.31c-6.1539 0-11.062 4.9086-11.062 11.062v339.38c0 6.1539 4.9086 11.062 11.062 11.062h162.16c6.1539 0 11.031-4.9036 11.031-11.062v-339.38c0-6.1589-4.8774-11.062-11.031-11.062h-162.16z" style="fill:none;stroke-width:.18979;stroke:url(#linearGradient5478)"/>
   </g>
   <path id="path3686" d="m5.8761 1.4665h10.309c0.1723 0 0.31104 0.15066 0.31104 0.3378v16.404c0 0.18714-0.13874 0.3378-0.31104 0.3378h-10.309c-0.17234 0-0.31104-0.15066-0.31104-0.3378v-0.11842-16.286c0-0.18714 0.1387-0.3378 0.31104-0.3378v0z" style="fill:#030303;stroke-linecap:square;stroke:url(#linearGradient2456)"/>
   <path id="path3688" d="m12.171 2.3154c-0.17648-0.0013033-0.35398 0.079024-0.39383 0.19926-0.037964 0.11462 0.045526 0.20602 0.21117 0.23141 0.11532 0.017681 0.26505-0.0086469 0.35253-0.062255 0.16963-0.10395 0.1702-0.27472 0.001164-0.33832-0.053426-0.020102-0.11221-0.029672-0.17103-0.030107zm-2.7329 7.654e-4c-0.11448 1.851e-4 -0.2322 0.032686-0.30685 0.091851-0.16276 0.12898-0.09602 0.30409 0.12884 0.33806 0.066735 0.010084 0.17626 0.0028258 0.24694-0.01633 0.2439-0.06608 0.31861-0.29444 0.12363-0.37812-0.056241-0.024136-0.12387-0.035576-0.19256-0.035465zm1.3036 0c-0.023492 1.182e-4 -0.04768 0.0014344-0.072418 0.0043372-0.18385 0.021577-0.32025 0.12445-0.32025 0.24162 0 0.09673 0.084269 0.1659 0.22542 0.18498 0.15265 0.020631 0.31587-0.024136 0.40663-0.11124 0.051512-0.049447 0.07075-0.097012 0.063995-0.1587-0.010632-0.096912-0.1389-0.16182-0.30338-0.16099zm2.778 0.013778-0.11141 0.002297-0.1114 0.002295-0.15183 0.19595c-0.083545 0.10777-0.15219 0.1987-0.15241 0.20207-2.2e-4 0.0033684 0.034977 0.0061236 0.078248 0.0061236h0.078825l0.028789-0.036741 0.028799-0.03674h0.10529 0.1053l0.008432 0.0347 0.008148 0.0347 0.19313 0.004592-0.005536-0.018626c-0.003061-0.010266-0.027497-0.10233-0.054086-0.20462l-0.048285-0.186zm-5.0703 5.106e-4c-0.10519 0-0.11942 0.0016434-0.12362 0.014287-0.0026122 0.0078587-0.023803 0.07154-0.047121 0.1416-0.033986 0.10209-0.042465 0.13979-0.042465 0.18983v0.06251h0.055544 0.055278l0.029083-0.083686c0.015884-0.046027 0.031979-0.092528 0.035774-0.10333 0.0054169-0.015401 0.013327 0.0026773 0.037524 0.083686l0.031118 0.10333h0.047707 0.047698l0.092198-0.08981c0.050778-0.049376 0.094031-0.08847 0.095983-0.086748 0.0030338 0.0026553-0.037607 0.13545-0.050897 0.16635-0.004922 0.011465 0.095012 0.013694 0.15997 0.0035728l0.036369-0.005613 0.040421-0.12655c0.022199-0.069581 0.050448-0.1587 0.062831-0.19799l0.022685-0.071439h-0.12769-0.12739l-0.078541 0.08241-0.078522 0.082156-0.027644-0.082156-0.027332-0.08241h-0.11896zm1.3604 0-0.0098898 0.034698c-0.0055636 0.019085-0.014326 0.045409-0.019193 0.058428-0.016993 0.045444-0.016388 0.045671 0.084929 0.045671 0.084957 0 0.093261 0.0013345 0.088715 0.014288-0.0027588 0.0078587-0.017791 0.062051-0.033455 0.12043-0.015655 0.058376-0.030632 0.11266-0.033446 0.12068-0.0047295 0.013444 0.0021172 0.014399 0.090465 0.012247l0.095974-0.002296 0.029962-0.10206c0.016572-0.056132 0.034867-0.11583 0.04043-0.13267l0.010183-0.030616h0.095406 0.09569l0.015994-0.059194c0.008689-0.032556 0.015481-0.063785 0.015417-0.069398-9.2e-5 -0.0079384-0.063051-0.010205-0.28359-0.010205h-0.2836zm1.3618 0-0.062244 0.19493c-0.034206 0.10718-0.062235 0.19903-0.062235 0.20411 0 0.0062253 0.028359 0.0091849 0.086964 0.0091849h0.086964l0.018322-0.059192 0.018332-0.059194 0.075333-0.002296c0.092463-0.0028992 0.11012 0.0072262 0.10092 0.057662-0.009147 0.05019 6.97e-4 0.054944 0.1146 0.054855l0.098888-2.548e-4 0.002337-0.054856c0.002897-0.069726-0.002383-0.089467-0.025599-0.095933-0.020559-0.005723-0.025353-0.020411-0.006682-0.020411 0.020797 0 0.083014-0.051011 0.096267-0.078839 0.016966-0.035612 0.016196-0.080339-0.001751-0.10435-0.029623-0.039672-0.06877-0.045415-0.31442-0.045415h-0.226zm1.5419 0.0012749c-0.010843 3.85e-5 -0.022722 1.897e-4 -0.035187 5.115e-4l-0.090759 0.002295-0.057597 0.19187c-0.031613 0.10553-0.05779 0.19646-0.058166 0.20207-5.31e-4 0.0079091 0.051786 0.010206 0.23182 0.010206h0.2324l0.010174-0.034699c0.005646-0.019084 0.013666-0.04664 0.018038-0.061233l0.008139-0.026535h-0.13902c-0.090355 0-0.13874-0.002868-0.13874-0.0084196 0-0.0046929 0.016755-0.067098 0.037231-0.13854s0.037231-0.13211 0.037231-0.13472c0-0.0019568-0.023015-0.0029211-0.055553-0.0028065zm-1.3862 0.096699h0.081153c0.044555 6.14e-5 0.090273 0.0023949 0.1018 0.0051025 0.027653 0.0065021 0.027827 0.038695 2.84e-4 0.055621-0.015289 0.0093994-0.04439 0.012757-0.11169 0.012757-0.050045 0-0.091061-0.0027552-0.091034-0.0061227 2.8e-5 -0.0033684 0.004555-0.019902 0.009881-0.036741l0.009605-0.030617zm-1.8979 5.105e-4c0.033482 9.871e-4 0.065333 0.010068 0.087835 0.027044 0.053335 0.040245 0.018047 0.13294-0.063408 0.16661-0.05153 0.021299-0.087743 0.026574-0.12826 0.018115-0.090584-0.018907-0.099145-0.11304-0.015994-0.17707 0.031228-0.024054 0.076781-0.035969 0.11983-0.0347zm2.7056 2.548e-4c0.012731-4.693e-4 0.026122 1.036e-4 0.04043 0.0017864 0.060053 0.0070658 0.085864 0.028608 0.089292 0.074756 0.003739 0.050486-0.02725 0.093646-0.083775 0.11686-0.076176 0.031285-0.13703 0.028766-0.18091-0.0073995-0.041053-0.033822-0.023638-0.10515 0.036938-0.15181 0.028193-0.021714 0.059797-0.032781 0.098027-0.034189zm-1.3993 5.105e-4c0.023584 1.787e-4 0.046232 0.0037231 0.064866 0.011481 0.080951 0.033694 0.057441 0.13917-0.040714 0.18243-0.091153 0.040172-0.18839 0.019074-0.20186-0.043885-0.006022-0.028174 0.013199-0.078221 0.040439-0.10512 0.028918-0.028579 0.085406-0.045299 0.13727-0.044906zm2.6245 0.036996 0.010752 0.031893c0.006031 0.017536 0.01153 0.04016 0.011915 0.050263 6.6e-4 0.016684-0.003685 0.01837-0.045948 0.01837-0.02559 0-0.046534-0.0017671-0.046534-0.0040815 0-0.0023152 0.015738-0.024938 0.034903-0.050264l0.034912-0.04618z" style="enable-background:new;fill:#fff"/>
   <path id="path3690" transform="matrix(.070258 0 0 .05529 32.378 6.5313)" d="m-385.66-108.31c-6.1539 0-11.062 4.9086-11.062 11.062v339.38c0 6.1539 4.9086 11.062 11.062 11.062h162.16c6.1539 0 11.031-4.9036 11.031-11.062v-339.38c0-6.1589-4.8774-11.062-11.031-11.062h-162.16z" style="fill:none;stroke-width:16.045;stroke:#000"/>
   <rect id="rect3694" x="7.0292" y="4" width="7.9708" height="11" ry="0" style="fill:#2d2d2d"/>
   <path id="path3698" d="m6.9614 1.0707c-0.14263 0-0.257 0.15786-0.257 0.35574v17.221 0.12566c0 0.19788 0.11437 0.35751 0.257 0.35751h2.2659c0.85689-6.0198 1.4603-12.04 1.8292-18.059h-4.0951z" style="fill:url(#linearGradient2450);opacity:.1"/>
   <rect id="rect3766" x="9.1525" y="16.1" width="1.3462" height=".91657" style="fill:#c7c7c9"/>
   <rect id="rect3768" x="7.3194" y="16.1" width="1.3462" height=".91657" style="fill:#c7c7c9"/>
   <rect id="rect3770" x="11.473" y="16.1" width="1.3462" height=".91657" style="fill:#c7c7c9"/>
   <rect id="rect3772" x="13.306" y="16.1" width="1.3462" height=".91657" style="fill:#c7c7c9"/>
  </g>
 </g>
</svg>
