<?xml version="1.0" encoding="UTF-8"?>
<!-- Created with Inkscape (http://www.inkscape.org/) -->
<svg id="svg7698" width="22" height="22" version="1.1" xmlns="http://www.w3.org/2000/svg">
 <g id="layer1" transform="translate(-1.9998 -7.9998)">
  <path id="path3616" d="m17.5 17.5 2.5-2.5" style="fill:none;stroke-linecap:round;stroke:#606060"/>
  <path id="rect2821" transform="translate(1 7.0001)" d="m18 4.4528c1.4111 0 2.5472 1.136 2.5472 2.5472v10.091c0 1.4111-1.136 2.5472-2.5472 2.5472h-12c-1.4111 0-2.5472-1.136-2.5472-2.5472v-10.091c0-1.4111 1.136-2.5472 2.5472-2.5472" style="fill:none;stroke-linecap:round;stroke:#606060"/>
  <path id="path3596" d="m17.5 17.5-1-1" style="fill:none;stroke-linecap:round;stroke:#606060"/>
  <path id="path3598" d="m17.5 23.5 2.5-2.5" style="fill:none;stroke-linecap:round;stroke:#606060"/>
  <path id="path3600" d="m17.5 23.5-1-1" style="fill:none;stroke-linecap:round;stroke:#606060"/>
  <path id="path3602" d="m9 16.5h5" style="fill:none;stroke-linecap:round;stroke:#606060"/>
  <path id="path3604" d="m9 18.5h5" style="fill:none;stroke-linecap:round;stroke:#606060"/>
  <path id="path3606" d="m9 22.5h5" style="fill:none;stroke-linecap:round;stroke:#606060"/>
  <path id="path3608" d="m9 24.5h5" style="fill:none;stroke-linecap:round;stroke:#606060"/>
  <rect id="rect3614" transform="translate(1 7.0001)" x="5" y="9" width="1" height="1" ry="0" style="fill:#606060"/>
  <rect id="rect3616" x="6" y="22" width="1" height="1" ry="0" style="fill:#606060"/>
  <rect id="rect3639" x="8.5" y="10.5" width="9" height="3" rx="1.5" ry="1" style="fill:none;stroke:#606060"/>
 </g>
</svg>
