<?xml version="1.0" encoding="UTF-8"?>
<!-- Created with Inkscape (http://www.inkscape.org/) -->
<svg id="svg3082" width="22" height="22" version="1.0" xmlns="http://www.w3.org/2000/svg" xmlns:xlink="http://www.w3.org/1999/xlink">
 <defs id="defs3084">
  <linearGradient id="linearGradient6457">
   <stop id="stop6459" style="stop-color:#fff;stop-opacity:.94118" offset="0"/>
   <stop id="stop6461" style="stop-color:#fff;stop-opacity:.70588" offset="1"/>
  </linearGradient>
  <linearGradient id="linearGradient2781">
   <stop id="stop2783" style="stop-color:#505050" offset="0"/>
   <stop id="stop6301" style="stop-color:#6e6e6e" offset=".13216"/>
   <stop id="stop2785" style="stop-color:#8c8c8c" offset="1"/>
  </linearGradient>
  <linearGradient id="linearGradient3690">
   <stop id="stop3692" style="stop-color:#fff" offset="0"/>
   <stop id="stop3694" style="stop-color:#fff;stop-opacity:.46875" offset="1"/>
  </linearGradient>
  <linearGradient id="linearGradient5625" x1="21.866" x2="21.78" y1="8.5763" y2="39.924" gradientTransform="matrix(.42425 0 0 .42624 4.8937 -2.3362)" gradientUnits="userSpaceOnUse" xlink:href="#linearGradient2781"/>
  <linearGradient id="linearGradient5627" x1="16.034" x2="16.075" y1="9.0735" y2="15.044" gradientTransform="matrix(.38711 0 0 .37933 5.8222 -1.1037)" gradientUnits="userSpaceOnUse" xlink:href="#linearGradient3690"/>
  <linearGradient id="linearGradient5629" x1="24" x2="24" y1="13" y2="40" gradientTransform="matrix(.34211 0 0 .2963 7.2895 2.1483)" gradientUnits="userSpaceOnUse" xlink:href="#linearGradient6457"/>
  <linearGradient id="linearGradient5631" x1="21.866" x2="21.78" y1="8.5763" y2="39.924" gradientTransform="matrix(.42425 0 0 .42624 -2.1063 4.6637)" gradientUnits="userSpaceOnUse" xlink:href="#linearGradient2781"/>
  <linearGradient id="linearGradient5633" x1="16.034" x2="16.075" y1="9.0735" y2="15.044" gradientTransform="matrix(.38711 0 0 .37933 -1.1778 5.8962)" gradientUnits="userSpaceOnUse" xlink:href="#linearGradient3690"/>
  <linearGradient id="linearGradient5635" x1="24" x2="24" y1="13" y2="40" gradientTransform="matrix(.34211 0 0 .2963 .28947 9.1481)" gradientUnits="userSpaceOnUse" xlink:href="#linearGradient6457"/>
 </defs>
 <g id="g5611" transform="translate(-1 -1)">
  <rect id="rect6448" x="8.4998" y="1.4999" width="14" height="13" style="fill:url(#linearGradient5625);stroke-linejoin:round;stroke-width:.99969;stroke:#565853"/>
  <rect id="rect6450" x="9.4998" y="2.4999" width="12" height="11" style="fill:none;opacity:.2;stroke-width:.99953;stroke:url(#linearGradient5627)"/>
  <rect id="rect6452" x="9" y="6.0001" width="13" height="8" style="fill:url(#linearGradient5629)"/>
  <path id="path6454" d="m21 4.2501c1.78e-4 0.41416-0.33566 0.75-0.75 0.75-0.41434 0-0.75018-0.33584-0.75-0.75-1.81e-4 -0.41416 0.33566-0.75 0.75-0.75 0.41434 0 0.75018 0.33584 0.75 0.75z" style="fill:#ffc24c"/>
  <path id="path6456" d="m19 4.2501c1.78e-4 0.41416-0.33566 0.75-0.75 0.75-0.41434 0-0.75018-0.33584-0.75-0.75-1.81e-4 -0.41416 0.33566-0.75 0.75-0.75 0.41434 0 0.75018 0.33584 0.75 0.75z" style="fill:#ffc24c"/>
  <path id="path6458" d="m17 4.2501c1.78e-4 0.41416-0.33566 0.75-0.75 0.75-0.41434 0-0.75018-0.33584-0.75-0.75-1.81e-4 -0.41416 0.33566-0.75 0.75-0.75 0.41434 0 0.75018 0.33584 0.75 0.75z" style="fill:#ffc24c"/>
  <rect id="rect1887" x="1.4998" y="8.4998" width="14" height="13" style="fill:url(#linearGradient5631);stroke-linejoin:round;stroke-width:.99969;stroke:#565853"/>
  <rect id="rect2779" x="2.4998" y="9.4998" width="12" height="11" style="fill:none;opacity:.2;stroke-width:.99953;stroke:url(#linearGradient5633)"/>
  <rect id="rect6287" x="2" y="13" width="13" height="8" style="fill:url(#linearGradient5635)"/>
  <path id="path6293" d="m14 11.25c1.78e-4 0.41416-0.33566 0.75-0.75 0.75-0.41434 0-0.75018-0.33584-0.75-0.75-1.81e-4 -0.41416 0.33566-0.75 0.75-0.75 0.41434 0 0.75018 0.33584 0.75 0.75z" style="fill:#ffc24c"/>
  <path id="path6302" d="m12 11.25c1.78e-4 0.41416-0.33566 0.75-0.75 0.75-0.41434 0-0.75018-0.33584-0.75-0.75-1.81e-4 -0.41416 0.33566-0.75 0.75-0.75 0.41434 0 0.75018 0.33584 0.75 0.75z" style="fill:#ffc24c"/>
  <path id="path6304" d="m10 11.25c1.781e-4 0.41416-0.33566 0.75-0.75 0.75-0.41434 0-0.75018-0.33584-0.75-0.75-1.81e-4 -0.41416 0.33566-0.75 0.75-0.75 0.41434 0 0.75018 0.33584 0.75 0.75z" style="fill:#ffc24c"/>
 </g>
</svg>
