<?xml version="1.0" encoding="UTF-8"?>
<!-- Created with Inkscape (http://www.inkscape.org/) -->
<svg id="svg11300" width="22" height="22" version="1.0" xmlns="http://www.w3.org/2000/svg" xmlns:xlink="http://www.w3.org/1999/xlink">
 <defs id="defs3">
  <linearGradient id="linearGradient3785">
   <stop id="stop3787" style="stop-color:#b8b8b8" offset="0"/>
   <stop id="stop3789" style="stop-color:#878787" offset="1"/>
  </linearGradient>
  <linearGradient id="linearGradient6954">
   <stop id="stop6960" style="stop-color:#f5f5f5" offset="0"/>
   <stop id="stop6962" style="stop-color:#d2d2d2" offset="1"/>
  </linearGradient>
  <linearGradient id="linearGradient3341">
   <stop id="stop3343" style="stop-color:#fff" offset="0"/>
   <stop id="stop3345" style="stop-color:#fff;stop-opacity:0" offset="1"/>
  </linearGradient>
  <linearGradient id="linearGradient5060">
   <stop id="stop5062" offset="0"/>
   <stop id="stop5064" style="stop-opacity:0" offset="1"/>
  </linearGradient>
  <radialGradient id="radialGradient2922" cx="30" cy="33.188" r="4.6875" gradientTransform="matrix(.81492 -3.8845e-7 1.1365e-7 .2534 -9.9476 6.5902)" gradientUnits="userSpaceOnUse" xlink:href="#linearGradient5060"/>
  <linearGradient id="linearGradient2928" x1="22" x2="17" y1="39" y2="37.438" gradientTransform="matrix(.75 0 0 .43478 -5.1276 2.9174)" gradientUnits="userSpaceOnUse" xlink:href="#linearGradient5060"/>
  <radialGradient id="radialGradient2931" cx="26.376" cy="12.313" r="8" gradientTransform="matrix(.86552 -.071029 .067606 .84907 -11.039 -4.2048)" gradientUnits="userSpaceOnUse" xlink:href="#linearGradient6954"/>
  <linearGradient id="linearGradient2933" x1="30" x2="30" y1="5" y2="44.679" gradientTransform="matrix(.5277 0 0 .53573 -1.3311 -1.4043)" gradientUnits="userSpaceOnUse" xlink:href="#linearGradient3785"/>
  <radialGradient id="radialGradient2939" cx="25" cy="28.66" r="16" gradientTransform="matrix(.67742 0 0 .19286 -5.0163 9.9977)" gradientUnits="userSpaceOnUse" xlink:href="#linearGradient6954"/>
  <linearGradient id="linearGradient2941" x1="30" x2="30" y1="25.085" y2="45" gradientTransform="matrix(.51613 0 0 .51667 -.98397 -.49181)" gradientUnits="userSpaceOnUse" xlink:href="#linearGradient3785"/>
  <linearGradient id="linearGradient3722" x1="22" x2="17" y1="39" y2="37.438" gradientTransform="matrix(-.75 0 0 .43478 34.15 2.9174)" gradientUnits="userSpaceOnUse" xlink:href="#linearGradient5060"/>
  <linearGradient id="linearGradient3734" x1="30" x2="30" y1="6.334" y2="24.913" gradientTransform="matrix(.5277 0 0 .53573 -1.3311 -1.4043)" gradientUnits="userSpaceOnUse" xlink:href="#linearGradient3341"/>
  <linearGradient id="linearGradient3756" x1="29.996" x2="29.996" y1="21.44" y2="43.531" gradientTransform="matrix(.51613 0 0 .51667 -.98397 -.49181)" gradientUnits="userSpaceOnUse" xlink:href="#linearGradient3341"/>
  <linearGradient id="linearGradient4080" x1="29.998" x2="29.998" y1="6.7808" y2="24.385" gradientTransform="matrix(.33335 0 0 .36215 -2.0004 2.4814)" gradientUnits="userSpaceOnUse" xlink:href="#linearGradient3341"/>
  <linearGradient id="linearGradient4118" x1="29.968" x2="30" y1="21.687" y2="43.309" gradientTransform="matrix(.41936 0 0 .4198 -4.5807 1.8192)" gradientUnits="userSpaceOnUse" xlink:href="#linearGradient3341"/>
  <linearGradient id="linearGradient4168" x1="22" x2="17" y1="39" y2="37.438" gradientTransform="matrix(.61957 0 0 .35917 -8.1666 4.2839)" gradientUnits="userSpaceOnUse" xlink:href="#linearGradient5060"/>
  <radialGradient id="radialGradient4170" cx="25" cy="28.66" r="16" gradientTransform="matrix(.55041 0 0 .1567 -7.857 10.342)" gradientUnits="userSpaceOnUse" xlink:href="#linearGradient6954"/>
  <linearGradient id="linearGradient4172" x1="30" x2="30" y1="25.085" y2="45" gradientTransform="matrix(.41936 0 0 .4198 -4.5807 1.8192)" gradientUnits="userSpaceOnUse" xlink:href="#linearGradient3785"/>
  <linearGradient id="linearGradient4174" x1="30" x2="30" y1="5" y2="44.679" gradientTransform="matrix(.33335 0 0 .36215 -2.0004 2.4814)" gradientUnits="userSpaceOnUse" xlink:href="#linearGradient3785"/>
  <radialGradient id="radialGradient4176" cx="26.376" cy="12.313" r="8" gradientTransform="matrix(.54674 -.048015 .042706 .57397 -8.1327 .58825)" gradientUnits="userSpaceOnUse" xlink:href="#linearGradient6954"/>
 </defs>
 <g id="g4150" transform="translate(-1 -1)">
  <g id="g4140">
   <path id="path3766-9" d="m6.513 10.425-0.056 2.5188c-1.2206 1.0138-4.5424 1.4693-4.5377 2.5188l-0.41936 3.1485c0 1.0433 2.9102 1.8891 6.5 1.8891 3.5899 0 6.5-0.84577 6.5-1.8891l-0.41936-3.1485c-0.0049-0.89822-3.345-1.4693-4.5507-2.5188l-0.043-2.5188h-2.974z" style="fill:url(#radialGradient4170);stroke-width:.99992;stroke:url(#linearGradient4172)"/>
   <path id="path4094" d="m7.5 11.438c-0.08094 0.69165 0.13187 1.4507-0.22351 2.0875-0.52882 0.66704-1.389 0.90478-2.139 1.2298-0.77365 0.27763-1.5745 0.5103-2.2798 0.94414 0.06985 0.1373-0.065526 0.62172-0.078159 0.908-0.082782 0.66226-0.16556 1.3245-0.24835 1.9868 0.64003 0.19142 1.2405 0.51082 1.9149 0.57882 2.3665 0.46975 4.8219 0.41537 7.1912-0.0036 0.60184-0.11487 1.1796-0.33181 1.732-0.58773 0.18406-0.31394-0.04004-0.70452-0.03164-1.0593-0.070914-0.58026-0.14183-1.1605-0.21274-1.7407-1.3884-0.8647-3.1599-1.0333-4.3605-2.2108-0.42353-0.60971-0.16244-1.3771-0.27294-2.0576-0.26215-0.1719-0.63612-0.036194-0.95093-0.075317h-0.029974-0.010617z" style="fill:none;stroke-width:.99992;stroke:url(#linearGradient4118)"/>
   <path id="path3764-3" d="m8 4.4732c-1.3808 0-2.5001 1.135-2.5001 2.5351 0.010821 0.51814 0.051513 1.1337 0.33334 2.5351 0.16667 0.54323 1.6533 1.9918 1.6667 2.1729 0.32324 0.18108 0.83336 0.18108 1.1667 0 0-0.18108 1.3334-1.6297 1.5001-2.1729 0.31714-1.4565 0.31633-1.9918 0.33334-2.5351 0-1.4001-1.1193-2.5351-2.5001-2.5351z" style="fill:url(#radialGradient4176);stroke-width:.99981;stroke:url(#linearGradient4174)"/>
   <path id="path3848-9" d="m4.8443 19.8c-1.4636-0.71194-0.7657-2.2925-0.61957-3.3043-0.61957 0.71834-0.30761 2.7261-1.5467 2.7261 0.82609 0.29377 1.3916 0.49414 2.1663 0.57826z" style="fill:url(#linearGradient4168);opacity:.5"/>
   <path id="path4066" d="m8 5.4375c-0.79885-0.022528-1.5285 0.69012-1.5254 1.4898-0.012304 0.64991 0.12349 1.2912 0.23067 1.9294 0.027734 0.25036 0.099215 0.48186 0.2817 0.66408 0.33444 0.44968 0.70651 0.87028 1.0755 1.2917 0.37865-0.49722 0.76606-0.98814 1.125-1.5 0.15256-0.84642 0.39186-1.6962 0.32668-2.5637-0.098974-0.72659-0.77345-1.3319-1.5142-1.3113z" style="fill:none;stroke-width:.99981;stroke:url(#linearGradient4080)"/>
  </g>
  <g id="g3758">
   <path id="path3766" d="m12.177 10.1c0.23753 1.1247 0.37012 1.9754 0.17742 3.1-1.5023 1.2477-5.3445 1.8084-5.3387 3.1l-0.51613 3.875c0 1.2841 3.5817 2.325 8.0001 2.325 4.4183 0 8.0001-1.0409 8.0001-2.325l-0.51613-3.875c-0.0061-1.1055-3.871-1.8083-5.3549-3.1-0.12675-1.0438-0.02586-2.0562 0.19355-3.1h-4.6452z" style="fill:url(#radialGradient2939);stroke-width:.99989;stroke:url(#linearGradient2941)"/>
   <path id="path3742" d="m13.219 11.094c0.08722 0.85671 0.3354 1.801-0.04818 2.6159-0.64255 0.72846-1.5946 1.0938-2.4674 1.4727-1.3805 0.32814-2.9895 0.81768-2.778 1.8161-0.14174 1.063-0.28348 2.1261-0.42522 3.1891 0.3064 0.16061 1.0809 0.5849 1.625 0.6875 2.5208 0.66695 5.1678 0.72537 7.7549 0.51952 1.5117-0.16621 3.0886-0.35266 4.4326-1.1133 0.33544-0.07362 0.10712-0.31641 0.11494-0.65492-0.13206-1.0213-0.26412-2.0426-0.39619-3.0638-0.58765-0.5027-1.3913-0.75352-2.1064-1.0646-1.0828-0.4473-2.2515-0.853-3.0869-1.708-0.39162-0.68956-0.16147-1.5387-0.10732-2.2865 0.25968-0.52835-0.2234-0.4019-0.55293-0.40969h-1.9589z" style="fill:none;stroke-width:.99989;stroke:url(#linearGradient3756)"/>
   <path id="path3764" d="m14.5 1.5422c-2.1858 0-3.9578 1.679-3.9578 3.7501 0.01713 0.76649 0.08155 1.677 0.5277 3.7501 0.26385 0.8036 2.6173 2.9465 2.6385 3.2144 0.5117 0.26786 1.3193 0.26786 1.847 0 0-0.26786 2.1108-2.4108 2.3747-3.2144 0.50205-2.1545 0.50077-2.9465 0.5277-3.7501 0-2.0711-1.772-3.7501-3.9578-3.7501z" style="fill:url(#radialGradient2931);stroke-width:1.0845;stroke:url(#linearGradient2933)"/>
   <path id="path3848" d="m10.622 21.7c-1.7718-0.86182-0.9269-2.7752-0.75-4-0.75 0.86957-0.37237 3.3-1.8724 3.3 1 0.35562 1.6845 0.59817 2.6224 0.7z" style="fill:url(#linearGradient2928);opacity:.5"/>
   <path id="path3833" d="m12 13.35c0.36603 0.95934 1.3434 1.6495 2.5 1.6495s2.134-0.69018 2.5-1.6495h-5z" style="fill:url(#radialGradient2922);opacity:.3"/>
   <path id="path3720" d="m18.4 21.7c1.7718-0.86182 0.9269-2.7752 0.75-4 0.75 0.86957 0.37237 3.3 1.8724 3.3-1 0.35562-1.6845 0.59817-2.6224 0.7z" style="fill:url(#linearGradient3722);opacity:.5"/>
   <path id="path3730" d="m14.5 2.5312c-1.6666 0-2.9513 1.2303-2.9688 2.7188 1.39e-4 0.00624-1.45e-4 0.024997 0 0.03125 0.01647 0.7081 0.08609 1.5273 0.5 3.4688-0.0051-0.03667 0.09671 0.20414 0.3125 0.46875 0.23243 0.28502 0.5666 0.60833 0.875 0.9375 0.3084 0.32917 0.59885 0.66898 0.84375 0.9375 0.09435 0.10345 0.17196 0.1869 0.25 0.28125 0.16681 0.03524 0.41525 0.03212 0.625 0 0.06182-0.08397 0.11475-0.15943 0.1875-0.25 0.21825-0.27171 0.4739-0.57599 0.75-0.90625 0.2761-0.33026 0.56921-0.68139 0.78125-0.96875 0.19756-0.26773 0.30731-0.50314 0.3125-0.5 0.4607-1.9998 0.47374-2.6696 0.5-3.4688 0-0.010182 1.19e-4 -0.021091 0-0.03125-0.01745-1.4884-1.3021-2.7188-2.9688-2.7188z" style="fill:none;stroke-width:1.0845;stroke:url(#linearGradient3734)"/>
  </g>
 </g>
</svg>
