<?xml version="1.0" encoding="UTF-8"?>
<!-- Created with Inkscape (http://www.inkscape.org/) -->
<svg id="svg3346" width="22" height="22" version="1.0" xmlns="http://www.w3.org/2000/svg" xmlns:xlink="http://www.w3.org/1999/xlink">
 <defs id="defs3348">
  <linearGradient id="linearGradient3042" x1="44.995" x2="3.0052" y1="17.5" y2="17.5" gradientTransform="matrix(.51232 0 0 .49974 -1.2958 .75461)" gradientUnits="userSpaceOnUse" spreadMethod="reflect">
   <stop id="stop3277" style="stop-color:#fff;stop-opacity:0" offset="0"/>
   <stop id="stop3283" style="stop-color:#fff" offset=".245"/>
   <stop id="stop3285" style="stop-color:#fff" offset=".7735"/>
   <stop id="stop3279" style="stop-color:#fff;stop-opacity:0" offset="1"/>
  </linearGradient>
  <linearGradient id="linearGradient3045" x1="26" x2="26" y1="22" y2="8" gradientTransform="matrix(.5 0 0 .57143 -.99999 -.57131)" gradientUnits="userSpaceOnUse">
   <stop id="stop2931" style="stop-color:#fff" offset="0"/>
   <stop id="stop2933" style="stop-color:#fff" offset=".27127"/>
   <stop id="stop2935" style="stop-color:#fff;stop-opacity:.6902" offset=".38989"/>
   <stop id="stop2937" style="stop-color:#fff;stop-opacity:0" offset="1"/>
  </linearGradient>
  <linearGradient id="linearGradient3048" x1="23.452" x2="43.007" y1="30.555" y2="45.934" gradientTransform="matrix(.65684 0 0 .58704 -4.4029 -2.3874)" gradientUnits="userSpaceOnUse">
   <stop id="stop4561" style="stop-color:#fff;stop-opacity:0" offset="0"/>
   <stop id="stop4563" style="stop-color:#fff;stop-opacity:0" offset="1"/>
  </linearGradient>
  <linearGradient id="linearGradient3053" x1="15.464" x2="15.464" y1="7.9757" y2="45.042" gradientTransform="matrix(.51226 0 0 .49974 -1.2943 .26287)" gradientUnits="userSpaceOnUse">
   <stop id="stop2911" style="stop-color:#c9af8b" offset="0"/>
   <stop id="stop2913" style="stop-color:#ad8757" offset=".24941"/>
   <stop id="stop2915" style="stop-color:#c2a57f" offset=".31247"/>
   <stop id="stop2917" style="stop-color:#9d7d53" offset="1"/>
  </linearGradient>
  <linearGradient id="linearGradient3051" x1="24.823" x2="24.997" y1="15.378" y2="37.277" gradientTransform="matrix(.65684 0 0 .77823 -4.4039 -7.3786)" gradientUnits="userSpaceOnUse">
   <stop id="stop2921" style="stop-color:#dac197" offset="0"/>
   <stop id="stop2923" style="stop-color:#c1a581" offset=".26124"/>
   <stop id="stop2925" style="stop-color:#dbc298" offset=".3158"/>
   <stop id="stop2927" style="stop-color:#a68b60" offset="1"/>
  </linearGradient>
  <linearGradient id="linearGradient2572" x1="13.472" x2="57.726" y1="25.411" y2="25.411" gradientTransform="matrix(0 .3705 -.36175 0 -4.1302 3.3844)" gradientUnits="userSpaceOnUse">
   <stop id="stop4224" style="stop-color:#fff" offset="0"/>
   <stop id="stop4226" style="stop-color:#fff;stop-opacity:0" offset="1"/>
  </linearGradient>
  <linearGradient id="linearGradient2570" x1="28.315" x2=".81572" y1="20.71" y2="20.71" gradientTransform="matrix(0 -.31945 -.31335 0 -6.1523 19.802)" gradientUnits="userSpaceOnUse">
   <stop id="stop2266" style="stop-color:#d7e866" offset="0"/>
   <stop id="stop2268" style="stop-color:#8cab2a" offset="1"/>
  </linearGradient>
 </defs>
 <g id="layer1">
  <g id="g3392" transform="translate(0,-2)">
   <path id="path2488" d="m3.3215 4.5107h15.111c0.88211 0 1.2791-0.1432 1.5325 0.49974l1.5377 4.4897v12.339c0 0.77625 0.05273 0.65765-0.82939 0.65765h-19.346c-0.88211 0-0.82939 0.1186-0.82939-0.65765v-12.339l1.5377-4.4897c0.24631-0.62996 0.40404-0.49974 1.2862-0.49974v-1e-7z" style="display:block;fill:url(#linearGradient3051);stroke-linecap:round;stroke-width:.9942;stroke:url(#linearGradient3053)"/>
   <path id="path2490" d="m3.8028 5.0169h14.166c0.82694 0 1.3387 0.27812 1.6851 1.0425l1.193 3.2082v11.566c0 0.72996-0.41942 1.0975-1.2464 1.0975h-17.28c-0.82694 0-1.1643-0.4042-1.1643-1.1342v-11.53l1.1545-3.277c0.23091-0.59239 0.66573-0.9737 1.4927-0.9737z" style="display:block;fill:none;opacity:.50549;stroke-width:.74212;stroke:url(#linearGradient3048)"/>
   <path id="rect3326" d="m10 4.0001h2v8h-0.59059-0.60469-0.48679-0.31793v-8z" style="fill:url(#linearGradient3045);opacity:.4"/>
   <path id="path3273" d="m0.5 9.5001h21" style="fill:none;opacity:.4;stroke-linecap:square;stroke-width:1px;stroke:url(#linearGradient3042)"/>
  </g>
  <g id="g3128" transform="translate(28.656 2.2835)">
   <path id="path3288" d="m-7.4625 12.216-6.1916 7.0009-6.1605-7.0009h2.676v-6.0009h7v6.0009h2.676z" style="fill:url(#linearGradient2570);stroke-linecap:round;stroke-linejoin:round;stroke-width:.99829;stroke:#699536"/>
   <path id="path3290" d="m-9.7122 13.216-3.9264 4.5451-4.0369-4.5451h1.5369v-6h5v6h1.4264z" style="fill:none;opacity:.354;stroke-width:.99829;stroke:url(#linearGradient2572)"/>
  </g>
 </g>
</svg>
