<?xml version="1.0" encoding="UTF-8"?>
<!-- Created with Inkscape (http://www.inkscape.org/) -->
<svg id="svg11300" width="22" height="22" version="1.0" xmlns="http://www.w3.org/2000/svg" xmlns:xlink="http://www.w3.org/1999/xlink">
 <defs id="defs3">
  <linearGradient id="linearGradient3785">
   <stop id="stop3787" style="stop-color:#b8b8b8" offset="0"/>
   <stop id="stop3789" style="stop-color:#878787" offset="1"/>
  </linearGradient>
  <linearGradient id="linearGradient6954">
   <stop id="stop6960" style="stop-color:#f5f5f5" offset="0"/>
   <stop id="stop6962" style="stop-color:#d2d2d2" offset="1"/>
  </linearGradient>
  <linearGradient id="linearGradient3341">
   <stop id="stop3343" style="stop-color:#fff" offset="0"/>
   <stop id="stop3345" style="stop-color:#fff;stop-opacity:0" offset="1"/>
  </linearGradient>
  <linearGradient id="linearGradient5060">
   <stop id="stop5062" offset="0"/>
   <stop id="stop5064" style="stop-opacity:0" offset="1"/>
  </linearGradient>
  <radialGradient id="radialGradient2910" cx="25" cy="28.66" r="16" gradientTransform="matrix(.67742 0 0 .19286 -5.0163 9.9977)" gradientUnits="userSpaceOnUse" xlink:href="#linearGradient6954"/>
  <linearGradient id="linearGradient2912" x1="30" x2="30" y1="25.085" y2="45" gradientTransform="matrix(.51613 0 0 .51667 -.98397 -.49181)" gradientUnits="userSpaceOnUse" xlink:href="#linearGradient3785"/>
  <linearGradient id="linearGradient2914" x1="29.996" x2="29.996" y1="21.44" y2="43.531" gradientTransform="matrix(.51613 0 0 .51667 -.98397 -.49181)" gradientUnits="userSpaceOnUse" xlink:href="#linearGradient3341"/>
  <radialGradient id="radialGradient2916" cx="26.376" cy="12.313" r="8" gradientTransform="matrix(.86552 -.071029 .067606 .84907 -11.039 -4.2048)" gradientUnits="userSpaceOnUse" xlink:href="#linearGradient6954"/>
  <linearGradient id="linearGradient2918" x1="30" x2="30" y1="5" y2="44.679" gradientTransform="matrix(.5277 0 0 .53573 -1.3311 -1.4043)" gradientUnits="userSpaceOnUse" xlink:href="#linearGradient3785"/>
  <linearGradient id="linearGradient2920" x1="22" x2="17" y1="39" y2="37.438" gradientTransform="matrix(.75 0 0 .43478 -5.1276 2.9174)" gradientUnits="userSpaceOnUse" xlink:href="#linearGradient5060"/>
  <radialGradient id="radialGradient2922" cx="30" cy="33.188" r="4.6875" gradientTransform="matrix(.81492 -3.8845e-7 1.1365e-7 .2534 -9.9476 6.5902)" gradientUnits="userSpaceOnUse" xlink:href="#linearGradient5060"/>
  <linearGradient id="linearGradient2924" x1="22" x2="17" y1="39" y2="37.438" gradientTransform="matrix(-.75 0 0 .43478 34.15 2.9174)" gradientUnits="userSpaceOnUse" xlink:href="#linearGradient5060"/>
  <linearGradient id="linearGradient2926" x1="30" x2="30" y1="6.334" y2="24.913" gradientTransform="matrix(.5277 0 0 .53573 -1.3311 -1.4043)" gradientUnits="userSpaceOnUse" xlink:href="#linearGradient3341"/>
  <radialGradient id="radialGradient2928" cx="23.896" cy="3.99" r="20.397" gradientTransform="matrix(0 .86033 -1.1356 0 12.531 -20.445)" gradientUnits="userSpaceOnUse">
   <stop id="stop3870" style="stop-color:#8badea" offset="0"/>
   <stop id="stop3872" style="stop-color:#6396cd" offset=".26238"/>
   <stop id="stop3874" style="stop-color:#3b7caf" offset=".66094"/>
   <stop id="stop3876" style="stop-color:#194c70" offset="1"/>
  </radialGradient>
  <linearGradient id="linearGradient2930" x1="18.379" x2="18.379" y1="44.98" y2="3.0816" gradientTransform="matrix(.36048 0 0 .36048 -.65141 -.65142)" gradientUnits="userSpaceOnUse">
   <stop id="stop3880" style="stop-color:#1f4b6a" offset="0"/>
   <stop id="stop3882" style="stop-color:#4083c2" offset="1"/>
  </linearGradient>
  <linearGradient id="linearGradient2932" x1="63.397" x2="63.397" y1="-12.489" y2="5.4676" gradientTransform="matrix(.68609 0 0 .68607 -34.675 10.409)" gradientUnits="userSpaceOnUse" xlink:href="#linearGradient3341"/>
 </defs>
 <g id="g2896" transform="translate(-1 -1)">
  <g id="g3758" transform="translate(-5)">
   <path id="path3766" d="m12.177 10.1c0.23753 1.1247 0.37012 1.9754 0.17742 3.1-1.5023 1.2477-5.3445 1.8084-5.3387 3.1l-0.51613 3.875c0 1.2841 3.5817 2.325 8.0001 2.325 4.4183 0 8.0001-1.0409 8.0001-2.325l-0.51613-3.875c-0.0061-1.1055-3.871-1.8083-5.3549-3.1-0.12675-1.0438-0.02586-2.0562 0.19355-3.1h-4.6452z" style="fill:url(#radialGradient2910);stroke-width:.99989;stroke:url(#linearGradient2912)"/>
   <path id="path3742" d="m13.219 11.094c0.08722 0.85671 0.3354 1.801-0.04818 2.6159-0.64255 0.72846-1.5946 1.0938-2.4674 1.4727-1.3805 0.32814-2.9895 0.81768-2.778 1.8161-0.14174 1.063-0.28348 2.1261-0.42522 3.1891 0.3064 0.16061 1.0809 0.5849 1.625 0.6875 2.5208 0.66695 5.1678 0.72537 7.7549 0.51952 1.5117-0.16621 3.0886-0.35266 4.4326-1.1133 0.33544-0.07362 0.10712-0.31641 0.11494-0.65492-0.13206-1.0213-0.26412-2.0426-0.39619-3.0638-0.58765-0.5027-1.3913-0.75352-2.1064-1.0646-1.0828-0.4473-2.2515-0.853-3.0869-1.708-0.39162-0.68956-0.16147-1.5387-0.10732-2.2865 0.25968-0.52835-0.2234-0.4019-0.55293-0.40969h-1.9589z" style="fill:none;stroke-width:.99989;stroke:url(#linearGradient2914)"/>
   <path id="path3764" d="m14.5 1.5422c-2.1858 0-3.9578 1.679-3.9578 3.7501 0.01713 0.76649 0.08155 1.677 0.5277 3.7501 0.26385 0.8036 2.6173 2.9465 2.6385 3.2144 0.5117 0.26786 1.3193 0.26786 1.847 0 0-0.26786 2.1108-2.4108 2.3747-3.2144 0.50205-2.1545 0.50077-2.9465 0.5277-3.7501 0-2.0711-1.772-3.7501-3.9578-3.7501z" style="fill:url(#radialGradient2916);stroke-width:1.0845;stroke:url(#linearGradient2918)"/>
   <path id="path3848" d="m10.622 21.7c-1.7718-0.86182-0.9269-2.7752-0.75-4-0.75 0.86957-0.37237 3.3-1.8724 3.3 1 0.35562 1.6845 0.59817 2.6224 0.7z" style="fill:url(#linearGradient2920);opacity:.5"/>
   <path id="path3833" d="m12 13.35c0.36603 0.95934 1.3434 1.6495 2.5 1.6495s2.134-0.69018 2.5-1.6495h-5z" style="fill:url(#radialGradient2922);opacity:.3"/>
   <path id="path3720" d="m18.4 21.7c1.7718-0.86182 0.9269-2.7752 0.75-4 0.75 0.86957 0.37237 3.3 1.8724 3.3-1 0.35562-1.6845 0.59817-2.6224 0.7z" style="fill:url(#linearGradient2924);opacity:.5"/>
   <path id="path3730" d="m14.5 2.5312c-1.6666 0-2.9513 1.2303-2.9688 2.7188 1.39e-4 0.00624-1.45e-4 0.024997 0 0.03125 0.01647 0.7081 0.08609 1.5273 0.5 3.4688-0.0051-0.03667 0.09671 0.20414 0.3125 0.46875 0.23243 0.28502 0.5666 0.60833 0.875 0.9375 0.3084 0.32917 0.59885 0.66898 0.84375 0.9375 0.09435 0.10345 0.17196 0.1869 0.25 0.28125 0.16681 0.03524 0.41525 0.03212 0.625 0 0.06182-0.08397 0.11475-0.15943 0.1875-0.25 0.21825-0.27171 0.4739-0.57599 0.75-0.90625 0.2761-0.33026 0.56921-0.68139 0.78125-0.96875 0.19756-0.26773 0.30731-0.50314 0.3125-0.5 0.4607-1.9998 0.47374-2.6696 0.5-3.4688 0-0.010182 1.19e-4 -0.021091 0-0.03125-0.01745-1.4884-1.3021-2.7188-2.9688-2.7188z" style="fill:none;stroke-width:1.0845;stroke:url(#linearGradient2926)"/>
  </g>
  <g id="layer1" transform="matrix(.75 0 0 .75 11 11)">
   <path id="path2449" d="m8 0.66657c-4.0463 0-7.3334 3.2871-7.3334 7.3334 0 4.0463 3.2871 7.3334 7.3334 7.3334 4.0463 0 7.3334-3.2871 7.3334-7.3334 0-4.0463-3.2871-7.3334-7.3334-7.3334z" style="fill:url(#radialGradient2928);stroke-linecap:round;stroke-linejoin:round;stroke-width:1.3331;stroke:url(#linearGradient2930)"/>
   <path id="path2451" d="m14 7.9998c0 3.3139-2.6866 6.0004-6.0001 6.0004-3.3138 0-6.0003-2.6865-6.0003-6.0004 0-3.3138 2.6864-6 6.0003-6 3.3135 0 6.0001 2.6862 6.0001 6z" style="fill:none;opacity:.4;stroke-width:1.333;stroke:url(#linearGradient2932)"/>
   <path id="path3536" d="m5.6 7.9819c0.109 0.27094 0.22833 0.48929 0.45221 0.17481 0.28529-0.19092 1.234-1.0154 1.1659-0.24323-0.25831 1.4342-0.5853 2.8563-0.82171 4.294-0.27479 0.79319 0.44554 1.4708 1.1492 0.9334 0.75629-0.35778 1.3973-0.91624 2.0544-1.4314-0.10128-0.22894-0.17574-0.56072-0.41877-0.24588-0.32856 0.17004-1.0308 0.93687-1.1902 0.33479 0.22128-1.5506 0.68448-3.0541 0.95805-4.5946 0.27908-0.71461-0.25573-1.581-0.98212-0.96952-0.88164 0.43898-1.6065 1.1266-2.367 1.7476zm3.1289-5.3133c-0.91741-0.012327-1.337 1.5257-0.45094 1.9054 0.71737 0.26878 1.4569-0.50762 1.2556-1.2447-0.068568-0.38532-0.41909-0.68962-0.80463-0.66071h-9e-7z" style="fill:#fff"/>
  </g>
 </g>
</svg>
