<?xml version="1.0" encoding="UTF-8"?>
<!-- Created with Inkscape (http://www.inkscape.org/) -->
<svg id="svg3521" width="32" height="32" version="1.0" xmlns="http://www.w3.org/2000/svg" xmlns:xlink="http://www.w3.org/1999/xlink">
 <defs id="defs3523">
  <linearGradient id="linearGradient3487" x1="302.86" x2="302.86" y1="366.65" y2="609.51" gradientTransform="matrix(.045769 0 0 .0082353 -.54232 26.981)" gradientUnits="userSpaceOnUse">
   <stop id="stop5050" style="stop-opacity:0" offset="0"/>
   <stop id="stop5056" offset=".5"/>
   <stop id="stop5052" style="stop-opacity:0" offset="1"/>
  </linearGradient>
  <radialGradient id="radialGradient3484" cx="605.71" cy="486.65" r="117.14" gradientTransform="matrix(-.015663 0 0 .0082353 14.39 26.981)" gradientUnits="userSpaceOnUse" xlink:href="#linearGradient5060"/>
  <linearGradient id="linearGradient5060">
   <stop id="stop5062" offset="0"/>
   <stop id="stop5064" style="stop-opacity:0" offset="1"/>
  </linearGradient>
  <radialGradient id="radialGradient3481" cx="605.71" cy="486.65" r="117.14" gradientTransform="matrix(.015663 0 0 .0082353 17.61 26.981)" gradientUnits="userSpaceOnUse" xlink:href="#linearGradient5060"/>
  <linearGradient id="linearGradient3478" x1="-51.786" x2="-51.786" y1="53.624" y2="2.9062" gradientTransform="matrix(.53064 0 0 .5897 39.27 -.79191)" gradientUnits="userSpaceOnUse">
   <stop id="stop2510" style="stop-color:#2e4a5a" offset="0"/>
   <stop id="stop2512" style="stop-color:#6e8796" offset="1"/>
  </linearGradient>
  <radialGradient id="radialGradient3476" cx="14.239" cy="11.49" r="18" gradientTransform="matrix(0 2.0947 -3.4819 0 48.983 -24.861)" gradientUnits="userSpaceOnUse">
   <stop id="stop8022" style="stop-color:#85c2cf" offset="0"/>
   <stop id="stop8024" style="stop-color:#74a4be" offset=".26238"/>
   <stop id="stop8026" style="stop-color:#5177a0" offset=".70495"/>
   <stop id="stop8028" style="stop-color:#2c5889" offset="1"/>
  </radialGradient>
  <linearGradient id="linearGradient3473" x1="24" x2="24" y1="2" y2="46.017" gradientTransform="matrix(.63636 0 0 .62791 .72725 .93022)" gradientUnits="userSpaceOnUse">
   <stop id="stop3213" style="stop-color:#fff" offset="0"/>
   <stop id="stop3215" style="stop-color:#fff;stop-opacity:0" offset="1"/>
  </linearGradient>
  <filter id="filter3212" x="-.14846" y="-.16434" width="1.2969" height="1.3287">
   <feGaussianBlur id="feGaussianBlur3214" stdDeviation="0.77391625"/>
  </filter>
  <linearGradient id="linearGradient3469" x1="32.892" x2="36.358" y1="8.059" y2="5.4565" gradientTransform="matrix(.63713 0 0 .64456 .82968 .74452)" gradientUnits="userSpaceOnUse">
   <stop id="stop8591" style="stop-color:#fefefe" offset="0"/>
   <stop id="stop8593" style="stop-color:#cbcbcb" offset="1"/>
  </linearGradient>
  <linearGradient id="linearGradient3466" x1="16.626" x2="20.055" y1="15.298" y2="24.628" gradientTransform="matrix(.47891 0 0 .9111 4.5061 -3.4381)" gradientUnits="userSpaceOnUse">
   <stop id="stop2687" style="stop-color:#fff" offset="0"/>
   <stop id="stop2689" style="stop-color:#fff;stop-opacity:0" offset="1"/>
  </linearGradient>
  <linearGradient id="linearGradient3515" x1="75.854" x2="91" y1="28" y2="12" gradientTransform="matrix(.76817 0 0 .593 -40.68 5.212)" gradientUnits="userSpaceOnUse" spreadMethod="reflect">
   <stop id="stop4002" offset="0"/>
   <stop id="stop4004" style="stop-opacity:0" offset="1"/>
  </linearGradient>
  <linearGradient id="linearGradient3512" x1="75.854" x2="91" y1="28" y2="12" gradientTransform="matrix(.76817 0 0 .593 -40.597 4.1403)" gradientUnits="userSpaceOnUse" spreadMethod="reflect">
   <stop id="stop5295" style="stop-color:#fff" offset="0"/>
   <stop id="stop5297" style="stop-color:#fff;stop-opacity:0" offset="1"/>
  </linearGradient>
  <linearGradient id="linearGradient3509" x1="26.189" x2="44.25" y1="30.455" y2="16.135" gradientTransform="matrix(.63807 0 0 .64324 .6607 1.8586)" gradientUnits="userSpaceOnUse" spreadMethod="reflect">
   <stop id="stop3761" offset="0"/>
   <stop id="stop3763" style="stop-opacity:0" offset="1"/>
  </linearGradient>
  <linearGradient id="linearGradient3463" x1="35.517" x2="34.103" y1="4.8577" y2="6.5436" gradientTransform="matrix(.63768 0 0 .66015 1.0364 1.1699)" gradientUnits="userSpaceOnUse">
   <stop id="stop4269" style="stop-color:#c4c4c4" offset="0"/>
   <stop id="stop4271" style="stop-color:#c4c4c4;stop-opacity:0" offset="1"/>
  </linearGradient>
  <linearGradient id="linearGradient2640" x1="24.239" x2="24.239" y1="44.11" y2=".19081" gradientTransform="matrix(.63651 0 0 .6421 .57143 1.7483)" gradientUnits="userSpaceOnUse">
   <stop id="stop3686" style="stop-color:#294351" offset="0"/>
   <stop id="stop3688" style="stop-color:#637a87" offset="1"/>
  </linearGradient>
 </defs>
 <g id="layer1">
  <rect id="rect2879" x="4.95" y="30" width="22.1" height="2" style="fill:url(#linearGradient3487);opacity:.15"/>
  <path id="path2881" d="m4.95 30v1.9999c-0.80662 0.003766-1.95-0.44807-1.95-1.0001s0.90012-0.99982 1.95-0.99982z" style="fill:url(#radialGradient3484);opacity:.15"/>
  <path id="path2883" d="m27.05 30v1.9999c0.80661 0.003766 1.95-0.44807 1.95-1.0001s-0.90012-0.99982-1.95-0.99982z" style="fill:url(#radialGradient3481);opacity:.15"/>
  <path id="path4160" d="m4.5 1.5h15.811c0.92456 0.3128 5.8916 3.8764 7.1886 6.3439v22.656h-23v-29z" style="fill:url(#radialGradient3476);stroke-linejoin:round;stroke-width:.99992;stroke:url(#linearGradient3478)"/>
  <path id="path2435" d="m26.5 8.139v21.361h-21v-27h14.551" style="fill:none;opacity:.4;stroke:url(#linearGradient3473)"/>
  <path id="path12038" transform="matrix(.6386 0 0 .61936 .72508 1.4294)" d="m28.617 0.92126c4.2825 0 2.1532 8.4832 2.1532 8.4832s10.358-1.8023 10.358 2.8187c0-2.6097-11.302-10.729-12.511-11.302z" style="fill-rule:evenodd;filter:url(#filter3212);opacity:.4"/>
  <path id="path4474" d="m19 2c2.0349 0 1.4916 4.7455 1.4916 4.7455s6.4978-0.60763 6.4978 2.2545c0-0.69737 0.054866-1.1968-0.085429-1.4144-1.0079-1.5634-5.3614-5.0716-6.9334-5.5314-0.11764-0.034408-0.3785-0.054215-0.97055-0.054215z" style="fill-rule:evenodd;fill:url(#linearGradient3469)"/>
  <path id="path3879" d="m6.0476 2c-0.57866 0-1.0476 0.89216-1.0476 1.993v14.578c0.0013274 0.12264 0.029596 0.23861 0.077942 0.31976 0.048348 0.081157 0.11235 0.12008 0.17648 0.10731l21.551-6.4916c0.11086-0.033258 0.19301-0.21359 0.19456-0.42708v-3.9233l-7.01-6.1557h-13.942z" style="fill-rule:evenodd;fill:url(#linearGradient3466);opacity:.2"/>
  <path id="path3743" d="m12.708 11c-2.5698 3.3018-5.1385 6.6079-7.7083 9.9097v10.09h18.312c1.6888-2.1699 1.9492-2.5007 3.6875-4.7342v-9.1474c-5.0441-2.1603-11.016-4.7155-14.292-6.1184z" style="fill:url(#linearGradient3515);opacity:.1"/>
  <path id="path3697" d="m12.708 10c-2.5698 3.3018-5.1385 6.6079-7.7083 9.9097v10.09h18.312c1.6888-2.1699 1.9492-2.5007 3.6875-4.7342v-9.1474c-5.0441-2.1603-11.016-4.7155-14.292-6.1184z" style="fill:url(#linearGradient3512);opacity:.4"/>
  <path id="path3475" d="m12.964 13.606 11.881 5.3272-11.881-5.3272zm-1.2662 1.7032 13.815 6.1944-13.815-6.1944zm-1.2861 1.7301 4.4207 1.9822-4.4207-1.9822zm-1.2662 1.7032 13.815 6.1944-13.815-6.1944zm-1.2861 1.7301 12.433 5.575-12.433-5.575zm-1.2761 1.7167 11.328 5.0794-11.328-5.0794zm-1.2662 1.7032 13.538 6.0705-13.538-6.0705z" style="fill:none;opacity:.1;stroke-width:1px;stroke:url(#linearGradient3509)"/>
  <path id="path3883" d="m20.287 1.4703c0.89717 0.31334 5.9541 3.9109 7.2127 6.3827v8.1102c-25.791 10.383-22.706-14.493-7.2127-14.493z" style="fill:none;stroke-linejoin:round;stroke-width:.99992;stroke:url(#linearGradient3463)"/>
  <path id="path3517" d="m21.662 25h-3.3382c-0.61324-2.5259-1.2725-5.0415-1.8541-7.5746-0.18568-0.79778-0.38119-2.1629-0.49018-2.6548-0.35512 2.7335-1.1274 5.3809-1.7599 8.056-0.17779 0.72445-0.35558 1.4489-0.53337 2.1734h-3.3477c-1.1128-4.6623-2.2255-9.3245-3.3383-13.987h2.8925c0.77319 3.8418 1.6473 7.6645 2.2571 11.538 0.25858-1.8291 0.5841-3.6486 1.0607-5.4334 0.49995-2.0347 0.9999-4.0695 1.4999-6.1042h2.5796c0.65645 2.6986 1.338 5.3914 1.9785 8.0936 0.22796 1.1424 0.40901 2.2936 0.59155 3.4441 0.57526-3.8084 1.4521-7.5605 2.2059-11.335-0.015856-0.36677 0.44652-0.14043 0.67639-0.20246h2.2579c-1.1128 4.6623-2.2255 9.3245-3.3383 13.987z" style="fill:#fff;opacity:.4"/>
  <path id="text2612" d="m21.662 24h-3.3382c-0.61324-2.5259-1.2725-5.0415-1.8541-7.5746-0.18568-0.79778-0.38119-2.1629-0.49018-2.6548-0.35512 2.7335-1.1274 5.3809-1.7599 8.056-0.17779 0.72445-0.35558 1.4489-0.53337 2.1734h-3.3477c-1.1128-4.6623-2.2255-9.3245-3.3383-13.987h2.8925c0.77319 3.8418 1.6473 7.6645 2.2571 11.538 0.25858-1.8291 0.5841-3.6486 1.0607-5.4334 0.49995-2.0347 0.9999-4.0695 1.4999-6.1042h2.5796c0.65645 2.6986 1.338 5.3914 1.9785 8.0936 0.22796 1.1424 0.40901 2.2936 0.59155 3.4441 0.57526-3.8084 1.4521-7.5605 2.2059-11.335-0.015856-0.36677 0.44652-0.14043 0.67639-0.20246h2.2579c-1.1128 4.6623-2.2255 9.3245-3.3383 13.987z" style="fill:url(#linearGradient2640)"/>
 </g>
</svg>
