<?xml version="1.0" encoding="UTF-8"?>
<!-- Created with Inkscape (http://www.inkscape.org/) -->
<svg id="svg4156" width="32px" height="32px" version="1.1" xmlns="http://www.w3.org/2000/svg" xmlns:cc="http://creativecommons.org/ns#" xmlns:dc="http://purl.org/dc/elements/1.1/" xmlns:rdf="http://www.w3.org/1999/02/22-rdf-syntax-ns#" xmlns:xlink="http://www.w3.org/1999/xlink">
 <defs id="defs4158">
  <linearGradient id="linearGradient2896" x1="35.517" x2="34.103" y1="4.8577" y2="6.5436" gradientTransform="matrix(.64455 0 0 .6376 .81102 2.1939)" gradientUnits="userSpaceOnUse">
   <stop id="stop4269" style="stop-color:#c4c4c4" offset="0"/>
   <stop id="stop4271" style="stop-color:#c4c4c4;stop-opacity:0" offset="1"/>
  </linearGradient>
  <linearGradient id="linearGradient2899" x1="32.892" x2="36.358" y1="8.059" y2="5.4565" gradientTransform="matrix(.64306 0 0 .66355 .9166 1.4889)" gradientUnits="userSpaceOnUse">
   <stop id="stop8591" style="stop-color:#fefefe" offset="0"/>
   <stop id="stop8593" style="stop-color:#cbcbcb" offset="1"/>
  </linearGradient>
  <filter id="filter3212" x="-.14846" y="-.16434" width="1.2969" height="1.3287" color-interpolation-filters="sRGB">
   <feGaussianBlur id="feGaussianBlur3214" stdDeviation="0.77391625"/>
  </filter>
  <linearGradient id="linearGradient2925" x1="-22.54" x2="-22.54" y1="11.109" y2="46.264" gradientTransform="matrix(.59158 0 0 .63851 30.574 1.2045)" gradientUnits="userSpaceOnUse" xlink:href="#linearGradient3932"/>
  <linearGradient id="linearGradient3932">
   <stop id="stop3934" style="stop-color:#828282" offset="0"/>
   <stop id="stop3936" style="stop-color:#434343" offset="1"/>
  </linearGradient>
  <linearGradient id="linearGradient2927" x1="16.746" x2="16.746" y1="46.133" y2="1.4098" gradientTransform="matrix(.63265 0 0 .61528 1.1465 1.7899)" gradientUnits="userSpaceOnUse" xlink:href="#linearGradient3582"/>
  <linearGradient id="linearGradient3582">
   <stop id="stop3584" style="stop-color:#333" offset="0"/>
   <stop id="stop3586" style="stop-color:#5a5a5a" offset="1"/>
  </linearGradient>
  <linearGradient id="linearGradient2930" x1="-22.54" x2="-22.54" y1="11.109" y2="46.264" gradientTransform="matrix(.58623 0 0 .63665 29.685 1.2915)" gradientUnits="userSpaceOnUse" xlink:href="#linearGradient3932"/>
  <linearGradient id="linearGradient2932" x1="16.746" x2="16.746" y1="46.133" y2="1.4098" gradientTransform="matrix(.62693 0 0 .61349 .5233 1.8753)" gradientUnits="userSpaceOnUse" xlink:href="#linearGradient3582"/>
  <radialGradient id="radialGradient2937" cx="102" cy="112.3" r="139.56" gradientTransform="matrix(.23313 0 0 -.24768 .85929 32.41)" gradientUnits="userSpaceOnUse">
   <stop id="stop41" offset="0"/>
   <stop id="stop47" offset=".18851"/>
   <stop id="stop49" style="stop-opacity:0" offset=".25718"/>
   <stop id="stop51" style="stop-opacity:0" offset="1"/>
  </radialGradient>
  <radialGradient id="radialGradient2940" cx="14.766" cy="10.898" r="18" gradientTransform="matrix(-1.4919e-8 1.3589 -2.3395 -2.408e-8 36.122 -13.366)" gradientUnits="userSpaceOnUse">
   <stop id="stop3618" style="stop-color:#f0c178" offset="0"/>
   <stop id="stop3270" style="stop-color:#e18941" offset=".5"/>
   <stop id="stop3620" style="stop-color:#ec4f18" offset="1"/>
  </radialGradient>
  <linearGradient id="linearGradient2942" x1="-51.786" x2="-51.786" y1="53.624" y2="2.9062" gradientTransform="matrix(.53064 0 0 .56937 39.27 .287)" gradientUnits="userSpaceOnUse">
   <stop id="stop3624" style="stop-color:#c92e13" offset="0"/>
   <stop id="stop3626" style="stop-color:#dea176" offset="1"/>
  </linearGradient>
  <linearGradient id="linearGradient2960" x1="302.86" x2="302.86" y1="366.65" y2="609.51" gradientTransform="matrix(.067325 0 0 .0147 -.34161 40.04)" gradientUnits="userSpaceOnUse">
   <stop id="stop5050" style="stop-opacity:0" offset="0"/>
   <stop id="stop5056" offset=".5"/>
   <stop id="stop5052" style="stop-opacity:0" offset="1"/>
  </linearGradient>
  <radialGradient id="radialGradient2962" cx="605.71" cy="486.65" r="117.14" gradientTransform="matrix(-.02304 0 0 .0147 21.623 40.04)" gradientUnits="userSpaceOnUse" xlink:href="#linearGradient5060"/>
  <linearGradient id="linearGradient5060">
   <stop id="stop5062" offset="0"/>
   <stop id="stop5064" style="stop-opacity:0" offset="1"/>
  </linearGradient>
  <radialGradient id="radialGradient4154" cx="605.71" cy="486.65" r="117.14" gradientTransform="matrix(.02304 0 0 .0147 26.36 40.04)" gradientUnits="userSpaceOnUse" xlink:href="#linearGradient5060"/>
 </defs>
 <metadata id="metadata4161">
  <rdf:RDF>
   <cc:Work rdf:about="">
    <dc:format>image/svg+xml</dc:format>
    <dc:type rdf:resource="http://purl.org/dc/dcmitype/StillImage"/>
    <dc:title/>
   </cc:Work>
  </rdf:RDF>
 </metadata>
 <g id="layer1">
  <g id="g2955" transform="matrix(.67983 0 0 1.1204 -.31007 -22.401)">
   <rect id="rect2879" x="7.7374" y="45.43" width="32.508" height="3.5701" style="fill:url(#linearGradient2960);opacity:.3"/>
   <path id="path2881" d="m7.7374 45.43v3.5699c-1.1865 0.0067-2.8684-0.79982-2.8684-1.7852 0-0.98533 1.324-1.7847 2.8684-1.7847z" style="fill:url(#radialGradient2962);opacity:.3"/>
   <path id="path2883" d="m40.246 45.43v3.5699c1.1865 0.0067 2.8684-0.79982 2.8684-1.7852 0-0.98533-1.324-1.7847-2.8684-1.7847z" style="fill:url(#radialGradient4154);opacity:.3"/>
  </g>
  <path id="path4160" d="m4.5003 2.4998h15.811c0.34515 1.2472 4.0303 4.3596 7.1886 6.1251v21.875h-23v-28z" style="fill:url(#radialGradient2940);stroke-linejoin:round;stroke-width:.99992;stroke:url(#linearGradient2942)"/>
  <path id="path4191" d="m5.0557 30.181c-0.12846 0-0.23313-0.11121-0.23313-0.24768v-26.75c0-0.13672 0.10468-0.24768 0.23313-0.24768 4.8232 0.06846 10.168-0.10241 14.985 0.017041l6.6276 5.6194 0.0683 21.361c0 0.13647-0.10444 0.24768-0.23313 0.24768h-21.448z" style="fill:url(#radialGradient2937);opacity:.05"/>
  <path id="path3460" d="m8.9815 16.519 14.848-0.037" style="fill:none;stroke-linecap:square;stroke-linejoin:round;stroke-width:.963;stroke:#464646"/>
  <path id="path4720" d="m9.0002 17.519 14.848-0.037" style="fill-rule:evenodd;fill:#fff;opacity:.3;stroke-linecap:square;stroke-linejoin:round;stroke-width:.963;stroke:#fff"/>
  <path id="path3489" d="m8.4659 2.6018c0 1.6546 0.052498 26.568 0.052498 27.905h-3.86c-0.31274-0.33041-0.074929-0.9864-0.14924-1.4542v-26.29l0.043614-0.11348 0.10562-0.046858h3.8075z" style="display:block;fill:url(#linearGradient2930);stroke-linejoin:round;stroke-width:.97336;stroke:url(#linearGradient2932)"/>
  <path id="path4696" d="m23.518 30.486c0-1.4682-0.03259-23.182-0.03259-24.714 1.1003 1.4886 3.3873 1.9473 4.022 3.091 0 7.1541 1e-6 14.308 1e-6 21.462-0.31035 0.33677-0.92652 0.08069-1.3659 0.1607h-2.6236z" style="display:block;fill:url(#linearGradient2925);stroke-linejoin:round;stroke-width:.97796;stroke:url(#linearGradient2927)"/>
  <rect id="rect3464" x="5.5028" y="4.8286" width="2.0044" height="1.2676" style="fill:#fff"/>
  <rect id="rect3466" x="5.5028" y="7.3639" width="2.0044" height="1.2676" style="fill:#fff"/>
  <rect id="rect3468" x="5.5028" y="9.8991" width="2.0044" height="1.2676" style="fill:#fff"/>
  <rect id="rect3470" x="5.5028" y="12.434" width="2.0044" height="1.2676" style="fill:#fff"/>
  <rect id="rect3472" x="5.5028" y="14.97" width="2.0044" height="1.2676" style="fill:#fff"/>
  <rect id="rect3474" x="5.5028" y="17.505" width="2.0044" height="1.2676" style="fill:#fff"/>
  <rect id="rect3476" x="5.5028" y="20.04" width="2.0044" height="1.2676" style="fill:#fff"/>
  <rect id="rect3478" x="5.5028" y="22.575" width="2.0044" height="1.2676" style="fill:#fff"/>
  <rect id="rect3480" x="5.5028" y="25.111" width="2.0044" height="1.2676" style="fill:#fff"/>
  <rect id="rect3482" x="5.5028" y="27.646" width="2.0044" height="1.2676" style="fill:#fff"/>
  <g id="g4684" transform="matrix(.80743 0 0 .60333 -5.9044 2.0858)" style="stroke-width:.91854">
   <rect id="rect2565" x="37.648" y="11.9" width="2.4815" height="1.9644" style="fill:#fff"/>
   <rect id="rect2567" x="37.648" y="16.271" width="2.4815" height="1.9644" style="fill:#fff"/>
   <rect id="rect2569" x="37.648" y="20.643" width="2.4815" height="1.9644" style="fill:#fff"/>
   <rect id="rect2571" x="37.648" y="25.015" width="2.4815" height="1.9644" style="fill:#fff"/>
   <rect id="rect2573" x="37.648" y="29.387" width="2.4815" height="1.9644" style="fill:#fff"/>
   <rect id="rect2575" x="37.648" y="33.758" width="2.4815" height="1.9644" style="fill:#fff"/>
   <rect id="rect2577" x="37.648" y="38.13" width="2.4815" height="1.9644" style="fill:#fff"/>
   <rect id="rect2579" x="37.648" y="42.502" width="2.4815" height="1.9644" style="fill:#fff"/>
  </g>
  <path id="path12038" transform="matrix(.64455 0 0 .6376 .81132 11.122)" d="m28.617-13.082c4.2825 0 2.1532 8.4832 2.1532 8.4832s10.358-1.8023 10.358 2.8187c0-2.6097-11.302-10.729-12.511-11.302z" style="fill-rule:evenodd;filter:url(#filter3212);opacity:.4"/>
  <path id="path4474" d="m19.256 2.7813c2.0538 0 1.5055 4.8852 1.5055 4.8852s6.5583-0.62552 6.5583 2.3209c0-0.7179 0.05537-1.232-0.08623-1.456-1.0173-1.6094-5.2293-5.221-6.816-5.6943-0.11874-0.035426-0.564-0.055815-1.1616-0.055815z" style="fill-rule:evenodd;fill:url(#linearGradient2899)"/>
  <path id="path4238" d="m20.509 2.5127c0.90683 0.30264 5.7786 3.7487 7.0508 6.136v7.8331c-26.069 10.029-22.711-13.969-7.0508-13.969z" style="fill:none;stroke-linejoin:round;stroke-width:.99992;stroke:url(#linearGradient2896)"/>
 </g>
</svg>
