<?xml version="1.0" encoding="UTF-8"?>
<!-- Created with Inkscape (http://www.inkscape.org/) -->
<svg id="svg11300" width="22" height="22" version="1.0" xmlns="http://www.w3.org/2000/svg" xmlns:xlink="http://www.w3.org/1999/xlink">
 <defs id="defs3">
  <linearGradient id="linearGradient3156">
   <stop id="stop3158" style="stop-color:#fff" offset="0"/>
   <stop id="stop3160" style="stop-color:#fff;stop-opacity:0" offset="1"/>
  </linearGradient>
  <linearGradient id="linearGradient5575" x1="30.502" x2="29.725" y1="55.647" y2="24.654" gradientTransform="matrix(-.080599 -.53926 .24452 .0082709 8.3675 28.1)" gradientUnits="userSpaceOnUse" xlink:href="#linearGradient3156"/>
  <linearGradient id="linearGradient5577" x1="28.221" x2="28.29" y1="-2.3103" y2="20.664" gradientTransform="matrix(-.04856 -.54248 .33934 -.019372 3.6551 28.93)" gradientUnits="userSpaceOnUse" xlink:href="#linearGradient3156"/>
  <linearGradient id="linearGradient5579" x1="27.889" x2="28.29" y1="-.81503" y2="20.664" gradientTransform="matrix(.54285 -.0033948 .00054207 .3714 -4.4843 4.0902)" gradientUnits="userSpaceOnUse" xlink:href="#linearGradient3156"/>
  <linearGradient id="linearGradient5581" x1="24.335" x2="28.29" y1="61.853" y2="20.664" gradientTransform="matrix(.53414 -.14026 .096919 .34395 -6.5733 9.6565)" gradientUnits="userSpaceOnUse" xlink:href="#linearGradient3156"/>
  <radialGradient id="radialGradient5863" cx="62.625" cy="4.625" r="10.625" gradientTransform="matrix(.94118 0 0 .23529 -47.941 21.412)" gradientUnits="userSpaceOnUse">
   <stop id="stop8840" offset="0"/>
   <stop id="stop8842" style="stop-opacity:0" offset="1"/>
  </radialGradient>
  <radialGradient id="radialGradient5552" cx="21.419" cy="13.344" r="14" fy="6.8828" gradientTransform="matrix(.70713 0 0 .47143 -7.0986 1.2927)" gradientUnits="userSpaceOnUse" xlink:href="#linearGradient3156"/>
  <radialGradient id="radialGradient5555" cx="102.75" cy="33" r="9" gradientTransform="matrix(1.1993 0 0 1.1 -115.8 -32.1)" gradientUnits="userSpaceOnUse" xlink:href="#linearGradient3156"/>
  <radialGradient id="radialGradient5558" cx="11.035" cy="7.7555" r="8.1341" gradientTransform="matrix(1.7443 -.10345 .095836 1.6159 -8.9566 -2.1377)" gradientUnits="userSpaceOnUse">
   <stop id="stop8920" style="stop-color:#debc8c" offset="0"/>
   <stop id="stop8922" style="stop-color:#f4ac72" offset="1"/>
  </radialGradient>
  <radialGradient id="radialGradient5564" cx="20.143" cy="16.441" r="22.464" gradientTransform="matrix(.79945 -.0030777 .0024876 .64707 -7.5003 -1.3705)" gradientUnits="userSpaceOnUse">
   <stop id="stop4105" style="stop-color:#70adfb" offset="0"/>
   <stop id="stop4107" style="stop-color:#3465a4" offset="1"/>
  </radialGradient>
  <linearGradient id="linearGradient5566" x1="106" x2="106" y1="40.125" y2="51" gradientTransform="matrix(1.1045 0 0 1.1045 -106.08 -32.286)" gradientUnits="userSpaceOnUse">
   <stop id="stop6495" style="stop-color:#4580d4" offset="0"/>
   <stop id="stop6497" style="stop-color:#114796" offset="1"/>
  </linearGradient>
 </defs>
 <g id="g6339" transform="translate(0,-2)">
  <path id="path6401" d="m21 22.5c0 1.3807-4.4772 2.5-10 2.5-5.5228 0-10-1.1193-10-2.5s4.4772-2.5 10-2.5c5.5228 0 10 1.1193 10 2.5z" style="enable-background:new;fill-rule:evenodd;fill:url(#radialGradient5863);opacity:.4"/>
  <path id="path6653" d="m21.5 13c0 5.796-4.704 10.5-10.5 10.5-5.796 0-10.5-4.704-10.5-10.5 0-5.796 4.704-10.5 10.5-10.5 5.796 0 10.5 4.704 10.5 10.5z" style="fill:url(#radialGradient5564);stroke-linecap:round;stroke-linejoin:round;stroke:url(#linearGradient5566)"/>
  <path id="path6657" d="m20.682 10.847-0.094 0.36235c-0.27818-0.23108-0.59051-0.42541-0.90767-0.62836l-0.6962 0.07221-0.63607-0.50684v0.62725l0.54495 0.29067 0.36272 0.28955 0.48473-0.38642c0.12202 0.1611 0.24237 0.3222 0.36355 0.4833v0.48277l-0.54578 0.43457-0.99879 0.4833-0.75642 0.53208-0.48474-0.3876 0.24237-0.43457-0.48398-0.38642-0.81738-1.2315-0.6962-0.55498-0.18223 0.14448 0.27327 0.70064 0.51405 0.4105c0.29359 0.59743 0.58401 1.1684 0.96955 1.7395 0.59784 0 1.1614-0.04474 1.7552-0.09746v0.33828l-0.72635 1.2559-0.66614 0.53091-0.54495 0.82216v1.3519l0.18223 0.53208-0.30258 0.24083-0.66697 0.29008-0.6962 0.4105 0.57585 0.4587-0.78732 0.48388 0.15125 0.31304-1.181 0.94258h-0.78649l-0.66614 0.29008h-0.4246v-0.38642l-0.18057-0.77402c-0.23429-0.48506-0.47824-0.96665-0.72635-1.4482 0-0.35548 0.03007-0.70751 0.06022-1.0629l0.30342-0.48277-0.4246-0.58022 0.0309-0.79692-0.57585-0.4587 0.28793-0.66394-0.46849-0.37468h-0.81822l-0.27243-0.21728-0.81739 0.36265-0.33265-0.2663-0.75725 0.45893c-0.51405-0.41079-1.0289-0.82128-1.5437-1.2318l-0.60517-1.0148 0.54495-0.57905-0.30258-0.24135 0.6653-1.1117c0.54662-0.4793 1.1176-0.93911 1.6951-1.4006l1.0297-0.19321 1.1501-0.096342 0.78732 0.14507 1.12 0.79633 0.3937-0.31362 0.54412-0.048142 1.0297 0.24135h0.78732l0.54495-0.33828 0.24237-0.24135-0.54578-0.24135-0.9085-0.048142c-0.25211-0.24652-0.4864-0.50566-0.78574-0.72471l-0.30342 0.096342-0.12118 0.62837-0.54495-0.43457-0.12035-0.48388-0.60517-0.33711h-0.2432l0.60592 0.48277-0.24237 0.43457-0.48398 0.096342 0.30258-0.43457-0.54578-0.19263-0.48315-0.38642-0.90934 0.14448-0.12035 0.19263-0.54495 0.24194-0.30258 0.5315-0.75642 0.26542-0.33348-0.26542h-0.36272v-0.86972l0.78732-0.29008h0.60517l-0.12202-0.3377-0.48315-0.33828 0.81664-0.121 0.45383-0.36177 0.36272-0.43515h0.66697l-0.18223-0.3377 0.4246-0.19321v0.38642l0.90767 0.14448 0.90767-0.53091 0.06097-0.24194 0.78648-0.38613c-0.28468 0.024952-0.56935 0.043268-0.84754 0.096636v-0.43509l0.30258-0.48306h-0.30258l-0.66497 0.43457-0.18223 0.24165 0.18223 0.33858-0.30342 0.57905-0.48398-0.19321-0.42294-0.3377-0.66697 0.3377-0.24237-0.77256 1.1501-0.5312v-0.29008l0.7271-0.33799 1.1501-0.19351 0.78732 0.19351 1.0899 0.48277h-0.78732l0.78732 0.57964 0.60517-0.48277s2.4081 1.2085 3.6518 2.8799c1.2102 1.6263 1.7168 3.4747 1.7697 3.8588z" style="fill:url(#radialGradient5558)"/>
  <path id="path6661" d="m20.374 13c0 5.1745-4.1995 9.3742-9.3739 9.3742-5.1744 0-9.3739-4.1996-9.3739-9.3742 0-5.1746 4.1995-9.3742 9.3739-9.3742 5.1744 0 9.3739 4.1996 9.3739 9.3742z" style="fill:none;opacity:.4;stroke-linecap:round;stroke-linejoin:round;stroke-width:1.0517;stroke:url(#radialGradient5555)"/>
  <path id="path6663" d="m21.01 9.5518c0 3.6432-4.4351 5.6481-9.8998 5.6481-5.4647 0-9.8998-2.0049-9.8998-5.6481 0-3.6432 4.4351-7.552 9.8998-7.552 5.4647 0 9.8998 3.9087 9.8998 7.552z" style="fill:url(#radialGradient5552);opacity:.4"/>
  <path id="path6665" d="m20.347 11.545c0.93672 3.3243-2.4889 7.118-7.6514 8.4736-5.1625 1.3556-10.107-0.24035-11.044-3.5646-0.93672-3.3243 2.4889-7.118 7.6514-8.4736s10.107 0.24035 11.044 3.5646v0z" style="fill:none;opacity:.5;stroke-linecap:round;stroke-width:.99694;stroke:url(#linearGradient5581)"/>
  <path id="path6667" d="m20.5 12.941c0.0052 3.5896-4.2437 6.5261-9.4903 6.559-5.2466 0.03281-9.5041-2.8505-9.5093-6.4401-0.00524-3.5896 4.2437-6.5261 9.4903-6.559s9.5041 2.8505 9.5093 6.4401v0z" style="fill:none;opacity:.5;stroke-linecap:round;stroke-width:1.0004;stroke:url(#linearGradient5579)"/>
  <path id="path6669" d="m9.6502 3.5066c3.2797-0.18723 6.3188 3.9113 6.7882 9.1544 0.46933 5.2431-1.8089 9.6452-5.0886 9.8324-3.2797 0.18723-6.3188-3.9113-6.7882-9.1544-0.46933-5.2431 1.8089-9.6452 5.0886-9.8324v0z" style="fill:none;opacity:.5;stroke-linecap:round;stroke-width:1.0009;stroke:url(#linearGradient5577)"/>
  <path id="path6671" d="m10.59 3.4946c2.3633 0.079938 6.6007 5.2149 7.3797 10.427 0.77899 5.212-2.1955 8.5272-4.5588 8.4473s-4.9106-4.3699-5.6896-9.5818c-0.77899-5.212 0.50533-9.3723 2.8686-9.2924v0z" style="fill:none;opacity:.9;stroke-linecap:round;stroke-width:.98696;stroke:url(#linearGradient5575)"/>
  <g id="g6673" transform="matrix(.49781 -.13842 .13541 .50886 -1.647 2.0422)" style="opacity:.6;stroke-width:2.108">
   <path id="path6675" transform="matrix(.85714 0 0 .85714 4.1071 5.0357)" d="m31.375 37.875c0 0.9665-0.7835 1.75-1.75 1.75s-1.75-0.7835-1.75-1.75 0.7835-1.75 1.75-1.75 1.75 0.7835 1.75 1.75z" style="fill:#fff;opacity:.8"/>
  </g>
  <g id="g6677" transform="matrix(.49172 -.11974 .15605 .51358 -14.084 4.1819)" style="opacity:.6;stroke-width:2.1112">
   <path id="path6679" transform="matrix(.85714 0 0 .85714 4.1071 5.0357)" d="m31.375 37.875c0 0.9665-0.7835 1.75-1.75 1.75s-1.75-0.7835-1.75-1.75 0.7835-1.75 1.75-1.75 1.75 0.7835 1.75 1.75z" style="fill:#fff;opacity:.5"/>
  </g>
  <g id="g6681" transform="matrix(.47705 -.16815 .19641 .49982 -6.4521 -6.9074)" style="opacity:.6;stroke-width:2.1103">
   <path id="path6683" transform="matrix(.85714 0 0 .85714 4.1071 5.0357)" d="m31.375 37.875c0 0.9665-0.7835 1.75-1.75 1.75s-1.75-0.7835-1.75-1.75 0.7835-1.75 1.75-1.75 1.75 0.7835 1.75 1.75z" style="fill:#fff;opacity:.8"/>
  </g>
  <g id="g6685" transform="matrix(.51592 -.14876 -.0086906 .50593 -10.12 -6.3754)" style="opacity:.6;stroke-width:2.1575">
   <path id="path6687" transform="matrix(.85714 0 0 .85714 4.1071 5.0357)" d="m31.375 37.875c0 0.9665-0.7835 1.75-1.75 1.75s-1.75-0.7835-1.75-1.75 0.7835-1.75 1.75-1.75 1.75 0.7835 1.75 1.75z" style="fill:#fff;opacity:.5"/>
  </g>
 </g>
</svg>
