<?xml version="1.0" encoding="UTF-8"?>
<!-- Created with Inkscape (http://www.inkscape.org/) -->
<svg id="svg3194" width="24" height="24" version="1.0" xmlns="http://www.w3.org/2000/svg" xmlns:cc="http://creativecommons.org/ns#" xmlns:dc="http://purl.org/dc/elements/1.1/" xmlns:rdf="http://www.w3.org/1999/02/22-rdf-syntax-ns#">
 <metadata id="metadata16">
  <rdf:RDF>
   <cc:Work rdf:about="">
    <dc:format>image/svg+xml</dc:format>
    <dc:type rdf:resource="http://purl.org/dc/dcmitype/StillImage"/>
    <dc:title/>
   </cc:Work>
  </rdf:RDF>
 </metadata>
 <path id="path3831" d="m17 10c-0.554 0-1 0.446-1 1v9c0 0.554 0.446 1 1 1s1-0.446 1-1v-9c0-0.554-0.446-1-1-1z" style="fill:#fff;opacity:.3"/>
 <path id="path3829" d="m2.5003 13c-0.06925 0-0.12764 6e-3 -0.1875 0.03125-0.057115 0.02622-0.11296 0.08181-0.15625 0.125l-0.03125 0.03125c-0.032203 0.03814-0.074055 0.07828-0.09375 0.125-0.096075 0.18288-0.063812 0.40533 0.09375 0.5625l2.875 2.875v3.75c0 0.277 0.223 0.5 0.5 0.5s0.5-0.223 0.5-0.5v-3.75l2.875-2.875c0.15756-0.15717 0.18982-0.37962 0.09375-0.5625-0.019695-0.04672-0.061547-0.08686-0.09375-0.125l-0.03125-0.03125c-0.091028-0.090803-0.2223-0.14989-0.34375-0.15625h-0.03125-2.9688-2.9688-0.03125z" style="fill:#fff;opacity:.3"/>
 <path id="path3823" d="m13 14c-0.554 0-1 0.446-1 1v5c0 0.554 0.446 1 1 1s1-0.446 1-1v-5c0-0.554-0.446-1-1-1z" style="fill:#fff;opacity:.3"/>
 <path id="rect3165-9" d="m9.0003 18c-0.554 0-1 0.446-1 1v1c0 0.554 0.446 1 1 1s1-0.446 1-1v-1c0-0.554-0.446-1-1-1z" style="fill:#fff;opacity:.3"/>
 <g id="g3835" transform="translate(1.0003 1)" style="opacity:.4">
  <path id="path3833" d="m20 4c-0.554 0-1 0.446-1 1v14c0 0.554 0.446 1 1 1s1-0.446 1-1v-14c0-0.554-0.446-1-1-1z" style="fill:#fff;opacity:.3"/>
  <rect id="rect3165" x="19" y="3" width="2" height="16" rx="1" ry="1" style="fill:#3c3c3c"/>
 </g>
 <rect id="rect3177" x="16" y="9" width="2" height="11" rx="1" ry="1" style="fill:#3c3c3c"/>
 <rect id="rect3179" x="12" y="13" width="2" height="7" rx="1" ry="1" style="fill:#3c3c3c"/>
 <rect id="rect3181" x="8.0003" y="17" width="2" height="3" rx="1" ry="1" style="fill:#3c3c3c"/>
 <path id="rect3184" d="m2.4999 12c-0.06925 0-0.12764 6e-3 -0.1875 0.03125-0.057115 0.02622-0.11296 0.08181-0.15625 0.125l-0.03125 0.03125c-0.032203 0.03814-0.074055 0.07828-0.09375 0.125-0.096075 0.18288-0.063812 0.40533 0.09375 0.5625l2.875 2.875v3.75c0 0.277 0.223 0.5 0.5 0.5s0.5-0.223 0.5-0.5v-3.75l2.875-2.875c0.15756-0.15717 0.18982-0.37962 0.09375-0.5625-0.019695-0.04672-0.061547-0.08686-0.09375-0.125l-0.03125-0.03125c-0.091028-0.090803-0.2223-0.14989-0.34375-0.15625h-0.03125-2.9688-2.9688-0.03125zm1.2188 1h1.2812v1.25l-1.2812-1.25zm2.2812 0h1.2812l-1.2812 1.2812v-1.2812z" style="fill:#3c3c3c"/>
</svg>
