<?xml version="1.0" encoding="UTF-8"?>
<!-- Created with Inkscape (http://www.inkscape.org/) -->
<svg id="svg3272" width="24" height="24" version="1.0" xmlns="http://www.w3.org/2000/svg" xmlns:xlink="http://www.w3.org/1999/xlink">
 <defs id="defs3274">
  <linearGradient id="linearGradient3404" x1="18.031" x2="20.055" y1="16.408" y2="24.628" gradientUnits="userSpaceOnUse">
   <stop id="stop2687" style="stop-color:#fff;stop-opacity:.27451" offset="0"/>
   <stop id="stop2689" style="stop-color:#fff;stop-opacity:.078431" offset="1"/>
  </linearGradient>
  <radialGradient id="radialGradient3402" cx="4.02" cy="5.5927" r="10.273" gradientTransform="matrix(-.016802 1.3943 -1.7966 -.021651 -5.3658 -19.339)" gradientUnits="userSpaceOnUse">
   <stop id="stop3754" style="stop-color:#fff" offset="0"/>
   <stop id="stop3760" style="stop-color:#fff" offset=".84754"/>
   <stop id="stop3756" style="stop-color:#fff;stop-opacity:0" offset="1"/>
  </radialGradient>
  <linearGradient id="linearGradient3400" x1="9.7046" x2="9.7046" y1="20.882" y2="4.303" gradientTransform="matrix(.99458 0 0 .99458 -19.857 -19.778)" gradientUnits="userSpaceOnUse">
   <stop id="stop3624" style="stop-color:#bb2b12" offset="0"/>
   <stop id="stop3626" style="stop-color:#cd7233" offset="1"/>
  </linearGradient>
  <radialGradient id="radialGradient3398" cx="7.8186" cy="8.5609" r="11.268" gradientTransform="matrix(1.69 0 0 1.0436 -24.967 -20.534)" gradientUnits="userSpaceOnUse">
   <stop id="stop3618" style="stop-color:#edb763" offset="0"/>
   <stop id="stop3270" style="stop-color:#de7f32" offset=".5"/>
   <stop id="stop3620" style="stop-color:#d24413" offset="1"/>
  </radialGradient>
  <linearGradient id="linearGradient3396" x1="9.8764" x2="9.8764" y1="2.6015" y2="23.062" gradientTransform="translate(-19.518 -21.496)" gradientUnits="userSpaceOnUse">
   <stop id="stop5159" style="stop-color:#c1c1c1" offset="0"/>
   <stop id="stop5161" style="stop-color:#909090" offset="1"/>
  </linearGradient>
  <linearGradient id="linearGradient3394" x1="-28.531" x2="-28.531" y1="17.956" y2="37.503" gradientTransform="translate(14.86 -35.997)" gradientUnits="userSpaceOnUse">
   <stop id="stop11113" style="stop-color:#fff" offset="0"/>
   <stop id="stop11115" style="stop-color:#cdcdcd" offset=".91014"/>
   <stop id="stop11117" style="stop-color:#a1a1a1" offset="1"/>
  </linearGradient>
  <radialGradient id="radialGradient3392" cx="605.71" cy="486.65" r="117.14" gradientTransform="matrix(-2.7744 0 0 1.9697 112.76 -872.89)" gradientUnits="userSpaceOnUse" xlink:href="#linearGradient5060"/>
  <linearGradient id="linearGradient5060">
   <stop id="stop5062" offset="0"/>
   <stop id="stop5064" style="stop-opacity:0" offset="1"/>
  </linearGradient>
  <radialGradient id="radialGradient3390" cx="605.71" cy="486.65" r="117.14" gradientTransform="matrix(2.7744 0 0 1.9697 -1891.6 -872.89)" gradientUnits="userSpaceOnUse" xlink:href="#linearGradient5060"/>
  <linearGradient id="linearGradient3388" x1="302.86" x2="302.86" y1="366.65" y2="609.51" gradientTransform="matrix(2.7744 0 0 1.9697 -1892.2 -872.89)" gradientUnits="userSpaceOnUse">
   <stop id="stop5050" style="stop-opacity:0" offset="0"/>
   <stop id="stop5056" offset=".5"/>
   <stop id="stop5052" style="stop-opacity:0" offset="1"/>
  </linearGradient>
  <radialGradient id="radialGradient4148-0" cx="32" cy="41.5" r="21" gradientTransform="matrix(.35714 0 0 .14286 -3.9286 13.072)" gradientUnits="userSpaceOnUse">
   <stop id="stop5062-9-1" offset="0"/>
   <stop id="stop5064-1-5" style="stop-opacity:0" offset="1"/>
  </radialGradient>
  <radialGradient id="radialGradient4170-9" cx="25" cy="28.66" r="16" gradientTransform="matrix(.55041 0 0 .1567 -7.857 10.342)" gradientUnits="userSpaceOnUse" xlink:href="#linearGradient6954"/>
  <linearGradient id="linearGradient6954">
   <stop id="stop6960" style="stop-color:#f5f5f5" offset="0"/>
   <stop id="stop6962" style="stop-color:#d2d2d2" offset="1"/>
  </linearGradient>
  <linearGradient id="linearGradient4172-4" x1="30" x2="30" y1="25.085" y2="45" gradientTransform="matrix(.41936 0 0 .4198 -4.5807 1.8192)" gradientUnits="userSpaceOnUse" xlink:href="#linearGradient3785"/>
  <linearGradient id="linearGradient3785">
   <stop id="stop3787" style="stop-color:#b8b8b8" offset="0"/>
   <stop id="stop3789" style="stop-color:#878787" offset="1"/>
  </linearGradient>
  <linearGradient id="linearGradient4118-9" x1="29.968" x2="30" y1="21.687" y2="43.309" gradientTransform="matrix(.41936 0 0 .4198 -4.5807 1.8192)" gradientUnits="userSpaceOnUse" xlink:href="#linearGradient3341-0"/>
  <linearGradient id="linearGradient3341-0">
   <stop id="stop3343-9" style="stop-color:#fff" offset="0"/>
   <stop id="stop3345-1" style="stop-color:#fff;stop-opacity:0" offset="1"/>
  </linearGradient>
  <radialGradient id="radialGradient4176-7" cx="26.376" cy="12.313" r="8" gradientTransform="matrix(.54674 -.048015 .042706 .57397 -8.1327 .58825)" gradientUnits="userSpaceOnUse" xlink:href="#linearGradient6954"/>
  <linearGradient id="linearGradient4174-7" x1="30" x2="30" y1="5" y2="44.679" gradientTransform="matrix(.33335 0 0 .36215 -2.0004 2.4814)" gradientUnits="userSpaceOnUse" xlink:href="#linearGradient3785"/>
  <linearGradient id="linearGradient4168-1" x1="22" x2="17" y1="39" y2="37.438" gradientTransform="matrix(.61957 0 0 .35917 -8.1666 4.2839)" gradientUnits="userSpaceOnUse" xlink:href="#linearGradient5060"/>
  <linearGradient id="linearGradient2924-7" x1="29.998" x2="30" y1="6.7808" y2="26.283" gradientTransform="matrix(.33335 0 0 .36215 -2.0004 2.4814)" gradientUnits="userSpaceOnUse" xlink:href="#linearGradient3341-0"/>
  <linearGradient id="linearGradient3017" x1="22" x2="17" y1="39" y2="37.438" gradientTransform="matrix(-.61957 0 0 .35917 24.089 4.2843)" gradientUnits="userSpaceOnUse" xlink:href="#linearGradient5060"/>
 </defs>
 <g id="g2701">
  <g id="g2902">
   <g id="g2589" transform="translate(.036304 -1.2166e-7)">
    <g id="g3377" transform="translate(19.518 21.496)">
     <g id="g3490" transform="matrix(.54593 0 0 .51685 -20.52 -22.074)" style="stroke-width:1.8826">
      <g id="g5022" transform="matrix(.021652 0 0 .014857 43.008 42.685)" style="stroke-width:104.96">
       <rect id="rect2527" x="-1559.3" y="-150.7" width="1339.6" height="478.36" style="fill:url(#linearGradient3388);opacity:.40206"/>
       <path id="path2529" d="m-219.62-150.68v478.33c142.87 0.90045 345.4-107.17 345.4-239.2 0-132.03-159.44-239.13-345.4-239.13z" style="fill:url(#radialGradient3390);opacity:.40206"/>
       <path id="path2531" d="m-1559.3-150.68v478.33c-142.87 0.90045-345.4-107.17-345.4-239.2 0-132.03 159.44-239.13 345.4-239.13z" style="fill:url(#radialGradient3392);opacity:.40206"/>
      </g>
     </g>
     <path id="path3496" d="m-18.841-18.927c-0.08554 0-0.15887 0.09275-0.15887 0.18854 0 5.8692-0.04308 12.244-0.04914 18.225 0.02908 0.89504 0.53724 1.5051 0.88966 1.5083 1.0127 0.009195 0.53927-0.004029 1.0485 0 6.4703-0.016099 13.579-0.078173 20.049-0.094271 0.054214 0.006918-1.4767-0.10772-1.4616-1.4455 1e-6 -4.6729-0.50205-11.187-0.50205-15.86 0-0.18688-0.01544-0.29089-0.031774-0.37708-0.012614-0.06656-0.028696-0.09887-0.063547-0.1257-0.027862-0.02445-0.054549-0.05704-0.095321-0.06285h-8.8201c-0.81532 0-1.0021-1.992-2.2137-1.992l-8.5913 0.03569-3e-6 3e-6z" style="fill:url(#linearGradient3394);stroke-linecap:round;stroke-linejoin:round;stroke-width:1.0111;stroke:url(#linearGradient3396)"/>
     <path id="path3498" d="m-16.019-14.949c10.57 0 13.03 4.6e-4 19.994-0.02754 0 1.5704 0.25816 16.04-0.48411 16.04-0.71405 0-14.046-0.094351-21.009-0.066352 1.4717 0 1.4993-0.62275 1.4993-15.946v1e-6z" style="fill:url(#radialGradient3398);stroke-linecap:round;stroke-linejoin:round;stroke:url(#linearGradient3400)"/>
     <path id="path3211" d="m3.4207-13.887s-16.832 0.09361-18.397-0.09237c-0.08294 13.829-0.50095 14.439-0.50095 14.439" style="fill:none;opacity:.4;stroke-width:.9812;stroke:url(#radialGradient3402)"/>
     <path id="path2608" transform="matrix(.44503 0 0 .40237 -16.699 -17.646)" d="m3.2188 5.3438c-1.5389 0-2.8125 1.2736-2.8125 2.8125v16c0.005894 0.28623 0.14842 0.61258 0.375 0.8125 0.22658 0.19992 0.51619 0.28427 0.84375 0.25 0.010415 2.66e-4 0.020835 2.66e-4 0.03125 0l45-7.125c0.52177-0.08229 0.93021-0.53433 0.9375-1.0625v-8.875c0-1.5389-1.2736-2.8125-2.8125-2.8125h-41.562z" style="fill-rule:evenodd;fill:url(#linearGradient3404)"/>
    </g>
   </g>
   <rect id="rect2545" x="2" y="4" width="7" height="1" rx=".53846" ry=".5" style="display:block;fill:#eda374"/>
  </g>
 </g>
 <g id="g4140" transform="translate(8 2.9996)">
  <path id="path3823-1" d="m15 19.001a7.5 3 0 0 1-15 0 7.5 3 0 1 1 15 0z" style="fill:url(#radialGradient4148-0);opacity:.8"/>
  <path id="path3766-9" d="m6.513 10.425-0.056 2.5188c-1.2206 1.0138-4.5424 1.4693-4.5377 2.5188l-0.41936 3.1485c0 1.0433 2.9102 1.8891 6.5 1.8891 3.5899 0 6.5-0.84577 6.5-1.8891l-0.41936-3.1485c-0.0049-0.89822-3.345-1.4693-4.5507-2.5188l-0.043-2.5188h-2.974z" style="fill:url(#radialGradient4170-9);stroke-width:.99992;stroke:url(#linearGradient4172-4)"/>
  <path id="path4094" d="m7.5 11.438c-0.08094 0.69165 0.13187 1.4507-0.22351 2.0875-0.52882 0.66704-1.389 0.90478-2.139 1.2298-0.77365 0.27763-1.5745 0.5103-2.2798 0.94414 0.06985 0.1373-0.065526 0.62172-0.078159 0.908-0.082782 0.66226-0.16556 1.3245-0.24835 1.9868 0.64003 0.19142 1.2405 0.51082 1.9149 0.57882 2.3665 0.46975 4.8219 0.41537 7.1912-0.0036 0.60184-0.11487 1.1796-0.33181 1.732-0.58773 0.18406-0.31394-0.04004-0.70452-0.03164-1.0593-0.070914-0.58026-0.14183-1.1605-0.21274-1.7407-1.3884-0.8647-3.1599-1.0333-4.3605-2.2108-0.42353-0.60971-0.16244-1.3771-0.27294-2.0576-0.26215-0.1719-0.63612-0.036194-0.95093-0.075317h-0.029974-0.010617z" style="fill:none;stroke-width:.99992;stroke:url(#linearGradient4118-9)"/>
  <path id="path3764-3" d="m8 4.4732c-1.3808 0-2.5001 1.135-2.5001 2.5351 0.010821 0.51814 0.051513 1.1337 0.33334 2.5351 0.16667 0.54323 1.6533 1.9918 1.6667 2.1729 0.32324 0.18108 0.83336 0.18108 1.1667 0 0-0.18108 1.3334-1.6297 1.5001-2.1729 0.31714-1.4565 0.31633-1.9918 0.33334-2.5351 0-1.4001-1.1193-2.5351-2.5001-2.5351z" style="fill:url(#radialGradient4176-7);stroke-width:.99981;stroke:url(#linearGradient4174-7)"/>
  <path id="path3848-9" d="m4.8443 19.8c-1.4636-0.71194-0.7657-2.2925-0.61957-3.3043-0.61957 0.71834-0.30761 2.7261-1.5467 2.7261 0.82609 0.29377 1.3916 0.49414 2.1663 0.57826z" style="fill:url(#linearGradient4168-1);opacity:.5"/>
  <path id="path4066" d="m8 5.4375c-0.79885-0.022528-1.5285 0.69012-1.5254 1.4898-0.012304 0.64991 0.12349 1.2912 0.23067 1.9294 0.027734 0.25036 0.099215 0.48186 0.2817 0.66408 0.33444 0.44968 0.70651 0.87028 1.0755 1.2917 0.37865-0.49722 0.76606-0.98814 1.125-1.5 0.15256-0.84642 0.39186-1.6962 0.32668-2.5637-0.098974-0.72659-0.77345-1.3319-1.5142-1.3113z" style="fill:none;stroke-width:.99981;stroke:url(#linearGradient2924-7)"/>
  <path id="path3015" d="m11.078 19.8c1.4636-0.71194 0.7657-2.2925 0.61957-3.3043 0.61956 0.71834 0.30761 2.7261 1.5467 2.7261-0.82609 0.29377-1.3916 0.49414-2.1663 0.57826z" style="fill:url(#linearGradient3017);opacity:.5"/>
 </g>
</svg>
