<?xml version="1.0" encoding="UTF-8"?>
<!-- Created with Inkscape (http://www.inkscape.org/) -->
<svg id="svg2405" width="24" height="24" version="1.0" xmlns="http://www.w3.org/2000/svg" xmlns:xlink="http://www.w3.org/1999/xlink">
 <defs id="defs2407">
  <linearGradient id="linearGradient2410" x1="8.1772" x2="8.1772" y1="2.6433" y2="15.677" gradientTransform="matrix(1.5816 0 0 1.5546 -.93284 -1.1092)" gradientUnits="userSpaceOnUse">
   <stop id="stop3618" style="stop-color:#f0c178" offset="0"/>
   <stop id="stop3270" style="stop-color:#e18941" offset=".5"/>
   <stop id="stop3620" style="stop-color:#ec4f18" offset="1"/>
  </linearGradient>
  <linearGradient id="linearGradient2407" x1="26.062" x2="26.03" y1="12.466" y2="48.616" gradientTransform="matrix(.50414 0 0 .48824 -.12285 1.2641)" gradientUnits="userSpaceOnUse">
   <stop id="stop2784" style="stop-color:#fff" offset="0"/>
   <stop id="stop2786" style="stop-color:#fff;stop-opacity:0" offset="1"/>
  </linearGradient>
  <linearGradient id="linearGradient3648" x1="8" x2="8" y1="23" y2="1" gradientTransform="translate(0,1)" gradientUnits="userSpaceOnUse">
   <stop id="stop3624" style="stop-color:#bb2b12" offset="0"/>
   <stop id="stop3626" style="stop-color:#cd7233" offset="1"/>
  </linearGradient>
 </defs>
 <g id="layer1">
  <path id="rect5117" d="m12 1.5-11.509 12.009h3.1117v8.9912h16.794v-8.9912h3.1117l-4.0088-4.3868v-6.622h-4v2.361l-3.5-3.361z" style="fill:url(#linearGradient2410);stroke-linejoin:round;stroke:url(#linearGradient3648)"/>
  <path id="path2778" d="m12.037 2.965-9.2524 9.5438h0.54082c0.56177-0.02153 1.277-0.17081 1.277 1.2358v7.7553h14.897v-7.8011c-0.05703-0.77025 0.48894-1.109 1.4983-1.1901h0.37871c-1.089-1.1642-1.8967-2.1334-2.877-3.3698v-5.6302h-2v1.5772c-0.55476 0.97732-1.1964 0.85382-1.8794 0.479l-2.5832-2.6z" style="fill:none;opacity:.41237;stroke:url(#linearGradient2407)"/>
 </g>
</svg>
