<?xml version="1.0" encoding="UTF-8"?>
<!-- Created with Inkscape (http://www.inkscape.org/) -->
<svg id="svg2" width="24" height="24" version="1.0" xmlns="http://www.w3.org/2000/svg" xmlns:xlink="http://www.w3.org/1999/xlink">
 <defs id="defs4">
  <radialGradient id="radialGradient2983" cx="17.059" cy="41.059" r="5.7385" fx="15.544" fy="39.027" gradientTransform="matrix(.37668 -.063113 0 .36451 -2.4462 -.69065)" gradientUnits="userSpaceOnUse" xlink:href="#linearGradient7067-814-120-245"/>
  <linearGradient id="linearGradient7067-814-120-245">
   <stop id="stop3877" style="stop-color:#aaa" offset="0"/>
   <stop id="stop3879" style="stop-color:#4d4d4d" offset="1"/>
  </linearGradient>
  <radialGradient id="radialGradient2980" cx="17.059" cy="41.059" r="5.7385" fx="15.97" fy="39.106" gradientTransform="matrix(.36986 -.062123 0 .3588 4.6705 -1.5148)" gradientUnits="userSpaceOnUse" xlink:href="#linearGradient7067-814-120-245"/>
  <linearGradient id="linearGradient2977" x1="28.739" x2="25.4" y1="144.12" y2="119.86" gradientTransform="matrix(.1265 0 0 .12876 2.114 -14.057)" gradientUnits="userSpaceOnUse" xlink:href="#linearGradient2372"/>
  <linearGradient id="linearGradient2372">
   <stop id="stop2374" style="stop-color:#fff" offset="0"/>
   <stop id="stop2376" style="stop-color:#fff;stop-opacity:.37931" offset="1"/>
  </linearGradient>
  <linearGradient id="linearGradient2974" x1="28.739" x2="26.257" y1="144.12" y2="125.39" gradientTransform="matrix(.25452 0 0 .12876 6.085 -15.174)" gradientUnits="userSpaceOnUse" xlink:href="#linearGradient2372"/>
  <linearGradient id="linearGradient2589" x1="10.502" x2="48.799" y1="3.61" y2="54.698" gradientTransform="matrix(.47986 0 0 .47986 .31696 .0036163)" gradientUnits="userSpaceOnUse">
   <stop id="stop6038" style="stop-color:#fff" offset="0"/>
   <stop id="stop6040" style="stop-color:#fff;stop-opacity:0" offset="1"/>
  </linearGradient>
  <linearGradient id="linearGradient2593" x1="25.986" x2="15.889" y1="24.92" y2="11.67" gradientTransform="matrix(.49455 0 0 .49455 .22592 .085276)" gradientUnits="userSpaceOnUse">
   <stop id="stop4411" style="stop-color:#fff" offset="0"/>
   <stop id="stop4413" style="stop-color:#fff;stop-opacity:0" offset="1"/>
  </linearGradient>
  <linearGradient id="linearGradient2596" x1="12.274" x2="35.391" y1="32.416" y2="14.203" gradientTransform="matrix(.6 0 0 .6 -2.3997 -1.8603)" gradientUnits="userSpaceOnUse">
   <stop id="stop3043" style="stop-color:#fbfbfb" offset="0"/>
   <stop id="stop3045" style="stop-color:#b6b6b6" offset=".5"/>
   <stop id="stop3047" style="stop-color:#e4e4e4" offset="1"/>
  </linearGradient>
  <radialGradient id="radialGradient2941" cx="62.625" cy="4.625" r="10.625" gradientTransform="matrix(1 0 0 .34118 0 3.0471)" gradientUnits="userSpaceOnUse">
   <stop id="stop8840" offset="0"/>
   <stop id="stop8842" style="stop-opacity:0" offset="1"/>
  </radialGradient>
 </defs>
 <g id="layer1">
  <path id="path8836" transform="matrix(1.059 0 0 1.2629 -54.322 13.581)" d="m73.25 4.625c0 2.002-4.757 3.625-10.625 3.625s-10.625-1.623-10.625-3.625 4.757-3.625 10.625-3.625 10.625 1.623 10.625 3.625z" style="fill-rule:evenodd;fill:url(#radialGradient2941);opacity:.4"/>
  <path id="path3049" d="m12 1.4997c-5.82 0-10.5 4.68-10.5 10.5 0 5.82 4.68 10.5 10.5 10.5 5.82 0 10.5-4.68 10.5-10.5 0-5.82-4.68-10.5-10.5-10.5zm0 13.02c-1.38 0-2.52-1.14-2.52-2.52 0-1.38 1.14-2.52 2.52-2.52s2.52 1.14 2.52 2.52c0 1.38-1.14 2.52-2.52 2.52z" style="fill:url(#linearGradient2596);stroke:gray"/>
  <path id="path3531" d="m11.556 1.9707c-5.3222 0.20074-9.5447 4.5585-9.5447 9.9318 0 2.4359 0.86404 4.65 2.308 6.373l5.2883-4.486c-0.35674-0.41708-0.56086-1.1783-0.56086-1.7633 0-1.6767 1.3494-3.0471 2.9631-3.0471 0.73388 0 1.805 0.41696 2.2439 0.94755l5.328-4.3823c-1.8176-2.188-4.5718-3.5737-7.6536-3.5737-0.12896 0-0.24452-0.00482-0.37226 0z" style="fill:url(#linearGradient2593)"/>
  <path id="path3051" d="m12 6.2779c-3.1953 0-5.7219 2.6008-5.7219 5.7219 0 3.1953 2.6009 5.7219 5.7219 5.7219 3.1953 0 5.7219-2.6008 5.7219-5.7219 0-3.1953-2.6009-5.7219-5.7219-5.7219zm0 8.8429c-1.7091 0-3.121-1.4119-3.121-3.121 0-1.7091 1.4119-3.121 3.121-3.121 1.7091 0 3.121 1.4119 3.121 3.121 0 1.7091-1.4119 3.121-3.121 3.121z" style="fill:#eeeeec;opacity:.51099"/>
  <path id="path5264" d="m12 2.5c-5.2657 0-9.5 4.2343-9.5 9.5 0 5.2657 4.2343 9.5 9.5 9.5 5.2657 0 9.5-4.2343 9.5-9.5 0-5.2657-4.2343-9.5-9.5-9.5z" style="fill:none;opacity:.54645;stroke:url(#linearGradient2589)"/>
  <g id="layer1-9" transform="translate(10 8)">
   <path id="path2931" d="m12.887 11.243-0.36668-2.955" style="fill:none"/>
   <path id="path4031" d="m12.862 0.50108c-2.3571 0.37984-5.5116 0.77085-7.8622 1.1719-0.62244 0.30369-0.48251 1.0857-0.51004 1.6531v7.5958c-1.3117-0.24661-2.9114 0.83727-2.9807 2.5534-0.11325 1.0684 0.83421 1.9985 1.8645 2.0235 1.8447 0.04478 3.1063-1.1791 3.1263-2.7269-0.020145-2.5994 0.00566-5.1998 0-7.7996 0.28558-0.02115 4.611-0.8465 5-0.90146v5.8414c-1.1464-0.27464-2.6119 0.47872-2.9753 2.0173-0.15337 0.86238 0.1365 1.9448 1.0115 2.31 1.7082 0.78494 4.0533-0.80504 3.9579-2.6711-0.02646-3.4662 0.02169-6.9338 0-10.4-0.04486-0.32576-0.26561-0.69059-0.63203-0.66708v0z" style="fill:#4d4d4d;stroke-linecap:round;stroke-linejoin:round;stroke:#333"/>
   <path id="path2937" d="m5.9736 12.865c-1.897e-4 0.99807-0.89295 1.9566-1.9942 2.1411-1.1012 0.18451-1.994-0.47488-1.9942-1.4729 1.897e-4 -0.99807 0.89295-1.9566 1.9942-2.1411 1.1012-0.18451 1.994 0.47488 1.9942 1.4729z" style="fill:url(#radialGradient2983)"/>
   <path id="path2941" d="m12.938 11.828c-4.9e-5 0.98249-0.87669 1.9262-1.9581 2.1078-1.0814 0.18163-1.958-0.46755-1.9581-1.45-4.89e-5 -0.98253 0.87663-1.9263 1.9581-2.108s1.9581 0.46764 1.9581 1.4502z" style="fill:url(#radialGradient2980)"/>
   <path id="path2945" d="m5.0537 11.476-0.053687-8.6824s0.05877-0.66376 0.49472-0.66579c0.15461-0.027048 6.9317-1.1565 6.9317-1.1565s0.13298 0.70947-6.0695 1.6297c-0.51693 0.077068-0.76544 0.068481-0.76272 0.55837 0.00735 1.3216-0.030358 3.796-0.030358 8.6083 0 0.03443-0.32544-0.24394-0.51018-0.2915h5e-7z" style="fill-rule:evenodd;fill:url(#linearGradient2977);opacity:.4"/>
   <path id="path2947" d="m12 10.271 0.03393-6.559c0.35749-0.0323 0.05489-0.00519 0.53695-0.053577 0.0066 1.2252 2.74e-4 2.2421 2.74e-4 6.8692 0 0.03443-0.19942-0.20903-0.57115-0.2566h-3e-6z" style="fill-rule:evenodd;fill:url(#linearGradient2974);opacity:.4"/>
  </g>
 </g>
</svg>
