<?xml version="1.0" encoding="UTF-8"?>
<!-- Created with Inkscape (http://www.inkscape.org/) -->
<svg id="svg2973" width="32" height="32" version="1.1" xmlns="http://www.w3.org/2000/svg" xmlns:xlink="http://www.w3.org/1999/xlink">
 <defs id="defs2975">
  <linearGradient id="linearGradient5778" x1="9" x2="9" y1="29.057" y2="26.03" gradientTransform="matrix(.42123 -.4241 .56755 .56579 -2.6035 11.121)" gradientUnits="userSpaceOnUse">
   <stop id="stop2607-6" style="stop-color:#ece5a5" offset="0"/>
   <stop id="stop2609-6" style="stop-color:#fcfbf2" offset="1"/>
  </linearGradient>
  <linearGradient id="linearGradient5780" x1="5.5179" x2="9.5221" y1="37.372" y2="41.392" gradientTransform="matrix(.36997 .015999 .015949 .37021 12.719 8.7219)" gradientUnits="userSpaceOnUse">
   <stop id="stop2613-0" style="stop-color:#dbce48" offset="0"/>
   <stop id="stop2615-4" style="stop-color:#c5b625" offset="1"/>
  </linearGradient>
  <linearGradient id="linearGradient5803" x1="23.576" x2="23.576" y1="25.357" y2="31.211" gradientTransform="matrix(.46019 -.46002 .51483 .50958 -1.7568 12.773)" gradientUnits="userSpaceOnUse">
   <stop id="stop2541-0" style="stop-color:#181818" offset="0"/>
   <stop id="stop2543-6" style="stop-color:#dbdbdb" offset=".13483"/>
   <stop id="stop2545-4" style="stop-color:#a4a4a4" offset=".20224"/>
   <stop id="stop2547-6" style="stop-color:#fff" offset=".26966"/>
   <stop id="stop2549-2" style="stop-color:#8d8d8d" offset=".4465"/>
   <stop id="stop2551-5" style="stop-color:#959595" offset=".57114"/>
   <stop id="stop2553-8" style="stop-color:#cecece" offset=".72038"/>
   <stop id="stop2555-6" style="stop-color:#181818" offset="1"/>
  </linearGradient>
  <linearGradient id="linearGradient5807" x1="21.862" x2="21.862" y1="38.581" y2="19.562" gradientTransform="matrix(.6863 0 0 1.4408 1.1504 -25.863)" gradientUnits="userSpaceOnUse">
   <stop id="stop4340-6" style="stop-color:#8e8e8e" offset="0"/>
   <stop id="stop4342-7" style="stop-color:#b5b5b5" offset="1"/>
  </linearGradient>
  <linearGradient id="linearGradient5811" x1="-60.97" x2="-60.908" y1="13.668" y2="114.54" gradientTransform="matrix(.29596 .00017893 -.0001802 .29389 30.989 -4.4074)" gradientUnits="userSpaceOnUse">
   <stop id="stop3602-9" style="stop-color:#f4f4f4" offset="0"/>
   <stop id="stop3604-4" style="stop-color:#dbdbdb" offset="1"/>
  </linearGradient>
  <linearGradient id="linearGradient5813" x1="11.536" x2="11.536" y1="44.952" y2="-1.0041" gradientTransform="matrix(.65716 0 0 .65851 .22848 .22759)" gradientUnits="userSpaceOnUse">
   <stop id="stop3106-6" style="stop-color:#a0a0a0" offset="0"/>
   <stop id="stop3108-4" style="stop-color:#c8c8c8" offset="1"/>
  </linearGradient>
  <radialGradient id="radialGradient5826" cx="605.71" cy="486.65" r="117.14" gradientTransform="matrix(.015663 0 0 .012353 17.61 23.471)" gradientUnits="userSpaceOnUse" xlink:href="#linearGradient5060-8"/>
  <linearGradient id="linearGradient5060-8">
   <stop id="stop5062-8" offset="0"/>
   <stop id="stop5064-8" style="stop-opacity:0" offset="1"/>
  </linearGradient>
  <radialGradient id="radialGradient5829" cx="605.71" cy="486.65" r="117.14" gradientTransform="matrix(-.015663 0 0 .012353 14.39 23.471)" gradientUnits="userSpaceOnUse" xlink:href="#linearGradient5060-8"/>
  <linearGradient id="linearGradient2971" x1="302.86" x2="302.86" y1="366.65" y2="609.51" gradientTransform="matrix(.045769 0 0 .012353 -.54231 23.471)" gradientUnits="userSpaceOnUse">
   <stop id="stop5050-8" style="stop-opacity:0" offset="0"/>
   <stop id="stop5056-8" offset=".5"/>
   <stop id="stop5052-9" style="stop-opacity:0" offset="1"/>
  </linearGradient>
 </defs>
 <g id="layer1">
  <rect id="rect3706" x="4.95" y="28" width="22.1" height="3" style="fill:url(#linearGradient2971);opacity:.40206"/>
  <path id="path3708" d="m4.95 28v2.9998c-0.80661 0.0056-1.95-0.67211-1.95-1.5001 0-0.828 0.90012-1.4997 1.95-1.4997z" style="fill:url(#radialGradient5829);opacity:.40206"/>
  <path id="path3710" d="m27.05 28v2.9998c0.80661 0.0056 1.95-0.67211 1.95-1.5001 0-0.828-0.90012-1.4997-1.95-1.4997z" style="fill:url(#radialGradient5826);opacity:.40206"/>
  <path id="path2855" d="m5 2.501c5.6004 0.00341 16.4-0.00341 22 0 0.049309 1.0574 0.45068 25.154 0.5 26.999-7.6667-0.004601-15.333-0.009301-23-0.013912 0.060333-2.0724 0.43967-26.055 0.5-26.985z" style="fill:url(#linearGradient5811);stroke-linecap:round;stroke-linejoin:round;stroke:url(#linearGradient5813)"/>
  <path id="path5685" d="m8.75 3.25-0.5 25.5" style="fill-rule:evenodd;fill:#80b3ff;opacity:.5907;stroke-linecap:round;stroke-linejoin:round;stroke-width:.5;stroke:#f6abab"/>
  <path id="path3406" d="m11.861 25h1.2143v1h-1.2143v-1zm1.456 0h1.6828v1h-1.6828v-1zm-4.3172 0h2.6196v1h-2.6196v-1zm7.4085-4h1.4634v1h-1.4634v-1zm5.338 0h3.2535v1h-3.2535v-1zm-7.1173 0h1.5712v1h-1.5712v-1zm-3.4616 0h3.2535v1h-3.2535v-1zm-2.1676 0h1.9594v1h-1.9594v-1zm13.645 2h0.35511v1h-0.35511v-1zm-1.7028 0h1.5202v1h-1.5202v-1zm-2.5766 0h2.2596v1h-2.2596v-1zm-1.9269 0h1.7218v1h-1.7218v-1zm-1.4115 0h1.0721v1h-1.0721v-1zm-1.2547 0h1.0721v1h-1.0721v-1zm-0.69457 0h0.55675v1h-0.55675v-1zm-1.4339 0h1.1841v1h-1.1841v-1zm-2.6438 0h2.4612v1h-2.4612v-1zm1.285-10h3.715v1h-3.715v-1zm-1.285 0h1.0208v1h-1.0208v-1zm7.6813-2h1.5172v1h-1.5172v-1zm3.2425 0h2.0763v1h-2.0763v-1zm-1.5094 0h1.2936v1h-1.2936v-1zm-3.5779 0h1.629v1h-1.629v-1zm-3.5891 0h3.3733v1h-3.3733v-1zm-2.2474 0h2.0315v1h-2.0315v-1zm8.8712-2h2.1288v1h-2.1288v-1zm-1.8339 0h1.6222v1h-1.6222v-1zm-1.2217 0h1.0101v1h-1.0101v-1zm-1.2217 0h1.0101v1h-1.0101v-1zm-0.73618 0h0.52454v1h-0.52454v-1zm-1.3272 0h1.1156v1h-1.1156v-1zm-2.5305 0h2.3188v1h-2.3188v-1zm13.245-2h0.75483v1h-0.75483v-1zm-2.675 0h2.466v1h-2.466v-1zm-3.4548 0h3.2458v1h-3.2458v-1zm-1.4621 0h1.253v1h-1.253v-1zm-0.76894 0h0.5599v1h-0.5599v-1zm-1.4837 0h1.2747v1h-1.2747v-1zm-1.657 0h1.448v1h-1.448v-1zm-1.7436 0h1.5346v1h-1.5346v-1zm7.8806 10h2.9047v1h-2.9047v-1zm-1.459 0h1.2331v1h-1.2331v-1zm-3.3138 0h3.0879v1h-3.0879v-1zm-3.1077 0h2.8818v1h-2.8818v-1zm7.0387 2h1.6293v1h-1.6293v-1zm-1.3357 0h1.0144v1h-1.0144v-1zm-1.1872 0h1.0144v1h-1.0144v-1zm-0.65722 0h0.52682v1h-0.52682v-1zm-1.3568 0h1.1204v1h-1.1204v-1zm-2.5017 0h2.3289v1h-2.3289v-1zm10.541-4h2.4592v1h-2.4592v-1zm-3.4452 0h3.2368v1h-3.2368v-1zm-1.458 0h1.2495v1h-1.2495v-1zm-0.76681 0h0.55834v1h-0.55834v-1zm-1.4796 0h1.2711v1h-1.2711v-1zm-1.6524 0h1.444v1h-1.444v-1zm-1.7388 0h1.5303v1h-1.5303v-1z" style="fill:url(#linearGradient5807);opacity:.7"/>
  <path id="path2422" d="m25.606 16.046c-0.11828-0.06818-0.2098-0.05045-0.27026-0.01251l-8.053 5.021-1.4821 0.92671-0.04562 0.01875-1.7548 3.8717 4.3488 0.12826 0.03611-0.02365 1.4917-0.9218 8.0509-5.0643c0.24185-0.15174-0.14064-1.1574-0.85803-2.2598-0.53804-0.82681-1.1089-1.4798-1.4637-1.6844z" style="fill-rule:evenodd;fill:#0c0c0c;opacity:.15"/>
  <path id="rect2383" d="m16.43 20.558c0.31255-0.2333 1.1895 0.20434 1.9954 1.002 0.80396 0.79576 1.2276 1.6473 0.99835 1.9612-8.69e-4 0.0012 0.01972 0.01746 0.01883 0.01863l11.221-11.217c0.2849-0.2848-0.15776-1.1848-0.98923-2.0078-0.83147-0.82299-1.7384-1.2589-2.0233-0.97406l-11.221 11.217z" style="fill:url(#linearGradient5803);stroke-linejoin:round;stroke-width:.5;stroke:#0c0c0c"/>
  <path id="rect3175" d="m26.282 10.71c0.31255-0.2333 1.1895 0.20434 1.9954 1.002 0.80396 0.79576 1.2276 1.6473 0.99835 1.9612-8.41e-4 0.0012 0.01973 0.01746 0.01883 0.01863l1.3695-1.369 0.02796-0.02794c9.12e-4 -0.0012-0.0197-0.01744-0.01883-0.01863 0.22922-0.31395-0.1944-1.1655-0.99836-1.9612-0.80589-0.79766-1.6828-1.2353-1.9954-1.002l-0.02796 0.027939-1.3695 1.369z" style="fill:#ffb6ed;opacity:.8;stroke-linejoin:round;stroke-width:.5;stroke:#e28ccd"/>
  <path id="path3208" d="m16.276 20.578c0.29441-0.22134 1.1205 0.19386 1.8796 0.95062 0.7573 0.75496 1.1563 1.5628 0.94041 1.8607-8.18e-4 0.0011 0.01857 0.01656 0.01773 0.01767l7.2794-7.3289 0.02634-0.02651c8.58e-4 -0.0011-0.01855-0.01654-0.01772-0.01767 0.21592-0.29785-0.18312-1.1057-0.94042-1.8607-0.75912-0.75677-1.5852-1.172-1.8796-0.95062l-0.02634 0.0265-7.2794 7.3289z" style="fill:#0c0c0c;opacity:.6"/>
  <path id="path3270" d="m14.25 25.395 4.8089-1.9651 0.04097-0.04104c0.21592-0.29785-0.18832-1.1058-0.94562-1.8607-0.75912-0.75677-1.5842-1.1697-1.8786-0.94833l-2.0257 4.8152z" style="fill-rule:evenodd;fill:url(#linearGradient5778);stroke-width:.5;stroke:url(#linearGradient5780)"/>
  <path id="path3281" d="m14.799 24.091-0.54899 1.299 1.3116-0.53873c-0.10513-0.12616-0.20217-0.2543-0.32839-0.38012-0.14531-0.14486-0.28824-0.2624-0.43425-0.38016z" style="fill-rule:evenodd;fill:#0c0c0c;stroke-width:.5;stroke:#0c0c0c"/>
 </g>
</svg>
