<?xml version="1.0" encoding="UTF-8"?>
<!-- Created with Inkscape (http://www.inkscape.org/) -->
<svg id="svg11300" width="32" height="32" version="1.0" xmlns="http://www.w3.org/2000/svg" xmlns:xlink="http://www.w3.org/1999/xlink">
 <defs id="defs3">
  <linearGradient id="linearGradient3785">
   <stop id="stop3787" style="stop-color:#b8b8b8" offset="0"/>
   <stop id="stop3789" style="stop-color:#878787" offset="1"/>
  </linearGradient>
  <linearGradient id="linearGradient6954">
   <stop id="stop6960" style="stop-color:#f5f5f5" offset="0"/>
   <stop id="stop6962" style="stop-color:#d2d2d2" offset="1"/>
  </linearGradient>
  <linearGradient id="linearGradient3341">
   <stop id="stop3343" style="stop-color:#fff" offset="0"/>
   <stop id="stop3345" style="stop-color:#fff;stop-opacity:0" offset="1"/>
  </linearGradient>
  <linearGradient id="linearGradient5060">
   <stop id="stop5062" offset="0"/>
   <stop id="stop5064" style="stop-opacity:0" offset="1"/>
  </linearGradient>
  <radialGradient id="radialGradient2880" cx="32" cy="41.5" r="21" gradientTransform="matrix(.57143 0 0 .16667 1.7143 20.583)" gradientUnits="userSpaceOnUse" xlink:href="#linearGradient5060"/>
  <radialGradient id="radialGradient2882" cx="25" cy="28.66" r="16" gradientTransform="matrix(.88911 0 0 .2644 -5.6149 12.36)" gradientUnits="userSpaceOnUse" xlink:href="#linearGradient6954"/>
  <linearGradient id="linearGradient2884" x1="30" x2="30" y1="25.085" y2="45" gradientTransform="matrix(.67742 0 0 .70833 -.3226 -2.0209)" gradientUnits="userSpaceOnUse" xlink:href="#linearGradient3785"/>
  <linearGradient id="linearGradient2886" x1="24.349" x2="24.349" y1="57.333" y2="83.733" gradientTransform="matrix(.65517 0 0 .68182 3.0474 -28.091)" gradientUnits="userSpaceOnUse" xlink:href="#linearGradient3341"/>
  <radialGradient id="radialGradient2888" cx="26.376" cy="12.313" r="8" gradientTransform="matrix(.98412 -.084594 .07687 1.0112 -9.0385 -4.3447)" gradientUnits="userSpaceOnUse" xlink:href="#linearGradient6954"/>
  <linearGradient id="linearGradient2890" x1="30" x2="30" y1="5" y2="44.679" gradientTransform="matrix(.60001 0 0 .63805 1.9996 -1.0094)" gradientUnits="userSpaceOnUse" xlink:href="#linearGradient3785"/>
  <linearGradient id="linearGradient2892" x1="22" x2="17" y1="39" y2="37.438" gradientTransform="matrix(.75 0 0 .65217 -1.75 .22609)" gradientUnits="userSpaceOnUse" xlink:href="#linearGradient5060"/>
  <linearGradient id="linearGradient2894" x1="38" x2="43" y1="39" y2="38.6" gradientTransform="matrix(.75 0 0 .65217 -3.25 .22609)" gradientUnits="userSpaceOnUse" xlink:href="#linearGradient5060"/>
  <radialGradient id="radialGradient2896" cx="30" cy="33.188" r="4.6875" gradientTransform="matrix(1.3039 -4.7098e-7 1.8183e-7 .30724 -19.116 9.8033)" gradientUnits="userSpaceOnUse" xlink:href="#linearGradient5060"/>
  <linearGradient id="linearGradient2898" x1="30" x2="30" y1="5.7028" y2="27.957" gradientTransform="matrix(.54109 0 0 .60328 3.7672 -.44039)" gradientUnits="userSpaceOnUse" xlink:href="#linearGradient3341"/>
  <linearGradient id="linearGradient4286" x1="63.397" x2="63.397" y1="-12.489" y2="5.4676" gradientTransform="matrix(.74324 0 0 .74322 -38.23 10.609)" gradientUnits="userSpaceOnUse" xlink:href="#linearGradient3341"/>
  <linearGradient id="linearGradient4294" x1="18.379" x2="18.379" y1="44.98" y2="3.0816" gradientTransform="matrix(.36857 0 0 .36857 -.84577 -.84577)" gradientUnits="userSpaceOnUse">
   <stop id="stop4298" style="stop-color:#1f4b6a" offset="0"/>
   <stop id="stop4300" style="stop-color:#4083c2" offset="1"/>
  </linearGradient>
  <radialGradient id="radialGradient4312" cx="23.896" cy="3.99" r="20.397" gradientTransform="matrix(0 .87966 -1.1611 0 12.633 -21.084)" gradientUnits="userSpaceOnUse">
   <stop id="stop4304" style="stop-color:#8badea" offset="0"/>
   <stop id="stop4306" style="stop-color:#6396cd" offset=".26238"/>
   <stop id="stop4308" style="stop-color:#3b7caf" offset=".66094"/>
   <stop id="stop4310" style="stop-color:#194c70" offset="1"/>
  </radialGradient>
 </defs>
 <g id="g3499">
  <g id="g3735" transform="translate(-7)">
   <path id="path3823" d="m32 27.5a12 3.5 0 0 1-24 0 12 3.5 0 1 1 24 0z" style="fill:url(#radialGradient2880);opacity:.8"/>
   <path id="path3766" d="m17.052 12.5c0.31176 1.5419 0.58491 2.7082 0.332 4.25-1.9718 1.7105-7.2142 2.4792-7.2066 4.25l-0.67742 5.3125c0 1.7604 4.701 3.1875 10.5 3.1875 5.799 0 10.5-1.4271 10.5-3.1875l-0.67742-5.3125c-0.0081-1.5156-5.281-2.4792-7.2286-4.25-0.16636-1.4311 0.06603-2.8189 0.354-4.25h-5.896z" style="fill:url(#radialGradient2882);stroke-width:.99997;stroke:url(#linearGradient2884)"/>
   <path id="path3894" d="m18.109 13.5c0.20739 1.2181 0.57066 2.4975 0.262 3.7097-0.58577 0.73497-2.0251 1.0994-2.8511 1.5027-1.4023 0.65928-2.9923 1.0112-4.2079 2.0094-0.26681 0.37292-0.17855 0.88867-0.28257 1.3286-0.17556 1.3616-0.35846 2.7227-0.52943 4.0846 0.37225 0.82835 1.4002 1.0752 2.1783 1.3903 3.3177 1.01 6.8489 1.1226 10.285 0.83789 2.0012-0.21989 4.0703-0.50748 5.8543-1.4971 0.54866-0.23049 0.8014-0.76434 0.60957-1.3111-0.19049-1.5185-0.41022-3.0352-0.58237-4.5549-0.76394-0.78468-1.8748-1.0995-2.8469-1.555-1.3439-0.59233-3.4115-1.1042-4.454-2.1786-0.2021-1.2071 0.25354-2.7491 0.191-3.7664-1.3751 2e-6 -2.2509-4e-6 -3.626 3e-6z" style="fill:none;stroke-width:.99991;stroke:url(#linearGradient2886)"/>
   <path id="path3764" d="m20 2.4999c-2.4853 0-4.5001 1.9996-4.5001 4.4663 0.01948 0.91287 0.09275 1.9973 0.60002 4.4663 0.30001 0.95707 2.9759 3.7094 3.0001 4.0284 0.58182 0.31902 1.5 0.31902 2.1001 0 0-0.31902 2.4001-3.0714 2.7001-4.0284 0.57084-2.566 0.5694-3.5093 0.60002-4.4663 0-2.4667-2.0148-4.4663-4.5001-4.4663z" style="fill:url(#radialGradient2888);stroke-width:.99978;stroke:url(#linearGradient2890)"/>
   <path id="path3848" d="m14 28.4c-1.7718-1.2927-0.9269-4.1627-0.75-6-0.75 1.3043-0.75 5.2174-2.25 5.2174 1.022 0.29906 2.0622 0.62986 3 0.78261z" style="fill:url(#linearGradient2892);opacity:.3"/>
   <path id="path3850" d="m26 28.4c1.7625-1.1372 0.86754-4.2299 0.75-6 0.75 1.3043 0.75 5.2174 2.25 5.2174-1.022 0.29906-2.0622 0.62986-3 0.78261z" style="fill:url(#linearGradient2894);opacity:.3"/>
   <path id="path3833" d="m16 18c0.58564 1.1632 2.1495 2 4 2s3.4144-0.83683 4-2h-8z" style="fill:url(#radialGradient2896);opacity:.2"/>
   <path id="path3906" d="m20 3.4998c-1.5784-0.031463-3.0346 1.1665-3.3881 2.6909-0.23317 1.0034-0.04469 2.0407 0.07761 3.0471 0.11323 0.6679 0.19252 1.3513 0.37578 2.0008 0.66871 1.1635 1.6913 2.0699 2.4612 3.158 0.4129 0.12286 1.0798 0.2414 1.3237-0.19806 0.69114-1.0194 1.5712-1.9177 2.1257-3.0257 0.29846-1.4923 0.60268-3.0151 0.49448-4.5447-0.17202-1.6143-1.5616-3.0209-3.1984-3.1177-0.09051-0.00705-0.18134-0.010502-0.27209-0.010551z" style="fill:none;opacity:.7;stroke-width:.99956;stroke:url(#linearGradient2898)"/>
  </g>
  <g id="layer1" transform="translate(15 16)">
   <path id="path2449" d="m8 0.50183c-4.1372 0-7.4982 3.3609-7.4982 7.4982 0 4.1372 3.3609 7.4982 7.4982 7.4982 4.1372 0 7.4982-3.3609 7.4982-7.4982 0-4.1372-3.3609-7.4982-7.4982-7.4982z" style="fill:url(#radialGradient4312);stroke-linecap:round;stroke-linejoin:round;stroke-width:1.0037;stroke:url(#linearGradient4294)"/>
   <path id="path2451" d="m14.5 7.9998c0 3.59-2.9104 6.5002-6.4999 6.5002-3.5899 0-6.5001-2.9103-6.5001-6.5002 0-3.5898 2.9102-6.4998 6.5001-6.4998 3.5896 0 6.4999 2.91 6.4999 6.4998z" style="fill:none;opacity:.4;stroke:url(#linearGradient4286)"/>
   <path id="path3536" d="m5.8809 7.6039c0.11121 0.27276 0.23296 0.49258 0.46138 0.17598 0.29108-0.1922 1.2591-1.0222 1.1895-0.24486-0.26355 1.4439-0.59718 2.8755-0.83838 4.3229-0.28037 0.79853 0.45458 1.4807 1.1726 0.93967 0.77163-0.36019 1.4257-0.9224 2.0961-1.441-0.10333-0.23048-0.17931-0.56449-0.42727-0.24753-0.33523 0.17118-1.0517 0.94316-1.2144 0.33704 0.22577-1.561 0.69837-3.0746 0.9775-4.6255 0.28474-0.71941-0.26092-1.5917-1.002-0.97604-0.89953 0.44193-1.6391 1.1342-2.415 1.7593zm3.1924-5.349c-0.93603-0.01241-1.3642 1.536-0.46009 1.9183 0.73193 0.27058 1.4865-0.51103 1.2811-1.2531-0.06996-0.38791-0.42759-0.69426-0.82096-0.66515h-9e-7z" style="fill:#fff"/>
  </g>
 </g>
</svg>
