<?xml version="1.0" encoding="UTF-8" standalone="no"?>
<svg
   xmlns:dc="http://purl.org/dc/elements/1.1/"
   xmlns:cc="http://creativecommons.org/ns#"
   xmlns:rdf="http://www.w3.org/1999/02/22-rdf-syntax-ns#"
   xmlns:svg="http://www.w3.org/2000/svg"
   xmlns="http://www.w3.org/2000/svg"
   xmlns:xlink="http://www.w3.org/1999/xlink"
   version="1.1"
   width="24"
   height="24"
   id="svg10994">
  <defs
     id="defs10996">
    <linearGradient
       id="linearGradient4280">
      <stop
         style="stop-color:#000000;stop-opacity:0.31764707"
         offset="0"
         id="stop4282" />
      <stop
         style="stop-color:#000000;stop-opacity:0.23921569"
         offset="1"
         id="stop4284" />
    </linearGradient>
    <linearGradient
       x1="27.557428"
       y1="6.0348444"
       x2="27.557428"
       y2="21.386522"
       id="linearGradient4440-9"
       xlink:href="#linearGradient3454-2-5-0-3-4-1"
       gradientUnits="userSpaceOnUse"
       gradientTransform="matrix(0.62762637,0,0,0.7245642,2.9730682,4.6273679)" />
    <linearGradient
       id="linearGradient3454-2-5-0-3-4-1">
      <stop
         id="stop3456-4-9-38-1-8-8"
         style="stop-color:#ffffff;stop-opacity:1"
         offset="0" />
      <stop
         id="stop3458-39-80-3-5-5-8"
         style="stop-color:#ffffff;stop-opacity:0.23529412"
         offset="0.0097359" />
      <stop
         id="stop3460-7-0-2-4-2-7"
         style="stop-color:#ffffff;stop-opacity:0.15686275"
         offset="0.99001008" />
      <stop
         id="stop3462-0-9-8-7-2-3"
         style="stop-color:#ffffff;stop-opacity:0.39215687"
         offset="1" />
    </linearGradient>
    <linearGradient
       id="linearGradient4646-7-4-3-5-6">
      <stop
         id="stop4648-8-0-3-6-5"
         style="stop-color:#f9f9f9;stop-opacity:1"
         offset="0" />
      <stop
         id="stop4650-1-7-3-4-8"
         style="stop-color:#d8d8d8;stop-opacity:1"
         offset="1" />
    </linearGradient>
    <linearGradient
       x1="302.85715"
       y1="366.64789"
       x2="302.85715"
       y2="609.50507"
       id="linearGradient3028"
       xlink:href="#linearGradient5048"
       gradientUnits="userSpaceOnUse"
       gradientTransform="matrix(2.774389,0,0,1.969706,-1892.179,-872.8854)" />
    <linearGradient
       id="linearGradient5048">
      <stop
         id="stop5050"
         style="stop-color:#000000;stop-opacity:0"
         offset="0" />
      <stop
         id="stop5056"
         style="stop-color:#000000;stop-opacity:1"
         offset="0.5" />
      <stop
         id="stop5052"
         style="stop-color:#000000;stop-opacity:0"
         offset="1" />
    </linearGradient>
    <radialGradient
       cx="605.71429"
       cy="486.64789"
       r="117.14286"
       fx="605.71429"
       fy="486.64789"
       id="radialGradient3030"
       xlink:href="#linearGradient5060"
       gradientUnits="userSpaceOnUse"
       gradientTransform="matrix(2.774389,0,0,1.969706,-1891.633,-872.8854)" />
    <linearGradient
       id="linearGradient5060">
      <stop
         id="stop5062"
         style="stop-color:#000000;stop-opacity:1"
         offset="0" />
      <stop
         id="stop5064"
         style="stop-color:#000000;stop-opacity:0"
         offset="1" />
    </linearGradient>
    <radialGradient
       cx="605.71429"
       cy="486.64789"
       r="117.14286"
       fx="605.71429"
       fy="486.64789"
       id="radialGradient3032"
       xlink:href="#linearGradient5060"
       gradientUnits="userSpaceOnUse"
       gradientTransform="matrix(-2.774389,0,0,1.969706,112.7623,-872.8854)" />
    <linearGradient
       x1="-103.57845"
       y1="36.026463"
       x2="-103.57845"
       y2="13.286324"
       id="linearGradient18155"
       xlink:href="#linearGradient4280"
       gradientUnits="userSpaceOnUse"
       gradientTransform="matrix(0.80749834,0,0,0.83374395,104.87672,-8.06984)" />
    <linearGradient
       x1="62.988873"
       y1="13"
       x2="62.988873"
       y2="16"
       id="linearGradient5899"
       xlink:href="#linearGradient4646-7-4-3-5-6"
       gradientUnits="userSpaceOnUse"
       gradientTransform="matrix(0.47619047,0,0,0.47619047,1.7349636,-0.2857183)" />
    <linearGradient
       x1="35.792694"
       y1="17.118193"
       x2="35.792694"
       y2="43.761127"
       id="linearGradient12481"
       xlink:href="#radialGradient2444"
       gradientUnits="userSpaceOnUse"
       gradientTransform="matrix(0.45873037,0,0,0.4869622,1.1307079,-0.40203808)" />
    <radialGradient
       id="radialGradient2444"
       gradientUnits="userSpaceOnUse"
       cy="14.113"
       cx="63.969002"
       gradientTransform="matrix(1.5647,-9.5143e-8,6.1772e-8,1.0159,-59.14917,8.1461003)"
       r="23.097">
      <stop
         id="stop3618"
         style="stop-color:#eeeeec"
         offset="0" />
      <stop
         id="stop3270"
         style="stop-color:#d3d7cf"
         offset="0.6875183" />
      <stop
         id="stop3620"
         style="stop-color:#babdb6"
         offset="1" />
    </radialGradient>
    <linearGradient
       id="linearGradient3977">
      <stop
         id="stop3979"
         style="stop-color:#ffffff;stop-opacity:1"
         offset="0" />
      <stop
         id="stop3981"
         style="stop-color:#ffffff;stop-opacity:0.23529412"
         offset="0" />
      <stop
         id="stop3983"
         style="stop-color:#ffffff;stop-opacity:0.15686275"
         offset="1" />
      <stop
         id="stop3985"
         style="stop-color:#ffffff;stop-opacity:0.39215687"
         offset="1" />
    </linearGradient>
    <linearGradient
       id="linearGradient3600-4">
      <stop
         id="stop3602-7"
         style="stop-color:#f4f4f4;stop-opacity:1"
         offset="0" />
      <stop
         id="stop3604-6"
         style="stop-color:#dbdbdb;stop-opacity:1"
         offset="1" />
    </linearGradient>
    <linearGradient
       gradientTransform="matrix(0.24324324,0,0,0.35135133,2.1621636,-0.43242804)"
       gradientUnits="userSpaceOnUse"
       xlink:href="#linearGradient3977"
       id="linearGradient3988"
       y2="41.076912"
       x2="23.99999"
       y1="6.9230647"
       x1="23.99999" />
    <linearGradient
       gradientTransform="matrix(0.28571361,0,0,0.30419701,1.1428727,0.2326048)"
       gradientUnits="userSpaceOnUse"
       xlink:href="#linearGradient3600-4"
       id="linearGradient3806"
       y2="47.013336"
       x2="25.132275"
       y1="0.98520643"
       x1="25.132275" />
    <linearGradient
       gradientTransform="matrix(0.25378586,0,0,0.30501865,19.128979,-0.68547704)"
       gradientUnits="userSpaceOnUse"
       xlink:href="#linearGradient4280"
       id="linearGradient3019"
       y2="2.9062471"
       x2="-51.786404"
       y1="50.786446"
       x1="-51.786404" />
    <linearGradient
       x1="41.237999"
       y1="32.280998"
       gradientTransform="matrix(-0.5,0,0,-0.5,34.145,32.841)"
       x2="40.853001"
       gradientUnits="userSpaceOnUse"
       y2="18.406"
       id="linearGradient2732">
      <stop
         offset="0"
         style="stop-color:#fff"
         id="stop3430-8" />
      <stop
         offset="1"
         style="stop-color:#fff;stop-opacity:0"
         id="stop3432-2" />
    </linearGradient>
    <linearGradient
       x1="42.359001"
       y1="31.129"
       x2="29.108999"
       gradientUnits="userSpaceOnUse"
       y2="17.879999"
       id="linearGradient2736">
      <stop
         offset="0"
         style="stop-color:#fcfcfc"
         id="stop3414-9" />
      <stop
         offset="1"
         style="stop-color:#cbcdd9"
         id="stop3416-9" />
    </linearGradient>
  </defs>
  <metadata
     id="metadata10999">
    <rdf:RDF>
      <cc:Work
         rdf:about="">
        <dc:format>image/svg+xml</dc:format>
        <dc:type
           rdf:resource="http://purl.org/dc/dcmitype/StillImage" />
        <dc:title />
      </cc:Work>
    </rdf:RDF>
  </metadata>
  <path
     id="rect4598"
     d="m 2.016049,3.9999979 0,4.6153841 20,0 0,-2.615382 -9.682784,0 C 11.488134,6 10.074078,3.9999979 9.4119619,3.9999979 Z"
     style="color:#000000;clip-rule:nonzero;display:inline;overflow:visible;visibility:visible;opacity:1;isolation:auto;mix-blend-mode:normal;color-interpolation:sRGB;color-interpolation-filters:linearRGB;solid-color:#000000;solid-opacity:1;fill:url(#linearGradient5899);fill-opacity:1;fill-rule:nonzero;stroke:none;stroke-width:1;stroke-linecap:butt;stroke-linejoin:miter;stroke-miterlimit:4;stroke-dasharray:none;stroke-dashoffset:0;stroke-opacity:1;marker:none;color-rendering:auto;image-rendering:auto;shape-rendering:auto;text-rendering:auto;enable-background:accumulate" />
  <g
     style="stroke-width:1.88256383;stroke-miterlimit:4;stroke-dasharray:none"
     id="g3490"
     transform="matrix(0.5459263,0,0,0.5168524,-0.96573178,-1.578182)">
    <g
       style="display:inline;stroke-width:104.96237946;stroke-miterlimit:4;stroke-dasharray:none"
       id="g5022"
       transform="matrix(0.02165152,0,0,0.01485743,43.0076,42.68539)">
      <rect
         style="display:inline;overflow:visible;visibility:visible;opacity:0.40206185;fill:url(#linearGradient3028);fill-opacity:1;fill-rule:nonzero;stroke:none;stroke-width:104.96237946;marker:none"
         id="rect4173-4"
         y="-150.69685"
         x="-1559.2523"
         height="478.35718"
         width="1339.6335" />
      <path
         style="display:inline;overflow:visible;visibility:visible;opacity:0.40206185;fill:url(#radialGradient3030);fill-opacity:1;fill-rule:nonzero;stroke:none;stroke-width:104.96237946;marker:none"
         id="path5058-9"
         d="m -219.61876,-150.68038 c 0,0 0,478.33079 0,478.33079 142.874166,0.90045 345.40022,-107.16966 345.40014,-239.196175 0,-132.026537 -159.436816,-239.134595 -345.40014,-239.134615 z" />
      <path
         style="display:inline;overflow:visible;visibility:visible;opacity:0.40206185;fill:url(#radialGradient3032);fill-opacity:1;fill-rule:nonzero;stroke:none;stroke-width:104.96237946;marker:none"
         id="path5018-53"
         d="m -1559.2523,-150.68038 c 0,0 0,478.33079 0,478.33079 -142.8742,0.90045 -345.4002,-107.16966 -345.4002,-239.196175 0,-132.026537 159.4368,-239.134595 345.4002,-239.134615 z" />
    </g>
  </g>
  <path
     style="color:#000000;clip-rule:nonzero;display:inline;overflow:visible;visibility:visible;opacity:0.8;isolation:auto;mix-blend-mode:normal;color-interpolation:sRGB;color-interpolation-filters:linearRGB;solid-color:#000000;solid-opacity:1;fill:none;fill-opacity:1;fill-rule:nonzero;stroke:url(#linearGradient18155);stroke-width:1;stroke-linecap:butt;stroke-linejoin:miter;stroke-miterlimit:4;stroke-dasharray:none;stroke-dashoffset:0;stroke-opacity:1;marker:none;color-rendering:auto;image-rendering:auto;shape-rendering:auto;text-rendering:auto;enable-background:accumulate"
     id="rect3186"
     d="m 22.536298,7.0465624 0,-1.0465645 c 0,-0.277 -0.223,-0.5 -0.5,-0.5 l -9.536298,0 c -0.94238,0.017326 -2.110392,-1.995614 -3,-1.995614 l -7.464,0 c -0.277,0 -0.5,0.223 -0.5,0.5 l 2.982e-4,3.0421785" />
  <path
     style="color:#000000;font-style:normal;font-variant:normal;font-weight:normal;font-stretch:normal;font-size:medium;line-height:normal;font-family:sans-serif;text-indent:0;text-align:start;text-decoration:none;text-decoration-line:none;text-decoration-style:solid;text-decoration-color:#000000;letter-spacing:normal;word-spacing:normal;text-transform:none;direction:ltr;block-progression:tb;writing-mode:lr-tb;baseline-shift:baseline;text-anchor:start;white-space:normal;clip-rule:nonzero;display:inline;overflow:visible;visibility:visible;opacity:1;isolation:auto;mix-blend-mode:normal;color-interpolation:sRGB;color-interpolation-filters:linearRGB;solid-color:#000000;solid-opacity:1;fill:url(#linearGradient12481);fill-opacity:1;fill-rule:nonzero;stroke:none;stroke-width:1;stroke-linecap:butt;stroke-linejoin:miter;stroke-miterlimit:4;stroke-dasharray:none;stroke-dashoffset:0;stroke-opacity:1;color-rendering:auto;image-rendering:auto;shape-rendering:auto;text-rendering:auto;enable-background:accumulate;marker:none;filter-blend-mode:normal;filter-gaussianBlur-deviation:0"
     d="M 1.5,7.5 1.5,8 1.5,18.000264 1.75,21.5 22.25,21.5 22.5,18.000264 22.5,7.5 Z"
     id="rect4198" />
  <path
     style="color:#000000;display:inline;overflow:visible;visibility:visible;opacity:0.5;fill:none;stroke:url(#linearGradient4440-9);stroke-width:1.00000012;stroke-linecap:round;stroke-linejoin:miter;stroke-miterlimit:4;stroke-dasharray:none;stroke-dashoffset:0;stroke-opacity:1;marker:none;enable-background:accumulate"
     id="path3309-8"
     d="M 2.5,8.4999979 2.4462368,18.004917 2.75,20.499998 l 18.5,0 0.258854,-2.444262 L 21.5,8.4999979 Z" />
  <rect
     x="3"
     y="5"
     width="6"
     height="1"
     ry="0.5"
     rx="0.49999997"
     style="display:block;fill:#d3d7cf"
     id="rect2892" />
  <path
     style="color:#000000;font-style:normal;font-variant:normal;font-weight:normal;font-stretch:normal;font-size:medium;line-height:normal;font-family:sans-serif;text-indent:0;text-align:start;text-decoration:none;text-decoration-line:none;text-decoration-style:solid;text-decoration-color:#000000;letter-spacing:normal;word-spacing:normal;text-transform:none;direction:ltr;block-progression:tb;writing-mode:lr-tb;baseline-shift:baseline;text-anchor:start;white-space:normal;clip-rule:nonzero;display:inline;overflow:visible;visibility:visible;opacity:0.3;isolation:auto;mix-blend-mode:normal;color-interpolation:sRGB;color-interpolation-filters:linearRGB;solid-color:#000000;solid-opacity:1;fill:none;fill-opacity:1;fill-rule:nonzero;stroke:#000000;stroke-width:1;stroke-linecap:round;stroke-linejoin:round;stroke-miterlimit:4;stroke-dasharray:none;stroke-dashoffset:0;stroke-opacity:1;marker:none;color-rendering:auto;image-rendering:auto;shape-rendering:auto;text-rendering:auto;enable-background:accumulate;filter-blend-mode:normal;filter-gaussianBlur-deviation:0"
     d="M 1.5,7.5 1.5,8 1.5,18.000264 1.75,21.5 22.25,21.5 22.5,18.000264 22.5,7.5 Z"
     id="rect4198-7" />
  <g
     transform="translate(10.000001,7.000013)"
     id="g3460">
    <path
       d="m 3,1 c 2.2915074,0 9.999988,8.904e-4 9.999988,8.904e-4 L 13,15 C 13,15 6.3333332,15 3,15 3,10.333334 3,5.6666664 3,1 Z"
       id="path4160"
       style="display:inline;fill:url(#linearGradient3806);fill-opacity:1;stroke:none" />
    <path
       d="m 12.5,14.5 -9.0000001,0 0,-13 L 12.5,1.5 Z"
       id="rect6741-1"
       style="fill:none;stroke:url(#linearGradient3988);stroke-width:1;stroke-linecap:round;stroke-linejoin:miter;stroke-miterlimit:4;stroke-dasharray:none;stroke-dashoffset:0;stroke-opacity:1" />
    <path
       d="m 2.4999621,0.49997396 c 2.5206756,0 11.0000629,9.54e-4 11.0000629,9.54e-4 l 1.3e-5,14.99909804 c 0,0 -7.3333841,0 -11.000076,0 0,-5.000017 0,-10.000035 0,-15.00005204 z"
       id="path4160-8"
       style="display:inline;fill:none;stroke:url(#linearGradient3019);stroke-width:0.99992192;stroke-linecap:butt;stroke-linejoin:round;stroke-miterlimit:4;stroke-dasharray:none;stroke-dashoffset:0;stroke-opacity:1" />
  </g>
  <path
     d="M 20.5,8.523 20.5,21"
     style="opacity:0.8;fill:none;stroke:#9a9eac"
     id="path3449" />
  <path
     d="m 22,10.5 -8,0"
     style="opacity:0.8;fill:none;stroke:#9a9eac;stroke-width:0.99997997"
     id="path3453" />
  <path
     d="m 15.5,9 0,12"
     style="opacity:0.8;fill:none;stroke:#9a9eac"
     id="path3447" />
  <path
     d="m 22,19.5 -8,0"
     style="opacity:0.8;fill:none;stroke:#9a9eac;stroke-width:1"
     id="path3451" />
  <g
     transform="matrix(-0.5,0,0,-0.5,34.25,32.75)"
     style="stroke-width:2"
     id="g3553">
    <path
       d="m 30.5,18.5 15,15 0,-15 -15,0 z m 9,4 2,0 0,2 -2,-2 z"
       style="opacity:0.8;fill:url(#linearGradient2736);fill-rule:evenodd;stroke:#83899a;stroke-width:2;stroke-linejoin:round"
       id="path3410" />
  </g>
  <path
     d="m 17.786,23.138 -5.938,-5.938 0,5.938 5.938,0 z"
     style="opacity:0.4;fill:none;stroke:url(#linearGradient2732)"
     id="path3424" />
  <g
     transform="translate(602.989,-112.5)"
     id="g4359">
    <path
       id="text2767-9"
       d="m -585.02009,125.42075 c -0.18782,0 -0.38086,0.0204 -0.57912,0.0622 -0.19825,0.0396 -0.40304,0.1008 -0.61382,0.18219 l 0,0.53213 c 0.1753,-0.096 0.35812,-0.16818 0.54803,-0.21618 0.18991,-0.048 0.38528,-0.0723 0.58563,-0.0723 0.31512,0 0.55917,0.073 0.73239,0.21906 0.1753,0.144 0.26244,0.34878 0.26244,0.61382 l 0,0.0564 -0.80758,0 c -0.52381,0 -0.91778,0.10042 -1.18281,0.30076 -0.26296,0.20035 -0.39476,0.49775 -0.39476,0.89218 0,0.33807 0.10517,0.60804 0.31595,0.81047 0.21286,0.20034 0.49924,0.30077 0.85819,0.30077 0.28382,0 0.52393,-0.0502 0.7201,-0.15039 0.19617,-0.10226 0.35944,-0.25997 0.49091,-0.47283 l 0,0.53212 0.57623,0 0,-2.00052 c 0,-0.53426 -0.12553,-0.93288 -0.37596,-1.19583 -0.25043,-0.26296 -0.6287,-0.39404 -1.13582,-0.39404 z m 0.36294,1.82773 0.57261,0 0,0.12869 c 0,0.37565 -0.0966,0.67699 -0.29064,0.90447 -0.192,0.22538 -0.4478,0.33836 -0.76709,0.33836 -0.23165,0 -0.41527,-0.0596 -0.55092,-0.17858 -0.13357,-0.12104 -0.20027,-0.2835 -0.20027,-0.48802 0,-0.25669 0.0895,-0.43871 0.26895,-0.54514 0.17947,-0.10643 0.50198,-0.15978 0.96736,-0.15978 z"
       style="font-size:17.31900024px;font-family:'Bitstream Vera Sans';opacity:0.8;fill:#9a9eac" />
  </g>
</svg>
