<?xml version="1.0" encoding="UTF-8" standalone="no"?>
<!-- Created with Inkscape (http://www.inkscape.org/) -->

<svg
   xmlns:dc="http://purl.org/dc/elements/1.1/"
   xmlns:cc="http://creativecommons.org/ns#"
   xmlns:rdf="http://www.w3.org/1999/02/22-rdf-syntax-ns#"
   xmlns:svg="http://www.w3.org/2000/svg"
   xmlns="http://www.w3.org/2000/svg"
   xmlns:xlink="http://www.w3.org/1999/xlink"
   xmlns:sodipodi="http://sodipodi.sourceforge.net/DTD/sodipodi-0.dtd"
   xmlns:inkscape="http://www.inkscape.org/namespaces/inkscape"
   version="1.0"
   width="21.999996"
   height="21.999996"
   id="svg2"
   style="display:inline;enable-background:new"
   sodipodi:version="0.32"
   inkscape:version="0.48.3.1 r9886"
   sodipodi:docname="shutter-panel.svg"
   inkscape:output_extension="org.inkscape.output.svg.inkscape"
   inkscape:export-filename="/home/mario/shutter/experimental/share/pixmaps/shutter.xpm.png"
   inkscape:export-xdpi="60"
   inkscape:export-ydpi="60">
  <metadata
     id="metadata57">
    <rdf:RDF>
      <cc:Work
         rdf:about="">
        <dc:format>image/svg+xml</dc:format>
        <dc:type
           rdf:resource="http://purl.org/dc/dcmitype/StillImage" />
        <dc:title />
      </cc:Work>
    </rdf:RDF>
  </metadata>
  <sodipodi:namedview
     inkscape:window-height="1000"
     inkscape:window-width="1680"
     inkscape:pageshadow="2"
     inkscape:pageopacity="0.0"
     guidetolerance="10.0"
     gridtolerance="10.0"
     objecttolerance="10.0"
     borderopacity="1.0"
     bordercolor="#666666"
     pagecolor="#ffffff"
     id="base"
     showgrid="true"
     inkscape:zoom="27.75"
     inkscape:cx="17.839369"
     inkscape:cy="7.8933754"
     inkscape:window-x="-8"
     inkscape:window-y="23"
     inkscape:current-layer="normal"
     inkscape:window-maximized="1"
     fit-margin-top="0"
     fit-margin-left="0"
     fit-margin-right="0"
     fit-margin-bottom="0"
     inkscape:snap-bbox="true"
     inkscape:bbox-paths="true"
     inkscape:bbox-nodes="true"
     inkscape:snap-bbox-edge-midpoints="true"
     inkscape:snap-bbox-midpoints="true"
     inkscape:object-paths="true"
     inkscape:snap-intersection-paths="true"
     inkscape:object-nodes="true"
     inkscape:snap-smooth-nodes="true"
     inkscape:snap-midpoints="true"
     inkscape:snap-object-midpoints="true"
     inkscape:snap-center="true"
     inkscape:snap-page="true">
    <inkscape:grid
       type="xygrid"
       id="grid3054"
       empspacing="5"
       visible="true"
       enabled="true"
       snapvisiblegridlinesonly="true" />
  </sodipodi:namedview>
  <defs
     id="defs4">
    <filter
       id="filter3985"
       x="-0.071800567"
       width="1.1436011"
       y="-0.15538733"
       height="1.3107746"
       color-interpolation-filters="sRGB">
      <feGaussianBlur
         inkscape:collect="always"
         stdDeviation="6.7803529"
         id="feGaussianBlur3987" />
    </filter>
    <filter
       id="filter3989"
       color-interpolation-filters="sRGB">
      <feGaussianBlur
         inkscape:collect="always"
         stdDeviation="6.7803529"
         id="feGaussianBlur3991" />
    </filter>
    <filter
       id="filter3993"
       x="-0.1490933"
       width="1.2981865"
       y="-0.072374105"
       height="1.1447482"
       color-interpolation-filters="sRGB">
      <feGaussianBlur
         inkscape:collect="always"
         stdDeviation="6.7803529"
         id="feGaussianBlur3995" />
    </filter>
    <filter
       id="filter3997"
       x="-0.081570871"
       width="1.1631417"
       y="-0.11038305"
       height="1.2207661"
       color-interpolation-filters="sRGB">
      <feGaussianBlur
         inkscape:collect="always"
         stdDeviation="6.7803529"
         id="feGaussianBlur3999" />
    </filter>
    <filter
       id="filter4001"
       x="-0.07492853"
       width="1.149857"
       y="-0.12866202"
       height="1.257324"
       color-interpolation-filters="sRGB">
      <feGaussianBlur
         inkscape:collect="always"
         stdDeviation="6.7803529"
         id="feGaussianBlur4003" />
    </filter>
    <filter
       id="filter4005"
       x="-0.12232576"
       width="1.2446516"
       y="-0.076450996"
       height="1.152902"
       color-interpolation-filters="sRGB">
      <feGaussianBlur
         inkscape:collect="always"
         stdDeviation="6.7803529"
         id="feGaussianBlur4007" />
    </filter>
    <filter
       id="filter4009"
       x="-0.11224329"
       width="1.2244866"
       y="-0.079873785"
       height="1.1597476"
       color-interpolation-filters="sRGB">
      <feGaussianBlur
         inkscape:collect="always"
         stdDeviation="6.7803529"
         id="feGaussianBlur4011" />
    </filter>
    <linearGradient
       inkscape:collect="always"
       xlink:href="#linearGradient7209-9"
       id="linearGradient3088"
       gradientUnits="userSpaceOnUse"
       x1="-3222.2671"
       y1="482.64349"
       x2="-3222.2671"
       y2="-20.169584"
       gradientTransform="matrix(0.03380978,0,0,0.03380978,118.44414,2.1819254)" />
    <linearGradient
       inkscape:collect="always"
       xlink:href="#linearGradient7209-9"
       id="linearGradient3076"
       gradientUnits="userSpaceOnUse"
       gradientTransform="matrix(27.73142,0,0,27.73142,-3513.6735,-47.362492)"
       x1="11.000018"
       y1="19.99999"
       x2="11.000018"
       y2="2.3125" />
    <linearGradient
       id="linearGradient7209-9">
      <stop
         id="stop7211-8"
         offset="0"
         style="stop-color:#a1988f;stop-opacity:1;" />
      <stop
         id="stop7213-9"
         offset="1"
         style="stop-color:#e4dfd4;stop-opacity:1;" />
    </linearGradient>
    <linearGradient
       inkscape:collect="always"
       xlink:href="#linearGradient9097-0"
       id="linearGradient3084"
       gradientUnits="userSpaceOnUse"
       gradientTransform="matrix(27.73142,0,0,27.73142,-3513.6735,-47.362492)"
       x1="11.000018"
       y1="19.99999"
       x2="11.000018"
       y2="2.3125" />
    <linearGradient
       id="linearGradient9097-0">
      <stop
         style="stop-color:#000000;stop-opacity:0.49634215;"
         offset="0"
         id="stop9099-4" />
      <stop
         style="stop-color:#000000;stop-opacity:0.41474396;"
         offset="1"
         id="stop9101-5" />
    </linearGradient>
    <linearGradient
       inkscape:collect="always"
       xlink:href="#linearGradient7251-3"
       id="linearGradient3075"
       x1="-3569.1357"
       y1="507.26562"
       x2="-3569.1357"
       y2="8.100071"
       gradientUnits="userSpaceOnUse" />
    <linearGradient
       id="linearGradient7251-3">
      <stop
         style="stop-color:#ffffff;stop-opacity:1;"
         offset="0"
         id="stop7253-27" />
      <stop
         style="stop-color:#ffffff;stop-opacity:1;"
         offset="1"
         id="stop7255-3" />
    </linearGradient>
    <linearGradient
       inkscape:collect="always"
       xlink:href="#linearGradient7209-9"
       id="linearGradient3058"
       gradientUnits="userSpaceOnUse"
       x1="-3222.2671"
       y1="482.64349"
       x2="-3222.2671"
       y2="-20.169584"
       gradientTransform="matrix(0.03380978,0,0,0.03380978,119.44414,3.1819254)" />
    <linearGradient
       inkscape:collect="always"
       xlink:href="#linearGradient7209-9"
       id="linearGradient3062"
       gradientUnits="userSpaceOnUse"
       x1="-3222.2671"
       y1="482.64349"
       x2="-3222.2671"
       y2="-20.169584" />
    <linearGradient
       inkscape:collect="always"
       xlink:href="#linearGradient7251-3"
       id="linearGradient3065"
       gradientUnits="userSpaceOnUse"
       gradientTransform="translate(-5.6329421e-6,7.6705817e-7)"
       x1="-3222.2671"
       y1="482.64349"
       x2="-3222.2671"
       y2="-20.169584" />
    <linearGradient
       inkscape:collect="always"
       xlink:href="#linearGradient7209-9"
       id="linearGradient3069"
       gradientUnits="userSpaceOnUse"
       x1="-3222.2671"
       y1="482.64349"
       x2="-3222.2671"
       y2="-20.169584" />
    <linearGradient
       inkscape:collect="always"
       xlink:href="#linearGradient7209-9"
       id="linearGradient3073"
       gradientUnits="userSpaceOnUse"
       x1="-3222.2671"
       y1="482.64349"
       x2="-3222.2671"
       y2="-20.169584" />
    <linearGradient
       inkscape:collect="always"
       xlink:href="#linearGradient9097-0"
       id="linearGradient3077"
       gradientUnits="userSpaceOnUse"
       gradientTransform="translate(-5.4670584e-6,6.3294183e-7)"
       x1="-3222.2671"
       y1="482.64349"
       x2="-3222.2671"
       y2="-20.169584" />
  </defs>
  <g
     id="layer3"
     style="display:none"
     transform="translate(-69.720717,-24.171174)">
    <path
       d="m 324.38759,135.62452 c -45.38059,3.2742 -125.14974,80.45343 -113.93317,80.06244 92.77726,-3.23392 150.72813,2.10512 223.11793,24.5811 10.71863,3.32799 -11.56647,-97.10992 -109.18476,-104.64354 z"
       id="path2544"
       style="fill:#dbdbdb;fill-opacity:1;fill-rule:nonzero;stroke:none;stroke-width:25;marker-mid:none;display:inline;filter:url(#filter3985);enable-background:new"
       inkscape:connector-curvature="0" />
    <path
       d="M 186.37822,72.150309 C 160.57833,109.62675 157.33905,256.29261 163.99898,247.2588 218.88951,172.80293 350.45207,80.852043 428.9148,43.825512 525.90264,-1.943011 243.81268,3.6410539 186.37822,72.150309 z"
       id="path2546"
       style="fill:#dbdbdb;fill-opacity:1;fill-rule:nonzero;stroke:#000000;stroke-width:0;stroke-linecap:butt;stroke-linejoin:round;stroke-miterlimit:4;stroke-opacity:1;stroke-dasharray:none;stroke-dashoffset:1;marker-mid:none;display:inline;filter:url(#filter3989);enable-background:new"
       inkscape:connector-curvature="0" />
    <path
       d="M 69.5521,231.67976 C 84.41923,274.68075 179.56014,331.84683 176.28962,321.11052 149.23774,232.30583 139.45061,174.93843 142.49683,99.2009 142.94789,87.986573 51.65499,135.42084 69.5521,231.67976 z"
       id="path2548"
       style="fill:#dbdbdb;fill-opacity:1;fill-rule:nonzero;stroke:none;stroke-width:25;marker-mid:none;display:inline;filter:url(#filter3993);enable-background:new"
       inkscape:connector-curvature="0" />
    <path
       d="m 81.97729,372.8505 c 42.13653,17.1648 147.83895,-16.69886 137.60948,-21.31646 -84.61255,-38.1942 -134.204,-68.649 -189.1504,-120.86343 -8.1358,-7.73129 -32.64264,92.18775 51.54092,142.17989 z"
       id="path2550"
       style="fill:#dbdbdb;fill-opacity:1;fill-rule:nonzero;stroke:none;stroke-width:25;marker-mid:none;display:inline;filter:url(#filter3997);enable-background:new"
       inkscape:connector-curvature="0" />
    <path
       d="m 203.88504,453.62703 c 40.28664,-21.14484 82.54559,-123.77977 72.42084,-118.93689 -83.74641,40.05772 -138.99861,58.33341 -214.33707,66.67436 -11.15521,1.23503 49.42757,84.38627 141.91623,52.26253 z"
       id="path2552"
       style="fill:#dbdbdb;fill-opacity:1;fill-rule:nonzero;stroke:none;stroke-width:25;marker-mid:none;display:inline;filter:url(#filter4001);enable-background:new"
       inkscape:connector-curvature="0" />
    <path
       d="m 345.96158,410.03296 c 9.84126,-44.42146 -41.30053,-142.93171 -44.13379,-132.07183 -23.43513,89.82691 -45.12493,143.83025 -87.36533,206.76832 -6.25446,9.31914 96.3617,16.68976 131.49912,-74.69649 z"
       id="path2554"
       style="fill:#dbdbdb;fill-opacity:1;fill-rule:nonzero;stroke:none;stroke-width:25;marker-mid:none;display:inline;filter:url(#filter4005);enable-background:new"
       inkscape:connector-curvature="0" />
    <path
       d="M 401.89383,270.24178 C 374.5208,233.89852 266.4087,208.76833 272.82303,217.97814 c 53.05584,76.17847 80.01415,127.7542 100.41172,200.75689 3.02024,10.80938 75.29683,-62.40604 28.65908,-148.49325 z"
       id="path2556"
       style="fill:#dbdbdb;fill-opacity:1;fill-rule:nonzero;stroke:none;stroke-width:25;marker-mid:none;display:inline;filter:url(#filter4009);enable-background:new"
       inkscape:connector-curvature="0" />
  </g>
  <g
     id="normal"
     transform="matrix(0.03380978,0,0,0.03380978,118.94414,2.6819254)"
     inkscape:label="#g3217">
    <rect
       y="-79.323952"
       x="-3518.0396"
       height="650.69916"
       width="650.69916"
       id="rect3219"
       style="opacity:0.00100002;fill:#ffffff;stroke:none" />
    <g
       id="g6088">
      <path
         id="path3067"
         d="m -2976.8261,-4.9862994 c -9.3392,-2.2137052 -18.5808,-3.871165 -26.2324,-5.1568036 -90.8937,-15.271551 -166.4326,-13.18233 -206.0414,5.6359441 -12.6627,6.0159783 -19.9971,14.5235079 -33.3325,38.8081989 -12.6945,23.117797 -31.1569,66.71587 -41.5878,99.31286 -2.0997,6.56169 -5.0173,16.58857 -6.8408,22.03682 l -3.5646,9.80969 14.63,-9.18491 c 42.7861,-26.20108 90.9385,-49.87406 147.1795,-72.423795 72.2812,-28.98094 142.0752,-50.189925 207.0135,-63.411851 13.1315,-2.673692 15.5027,-3.563729 13.8966,-4.701053 -6.3413,-4.489914 -37.1018,-14.0840667 -65.1201,-20.7251004 z m -336.0376,27.9038884 c -0.2602,-0.06975 -3.2333,0.702399 -6.6131,1.972326 -34.2039,12.852873 -64.6191,41.228616 -79.2113,73.786509 -7.4109,16.534726 -13.2469,42.681096 -11.8576,52.986976 3.0038,22.28568 26.0144,60.98206 59.0854,99.14219 6.1269,7.06982 11.4337,12.58221 11.6336,12.47791 0.1999,-0.10445 0.067,-11.33741 0.088,-24.78231 0.1229,-75.78638 6.0838,-126.40058 21.1646,-189.031612 3.525,-14.639786 5.9709,-26.482238 5.7104,-26.551989 z m 228.4205,104.732341 c -3.3467,-0.49686 -7.1206,-0.51714 -13.0462,-0.21948 -24.1183,1.21155 -63.0214,14.1243 -99.4596,32.32233 l -15.0356,7.20414 38.3112,10.73345 c 53.8057,15.3997 91.1571,29.47066 129.0387,47.68077 15.6446,7.52064 44.3292,22.34519 51.309,26.85323 7.355,4.75026 7.3367,4.76451 6.6131,-1.97235 -3.521,-32.78845 -18.5307,-65.07889 -40.636,-87.64615 -12.3069,-12.56401 -29.3539,-24.52046 -46.2948,-31.59408 -4.3759,-1.82716 -7.4532,-2.86505 -10.7998,-3.36186 z m -58.5331,96.17656 c -0.6964,-0.025 2.157,11.20719 6.4938,24.67371 21.554,66.93291 33.051,122.25855 37.6415,180.91885 0.8538,10.91212 1.6928,22.14262 1.6586,25.25032 -0.033,3.10773 -0.1052,6.05626 0.2256,6.1449 0.8747,0.23438 9.3854,-7.0538 15.6832,-13.11501 18.8811,-18.17156 32.5414,-41.23109 39.2771,-66.23355 5.6114,-20.83417 6.6169,-40.4982 2.6954,-62.46249 -1.7964,-10.0615 -5.2234,-15.91376 -15.7496,-28.55793 -7.4126,-8.90384 -32.1035,-30.86565 -46.5744,-41.02973 -12.9244,-9.07777 -39.4492,-25.52097 -41.3512,-25.58907 z m -333.8305,-64.17572 c -1.8922,0.56822 -7.8334,19.33717 -9.7347,31.09013 -7.2129,44.58544 4.1672,85.74792 32.1259,117.66028 7.8027,8.90619 11.2918,11.28447 24.1804,16.3079 21.5599,8.40298 63.8804,14.47846 101.9666,14.21688 7.6429,-0.0526 14.2261,-0.384 14.5902,-0.3029 0.364,0.0811 -7.7284,-6.72435 -17.8328,-15.54309 -42.9814,-37.51219 -77.8304,-73.63426 -106.2786,-109.91538 -12.597,-16.06566 -27.208,-36.44692 -33.7539,-46.9552 -2.3837,-3.82682 -4.6825,-6.73303 -5.2631,-6.55862 z m 320.6124,158.92133 c -0.2489,0.0606 -0.7719,0.12196 -1.1073,0.63933 -0.8198,1.26458 -7.153,11.87141 -14.2102,23.33847 -29.1612,47.38447 -59.2874,88.2566 -88.2064,119.5839 -12.9393,14.01659 -35.9873,37.11393 -42.2772,42.49589 l -4.2269,3.54779 4.8035,1.28707 c 7.9436,2.1285 27.6873,3.62951 39.9806,2.7562 13.2018,-0.93785 31.2944,-5.061 42.2664,-9.2683 19.8336,-7.60521 40.5628,-22.33331 55.4946,-39.42235 7.3752,-8.44079 8.2875,-10.38321 10.7083,-17.25627 8.2485,-23.41876 7.916,-70.03697 -0.9646,-118.67135 -1.3293,-7.27961 -1.5145,-9.21047 -2.2608,-9.03038 z m -76.238,46.96915 c -0.2122,-0.36749 -1.8545,-0.47289 -3.7276,-0.0628 -8.1159,1.77617 -49.5613,7.53692 -69.0295,9.58571 -56.9245,5.99068 -106.183,5.76916 -160.43,-0.39588 -4.2969,-0.4883 -7.9437,-0.59384 -8.3282,-0.35943 -1.0869,0.66238 10.1441,17.99348 17.2081,26.60857 12.9702,15.81816 32.6124,31.45929 49.7795,39.54836 4.2115,1.9844 13.624,5.47175 21.3661,7.59721 23.788,6.53029 44.5559,7.23813 57.425,2.28196 13.6619,-5.26151 32.8215,-18.48241 53.0457,-37.27034 10.6978,-9.93809 43.3756,-46.34722 42.6909,-47.53343 z"
         style="color:#000000;fill:url(#linearGradient3069);fill-opacity:1;stroke:none;stroke-width:2;marker:none;visibility:visible;display:inline;overflow:visible;enable-background:accumulate"
         inkscape:connector-curvature="0" />
      <path
         style="color:#000000;fill:url(#linearGradient3065);fill-opacity:1;stroke:none;stroke-width:2;marker:none;visibility:visible;display:inline;overflow:visible;enable-background:accumulate"
         d="m -3125.2168,-20.169471 c -35.1975,0.965646 -64.3059,6.30377 -84.1103,15.7129092 -12.6627,6.0159782 -19.939,14.5354358 -33.2744,38.8201288 -12.6945,23.117796 -31.1621,66.301913 -41.593,98.898903 -2.0997,6.56169 -4.6465,16.73468 -6.47,22.18293 l -3.6971,10.16717 14.7886,-9.24288 c 2.9928,-1.83272 6.1966,-3.73728 9.2429,-5.54574 0.2876,-0.92388 0.6589,-1.94346 0.9243,-2.77286 10.4309,-32.59699 28.8985,-75.781106 41.593,-98.898903 13.3354,-24.284692 20.6117,-32.80415 33.2744,-38.820128 39.6088,-18.8182748 115.2227,-20.817285 206.1164,-5.545733 7.6516,1.2856398 17.4651,2.4077382 26.8043,4.6214439 12.4585,2.9529741 24.8924,7.6790951 36.0473,11.0914651 0.2622,0.0802 0.6641,-0.08006 0.9243,0 11.9035,-2.453157 14.4875,-3.525651 12.94,-4.621444 -6.3413,-4.489914 -36.6819,-14.6176075 -64.7002,-21.2586418 -9.3392,-2.213705 -19.1528,-3.335807 -26.8044,-4.6214442 -45.4468,-7.635776 -86.8086,-11.132823 -122.0061,-10.167176 z m -187.6306,43.441572 c -0.2602,-0.06975 -3.0902,0.57865 -6.47,1.848578 -34.2039,12.852873 -64.8967,41.385209 -79.4889,73.943102 -7.4109,16.534729 -13.405,42.378579 -12.0157,52.684459 3.0038,22.28568 26.0835,60.73877 59.1545,98.8989 6.1269,7.06982 11.8158,13.04433 12.0157,12.94004 0.015,-0.008 -0.011,-1.72234 0,-1.84857 -31.3859,-36.96 -53.4736,-73.62654 -56.3816,-95.20175 -1.3893,-10.30588 4.6049,-36.14973 12.0158,-52.68446 12.6869,-28.306876 37.8493,-52.942162 66.5487,-67.473079 2.9098,-12.390072 4.8534,-23.045125 4.6215,-23.10722 z m 215.3593,104.444629 c -24.1183,1.21155 -63.385,14.15208 -99.8232,32.35011 l -14.7886,6.47002 29.5772,8.3186 c 36.4382,-18.19803 75.7049,-31.13856 99.8232,-32.35011 5.9256,-0.29766 9.5933,-0.49686 12.94,0 3.3466,0.49681 6.7156,1.87 11.0915,3.69716 12.9929,5.42514 25.1158,13.86647 36.0473,23.10722 -1.751,-2.02333 -2.7681,-4.57795 -4.6215,-6.47002 -12.3069,-12.56401 -29.2735,-24.3522 -46.2144,-31.42582 -4.3759,-1.82716 -7.7449,-3.20035 -11.0915,-3.69716 -3.3467,-0.49686 -7.0144,-0.29766 -12.94,0 z m -378.9584,32.35011 c -1.8922,0.56822 -8.2659,18.74857 -10.1672,30.50153 -7.2129,44.58544 4.3914,85.47231 32.3501,117.38468 3.9014,4.45309 6.7085,7.8314 10.1672,10.16717 -24.8811,-31.15436 -34.5685,-70.48392 -27.7287,-112.76323 1.6478,-10.1859 5.8676,-23.41834 8.3186,-27.72866 -2.3752,-3.48335 -6.7401,-8.55742 -8.3186,-11.09147 -2.3837,-3.82682 -4.0408,-6.64443 -4.6214,-6.47002 z m 333.6682,63.77593 c -0.6964,-0.025 2.1333,11.48928 6.47,24.95579 21.554,66.93292 33.3054,121.57601 37.8959,180.23632 0.8538,10.91211 0.9585,22.77237 0.9243,25.88008 -0.033,3.10774 0.5935,5.45709 0.9243,5.54573 0.7322,0.19622 7.2833,-5.87726 12.94,-11.09146 -0.173,-2.28177 0.1827,-3.2104 0,-5.54573 -4.5905,-58.66031 -16.3418,-113.3034 -37.8958,-180.23632 -4.3368,-13.46651 -7.1665,-24.98079 -6.4701,-24.95579 1.902,0.0681 28.6686,16.80233 41.593,25.88008 7.2355,5.08205 16.972,12.46042 25.8801,20.33436 -10.0299,-10.36615 -28.1711,-26.3449 -40.6687,-35.12298 -12.9244,-9.07776 -39.691,-25.81198 -41.593,-25.88008 z m -219.0564,71.17023 c 14.1142,13.9783 28.9094,28.22092 45.2901,42.51729 0.5597,0.48841 0.3781,0.44904 0.9243,0.92429 0.2282,-0.001 1.8033,-0.0101 1.8486,0 0.364,0.0811 -7.4571,-6.89416 -17.5615,-15.71291 -10.7453,-9.37806 -20.7457,-18.50018 -30.5015,-27.72867 z m 205.1921,23.10722 c -0.2489,0.0606 -0.5889,0.40693 -0.9243,0.92429 -0.8198,1.26458 -6.8071,11.64015 -13.8643,23.10722 -29.1612,47.38449 -59.8128,88.83025 -88.7318,120.15754 -12.9393,14.0166 -35.303,37.13532 -41.5929,42.51729 l -4.6215,3.69715 4.6215,0.92429 c 4.6337,1.24162 13.3396,2.30501 22.1829,2.77287 9.3561,-8.88699 23.5341,-23.57055 34.1987,-35.12298 28.919,-31.32729 59.5705,-72.77305 88.7317,-120.15754 2.8229,-4.58684 3.2611,-5.47418 5.5457,-9.24289 -0.9128,-6.7258 -1.5192,-13.46858 -2.7728,-20.33435 -1.3293,-7.27961 -2.0266,-9.42298 -2.7729,-9.24289 z m -79.4888,47.13873 c -8.1159,1.77617 -49.8535,8.11839 -69.3217,10.16718 -56.9245,5.99069 -105.655,5.24076 -159.902,-0.92429 -4.2969,-0.48829 -7.9341,-0.2344 -8.3186,0 -1.0869,0.66238 9.5732,18.18929 16.6372,26.80437 3.9865,4.86176 8.883,9.25017 13.8644,13.86433 -7.0798,-8.85453 -16.765,-25.23894 -15.7129,-25.88008 0.3845,-0.2344 4.0217,-0.48829 8.3186,0 54.247,6.16505 102.9774,6.91498 159.9019,0.92429 11.95,-1.2576 26.7973,-4.1953 42.5173,-6.47002 8.459,-9.49075 16.029,-17.93819 15.7129,-18.48578 -0.2122,-0.3675 -1.824,-0.41009 -3.6971,0 z"
         id="path3086"
         inkscape:connector-curvature="0" />
      <path
         style="color:#000000;fill:url(#linearGradient3077);fill-opacity:1;stroke:none;stroke-width:2;marker:none;visibility:visible;display:inline;overflow:visible;enable-background:accumulate"
         d="m -2940.359,5.7106148 c -64.9383,13.2219262 -134.7595,34.7949862 -207.0407,63.7759262 -52.307,20.972419 -97.2151,42.502969 -137.719,66.548789 -1.9883,6.3853 -3.9527,14.65048 -5.5457,19.41007 l -3.6972,10.16717 14.7886,-9.24288 c 42.7861,-26.20109 90.7209,-49.54479 146.9619,-72.094528 72.2812,-28.98094 142.1024,-50.554 207.0407,-63.775926 13.1315,-2.673691 15.4705,-3.484119 13.8644,-4.621444 -3.4554,-2.446523 -14.1671,-5.9932162 -27.7287,-10.1671772 -0.2601,-0.08006 -0.6621,0.08021 -0.9243,0 z m -372.4884,17.5614872 c -0.2602,-0.06975 -3.0902,0.578649 -6.47,1.848578 -4.4659,1.678174 -8.6301,4.287824 -12.94,6.470021 -0.3588,1.527543 -0.5374,1.166062 -0.9243,2.772867 -15.0808,62.631032 -21.1358,113.692822 -21.2587,189.479202 -0.019,12.44897 0.1419,21.52927 0,23.10722 1.0336,1.2171 1.7186,2.48061 2.7729,3.69715 6.1269,7.06982 11.8158,13.04433 12.0157,12.94005 0.1999,-0.10444 -0.021,-11.5109 0,-24.9558 0.1229,-75.78638 6.1779,-126.84817 21.2587,-189.479202 3.525,-14.639785 5.8062,-25.810334 5.5457,-25.880086 z m 275.4381,131.249008 c 19.1336,22.10949 32.8215,51.298 36.0472,81.33741 0.7236,6.73687 0.885,6.59883 -6.47,1.84858 -6.9798,-4.50805 -36.1156,-19.28374 -51.7602,-26.80438 -37.8816,-18.21011 -74.6704,-32.66331 -128.4761,-48.06301 l -9.2429,-2.77287 -14.7886,6.47002 38.8201,11.09147 c 53.8057,15.3997 90.5946,29.8529 128.4762,48.06302 15.6446,7.52063 44.7803,22.29633 51.7601,26.80437 7.355,4.75025 7.1937,4.88829 6.4701,-1.84858 -3.521,-32.78844 -18.5635,-65.24017 -40.6687,-87.80743 -2.8681,-2.928 -6.8456,-5.51071 -10.1672,-8.3186 z m -439.0372,5.54573 c -0.2523,0.0758 -1.4715,2.10974 -1.8486,2.77287 7.4744,10.96152 16.3209,22.93151 25.8801,35.12297 16.7884,21.41094 35.7033,43.08168 57.3059,64.70022 -15.7743,-16.60328 -29.5616,-33.38866 -42.5173,-49.9116 -12.597,-16.06566 -27.6528,-35.70616 -34.1987,-46.21444 -2.3837,-3.82682 -4.0408,-6.64443 -4.6214,-6.47002 z m 406.6871,115.5361 c 10.5262,12.64418 13.9165,18.59145 15.7129,28.65295 3.9215,21.9643 2.8385,42.01746 -2.7729,62.85164 -6.7357,25.00247 -19.939,47.45296 -38.8201,65.6245 -1.0258,0.98729 -1.6722,0.83399 -2.7729,1.84858 0.6352,8.38003 0.9512,17.89175 0.9243,20.33435 -0.033,3.10774 0.5935,5.45709 0.9243,5.54574 0.8747,0.23437 9.4151,-6.87884 15.7129,-12.94005 18.8811,-18.17154 32.0844,-40.62203 38.8201,-65.6245 5.6114,-20.83418 6.6944,-40.88734 2.7729,-62.85164 -1.7964,-10.06149 -5.1867,-16.00877 -15.7129,-28.65295 -2.6955,-3.23776 -8.8459,-9.29267 -14.7886,-14.78862 z m -388.2013,28.65295 c 1.1,1.35177 2.5402,2.37665 3.6971,3.69716 7.8027,8.90618 11.1429,11.61377 24.0315,16.63719 21.5599,8.40299 63.5856,15.05021 101.6718,14.78863 7.6429,-0.0526 14.4245,-1.00539 14.7886,-0.92429 0.3439,0.0766 -7.3216,-6.6831 -16.6372,-14.78862 -1.6046,0.01 -6.2488,0.87823 -12.94,0.92428 -38.0862,0.26159 -80.1119,-6.38563 -101.6718,-14.78862 -5.9268,-2.31004 -9.655,-3.4624 -12.94,-5.54573 z m 301.3181,13.86433 c -0.2489,0.0606 -0.5889,0.40693 -0.9243,0.92429 -0.4918,0.75875 -4.8915,8.2113 -8.3186,13.86433 5.5536,40.91719 5.2355,78.7862 -1.8485,98.8989 -2.4209,6.87307 -3.7163,8.19642 -11.0915,16.6372 -14.9318,17.08905 -35.6237,32.13922 -55.4573,39.74442 -10.972,4.2073 -28.3912,8.30502 -41.593,9.24289 -5.1222,0.36389 -12.1692,0.33416 -18.4858,0 -1.9957,1.8956 -6.2885,6.44813 -7.3943,7.39431 l -4.6215,3.69715 4.6215,0.92429 c 7.9436,2.1285 28.3754,3.64617 40.6687,2.77287 13.2018,-0.93787 30.621,-5.03559 41.593,-9.24289 19.8336,-7.6052 40.5255,-22.65537 55.4573,-39.74442 7.3752,-8.44078 8.6707,-9.76413 11.0915,-16.6372 8.2485,-23.41875 7.9563,-70.59886 -0.9243,-119.23325 -1.3293,-7.27961 -2.0266,-9.42298 -2.7729,-9.24289 z m -79.4888,47.13873 c -3.1342,0.68593 -16.9142,2.266 -26.8044,3.69716 -9.865,11.0683 -21.045,24.22689 -26.8044,29.57724 -20.2242,18.78793 -39.9468,31.71005 -53.6087,36.97155 -12.8691,4.95617 -33.5179,4.68172 -57.3059,-1.84858 -7.7421,-2.12545 -17.0472,-6.3342 -21.2587,-8.3186 -11.5625,-5.44821 -24.1096,-13.9848 -35.1229,-24.03151 12.9702,15.81818 32.7445,30.73105 49.9116,38.82013 4.2115,1.9844 13.5165,6.19315 21.2586,8.3186 23.788,6.5303 44.4368,6.80475 57.3059,1.84858 13.6619,-5.2615 33.3846,-18.18362 53.6088,-36.97155 10.6978,-9.9381 43.202,-46.87682 42.5172,-48.06302 -0.2121,-0.3675 -1.824,-0.41009 -3.6971,0 z"
         id="path3056"
         inkscape:connector-curvature="0" />
    </g>
  </g>
</svg>
