<?xml version="1.0" encoding="UTF-8"?>
<!-- Created with Inkscape (http://www.inkscape.org/) -->
<svg id="svg3397" width="32" height="32" version="1.1" xmlns="http://www.w3.org/2000/svg" xmlns:xlink="http://www.w3.org/1999/xlink">
 <defs id="defs3399">
  <linearGradient id="linearGradient2936" x1="24.613" x2="29.182" y1="20.16" y2="12.246" gradientTransform="matrix(.72222 0 0 .72222 .5 1.3333)" gradientUnits="userSpaceOnUse">
   <stop id="stop2635" style="stop-color:#204a87" offset="0"/>
   <stop id="stop2637" style="stop-color:#204a87;stop-opacity:0" offset="1"/>
  </linearGradient>
  <radialGradient id="radialGradient2940" cx="24.5" cy="18.593" r="14.5" gradientTransform="matrix(2.1235 0 0 1.7574 -33.832 -16.265)" gradientUnits="userSpaceOnUse">
   <stop id="stop2625" style="stop-color:#b9b9b9" offset="0"/>
   <stop id="stop2627" style="stop-color:#b9b9b9;stop-opacity:0" offset="1"/>
  </radialGradient>
  <radialGradient id="radialGradient3310" cx="9.5927" cy="9.3275" r="21" gradientTransform="matrix(2.6787 -.0010729 .00049025 1.224 -18.337 -6.2112)" gradientUnits="userSpaceOnUse">
   <stop id="stop3680-9" style="stop-color:#fafafa" offset="0"/>
   <stop id="stop3682-3" style="stop-color:#c1c1c1" offset="1"/>
  </radialGradient>
  <linearGradient id="linearGradient3312" x1="13.872" x2="13.622" y1="5.74" y2="34.835" gradientTransform="matrix(.63415 0 0 .63415 1.2805 -.71951)" gradientUnits="userSpaceOnUse">
   <stop id="stop3688-7" style="stop-color:#aaa" offset="0"/>
   <stop id="stop3690-0" style="stop-color:#787878" offset="1"/>
  </linearGradient>
  <radialGradient id="radialGradient3315" cx="24.307" cy="42.078" r="15.822" gradientTransform="matrix(1.0113 0 0 .31603 -8.581 13.702)" gradientUnits="userSpaceOnUse">
   <stop id="stop4544" offset="0"/>
   <stop id="stop4546" style="stop-opacity:0" offset="1"/>
  </radialGradient>
  <linearGradient id="linearGradient2919" x1="18" x2="18" y1="39" y2="45.78" gradientTransform="matrix(.5 0 0 .5 2 6.5)" gradientUnits="userSpaceOnUse">
   <stop id="stop2709" style="stop-color:#eeeeec" offset="0"/>
   <stop id="stop2711" style="stop-color:#eeeeec;stop-opacity:0" offset="1"/>
  </linearGradient>
 </defs>
 <path id="path3667" d="m32 27a16 5 0 0 1-32 0 16 5 0 1 1 32 0z" style="fill-rule:evenodd;fill:url(#radialGradient3315);opacity:.4"/>
 <rect id="rect4414" x="3.5" y="1.5" width="26" height="26" rx="1.1498" ry="1.0923" style="fill:url(#radialGradient3310);stroke-miterlimit:1;stroke:url(#linearGradient3312)"/>
 <path id="rect2281" d="m11 5v2h-3v-1h3v5h-3v-1h3v5h-3v-1h3v4h-3v1h3v3h1v-3h3v3h1v-3h4v3h-1v-3h5v3h-1v-3h3v-12h-3v-2h1v2h-5v-2h1v2h-4v-2h-1v2h-3v-2h-1zm1 1h3v5h-3v-5zm4 0h4v5h-4v-5zm3 0h5v5h-5v-5zm4 0h3v5h-3v-5zm-11 4h3v5h-3v-5zm4 0h4v5h-4v-5zm3 0h5v5h-5v-5zm4 0h3v5h-3v-5zm-11 4h3v4h-3v-4zm4 0h4v4h-4v-4zm3 0h5v4h-5v-4zm4 0h3v4h-3v-4z" style="fill-rule:evenodd;fill:url(#radialGradient2940)"/>
 <path id="rect2293" d="m20.906 10-3.3267 6.068-6.2182-3.265-4.3385 6.947 0.63194 0.661 3.9088-6.311 6.2844 3.1616 4.0903-6.9005-1.032-0.36111z" style="fill-rule:evenodd;fill:url(#linearGradient2936)"/>
 <rect id="rect2600" transform="rotate(90)" x="22" y="-26" width="1" height="19" style="fill-rule:evenodd;fill:#888a85"/>
 <rect id="rect2231" x="7.019" y="5" width="1" height="18" style="fill-rule:evenodd;fill:#888a85"/>
 <path id="path3715" d="m30.5 27.5a3.5 1.9995 0 1 1-7 0 3.5 1.9995 0 1 1 7 0z" style="fill-rule:evenodd;fill:#ddc910;stroke:#7d6c0f"/>
 <path id="path3713" d="m30.5 25.5a3.5 1.9995 0 1 1-7 0 3.5 1.9995 0 1 1 7 0z" style="fill-rule:evenodd;fill:#ddc910;stroke:#7d6c0f"/>
 <path id="path3711" d="m30.5 23.5a3.5 1.9995 0 1 1-7 0 3.5 1.9995 0 1 1 7 0z" style="fill-rule:evenodd;fill:#ddc910;stroke:#7d6c0f"/>
 <path id="path2809" d="m30.5 21.5a3.5 1.9995 0 1 1-7 0 3.5 1.9995 0 1 1 7 0z" style="fill-rule:evenodd;fill:#ddc910;stroke:#7d6c0f"/>
 <path id="path2793" d="m30.5 19.5a3.5 1.9995 0 1 1-7 0 3.5 1.9995 0 1 1 7 0z" style="fill-rule:evenodd;fill:#fce94f;stroke:#8c7200"/>
 <path id="path2795" d="m29.5 19.5a2.5 1 0 0 1-5 0 2.5 1 0 1 1 5 0z" style="fill:none;opacity:.3;stroke:#fff"/>
 <path id="path2321" d="m2.5 25.5h17v4h-17v-4z" style="fill-rule:evenodd;fill:#4f7f21;stroke-linejoin:round;stroke:#2e5c02"/>
 <path id="path2323" d="m4.302 21.5h13.298l2 4h-17.2l1.902-4z" style="fill-rule:evenodd;fill:#59af05;stroke-linejoin:round;stroke:#2e5c02"/>
 <rect id="rect2325" x="2.8544" y="27.855" width="16.291" height=".66387" style="fill-rule:evenodd;fill:#2e5c02"/>
 <rect id="rect2327" x="2.8544" y="26.527" width="16.291" height=".66387" style="fill-rule:evenodd;fill:#2e5c02"/>
 <path id="path2329" d="m4.963 22.5-1.022 2h14.1l-1.106-2h-11.972z" style="fill:none;opacity:.25;stroke:#fff"/>
 <path id="path2746" d="m14.5 23.5a3.5 1 0 0 1-7 0 3.5 1 0 1 1 7 0z" style="fill-rule:evenodd;fill:#2e5c02"/>
 <path id="path2715" d="m10.1 21.134-0.6 3.9274v4.4389h3v-4.4765l-0.65625-3.8898h-1.7438z" style="fill-rule:evenodd;fill:#d3d7cf;stroke:#555753"/>
 <rect id="rect2673" x="10" y="26" width="2" height="3" style="fill-rule:evenodd;fill:url(#linearGradient2919)"/>
</svg>
