<?xml version="1.0" encoding="UTF-8"?>
<!-- Created with Inkscape (http://www.inkscape.org/) -->
<svg id="svg3309" width="32" height="32" version="1.1" xmlns="http://www.w3.org/2000/svg" xmlns:xlink="http://www.w3.org/1999/xlink">
 <defs id="defs3311">
  <radialGradient id="radialGradient4424" cx="605.71" cy="486.65" r="117.14" gradientTransform="matrix(.024097 0 0 .015375 26.478 38.629)" gradientUnits="userSpaceOnUse" xlink:href="#linearGradient5060"/>
  <linearGradient id="linearGradient5060">
   <stop id="stop5062" offset="0"/>
   <stop id="stop5064" style="stop-opacity:0" offset="1"/>
  </linearGradient>
  <radialGradient id="radialGradient4422" cx="605.71" cy="486.65" r="117.14" gradientTransform="matrix(-.024097 0 0 .015375 21.522 38.629)" gradientUnits="userSpaceOnUse" xlink:href="#linearGradient5060"/>
  <linearGradient id="linearGradient4420" x1="302.86" x2="302.86" y1="366.65" y2="609.51" gradientTransform="matrix(.070414 0 0 .015375 -1.4497 38.629)" gradientUnits="userSpaceOnUse">
   <stop id="stop5050" style="stop-opacity:0" offset="0"/>
   <stop id="stop5056" offset=".5"/>
   <stop id="stop5052" style="stop-opacity:0" offset="1"/>
  </linearGradient>
  <linearGradient id="linearGradient3135" x1="32.892" x2="36.358" y1="8.059" y2="5.4565" gradientTransform="matrix(.65097 0 0 .71843 -.065671 .93096)" gradientUnits="userSpaceOnUse">
   <stop id="stop8591" style="stop-color:#fefefe" offset="0"/>
   <stop id="stop8593" style="stop-color:#cbcbcb" offset="1"/>
  </linearGradient>
  <linearGradient id="linearGradient3476" x1="25.132" x2="25.132" y1="6.7287" y2="47.013" gradientTransform="matrix(.62848 0 0 .62222 .41485 1.5648)" gradientUnits="userSpaceOnUse">
   <stop id="stop3602" style="stop-color:#f4f4f4" offset="0"/>
   <stop id="stop3604" style="stop-color:#dbdbdb" offset="1"/>
  </linearGradient>
  <linearGradient id="linearGradient3478" x1="-51.786" x2="-51.786" y1="50.786" y2="2.9062" gradientTransform="matrix(.5075 0 0 .58231 37.753 .87137)" gradientUnits="userSpaceOnUse">
   <stop id="stop3106" style="stop-color:#aaa" offset="0"/>
   <stop id="stop3108" style="stop-color:#d2d2d2" offset="1"/>
  </linearGradient>
  <linearGradient id="linearGradient8639" x1="23.576" x2="23.576" y1="25.357" y2="31.211" gradientTransform="matrix(.41578 -.41749 .51898 .51462 -15.747 2.6504)" gradientUnits="userSpaceOnUse">
   <stop id="stop2541-6" style="stop-color:#181818" offset="0"/>
   <stop id="stop2543-0" style="stop-color:#dbdbdb" offset=".13483"/>
   <stop id="stop2545-2" style="stop-color:#a4a4a4" offset=".20224"/>
   <stop id="stop2547-5" style="stop-color:#fff" offset=".26966"/>
   <stop id="stop2549-8" style="stop-color:#8d8d8d" offset=".4465"/>
   <stop id="stop2551-9" style="stop-color:#959595" offset=".57114"/>
   <stop id="stop2553-5" style="stop-color:#cecece" offset=".72038"/>
   <stop id="stop2555-0" style="stop-color:#181818" offset="1"/>
  </linearGradient>
  <linearGradient id="linearGradient8641" x1="30.038" x2="30.038" y1="24.99" y2="30" gradientTransform="matrix(.40402 -.40569 .60738 .60227 -17.868 .69303)" gradientUnits="userSpaceOnUse">
   <stop id="stop2559-0" style="stop-color:#565656" offset="0"/>
   <stop id="stop2561-3" style="stop-color:#9a9a9a" offset=".5"/>
   <stop id="stop2563-4" style="stop-color:#545454" offset="1"/>
  </linearGradient>
  <linearGradient id="linearGradient8643" x1="30.038" x2="30.038" y1="24.99" y2="30" gradientTransform="matrix(.40402 -.40569 .60738 .60227 -17.983 .80921)" gradientUnits="userSpaceOnUse">
   <stop id="stop2567-5" style="stop-color:#b1b1b1" offset="0"/>
   <stop id="stop2569-6" style="stop-color:#fff" offset=".5"/>
   <stop id="stop2571-5" style="stop-color:#8f8f8f" offset="1"/>
  </linearGradient>
  <linearGradient id="linearGradient8645" x1="30.038" x2="30.038" y1="24.99" y2="30" gradientTransform="matrix(.40402 -.40569 .60738 .60227 -17.466 .28929)" gradientUnits="userSpaceOnUse">
   <stop id="stop2575-3" style="stop-color:#565656" offset="0"/>
   <stop id="stop2577-0" style="stop-color:#9a9a9a" offset=".5"/>
   <stop id="stop2579-2" style="stop-color:#545454" offset="1"/>
  </linearGradient>
  <linearGradient id="linearGradient8647" x1="30.038" x2="30.038" y1="24.99" y2="30" gradientTransform="matrix(.40402 -.40569 .60738 .60227 -17.581 .40547)" gradientUnits="userSpaceOnUse">
   <stop id="stop2583-2" style="stop-color:#b1b1b1" offset="0"/>
   <stop id="stop2585-2" style="stop-color:#fff" offset=".5"/>
   <stop id="stop2587-1" style="stop-color:#8f8f8f" offset="1"/>
  </linearGradient>
  <linearGradient id="linearGradient8649" x1="30.038" x2="30.038" y1="24.99" y2="30" gradientTransform="matrix(.40402 -.40569 .60738 .60227 -17.062 -.11641)" gradientUnits="userSpaceOnUse">
   <stop id="stop2591-4" style="stop-color:#565656" offset="0"/>
   <stop id="stop2593-7" style="stop-color:#9a9a9a" offset=".5"/>
   <stop id="stop2595-9" style="stop-color:#545454" offset="1"/>
  </linearGradient>
  <linearGradient id="linearGradient8651" x1="30.038" x2="30.038" y1="24.99" y2="30" gradientTransform="matrix(.40402 -.40569 .60738 .60227 -17.177 -.0002197)" gradientUnits="userSpaceOnUse">
   <stop id="stop2599-2" style="stop-color:#b1b1b1" offset="0"/>
   <stop id="stop2601-7" style="stop-color:#fff" offset=".5"/>
   <stop id="stop2603-3" style="stop-color:#8f8f8f" offset="1"/>
  </linearGradient>
  <linearGradient id="linearGradient8653" x1="9" x2="9" y1="29.057" y2="26.03" gradientTransform="matrix(.40402 -.40569 .60738 .60227 -17.637 .46249)" gradientUnits="userSpaceOnUse">
   <stop id="stop2607-8" style="stop-color:#ece5a5" offset="0"/>
   <stop id="stop2609-5" style="stop-color:#fcfbf2" offset="1"/>
  </linearGradient>
  <linearGradient id="linearGradient8655" x1="5.5179" x2="9.5221" y1="37.372" y2="41.392" gradientTransform="matrix(.37638 .036153 .0367 .37487 -2.2183 -1.1331)" gradientUnits="userSpaceOnUse">
   <stop id="stop2613-6" style="stop-color:#dbce48" offset="0"/>
   <stop id="stop2615-5" style="stop-color:#c5b625" offset="1"/>
  </linearGradient>
 </defs>
 <g id="g3704" transform="matrix(.625 0 0 .80346 .5 -6.5659)">
  <rect id="rect3706" x="7" y="44.266" width="34" height="3.7339" style="fill:url(#linearGradient4420);opacity:.40206"/>
  <path id="path3708" d="m7 44.266v3.7337c-1.2409 7e-3 -3-0.83652-3-1.8671 0-1.0305 1.3848-1.8666 3-1.8666z" style="fill:url(#radialGradient4422);opacity:.40206"/>
  <path id="path3710" d="m41 44.266v3.7337c1.2409 7e-3 3-0.83652 3-1.8671 0-1.0305-1.3848-1.8666-3-1.8666z" style="fill:url(#radialGradient4424);opacity:.40206"/>
 </g>
 <path id="path3712" d="m4.5 2.4981h15.122c0.88424 0.30201 5.6346 3.7428 6.8751 6.1251v21.875h-21.997v-28z" style="fill:url(#linearGradient3476);stroke-linejoin:round;stroke-width:.99992;stroke:url(#linearGradient3478)"/>
 <path id="path3755" d="m19.25 2.25c0.41595 2.7848 0.39766 6.099 0.39766 6.099s3.1774-0.075272 7.1023 0.40095c-3.1951-3.2322-5.4341-4.5799-7.5-6.5z" style="fill-opacity:.32663;fill-rule:evenodd;stroke-linejoin:round;stroke-opacity:.16583;stroke-width:.5;stroke:#000"/>
 <path id="path3757" d="m19.178 2.043c0.92144 2.783 0.84501 5.5767 0.84501 5.5767s5.1108 0.36948 6.639 1.076c0-1.1552-6.0664-6.633-7.484-6.6527z" style="fill-rule:evenodd;fill:url(#linearGradient3135)"/>
 <g id="layer1" transform="translate(13 10.964)">
  <g id="g8626" transform="matrix(1.03 0 0 1.0325 -.016773 -.52153)">
   <path id="rect2383" d="m2.0488 11.037c0.28654-0.20771 1.148 0.25639 1.9603 1.0619 0.81045 0.80363 1.2602 1.6413 1.0576 1.9306-7.708e-4 0.0011 0.01977 0.01774 0.01898 0.01882l10.138-10.18c0.25741-0.25847-0.21311-1.1436-1.0513-1.9748-0.83818-0.83113-1.7282-1.2951-1.9856-1.0366l-10.138 10.18z" style="fill:url(#linearGradient8639);stroke-linejoin:round;stroke-width:.48484;stroke:#0c0c0c"/>
   <path id="rect3175" d="m10.565 2.4841c0.28654-0.20771 1.148 0.25639 1.9603 1.0619 0.81044 0.80363 1.2602 1.6413 1.0576 1.9306-7.69e-4 0.0011 0.01977 0.017738 0.01898 0.018821l1.5519-1.5571c0.40848-0.40858-0.029278-1.0928-0.98137-2.0447-0.81239-0.80556-1.6738-1.2697-1.9603-1.0619l-0.02525 0.025356-1.6218 1.6271z" style="fill:#ffb6ed;opacity:.8;stroke-linejoin:round;stroke-width:.48484;stroke:#e28ccd"/>
   <path id="path3208" d="m2.0488 11.037c0.28654-0.20771 1.148 0.25639 1.9603 1.0619 0.81044 0.80363 1.2602 1.6413 1.0576 1.9306-7.714e-4 0.0011 0.01977 0.01774 0.01898 0.01882l6.982-7.0109 0.02525-0.025356c7.9e-4 -0.00108-0.01975-0.01772-0.01898-0.01882 0.20264-0.28925-0.24711-1.1269-1.0576-1.9306-0.81239-0.80556-1.6738-1.2697-1.9603-1.0619l-7.0073 7.0362z" style="fill:#0c0c0c;opacity:.6"/>
   <path id="path3233" d="m9.1785 3.8767c0.28654-0.20771 1.148 0.25639 1.9603 1.0619 0.81044 0.80363 1.2602 1.6413 1.0576 1.9306-7.71e-4 0.0011 0.01977 0.017736 0.01898 0.01882l0.12626-0.12678c7.9e-4 -0.00108-0.01975-0.01772-0.01898-0.01882 0.20264-0.28925-0.24711-1.1269-1.0576-1.9306-0.81239-0.80556-1.6738-1.2697-1.9603-1.0619l-0.12626 0.12678z" style="fill:url(#linearGradient8641)"/>
   <path id="path3216" d="m9.0628 3.9929c0.28654-0.20771 1.148 0.25639 1.9603 1.0619 0.81044 0.80363 1.2602 1.6413 1.0576 1.9306-7.71e-4 0.0011 0.01977 0.017738 0.01898 0.018822l0.12626-0.12678c7.9e-4 -0.00108-0.01975-0.017721-0.01898-0.018821 0.20264-0.28924-0.24711-1.1269-1.0576-1.9306-0.81239-0.80556-1.6738-1.2697-1.9603-1.0619l-0.12626 0.12678z" style="fill:url(#linearGradient8643)"/>
   <path id="path3248" d="m9.5806 3.473c0.28654-0.20771 1.148 0.25639 1.9603 1.0619 0.81045 0.80363 1.2602 1.6413 1.0576 1.9306-7.73e-4 0.0011 0.01977 0.017737 0.01898 0.01882l0.12626-0.12678c7.91e-4 -0.00108-0.01975-0.017721-0.01898-0.01882 0.20264-0.28925-0.24711-1.1269-1.0576-1.9306-0.81239-0.80556-1.6738-1.2697-1.9603-1.0619l-0.12626 0.12678z" style="fill:url(#linearGradient8645)"/>
   <path id="path3250" d="m9.4649 3.5891c0.28654-0.20771 1.148 0.25639 1.9603 1.0619 0.81045 0.80363 1.2602 1.6413 1.0576 1.9306-7.69e-4 0.0011 0.01977 0.017737 0.01898 0.018821l0.12626-0.12678c7.9e-4 -0.00108-0.01975-0.01772-0.01898-0.01882 0.20264-0.28924-0.24711-1.1269-1.0576-1.9306-0.81239-0.80556-1.6738-1.2697-1.9603-1.0619l-0.12626 0.12678z" style="fill:url(#linearGradient8647)"/>
   <path id="path3256" d="m9.9846 3.0673c0.28654-0.20771 1.148 0.25639 1.9603 1.0619 0.81045 0.80363 1.2602 1.6413 1.0576 1.9306-7.7e-4 0.0011 0.01977 0.017738 0.01898 0.018821l0.12626-0.12678c7.92e-4 -0.00108-0.01975-0.017721-0.01898-0.018821 0.20264-0.28924-0.24711-1.1269-1.0576-1.9306-0.81238-0.80556-1.6738-1.2697-1.9603-1.0619l-0.12626 0.12678z" style="fill:url(#linearGradient8649)"/>
   <path id="path3258" d="m9.8689 3.1835c0.28654-0.20771 1.148 0.25639 1.9603 1.0619 0.81044 0.80363 1.2602 1.6413 1.0576 1.9306-7.71e-4 0.0011 0.01977 0.017737 0.01898 0.018821l0.12626-0.12678c7.89e-4 -0.00108-0.01975-0.017722-0.01898-0.018821 0.20264-0.28925-0.24711-1.1269-1.0576-1.9306-0.81239-0.80556-1.6738-1.2697-1.9603-1.0619l-0.12626 0.12678z" style="fill:url(#linearGradient8651)"/>
   <path id="path3270" d="m0.25981 15.794 4.7719-1.7255 0.039308-0.03926c0.20264-0.28924-0.2524-1.1273-1.0628-1.9309-0.81239-0.80556-1.6727-1.2673-1.9592-1.0596l-1.7891 4.7552z" style="fill-rule:evenodd;fill:url(#linearGradient8653);stroke-width:.48484;stroke:url(#linearGradient8655)"/>
   <path id="path3281" d="m0.74443 14.506-0.48521 1.2827 1.3014-0.47339c-0.11369-0.13314-0.21928-0.26784-0.35436-0.40177-0.15551-0.1542-0.30708-0.28067-0.4618-0.40752z" style="fill-rule:evenodd;fill:#0c0c0c;stroke-width:.48484;stroke:#0c0c0c"/>
  </g>
 </g>
</svg>
