<?xml version="1.0" encoding="UTF-8" standalone="no"?>
<!-- Created with Inkscape (http://www.inkscape.org/) -->

<svg
   xmlns:dc="http://purl.org/dc/elements/1.1/"
   xmlns:cc="http://creativecommons.org/ns#"
   xmlns:rdf="http://www.w3.org/1999/02/22-rdf-syntax-ns#"
   xmlns:svg="http://www.w3.org/2000/svg"
   xmlns="http://www.w3.org/2000/svg"
   xmlns:xlink="http://www.w3.org/1999/xlink"
   xmlns:sodipodi="http://sodipodi.sourceforge.net/DTD/sodipodi-0.dtd"
   xmlns:inkscape="http://www.inkscape.org/namespaces/inkscape"
   sodipodi:docname="alarm-clock.svg"
   inkscape:version="0.48.3.1 r9886"
   version="1.1"
   id="svg27665"
   height="21.999996"
   width="21.999996">
  <defs
     id="defs27667">
    <linearGradient
       inkscape:collect="always"
       xlink:href="#linearGradient7209-9"
       id="linearGradient4053"
       gradientUnits="userSpaceOnUse"
       gradientTransform="matrix(29.577241,0,0,29.577241,-3518.0383,-79.323202)"
       x1="11.000001"
       y1="18.999996"
       x2="11.000001"
       y2="1.9999962" />
    <linearGradient
       inkscape:collect="always"
       xlink:href="#linearGradient9097-0"
       id="linearGradient3857"
       x1="-3606.77"
       y1="482.64426"
       x2="-3606.77"
       y2="-20.168833"
       gradientUnits="userSpaceOnUse" />
    <linearGradient
       inkscape:collect="always"
       xlink:href="#linearGradient7251-3"
       id="linearGradient3859"
       x1="-3636.3472"
       y1="482.64426"
       x2="-3636.3472"
       y2="-20.168833"
       gradientUnits="userSpaceOnUse" />
    <linearGradient
       inkscape:collect="always"
       xlink:href="#linearGradient7209-9"
       id="linearGradient3070"
       gradientUnits="userSpaceOnUse"
       x1="-3195.645"
       y1="506.50485"
       x2="-3195.645"
       y2="43.362446" />
    <linearGradient
       id="linearGradient7209-9">
      <stop
         id="stop7211-8"
         offset="0"
         style="stop-color:#a1988f;stop-opacity:1;" />
      <stop
         id="stop7213-9"
         offset="1"
         style="stop-color:#e4dfd4;stop-opacity:1;" />
    </linearGradient>
    <linearGradient
       inkscape:collect="always"
       xlink:href="#linearGradient9097-0"
       id="linearGradient3120"
       gradientUnits="userSpaceOnUse"
       gradientTransform="translate(3.6033726e-5,-1.3372609e-7)"
       x1="-3195.645"
       y1="506.50485"
       x2="-3195.645"
       y2="43.362446" />
    <linearGradient
       id="linearGradient9097-0">
      <stop
         style="stop-color:#000000;stop-opacity:0.49634215;"
         offset="0"
         id="stop9099-4" />
      <stop
         style="stop-color:#000000;stop-opacity:0.41474396;"
         offset="1"
         id="stop9101-5" />
    </linearGradient>
    <linearGradient
       inkscape:collect="always"
       xlink:href="#linearGradient7251-3"
       id="linearGradient3057"
       x1="-3224.5908"
       y1="506.50552"
       x2="-3224.5908"
       y2="43.362446"
       gradientUnits="userSpaceOnUse" />
    <linearGradient
       id="linearGradient7251-3">
      <stop
         style="stop-color:#ffffff;stop-opacity:1;"
         offset="0"
         id="stop7253-27" />
      <stop
         style="stop-color:#ffffff;stop-opacity:1;"
         offset="1"
         id="stop7255-3" />
    </linearGradient>
  </defs>
  <sodipodi:namedview
     id="base"
     pagecolor="#ffffff"
     bordercolor="#666666"
     borderopacity="1.0"
     inkscape:pageopacity="0.0"
     inkscape:pageshadow="2"
     inkscape:zoom="16.000001"
     inkscape:cx="29.04565"
     inkscape:cy="6.422311"
     inkscape:document-units="px"
     inkscape:current-layer="layer1"
     showgrid="true"
     inkscape:window-width="1680"
     inkscape:window-height="1000"
     inkscape:window-x="-8"
     inkscape:window-y="23"
     inkscape:window-maximized="1"
     inkscape:snap-bbox="true"
     inkscape:bbox-paths="true"
     inkscape:bbox-nodes="true"
     inkscape:snap-bbox-edge-midpoints="true"
     inkscape:snap-bbox-midpoints="true"
     inkscape:object-paths="true"
     inkscape:snap-intersection-paths="true"
     inkscape:object-nodes="true"
     inkscape:snap-smooth-nodes="true"
     inkscape:snap-midpoints="true"
     inkscape:snap-object-midpoints="true"
     inkscape:snap-center="true"
     inkscape:snap-global="true"
     showguides="false"
     inkscape:guide-bbox="true"
     fit-margin-top="0"
     fit-margin-left="0"
     fit-margin-right="0"
     fit-margin-bottom="0"
     inkscape:showpageshadow="false">
    <sodipodi:guide
       orientation="0,1"
       position="599.99995,299.99996"
       id="guide3572" />
    <sodipodi:guide
       orientation="1,0"
       position="294.41945,12.121743"
       id="guide3574" />
    <sodipodi:guide
       orientation="0,1"
       position="456.04385,599.99995"
       id="guide3576" />
    <sodipodi:guide
       orientation="0,1"
       position="-4.6131494e-05,-5.7459226e-05"
       id="guide3578" />
    <sodipodi:guide
       orientation="1,0"
       position="-4.6131494e-05,157.58369"
       id="guide3580" />
    <sodipodi:guide
       orientation="1,0"
       position="599.99995,121.21824"
       id="guide3582" />
    <sodipodi:guide
       orientation="0,1"
       position="599.99995,-714.34356"
       id="guide5928" />
    <sodipodi:guide
       orientation="0,1"
       position="599.99995,-414.34356"
       id="guide5930" />
    <sodipodi:guide
       orientation="0,1"
       position="599.99995,-1014.3435"
       id="guide5932" />
    <sodipodi:guide
       orientation="0,1"
       position="451.57025,524.99609"
       id="guide5294" />
    <sodipodi:guide
       orientation="0,1"
       position="451.57025,75.013543"
       id="guide5296" />
    <sodipodi:guide
       orientation="0,1"
       position="496.01495,-931.36406"
       id="guide5413" />
    <sodipodi:guide
       orientation="0,1"
       position="457.34855,-489.34386"
       id="guide5415" />
    <inkscape:grid
       type="xygrid"
       id="grid3066"
       empspacing="5"
       visible="true"
       enabled="true"
       snapvisiblegridlinesonly="true" />
  </sodipodi:namedview>
  <metadata
     id="metadata27670">
    <rdf:RDF>
      <cc:Work
         rdf:about="">
        <dc:format>image/svg+xml</dc:format>
        <dc:type
           rdf:resource="http://purl.org/dc/dcmitype/StillImage" />
        <dc:title />
      </cc:Work>
    </rdf:RDF>
  </metadata>
  <g
     inkscape:label="Camada 1"
     inkscape:groupmode="layer"
     id="layer1"
     transform="translate(3364.4171,-2094.7186)">
    <g
       id="normal"
       transform="matrix(0.03380978,0,0,0.03380978,-3245.473,2097.4005)"
       inkscape:label="#g3217">
      <rect
         y="-79.323952"
         x="-3518.0396"
         height="650.69916"
         width="650.69916"
         id="rect3219"
         style="opacity:0.00100002;fill:#ffffff;stroke:none" />
      <g
         id="g6088">
        <path
           inkscape:connector-curvature="0"
           style="font-size:medium;font-style:normal;font-variant:normal;font-weight:normal;font-stretch:normal;text-indent:0;text-align:start;text-decoration:none;line-height:normal;letter-spacing:normal;word-spacing:normal;text-transform:none;direction:ltr;block-progression:tb;writing-mode:lr-tb;text-anchor:start;baseline-shift:baseline;color:#000000;fill:url(#linearGradient4053);fill-opacity:1;stroke:none;stroke-width:2.28571415;marker:none;visibility:visible;display:inline;overflow:visible;enable-background:accumulate;font-family:Sans;-inkscape-font-specification:Sans"
           d="m -3355.3635,-20.16872 c -57.1727,0 -103.5203,46.347634 -103.5203,103.520344 0,22.641406 7.0789,43.963266 19.41,61.003056 27.1364,-65.189987 79.9234,-117.976956 145.1134,-145.11333559 -17.0398,-12.33118341 -38.3617,-19.41006441 -61.0031,-19.41006441 z m 325.3497,0 c -22.6414,0 -43.9633,7.078881 -61.0031,19.41006441 65.19,27.13637959 117.977,79.92334859 145.1134,145.11333559 12.3312,-17.03979 19.41,-38.36165 19.41,-61.003056 0,-57.17271 -46.3476,-103.520344 -103.5203,-103.520344 z m -162.6748,29.577241 c -130.3302,0 -236.618,106.287789 -236.618,236.617929 0,130.33016 106.2878,236.61793 236.618,236.61793 130.3301,0 236.6179,-106.28777 236.6179,-236.61793 0,-130.33014 -106.2878,-236.617929 -236.6179,-236.617929 z m 0,59.154482 c 98.3607,0 177.4634,79.102757 177.4634,177.463447 0,98.36068 -79.1027,177.46345 -177.4634,177.46345 -98.3606,0 -177.4635,-79.10277 -177.4635,-177.46345 0,-98.36069 79.1029,-177.463447 177.4635,-177.463447 z m -14.7887,59.154477 0,147.88621 29.5773,0 103.5203,0 0,-29.57724 -103.5203,0 0,-118.30897 -29.5773,0 z"
           id="path4049" />
        <path
           style="font-size:medium;font-style:normal;font-variant:normal;font-weight:normal;font-stretch:normal;text-indent:0;text-align:start;text-decoration:none;line-height:normal;letter-spacing:normal;word-spacing:normal;text-transform:none;direction:ltr;block-progression:tb;writing-mode:lr-tb;text-anchor:start;baseline-shift:baseline;color:#000000;fill:url(#linearGradient3859);fill-opacity:1;stroke:none;stroke-width:2.28571415000000000;marker:none;visibility:visible;display:inline;overflow:visible;enable-background:accumulate;font-family:Sans;-inkscape-font-specification:Sans"
           d="m -3355.3635,-20.168721 c -57.1727,0 -103.5203,46.347635 -103.5203,103.520344 0,22.641407 7.0789,43.963267 19.41,61.003057 0.9018,-2.16637 1.8149,-4.33153 2.7729,-6.47002 -5.0399,-12.35111 -7.3943,-25.65849 -7.3943,-39.744417 0,-57.172709 46.3476,-103.5203428 103.5203,-103.5203428 14.086,0 27.3933,2.354419 39.7445,7.3943102 2.1384,-0.957956 4.3036,-1.87107703 6.47,-2.77286603 -17.0398,-12.33118437 -38.3617,-19.41006537 -61.0031,-19.41006537 z m 325.3497,0 c -22.6414,0 -43.9633,7.078881 -61.0031,19.41006537 7.5127,3.12730203 15.0199,6.37881113 22.1829,10.16717653 15.6951,-9.41500053 34.0195,-14.7886207 53.6088,-14.7886207 24.7601,0 46.886,9.5314492 64.7002,24.0315078 -18.9815,-23.3199768 -47.0762,-38.820129 -79.4888,-38.820129 z m -162.6749,29.5772419 c -130.3302,0 -236.6179,106.2877891 -236.6179,236.6179291 0,68.9851 29.3555,131.37406 76.716,174.69058 -38.5193,-42.11533 -61.9274,-98.5569 -61.9274,-159.90196 0,-130.33014 106.2878,-236.617929 236.618,-236.617929 61.345,0 117.7866,23.408106 159.9019,61.927348 -43.3165,-47.360465 -105.7055,-76.7159681 -174.6906,-76.7159681 z m 195.9493,55.4573261 c 21.4008,23.109429 38.6211,50.145213 50.8358,79.488833 1.6623,-2.29703 3.1546,-4.94891 4.6215,-7.39431 -14.2875,-27.01464 -33.1433,-51.430327 -55.4573,-72.094523 z m -210.7379,62.851633 0,147.88621 14.7886,0 0,-133.09759 14.7887,0 0,-14.78862 -29.5773,0 z m 146.9619,0.92429 c 27.8017,31.30551 45.2902,72.00135 45.2902,117.38468 0,98.36068 -79.1027,177.46344 -177.4635,177.46344 -45.3833,0 -86.0791,-17.48849 -117.3846,-45.29015 32.4537,36.5439 79.196,60.07877 132.1733,60.07877 98.3607,0 177.4634,-79.10276 177.4634,-177.46344 0,-52.97736 -23.5349,-99.71958 -60.0788,-132.1733 z m -102.596,117.38468 0,14.78862 88.7317,0 0,-14.78862 -88.7317,0 z"
           id="path3793"
           inkscape:connector-curvature="0" />
        <path
           style="font-size:medium;font-style:normal;font-variant:normal;font-weight:normal;font-stretch:normal;text-indent:0;text-align:start;text-decoration:none;line-height:normal;letter-spacing:normal;word-spacing:normal;text-transform:none;direction:ltr;block-progression:tb;writing-mode:lr-tb;text-anchor:start;baseline-shift:baseline;opacity:1;color:#000000;fill:url(#linearGradient3857);fill-opacity:1;stroke:none;stroke-width:2.28571415000000000;marker:none;visibility:visible;display:inline;overflow:visible;enable-background:accumulate;font-family:Sans;-inkscape-font-specification:Sans"
           d="m -3315.619,-12.77441 c -60.0741,26.910664 -108.9598,75.796425 -135.8705,135.87045 3.0611,7.5018 7.3562,14.81984 12.0158,21.25864 27.1364,-65.189987 79.9233,-117.976956 145.1133,-145.11333547 -6.4388,-4.65956893 -13.7568,-8.95463393 -21.2586,-12.01575453 z m 231.9964,7.3943106 c -2.4454,1.4669277 -5.0972,2.9591527 -7.3943,4.62144393 29.3437,12.21475547 56.3794,29.43507247 79.4889,50.83588347 -20.6642,-22.314003 -45.0799,-41.1698692 -72.0946,-55.4573274 z m 118.309,9.2428882 c 14.5001,17.8141862 24.0315,39.9401332 24.0315,64.7002142 0,19.589258 -5.3736,37.913717 -14.7886,53.608747 3.7884,7.16302 7.0399,14.67018 10.1672,22.18293 12.3312,-17.03979 19.41,-38.36165 19.41,-61.003056 0,-32.412625 -15.5001,-60.507274 -38.8201,-79.4888352 z m -242.1636,49.9115942 c -98.3606,0 -177.4635,79.102757 -177.4635,177.463447 0,52.97736 23.5349,99.71958 60.0788,132.17329 -27.8017,-31.30549 -45.2902,-72.00135 -45.2902,-117.38467 0,-98.36069 79.1029,-177.463447 177.4635,-177.463447 45.3833,0 86.0791,17.488505 117.3846,45.290147 -32.4536,-36.543873 -79.1959,-60.078767 -132.1732,-60.078767 z m 174.6905,17.561487 c 38.5193,42.11533 61.9274,98.55691 61.9274,159.90196 0,130.33016 -106.2878,236.61793 -236.6179,236.61793 -61.3451,0 -117.7867,-23.40811 -159.902,-61.92735 43.3165,47.36047 105.7054,76.71597 174.6906,76.71597 130.3301,0 236.6179,-106.28777 236.6179,-236.61793 0,-68.98509 -29.3555,-131.37407 -76.716,-174.69058 z m -159.9019,56.38162 0,103.52034 14.7886,0 0,-103.52034 -14.7886,0 z m 103.5203,118.30896 0,14.78862 -103.5203,0 -14.7886,0 0,14.78862 29.5772,0 103.5203,0 0,-29.57724 -14.7886,0 z"
           id="path3085"
           inkscape:connector-curvature="0" />
      </g>
    </g>
  </g>
</svg>
