<?xml version="1.0" encoding="UTF-8" standalone="no"?>
<!-- Created with Inkscape (http://www.inkscape.org/) -->

<svg
   xmlns:dc="http://purl.org/dc/elements/1.1/"
   xmlns:cc="http://creativecommons.org/ns#"
   xmlns:rdf="http://www.w3.org/1999/02/22-rdf-syntax-ns#"
   xmlns:svg="http://www.w3.org/2000/svg"
   xmlns="http://www.w3.org/2000/svg"
   xmlns:xlink="http://www.w3.org/1999/xlink"
   xmlns:sodipodi="http://sodipodi.sourceforge.net/DTD/sodipodi-0.dtd"
   xmlns:inkscape="http://www.inkscape.org/namespaces/inkscape"
   sodipodi:docname="audacious-panel.svg"
   inkscape:version="0.48.3.1 r9886"
   version="1.1"
   id="svg27665"
   height="21.999996"
   width="21.999996">
  <defs
     id="defs27667">
    <linearGradient
       inkscape:collect="always"
       xlink:href="#linearGradient7209-9"
       id="linearGradient3035"
       x1="-3192.6887"
       y1="512.2215"
       x2="-3192.6887"
       y2="-20.168833"
       gradientUnits="userSpaceOnUse" />
    <linearGradient
       inkscape:collect="always"
       xlink:href="#linearGradient9097-0"
       id="linearGradient3079"
       x1="-3577.1929"
       y1="512.2215"
       x2="-3577.1929"
       y2="-20.168833"
       gradientUnits="userSpaceOnUse" />
    <linearGradient
       inkscape:collect="always"
       xlink:href="#linearGradient7251-3"
       id="linearGradient3088"
       x1="-3665.9246"
       y1="512.2215"
       x2="-3665.9246"
       y2="-20.168833"
       gradientUnits="userSpaceOnUse" />
    <linearGradient
       inkscape:collect="always"
       xlink:href="#linearGradient7209-9"
       id="linearGradient3111"
       gradientUnits="userSpaceOnUse"
       gradientTransform="translate(1.12281e-5,6.3790002e-7)"
       x1="-3192.6887"
       y1="423.48981"
       x2="-3192.6887"
       y2="68.562889" />
    <linearGradient
       id="linearGradient7209-9">
      <stop
         id="stop7211-8"
         offset="0"
         style="stop-color:#a1988f;stop-opacity:1;" />
      <stop
         id="stop7213-9"
         offset="1"
         style="stop-color:#e4dfd4;stop-opacity:1;" />
    </linearGradient>
    <linearGradient
       inkscape:collect="always"
       xlink:href="#linearGradient9097-0"
       id="linearGradient3118"
       gradientUnits="userSpaceOnUse"
       gradientTransform="translate(1.5943294e-4,1.6329418e-6)"
       x1="-3192.6887"
       y1="423.48981"
       x2="-3192.6887"
       y2="68.562889" />
    <linearGradient
       id="linearGradient9097-0">
      <stop
         style="stop-color:#000000;stop-opacity:0.49634215;"
         offset="0"
         id="stop9099-4" />
      <stop
         style="stop-color:#000000;stop-opacity:0.41474396;"
         offset="1"
         id="stop9101-5" />
    </linearGradient>
    <linearGradient
       id="linearGradient7251-3">
      <stop
         style="stop-color:#ffffff;stop-opacity:1;"
         offset="0"
         id="stop7253-27" />
      <stop
         style="stop-color:#ffffff;stop-opacity:1;"
         offset="1"
         id="stop7255-3" />
    </linearGradient>
    <linearGradient
       y2="68.563004"
       x2="-3577.1929"
       y1="423.4899"
       x1="-3577.1929"
       gradientUnits="userSpaceOnUse"
       id="linearGradient3146"
       xlink:href="#linearGradient7251-3"
       inkscape:collect="always" />
  </defs>
  <sodipodi:namedview
     id="base"
     pagecolor="#ffffff"
     bordercolor="#666666"
     borderopacity="1.0"
     inkscape:pageopacity="0.0"
     inkscape:pageshadow="2"
     inkscape:zoom="22.627418"
     inkscape:cx="18.958284"
     inkscape:cy="8.8787351"
     inkscape:document-units="px"
     inkscape:current-layer="normal"
     showgrid="true"
     inkscape:window-width="1920"
     inkscape:window-height="1056"
     inkscape:window-x="1672"
     inkscape:window-y="-3"
     inkscape:window-maximized="1"
     inkscape:snap-bbox="true"
     inkscape:bbox-paths="true"
     inkscape:bbox-nodes="true"
     inkscape:snap-bbox-edge-midpoints="true"
     inkscape:snap-bbox-midpoints="true"
     inkscape:object-paths="true"
     inkscape:snap-intersection-paths="true"
     inkscape:object-nodes="true"
     inkscape:snap-smooth-nodes="true"
     inkscape:snap-midpoints="true"
     inkscape:snap-object-midpoints="true"
     inkscape:snap-center="true"
     inkscape:snap-global="true"
     showguides="false"
     inkscape:guide-bbox="true"
     fit-margin-top="0"
     fit-margin-left="0"
     fit-margin-right="0"
     fit-margin-bottom="0"
     inkscape:showpageshadow="false">
    <sodipodi:guide
       orientation="0,1"
       position="599.99995,299.99996"
       id="guide3572" />
    <sodipodi:guide
       orientation="1,0"
       position="294.41945,12.121743"
       id="guide3574" />
    <sodipodi:guide
       orientation="0,1"
       position="456.04385,599.99995"
       id="guide3576" />
    <sodipodi:guide
       orientation="0,1"
       position="-4.6131494e-05,-5.7459226e-05"
       id="guide3578" />
    <sodipodi:guide
       orientation="1,0"
       position="-4.6131494e-05,157.58369"
       id="guide3580" />
    <sodipodi:guide
       orientation="1,0"
       position="599.99995,121.21824"
       id="guide3582" />
    <sodipodi:guide
       orientation="0,1"
       position="599.99995,-714.34356"
       id="guide5928" />
    <sodipodi:guide
       orientation="0,1"
       position="599.99995,-414.34356"
       id="guide5930" />
    <sodipodi:guide
       orientation="0,1"
       position="599.99995,-1014.3435"
       id="guide5932" />
    <sodipodi:guide
       orientation="0,1"
       position="451.57025,524.99609"
       id="guide5294" />
    <sodipodi:guide
       orientation="0,1"
       position="451.57025,75.013543"
       id="guide5296" />
    <sodipodi:guide
       orientation="0,1"
       position="496.01495,-931.36406"
       id="guide5413" />
    <sodipodi:guide
       orientation="0,1"
       position="457.34855,-489.34386"
       id="guide5415" />
    <inkscape:grid
       type="xygrid"
       id="grid3066"
       empspacing="5"
       visible="true"
       enabled="true"
       snapvisiblegridlinesonly="true" />
  </sodipodi:namedview>
  <metadata
     id="metadata27670">
    <rdf:RDF>
      <cc:Work
         rdf:about="">
        <dc:format>image/svg+xml</dc:format>
        <dc:type
           rdf:resource="http://purl.org/dc/dcmitype/StillImage" />
        <dc:title />
      </cc:Work>
    </rdf:RDF>
  </metadata>
  <g
     inkscape:label="Camada 1"
     inkscape:groupmode="layer"
     id="layer1"
     transform="translate(3364.4171,-2094.7186)">
    <g
       id="normal"
       transform="matrix(0.03380978,0,0,0.03380978,-3245.473,2097.4005)"
       inkscape:label="#g3217">
      <rect
         y="-79.323952"
         x="-3518.0396"
         height="650.69916"
         width="650.69916"
         id="rect3219"
         style="opacity:0.00100002;fill:#ffffff;stroke:none" />
      <g
         id="g3016">
        <path
           inkscape:connector-curvature="0"
           style="fill:url(#linearGradient3035);fill-opacity:1;fill-rule:nonzero;stroke:none"
           d="m -3192.6886,-20.16872 c -147.0156,0 -266.1952,119.179665 -266.1952,266.19517 0,147.01551 119.1796,266.19517 266.1952,266.19517 147.0155,0 266.1951,-119.17966 266.1951,-266.19517 0,-147.015505 -119.1796,-266.19517 -266.1951,-266.19517 z m -1.8486,119.233253 c 23.0893,2.87e-4 42.1781,2.745557 57.3059,8.318597 15.5255,5.1755 27.8151,12.23084 36.9715,22.18293 9.1559,9.55452 16.3532,21.7161 20.3344,36.04727 3.9806,13.93351 5.5454,29.62276 5.5457,47.13872 l 0,167.29627 c -10.7488,2.38857 -26.0399,5.13384 -47.1387,8.3186 -21.0992,3.18476 -44.8963,4.62145 -71.1702,4.62145 -17.9145,0 -34.2581,-1.43669 -48.9874,-4.62145 -14.3315,-3.18476 -26.6211,-8.5472 -36.9715,-15.71291 -10.3505,-7.56376 -18.4582,-17.10818 -24.0315,-28.65295 -5.5733,-11.94279 -8.3186,-26.32345 -8.3186,-43.44157 0,-16.32176 2.8734,-29.52193 9.2429,-40.66871 6.3695,-11.14651 15.1315,-20.96092 25.8801,-27.72866 10.7485,-6.76745 23.0381,-11.07751 36.9715,-13.86433 13.9332,-3.18458 28.3139,-4.62128 43.4416,-4.62145 19.1084,1.7e-4 36.1062,1.43687 50.8359,4.62145 l 0,-9.24289 c -2e-4,-13.93311 -4.1822,-25.04232 -12.9401,-34.19869 -8.7582,-9.55405 -23.7932,-14.7884 -45.2901,-14.78862 -13.9335,2.2e-4 -27.5317,1.70691 -40.6687,3.69716 -12.7391,1.99069 -23.4641,3.68357 -31.4259,6.47002 l -10.1671,-59.15448 c 9.1561,-3.18448 22.1,-5.92975 38.8201,-8.3186 16.7198,-2.786382 33.8458,-3.69687 51.7602,-3.697157 z m 13.8643,165.447687 c -7.564,1.2e-4 -15.0173,0.65443 -22.1829,1.84858 -7.1658,0.79631 -12.9126,2.233 -18.4858,4.62145 -5.1754,2.38868 -9.7553,5.78823 -12.94,10.16717 -3.1849,4.37915 -4.6216,10.3959 -4.6215,17.56149 -1e-4,12.73909 4.3099,22.15539 13.8643,27.72866 9.5541,5.17528 21.8438,7.39437 36.9716,7.39431 l 24.0315,0 c 7.5636,-0.39805 13.8365,-1.05233 19.4101,-1.84857 l 0,-63.77593 c -4.7774,-0.79607 -10.794,-1.45035 -17.5615,-1.84858 -6.7677,-0.79607 -12.9127,-1.84846 -18.4858,-1.84858 z"
           id="path3033" />
        <path
           inkscape:connector-curvature="0"
           id="path3030"
           d="m -3192.6887,-20.16872 c -147.0156,0 -266.1951,119.179661 -266.1951,266.19517 0,77.29124 33.3502,146.39456 85.9588,195.02493 -43.8693,-47.4581 -71.1702,-110.51205 -71.1702,-180.23631 0,-147.01551 119.1796,-266.1951698 266.1952,-266.1951698 69.7242,0 132.7782,27.3008818 180.2363,71.1702358 -48.6304,-52.608594 -117.7337,-85.958856 -195.025,-85.958856 z m 96.1261,154.35623 c 7.332,8.81352 13.2293,19.15857 16.6372,31.42581 3.9806,13.93352 5.5454,29.62277 5.5457,47.13873 l 0,167.29627 c -10.7488,2.38857 -26.0399,5.13384 -47.1387,8.3186 -21.0992,3.18476 -44.8964,4.62144 -71.1703,4.62144 -17.9145,0 -34.258,-1.43668 -48.9873,-4.62144 -14.3315,-3.18476 -26.6211,-8.5472 -36.9715,-15.71291 4.3124,5.41997 9.0453,10.59167 14.7886,14.78862 10.3504,7.16571 22.64,12.52815 36.9715,15.71291 14.7293,3.18476 31.0729,4.62145 48.9874,4.62145 26.2739,0 50.071,-1.43669 71.1702,-4.62145 21.0988,-3.18476 36.3899,-5.93003 47.1387,-8.3186 l 0,-167.29627 c -3e-4,-17.51596 -1.5651,-33.20521 -5.5457,-47.13872 -3.9812,-14.33117 -11.1785,-26.49275 -20.3344,-36.04727 -3.3456,-3.63634 -6.9042,-7.25469 -11.0914,-10.16717 z m -106.2932,25.88008 c -13.9335,2.2e-4 -27.5318,1.70691 -40.6688,3.69716 -7.2681,1.13576 -13.5922,2.49686 -19.41,3.69715 l 2.7728,17.56149 c 7.9618,-2.78645 18.6868,-4.47933 31.4259,-6.47002 13.137,-1.99025 26.7352,-3.69694 40.6687,-3.69716 15.1288,1.6e-4 27.2549,2.52809 36.0472,7.39431 -1.6236,-2.5468 -3.3562,-5.10522 -5.5457,-7.39431 -8.7582,-9.55405 -23.7933,-14.7884 -45.2901,-14.78862 z m 22.1829,104.44463 c -7.564,1.2e-4 -15.0174,0.65443 -22.1829,1.84858 -7.1658,0.79631 -12.9126,2.23299 -18.4858,4.62145 -5.1754,2.38868 -9.7554,5.78823 -12.9401,10.16717 -3.1849,4.37915 -4.6215,10.3959 -4.6214,17.56149 -1e-4,12.73909 4.3099,22.15539 13.8643,27.72866 1.0351,0.56067 2.5978,0.4321 3.6972,0.92429 -1.4949,-4.05267 -2.7729,-8.67273 -2.7729,-13.86433 -10e-5,-7.16559 1.4366,-13.18234 4.6215,-17.56149 3.1847,-4.37894 7.7646,-7.77849 12.94,-10.16717 5.5732,-2.38845 11.32,-3.82514 18.4858,-4.62145 7.1656,-1.19415 14.6189,-1.84846 22.1829,-1.84858 5.5731,1.2e-4 11.7181,1.05251 18.4858,1.84858 1.0568,0.0622 1.7545,-0.0742 2.7728,0 l 0,-12.94004 c -4.7774,-0.79607 -10.7939,-1.45035 -17.5614,-1.84858 -6.7677,-0.79607 -12.9127,-1.84846 -18.4858,-1.84858 z"
           style="opacity:1;fill:url(#linearGradient3088);fill-opacity:1;fill-rule:nonzero;stroke:none" />
        <path
           inkscape:connector-curvature="0"
           id="path3076"
           d="m -3012.4523,51.001516 c 43.8693,47.458104 71.1702,110.512044 71.1702,180.236314 0,147.01551 -119.1796,266.19517 -266.1951,266.19517 -69.7243,0 -132.7782,-27.30089 -180.2364,-71.17024 48.6304,52.6086 117.7337,85.95886 195.025,85.95886 147.0155,0 266.1951,-119.17966 266.1951,-266.19517 0,-77.29124 -33.3503,-146.39456 -85.9588,-195.024934 z m -196.8735,33.274397 c -17.9144,2.89e-4 -35.0404,0.910775 -51.7602,3.697155 -16.7201,2.38885 -29.664,5.134122 -38.8201,8.318602 l 10.1671,59.15448 c 3.4193,-1.19667 7.6366,-1.86938 12.0158,-2.77287 l -7.3943,-41.59299 c 9.1561,-3.18448 22.1,-5.92975 38.8201,-8.3186 16.7198,-2.78638 33.8458,-3.69687 51.7602,-3.69716 23.0893,2.9e-4 42.1781,2.74556 57.3059,8.3186 9.8527,3.28445 18.6075,6.95724 25.8801,12.01576 -1.2336,-1.48285 -2.3786,-3.24544 -3.6972,-4.62145 -9.1564,-9.95209 -21.446,-17.00743 -36.9715,-22.182928 -15.1278,-5.573042 -34.2166,-8.31831 -57.3059,-8.318599 z m 42.5173,83.185987 c 4.8709,7.64043 7.3941,16.35455 7.3943,26.80438 l 0,9.24289 c -14.7297,-3.18458 -31.7275,-4.62128 -50.8359,-4.62145 -15.1277,1.7e-4 -29.5084,1.43687 -43.4416,4.62145 -13.9334,2.78682 -26.223,7.09688 -36.9715,13.86433 -10.7486,6.76774 -19.5106,16.58215 -25.8801,27.72866 -6.3695,11.14678 -9.2429,24.34695 -9.2429,40.66871 0,17.11812 2.7453,31.49878 8.3186,43.44157 5.3813,11.14716 13.2627,20.29365 23.1072,27.72866 -3.1264,-4.07027 -6.0281,-8.19541 -8.3186,-12.94004 -5.5733,-11.94279 -8.3186,-26.32345 -8.3186,-43.44157 0,-16.32176 2.8734,-29.52193 9.2429,-40.66871 6.3695,-11.14651 15.1315,-20.96092 25.8801,-27.72866 10.7485,-6.76745 23.0381,-11.07751 36.9715,-13.86433 13.9332,-3.18459 28.3139,-4.62127 43.4416,-4.62145 19.1084,1.8e-4 36.1062,1.43686 50.8359,4.62145 l 0,-9.24289 c -2e-4,-13.93311 -4.1821,-25.04232 -12.9401,-34.19869 -2.5944,-2.83022 -5.5419,-5.34599 -9.2428,-7.39431 z m 7.3943,98.8989 0,50.83589 c -5.5736,0.79624 -11.8465,1.45052 -19.4101,1.84857 l -24.0315,0 c -13.489,6e-5 -24.2258,-2.41879 -33.2744,-6.47002 2.1732,5.8917 5.4308,10.56236 11.0915,13.86433 9.5541,5.17528 21.8437,7.39437 36.9715,7.39431 l 24.0315,0 c 7.5636,-0.39805 13.8365,-1.05233 19.4101,-1.84857 l 0,-63.77593 c -4.0314,-0.67176 -9.2859,-1.44739 -14.7886,-1.84858 z"
           style="opacity:1;fill:url(#linearGradient3079);fill-opacity:1;fill-rule:nonzero;stroke:none" />
      </g>
    </g>
  </g>
</svg>
