<?xml version="1.0" encoding="UTF-8" standalone="no"?>
<!-- Created with Inkscape (http://www.inkscape.org/) -->

<svg
   xmlns:dc="http://purl.org/dc/elements/1.1/"
   xmlns:cc="http://creativecommons.org/ns#"
   xmlns:rdf="http://www.w3.org/1999/02/22-rdf-syntax-ns#"
   xmlns:svg="http://www.w3.org/2000/svg"
   xmlns="http://www.w3.org/2000/svg"
   xmlns:xlink="http://www.w3.org/1999/xlink"
   xmlns:sodipodi="http://sodipodi.sourceforge.net/DTD/sodipodi-0.dtd"
   xmlns:inkscape="http://www.inkscape.org/namespaces/inkscape"
   sodipodi:docname="audio-output-none-panel.svg"
   inkscape:version="0.48.3.1 r9886"
   version="1.1"
   id="svg27665"
   height="21.999996"
   width="21.999996">
  <defs
     id="defs27667">
    <linearGradient
       inkscape:collect="always"
       xlink:href="#linearGradient7209-9"
       id="linearGradient3030"
       gradientUnits="userSpaceOnUse"
       gradientTransform="translate(1.12281e-5,6.3790002e-7)"
       x1="-3281.4204"
       y1="453.06702"
       x2="-3281.4204"
       y2="38.985649" />
    <linearGradient
       inkscape:collect="always"
       xlink:href="#linearGradient9097-0"
       id="linearGradient3087"
       x1="-3606.77"
       y1="453.06702"
       x2="-3606.77"
       y2="38.985649"
       gradientUnits="userSpaceOnUse" />
    <linearGradient
       inkscape:collect="always"
       xlink:href="#linearGradient7251-3"
       id="linearGradient3089"
       x1="-3606.77"
       y1="453.06702"
       x2="-3606.77"
       y2="38.985649"
       gradientUnits="userSpaceOnUse" />
    <linearGradient
       inkscape:collect="always"
       xlink:href="#linearGradient7209-9"
       id="linearGradient3070"
       gradientUnits="userSpaceOnUse"
       x1="-3195.645"
       y1="506.50485"
       x2="-3195.645"
       y2="43.362446" />
    <linearGradient
       id="linearGradient7209-9">
      <stop
         id="stop7211-8"
         offset="0"
         style="stop-color:#a1988f;stop-opacity:1;" />
      <stop
         id="stop7213-9"
         offset="1"
         style="stop-color:#e4dfd4;stop-opacity:1;" />
    </linearGradient>
    <linearGradient
       inkscape:collect="always"
       xlink:href="#linearGradient9097-0"
       id="linearGradient3120"
       gradientUnits="userSpaceOnUse"
       gradientTransform="translate(3.6033726e-5,-1.3372609e-7)"
       x1="-3195.645"
       y1="506.50485"
       x2="-3195.645"
       y2="43.362446" />
    <linearGradient
       id="linearGradient9097-0">
      <stop
         style="stop-color:#000000;stop-opacity:0.49634215;"
         offset="0"
         id="stop9099-4" />
      <stop
         style="stop-color:#000000;stop-opacity:0.41474396;"
         offset="1"
         id="stop9101-5" />
    </linearGradient>
    <linearGradient
       inkscape:collect="always"
       xlink:href="#linearGradient7251-3"
       id="linearGradient3057"
       x1="-3224.5908"
       y1="506.50552"
       x2="-3224.5908"
       y2="43.362446"
       gradientUnits="userSpaceOnUse" />
    <linearGradient
       id="linearGradient7251-3">
      <stop
         style="stop-color:#ffffff;stop-opacity:1;"
         offset="0"
         id="stop7253-27" />
      <stop
         style="stop-color:#ffffff;stop-opacity:1;"
         offset="1"
         id="stop7255-3" />
    </linearGradient>
  </defs>
  <sodipodi:namedview
     id="base"
     pagecolor="#ffffff"
     bordercolor="#666666"
     borderopacity="1.0"
     inkscape:pageopacity="0.0"
     inkscape:pageshadow="2"
     inkscape:zoom="32"
     inkscape:cx="12.187291"
     inkscape:cy="9.5111047"
     inkscape:document-units="px"
     inkscape:current-layer="g6088"
     showgrid="true"
     inkscape:window-width="1680"
     inkscape:window-height="1000"
     inkscape:window-x="-8"
     inkscape:window-y="23"
     inkscape:window-maximized="1"
     inkscape:snap-bbox="true"
     inkscape:bbox-paths="true"
     inkscape:bbox-nodes="true"
     inkscape:snap-bbox-edge-midpoints="true"
     inkscape:snap-bbox-midpoints="true"
     inkscape:object-paths="true"
     inkscape:snap-intersection-paths="true"
     inkscape:object-nodes="true"
     inkscape:snap-smooth-nodes="true"
     inkscape:snap-midpoints="true"
     inkscape:snap-object-midpoints="true"
     inkscape:snap-center="true"
     inkscape:snap-global="true"
     showguides="false"
     inkscape:guide-bbox="true"
     fit-margin-top="0"
     fit-margin-left="0"
     fit-margin-right="0"
     fit-margin-bottom="0"
     inkscape:showpageshadow="false">
    <sodipodi:guide
       orientation="0,1"
       position="599.99995,299.99996"
       id="guide3572" />
    <sodipodi:guide
       orientation="1,0"
       position="294.41945,12.121743"
       id="guide3574" />
    <sodipodi:guide
       orientation="0,1"
       position="456.04385,599.99995"
       id="guide3576" />
    <sodipodi:guide
       orientation="0,1"
       position="-4.6131494e-05,-5.7459226e-05"
       id="guide3578" />
    <sodipodi:guide
       orientation="1,0"
       position="-4.6131494e-05,157.58369"
       id="guide3580" />
    <sodipodi:guide
       orientation="1,0"
       position="599.99995,121.21824"
       id="guide3582" />
    <sodipodi:guide
       orientation="0,1"
       position="599.99995,-714.34356"
       id="guide5928" />
    <sodipodi:guide
       orientation="0,1"
       position="599.99995,-414.34356"
       id="guide5930" />
    <sodipodi:guide
       orientation="0,1"
       position="599.99995,-1014.3435"
       id="guide5932" />
    <sodipodi:guide
       orientation="0,1"
       position="451.57025,524.99609"
       id="guide5294" />
    <sodipodi:guide
       orientation="0,1"
       position="451.57025,75.013543"
       id="guide5296" />
    <sodipodi:guide
       orientation="0,1"
       position="496.01495,-931.36406"
       id="guide5413" />
    <sodipodi:guide
       orientation="0,1"
       position="457.34855,-489.34386"
       id="guide5415" />
    <inkscape:grid
       type="xygrid"
       id="grid3066"
       empspacing="5"
       visible="true"
       enabled="true"
       snapvisiblegridlinesonly="true" />
  </sodipodi:namedview>
  <metadata
     id="metadata27670">
    <rdf:RDF>
      <cc:Work
         rdf:about="">
        <dc:format>image/svg+xml</dc:format>
        <dc:type
           rdf:resource="http://purl.org/dc/dcmitype/StillImage" />
        <dc:title />
      </cc:Work>
    </rdf:RDF>
  </metadata>
  <g
     inkscape:label="Camada 1"
     inkscape:groupmode="layer"
     id="layer1"
     transform="translate(3364.4171,-2094.7186)">
    <g
       id="normal"
       transform="matrix(0.03380978,0,0,0.03380978,-3245.473,2097.4005)"
       inkscape:label="#g3217">
      <rect
         y="-79.323952"
         x="-3518.0396"
         height="650.69916"
         width="650.69916"
         id="rect3219"
         style="opacity:0.00100002;fill:#ffffff;stroke:none" />
      <g
         id="g6088">
        <path
           id="path3028"
           d="m -3281.4204,38.985762 c -59.1545,0 -59.1544,59.154482 -88.7317,88.731718 -29.5772,29.57725 -88.7317,29.57725 -88.7317,29.57725 0,0 -29.5773,0 -29.5773,29.57724 l 0,118.30896 c 0,29.57724 29.5773,29.57724 29.5773,29.57724 0,0 59.1545,0 88.7317,29.57724 29.5773,29.57724 29.5772,88.73173 88.7317,88.73173 l 29.5773,0 0,-414.081378 -29.5773,0 z m 118.309,177.463448 c -16.3351,0 -29.5772,13.24217 -29.5772,29.57724 0,16.33507 13.2421,29.57724 29.5772,29.57724 16.3351,0 29.5772,-13.24217 29.5772,-29.57724 0,-16.33507 -13.2421,-29.57724 -29.5772,-29.57724 z m 118.309,0 c -16.3351,0 -29.5773,13.24217 -29.5773,29.57724 0,16.33507 13.2422,29.57724 29.5773,29.57724 16.335,0 29.5772,-13.24217 29.5772,-29.57724 0,-16.33507 -13.2422,-29.57724 -29.5772,-29.57724 z m 118.3089,0 c -16.335,0 -29.5772,13.24217 -29.5772,29.57724 0,16.33507 13.2422,29.57724 29.5772,29.57724 16.3351,0 29.5773,-13.24217 29.5773,-29.57724 0,-16.33507 -13.2422,-29.57724 -29.5773,-29.57724 z"
           style="fill:url(#linearGradient3030);fill-opacity:1;fill-rule:nonzero;stroke:none"
           inkscape:connector-curvature="0" />
        <path
           style="fill:url(#linearGradient3089);fill-opacity:1;fill-rule:nonzero;stroke:none"
           d="m -3281.4204,38.985762 c -59.1545,0 -59.1544,59.154488 -88.7317,88.731718 -29.5772,29.57725 -88.7317,29.57725 -88.7317,29.57725 0,0 -29.5773,0 -29.5773,29.57724 l 0,118.30896 c 0,16.19191 8.6141,23.48818 16.6372,26.80438 -1.2185,-3.29009 -1.8486,-7.39431 -1.8486,-12.01576 l 0,-118.30896 c 0,-29.57724 29.5773,-29.57724 29.5773,-29.57724 0,0 59.1545,1e-5 88.7317,-29.57724 29.5773,-29.57724 29.5772,-88.731728 88.7317,-88.731728 l 14.7886,0 0,-14.78862 -29.5772,0 z m 118.309,177.463448 c -16.3351,0 -29.5773,13.24217 -29.5773,29.57724 0,11.8091 7.5547,21.13847 17.5615,25.88008 -1.4967,-3.53856 -2.7728,-7.0077 -2.7728,-11.09146 0,-16.33507 13.2421,-29.57724 29.5772,-29.57724 4.0838,0 7.5529,1.27617 11.0915,2.77286 -4.7416,-10.00682 -14.071,-17.56148 -25.8801,-17.56148 z m 118.3089,0 c -16.3351,0 -29.5772,13.24217 -29.5772,29.57724 0,11.8091 7.5546,21.13847 17.5615,25.88008 -1.4967,-3.53856 -2.7729,-7.0077 -2.7729,-11.09146 0,-16.33507 13.2422,-29.57724 29.5773,-29.57724 4.0837,0 7.5529,1.27617 11.0914,2.77286 -4.7416,-10.00682 -14.071,-17.56148 -25.8801,-17.56148 z m 118.309,0 c -16.335,0 -29.5772,13.24217 -29.5772,29.57724 0,11.8091 7.5546,21.13847 17.5614,25.88008 -1.4967,-3.53856 -2.7728,-7.0077 -2.7728,-11.09146 0,-16.33507 13.2422,-29.57724 29.5772,-29.57724 4.0838,0 7.5529,1.27617 11.0915,2.77286 -4.7416,-10.00682 -14.071,-17.56148 -25.8801,-17.56148 z m -437.1886,156.2048 c 17.2098,23.10654 24.2715,56.49407 48.9873,72.09453 -15.5525,-19.87017 -22.9573,-47.91312 -40.6687,-65.62451 -2.4733,-2.47328 -5.4836,-4.39307 -8.3186,-6.47002 z"
           id="path6955"
           inkscape:connector-curvature="0" />
        <path
           style="opacity:1;fill:url(#linearGradient3087);fill-opacity:1;fill-rule:nonzero;stroke:none"
           d="m -3266.6317,38.985762 0,399.292758 -29.5773,0 c -13.8917,0 -24.7581,-2.94321 -33.2744,-8.3186 10.4196,13.31218 24.3313,23.10722 48.063,23.10722 l 29.5773,0 0,-414.081378 -14.7886,0 z m 115.5361,181.160598 c 1.4967,3.53857 2.7728,7.00771 2.7728,11.09147 0,16.33507 -13.2421,29.57724 -29.5772,29.57724 -4.0838,0 -7.5529,-1.27617 -11.0915,-2.77287 4.7416,10.00681 14.071,17.56149 25.8801,17.56149 16.3351,0 29.5772,-13.24217 29.5772,-29.57724 0,-11.8091 -7.5546,-21.13847 -17.5614,-25.88009 z m 118.3089,0 c 1.4967,3.53857 2.7729,7.00771 2.7729,11.09147 0,16.33507 -13.2422,29.57724 -29.5773,29.57724 -4.0837,0 -7.5528,-1.27617 -11.0914,-2.77287 4.7416,10.00681 14.0709,17.56149 25.8801,17.56149 16.335,0 29.5772,-13.24217 29.5772,-29.57724 0,-11.8091 -7.5547,-21.13847 -17.5615,-25.88009 z m 118.309,0 c 1.4967,3.53857 2.7729,7.00771 2.7729,11.09147 0,16.33507 -13.2422,29.57724 -29.5773,29.57724 -4.0837,0 -7.5529,-1.27617 -11.0915,-2.77287 4.7417,10.00681 14.0711,17.56149 25.8801,17.56149 16.3351,0 29.5773,-13.24217 29.5773,-29.57724 0,-11.8091 -7.5547,-21.13847 -17.5615,-25.88009 z m -572.1348,97.05033 c 6.5802,17.76636 27.7287,17.56148 27.7287,17.56148 0,0 49.3448,0.34665 80.4131,23.10722 -2.1115,-2.83501 -3.9967,-5.84532 -6.47,-8.3186 -29.5772,-29.57724 -88.7317,-29.57724 -88.7317,-29.57724 0,0 -6.3077,-0.0315 -12.9401,-2.77286 z"
           id="path3084"
           inkscape:connector-curvature="0" />
      </g>
    </g>
    <g
       id="g4590"
       transform="translate(-3102.2004,4132.6049)">
      <path
         style="opacity:0.3"
         d="M 4.305,7.0221 C 3.6956,7.0221 3,7.7823 3,8.3363 V 17.635 C 3,18.366 3.7889,19 4.4535,19 h 15.048 c 0.798,0 1.498,-0.678 1.498,-1.376 V 8.4646 C 20.9995,7.689 20.3105,7 19.5905,7 L 4.3045,7.0221 z M 4.8438,8.1562 11.688,15 h 0.59375 l 6.875,-6.8438 0.6875,0.6875 -4.094,4.1563 3.0938,3.1562 -0.6875,0.6875 -3.156,-3.156 -2.281,2.312 h -1.438 l -2.281,-2.312 -3.1562,3.187 -0.6876,-0.719 3.125,-3.156 -4.125,-4.1562 0.6876,-0.6876 z"
         id="rect3170-2"
         inkscape:connector-curvature="0" />
      <path
         style="fill:#19b6ee"
         d="M 4.305,6.0221 C 3.6956,6.0221 3,6.7823 3,7.3363 V 16.635 C 3,17.366 3.7889,18 4.4535,18 h 15.048 c 0.798,0 1.498,-0.678 1.498,-1.376 V 7.4646 C 20.9995,6.689 20.3105,6 19.5905,6 L 4.3045,6.0221 z M 4.8438,7.1562 11.688,14 h 0.59375 l 6.875,-6.8438 0.6875,0.6875 -4.094,4.1563 3.0938,3.1562 -0.6875,0.6875 -3.156,-3.156 -2.281,2.312 h -1.438 l -2.281,-2.312 -3.1562,3.187 -0.6876,-0.719 3.125,-3.156 -4.125,-4.1562 0.6876,-0.6876 z"
         id="rect3170"
         inkscape:connector-curvature="0" />
    </g>
  </g>
</svg>
