<?xml version="1.0" encoding="UTF-8" standalone="no"?>
<!-- Created with Inkscape (http://www.inkscape.org/) -->

<svg
   xmlns:dc="http://purl.org/dc/elements/1.1/"
   xmlns:cc="http://creativecommons.org/ns#"
   xmlns:rdf="http://www.w3.org/1999/02/22-rdf-syntax-ns#"
   xmlns:svg="http://www.w3.org/2000/svg"
   xmlns="http://www.w3.org/2000/svg"
   xmlns:xlink="http://www.w3.org/1999/xlink"
   xmlns:sodipodi="http://sodipodi.sourceforge.net/DTD/sodipodi-0.dtd"
   xmlns:inkscape="http://www.inkscape.org/namespaces/inkscape"
   sodipodi:docname="audio-volume-medium-panel.svg"
   inkscape:version="0.48.3.1 r9886"
   version="1.1"
   id="svg27665"
   height="21.999996"
   width="21.999996">
  <defs
     id="defs27667">
    <linearGradient
       inkscape:collect="always"
       xlink:href="#linearGradient7209-9"
       id="linearGradient3071"
       gradientUnits="userSpaceOnUse"
       x1="24.499998"
       y1="20.999998"
       x2="24.499998"
       y2="3.9999962" />
    <linearGradient
       inkscape:collect="always"
       xlink:href="#linearGradient7209-9"
       id="linearGradient3073"
       gradientUnits="userSpaceOnUse"
       x1="18.31818"
       y1="17.909088"
       x2="18.31818"
       y2="7.0909057" />
    <linearGradient
       inkscape:collect="always"
       xlink:href="#linearGradient7209-9"
       id="linearGradient3075"
       gradientUnits="userSpaceOnUse"
       x1="15.433331"
       y1="16.466663"
       x2="15.433331"
       y2="8.53333" />
    <linearGradient
       inkscape:collect="always"
       xlink:href="#linearGradient7209-9"
       id="linearGradient3077"
       gradientUnits="userSpaceOnUse"
       x1="-3281.4204"
       y1="453.06702"
       x2="-3281.4204"
       y2="38.985649" />
    <linearGradient
       inkscape:collect="always"
       xlink:href="#linearGradient7251-3"
       id="linearGradient3085"
       x1="-3606.77"
       y1="453.06702"
       x2="-3606.77"
       y2="38.985649"
       gradientUnits="userSpaceOnUse" />
    <linearGradient
       inkscape:collect="always"
       xlink:href="#linearGradient9097-0"
       id="linearGradient3864"
       x1="-3606.77"
       y1="453.06702"
       x2="-3606.77"
       y2="38.985649"
       gradientUnits="userSpaceOnUse" />
    <linearGradient
       inkscape:collect="always"
       xlink:href="#linearGradient7209-9"
       id="linearGradient3070"
       gradientUnits="userSpaceOnUse"
       x1="-3195.645"
       y1="506.50485"
       x2="-3195.645"
       y2="43.362446" />
    <linearGradient
       id="linearGradient7209-9">
      <stop
         id="stop7211-8"
         offset="0"
         style="stop-color:#a1988f;stop-opacity:1;" />
      <stop
         id="stop7213-9"
         offset="1"
         style="stop-color:#e4dfd4;stop-opacity:1;" />
    </linearGradient>
    <linearGradient
       inkscape:collect="always"
       xlink:href="#linearGradient9097-0"
       id="linearGradient3120"
       gradientUnits="userSpaceOnUse"
       gradientTransform="translate(3.6033726e-5,-1.3372609e-7)"
       x1="-3195.645"
       y1="506.50485"
       x2="-3195.645"
       y2="43.362446" />
    <linearGradient
       id="linearGradient9097-0">
      <stop
         style="stop-color:#000000;stop-opacity:0.49634215;"
         offset="0"
         id="stop9099-4" />
      <stop
         style="stop-color:#000000;stop-opacity:0.41474396;"
         offset="1"
         id="stop9101-5" />
    </linearGradient>
    <linearGradient
       inkscape:collect="always"
       xlink:href="#linearGradient7251-3"
       id="linearGradient3057"
       x1="-3224.5908"
       y1="506.50552"
       x2="-3224.5908"
       y2="43.362446"
       gradientUnits="userSpaceOnUse" />
    <linearGradient
       id="linearGradient7251-3">
      <stop
         style="stop-color:#ffffff;stop-opacity:1;"
         offset="0"
         id="stop7253-27" />
      <stop
         style="stop-color:#ffffff;stop-opacity:1;"
         offset="1"
         id="stop7255-3" />
    </linearGradient>
  </defs>
  <sodipodi:namedview
     id="base"
     pagecolor="#ffffff"
     bordercolor="#666666"
     borderopacity="1.0"
     inkscape:pageopacity="0.0"
     inkscape:pageshadow="2"
     inkscape:zoom="22.627417"
     inkscape:cx="22.367796"
     inkscape:cy="3.7737403"
     inkscape:document-units="px"
     inkscape:current-layer="layer1"
     showgrid="true"
     inkscape:window-width="1680"
     inkscape:window-height="1000"
     inkscape:window-x="-8"
     inkscape:window-y="23"
     inkscape:window-maximized="1"
     inkscape:snap-bbox="true"
     inkscape:bbox-paths="true"
     inkscape:bbox-nodes="true"
     inkscape:snap-bbox-edge-midpoints="true"
     inkscape:snap-bbox-midpoints="true"
     inkscape:object-paths="true"
     inkscape:snap-intersection-paths="true"
     inkscape:object-nodes="true"
     inkscape:snap-smooth-nodes="true"
     inkscape:snap-midpoints="true"
     inkscape:snap-object-midpoints="true"
     inkscape:snap-center="true"
     inkscape:snap-global="true"
     showguides="false"
     inkscape:guide-bbox="true"
     fit-margin-top="0"
     fit-margin-left="0"
     fit-margin-right="0"
     fit-margin-bottom="0"
     inkscape:showpageshadow="false">
    <sodipodi:guide
       orientation="0,1"
       position="599.99995,299.99996"
       id="guide3572" />
    <sodipodi:guide
       orientation="1,0"
       position="294.41945,12.121743"
       id="guide3574" />
    <sodipodi:guide
       orientation="0,1"
       position="456.04385,599.99995"
       id="guide3576" />
    <sodipodi:guide
       orientation="0,1"
       position="-4.6131494e-05,-5.7459226e-05"
       id="guide3578" />
    <sodipodi:guide
       orientation="1,0"
       position="-4.6131494e-05,157.58369"
       id="guide3580" />
    <sodipodi:guide
       orientation="1,0"
       position="599.99995,121.21824"
       id="guide3582" />
    <sodipodi:guide
       orientation="0,1"
       position="599.99995,-714.34356"
       id="guide5928" />
    <sodipodi:guide
       orientation="0,1"
       position="599.99995,-414.34356"
       id="guide5930" />
    <sodipodi:guide
       orientation="0,1"
       position="599.99995,-1014.3435"
       id="guide5932" />
    <sodipodi:guide
       orientation="0,1"
       position="451.57025,524.99609"
       id="guide5294" />
    <sodipodi:guide
       orientation="0,1"
       position="451.57025,75.013543"
       id="guide5296" />
    <sodipodi:guide
       orientation="0,1"
       position="496.01495,-931.36406"
       id="guide5413" />
    <sodipodi:guide
       orientation="0,1"
       position="457.34855,-489.34386"
       id="guide5415" />
    <inkscape:grid
       type="xygrid"
       id="grid3066"
       empspacing="5"
       visible="true"
       enabled="true"
       snapvisiblegridlinesonly="true" />
  </sodipodi:namedview>
  <metadata
     id="metadata27670">
    <rdf:RDF>
      <cc:Work
         rdf:about="">
        <dc:format>image/svg+xml</dc:format>
        <dc:type
           rdf:resource="http://purl.org/dc/dcmitype/StillImage" />
        <dc:title />
      </cc:Work>
    </rdf:RDF>
  </metadata>
  <g
     inkscape:label="Camada 1"
     inkscape:groupmode="layer"
     id="layer1"
     transform="translate(3364.4171,-2094.7186)">
    <g
       id="normal"
       transform="matrix(0.03380978,0,0,0.03380978,-3245.473,2097.4005)"
       inkscape:label="#g3217">
      <rect
         y="-79.323952"
         x="-3518.0396"
         height="650.69916"
         width="650.69916"
         id="rect3219"
         style="opacity:0.00100002;fill:#ffffff;stroke:none" />
      <g
         id="g6088">
        <path
           sodipodi:nodetypes="cszcssczscc"
           inkscape:connector-curvature="0"
           id="path3027"
           d="m -3281.4202,38.985648 -29.5773,0 c -59.1545,0 -59.1545,59.154481 -88.7318,88.731722 -29.5772,29.57724 -88.7317,29.57724 -88.7317,29.57724 0,0 -29.5772,0 -29.5772,29.57724 l 0,118.30896 c 0,29.57724 29.5772,29.57724 29.5772,29.57724 0,0 59.1545,0 88.7317,29.57725 29.5773,29.57725 29.5773,88.73172 88.7318,88.73172 l 29.5773,0 z"
           style="fill:url(#linearGradient3077);fill-opacity:1;fill-rule:nonzero;stroke:none" />
        <path
           sodipodi:open="true"
           sodipodi:end="6.9115038"
           sodipodi:start="5.6548668"
           transform="matrix(24.357725,0,0,24.357725,-3552.8349,-58.44516)"
           d="m 14.376645,7.5038217 c 2.164473,2.9791433 2.164473,7.0132063 0,9.9923493"
           sodipodi:ry="8.5"
           sodipodi:rx="8.5"
           sodipodi:cy="12.499996"
           sodipodi:cx="7.5"
           id="path3033"
           style="fill:none;stroke:url(#linearGradient3071);stroke-width:2.42857170000000000;stroke-linecap:butt;stroke-linejoin:miter;stroke-miterlimit:4;stroke-opacity:1;stroke-dasharray:none;stroke-dashoffset:0"
           sodipodi:type="arc" />
        <path
           transform="matrix(52.195137,0,0,52.195137,-3761.6155,-406.41269)"
           d="m 14.376645,7.5038217 c 2.164473,2.9791433 2.164473,7.0132063 0,9.9923493"
           sodipodi:ry="8.5"
           sodipodi:rx="8.5"
           sodipodi:cy="12.499996"
           sodipodi:cx="7.5"
           id="path6352"
           style="fill:none;stroke:url(#linearGradient3075);stroke-width:1.13333320999999998;stroke-linecap:butt;stroke-linejoin:miter;stroke-miterlimit:4;stroke-opacity:1;stroke-dasharray:none;stroke-dashoffset:0;opacity:0.29999999999999999;fill-opacity:1"
           sodipodi:type="arc"
           sodipodi:start="5.6548668"
           sodipodi:end="6.9115038"
           sodipodi:open="true" />
        <path
           transform="matrix(38.276428,0,0,38.276428,-3657.2252,-232.42889)"
           d="m 14.376645,7.5038217 c 2.164473,2.9791433 2.164473,7.0132063 0,9.9923493"
           sodipodi:ry="8.5"
           sodipodi:rx="8.5"
           sodipodi:cy="12.499996"
           sodipodi:cx="7.5"
           id="path3037"
           style="fill:none;stroke:url(#linearGradient3073);stroke-width:1.54545461999999989;stroke-linecap:butt;stroke-linejoin:miter;stroke-miterlimit:4;stroke-opacity:1;stroke-dasharray:none;stroke-dashoffset:0"
           sodipodi:type="arc"
           sodipodi:start="5.6548668"
           sodipodi:end="6.9115038"
           sodipodi:open="true" />
        <path
           style="fill:url(#linearGradient3085);fill-opacity:1;fill-rule:nonzero;stroke:none"
           d="m -3082.6983,38.061473 -48.063,34.198685 c 75.3853,103.759012 75.3853,243.773582 0,347.532582 l 16.6372,12.01575 c 73.378,-103.46849 72.8636,-241.92712 -1.8486,-344.759712 l 44.3659,-31.425818 c -3.7136,-5.787287 -7.0088,-11.942095 -11.0915,-17.561487 z m -228.2993,0.924289 c -59.1545,0 -59.1544,59.154488 -88.7317,88.731718 -29.5772,29.57725 -88.7317,29.57725 -88.7317,29.57725 0,0 -29.5773,0 -29.5773,29.57724 l 0,118.30896 c 0,16.19191 8.6141,23.48818 16.6372,26.80438 -1.2185,-3.29009 -1.8486,-7.39431 -1.8486,-12.01576 l 0,-118.30896 c 0,-29.57724 29.5773,-29.57724 29.5773,-29.57724 0,0 59.1545,1e-5 88.7317,-29.57724 29.5773,-29.57724 29.5772,-88.731728 88.7317,-88.731728 l 14.7886,0 0,-14.78862 z m 132.1733,67.473078 -47.1388,35.12298 c 45.2585,62.29323 45.2585,146.59604 0,208.88926 l 16.6372,12.01576 c 43.2751,-62.00461 42.7423,-144.7422 -1.8485,-206.1164 l 43.4415,-32.35011 c -3.5919,-6.01262 -6.9218,-11.82248 -11.0914,-17.56149 z m -214.435,266.19517 c 17.2098,23.10654 24.2715,56.49407 48.9873,72.09453 -15.5525,-19.87017 -22.9573,-47.91312 -40.6687,-65.62451 -2.4733,-2.47328 -5.4836,-4.39307 -8.3186,-6.47002 z"
           id="path6955"
           inkscape:connector-curvature="0"
           sodipodi:nodetypes="cccccccsscsscsscssccscccccccccsc" />
        <path
           style="fill:url(#linearGradient3864);fill-opacity:1;fill-rule:nonzero;stroke:none"
           d="m -3082.6983,38.061474 -3.6971,2.772866 c 78.4322,122.22948 75.1371,279.68499 -11.0915,398.36846 l -31.4258,-22.18293 c -0.6611,0.93216 -1.1755,1.84645 -1.8486,2.77287 l 48.063,34.19869 c 90.3113,-124.30286 90.3113,-291.6271 0,-415.929956 z m -213.5106,0.924288 0,399.292758 -29.5773,0 c -13.8917,0 -24.7581,-2.94321 -33.2744,-8.3186 10.4196,13.31218 24.3313,23.10722 48.063,23.10722 l 29.5773,0 0,-414.081378 z m 117.3846,67.473078 -3.6972,2.77287 c 48.2536,80.77378 44.9236,184.47565 -11.0914,261.57372 l -30.5015,-23.10721 c -0.6481,0.92845 -1.1809,1.85384 -1.8486,2.77286 l 47.1387,35.12298 c 60.1847,-82.83707 60.1847,-196.29815 0,-279.13522 z m -337.3654,210.73785 c 6.5802,17.76636 27.7287,17.56148 27.7287,17.56148 0,0 49.3448,0.34665 80.4131,23.10722 -2.1115,-2.83501 -3.9967,-5.84532 -6.47,-8.3186 -29.5772,-29.57724 -88.7317,-29.57724 -88.7317,-29.57724 0,0 -6.3076,-0.0315 -12.9401,-2.77286 z"
           id="path3855"
           inkscape:connector-curvature="0"
           sodipodi:nodetypes="cccccccccscscccccccccccccscc" />
      </g>
    </g>
  </g>
</svg>
