<?xml version="1.0" encoding="UTF-8" standalone="no"?>
<!-- Created with Inkscape (http://www.inkscape.org/) -->

<svg
   xmlns:dc="http://purl.org/dc/elements/1.1/"
   xmlns:cc="http://creativecommons.org/ns#"
   xmlns:rdf="http://www.w3.org/1999/02/22-rdf-syntax-ns#"
   xmlns:svg="http://www.w3.org/2000/svg"
   xmlns="http://www.w3.org/2000/svg"
   xmlns:xlink="http://www.w3.org/1999/xlink"
   xmlns:sodipodi="http://sodipodi.sourceforge.net/DTD/sodipodi-0.dtd"
   xmlns:inkscape="http://www.inkscape.org/namespaces/inkscape"
   id="svg7384"
   height="16"
   width="16"
   version="1.1"
   inkscape:version="0.48.2 r9819"
   sodipodi:docname="avatar-default-symbolic.svg">
  <defs
     id="defs10">
    <linearGradient
       y2="442.64423"
       x2="-3102.6333"
       y1="186.07019"
       x1="-3090.821"
       gradientTransform="matrix(1.147066,0,0.05280949,1.147066,2006.3698,783.39027)"
       gradientUnits="userSpaceOnUse"
       id="linearGradient5665"
       xlink:href="#linearGradient8382-8-1"
       inkscape:collect="always" />
    <linearGradient
       id="linearGradient8382-8-1">
      <stop
         style="stop-color:#dd491f;stop-opacity:1"
         offset="0"
         id="stop8384-4-0" />
      <stop
         style="stop-color:#732030;stop-opacity:1"
         offset="1"
         id="stop8386-2-8" />
    </linearGradient>
  </defs>
  <sodipodi:namedview
     pagecolor="#ffffff"
     bordercolor="#666666"
     borderopacity="1"
     objecttolerance="10"
     gridtolerance="10"
     guidetolerance="10"
     inkscape:pageopacity="0"
     inkscape:pageshadow="2"
     inkscape:window-width="1680"
     inkscape:window-height="988"
     id="namedview8"
     showgrid="false"
     inkscape:zoom="14.75"
     inkscape:cx="25.95609"
     inkscape:cy="0.56532902"
     inkscape:window-x="-2"
     inkscape:window-y="39"
     inkscape:window-maximized="1"
     inkscape:current-layer="svg7384" />
  <metadata
     id="metadata90">
    <rdf:RDF>
      <cc:Work
         rdf:about="">
        <dc:format>image/svg+xml</dc:format>
        <dc:type
           rdf:resource="http://purl.org/dc/dcmitype/StillImage" />
        <dc:title>Gnome Symbolic Icon Theme</dc:title>
      </cc:Work>
    </rdf:RDF>
  </metadata>
  <title
     id="title9167">Gnome Symbolic Icon Theme</title>
  <path
     style="fill:#bebebe;fill-opacity:1;fill-rule:nonzero;stroke:none"
     d="m 8.0000035,1.5 c -1.563672,0 -2.831184,1.2675161 -2.831184,2.8311828 0,1.5636632 1.267512,2.8311792 2.831184,2.8311832 1.563663,0 2.8311785,-1.26752 2.8311785,-2.8311832 C 10.831187,2.7675161 9.5636665,1.5 8.0000035,1.5 z m -2.602963,5.358893 c -1.232966,0.589377 -2.13103,1.584853 -2.409897,2.757164 0.151427,0.862417 0.987329,1.76185 1.344656,2.28345 0.633031,0.924052 0.800721,0.930972 0.67479,1.819601 0.840993,0.490917 1.874978,0.780892 2.99341,0.780892 1.118435,0 2.1524175,-0.289975 2.9934035,-0.780892 -0.125924,-0.888629 0.04177,-0.895549 0.674795,-1.819601 0.357325,-0.5216 1.193237,-1.421033 1.344658,-2.28345 C 12.73399,8.443746 11.83592,7.44827 10.60296,6.858893 9.9597595,7.521181 9.0665475,7.938519 8.0752465,7.958672 l -0.14988,0 C 6.9340135,7.938552 6.0402715,7.521211 5.3970405,6.858893 z"
     id="path4937-5"
     inkscape:connector-curvature="0"
     sodipodi:nodetypes="sssssccscscsccccc" />
</svg>
