<?xml version="1.0" encoding="UTF-8" standalone="no"?>
<!-- Created with Inkscape (http://www.inkscape.org/) -->

<svg
   xmlns:dc="http://purl.org/dc/elements/1.1/"
   xmlns:cc="http://creativecommons.org/ns#"
   xmlns:rdf="http://www.w3.org/1999/02/22-rdf-syntax-ns#"
   xmlns:svg="http://www.w3.org/2000/svg"
   xmlns="http://www.w3.org/2000/svg"
   xmlns:xlink="http://www.w3.org/1999/xlink"
   xmlns:sodipodi="http://sodipodi.sourceforge.net/DTD/sodipodi-0.dtd"
   xmlns:inkscape="http://www.inkscape.org/namespaces/inkscape"
   width="22.008112"
   height="22.000004"
   id="svg27665"
   version="1.1"
   inkscape:version="0.48.3.1 r9886"
   sodipodi:docname="gpm-battery-000.svg">
  <defs
     id="defs27667">
    <linearGradient
       inkscape:collect="always"
       xlink:href="#linearGradient4486"
       id="linearGradient3222"
       gradientUnits="userSpaceOnUse"
       gradientTransform="matrix(28.818178,0,0,28.818178,-38679.827,-17515.544)"
       x1="1230.3125"
       y1="623.34375"
       x2="1230.3125"
       y2="611.34375" />
    <linearGradient
       inkscape:collect="always"
       xlink:href="#linearGradient4486"
       id="linearGradient4992"
       gradientUnits="userSpaceOnUse"
       x1="-3195.0146"
       y1="490.40448"
       x2="-3195.0146"
       y2="-41.985657" />
    <linearGradient
       id="linearGradient4486">
      <stop
         style="stop-color:#e81d00;stop-opacity:1"
         offset="0"
         id="stop4488" />
      <stop
         style="stop-color:#ff7752;stop-opacity:1"
         offset="1"
         id="stop4490" />
    </linearGradient>
  </defs>
  <sodipodi:namedview
     id="base"
     pagecolor="#ffffff"
     bordercolor="#666666"
     borderopacity="1.0"
     inkscape:pageopacity="0.0"
     inkscape:pageshadow="2"
     inkscape:zoom="32"
     inkscape:cx="9.6756111"
     inkscape:cy="14.084723"
     inkscape:document-units="px"
     inkscape:current-layer="22-7-5"
     showgrid="true"
     inkscape:window-width="1680"
     inkscape:window-height="998"
     inkscape:window-x="-8"
     inkscape:window-y="25"
     inkscape:window-maximized="1"
     inkscape:snap-bbox="true"
     inkscape:bbox-paths="true"
     inkscape:bbox-nodes="true"
     inkscape:snap-bbox-edge-midpoints="true"
     inkscape:snap-bbox-midpoints="true"
     inkscape:object-paths="true"
     inkscape:snap-intersection-paths="true"
     inkscape:object-nodes="true"
     inkscape:snap-smooth-nodes="true"
     inkscape:snap-midpoints="true"
     inkscape:snap-object-midpoints="true"
     inkscape:snap-center="true"
     inkscape:snap-global="true"
     showguides="false"
     inkscape:guide-bbox="true"
     fit-margin-top="0"
     fit-margin-left="0"
     fit-margin-right="0"
     fit-margin-bottom="0"
     inkscape:showpageshadow="false">
    <sodipodi:guide
       orientation="0,1"
       position="-278.49589,525.00003"
       id="guide3572" />
    <sodipodi:guide
       orientation="1,0"
       position="-584.07639,237.12181"
       id="guide3574" />
    <sodipodi:guide
       orientation="0,1"
       position="-422.45199,825.00002"
       id="guide3576" />
    <sodipodi:guide
       orientation="0,1"
       position="-878.49589,225.00001"
       id="guide3578" />
    <sodipodi:guide
       orientation="1,0"
       position="-878.49589,382.58376"
       id="guide3580" />
    <sodipodi:guide
       orientation="1,0"
       position="-278.49589,346.21831"
       id="guide3582" />
    <sodipodi:guide
       orientation="0,1"
       position="-278.49589,-489.34349"
       id="guide5928" />
    <sodipodi:guide
       orientation="0,1"
       position="-278.49589,-189.34349"
       id="guide5930" />
    <sodipodi:guide
       orientation="0,1"
       position="-278.49589,-789.34346"
       id="guide5932" />
    <sodipodi:guide
       orientation="0,1"
       position="-426.92559,749.99616"
       id="guide5294" />
    <sodipodi:guide
       orientation="0,1"
       position="-426.92559,300.01361"
       id="guide5296" />
    <sodipodi:guide
       orientation="0,1"
       position="-382.48089,-706.36399"
       id="guide5413" />
    <sodipodi:guide
       orientation="0,1"
       position="-421.14729,-264.34379"
       id="guide5415" />
    <inkscape:grid
       type="xygrid"
       id="grid3228"
       empspacing="5"
       visible="true"
       enabled="true"
       snapvisiblegridlinesonly="true" />
  </sodipodi:namedview>
  <metadata
     id="metadata27670">
    <rdf:RDF>
      <cc:Work
         rdf:about="">
        <dc:format>image/svg+xml</dc:format>
        <dc:type
           rdf:resource="http://purl.org/dc/dcmitype/StillImage" />
        <dc:title />
      </cc:Work>
    </rdf:RDF>
  </metadata>
  <g
     inkscape:label="Camada 1"
     inkscape:groupmode="layer"
     id="layer1"
     transform="translate(2485.9213,-2319.7186)">
    <g
       inkscape:label="#g3190"
       transform="matrix(0.03470032,0,0,0.03470032,-2364.0233,2321.1784)"
       id="22-7-5">
      <rect
         style="opacity:0.00100002;fill:#ffffff;fill-opacity:1;fill-rule:nonzero;stroke:none"
         id="rect3192-1-1-8"
         width="634"
         height="634"
         x="-3512.6445"
         y="-42.067711" />
      <path
         inkscape:connector-curvature="0"
         style="font-size:medium;font-style:normal;font-variant:normal;font-weight:normal;font-stretch:normal;text-indent:0;text-align:start;text-decoration:none;line-height:normal;letter-spacing:normal;word-spacing:normal;text-transform:none;direction:ltr;block-progression:tb;writing-mode:lr-tb;text-anchor:start;baseline-shift:baseline;color:#000000;fill:url(#linearGradient3222);fill-opacity:1;stroke:none;stroke-width:57.63636017;marker:none;visibility:visible;display:inline;overflow:visible;enable-background:accumulate;font-family:Sans;-inkscape-font-specification:Sans"
         d="m -3455.0081,102.26901 c -31.432,0 -57.6364,26.20437 -57.6364,57.63635 l 0,230.54543 c 0,31.43198 26.2044,57.63635 57.6364,57.63635 l 461.0908,0 c 31.432,0 57.6364,-26.20437 57.6364,-57.63635 l 0,-28.81818 28.8182,0 c 15.9652,0 28.8182,-12.85349 28.8182,-28.81818 l 0,-115.27271 c 0,-15.9647 -12.8558,-28.46602 -28.8182,-28.81818 l -28.8182,0 0,-28.81818 c 0,-31.43198 -26.2044,-57.63635 -57.6364,-57.63635 z m 0,57.63635 461.0908,0 0,57.63636 0,115.27271 0,57.63636 -461.0908,0 z"
         id="path5494"
         sodipodi:nodetypes="sssssscsssccsssccccccc" />
      <path
         style="font-size:medium;font-style:normal;font-variant:normal;font-weight:normal;font-stretch:normal;text-indent:0;text-align:start;text-decoration:none;line-height:normal;letter-spacing:normal;word-spacing:normal;text-transform:none;direction:ltr;block-progression:tb;writing-mode:lr-tb;text-anchor:start;baseline-shift:baseline;color:#000000;fill:#ffa68a;fill-opacity:1;stroke:none;stroke-width:57.63636017;marker:none;visibility:visible;display:inline;overflow:visible;enable-background:accumulate;font-family:Sans;-inkscape-font-specification:Sans"
         d="m -3455.2418,102.26901 c -31.432,0 -57.6364,26.20436 -57.6364,57.63634 l 0,230.54543 c 0,19.18426 9.5619,36.30946 24.3139,46.82954 -6.2622,-9.21058 -9.9048,-20.63353 -9.9048,-32.42045 l 0,-230.54543 c 0,-31.43198 26.2044,-57.63635 57.6363,-57.63635 l 461.0909,0 c 11.7866,0 23.2101,3.64233 32.4204,9.90625 -10.5215,-14.75404 -27.6452,-24.31533 -46.8295,-24.31533 z m 461.0908,72.04543 0,43.22727 0,115.27271 0,57.63636 -446.6818,0 0,14.40909 461.0909,0 0,-57.63636 0,-115.27271 0,-57.63636 z m 72.0454,14.40909 0,14.40909 28.8182,0 c 3.9913,0.0882 7.3573,1.23083 10.8068,2.7017 -4.608,-9.67195 -13.6771,-16.85632 -25.2159,-17.11079 z"
         id="rect5452"
         inkscape:connector-curvature="0"
         sodipodi:nodetypes="ssscsssscssccccccccccccccccc" />
      <path
         style="font-size:medium;font-style:normal;font-variant:normal;font-weight:normal;font-stretch:normal;text-indent:0;text-align:start;text-decoration:none;line-height:normal;letter-spacing:normal;word-spacing:normal;text-transform:none;direction:ltr;block-progression:tb;writing-mode:lr-tb;text-anchor:start;baseline-shift:baseline;color:#000000;fill:#cd1900;fill-opacity:1;stroke:none;stroke-width:57.63636017;marker:none;visibility:visible;display:inline;overflow:visible;enable-background:accumulate;font-family:Sans;-inkscape-font-specification:Sans"
         d="m -2960.8284,113.07583 c 6.2622,9.21058 9.9048,20.63353 9.9048,32.42045 l 0,28.81818 14.4091,0 0,-14.40909 c 0,-19.18426 -9.5619,-36.30947 -24.3139,-46.82954 z m -508.8224,32.42045 0,230.54542 14.4091,0 0,-216.13633 446.6817,0 0,-14.40909 z m 573.6633,46.82954 c 1.4524,3.42244 2.7003,6.8155 2.7003,10.80681 l 0,115.27272 c 0,15.96469 -12.853,28.81817 -28.8182,28.81817 l -28.8182,0 0,28.81818 c 0,31.43199 -26.2044,57.63636 -57.6364,57.63636 l -461.0908,0 c -11.7866,0 -23.2102,-3.64233 -32.4205,-9.90625 10.5216,14.75404 27.6453,24.31534 46.8296,24.31534 l 461.0908,0 c 31.432,0 57.6364,-26.20437 57.6364,-57.63636 l 0,-28.81818 28.8182,0 c 15.9652,0 28.8181,-12.85348 28.8181,-28.81817 l 0,-115.27272 c 0,-11.54139 -7.3572,-20.57646 -17.1093,-25.2159 z"
         id="path5483"
         inkscape:connector-curvature="0"
         sodipodi:nodetypes="csccscccccccccssscssscssscsssc" />
    </g>
  </g>
</svg>
