<?xml version="1.0" encoding="UTF-8" standalone="no"?>
<!-- Created with Inkscape (http://www.inkscape.org/) -->

<svg
   xmlns:dc="http://purl.org/dc/elements/1.1/"
   xmlns:cc="http://creativecommons.org/ns#"
   xmlns:rdf="http://www.w3.org/1999/02/22-rdf-syntax-ns#"
   xmlns:svg="http://www.w3.org/2000/svg"
   xmlns="http://www.w3.org/2000/svg"
   xmlns:xlink="http://www.w3.org/1999/xlink"
   xmlns:sodipodi="http://sodipodi.sourceforge.net/DTD/sodipodi-0.dtd"
   xmlns:inkscape="http://www.inkscape.org/namespaces/inkscape"
   width="22.008112"
   height="22.000004"
   id="svg27665"
   version="1.1"
   inkscape:version="0.48.3.1 r9886"
   sodipodi:docname="battery-080.svg">
  <defs
     id="defs27667">
    <linearGradient
       inkscape:collect="always"
       xlink:href="#linearGradient7209-9"
       id="linearGradient3222"
       gradientUnits="userSpaceOnUse"
       gradientTransform="translate(-1220.8044,-606.83521)"
       x1="1230.3125"
       y1="623.34375"
       x2="1230.3125"
       y2="611.34375" />
    <linearGradient
       inkscape:collect="always"
       xlink:href="#linearGradient7251-3"
       id="linearGradient3224"
       gradientUnits="userSpaceOnUse"
       gradientTransform="matrix(28.818178,0,0,28.818178,-38680.061,-17515.544)"
       x1="1230.3125"
       y1="623.34375"
       x2="1230.3125"
       y2="611.34375" />
    <linearGradient
       inkscape:collect="always"
       xlink:href="#linearGradient9097-0"
       id="linearGradient3226"
       gradientUnits="userSpaceOnUse"
       gradientTransform="matrix(28.818178,0,0,28.818178,-38680.061,-17515.543)"
       x1="1230.3125"
       y1="623.34375"
       x2="1230.3125"
       y2="611.34375" />
    <linearGradient
       id="linearGradient7209-9">
      <stop
         id="stop7211-8"
         offset="0"
         style="stop-color:#a1988f;stop-opacity:1;" />
      <stop
         id="stop7213-9"
         offset="1"
         style="stop-color:#e4dfd4;stop-opacity:1;" />
    </linearGradient>
    <linearGradient
       id="linearGradient9097-0">
      <stop
         style="stop-color:#000000;stop-opacity:0.49634215;"
         offset="0"
         id="stop9099-4" />
      <stop
         style="stop-color:#000000;stop-opacity:0.41474396;"
         offset="1"
         id="stop9101-5" />
    </linearGradient>
    <linearGradient
       id="linearGradient7251-3">
      <stop
         style="stop-color:#ffffff;stop-opacity:1;"
         offset="0"
         id="stop7253-27" />
      <stop
         style="stop-color:#ffffff;stop-opacity:1;"
         offset="1"
         id="stop7255-3" />
    </linearGradient>
    <linearGradient
       inkscape:collect="always"
       xlink:href="#linearGradient7209-9"
       id="linearGradient3021"
       gradientUnits="userSpaceOnUse"
       gradientTransform="translate(-1220.8044,-606.83521)"
       x1="1230.3125"
       y1="623.34375"
       x2="1230.3125"
       y2="611.34375" />
    <linearGradient
       inkscape:collect="always"
       xlink:href="#linearGradient7209-9"
       id="linearGradient3025"
       gradientUnits="userSpaceOnUse"
       gradientTransform="matrix(28.818178,0,0,28.818178,-38679.827,-17515.544)"
       x1="1230.3125"
       y1="623.34375"
       x2="1230.3125"
       y2="611.34375" />
    <linearGradient
       inkscape:collect="always"
       xlink:href="#linearGradient7209-9"
       id="linearGradient3028"
       gradientUnits="userSpaceOnUse"
       gradientTransform="matrix(28.818178,0,0,28.818178,-38679.827,-17515.544)"
       x1="1230.3125"
       y1="623.34375"
       x2="1230.3125"
       y2="611.34375" />
    <linearGradient
       inkscape:collect="always"
       xlink:href="#linearGradient7209-9"
       id="linearGradient3032"
       gradientUnits="userSpaceOnUse"
       gradientTransform="matrix(28.818178,0,0,28.818178,-38665.417,-17501.134)"
       x1="1230.3125"
       y1="623.34375"
       x2="1230.3125"
       y2="611.34375" />
    <linearGradient
       inkscape:collect="always"
       xlink:href="#linearGradient7209-9"
       id="linearGradient3036"
       gradientUnits="userSpaceOnUse"
       gradientTransform="matrix(28.818178,0,0,28.818178,-38679.827,-17515.544)"
       x1="1230.3125"
       y1="623.34375"
       x2="1230.3125"
       y2="611.34375" />
    <linearGradient
       inkscape:collect="always"
       xlink:href="#linearGradient7251-3"
       id="linearGradient3039"
       gradientUnits="userSpaceOnUse"
       gradientTransform="matrix(28.818178,0,0,28.818178,-38679.593,-17515.297)"
       x1="1230.3125"
       y1="623.34375"
       x2="1230.3125"
       y2="611.34375" />
    <linearGradient
       inkscape:collect="always"
       xlink:href="#linearGradient7209-9"
       id="linearGradient3043"
       gradientUnits="userSpaceOnUse"
       gradientTransform="translate(-1219.8043,-605.83515)"
       x1="1230.3125"
       y1="623.34375"
       x2="1230.3125"
       y2="611.34375" />
    <linearGradient
       inkscape:collect="always"
       xlink:href="#linearGradient7209-9"
       id="linearGradient3047"
       gradientUnits="userSpaceOnUse"
       gradientTransform="matrix(28.818178,0,0,28.818178,-38679.827,-17515.544)"
       x1="1230.3125"
       y1="623.34375"
       x2="1230.3125"
       y2="611.34375" />
    <linearGradient
       inkscape:collect="always"
       xlink:href="#linearGradient7209-9"
       id="linearGradient3051"
       gradientUnits="userSpaceOnUse"
       gradientTransform="matrix(28.818178,0,0,28.818178,-38679.827,-17515.544)"
       x1="1230.3125"
       y1="623.34375"
       x2="1230.3125"
       y2="611.34375" />
    <linearGradient
       inkscape:collect="always"
       xlink:href="#linearGradient7209-9"
       id="linearGradient3055"
       gradientUnits="userSpaceOnUse"
       gradientTransform="matrix(28.818178,0,0,28.818178,-38679.827,-17515.544)"
       x1="1230.3125"
       y1="623.34375"
       x2="1230.3125"
       y2="611.34375" />
    <linearGradient
       inkscape:collect="always"
       xlink:href="#linearGradient9097-0"
       id="linearGradient3058"
       gradientUnits="userSpaceOnUse"
       gradientTransform="matrix(28.818178,0,0,28.818178,-38679.592,-17515.297)"
       x1="1230.3125"
       y1="623.34375"
       x2="1230.3125"
       y2="611.34375" />
  </defs>
  <sodipodi:namedview
     id="base"
     pagecolor="#ffffff"
     bordercolor="#666666"
     borderopacity="1.0"
     inkscape:pageopacity="0.0"
     inkscape:pageshadow="2"
     inkscape:zoom="32"
     inkscape:cx="13.195313"
     inkscape:cy="9.8348321"
     inkscape:document-units="px"
     inkscape:current-layer="g3060"
     showgrid="true"
     inkscape:window-width="1680"
     inkscape:window-height="998"
     inkscape:window-x="-8"
     inkscape:window-y="25"
     inkscape:window-maximized="1"
     inkscape:snap-bbox="true"
     inkscape:bbox-paths="true"
     inkscape:bbox-nodes="true"
     inkscape:snap-bbox-edge-midpoints="true"
     inkscape:snap-bbox-midpoints="true"
     inkscape:object-paths="true"
     inkscape:snap-intersection-paths="true"
     inkscape:object-nodes="true"
     inkscape:snap-smooth-nodes="true"
     inkscape:snap-midpoints="true"
     inkscape:snap-object-midpoints="true"
     inkscape:snap-center="true"
     inkscape:snap-global="true"
     showguides="false"
     inkscape:guide-bbox="true"
     fit-margin-top="0"
     fit-margin-left="0"
     fit-margin-right="0"
     fit-margin-bottom="0"
     inkscape:showpageshadow="false">
    <sodipodi:guide
       orientation="0,1"
       position="-278.49589,525.00003"
       id="guide3572" />
    <sodipodi:guide
       orientation="1,0"
       position="-584.07639,237.12181"
       id="guide3574" />
    <sodipodi:guide
       orientation="0,1"
       position="-422.45199,825.00002"
       id="guide3576" />
    <sodipodi:guide
       orientation="0,1"
       position="-878.49589,225.00001"
       id="guide3578" />
    <sodipodi:guide
       orientation="1,0"
       position="-878.49589,382.58376"
       id="guide3580" />
    <sodipodi:guide
       orientation="1,0"
       position="-278.49589,346.21831"
       id="guide3582" />
    <sodipodi:guide
       orientation="0,1"
       position="-278.49589,-489.34349"
       id="guide5928" />
    <sodipodi:guide
       orientation="0,1"
       position="-278.49589,-189.34349"
       id="guide5930" />
    <sodipodi:guide
       orientation="0,1"
       position="-278.49589,-789.34346"
       id="guide5932" />
    <sodipodi:guide
       orientation="0,1"
       position="-426.92559,749.99616"
       id="guide5294" />
    <sodipodi:guide
       orientation="0,1"
       position="-426.92559,300.01361"
       id="guide5296" />
    <sodipodi:guide
       orientation="0,1"
       position="-382.48089,-706.36399"
       id="guide5413" />
    <sodipodi:guide
       orientation="0,1"
       position="-421.14729,-264.34379"
       id="guide5415" />
    <inkscape:grid
       type="xygrid"
       id="grid3228"
       empspacing="5"
       visible="true"
       enabled="true"
       snapvisiblegridlinesonly="true" />
  </sodipodi:namedview>
  <metadata
     id="metadata27670">
    <rdf:RDF>
      <cc:Work
         rdf:about="">
        <dc:format>image/svg+xml</dc:format>
        <dc:type
           rdf:resource="http://purl.org/dc/dcmitype/StillImage" />
        <dc:title />
      </cc:Work>
    </rdf:RDF>
  </metadata>
  <g
     inkscape:label="Camada 1"
     inkscape:groupmode="layer"
     id="layer1"
     transform="translate(2485.9213,-2319.7186)">
    <g
       inkscape:label="#g3190"
       transform="matrix(0.03470032,0,0,0.03470032,-2364.0233,2321.1784)"
       id="22-7-5">
      <rect
         style="opacity:0.00100002;fill:#ffffff;fill-opacity:1;fill-rule:nonzero;stroke:none"
         id="rect3192-1-1-8"
         width="634"
         height="634"
         x="-3512.6445"
         y="-42.067711" />
      <g
         id="g3060">
        <path
           id="path3049"
           d="m -3455.0081,102.26901 c -31.432,0 -57.6364,26.20437 -57.6364,57.63635 l 0,230.54543 c 0,31.43198 26.2044,57.63635 57.6364,57.63635 l 461.0908,0 c 31.432,0 57.6364,-26.20437 57.6364,-57.63635 l 0,-28.81818 28.8182,0 c 15.9652,0 28.8182,-12.85349 28.8182,-28.81818 l 0,-115.27271 c 0,-15.9647 -12.8558,-28.46602 -28.8182,-28.81818 l -28.8182,0 0,-28.81818 c 0,-31.43198 -26.2044,-57.63635 -57.6364,-57.63635 z m 0,57.63635 461.0908,0 0,57.63636 0,115.27271 0,57.63636 -461.0908,0 z m 28.8182,28.81818 0,172.90907 57.6363,0 0,-172.90907 z m 86.4545,0 0,172.90907 57.6364,0 0,-172.90907 z m 86.4545,0 0,172.90907 57.6364,0 0,-172.90907 z m 86.4546,0 0,172.90907 57.6363,0 0,-172.90907 z"
           style="font-size:medium;font-style:normal;font-variant:normal;font-weight:normal;font-stretch:normal;text-indent:0;text-align:start;text-decoration:none;line-height:normal;letter-spacing:normal;word-spacing:normal;text-transform:none;direction:ltr;block-progression:tb;writing-mode:lr-tb;text-anchor:start;baseline-shift:baseline;color:#000000;fill:url(#linearGradient3051);fill-opacity:1;stroke:none;stroke-width:57.63636017;marker:none;visibility:visible;display:inline;overflow:visible;enable-background:accumulate;font-family:Sans;-inkscape-font-specification:Sans"
           inkscape:connector-curvature="0"
           sodipodi:nodetypes="sssssscsssccsssccccccccccccccccccccccccccc" />
        <path
           inkscape:connector-curvature="0"
           id="path3041"
           d="m -2961.4968,112.17526 c 6.9268,9.50941 10.8069,20.86322 10.8069,33.32102 l 0,28.81817 14.409,0 0,-14.40909 c 0,-19.64498 -9.865,-37.29046 -25.2159,-47.7301 z m -507.9203,33.32102 0,230.54542 14.409,0 0,-216.13634 446.6818,0 0,-14.40908 z m 86.4545,43.22726 0,158.49998 -43.2273,0 0,14.40909 57.6364,0 0,-172.90907 z m 86.4545,0 0,158.49998 -43.2272,0 0,14.40909 57.6363,0 0,-172.90907 z m 86.4546,0 0,158.49998 -43.2273,0 0,14.40909 57.6363,0 0,-172.90907 z m 86.4545,0 0,158.49998 -43.2273,0 0,14.40909 57.6364,0 0,-172.90907 z m 228.7443,3.60227 c 1.4546,3.42254 1.8011,6.81565 1.8011,10.80682 l 0,115.27271 c 0,15.9647 -12.8529,28.81818 -28.8182,28.81818 l -28.8181,0 0,28.81818 c 0,31.43199 -26.2044,57.63636 -57.6364,57.63636 l -461.0908,0 c -12.4578,0 -23.8116,-3.88011 -33.3211,-10.80682 10.4397,15.35089 28.0851,25.2159 47.7301,25.2159 l 461.0909,0 c 31.432,0 57.6363,-26.20436 57.6363,-57.63635 l 0,-28.81818 28.8182,0 c 15.9652,0 28.8182,-12.85348 28.8182,-28.81818 l 0,-115.27271 c 0,-11.51816 -6.4879,-20.56526 -16.2102,-25.21591 z"
           style="font-size:medium;font-style:normal;font-variant:normal;font-weight:normal;font-stretch:normal;text-indent:0;text-align:start;text-decoration:none;line-height:normal;letter-spacing:normal;word-spacing:normal;text-transform:none;direction:ltr;block-progression:tb;writing-mode:lr-tb;text-anchor:start;baseline-shift:baseline;color:#000000;fill:url(#linearGradient3058);fill-opacity:1;stroke:none;stroke-width:57.63636017;marker:none;visibility:visible;display:inline;overflow:visible;enable-background:accumulate;font-family:Sans;-inkscape-font-specification:Sans"
           sodipodi:nodetypes="csccscccccccccccccccccccccccccccccccccccccssscssscssscsssc" />
        <path
           inkscape:connector-curvature="0"
           id="path3019"
           d="m -3455.0081,102.26901 c -31.432,0 -57.6364,26.20437 -57.6364,57.63636 l 0,230.54542 c 0,18.54294 9.4819,35.33158 23.4148,45.92897 -5.8569,-9.00482 -9.0057,-20.15831 -9.0057,-31.51988 l 0,-230.54543 c 0,-31.43198 26.2044,-57.63635 57.6364,-57.63635 l 461.0908,0 c 11.3616,0 22.515,3.1488 31.5199,9.00568 -10.5974,-13.93286 -27.386,-23.41477 -45.929,-23.41477 z m 461.0908,72.04544 0,43.22727 0,115.27271 0,57.63636 -446.6817,0 0,14.40909 461.0908,0 0,-57.63636 0,-115.27271 0,-57.63636 z m -432.2727,14.40909 0,172.90907 14.4091,0 0,-158.49998 43.2273,0 0,-14.40909 z m 86.4546,0 0,172.90907 14.4091,0 0,-158.49998 43.2272,0 0,-14.40909 z m 86.4545,0 0,172.90907 14.4091,0 0,-158.49998 43.2273,0 0,-14.40909 z m 86.4545,0 0,172.90907 14.4091,0 0,-158.49998 43.2273,0 0,-14.40909 z m 244.9546,0 0,14.40909 28.8181,0 c 3.9906,0.088 8.2575,1.23074 11.7074,2.70171 -4.621,-9.64011 -14.6,-16.85672 -26.1165,-17.1108 z"
           style="font-size:medium;font-style:normal;font-variant:normal;font-weight:normal;font-stretch:normal;text-indent:0;text-align:start;text-decoration:none;line-height:normal;letter-spacing:normal;word-spacing:normal;text-transform:none;direction:ltr;block-progression:tb;writing-mode:lr-tb;text-anchor:start;baseline-shift:baseline;color:#000000;fill:url(#linearGradient3039);fill-opacity:1;stroke:none;stroke-width:57.63636017;marker:none;visibility:visible;display:inline;overflow:visible;enable-background:accumulate;font-family:Sans;-inkscape-font-specification:Sans"
           sodipodi:nodetypes="ssscsssscssccccccccccccccccccccccccccccccccccccccccccccc" />
      </g>
    </g>
  </g>
</svg>
