<?xml version="1.0" encoding="UTF-8" standalone="no"?>
<!-- Created with Inkscape (http://www.inkscape.org/) -->

<svg
   xmlns:dc="http://purl.org/dc/elements/1.1/"
   xmlns:cc="http://creativecommons.org/ns#"
   xmlns:rdf="http://www.w3.org/1999/02/22-rdf-syntax-ns#"
   xmlns:svg="http://www.w3.org/2000/svg"
   xmlns="http://www.w3.org/2000/svg"
   xmlns:xlink="http://www.w3.org/1999/xlink"
   xmlns:sodipodi="http://sodipodi.sourceforge.net/DTD/sodipodi-0.dtd"
   xmlns:inkscape="http://www.inkscape.org/namespaces/inkscape"
   width="22.000002"
   height="22.000002"
   id="svg27665"
   version="1.1"
   inkscape:version="0.48.3.1 r9886"
   sodipodi:docname="dropboxstatus-logo.svg">
  <defs
     id="defs27667">
    <linearGradient
       inkscape:collect="always"
       xlink:href="#linearGradient7251-3"
       id="linearGradient3825"
       gradientUnits="userSpaceOnUse"
       gradientTransform="matrix(29.577232,0,0,29.577232,-3520.3642,-101.14012)"
       x1="11"
       y1="20"
       x2="11"
       y2="2" />
    <linearGradient
       inkscape:collect="always"
       xlink:href="#linearGradient7209-9"
       id="linearGradient3829"
       gradientUnits="userSpaceOnUse"
       gradientTransform="matrix(29.577232,0,0,29.577232,-3520.3642,-101.14012)"
       x1="11"
       y1="20"
       x2="11"
       y2="2" />
    <linearGradient
       inkscape:collect="always"
       xlink:href="#linearGradient9097-0"
       id="linearGradient3836"
       gradientUnits="userSpaceOnUse"
       gradientTransform="matrix(29.577232,0,0,29.577232,-3520.3642,-101.14012)"
       x1="11"
       y1="20"
       x2="11"
       y2="2" />
    <linearGradient
       id="linearGradient7209-9">
      <stop
         id="stop7211-8"
         offset="0"
         style="stop-color:#a1988f;stop-opacity:1;" />
      <stop
         id="stop7213-9"
         offset="1"
         style="stop-color:#e4dfd4;stop-opacity:1;" />
    </linearGradient>
    <linearGradient
       id="linearGradient9097-0">
      <stop
         style="stop-color:#000000;stop-opacity:0.49634215;"
         offset="0"
         id="stop9099-4" />
      <stop
         style="stop-color:#000000;stop-opacity:0.41474396;"
         offset="1"
         id="stop9101-5" />
    </linearGradient>
    <linearGradient
       id="linearGradient7251-3">
      <stop
         style="stop-color:#ffffff;stop-opacity:1;"
         offset="0"
         id="stop7253-27" />
      <stop
         style="stop-color:#ffffff;stop-opacity:1;"
         offset="1"
         id="stop7255-3" />
    </linearGradient>
  </defs>
  <sodipodi:namedview
     id="base"
     pagecolor="#ffffff"
     bordercolor="#666666"
     borderopacity="1.0"
     inkscape:pageopacity="0.0"
     inkscape:pageshadow="2"
     inkscape:zoom="22.400001"
     inkscape:cx="18.528035"
     inkscape:cy="13.49095"
     inkscape:document-units="px"
     inkscape:current-layer="g4412"
     showgrid="false"
     inkscape:window-width="1680"
     inkscape:window-height="1000"
     inkscape:window-x="-8"
     inkscape:window-y="23"
     inkscape:window-maximized="1"
     inkscape:snap-bbox="true"
     inkscape:bbox-paths="true"
     inkscape:bbox-nodes="true"
     inkscape:snap-bbox-edge-midpoints="true"
     inkscape:snap-bbox-midpoints="true"
     inkscape:object-paths="true"
     inkscape:snap-intersection-paths="true"
     inkscape:object-nodes="true"
     inkscape:snap-smooth-nodes="true"
     inkscape:snap-midpoints="true"
     inkscape:snap-object-midpoints="true"
     inkscape:snap-center="true"
     inkscape:snap-global="true"
     showguides="true"
     inkscape:guide-bbox="true"
     fit-margin-top="0"
     fit-margin-left="0"
     fit-margin-right="0"
     fit-margin-bottom="0"
     inkscape:showpageshadow="false">
    <inkscape:grid
       type="xygrid"
       id="grid3081"
       empspacing="5"
       visible="true"
       enabled="true"
       snapvisiblegridlinesonly="true" />
  </sodipodi:namedview>
  <metadata
     id="metadata27670">
    <rdf:RDF>
      <cc:Work
         rdf:about="">
        <dc:format>image/svg+xml</dc:format>
        <dc:type
           rdf:resource="http://purl.org/dc/dcmitype/StillImage" />
        <dc:title />
      </cc:Work>
    </rdf:RDF>
  </metadata>
  <g
     inkscape:label="Camada 1"
     inkscape:groupmode="layer"
     id="layer1"
     transform="translate(2642.0461,-1982.4796)">
    <g
       id="normal-3"
       transform="matrix(0.03380979,0,0,0.03380979,-2523.1019,1985.1615)"
       inkscape:label="#g3132">
      <rect
         y="-79.323952"
         x="-3518.0396"
         height="650.69916"
         width="650.69916"
         id="rect3134"
         style="opacity:0.00100002;fill:#ffffff;stroke:none" />
      <g
         id="g4412"
         transform="translate(2.3239781,21.816943)">
        <path
           inkscape:connector-curvature="0"
           style="fill:url(#linearGradient3829);fill-opacity:1;fill-rule:nonzero;stroke:none"
           d="m -3342.9008,-41.985656 -147.8862,106.293178 147.8862,106.293178 -147.8862,107.21747 295.7724,212.58635 295.7723,-212.58635 -147.8862,-107.21747 147.8862,-106.293178 -147.8862,-106.293178 -147.8861,106.293178 -147.8862,-106.293178 z m 0,73.018791 113.6875,81.337385 34.1987,24.95579 34.1986,-24.95579 113.6875,-81.337385 47.1387,33.274387 -81.3374,58.230178 -66.5487,48.063 65.6244,48.063 81.3374,59.15447 -194.1005,139.56756 -194.1006,-139.56756 81.3374,-59.15447 65.6244,-48.063 -66.5487,-48.063 -81.3374,-58.230178 47.1387,-33.274387 z"
           id="path3827" />
        <path
           style="fill:url(#linearGradient3836);fill-opacity:1;fill-rule:nonzero;stroke:none;opacity:1"
           d="m -3357.6894,16.24452 -47.1387,33.274386 17.5615,12.940039 44.3658,-31.425809 113.6875,81.337384 34.1987,24.95579 34.1986,-24.95579 113.6875,-81.337384 29.5773,20.334347 2.7728,-1.848577 -47.1387,-33.274386 -113.6875,81.337382 -34.1987,24.955788 -34.1986,-24.955788 -113.6875,-81.337382 z m 440.8856,35.122963 -145.1133,104.444597 17.5615,12.94004 145.1133,-104.444598 -17.5615,-12.940039 z m -571.2103,11.091462 -2.7729,1.848577 130.3247,93.353138 2.7729,-1.84858 -130.3247,-93.353135 z m 228.2993,95.201715 -62.8517,46.21442 -81.3373,59.15447 17.5614,12.94003 78.5646,-57.30588 65.6244,-48.063 -17.5614,-12.94004 z m 114.6117,11.09146 -2.7728,1.84858 65.6245,48.063 63.7759,46.21442 2.7728,-1.84857 -81.3374,-59.15447 -48.063,-35.12296 z m 228.2993,96.126 -292.9995,210.73778 -278.2108,-199.64632 -2.7729,1.84858 295.7724,212.58636 295.7723,-212.58636 -17.5615,-12.94004 z"
           id="path3816"
           inkscape:connector-curvature="0" />
        <path
           style="fill:url(#linearGradient3825);fill-opacity:1;fill-rule:nonzero;stroke:none;opacity:1"
           d="m -3342.9008,-41.985656 -147.8862,106.293177 17.5615,12.940039 145.1133,-104.4446 147.8862,106.293177 147.8861,-106.293177 130.3247,93.353138 2.7729,-1.848577 -147.8862,-106.293177 -147.8862,106.293177 -147.8861,-106.293177 z m 340.1381,108.141754 -78.5645,56.381602 -66.5488,48.063 17.5615,12.94004 63.7759,-46.21443 81.3374,-58.230173 -17.5615,-12.940039 z m -369.7154,11.091462 -2.7728,1.848577 81.3374,58.230173 48.9873,35.12297 2.7728,-1.84858 -66.5487,-48.063 -63.776,-45.29014 z m 26.8044,95.20172 -145.1133,105.36889 17.5615,12.94004 145.1133,-105.36889 -17.5615,-12.94004 z m 316.1067,11.09146 -2.7729,1.84858 130.3247,94.27742 2.7729,-1.84857 -130.3247,-94.27743 z m 25.8801,96.126 -191.3278,137.71899 -176.5391,-126.62752 -2.7728,1.84857 194.1006,139.56757 194.1005,-139.56757 -17.5614,-12.94004 z"
           id="path3030"
           inkscape:connector-curvature="0" />
      </g>
    </g>
  </g>
</svg>
