<?xml version="1.0" encoding="UTF-8" standalone="no"?>
<!-- Created with Inkscape (http://www.inkscape.org/) -->

<svg
   xmlns:dc="http://purl.org/dc/elements/1.1/"
   xmlns:cc="http://creativecommons.org/ns#"
   xmlns:rdf="http://www.w3.org/1999/02/22-rdf-syntax-ns#"
   xmlns:svg="http://www.w3.org/2000/svg"
   xmlns="http://www.w3.org/2000/svg"
   xmlns:xlink="http://www.w3.org/1999/xlink"
   xmlns:sodipodi="http://sodipodi.sourceforge.net/DTD/sodipodi-0.dtd"
   xmlns:inkscape="http://www.inkscape.org/namespaces/inkscape"
   sodipodi:docname="haguichi-connecting-3.svg"
   inkscape:version="0.48.3.1 r9886"
   version="1.1"
   id="svg27665"
   height="21.999996"
   width="21.999996">
  <defs
     id="defs27667">
    <linearGradient
       inkscape:collect="always"
       xlink:href="#linearGradient7209-9"
       id="linearGradient3956"
       gradientUnits="userSpaceOnUse"
       gradientTransform="matrix(29.577241,0,0,29.577241,-3429.3067,-79.323202)"
       x1="12.000001"
       y1="20.999996"
       x2="12.000001"
       y2="0.99296731" />
    <linearGradient
       inkscape:collect="always"
       xlink:href="#linearGradient3042"
       id="linearGradient3840"
       gradientUnits="userSpaceOnUse"
       x1="14.000001"
       y1="20.999996"
       x2="14.000001"
       y2="15.005536" />
    <linearGradient
       inkscape:collect="always"
       xlink:href="#linearGradient3042"
       id="linearGradient3047"
       gradientUnits="userSpaceOnUse"
       gradientTransform="translate(1.12281e-5,6.3790002e-7)"
       x1="-3103.957"
       y1="423.4899"
       x2="-3103.957"
       y2="68.563004" />
    <linearGradient
       id="linearGradient3042">
      <stop
         style="stop-color:#00a0d8;stop-opacity:1"
         offset="0"
         id="stop3044" />
      <stop
         style="stop-color:#9ff6ff;stop-opacity:1"
         offset="1"
         id="stop3046" />
    </linearGradient>
    <linearGradient
       inkscape:collect="always"
       xlink:href="#linearGradient7209-9"
       id="linearGradient3956-6"
       gradientUnits="userSpaceOnUse"
       gradientTransform="matrix(29.577241,0,0,29.577241,-3429.3067,-79.323202)"
       x1="12.000001"
       y1="20.999996"
       x2="12.000001"
       y2="0.99296731" />
    <linearGradient
       id="linearGradient7209-9">
      <stop
         id="stop7211-8"
         offset="0"
         style="stop-color:#a1988f;stop-opacity:1;" />
      <stop
         id="stop7213-9-3"
         offset="1"
         style="stop-color:#e4dfd4;stop-opacity:1;" />
    </linearGradient>
    <linearGradient
       inkscape:collect="always"
       xlink:href="#linearGradient9097-0"
       id="linearGradient3963"
       gradientUnits="userSpaceOnUse"
       gradientTransform="matrix(29.577241,0,0,29.577241,-3429.3067,-79.323202)"
       x1="12.000001"
       y1="20.999996"
       x2="12.000001"
       y2="0.99296731" />
    <linearGradient
       id="linearGradient9097-0">
      <stop
         style="stop-color:#000000;stop-opacity:0.49634215;"
         offset="0"
         id="stop9099-4" />
      <stop
         style="stop-color:#000000;stop-opacity:0.41474396;"
         offset="1"
         id="stop9101-5" />
    </linearGradient>
    <linearGradient
       id="linearGradient7251-3">
      <stop
         style="stop-color:#ffffff;stop-opacity:1;"
         offset="0"
         id="stop7253-27" />
      <stop
         style="stop-color:#ffffff;stop-opacity:1;"
         offset="1"
         id="stop7255-3" />
    </linearGradient>
    <linearGradient
       y2="0.99296731"
       x2="12.000001"
       y1="20.999996"
       x1="12.000001"
       gradientTransform="matrix(29.577241,0,0,29.577241,-3429.3067,-79.323202)"
       gradientUnits="userSpaceOnUse"
       id="linearGradient3072"
       xlink:href="#linearGradient7251-3"
       inkscape:collect="always" />
  </defs>
  <sodipodi:namedview
     id="base"
     pagecolor="#ffffff"
     bordercolor="#666666"
     borderopacity="1.0"
     inkscape:pageopacity="0.0"
     inkscape:pageshadow="2"
     inkscape:zoom="22.627418"
     inkscape:cx="17.719312"
     inkscape:cy="8.4614396"
     inkscape:document-units="px"
     inkscape:current-layer="normal"
     showgrid="true"
     inkscape:window-width="1680"
     inkscape:window-height="998"
     inkscape:window-x="-8"
     inkscape:window-y="25"
     inkscape:window-maximized="1"
     inkscape:snap-bbox="true"
     inkscape:bbox-paths="true"
     inkscape:bbox-nodes="true"
     inkscape:snap-bbox-edge-midpoints="true"
     inkscape:snap-bbox-midpoints="true"
     inkscape:object-paths="true"
     inkscape:snap-intersection-paths="true"
     inkscape:object-nodes="true"
     inkscape:snap-smooth-nodes="true"
     inkscape:snap-midpoints="true"
     inkscape:snap-object-midpoints="true"
     inkscape:snap-center="true"
     inkscape:snap-global="true"
     showguides="false"
     inkscape:guide-bbox="true"
     fit-margin-top="0"
     fit-margin-left="0"
     fit-margin-right="0"
     fit-margin-bottom="0"
     inkscape:showpageshadow="false">
    <sodipodi:guide
       orientation="0,1"
       position="599.99995,299.99996"
       id="guide3572" />
    <sodipodi:guide
       orientation="1,0"
       position="294.41945,12.121743"
       id="guide3574" />
    <sodipodi:guide
       orientation="0,1"
       position="456.04385,599.99995"
       id="guide3576" />
    <sodipodi:guide
       orientation="0,1"
       position="-4.6131494e-05,-5.7459226e-05"
       id="guide3578" />
    <sodipodi:guide
       orientation="1,0"
       position="-4.6131494e-05,157.58369"
       id="guide3580" />
    <sodipodi:guide
       orientation="1,0"
       position="599.99995,121.21824"
       id="guide3582" />
    <sodipodi:guide
       orientation="0,1"
       position="599.99995,-714.34356"
       id="guide5928" />
    <sodipodi:guide
       orientation="0,1"
       position="599.99995,-414.34356"
       id="guide5930" />
    <sodipodi:guide
       orientation="0,1"
       position="599.99995,-1014.3435"
       id="guide5932" />
    <sodipodi:guide
       orientation="0,1"
       position="451.57025,524.99609"
       id="guide5294" />
    <sodipodi:guide
       orientation="0,1"
       position="451.57025,75.013543"
       id="guide5296" />
    <sodipodi:guide
       orientation="0,1"
       position="496.01495,-931.36406"
       id="guide5413" />
    <sodipodi:guide
       orientation="0,1"
       position="457.34855,-489.34386"
       id="guide5415" />
    <inkscape:grid
       type="xygrid"
       id="grid3066"
       empspacing="5"
       visible="true"
       enabled="true"
       snapvisiblegridlinesonly="true" />
  </sodipodi:namedview>
  <metadata
     id="metadata27670">
    <rdf:RDF>
      <cc:Work
         rdf:about="">
        <dc:format>image/svg+xml</dc:format>
        <dc:type
           rdf:resource="http://purl.org/dc/dcmitype/StillImage" />
        <dc:title />
      </cc:Work>
    </rdf:RDF>
  </metadata>
  <g
     inkscape:label="Camada 1"
     inkscape:groupmode="layer"
     id="layer1"
     transform="translate(3364.4171,-2094.7186)">
    <g
       id="normal"
       transform="matrix(0.03380978,0,0,0.03380978,-3245.473,2097.4005)"
       inkscape:label="#g3217">
      <rect
         y="-79.323952"
         x="-3518.0396"
         height="650.69916"
         width="650.69916"
         id="rect3219"
         style="opacity:0.00100002;fill:#ffffff;stroke:none" />
      <path
         inkscape:connector-curvature="0"
         style="fill:url(#linearGradient3956);fill-opacity:1;fill-rule:nonzero;stroke:none;opacity:0.5"
         d="m -3097.487,-49.745961 c -17.0481,-1.204808 -34.921,2.827286 -50.8359,12.015754 -35.044,20.232649 -50.8687,60.569676 -41.593,97.974611 -2.4304,13.602121 -10.9009,34.008142 -36.9716,60.078766 -29.6697,29.66974 -52.4649,36.88756 -66.5487,38.82013 -20.4163,-4.10031 -42.4759,-1.06317 -61.9274,10.16718 -42.4397,24.50259 -56.8527,78.6421 -32.3501,121.08183 19.2237,33.29646 56.6486,48.94809 92.4289,42.51728 13.7884,1.45828 37.3958,7.8186 68.3973,38.82013 24.8693,24.86923 34.0829,44.63212 36.9716,58.2302 -5.8774,21.93466 -3.0084,46.25321 9.2429,67.47308 24.5026,42.43973 78.6421,56.85269 121.0818,32.3501 42.4397,-24.50258 56.8527,-78.64209 32.3501,-121.08183 -20.2326,-35.04397 -60.5696,-50.86865 -97.9746,-41.59299 -13.6021,-2.43042 -34.0081,-10.90093 -60.0788,-36.97155 -29.6697,-29.66973 -36.8875,-52.465 -38.8201,-66.54879 2.173,-10.81951 1.9909,-22.19716 0,-33.2744 1.4583,-13.78841 7.8186,-37.39582 38.8201,-68.39737 24.2686,-24.2685 43.7351,-33.85782 57.3059,-36.97155 0.2751,0.0765 0.6485,-0.0739 0.9243,0 21.9347,5.87737 46.2532,3.0084 67.4731,-9.24289 42.4397,-24.502584 56.8527,-78.642109 32.3501,-121.0818295 -15.3141,-26.5248255 -41.8325,-42.3578475 -70.2459,-44.3658615 z"
         id="path3954" />
      <path
         transform="matrix(29.577241,0,0,29.577241,-3518.0383,-493.40468)"
         d="m 17,17.999996 c 0,1.656854 -1.343146,3 -3,3 -1.656854,0 -3,-1.343146 -3,-3 0,-1.656854 1.343146,-3 3,-3 1.656854,0 3,1.343146 3,3 z"
         sodipodi:ry="3"
         sodipodi:rx="3"
         sodipodi:cy="17.999996"
         sodipodi:cx="14"
         id="path3838"
         style="fill:url(#linearGradient3840);fill-opacity:1;fill-rule:nonzero;stroke:none"
         sodipodi:type="arc" />
      <path
         style="fill:#1a7290;fill-opacity:1;fill-rule:nonzero;stroke:none"
         d="m -3049.4239,-30.336004 c 11.9015,15.10075 19.4101,33.8139398 19.4101,54.53304 0,49.00517 -39.7265,88.731724 -88.7317,88.731724 -20.7191,0 -39.4323,-7.5086 -54.5331,-19.41006 16.2482,20.61581 41.0356,34.19868 69.3217,34.19868 49.0052,0 88.7317,-39.72655 88.7317,-88.731724 0,-28.28608 -13.5828,-53.07355 -34.1987,-69.32166 z"
         id="path3827"
         inkscape:connector-curvature="0" />
      <path
         style="fill:#defbff;fill-opacity:1;fill-rule:nonzero;stroke:none"
         d="m -3103.9569,-49.746074 c -49.0052,0 -88.7318,39.72656 -88.7318,88.73173 0,28.28607 13.5829,53.07354 34.1987,69.321654 -11.9015,-15.100744 -19.41,-33.813944 -19.41,-54.533034 0,-49.0051699 39.7265,-88.73173 88.7317,-88.73173 20.7191,0 39.4323,7.5086 54.533,19.41007 -16.2481,-20.61581 -41.0356,-34.19869 -69.3216,-34.19869 z"
         id="path3051"
         inkscape:connector-curvature="0" />
    </g>
  </g>
</svg>
