<?xml version="1.0" encoding="UTF-8" standalone="no"?>
<!-- Created with Inkscape (http://www.inkscape.org/) -->

<svg
   xmlns:dc="http://purl.org/dc/elements/1.1/"
   xmlns:cc="http://creativecommons.org/ns#"
   xmlns:rdf="http://www.w3.org/1999/02/22-rdf-syntax-ns#"
   xmlns:svg="http://www.w3.org/2000/svg"
   xmlns="http://www.w3.org/2000/svg"
   xmlns:xlink="http://www.w3.org/1999/xlink"
   xmlns:sodipodi="http://sodipodi.sourceforge.net/DTD/sodipodi-0.dtd"
   xmlns:inkscape="http://www.inkscape.org/namespaces/inkscape"
   sodipodi:docname="haguichi-connected.svg"
   inkscape:version="0.48.3.1 r9886"
   version="1.1"
   id="svg27665"
   height="21.999996"
   width="21.999996">
  <defs
     id="defs27667">
    <linearGradient
       inkscape:collect="always"
       xlink:href="#linearGradient7251-3"
       id="linearGradient3952"
       gradientUnits="userSpaceOnUse"
       gradientTransform="matrix(29.577241,0,0,29.577241,-3429.3067,-79.323202)"
       x1="12.000001"
       y1="20.999996"
       x2="12.000001"
       y2="0.99296731" />
    <linearGradient
       inkscape:collect="always"
       xlink:href="#linearGradient7209-9"
       id="linearGradient3956"
       gradientUnits="userSpaceOnUse"
       gradientTransform="matrix(29.577241,0,0,29.577241,-3429.3067,-79.323202)"
       x1="12.000001"
       y1="20.999996"
       x2="12.000001"
       y2="0.99296731" />
    <linearGradient
       inkscape:collect="always"
       xlink:href="#linearGradient9097-0"
       id="linearGradient3963"
       gradientUnits="userSpaceOnUse"
       gradientTransform="matrix(29.577241,0,0,29.577241,-3429.3067,-79.323202)"
       x1="12.000001"
       y1="20.999996"
       x2="12.000001"
       y2="0.99296731" />
    <linearGradient
       inkscape:collect="always"
       xlink:href="#linearGradient7209-9"
       id="linearGradient3051"
       gradientUnits="userSpaceOnUse"
       gradientTransform="matrix(28.818178,0,0,28.818178,-38679.827,-17515.544)"
       x1="1230.3125"
       y1="623.34375"
       x2="1230.3125"
       y2="611.34375" />
    <linearGradient
       id="linearGradient7209-9">
      <stop
         id="stop7211-8"
         offset="0"
         style="stop-color:#a1988f;stop-opacity:1;" />
      <stop
         id="stop7213-9-3"
         offset="1"
         style="stop-color:#e4dfd4;stop-opacity:1;" />
    </linearGradient>
    <linearGradient
       inkscape:collect="always"
       xlink:href="#linearGradient9097-0"
       id="linearGradient3058"
       gradientUnits="userSpaceOnUse"
       gradientTransform="matrix(28.818178,0,0,28.818178,-38679.592,-17515.297)"
       x1="1230.3125"
       y1="623.34375"
       x2="1230.3125"
       y2="611.34375" />
    <linearGradient
       id="linearGradient9097-0">
      <stop
         style="stop-color:#000000;stop-opacity:0.49634215;"
         offset="0"
         id="stop9099-4" />
      <stop
         style="stop-color:#000000;stop-opacity:0.41474396;"
         offset="1"
         id="stop9101-5" />
    </linearGradient>
    <linearGradient
       inkscape:collect="always"
       xlink:href="#linearGradient7251-3"
       id="linearGradient3039"
       gradientUnits="userSpaceOnUse"
       gradientTransform="matrix(28.818178,0,0,28.818178,-38679.593,-17515.297)"
       x1="1230.3125"
       y1="623.34375"
       x2="1230.3125"
       y2="611.34375" />
    <linearGradient
       id="linearGradient7251-3">
      <stop
         style="stop-color:#ffffff;stop-opacity:1;"
         offset="0"
         id="stop7253-27" />
      <stop
         style="stop-color:#ffffff;stop-opacity:1;"
         offset="1"
         id="stop7255-3" />
    </linearGradient>
  </defs>
  <sodipodi:namedview
     id="base"
     pagecolor="#ffffff"
     bordercolor="#666666"
     borderopacity="1.0"
     inkscape:pageopacity="0.0"
     inkscape:pageshadow="2"
     inkscape:zoom="22.627418"
     inkscape:cx="30.314651"
     inkscape:cy="7.9753037"
     inkscape:document-units="px"
     inkscape:current-layer="normal"
     showgrid="true"
     inkscape:window-width="1680"
     inkscape:window-height="998"
     inkscape:window-x="-8"
     inkscape:window-y="25"
     inkscape:window-maximized="1"
     inkscape:snap-bbox="true"
     inkscape:bbox-paths="true"
     inkscape:bbox-nodes="true"
     inkscape:snap-bbox-edge-midpoints="true"
     inkscape:snap-bbox-midpoints="true"
     inkscape:object-paths="true"
     inkscape:snap-intersection-paths="true"
     inkscape:object-nodes="true"
     inkscape:snap-smooth-nodes="true"
     inkscape:snap-midpoints="true"
     inkscape:snap-object-midpoints="true"
     inkscape:snap-center="true"
     inkscape:snap-global="true"
     showguides="false"
     inkscape:guide-bbox="true"
     fit-margin-top="0"
     fit-margin-left="0"
     fit-margin-right="0"
     fit-margin-bottom="0"
     inkscape:showpageshadow="false">
    <sodipodi:guide
       orientation="0,1"
       position="599.99995,299.99996"
       id="guide3572" />
    <sodipodi:guide
       orientation="1,0"
       position="294.41945,12.121743"
       id="guide3574" />
    <sodipodi:guide
       orientation="0,1"
       position="456.04385,599.99995"
       id="guide3576" />
    <sodipodi:guide
       orientation="0,1"
       position="-4.6131494e-05,-5.7459226e-05"
       id="guide3578" />
    <sodipodi:guide
       orientation="1,0"
       position="-4.6131494e-05,157.58369"
       id="guide3580" />
    <sodipodi:guide
       orientation="1,0"
       position="599.99995,121.21824"
       id="guide3582" />
    <sodipodi:guide
       orientation="0,1"
       position="599.99995,-714.34356"
       id="guide5928" />
    <sodipodi:guide
       orientation="0,1"
       position="599.99995,-414.34356"
       id="guide5930" />
    <sodipodi:guide
       orientation="0,1"
       position="599.99995,-1014.3435"
       id="guide5932" />
    <sodipodi:guide
       orientation="0,1"
       position="451.57025,524.99609"
       id="guide5294" />
    <sodipodi:guide
       orientation="0,1"
       position="451.57025,75.013543"
       id="guide5296" />
    <sodipodi:guide
       orientation="0,1"
       position="496.01495,-931.36406"
       id="guide5413" />
    <sodipodi:guide
       orientation="0,1"
       position="457.34855,-489.34386"
       id="guide5415" />
    <inkscape:grid
       type="xygrid"
       id="grid3066"
       empspacing="5"
       visible="true"
       enabled="true"
       snapvisiblegridlinesonly="true" />
  </sodipodi:namedview>
  <metadata
     id="metadata27670">
    <rdf:RDF>
      <cc:Work
         rdf:about="">
        <dc:format>image/svg+xml</dc:format>
        <dc:type
           rdf:resource="http://purl.org/dc/dcmitype/StillImage" />
        <dc:title />
      </cc:Work>
    </rdf:RDF>
  </metadata>
  <g
     inkscape:label="Camada 1"
     inkscape:groupmode="layer"
     id="layer1"
     transform="translate(3364.4171,-2094.7186)">
    <g
       id="normal"
       transform="matrix(0.03380978,0,0,0.03380978,-3245.473,2097.4005)"
       inkscape:label="#g3217">
      <rect
         y="-79.323952"
         x="-3518.0396"
         height="650.69916"
         width="650.69916"
         id="rect3219"
         style="opacity:0.00100002;fill:#ffffff;stroke:none" />
      <path
         inkscape:connector-curvature="0"
         style="fill:url(#linearGradient3956);fill-opacity:1;fill-rule:nonzero;stroke:none"
         d="m -3097.487,-49.745961 c -17.0481,-1.204808 -34.921,2.827286 -50.8359,12.015754 -35.044,20.232649 -50.8687,60.569676 -41.593,97.974611 -2.4304,13.602121 -10.9009,34.008142 -36.9716,60.078766 -29.6697,29.66974 -52.4649,36.88756 -66.5487,38.82013 -20.4163,-4.10031 -42.4759,-1.06317 -61.9274,10.16718 -42.4397,24.50259 -56.8527,78.6421 -32.3501,121.08183 19.2237,33.29646 56.6486,48.94809 92.4289,42.51728 13.7884,1.45828 37.3958,7.8186 68.3973,38.82013 24.8693,24.86923 34.0829,44.63212 36.9716,58.2302 -5.8774,21.93466 -3.0084,46.25321 9.2429,67.47308 24.5026,42.43973 78.6421,56.85269 121.0818,32.3501 42.4397,-24.50258 56.8527,-78.64209 32.3501,-121.08183 -20.2326,-35.04397 -60.5696,-50.86865 -97.9746,-41.59299 -13.6021,-2.43042 -34.0081,-10.90093 -60.0788,-36.97155 -29.6697,-29.66973 -36.8875,-52.465 -38.8201,-66.54879 2.173,-10.81951 1.9909,-22.19716 0,-33.2744 1.4583,-13.78841 7.8186,-37.39582 38.8201,-68.39737 24.2686,-24.2685 43.7351,-33.85782 57.3059,-36.97155 0.2751,0.0765 0.6485,-0.0739 0.9243,0 21.9347,5.87737 46.2532,3.0084 67.4731,-9.24289 42.4397,-24.502584 56.8527,-78.642109 32.3501,-121.0818295 -15.3141,-26.5248255 -41.8325,-42.3578475 -70.2459,-44.3658615 z"
         id="path3954" />
      <path
         style="fill:url(#linearGradient3963);fill-opacity:1;fill-rule:nonzero;stroke:none"
         d="m -3050.3483,-30.335896 c 2.7007,3.422261 6.0712,6.274454 8.3186,10.167176 24.5026,42.439721 10.0896,96.579246 -32.3501,121.08183 -21.2199,12.25129 -45.5384,15.12026 -67.4731,9.24289 -0.2758,-0.0739 -0.6491,0.0765 -0.9242,0 -13.5708,3.11373 -33.0374,12.70305 -57.306,36.97155 -31.0015,31.00155 -37.3618,54.60896 -38.8201,68.39737 1.9909,11.07724 2.173,22.45489 0,33.2744 1.9326,14.08379 9.1504,36.87906 38.8201,66.54879 3.2589,3.25882 6.1633,5.5872 9.2429,8.3186 -24.378,-26.45537 -31.4879,-47.06 -33.2744,-60.07877 2.173,-10.81951 1.9909,-22.19716 0,-33.2744 1.4583,-13.78841 7.8187,-37.39582 38.8202,-68.39737 24.2686,-24.2685 43.7351,-33.85782 57.3059,-36.97155 0.2751,0.0765 0.6485,-0.0739 0.9243,0 21.9347,5.87737 46.2531,3.0084 67.473,-9.24289 42.4397,-24.50258 56.8528,-78.642108 32.3502,-121.0818294 -5.9207,-10.2548166 -14.3752,-18.0782216 -23.1073,-24.9557966 z M -3381.2437,299.6352 c 20.3755,26.96918 53.6314,39.08464 85.9589,33.27439 12.7712,1.35071 34.2355,7.82777 61.9274,33.2744 -2.7574,-3.10067 -5.0378,-5.96206 -8.3186,-9.24289 -31.0015,-31.00153 -54.609,-37.36185 -68.3974,-38.82013 -25.3444,4.55517 -51.2287,-2.45893 -71.1703,-18.48577 z m 331.8197,84.11028 c 2.6111,3.31572 5.2193,6.39995 7.3943,10.16717 24.5026,42.43974 10.0896,96.57925 -32.3501,121.08183 -31.8298,18.37694 -70.4215,15.26361 -97.9746,-5.54573 27.0431,32.8935 74.6435,42.34281 112.7632,20.33436 42.4397,-24.50259 56.8528,-78.6421 32.3502,-121.08184 -5.8667,-10.16132 -13.4974,-18.16962 -22.183,-24.95579 z"
         id="path3943"
         inkscape:connector-curvature="0" />
      <path
         style="fill:url(#linearGradient3952);fill-opacity:1;fill-rule:nonzero;stroke:none"
         d="m -3110.4271,-49.745961 c -12.9649,1.056457 -25.9597,5.124403 -37.8958,12.015754 -35.044,20.232649 -50.8687,60.569676 -41.593,97.974611 -2.4304,13.60212 -10.901,34.008145 -36.9716,60.078766 -29.6697,29.66975 -52.4649,36.88756 -66.5488,38.82013 -20.4162,-4.10031 -42.4758,-1.06317 -61.9273,10.16718 -42.4397,24.50259 -56.8527,78.6421 -32.3501,121.08183 5.6069,9.71148 13.0474,17.4322 21.2586,24.03151 -2.1762,-2.8805 -4.6149,-6.0298 -6.47,-9.24289 -24.5026,-42.43973 -10.0896,-96.57924 32.3501,-121.08183 19.4515,-11.23035 41.5111,-14.26749 61.9274,-10.16718 14.0838,-1.93257 36.879,-9.15038 66.5487,-38.82013 26.0707,-26.07062 34.5412,-46.476645 36.9716,-60.078766 -9.2757,-37.404935 6.549,-77.7419618 41.593,-97.974611 15.9149,-9.188468 33.7878,-13.220562 50.8359,-12.015754 17.4284,1.231691 33.2847,8.498293 47.1387,19.410065 -15.7016,-19.896873 -37.6838,-32.485363 -61.9273,-34.198685 -4.2621,-0.301202 -8.6184,-0.352153 -12.9401,0 z m -65.6245,388.201291 c 1.9943,2.16416 3.3021,4.22644 5.5457,6.47002 26.0707,26.07062 46.4767,34.54113 60.0788,36.97155 25.9459,-6.43403 53.7884,-0.96848 74.8674,14.78862 -21.7864,-26.37885 -56.9267,-37.69344 -89.656,-29.57724 -11.9018,-2.1266 -29.2788,-9.53313 -50.8359,-28.65295 z m -42.5173,42.51728 c 18.1437,20.40285 26.1454,37.18312 28.653,48.98731 -5.8774,21.93466 -3.0084,46.25321 9.2429,67.47308 6.1256,10.60992 13.9228,19.86792 23.1072,26.80437 -3.0647,-3.72768 -5.8245,-7.69579 -8.3186,-12.01575 -12.2513,-21.21987 -15.1203,-45.53842 -9.2429,-67.47308 -2.8887,-13.59808 -12.1023,-33.36097 -36.9716,-58.2302 -2.287,-2.287 -4.2644,-3.51901 -6.47,-5.54573 z"
         id="path3806"
         inkscape:connector-curvature="0" />
    </g>
  </g>
</svg>
