<?xml version="1.0" encoding="UTF-8" standalone="no"?>
<!-- Created with Inkscape (http://www.inkscape.org/) -->

<svg
   xmlns:dc="http://purl.org/dc/elements/1.1/"
   xmlns:cc="http://creativecommons.org/ns#"
   xmlns:rdf="http://www.w3.org/1999/02/22-rdf-syntax-ns#"
   xmlns:svg="http://www.w3.org/2000/svg"
   xmlns="http://www.w3.org/2000/svg"
   xmlns:xlink="http://www.w3.org/1999/xlink"
   xmlns:sodipodi="http://sodipodi.sourceforge.net/DTD/sodipodi-0.dtd"
   xmlns:inkscape="http://www.inkscape.org/namespaces/inkscape"
   width="21.99909"
   height="21.99909"
   id="svg27665"
   version="1.1"
   inkscape:version="0.48.3.1 r9886"
   sodipodi:docname="notification-network-ethernet-disconnected.svg">
  <defs
     id="defs27667">
    <linearGradient
       id="linearGradient7209-9">
      <stop
         id="stop7211-8"
         offset="0"
         style="stop-color:#a1988f;stop-opacity:1;" />
      <stop
         id="stop7213-9"
         offset="1"
         style="stop-color:#e4dfd4;stop-opacity:1;" />
    </linearGradient>
    <linearGradient
       id="linearGradient9097-0">
      <stop
         style="stop-color:#000000;stop-opacity:0.49634215;"
         offset="0"
         id="stop9099-4" />
      <stop
         style="stop-color:#000000;stop-opacity:0.41474396;"
         offset="1"
         id="stop9101-5" />
    </linearGradient>
    <linearGradient
       id="linearGradient7251-3">
      <stop
         style="stop-color:#ffffff;stop-opacity:1;"
         offset="0"
         id="stop7253-27" />
      <stop
         style="stop-color:#ffffff;stop-opacity:1;"
         offset="1"
         id="stop7255-3" />
    </linearGradient>
    <linearGradient
       inkscape:collect="always"
       xlink:href="#linearGradient7209-9"
       id="linearGradient3813"
       gradientUnits="userSpaceOnUse"
       gradientTransform="matrix(-1,0,0,-1,22.500001,24.5009)"
       x1="9.999999"
       y1="2.9990902"
       x2="9.999999"
       y2="18.99909" />
    <linearGradient
       inkscape:collect="always"
       xlink:href="#linearGradient7209-9"
       id="linearGradient3817"
       gradientUnits="userSpaceOnUse"
       gradientTransform="matrix(-29.578457,0,0,-29.578457,-2869.6388,549.58561)"
       x1="9.999999"
       y1="2.9990902"
       x2="9.999999"
       y2="18.99909" />
    <linearGradient
       inkscape:collect="always"
       xlink:href="#linearGradient7209-9"
       id="linearGradient3819"
       gradientUnits="userSpaceOnUse"
       gradientTransform="matrix(-1,0,0,-1,21.500003,23.5009)"
       x1="9.999999"
       y1="2.9990902"
       x2="9.999999"
       y2="18.99909" />
    <linearGradient
       inkscape:collect="always"
       xlink:href="#linearGradient7251-3"
       id="linearGradient3822"
       gradientUnits="userSpaceOnUse"
       gradientTransform="matrix(-29.578457,0,0,-29.578457,-2869.6388,549.5856)"
       x1="9.999999"
       y1="2.9990902"
       x2="9.999999"
       y2="18.99909" />
    <linearGradient
       inkscape:collect="always"
       xlink:href="#linearGradient7209-9"
       id="linearGradient3826"
       gradientUnits="userSpaceOnUse"
       gradientTransform="matrix(-29.578457,0,0,-29.578457,-2869.6388,549.58561)"
       x1="9.999999"
       y1="2.9990902"
       x2="9.999999"
       y2="18.99909" />
    <linearGradient
       inkscape:collect="always"
       xlink:href="#linearGradient7209-9"
       id="linearGradient3830"
       gradientUnits="userSpaceOnUse"
       gradientTransform="matrix(-29.578457,0,0,-29.578457,-2869.6388,549.58561)"
       x1="9.999999"
       y1="2.9990902"
       x2="9.999999"
       y2="18.99909" />
    <linearGradient
       inkscape:collect="always"
       xlink:href="#linearGradient9097-0"
       id="linearGradient3833"
       gradientUnits="userSpaceOnUse"
       gradientTransform="matrix(-29.578457,0,0,-29.578457,-2869.6388,549.58561)"
       x1="9.999999"
       y1="2.9990902"
       x2="9.999999"
       y2="18.99909" />
  </defs>
  <sodipodi:namedview
     id="base"
     pagecolor="#ffffff"
     bordercolor="#666666"
     borderopacity="1.0"
     inkscape:pageopacity="0.0"
     inkscape:pageshadow="2"
     inkscape:zoom="31.678384"
     inkscape:cx="15.926355"
     inkscape:cy="7.9178389"
     inkscape:document-units="px"
     inkscape:current-layer="normal"
     showgrid="true"
     inkscape:window-width="1680"
     inkscape:window-height="998"
     inkscape:window-x="-8"
     inkscape:window-y="25"
     inkscape:window-maximized="1"
     inkscape:snap-bbox="true"
     inkscape:bbox-paths="true"
     inkscape:bbox-nodes="true"
     inkscape:snap-bbox-edge-midpoints="true"
     inkscape:snap-bbox-midpoints="true"
     inkscape:object-paths="true"
     inkscape:snap-intersection-paths="true"
     inkscape:object-nodes="true"
     inkscape:snap-smooth-nodes="true"
     inkscape:snap-midpoints="true"
     inkscape:snap-object-midpoints="true"
     inkscape:snap-center="true"
     inkscape:snap-global="true"
     showguides="true"
     inkscape:guide-bbox="true"
     fit-margin-top="0"
     fit-margin-left="0"
     fit-margin-right="0"
     fit-margin-bottom="0"
     inkscape:showpageshadow="false">
    <inkscape:grid
       type="xygrid"
       id="grid3076"
       empspacing="5"
       visible="true"
       enabled="true"
       snapvisiblegridlinesonly="true"
       originx="-9.3663526e-05px"
       originy="-4.8398872e-05px" />
  </sodipodi:namedview>
  <metadata
     id="metadata27670">
    <rdf:RDF>
      <cc:Work
         rdf:about="">
        <dc:format>image/svg+xml</dc:format>
        <dc:type
           rdf:resource="http://purl.org/dc/dcmitype/StillImage" />
        <dc:title />
      </cc:Work>
    </rdf:RDF>
  </metadata>
  <g
     inkscape:label="Camada 1"
     inkscape:groupmode="layer"
     id="layer1"
     transform="translate(3364.4173,-2094.7195)">
    <g
       id="normal"
       transform="matrix(0.03380839,0,0,0.03380839,-3245.478,2097.4013)"
       inkscape:label="#g3132">
      <rect
         y="-79.323952"
         x="-3518.0396"
         height="650.69916"
         width="650.69916"
         id="rect3134"
         style="opacity:0.00100002;fill:#ffffff;stroke:none" />
      <g
         id="g4412"
         transform="translate(2.3239781,21.816943)">
        <path
           inkscape:connector-curvature="0"
           style="fill:url(#linearGradient3826);fill-opacity:1;fill-rule:nonzero;stroke:none"
           d="m -3402.0511,-12.431695 c -16.3864,0 -29.5784,13.19199182 -29.5784,29.578457 l 0,414.098398 c 0,16.38647 13.192,29.57846 29.5784,29.57846 l 295.7846,0 0,-118.31383 -236.6277,0 0,-177.47074 59.157,0 0,-29.57846 29.5784,0 0,-29.57846 118.3138,0 0,29.57846 29.5785,0 0,29.57846 59.1569,0 0,147.89228 88.7354,0 0,-295.784568 c 0,-16.38646518 -13.192,-29.578457 -29.5785,-29.578457 l -414.0984,0 z m 88.7354,236.627655 0,88.73537 59.1569,0 0,-88.73537 -59.1569,0 z m 88.7354,0 0,88.73537 59.1569,0 0,-88.73537 -59.1569,0 z m 88.7353,0 0,88.73537 59.157,0 0,-88.73537 -59.157,0 z m 103.5246,121.08681 -41.5947,41.5947 20.3352,21.25952 37.8974,37.8974 -37.8974,37.8974 -20.3352,21.25951 41.5947,41.59471 21.2596,-20.33519 37.8974,-37.8974 37.8974,37.8974 21.2595,20.33519 41.5947,-41.59471 -20.3352,-21.25951 -37.8974,-37.8974 37.8974,-37.8974 20.3352,-21.25952 -41.5947,-41.5947 -21.2595,20.33519 -37.8974,37.8974 -37.8974,-37.8974 -21.2596,-20.33519 z"
           id="path3824" />
        <path
           style="fill:url(#linearGradient3833);fill-opacity:1;fill-rule:nonzero;stroke:none"
           d="m -2975.9364,-8.7343878 c 1.4928,3.5410974 2.773,6.9953051 2.773,11.0919214 l 0,295.7845764 -73.9462,0 0,14.78923 88.7354,0 0,-295.784578 c 0,-11.8462662 -7.5505,-21.1512173 -17.5622,-25.8811498 z m -293.0116,99.8272928 0,29.578465 -29.5784,0 0,29.57845 -59.157,0 0,177.47074 14.7893,0 0,-162.68151 59.1569,0 0,-29.57846 29.5784,0 0,-29.57845 103.5246,0 0,-14.789235 -118.3138,0 z m 133.1031,29.578465 0,14.78922 14.7892,0 0,-14.78922 -14.7892,0 z m 29.5784,29.57845 0,14.78923 44.3677,0 0,-14.78923 -44.3677,0 z m -162.6815,73.94615 0,73.94614 -44.3677,0 0,14.78923 59.1569,0 0,-88.73537 -14.7892,0 z m 88.7354,0 0,73.94614 -44.3677,0 0,14.78923 59.1569,0 0,-88.73537 -14.7892,0 z m 88.7354,0 0,73.94614 -44.3677,0 0,14.78923 59.1569,0 0,-88.73537 -14.7892,0 z m -29.5785,118.31382 0,103.5246 -295.7846,0 c -4.0966,0 -7.5508,-1.28018 -11.0919,-2.77298 4.7299,10.01172 14.0349,17.56221 25.8812,17.56221 l 295.7845,0 0,-118.31383 -14.7892,0 z m 233.8547,29.57846 -20.3352,21.25952 -37.8974,37.89739 14.7892,14.78923 37.8974,-37.8974 20.3352,-21.25951 -14.7892,-14.78923 z m -100.7516,101.67595 -37.8974,37.89739 -21.2596,20.33519 14.7893,14.78923 21.2595,-20.33519 37.8974,-37.8974 -14.7892,-14.78922 z m 100.7516,16.63788 -41.5947,41.5947 14.7892,14.78923 41.5947,-41.5947 -14.7892,-14.78923 z"
           id="path3811"
           inkscape:connector-curvature="0" />
        <path
           style="fill:url(#linearGradient3822);fill-opacity:1;fill-rule:nonzero;stroke:none"
           d="m -3402.0511,-12.431696 c -16.3864,0 -29.5784,13.19199238 -29.5784,29.578458 l 0,414.098388 c 0,11.84626 7.5505,21.15123 17.5622,25.88115 -1.4928,-3.5411 -2.773,-6.9953 -2.773,-11.09192 l 0,-414.09839 c 0,-16.386465 13.192,-29.5784566 29.5784,-29.5784566 l 414.0984,0 c 4.0967,0 7.5509,1.280191 11.092,2.7729803 -4.73,-10.0117075 -14.0349,-17.5622097 -25.8812,-17.5622097 l -414.0984,0 z m 266.2061,133.103046 0,14.78923 14.7893,0 0,-14.78923 -14.7893,0 z m 29.5785,29.57846 0,14.78923 14.7892,0 0,-14.78923 -14.7892,0 z m 59.1569,29.57846 0,133.10305 14.7892,0 0,-133.10305 -14.7892,0 z m -266.2061,44.36768 0,88.73537 14.7892,0 0,-73.94614 44.3677,0 0,-14.78923 -59.1569,0 z m 88.7354,0 0,88.73537 14.7892,0 0,-73.94614 44.3677,0 0,-14.78923 -59.1569,0 z m 88.7353,0 0,88.73537 14.7893,0 0,-73.94614 44.3676,0 0,-14.78923 -59.1569,0 z m -192.2599,118.31383 0,14.78923 221.8384,0 0,-14.78923 -221.8384,0 z m 295.7845,2.77298 -41.5947,41.59471 14.7892,14.78922 41.5948,-41.5947 -14.7893,-14.78923 z m 118.3139,0 -21.2596,20.33519 -37.8974,37.8974 14.7893,14.78923 37.8974,-37.8974 21.2595,-20.33519 -14.7892,-14.78923 z m -101.676,100.75162 -37.8974,37.8974 -20.3352,21.25951 14.7892,14.78923 20.3352,-21.25951 37.8974,-37.8974 -14.7892,-14.78923 z"
           id="path3056"
           inkscape:connector-curvature="0" />
      </g>
    </g>
  </g>
</svg>
