<?xml version="1.0" encoding="UTF-8" standalone="no"?>
<!-- Created with Inkscape (http://www.inkscape.org/) -->

<svg
   xmlns:dc="http://purl.org/dc/elements/1.1/"
   xmlns:cc="http://creativecommons.org/ns#"
   xmlns:rdf="http://www.w3.org/1999/02/22-rdf-syntax-ns#"
   xmlns:svg="http://www.w3.org/2000/svg"
   xmlns="http://www.w3.org/2000/svg"
   xmlns:xlink="http://www.w3.org/1999/xlink"
   xmlns:sodipodi="http://sodipodi.sourceforge.net/DTD/sodipodi-0.dtd"
   xmlns:inkscape="http://www.inkscape.org/namespaces/inkscape"
   sodipodi:docname="nm-signal-0-secure.svg"
   inkscape:version="0.48.3.1 r9886"
   version="1.1"
   id="svg27665"
   height="21.999996"
   width="21.999996">
  <defs
     id="defs27667">
    <linearGradient
       id="linearGradient7209-9">
      <stop
         id="stop7211-8"
         offset="0"
         style="stop-color:#a1988f;stop-opacity:1;" />
      <stop
         id="stop7213-9"
         offset="1"
         style="stop-color:#e4dfd4;stop-opacity:1;" />
    </linearGradient>
    <linearGradient
       inkscape:collect="always"
       xlink:href="#linearGradient7209-9"
       id="linearGradient3090"
       gradientUnits="userSpaceOnUse"
       x1="8.2727289"
       y1="13.272722"
       x2="19.863638"
       y2="13.272722" />
    <linearGradient
       inkscape:collect="always"
       xlink:href="#linearGradient7209-9"
       id="linearGradient3092"
       gradientUnits="userSpaceOnUse"
       x1="8.7142878"
       y1="13.714282"
       x2="26.928576"
       y2="13.714282" />
    <linearGradient
       inkscape:collect="always"
       xlink:href="#linearGradient7209-9"
       id="linearGradient3094"
       gradientUnits="userSpaceOnUse"
       x1="8.0666676"
       y1="13.066662"
       x2="16.566668"
       y2="13.066662" />
    <linearGradient
       inkscape:collect="always"
       xlink:href="#linearGradient7209-9"
       id="linearGradient3096"
       gradientUnits="userSpaceOnUse"
       x1="10.999998"
       y1="19.999996"
       x2="10.999998"
       y2="9.9999962" />
    <linearGradient
       inkscape:collect="always"
       xlink:href="#linearGradient9097-0"
       id="linearGradient3966"
       gradientUnits="userSpaceOnUse"
       gradientTransform="matrix(1.00336,0,0,1.00336,10.728988,-1.6216989)"
       x1="-2867.3389"
       y1="453.06714"
       x2="-2867.3389"
       y2="-20.16872" />
    <linearGradient
       id="linearGradient9097-0">
      <stop
         style="stop-color:#000000;stop-opacity:0.49634215;"
         offset="0"
         id="stop9099-4" />
      <stop
         style="stop-color:#000000;stop-opacity:0.41474396;"
         offset="1"
         id="stop9101-5" />
    </linearGradient>
    <linearGradient
       inkscape:collect="always"
       xlink:href="#linearGradient7251-3"
       id="linearGradient3955"
       gradientUnits="userSpaceOnUse"
       gradientTransform="matrix(1.00336,0,0,1.00336,10.728988,-1.6216989)"
       x1="-2867.3389"
       y1="453.06714"
       x2="-2867.3389"
       y2="-20.16872" />
    <linearGradient
       id="linearGradient7251-3">
      <stop
         style="stop-color:#ffffff;stop-opacity:1;"
         offset="0"
         id="stop7253-27" />
      <stop
         style="stop-color:#ffffff;stop-opacity:1;"
         offset="1"
         id="stop7255-3" />
    </linearGradient>
    <linearGradient
       id="linearGradient7209-9-3">
      <stop
         id="stop7211-8-7"
         offset="0"
         style="stop-color:#a1988f;stop-opacity:1;" />
      <stop
         id="stop7213-9-5"
         offset="1"
         style="stop-color:#e4dfd4;stop-opacity:1;" />
    </linearGradient>
    <linearGradient
       gradientTransform="matrix(1.00336,0,0,1.00336,10.728988,-1.6216989)"
       y2="-20.16872"
       x2="-2867.3389"
       y1="453.06714"
       x1="-2867.3389"
       gradientUnits="userSpaceOnUse"
       id="linearGradient4101"
       xlink:href="#linearGradient7209-9-3"
       inkscape:collect="always" />
  </defs>
  <sodipodi:namedview
     id="base"
     pagecolor="#ffffff"
     bordercolor="#666666"
     borderopacity="1.0"
     inkscape:pageopacity="0.0"
     inkscape:pageshadow="2"
     inkscape:zoom="16.000001"
     inkscape:cx="13.218501"
     inkscape:cy="10.841958"
     inkscape:document-units="px"
     inkscape:current-layer="g6088"
     showgrid="true"
     inkscape:window-width="1680"
     inkscape:window-height="998"
     inkscape:window-x="-8"
     inkscape:window-y="25"
     inkscape:window-maximized="1"
     inkscape:snap-bbox="true"
     inkscape:bbox-paths="true"
     inkscape:bbox-nodes="true"
     inkscape:snap-bbox-edge-midpoints="true"
     inkscape:snap-bbox-midpoints="true"
     inkscape:object-paths="true"
     inkscape:snap-intersection-paths="true"
     inkscape:object-nodes="true"
     inkscape:snap-smooth-nodes="true"
     inkscape:snap-midpoints="true"
     inkscape:snap-object-midpoints="true"
     inkscape:snap-center="true"
     inkscape:snap-global="true"
     showguides="false"
     inkscape:guide-bbox="true"
     fit-margin-top="0"
     fit-margin-left="0"
     fit-margin-right="0"
     fit-margin-bottom="0"
     inkscape:showpageshadow="false">
    <sodipodi:guide
       orientation="0,1"
       position="599.99995,299.99996"
       id="guide3572" />
    <sodipodi:guide
       orientation="1,0"
       position="294.41945,12.121743"
       id="guide3574" />
    <sodipodi:guide
       orientation="0,1"
       position="456.04385,599.99995"
       id="guide3576" />
    <sodipodi:guide
       orientation="0,1"
       position="-4.6131494e-05,-5.7459226e-05"
       id="guide3578" />
    <sodipodi:guide
       orientation="1,0"
       position="-4.6131494e-05,157.58369"
       id="guide3580" />
    <sodipodi:guide
       orientation="1,0"
       position="599.99995,121.21824"
       id="guide3582" />
    <sodipodi:guide
       orientation="0,1"
       position="599.99995,-714.34356"
       id="guide5928" />
    <sodipodi:guide
       orientation="0,1"
       position="599.99995,-414.34356"
       id="guide5930" />
    <sodipodi:guide
       orientation="0,1"
       position="599.99995,-1014.3435"
       id="guide5932" />
    <sodipodi:guide
       orientation="0,1"
       position="451.57025,524.99609"
       id="guide5294" />
    <sodipodi:guide
       orientation="0,1"
       position="451.57025,75.013543"
       id="guide5296" />
    <sodipodi:guide
       orientation="0,1"
       position="496.01495,-931.36406"
       id="guide5413" />
    <sodipodi:guide
       orientation="0,1"
       position="457.34855,-489.34386"
       id="guide5415" />
    <inkscape:grid
       type="xygrid"
       id="grid3066"
       empspacing="5"
       visible="true"
       enabled="true"
       snapvisiblegridlinesonly="true" />
  </sodipodi:namedview>
  <metadata
     id="metadata27670">
    <rdf:RDF>
      <cc:Work
         rdf:about="">
        <dc:format>image/svg+xml</dc:format>
        <dc:type
           rdf:resource="http://purl.org/dc/dcmitype/StillImage" />
        <dc:title />
      </cc:Work>
    </rdf:RDF>
  </metadata>
  <g
     inkscape:label="Camada 1"
     inkscape:groupmode="layer"
     id="layer1"
     transform="translate(3364.4171,-2094.7186)">
    <g
       id="normal"
       transform="matrix(0.03380978,0,0,0.03380978,-3245.473,2097.4005)"
       inkscape:label="#g3217">
      <rect
         y="-79.323952"
         x="-3518.0396"
         height="650.69916"
         width="650.69916"
         id="rect3219"
         style="opacity:0.00100002;fill:#ffffff;stroke:none" />
      <g
         id="g6088"
         transform="matrix(0.99665121,0,0,0.99665121,-10.693027,1.6162757)">
        <path
           sodipodi:type="arc"
           style="opacity:0.3;fill:none;stroke:url(#linearGradient3092);stroke-width:2.4285717;stroke-linecap:butt;stroke-linejoin:miter;stroke-miterlimit:4;stroke-opacity:1;stroke-dasharray:none;stroke-dashoffset:0"
           id="path6722"
           sodipodi:cx="7.5"
           sodipodi:cy="12.499996"
           sodipodi:rx="8.5"
           sodipodi:ry="8.5"
           d="m 13.816731,6.8123859 c 2.911025,3.2330211 2.911025,8.1421991 0,11.3752201"
           transform="matrix(0,-24.357725,24.357725,0,-3497.1601,694.90448)"
           sodipodi:start="5.550147"
           sodipodi:end="7.0162236"
           sodipodi:open="true" />
        <path
           sodipodi:open="true"
           sodipodi:end="7.0162236"
           sodipodi:start="5.550147"
           sodipodi:type="arc"
           style="opacity:0.3;fill:none;stroke:url(#linearGradient3094);stroke-width:1.13333321;stroke-linecap:butt;stroke-linejoin:miter;stroke-miterlimit:4;stroke-opacity:1;stroke-dasharray:none;stroke-dashoffset:0"
           id="path6726"
           sodipodi:cx="7.5"
           sodipodi:cy="12.499996"
           sodipodi:rx="8.5"
           sodipodi:ry="8.5"
           d="m 13.816731,6.8123859 c 2.911025,3.2330211 2.911025,8.1421991 0,11.3752201"
           transform="matrix(0,-52.195137,52.195137,0,-3845.1276,903.68508)" />
        <path
           transform="matrix(0,-38.276428,38.276428,0,-3671.1438,799.29478)"
           d="m 13.816731,6.8123859 c 2.911025,3.2330211 2.911025,8.1421991 0,11.3752201"
           sodipodi:ry="8.5"
           sodipodi:rx="8.5"
           sodipodi:cy="12.499996"
           sodipodi:cx="7.5"
           id="path6730"
           style="opacity:0.3;fill:none;stroke:url(#linearGradient3090);stroke-width:1.54545462;stroke-linecap:butt;stroke-linejoin:miter;stroke-miterlimit:4;stroke-opacity:1;stroke-dasharray:none;stroke-dashoffset:0"
           sodipodi:type="arc"
           sodipodi:start="5.550147"
           sodipodi:end="7.0162236"
           sodipodi:open="true" />
        <path
           sodipodi:type="arc"
           style="opacity:0.3;fill:url(#linearGradient3096);fill-opacity:1;fill-rule:nonzero;stroke:none"
           id="path6734"
           sodipodi:cx="11"
           sodipodi:cy="18.999996"
           sodipodi:rx="1"
           sodipodi:ry="1"
           d="m 12,18.999996 c 0,0.552285 -0.447715,1 -1,1 -0.552285,0 -1,-0.447715 -1,-1 0,-0.552285 0.447715,-1 1,-1 0.552285,0 1,0.447715 1,1 z"
           transform="matrix(44.365859,0,0,44.365859,-3680.713,-404.67276)" />
        <path
           id="path3957"
           d="m -2984.9509,334.26127 c -65.559,0 -118.7065,53.14753 -118.7065,118.70649 0,65.55895 53.1475,118.70648 118.7065,118.70648 8.1949,0 16.3848,-1.2009 24.1122,-2.78219 23.1822,-4.74376 44.1696,-15.42038 60.2807,-31.5314 21.4817,-21.48175 34.3136,-51.6134 34.3136,-84.39289 0,-65.55896 -53.1476,-118.70649 -118.7065,-118.70649 z m 0,29.67662 c 49.1698,0 89.0299,39.86004 89.0299,89.02987 l -89.0299,0 -89.0299,0 c 0,-49.16983 39.8601,-89.02987 89.0299,-89.02987 z m -29.6766,118.70649 59.3532,0 0,59.35324 -59.3532,0 0,-59.35324 z"
           style="fill:url(#linearGradient4101);fill-opacity:1;fill-rule:nonzero;stroke:none"
           inkscape:connector-curvature="0" />
        <path
           style="fill:url(#linearGradient3955);fill-opacity:1;fill-rule:nonzero;stroke:none"
           d="m -2984.9509,334.26127 c -65.559,0 -118.7065,53.14753 -118.7065,118.70649 0,36.63918 16.5708,69.10946 42.6601,90.88465 -17.1874,-20.59267 -27.8218,-47.12657 -27.8218,-76.04634 0,-65.55896 53.1475,-118.70649 118.7064,-118.70649 28.9199,0 55.4537,10.63441 76.0464,27.82183 -21.7751,-26.08933 -54.2455,-42.66014 -90.8846,-42.66014 z m 69.5546,63.99021 c 11.9415,15.15149 19.4753,33.92757 19.4753,54.71628 l -89.0299,0 -72.3368,0 c -0.851,4.94338 -1.8548,9.6519 -1.8548,14.83831 l 89.0298,0 89.03,0 c 0,-28.38112 -13.6286,-53.25188 -34.3136,-69.55459 z m -39.878,99.23121 0,44.51493 -44.5149,0 0,14.83831 59.3532,0 0,-59.35324 -14.8383,0 z"
           id="path3934"
           inkscape:connector-curvature="0" />
        <path
           style="fill:url(#linearGradient3966);fill-opacity:1;fill-rule:nonzero;stroke:none"
           d="m -2999.7892,349.09958 c -49.1698,0 -89.0299,39.86004 -89.0299,89.02987 l 16.6931,0 c 7.2179,-41.92256 43.1918,-74.19156 87.1751,-74.19156 20.7888,0 39.5647,7.53383 54.7163,19.47528 -16.3028,-20.68508 -41.1735,-34.31359 -69.5546,-34.31359 z m 90.8846,12.98352 c 17.1875,20.59267 27.8219,47.12657 27.8219,76.04635 0,32.77949 -12.8319,62.91114 -34.3136,84.39289 -16.1111,16.11102 -37.0985,26.78763 -60.2807,31.53141 -7.7274,1.58129 -15.9173,2.78218 -24.1122,2.78218 -28.9198,0 -55.4537,-10.6344 -76.0464,-27.82183 21.7752,26.08934 54.2456,42.66014 90.8847,42.66014 8.1949,0 16.3849,-1.20089 24.1123,-2.78218 23.1821,-4.74377 44.1695,-15.42039 60.2806,-31.53141 21.4817,-21.48175 34.3136,-51.6134 34.3136,-84.39289 0,-36.63918 -16.5708,-69.10947 -42.6602,-90.88466 z m -120.5612,105.72297 0,59.35324 14.8383,0 0,-44.51493 44.5149,0 0,-14.83831 -59.3532,0 z"
           id="path3946"
           inkscape:connector-curvature="0" />
      </g>
    </g>
  </g>
</svg>
