<?xml version="1.0" encoding="UTF-8" standalone="no"?>
<!-- Created with Inkscape (http://www.inkscape.org/) -->

<svg
   xmlns:dc="http://purl.org/dc/elements/1.1/"
   xmlns:cc="http://creativecommons.org/ns#"
   xmlns:rdf="http://www.w3.org/1999/02/22-rdf-syntax-ns#"
   xmlns:svg="http://www.w3.org/2000/svg"
   xmlns="http://www.w3.org/2000/svg"
   xmlns:xlink="http://www.w3.org/1999/xlink"
   xmlns:sodipodi="http://sodipodi.sourceforge.net/DTD/sodipodi-0.dtd"
   xmlns:inkscape="http://www.inkscape.org/namespaces/inkscape"
   width="22.000004"
   height="22.000004"
   id="svg13094"
   version="1.1"
   inkscape:version="0.48.3.1 r9886"
   sodipodi:docname="nm-vpn-standalone-lock.svg">
  <sodipodi:namedview
     id="base"
     pagecolor="#ffffff"
     bordercolor="#666666"
     borderopacity="1.0"
     inkscape:pageopacity="0.0"
     inkscape:pageshadow="2"
     inkscape:zoom="14.481547"
     inkscape:cx="20.915001"
     inkscape:cy="-12.550603"
     inkscape:document-units="px"
     inkscape:current-layer="layer1"
     showgrid="true"
     inkscape:snap-bbox="true"
     inkscape:bbox-paths="true"
     inkscape:bbox-nodes="true"
     inkscape:snap-bbox-edge-midpoints="true"
     inkscape:snap-bbox-midpoints="true"
     inkscape:object-paths="true"
     inkscape:snap-intersection-paths="true"
     inkscape:object-nodes="true"
     inkscape:snap-smooth-nodes="true"
     inkscape:snap-midpoints="true"
     inkscape:snap-object-midpoints="true"
     inkscape:snap-center="true"
     showguides="false"
     inkscape:guide-bbox="true"
     inkscape:window-width="1680"
     inkscape:window-height="998"
     inkscape:window-x="-8"
     inkscape:window-y="25"
     inkscape:window-maximized="1"
     inkscape:snap-global="true"
     fit-margin-top="0"
     fit-margin-left="0"
     fit-margin-right="0"
     fit-margin-bottom="0"
     showborder="true"
     inkscape:showpageshadow="false">
    <sodipodi:guide
       id="guide16149"
       position="8157.3146,1881.0932"
       orientation="0,1" />
    <sodipodi:guide
       id="guide16151"
       position="7930.1717,1832.0845"
       orientation="0,1" />
    <sodipodi:guide
       id="guide16153"
       position="7995.8859,1856.5888"
       orientation="0,1" />
    <sodipodi:guide
       id="guide17725"
       position="7989.4574,1776.4416"
       orientation="0,1" />
    <sodipodi:guide
       id="guide9456"
       position="8486.9557,1384.5718"
       orientation="1,0" />
    <sodipodi:guide
       id="guide9458"
       position="8311.2057,1749.6208"
       orientation="0,1" />
    <sodipodi:guide
       id="guide9468"
       position="8082.4359,1694.7154"
       orientation="0,1" />
    <sodipodi:guide
       id="guide9470"
       position="8106.9557,1716.0854"
       orientation="0,1" />
    <sodipodi:guide
       id="guide11159"
       position="7974.9557,1430.0858"
       orientation="1,0" />
    <sodipodi:guide
       id="guide13980"
       position="8287.9869,1694.1204"
       orientation="1,0" />
    <sodipodi:guide
       orientation="0,1"
       position="6433.9558,319.08596"
       id="guide3972" />
    <sodipodi:guide
       orientation="1,0"
       position="6613.9558,191.08593"
       id="guide3974" />
    <sodipodi:guide
       orientation="0,1"
       position="6307.9558,-43.913966"
       id="guide3976" />
    <sodipodi:guide
       orientation="1,0"
       position="6280.9558,97.085932"
       id="guide3978" />
    <sodipodi:guide
       orientation="1,0"
       position="1630.7266,1562.0858"
       id="guide4287" />
    <sodipodi:guide
       orientation="0,1"
       position="1630.7266,1562.0858"
       id="guide4289" />
    <inkscape:grid
       type="xygrid"
       id="grid3050"
       empspacing="5"
       visible="true"
       enabled="true"
       snapvisiblegridlinesonly="true"
       originx="-9.8684778e-06px"
       originy="1245px" />
  </sodipodi:namedview>
  <defs
     id="defs13096">
    <linearGradient
       id="linearGradient7209-9">
      <stop
         id="stop7211-8"
         offset="0"
         style="stop-color:#a1988f;stop-opacity:1;" />
      <stop
         id="stop7213-9"
         offset="1"
         style="stop-color:#e4dfd4;stop-opacity:1;" />
    </linearGradient>
    <linearGradient
       id="linearGradient7251-3">
      <stop
         style="stop-color:#ffffff;stop-opacity:1;"
         offset="0"
         id="stop7253-27" />
      <stop
         style="stop-color:#ffffff;stop-opacity:1;"
         offset="1"
         id="stop7255-3" />
    </linearGradient>
    <linearGradient
       id="linearGradient9097-0">
      <stop
         style="stop-color:#000000;stop-opacity:0.49634215;"
         offset="0"
         id="stop9099-4" />
      <stop
         style="stop-color:#000000;stop-opacity:0.41474396;"
         offset="1"
         id="stop9101-5" />
    </linearGradient>
    <linearGradient
       inkscape:collect="always"
       xlink:href="#linearGradient7209-9"
       id="linearGradient3104"
       x1="7.9999003"
       y1="14.999998"
       x2="7.9999003"
       y2="1"
       gradientUnits="userSpaceOnUse"
       gradientTransform="translate(-0.50000181,-0.49999999)" />
    <linearGradient
       inkscape:collect="always"
       xlink:href="#linearGradient7209-9"
       id="linearGradient3108"
       gradientUnits="userSpaceOnUse"
       x1="7.9999003"
       y1="14.999998"
       x2="7.9999003"
       y2="1"
       gradientTransform="translate(0.50000312,0.49999999)" />
    <linearGradient
       inkscape:collect="always"
       xlink:href="#linearGradient7209-9"
       id="linearGradient3112"
       gradientUnits="userSpaceOnUse"
       x1="7.9999003"
       y1="14.999998"
       x2="7.9999003"
       y2="1"
       gradientTransform="matrix(39.625005,0,0,39.625005,-3512.6457,-42.065905)" />
    <linearGradient
       inkscape:collect="always"
       xlink:href="#linearGradient7251-3"
       id="linearGradient3115"
       gradientUnits="userSpaceOnUse"
       gradientTransform="matrix(39.625005,0,0,39.625005,-3512.6457,-42.065905)"
       x1="7.9999003"
       y1="14.999998"
       x2="7.9999003"
       y2="1" />
    <linearGradient
       inkscape:collect="always"
       xlink:href="#linearGradient7209-9"
       id="linearGradient3119"
       gradientUnits="userSpaceOnUse"
       gradientTransform="matrix(39.625005,0,0,39.625005,-3512.6457,-42.065905)"
       x1="7.9999003"
       y1="14.999998"
       x2="7.9999003"
       y2="1" />
    <linearGradient
       inkscape:collect="always"
       xlink:href="#linearGradient7209-9"
       id="linearGradient3123"
       gradientUnits="userSpaceOnUse"
       gradientTransform="matrix(39.625005,0,0,39.625005,-3512.6457,-42.065905)"
       x1="7.9999003"
       y1="14.999998"
       x2="7.9999003"
       y2="1" />
    <linearGradient
       inkscape:collect="always"
       xlink:href="#linearGradient9097-0"
       id="linearGradient3126"
       gradientUnits="userSpaceOnUse"
       gradientTransform="matrix(39.625005,0,0,39.625005,-3512.6457,-42.065905)"
       x1="7.9999003"
       y1="14.999998"
       x2="7.9999003"
       y2="1" />
    <linearGradient
       inkscape:collect="always"
       xlink:href="#linearGradient7209-9"
       id="linearGradient3136"
       gradientUnits="userSpaceOnUse"
       gradientTransform="matrix(28.818178,0,0,28.818178,-3512.6448,-42.068776)"
       x1="11.00003"
       y1="19.000004"
       x2="11.00003"
       y2="3.0000038" />
    <linearGradient
       inkscape:collect="always"
       xlink:href="#linearGradient7251-3"
       id="linearGradient3138"
       gradientUnits="userSpaceOnUse"
       gradientTransform="matrix(28.818178,0,0,28.818178,-3512.6448,-42.068776)"
       x1="11.00003"
       y1="19.000004"
       x2="11.00003"
       y2="3.0000038" />
    <linearGradient
       inkscape:collect="always"
       xlink:href="#linearGradient9097-0"
       id="linearGradient3140"
       gradientUnits="userSpaceOnUse"
       gradientTransform="matrix(28.818178,0,0,28.818178,-3512.6448,-42.068776)"
       x1="11.00003"
       y1="19.000004"
       x2="11.00003"
       y2="3.0000038" />
    <linearGradient
       inkscape:collect="always"
       xlink:href="#linearGradient7209-9"
       id="linearGradient3045"
       gradientUnits="userSpaceOnUse"
       gradientTransform="matrix(39.625005,0,0,39.625005,-3512.6457,-42.065905)"
       x1="7.9999003"
       y1="14.999998"
       x2="7.9999003"
       y2="1" />
    <linearGradient
       inkscape:collect="always"
       xlink:href="#linearGradient7251-3"
       id="linearGradient3047"
       gradientUnits="userSpaceOnUse"
       gradientTransform="matrix(39.625005,0,0,39.625005,-3512.6457,-42.065905)"
       x1="7.9999003"
       y1="14.999998"
       x2="7.9999003"
       y2="1" />
    <linearGradient
       inkscape:collect="always"
       xlink:href="#linearGradient9097-0"
       id="linearGradient3049"
       gradientUnits="userSpaceOnUse"
       gradientTransform="matrix(39.625005,0,0,39.625005,-3512.6457,-42.065905)"
       x1="7.9999003"
       y1="14.999998"
       x2="7.9999003"
       y2="1" />
  </defs>
  <metadata
     id="metadata13099">
    <rdf:RDF>
      <cc:Work
         rdf:about="">
        <dc:format>image/svg+xml</dc:format>
        <dc:type
           rdf:resource="http://purl.org/dc/dcmitype/StillImage" />
        <dc:title />
      </cc:Work>
    </rdf:RDF>
  </metadata>
  <g
     transform="translate(9621.6003,-1731.0182)"
     id="layer1"
     inkscape:groupmode="layer"
     inkscape:label="Camada 1">
    <g
       inkscape:label="#g3393"
       transform="matrix(0.03470032,0,0,0.03470032,-9499.7104,1732.478)"
       id="normal">
      <rect
         style="opacity:0.00100002;fill:#ffffff;fill-opacity:1;fill-rule:nonzero;stroke:none"
         id="rect3017"
         width="634"
         height="634"
         x="-3512.6445"
         y="-42.067711" />
      <g
         id="g3019" />
      <g
         id="g3041">
        <path
           id="path3074"
           d="m -3195.6448,44.385758 c -127.3267,0 -230.5455,103.218732 -230.5455,230.545422 0,127.3267 103.2188,230.54543 230.5455,230.54543 7.9579,0 15.6645,-0.11349 23.4147,-0.90057 54.2519,-5.50958 103.0826,-30.13658 139.5881,-66.64204 15.6452,-15.64519 28.9776,-33.53346 39.625,-53.13351 3.5491,-6.53334 6.9897,-12.91697 9.9062,-19.8125 11.6663,-27.58208 18.0114,-58.22514 18.0114,-90.05681 0,-127.32669 -103.2187,-230.545422 -230.5454,-230.545422 z m 0,57.636352 c 95.495,0 172.909,77.41402 172.909,172.90907 l -172.909,0 -172.9091,0 c 0,-95.49505 77.414,-172.90907 172.9091,-172.90907 z m -28.8182,230.54543 57.6363,0 0,115.27271 -57.6363,0 0,-115.27271 z"
           style="fill:url(#linearGradient3136);fill-opacity:1;fill-rule:nonzero;stroke:none"
           inkscape:connector-curvature="0" />
        <path
           style="fill:url(#linearGradient3138);fill-opacity:1;fill-rule:nonzero;stroke:none"
           d="m -3195.6449,44.385759 c -127.3267,0 -230.5455,103.218731 -230.5455,230.545421 0,62.9753 25.7139,119.5929 66.6421,161.20168 -32.8887,-39.85185 -52.233,-91.08717 -52.233,-146.79259 0,-127.3267 103.2188,-230.545422 230.5455,-230.545422 55.7054,0 106.9407,19.344282 146.7926,52.232942 -41.6088,-40.928176 -98.2264,-66.642031 -161.2017,-66.642031 z m 128.7812,116.173271 c 27.1329,30.53468 44.1278,70.31101 44.1278,114.37215 l -172.909,0 -157.5994,0 c -0.3802,4.67978 -0.9006,9.63135 -0.9006,14.40909 l 172.9091,0 172.909,0 c 0,-51.43392 -22.8928,-97.10817 -58.5369,-128.78124 z m -99.9631,186.41759 0,100.86363 -43.2272,0 0,14.40908 57.6363,0 0,-115.27271 -14.4091,0 z"
           id="path3067"
           inkscape:connector-curvature="0" />
        <path
           style="fill:url(#linearGradient3140);fill-opacity:1;fill-rule:nonzero;stroke:none"
           d="m -3210.0539,87.61302 c -95.4951,0 -172.9091,77.41403 -172.9091,172.90908 l 15.3097,0 c 7.2176,-88.85753 81.2911,-158.49998 172.0085,-158.49998 44.0611,0 83.8375,16.99494 114.3721,44.12784 -31.673,-35.64407 -77.3473,-58.53694 -128.7812,-58.53694 z m 178.3125,26.11649 c 32.8886,39.85184 52.2329,91.08717 52.2329,146.79259 0,31.83167 -6.345,62.47473 -18.0113,90.05681 -2.9165,6.89553 -6.3572,13.27916 -9.9063,19.8125 -10.6474,19.60005 -23.9798,37.48832 -39.625,53.13351 -36.5055,36.50546 -85.3361,61.13246 -139.588,66.64204 -7.7502,0.78708 -15.4569,0.90057 -23.4148,0.90057 -55.7054,0 -106.9407,-19.34429 -146.7926,-52.23295 41.6088,40.92818 98.2264,66.64204 161.2017,66.64204 7.9579,0 15.6646,-0.11349 23.4148,-0.90057 54.2519,-5.50958 103.0825,-30.13658 139.588,-66.64204 15.6452,-15.64519 28.9776,-33.53347 39.625,-53.13352 3.5491,-6.53334 6.9898,-12.91697 9.9063,-19.81249 11.6663,-27.58208 18.0113,-58.22514 18.0113,-90.05681 0,-62.97531 -25.7138,-119.5929 -66.642,-161.20168 z m -207.1307,204.42895 0,115.27271 14.4091,0 0,-100.86362 43.2273,0 0,-14.40909 -57.6364,0 z"
           id="path3048"
           inkscape:connector-curvature="0" />
      </g>
    </g>
  </g>
</svg>
