<?xml version="1.0" encoding="UTF-8" standalone="no"?>
<!-- Created with Inkscape (http://www.inkscape.org/) -->

<svg
   xmlns:dc="http://purl.org/dc/elements/1.1/"
   xmlns:cc="http://creativecommons.org/ns#"
   xmlns:rdf="http://www.w3.org/1999/02/22-rdf-syntax-ns#"
   xmlns:svg="http://www.w3.org/2000/svg"
   xmlns="http://www.w3.org/2000/svg"
   xmlns:xlink="http://www.w3.org/1999/xlink"
   xmlns:sodipodi="http://sodipodi.sourceforge.net/DTD/sodipodi-0.dtd"
   xmlns:inkscape="http://www.inkscape.org/namespaces/inkscape"
   sodipodi:docname="nm-vpn-lock.svg"
   inkscape:version="0.48.3.1 r9886"
   version="1.1"
   id="svg27665"
   height="21.999996"
   width="21.999996">
  <defs
     id="defs27667">
    <linearGradient
       id="linearGradient7209-9">
      <stop
         id="stop7211-8"
         offset="0"
         style="stop-color:#a1988f;stop-opacity:1;" />
      <stop
         id="stop7213-9"
         offset="1"
         style="stop-color:#e4dfd4;stop-opacity:1;" />
    </linearGradient>
    <linearGradient
       id="linearGradient7251-3">
      <stop
         style="stop-color:#ffffff;stop-opacity:1;"
         offset="0"
         id="stop7253-27" />
      <stop
         style="stop-color:#ffffff;stop-opacity:1;"
         offset="1"
         id="stop7255-3" />
    </linearGradient>
    <linearGradient
       id="linearGradient9097-0">
      <stop
         style="stop-color:#000000;stop-opacity:0.49634215;"
         offset="0"
         id="stop9099-4" />
      <stop
         style="stop-color:#000000;stop-opacity:0.41474396;"
         offset="1"
         id="stop9101-5" />
    </linearGradient>
    <linearGradient
       inkscape:collect="always"
       xlink:href="#linearGradient9097-0"
       id="linearGradient3186"
       gradientUnits="userSpaceOnUse"
       gradientTransform="translate(1.1632942e-5,8.3294183e-7)"
       x1="-3606.77"
       y1="482.64426"
       x2="-3606.77"
       y2="38.985649" />
    <linearGradient
       inkscape:collect="always"
       xlink:href="#linearGradient7251-3"
       id="linearGradient3194"
       x1="-3636.3472"
       y1="482.64426"
       x2="-3636.3472"
       y2="38.985649"
       gradientUnits="userSpaceOnUse" />
    <linearGradient
       inkscape:collect="always"
       xlink:href="#linearGradient7209-9"
       id="linearGradient3196"
       gradientUnits="userSpaceOnUse"
       x1="10.999998"
       y1="19.999996"
       x2="10.999998"
       y2="9.9999962" />
    <linearGradient
       inkscape:collect="always"
       xlink:href="#linearGradient7209-9"
       id="linearGradient3198"
       gradientUnits="userSpaceOnUse"
       x1="8.0666676"
       y1="13.066662"
       x2="16.566668"
       y2="13.066662" />
    <linearGradient
       inkscape:collect="always"
       xlink:href="#linearGradient7209-9"
       id="linearGradient3200"
       gradientUnits="userSpaceOnUse"
       x1="8.2727289"
       y1="13.272722"
       x2="19.863638"
       y2="13.272722" />
    <linearGradient
       inkscape:collect="always"
       xlink:href="#linearGradient7209-9"
       id="linearGradient3202"
       gradientUnits="userSpaceOnUse"
       x1="8.7142878"
       y1="13.714282"
       x2="26.928576"
       y2="13.714282" />
    <linearGradient
       inkscape:collect="always"
       xlink:href="#linearGradient7251-3"
       id="linearGradient3955"
       gradientUnits="userSpaceOnUse"
       gradientTransform="translate(1.1067058e-5,4.3670582e-6)"
       x1="-2867.3389"
       y1="453.06714"
       x2="-2867.3389"
       y2="-20.16872" />
    <linearGradient
       inkscape:collect="always"
       xlink:href="#linearGradient7209-9"
       id="linearGradient3959"
       gradientUnits="userSpaceOnUse"
       x1="-2867.3389"
       y1="453.06714"
       x2="-2867.3389"
       y2="-20.16872" />
    <linearGradient
       inkscape:collect="always"
       xlink:href="#linearGradient9097-0"
       id="linearGradient3966"
       gradientUnits="userSpaceOnUse"
       gradientTransform="translate(1.1432942e-5,4.6329418e-6)"
       x1="-2867.3389"
       y1="453.06714"
       x2="-2867.3389"
       y2="-20.16872" />
  </defs>
  <sodipodi:namedview
     id="base"
     pagecolor="#ffffff"
     bordercolor="#666666"
     borderopacity="1.0"
     inkscape:pageopacity="0.0"
     inkscape:pageshadow="2"
     inkscape:zoom="22.627417"
     inkscape:cx="8.5322018"
     inkscape:cy="6.7212219"
     inkscape:document-units="px"
     inkscape:current-layer="normal"
     showgrid="true"
     inkscape:window-width="1680"
     inkscape:window-height="998"
     inkscape:window-x="-8"
     inkscape:window-y="25"
     inkscape:window-maximized="1"
     inkscape:snap-bbox="true"
     inkscape:bbox-paths="true"
     inkscape:bbox-nodes="true"
     inkscape:snap-bbox-edge-midpoints="true"
     inkscape:snap-bbox-midpoints="true"
     inkscape:object-paths="true"
     inkscape:snap-intersection-paths="true"
     inkscape:object-nodes="true"
     inkscape:snap-smooth-nodes="true"
     inkscape:snap-midpoints="true"
     inkscape:snap-object-midpoints="true"
     inkscape:snap-center="true"
     inkscape:snap-global="true"
     showguides="false"
     inkscape:guide-bbox="true"
     fit-margin-top="0"
     fit-margin-left="0"
     fit-margin-right="0"
     fit-margin-bottom="0"
     inkscape:showpageshadow="false">
    <sodipodi:guide
       orientation="0,1"
       position="599.99999,299.99993"
       id="guide3572" />
    <sodipodi:guide
       orientation="1,0"
       position="294.41949,12.121713"
       id="guide3574" />
    <sodipodi:guide
       orientation="0,1"
       position="456.04389,599.99992"
       id="guide3576" />
    <sodipodi:guide
       orientation="0,1"
       position="-2.8882813e-06,-8.7447126e-05"
       id="guide3578" />
    <sodipodi:guide
       orientation="1,0"
       position="-2.8882813e-06,157.58366"
       id="guide3580" />
    <sodipodi:guide
       orientation="1,0"
       position="599.99999,121.21821"
       id="guide3582" />
    <sodipodi:guide
       orientation="0,1"
       position="599.99999,-714.34359"
       id="guide5928" />
    <sodipodi:guide
       orientation="0,1"
       position="599.99999,-414.34359"
       id="guide5930" />
    <sodipodi:guide
       orientation="0,1"
       position="599.99999,-1014.3435"
       id="guide5932" />
    <sodipodi:guide
       orientation="0,1"
       position="451.57029,524.99606"
       id="guide5294" />
    <sodipodi:guide
       orientation="0,1"
       position="451.57029,75.013513"
       id="guide5296" />
    <sodipodi:guide
       orientation="0,1"
       position="496.01499,-931.36409"
       id="guide5413" />
    <sodipodi:guide
       orientation="0,1"
       position="457.34859,-489.34389"
       id="guide5415" />
    <inkscape:grid
       type="xygrid"
       id="grid3066"
       empspacing="5"
       visible="true"
       enabled="true"
       snapvisiblegridlinesonly="true"
       originx="-13.999957px"
       originy="-2.9749642e-05px" />
  </sodipodi:namedview>
  <metadata
     id="metadata27670">
    <rdf:RDF>
      <cc:Work
         rdf:about="">
        <dc:format>image/svg+xml</dc:format>
        <dc:type
           rdf:resource="http://purl.org/dc/dcmitype/StillImage" />
        <dc:title />
      </cc:Work>
    </rdf:RDF>
  </metadata>
  <g
     inkscape:label="Camada 1"
     inkscape:groupmode="layer"
     id="layer1"
     transform="translate(3364.4171,-2094.7186)">
    <g
       id="normal"
       transform="matrix(0.03380978,0,0,0.03380978,-3245.473,2097.4005)"
       inkscape:label="#g3217">
      <rect
         y="-79.323952"
         x="-3518.0396"
         height="650.69916"
         width="650.69916"
         id="rect3219"
         style="opacity:0.00100002;fill:#ffffff;stroke:none" />
      <path
         id="path3957"
         d="m -2985.648,334.75818 c -65.3394,0 -118.3089,52.96955 -118.3089,118.30896 0,65.33941 52.9695,118.30896 118.3089,118.30896 8.1675,0 16.33,-1.19687 24.0315,-2.77286 23.1046,-4.72789 44.0217,-15.36875 60.0788,-31.42582 21.4098,-21.40981 34.1987,-51.44056 34.1987,-84.11028 0,-65.33941 -52.9696,-118.30896 -118.309,-118.30896 z m 0,29.57724 c 49.0052,0 88.7318,39.72655 88.7318,88.73172 l -88.7318,0 -88.7317,0 c 0,-49.00517 39.7266,-88.73172 88.7317,-88.73172 z m -29.5772,118.30896 59.1545,0 0,59.15448 -59.1545,0 0,-59.15448 z"
         style="fill:url(#linearGradient3959);fill-opacity:1;fill-rule:nonzero;stroke:none"
         inkscape:connector-curvature="0" />
      <path
         style="fill:url(#linearGradient3955);fill-opacity:1;fill-rule:nonzero;stroke:none"
         d="m -2985.648,334.75818 c -65.3394,0 -118.3089,52.96955 -118.3089,118.30896 0,36.51648 16.5153,68.87803 42.5172,90.5803 -17.1298,-20.52371 -27.7286,-46.96875 -27.7286,-75.79168 0,-65.33941 52.9695,-118.30896 118.3089,-118.30896 28.823,0 55.268,10.59879 75.7917,27.72866 -21.7022,-26.00197 -54.0638,-42.51728 -90.5803,-42.51728 z m 69.3217,63.77592 c 11.9015,15.10075 19.4101,33.81395 19.4101,54.53304 l -88.7318,0 -72.0945,0 c -0.8482,4.92683 -1.8486,9.61958 -1.8486,14.78862 l 88.7317,0 88.7318,0 c 0,-28.28608 -13.5829,-53.07355 -34.1987,-69.32166 z m -39.7444,98.8989 0,44.36586 -44.3659,0 0,14.78862 59.1545,0 0,-59.15448 -14.7886,0 z"
         id="path3934"
         inkscape:connector-curvature="0" />
      <path
         style="fill:url(#linearGradient3966);fill-opacity:1;fill-rule:nonzero;stroke:none"
         d="m -3000.4366,349.5468 c -49.0051,0 -88.7317,39.72655 -88.7317,88.73172 l 16.6372,0 c 7.1937,-41.78217 43.0471,-73.9431 86.8831,-73.9431 20.7192,0 39.4323,7.50859 54.5331,19.41006 -16.2482,-20.61581 -41.0356,-34.19868 -69.3217,-34.19868 z m 90.5803,12.94004 c 17.1299,20.52371 27.7287,46.96875 27.7287,75.79168 0,32.66972 -12.7889,62.70047 -34.1987,84.11028 -16.0571,16.05707 -36.9742,26.69793 -60.0788,31.42582 -7.7015,1.57599 -15.864,2.77286 -24.0315,2.77286 -28.8229,0 -55.268,-10.59879 -75.7917,-27.72866 21.7023,26.00197 54.0639,42.51728 90.5803,42.51728 8.1675,0 16.3301,-1.19687 24.0316,-2.77286 23.1045,-4.72789 44.0216,-15.36875 60.0787,-31.42582 21.4098,-21.40981 34.1987,-51.44056 34.1987,-84.11028 0,-36.51648 -16.5153,-68.87803 -42.5173,-90.5803 z m -120.1575,105.36892 0,59.15448 14.7886,0 0,-44.36586 44.3659,0 0,-14.78862 -59.1545,0 z"
         id="path3946"
         inkscape:connector-curvature="0" />
    </g>
  </g>
</svg>
