<?xml version="1.0" encoding="UTF-8" standalone="no"?>
<!-- Created with Inkscape (http://www.inkscape.org/) -->

<svg
   xmlns:dc="http://purl.org/dc/elements/1.1/"
   xmlns:cc="http://creativecommons.org/ns#"
   xmlns:rdf="http://www.w3.org/1999/02/22-rdf-syntax-ns#"
   xmlns:svg="http://www.w3.org/2000/svg"
   xmlns="http://www.w3.org/2000/svg"
   xmlns:xlink="http://www.w3.org/1999/xlink"
   xmlns:sodipodi="http://sodipodi.sourceforge.net/DTD/sodipodi-0.dtd"
   xmlns:inkscape="http://www.inkscape.org/namespaces/inkscape"
   width="21.999996"
   height="21.999996"
   id="svg27665"
   version="1.1"
   inkscape:version="0.48.3.1 r9886"
   sodipodi:docname="security-low.svg">
  <defs
     id="defs27667">
    <linearGradient
       id="linearGradient7209-9">
      <stop
         id="stop7211-8"
         offset="0"
         style="stop-color:#a1988f;stop-opacity:1;" />
      <stop
         id="stop7213-9"
         offset="1"
         style="stop-color:#e4dfd4;stop-opacity:1;" />
    </linearGradient>
    <linearGradient
       id="linearGradient9097-0">
      <stop
         style="stop-color:#000000;stop-opacity:0.49634215;"
         offset="0"
         id="stop9099-4" />
      <stop
         style="stop-color:#000000;stop-opacity:0.41474396;"
         offset="1"
         id="stop9101-5" />
    </linearGradient>
    <linearGradient
       id="linearGradient7251-3">
      <stop
         style="stop-color:#ffffff;stop-opacity:1;"
         offset="0"
         id="stop7253-27" />
      <stop
         style="stop-color:#ffffff;stop-opacity:1;"
         offset="1"
         id="stop7255-3" />
    </linearGradient>
    <linearGradient
       inkscape:collect="always"
       xlink:href="#linearGradient7251-3"
       id="linearGradient3832"
       gradientUnits="userSpaceOnUse"
       gradientTransform="matrix(29.577241,0,0,29.577241,-4183.0773,-101.14014)"
       x1="11"
       y1="19.999996"
       x2="11"
       y2="2" />
    <linearGradient
       inkscape:collect="always"
       xlink:href="#linearGradient7209-9"
       id="linearGradient3836"
       gradientUnits="userSpaceOnUse"
       gradientTransform="matrix(29.577241,0,0,29.577241,-4183.0773,-101.14014)"
       x1="11"
       y1="19.999996"
       x2="11"
       y2="2" />
    <linearGradient
       inkscape:collect="always"
       xlink:href="#linearGradient9097-0"
       id="linearGradient3843"
       gradientUnits="userSpaceOnUse"
       gradientTransform="matrix(29.577241,0,0,29.577241,-4183.0773,-101.14014)"
       x1="11"
       y1="19.999996"
       x2="11"
       y2="2" />
  </defs>
  <sodipodi:namedview
     id="base"
     pagecolor="#ffffff"
     bordercolor="#666666"
     borderopacity="1.0"
     inkscape:pageopacity="0.0"
     inkscape:pageshadow="2"
     inkscape:zoom="31.678384"
     inkscape:cx="13.102124"
     inkscape:cy="11.488314"
     inkscape:document-units="px"
     inkscape:current-layer="g4412"
     showgrid="true"
     inkscape:window-width="1680"
     inkscape:window-height="998"
     inkscape:window-x="-8"
     inkscape:window-y="25"
     inkscape:window-maximized="1"
     inkscape:snap-bbox="true"
     inkscape:bbox-paths="true"
     inkscape:bbox-nodes="true"
     inkscape:snap-bbox-edge-midpoints="true"
     inkscape:snap-bbox-midpoints="true"
     inkscape:object-paths="true"
     inkscape:snap-intersection-paths="true"
     inkscape:object-nodes="true"
     inkscape:snap-smooth-nodes="true"
     inkscape:snap-midpoints="true"
     inkscape:snap-object-midpoints="true"
     inkscape:snap-center="true"
     inkscape:snap-global="true"
     showguides="true"
     inkscape:guide-bbox="true"
     fit-margin-top="0"
     fit-margin-left="0"
     fit-margin-right="0"
     fit-margin-bottom="0"
     inkscape:showpageshadow="false">
    <inkscape:grid
       type="xygrid"
       id="grid3140"
       empspacing="5"
       visible="true"
       enabled="true"
       snapvisiblegridlinesonly="true" />
  </sodipodi:namedview>
  <metadata
     id="metadata27670">
    <rdf:RDF>
      <cc:Work
         rdf:about="">
        <dc:format>image/svg+xml</dc:format>
        <dc:type
           rdf:resource="http://purl.org/dc/dcmitype/StillImage" />
        <dc:title />
      </cc:Work>
    </rdf:RDF>
  </metadata>
  <g
     inkscape:label="Camada 1"
     inkscape:groupmode="layer"
     id="layer1"
     transform="translate(3364.4171,-2094.7186)">
    <g
       id="normal"
       transform="matrix(0.03380978,0,0,0.03380978,-3245.473,2097.4005)"
       inkscape:label="#g3132">
      <rect
         y="-79.323952"
         x="-3518.0396"
         height="650.69916"
         width="650.69916"
         id="rect3134"
         style="opacity:0.00100002;fill:#ffffff;stroke:none" />
      <g
         id="g4412"
         transform="translate(665.03903,21.816943)">
        <path
           inkscape:connector-curvature="0"
           style="fill:url(#linearGradient3836);fill-opacity:1;fill-rule:nonzero;stroke:none"
           d="m -3857.7276,-41.985658 c -88.7318,59.154485 -147.8863,88.731723 -266.1952,88.731723 0,147.886205 59.1543,295.772405 266.1952,443.658615 207.0405,-147.88621 266.1951,-295.77241 266.1951,-443.658615 -118.3089,0 -177.4635,-29.577238 -266.1951,-88.731723 z m 0,66.548792 c 61.9322,38.134682 123.6023,67.400623 201.4949,76.715966 -11.5481,102.73143 -63.2515,202.66752 -201.4949,311.48532 -138.2438,-108.8178 -189.9469,-208.75389 -201.495,-311.48532 77.8926,-9.315343 139.5626,-38.581284 201.495,-76.715966 z"
           id="path3834"
           sodipodi:nodetypes="cccccccccc" />
        <path
           style="fill:url(#linearGradient3832);fill-opacity:1;fill-rule:nonzero;stroke:none"
           d="m -3857.7277,-41.985658 c -88.7318,59.154485 -147.8862,88.731723 -266.1951,88.731723 0,115.844195 36.3376,231.688375 151.5833,347.532585 -103.9825,-110.91466 -136.7947,-221.82931 -136.7947,-332.743965 118.3089,0 177.4634,-29.577238 266.1952,-88.731723 84.5435,56.362459 142.8895,86.071478 250.4822,88.731723 0.135,-4.934327 0.9243,-9.854294 0.9243,-14.78862 -118.3089,0 -177.4636,-29.577238 -266.1952,-88.731723 z m 199.6464,155.280518 c -14.1498,98.57417 -66.7406,194.85323 -199.6464,299.46956 -17.2804,-13.60222 -33.3963,-27.32123 -48.063,-40.6687 18.8531,18.19991 39.1412,36.79382 62.8517,55.45732 138.2434,-108.8178 189.9468,-208.75389 201.4949,-311.48532 -5.6583,-0.67668 -11.1438,-1.88987 -16.6372,-2.77286 z"
           id="path3013-1"
           inkscape:connector-curvature="0"
           sodipodi:nodetypes="cccccccccccccc" />
        <path
           style="fill:url(#linearGradient3843);fill-opacity:1;fill-rule:nonzero;stroke:none"
           d="m -3872.5162,9.7745138 c -61.9324,38.1346822 -123.6024,67.4006262 -201.495,76.7159692 9.1982,81.826777 44.8867,161.680147 128.4761,245.860817 -73.4044,-78.83006 -105.0264,-154.02362 -113.6875,-231.0722 77.8926,-9.315337 139.5626,-38.581283 201.495,-76.715965 57.4333,35.364504 114.7284,62.670728 184.8577,73.943105 0.5683,-3.9588 1.4027,-8.049292 1.8486,-12.015757 -77.8926,-9.315343 -139.5627,-38.581287 -201.4949,-76.7159692 z m 265.2708,36.9715512 c -3.9112,142.951895 -65.1384,285.918105 -265.2708,428.869995 -38.8202,-27.72866 -72.665,-55.45733 -101.6718,-83.18599 32.253,32.65821 70.7388,65.3164 116.4604,97.97461 207.0405,-147.8862 266.1951,-295.77241 266.1951,-443.658615 -5.584,0 -10.383,0.131782 -15.7129,0 z"
           id="path3823"
           inkscape:connector-curvature="0"
           sodipodi:nodetypes="cccccccccccccc" />
      </g>
    </g>
  </g>
</svg>
