<?xml version="1.0" encoding="UTF-8" standalone="no"?>
<!-- Created with Inkscape (http://www.inkscape.org/) -->

<svg
   xmlns:dc="http://purl.org/dc/elements/1.1/"
   xmlns:cc="http://creativecommons.org/ns#"
   xmlns:rdf="http://www.w3.org/1999/02/22-rdf-syntax-ns#"
   xmlns:svg="http://www.w3.org/2000/svg"
   xmlns="http://www.w3.org/2000/svg"
   xmlns:xlink="http://www.w3.org/1999/xlink"
   xmlns:sodipodi="http://sodipodi.sourceforge.net/DTD/sodipodi-0.dtd"
   xmlns:inkscape="http://www.inkscape.org/namespaces/inkscape"
   width="21.999996"
   height="21.999996"
   id="svg27665"
   version="1.1"
   inkscape:version="0.48.3.1 r9886"
   sodipodi:docname="system-devices-panel-information.svg">
  <defs
     id="defs27667">
    <linearGradient
       inkscape:collect="always"
       xlink:href="#linearGradient3042"
       id="linearGradient3047"
       gradientUnits="userSpaceOnUse"
       gradientTransform="matrix(1.0217887,0,0,1.0217887,1229.3115,-56.71505)"
       x1="-4329.9819"
       y1="477.55972"
       x2="-4329.9819"
       y2="14.412755" />
    <linearGradient
       inkscape:collect="always"
       xlink:href="#linearGradient3042"
       id="linearGradient4053"
       gradientUnits="userSpaceOnUse"
       gradientTransform="matrix(29.577241,0,0,29.577241,-3518.0383,-79.323202)"
       x1="11.000001"
       y1="18.999996"
       x2="11.000001"
       y2="1.9999962" />
    <linearGradient
       id="linearGradient3042">
      <stop
         style="stop-color:#00a0d8;stop-opacity:1"
         offset="0"
         id="stop3044" />
      <stop
         style="stop-color:#9ff6ff;stop-opacity:1"
         offset="1"
         id="stop3046" />
    </linearGradient>
  </defs>
  <sodipodi:namedview
     id="base"
     pagecolor="#ffffff"
     bordercolor="#666666"
     borderopacity="1.0"
     inkscape:pageopacity="0.0"
     inkscape:pageshadow="2"
     inkscape:zoom="22.4"
     inkscape:cx="25.865625"
     inkscape:cy="6.5818711"
     inkscape:document-units="px"
     inkscape:current-layer="layer1"
     showgrid="true"
     inkscape:window-width="1680"
     inkscape:window-height="998"
     inkscape:window-x="-8"
     inkscape:window-y="25"
     inkscape:window-maximized="1"
     inkscape:snap-bbox="true"
     inkscape:bbox-paths="true"
     inkscape:bbox-nodes="true"
     inkscape:snap-bbox-edge-midpoints="true"
     inkscape:snap-bbox-midpoints="true"
     inkscape:object-paths="true"
     inkscape:snap-intersection-paths="true"
     inkscape:object-nodes="true"
     inkscape:snap-smooth-nodes="true"
     inkscape:snap-midpoints="true"
     inkscape:snap-object-midpoints="true"
     inkscape:snap-center="true"
     inkscape:snap-global="true"
     showguides="true"
     inkscape:guide-bbox="true"
     fit-margin-top="0"
     fit-margin-left="0"
     fit-margin-right="0"
     fit-margin-bottom="0"
     inkscape:showpageshadow="false">
    <inkscape:grid
       type="xygrid"
       id="grid3140"
       empspacing="5"
       visible="true"
       enabled="true"
       snapvisiblegridlinesonly="true" />
  </sodipodi:namedview>
  <metadata
     id="metadata27670">
    <rdf:RDF>
      <cc:Work
         rdf:about="">
        <dc:format>image/svg+xml</dc:format>
        <dc:type
           rdf:resource="http://purl.org/dc/dcmitype/StillImage" />
        <dc:title />
      </cc:Work>
    </rdf:RDF>
  </metadata>
  <g
     inkscape:label="Camada 1"
     inkscape:groupmode="layer"
     id="layer1"
     transform="translate(3364.4171,-2094.7186)">
    <g
       id="normal"
       transform="matrix(0.03380978,0,0,0.03380978,-3245.473,2097.4005)"
       inkscape:label="#g3132">
      <rect
         y="-79.323952"
         x="-3518.0396"
         height="650.69916"
         width="650.69916"
         id="rect3134"
         style="opacity:0.00100002;fill:#ffffff;stroke:none" />
      <g
         id="g4412"
         transform="translate(2.3239781,21.816943)">
        <path
           id="path3045"
           d="m -3195.0125,-41.985658 c -16.3858,0 -29.5773,13.191452 -29.5773,29.577241 l 0,207.040687 c 0,16.38579 13.1915,29.57724 29.5773,29.57724 16.3857,0 29.5772,-13.19145 29.5772,-29.57724 l 0,-207.040687 c 0,-16.385789 -13.1915,-29.577241 -29.5772,-29.577241 z m -167.2963,60.078771 c -2.5282,0.366196 -4.4873,1.714442 -6.47,3.697155 l -28.653,28.652952 c -7.9308,7.930856 -1.8588,20.665814 7.3943,34.198685 l 20.3344,30.501525 c -11.9613,19.12649 -21.6027,40.23701 -26.8044,62.85164 l -35.123,6.47002 c -15.9245,3.69475 -29.5772,8.19415 -29.5772,19.41007 l 0,40.6687 c 0,11.21593 13.465,16.38381 29.5772,19.41007 l 35.123,6.47002 c 5.2017,22.61464 14.8431,43.72516 26.8044,62.85164 l -20.3344,30.50153 c -8.6477,13.87282 -15.3251,26.26781 -7.3943,34.19868 l 28.653,28.65295 c 7.9308,7.93088 20.6657,1.85864 34.1986,-7.39431 l 30.5016,-20.33435 c 19.1265,11.96127 40.237,21.60266 62.8516,26.80438 l 6.47,35.12297 c 3.6947,15.92439 8.1941,29.57724 19.4101,29.57724 l 40.6687,0 c 11.2159,0 16.3839,-13.46513 19.4101,-29.57724 l 6.47,-35.12297 c 22.6146,-5.20172 43.7252,-14.84311 62.8516,-26.80438 l 30.5016,20.33435 c 13.8727,8.64765 26.2678,15.32519 34.1986,7.39431 l 28.653,-28.65295 c 7.9308,-7.93087 1.8589,-20.66582 -7.3943,-34.19868 l -20.3344,-30.50153 c 11.9614,-19.12648 21.6027,-40.237 26.8044,-62.85164 l 35.123,-6.47002 c 15.9244,-3.69476 29.5772,-8.19414 29.5772,-19.41007 l 0,-40.6687 c 0,-11.21593 -13.4651,-16.38382 -29.5772,-19.41007 l -35.123,-6.47002 c -5.2017,-22.61463 -14.843,-43.72515 -26.8044,-62.85164 l 20.3344,-30.501525 c 8.6477,-13.87282 15.3251,-26.267829 7.3943,-34.198685 l -28.653,-28.652952 c -1.9828,-1.98271 -3.9153,-3.283659 -6.47,-3.697155 -7.6644,-1.240499 -17.5789,4.151648 -27.7286,11.091465 l -30.5016,20.334353 c -15.3997,-9.63071 -32.1898,-17.590836 -49.9116,-23.107219 l 0,62.851637 c 52.1141,22.806171 88.7318,74.159321 88.7318,134.946161 0,82.02565 -65.8607,147.88621 -147.8862,147.88621 -82.0257,0 -147.8863,-65.86056 -147.8863,-147.88621 0,-60.78684 36.6177,-112.13999 88.7318,-134.946161 l 0,-62.851637 c -17.7218,5.516383 -34.5118,13.476509 -49.9116,23.107219 l -30.5016,-20.334353 c -10.4046,-6.485736 -20.144,-12.190056 -27.7286,-11.091465 z"
           style="font-size:medium;font-style:normal;font-variant:normal;font-weight:normal;font-stretch:normal;text-indent:0;text-align:start;text-decoration:none;line-height:normal;letter-spacing:normal;word-spacing:normal;text-transform:none;direction:ltr;block-progression:tb;writing-mode:lr-tb;text-anchor:start;baseline-shift:baseline;color:#000000;fill:url(#linearGradient3047);fill-opacity:1;stroke:none;stroke-width:2.33333325;marker:none;visibility:visible;display:inline;overflow:visible;enable-background:accumulate;font-family:Sans;-inkscape-font-specification:Sans"
           inkscape:connector-curvature="0" />
        <path
           style="font-size:medium;font-style:normal;font-variant:normal;font-weight:normal;font-stretch:normal;text-indent:0;text-align:start;text-decoration:none;line-height:normal;letter-spacing:normal;word-spacing:normal;text-transform:none;direction:ltr;block-progression:tb;writing-mode:lr-tb;text-anchor:start;baseline-shift:baseline;color:#000000;fill:#defbff;fill-opacity:1;stroke:none;stroke-width:2.33333324999999991;marker:none;visibility:visible;display:inline;overflow:visible;enable-background:accumulate;font-family:Sans;-inkscape-font-specification:Sans"
           d="m -3195.0126,-41.985658 c -16.3858,0 -29.5772,13.191452 -29.5772,29.577241 l 0,207.040687 c 0,11.84578 7.5502,21.15036 17.5615,25.88009 -1.4927,-3.54096 -2.7729,-6.99502 -2.7729,-11.09147 l 0,-207.0406866 c 0,-16.3857894 13.1915,-29.5772414 29.5773,-29.5772414 4.0964,0 7.5505,1.280138 11.0914,2.772866 -4.7297,-10.011295 -14.0343,-17.561486 -25.8801,-17.561486 z m -167.2962,60.07877 c -2.5282,0.366196 -4.4873,1.714442 -6.4701,3.697156 l -28.6529,28.652952 c -7.9308,7.930856 -1.8588,20.665813 7.3943,34.198685 l 20.3344,30.501525 c -11.9613,19.12649 -21.6027,40.23701 -26.8044,62.85164 l -35.123,6.47002 c -15.9245,3.69475 -29.5772,8.19415 -29.5772,19.41007 l 0,40.6687 c 0,7.34767 6.2725,11.53392 14.7886,14.78862 l 0,-40.6687 c 0,-11.21592 13.6527,-15.71532 29.5772,-19.41007 l 35.123,-6.47002 c 5.2017,-22.61463 14.8431,-43.72515 26.8044,-62.85164 l -20.3344,-30.501525 c -9.2531,-13.532871 -15.3251,-26.267829 -7.3943,-34.198685 l 28.653,-28.652952 c 1.9827,-1.982713 3.9418,-3.330959 6.47,-3.697155 7.5846,-1.098591 17.3241,4.605729 27.7287,11.091465 l 30.5015,20.334353 c 11.0266,-6.8958 22.8392,-12.662484 35.123,-17.561486 l 0,-20.334354 c -17.7218,5.516384 -34.5118,13.476509 -49.9116,23.10722 l -30.5016,-20.334353 c -10.4046,-6.485736 -20.144,-12.190056 -27.7286,-11.091466 z m 328.1225,0 c -6.4977,1.318509 -13.6464,5.886602 -21.2587,11.091466 l -30.5015,20.334353 c -15.3998,-9.630711 -32.1898,-17.590836 -49.9116,-23.10722 l 0,62.851637 c 5.239,2.292657 9.8844,5.46838 14.7886,8.318599 l 0,-56.381615 c 17.7218,5.516383 34.512,13.476509 49.9116,23.107219 l 30.5016,-20.334353 c 10.1497,-6.939817 20.0642,-12.331964 27.7286,-11.091465 2.5547,0.413496 4.4873,1.714445 6.4701,3.697155 l -14.7887,-14.78862 c -1.9828,-1.982711 -3.9153,-3.28366 -6.47,-3.697156 -1.9161,-0.310126 -4.3041,-0.439503 -6.47,0 z m -50.8359,108.141788 c 23.451,25.95537 37.8958,59.98283 37.8958,97.97461 0,82.02565 -65.8606,147.88621 -147.8862,147.88621 -37.183,0 -70.2156,-14.53334 -96.126,-36.97156 27.0604,31.2478 66.072,51.76018 110.9147,51.76018 82.0255,0 147.8862,-65.86056 147.8862,-147.88621 0,-45.59013 -20.4001,-85.84942 -52.6845,-112.76323 z m 102.5961,53.60875 c 1.3349,4.28854 2.6836,8.53375 3.6971,12.94004 l 35.123,6.47002 c 5.4393,1.02164 10.3689,2.03707 14.7886,3.69716 -0.7097,-10.58918 -13.9066,-15.54244 -29.5772,-18.48578 l -24.0315,-4.62144 z m -410.3843,103.52034 c 5.5164,17.72174 13.4765,34.51176 23.1073,49.9116 l -20.3344,30.50153 c -8.6477,13.87282 -15.3251,26.26781 -7.3943,34.19868 l 14.7886,14.78862 c -7.9308,-7.93087 -1.2534,-20.32586 7.3943,-34.19868 l 20.3344,-30.50153 c -11.9613,-19.12648 -21.6027,-40.237 -26.8044,-62.85164 l -11.0915,-1.84858 z m 153.432,153.43194 4.6214,24.03151 c 3.6947,15.92439 8.1941,29.57724 19.4101,29.57724 -1.768,-4.55836 -3.3156,-9.16016 -4.6215,-14.78862 l -6.47,-35.12297 c -4.4063,-1.01353 -8.6515,-2.36222 -12.94,-3.69716 z"
           id="path3917-0"
           inkscape:connector-curvature="0" />
        <path
           style="font-size:medium;font-style:normal;font-variant:normal;font-weight:normal;font-stretch:normal;text-indent:0;text-align:start;text-decoration:none;line-height:normal;letter-spacing:normal;word-spacing:normal;text-transform:none;direction:ltr;block-progression:tb;writing-mode:lr-tb;text-anchor:start;baseline-shift:baseline;color:#000000;fill:#1a7290;fill-opacity:1;stroke:none;stroke-width:2.33333324999999991;marker:none;visibility:visible;display:inline;overflow:visible;enable-background:accumulate;font-family:Sans;-inkscape-font-specification:Sans"
           d="m -3182.9968,-38.288502 c 1.4927,3.540948 2.7729,6.995017 2.7729,11.091465 l 0,207.040687 c 0,16.38579 -13.1916,29.57724 -29.5773,29.57724 -4.0964,0 -7.5505,-1.28013 -11.0914,-2.77287 4.7297,10.01131 14.0343,17.56149 25.8801,17.56149 16.3857,0 29.5772,-13.19145 29.5772,-29.57724 l 0,-207.040687 c 0,-11.845776 -7.5502,-21.150347 -17.5615,-25.880085 z m -71.1702,64.700214 c -5.0326,1.566532 -9.9168,3.602766 -14.7886,5.545733 l 0,42.517284 c -52.1141,22.806171 -88.7318,74.159321 -88.7318,134.946161 0,44.84259 20.5124,83.85429 51.7602,110.91465 -22.4382,-25.91034 -36.9715,-58.94297 -36.9715,-96.12603 0,-60.78684 36.6176,-112.13999 88.7317,-134.94616 l 0,-62.851638 z m 246.7851,9.242888 c 7.9308,7.930856 1.2534,20.325865 -7.3943,34.198685 l -20.3344,30.501525 c 11.9614,19.12649 21.6027,40.23701 26.8044,62.85164 l 11.0915,1.84858 c -5.5164,-17.72175 -13.4764,-34.51175 -23.1073,-49.91159 l 20.3344,-30.501534 c 8.6477,-13.872821 15.3251,-26.267829 7.3943,-34.198685 L -3007.3819,35.6546 z m -128.4762,47.138728 0,6.470022 c 13.0286,5.70154 25.2859,13.21166 36.0473,22.18293 -10.2986,-11.39844 -22.6571,-20.87097 -36.0473,-28.652952 z m 192.2521,106.293212 0,40.6687 c 0,11.21593 -13.6528,15.71531 -29.5772,19.41007 l -35.123,6.47002 c -5.2017,22.61464 -14.843,43.72516 -26.8044,62.85164 l 20.3344,30.50153 c 9.2532,13.53286 15.3251,26.26781 7.3943,34.19868 l -28.653,28.65295 c -7.9308,7.93088 -20.326,1.25334 -34.1987,-7.39431 l -30.5015,-20.33435 c -19.1264,11.96127 -40.237,21.60266 -62.8516,26.80438 l -6.47,35.12297 c -3.0262,16.11211 -8.1942,29.57724 -19.4101,29.57724 l -40.6687,0 c 3.2341,8.33847 7.5369,14.78862 14.7886,14.78862 l 40.6687,0 c 11.2159,0 16.3839,-13.46513 19.4101,-29.57724 l 6.47,-35.12297 c 22.6146,-5.20172 43.7252,-14.84311 62.8516,-26.80438 l 30.5016,20.33435 c 13.8727,8.64765 26.2678,15.32519 34.1987,7.39431 l 28.6529,-28.65295 c 7.9308,-7.93087 1.8589,-20.66582 -7.3943,-34.19868 l -20.3344,-30.50153 c 11.9614,-19.12648 21.6027,-40.237 26.8044,-62.85164 l 35.123,-6.47002 c 15.9244,-3.69476 29.5772,-8.19414 29.5772,-19.41007 l 0,-40.6687 c 0,-7.34767 -6.2725,-11.53391 -14.7886,-14.78862 z m -517.6017,56.38161 c 0.7097,10.58919 13.9065,15.54243 29.5772,18.48578 l 24.0315,4.62144 c -1.3349,-4.28855 -2.6836,-8.53374 -3.6971,-12.94004 l -35.123,-6.47002 c -5.4393,-1.02163 -10.3689,-2.03707 -14.7886,-3.69716 z m 142.3405,138.64332 -30.5016,20.33435 c -13.5329,9.25295 -26.2679,15.32519 -34.1987,7.39431 l 14.7887,14.78862 c 7.9308,7.93088 20.6658,1.85864 34.1987,-7.39431 l 30.5015,-20.33435 c 15.3998,9.63071 32.1899,17.59083 49.9116,23.10722 l -1.8486,-11.09146 c -22.6146,-5.20172 -43.7251,-14.84311 -62.8516,-26.80438 z"
           id="path3351"
           inkscape:connector-curvature="0" />
      </g>
    </g>
  </g>
</svg>
