<?xml version="1.0" encoding="UTF-8" standalone="no"?>
<!-- Created with Inkscape (http://www.inkscape.org/) -->

<svg
   xmlns:dc="http://purl.org/dc/elements/1.1/"
   xmlns:cc="http://creativecommons.org/ns#"
   xmlns:rdf="http://www.w3.org/1999/02/22-rdf-syntax-ns#"
   xmlns:svg="http://www.w3.org/2000/svg"
   xmlns="http://www.w3.org/2000/svg"
   xmlns:xlink="http://www.w3.org/1999/xlink"
   xmlns:sodipodi="http://sodipodi.sourceforge.net/DTD/sodipodi-0.dtd"
   xmlns:inkscape="http://www.inkscape.org/namespaces/inkscape"
   width="22.000002"
   height="22.000002"
   id="svg27665"
   version="1.1"
   inkscape:version="0.48.3.1 r9886"
   sodipodi:docname="transmission-tray-icon.svg">
  <defs
     id="defs27667">
    <linearGradient
       inkscape:collect="always"
       xlink:href="#linearGradient7251-3"
       id="linearGradient3088"
       gradientUnits="userSpaceOnUse"
       gradientTransform="matrix(29.577232,0,0,29.577232,-3520.3642,-101.14012)"
       x1="6.000001"
       y1="18"
       x2="6.000001"
       y2="2.0000019" />
    <linearGradient
       inkscape:collect="always"
       xlink:href="#linearGradient7209-9"
       id="linearGradient3092"
       gradientUnits="userSpaceOnUse"
       gradientTransform="matrix(29.577232,0,0,29.577232,-3520.3642,-101.14012)"
       x1="6.000001"
       y1="18"
       x2="6.000001"
       y2="7.5" />
    <linearGradient
       inkscape:collect="always"
       xlink:href="#linearGradient9097-0"
       id="linearGradient3099"
       gradientUnits="userSpaceOnUse"
       gradientTransform="matrix(29.577232,0,0,29.577232,-3520.3642,-101.14012)"
       x1="6.000001"
       y1="18"
       x2="6.000001"
       y2="2.0000019" />
    <linearGradient
       inkscape:collect="always"
       xlink:href="#linearGradient7209-9"
       id="linearGradient3070"
       gradientUnits="userSpaceOnUse"
       x1="-3195.645"
       y1="506.50485"
       x2="-3195.645"
       y2="43.362446" />
    <linearGradient
       id="linearGradient7209-9">
      <stop
         id="stop7211-8"
         offset="0"
         style="stop-color:#a1988f;stop-opacity:1;" />
      <stop
         id="stop7213-9"
         offset="1"
         style="stop-color:#e4dfd4;stop-opacity:1;" />
    </linearGradient>
    <linearGradient
       inkscape:collect="always"
       xlink:href="#linearGradient9097-0"
       id="linearGradient3120"
       gradientUnits="userSpaceOnUse"
       gradientTransform="translate(3.6033726e-5,-1.3372609e-7)"
       x1="-3195.645"
       y1="506.50485"
       x2="-3195.645"
       y2="43.362446" />
    <linearGradient
       id="linearGradient9097-0">
      <stop
         style="stop-color:#000000;stop-opacity:0.49634215;"
         offset="0"
         id="stop9099-4" />
      <stop
         style="stop-color:#000000;stop-opacity:0.41474396;"
         offset="1"
         id="stop9101-5" />
    </linearGradient>
    <linearGradient
       inkscape:collect="always"
       xlink:href="#linearGradient7251-3"
       id="linearGradient3057"
       x1="-3224.5908"
       y1="506.50552"
       x2="-3224.5908"
       y2="43.362446"
       gradientUnits="userSpaceOnUse" />
    <linearGradient
       id="linearGradient7251-3">
      <stop
         style="stop-color:#ffffff;stop-opacity:1;"
         offset="0"
         id="stop7253-27" />
      <stop
         style="stop-color:#ffffff;stop-opacity:1;"
         offset="1"
         id="stop7255-3" />
    </linearGradient>
  </defs>
  <sodipodi:namedview
     id="base"
     pagecolor="#ffffff"
     bordercolor="#666666"
     borderopacity="1.0"
     inkscape:pageopacity="0.0"
     inkscape:pageshadow="2"
     inkscape:zoom="31.678385"
     inkscape:cx="17.225688"
     inkscape:cy="9.5350694"
     inkscape:document-units="px"
     inkscape:current-layer="g4412"
     showgrid="true"
     inkscape:window-width="1680"
     inkscape:window-height="1000"
     inkscape:window-x="-8"
     inkscape:window-y="23"
     inkscape:window-maximized="1"
     inkscape:snap-bbox="true"
     inkscape:bbox-paths="true"
     inkscape:bbox-nodes="true"
     inkscape:snap-bbox-edge-midpoints="true"
     inkscape:snap-bbox-midpoints="true"
     inkscape:object-paths="true"
     inkscape:snap-intersection-paths="true"
     inkscape:object-nodes="true"
     inkscape:snap-smooth-nodes="true"
     inkscape:snap-midpoints="true"
     inkscape:snap-object-midpoints="true"
     inkscape:snap-center="true"
     inkscape:snap-global="true"
     showguides="true"
     inkscape:guide-bbox="true"
     fit-margin-top="0"
     fit-margin-left="0"
     fit-margin-right="0"
     fit-margin-bottom="0"
     inkscape:showpageshadow="false">
    <inkscape:grid
       type="xygrid"
       id="grid3014"
       empspacing="5"
       visible="true"
       enabled="true"
       snapvisiblegridlinesonly="true" />
  </sodipodi:namedview>
  <metadata
     id="metadata27670">
    <rdf:RDF>
      <cc:Work
         rdf:about="">
        <dc:format>image/svg+xml</dc:format>
        <dc:type
           rdf:resource="http://purl.org/dc/dcmitype/StillImage" />
        <dc:title />
      </cc:Work>
    </rdf:RDF>
  </metadata>
  <g
     inkscape:label="Camada 1"
     inkscape:groupmode="layer"
     id="layer1"
     transform="translate(3364.4172,-2094.7186)">
    <g
       id="normal"
       transform="matrix(0.03380979,0,0,0.03380979,-3245.473,2097.4005)"
       inkscape:label="#g3132">
      <rect
         y="-79.323952"
         x="-3518.0396"
         height="650.69916"
         width="650.69916"
         id="rect3134"
         style="opacity:0.00100002;fill:#ffffff;stroke:none" />
      <g
         id="g4412"
         transform="translate(2.3239781,21.816943)">
        <path
           inkscape:connector-curvature="0"
           style="fill:url(#linearGradient3092);fill-opacity:1;fill-rule:nonzero;stroke:none"
           d="m -3342.9008,-41.985656 c -16.3858,0 -29.5772,12.525783 -29.5772,28.652943 l 0,1.848578 c 0,16.1271598 13.1914,28.652943 29.5772,28.652943 l 118.3089,0 0,118.308922 59.1545,0 0,-118.308922 118.3089,0 c 16.3858,0 29.5772,-12.5257832 29.5772,-28.652943 l 0,-1.848578 c 0,-16.12716 -13.1914,-28.652943 -29.5772,-28.652943 z m 177.4634,177.463386 0,88.7317 88.7317,0 -118.3089,147.88616 -118.309,-147.88616 88.7317,0 0,-88.7317 -118.3089,0 -118.309,295.77232 29.5773,29.57724 473.2357,0 29.5773,-29.57724 -118.309,-295.77232 z"
           id="path3090"
           sodipodi:nodetypes="ssssccccssssscccccccccccccc" />
        <path
           style="fill:url(#linearGradient3099);fill-opacity:1;fill-rule:nonzero;stroke:none"
           d="m -3035.1127,-39.212791 c 1.4927,3.442175 2.7728,7.059672 2.7728,11.091462 l 0,1.848577 c 0,16.127161 -13.1914,28.652944 -29.5772,28.652944 l -118.3089,0 0,118.308928 14.7886,0 0,-103.520312 118.3089,0 c 16.3858,0 29.5773,-12.525783 29.5773,-28.652943 l 0,-1.848577 c 0,-11.668476 -7.5368,-21.362452 -17.5615,-25.880079 z m -145.1133,159.901911 -44.3659,0 0,14.78861 44.3659,0 z m -44.3659,14.78861 -14.7886,0 0,73.94308 -88.7317,0 118.3089,147.88616 0.9243,-1.84858 -104.4446,-131.24896 88.7317,0 z M -3368.7809,0.53161502 c 4.7496,9.66877298 14.1313,15.46231298 25.8801,16.63719298 l 103.5203,0 0,-14.788616 -118.3089,0 c -4.0965,0 -7.5505,-0.422298 -11.0915,-1.84857698 z m 312.4096,134.94611498 112.7632,280.9837 -29.5773,29.57724 -473.2357,0 14.7886,14.78861 473.2357,0 29.5773,-29.57723 -118.3089,-295.77232 z m -109.0661,73.94308 0,14.78862 61.9274,0 12.0157,-14.78862 z"
           id="path3079"
           inkscape:connector-curvature="0"
           sodipodi:nodetypes="csssccccsssccccccccccccccccsccsccccccccccccccc" />
        <path
           style="fill:url(#linearGradient3088);fill-opacity:1;fill-rule:nonzero;stroke:none"
           d="m -3342.9008,-41.985656 c -16.3858,0 -29.5773,12.525783 -29.5773,28.652943 l 0,1.848577 c 0,11.66847578 7.5368,21.3624521 17.5615,25.880078 -1.4927,-3.442174 -2.7728,-7.0596707 -2.7728,-11.0914615 l 0,-1.848577 c 0,-16.1271605 13.1914,-28.6529435 29.5772,-28.6529435 l 295.7723,0 c 4.0965,0 7.5505,0.422298 11.0915,1.848577 -4.7496,-9.668773 -14.0727,-16.637193 -25.8801,-16.637193 z m 118.3089,73.94308 0,103.520306 14.7886,0 0,-103.520306 z m 0,103.520306 -118.309,0 -118.3089,295.77233 14.7886,14.78861 118.309,-295.77232 103.5203,0 z m 73.9431,0 0,14.78862 109.0661,0 -5.5458,-14.78862 z m 0,14.78862 -14.7886,0 0,73.94308 14.7886,0 z m 61.9273,88.7317 -105.3689,131.24897 13.8644,16.63719 118.3089,-147.88616 z"
           id="rect3016"
           inkscape:connector-curvature="0"
           sodipodi:nodetypes="ssscsssscssccccccccccccccccccccccccccc" />
      </g>
    </g>
  </g>
</svg>
