<?xml version="1.0" encoding="UTF-8" standalone="no"?>
<!-- Created with Inkscape (http://www.inkscape.org/) -->

<svg
   xmlns:dc="http://purl.org/dc/elements/1.1/"
   xmlns:cc="http://creativecommons.org/ns#"
   xmlns:rdf="http://www.w3.org/1999/02/22-rdf-syntax-ns#"
   xmlns:svg="http://www.w3.org/2000/svg"
   xmlns="http://www.w3.org/2000/svg"
   xmlns:xlink="http://www.w3.org/1999/xlink"
   xmlns:sodipodi="http://sodipodi.sourceforge.net/DTD/sodipodi-0.dtd"
   xmlns:inkscape="http://www.inkscape.org/namespaces/inkscape"
   width="21.999996"
   height="21.999996"
   id="svg27665"
   version="1.1"
   inkscape:version="0.48.3.1 r9886"
   sodipodi:docname="ubuntuone-client-offline.svg">
  <defs
     id="defs27667">
    <linearGradient
       inkscape:collect="always"
       xlink:href="#linearGradient7251-3"
       id="linearGradient3047"
       x1="-3224.5898"
       y1="431.25006"
       x2="-3224.5898"
       y2="-12.408417"
       gradientUnits="userSpaceOnUse" />
    <linearGradient
       inkscape:collect="always"
       xlink:href="#linearGradient7209-9"
       id="linearGradient3056"
       gradientUnits="userSpaceOnUse"
       gradientTransform="matrix(29.577241,0,0,29.577241,-3520.3622,-101.14014)"
       x1="11.999998"
       y1="17.999996"
       x2="11.999998"
       y2="3.0065932" />
    <linearGradient
       inkscape:collect="always"
       xlink:href="#linearGradient9097-0"
       id="linearGradient3063"
       gradientUnits="userSpaceOnUse"
       gradientTransform="matrix(29.577241,0,0,29.577241,-3520.3622,-101.14014)"
       x1="11.999998"
       y1="17.999996"
       x2="11.999998"
       y2="3.0065932" />
    <linearGradient
       inkscape:collect="always"
       xlink:href="#linearGradient7209-9"
       id="linearGradient3111"
       gradientUnits="userSpaceOnUse"
       gradientTransform="translate(1.12281e-5,6.3790002e-7)"
       x1="-3192.6887"
       y1="423.48981"
       x2="-3192.6887"
       y2="68.562889" />
    <linearGradient
       id="linearGradient7209-9">
      <stop
         id="stop7211-8"
         offset="0"
         style="stop-color:#a1988f;stop-opacity:1;" />
      <stop
         id="stop7213-9"
         offset="1"
         style="stop-color:#e4dfd4;stop-opacity:1;" />
    </linearGradient>
    <linearGradient
       inkscape:collect="always"
       xlink:href="#linearGradient9097-0"
       id="linearGradient3118"
       gradientUnits="userSpaceOnUse"
       gradientTransform="translate(1.5943294e-4,1.6329418e-6)"
       x1="-3192.6887"
       y1="423.48981"
       x2="-3192.6887"
       y2="68.562889" />
    <linearGradient
       id="linearGradient9097-0">
      <stop
         style="stop-color:#000000;stop-opacity:0.49634215;"
         offset="0"
         id="stop9099-4" />
      <stop
         style="stop-color:#000000;stop-opacity:0.41474396;"
         offset="1"
         id="stop9101-5" />
    </linearGradient>
    <linearGradient
       id="linearGradient7251-3">
      <stop
         style="stop-color:#ffffff;stop-opacity:1;"
         offset="0"
         id="stop7253-27" />
      <stop
         style="stop-color:#ffffff;stop-opacity:1;"
         offset="1"
         id="stop7255-3" />
    </linearGradient>
    <linearGradient
       y2="68.563004"
       x2="-3577.1929"
       y1="423.4899"
       x1="-3577.1929"
       gradientUnits="userSpaceOnUse"
       id="linearGradient3146"
       xlink:href="#linearGradient7251-3"
       inkscape:collect="always" />
  </defs>
  <sodipodi:namedview
     id="base"
     pagecolor="#ffffff"
     bordercolor="#666666"
     borderopacity="1.0"
     inkscape:pageopacity="0.0"
     inkscape:pageshadow="2"
     inkscape:zoom="31.678384"
     inkscape:cx="13.986442"
     inkscape:cy="7.2279269"
     inkscape:document-units="px"
     inkscape:current-layer="layer1"
     showgrid="true"
     inkscape:window-width="1680"
     inkscape:window-height="1000"
     inkscape:window-x="-8"
     inkscape:window-y="23"
     inkscape:window-maximized="1"
     inkscape:snap-bbox="true"
     inkscape:bbox-paths="true"
     inkscape:bbox-nodes="true"
     inkscape:snap-bbox-edge-midpoints="true"
     inkscape:snap-bbox-midpoints="true"
     inkscape:object-paths="true"
     inkscape:snap-intersection-paths="true"
     inkscape:object-nodes="true"
     inkscape:snap-smooth-nodes="true"
     inkscape:snap-midpoints="true"
     inkscape:snap-object-midpoints="true"
     inkscape:snap-center="true"
     inkscape:snap-global="true"
     showguides="true"
     inkscape:guide-bbox="true"
     fit-margin-top="0"
     fit-margin-left="0"
     fit-margin-right="0"
     fit-margin-bottom="0"
     inkscape:showpageshadow="false">
    <inkscape:grid
       type="xygrid"
       id="grid3140"
       empspacing="5"
       visible="true"
       enabled="true"
       snapvisiblegridlinesonly="true" />
  </sodipodi:namedview>
  <metadata
     id="metadata27670">
    <rdf:RDF>
      <cc:Work
         rdf:about="">
        <dc:format>image/svg+xml</dc:format>
        <dc:type
           rdf:resource="http://purl.org/dc/dcmitype/StillImage" />
        <dc:title />
      </cc:Work>
    </rdf:RDF>
  </metadata>
  <g
     inkscape:label="Camada 1"
     inkscape:groupmode="layer"
     id="layer1"
     transform="translate(3364.4171,-2094.7186)">
    <g
       id="normal"
       transform="matrix(0.03380978,0,0,0.03380978,-3245.473,2097.4005)"
       inkscape:label="#g3132">
      <rect
         y="-79.323952"
         x="-3518.0396"
         height="650.69916"
         width="650.69916"
         id="rect3134"
         style="opacity:0.00100002;fill:#ffffff;stroke:none" />
      <g
         id="g4412"
         transform="translate(2.3239781,21.816943)">
        <path
           id="path3054"
           d="m -3158.041,-12.408417 c -52.1652,0 -96.847,28.958766 -121.0818,71.170236 -12.26,-7.407377 -26.2241,-12.015754 -41.593,-12.015754 -44.9214,0 -81.3374,36.415993 -81.3374,81.337415 0,6.67426 1.2566,13.20285 2.7728,19.41006 -53.5025,22.25948 -91.5046,74.3077 -91.5046,135.87045 0,81.67528 66.211,147.88621 147.8862,147.88621 l 295.7725,0 c 81.6752,0 147.8862,-66.21093 147.8862,-147.88621 0,-71.78 -51.4011,-131.66826 -119.2333,-145.11334 0.243,-3.37768 0.9243,-6.72755 0.9243,-10.16717 0,-77.591525 -62.9004,-140.491897 -140.4919,-140.491897 z m -11.0915,59.154482 c 3.6311,-0.498666 7.2873,0 11.0915,0 45.8376,0 81.3374,35.48397 81.3374,81.337415 0,-4.11306 0.5932,-2.69993 0,5.54573 a 58.753861,58.753861 0 0 0 47.1387,61.92735 c 40.74,8.07509 71.1703,44.06544 71.1703,87.80743 0,49.93082 -38.801,88.73173 -88.7317,88.73173 l -295.7725,0 c -49.9308,0 -88.7317,-38.80091 -88.7317,-88.73173 0,-37.38936 21.9123,-67.76566 54.5331,-81.33741 a 58.753861,58.753861 0 0 0 35.1229,-68.39737 c -1.0518,-4.30607 -0.9243,-6.29522 -0.9243,-5.54573 0,-13.16616 9.0169,-22.18293 22.183,-22.18293 3.6655,0 6.5327,0.0185 11.0914,2.77286 a 58.753861,58.753861 0 0 0 81.3375,-20.33435 c 12.67,-22.068212 33.7367,-38.102333 59.1544,-41.592995 z"
           style="fill:url(#linearGradient3056);fill-opacity:1;fill-rule:nonzero;stroke:none"
           inkscape:connector-curvature="0" />
        <path
           style="fill:url(#linearGradient3063);fill-opacity:1;fill-rule:nonzero;stroke:none"
           d="m -3067.4607,22.714557 c 21.1686,24.595739 35.123,55.583767 35.123,90.580303 0,3.43962 -0.6813,6.78949 -0.9243,10.16717 5.3355,1.05755 10.5978,3.00603 15.7129,4.62145 0,-42.59499 -19.9756,-79.604233 -49.9116,-105.368923 z m -116.4604,9.242888 c -25.4177,3.490662 -46.4845,19.524783 -59.1545,41.592995 a 58.753861,58.753861 0 0 1 -81.3374,20.33435 c -4.5587,-2.75436 -7.4259,-2.77286 -11.0914,-2.77286 -13.1661,0 -22.183,9.01677 -22.183,22.18293 0,-0.74949 -0.1275,1.23966 0.9243,5.54573 a 58.753861,58.753861 0 0 1 -35.1229,68.39737 c -32.6209,13.57175 -54.5331,43.94805 -54.5331,81.33741 0,28.82036 13.6657,53.23883 34.1987,69.32166 -11.7804,-15.04011 -19.4101,-33.42258 -19.4101,-54.53304 0,-37.38936 21.9123,-67.76566 54.5331,-81.33741 a 58.753861,58.753861 0 0 0 35.1229,-68.39737 c -1.0518,-4.30607 -0.9242,-6.29522 -0.9242,-5.54573 0,-13.16616 9.0168,-22.18293 22.1829,-22.18293 3.6655,0 6.5328,0.0185 11.0915,2.77286 a 58.753861,58.753861 0 0 0 81.3374,-20.33435 c 12.67,-22.068212 33.7367,-38.102333 59.1544,-41.592994 3.6312,-0.498667 7.2873,0 11.0915,0 18.9357,0 36.2782,6.296692 49.9116,16.637198 -14.6936,-19.367675 -37.7983,-31.425819 -64.7002,-31.425819 -3.8042,0 -7.4604,-0.498666 -11.0915,0 z m 118.309,140.491895 a 58.753861,58.753861 0 0 0 36.0473,23.10722 c 13.2201,2.62037 25.6858,7.90256 36.0472,15.71291 -12.7001,-15.47473 -30.4659,-26.46397 -50.8359,-30.50153 a 58.753861,58.753861 0 0 1 -21.2586,-8.3186 z m 117.3847,1.84858 c 21.3293,25.62519 34.1987,58.38745 34.1987,94.27745 0,81.67528 -66.211,147.88621 -147.8863,147.88621 l -295.7724,0 c -37.1136,0 -70.16,-14.38992 -96.126,-36.97155 27.1132,31.17675 66.3531,51.76017 110.9147,51.76017 l 295.7724,0 c 81.6752,0 147.8862,-66.21093 147.8862,-147.88621 0,-43.4458 -19.0805,-81.99444 -48.9873,-109.06607 z"
           id="path3073"
           inkscape:connector-curvature="0" />
        <path
           style="fill:url(#linearGradient3047);fill-opacity:1;fill-rule:nonzero;stroke:none"
           d="m -3158.041,-12.408417 c -52.1652,0 -96.847,28.958766 -121.0818,71.170236 -12.26,-7.407378 -26.2241,-12.015754 -41.593,-12.015754 -44.9214,0 -81.3375,36.41599 -81.3375,81.337415 0,6.67426 1.2567,13.20285 2.7729,19.41006 -53.5025,22.25948 -91.5046,74.3077 -91.5046,135.87045 0,44.56158 20.5834,83.80144 51.7602,110.91466 -22.5816,-25.96598 -36.9716,-59.01231 -36.9716,-96.12604 0,-61.56275 38.0021,-113.61097 91.5046,-135.87045 -1.5162,-6.20721 -2.7728,-12.7358 -2.7728,-19.41006 0,-44.921425 36.416,-81.337415 81.3374,-81.337415 15.3689,0 29.333,4.608377 41.593,12.015754 24.2348,-42.21147 68.9166,-71.1702356 121.0818,-71.1702356 34.9965,0 65.9845,13.9544096 90.5803,35.1229736 -25.7647,-29.9359745 -62.7739,-49.911594 -105.3689,-49.911594 z m 64.7002,90.5803 c 10.3426,13.632511 16.6372,30.969347 16.6372,49.911597 0,-4.11306 0.5932,-2.69993 0,5.54573 a 58.753861,58.753861 0 0 0 23.1072,50.83588 58.753861,58.753861 0 0 1 -8.3186,-36.04726 c 0.5932,-8.24566 0,-9.65879 0,-5.54573 0,-26.9112 -12.0568,-50.009488 -31.4258,-64.700217 z m 90.5803,64.700217 c 0,3.43962 -0.6813,6.78949 -0.9243,10.16717 25.4371,5.04191 48.5014,16.9924 67.4731,33.2744 -17.6642,-20.11468 -40.432,-35.19359 -66.5488,-43.44157 z m 24.9558,84.11028 c 12.2003,15.32494 19.4101,34.99177 19.4101,56.38161 0,49.93082 -38.8011,88.73173 -88.7318,88.73173 l -295.7724,0 c -21.1104,0 -39.4929,-7.62963 -54.533,-19.41007 16.0828,20.53305 40.5013,34.19869 69.3216,34.19869 l 295.7725,0 c 49.9307,0 88.7317,-38.80091 88.7317,-88.73173 0,-29.06656 -13.2288,-54.86566 -34.1987,-71.17023 z"
           id="path3014"
           inkscape:connector-curvature="0" />
      </g>
    </g>
  </g>
</svg>
