<?xml version="1.0" encoding="UTF-8" standalone="no"?>
<!-- Created with Inkscape (http://www.inkscape.org/) -->

<svg
   xmlns:dc="http://purl.org/dc/elements/1.1/"
   xmlns:cc="http://creativecommons.org/ns#"
   xmlns:rdf="http://www.w3.org/1999/02/22-rdf-syntax-ns#"
   xmlns:svg="http://www.w3.org/2000/svg"
   xmlns="http://www.w3.org/2000/svg"
   xmlns:xlink="http://www.w3.org/1999/xlink"
   xmlns:sodipodi="http://sodipodi.sourceforge.net/DTD/sodipodi-0.dtd"
   xmlns:inkscape="http://www.inkscape.org/namespaces/inkscape"
   width="21.999996"
   height="21.999996"
   id="svg27665"
   version="1.1"
   inkscape:version="0.48.3.1 r9886"
   sodipodi:docname="weather-clear.svg">
  <defs
     id="defs27667">
    <linearGradient
       id="linearGradient4357-9"
       inkscape:collect="always">
      <stop
         id="stop4359-9"
         offset="0"
         style="stop-color:#adaca1;stop-opacity:1" />
      <stop
         id="stop4361-2"
         offset="1"
         style="stop-color:#e1e0d9;stop-opacity:1" />
    </linearGradient>
    <linearGradient
       inkscape:collect="always"
       xlink:href="#linearGradient4357-9"
       id="linearGradient3871"
       x1="-3224.5898"
       y1="460.8273"
       x2="-2899.2401"
       y2="194.63227"
       gradientUnits="userSpaceOnUse" />
    <linearGradient
       id="linearGradient7209-9">
      <stop
         id="stop7211-8"
         offset="0"
         style="stop-color:#a1988f;stop-opacity:1;" />
      <stop
         id="stop7213-9"
         offset="1"
         style="stop-color:#e4dfd4;stop-opacity:1;" />
    </linearGradient>
    <linearGradient
       id="linearGradient9097-0">
      <stop
         style="stop-color:#000000;stop-opacity:0.49634215;"
         offset="0"
         id="stop9099-4" />
      <stop
         style="stop-color:#000000;stop-opacity:0.41474396;"
         offset="1"
         id="stop9101-5" />
    </linearGradient>
    <linearGradient
       id="linearGradient7251-3">
      <stop
         style="stop-color:#ffffff;stop-opacity:1;"
         offset="0"
         id="stop7253-27" />
      <stop
         style="stop-color:#ffffff;stop-opacity:1;"
         offset="1"
         id="stop7255-3" />
    </linearGradient>
    <linearGradient
       inkscape:collect="always"
       xlink:href="#linearGradient7251-3"
       id="linearGradient3798"
       gradientUnits="userSpaceOnUse"
       gradientTransform="matrix(29.577241,0,0,29.577241,-2822.5242,-101.14014)"
       x1="10.999998"
       y1="19.999996"
       x2="10.999998"
       y2="1.9999959" />
    <linearGradient
       inkscape:collect="always"
       xlink:href="#linearGradient7209-9"
       id="linearGradient3802"
       gradientUnits="userSpaceOnUse"
       gradientTransform="matrix(29.577241,0,0,29.577241,-2822.5242,-101.14014)"
       x1="10.999998"
       y1="19.999996"
       x2="10.999998"
       y2="1.9999959" />
    <linearGradient
       inkscape:collect="always"
       xlink:href="#linearGradient9097-0"
       id="linearGradient3809"
       gradientUnits="userSpaceOnUse"
       gradientTransform="matrix(29.577241,0,0,29.577241,-2822.5242,-101.14014)"
       x1="10.999998"
       y1="19.999996"
       x2="10.999998"
       y2="1.9999959" />
    <linearGradient
       inkscape:collect="always"
       xlink:href="#linearGradient7209-9"
       id="linearGradient3813"
       x1="10.999998"
       y1="16.999996"
       x2="10.999998"
       y2="4.9999962"
       gradientUnits="userSpaceOnUse"
       gradientTransform="translate(-0.49999763,-0.49999983)" />
    <linearGradient
       inkscape:collect="always"
       xlink:href="#linearGradient7209-9"
       id="linearGradient3817"
       gradientUnits="userSpaceOnUse"
       x1="10.999998"
       y1="16.999996"
       x2="10.999998"
       y2="4.9999962"
       gradientTransform="translate(0.500001,0.50000015)" />
    <linearGradient
       inkscape:collect="always"
       xlink:href="#linearGradient7209-9"
       id="linearGradient3821"
       gradientUnits="userSpaceOnUse"
       x1="10.999998"
       y1="16.999996"
       x2="10.999998"
       y2="4.9999962"
       gradientTransform="matrix(29.577241,0,0,29.577241,-3520.3622,-101.14014)" />
    <linearGradient
       inkscape:collect="always"
       xlink:href="#linearGradient7251-3"
       id="linearGradient3824"
       gradientUnits="userSpaceOnUse"
       gradientTransform="matrix(29.577241,0,0,29.577241,-3520.3621,-101.14014)"
       x1="10.999998"
       y1="16.999996"
       x2="10.999998"
       y2="4.9999962" />
    <linearGradient
       inkscape:collect="always"
       xlink:href="#linearGradient7209-9"
       id="linearGradient3828"
       gradientUnits="userSpaceOnUse"
       gradientTransform="matrix(29.577241,0,0,29.577241,-3520.3622,-101.14014)"
       x1="10.999998"
       y1="16.999996"
       x2="10.999998"
       y2="4.9999962" />
    <linearGradient
       inkscape:collect="always"
       xlink:href="#linearGradient7209-9"
       id="linearGradient3832"
       gradientUnits="userSpaceOnUse"
       gradientTransform="matrix(29.577241,0,0,29.577241,-3520.3622,-101.14014)"
       x1="10.999998"
       y1="16.999996"
       x2="10.999998"
       y2="4.9999962" />
    <linearGradient
       inkscape:collect="always"
       xlink:href="#linearGradient9097-0"
       id="linearGradient3835"
       gradientUnits="userSpaceOnUse"
       gradientTransform="matrix(29.577241,0,0,29.577241,-3520.3621,-101.14014)"
       x1="10.999998"
       y1="16.999996"
       x2="10.999998"
       y2="4.9999962" />
  </defs>
  <sodipodi:namedview
     id="base"
     pagecolor="#ffffff"
     bordercolor="#666666"
     borderopacity="1.0"
     inkscape:pageopacity="0.0"
     inkscape:pageshadow="2"
     inkscape:zoom="22.4"
     inkscape:cx="13.939785"
     inkscape:cy="6.6473304"
     inkscape:document-units="px"
     inkscape:current-layer="g4412"
     showgrid="true"
     inkscape:window-width="1680"
     inkscape:window-height="1000"
     inkscape:window-x="-8"
     inkscape:window-y="23"
     inkscape:window-maximized="1"
     inkscape:snap-bbox="true"
     inkscape:bbox-paths="true"
     inkscape:bbox-nodes="true"
     inkscape:snap-bbox-edge-midpoints="true"
     inkscape:snap-bbox-midpoints="true"
     inkscape:object-paths="true"
     inkscape:snap-intersection-paths="true"
     inkscape:object-nodes="true"
     inkscape:snap-smooth-nodes="true"
     inkscape:snap-midpoints="true"
     inkscape:snap-object-midpoints="true"
     inkscape:snap-center="true"
     inkscape:snap-global="true"
     showguides="true"
     inkscape:guide-bbox="true"
     fit-margin-top="0"
     fit-margin-left="0"
     fit-margin-right="0"
     fit-margin-bottom="0"
     inkscape:showpageshadow="false">
    <inkscape:grid
       type="xygrid"
       id="grid3140"
       empspacing="5"
       visible="true"
       enabled="true"
       snapvisiblegridlinesonly="true" />
  </sodipodi:namedview>
  <metadata
     id="metadata27670">
    <rdf:RDF>
      <cc:Work
         rdf:about="">
        <dc:format>image/svg+xml</dc:format>
        <dc:type
           rdf:resource="http://purl.org/dc/dcmitype/StillImage" />
        <dc:title />
      </cc:Work>
    </rdf:RDF>
  </metadata>
  <g
     inkscape:label="Camada 1"
     inkscape:groupmode="layer"
     id="layer1"
     transform="translate(3364.4171,-2094.7186)">
    <g
       id="normal"
       transform="matrix(0.03380978,0,0,0.03380978,-3245.473,2097.4005)"
       inkscape:label="#g3132">
      <rect
         y="-79.323952"
         x="-3518.0396"
         height="650.69916"
         width="650.69916"
         id="rect3134"
         style="opacity:0.00100002;fill:#ffffff;stroke:none" />
      <g
         id="g4412"
         transform="translate(2.3239781,21.816943)"
         style="fill:url(#linearGradient3871)">
        <path
           inkscape:connector-curvature="0"
           style="fill:url(#linearGradient3828);fill-opacity:1;fill-rule:nonzero;stroke:none"
           d="m -3195.0125,-101.14014 -35.123,106.2932098 c 11.547,-1.874919 23.0685,-2.7728663 35.123,-2.7728663 12.0545,0 23.5759,0.8979473 35.1229,2.7728663 l -35.1229,-106.2932098 z m -230.148,95.2017445 50.8359,100.7474775 c 13.8718,-19.109536 30.8021,-36.039786 49.9116,-49.911595 l -100.7475,-50.8358825 z m 460.2959,0 -100.7475,50.8358825 c 19.1095,13.871809 36.0398,30.802059 49.9116,49.911595 l 50.8359,-100.7474775 z m -230.1479,52.6844605 c -98.0104,0 -177.4635,79.453125 -177.4635,177.463445 0,98.01031 79.4531,177.46345 177.4635,177.46345 98.0103,0 177.4634,-79.45314 177.4634,-177.46345 0,-98.01032 -79.4531,-177.463445 -177.4634,-177.463445 z m -219.0565,142.340475 -106.2932,35.12297 106.2932,35.12297 c -1.8749,-11.54701 -2.7729,-23.06847 -2.7729,-35.12297 0,-12.0545 0.898,-23.57596 2.7729,-35.12297 z m 438.1129,0 c 1.8749,11.54701 2.7729,23.06847 2.7729,35.12297 0,12.0545 -0.898,23.57596 -2.7729,35.12297 l 106.2932,-35.12297 -106.2932,-35.12297 z m -398.3685,164.5234 -50.8359,100.74748 100.7475,-50.83589 c -19.1095,-13.87181 -36.0398,-30.80206 -49.9116,-49.91159 z m 358.6241,0 c -13.8718,19.10953 -30.8021,36.03978 -49.9116,49.91159 l 100.7475,50.83589 -50.8359,-100.74748 z m -214.435,89.65601 35.123,106.29321 35.1229,-106.29321 c -11.547,1.87493 -23.0684,2.77287 -35.1229,2.77287 -12.0545,0 -23.576,-0.89794 -35.123,-2.77287 z"
           id="path3826" />
        <path
           style="fill:url(#linearGradient3824);fill-opacity:1;fill-rule:nonzero;stroke:none"
           d="m -3195.0126,-101.14014 -35.1229,106.2932097 c 6.6913,-1.0864993 13.5514,-1.4028543 20.3343,-1.8485773 l 24.9558,-74.8673914 -10.1672,-29.577241 z m -230.1479,95.2017442 50.8359,100.7474768 c 1.4146,-1.948756 3.1442,-3.643236 4.6215,-5.545733 l -40.6687,-80.4131231 80.4131,40.6687061 c 1.9025,-1.477303 3.597,-3.206824 5.5457,-4.621444 l -100.7475,-50.8358828 z m 460.2958,0 -100.7474,50.8358828 c 5.8462,4.243864 11.224,9.073126 16.6372,13.864332 l 69.3216,-35.122974 14.7886,-29.5772408 z m -230.1479,52.6844608 c -98.0104,0 -177.4634,79.453125 -177.4634,177.463445 0,52.78863 23.4958,99.66596 60.0788,132.1733 -27.8476,-31.33895 -45.2902,-72.163 -45.2902,-117.38468 0,-98.01032 79.4531,-177.463445 177.4635,-177.463445 45.2216,0 86.0457,17.442572 117.3846,45.290155 -32.5073,-36.582932 -79.3846,-60.078775 -132.1733,-60.078775 z m 162.6749,29.577241 c 5.5899,6.137103 11.764,11.77267 16.6372,18.485775 l 0.9243,-1.848577 c -5.3681,-6.064899 -11.5734,-11.182999 -17.5615,-16.637198 z m -381.7313,112.763234 -106.2932,35.12297 29.5772,10.16718 74.8674,-24.9558 c 0.4458,-6.78293 0.7621,-13.64297 1.8486,-20.33435 z m 438.1129,0 c 1.8749,11.54701 2.7728,23.06847 2.7728,35.12297 0,12.0545 -0.8979,23.57596 -2.7728,35.12297 l 16.6372,-5.54573 c 0.3234,-4.92204 0.9243,-9.71958 0.9243,-14.78862 0,-12.0545 -0.898,-23.57596 -2.7729,-35.12297 l 76.716,24.95579 14.7886,-4.62144 -106.2932,-35.12297 z m -398.3685,164.5234 -50.8359,100.74748 29.5773,-14.78862 35.1229,-69.32166 c -4.7912,-5.41314 -9.6204,-10.79093 -13.8643,-16.6372 z m 358.6241,0 c -13.8719,19.10953 -30.8021,36.03978 -49.9116,49.91159 l 20.3343,10.16718 c 14.8509,-11.53184 28.2126,-24.89351 39.7444,-39.74442 l -10.1671,-20.33435 z m -327.1983,33.2744 c 5.4542,5.98815 10.5723,12.19342 16.6372,17.56148 l 1.8486,-0.92429 c -6.7131,-4.87311 -12.3487,-11.04733 -18.4858,-16.63719 z m 112.7633,56.38161 35.1229,106.29321 4.6215,-14.78862 -24.9558,-76.71597 c 11.547,1.87493 23.0685,2.77287 35.123,2.77287 5.069,0 9.8665,-0.60086 14.7886,-0.92429 l 5.5457,-16.6372 c -11.547,1.87493 -23.0685,2.77287 -35.123,2.77287 -12.0545,0 -23.5759,-0.89794 -35.1229,-2.77287 z"
           id="path3016"
           inkscape:connector-curvature="0" />
        <path
           style="fill:url(#linearGradient3835);fill-opacity:1;fill-rule:nonzero;stroke:none"
           d="m -3195.0125,-101.14014 -4.6215,14.788621 24.9558,76.7159685 c -11.547,-1.8749195 -23.0684,-2.7728665 -35.1229,-2.7728665 -5.0691,0 -9.8666,0.600847 -14.7887,0.924289 l -5.5457,16.6371978 c 11.547,-1.874919 23.0685,-2.7728662 35.123,-2.7728662 12.0545,0 23.5759,0.8979472 35.1229,2.7728662 l -35.1229,-106.2932098 z m 230.1479,95.2017446 -29.5773,14.7886202 -35.1229,69.3216592 c 4.7912,5.413147 9.6204,10.790931 13.8643,16.637196 l 50.8359,-100.7474754 z m -379.8827,40.6687064 c -14.8509,11.53185 -28.2126,24.893496 -39.7444,39.744418 l 10.1671,20.334351 c 13.8718,-19.109531 30.8021,-36.039783 49.9116,-49.911592 l -20.3343,-10.167177 z m 280.9838,9.242888 -1.8486,0.924289 c 6.7131,4.873111 12.3487,11.047321 18.4858,16.637198 -5.4542,-5.988146 -10.5723,-12.193413 -16.6372,-17.561487 z m -13.8644,48.063017 c 27.8476,31.338954 45.2902,72.163004 45.2902,117.384674 0,98.01031 -79.4531,177.46345 -177.4634,177.46345 -45.2218,0 -86.0458,-17.44256 -117.3847,-45.29015 32.5073,36.58293 79.3846,60.07877 132.1733,60.07877 98.0103,0 177.4634,-79.45314 177.4634,-177.46345 0,-52.78865 -23.4958,-99.66596 -60.0788,-132.173294 z m -336.4411,97.050324 -16.6372,5.54573 c -0.3234,4.92204 -0.9243,9.71958 -0.9243,14.78862 0,12.0545 0.898,23.57596 2.7729,35.12297 l -76.716,-24.95579 -14.7886,4.62144 106.2932,35.12298 c -1.8749,-11.54702 -2.7728,-23.06848 -2.7728,-35.12298 0,-12.0545 0.8979,-23.57596 2.7728,-35.12297 z m 514.8289,24.95579 -74.8674,24.9558 c -0.4457,6.78292 -0.7621,13.64298 -1.8486,20.33436 l 106.2932,-35.12298 -29.5772,-10.16718 z m -475.0845,139.56761 -0.9242,1.84858 c 5.368,6.0649 11.5733,11.18301 17.5614,16.6372 -5.5898,-6.1371 -11.764,-11.77266 -16.6372,-18.48578 z m 358.6241,0 c -1.4146,1.94876 -3.1442,3.64324 -4.6214,5.54573 l 40.6687,80.41313 -80.4132,-40.66871 c -1.9025,1.4773 -3.5969,3.20682 -5.5457,4.62144 l 100.7475,50.83589 -50.8359,-100.74748 z m -325.3497,36.04726 -69.3216,35.12298 -14.7886,29.57724 100.7474,-50.83589 c -5.8462,-4.24386 -11.224,-9.07311 -16.6372,-13.86433 z m 181.1606,53.60875 c -6.6913,1.08649 -13.5514,1.40285 -20.3343,1.84858 l -24.9558,74.86739 10.1672,29.57724 35.1229,-106.29321 z"
           id="path3815"
           inkscape:connector-curvature="0" />
      </g>
    </g>
  </g>
</svg>
