<?xml version="1.0" encoding="UTF-8" standalone="no"?>
<!-- Created with Inkscape (http://www.inkscape.org/) -->

<svg
   xmlns:dc="http://purl.org/dc/elements/1.1/"
   xmlns:cc="http://creativecommons.org/ns#"
   xmlns:rdf="http://www.w3.org/1999/02/22-rdf-syntax-ns#"
   xmlns:svg="http://www.w3.org/2000/svg"
   xmlns="http://www.w3.org/2000/svg"
   xmlns:xlink="http://www.w3.org/1999/xlink"
   xmlns:sodipodi="http://sodipodi.sourceforge.net/DTD/sodipodi-0.dtd"
   xmlns:inkscape="http://www.inkscape.org/namespaces/inkscape"
   width="21.999996"
   height="21.999996"
   id="svg27665"
   version="1.1"
   inkscape:version="0.48.3.1 r9886"
   sodipodi:docname="weather-few-clouds.svg">
  <defs
     id="defs27667">
    <linearGradient
       id="linearGradient4357-9"
       inkscape:collect="always">
      <stop
         id="stop4359-9"
         offset="0"
         style="stop-color:#adaca1;stop-opacity:1" />
      <stop
         id="stop4361-2"
         offset="1"
         style="stop-color:#e1e0d9;stop-opacity:1" />
    </linearGradient>
    <linearGradient
       inkscape:collect="always"
       xlink:href="#linearGradient4357-9"
       id="linearGradient3871"
       x1="-3224.5898"
       y1="460.8273"
       x2="-2899.2401"
       y2="194.63227"
       gradientUnits="userSpaceOnUse" />
    <linearGradient
       id="linearGradient7209-9">
      <stop
         id="stop7211-8"
         offset="0"
         style="stop-color:#a1988f;stop-opacity:1;" />
      <stop
         id="stop7213-9"
         offset="1"
         style="stop-color:#e4dfd4;stop-opacity:1;" />
    </linearGradient>
    <linearGradient
       id="linearGradient9097-0">
      <stop
         style="stop-color:#000000;stop-opacity:0.49634215;"
         offset="0"
         id="stop9099-4" />
      <stop
         style="stop-color:#000000;stop-opacity:0.41474396;"
         offset="1"
         id="stop9101-5" />
    </linearGradient>
    <linearGradient
       id="linearGradient7251-3">
      <stop
         style="stop-color:#ffffff;stop-opacity:1;"
         offset="0"
         id="stop7253-27" />
      <stop
         style="stop-color:#ffffff;stop-opacity:1;"
         offset="1"
         id="stop7255-3" />
    </linearGradient>
    <linearGradient
       inkscape:collect="always"
       xlink:href="#linearGradient7251-3"
       id="linearGradient3821"
       gradientUnits="userSpaceOnUse"
       gradientTransform="matrix(23.239269,0,0,23.239269,-2852.1014,19.28134)"
       x1="9.9999981"
       y1="18.999996"
       x2="9.9999952"
       y2="6.9999957" />
    <linearGradient
       inkscape:collect="always"
       xlink:href="#linearGradient7209-9"
       id="linearGradient3825"
       gradientUnits="userSpaceOnUse"
       gradientTransform="matrix(23.239269,0,0,23.239269,-3520.3621,19.281334)"
       x1="9.9999981"
       y1="18.999996"
       x2="9.9999952"
       y2="6.9999957" />
    <linearGradient
       inkscape:collect="always"
       xlink:href="#linearGradient9097-0"
       id="linearGradient3832"
       gradientUnits="userSpaceOnUse"
       gradientTransform="matrix(23.239269,0,0,23.239269,-2852.1014,19.28134)"
       x1="9.9999981"
       y1="18.999996"
       x2="9.9999952"
       y2="6.9999957" />
    <linearGradient
       id="linearGradient7209-9-1">
      <stop
         id="stop7211-8-9"
         offset="0"
         style="stop-color:#a1988f;stop-opacity:1;" />
      <stop
         id="stop7213-9-8"
         offset="1"
         style="stop-color:#e4dfd4;stop-opacity:1;" />
    </linearGradient>
    <linearGradient
       y2="4.9999962"
       x2="10.999998"
       y1="16.999996"
       x1="10.999998"
       gradientUnits="userSpaceOnUse"
       id="linearGradient3027"
       xlink:href="#linearGradient7209-9-1"
       inkscape:collect="always"
       gradientTransform="matrix(0.8181819,0,0,0.8181819,3.9999996,1.6053325e-7)" />
    <linearGradient
       id="linearGradient7209-9-6">
      <stop
         id="stop7211-8-4"
         offset="0"
         style="stop-color:#a1988f;stop-opacity:1;" />
      <stop
         id="stop7213-9-8-8"
         offset="1"
         style="stop-color:#e4dfd4;stop-opacity:1;" />
    </linearGradient>
    <linearGradient
       y2="6.9999957"
       x2="9.9999952"
       y1="18.999996"
       x1="9.9999981"
       gradientTransform="matrix(29.577241,0,0,29.577241,-3520.3621,-101.14014)"
       gradientUnits="userSpaceOnUse"
       id="linearGradient3032"
       xlink:href="#linearGradient7209-9-6"
       inkscape:collect="always" />
    <linearGradient
       inkscape:collect="always"
       xlink:href="#linearGradient7209-9"
       id="linearGradient3055"
       gradientUnits="userSpaceOnUse"
       gradientTransform="matrix(23.239269,0,0,23.239269,-3520.3621,19.281334)"
       x1="9.9999981"
       y1="18.999996"
       x2="9.9999952"
       y2="6.9999957" />
    <linearGradient
       inkscape:collect="always"
       xlink:href="#linearGradient7209-9"
       id="linearGradient3833"
       gradientUnits="userSpaceOnUse"
       gradientTransform="matrix(0.78571457,0,0,0.78571457,5.0669478e-6,4.0714237)"
       x1="9.9999981"
       y1="18.999996"
       x2="9.9999952"
       y2="6.9999957" />
    <linearGradient
       inkscape:collect="always"
       xlink:href="#linearGradient7209-9"
       id="linearGradient3836"
       gradientUnits="userSpaceOnUse"
       gradientTransform="matrix(0.78571457,0,0,0.78571457,-0.49999425,3.5714239)"
       x1="9.9999981"
       y1="18.999996"
       x2="9.9999981"
       y2="3.7272725" />
    <linearGradient
       inkscape:collect="always"
       xlink:href="#linearGradient7209-9"
       id="linearGradient3840"
       gradientUnits="userSpaceOnUse"
       gradientTransform="matrix(0.78571457,0,0,0.78571457,0.50000438,4.5714239)"
       x1="9.9999981"
       y1="18.999996"
       x2="9.9999981"
       y2="3.7272725" />
    <linearGradient
       inkscape:collect="always"
       xlink:href="#linearGradient7209-9"
       id="linearGradient3844"
       gradientUnits="userSpaceOnUse"
       gradientTransform="matrix(23.239269,0,0,23.239269,-3520.3621,19.28134)"
       x1="9.9999981"
       y1="18.999996"
       x2="9.9999981"
       y2="3.7272725" />
    <linearGradient
       inkscape:collect="always"
       xlink:href="#linearGradient7251-3"
       id="linearGradient3847"
       gradientUnits="userSpaceOnUse"
       gradientTransform="matrix(23.239269,0,0,23.239269,-3520.3621,19.281346)"
       x1="9.9999981"
       y1="18.999996"
       x2="9.9999981"
       y2="3.7272725" />
    <linearGradient
       inkscape:collect="always"
       xlink:href="#linearGradient7209-9"
       id="linearGradient3851"
       gradientUnits="userSpaceOnUse"
       gradientTransform="matrix(23.239269,0,0,23.239269,-3520.3621,19.28134)"
       x1="9.9999981"
       y1="18.999996"
       x2="9.9999981"
       y2="3.7272725" />
    <linearGradient
       inkscape:collect="always"
       xlink:href="#linearGradient7209-9"
       id="linearGradient3855"
       gradientUnits="userSpaceOnUse"
       gradientTransform="matrix(23.239269,0,0,23.239269,-3520.3621,19.28134)"
       x1="9.9999981"
       y1="18.999996"
       x2="9.9999981"
       y2="3.7272725" />
    <linearGradient
       inkscape:collect="always"
       xlink:href="#linearGradient9097-0"
       id="linearGradient3858"
       gradientUnits="userSpaceOnUse"
       gradientTransform="matrix(23.239269,0,0,23.239269,-3520.3621,19.281346)"
       x1="9.9999981"
       y1="18.999996"
       x2="9.9999981"
       y2="3.7272725" />
  </defs>
  <sodipodi:namedview
     id="base"
     pagecolor="#ffffff"
     bordercolor="#666666"
     borderopacity="1.0"
     inkscape:pageopacity="0.0"
     inkscape:pageshadow="2"
     inkscape:zoom="15.839192"
     inkscape:cx="31.072062"
     inkscape:cy="9.6061829"
     inkscape:document-units="px"
     inkscape:current-layer="g4412"
     showgrid="true"
     inkscape:window-width="1680"
     inkscape:window-height="1000"
     inkscape:window-x="-8"
     inkscape:window-y="23"
     inkscape:window-maximized="1"
     inkscape:snap-bbox="true"
     inkscape:bbox-paths="true"
     inkscape:bbox-nodes="true"
     inkscape:snap-bbox-edge-midpoints="true"
     inkscape:snap-bbox-midpoints="true"
     inkscape:object-paths="true"
     inkscape:snap-intersection-paths="true"
     inkscape:object-nodes="true"
     inkscape:snap-smooth-nodes="true"
     inkscape:snap-midpoints="true"
     inkscape:snap-object-midpoints="true"
     inkscape:snap-center="true"
     inkscape:snap-global="true"
     showguides="true"
     inkscape:guide-bbox="true"
     fit-margin-top="0"
     fit-margin-left="0"
     fit-margin-right="0"
     fit-margin-bottom="0"
     inkscape:showpageshadow="false">
    <inkscape:grid
       type="xygrid"
       id="grid3140"
       empspacing="5"
       visible="true"
       enabled="true"
       snapvisiblegridlinesonly="true" />
  </sodipodi:namedview>
  <metadata
     id="metadata27670">
    <rdf:RDF>
      <cc:Work
         rdf:about="">
        <dc:format>image/svg+xml</dc:format>
        <dc:type
           rdf:resource="http://purl.org/dc/dcmitype/StillImage" />
        <dc:title />
      </cc:Work>
    </rdf:RDF>
  </metadata>
  <g
     inkscape:label="Camada 1"
     inkscape:groupmode="layer"
     id="layer1"
     transform="translate(3364.4171,-2094.7186)">
    <g
       id="normal"
       transform="matrix(0.03380978,0,0,0.03380978,-3245.473,2097.4005)"
       inkscape:label="#g3132">
      <rect
         y="-79.323952"
         x="-3518.0396"
         height="650.69916"
         width="650.69916"
         id="rect3134"
         style="opacity:0.00100002;fill:#ffffff;stroke:none" />
      <g
         id="g4412"
         transform="translate(2.3239781,21.816943)"
         style="fill:url(#linearGradient3871)">
        <path
           sodipodi:type="arc"
           style="opacity:0;fill:#962119;fill-opacity:1;fill-rule:nonzero;stroke:none"
           id="path3008"
           sodipodi:cx="15"
           sodipodi:cy="6.9999962"
           sodipodi:rx="6"
           sodipodi:ry="6"
           d="m 21,6.9999962 c 0,3.3137088 -2.686292,5.9999998 -6,5.9999998 -3.313708,0 -6,-2.686291 -6,-5.9999998 0,-3.3137085 2.686292,-6.00000001 6,-6.00000001 3.313708,0 6,2.68629151 6,6.00000001 z"
           transform="matrix(29.577241,0,0,29.577241,-3520.3622,-101.14014)" />
        <path
           inkscape:connector-curvature="0"
           style="fill:url(#linearGradient3851);fill-opacity:1;fill-rule:nonzero;stroke:none"
           d="m -3135.8581,-101.14014 -28.6529,86.883145 c 9.4474,-1.534023 18.7901,-1.848577 28.6529,-1.848577 9.8627,0 19.2056,0.314542 28.653,1.848577 l -28.653,-86.883145 z m -188.5549,77.640258 41.593,82.261701 c 11.3496,-15.635077 25.0338,-29.31904 40.6687,-40.668706 l -82.2617,-41.592995 z m 377.1098,0 -82.2617,41.592995 c 15.6351,11.349666 29.3193,25.033629 40.6687,40.668706 l 41.593,-82.261701 z m -188.5549,43.441572 c -61.915,0 -114.9909,38.779736 -135.8704,93.35317 30.2949,18.67537 53.322,47.5731 63.7759,82.2617 39.5804,9.39074 70.9892,42.44112 76.716,83.18599 15.463,4.705 29.5523,12.81171 41.593,23.10722 57.3519,-19.40451 98.8989,-72.89042 98.8989,-136.79474 0,-80.190269 -64.9233,-145.11334 -145.1134,-145.11334 z m -211.6621,115.5361 c -56.1518,0 -101.6718,45.51996 -101.6718,101.67176 0,8.63333 0.7476,16.95193 2.7729,24.9558 -42.67,12.07278 -73.9431,50.51453 -73.9431,97.05032 0,56.1518 45.52,101.67177 101.6718,101.67177 l 264.3466,0 -0.9243,-0.92429 c 34.8462,-4.6155 61.9273,-34.13841 61.9273,-70.24595 0,-39.30629 -31.864,-71.17023 -71.1702,-71.17023 -6.1065,0 -11.9059,0.40201 -17.5615,1.84857 4.8218,-8.26509 7.3943,-17.46976 7.3943,-27.72866 0,-30.88349 -24.5737,-55.45733 -55.4573,-55.45733 -5.3166,0 -10.8408,0.46253 -15.7129,1.84858 0.022,-0.86868 0,-0.97463 0,-1.84858 0,-56.1518 -45.52,-101.67176 -101.6718,-101.67176 z m 390.9742,0.92429 c 1.5339,9.44755 1.8485,18.79017 1.8485,28.65295 0,9.86277 -0.3145,19.20539 -1.8485,28.65295 l 86.8831,-28.65295 -86.8831,-28.65295 z m -32.3502,134.94616 c -11.3494,15.63506 -25.0336,29.31903 -40.6687,40.66871 l 82.2617,41.59299 -41.593,-82.2617 z"
           id="path3849" />
        <path
           style="fill:url(#linearGradient3847);fill-opacity:1;fill-rule:nonzero;stroke:none"
           d="m -3135.8581,-101.14014 -28.6529,86.883145 c 6.6964,-1.087327 13.5206,-0.740055 20.3343,-0.924289 l 18.4858,-56.381615 -10.1672,-29.577241 z m -188.5549,77.640257 41.593,82.261702 c 1.4187,-1.954384 3.1305,-3.653067 4.6214,-5.545733 l -31.4258,-61.9273478 61.9274,31.4258178 c 1.8926,-1.490906 3.5913,-3.202736 5.5457,-4.621444 l -82.2617,-41.592995 z m 377.1098,0 -82.2617,41.592995 c 5.8632,4.256124 11.343,8.971893 16.6372,13.864332 l 50.8359,-25.8800855 14.7886,-29.5772415 z m -188.5549,43.441573 c -61.915,0 -114.9909,38.779732 -135.8704,93.35317 5.6664,3.49307 10.5897,7.83643 15.7129,12.01575 21.5886,-53.122723 74.0755,-90.580299 134.9461,-90.580299 36.2658,0 68.8498,14.08317 94.2775,36.047262 -26.6025,-30.7975 -65.1417,-50.835883 -109.0661,-50.835883 z m 134.9462,24.955797 c 4.0636,4.560107 8.4109,8.898272 12.0157,13.864332 l 0.9243,-1.848578 c -4.0102,-4.339505 -8.527,-8.083214 -12.94,-12.015754 z m -346.6083,90.580303 c -56.1518,0 -101.6718,45.51996 -101.6718,101.67176 0,8.63333 0.7476,16.95193 2.7729,24.9558 -42.67,12.07278 -73.9431,50.51453 -73.9431,97.05032 0,31.95697 14.8395,59.92583 37.8958,78.56455 -14.1115,-17.45604 -23.1072,-39.58109 -23.1072,-63.77593 0,-46.53579 31.2731,-84.97754 73.9431,-97.05032 -2.0253,-8.00387 -2.7729,-16.32247 -2.7729,-24.9558 0,-56.1518 45.52,-101.67176 101.6718,-101.67176 24.1948,0 46.3199,8.99574 63.7759,23.10722 -18.6387,-23.05629 -46.6075,-37.89584 -78.5645,-37.89584 z m 390.9741,0.92429 c 1.5339,9.44755 1.8486,18.79017 1.8486,28.65295 0,9.86277 -0.3146,19.20539 -1.8486,28.65295 l 15.7129,-5.54573 c 0.076,-2.79918 0.9243,-5.44664 0.9243,-8.3186 0,-9.86278 -0.3146,-19.2054 -1.8485,-28.65295 l 57.3059,18.48577 14.7886,-4.62144 -86.8832,-28.65295 z m -275.438,12.01575 c 10.8504,13.89493 18.8045,29.79443 24.0315,47.13873 3.3629,0.79788 6.933,1.64318 10.1672,2.77286 -7.7021,-19.13414 -19.597,-35.8103 -34.1987,-49.91159 z m 78.5645,81.33741 c 11.4326,13.78483 19.599,30.60289 22.183,48.98731 4.2546,1.29457 7.9831,3.76137 12.0157,5.54573 -5.2834,-21.52634 -17.2799,-40.94398 -34.1987,-54.53304 z m -78.5645,7.39431 c 0.7225,4.89078 0.9243,9.69699 0.9243,14.78862 0,0.87395 0.022,0.9799 0,1.84858 4.8721,-1.38605 10.3963,-1.84858 15.7129,-1.84858 11.5813,0 22.5822,3.29464 31.4258,9.24289 -9.9137,-14.73928 -26.9122,-24.03151 -46.2144,-24.03151 -0.617,0 -1.2274,-0.0132 -1.8486,0 z m 243.0879,34.19869 c -11.3494,15.63506 -25.0336,29.31903 -40.6687,40.6687 l 20.3344,10.16718 c 11.356,-8.94546 21.5562,-19.14555 30.5015,-30.50153 l -10.1672,-20.33435 z m -172.842,47.13873 c -1.1797,5.90704 -2.5414,11.48741 -5.5457,16.63719 5.6556,-1.44656 11.455,-1.84857 17.5615,-1.84857 14.7398,0 28.3856,4.34188 39.7444,12.01575 -12.5187,-15.31699 -30.6286,-26.01357 -51.7602,-26.80437 z"
           id="path3053"
           inkscape:connector-curvature="0" />
        <path
           style="fill:url(#linearGradient3858);fill-opacity:1;fill-rule:nonzero;stroke:none"
           d="m -3135.8581,-101.14014 -4.6214,14.788621 18.4858,57.305904 c -9.4474,-1.534035 -18.7903,-1.848577 -28.653,-1.848577 -2.872,0 -5.5194,0.8486 -8.3186,0.924289 l -5.5457,15.712909 c 9.4474,-1.534024 18.7901,-1.848578 28.6529,-1.848578 9.8628,0 19.2056,0.314542 28.653,1.848578 l -28.653,-86.883146 z m 188.555,77.640258 -29.5773,14.7886202 -25.8801,50.8358838 c 4.8925,5.294196 9.6083,10.774045 13.8644,16.637198 l 41.593,-82.261702 z m -315.1825,31.4258188 c -11.3559,8.9454412 -21.5561,19.1455462 -30.5015,30.5015292 l 10.1671,20.334354 c 11.3496,-15.635077 25.0338,-29.319041 40.6687,-40.668707 l -20.3343,-10.1671762 z m 234.7693,9.2428882 -1.8485,0.924288 c 4.966,3.604916 9.3042,7.952131 13.8643,12.015754 -3.9325,-4.413007 -7.6762,-8.929848 -12.0158,-12.940042 z m -13.8643,38.820128 c 21.9641,25.427682 36.0473,58.011637 36.0473,94.277457 0,63.90432 -41.547,117.39023 -98.8989,136.79474 -8.7278,-7.46272 -18.9539,-12.86075 -29.5773,-17.56149 0.765,3.11661 2.3202,6.02225 2.7729,9.24289 15.463,4.705 29.5523,12.81171 41.593,23.10722 57.3519,-19.4045 98.8989,-72.89042 98.8989,-136.79474 0,-43.92445 -20.0384,-82.463605 -50.8359,-109.066077 z m -229.2236,54.533037 c -0.3704,0.91139 -0.5721,1.85238 -0.9243,2.77287 6.6201,4.08095 12.6152,8.85335 18.4858,13.86433 -5.3166,-6.00783 -11.3262,-11.55066 -17.5615,-16.6372 z m 371.5641,44.36586 -56.3816,18.48578 c -0.1843,6.81368 0.163,13.63786 -0.9243,20.33435 l 86.8831,-28.65295 -29.5772,-10.16718 z m -384.5042,3.69716 c 14.1115,17.45605 23.1073,39.58109 23.1073,63.77592 0,0.87395 0.022,0.9799 0,1.84858 4.3067,-1.22521 9.1323,-1.74819 13.8643,-1.84858 -3.8124,-25.80561 -17.5888,-48.10688 -36.9716,-63.77592 z m 71.1703,24.9558 c 1.5978,3.96953 3.3731,7.87352 4.6214,12.01575 14.8427,3.52152 28.1234,10.07617 39.7444,19.41006 -11.7523,-14.17033 -26.71,-25.25878 -44.3658,-31.42581 z m 13.8643,62.85163 c 5.9482,8.84357 9.2429,19.8445 9.2429,31.42582 0,10.2589 -2.5725,19.46357 -7.3943,27.72866 5.6556,-1.44656 11.455,-1.84857 17.5615,-1.84857 0.907,0 1.874,-0.0336 2.7728,0 0.7137,-3.57341 1.8486,-7.22466 1.8486,-11.09147 0,-19.30219 -9.2922,-36.30071 -24.0315,-46.21444 z m 209.8136,24.9558 c -1.4187,1.95437 -3.1306,3.65305 -4.6215,5.54573 l 31.4258,61.92735 -61.9273,-31.42582 c -1.8927,1.4909 -3.5914,3.20274 -5.5457,4.62145 l 82.2617,41.59299 -41.593,-82.2617 z m -131.249,63.77593 c 7.6738,11.35884 12.0157,25.00457 12.0157,39.74441 0,36.10754 -27.0812,65.63045 -61.9273,70.24595 l 0.9242,0.92429 -264.3465,0 c -24.1949,0 -46.3199,-8.99574 -63.776,-23.10722 18.6387,23.05629 46.6076,37.89584 78.5646,37.89584 l 264.3466,0 -0.9243,-0.92429 c 34.8462,-4.6155 61.9273,-34.13841 61.9273,-70.24595 0,-22.23206 -10.8358,-41.48184 -26.8043,-54.53303 z"
           id="path3838"
           inkscape:connector-curvature="0" />
      </g>
    </g>
  </g>
</svg>
