<?xml version="1.0" encoding="UTF-8" standalone="no"?>
<!-- Created with Inkscape (http://www.inkscape.org/) -->

<svg
   xmlns:dc="http://purl.org/dc/elements/1.1/"
   xmlns:cc="http://creativecommons.org/ns#"
   xmlns:rdf="http://www.w3.org/1999/02/22-rdf-syntax-ns#"
   xmlns:svg="http://www.w3.org/2000/svg"
   xmlns="http://www.w3.org/2000/svg"
   xmlns:xlink="http://www.w3.org/1999/xlink"
   xmlns:sodipodi="http://sodipodi.sourceforge.net/DTD/sodipodi-0.dtd"
   xmlns:inkscape="http://www.inkscape.org/namespaces/inkscape"
   width="21.999996"
   height="21.999996"
   id="svg27665"
   version="1.1"
   inkscape:version="0.48.3.1 r9886"
   sodipodi:docname="weather-many-clouds.svg">
  <defs
     id="defs27667">
    <linearGradient
       id="linearGradient4357-9"
       inkscape:collect="always">
      <stop
         id="stop4359-9"
         offset="0"
         style="stop-color:#adaca1;stop-opacity:1" />
      <stop
         id="stop4361-2"
         offset="1"
         style="stop-color:#e1e0d9;stop-opacity:1" />
    </linearGradient>
    <linearGradient
       inkscape:collect="always"
       xlink:href="#linearGradient4357-9"
       id="linearGradient3871"
       x1="-3224.5898"
       y1="460.8273"
       x2="-2899.2401"
       y2="194.63227"
       gradientUnits="userSpaceOnUse" />
    <linearGradient
       inkscape:collect="always"
       xlink:href="#linearGradient7209-9"
       id="linearGradient3928"
       gradientUnits="userSpaceOnUse"
       gradientTransform="matrix(-25.351929,0,0,25.351929,-3024.9434,-168.74548)"
       x1="9.9999981"
       y1="18.999996"
       x2="9.9999952"
       y2="6.9999957" />
    <linearGradient
       inkscape:collect="always"
       xlink:href="#linearGradient9097-0"
       id="linearGradient3079"
       x1="-3697.8257"
       y1="490.40454"
       x2="-3697.8257"
       y2="-41.985775"
       gradientUnits="userSpaceOnUse"
       gradientTransform="translate(708.00515,0)" />
    <linearGradient
       inkscape:collect="always"
       xlink:href="#linearGradient7251-3"
       id="linearGradient3081"
       x1="-3668.2485"
       y1="490.40454"
       x2="-3668.2485"
       y2="-41.985775"
       gradientUnits="userSpaceOnUse"
       gradientTransform="translate(708.00515,0)" />
    <linearGradient
       id="linearGradient7209-9">
      <stop
         id="stop7211-8"
         offset="0"
         style="stop-color:#a1988f;stop-opacity:1;" />
      <stop
         id="stop7213-9"
         offset="1"
         style="stop-color:#e4dfd4;stop-opacity:1;" />
    </linearGradient>
    <linearGradient
       id="linearGradient9097-0">
      <stop
         style="stop-color:#000000;stop-opacity:0.49634215;"
         offset="0"
         id="stop9099-4" />
      <stop
         style="stop-color:#000000;stop-opacity:0.41474396;"
         offset="1"
         id="stop9101-5" />
    </linearGradient>
    <linearGradient
       id="linearGradient7251-3">
      <stop
         style="stop-color:#ffffff;stop-opacity:1;"
         offset="0"
         id="stop7253-27" />
      <stop
         style="stop-color:#ffffff;stop-opacity:1;"
         offset="1"
         id="stop7255-3" />
    </linearGradient>
    <linearGradient
       inkscape:collect="always"
       xlink:href="#linearGradient7209-9"
       id="linearGradient3010"
       gradientUnits="userSpaceOnUse"
       gradientTransform="matrix(27.363977,0,0,27.363977,-3402.0532,-59.088131)"
       x1="9.9999981"
       y1="18.999996"
       x2="9.9999952"
       y2="6.9999957" />
    <linearGradient
       inkscape:collect="always"
       xlink:href="#linearGradient7209-9"
       id="linearGradient3014"
       gradientUnits="userSpaceOnUse"
       gradientTransform="matrix(27.363977,0,0,27.363977,-3402.0532,-59.088131)"
       x1="9.9999981"
       y1="18.999996"
       x2="9.9999952"
       y2="6.9999957" />
    <linearGradient
       inkscape:collect="always"
       xlink:href="#linearGradient7209-9"
       id="linearGradient3792"
       gradientUnits="userSpaceOnUse"
       gradientTransform="matrix(0.87074827,0,0,0.87074827,1.0000037,-2.3537471)"
       x1="9.9999981"
       y1="18.999996"
       x2="9.9999952"
       y2="6.9999957" />
    <linearGradient
       inkscape:collect="always"
       xlink:href="#linearGradient7209-9"
       id="linearGradient3796"
       gradientUnits="userSpaceOnUse"
       gradientTransform="matrix(27.363977,0,0,27.363977,-3402.0532,-59.088131)"
       x1="9.9999981"
       y1="18.999996"
       x2="9.9999952"
       y2="6.9999957" />
    <linearGradient
       inkscape:collect="always"
       xlink:href="#linearGradient7209-9"
       id="linearGradient3803"
       gradientUnits="userSpaceOnUse"
       gradientTransform="matrix(0.87074828,0,0,0.87074828,1.0000054,-2.353747)"
       x1="9.9999981"
       y1="18.999996"
       x2="9.9999952"
       y2="6.9999957" />
    <linearGradient
       inkscape:collect="always"
       xlink:href="#linearGradient7209-9"
       id="linearGradient3808"
       gradientUnits="userSpaceOnUse"
       gradientTransform="matrix(0.8707483,0,0,0.8707483,1.5000064,-1.8537468)"
       x1="9.9999981"
       y1="18.999996"
       x2="9.9999952"
       y2="6.9999957" />
    <linearGradient
       inkscape:collect="always"
       xlink:href="#linearGradient7209-9"
       id="linearGradient3812"
       gradientUnits="userSpaceOnUse"
       gradientTransform="matrix(25.754332,0,0,25.754332,-3490.7848,-170.75748)"
       x1="9.9999981"
       y1="18.999996"
       x2="9.9999952"
       y2="6.9999957" />
    <linearGradient
       inkscape:collect="always"
       xlink:href="#linearGradient7209-9"
       id="linearGradient3814"
       gradientUnits="userSpaceOnUse"
       gradientTransform="matrix(0.8707483,0,0,0.8707483,0.50000776,-2.8537468)"
       x1="9.9999981"
       y1="18.999996"
       x2="9.9999952"
       y2="6.9999957" />
    <linearGradient
       inkscape:collect="always"
       xlink:href="#linearGradient7251-3"
       id="linearGradient3817"
       gradientUnits="userSpaceOnUse"
       gradientTransform="matrix(25.754332,0,0,25.754332,-3490.7847,-170.75748)"
       x1="9.9999981"
       y1="18.999996"
       x2="9.9999952"
       y2="6.9999957" />
    <linearGradient
       inkscape:collect="always"
       xlink:href="#linearGradient7209-9"
       id="linearGradient3821"
       gradientUnits="userSpaceOnUse"
       gradientTransform="matrix(25.754332,0,0,25.754332,-3490.7848,-170.75748)"
       x1="9.9999981"
       y1="18.999996"
       x2="9.9999952"
       y2="6.9999957" />
    <linearGradient
       inkscape:collect="always"
       xlink:href="#linearGradient7209-9"
       id="linearGradient3825"
       gradientUnits="userSpaceOnUse"
       gradientTransform="matrix(25.754332,0,0,25.754332,-3490.7848,-170.75748)"
       x1="9.9999981"
       y1="18.999996"
       x2="9.9999952"
       y2="6.9999957" />
    <linearGradient
       inkscape:collect="always"
       xlink:href="#linearGradient9097-0"
       id="linearGradient3828"
       gradientUnits="userSpaceOnUse"
       gradientTransform="matrix(25.754332,0,0,25.754332,-3490.7848,-170.75748)"
       x1="9.9999981"
       y1="18.999996"
       x2="9.9999952"
       y2="6.9999957" />
  </defs>
  <sodipodi:namedview
     id="base"
     pagecolor="#ffffff"
     bordercolor="#666666"
     borderopacity="1.0"
     inkscape:pageopacity="0.0"
     inkscape:pageshadow="2"
     inkscape:zoom="22.4"
     inkscape:cx="11.082642"
     inkscape:cy="11.691973"
     inkscape:document-units="px"
     inkscape:current-layer="g4412"
     showgrid="true"
     inkscape:window-width="1615"
     inkscape:window-height="1026"
     inkscape:window-x="65"
     inkscape:window-y="24"
     inkscape:window-maximized="1"
     inkscape:snap-bbox="true"
     inkscape:bbox-paths="true"
     inkscape:bbox-nodes="true"
     inkscape:snap-bbox-edge-midpoints="true"
     inkscape:snap-bbox-midpoints="true"
     inkscape:object-paths="true"
     inkscape:snap-intersection-paths="true"
     inkscape:object-nodes="true"
     inkscape:snap-smooth-nodes="true"
     inkscape:snap-midpoints="true"
     inkscape:snap-object-midpoints="true"
     inkscape:snap-center="true"
     inkscape:snap-global="true"
     showguides="true"
     inkscape:guide-bbox="true"
     fit-margin-top="0"
     fit-margin-left="0"
     fit-margin-right="0"
     fit-margin-bottom="0"
     inkscape:showpageshadow="false">
    <inkscape:grid
       type="xygrid"
       id="grid3140"
       empspacing="5"
       visible="true"
       enabled="true"
       snapvisiblegridlinesonly="true" />
  </sodipodi:namedview>
  <metadata
     id="metadata27670">
    <rdf:RDF>
      <cc:Work
         rdf:about="">
        <dc:format>image/svg+xml</dc:format>
        <dc:type
           rdf:resource="http://purl.org/dc/dcmitype/StillImage" />
        <dc:title />
      </cc:Work>
    </rdf:RDF>
  </metadata>
  <g
     inkscape:label="Camada 1"
     inkscape:groupmode="layer"
     id="layer1"
     transform="translate(3364.4171,-2094.7186)">
    <g
       id="normal"
       transform="matrix(0.03380978,0,0,0.03380978,-3245.473,2097.4005)"
       inkscape:label="#g3132">
      <rect
         y="-79.323952"
         x="-3518.0396"
         height="650.69916"
         width="650.69916"
         id="rect3134"
         style="opacity:0.00100002;fill:#ffffff;stroke:none" />
      <g
         id="g4412"
         transform="translate(2.3239781,21.816943)"
         style="fill:url(#linearGradient3871)">
        <path
           inkscape:connector-curvature="0"
           style="fill:url(#linearGradient3821);fill-opacity:1;fill-rule:nonzero;stroke:none"
           d="m -3299.4572,-41.985658 c -62.2288,0 -112.7632,50.5344258 -112.7632,112.763231 0,9.567682 1.4526,18.85857 3.6971,27.728664 -47.288,13.379353 -82.2617,55.645383 -82.2617,107.217503 0,44.72697 26.0108,83.47466 63.776,101.67176 10.3776,-43.92046 39.723,-80.47855 79.4888,-99.82319 -0.2063,-3.36012 0,-6.79895 0,-10.16717 0,-82.10283 66.7076,-148.810497 148.8105,-148.810497 3.4252,0 6.7978,0.694112 10.1672,0.924288 -9.8203,-52.216072 -55.8462,-91.504589 -110.9147,-91.504589 z m 100.7475,120.157542 c -66.1181,0 -119.2333,53.115156 -119.2333,119.233256 0,10.16566 0.3882,20.15275 2.7729,29.57724 -50.2434,14.21556 -86.8831,58.89213 -86.8831,113.68752 0,66.11812 54.0394,120.15754 120.1575,120.15754 l 310.561,0 -0.9243,-0.92429 c 41.031,-5.4347 73.0189,-40.66977 73.0189,-83.18599 0,-46.2827 -37.8276,-83.18599 -84.1103,-83.18599 -7.1903,0 -13.675,0.14528 -20.3344,1.84858 5.6775,-9.73204 8.3186,-20.27038 8.3186,-32.35011 0,-36.36498 -29.2594,-65.6245 -65.6245,-65.6245 -6.2602,0 -11.8245,1.14079 -17.5615,2.77286 0.026,-1.02284 0,-1.74378 0,-2.77286 0,-66.1181 -54.0394,-119.233256 -120.1575,-119.233256 z"
           id="path3819" />
        <path
           style="fill:url(#linearGradient3817);fill-opacity:1;fill-rule:nonzero;stroke:none"
           d="m -3299.4572,-41.985658 c -62.2288,0 -112.7632,50.5344257 -112.7632,112.763231 0,9.567681 1.4526,18.85857 3.6971,27.728663 -47.288,13.379354 -82.2617,55.645384 -82.2617,107.217494 0,34.72123 15.9883,65.26094 40.6687,85.95886 -16.0391,-19.50217 -25.88,-43.96411 -25.88,-71.17023 0,-51.57212 34.9737,-93.83815 82.2617,-107.2175 -2.2445,-8.8701 -3.6972,-18.160985 -3.6972,-27.728667 0,-62.228805 50.5344,-112.763231 112.7632,-112.763231 27.0733,0 51.6959,9.096223 71.1703,24.9557974 -20.7217,-24.2583724 -51.5411,-39.7444174 -85.9589,-39.7444174 z m 100.7475,120.157541 c -66.1181,0 -119.2333,53.115157 -119.2333,119.233257 0,10.16566 0.3882,20.15274 2.7729,29.57724 -50.2434,14.21556 -86.8831,58.89213 -86.8831,113.68752 0,36.84987 17.1342,69.42275 43.4415,91.50459 -17.5386,-20.89479 -28.6529,-47.44772 -28.6529,-76.71597 0,-54.79539 36.6397,-99.47196 86.8831,-113.68752 -2.3847,-9.42449 -2.7728,-19.41158 -2.7728,-29.57724 0,-66.1181 53.1151,-119.233256 119.2332,-119.233256 29.2683,0 55.8212,11.316186 76.716,28.652956 -22.0819,-26.053164 -54.6547,-43.441577 -91.5046,-43.441577 z m 137.719,119.233257 c -1.6581,0 -3.0448,0.77629 -4.6214,0.92428 0.5485,4.62694 1.8485,9.08646 1.8485,13.86434 0,1.02908 0.026,1.75002 0,2.77286 5.7371,-1.63207 11.3013,-2.77286 17.5615,-2.77286 13.6369,0 26.5014,4.03052 36.9716,11.09146 -11.973,-15.62046 -30.4635,-25.88008 -51.7602,-25.88008 z m 78.5646,96.12603 c -1.3632,5.68954 -3.4755,11.50413 -6.4701,16.6372 6.6594,-1.7033 13.1441,-1.84858 20.3344,-1.84858 18.5729,0 35.9599,5.60604 49.9116,15.71291 -15.2665,-18.35206 -38.0245,-30.21984 -63.7759,-30.50153 z"
           id="path3926"
           inkscape:connector-curvature="0" />
        <path
           style="fill:url(#linearGradient3828);fill-opacity:1;fill-rule:nonzero;stroke:none"
           d="m -3227.3626,-16.105572 c 11.995,14.3694486 20.4311,31.691999 24.0315,50.835883 -3.3694,-0.230176 -6.742,-0.924288 -10.1672,-0.924288 -82.1029,0 -148.8105,66.707667 -148.8105,148.810497 0,3.36822 -0.2063,6.80705 0,10.16717 -39.7658,19.34464 -69.1112,55.90273 -79.4888,99.82319 -7.8786,-3.7963 -15.457,-8.4115 -22.183,-13.86433 10.1042,11.83536 22.8096,21.82904 36.9716,28.65295 10.3776,-43.92046 39.723,-80.47855 79.4888,-99.82319 -0.2063,-3.36012 0,-6.79895 0,-10.16717 0,-82.10283 66.7076,-148.810497 148.8105,-148.810497 3.4252,0 6.7978,0.694113 10.1672,0.924289 -4.9102,-26.108038 -19.2026,-49.27536437 -38.8201,-65.624504 z m 105.3689,122.930412 c 17.5386,20.69289 28.6529,46.52343 28.6529,75.79168 0,1.02908 0.026,1.75002 0,2.77286 4.2175,-1.1998 8.5642,-1.43784 12.9401,-1.84857 -3.6822,-31.05881 -18.6967,-57.71843 -41.593,-76.71597 z m 100.7475,104.44463 c 7.0609,10.47016 11.0914,23.3347 11.0914,36.97155 0,12.07973 -2.6411,22.61807 -8.3186,32.35011 6.6594,-1.7033 13.1441,-1.84858 20.3344,-1.84858 0.3175,0 0.6076,-0.003 0.9243,0 1.2213,-5.09755 1.8485,-10.0045 1.8485,-15.71291 0,-21.29662 -10.2596,-39.78719 -25.88,-51.76017 z m 87.8074,97.97461 c 11.9144,14.32251 19.4101,32.53615 19.4101,52.68446 0,42.51622 -31.9879,77.75129 -73.0189,83.18599 l 0.9243,0.92429 -310.561,0 c -29.2682,0 -55.8212,-11.1143 -76.716,-28.65295 22.0819,26.30733 54.6548,43.44157 91.5046,43.44157 l 310.561,0 -0.9242,-0.92429 c 41.031,-5.4347 73.0188,-40.66977 73.0188,-83.18599 0,-27.70976 -13.3836,-52.39422 -34.1987,-67.47308 z"
           id="path3806"
           inkscape:connector-curvature="0" />
      </g>
    </g>
  </g>
</svg>
