<?xml version="1.0" encoding="UTF-8" standalone="no"?>
<!-- Created with Inkscape (http://www.inkscape.org/) -->

<svg
   xmlns:dc="http://purl.org/dc/elements/1.1/"
   xmlns:cc="http://creativecommons.org/ns#"
   xmlns:rdf="http://www.w3.org/1999/02/22-rdf-syntax-ns#"
   xmlns:svg="http://www.w3.org/2000/svg"
   xmlns="http://www.w3.org/2000/svg"
   xmlns:xlink="http://www.w3.org/1999/xlink"
   xmlns:sodipodi="http://sodipodi.sourceforge.net/DTD/sodipodi-0.dtd"
   xmlns:inkscape="http://www.inkscape.org/namespaces/inkscape"
   width="21.999996"
   height="21.999996"
   id="svg27665"
   version="1.1"
   inkscape:version="0.48.3.1 r9886"
   sodipodi:docname="weather-snow.svg">
  <defs
     id="defs27667">
    <linearGradient
       id="linearGradient4357-9"
       inkscape:collect="always">
      <stop
         id="stop4359-9"
         offset="0"
         style="stop-color:#adaca1;stop-opacity:1" />
      <stop
         id="stop4361-2"
         offset="1"
         style="stop-color:#e1e0d9;stop-opacity:1" />
    </linearGradient>
    <linearGradient
       inkscape:collect="always"
       xlink:href="#linearGradient4357-9"
       id="linearGradient3871"
       x1="-3224.5898"
       y1="460.8273"
       x2="-2899.2401"
       y2="194.63227"
       gradientUnits="userSpaceOnUse" />
    <linearGradient
       inkscape:collect="always"
       xlink:href="#linearGradient7209-9"
       id="linearGradient3928"
       gradientUnits="userSpaceOnUse"
       gradientTransform="matrix(1.142857,0,0,1.142857,5.0669478e-6,-4.7142888)"
       x1="9.9999981"
       y1="18.999996"
       x2="9.9999952"
       y2="6.9999957" />
    <linearGradient
       inkscape:collect="always"
       xlink:href="#linearGradient9097-0"
       id="linearGradient3079"
       x1="-3697.8257"
       y1="490.40454"
       x2="-3697.8257"
       y2="-41.985775"
       gradientUnits="userSpaceOnUse"
       gradientTransform="translate(726.49095,0)" />
    <linearGradient
       inkscape:collect="always"
       xlink:href="#linearGradient7251-3"
       id="linearGradient3081"
       x1="-3668.2485"
       y1="490.40454"
       x2="-3668.2485"
       y2="-41.985775"
       gradientUnits="userSpaceOnUse"
       gradientTransform="translate(726.49095,0)" />
    <linearGradient
       id="linearGradient7209-9">
      <stop
         id="stop7211-8"
         offset="0"
         style="stop-color:#a1988f;stop-opacity:1;" />
      <stop
         id="stop7213-9"
         offset="1"
         style="stop-color:#e4dfd4;stop-opacity:1;" />
    </linearGradient>
    <linearGradient
       id="linearGradient9097-0">
      <stop
         style="stop-color:#000000;stop-opacity:0.49634215;"
         offset="0"
         id="stop9099-4" />
      <stop
         style="stop-color:#000000;stop-opacity:0.41474396;"
         offset="1"
         id="stop9101-5" />
    </linearGradient>
    <linearGradient
       id="linearGradient7251-3">
      <stop
         style="stop-color:#ffffff;stop-opacity:1;"
         offset="0"
         id="stop7253-27" />
      <stop
         style="stop-color:#ffffff;stop-opacity:1;"
         offset="1"
         id="stop7255-3" />
    </linearGradient>
    <linearGradient
       inkscape:collect="always"
       xlink:href="#linearGradient7209-9"
       id="linearGradient3790"
       gradientUnits="userSpaceOnUse"
       gradientTransform="matrix(1.142857,0,0,1.142857,6.7529177e-6,-4.7142887)"
       x1="9.9999981"
       y1="18.999996"
       x2="9.9999952"
       y2="6.9999957" />
    <linearGradient
       inkscape:collect="always"
       xlink:href="#linearGradient7209-9"
       id="linearGradient3795"
       gradientUnits="userSpaceOnUse"
       gradientTransform="matrix(1.142857,0,0,1.142857,0.50000776,-4.2142885)"
       x1="9.9999981"
       y1="18.999996"
       x2="9.9999952"
       y2="6.9999957" />
    <linearGradient
       inkscape:collect="always"
       xlink:href="#linearGradient7209-9"
       id="linearGradient3799"
       gradientUnits="userSpaceOnUse"
       gradientTransform="matrix(33.802557,0,0,33.802557,-3520.362,-240.57579)"
       x1="9.9999981"
       y1="18.999996"
       x2="9.9999952"
       y2="6.9999957" />
    <linearGradient
       inkscape:collect="always"
       xlink:href="#linearGradient7209-9"
       id="linearGradient3801"
       gradientUnits="userSpaceOnUse"
       gradientTransform="matrix(1.142857,0,0,1.142857,-0.49999086,-5.2142885)"
       x1="9.9999981"
       y1="18.999996"
       x2="9.9999952"
       y2="6.9999957" />
    <linearGradient
       inkscape:collect="always"
       xlink:href="#linearGradient7251-3"
       id="linearGradient3804"
       gradientUnits="userSpaceOnUse"
       gradientTransform="matrix(33.802557,0,0,33.802557,-3520.362,-240.57579)"
       x1="9.9999981"
       y1="18.999996"
       x2="9.9999952"
       y2="6.9999957" />
    <linearGradient
       inkscape:collect="always"
       xlink:href="#linearGradient7209-9"
       id="linearGradient3808"
       gradientUnits="userSpaceOnUse"
       gradientTransform="matrix(33.802557,0,0,33.802557,-3520.362,-240.57579)"
       x1="9.9999981"
       y1="18.999996"
       x2="9.9999952"
       y2="6.9999957" />
    <linearGradient
       inkscape:collect="always"
       xlink:href="#linearGradient7209-9"
       id="linearGradient3812"
       gradientUnits="userSpaceOnUse"
       gradientTransform="matrix(33.802557,0,0,33.802557,-3520.362,-240.57579)"
       x1="9.9999981"
       y1="18.999996"
       x2="9.9999952"
       y2="6.9999957" />
    <linearGradient
       inkscape:collect="always"
       xlink:href="#linearGradient9097-0"
       id="linearGradient3815"
       gradientUnits="userSpaceOnUse"
       gradientTransform="matrix(33.802557,0,0,33.802557,-3520.362,-240.57579)"
       x1="9.9999981"
       y1="18.999996"
       x2="9.9999952"
       y2="6.9999957" />
  </defs>
  <sodipodi:namedview
     id="base"
     pagecolor="#ffffff"
     bordercolor="#666666"
     borderopacity="1.0"
     inkscape:pageopacity="0.0"
     inkscape:pageshadow="2"
     inkscape:zoom="22.4"
     inkscape:cx="13.761214"
     inkscape:cy="6.6473304"
     inkscape:document-units="px"
     inkscape:current-layer="g4412"
     showgrid="true"
     inkscape:window-width="1615"
     inkscape:window-height="1026"
     inkscape:window-x="65"
     inkscape:window-y="24"
     inkscape:window-maximized="1"
     inkscape:snap-bbox="true"
     inkscape:bbox-paths="true"
     inkscape:bbox-nodes="true"
     inkscape:snap-bbox-edge-midpoints="true"
     inkscape:snap-bbox-midpoints="true"
     inkscape:object-paths="true"
     inkscape:snap-intersection-paths="true"
     inkscape:object-nodes="true"
     inkscape:snap-smooth-nodes="true"
     inkscape:snap-midpoints="true"
     inkscape:snap-object-midpoints="true"
     inkscape:snap-center="true"
     inkscape:snap-global="true"
     showguides="true"
     inkscape:guide-bbox="true"
     fit-margin-top="0"
     fit-margin-left="0"
     fit-margin-right="0"
     fit-margin-bottom="0"
     inkscape:showpageshadow="false">
    <inkscape:grid
       type="xygrid"
       id="grid3140"
       empspacing="5"
       visible="true"
       enabled="true"
       snapvisiblegridlinesonly="true" />
  </sodipodi:namedview>
  <metadata
     id="metadata27670">
    <rdf:RDF>
      <cc:Work
         rdf:about="">
        <dc:format>image/svg+xml</dc:format>
        <dc:type
           rdf:resource="http://purl.org/dc/dcmitype/StillImage" />
        <dc:title />
      </cc:Work>
    </rdf:RDF>
  </metadata>
  <g
     inkscape:label="Camada 1"
     inkscape:groupmode="layer"
     id="layer1"
     transform="translate(3364.4171,-2094.7186)">
    <g
       id="normal"
       transform="matrix(0.03380978,0,0,0.03380978,-3245.473,2097.4005)"
       inkscape:label="#g3132">
      <rect
         y="-79.323952"
         x="-3518.0396"
         height="650.69916"
         width="650.69916"
         id="rect3134"
         style="opacity:0.00100002;fill:#ffffff;stroke:none" />
      <g
         id="g4412"
         transform="translate(2.3239781,21.816943)"
         style="fill:url(#linearGradient3871)">
        <path
           inkscape:connector-curvature="0"
           style="fill:url(#linearGradient3808);fill-opacity:1;fill-rule:nonzero;stroke:none"
           d="m -3268.9557,-71.562899 c -81.6753,0 -147.8862,66.2108959 -147.8862,147.886205 0,12.55758 1.6756,24.405264 4.6215,36.047264 -62.0655,17.5604 -108.1418,73.72777 -108.1418,141.41618 0,81.67533 66.2109,147.88621 147.8862,147.88621 l 49.9116,0 c 0.3544,-0.24845 0.5659,-0.68117 0.9243,-0.92429 -44.712,-4.36347 -80.4131,-42.03524 -80.4131,-87.80744 0,-48.65482 40.0768,-88.73172 88.7317,-88.73172 42.1411,0 72.5323,32.43162 81.3374,72.09453 18.9579,-25.09668 47.7357,-42.51729 81.3374,-42.51729 56.8224,0 103.5204,46.69797 103.5204,103.52035 0,16.13151 -4.401,30.70312 -11.0915,44.36586 l 70.2459,0 -0.9243,-0.92429 c 50.6854,-6.71347 89.6561,-50.07602 89.6561,-102.59606 0,-57.17274 -46.3477,-103.52034 -103.5204,-103.52034 -8.8822,0 -16.7294,0.6688 -24.9558,2.77287 7.0135,-12.02194 10.1672,-24.82241 10.1672,-39.74442 0,-44.92144 -36.4159,-81.337414 -81.3374,-81.337414 -7.7332,0 -15.0962,0.756763 -22.1829,2.772866 0.032,-1.26351 0,-1.501636 0,-2.772866 0,-81.6753091 -66.2109,-147.886205 -147.8863,-147.886205 z m -44.3658,325.349649 c -32.6701,0 -59.1545,26.48438 -59.1545,59.15448 0,32.67011 26.4844,59.15449 59.1545,59.15449 32.6701,0 59.1545,-26.48438 59.1545,-59.15449 0,-32.6701 -26.4844,-59.15448 -59.1545,-59.15448 z m 162.6748,29.57724 c -40.8376,0 -73.9431,33.10545 -73.9431,73.94311 0,40.83765 33.1055,73.9431 73.9431,73.9431 40.8377,0 73.9431,-33.10545 73.9431,-73.9431 0,-40.83766 -33.1054,-73.94311 -73.9431,-73.94311 z M -3276.35,416.46158 c -28.5863,0 -51.7601,23.17382 -51.7601,51.76017 0,28.58634 23.1738,51.76017 51.7601,51.76017 28.5864,0 51.7602,-23.17383 51.7602,-51.76017 0,-28.58635 -23.1738,-51.76017 -51.7602,-51.76017 z"
           id="path3806" />
        <path
           style="fill:url(#linearGradient3804);fill-opacity:1;fill-rule:nonzero;stroke:none"
           d="m -3268.9557,-71.562899 c -81.6753,0 -147.8862,66.2108962 -147.8862,147.886205 0,12.557579 1.6756,24.405254 4.6215,36.047264 -62.0655,17.5604 -108.1418,73.72777 -108.1418,141.41618 0,44.56161 20.5834,83.80144 51.7602,110.91466 -22.5817,-25.96598 -36.9716,-59.01231 -36.9716,-96.12604 0,-67.68841 46.0763,-123.85578 108.1418,-141.41618 -2.9459,-11.642 -4.6215,-23.48968 -4.6215,-36.047264 0,-81.6753087 66.2109,-147.886205 147.8862,-147.886205 37.1138,0 70.1601,14.389922 96.1261,36.971551 -27.1133,-31.176733 -66.353,-51.760171 -110.9147,-51.760171 z m 170.0692,147.886205 c -2.9067,0 -5.5116,0.683784 -8.3186,0.924288 0.4446,4.670448 0.9243,9.077427 0.9243,13.864332 0,1.27123 0.032,1.509356 0,2.772867 7.0867,-2.016104 14.4497,-2.772867 22.1829,-2.772867 18.7044,0 35.247,6.9493 48.9873,17.561484 -14.8746,-19.259215 -37.5588,-32.350104 -63.7759,-32.350104 z m 92.4288,118.308964 c -1.6643,6.13122 -3.1748,11.91325 -6.47,17.56149 8.2264,-2.10407 16.0736,-2.77287 24.9558,-2.77287 24.7601,0 46.886,9.53144 64.7002,24.03151 -18.9815,-23.31997 -47.0762,-38.82013 -79.4888,-38.82013 -1.2624,0 -2.4725,-0.0292 -3.6972,0 z m -306.8638,59.15448 c -32.6701,0 -59.1545,26.48438 -59.1545,59.15448 0,19.94003 9.839,37.34683 24.9558,48.06302 -6.3783,-9.44111 -10.1672,-21.02312 -10.1672,-33.2744 0,-32.6701 26.4844,-59.15448 59.1545,-59.15448 12.2513,0 23.8333,3.78888 33.2744,10.16718 -10.7162,-15.11675 -28.123,-24.9558 -48.063,-24.9558 z m 62.8516,2.77287 c 8.6216,11.39428 15.2395,25.1214 18.4858,39.74442 1.976,-2.61585 4.2863,-4.95629 6.47,-7.39431 -6.0538,-12.7664 -14.3552,-23.83521 -24.9558,-32.35011 z m 99.8232,26.80437 c -40.8376,0 -73.9431,33.10545 -73.9431,73.94311 0,24.29841 11.4817,45.6756 29.5772,59.15448 -9.1747,-12.31715 -14.7886,-27.82663 -14.7886,-44.36586 0,-40.83766 33.1055,-73.94311 73.9431,-73.94311 16.5393,0 32.0487,5.61394 44.3659,14.78862 -13.4789,-18.09556 -34.8561,-29.57724 -59.1545,-29.57724 z m 79.4888,9.24289 c 14.6811,17.88137 24.0315,39.96492 24.0315,64.70022 0,16.13151 -4.4009,30.70312 -11.0914,44.36586 l 20.3343,0 c 3.175,-9.399 5.5458,-19.02565 5.5458,-29.57724 0,-32.08708 -15.6241,-60.44429 -38.8202,-79.48884 z m -295.7724,90.5803 c 6.0221,7.26355 13.2465,13.41665 21.2587,18.48578 l 23.1072,0 c 0.3544,-0.24845 0.5659,-0.68117 0.9243,-0.92429 -16.767,-1.6363 -32.465,-7.88654 -45.2902,-17.56149 z m 90.5803,33.2744 c -28.5863,0 -51.7602,23.17382 -51.7602,51.76017 0,17.86646 9.339,33.2156 23.1073,42.51728 -5.1509,-8.04521 -8.3186,-17.4669 -8.3186,-27.72866 0,-28.58634 23.1738,-51.76017 51.7601,-51.76017 10.2618,0 19.6835,3.16772 27.7287,8.3186 -9.3017,-13.7683 -24.6508,-23.10722 -42.5173,-23.10722 z"
           id="path3926"
           inkscape:connector-curvature="0" />
        <path
           style="fill:url(#linearGradient3815);fill-opacity:1;fill-rule:nonzero;stroke:none"
           d="m -3172.8296,-34.591347 c 22.5816,25.9659746 36.9715,59.012304 36.9715,96.126033 0,1.27123 0.032,1.509356 0,2.772866 4.4231,-1.258325 9.2032,-1.449205 13.8644,-1.848577 -3.6947,-38.807026 -23.0082,-72.849656 -50.8359,-97.050322 z m 122.9304,128.476137 c 10.6122,13.74033 17.5615,30.28295 17.5615,48.98731 0,14.92201 -3.1537,27.72248 -10.1672,39.74442 7.0572,-1.80501 13.8668,-2.5965 21.2587,-2.77287 1.8781,-6.91872 3.6971,-14.27169 3.6971,-22.18293 0,-26.21708 -13.0909,-48.90129 -32.3501,-63.77593 z m -278.2109,115.5361 c -48.6549,0 -88.7317,40.0769 -88.7317,88.73172 0,28.60764 13.7476,54.12106 35.1229,70.24595 -12.6033,-15.20149 -20.3343,-34.31534 -20.3343,-55.45733 0,-48.65482 40.0768,-88.73172 88.7317,-88.73172 18.564,0 34.9002,6.20424 48.063,16.6372 -14.7571,-19.18477 -36.5134,-31.42582 -62.8516,-31.42582 z m 390.0498,9.24289 c 14.5001,17.81419 24.0316,39.94013 24.0316,64.70021 0,52.52004 -38.9707,95.88259 -89.6561,102.59606 l 0.9243,0.92429 -49.9116,0 c -1.679,4.97039 -3.2315,10.06265 -5.5457,14.78862 l 70.2459,0 -0.9242,-0.92429 c 50.6854,-6.71347 89.656,-50.07602 89.656,-102.59606 0,-32.41263 -15.5002,-60.50728 -38.8202,-79.48883 z m -227.375,20.33435 c -30.0994,0 -56.1004,14.17034 -74.8674,35.12298 3.3664,7.09918 6.5728,14.31872 8.3186,22.18293 18.9579,-25.09668 47.7357,-42.51729 81.3374,-42.51729 24.7354,0 46.8188,9.35043 64.7002,24.03151 -19.0445,-23.19604 -47.4017,-38.82013 -79.4888,-38.82013 z m -113.6875,25.88009 c 6.3783,9.44111 10.1672,21.02312 10.1672,33.27439 0,32.67011 -26.4844,59.15449 -59.1545,59.15449 -12.2513,0 -23.8333,-3.78888 -33.2744,-10.16718 10.7162,15.11675 28.123,24.9558 48.063,24.9558 32.6701,0 59.1545,-26.48438 59.1545,-59.15449 0,-19.94002 -9.8391,-37.34682 -24.9558,-48.06301 z m 172.842,33.27439 c 9.1747,12.31715 14.7886,27.82663 14.7886,44.36587 0,40.83765 -33.1054,73.9431 -73.9431,73.9431 -16.5392,0 -32.0487,-5.61394 -44.3659,-14.78862 13.4789,18.09556 34.8561,29.57724 59.1545,29.57724 40.8377,0 73.9431,-33.10545 73.9431,-73.9431 0,-24.29842 -11.4817,-45.6756 -29.5772,-59.15449 z m -377.1098,51.76018 c 27.1132,31.17671 66.353,51.76017 110.9146,51.76017 l 49.9116,0 c 0.3544,-0.24845 0.5659,-0.68117 0.9243,-0.92429 -14.1917,-1.38499 -27.2975,-6.57419 -38.8201,-13.86433 l -26.8044,0 c -37.1137,0 -70.1601,-14.38992 -96.126,-36.97155 z m 235.6936,75.79168 c 5.1509,8.04521 8.3186,17.46689 8.3186,27.72866 0,28.58634 -23.1738,51.76017 -51.7602,51.76017 -10.2617,0 -19.6834,-3.16772 -27.7286,-8.3186 9.3016,13.7683 24.6508,23.10722 42.5172,23.10722 28.5864,0 51.7602,-23.17383 51.7602,-51.76017 0,-17.86646 -9.3389,-33.2156 -23.1072,-42.51728 z"
           id="path3793"
           inkscape:connector-curvature="0" />
      </g>
    </g>
  </g>
</svg>
