<?xml version="1.0" encoding="UTF-8" standalone="no"?>
<!-- Created with Inkscape (http://www.inkscape.org/) -->

<svg
   xmlns:dc="http://purl.org/dc/elements/1.1/"
   xmlns:cc="http://creativecommons.org/ns#"
   xmlns:rdf="http://www.w3.org/1999/02/22-rdf-syntax-ns#"
   xmlns:svg="http://www.w3.org/2000/svg"
   xmlns="http://www.w3.org/2000/svg"
   xmlns:xlink="http://www.w3.org/1999/xlink"
   xmlns:sodipodi="http://sodipodi.sourceforge.net/DTD/sodipodi-0.dtd"
   xmlns:inkscape="http://www.inkscape.org/namespaces/inkscape"
   width="21.999996"
   height="21.999996"
   id="svg27665"
   version="1.1"
   inkscape:version="0.48.3.1 r9886"
   sodipodi:docname="weather-severe-alert.svg">
  <defs
     id="defs27667">
    <linearGradient
       id="linearGradient4357-9"
       inkscape:collect="always">
      <stop
         id="stop4359-9"
         offset="0"
         style="stop-color:#adaca1;stop-opacity:1" />
      <stop
         id="stop4361-2"
         offset="1"
         style="stop-color:#e1e0d9;stop-opacity:1" />
    </linearGradient>
    <linearGradient
       inkscape:collect="always"
       xlink:href="#linearGradient4357-9"
       id="linearGradient3871"
       x1="-3224.5898"
       y1="460.8273"
       x2="-2899.2401"
       y2="194.63227"
       gradientUnits="userSpaceOnUse" />
    <linearGradient
       inkscape:collect="always"
       xlink:href="#linearGradient9097-0"
       id="linearGradient3079"
       x1="-3697.8257"
       y1="490.40454"
       x2="-3697.8257"
       y2="-41.985775"
       gradientUnits="userSpaceOnUse"
       gradientTransform="translate(796.73687,0)" />
    <linearGradient
       inkscape:collect="always"
       xlink:href="#linearGradient7251-3"
       id="linearGradient3081"
       x1="-3668.2485"
       y1="490.40454"
       x2="-3668.2485"
       y2="-41.985775"
       gradientUnits="userSpaceOnUse"
       gradientTransform="translate(796.73687,0)" />
    <linearGradient
       id="linearGradient7209-9">
      <stop
         id="stop7211-8"
         offset="0"
         style="stop-color:#a1988f;stop-opacity:1;" />
      <stop
         id="stop7213-9"
         offset="1"
         style="stop-color:#e4dfd4;stop-opacity:1;" />
    </linearGradient>
    <linearGradient
       id="linearGradient9097-0">
      <stop
         style="stop-color:#000000;stop-opacity:0.49634215;"
         offset="0"
         id="stop9099-4" />
      <stop
         style="stop-color:#000000;stop-opacity:0.41474396;"
         offset="1"
         id="stop9101-5" />
    </linearGradient>
    <linearGradient
       id="linearGradient7251-3">
      <stop
         style="stop-color:#ffffff;stop-opacity:1;"
         offset="0"
         id="stop7253-27" />
      <stop
         style="stop-color:#ffffff;stop-opacity:1;"
         offset="1"
         id="stop7255-3" />
    </linearGradient>
    <linearGradient
       inkscape:collect="always"
       xlink:href="#linearGradient7209-9"
       id="linearGradient3010"
       gradientUnits="userSpaceOnUse"
       gradientTransform="matrix(1.142857,0,0,1.142857,5.0669478e-6,-2.7142821)"
       x1="9.9999981"
       y1="18.999996"
       x2="9.9999952"
       y2="6.9999957" />
    <linearGradient
       inkscape:collect="always"
       xlink:href="#linearGradient7209-9"
       id="linearGradient3014"
       gradientUnits="userSpaceOnUse"
       gradientTransform="matrix(1.142857,0,0,1.142857,5.0669478e-6,-2.7142821)"
       x1="9.9999981"
       y1="18.999996"
       x2="9.9999952"
       y2="6.9999957" />
    <linearGradient
       inkscape:collect="always"
       xlink:href="#linearGradient7209-9"
       id="linearGradient3792"
       gradientUnits="userSpaceOnUse"
       gradientTransform="matrix(1.142857,0,0,1.142857,0.50000438,-2.2142821)"
       x1="9.9999981"
       y1="18.999996"
       x2="9.9999952"
       y2="6.9999957" />
    <linearGradient
       inkscape:collect="always"
       xlink:href="#linearGradient7209-9"
       id="linearGradient3796"
       gradientUnits="userSpaceOnUse"
       gradientTransform="matrix(33.802557,0,0,33.802557,-3520.3621,-181.42112)"
       x1="9.9999981"
       y1="18.999996"
       x2="9.9999952"
       y2="6.9999957" />
    <linearGradient
       inkscape:collect="always"
       xlink:href="#linearGradient7209-9"
       id="linearGradient3798"
       gradientUnits="userSpaceOnUse"
       gradientTransform="matrix(1.142857,0,0,1.142857,-0.49999425,-3.2142821)"
       x1="9.9999981"
       y1="18.999996"
       x2="9.9999952"
       y2="6.9999957" />
    <linearGradient
       inkscape:collect="always"
       xlink:href="#linearGradient7251-3"
       id="linearGradient3801"
       gradientUnits="userSpaceOnUse"
       gradientTransform="matrix(33.802557,0,0,33.802557,-3520.3621,-181.42112)"
       x1="9.9999981"
       y1="18.999996"
       x2="9.9999952"
       y2="6.9999957" />
    <linearGradient
       inkscape:collect="always"
       xlink:href="#linearGradient7209-9"
       id="linearGradient3805"
       gradientUnits="userSpaceOnUse"
       gradientTransform="matrix(33.802557,0,0,33.802557,-3520.3621,-181.42112)"
       x1="9.9999981"
       y1="18.999996"
       x2="9.9999952"
       y2="6.9999957" />
    <linearGradient
       inkscape:collect="always"
       xlink:href="#linearGradient7209-9"
       id="linearGradient3809"
       gradientUnits="userSpaceOnUse"
       gradientTransform="matrix(33.802557,0,0,33.802557,-3520.3621,-181.42112)"
       x1="9.9999981"
       y1="18.999996"
       x2="9.9999952"
       y2="6.9999957" />
    <linearGradient
       inkscape:collect="always"
       xlink:href="#linearGradient9097-0"
       id="linearGradient3812"
       gradientUnits="userSpaceOnUse"
       gradientTransform="matrix(33.802557,0,0,33.802557,-3520.362,-181.42112)"
       x1="9.9999981"
       y1="18.999996"
       x2="9.9999952"
       y2="6.9999957" />
  </defs>
  <sodipodi:namedview
     id="base"
     pagecolor="#ffffff"
     bordercolor="#666666"
     borderopacity="1.0"
     inkscape:pageopacity="0.0"
     inkscape:pageshadow="2"
     inkscape:zoom="22.4"
     inkscape:cx="20.859428"
     inkscape:cy="6.6473304"
     inkscape:document-units="px"
     inkscape:current-layer="g4412"
     showgrid="true"
     inkscape:window-width="1615"
     inkscape:window-height="1026"
     inkscape:window-x="65"
     inkscape:window-y="24"
     inkscape:window-maximized="1"
     inkscape:snap-bbox="true"
     inkscape:bbox-paths="true"
     inkscape:bbox-nodes="true"
     inkscape:snap-bbox-edge-midpoints="true"
     inkscape:snap-bbox-midpoints="true"
     inkscape:object-paths="true"
     inkscape:snap-intersection-paths="true"
     inkscape:object-nodes="true"
     inkscape:snap-smooth-nodes="true"
     inkscape:snap-midpoints="true"
     inkscape:snap-object-midpoints="true"
     inkscape:snap-center="true"
     inkscape:snap-global="true"
     showguides="true"
     inkscape:guide-bbox="true"
     fit-margin-top="0"
     fit-margin-left="0"
     fit-margin-right="0"
     fit-margin-bottom="0"
     inkscape:showpageshadow="false">
    <inkscape:grid
       type="xygrid"
       id="grid3140"
       empspacing="5"
       visible="true"
       enabled="true"
       snapvisiblegridlinesonly="true" />
  </sodipodi:namedview>
  <metadata
     id="metadata27670">
    <rdf:RDF>
      <cc:Work
         rdf:about="">
        <dc:format>image/svg+xml</dc:format>
        <dc:type
           rdf:resource="http://purl.org/dc/dcmitype/StillImage" />
        <dc:title />
      </cc:Work>
    </rdf:RDF>
  </metadata>
  <g
     inkscape:label="Camada 1"
     inkscape:groupmode="layer"
     id="layer1"
     transform="translate(3364.4171,-2094.7186)">
    <g
       id="normal"
       transform="matrix(0.03380978,0,0,0.03380978,-3245.473,2097.4005)"
       inkscape:label="#g3132">
      <rect
         y="-79.323952"
         x="-3518.0396"
         height="650.69916"
         width="650.69916"
         id="rect3134"
         style="opacity:0.00100002;fill:#ffffff;stroke:none" />
      <g
         id="g4412"
         transform="translate(2.3239781,21.816943)"
         style="fill:url(#linearGradient3871)">
        <path
           inkscape:connector-curvature="0"
           style="fill:url(#linearGradient3805);fill-opacity:1;fill-rule:nonzero;stroke:none"
           d="m -3268.9557,-12.408417 c -81.6754,0 -147.8862,66.210902 -147.8862,147.886207 0,12.55758 1.6756,24.40526 4.6215,36.04726 -62.0655,17.56039 -108.1418,73.72778 -108.1418,141.41618 0,81.67534 66.2109,147.88621 147.8862,147.88621 l 384.5041,0 -0.9243,-0.92429 c 50.6854,-6.71347 89.6561,-50.07601 89.6561,-102.59605 0,-57.17275 -46.3478,-103.52035 -103.5204,-103.52035 -8.8822,0 -16.7293,0.6688 -24.9558,2.77287 7.0135,-12.02194 10.1672,-24.82241 10.1672,-39.74442 0,-44.92143 -36.4159,-81.33741 -81.3374,-81.33741 -7.7333,0 -15.0962,0.75677 -22.1829,2.77286 0.032,-1.26351 0,-1.50164 0,-2.77286 0,-81.675305 -66.2109,-147.886207 -147.8863,-147.886207 z m 0,59.154482 c 49.706,0 88.7318,39.025868 88.7318,88.731725 0,2.26394 -0.01,2.08376 0,1.84858 a 59.160394,59.160394 0 0 0 75.7917,58.23019 c 2.4237,-0.68954 3.6917,-0.92429 5.5457,-0.92429 12.9521,0 22.1829,9.23094 22.1829,22.18293 0,5.54026 -0.8759,6.91575 -2.7729,10.16718 a 59.160394,59.160394 0 0 0 65.6246,86.88314 c 3.6779,-0.9407 6.9374,-0.92429 11.0914,-0.92429 25.2031,0 44.3658,19.1626 44.3659,44.36587 0,23.15862 -16.9785,40.54856 -38.8201,43.44157 a 59.160394,59.160394 0 0 0 -2.7729,0.92429 l -372.4884,0 c -49.7058,0 -88.7316,-39.02584 -88.7317,-88.73173 0,-41.07438 27.1885,-74.42127 64.7002,-85.03456 a 59.160394,59.160394 0 0 0 41.593,-71.17024 c -1.63,-6.44148 -2.7729,-12.71925 -2.7729,-21.25864 0,-49.705904 39.0257,-88.731725 88.7317,-88.731725 z"
           id="path3803" />
        <path
           style="fill:url(#linearGradient3812);fill-opacity:1;fill-rule:nonzero;stroke:none"
           d="m -3172.8296,24.563135 c 22.5816,25.965975 36.9716,59.012304 36.9716,96.126035 0,1.27122 0.032,1.50935 0,2.77286 4.423,-1.25832 9.2031,-1.4492 13.8643,-1.84857 -3.6947,-38.807029 -23.0082,-72.849659 -50.8359,-97.050325 z m -110.9147,7.39431 c -49.706,0 -88.7317,39.025818 -88.7317,88.731725 0,8.53939 1.1429,14.81716 2.7729,21.25864 a 59.160394,59.160394 0 0 1 -41.593,71.17024 c -37.5117,10.61329 -64.7002,43.96018 -64.7002,85.03456 0,28.69055 13.6455,53.19866 34.1987,69.32166 -11.8099,-15.05487 -19.4101,-33.51767 -19.4101,-54.53304 0,-41.07438 27.1885,-74.42127 64.7002,-85.03456 a 59.160394,59.160394 0 0 0 41.593,-71.17024 c -1.63,-6.44148 -2.7729,-12.71925 -2.7729,-21.25864 0,-49.705901 39.0258,-88.731725 88.7318,-88.731725 21.0154,0 39.4781,7.600218 54.533,19.410065 -16.123,-20.55316 -40.6311,-34.198685 -69.3217,-34.198685 z m 233.8451,121.081835 c 10.6122,13.74032 17.5615,30.28295 17.5615,48.9873 0,14.92201 -3.1537,27.72248 -10.1672,39.74442 7.0573,-1.80501 13.8668,-2.5965 21.2587,-2.77287 1.8781,-6.91871 3.6971,-14.2717 3.6971,-22.18293 0,-26.21709 -13.0909,-48.90129 -32.3501,-63.77592 z m -119.2332,20.33435 a 59.160394,59.160394 0 0 0 64.7002,22.18293 c 2.4237,-0.68954 3.6917,-0.92429 5.5457,-0.92429 2.2417,0 4.4798,0.39983 6.47,0.92429 -2.5058,-9.5087 -10.5482,-15.71291 -21.2586,-15.71291 -1.854,0 -3.122,0.23475 -5.5457,0.92429 a 59.160394,59.160394 0 0 1 -49.9116,-7.39431 z m 231.0722,104.44463 c 14.5,17.8142 24.0315,39.9401 24.0315,64.70022 0,52.52004 -38.9707,95.88258 -89.6561,102.59605 l 0.9243,0.92429 -384.5041,0 c -37.1137,0 -70.1601,-14.38992 -96.126,-36.97155 27.1132,31.17672 66.3531,51.76017 110.9146,51.76017 l 384.5042,0 -0.9243,-0.92429 c 50.6854,-6.71347 89.656,-50.07601 89.656,-102.59605 0,-32.41267 -15.5001,-60.50729 -38.8201,-79.48884 z m -137.7191,12.94004 a 59.160394,59.160394 0 0 0 61.9274,23.10722 c 3.6779,-0.9407 6.9374,-0.92429 11.0914,-0.92429 8.6636,0 16.4042,2.47438 23.1073,6.47003 -7.6282,-12.79672 -21.3563,-21.25865 -37.8959,-21.25865 -4.154,0 -7.4135,-0.0164 -11.0914,0.92429 a 59.160394,59.160394 0 0 1 -47.1388,-8.3186 z"
           id="path3790"
           inkscape:connector-curvature="0" />
        <path
           style="fill:url(#linearGradient3801);fill-opacity:1;fill-rule:nonzero;stroke:none"
           d="m -3268.9557,-12.408417 c -81.6754,0 -147.8862,66.210899 -147.8862,147.886207 0,12.55758 1.6756,24.40526 4.6215,36.04726 -62.0655,17.56039 -108.1418,73.72778 -108.1418,141.41618 0,44.56161 20.5834,83.80144 51.7602,110.91466 -22.5817,-25.96598 -36.9716,-59.01231 -36.9716,-96.12604 0,-67.6884 46.0763,-123.85579 108.1418,-141.41618 -2.9459,-11.642 -4.6215,-23.48968 -4.6215,-36.04726 0,-81.675308 66.2108,-147.8862066 147.8862,-147.8862066 37.1138,0 70.1601,14.3899226 96.1261,36.9715506 -27.1133,-31.1767332 -66.353,-51.760171 -110.9147,-51.760171 z m 69.3217,93.353167 c 11.8098,15.054863 19.4101,33.51769 19.4101,54.53304 0,2.26394 -0.01,2.08376 0,1.84858 a 59.160394,59.160394 0 0 0 25.88,50.83588 59.160394,59.160394 0 0 1 -11.0914,-36.04726 c -0.01,0.23518 0,0.41536 0,-1.84858 0,-28.69051 -13.6455,-53.198654 -34.1987,-69.32166 z m 100.7475,54.53304 c -2.9067,0 -5.5116,0.68378 -8.3186,0.92429 0.4446,4.67044 0.9243,9.07742 0.9243,13.86433 0,1.27122 0.032,1.50935 0,2.77286 7.0867,-2.01609 14.4496,-2.77286 22.1829,-2.77286 18.7044,0 35.247,6.9493 48.9873,17.56149 -14.8746,-19.25922 -37.5588,-32.35011 -63.7759,-32.35011 z m 21.2586,74.86739 c 0.5245,1.99019 0.9243,4.22833 0.9243,6.47002 0,5.54026 -0.8759,6.91575 -2.7729,10.16718 a 59.160394,59.160394 0 0 0 16.6372,76.71597 59.160394,59.160394 0 0 1 -1.8486,-61.92735 c 1.897,-3.25143 2.7729,-4.62692 2.7729,-10.16718 0,-10.7103 -6.2042,-18.75283 -15.7129,-21.25864 z m 71.1702,43.44157 c -1.6643,6.13122 -3.1748,11.91324 -6.47,17.56149 8.2265,-2.10407 16.0736,-2.77287 24.9558,-2.77287 24.76,0 46.886,9.53145 64.7002,24.03151 -18.9816,-23.31997 -47.0762,-38.82013 -79.4888,-38.82013 -1.2624,0 -2.4725,-0.0292 -3.6972,0 z m 41.593,80.41313 c 3.9957,6.70303 6.47,14.4436 6.4701,23.10722 0,23.15862 -16.9786,40.54856 -38.8202,43.44157 a 59.160394,59.160394 0 0 0 -2.7728,0.92429 l -372.4884,0 c -21.0153,0 -39.4782,-7.60023 -54.5331,-19.41007 16.123,20.55317 40.6312,34.19869 69.3217,34.19869 l 372.4884,0 a 59.160394,59.160394 0 0 1 2.7729,-0.92429 c 21.8416,-2.89301 38.8201,-20.28295 38.8201,-43.44157 -10e-5,-16.53966 -8.462,-30.26776 -21.2587,-37.89584 z"
           id="path3008"
           inkscape:connector-curvature="0" />
      </g>
    </g>
  </g>
</svg>
