<?xml version="1.0" encoding="UTF-8" standalone="no"?>
<!-- Created with Inkscape (http://www.inkscape.org/) -->

<svg
   xmlns:dc="http://purl.org/dc/elements/1.1/"
   xmlns:cc="http://creativecommons.org/ns#"
   xmlns:rdf="http://www.w3.org/1999/02/22-rdf-syntax-ns#"
   xmlns:svg="http://www.w3.org/2000/svg"
   xmlns="http://www.w3.org/2000/svg"
   xmlns:xlink="http://www.w3.org/1999/xlink"
   xmlns:sodipodi="http://sodipodi.sourceforge.net/DTD/sodipodi-0.dtd"
   xmlns:inkscape="http://www.inkscape.org/namespaces/inkscape"
   width="21.999996"
   height="21.999996"
   id="svg27665"
   version="1.1"
   inkscape:version="0.48.3.1 r9886"
   sodipodi:docname="weather-clouds-night.svg">
  <defs
     id="defs27667">
    <linearGradient
       id="linearGradient4357-9"
       inkscape:collect="always">
      <stop
         id="stop4359-9"
         offset="0"
         style="stop-color:#adaca1;stop-opacity:1" />
      <stop
         id="stop4361-2"
         offset="1"
         style="stop-color:#e1e0d9;stop-opacity:1" />
    </linearGradient>
    <linearGradient
       inkscape:collect="always"
       xlink:href="#linearGradient4357-9"
       id="linearGradient3871"
       x1="-3224.5898"
       y1="460.8273"
       x2="-2899.2401"
       y2="194.63227"
       gradientUnits="userSpaceOnUse" />
    <linearGradient
       inkscape:collect="always"
       xlink:href="#linearGradient7209-9"
       id="linearGradient3928"
       gradientUnits="userSpaceOnUse"
       gradientTransform="matrix(29.577241,0,0,29.577241,-3520.3621,-101.14013)"
       x1="9.9999981"
       y1="18.999996"
       x2="9.9999952"
       y2="6.9999957" />
    <linearGradient
       inkscape:collect="always"
       xlink:href="#linearGradient9097-0"
       id="linearGradient3079"
       x1="-3697.8257"
       y1="490.40454"
       x2="-3697.8257"
       y2="-41.985775"
       gradientUnits="userSpaceOnUse" />
    <linearGradient
       inkscape:collect="always"
       xlink:href="#linearGradient7251-3"
       id="linearGradient3081"
       x1="-3668.2485"
       y1="490.40454"
       x2="-3668.2485"
       y2="-41.985775"
       gradientUnits="userSpaceOnUse" />
    <linearGradient
       inkscape:collect="always"
       xlink:href="#linearGradient7209-9"
       id="linearGradient3070"
       gradientUnits="userSpaceOnUse"
       x1="-3195.645"
       y1="506.50485"
       x2="-3195.645"
       y2="43.362446" />
    <linearGradient
       id="linearGradient7209-9">
      <stop
         id="stop7211-8"
         offset="0"
         style="stop-color:#a1988f;stop-opacity:1;" />
      <stop
         id="stop7213-9"
         offset="1"
         style="stop-color:#e4dfd4;stop-opacity:1;" />
    </linearGradient>
    <linearGradient
       inkscape:collect="always"
       xlink:href="#linearGradient9097-0"
       id="linearGradient3120"
       gradientUnits="userSpaceOnUse"
       gradientTransform="translate(3.6033726e-5,-1.3372609e-7)"
       x1="-3195.645"
       y1="506.50485"
       x2="-3195.645"
       y2="43.362446" />
    <linearGradient
       id="linearGradient9097-0">
      <stop
         style="stop-color:#000000;stop-opacity:0.49634215;"
         offset="0"
         id="stop9099-4" />
      <stop
         style="stop-color:#000000;stop-opacity:0.41474396;"
         offset="1"
         id="stop9101-5" />
    </linearGradient>
    <linearGradient
       inkscape:collect="always"
       xlink:href="#linearGradient7251-3"
       id="linearGradient3057"
       x1="-3224.5908"
       y1="506.50552"
       x2="-3224.5908"
       y2="43.362446"
       gradientUnits="userSpaceOnUse" />
    <linearGradient
       id="linearGradient7251-3">
      <stop
         style="stop-color:#ffffff;stop-opacity:1;"
         offset="0"
         id="stop7253-27" />
      <stop
         style="stop-color:#ffffff;stop-opacity:1;"
         offset="1"
         id="stop7255-3" />
    </linearGradient>
  </defs>
  <sodipodi:namedview
     id="base"
     pagecolor="#ffffff"
     bordercolor="#666666"
     borderopacity="1.0"
     inkscape:pageopacity="0.0"
     inkscape:pageshadow="2"
     inkscape:zoom="22.4"
     inkscape:cx="20.859428"
     inkscape:cy="6.6473304"
     inkscape:document-units="px"
     inkscape:current-layer="layer1"
     showgrid="true"
     inkscape:window-width="1680"
     inkscape:window-height="1000"
     inkscape:window-x="-8"
     inkscape:window-y="23"
     inkscape:window-maximized="1"
     inkscape:snap-bbox="true"
     inkscape:bbox-paths="true"
     inkscape:bbox-nodes="true"
     inkscape:snap-bbox-edge-midpoints="true"
     inkscape:snap-bbox-midpoints="true"
     inkscape:object-paths="true"
     inkscape:snap-intersection-paths="true"
     inkscape:object-nodes="true"
     inkscape:snap-smooth-nodes="true"
     inkscape:snap-midpoints="true"
     inkscape:snap-object-midpoints="true"
     inkscape:snap-center="true"
     inkscape:snap-global="true"
     showguides="true"
     inkscape:guide-bbox="true"
     fit-margin-top="0"
     fit-margin-left="0"
     fit-margin-right="0"
     fit-margin-bottom="0"
     inkscape:showpageshadow="false">
    <inkscape:grid
       type="xygrid"
       id="grid3140"
       empspacing="5"
       visible="true"
       enabled="true"
       snapvisiblegridlinesonly="true" />
  </sodipodi:namedview>
  <metadata
     id="metadata27670">
    <rdf:RDF>
      <cc:Work
         rdf:about="">
        <dc:format>image/svg+xml</dc:format>
        <dc:type
           rdf:resource="http://purl.org/dc/dcmitype/StillImage" />
        <dc:title />
      </cc:Work>
    </rdf:RDF>
  </metadata>
  <g
     inkscape:label="Camada 1"
     inkscape:groupmode="layer"
     id="layer1"
     transform="translate(3364.4171,-2094.7186)">
    <g
       id="normal"
       transform="matrix(0.03380978,0,0,0.03380978,-3245.473,2097.4005)"
       inkscape:label="#g3132">
      <rect
         y="-79.323952"
         x="-3518.0396"
         height="650.69916"
         width="650.69916"
         id="rect3134"
         style="opacity:0.00100002;fill:#ffffff;stroke:none" />
      <g
         id="g4412"
         transform="translate(2.3239781,21.816943)"
         style="fill:url(#linearGradient3871)">
        <path
           inkscape:connector-curvature="0"
           style="fill:url(#linearGradient3928);fill-opacity:1;fill-rule:nonzero;stroke:none"
           d="m -3076.7036,-71.562899 c -66.0559,0 -122.9016,36.13802 -153.4319,89.656012 25.8685,11.649812 48.2599,28.746534 65.6245,50.835883 -0.1472,-2.543528 -0.9243,-4.808846 -0.9243,-7.394311 0,-66.8596367 49.4575,-121.784893 113.6875,-131.249006 -8.0681,-1.122886 -16.5785,-1.848578 -24.9558,-1.848578 z m -223.6779,118.308964 c -71.4659,0 -129.4004,57.934525 -129.4004,129.400425 0,10.98788 1.1195,21.23907 3.6972,31.42582 -54.3073,15.36535 -94.2775,64.62734 -94.2775,123.8547 0,71.46592 57.9345,129.40043 129.4004,129.40043 l 336.4411,0 -0.9242,-0.92429 c 44.3497,-5.87428 78.5645,-43.70096 78.5645,-89.65601 0,-50.02615 -40.5542,-90.5803 -90.5803,-90.5803 -7.7719,0 -14.9848,0.9318 -22.1829,2.77286 6.1368,-10.5192 9.2429,-22.06621 9.2429,-35.12297 0,-39.30626 -31.864,-71.17024 -71.1703,-71.17024 -6.7666,0 -13.2091,1.00879 -19.41,2.77287 0.028,-1.10558 0,-1.66055 0,-2.77287 0,-71.4659 -57.9346,-129.400425 -129.4005,-129.400425 z m 399.2928,34.198685 c -9.4641,64.23002 -64.3894,113.68752 -131.249,113.68752 -6.0285,0 -11.836,-0.87536 -17.5615,-1.84858 7.4982,13.90891 12.6718,29.72602 13.8643,46.21444 17.0115,4.07545 32.3168,11.38473 46.2145,21.25864 53.935,-30.476 90.5803,-87.96531 90.5803,-154.35622 0,-8.377242 -0.7257,-16.887735 -1.8486,-24.9558 z"
           id="path3926" />
        <path
           style="fill:url(#linearGradient3081);fill-opacity:1;fill-rule:nonzero;stroke:none"
           d="m -3076.7036,-71.562899 c -66.0559,0 -122.9016,36.13802 -153.4319,89.656011 6.4671,2.912454 12.4775,6.580957 18.4857,10.167177 24.4149,-39.761481 63.3679,-69.542707 109.9904,-80.413124 14.8981,-9.030832 31.9412,-14.913599 49.9116,-17.561487 -8.0681,-1.122885 -16.5785,-1.848577 -24.9558,-1.848577 z m -223.6779,118.308964 c -71.4659,0 -129.4004,57.934535 -129.4004,129.400425 0,10.98788 1.1194,21.23907 3.6971,31.42582 -54.3073,15.36535 -94.2774,64.62734 -94.2774,123.8547 0,39.50206 18.3125,74.23935 46.2144,97.97461 -19.2058,-22.5774 -31.4258,-51.22213 -31.4258,-83.18599 0,-59.22736 39.9702,-108.48935 94.2775,-123.8547 -2.5777,-10.18675 -3.6972,-20.43794 -3.6972,-31.42582 0,-71.4659 57.9345,-129.400425 129.4004,-129.400425 31.9639,0 60.6086,12.219952 83.186,31.425819 -23.7353,-27.901927 -58.4725,-46.214439 -97.9746,-46.214439 z m 129.4004,14.78862 c 2.1711,2.451338 4.4346,4.805042 6.4701,7.39431 -0.036,-0.6261 0.091,-1.247269 0,-1.848577 -2.0255,-1.972648 -4.3508,-3.679238 -6.4701,-5.545733 z m 269.8924,19.410064 c -9.4641,64.230021 -64.3894,113.687521 -131.249,113.687521 -6.0285,0 -11.836,-0.87536 -17.5615,-1.84858 7.4982,13.90891 12.6718,29.72602 13.8643,46.21444 4.5956,1.10095 8.5876,3.06166 12.9401,4.62144 -2.2086,-12.74016 -6.1007,-25.0749 -12.0158,-36.04726 5.7255,0.97322 11.533,1.84858 17.5615,1.84858 48.1535,0 90.4402,-25.42518 113.6875,-63.77593 2.9546,-12.79054 4.6215,-26.03531 4.6215,-39.74441 0,-8.377242 -0.7257,-16.887736 -1.8486,-24.955801 z m -250.4823,95.201741 c -2.2555,0 -4.2835,0.70951 -6.47,0.92429 0.509,4.66347 1.8486,9.06539 1.8486,13.86433 0,1.11232 0.028,1.66729 0,2.77287 6.2009,-1.76408 12.6434,-2.77287 19.41,-2.77287 14.7399,0 28.3856,4.34188 39.7445,12.01576 -13.0512,-15.96852 -32.301,-26.80438 -54.5331,-26.80438 z m 83.186,103.52035 c -1.5404,6.15171 -3.2516,12.04468 -6.47,17.56148 7.1981,-1.84106 14.411,-2.77286 22.1829,-2.77286 21.1508,0 40.042,8.18494 55.4573,20.33435 -16.5866,-21.0453 -41.3705,-35.12297 -70.2459,-35.12297 -0.3189,0 -0.6073,-0.003 -0.9243,0 z"
           id="path3894"
           inkscape:connector-curvature="0" />
        <path
           style="opacity:1;fill:url(#linearGradient3079);fill-opacity:1;fill-rule:nonzero;stroke:none"
           d="m -3076.7036,-71.562898 c -13.8463,0 -26.865,1.618502 -39.7444,4.621443 -38.3507,23.247286 -63.7759,65.5339976 -63.7759,113.687521 0,1.949042 0.6438,3.704224 0.9243,5.545732 5.2914,5.153429 10.1772,10.771058 14.7886,16.637198 -0.1472,-2.543527 -0.9243,-4.808845 -0.9243,-7.39431 0,-66.8596376 49.4575,-121.784893 113.6875,-131.249007 -8.0681,-1.122885 -16.5785,-1.848577 -24.9558,-1.848577 z m -149.7348,85.034567 c -1.0165,1.65553 -2.7326,2.930629 -3.6971,4.621444 16.3691,7.371793 31.1739,17.034234 44.3658,28.652953 -11.7202,-13.233157 -25.461,-24.197218 -40.6687,-33.274397 z m 9.2429,64.700215 c 19.2059,22.577396 31.4258,51.222136 31.4258,83.185986 0,1.11232 0.028,1.66729 0,2.77287 4.134,-1.17605 8.5669,-1.419 12.9401,-1.84858 -3.681,-33.72343 -19.8536,-63.2585 -44.3659,-84.110276 z m 316.1068,2.772866 c -2.6479,17.9704 -8.5306,35.01355 -17.5615,49.91159 -11.354,49.15191 -43.1609,90.42881 -85.9588,114.61181 -10.1434,-7.20652 -21.5154,-12.42315 -33.2744,-16.63719 0.5911,3.40966 1.5968,6.68602 1.8485,10.16717 17.0115,4.07545 32.3168,11.38473 46.2145,21.25864 53.935,-30.476 90.5803,-87.96531 90.5803,-154.35622 0,-8.37724 -0.7257,-16.88773 -1.8486,-24.9558 z m -206.1164,111.83894 c 7.6739,11.35885 12.0157,25.00457 12.0157,39.74442 0,13.05676 -3.106,24.60377 -9.2428,35.12297 6.9028,-1.76552 13.8486,-2.69957 21.2586,-2.77286 1.3968,-5.57812 2.7729,-11.35234 2.7729,-17.56149 0,-22.23206 -10.8359,-41.48184 -26.8044,-54.53304 z m 95.2017,107.2175 c 12.1495,15.41536 20.3344,34.30655 20.3344,55.45733 0,45.95505 -34.2148,83.78173 -78.5646,89.65601 l 0.9243,0.92429 -336.4411,0 c -31.9638,0 -60.6086,-12.21996 -83.186,-31.42582 23.7353,27.90193 58.4726,46.21444 97.9746,46.21444 l 336.4412,0 -0.9243,-0.92429 c 44.3497,-5.87428 78.5645,-43.70096 78.5645,-89.65601 0,-28.8754 -14.0777,-53.65936 -35.123,-70.24595 z"
           id="path3076"
           inkscape:connector-curvature="0" />
      </g>
    </g>
  </g>
</svg>
