<?xml version="1.0" encoding="UTF-8" standalone="no"?>
<!-- Created with Inkscape (http://www.inkscape.org/) -->

<svg
   xmlns:dc="http://purl.org/dc/elements/1.1/"
   xmlns:cc="http://creativecommons.org/ns#"
   xmlns:rdf="http://www.w3.org/1999/02/22-rdf-syntax-ns#"
   xmlns:svg="http://www.w3.org/2000/svg"
   xmlns="http://www.w3.org/2000/svg"
   xmlns:xlink="http://www.w3.org/1999/xlink"
   xmlns:sodipodi="http://sodipodi.sourceforge.net/DTD/sodipodi-0.dtd"
   xmlns:inkscape="http://www.inkscape.org/namespaces/inkscape"
   width="21.999996"
   height="21.999996"
   id="svg27665"
   version="1.1"
   inkscape:version="0.48.3.1 r9886"
   sodipodi:docname="weather-clear-night.svg">
  <defs
     id="defs27667">
    <linearGradient
       id="linearGradient4357-9"
       inkscape:collect="always">
      <stop
         id="stop4359-9"
         offset="0"
         style="stop-color:#adaca1;stop-opacity:1" />
      <stop
         id="stop4361-2"
         offset="1"
         style="stop-color:#e1e0d9;stop-opacity:1" />
    </linearGradient>
    <linearGradient
       inkscape:collect="always"
       xlink:href="#linearGradient4357-9"
       id="linearGradient3871"
       x1="-3224.5898"
       y1="460.8273"
       x2="-2899.2401"
       y2="194.63227"
       gradientUnits="userSpaceOnUse" />
    <linearGradient
       inkscape:collect="always"
       xlink:href="#linearGradient7209-9"
       id="linearGradient3928"
       gradientUnits="userSpaceOnUse"
       gradientTransform="matrix(29.577241,0,0,29.577241,-2747.6567,-101.14013)"
       x1="9.9999981"
       y1="18.999996"
       x2="9.9999952"
       y2="6.9999957" />
    <linearGradient
       inkscape:collect="always"
       xlink:href="#linearGradient9097-0"
       id="linearGradient3079"
       x1="-3697.8257"
       y1="490.40454"
       x2="-3697.8257"
       y2="-41.985775"
       gradientUnits="userSpaceOnUse"
       gradientTransform="translate(772.70537,0)" />
    <linearGradient
       inkscape:collect="always"
       xlink:href="#linearGradient7251-3"
       id="linearGradient3081"
       x1="-3668.2485"
       y1="490.40454"
       x2="-3668.2485"
       y2="-41.985775"
       gradientUnits="userSpaceOnUse"
       gradientTransform="translate(772.70537,0)" />
    <linearGradient
       id="linearGradient7209-9">
      <stop
         id="stop7211-8"
         offset="0"
         style="stop-color:#a1988f;stop-opacity:1;" />
      <stop
         id="stop7213-9"
         offset="1"
         style="stop-color:#e4dfd4;stop-opacity:1;" />
    </linearGradient>
    <linearGradient
       id="linearGradient9097-0">
      <stop
         style="stop-color:#000000;stop-opacity:0.49634215;"
         offset="0"
         id="stop9099-4" />
      <stop
         style="stop-color:#000000;stop-opacity:0.41474396;"
         offset="1"
         id="stop9101-5" />
    </linearGradient>
    <linearGradient
       id="linearGradient7251-3">
      <stop
         style="stop-color:#ffffff;stop-opacity:1;"
         offset="0"
         id="stop7253-27" />
      <stop
         style="stop-color:#ffffff;stop-opacity:1;"
         offset="1"
         id="stop7255-3" />
    </linearGradient>
    <linearGradient
       inkscape:collect="always"
       xlink:href="#linearGradient7209-9"
       id="linearGradient3787"
       x1="10.999998"
       y1="19.999996"
       x2="10.999998"
       y2="1.9999959"
       gradientUnits="userSpaceOnUse"
       gradientTransform="translate(-0.49999763,-0.49999983)" />
    <linearGradient
       inkscape:collect="always"
       xlink:href="#linearGradient7209-9"
       id="linearGradient3791"
       gradientUnits="userSpaceOnUse"
       x1="10.999998"
       y1="19.999996"
       x2="10.999998"
       y2="1.9999959"
       gradientTransform="translate(0.500001,0.50000015)" />
    <linearGradient
       inkscape:collect="always"
       xlink:href="#linearGradient7209-9"
       id="linearGradient3795"
       gradientUnits="userSpaceOnUse"
       x1="10.999998"
       y1="19.999996"
       x2="10.999998"
       y2="1.9999959"
       gradientTransform="matrix(29.577241,0,0,29.577241,-3520.3622,-101.14014)" />
    <linearGradient
       inkscape:collect="always"
       xlink:href="#linearGradient7251-3"
       id="linearGradient3798"
       gradientUnits="userSpaceOnUse"
       gradientTransform="matrix(29.577241,0,0,29.577241,-3520.3622,-101.14014)"
       x1="10.999998"
       y1="19.999996"
       x2="10.999998"
       y2="1.9999959" />
    <linearGradient
       inkscape:collect="always"
       xlink:href="#linearGradient7209-9"
       id="linearGradient3802"
       gradientUnits="userSpaceOnUse"
       gradientTransform="matrix(29.577241,0,0,29.577241,-3520.3622,-101.14014)"
       x1="10.999998"
       y1="19.999996"
       x2="10.999998"
       y2="1.9999959" />
    <linearGradient
       inkscape:collect="always"
       xlink:href="#linearGradient7209-9"
       id="linearGradient3806"
       gradientUnits="userSpaceOnUse"
       gradientTransform="matrix(29.577241,0,0,29.577241,-3520.3622,-101.14014)"
       x1="10.999998"
       y1="19.999996"
       x2="10.999998"
       y2="1.9999959" />
    <linearGradient
       inkscape:collect="always"
       xlink:href="#linearGradient9097-0"
       id="linearGradient3809"
       gradientUnits="userSpaceOnUse"
       gradientTransform="matrix(29.577241,0,0,29.577241,-3520.3622,-101.14014)"
       x1="10.999998"
       y1="19.999996"
       x2="10.999998"
       y2="1.9999959" />
  </defs>
  <sodipodi:namedview
     id="base"
     pagecolor="#ffffff"
     bordercolor="#666666"
     borderopacity="1.0"
     inkscape:pageopacity="0.0"
     inkscape:pageshadow="2"
     inkscape:zoom="22.4"
     inkscape:cx="20.859428"
     inkscape:cy="6.6473304"
     inkscape:document-units="px"
     inkscape:current-layer="g4412"
     showgrid="true"
     inkscape:window-width="1680"
     inkscape:window-height="1000"
     inkscape:window-x="-8"
     inkscape:window-y="23"
     inkscape:window-maximized="1"
     inkscape:snap-bbox="true"
     inkscape:bbox-paths="true"
     inkscape:bbox-nodes="true"
     inkscape:snap-bbox-edge-midpoints="true"
     inkscape:snap-bbox-midpoints="true"
     inkscape:object-paths="true"
     inkscape:snap-intersection-paths="true"
     inkscape:object-nodes="true"
     inkscape:snap-smooth-nodes="true"
     inkscape:snap-midpoints="true"
     inkscape:snap-object-midpoints="true"
     inkscape:snap-center="true"
     inkscape:snap-global="true"
     showguides="true"
     inkscape:guide-bbox="true"
     fit-margin-top="0"
     fit-margin-left="0"
     fit-margin-right="0"
     fit-margin-bottom="0"
     inkscape:showpageshadow="false">
    <inkscape:grid
       type="xygrid"
       id="grid3140"
       empspacing="5"
       visible="true"
       enabled="true"
       snapvisiblegridlinesonly="true" />
  </sodipodi:namedview>
  <metadata
     id="metadata27670">
    <rdf:RDF>
      <cc:Work
         rdf:about="">
        <dc:format>image/svg+xml</dc:format>
        <dc:type
           rdf:resource="http://purl.org/dc/dcmitype/StillImage" />
        <dc:title />
      </cc:Work>
    </rdf:RDF>
  </metadata>
  <g
     inkscape:label="Camada 1"
     inkscape:groupmode="layer"
     id="layer1"
     transform="translate(3364.4171,-2094.7186)">
    <g
       id="normal"
       transform="matrix(0.03380978,0,0,0.03380978,-3245.473,2097.4005)"
       inkscape:label="#g3132">
      <rect
         y="-79.323952"
         x="-3518.0396"
         height="650.69916"
         width="650.69916"
         id="rect3134"
         style="opacity:0.00100002;fill:#ffffff;stroke:none" />
      <g
         id="g4412"
         transform="translate(2.3239781,21.816943)"
         style="fill:url(#linearGradient3871)">
        <path
           inkscape:connector-curvature="0"
           style="fill:url(#linearGradient3802);fill-opacity:1;fill-rule:nonzero;stroke:none"
           d="m -3195.0125,-41.985658 c -147.0156,0 -266.1952,119.179662 -266.1952,266.195168 0,147.01551 119.1796,266.19517 266.1952,266.19517 147.0155,0 266.1951,-119.17966 266.1951,-266.19517 0,-11.08771 -0.532,-21.61824 -1.8486,-32.35011 -13.1535,101.67292 -99.9371,180.23632 -205.1921,180.23632 -114.3454,0 -207.0407,-92.69528 -207.0407,-207.04069 0,-105.254952 78.5634,-192.038603 180.2364,-205.19211 -10.7319,-1.316596 -21.2624,-1.848578 -32.3501,-1.848578 z"
           id="path3800" />
        <path
           style="fill:url(#linearGradient3798);fill-opacity:1;fill-rule:nonzero;stroke:none"
           d="m -3195.0126,-41.985658 c -147.0156,0 -266.1951,119.179661 -266.1951,266.195168 0,77.29125 33.3502,146.39457 85.9588,195.02493 -43.8693,-47.4581 -71.1702,-110.51204 -71.1702,-180.23631 0,-133.41317 98.4214,-244.1186408 226.4507,-263.422301 17.829,-7.898952 37.2538,-13.118746 57.3059,-15.71291 -10.7319,-1.316595 -21.2624,-1.848577 -32.3501,-1.848577 z M -2930.666,191.8594 c -13.1535,101.67292 -99.9371,180.23632 -205.1921,180.23632 -50.0261,0 -95.4602,-17.60317 -131.249,-47.13873 37.5033,37.74198 88.6272,61.92735 146.0376,61.92735 84.4964,0 157.3272,-50.35887 189.4792,-122.93041 1.9682,-13.05341 2.7729,-26.14208 2.7729,-39.74442 0,-11.08771 -0.532,-21.61824 -1.8486,-32.35011 z"
           id="path3778"
           inkscape:connector-curvature="0" />
        <path
           style="fill:url(#linearGradient3809);fill-opacity:1;fill-rule:nonzero;stroke:none"
           d="m -3195.0125,-41.985657 c -13.6024,0 -26.691,0.804734 -39.7445,2.772866 -72.5715,32.1520666 -122.9304,104.982864 -122.9304,189.479201 0,57.41043 24.1854,108.53437 61.9274,146.03763 -29.5356,-35.78885 -47.1387,-81.22289 -47.1387,-131.24901 0,-105.254955 78.5633,-192.038602 180.2363,-205.19211 -10.7319,-1.316595 -21.2624,-1.848577 -32.3501,-1.848577 z m 264.3466,233.845057 c -2.5942,20.05216 -7.814,39.47693 -15.713,57.30591 -19.3036,128.02923 -130.0091,226.45075 -263.4223,226.45075 -69.7243,0 -132.7782,-27.30089 -180.2363,-71.17024 48.6304,52.6086 117.7337,85.95886 195.025,85.95886 147.0155,0 266.1951,-119.17966 266.1951,-266.19517 0,-11.08771 -0.5319,-21.61824 -1.8485,-32.35011 z"
           id="path3789"
           inkscape:connector-curvature="0" />
      </g>
    </g>
  </g>
</svg>
