<?xml version="1.0" encoding="UTF-8" standalone="no"?>
<!-- Created with Inkscape (http://www.inkscape.org/) -->

<svg
   xmlns:dc="http://purl.org/dc/elements/1.1/"
   xmlns:cc="http://creativecommons.org/ns#"
   xmlns:rdf="http://www.w3.org/1999/02/22-rdf-syntax-ns#"
   xmlns:svg="http://www.w3.org/2000/svg"
   xmlns="http://www.w3.org/2000/svg"
   xmlns:xlink="http://www.w3.org/1999/xlink"
   xmlns:sodipodi="http://sodipodi.sourceforge.net/DTD/sodipodi-0.dtd"
   xmlns:inkscape="http://www.inkscape.org/namespaces/inkscape"
   width="21.999996"
   height="21.999996"
   id="svg27665"
   version="1.1"
   inkscape:version="0.48.3.1 r9886"
   sodipodi:docname="weather-showers.svg">
  <defs
     id="defs27667">
    <linearGradient
       id="linearGradient4357-9"
       inkscape:collect="always">
      <stop
         id="stop4359-9"
         offset="0"
         style="stop-color:#adaca1;stop-opacity:1" />
      <stop
         id="stop4361-2"
         offset="1"
         style="stop-color:#e1e0d9;stop-opacity:1" />
    </linearGradient>
    <linearGradient
       inkscape:collect="always"
       xlink:href="#linearGradient4357-9"
       id="linearGradient3871"
       x1="-3224.5898"
       y1="460.8273"
       x2="-2899.2401"
       y2="194.63227"
       gradientUnits="userSpaceOnUse" />
    <linearGradient
       inkscape:collect="always"
       xlink:href="#linearGradient7209-9"
       id="linearGradient3928"
       gradientUnits="userSpaceOnUse"
       gradientTransform="matrix(1.1428571,0,0,1.1428571,5.0669478e-6,-4.7142888)"
       x1="9.9999981"
       y1="18.999996"
       x2="9.9999952"
       y2="6.9999957" />
    <linearGradient
       inkscape:collect="always"
       xlink:href="#linearGradient9097-0"
       id="linearGradient3079"
       x1="-3697.8257"
       y1="490.40454"
       x2="-3697.8257"
       y2="-41.985775"
       gradientUnits="userSpaceOnUse"
       gradientTransform="translate(770.85674,0)" />
    <linearGradient
       inkscape:collect="always"
       xlink:href="#linearGradient7251-3"
       id="linearGradient3081"
       x1="-3668.2485"
       y1="490.40454"
       x2="-3668.2485"
       y2="-41.985775"
       gradientUnits="userSpaceOnUse"
       gradientTransform="translate(770.85674,0)" />
    <linearGradient
       id="linearGradient7209-9">
      <stop
         id="stop7211-8"
         offset="0"
         style="stop-color:#a1988f;stop-opacity:1;" />
      <stop
         id="stop7213-9"
         offset="1"
         style="stop-color:#e4dfd4;stop-opacity:1;" />
    </linearGradient>
    <linearGradient
       id="linearGradient9097-0">
      <stop
         style="stop-color:#000000;stop-opacity:0.49634215;"
         offset="0"
         id="stop9099-4" />
      <stop
         style="stop-color:#000000;stop-opacity:0.41474396;"
         offset="1"
         id="stop9101-5" />
    </linearGradient>
    <linearGradient
       id="linearGradient7251-3">
      <stop
         style="stop-color:#ffffff;stop-opacity:1;"
         offset="0"
         id="stop7253-27" />
      <stop
         style="stop-color:#ffffff;stop-opacity:1;"
         offset="1"
         id="stop7255-3" />
    </linearGradient>
    <linearGradient
       inkscape:collect="always"
       xlink:href="#linearGradient7209-9"
       id="linearGradient3802"
       gradientUnits="userSpaceOnUse"
       gradientTransform="matrix(1.1428571,0,0,1.1428571,6.7529177e-6,-4.7142887)"
       x1="9.9999981"
       y1="18.999996"
       x2="9.9999952"
       y2="6.9999957" />
    <linearGradient
       inkscape:collect="always"
       xlink:href="#linearGradient7209-9"
       id="linearGradient3807"
       gradientUnits="userSpaceOnUse"
       gradientTransform="matrix(1.1428571,0,0,1.1428571,0.50000776,-4.2142885)"
       x1="9.9999981"
       y1="18.999996"
       x2="9.9999952"
       y2="6.9999957" />
    <linearGradient
       inkscape:collect="always"
       xlink:href="#linearGradient7209-9"
       id="linearGradient3811"
       gradientUnits="userSpaceOnUse"
       gradientTransform="matrix(33.80256,0,0,33.80256,-3520.362,-240.57579)"
       x1="9.9999981"
       y1="18.999996"
       x2="9.9999952"
       y2="6.9999957" />
    <linearGradient
       inkscape:collect="always"
       xlink:href="#linearGradient7209-9"
       id="linearGradient3813"
       gradientUnits="userSpaceOnUse"
       gradientTransform="matrix(1.1428571,0,0,1.1428571,-0.49999086,-5.2142885)"
       x1="9.9999981"
       y1="18.999996"
       x2="9.9999952"
       y2="6.9999957" />
    <linearGradient
       inkscape:collect="always"
       xlink:href="#linearGradient7251-3"
       id="linearGradient3816"
       gradientUnits="userSpaceOnUse"
       gradientTransform="matrix(33.80256,0,0,33.80256,-3520.362,-240.57579)"
       x1="9.9999981"
       y1="18.999996"
       x2="9.9999952"
       y2="6.9999957" />
    <linearGradient
       inkscape:collect="always"
       xlink:href="#linearGradient7209-9"
       id="linearGradient3820"
       gradientUnits="userSpaceOnUse"
       gradientTransform="matrix(33.80256,0,0,33.80256,-3520.362,-240.57579)"
       x1="9.9999981"
       y1="18.999996"
       x2="9.9999952"
       y2="6.9999957" />
    <linearGradient
       inkscape:collect="always"
       xlink:href="#linearGradient7209-9"
       id="linearGradient3824"
       gradientUnits="userSpaceOnUse"
       gradientTransform="matrix(33.80256,0,0,33.80256,-3520.362,-240.57579)"
       x1="9.9999981"
       y1="18.999996"
       x2="9.9999952"
       y2="6.9999957" />
    <linearGradient
       inkscape:collect="always"
       xlink:href="#linearGradient9097-0"
       id="linearGradient3827"
       gradientUnits="userSpaceOnUse"
       gradientTransform="matrix(33.80256,0,0,33.80256,-3520.362,-240.57579)"
       x1="9.9999981"
       y1="18.999996"
       x2="9.9999952"
       y2="6.9999957" />
  </defs>
  <sodipodi:namedview
     id="base"
     pagecolor="#ffffff"
     bordercolor="#666666"
     borderopacity="1.0"
     inkscape:pageopacity="0.0"
     inkscape:pageshadow="2"
     inkscape:zoom="22.4"
     inkscape:cx="19.407641"
     inkscape:cy="8.988845"
     inkscape:document-units="px"
     inkscape:current-layer="g4412"
     showgrid="true"
     inkscape:window-width="1615"
     inkscape:window-height="1026"
     inkscape:window-x="65"
     inkscape:window-y="24"
     inkscape:window-maximized="1"
     inkscape:snap-bbox="true"
     inkscape:bbox-paths="true"
     inkscape:bbox-nodes="true"
     inkscape:snap-bbox-edge-midpoints="true"
     inkscape:snap-bbox-midpoints="true"
     inkscape:object-paths="true"
     inkscape:snap-intersection-paths="true"
     inkscape:object-nodes="true"
     inkscape:snap-smooth-nodes="true"
     inkscape:snap-midpoints="true"
     inkscape:snap-object-midpoints="true"
     inkscape:snap-center="true"
     inkscape:snap-global="true"
     showguides="true"
     inkscape:guide-bbox="true"
     fit-margin-top="0"
     fit-margin-left="0"
     fit-margin-right="0"
     fit-margin-bottom="0"
     inkscape:showpageshadow="false">
    <inkscape:grid
       type="xygrid"
       id="grid3140"
       empspacing="5"
       visible="true"
       enabled="true"
       snapvisiblegridlinesonly="true" />
  </sodipodi:namedview>
  <metadata
     id="metadata27670">
    <rdf:RDF>
      <cc:Work
         rdf:about="">
        <dc:format>image/svg+xml</dc:format>
        <dc:type
           rdf:resource="http://purl.org/dc/dcmitype/StillImage" />
        <dc:title />
      </cc:Work>
    </rdf:RDF>
  </metadata>
  <g
     inkscape:label="Camada 1"
     inkscape:groupmode="layer"
     id="layer1"
     transform="translate(3364.4171,-2094.7186)">
    <g
       id="normal"
       transform="matrix(0.03380978,0,0,0.03380978,-3245.473,2097.4005)"
       inkscape:label="#g3132">
      <rect
         y="-79.323952"
         x="-3518.0396"
         height="650.69916"
         width="650.69916"
         id="rect3134"
         style="opacity:0.00100002;fill:#ffffff;stroke:none" />
      <g
         id="g4412"
         transform="translate(2.3239781,21.816943)"
         style="fill:url(#linearGradient3871)">
        <path
           inkscape:connector-curvature="0"
           style="fill:url(#linearGradient3820);fill-opacity:1;fill-rule:nonzero;stroke:none"
           d="m -3268.9557,-71.562899 c -81.6754,0 -147.8862,66.21089 -147.8862,147.886205 0,12.557571 1.6756,24.405264 4.6215,36.047264 -62.0656,17.5604 -108.1418,73.72779 -108.1418,141.41618 0,65.034 42.4087,119.7615 100.7475,139.56761 l 52.6844,-106.29321 c 8.4801,-18.03733 24.6757,-30.18402 44.3659,-33.2744 l 1.8486,0 0.9243,0 c 1.5394,-0.0964 3.0806,-0.0241 4.6214,0 0.9245,0.0145 1.8492,-0.0578 2.7729,0 l 0,0.92429 c 21.0719,0.39149 38.3807,11.95823 48.063,26.80438 4.1926,6.42873 5.7521,14.2181 7.3943,22.18293 l 8.3186,-16.6372 c 8.48,-18.03733 24.6756,-30.18402 44.3659,-33.2744 l 1.8485,0 0.9243,0 c 1.5394,-0.0964 3.0806,-0.0241 4.6215,0 0.9245,0.0145 1.8492,-0.0578 2.7728,0 l 0,0.92429 c 21.072,0.39149 38.3808,11.95823 48.0631,26.80438 4.1926,6.42873 5.7521,14.2181 7.3943,22.18293 l 8.3186,-16.6372 c 8.48,-18.03733 24.6756,-30.18402 44.3658,-33.2744 l 1.8486,0 0.9243,0 c 1.5394,-0.0964 3.0806,-0.0241 4.6214,0 0.9245,0.0145 1.8493,-0.0578 2.7729,0 l 0,0.92429 c 21.0719,0.39149 38.3808,11.95823 48.063,26.80438 10.1683,15.59131 14.5187,36.99793 4.6215,57.3059 l -31.4259,62.85164 66.5488,0 -0.9243,-0.92429 c 50.6854,-6.71344 89.6561,-50.07602 89.6561,-102.59606 0,-57.17274 -46.3477,-103.52034 -103.5204,-103.52034 -8.8822,0 -16.7293,0.6688 -24.9558,2.77287 7.0134,-12.02195 10.1672,-24.8224 10.1672,-39.74442 0,-44.92143 -36.4158,-81.337414 -81.3374,-81.337414 -7.7331,0 -15.0962,0.756775 -22.1829,2.772866 0.032,-1.263519 0,-1.501645 0,-2.772866 0,-81.675315 -66.2109,-147.886205 -147.8863,-147.886205 z m -48.9873,354.926889 a 29.580202,29.580202 0 0 0 -22.1829,16.6372 l -88.7317,177.46345 a 29.764395,29.764395 0 1 0 53.6087,25.88008 l 88.7318,-177.46344 a 29.580202,29.580202 0 0 0 -27.7287,-42.51729 29.580202,29.580202 0 0 0 -3.6972,0 z m 118.309,0 a 29.580202,29.580202 0 0 0 -22.1829,16.6372 l -88.7317,177.46345 a 29.764395,29.764395 0 0 0 53.6087,25.88008 l 88.7317,-177.46344 a 29.580202,29.580202 0 0 0 -27.7286,-42.51729 29.580202,29.580202 0 0 0 -3.6972,0 z m 118.309,0 a 29.580202,29.580202 0 0 0 -22.183,16.6372 l -88.7317,177.46345 a 29.764418,29.764418 0 0 0 53.6088,25.88008 l 88.7317,-177.46344 a 29.580202,29.580202 0 0 0 -27.7287,-42.51729 29.580202,29.580202 0 0 0 -3.6971,0 z"
           id="path3818" />
        <path
           style="fill:url(#linearGradient3816);fill-opacity:1;fill-rule:nonzero;stroke:none"
           d="m -3268.9557,-71.562899 c -81.6754,0 -147.8862,66.2108902 -147.8862,147.886205 0,12.55757 1.6756,24.405254 4.6215,36.047264 -62.0656,17.5604 -108.1418,73.72779 -108.1418,141.41618 0,44.45859 19.657,83.95328 50.8359,110.91466 -22.3974,-25.74939 -36.0473,-59.29214 -36.0473,-96.12604 0,-67.68839 46.0762,-123.85578 108.1418,-141.41618 -2.9459,-11.642 -4.6215,-23.48969 -4.6215,-36.047264 0,-81.6753146 66.2108,-147.886205 147.8862,-147.886205 37.1138,0 70.1601,14.389925 96.1261,36.971551 -27.1133,-31.176733 -66.353,-51.760171 -110.9147,-51.760171 z m 170.0692,147.886205 c -2.9066,0 -5.5116,0.683781 -8.3186,0.924288 0.4446,4.670448 0.9243,9.077427 0.9243,13.864332 0,1.271221 0.032,1.509347 0,2.772867 7.0867,-2.016092 14.4498,-2.772867 22.1829,-2.772867 18.7044,0 35.247,6.9493 48.9873,17.561484 -14.8746,-19.259217 -37.5588,-32.350104 -63.7759,-32.350104 z m 92.4288,118.308964 c -1.6643,6.13122 -3.1749,11.91324 -6.47,17.56149 8.2265,-2.10407 16.0736,-2.77287 24.9558,-2.77287 24.7601,0 46.886,9.53144 64.7002,24.03151 -18.9815,-23.31997 -47.0762,-38.82013 -79.4888,-38.82013 -1.2624,0 -2.4725,-0.0292 -3.6972,0 z m -257.8765,86.88315 c 4.1926,6.42873 5.7521,14.2181 7.3943,22.18293 l 5.5457,-10.16718 c -3.5101,-4.75531 -7.959,-8.36861 -12.94,-12.01575 z m 118.3089,0 c 4.1926,6.42873 5.7522,14.2181 7.3943,22.18293 l 5.5458,-10.16718 c -3.5101,-4.75531 -7.9591,-8.36861 -12.9401,-12.01575 z m 118.309,0 c 10.1683,15.59131 14.5186,36.99793 4.6214,57.3059 l -31.4258,62.85164 22.183,0 24.0315,-48.06302 c 9.8972,-20.30797 5.5468,-41.71459 -4.6215,-57.3059 -3.8083,-5.8395 -8.8555,-10.44435 -14.7886,-14.78862 z m -290.2267,1.84857 a 29.580202,29.580202 0 0 0 -22.1829,16.6372 l -88.7317,177.46345 a 29.764394,29.764394 0 0 0 14.7886,39.74441 29.764394,29.764394 0 0 1 0,-24.95579 l 88.7317,-177.46345 a 29.580202,29.580202 0 0 1 22.1829,-16.6372 29.580202,29.580202 0 0 1 3.6972,0 29.580202,29.580202 0 0 1 12.94,2.77287 29.580202,29.580202 0 0 0 -27.7286,-17.56149 29.580202,29.580202 0 0 0 -3.6972,0 z m 118.309,0 a 29.580202,29.580202 0 0 0 -22.1829,16.6372 l -88.7318,177.46345 a 29.764394,29.764394 0 0 0 14.7887,39.74441 29.764394,29.764394 0 0 1 0,-24.95579 l 88.7317,-177.46345 a 29.580202,29.580202 0 0 1 22.1829,-16.6372 29.580202,29.580202 0 0 1 3.6972,0 29.580202,29.580202 0 0 1 12.94,2.77287 29.580202,29.580202 0 0 0 -27.7287,-17.56149 29.580202,29.580202 0 0 0 -3.6971,0 z m 118.309,0 a 29.580202,29.580202 0 0 0 -22.183,16.6372 l -88.7317,177.46345 a 29.764418,29.764418 0 0 0 14.7886,39.74441 29.764418,29.764418 0 0 1 0,-24.95579 l 88.7317,-177.46345 a 29.580202,29.580202 0 0 1 22.183,-16.6372 29.580202,29.580202 0 0 1 3.6971,0 29.580202,29.580202 0 0 1 12.9401,2.77287 29.580202,29.580202 0 0 0 -27.7287,-17.56149 29.580202,29.580202 0 0 0 -3.6971,0 z"
           id="path3926"
           inkscape:connector-curvature="0" />
        <path
           style="fill:url(#linearGradient3827);fill-opacity:1;fill-rule:nonzero;stroke:none"
           d="m -3172.8296,-34.591347 c 22.5816,25.9659716 36.9715,59.012301 36.9715,96.126033 0,1.271221 0.032,1.509347 0,2.772866 4.4231,-1.258319 9.2032,-1.449202 13.8644,-1.848577 -3.6947,-38.807029 -23.0082,-72.849659 -50.8359,-97.050322 z m 122.9304,128.476137 c 10.6122,13.74033 17.5615,30.28295 17.5615,48.98731 0,14.92202 -3.1538,27.72247 -10.1672,39.74442 7.0573,-1.80501 13.8668,-2.5965 21.2587,-2.77287 1.8781,-6.91872 3.6971,-14.27169 3.6971,-22.18293 0,-26.21708 -13.0909,-48.90129 -32.3501,-63.77593 z m 111.8389,124.77899 c 14.5001,17.81419 24.0316,39.94013 24.0316,64.70021 0,52.52004 -38.9707,95.88262 -89.6561,102.59606 l 0.9243,0.92429 -44.3658,0 -7.3943,14.78862 66.5487,0 -0.9242,-0.92429 c 50.6854,-6.71344 89.656,-50.07602 89.656,-102.59606 0,-32.41263 -15.5002,-60.50728 -38.8202,-79.48883 z m -399.2927,20.33435 c -19.6902,3.09038 -35.8858,15.23707 -44.3659,33.2744 l -52.6844,106.29321 c -18.4572,-6.26624 -35.482,-16.17523 -49.9116,-28.65295 17.1474,19.71376 39.4033,34.85322 64.7002,43.44157 l 52.6844,-106.29321 c 8.4801,-18.03733 24.6757,-30.18402 44.3659,-33.2744 l 1.8486,0 0.9243,0 c 1.5394,-0.0964 3.0806,-0.0241 4.6214,0 0.9245,0.0145 1.8492,-0.0578 2.7729,0 l 0,0.92429 c 12.2919,0.22837 23.386,4.825 32.3501,11.09147 -9.8085,-14.31562 -26.5884,-25.49828 -47.1387,-25.88009 l 0,-0.92429 c -0.9237,-0.0578 -1.8484,0.0145 -2.7729,0 -1.5408,-0.0241 -3.082,-0.0964 -4.6214,0 l -0.9243,0 -1.8486,0 z m 118.309,0 c -19.6904,3.09038 -35.8859,15.23707 -44.3659,33.2744 l -2.7729,6.47002 c 0.671,0.90897 1.2375,1.8358 1.8486,2.77287 4.1926,6.42873 5.7521,14.2181 7.3943,22.18293 l 8.3186,-16.6372 c 8.48,-18.03733 24.6756,-30.18402 44.3659,-33.2744 l 1.8486,0 0.9242,0 c 1.5394,-0.0964 3.0806,-0.0241 4.6215,0 0.9245,0.0145 1.8492,-0.0578 2.7729,0 l 0,0.92429 c 12.292,0.22837 23.386,4.825 32.3501,11.09147 -9.8086,-14.31562 -26.5884,-25.49828 -47.1388,-25.88009 l 0,-0.92429 c -0.9236,-0.0578 -1.8483,0.0145 -2.7728,0 -1.5409,-0.0241 -3.0821,-0.0964 -4.6215,0 l -0.9243,0 -1.8485,0 z m 118.3089,0 c -19.6902,3.09038 -35.8858,15.23707 -44.3658,33.2744 l -2.7729,6.47002 c 0.6709,0.90897 1.2374,1.8358 1.8486,2.77287 4.1926,6.42873 5.7521,14.2181 7.3943,22.18293 l 8.3186,-16.6372 c 8.48,-18.03733 24.6756,-30.18402 44.3658,-33.2744 l 1.8486,0 0.9243,0 c 1.5394,-0.0964 3.0807,-0.0241 4.6214,0 0.9245,0.0145 1.8493,-0.0578 2.7729,0 l 0,0.92429 c 12.292,0.22837 23.386,4.825 32.3501,11.09147 -9.8084,-14.31562 -26.5884,-25.49828 -47.1387,-25.88009 l 0,-0.92429 c -0.9236,-0.0578 -1.8484,0.0145 -2.7729,0 -1.5408,-0.0241 -3.082,-0.0964 -4.6214,0 l -0.9243,0 -1.8486,0 z m -200.5706,47.13873 a 29.580202,29.580202 0 0 1 0,24.9558 l -88.7318,177.46344 a 29.764394,29.764394 0 0 1 -38.8201,13.86433 29.764394,29.764394 0 0 0 53.6087,0.92429 l 88.7318,-177.46344 a 29.580202,29.580202 0 0 0 -14.7886,-39.74442 z m 118.3089,0 a 29.580202,29.580202 0 0 1 0,24.9558 l -88.7317,177.46344 a 29.764394,29.764394 0 0 1 -38.8201,13.86433 29.764394,29.764394 0 0 0 53.6087,0.92429 l 88.7317,-177.46344 a 29.580202,29.580202 0 0 0 -14.7886,-39.74442 z m 118.309,0 a 29.580202,29.580202 0 0 1 0,24.9558 l -88.7317,177.46344 a 29.764418,29.764418 0 0 1 -38.8202,13.86433 29.764418,29.764418 0 0 0 53.6088,0.92429 l 88.7317,-177.46344 a 29.580202,29.580202 0 0 0 -14.7886,-39.74442 z"
           id="path3805"
           inkscape:connector-curvature="0" />
        <path
           style="fill:url(#linearGradient3081);fill-opacity:1;fill-rule:nonzero;stroke:none"
           d="m -2305.8469,-71.562899 c -66.0559,0 -122.9016,36.13802 -153.4319,89.656011 6.4671,2.912454 12.4775,6.580957 18.4857,10.167177 24.4149,-39.761481 63.3679,-69.542707 109.9904,-80.413124 14.8981,-9.030832 31.9412,-14.913599 49.9116,-17.561487 -8.0681,-1.122885 -16.5785,-1.848577 -24.9558,-1.848577 z m -223.6779,118.308964 c -71.4659,0 -129.4004,57.934535 -129.4004,129.400425 0,10.98788 1.1194,21.23907 3.6971,31.42582 -54.3073,15.36535 -94.2774,64.62734 -94.2774,123.8547 0,39.50206 18.3125,74.23935 46.2144,97.97461 -19.2058,-22.5774 -31.4258,-51.22213 -31.4258,-83.18599 0,-59.22736 39.9702,-108.48935 94.2775,-123.8547 -2.5777,-10.18675 -3.6972,-20.43794 -3.6972,-31.42582 0,-71.4659 57.9345,-129.400425 129.4004,-129.400425 31.9639,0 60.6086,12.219952 83.186,31.425819 -23.7353,-27.901927 -58.4725,-46.214439 -97.9746,-46.214439 z m 129.4004,14.78862 c 2.1711,2.451338 4.4346,4.805042 6.4701,7.39431 -0.036,-0.6261 0.091,-1.247269 0,-1.848577 -2.0255,-1.972648 -4.3508,-3.679238 -6.4701,-5.545733 z m 269.8924,19.410064 c -9.4641,64.230021 -64.3894,113.687521 -131.249,113.687521 -6.0285,0 -11.836,-0.87536 -17.5615,-1.84858 7.4982,13.90891 12.6718,29.72602 13.8643,46.21444 4.5956,1.10095 8.5876,3.06166 12.9401,4.62144 -2.2086,-12.74016 -6.1007,-25.0749 -12.0158,-36.04726 5.7255,0.97322 11.533,1.84858 17.5615,1.84858 48.1535,0 90.4402,-25.42518 113.6875,-63.77593 2.9546,-12.79054 4.6215,-26.03531 4.6215,-39.74441 0,-8.377242 -0.7257,-16.887736 -1.8486,-24.955801 z m -250.4823,95.201741 c -2.2555,0 -4.2835,0.70951 -6.47,0.92429 0.509,4.66347 1.8486,9.06539 1.8486,13.86433 0,1.11232 0.028,1.66729 0,2.77287 6.2009,-1.76408 12.6434,-2.77287 19.41,-2.77287 14.7399,0 28.3856,4.34188 39.7445,12.01576 -13.0512,-15.96852 -32.301,-26.80438 -54.5331,-26.80438 z m 83.186,103.52035 c -1.5404,6.15171 -3.2516,12.04468 -6.47,17.56148 7.1981,-1.84106 14.411,-2.77286 22.1829,-2.77286 21.1508,0 40.042,8.18494 55.4573,20.33435 -16.5866,-21.0453 -41.3705,-35.12297 -70.2459,-35.12297 -0.3189,0 -0.6073,-0.003 -0.9243,0 z"
           id="path3894"
           inkscape:connector-curvature="0" />
      </g>
    </g>
  </g>
</svg>
