<?xml version="1.0" encoding="UTF-8"?>
<!-- Created with Inkscape (http://www.inkscape.org/) -->
<svg id="svg4188" width="32" height="32" version="1.0" xmlns="http://www.w3.org/2000/svg" xmlns:xlink="http://www.w3.org/1999/xlink">
 <defs id="defs4190">
  <radialGradient id="radialGradient2739" cx="32" cy="41.5" r="21" gradientTransform="matrix(.37849 0 0 .15099 8.5026 22.73)" gradientUnits="userSpaceOnUse">
   <stop id="stop5062-9" offset="0"/>
   <stop id="stop5064-1" style="stop-opacity:0" offset="1"/>
  </radialGradient>
  <radialGradient id="radialGradient2713" cx="70.716" cy="36.978" r="16" gradientTransform="matrix(.62061 0 0 .18455 -24.895 18.332)" gradientUnits="userSpaceOnUse" xlink:href="#linearGradient6954"/>
  <linearGradient id="linearGradient2710" x1="29.968" x2="30" y1="21.687" y2="43.309" gradientTransform="matrix(.45161 0 0 .44529 7.9516 10.685)" gradientUnits="userSpaceOnUse" xlink:href="#linearGradient3341"/>
  <linearGradient id="linearGradient6954">
   <stop id="stop6960" style="stop-color:#f5f5f5" offset="0"/>
   <stop id="stop6962" style="stop-color:#d2d2d2" offset="1"/>
  </linearGradient>
  <radialGradient id="radialGradient2707" cx="67.364" cy="20.644" r="8" gradientTransform="matrix(.19927 .67272 -.71666 .20486 21.946 -35.063)" gradientUnits="userSpaceOnUse" xlink:href="#linearGradient6954"/>
  <linearGradient id="linearGradient2704" x1="22" x2="17" y1="39" y2="37.438" gradientTransform="matrix(.66722 0 0 .38098 4.09 13.299)" gradientUnits="userSpaceOnUse" xlink:href="#linearGradient5060-7"/>
  <linearGradient id="linearGradient3341">
   <stop id="stop3343" style="stop-color:#fff" offset="0"/>
   <stop id="stop3345" style="stop-color:#fff;stop-opacity:0" offset="1"/>
  </linearGradient>
  <linearGradient id="linearGradient2701" x1="29.998" x2="30" y1="6.7808" y2="26.283" gradientTransform="matrix(.35899 0 0 .38414 10.73 11.387)" gradientUnits="userSpaceOnUse" xlink:href="#linearGradient3341"/>
  <linearGradient id="linearGradient5060-7">
   <stop id="stop5062-5" offset="0"/>
   <stop id="stop5064-4" style="stop-opacity:0" offset="1"/>
  </linearGradient>
  <linearGradient id="linearGradient2698" x1="22" x2="17" y1="39" y2="37.438" gradientTransform="matrix(-.66722 0 0 .38098 38.396 13.396)" gradientUnits="userSpaceOnUse" xlink:href="#linearGradient5060-7"/>
  <linearGradient id="linearGradient2457" x1="302.86" x2="302.86" y1="366.65" y2="609.51" gradientTransform="matrix(.051143 0 0 .015916 -2.49 22.299)" gradientUnits="userSpaceOnUse">
   <stop id="stop2667" style="stop-opacity:0" offset="0"/>
   <stop id="stop2669" offset=".5"/>
   <stop id="stop2671" style="stop-opacity:0" offset="1"/>
  </linearGradient>
  <radialGradient id="radialGradient2459" cx="605.71" cy="486.65" r="117.14" gradientTransform="matrix(.019836 0 0 .015916 16.388 22.299)" gradientUnits="userSpaceOnUse">
   <stop id="stop2675" offset="0"/>
   <stop id="stop2677" style="stop-opacity:0" offset="1"/>
  </radialGradient>
  <radialGradient id="radialGradient2461" cx="605.71" cy="486.65" r="117.14" gradientTransform="matrix(-.019836 0 0 .015916 15.601 22.299)" gradientUnits="userSpaceOnUse">
   <stop id="stop2681" offset="0"/>
   <stop id="stop2683" style="stop-opacity:0" offset="1"/>
  </radialGradient>
  <linearGradient id="linearGradient2479" x1="11.566" x2="15.215" y1="22.292" y2="33.955" gradientTransform="matrix(.65153 0 0 .67605 .36035 .18497)" gradientUnits="userSpaceOnUse">
   <stop id="stop2687" style="stop-color:#fff;stop-opacity:.27451" offset="0"/>
   <stop id="stop2689" style="stop-color:#fff;stop-opacity:.078431" offset="1"/>
  </linearGradient>
  <radialGradient id="radialGradient2482" cx="7.2647" cy="8.3021" r="20.98" gradientTransform="matrix(0 .73863 -.99849 0 17.149 6.854)" gradientUnits="userSpaceOnUse">
   <stop id="stop2693" style="stop-color:#fff;stop-opacity:.4" offset="0"/>
   <stop id="stop2695" style="stop-color:#fff;stop-opacity:0" offset="1"/>
  </radialGradient>
  <linearGradient id="linearGradient2485" x1="22.935" x2="22.809" y1="49.629" y2="36.658" gradientTransform="matrix(.74675 0 0 .65549 -1.9221 1.1676)" gradientUnits="userSpaceOnUse">
   <stop id="stop2661" style="stop-color:#0a0a0a;stop-opacity:.498" offset="0"/>
   <stop id="stop2663" style="stop-color:#0a0a0a;stop-opacity:0" offset="1"/>
  </linearGradient>
  <radialGradient id="radialGradient2488" cx="63.969" cy="14.113" r="23.097" gradientTransform="matrix(1.008 -6.1246e-8 3.9794e-8 .65396 -55.005 6.1062)" gradientUnits="userSpaceOnUse">
   <stop id="stop3618" style="stop-color:#f0c178" offset="0"/>
   <stop id="stop3270" style="stop-color:#e18941" offset=".5"/>
   <stop id="stop3620" style="stop-color:#ec4f18" offset="1"/>
  </radialGradient>
  <linearGradient id="linearGradient2490" x1="82.453" x2="82.453" y1="45.114" y2="10.826" gradientTransform="matrix(.64421 0 0 .64373 -34.103 .78876)" gradientUnits="userSpaceOnUse">
   <stop id="stop3624" style="stop-color:#bb2b12" offset="0"/>
   <stop id="stop3626" style="stop-color:#cd7233" offset="1"/>
  </linearGradient>
  <linearGradient id="linearGradient2494" x1="62.989" x2="62.989" y1="13.183" y2="16.19" gradientTransform="matrix(.64168 0 0 .6402 -32.15 1.0109)" gradientUnits="userSpaceOnUse">
   <stop id="stop6406" style="stop-color:#f9f9f9" offset="0"/>
   <stop id="stop6408" style="stop-color:#c9c9c9" offset="1"/>
  </linearGradient>
  <radialGradient id="radialGradient2496" cx="3" cy="5.0172" r="21" gradientTransform="matrix(0 1.0975 -1.3856 0 8.757 2.8399)" gradientUnits="userSpaceOnUse">
   <stop id="stop3486" style="stop-color:#bdbdbd" offset="0"/>
   <stop id="stop3488" style="stop-color:#d0d0d0" offset="1"/>
  </radialGradient>
 </defs>
 <g id="g2458" transform="translate(0 -1)">
  <rect id="rect2925" x="3.6472" y="28.135" width="24.695" height="3.8653" style="fill:url(#linearGradient2457);opacity:.3"/>
  <path id="path2927" d="m28.342 28.135v3.865c1.0215 0.007276 2.4695-0.86596 2.4695-1.9328 0-1.0668-1.1399-1.9323-2.4695-1.9323z" style="fill:url(#radialGradient2459);opacity:.3"/>
  <path id="path2929" d="m3.6472 28.135v3.865c-1.0215 0.007276-2.4695-0.86596-2.4695-1.9328 0-1.0668 1.1399-1.9323 2.4695-1.9323z" style="fill:url(#radialGradient2461);opacity:.3"/>
 </g>
 <path id="path2882" d="m3 6.5074c-0.44293 0.004911-0.5 0.21904-0.5 0.6402 0 3.5304 0.02059 6.1805 0 9.3885 0.92111 0 27.015-2.3686 27.015-3.3881v-3.9659c0-0.42116-0.35562-0.64512-0.79855-0.6402h-12.778c-1.3138 0-2.2452-2.0345-3.2084-2.0345h-9.7293z" style="fill:url(#linearGradient2494);stroke-linecap:round;stroke-linejoin:round;stroke:url(#radialGradient2496)"/>
 <rect id="rect2892" x="4" y="8" width="8" height="1" rx=".61538" ry=".5" style="display:block;fill:#eda374"/>
 <path id="path2931" d="m1.9268 11.5c-0.69105 0.079626-0.32196 0.90258-0.37705 1.3654 0.080193 0.29906 0.59771 15.718 0.59771 16.247 0 0.46018 0.22667 0.38221 0.80101 0.38221h26.397c0.61873 0.014345 0.48797 0.007477 0.48797-0.38947 0.045223-0.20268 0.63993-16.978 0.66282-17.243 0-0.27899 0.058099-0.3621-0.30493-0.3621h-28.265z" style="fill:url(#radialGradient2488);stroke-linecap:round;stroke-linejoin:round;stroke:url(#linearGradient2490)"/>
 <path id="path2933" d="m1.6818 11 28.636 2.66e-4c0.4137 0 0.68182 0.29209 0.68182 0.65524l-0.67351 17.712c0.009567 0.45948-0.1364 0.64167-0.61707 0.63203l-27.256-0.011542c-0.4137 0-0.83087-0.27117-0.83087-0.63432l-0.62243-17.698c0-0.36314 0.26812-0.65549 0.68182-0.65549z" style="fill:url(#linearGradient2485);opacity:.4"/>
 <path id="path2935" d="m29.5 12.5h-27c0.23651 5 0.47301 10 0.70952 15" style="fill:none;stroke-linecap:round;stroke-linejoin:round;stroke:url(#radialGradient2482)"/>
 <path id="path2937" d="m30.406 11.017c-9.4796 0.049587-19.2-0.029713-28.681-0.015414-1.1772 0.27794-0.54364 1.6676-0.63357 2.5497 0.14466 2.8146 0.21049 5.6416 0.40425 8.4485 9.7734-1.5974 19.498-3.1147 29.1-4.7659 0.50884-1.7487 0.37188-4.9049 0.39858-5.5444 0.05125-0.45671-0.24538-0.68013-0.58847-0.67248z" style="fill:url(#linearGradient2479)"/>
 <path id="path3823-1" d="m28.563 28.996c-3.22e-4 1.7511-3.5588 3.1705-7.9483 3.1705s-7.9479-1.4195-7.9483-3.1705c-3.21e-4 -1.7512 3.5583-3.171 7.9483-3.171s7.9486 1.4197 7.9483 3.171z" style="fill:url(#radialGradient2739);opacity:.8"/>
 <path id="path3766-9" d="m19.899 19.813-0.060308 2.6717c-1.3145 1.0753-4.8917 1.5585-4.8867 2.6717l-0.45161 3.3396c0 1.1067 3.134 2.0038 7 2.0038 3.866 0 7-0.89712 7-2.0038l-0.45162-3.3396c-0.005277-0.95276-3.6023-1.5585-4.9007-2.6717l-0.046308-2.6717h-3.2027z" style="fill:url(#radialGradient2713);stroke-width:.99997;stroke:#808080"/>
 <path id="path4094" d="m20.962 20.887c-0.087166 0.73365 0.14201 1.5388-0.24071 2.2143-0.5695 0.70754-1.4958 0.95972-2.3035 1.3045-0.83316 0.29449-1.6956 0.54128-2.4551 1.0015 0.075223 0.14563-0.070565 0.65948-0.08417 0.96313-0.08915 0.70247-0.1783 1.4049-0.26745 2.1074 0.68926 0.20304 1.3359 0.54184 2.0622 0.61396 2.5485 0.49828 5.1928 0.44059 7.7443-0.003819 0.64813-0.12185 1.2703-0.35196 1.8652-0.62342 0.19821-0.333-0.04312-0.74731-0.034074-1.1236-0.076368-0.61549-0.15274-1.2309-0.22911-1.8464-1.4952-0.9172-3.403-1.0961-4.6959-2.3451-0.4561-0.64674-0.17493-1.4608-0.29393-2.1825-0.28232-0.18234-0.68505-0.038392-1.0241-0.07989h-0.032279-0.011434z" style="fill:none;opacity:.4;stroke:url(#linearGradient2710)"/>
 <path id="path3764-3" d="m21.5 13.5c-1.487 0-2.6924 1.2039-2.6924 2.689 0.011654 0.54961 0.055476 1.2025 0.35898 2.689 0.17949 0.57622 1.7805 2.1128 1.7949 2.3049 0.3481 0.19207 0.89746 0.19207 1.2565 0 0-0.19207 1.4359-1.7286 1.6154-2.3049 0.34153-1.5449 0.34066-2.1128 0.35898-2.689 0-1.4851-1.2054-2.689-2.6924-2.689z" style="fill:url(#radialGradient2707);stroke-width:.99978;stroke:#999"/>
 <path id="path3848-9" d="m18.102 29.757c-1.5762-0.75517-0.8246-2.4317-0.66722-3.505-0.66722 0.76196-0.33127 2.8916-1.6657 2.8916 0.88963 0.31161 1.4986 0.52415 2.3329 0.61337z" style="fill:url(#linearGradient2704);opacity:.3"/>
 <path id="path4066" d="m21.5 14.523c-0.8603-0.023896-1.6461 0.73203-1.6427 1.5803-0.01325 0.68938 0.13299 1.3696 0.24842 2.0466 0.029867 0.26556 0.10684 0.51112 0.30337 0.70441 0.36017 0.47698 0.76085 0.92312 1.1583 1.3701 0.40778-0.52741 0.82498-1.0481 1.2115-1.5911 0.16429-0.89782 0.422-1.7992 0.35181-2.7194-0.10659-0.77071-0.83294-1.4128-1.6307-1.3909z" style="fill:none;opacity:.4;stroke:url(#linearGradient2701)"/>
 <path id="path2976" d="m24.384 29.854c1.5762-0.75517 0.8246-2.4317 0.66722-3.505 0.66722 0.76196 0.33127 2.8916 1.6657 2.8916-0.88963 0.31161-1.4986 0.52415-2.3329 0.61337z" style="fill:url(#linearGradient2698);opacity:.3"/>
</svg>
