<?xml version="1.0" encoding="UTF-8"?>
<!-- Created with Inkscape (http://www.inkscape.org/) -->
<svg id="svg3770" width="32" height="32" version="1.0" xmlns="http://www.w3.org/2000/svg" xmlns:xlink="http://www.w3.org/1999/xlink">
 <defs id="defs3772">
  <radialGradient id="radialGradient2496" cx="3" cy="5.0172" r="21" gradientTransform="matrix(0 1.0975 -1.3856 0 8.757 2.8399)" gradientUnits="userSpaceOnUse">
   <stop id="stop3486" style="stop-color:#bdbdbd" offset="0"/>
   <stop id="stop3488" style="stop-color:#d0d0d0" offset="1"/>
  </radialGradient>
  <linearGradient id="linearGradient2494" x1="62.989" x2="62.989" y1="13.183" y2="16.19" gradientTransform="matrix(.64168 0 0 .6402 -32.15 1.0109)" gradientUnits="userSpaceOnUse">
   <stop id="stop6406" style="stop-color:#f9f9f9" offset="0"/>
   <stop id="stop6408" style="stop-color:#c9c9c9" offset="1"/>
  </linearGradient>
  <linearGradient id="linearGradient2490" x1="82.453" x2="82.453" y1="45.114" y2="10.826" gradientTransform="matrix(.64421 0 0 .64373 -34.103 .78876)" gradientUnits="userSpaceOnUse">
   <stop id="stop3624" style="stop-color:#bb2b12" offset="0"/>
   <stop id="stop3626" style="stop-color:#cd7233" offset="1"/>
  </linearGradient>
  <radialGradient id="radialGradient2488" cx="63.969" cy="14.113" r="23.097" gradientTransform="matrix(1.008 -6.1246e-8 3.9794e-8 .65396 -55.005 6.1062)" gradientUnits="userSpaceOnUse">
   <stop id="stop3618" style="stop-color:#f0c178" offset="0"/>
   <stop id="stop3270" style="stop-color:#e18941" offset=".5"/>
   <stop id="stop3620" style="stop-color:#ec4f18" offset="1"/>
  </radialGradient>
  <linearGradient id="linearGradient2485" x1="22.935" x2="22.809" y1="49.629" y2="36.658" gradientTransform="matrix(.74675 0 0 .65549 -1.9221 1.1676)" gradientUnits="userSpaceOnUse">
   <stop id="stop2661" style="stop-color:#0a0a0a;stop-opacity:.498" offset="0"/>
   <stop id="stop2663" style="stop-color:#0a0a0a;stop-opacity:0" offset="1"/>
  </linearGradient>
  <radialGradient id="radialGradient2482" cx="7.2647" cy="8.3021" r="20.98" gradientTransform="matrix(0 .73863 -.99849 0 17.149 6.854)" gradientUnits="userSpaceOnUse">
   <stop id="stop2693" style="stop-color:#fff;stop-opacity:.4" offset="0"/>
   <stop id="stop2695" style="stop-color:#fff;stop-opacity:0" offset="1"/>
  </radialGradient>
  <linearGradient id="linearGradient2479" x1="11.566" x2="15.215" y1="22.292" y2="33.955" gradientTransform="matrix(.65153 0 0 .67605 .36035 .18497)" gradientUnits="userSpaceOnUse">
   <stop id="stop2687" style="stop-color:#fff;stop-opacity:.27451" offset="0"/>
   <stop id="stop2689" style="stop-color:#fff;stop-opacity:.078431" offset="1"/>
  </linearGradient>
  <linearGradient id="linearGradient3299" x1="5.45" x2="5.45" y1="-.38195" y2="18.299" gradientTransform="matrix(.85278 0 0 .85648 13.352 15.327)" gradientUnits="userSpaceOnUse">
   <stop id="stop3934" style="stop-color:#828282" offset="0"/>
   <stop id="stop3936" style="stop-color:#434343" offset="1"/>
  </linearGradient>
  <linearGradient id="linearGradient3294" x1="7.3377" x2="19.16" y1=".5881" y2="22.795" gradientTransform="matrix(.65813 0 0 .66745 13.392 15.787)" gradientUnits="userSpaceOnUse">
   <stop id="stop3375" style="stop-color:#4d4d4d" offset="0"/>
   <stop id="stop3377" style="stop-color:#3c3c3c" offset="1"/>
  </linearGradient>
  <linearGradient id="linearGradient3766" x1="17" x2="17" y1="15" y2="30" gradientUnits="userSpaceOnUse">
   <stop id="stop3668" style="stop-color:#eebc84" offset="0"/>
   <stop id="stop3670" style="stop-color:#d5501c" offset="1"/>
  </linearGradient>
  <linearGradient id="linearGradient3768" x1="17" x2="17" y1="15" y2="30" gradientUnits="userSpaceOnUse">
   <stop id="stop2930" style="stop-color:#eb743e" offset="0"/>
   <stop id="stop2932" style="stop-color:#d74817" offset="1"/>
  </linearGradient>
  <radialGradient id="radialGradient3860" cx="605.71" cy="486.65" r="117.14" gradientTransform="matrix(-.019836 0 0 .015916 15.601 21.299)" gradientUnits="userSpaceOnUse">
   <stop id="stop2681" offset="0"/>
   <stop id="stop2683" style="stop-opacity:0" offset="1"/>
  </radialGradient>
  <radialGradient id="radialGradient3863" cx="605.71" cy="486.65" r="117.14" gradientTransform="matrix(.019836 0 0 .015916 16.388 21.299)" gradientUnits="userSpaceOnUse">
   <stop id="stop2675" offset="0"/>
   <stop id="stop2677" style="stop-opacity:0" offset="1"/>
  </radialGradient>
  <linearGradient id="linearGradient3866" x1="302.86" x2="302.86" y1="366.65" y2="609.51" gradientTransform="matrix(.051143 0 0 .015916 -2.49 21.299)" gradientUnits="userSpaceOnUse">
   <stop id="stop2667" style="stop-opacity:0" offset="0"/>
   <stop id="stop2669" offset=".5"/>
   <stop id="stop2671" style="stop-opacity:0" offset="1"/>
  </linearGradient>
  <linearGradient id="linearGradient3349" x1="12.938" x2="15.25" y1="8.4375" y2="19.812" gradientTransform="matrix(.19048 0 0 .66667 16.429 13)" gradientUnits="userSpaceOnUse">
   <stop id="stop6594" style="stop-color:#fff;stop-opacity:.35294" offset="0"/>
   <stop id="stop6596" style="stop-color:#fff;stop-opacity:0" offset="1"/>
  </linearGradient>
  <linearGradient id="linearGradient4432-9-2">
   <stop id="stop4434-0-8" style="stop-color:#f6b2ee" offset="0"/>
   <stop id="stop4436-9-1" style="stop-color:#d979cd" offset=".26238"/>
   <stop id="stop4438-1-2" style="stop-color:#753da6" offset="1"/>
  </linearGradient>
  <radialGradient id="radialGradient4389" cx="33" cy="37.277" r="8" gradientTransform="matrix(.80991 -.42478 .41544 .65365 -21.414 15.592)" gradientUnits="userSpaceOnUse" xlink:href="#linearGradient4432-9-2"/>
  <radialGradient id="radialGradient4414" cx="33" cy="37.277" r="8" gradientTransform="matrix(.80991 -.42478 .41544 .65365 -21.414 7.5916)" gradientUnits="userSpaceOnUse" xlink:href="#linearGradient4432-9-2"/>
 </defs>
 <g id="layer1">
  <rect id="rect2925" x="3.6472" y="27.135" width="24.695" height="3.8653" style="fill:url(#linearGradient3866);opacity:.3"/>
  <path id="path2927" d="m28.342 27.135v3.865c1.0215 0.0073 2.4695-0.86596 2.4695-1.9328 0-1.0668-1.1399-1.9323-2.4695-1.9323z" style="fill:url(#radialGradient3863);opacity:.3"/>
  <path id="path2929" d="m3.6472 27.135v3.865c-1.0215 0.0073-2.4695-0.86596-2.4695-1.9328 0-1.0668 1.1399-1.9323 2.4695-1.9323z" style="fill:url(#radialGradient3860);opacity:.3"/>
  <path id="path2882" d="m3 6.5074c-0.44293 0.00491-0.5 0.21904-0.5 0.6402 0 3.5304 0.02059 6.1805 0 9.3885 0.92111 0 27.015-2.3686 27.015-3.3881v-3.9659c0-0.42116-0.35562-0.64512-0.79855-0.6402h-12.778c-1.3138 0-2.2452-2.0345-3.2084-2.0345h-9.7293z" style="fill:url(#linearGradient2494);stroke-linecap:round;stroke-linejoin:round;stroke:url(#radialGradient2496)"/>
  <rect id="rect2892" x="4" y="8" width="8" height="1" rx=".61538" ry=".5" style="display:block;fill:#eda374"/>
  <path id="path2931" d="m1.9268 11.5c-0.69105 0.07963-0.32196 0.90258-0.37705 1.3654 0.080193 0.29906 0.59771 15.718 0.59771 16.247 0 0.46018 0.22667 0.38221 0.80101 0.38221h26.397c0.61873 0.01434 0.48797 0.0075 0.48797-0.38947 0.04522-0.20268 0.63993-16.978 0.66282-17.243 0-0.27899 0.0581-0.3621-0.30493-0.3621h-28.265z" style="fill:url(#radialGradient2488);stroke-linecap:round;stroke-linejoin:round;stroke:url(#linearGradient2490)"/>
  <path id="path2933" d="m1.6818 11 28.636 2.66e-4c0.4137 0 0.68182 0.29209 0.68182 0.65524l-0.67351 17.712c0.0096 0.45948-0.1364 0.64167-0.61707 0.63203l-27.256-0.011542c-0.4137 0-0.83087-0.27117-0.83087-0.63432l-0.62243-17.698c0-0.36314 0.26812-0.65549 0.68182-0.65549z" style="fill:url(#linearGradient2485);opacity:.4"/>
  <path id="path2935" d="m29.5 12.5h-27c0.23651 5 0.47301 10 0.70952 15" style="fill:none;stroke-linecap:round;stroke-linejoin:round;stroke:url(#radialGradient2482)"/>
  <path id="path2937" d="m30.406 11.017c-9.4796 0.049587-19.2-0.029713-28.681-0.015414-1.1772 0.27794-0.54364 1.6676-0.63357 2.5497 0.14466 2.8146 0.21049 5.6416 0.40425 8.4485 9.7734-1.5974 19.498-3.1147 29.1-4.7659 0.50884-1.7487 0.37188-4.9049 0.39858-5.5444 0.05125-0.45671-0.24538-0.68013-0.58847-0.67248z" style="fill:url(#linearGradient2479)"/>
  <path id="path3385" d="m16.635 30.5h-2.016c-0.17143-0.16749-0.07827-0.42754-0.119-0.66466v-15.127l0.019-0.208h2.087m8.7802-4.8e-5h2.0028c0.09887 0 0.111 0.37064 0.111 0.66325v15.228c-0.16858 0.17022-0.43229 0.05955-0.67095 0.1l-1.4251 9e-3" style="display:block;fill:url(#linearGradient3299);stroke-linejoin:round;stroke:#333"/>
  <rect id="rect3457" x="16.532" y="14.491" width="8.9704" height="16.011" rx="0" ry="0" style="fill:url(#linearGradient3294);stroke:#333"/>
  <rect id="rect4412" x="16.483" y="14.455" width="9.0172" height="8.0448" rx="0" ry="0" style="fill:url(#radialGradient4414);opacity:.6;stroke:#333"/>
  <path id="path4320" d="m16.5 22.5h8.4845" style="display:block;fill:none;stroke-linecap:square;stroke-linejoin:round;stroke:#464646"/>
  <rect id="rect2704-7" x="16.483" y="22.455" width="9.0172" height="8.0448" rx="0" ry="0" style="fill:url(#radialGradient4389);opacity:.6;stroke:#333"/>
  <path id="path4820" d="m17.5 23.5h7m-7-8h7" style="display:block;fill:none;opacity:.27;stroke-linecap:square;stroke-linejoin:round;stroke:#fff"/>
  <path id="path3762" d="m15 15h1v1h-1v-1zm0 2h1v1h-1v-1zm0 2h1v1h-1v-1zm0 2h1v1h-1v-1zm0 2h1v1h-1v-1zm0 2h1v1h-1v-1zm0 2h1v1h-1v-1zm0 2h1v1h-1v-1z" style="fill:url(#linearGradient3766);opacity:.8"/>
  <path id="path3746" d="m26 15h1v1h-1v-1zm0 2h1v1h-1v-1zm0 2h1v1h-1v-1zm0 2h1v1h-1v-1zm0 2h1v1h-1v-1zm0 2h1v1h-1v-1zm0 2h1v1h-1v-1zm0 2h1v1h-1v-1z" style="fill:url(#linearGradient3768);opacity:.8"/>
 </g>
 <path id="rect6588" d="m17 15h8v6.5833l-8 3.4167v-10z" style="fill:url(#linearGradient3349)"/>
</svg>
