<?xml version="1.0" encoding="UTF-8"?>
<!-- Created with Inkscape (http://www.inkscape.org/) -->
<svg id="svg3215" width="15" height="22" version="1.0" xmlns="http://www.w3.org/2000/svg" xmlns:cc="http://creativecommons.org/ns#" xmlns:dc="http://purl.org/dc/elements/1.1/" xmlns:rdf="http://www.w3.org/1999/02/22-rdf-syntax-ns#">
 <metadata id="metadata10">
  <rdf:RDF>
   <cc:Work rdf:about="">
    <dc:format>image/svg+xml</dc:format>
    <dc:type rdf:resource="http://purl.org/dc/dcmitype/StillImage"/>
    <dc:title/>
   </cc:Work>
  </rdf:RDF>
 </metadata>
 <path id="rect2406-4" d="m6.5 4.5h2c2.216 0 4 1.338 4 3v9c0 1.662-1.784 3-4 3h-2c-2.216 0-4-1.338-4-3v-9c0-1.662 1.784-3 4-3zm1.0419 1e-6v4" style="fill:none;opacity:.3;stroke-linecap:round;stroke:#000"/>
 <g id="g3195" transform="translate(-5,-1)" style="opacity:.3;stroke:#df382c">
  <path id="path3193" d="m12.5 5.3333v3.3333" style="fill:none;stroke-linecap:round;stroke-width:2;stroke:#df382c"/>
  <rect id="rect3236" transform="rotate(-90)" x="-18.75" y="8.25" width="13.5" height="8.5" rx="2.3" ry="3.3001" style="fill:none;stroke-linecap:round;stroke-width:.5;stroke:#df382c"/>
 </g>
 <path id="rect2406" d="m6.5 3.5h2c2.216 0 4 1.338 4 3v9c0 1.662-1.784 3-4 3h-2c-2.216 0-4-1.338-4-3v-9c0-1.662 1.784-3 4-3zm1.0419 1e-6v4" style="fill:none;stroke-linecap:round;stroke:#df382c"/>
</svg>
