<?xml version="1.0" encoding="UTF-8"?>
<!-- Created with Inkscape (http://www.inkscape.org/) -->
<svg id="svg2816" width="20" height="22" version="1.0" xmlns="http://www.w3.org/2000/svg" xmlns:cc="http://creativecommons.org/ns#" xmlns:dc="http://purl.org/dc/elements/1.1/" xmlns:rdf="http://www.w3.org/1999/02/22-rdf-syntax-ns#">
 <metadata id="metadata10">
  <rdf:RDF>
   <cc:Work rdf:about="">
    <dc:format>image/svg+xml</dc:format>
    <dc:type rdf:resource="http://purl.org/dc/dcmitype/StillImage"/>
    <dc:title/>
   </cc:Work>
  </rdf:RDF>
 </metadata>
 <path id="path2817-1" d="m11.262 12.499h-1.762v-2.5" style="fill:none;opacity:.3;stroke-linecap:round;stroke-linejoin:round;stroke-width:1px;stroke:#000"/>
 <path id="path2396-1" d="m9.5 5c-4.14 0-7.5 3.36-7.5 7.5 0 4.14 3.36 7.5 7.5 7.5 1.9648 0 3.7561-0.76222 5.0938-2h5.4062l-3.3438-3.3438c0.20794-0.68762 0.34375-1.4011 0.34375-2.1562 0-4.14-3.36-7.5-7.5-7.5zm0 3c2.484 0 4.5 2.016 4.5 4.5s-2.016 4.5-4.5 4.5-4.5-2.016-4.5-4.5 2.016-4.5 4.5-4.5z" style="fill-rule:evenodd;opacity:.3"/>
 <path id="path2396" d="m9.5 4c-4.14 0-7.5 3.36-7.5 7.5 0 4.14 3.36 7.5 7.5 7.5 1.9648 0 3.7561-0.76222 5.0938-2h5.4062l-3.3438-3.3438c0.20794-0.68762 0.34375-1.4011 0.34375-2.1562 0-4.14-3.36-7.5-7.5-7.5zm0 3c2.484 0 4.5 2.016 4.5 4.5s-2.016 4.5-4.5 4.5-4.5-2.016-4.5-4.5 2.016-4.5 4.5-4.5z" style="fill-rule:evenodd;fill:#dfdbd2"/>
 <path id="path2817" d="m11.262 11.499h-1.762v-2.5" style="fill:none;stroke-linecap:round;stroke-linejoin:round;stroke-width:1px;stroke:#dfdbd2"/>
</svg>
