<?xml version="1.0" encoding="UTF-8" standalone="no"?>
<!-- Created with Inkscape (http://www.inkscape.org/) -->

<svg
   xmlns:dc="http://purl.org/dc/elements/1.1/"
   xmlns:cc="http://creativecommons.org/ns#"
   xmlns:rdf="http://www.w3.org/1999/02/22-rdf-syntax-ns#"
   xmlns:svg="http://www.w3.org/2000/svg"
   xmlns="http://www.w3.org/2000/svg"
   xmlns:xlink="http://www.w3.org/1999/xlink"
   xmlns:sodipodi="http://sodipodi.sourceforge.net/DTD/sodipodi-0.dtd"
   xmlns:inkscape="http://www.inkscape.org/namespaces/inkscape"
   id="svg7384"
   height="15.999999"
   width="15.999999"
   version="1.1"
   inkscape:version="0.48.3.1 r9886"
   sodipodi:docname="folder-remote-symbolic.svg">
  <defs
     id="defs10">
    <linearGradient
       y2="438.10736"
       x2="850.28296"
       y1="959.67291"
       x1="850.28296"
       gradientTransform="matrix(0.03906612,0,0,0.03906612,285.84682,1722.0478)"
       gradientUnits="userSpaceOnUse"
       id="linearGradient3334-0"
       xlink:href="#linearGradient6600-4-2-4-7-2-1"
       inkscape:collect="always" />
    <linearGradient
       id="linearGradient6600-4-2-4-7-2-1">
      <stop
         style="stop-color:#c86b32;stop-opacity:1;"
         offset="0"
         id="stop6602-7-5-9-6-1-2" />
      <stop
         style="stop-color:#fc9220;stop-opacity:1;"
         offset="1"
         id="stop6608-3-1-4-6-6" />
    </linearGradient>
    <linearGradient
       inkscape:collect="always"
       xlink:href="#linearGradient6600-4-2-4-7-2-1"
       id="linearGradient3029"
       gradientUnits="userSpaceOnUse"
       gradientTransform="matrix(0.03906612,0,0,0.03906612,285.84682,1722.0478)"
       x1="850.28296"
       y1="959.67291"
       x2="850.28296"
       y2="438.10736" />
  </defs>
  <sodipodi:namedview
     pagecolor="#ffffff"
     bordercolor="#666666"
     borderopacity="1"
     objecttolerance="10"
     gridtolerance="10"
     guidetolerance="10"
     inkscape:pageopacity="0"
     inkscape:pageshadow="2"
     inkscape:window-width="1680"
     inkscape:window-height="985"
     id="namedview8"
     showgrid="true"
     inkscape:zoom="20.85965"
     inkscape:cx="15.456776"
     inkscape:cy="8.7839354"
     inkscape:window-x="-8"
     inkscape:window-y="38"
     inkscape:window-maximized="1"
     inkscape:current-layer="svg7384"
     fit-margin-top="0"
     fit-margin-left="0"
     fit-margin-right="0"
     fit-margin-bottom="0">
    <inkscape:grid
       type="xygrid"
       id="grid2997"
       empspacing="5"
       visible="true"
       enabled="true"
       snapvisiblegridlinesonly="true"
       originx="-30px"
       originy="25.999999px" />
  </sodipodi:namedview>
  <metadata
     id="metadata90">
    <rdf:RDF>
      <cc:Work
         rdf:about="">
        <dc:format>image/svg+xml</dc:format>
        <dc:type
           rdf:resource="http://purl.org/dc/dcmitype/StillImage" />
        <dc:title>Gnome Symbolic Icon Theme</dc:title>
      </cc:Work>
    </rdf:RDF>
  </metadata>
  <title
     id="title9167">Gnome Symbolic Icon Theme</title>
  <rect
     style="opacity:0.00100002;fill:#ffffff;fill-opacity:1;fill-rule:nonzero;stroke:none"
     id="rect4061"
     width="15.999999"
     height="15.999999"
     x="3.0092772e-07"
     y="4.8790037e-07" />
  <path
     style="fill:#b3b3b3;fill-opacity:1;fill-rule:nonzero;stroke:none"
     d="m 11.475491,1.0090058 c -0.555693,0.016 -1.09298,0.3001333 -1.413567,0.8046667 -0.4051863,0.6376666 -0.3556063,1.4392 0.08699,2.0007333 -0.09547,-0.035333 -0.2262203,-0.1027333 -0.4132003,-0.1522 -0.1869733,-0.049333 -0.42168,-0.097 -0.6959066,-0.1305333 -0.2742267,-0.033333 -0.5858934,-0.039333 -0.9351267,-0.022 -0.337,0.017333 -0.7244467,0.055333 -1.1091067,0.1522666 -0.3846533,0.097133 -0.7549733,0.2529334 -1.1526,0.4566667 -0.3425267,0.1758667 -0.703,0.3924 -1.0221133,0.6524 -0.2453267,0.1999334 -0.4574067,0.4284 -0.67416,0.6742 0.3308533,0.2261334 0.60224,0.5169334 0.8263933,0.8481334 0.17144,-0.2569334 0.37068,-0.5087334 0.5871733,-0.7394 0.2344734,-0.2498667 0.4873134,-0.4756 0.7611467,-0.6742 0.2956134,-0.2151334 0.63976,-0.3980667 0.9568734,-0.5436667 0.3171133,-0.1456 0.63182,-0.2468667 0.9351266,-0.3262 0.29764,-0.0776 0.57184,-0.1464667 0.8263934,-0.174 0.2545533,-0.027333 0.4868933,-0.023333 0.67416,-0.022 0.1872733,0 0.3334799,0.012667 0.4349469,0.022 0.11576,0.144 0.270353,0.2651333 0.43494,0.3697333 0.807233,0.5129334 1.87926,0.2852667 2.392186,-0.5219333 0.512934,-0.8072667 0.26356,-1.8792667 -0.543673,-2.3922 -0.302713,-0.1923334 -0.62346,-0.2920667 -0.95688,-0.2827334 z M 7.1043177,1.6179391 c -0.2143666,0.011333 -0.4259666,0.031333 -0.6306733,0.065333 -0.4707933,0.078267 -0.9142267,0.2018 -1.3048267,0.3696666 -0.3906,0.1679334 -0.72624,0.3780667 -1.0221133,0.5872 -0.30426,0.215 -0.5551667,0.4411334 -0.7611534,0.6524 -0.20598,0.2112667 -0.3788533,0.3978 -0.5001866,0.5654001 -0.1213267,0.1676666 -0.20626,0.3189333 -0.26096,0.4132 -0.054733,0.094333 -0.065267,0.1305333 -0.065267,0.1305333 0,0 0.0312,-0.032 0.10874,-0.1087333 0.07756,-0.077 0.19442,-0.1978 0.3479533,-0.3262 0.1535334,-0.1284667 0.3360867,-0.2660001 0.5654267,-0.4132001 0.2293333,-0.1472666 0.5066,-0.3037333 0.8046467,-0.435 0.3077133,-0.1350666 0.63814,-0.2423333 1.0003666,-0.3262 0.3622267,-0.0838 0.7450067,-0.1462 1.1308534,-0.1522 0.3640867,-0.00667 0.75044,0.041333 1.1091,0.1087334 0.2794333,0.052667 0.5439867,0.1054 0.8046467,0.1957333 -0.027,-0.4090667 0.015467,-0.8207333 0.1522333,-1.2178667 -0.2786933,-0.058 -0.5494333,-0.0918 -0.8263933,-0.1087333 -0.22024,-0.013333 -0.4380534,-0.011333 -0.6524134,0 z m 7.4592663,3.0663334 c 0,0 0.0156,0.046667 0.04347,0.1522667 0.02787,0.1056666 0.07429,0.2595333 0.108733,0.4566666 0.03447,0.1972 0.07418,0.4237334 0.08699,0.6959334 0.0128,0.2722 0.0136,0.5896666 -0.02173,0.9134 -0.03687,0.334 -0.108973,0.6882 -0.217473,1.0438 -0.108507,0.3556666 -0.24724,0.7067333 -0.434947,1.0438666 -0.17646,0.3185334 -0.414553,0.6366 -0.652413,0.9134 -0.185307,0.2156672 -0.378633,0.4283332 -0.587173,0.6089332 0.36778,0.181134 0.70308,0.4224 0.978626,0.7394 0.1893,-0.212533 0.368807,-0.442733 0.521927,-0.674133 0.12176,-0.184067 0.228627,-0.374267 0.326207,-0.565467 0.09758,-0.1911998 0.18788,-0.3712665 0.260966,-0.5653998 0.167587,-0.4468667 0.276307,-0.9044 0.326207,-1.3266 0.04987,-0.4222 0.03313,-0.8135334 0,-1.1743334 -0.03407,-0.371 -0.09403,-0.6946 -0.173973,-0.9786 -0.07995,-0.2840666 -0.154734,-0.5288 -0.23922,-0.7176666 -0.0845,-0.1888667 -0.184907,-0.3404667 -0.23922,-0.4349334 -0.05433,-0.094533 -0.08699,-0.1305333 -0.08699,-0.1305333 z m -1.696273,0.8481333 c -0.361273,0.1734667 -0.753707,0.276 -1.1526,0.3044667 0.136773,0.2769333 0.25642,0.5670667 0.347953,0.8699333 0.09915,0.3279334 0.160654,0.6639334 0.195727,1.0003334 0.03853,0.3636 0.03247,0.7399333 0,1.0874 -0.03247,0.3474 -0.09102,0.6762666 -0.173973,0.9786 -0.08165,0.2965338 -0.179274,0.5703998 -0.282714,0.8046668 -0.103446,0.2342 -0.20916,0.425933 -0.304466,0.587133 -0.0953,0.1612 -0.18062,0.2864 -0.239214,0.369734 -0.01127,0.016 -0.01267,0.0087 -0.02173,0.022 -0.172007,0.03 -0.33714,0.08887 -0.500187,0.174 -0.8478263,0.4426 -1.1820196,1.500866 -0.7393996,2.348666 0.4426196,0.8478 1.4791196,1.160267 2.3269466,0.717667 0.847827,-0.442667 1.18202,-1.479133 0.7394,-2.326933 -0.350407,-0.6712 -1.074213,-1.018134 -1.783267,-0.9134 0.07822,-0.06533 0.189834,-0.145534 0.326207,-0.282734 0.13638,-0.137133 0.31232,-0.322933 0.47844,-0.543666 0.16612,-0.220734 0.31926,-0.493267 0.478433,-0.8046672 0.15362,-0.3004 0.30498,-0.6404 0.413194,-1.0220666 0.10822,-0.3817334 0.173326,-0.7934 0.195733,-1.2396 0.01893,-0.3846 3.87e-4,-0.7897334 -0.06527,-1.1961334 -0.05047,-0.3124 -0.134773,-0.6245333 -0.239226,-0.9351333 z m -10.39514,0.7394 c -0.9555466,-0.040667 -1.76441998,0.719 -1.80501331,1.6745334 -0.0406,0.9556 0.71898001,1.7427333 1.67453331,1.7832666 0.7501067,0.032 1.40624,-0.4082666 1.6745267,-1.0656 -0.00467,-0.026667 0.00467,-0.024 0,-0.043333 0.064533,-0.1694667 0.10062,-0.3526 0.10874,-0.5436667 0.0406,-0.9556 -0.69724,-1.7644666 -1.6527867,-1.8050666 z m 1.5440467,2.3922 c 0.017267,0.1002667 0.0364,0.2265334 0.086993,0.4132 0.0506,0.1867334 0.1093667,0.4416667 0.2174667,0.6959334 0.1081067,0.2541998 0.2666333,0.5328668 0.4566933,0.8263998 0.18338,0.283267 0.41946,0.585334 0.6959067,0.869867 0.2764467,0.284533 0.6034067,0.5404 0.97862,0.782933 0.3235734,0.208667 0.6808734,0.397267 1.0656134,0.543667 0.2957866,0.112467 0.5921733,0.196133 0.91338,0.260933 0.0304,-0.3996 0.15146,-0.792866 0.3262066,-1.1526 -0.3082133,-0.02 -0.6271,-0.05867 -0.9351266,-0.130466 C 7.4883511,11.695739 7.1740044,11.563739 6.8650977,11.425939 6.5309644,11.277473 6.2145977,11.084073 5.9299711,10.882206 5.6453444,10.680406 5.389171,10.474606 5.1688177,10.251539 4.9528244,10.032606 4.7545044,9.8058725 4.603391,9.5991392 4.4522844,9.3924725 4.3474044,9.2186058 4.2554377,9.0554725 4.163471,8.8923392 4.0808377,8.7564058 4.0379644,8.6640058 c -0.002,-0.00667 -0.0196,0.00667 -0.021733,0 z m 0.10874,1.9138002 c -0.34076,0.227933 -0.7185733,0.398267 -1.1308533,0.4784 0.089387,0.2702 0.18062,0.5346 0.30446,0.782933 0.09848,0.1974 0.20942,0.363534 0.3262066,0.543667 0.1167867,0.180067 0.2380867,0.361533 0.3697,0.521933 0.3032134,0.368534 0.63792,0.702534 0.9786267,0.956867 0.3407,0.254333 0.6930667,0.435467 1.0221134,0.587133 0.33832,0.156 0.67094,0.253467 0.9568733,0.326267 0.2859333,0.07273 0.53358,0.130933 0.7394067,0.1522 0.20582,0.02133 0.36942,0.02133 0.4784333,0.022 0.10902,3.33e-4 0.1522333,-0.022 0.1522333,-0.022 0,0 -0.0468,0.0067 -0.1522333,-0.022 -0.1054267,-0.02867 -0.2687067,-0.08347 -0.4566867,-0.152267 -0.18798,-0.06873 -0.41026,-0.157666 -0.6524133,-0.282666 C 6.8186711,14.345273 6.5623311,14.184339 6.2996711,13.991806 6.0288244,13.792873 5.770491,13.567673 5.516771,13.295873 c -0.25372,-0.271734 -0.4977666,-0.5822 -0.6959066,-0.913334 -0.1876267,-0.312133 -0.3576267,-0.656 -0.47844,-1.0004 -0.09412,-0.268333 -0.16534,-0.533733 -0.2174667,-0.8046 z"
     id="path3424"
     inkscape:connector-curvature="0" />
</svg>
