<?xml version="1.0" encoding="UTF-8" standalone="no"?>
<!-- Created with Inkscape (http://www.inkscape.org/) -->

<svg
   xmlns:dc="http://purl.org/dc/elements/1.1/"
   xmlns:cc="http://creativecommons.org/ns#"
   xmlns:rdf="http://www.w3.org/1999/02/22-rdf-syntax-ns#"
   xmlns:svg="http://www.w3.org/2000/svg"
   xmlns="http://www.w3.org/2000/svg"
   xmlns:xlink="http://www.w3.org/1999/xlink"
   xmlns:sodipodi="http://sodipodi.sourceforge.net/DTD/sodipodi-0.dtd"
   xmlns:inkscape="http://www.inkscape.org/namespaces/inkscape"
   id="svg7384"
   height="16.000002"
   width="16.000002"
   version="1.1"
   inkscape:version="0.48.3.1 r9886"
   sodipodi:docname="folder-templates-symbolic.svg">
  <defs
     id="defs9">
    <linearGradient
       inkscape:collect="always"
       xlink:href="#linearGradient6600-4-2-4-7"
       id="linearGradient4054"
       gradientUnits="userSpaceOnUse"
       gradientTransform="translate(-1e-4,0)"
       x1="-937.42877"
       y1="552.64801"
       x2="-937.42877"
       y2="152.64799" />
    <linearGradient
       id="linearGradient6600-4-2-4-7">
      <stop
         style="stop-color:#c86b32;stop-opacity:1;"
         offset="0"
         id="stop6602-7-5-9-6" />
      <stop
         style="stop-color:#fc9220;stop-opacity:1;"
         offset="1"
         id="stop6608-3-1-4" />
    </linearGradient>
    <linearGradient
       inkscape:collect="always"
       xlink:href="#linearGradient6600-4-2-4-7"
       id="linearGradient3022"
       gradientUnits="userSpaceOnUse"
       gradientTransform="translate(-1e-4,0)"
       x1="-937.42877"
       y1="552.64801"
       x2="-937.42877"
       y2="152.64799" />
  </defs>
  <sodipodi:namedview
     pagecolor="#ffffff"
     bordercolor="#666666"
     borderopacity="1"
     objecttolerance="10"
     gridtolerance="10"
     guidetolerance="10"
     inkscape:pageopacity="0"
     inkscape:pageshadow="2"
     inkscape:window-width="1680"
     inkscape:window-height="985"
     id="namedview7"
     showgrid="true"
     inkscape:zoom="41.7193"
     inkscape:cx="5.7070806"
     inkscape:cy="7.5514827"
     inkscape:window-x="-8"
     inkscape:window-y="38"
     inkscape:window-maximized="1"
     inkscape:current-layer="svg7384"
     fit-margin-top="0"
     fit-margin-left="0"
     fit-margin-right="0"
     fit-margin-bottom="0">
    <inkscape:grid
       type="xygrid"
       id="grid3015"
       empspacing="5"
       visible="true"
       enabled="true"
       snapvisiblegridlinesonly="true"
       originx="-15px"
       originy="26.000002px" />
  </sodipodi:namedview>
  <metadata
     id="metadata90">
    <rdf:RDF>
      <cc:Work
         rdf:about="">
        <dc:format>image/svg+xml</dc:format>
        <dc:type
           rdf:resource="http://purl.org/dc/dcmitype/StillImage" />
        <dc:title>Gnome Symbolic Icon Theme</dc:title>
      </cc:Work>
    </rdf:RDF>
  </metadata>
  <title
     id="title9167">Gnome Symbolic Icon Theme</title>
  <rect
     style="opacity:0.00100002;fill:#ffffff;fill-opacity:1;fill-rule:nonzero;stroke:none"
     id="rect3396"
     width="16.000002"
     height="16.000002"
     x="4.169043e-07"
     y="-4.6512298e-08" />
  <path
     inkscape:connector-curvature="0"
     style="font-size:medium;font-style:normal;font-variant:normal;font-weight:normal;font-stretch:normal;text-indent:0;text-align:start;text-decoration:none;line-height:normal;letter-spacing:normal;word-spacing:normal;text-transform:none;direction:ltr;block-progression:tb;writing-mode:lr-tb;text-anchor:start;baseline-shift:baseline;color:#000000;fill:#b3b3b3;fill-opacity:1;stroke:none;stroke-width:50;marker:none;visibility:visible;display:inline;overflow:visible;enable-background:accumulate;font-family:Sans;-inkscape-font-specification:Sans"
     d="m 3.9999985,1.3333235 0,1.4583335 C 3.2295024,3.0704691 2.666665,3.8053116 2.666665,4.6666573 c 0,1.0966732 0.9033282,2.0000002 2.0000003,2.0000002 1.0966735,0 2.0000002,-0.903327 2.0000002,-2.0000002 0,-0.8613457 -0.5628366,-1.5961882 -1.3333335,-1.8750003 l 0,-1.4583335 -1.3333335,0 z m 6.0000008,0 0,13.3333355 4.6666677,0 0,-1.333334 -2.000001,0 0,-0.666667 2.000001,0 0,-1.333333 -3.333334,0 0,-0.666667 3.333334,0 0,-1.3333335 -2.000001,0 0,-0.6666667 2.000001,0 0,-1.3333335 -3.333334,0 0,-0.6666668 3.333334,0 0,-1.3333335 -2.000001,0 0,-0.6666667 2.000001,0 0,-1.3333335 -3.333334,0 0,-0.6666668 3.333334,0 0,-1.3333335 -4.6666677,0 z m -5.333334,2.666667 c 0.3760867,0 0.6666667,0.2905803 0.6666667,0.6666668 0,0.3760861 -0.29058,0.6666667 -0.6666667,0.6666667 -0.3760854,0 -0.6666668,-0.2905806 -0.6666668,-0.6666667 0,-0.3760865 0.2905814,-0.6666668 0.6666668,-0.6666668 z m -2.4375016,2.916667 -1.56249891,7.7500015 0.66666671,0 3.0416671,-6.6875013 C 3.5321798,7.903291 2.7762704,7.5078808 2.2291637,6.9166575 z m 4.8541686,0.020833 C 6.5378391,7.5169848 5.791066,7.904199 4.958332,7.9791577 l 3.041667,6.6875013 0.6666668,0 -1.5625002,-7.7291681 -0.020833,0 z"
     id="path4052" />
</svg>
