<?xml version="1.0" encoding="UTF-8" standalone="no"?>
<svg
   xmlns:dc="http://purl.org/dc/elements/1.1/"
   xmlns:cc="http://creativecommons.org/ns#"
   xmlns:rdf="http://www.w3.org/1999/02/22-rdf-syntax-ns#"
   xmlns:svg="http://www.w3.org/2000/svg"
   xmlns="http://www.w3.org/2000/svg"
   xmlns:xlink="http://www.w3.org/1999/xlink"
   id="svg22774"
   height="64"
   width="64"
   version="1.1">
  <defs
     id="defs22776">
    <linearGradient
       id="linearGradient4500">
      <stop
         offset="0"
         style="stop-color:#ffffff;stop-opacity:1"
         id="stop4502" />
      <stop
         offset="0.06670984"
         style="stop-color:#ffffff;stop-opacity:0.23529412"
         id="stop4504" />
      <stop
         offset="0.94956195"
         style="stop-color:#ffffff;stop-opacity:0.15686275"
         id="stop4506" />
      <stop
         offset="1"
         style="stop-color:#ffffff;stop-opacity:0.39215687"
         id="stop4508" />
    </linearGradient>
    <linearGradient
       id="linearGradient4647">
      <stop
         id="stop4649"
         style="stop-color:#000000;stop-opacity:0.31764707"
         offset="0" />
      <stop
         id="stop4651"
         style="stop-color:#000000;stop-opacity:0.23921569"
         offset="1" />
    </linearGradient>
    <linearGradient
       id="linearGradient4583">
      <stop
         id="stop4585"
         style="stop-color:#ffffff;stop-opacity:1"
         offset="0" />
      <stop
         id="stop4587"
         style="stop-color:#ffffff;stop-opacity:0.23529412"
         offset="0.23890026" />
      <stop
         id="stop4589"
         style="stop-color:#ffffff;stop-opacity:0.15686275"
         offset="0.97909725" />
      <stop
         id="stop4591"
         style="stop-color:#ffffff;stop-opacity:0.39215687"
         offset="1" />
    </linearGradient>
    <linearGradient
       gradientTransform="matrix(1.3210282,0,0,1.2679796,-70.729885,0.17381034)"
       gradientUnits="userSpaceOnUse"
       xlink:href="#linearGradient8272-8-8"
       id="linearGradient5962"
       y2="44.260689"
       x2="97.538795"
       y1="16.962049"
       x1="97.538795" />
    <linearGradient
       id="linearGradient8272-8-8">
      <stop
         offset="0"
         style="stop-color:#ffffff;stop-opacity:1"
         id="stop8274-4" />
      <stop
         offset="0.0221225"
         style="stop-color:#ffffff;stop-opacity:0.23529412"
         id="stop8276-5" />
      <stop
         offset="0.97909725"
         style="stop-color:#ffffff;stop-opacity:0.15686275"
         id="stop8278-0" />
      <stop
         offset="1"
         style="stop-color:#ffffff;stop-opacity:0.39215687"
         id="stop8280-5-9" />
    </linearGradient>
    <radialGradient
       gradientTransform="matrix(-0.04016195,0,0,0.0329426,30.204677,40.92132)"
       gradientUnits="userSpaceOnUse"
       xlink:href="#linearGradient5060-820-8"
       id="radialGradient5950"
       fy="486.64789"
       fx="605.71429"
       r="117.14286"
       cy="486.64789"
       cx="605.71429" />
    <linearGradient
       id="linearGradient5060-820-8">
      <stop
         offset="0"
         style="stop-color:#000000;stop-opacity:1"
         id="stop2681-37" />
      <stop
         offset="1"
         style="stop-color:#000000;stop-opacity:0"
         id="stop2683-05" />
    </linearGradient>
    <linearGradient
       gradientTransform="matrix(0.1076923,0,0,0.03294117,-6.9224153,40.92219)"
       gradientUnits="userSpaceOnUse"
       xlink:href="#linearGradient5048-585-1"
       id="linearGradient5946"
       y2="609.50507"
       x2="302.85715"
       y1="366.64789"
       x1="302.85715" />
    <linearGradient
       id="linearGradient5048-585-1">
      <stop
         offset="0"
         style="stop-color:#000000;stop-opacity:0"
         id="stop2667-0" />
      <stop
         offset="0.5"
         style="stop-color:#000000;stop-opacity:1"
         id="stop2669-91" />
      <stop
         offset="1"
         style="stop-color:#000000;stop-opacity:0"
         id="stop2671-6" />
    </linearGradient>
    <radialGradient
       gradientTransform="matrix(0.04016195,0,0,0.0329426,33.796647,40.92132)"
       gradientUnits="userSpaceOnUse"
       xlink:href="#linearGradient5060-820-8"
       id="radialGradient5942"
       fy="486.64789"
       fx="605.71429"
       r="117.14286"
       cy="486.64789"
       cx="605.71429" />
    <linearGradient
       gradientTransform="matrix(1.2749674,0,0,1.218292,-129.15852,-0.33920966)"
       gradientUnits="userSpaceOnUse"
       xlink:href="#linearGradient4583"
       id="linearGradient5938"
       y2="23.050795"
       x2="117.7744"
       y1="9.3074646"
       x1="117.7744" />
    <linearGradient
       id="linearGradient6404-7-5-7">
      <stop
         offset="0"
         style="stop-color:#f9f9f9;stop-opacity:1"
         id="stop6406-1-8-2" />
      <stop
         offset="1"
         style="stop-color:#c9c9c9;stop-opacity:1"
         id="stop6408-9-6-4" />
    </linearGradient>
    <linearGradient
       gradientTransform="matrix(1.3135526,0,0,1.2900554,-117.48496,-1.2218597)"
       gradientUnits="userSpaceOnUse"
       xlink:href="#linearGradient6404-7-5-7"
       id="linearGradient22772"
       y2="16.997795"
       x2="62.988873"
       y1="14.090554"
       x1="62.988873" />
    <linearGradient
       x1="35.792694"
       y1="17.118193"
       x2="35.792694"
       y2="43.761127"
       id="linearGradient12481"
       xlink:href="#radialGradient2444"
       gradientUnits="userSpaceOnUse"
       gradientTransform="matrix(1.2553842,0,0,1.3002193,1.871663,-0.65363088)" />
    <radialGradient
       id="radialGradient2444"
       gradientUnits="userSpaceOnUse"
       cy="14.113"
       cx="63.969002"
       gradientTransform="matrix(1.5647,-9.5143e-8,6.1772e-8,1.0159,-59.14917,8.1461003)"
       r="23.097">
      <stop
         id="stop3618"
         style="stop-color:#ADC980"
         offset="0" />
      <stop
         id="stop3270"
         style="stop-color:#87A752"
         offset="0.6875183" />
      <stop
         id="stop3620"
         style="stop-color:#688933"
         offset="1" />
    </radialGradient>
    <linearGradient
       y2="9.5186977"
       x2="-34.476868"
       y1="51.262348"
       x1="-34.476868"
       gradientTransform="matrix(1.0751259,0,0,1.1308007,77.393701,-1.9367307)"
       gradientUnits="userSpaceOnUse"
       id="linearGradient4845"
       xlink:href="#linearGradient4647" />
    <radialGradient
       id="radialGradient3041"
       gradientUnits="userSpaceOnUse"
       cy="34.785999"
       cx="14.363"
       gradientTransform="matrix(-0.8068711,0,0,0.53664793,56.73561,31.671512)"
       r="8.7945995">
      <stop
         id="stop7824"
         offset="0" />
      <stop
         id="stop7826"
         style="stop-opacity:0"
         offset="1" />
    </radialGradient>
    <linearGradient
       id="linearGradient3043"
       y2="-6.5683999"
       gradientUnits="userSpaceOnUse"
       x2="-11.006"
       gradientTransform="matrix(1.5,0,0,1.5333333,43.750316,26.233333)"
       y1="25.357"
       x1="-7.9751">
      <stop
         id="stop6993"
         style="stop-color:#d3d7cf"
         offset="0" />
      <stop
         id="stop6995"
         style="stop-color:#fff"
         offset="1" />
    </linearGradient>
    <linearGradient
       id="linearGradient3047"
       y2="54.416"
       gradientUnits="userSpaceOnUse"
       x2="0.82207"
       gradientTransform="matrix(1.0512,0,0,1,0.11211,0)"
       y1="55.219002"
       x1="1.6256">
      <stop
         id="stop7265"
         style="stop-color:#adb0a8"
         offset="0" />
      <stop
         id="stop7267"
         style="stop-color:#fff"
         offset="1" />
    </linearGradient>
    <linearGradient
       id="linearGradient3049"
       y2="54.708"
       xlink:href="#linearGradient7269"
       gradientUnits="userSpaceOnUse"
       x2="-4.2209001"
       gradientTransform="matrix(0.96429,0,0,0.97222,-0.25,1.6944)"
       y1="59.879002"
       x1="-4.2209001" />
    <linearGradient
       id="linearGradient7269">
      <stop
         id="stop7271"
         style="stop-color:#fff"
         offset="0" />
      <stop
         id="stop7273"
         style="stop-color:#d3d7cf"
         offset="1" />
    </linearGradient>
    <linearGradient
       id="linearGradient3051"
       y2="54"
       gradientUnits="userSpaceOnUse"
       x2="-3.3587999"
       gradientTransform="matrix(-0.6979973,0,0,0.6979973,44.52887,10.5283)"
       y1="51.138"
       x1="-1.9887">
      <stop
         id="stop7259"
         offset="0" />
      <stop
         id="stop7261"
         style="stop-opacity:0"
         offset="1" />
    </linearGradient>
    <linearGradient
       id="linearGradient3053"
       y2="50.563"
       gradientUnits="userSpaceOnUse"
       x2="0.88388002"
       gradientTransform="matrix(-0.6979973,0,0,0.6979973,44.52887,10.5283)"
       y1="52.639999"
       x1="-4.6845999">
      <stop
         id="stop7239"
         style="stop-color:#eeeeec"
         offset="0" />
      <stop
         id="stop7241"
         style="stop-color:#babdb6"
         offset="1" />
    </linearGradient>
    <linearGradient
       id="linearGradient3055"
       y2="49.458"
       gradientUnits="userSpaceOnUse"
       x2="0.26517001"
       gradientTransform="matrix(-0.6979973,0,0,0.6979973,44.52887,10.5283)"
       y1="50.519001"
       x1="-5.0823002">
      <stop
         id="stop7247"
         style="stop-color:#eeeeec"
         offset="0" />
      <stop
         id="stop7249"
         style="stop-color:#fff"
         offset="1" />
    </linearGradient>
    <linearGradient
       id="linearGradient3057"
       y2="51.812"
       gradientUnits="userSpaceOnUse"
       x2="-5.9688001"
       gradientTransform="matrix(-0.6979973,0,0,0.6979973,44.52887,10.5283)"
       y1="52.875"
       x1="-5.9688001">
      <stop
         id="stop7188"
         style="stop-color:#888a85"
         offset="0" />
      <stop
         id="stop7190"
         style="stop-color:#fff"
         offset="1" />
    </linearGradient>
    <linearGradient
       id="linearGradient3059"
       y2="59.445"
       gradientUnits="userSpaceOnUse"
       x2="-3.5355"
       gradientTransform="matrix(-0.6979973,0,0,0.717934,44.52887,9.7310981)"
       y1="55.867001"
       x1="-3.5355">
      <stop
         id="stop7279"
         style="stop-color:#555753"
         offset="0" />
      <stop
         id="stop7281"
         style="stop-color:#d3d7cf"
         offset="1" />
    </linearGradient>
    <linearGradient
       id="linearGradient3061"
       y2="26.205"
       gradientUnits="userSpaceOnUse"
       x2="32.812"
       gradientTransform="matrix(-0.60402,0,0,0.6034,42.825,17.573)"
       y1="21"
       x1="32.812">
      <stop
         id="stop7342"
         style="stop-color:#2e3436"
         offset="0" />
      <stop
         id="stop7344"
         style="stop-color:#555753"
         offset="1" />
    </linearGradient>
    <linearGradient
       id="linearGradient3063"
       y2="16"
       gradientUnits="userSpaceOnUse"
       x2="29"
       gradientTransform="matrix(-0.52481,0,0,0.52481,39.675,19.379)"
       y1="29"
       x1="28.875">
      <stop
         id="stop7432"
         style="stop-color:#fff"
         offset="0" />
      <stop
         id="stop7434"
         style="stop-color:#fff;stop-opacity:0"
         offset="1" />
    </linearGradient>
    <linearGradient
       id="linearGradient3073"
       y2="24.688"
       xlink:href="#linearGradient7422"
       gradientUnits="userSpaceOnUse"
       x2="30.312"
       y1="27.313"
       x1="30.312" />
    <linearGradient
       id="linearGradient7422">
      <stop
         id="stop7424"
         style="stop-color:#edd400"
         offset="0" />
      <stop
         id="stop7426"
         style="stop-color:#edd400;stop-opacity:0"
         offset="1" />
    </linearGradient>
    <linearGradient
       id="linearGradient3065"
       y2="24.688"
       xlink:href="#linearGradient7422"
       gradientUnits="userSpaceOnUse"
       x2="30.312"
       gradientTransform="translate(-0.418,0.69761)"
       y1="27.313"
       x1="30.312" />
    <linearGradient
       id="linearGradient3067"
       y2="24.688"
       xlink:href="#linearGradient7422"
       gradientUnits="userSpaceOnUse"
       x2="30.312"
       gradientTransform="translate(0,0.69761)"
       y1="27.313"
       x1="30.312" />
    <linearGradient
       id="linearGradient3071"
       y2="24.688"
       xlink:href="#linearGradient7422"
       gradientUnits="userSpaceOnUse"
       x2="30.312"
       gradientTransform="translate(0.41828,0.69761)"
       y1="27.313"
       x1="30.312" />
    <linearGradient
       id="linearGradient3075"
       y2="45.062"
       gradientUnits="userSpaceOnUse"
       x2="38.875"
       gradientTransform="matrix(-0.6979973,0,0,0.6979973,55.69688,27.28098)"
       y1="40.312"
       x1="37.625">
      <stop
         id="stop3225"
         style="stop-color:#dbdbdb"
         offset="0" />
      <stop
         id="stop3227"
         style="stop-color:#a0a0a0;stop-opacity:0"
         offset="1" />
    </linearGradient>
    <linearGradient
       id="linearGradient3077"
       y2="46.562"
       gradientUnits="userSpaceOnUse"
       x2="40.125"
       gradientTransform="matrix(-0.6979973,0,0,0.6979973,55.69688,27.28098)"
       y1="40.625"
       x1="38.75">
      <stop
         id="stop3231"
         style="stop-color:#787878"
         offset="0" />
      <stop
         id="stop3233"
         style="stop-color:#6c6c6c;stop-opacity:0"
         offset="1" />
    </linearGradient>
    <linearGradient
       id="linearGradient3079"
       y2="42.938"
       gradientUnits="userSpaceOnUse"
       x2="42.124001"
       gradientTransform="matrix(-0.6979973,0,0,0.6979973,55.69688,27.28098)"
       y1="38.312"
       x1="41.188">
      <stop
         id="stop7662"
         style="stop-color:#fff"
         offset="0" />
      <stop
         id="stop7664"
         style="stop-color:#fff;stop-opacity:0"
         offset="1" />
    </linearGradient>
    <linearGradient
       id="linearGradient3081"
       y2="55"
       xlink:href="#linearGradient7269"
       gradientUnits="userSpaceOnUse"
       x2="-4.1097999"
       gradientTransform="matrix(-0.7852453,0,0,0.8143191,44.61532,3.4542961)"
       y1="58.807999"
       x1="-4.1097999" />
    <linearGradient
       id="linearGradient3115"
       y2="34.562"
       gradientUnits="userSpaceOnUse"
       x2="-7.7811999"
       gradientTransform="matrix(-0.6979973,0,0,0.6979973,41.7372,27.28098)"
       y1="32.438"
       x1="-6.4061999">
      <stop
         id="stop7814"
         offset="0" />
      <stop
         id="stop7816"
         style="stop-opacity:0"
         offset="1" />
    </linearGradient>
    <linearGradient
       xlink:href="#linearGradient7422"
       id="linearGradient3571"
       gradientUnits="userSpaceOnUse"
       gradientTransform="translate(0,0.69761)"
       x1="30.312"
       y1="27.313"
       x2="30.312"
       y2="24.688" />
    <linearGradient
       xlink:href="#linearGradient4647"
       id="linearGradient4467"
       gradientUnits="userSpaceOnUse"
       gradientTransform="matrix(1.0717949,0,0,1.1336347,145.09922,-2.0535641)"
       x1="-97.765015"
       y1="46.493988"
       x2="-97.765015"
       y2="24.959103" />
    <linearGradient
       xlink:href="#linearGradient4500"
       id="linearGradient4496"
       gradientUnits="userSpaceOnUse"
       gradientTransform="matrix(1.2815158,0,0,1.2234066,-130.0489,-0.51657691)"
       x1="124.32497"
       y1="23.326275"
       x2="124.32497"
       y2="40.524391" />
  </defs>
  <metadata
     id="metadata22779">
    <rdf:RDF>
      <cc:Work
         rdf:about="">
        <dc:format>image/svg+xml</dc:format>
        <dc:type
           rdf:resource="http://purl.org/dc/dcmitype/StillImage" />
        <dc:title />
      </cc:Work>
    </rdf:RDF>
  </metadata>
  <path
     d="M 5.1483764,9.51453 C 4.2211846,9.52473 3.5007153,10.17003 3.50067,11.04503 L 3.5,24 l 57,0 6.7e-4,-8.97097 c 6.5e-5,-0.875 -0.644175,-1.54 -1.571868,-1.53 l -27.207642,0 c -2.750017,0 -4.699575,-3.999 -6.716254,-3.999 L 5.1486769,9.51453 Z"
     style="fill:none;stroke:url(#linearGradient4845);stroke-width:0.99999994;stroke-linecap:butt;stroke-linejoin:miter;color:#000000;clip-rule:nonzero;display:inline;overflow:visible;visibility:visible;opacity:0.8;isolation:auto;mix-blend-mode:normal;color-interpolation:sRGB;color-interpolation-filters:linearRGB;solid-color:#000000;solid-opacity:1;fill-opacity:1;fill-rule:nonzero;stroke-miterlimit:4;stroke-dasharray:none;stroke-dashoffset:0;stroke-opacity:1;marker:none;filter-blend-mode:normal;filter-gaussianBlur-deviation:0;color-rendering:auto;image-rendering:auto;shape-rendering:auto;text-rendering:auto;enable-background:accumulate"
     id="path2856-0" />
  <path
     id="path4502"
     d="M 25.005859,9.9960938 5.1542969,10.009766 c -0.6999739,0.0077 -1.1581719,0.432313 -1.1582031,1.035156 l 0,12.474609 56.0078122,0.261717 0,-8.751953 c 4.7e-5,-0.632443 -0.379547,-1.040628 -1.068359,-1.033203 l -0.0059,0 -27.208985,0 c -1.61516,0 -2.87564,-1.123361 -3.96875,-2.132813 -0.546555,-0.504726 -1.058136,-0.994299 -1.527344,-1.339843 -0.469207,-0.345547 -0.87832,-0.5273442 -1.21875,-0.5273442 z"
     style="color:#000000;clip-rule:nonzero;display:inline;overflow:visible;visibility:visible;opacity:1;isolation:auto;mix-blend-mode:normal;color-interpolation:sRGB;color-interpolation-filters:linearRGB;solid-color:#000000;solid-opacity:1;fill:url(#linearGradient22772);fill-opacity:1;fill-rule:nonzero;stroke:none;stroke-width:1.00000012;stroke-linecap:butt;stroke-linejoin:miter;stroke-miterlimit:4;stroke-dasharray:none;stroke-dashoffset:0;stroke-opacity:1;marker:none;color-rendering:auto;image-rendering:auto;shape-rendering:auto;text-rendering:auto;enable-background:accumulate" />
  <rect
     x="5.8642626"
     y="11.905029"
     width="19"
     height="2.1212001"
     ry="1.0606"
     rx="1.0606"
     style="color:#000000;clip-rule:nonzero;display:block;overflow:visible;visibility:visible;opacity:1;isolation:auto;mix-blend-mode:normal;color-interpolation:sRGB;color-interpolation-filters:linearRGB;solid-color:#000000;solid-opacity:1;fill:#87a752;fill-opacity:1;fill-rule:nonzero;stroke-width:1;stroke-linecap:butt;stroke-linejoin:miter;stroke-miterlimit:4;stroke-dasharray:none;stroke-dashoffset:0;stroke-opacity:1;color-rendering:auto;image-rendering:auto;shape-rendering:auto;text-rendering:auto;enable-background:accumulate"
     id="rect2874" />
  <path
     d="m 25.005859,10.470703 -19.8457028,0.01367 c -0.2551663,0.0028 -0.425455,0.0781 -0.5292968,0.171875 -0.1038419,0.09378 -0.1601469,0.2075 -0.1601563,0.388672 l 0,12.001953 55.0585939,0.257813 0,-8.275391 c 1.6e-5,-0.221251 -0.05885,-0.342404 -0.136719,-0.419922 -0.07787,-0.07752 -0.201448,-0.141364 -0.451172,-0.138672 a 0.47470181,0.47470181 0 0 1 -0.0059,0 l -0.0059,0 -27.208985,0 c -1.835245,0 -3.193239,-1.244051 -4.291015,-2.257812 -0.550491,-0.508361 -1.056844,-0.990351 -1.486329,-1.306641 -0.427135,-0.314563 -0.766054,-0.435547 -0.9375,-0.435547 z"
     id="path4581"
     style="color:#000000;clip-rule:nonzero;display:inline;overflow:visible;visibility:visible;opacity:1;isolation:auto;mix-blend-mode:normal;color-interpolation:sRGB;color-interpolation-filters:linearRGB;solid-color:#000000;solid-opacity:1;fill:none;fill-opacity:1;fill-rule:nonzero;stroke:url(#linearGradient5938);stroke-width:0.99999976;stroke-linecap:round;stroke-linejoin:round;stroke-miterlimit:4;stroke-dasharray:none;stroke-dashoffset:0;stroke-opacity:1;marker:none;color-rendering:auto;image-rendering:auto;shape-rendering:auto;text-rendering:auto;enable-background:accumulate" />
  <path
     d="m 58.000667,52.99993 c 0,0 0,7.99991 0,7.99991 2.06824,0.0151 5,-1.79238 5,-4.00047 0,-2.2081 -2.308,-3.99944 -5,-3.99944 z"
     id="path3411"
     style="display:inline;overflow:visible;visibility:visible;opacity:0.3;fill:url(#radialGradient5942);fill-opacity:1;fill-rule:nonzero;stroke:none;stroke-width:1;marker:none" />
  <rect
     width="52"
     height="8"
     x="6.000669"
     y="53"
     id="rect4173-14"
     style="display:inline;overflow:visible;visibility:visible;opacity:0.3;fill:url(#linearGradient5946);fill-opacity:1;fill-rule:nonzero;stroke:none;stroke-width:1;marker:none" />
  <path
     d="m 6.0006657,52.99993 c 0,0 0,7.99991 0,7.99991 -2.06825,0.0151 -5,-1.79238 -5,-4.00047 0,-2.2081 2.308,-3.99944 5,-3.99944 z"
     id="path5018-7"
     style="display:inline;overflow:visible;visibility:visible;opacity:0.3;fill:url(#radialGradient5950);fill-opacity:1;fill-rule:nonzero;stroke:none;stroke-width:1;marker:none" />
  <path
     d="m 2.5042057,20.53211 c -1.44043,0.16346 -0.87122,1.85289 -0.98607,2.8029 0.5271,11.19318 1.25951,21.80885 1.78336,33.0021 0,1.18996 1.19486,1.13653 1.86516,1.13653 0,0 36.7742113,0 54.4905113,0 1.46281,-0.14093 0.85463,-1.86024 1.0604,-2.8442 0.52711,-11.19317 1.25992,-21.56889 1.78376,-32.76214 0.0178,-0.7521 -0.50074,-1.33519 -1.21534,-1.33519 0,0 -39.86255,0 -58.7817813,0 z"
     id="path3388-0"
     style="color:#000000;display:inline;overflow:visible;visibility:visible;fill:url(#linearGradient12481);fill-opacity:1;fill-rule:nonzero;stroke:none;stroke-width:1;marker:none;enable-background:accumulate;clip-rule:nonzero;opacity:1;isolation:auto;mix-blend-mode:normal;color-interpolation:sRGB;color-interpolation-filters:linearRGB;solid-color:#000000;solid-opacity:1;stroke-linecap:butt;stroke-linejoin:miter;stroke-miterlimit:4;stroke-dasharray:none;stroke-dashoffset:0;stroke-opacity:1;filter-blend-mode:normal;filter-gaussianBlur-deviation:0;color-rendering:auto;image-rendering:auto;shape-rendering:auto;text-rendering:auto" />
  <path
     d="M 61.069097,21.5 3.9511557,21.5313 c -1.70924,0 -1.43419,0.0338 -1.43419,1.07579 l 1.62114,32.91358 c 0.0163,0.94321 -0.0656,0.9793 1.0726,0.9793 0,0 36.7779513,0 54.4396613,0 0.53983,-11.58225 1.25805,-22.68226 1.81479,-34.32182 0.0519,-0.55489 0.0134,-0.67818 -0.39606,-0.67818 z"
     id="path3290"
     style="color:#000000;display:inline;overflow:visible;visibility:visible;opacity:0.5;fill:none;stroke:url(#linearGradient5962);stroke-width:0.99999988;stroke-linecap:round;stroke-linejoin:round;stroke-miterlimit:4;stroke-dasharray:none;stroke-dashoffset:0;stroke-opacity:1;marker:none;enable-background:accumulate" />
  <path
     d="m 2.5042057,20.53211 c -1.44043,0.16346 -0.87122,1.85289 -0.98607,2.8029 0.5271,11.19318 1.25951,21.80885 1.78336,33.0021 0,1.18996 1.19486,1.13653 1.86516,1.13653 0,0 36.7742113,0 54.4905113,0 1.46281,-0.14093 0.85463,-1.86024 1.0604,-2.8442 0.52711,-11.19317 1.25992,-21.56889 1.78376,-32.76214 0.0178,-0.7521 -0.50074,-1.33519 -1.21534,-1.33519 0,0 -39.86255,0 -58.7817813,0 z"
     id="path3388-0-1"
     style="color:#000000;display:inline;overflow:visible;visibility:visible;opacity:0.3;fill:none;stroke:#000000;stroke-width:1;stroke-linecap:round;stroke-linejoin:round;stroke-miterlimit:4;stroke-dasharray:none;stroke-dashoffset:0;stroke-opacity:1;marker:none;enable-background:accumulate;clip-rule:nonzero;isolation:auto;mix-blend-mode:normal;color-interpolation:sRGB;color-interpolation-filters:linearRGB;solid-color:#000000;solid-opacity:1;fill-opacity:1;fill-rule:nonzero;filter-blend-mode:normal;filter-gaussianBlur-deviation:0;color-rendering:auto;image-rendering:auto;shape-rendering:auto;text-rendering:auto" />
  <path
     d="m 52.20696,35.65599 -2.093952,0 -1.395968,0 2.093952,0 1.395968,0 z"
     style="fill:#ffffff;fill-rule:evenodd"
     id="path7013" />
  <rect
     id="rect5925"
     style="fill:url(#linearGradient3043);fill-rule:evenodd;stroke:none;stroke-width:0.9961881;stroke-linecap:round;stroke-linejoin:round;stroke-dashoffset:0.69999999;stroke-opacity:0.99237001"
     rx="2.1414909"
     ry="2.1414909"
     height="23"
     width="24"
     y="27"
     x="22" />
  <path
     id="path6964"
     style="color:#000000;clip-rule:nonzero;display:inline;overflow:visible;visibility:visible;opacity:1;isolation:auto;mix-blend-mode:normal;color-interpolation:sRGB;color-interpolation-filters:linearRGB;solid-color:#000000;solid-opacity:1;fill:none;fill-opacity:1;fill-rule:nonzero;stroke:url(#linearGradient4496);stroke-width:1;stroke-linecap:round;stroke-linejoin:round;stroke-miterlimit:4;stroke-dasharray:none;stroke-dashoffset:0;stroke-opacity:1;marker:none;color-rendering:auto;image-rendering:auto;shape-rendering:auto;text-rendering:auto;enable-background:accumulate"
     d="m 43.857066,27.5 c 0.94129,0 1.642933,0.722712 1.642933,1.692318 l 0,18.615365 c 0,0.96962 -0.70159,1.692317 -1.642933,1.692317 l -19.714133,0 C 23.201642,49.5 22.5,48.777303 22.5,47.807683 l 0,-18.615365 C 22.5,28.222698 23.20159,27.5 24.142933,27.5 l 19.714133,0 z" />
  <g
     transform="matrix(1.33,0,0,1.33,0.89955,-3.3795498)"
     id="g2531">
    <path
       d="m 25.573,28.132 c 0.35493,0 0.64177,0.28655 0.64177,0.64111 l 0,0.15985 c 0,0.16286 0.12736,0.3017 0.30201,0.3017 l 0.86828,0 c 0.35493,0 0.64177,0.39069 0.64177,0.74525 l 0,3.5797 c 0,0.35456 -0.28685,0.64111 -0.64177,0.64111 l -4.7567,0 c -0.35493,0 -0.64177,-0.28655 -0.64177,-0.64111 l 0,-3.5797 c 0,-0.35456 0.28684,-0.74525 0.64177,-0.74525 l 0.86828,0 c 0.1454,0.0098 0.30201,-0.10347 0.30201,-0.29227 l 0,-0.16927 c 0,-0.35456 0.28685,-0.64111 0.64177,-0.64111 l 1.1325,0 z"
       style="fill:url(#linearGradient3061);fill-rule:evenodd"
       id="rect7327" />
    <path
       transform="matrix(1.0275,0,0,1.0275,0.14679,-1.0459)"
       d="m 23.688,27.781 c -0.62654,0 -1.0852,0.48426 -1.2188,1.0625 l -0.34375,0 c -0.72412,0 -1.3438,0.58092 -1.3438,1.3125 l 0,3.0938 c 0,0.73158 0.61217,1.3438 1.3438,1.3438 l 4.125,0 c 0.73158,0 1.3437,-0.61217 1.3438,-1.3438 l 0,-3.0938 c 0,-0.73158 -0.61962,-1.3125 -1.3438,-1.3125 l -0.3125,0 c -0.13932,-0.5824 -0.62346,-1.0625 -1.25,-1.0625 l -1,0 z"
       style="fill:none;stroke:url(#linearGradient3063);stroke-width:0.73174;stroke-linecap:round;stroke-dashoffset:0.69999999"
       id="path2709" />
    <g
       transform="matrix(-0.53925,0,0,0.53925,40.914,18.327)"
       style="stroke:url(#linearGradient3073);stroke-width:1.85440004"
       id="g7393">
      <path
         d="m 26.082,27.198 0,-2"
         style="fill:none;stroke:url(#linearGradient3065);stroke-width:1.39429998;stroke-linecap:round"
         id="path7352" />
      <path
         d="m 28.5,27.198 0,-2"
         style="fill:none;stroke:url(#linearGradient3571);stroke-width:1.39429998;stroke-linecap:round"
         id="path7362" />
      <path
         d="m 30.5,27.198 0,-2"
         style="fill:none;stroke:url(#linearGradient3067);stroke-width:1.39429998;stroke-linecap:round"
         id="path7364" />
      <path
         d="m 32.918,27.198 0,-2"
         style="fill:none;stroke:url(#linearGradient3071);stroke-width:1.39429998;stroke-linecap:round"
         id="path7366" />
    </g>
  </g>
  <rect
     id="rect5925-5"
     style="color:#000000;clip-rule:nonzero;display:inline;overflow:visible;visibility:visible;opacity:0.8;isolation:auto;mix-blend-mode:normal;color-interpolation:sRGB;color-interpolation-filters:linearRGB;solid-color:#000000;solid-opacity:1;fill:none;fill-opacity:1;fill-rule:nonzero;stroke:url(#linearGradient4467);stroke-width:1;stroke-linecap:butt;stroke-linejoin:miter;stroke-miterlimit:4;stroke-dasharray:none;stroke-dashoffset:0;stroke-opacity:1;marker:none;color-rendering:auto;image-rendering:auto;shape-rendering:auto;text-rendering:auto;enable-background:accumulate"
     rx="2.633461"
     ry="2.633461"
     height="23.999998"
     width="25"
     y="26.499998"
     x="21.5" />
  <path
     d="m 38.050089,50.339289 a 7.0961086,4.7196394 0 1 0 14.192056,0 7.0961086,4.7196394 0 1 0 -14.192056,0 z"
     style="opacity:0.45896002;fill:url(#radialGradient3041);fill-rule:evenodd"
     id="path7820" />
  <g
     transform="matrix(-0.8143191,0,0,0.8375941,44.41183,2.0132411)"
     id="g7162">
    <path
       d="m -2.3516,51 c -0.21525,0 -0.40066,0.10124 -0.52559,0.25 l -4.2211,4 c -0.0368,0.1318 -0.10419,0.27134 -0.14782,0.40625 l 0,5.5208 c 0,0.36356 0.31169,0.65625 0.68984,0.65625 l 7.0298,0 c 0.18907,0 0.36937,-0.06888 0.49274,-0.1875 l 4.2047,-4 c 0.12337,-0.11862 0.1971,-0.28697 0.1971,-0.46875 l 0,-5.5208 c 0,-0.18178 -0.073723,-0.35013 -0.1971,-0.46875 -0.1252,-0.118 -0.3037,-0.187 -0.4927,-0.187 l -7.0298,0 z"
       style="fill:url(#linearGradient3047);fill-rule:evenodd"
       id="rect6100" />
    <path
       d="m -6.3739,55.167 6.462,0 c 0.34688,0 0.62614,0.28456 0.62614,0.63802 l 0,5.3906 c 0,0.35346 -0.27926,0.63802 -0.62614,0.63802 l -6.462,0 C -6.7207,61.83264 -7,61.54864 -7,61.19464 l 0,-5.3906 c 0,-0.35346 0.27926,-0.63802 0.62614,-0.63802 z"
       style="fill:url(#linearGradient3049);fill-rule:evenodd"
       id="path6105" />
  </g>
  <path
     d="m 45.22712,44.73058 3.48992,3.48992 -2.791936,0 -3.48992,-3.48992 2.791936,0"
     style="opacity:0.12312999;fill:url(#linearGradient3051);fill-rule:evenodd"
     id="path7253" />
  <path
     d="m 42.43412,44.73058 6.630981,2.791936 -2.442944,0 -3.48992,-2.093952 -0.697984,-0.697984"
     style="fill:#babdb6;fill-rule:evenodd"
     id="path6126" />
  <path
     d="m 46.31772,45.07904 c 0.01664,0 0.03812,0.0045 0.10906,0.08725 0.02095,0.0158 0.0428,0.03036 0.06544,0.04362 0.01387,0.0152 0.02842,0.02975 0.04362,0.04362 0.01387,0.0152 0.02842,0.02975 0.04362,0.04362 l 0.02181,0 c 0.01387,0.0152 0.02842,0.02975 0.04362,0.04362 l 0.130872,0.130872 c 0.07457,0.07004 0.164069,0.122254 0.261744,0.152684 l 2.966432,0.850681 c 0.279539,0.145436 0.372746,0.243829 0.414428,0.32718 6.2e-4,0.0012 -0.02374,0.09393 0,0.06544 -0.05712,0.06855 -0.251543,0.176066 -0.588924,0.239932 -0.237245,0.04807 -0.430707,0.219291 -0.507249,0.448929 -0.07655,0.229651 -0.02451,0.482683 0.136445,0.663497 l 0.239932,0.261744 c 0.01383,0.06111 0.03759,0.118716 0.06544,0.21812 0.0052,0.01857 -0.0057,0.02459 0,0.04362 l 0,4.536896 c 0,0.03782 -2.63e-4,0.08065 -0.04362,0.130872 -0.02198,0.02546 -0.07207,0.04362 -0.10906,0.04362 l -5.474812,0 c -0.06461,0 -0.117572,-0.0072 -0.152684,-0.04362 1.18e-4,-0.0073 1.18e-4,-0.01454 0,-0.02181 l -3.249988,-3.359048 c -0.03643,-0.03787 -0.04362,-0.05525 -0.04362,-0.130872 l 0,-4.624144 c 0,-0.07562 0.0072,-0.114819 0.04362,-0.152684 0.02571,-0.02633 0.108169,-0.04362 0.130872,-0.04362 l 5.453,0 z"
     style="opacity:0.53357999;fill:none;stroke:#ffffff;stroke-width:1.00000036;stroke-linecap:round;stroke-linejoin:round;stroke-dashoffset:0.69999999"
     id="path7235" />
  <path
     d="m 46.25654,44.41537 c 0.2847,0 0.507874,0.152112 0.665412,0.326369 l 0.02293,-0.02173 0.02293,0.04354 0.252394,0.217574 3.120579,0.848554 c 0.02371,0.0049 0.04676,0.01224 0.06885,0.02173 0.403043,0.191094 0.662313,0.385753 0.80308,0.652737 0.140768,0.266971 0.08556,0.603248 -0.0918,0.805036 -0.24089,0.274113 -0.629702,0.384596 -1.032546,0.456908 l 0.298293,0.30461 c 0.04134,0.0358 0.07283,0.0806 0.0918,0.130553 0.023,0.08448 0.05134,0.219876 0.0918,0.348127 0.0121,0.02786 0.01955,0.05714 0.02293,0.08701 l 0,4.634385 c 0,0.208092 -0.08311,0.404985 -0.229451,0.565702 -0.146314,0.160717 -0.3751,0.282851 -0.64247,0.282851 l -5.759299,0 c -0.237631,0 -0.482325,-0.0806 -0.665412,-0.261092 l -3.4189,-3.350666 c -0.165851,-0.163484 -0.252394,-0.375725 -0.252394,-0.60922 l 0,-4.612706 c 0,-0.233495 0.08654,-0.445736 0.252394,-0.60922 0.164216,-0.15952 0.404839,-0.261092 0.64247,-0.261092 l 5.73629,0 z"
     style="fill:none;stroke:#787878;stroke-width:1.00000036;stroke-linecap:round;stroke-linejoin:round;stroke-dashoffset:0.69999999"
     id="path7229" />
  <path
     d="m 42.43412,44.73058 7.677957,1.74496 -1.395968,1.046989 -2.093952,0 -3.48992,-2.093952 -0.697984,-0.697984"
     style="fill:url(#linearGradient3053);fill-rule:evenodd"
     id="path7184" />
  <path
     d="m 45.22712,44.73058 4.885888,1.395968 -2.791936,0 -4.885888,-1.395968 2.791936,0"
     style="fill:url(#linearGradient3055);fill-rule:evenodd"
     id="path7171" />
  <path
     d="m 50.11221,46.12575 -2.591771,0 -0.200205,0 c 1.395968,0.697997 0.348992,1.395968 -0.697997,1.395968 l 2.791936,0 c 1.046989,0 2.093952,-0.697984 0.697984,-1.395968 z"
     style="fill:url(#linearGradient3057);fill-rule:evenodd"
     id="rect7173" />
  <path
     d="m 48.43375,49.61567 -2.923473,0 c -0.156927,0 -0.283263,0.136192 -0.283263,0.305368 l 0,2.1812 c 0,0.169176 0.126336,0.305368 0.283263,0.305368 l 2.923473,0 c 0.156927,0 0.283263,-0.136192 0.283263,-0.305368 l 0,-2.1812 c 0,-0.169176 -0.126336,-0.305368 -0.283263,-0.305368 z"
     style="fill:url(#linearGradient3059);fill-rule:evenodd"
     id="path7275" />
  <path
     d="m 45.44524,48.61285 c 0,0 2.924138,2.280817 5.649308,4.536896 1.362585,1.128066 2.581264,2.248232 3.293612,3.337236 0.356214,0.544502 0.688993,1.133 0.458052,1.941268 -0.115471,0.404147 -0.426744,0.782599 -0.763433,0.981553 -0.33669,0.198955 -0.668778,0.283543 -1.04699,0.32718 -1.482418,0.171052 -3.302124,-0.274724 -5.474812,-0.894305 -2.172688,-0.61958 -4.655133,-1.453424 -7.154469,-2.268448 -2.499336,-0.814997 -5.023011,-1.609566 -7.219905,-2.093952 -2.196894,-0.484359 -4.072859,-0.617705 -5.147632,-0.348992 -0.508791,0.127201 -0.520389,0.209967 -0.523488,0.21812 -0.0031,0.0081 -0.04507,0.234133 0.152684,0.65436 0.395516,0.84048 1.592675,2.148482 2.922808,3.446296 1.984227,1.935948 2.536443,2.427782 2.536443,2.427782 l -3.039715,0.246808 c 0,0 -0.367053,-0.394185 -0.936439,-1.147683 -1.186879,-1.570597 -2.707614,-2.716392 -3.359048,-4.100656 -0.325731,-0.692186 -0.542201,-1.47497 -0.239932,-2.268448 0.302269,-0.793452 1.075903,-1.305063 1.96308,-1.52684 1.717163,-0.429284 3.800076,-0.142736 6.129172,0.370804 2.329229,0.513539 4.898656,1.294874 7.416213,2.115764 2.517424,0.820916 4.97553,1.672076 7.067221,2.268448 2.032772,0.57968 3.697932,0.851612 4.515084,0.785245 -0.432702,-0.661422 -1.602517,-1.782466 -2.900996,-2.857372 -2.596958,-2.149945 -5.56206,-4.449648 -5.56206,-4.449648 l 1.265109,-1.701336 z"
     style="fill:url(#linearGradient3075);fill-rule:evenodd;stroke:url(#linearGradient3077);stroke-width:0.66500002;stroke-linejoin:round"
     id="path7506" />
  <path
     d="m 44.75763,49.10628 c 0,0 12.869213,8.855805 8.332317,9.379293 -4.536896,0.523488 -19.54435,-6.979973 -25.12769,-5.583872 -5.583872,1.395968 8.375941,11.167877 8.375941,11.167877"
     style="opacity:0.6;fill:none;stroke:url(#linearGradient3079);stroke-width:0.66500002"
     id="path7502" />
  <path
     d="m 48.65453,48.24178 -0.221605,1.395968 -2.922808,0 c -0.156926,0 -0.283556,0.136192 -0.283556,0.305368 l 0,2.1812 -1.395968,-0.21812 0,-3.119116 c 0,-0.296058 0.219211,-0.5453 0.501676,-0.5453 l 4.322234,0 z"
     style="fill:url(#linearGradient3081);fill-rule:evenodd"
     id="path7512" />
  <path
     d="m 48.43375,49.61567 -2.923473,0 c -0.156927,0 -0.283263,0.136192 -0.283263,0.305368 l 0,2.1812 c 0,0.169176 0.126336,0.305368 0.283263,0.305368 l 2.923473,0 c 0.156927,0 0.283263,-0.136192 0.283263,-0.305368 l 0,-2.1812 c 0,-0.169176 -0.126336,-0.305368 -0.283263,-0.305368 z"
     style="opacity:0.35448004;fill:url(#linearGradient3115);fill-rule:evenodd"
     id="path7810" />
</svg>
