<?xml version="1.0" encoding="UTF-8" standalone="no"?>
<svg
   xmlns:dc="http://purl.org/dc/elements/1.1/"
   xmlns:cc="http://creativecommons.org/ns#"
   xmlns:rdf="http://www.w3.org/1999/02/22-rdf-syntax-ns#"
   xmlns:svg="http://www.w3.org/2000/svg"
   xmlns="http://www.w3.org/2000/svg"
   xmlns:xlink="http://www.w3.org/1999/xlink"
   version="1.1"
   width="64"
   height="64"
   id="svg22774">
  <defs
     id="defs22776">
    <linearGradient
       id="linearGradient4538">
      <stop
         style="stop-color:#000000;stop-opacity:1;"
         offset="0"
         id="stop4540" />
      <stop
         style="stop-color:#000000;stop-opacity:0;"
         offset="1"
         id="stop4542" />
    </linearGradient>
    <linearGradient
       id="linearGradient4530">
      <stop
         style="stop-color:#000000;stop-opacity:1;"
         offset="0"
         id="stop4532" />
      <stop
         style="stop-color:#000000;stop-opacity:0;"
         offset="1"
         id="stop4534" />
    </linearGradient>
    <linearGradient
       id="linearGradient4647">
      <stop
         offset="0"
         style="stop-color:#000000;stop-opacity:0.31764707"
         id="stop4649" />
      <stop
         offset="1"
         style="stop-color:#000000;stop-opacity:0.23921569"
         id="stop4651" />
    </linearGradient>
    <linearGradient
       id="linearGradient4583">
      <stop
         offset="0"
         style="stop-color:#ffffff;stop-opacity:1"
         id="stop4585" />
      <stop
         offset="0.23890026"
         style="stop-color:#ffffff;stop-opacity:0.23529412"
         id="stop4587" />
      <stop
         offset="0.97909725"
         style="stop-color:#ffffff;stop-opacity:0.15686275"
         id="stop4589" />
      <stop
         offset="1"
         style="stop-color:#ffffff;stop-opacity:0.39215687"
         id="stop4591" />
    </linearGradient>
    <linearGradient
       x1="97.538795"
       y1="16.962049"
       x2="97.538795"
       y2="44.260689"
       id="linearGradient5962"
       xlink:href="#linearGradient8272-8-8"
       gradientUnits="userSpaceOnUse"
       gradientTransform="matrix(1.3210282,0,0,1.2679796,-70.729885,0.17381034)" />
    <linearGradient
       id="linearGradient8272-8-8">
      <stop
         id="stop8274-4"
         style="stop-color:#ffffff;stop-opacity:1"
         offset="0" />
      <stop
         id="stop8276-5"
         style="stop-color:#ffffff;stop-opacity:0.23529412"
         offset="0.0221225" />
      <stop
         id="stop8278-0"
         style="stop-color:#ffffff;stop-opacity:0.15686275"
         offset="0.97909725" />
      <stop
         id="stop8280-5-9"
         style="stop-color:#ffffff;stop-opacity:0.39215687"
         offset="1" />
    </linearGradient>
    <radialGradient
       cx="605.71429"
       cy="486.64789"
       r="117.14286"
       fx="605.71429"
       fy="486.64789"
       id="radialGradient5950"
       xlink:href="#linearGradient5060-820-8"
       gradientUnits="userSpaceOnUse"
       gradientTransform="matrix(-0.04016195,0,0,0.0329426,30.204677,40.92132)" />
    <linearGradient
       id="linearGradient5060-820-8">
      <stop
         id="stop2681-37"
         style="stop-color:#000000;stop-opacity:1"
         offset="0" />
      <stop
         id="stop2683-05"
         style="stop-color:#000000;stop-opacity:0"
         offset="1" />
    </linearGradient>
    <linearGradient
       x1="302.85715"
       y1="366.64789"
       x2="302.85715"
       y2="609.50507"
       id="linearGradient5946"
       xlink:href="#linearGradient5048-585-1"
       gradientUnits="userSpaceOnUse"
       gradientTransform="matrix(0.1076923,0,0,0.03294117,-6.9224153,40.92219)" />
    <linearGradient
       id="linearGradient5048-585-1">
      <stop
         id="stop2667-0"
         style="stop-color:#000000;stop-opacity:0"
         offset="0" />
      <stop
         id="stop2669-91"
         style="stop-color:#000000;stop-opacity:1"
         offset="0.5" />
      <stop
         id="stop2671-6"
         style="stop-color:#000000;stop-opacity:0"
         offset="1" />
    </linearGradient>
    <radialGradient
       cx="605.71429"
       cy="486.64789"
       r="117.14286"
       fx="605.71429"
       fy="486.64789"
       id="radialGradient5942"
       xlink:href="#linearGradient5060-820-8"
       gradientUnits="userSpaceOnUse"
       gradientTransform="matrix(0.04016195,0,0,0.0329426,33.796647,40.92132)" />
    <linearGradient
       x1="117.7744"
       y1="9.3074646"
       x2="117.7744"
       y2="23.050795"
       id="linearGradient5938"
       xlink:href="#linearGradient4583"
       gradientUnits="userSpaceOnUse"
       gradientTransform="matrix(1.2749674,0,0,1.218292,-129.15852,-0.33920966)" />
    <linearGradient
       id="linearGradient6404-7-5-7">
      <stop
         id="stop6406-1-8-2"
         style="stop-color:#f9f9f9;stop-opacity:1"
         offset="0" />
      <stop
         id="stop6408-9-6-4"
         style="stop-color:#c9c9c9;stop-opacity:1"
         offset="1" />
    </linearGradient>
    <linearGradient
       x1="62.988873"
       y1="14.090554"
       x2="62.988873"
       y2="16.997795"
       id="linearGradient22772"
       xlink:href="#linearGradient6404-7-5-7"
       gradientUnits="userSpaceOnUse"
       gradientTransform="matrix(1.3135526,0,0,1.2900554,-117.48496,-1.2218597)" />
    <linearGradient
       gradientTransform="matrix(1.2553842,0,0,1.3002193,1.871663,-0.65363088)"
       gradientUnits="userSpaceOnUse"
       xlink:href="#radialGradient2444"
       id="linearGradient12481"
       y2="43.761127"
       x2="35.792694"
       y1="17.118193"
       x1="35.792694" />
    <radialGradient
       r="23.097"
       gradientTransform="matrix(1.5647,-9.5143e-8,6.1772e-8,1.0159,-59.14917,8.1461003)"
       cx="63.969002"
       cy="14.113"
       gradientUnits="userSpaceOnUse"
       id="radialGradient2444">
      <stop
         offset="0"
         style="stop-color:#888a85"
         id="stop3618" />
      <stop
         offset="0.6875183"
         style="stop-color:#555753"
         id="stop3270" />
      <stop
         offset="1"
         style="stop-color:#2e3436"
         id="stop3620" />
    </radialGradient>
    <linearGradient
       xlink:href="#linearGradient4647"
       id="linearGradient4845"
       gradientUnits="userSpaceOnUse"
       gradientTransform="matrix(1.0751259,0,0,1.1308007,77.393701,-1.9367307)"
       x1="-34.476868"
       y1="51.262348"
       x2="-34.476868"
       y2="9.5186977" />
    <linearGradient
       id="linearGradient2939"
       y2="609.51001"
       gradientUnits="userSpaceOnUse"
       x2="302.85999"
       gradientTransform="matrix(0.047724,0,0,0.02325,27.215,47.481)"
       y1="366.64999"
       x1="302.85999">
      <stop
         id="stop5050"
         style="stop-opacity:0"
         offset="0" />
      <stop
         id="stop5056"
         offset=".5" />
      <stop
         id="stop5052"
         style="stop-opacity:0"
         offset="1" />
    </linearGradient>
    <linearGradient
       id="linearGradient4235">
      <stop
         offset="0"
         style="stop-color:#ffffff;stop-opacity:1"
         id="stop4237" />
      <stop
         offset="0"
         style="stop-color:#ffffff;stop-opacity:0.23529412"
         id="stop4239" />
      <stop
         offset="1"
         style="stop-color:#ffffff;stop-opacity:0.15686275"
         id="stop4241" />
      <stop
         offset="1"
         style="stop-color:#ffffff;stop-opacity:0.39215687"
         id="stop4243" />
    </linearGradient>
    <linearGradient
       gradientTransform="matrix(0.67567563,0,0,0.83783791,27.783734,22.891917)"
       gradientUnits="userSpaceOnUse"
       xlink:href="#linearGradient4235"
       id="linearGradient7191-5-0"
       y2="41.72913"
       x2="23.99999"
       y1="6.2708025"
       x1="23.99999" />
    <linearGradient
       id="linearGradient4330">
      <stop
         offset="0"
         style="stop-color:#f0c1ff;stop-opacity:1"
         id="stop4332" />
      <stop
         offset="0.26238"
         style="stop-color:#c5a3f2;stop-opacity:1"
         id="stop4334" />
      <stop
         offset="0.704952"
         style="stop-color:#7a36b1;stop-opacity:1"
         id="stop4336" />
      <stop
         offset="1"
         style="stop-color:#4c2d81;stop-opacity:1"
         id="stop4338" />
    </linearGradient>
    <radialGradient
       cx="-14.890854"
       cy="11.546391"
       r="19.99999"
       fx="-14.890854"
       fy="11.546391"
       id="radialGradient3183-5"
       xlink:href="#linearGradient4330"
       gradientUnits="userSpaceOnUse"
       gradientTransform="matrix(1.7261886e-6,5.5078882,-3.2142869,-2.074105e-8,81.520479,89.969534)" />
    <radialGradient
       xlink:href="#linearGradient4530"
       id="radialGradient4536"
       cx="32.941032"
       cy="58.829082"
       fx="32.941032"
       fy="58.829082"
       r="2"
       gradientTransform="matrix(3.502908e-7,-1.3425355,1.9029748,4.9651914e-7,-79.009239,103.05356)"
       gradientUnits="userSpaceOnUse" />
    <radialGradient
       xlink:href="#linearGradient4538"
       id="radialGradient4544"
       cx="55.982845"
       cy="58.829082"
       fx="55.982845"
       fy="58.829082"
       r="2"
       gradientTransform="matrix(2.0276064,0,0,1.4115415,-57.528328,-24.210608)"
       gradientUnits="userSpaceOnUse" />
  </defs>
  <metadata
     id="metadata22779">
    <rdf:RDF>
      <cc:Work
         rdf:about="">
        <dc:format>image/svg+xml</dc:format>
        <dc:type
           rdf:resource="http://purl.org/dc/dcmitype/StillImage" />
        <dc:title />
      </cc:Work>
    </rdf:RDF>
  </metadata>
  <path
     id="path2856-0"
     style="fill:none;stroke:url(#linearGradient4845);stroke-width:0.99999994;stroke-linecap:butt;stroke-linejoin:miter;color:#000000;clip-rule:nonzero;display:inline;overflow:visible;visibility:visible;opacity:0.8;isolation:auto;mix-blend-mode:normal;color-interpolation:sRGB;color-interpolation-filters:linearRGB;solid-color:#000000;solid-opacity:1;fill-opacity:1;fill-rule:nonzero;stroke-miterlimit:4;stroke-dasharray:none;stroke-dashoffset:0;stroke-opacity:1;marker:none;filter-blend-mode:normal;filter-gaussianBlur-deviation:0;color-rendering:auto;image-rendering:auto;shape-rendering:auto;text-rendering:auto;enable-background:accumulate"
     d="M 5.1483764,9.51453 C 4.2211846,9.52473 3.5007153,10.17003 3.50067,11.04503 L 3.5,24 l 57,0 6.7e-4,-8.97097 c 6.5e-5,-0.875 -0.644175,-1.54 -1.571868,-1.53 l -27.207642,0 c -2.750017,0 -4.699575,-3.999 -6.716254,-3.999 L 5.1486769,9.51453 Z" />
  <path
     style="color:#000000;clip-rule:nonzero;display:inline;overflow:visible;visibility:visible;opacity:1;isolation:auto;mix-blend-mode:normal;color-interpolation:sRGB;color-interpolation-filters:linearRGB;solid-color:#000000;solid-opacity:1;fill:url(#linearGradient22772);fill-opacity:1;fill-rule:nonzero;stroke:none;stroke-width:1.00000012;stroke-linecap:butt;stroke-linejoin:miter;stroke-miterlimit:4;stroke-dasharray:none;stroke-dashoffset:0;stroke-opacity:1;marker:none;color-rendering:auto;image-rendering:auto;shape-rendering:auto;text-rendering:auto;enable-background:accumulate"
     d="M 25.005859,9.9960938 5.1542969,10.009766 c -0.6999739,0.0077 -1.1581719,0.432313 -1.1582031,1.035156 l 0,12.474609 56.0078122,0.261717 0,-8.751953 c 4.7e-5,-0.632443 -0.379547,-1.040628 -1.068359,-1.033203 l -0.0059,0 -27.208985,0 c -1.61516,0 -2.87564,-1.123361 -3.96875,-2.132813 -0.546555,-0.504726 -1.058136,-0.994299 -1.527344,-1.339843 -0.469207,-0.345547 -0.87832,-0.5273442 -1.21875,-0.5273442 z"
     id="path4502" />
  <rect
     id="rect2874"
     style="color:#000000;clip-rule:nonzero;display:block;overflow:visible;visibility:visible;opacity:1;isolation:auto;mix-blend-mode:normal;color-interpolation:sRGB;color-interpolation-filters:linearRGB;solid-color:#000000;solid-opacity:1;fill:#555753;fill-opacity:1;fill-rule:nonzero;stroke-width:1;stroke-linecap:butt;stroke-linejoin:miter;stroke-miterlimit:4;stroke-dasharray:none;stroke-dashoffset:0;stroke-opacity:1;color-rendering:auto;image-rendering:auto;shape-rendering:auto;text-rendering:auto;enable-background:accumulate"
     rx="1.0606"
     ry="1.0606"
     height="2.1212001"
     width="19"
     y="11.905029"
     x="5.8642626" />
  <path
     style="color:#000000;clip-rule:nonzero;display:inline;overflow:visible;visibility:visible;opacity:1;isolation:auto;mix-blend-mode:normal;color-interpolation:sRGB;color-interpolation-filters:linearRGB;solid-color:#000000;solid-opacity:1;fill:none;fill-opacity:1;fill-rule:nonzero;stroke:url(#linearGradient5938);stroke-width:0.99999976;stroke-linecap:round;stroke-linejoin:round;stroke-miterlimit:4;stroke-dasharray:none;stroke-dashoffset:0;stroke-opacity:1;marker:none;color-rendering:auto;image-rendering:auto;shape-rendering:auto;text-rendering:auto;enable-background:accumulate"
     id="path4581"
     d="m 25.005859,10.470703 -19.8457028,0.01367 c -0.2551663,0.0028 -0.425455,0.0781 -0.5292968,0.171875 -0.1038419,0.09378 -0.1601469,0.2075 -0.1601563,0.388672 l 0,12.001953 55.0585939,0.257813 0,-8.275391 c 1.6e-5,-0.221251 -0.05885,-0.342404 -0.136719,-0.419922 -0.07787,-0.07752 -0.201448,-0.141364 -0.451172,-0.138672 a 0.47470181,0.47470181 0 0 1 -0.0059,0 l -0.0059,0 -27.208985,0 c -1.835245,0 -3.193239,-1.244051 -4.291015,-2.257812 -0.550491,-0.508361 -1.056844,-0.990351 -1.486329,-1.306641 -0.427135,-0.314563 -0.766054,-0.435547 -0.9375,-0.435547 z" />
  <path
     style="display:inline;overflow:visible;visibility:visible;opacity:0.3;fill:url(#radialGradient5942);fill-opacity:1;fill-rule:nonzero;stroke:none;stroke-width:1;marker:none"
     id="path3411"
     d="m 58.000667,52.99993 c 0,0 0,7.99991 0,7.99991 2.06824,0.0151 5,-1.79238 5,-4.00047 0,-2.2081 -2.308,-3.99944 -5,-3.99944 z" />
  <rect
     style="display:inline;overflow:visible;visibility:visible;opacity:0.3;fill:url(#linearGradient5946);fill-opacity:1;fill-rule:nonzero;stroke:none;stroke-width:1;marker:none"
     id="rect4173-14"
     y="53"
     x="6.000669"
     height="8"
     width="52" />
  <path
     style="display:inline;overflow:visible;visibility:visible;opacity:0.3;fill:url(#radialGradient5950);fill-opacity:1;fill-rule:nonzero;stroke:none;stroke-width:1;marker:none"
     id="path5018-7"
     d="m 6.0006657,52.99993 c 0,0 0,7.99991 0,7.99991 -2.06825,0.0151 -5,-1.79238 -5,-4.00047 0,-2.2081 2.308,-3.99944 5,-3.99944 z" />
  <path
     style="color:#000000;display:inline;overflow:visible;visibility:visible;fill:url(#linearGradient12481);fill-opacity:1;fill-rule:nonzero;stroke:none;stroke-width:1;marker:none;enable-background:accumulate;clip-rule:nonzero;opacity:1;isolation:auto;mix-blend-mode:normal;color-interpolation:sRGB;color-interpolation-filters:linearRGB;solid-color:#000000;solid-opacity:1;stroke-linecap:butt;stroke-linejoin:miter;stroke-miterlimit:4;stroke-dasharray:none;stroke-dashoffset:0;stroke-opacity:1;filter-blend-mode:normal;filter-gaussianBlur-deviation:0;color-rendering:auto;image-rendering:auto;shape-rendering:auto;text-rendering:auto"
     id="path3388-0"
     d="m 2.5042057,20.53211 c -1.44043,0.16346 -0.87122,1.85289 -0.98607,2.8029 0.5271,11.19318 1.25951,21.80885 1.78336,33.0021 0,1.18996 1.19486,1.13653 1.86516,1.13653 0,0 36.7742113,0 54.4905113,0 1.46281,-0.14093 0.85463,-1.86024 1.0604,-2.8442 0.52711,-11.19317 1.25992,-21.56889 1.78376,-32.76214 0.0178,-0.7521 -0.50074,-1.33519 -1.21534,-1.33519 0,0 -39.86255,0 -58.7817813,0 z" />
  <path
     style="color:#000000;clip-rule:nonzero;display:inline;overflow:visible;visibility:visible;opacity:0.7;isolation:auto;mix-blend-mode:normal;color-interpolation:sRGB;color-interpolation-filters:linearRGB;solid-color:#000000;solid-opacity:1;fill:#000000;fill-opacity:1;fill-rule:nonzero;stroke:none;stroke-width:0.99999994;stroke-linecap:round;stroke-linejoin:round;stroke-miterlimit:4;stroke-dasharray:none;stroke-dashoffset:0;stroke-opacity:1;marker:none;color-rendering:auto;image-rendering:auto;shape-rendering:auto;text-rendering:auto;enable-background:accumulate"
     d="M 31 26 C 30.446 26 30 26.446 30 27 L 30 59 C 30 59.554 30.446 60 31 60 L 57 60 C 57.554 60 58 59.554 58 59 L 58 27 C 58 26.446 57.554 26 57 26 L 31 26 z M 32 29 L 34 29 L 34 30 L 32 30 L 32 29 z M 54 29 L 56 29 L 56 30 L 54 30 L 54 29 z M 32 32 L 34 32 L 34 33 L 32 33 L 32 32 z M 54 32 L 56 32 L 56 33 L 54 33 L 54 32 z M 32 35 L 34 35 L 34 36 L 32 36 L 32 35 z M 54 35 L 56 35 L 56 36 L 54 36 L 54 35 z M 32 38 L 34 38 L 34 39 L 32 39 L 32 38 z M 54 38 L 56 38 L 56 39 L 54 39 L 54 38 z M 32 41 L 34 41 L 34 42 L 32 42 L 32 41 z M 54 41 L 56 41 L 56 42 L 54 42 L 54 41 z M 32 44 L 34 44 L 34 45 L 32 45 L 32 44 z M 54 44 L 56 44 L 56 45 L 54 45 L 54 44 z M 32 47 L 34 47 L 34 48 L 32 48 L 32 47 z M 54 47 L 56 47 L 56 48 L 54 48 L 54 47 z M 32 50 L 34 50 L 34 51 L 32 51 L 32 50 z M 54 50 L 56 50 L 56 51 L 54 51 L 54 50 z M 32 53 L 34 53 L 34 54 L 32 54 L 32 53 z M 54 53 L 56 53 L 56 54 L 54 54 L 54 53 z M 32 56 L 34 56 L 34 57 L 32 57 L 32 56 z M 54 56 L 56 56 L 56 57 L 54 57 L 54 56 z "
     id="rect4512" />
  <path
     style="color:#000000;display:inline;overflow:visible;visibility:visible;opacity:0.5;fill:none;stroke:url(#linearGradient5962);stroke-width:0.99999988;stroke-linecap:round;stroke-linejoin:round;stroke-miterlimit:4;stroke-dasharray:none;stroke-dashoffset:0;stroke-opacity:1;marker:none;enable-background:accumulate"
     id="path3290"
     d="M 61.069097,21.5 3.9511557,21.5313 c -1.70924,0 -1.43419,0.0338 -1.43419,1.07579 l 1.62114,32.91358 c 0.0163,0.94321 -0.0656,0.9793 1.0726,0.9793 0,0 36.7779513,0 54.4396613,0 0.53983,-11.58225 1.25805,-22.68226 1.81479,-34.32182 0.0519,-0.55489 0.0134,-0.67818 -0.39606,-0.67818 z" />
  <path
     style="color:#000000;display:inline;overflow:visible;visibility:visible;opacity:0.3;fill:none;stroke:#000000;stroke-width:1;stroke-linecap:round;stroke-linejoin:round;stroke-miterlimit:4;stroke-dasharray:none;stroke-dashoffset:0;stroke-opacity:1;marker:none;enable-background:accumulate;clip-rule:nonzero;isolation:auto;mix-blend-mode:normal;color-interpolation:sRGB;color-interpolation-filters:linearRGB;solid-color:#000000;solid-opacity:1;fill-opacity:1;fill-rule:nonzero;filter-blend-mode:normal;filter-gaussianBlur-deviation:0;color-rendering:auto;image-rendering:auto;shape-rendering:auto;text-rendering:auto"
     id="path3388-0-1"
     d="m 2.5042057,20.53211 c -1.44043,0.16346 -0.87122,1.85289 -0.98607,2.8029 0.5271,11.19318 1.25951,21.80885 1.78336,33.0021 0,1.18996 1.19486,1.13653 1.86516,1.13653 0,0 36.7742113,0 54.4905113,0 1.46281,-0.14093 0.85463,-1.86024 1.0604,-2.8442 0.52711,-11.19317 1.25992,-21.56889 1.78376,-32.76214 0.0178,-0.7521 -0.50074,-1.33519 -1.21534,-1.33519 0,0 -39.86255,0 -58.7817813,0 z" />
  <path
     d="m 56,56.006 0,5.6461 c 1.6546,0.01063 4,-1.265 4,-2.8234 0,-1.5584 -1.8464,-2.8227 -4,-2.8227 z"
     style="opacity:0.40206;fill:url(#radialGradient4544);fill-opacity:1"
     id="path5058-9" />
  <rect
     x="32.941002"
     y="56.006001"
     width="23.044001"
     height="5.6464"
     style="opacity:0.40206;fill:url(#linearGradient2939)"
     id="rect2846" />
  <path
     d="m 33,56.006 0,5.6461 c -1.6546,0.01063 -4,-1.265 -4,-2.8234 0,-1.5584 1.8464,-2.8227 4,-2.8227 z"
     style="opacity:0.40206;fill:url(#radialGradient4536);fill-opacity:1"
     id="path2848" />
  <rect
     width="18"
     height="32"
     rx="0"
     ry="0"
     x="35"
     y="27"
     id="rect3457-8-4-2"
     style="color:#000000;clip-rule:nonzero;display:inline;overflow:visible;visibility:visible;opacity:1;isolation:auto;mix-blend-mode:normal;color-interpolation:sRGB;color-interpolation-filters:linearRGB;solid-color:#000000;solid-opacity:1;fill:url(#radialGradient3183-5);fill-opacity:1;fill-rule:nonzero;stroke:none;stroke-width:0.99999994;stroke-linecap:butt;stroke-linejoin:miter;stroke-miterlimit:4;stroke-dasharray:none;stroke-dashoffset:0;stroke-opacity:0.49803922;marker:none;color-rendering:auto;image-rendering:auto;shape-rendering:auto;text-rendering:auto;enable-background:accumulate" />
  <path
     d="m 35.5,43.5 17.003,0"
     style="fill:none;stroke:#333333;stroke-linecap:square;stroke-linejoin:round"
     id="path2856" />
  <path
     d="m 35.504,44.5 16.995,0"
     style="display:block;opacity:0.27000002;fill:none;stroke:#ffffff;stroke-linecap:square;stroke-linejoin:round"
     id="path2860" />
  <rect
     width="25"
     height="31"
     x="31.499998"
     y="27.499996"
     id="rect6741-0-3-5-9"
     style="opacity:0.5;fill:none;stroke:url(#linearGradient7191-5-0);stroke-width:1;stroke-linecap:round;stroke-linejoin:round;stroke-miterlimit:4;stroke-dasharray:none;stroke-dashoffset:0;stroke-opacity:1" />
</svg>
