<?xml version="1.0" encoding="UTF-8"?>
<!-- Created with Inkscape (http://www.inkscape.org/) -->
<svg id="svg3263" width="48" height="48" version="1.0" xmlns="http://www.w3.org/2000/svg" xmlns:xlink="http://www.w3.org/1999/xlink">
 <defs id="defs3265">
  <radialGradient id="radialGradient3314" cx="5" cy="41.5" r="5" gradientTransform="matrix(.59382 0 0 1.5367 41.141 -103.94)" gradientUnits="userSpaceOnUse" xlink:href="#linearGradient3681"/>
  <linearGradient id="linearGradient3312" x1="17.554" x2="17.554" y1="46" y2="35" gradientTransform="matrix(1.757 0 0 1.397 -17.394 -16.412)" gradientUnits="userSpaceOnUse">
   <stop id="stop3705" style="stop-opacity:0" offset="0"/>
   <stop id="stop3711" offset=".5"/>
   <stop id="stop3707" style="stop-opacity:0" offset="1"/>
  </linearGradient>
  <linearGradient id="linearGradient3681">
   <stop id="stop3683" offset="0"/>
   <stop id="stop3685" style="stop-opacity:0" offset="1"/>
  </linearGradient>
  <radialGradient id="radialGradient3310" cx="5" cy="41.5" r="5" gradientTransform="matrix(.59382 0 0 1.5367 -6.6595 -103.94)" gradientUnits="userSpaceOnUse" xlink:href="#linearGradient3681"/>
  <linearGradient id="linearGradient3293" x1="15.464" x2="15.464" y1="7.9757" y2="45.042" gradientUnits="userSpaceOnUse">
   <stop id="stop3297" style="stop-color:#c9af8b" offset="0"/>
   <stop id="stop3299" style="stop-color:#ad8757" offset=".23942"/>
   <stop id="stop3301" style="stop-color:#c2a57f" offset=".27582"/>
   <stop id="stop3303" style="stop-color:#9d7d53" offset="1"/>
  </linearGradient>
  <linearGradient id="linearGradient3197" x1="24.823" x2="24.997" y1="15.378" y2="37.277" gradientTransform="matrix(1.2822 0 0 1.5573 -6.0702 -15.291)" gradientUnits="userSpaceOnUse">
   <stop id="stop3201" style="stop-color:#dac197" offset="0"/>
   <stop id="stop3203" style="stop-color:#c1a581" offset=".23942"/>
   <stop id="stop3205" style="stop-color:#dac197" offset=".27582"/>
   <stop id="stop3207" style="stop-color:#a68b60" offset="1"/>
  </linearGradient>
  <radialGradient id="radialGradient3217" cx="24" cy="31" r="20" gradientTransform="matrix(1.6547 0 0 .65 -15.714 10.85)" gradientUnits="userSpaceOnUse">
   <stop id="stop3225" style="stop-color:#cbad7a" offset="0"/>
   <stop id="stop3227" style="stop-color:#cbae7d;stop-opacity:0" offset="1"/>
  </radialGradient>
  <linearGradient id="linearGradient2659" x1="23.452" x2="43.007" y1="30.555" y2="45.934" gradientTransform="matrix(1.2822 0 0 1.1747 -6.0702 -5.3032)" gradientUnits="userSpaceOnUse">
   <stop id="stop4561" style="stop-color:#fff;stop-opacity:0" offset="0"/>
   <stop id="stop4563" style="stop-color:#fff;stop-opacity:0" offset="1"/>
  </linearGradient>
  <linearGradient id="linearGradient3834" x1="26" x2="26" y1="22" y2="8" gradientUnits="userSpaceOnUse">
   <stop id="stop3829" style="stop-color:#fff" offset="0"/>
   <stop id="stop4295" style="stop-color:#fff" offset=".30213"/>
   <stop id="stop4293" style="stop-color:#fff;stop-opacity:.6902" offset=".34361"/>
   <stop id="stop3832" style="stop-color:#fff;stop-opacity:0" offset="1"/>
  </linearGradient>
  <linearGradient id="linearGradient3281" x1="44.995" x2="3.0052" y1="17.5" y2="17.5" gradientUnits="userSpaceOnUse" spreadMethod="reflect">
   <stop id="stop3277" style="stop-color:#fff;stop-opacity:0" offset="0"/>
   <stop id="stop3283" style="stop-color:#fff" offset=".16682"/>
   <stop id="stop3285" style="stop-color:#fff" offset=".83238"/>
   <stop id="stop3279" style="stop-color:#fff;stop-opacity:0" offset="1"/>
  </linearGradient>
  <linearGradient id="linearGradient5530" x1="22.369" x2="22.369" y1="8.0323" y2="38.274" gradientTransform="matrix(.59882 0 0 .5952 23.605 23.219)" gradientUnits="userSpaceOnUse">
   <stop id="stop3945" style="stop-color:#fff" offset="0"/>
   <stop id="stop3947" style="stop-color:#fff;stop-opacity:0" offset="1"/>
  </linearGradient>
  <radialGradient id="radialGradient3245" cx="69.448" cy="51.695" r="31" gradientTransform="matrix(0 .67924 -.73892 0 72.903 -17.49)" gradientUnits="userSpaceOnUse">
   <stop id="stop3244-5" style="stop-color:#eef87e" offset="0"/>
   <stop id="stop3246-9" style="stop-color:#cde34f" offset=".26238"/>
   <stop id="stop3248-7" style="stop-color:#93b723" offset=".66094"/>
   <stop id="stop3250-8" style="stop-color:#5a7e0d" offset="1"/>
  </radialGradient>
  <linearGradient id="linearGradient3247" x1="72.422" x2="72.422" y1="123.19" y2="52.809" gradientTransform="matrix(.28214 0 0 .28445 12.171 11.958)" gradientUnits="userSpaceOnUse">
   <stop id="stop2492-3" style="stop-color:#365f0e" offset="0"/>
   <stop id="stop2494-8" style="stop-color:#84a718" offset="1"/>
  </linearGradient>
 </defs>
 <g id="layer1">
  <g id="g3305" transform="matrix(.99266 0 0 .97615 .27519 1.293)" style="opacity:.4">
   <rect id="rect2484" transform="scale(-1)" x="-3.6904" y="-47.848" width="2.9602" height="15.367" style="fill:url(#radialGradient3310)"/>
   <rect id="rect2486" x="3.6904" y="32.482" width="40.412" height="15.367" style="fill:url(#linearGradient3312)"/>
   <rect id="rect3444" transform="scale(1,-1)" x="44.11" y="-47.848" width="2.9602" height="15.367" style="fill:url(#radialGradient3314)"/>
  </g>
  <path id="path2488" d="m9.0107 8.5h29.498c1.722 0 2.4969-0.28655 2.9916 1l3.0017 8v25.674c0 1.5533 0.10293 1.316-1.6191 1.316h-37.765c-1.722 0-1.6191 0.23733-1.6191-1.316v-25.674l3.0017-8c0.48083-1.2606 0.78873-1 2.5107-1z" style="display:block;fill:url(#linearGradient3197);stroke-linecap:round;stroke-width:.9942;stroke:url(#linearGradient3293)"/>
  <rect id="rect3209" x="4" y="18" width="40" height="26" style="fill-rule:evenodd;fill:url(#radialGradient3217)"/>
  <path id="path2490" d="m9.9482 9.5129h27.653c1.6143 0 2.6134 0.55654 3.2895 2.086l2.3289 6.4197v23.145c0 1.4607-0.81876 2.1961-2.4331 2.1961h-33.733c-1.6143 0-2.2728-0.80883-2.2728-2.2695v-23.071l2.2538-6.5574c0.45076-1.1854 1.2996-1.9484 2.9139-1.9484z" style="display:block;fill:none;opacity:.50549;stroke-width:.74212;stroke:url(#linearGradient2659)"/>
  <path id="rect3326" d="m22 8h4v14h-1.1812-1.2094-0.97358-0.63585v-14z" style="fill:url(#linearGradient3834);opacity:.4"/>
  <path id="path3273" d="m3.5052 17.5h40.99" style="fill:none;opacity:.3;stroke-linecap:square;stroke-width:1px;stroke:url(#linearGradient3281)"/>
 </g>
 <path id="path2262" d="m33.5 33.5v-6.0274h7v6.0274h6.0073v7h-6.0073v6.0073h-7v-6.0073h-6.0073v-7h6.0073z" style="color:#000000;fill:url(#radialGradient3245);stroke-linecap:round;stroke-linejoin:round;stroke-width:.98543;stroke:url(#linearGradient3247)"/>
 <path id="path2272" d="m34.5 34.5v-6h5v6h6v5h-6v6h-5v-6h-6v-5h6z" style="fill:none;opacity:.4;stroke:url(#linearGradient5530)"/>
</svg>
