<?xml version="1.0" encoding="UTF-8"?>
<!-- Created with Inkscape (http://www.inkscape.org/) -->
<svg id="svg3486" width="32" height="32" version="1.0" xmlns="http://www.w3.org/2000/svg" xmlns:xlink="http://www.w3.org/1999/xlink">
 <defs id="defs3488">
  <linearGradient id="linearGradient3434">
   <stop id="stop3436" style="stop-color:#fff;stop-opacity:0" offset="0"/>
   <stop id="stop3438" style="stop-color:#fff" offset="1"/>
  </linearGradient>
  <linearGradient id="linearGradient3463">
   <stop id="stop3465" offset="0"/>
   <stop id="stop3467" style="stop-opacity:0" offset="1"/>
  </linearGradient>
  <linearGradient id="linearGradient3275" x1="15" x2="15" y1="17" y2="33.434" gradientTransform="matrix(.875 0 0 .86207 .1875 -8.8621)" gradientUnits="userSpaceOnUse" xlink:href="#linearGradient3434"/>
  <linearGradient id="linearGradient3278" x1="14.499" x2="14.499" y1="44.179" y2="15.875" gradientTransform="matrix(.93333 0 0 .86676 -.55625 -8.8889)" gradientUnits="userSpaceOnUse" xlink:href="#linearGradient3434"/>
  <linearGradient id="linearGradient3281" x1="22.056" x2="22.056" y1="15.834" y2="45.497" gradientTransform="matrix(.86361 0 0 .87193 -.13264 -9.7371)" gradientUnits="userSpaceOnUse">
   <stop id="stop9938" style="stop-color:#575757" offset="0"/>
   <stop id="stop9940" style="stop-color:#333" offset="1"/>
  </linearGradient>
  <radialGradient id="radialGradient3287" cx="-6.1603" cy="36.686" r="14.098" gradientTransform="matrix(.25444 0 0 .1773 6.1544 21.996)" gradientUnits="userSpaceOnUse" xlink:href="#linearGradient3463"/>
  <radialGradient id="radialGradient3290" cx="-6.1603" cy="36.686" r="14.098" gradientTransform="matrix(.8327 0 0 .17519 17.869 22.103)" gradientUnits="userSpaceOnUse" xlink:href="#linearGradient3463"/>
  <radialGradient id="radialGradient3293" cx="-6.1603" cy="36.686" r="14.098" gradientTransform="matrix(.69391 0 0 .1773 25.492 21.996)" gradientUnits="userSpaceOnUse" xlink:href="#linearGradient3463"/>
  <linearGradient id="linearGradient3296" x1="143.92" x2="143.92" y1="75.221" y2="103.13" gradientTransform="matrix(1.0007 0 0 .95682 -122.51 -61.951)" gradientUnits="userSpaceOnUse">
   <stop id="stop3244" style="stop-color:#f8b17e" offset="0"/>
   <stop id="stop3246" style="stop-color:#e35d4f" offset=".3121"/>
   <stop id="stop3248" style="stop-color:#c6262e" offset=".57054"/>
   <stop id="stop3250" style="stop-color:#690b54" offset="1"/>
  </linearGradient>
  <linearGradient id="linearGradient3298" x1="153.41" x2="153.41" y1="98.785" y2="75.221" gradientTransform="matrix(1.0007 0 0 .95682 -122.51 -61.951)" gradientUnits="userSpaceOnUse">
   <stop id="stop2492" style="stop-color:#791235" offset="0"/>
   <stop id="stop2494" style="stop-color:#dd3b27" offset="1"/>
  </linearGradient>
  <radialGradient id="radialGradient3301" cx="-6.1603" cy="36.686" r="14.098" gradientTransform="matrix(.25444 0 0 .1773 22.459 21.996)" gradientUnits="userSpaceOnUse" xlink:href="#linearGradient3463"/>
  <linearGradient id="linearGradient3310" x1="153.41" x2="153.41" y1="98.785" y2="75.221" gradientTransform="matrix(1.0007 0 0 .95682 -122.51 -61.951)" gradientUnits="userSpaceOnUse">
   <stop id="stop3344" style="stop-color:#fff;stop-opacity:0" offset="0"/>
   <stop id="stop3346" style="stop-color:#fff" offset="1"/>
  </linearGradient>
 </defs>
 <path id="path3205" d="m24.478 28.5c3.73e-4 1.3806-1.6057 2.5-3.587 2.5-1.9813 0-3.5873-1.1194-3.587-2.5-3.72e-4 -1.3806 1.6057-2.5 3.587-2.5 1.9813 0 3.5873 1.1194 3.587 2.5z" style="fill-rule:evenodd;fill:url(#radialGradient3301);opacity:.2"/>
 <path id="path3207" d="m29.563 11.732c-0.48786-1.0862-1.6784-0.97243-2.4952-1.145-2.7042-0.30575-5.4037 0.18187-7.6701 1.6779-2.1875 1.4564-4.1669 3.4269-5.5573 5.9698-1.2086 2.2651-1.7513 5.2912-0.98876 8.1738 0.60013 1.9405 2.4068 3.1391 3.9304 2.8159 2.3325-0.3823 3.9947-2.5099 5.3659-4.5856 0.62006-0.85599 1.0009-1.9896 1.7328-2.709-0.10416 1.8447-0.15081 3.7607 0.27581 5.634 0.24247 1.1045 1.1295 1.9752 2.0284 1.935 0.91455-0.10313 1.6107-0.88322 2.3688-1.3923 0.68188-0.59359 1.463-1.104 1.9458-1.9622-0.083172-1.4216-1.3764-0.52896-1.8278-0.041026-0.63104 0.97597-1.9348 0.20047-1.6559-1.1277 0.14601-3.0337 0.8658-5.8826 1.4746-8.7428 0.34224-1.5078 0.70249-3.0069 1.0726-4.5008h-2e-6zm-3.7776 1.893c-1.1584 3.5961-2.4098 7.2562-4.5508 10.044-1.0101 1.272-2.4911 2.4255-4.1241 1.8136-1.1285-0.49176-1.3899-2.1086-1.4143-3.3249-0.14564-3.5916 1.619-6.5663 3.8251-8.3606 1.5378-1.203 3.5254-1.7476 5.4667-1.1601 0.36651 0.13411 0.76407 0.48126 0.79746 0.98752v-2e-6z" style="fill-rule:evenodd;fill:url(#linearGradient3296);stroke:url(#linearGradient3298)"/>
 <path id="path3209" d="m31 28.5c0.001017 1.3806-4.3791 2.5-9.7826 2.5-5.4035 0-9.7836-1.1194-9.7826-2.5-0.001017-1.3806 4.3791-2.5 9.7826-2.5 5.4035 0 9.7836 1.1194 9.7826 2.5z" style="fill-rule:evenodd;fill:url(#radialGradient3293);opacity:.2"/>
 <path id="path3211" d="m24.478 28.53c0.001221 1.3642-5.2549 2.4703-11.739 2.4703-6.4842 0-11.74-1.106-11.739-2.4703-0.0012207-1.3642 5.2549-2.4703 11.739-2.4703 6.4842 0 11.74 1.106 11.739 2.4703z" style="fill-rule:evenodd;fill:url(#radialGradient3290);opacity:.05"/>
 <path id="path3213" d="m8.1739 28.5c3.731e-4 1.3806-1.6057 2.5-3.587 2.5-1.9813 0-3.5873-1.1194-3.587-2.5-3.7303e-4 -1.3806 1.6057-2.5 3.587-2.5 1.9813 0 3.5873 1.1194 3.587 2.5z" style="fill-rule:evenodd;fill:url(#radialGradient3287);opacity:.2"/>
 <path id="path3305" d="m25.531 11.562c-1.072 1.35e-4 0.45073 0.19874 0.66127 0.64342 0.6767 0.57312 0.80176 1.5503 0.40791 2.3177-0.72216 2.188-1.5384 4.3508-2.5692 6.4139 1.2642 0.17952 0.76858 1.7109 0.82387 2.5828 0.017846 1.4379 0.049836 2.9256 0.53724 4.2916 0.38442 1.0408 1.3948 0.32456 1.9628-0.11562 0.55789-0.2812-0.68472-0.2995-0.79431-0.7295-0.6213-0.59298-0.74121-1.7861-0.52959-2.3418 0.21815-3.4315 1.0413-6.785 1.7915-10.128 0.20188-0.83304 0.41051-1.6644 0.61475-2.4969-0.69329-0.52573-1.745-0.30141-2.5833-0.44021l-0.16244-5.89e-4 -0.1605 0.003298zm-10 5.9375c-1.8382 2.4741-2.4707 5.8248-1.6413 8.7938 0.44077 1.2695 1.9136 2.3408 3.2639 1.796 0.98682-0.34869 1.7797-1.0775 2.4711-1.8398-1.3418 0.66465-3.2545 0.56137-4.1259-0.8028-0.95349-1.4676-0.91737-3.3235-0.77298-5.002 0.1246-1.0139 0.4031-2.0067 0.80516-2.9452z" style="fill:none;opacity:.4;stroke:url(#linearGradient3310)"/>
 <path id="path3217" d="m19.295 29.5c-0.79642-2.2766-1.5928-4.7234-2.3893-7h-9.7861c-0.81625 2.3045-1.6325 4.6955-2.4487 7h-3.1711c3.0193-8.3333 6.0386-16.667 9.0578-25h2.8675c3.0249 8.3333 6.0498 16.667 9.0747 25h-3.2048zm-3.3577-10-3.9375-11.121-3.9375 11.121h7.875z" style="fill:url(#linearGradient3281);stroke-width:1px;stroke:#333"/>
 <path id="path3219" d="m21.246 29-8.5124-23.5h-1.4615l-8.5205 23.5" style="fill:none;opacity:.3;stroke-width:1px;stroke:url(#linearGradient3278)"/>
 <path id="path3221" d="m12 5.5585 5.4544 14.942h-10.909l5.4545-14.942z" style="fill:none;opacity:.2;stroke-linejoin:round;stroke-width:1px;stroke:url(#linearGradient3275)"/>
</svg>
