<?xml version="1.0" encoding="UTF-8"?>
<!-- Created with Inkscape (http://www.inkscape.org/) -->
<svg id="svg3211" width="24" height="24" version="1.0" xmlns="http://www.w3.org/2000/svg" xmlns:cc="http://creativecommons.org/ns#" xmlns:dc="http://purl.org/dc/elements/1.1/" xmlns:rdf="http://www.w3.org/1999/02/22-rdf-syntax-ns#">
 <metadata id="metadata14">
  <rdf:RDF>
   <cc:Work rdf:about="">
    <dc:format>image/svg+xml</dc:format>
    <dc:type rdf:resource="http://purl.org/dc/dcmitype/StillImage"/>
    <dc:title/>
   </cc:Work>
  </rdf:RDF>
 </metadata>
 <path id="path3224" d="m12 6v2c-3.312 0-6 2.688-6 6s2.688 6 6 6 6-2.688 6-6h-2c0 2.208-1.792 4-4 4-2.208 0-4-1.792-4-4s1.792-4 4-4v2l5-3-5-3z" style="fill-rule:evenodd;opacity:.3"/>
 <path id="path4199" d="m12 5v2c-3.312 0-6 2.688-6 6s2.688 6 6 6 6-2.688 6-6h-2c0 2.208-1.792 4-4 4-2.208 0-4-1.792-4-4s1.792-4 4-4v2l5-3-5-3z" style="fill-rule:evenodd;fill:#df382c"/>
</svg>
