<?xml version="1.0" encoding="UTF-8"?>
<!-- Created with Inkscape (http://www.inkscape.org/) -->
<svg id="svg3294" width="22" height="22" version="1.0" xmlns="http://www.w3.org/2000/svg" xmlns:cc="http://creativecommons.org/ns#" xmlns:dc="http://purl.org/dc/elements/1.1/" xmlns:rdf="http://www.w3.org/1999/02/22-rdf-syntax-ns#">
 <metadata id="metadata15">
  <rdf:RDF>
   <cc:Work rdf:about="">
    <dc:format>image/svg+xml</dc:format>
    <dc:type rdf:resource="http://purl.org/dc/dcmitype/StillImage"/>
    <dc:title/>
   </cc:Work>
  </rdf:RDF>
 </metadata>
 <path id="rect2722-3" d="m4 4c-0.554 0-1 0.48939-1 1.0938v9.8125c0 0.60436 0.446 1.0938 1 1.0938h14c0.554 0 1-0.48939 1-1.0938v-9.8125c0-0.60436-0.446-1.0938-1-1.0938h-14zm1 2h12v8h-12v-8zm3 11v1h-2v2h10v-2h-2v-1h-6z" style="fill:#fff;opacity:.3"/>
 <path id="rect2722" d="m4 3c-0.554 0-1 0.48939-1 1.0938v9.8125c0 0.60436 0.446 1.0938 1 1.0938h14c0.554 0 1-0.48939 1-1.0938v-9.8125c0-0.60436-0.446-1.0938-1-1.0938h-14zm1 2h12v8h-12v-8zm3 11v1h-2v2h10v-2h-2v-1h-6z" style="fill:#3c3c3c"/>
</svg>
