<?xml version="1.0" encoding="UTF-8"?>
<!-- Created with Inkscape (http://www.inkscape.org/) -->
<svg id="svg2755" width="22" height="22" version="1.0" xmlns="http://www.w3.org/2000/svg" xmlns:xlink="http://www.w3.org/1999/xlink">
 <defs id="defs2757">
  <linearGradient id="linearGradient2664" x1="-51.786" x2="-51.786" y1="50.786" y2="2.9062" gradientTransform="matrix(.39221 0 0 .44736 28.199 .7613)" gradientUnits="userSpaceOnUse">
   <stop id="stop3106" style="stop-color:#aaa" offset="0"/>
   <stop id="stop3108" style="stop-color:#c8c8c8" offset="1"/>
  </linearGradient>
  <linearGradient id="linearGradient2662" x1="25.132" x2="25.132" y1=".98521" y2="47.013" gradientTransform="matrix(.48572 0 0 .47803 -.65717 1.294)" gradientUnits="userSpaceOnUse">
   <stop id="stop3602" style="stop-color:#f4f4f4" offset="0"/>
   <stop id="stop3604" style="stop-color:#dbdbdb" offset="1"/>
  </linearGradient>
  <radialGradient id="radialGradient2659" cx="102" cy="112.3" r="139.56" gradientTransform="matrix(.17021 0 0 -.19072 .10638 25.717)" gradientUnits="userSpaceOnUse">
   <stop id="stop41" style="stop-color:#b7b8b9" offset="0"/>
   <stop id="stop47" style="stop-color:#ececec" offset=".18851"/>
   <stop id="stop49" style="stop-color:#fafafa;stop-opacity:0" offset=".25718"/>
   <stop id="stop51" style="stop-color:#fff;stop-opacity:0" offset=".30111"/>
   <stop id="stop53" style="stop-color:#fafafa;stop-opacity:0" offset=".5313"/>
   <stop id="stop55" style="stop-color:#ebecec;stop-opacity:0" offset=".8449"/>
   <stop id="stop57" style="stop-color:#e1e2e3;stop-opacity:0" offset="1"/>
  </radialGradient>
  <linearGradient id="linearGradient2656" x1="24" x2="24" y1="2" y2="46.017" gradientTransform="matrix(.45454 0 0 .46512 .090934 2.3372)" gradientUnits="userSpaceOnUse">
   <stop id="stop3213" style="stop-color:#fff" offset="0"/>
   <stop id="stop3215" style="stop-color:#fff;stop-opacity:0" offset="1"/>
  </linearGradient>
  <linearGradient id="linearGradient2652" x1="32.892" x2="36.358" y1="8.059" y2="5.4565" gradientTransform="matrix(.47785 0 0 .55248 -.62775 1.9239)" gradientUnits="userSpaceOnUse">
   <stop id="stop8591" style="stop-color:#fefefe" offset="0"/>
   <stop id="stop8593" style="stop-color:#cbcbcb" offset="1"/>
  </linearGradient>
  <radialGradient id="radialGradient3997" cx="18.382" cy="19.035" r="10" gradientTransform="matrix(.56188 .20773 -.51025 1.3801 6.7011 -17.035)" gradientUnits="userSpaceOnUse">
   <stop id="stop3995" style="stop-color:#a3c0d0" offset="0"/>
   <stop id="stop4001" style="stop-color:#427da1" offset="1"/>
  </radialGradient>
 </defs>
 <g id="layer1" transform="translate(0,-2)">
  <path id="path4160" d="m2.5 2.5h11.5c0.68337 0.2373 4.5413 3.1282 5.5 5 0 5.7292 3.9e-5 10.271 3.9e-5 16h-17v-21z" style="fill:url(#linearGradient2662);stroke-linejoin:round;stroke-width:.99992;stroke:url(#linearGradient2664)"/>
  <path id="path4191" d="m3.1702 24c-0.093787 0-0.17021-0.08563-0.17021-0.19072v-20.598c0-0.10528 0.076426-0.19072 0.17021-0.19072 3.5215 0.052717 7.4239-0.078858 10.941 0.013125l4.8389 4.3271 0.04987 16.448c3e-6 0.10509-0.076254 0.19072-0.17021 0.19072h-15.66z" style="fill:url(#radialGradient2659)"/>
  <path id="path2435" d="m18.5 7.677v15.823h-15v-20h10.394" style="fill:none;opacity:.6;stroke:url(#linearGradient2656)"/>
  <path id="path3370" d="m13.075 3c1.1563 0.32877 0.33906 4.6144 0.33906 4.6144s4.5154-0.42774 5.6077 1.195c1.4892 2.2123-0.06822-0.63517-0.17345-0.8217-0.75593-1.34-3.8663-4.5471-5.0454-4.9412-0.088232-0.029492-0.28388-0.04647-0.72791-0.04647z" style="fill-rule:evenodd;fill:#969696"/>
  <path id="path4474" d="m13 3c1.5262 0 1 4 1 4s4.9921-0.45326 4.9921 2c0-0.59774 0.05575-1.4784-0.06407-1.6559-0.83911-1.243-3.7438-3.8619-4.7981-4.2976-0.085978-0.035532-0.6859-0.04647-1.1299-0.04647z" style="fill-rule:evenodd;fill:url(#linearGradient2652)"/>
  <path id="path3279" d="m4.586 20.728 0.34821 1.8301s4.5964 2.3115 6.8946-4.6602c0.13928-3e-6 3.8999-0.06903 3.8999-0.06903v-3.2443l-2.4375-0.06904s1.1839-2.7611 3.7607-3.0372c0-0.06903-0.27857-2.692-0.27857-2.692s-4.2482-0.62124-6.8249 6.0744c-2.2285 6.5575-5.3624 5.8673-5.3624 5.8673v1.3e-5z" style="fill-rule:evenodd;fill:#fff;opacity:.4"/>
  <path id="path1389" d="m4.586 19.731 0.34821 2.8301s4.5746 1.5342 6.8728-5.4375c0.13928-3e-6 3.9984 0 3.9984 0v-3.1165h-2.4932s1.163-3.2496 3.7398-3.5257c0-0.06903-0.27857-2.692-0.27857-2.692s-4.2482-0.62124-6.8249 6.0744c-2.2285 6.5575-5.3624 5.8673-5.3624 5.8673z" style="fill-rule:evenodd;fill:url(#radialGradient3997)"/>
  <path id="path2454" d="m5.2093 22.527-0.30076-2.4726s3.1931 0.18494 5.1314-5.6068c0 0 2.0256-6.5209 6.7402-6.3517" style="fill:none;opacity:.3;stroke-width:.6233;stroke:#000"/>
  <path id="path6356" d="m13.312 14.312c0.42676 0 2.4932 0.01276 2.4932 0.01276" style="fill:none;opacity:.3;stroke-width:.6233;stroke:#000"/>
 </g>
</svg>
