<?xml version="1.0" encoding="UTF-8"?>
<!-- Created with Inkscape (http://www.inkscape.org/) -->
<svg id="svg4070" width="22" height="22" version="1.1" xmlns="http://www.w3.org/2000/svg" xmlns:cc="http://creativecommons.org/ns#" xmlns:dc="http://purl.org/dc/elements/1.1/" xmlns:rdf="http://www.w3.org/1999/02/22-rdf-syntax-ns#" xmlns:xlink="http://www.w3.org/1999/xlink">
 <defs id="defs4072">
  <linearGradient id="linearGradient3097" x1="24" x2="24" y1="5" y2="43" gradientTransform="matrix(.45946 0 0 .45946 -.027027 9.973)" gradientUnits="userSpaceOnUse">
   <stop id="stop2919" style="stop-color:#fff" offset="0"/>
   <stop id="stop2921" style="stop-color:#fff;stop-opacity:0" offset="1"/>
  </linearGradient>
  <linearGradient id="linearGradient4016" x1="17.976" x2="17.976" y1="17.984" y2="6.0292" gradientUnits="userSpaceOnUse">
   <stop id="stop2492-3-33" style="stop-color:#365f0e" offset="0"/>
   <stop id="stop2494-8-83" style="stop-color:#84a718" offset="1"/>
  </linearGradient>
  <radialGradient id="radialGradient3066-0" cx="7.4957" cy="8.4498" r="20" gradientTransform="matrix(0 1.1204 -1.4996 -4.7276e-8 23.672 3.3856)" gradientUnits="userSpaceOnUse">
   <stop id="stop3244-5-4" style="stop-color:#eef87e" offset="0"/>
   <stop id="stop3246-9-62" style="stop-color:#cde34f" offset=".26238"/>
   <stop id="stop3248-7-6" style="stop-color:#93b723" offset=".66094"/>
   <stop id="stop3250-8-7" style="stop-color:#5a7e0d" offset="1"/>
  </radialGradient>
  <linearGradient id="linearGradient3069-5" x1="24" x2="24" y1="44" y2="3.899" gradientTransform="matrix(.48718 0 0 .48718 -.69231 9.3077)" gradientUnits="userSpaceOnUse">
   <stop id="stop2492-3-9" style="stop-color:#365f0e" offset="0"/>
   <stop id="stop2494-8-8" style="stop-color:#84a718" offset="1"/>
  </linearGradient>
 </defs>
 <metadata id="metadata4075">
  <rdf:RDF>
   <cc:Work rdf:about="">
    <dc:format>image/svg+xml</dc:format>
    <dc:type rdf:resource="http://purl.org/dc/dcmitype/StillImage"/>
    <dc:title/>
   </cc:Work>
  </rdf:RDF>
 </metadata>
 <g id="layer1" transform="translate(0,-10)">
  <rect id="rect5505" x="1.5" y="11.5" width="19" height="19" rx="1.0875" ry="1.0875" style="color:#000000;fill:url(#radialGradient3066-0);stroke-linecap:round;stroke-linejoin:round;stroke:url(#linearGradient3069-5)"/>
  <path id="path4014" transform="translate(-1,9)" d="m9.3438 6.0312a1.477 1.477 0 0 0-1.3125 1.4688v2.5312h-0.53125a1.477 1.477 0 0 0-1.0938 2.4688l4.5 5a1.477 1.477 0 0 0 2.1875 0l4.5-5a1.477 1.477 0 0 0-1.0938-2.4688h-0.53125v-2.5312a1.477 1.477 0 0 0-1.4688-1.4688h-5a1.477 1.477 0 0 0-0.15625 0z" style="color:#000000;fill:url(#linearGradient4016);opacity:.3"/>
  <rect id="rect6741" x="2.5" y="12.5" width="17" height="17" rx=".082179" ry=".082179" style="fill:none;opacity:.4;stroke-linecap:round;stroke-linejoin:round;stroke:url(#linearGradient3097)"/>
  <path id="path3288-2" d="m15.5 20.5-4.5 5-4.5-5h2v-4h5v4h2z" style="fill:#f2f2f2;stroke-width:.98543;stroke:#fff"/>
 </g>
</svg>
