<?xml version="1.0" encoding="UTF-8"?>
<!-- Created with Inkscape (http://www.inkscape.org/) -->
<svg id="svg2497" width="22" height="22" version="1.0" xmlns="http://www.w3.org/2000/svg" xmlns:xlink="http://www.w3.org/1999/xlink">
 <defs id="defs2499">
  <linearGradient id="linearGradient2438" x1="-51.786" x2="-51.786" y1="50.786" y2="2.9062" gradientTransform="matrix(.39221 0 0 .44736 28.199 .7613)" gradientUnits="userSpaceOnUse">
   <stop id="stop3106" style="stop-color:#aaa" offset="0"/>
   <stop id="stop3108" style="stop-color:#c8c8c8" offset="1"/>
  </linearGradient>
  <linearGradient id="linearGradient2435" x1="25.132" x2="25.132" y1=".98521" y2="47.013" gradientTransform="matrix(.48572 0 0 .47803 -.65717 1.294)" gradientUnits="userSpaceOnUse">
   <stop id="stop3602" style="stop-color:#f4f4f4" offset="0"/>
   <stop id="stop3604" style="stop-color:#dbdbdb" offset="1"/>
  </linearGradient>
  <radialGradient id="radialGradient2432" cx="92.09" cy="102.7" r="139.56" gradientTransform="matrix(.17021 0 0 -.19072 .10638 25.717)" gradientUnits="userSpaceOnUse">
   <stop id="stop41" style="stop-color:#b7b8b9" offset="0"/>
   <stop id="stop47" style="stop-color:#ececec" offset=".17403"/>
   <stop id="stop49" style="stop-color:#fafafa;stop-opacity:0" offset=".23908"/>
   <stop id="stop51" style="stop-color:#fff;stop-opacity:0" offset=".30111"/>
   <stop id="stop53" style="stop-color:#fafafa;stop-opacity:0" offset=".5313"/>
   <stop id="stop55" style="stop-color:#ebecec;stop-opacity:0" offset=".8449"/>
   <stop id="stop57" style="stop-color:#e1e2e3;stop-opacity:0" offset="1"/>
  </radialGradient>
  <linearGradient id="linearGradient2429" x1="24" x2="24" y1="2" y2="46.017" gradientTransform="matrix(.45454 0 0 .46512 .090934 2.3372)" gradientUnits="userSpaceOnUse">
   <stop id="stop3213" style="stop-color:#fff" offset="0"/>
   <stop id="stop3215" style="stop-color:#fff;stop-opacity:0" offset="1"/>
  </linearGradient>
  <linearGradient id="linearGradient3341">
   <stop id="stop3343" style="stop-color:#fff" offset="0"/>
   <stop id="stop3345" style="stop-color:#fff;stop-opacity:0" offset="1"/>
  </linearGradient>
  <linearGradient id="linearGradient3785">
   <stop id="stop3787" style="stop-color:#b8b8b8" offset="0"/>
   <stop id="stop3789" style="stop-color:#878787" offset="1"/>
  </linearGradient>
  <linearGradient id="linearGradient6954">
   <stop id="stop6960" style="stop-color:#f5f5f5" offset="0"/>
   <stop id="stop6962" style="stop-color:#d2d2d2" offset="1"/>
  </linearGradient>
  <linearGradient id="linearGradient2425" x1="32.892" x2="36.358" y1="8.059" y2="5.4565" gradientTransform="matrix(.47785 0 0 .55248 -.62775 1.9239)" gradientUnits="userSpaceOnUse">
   <stop id="stop8591" style="stop-color:#fefefe" offset="0"/>
   <stop id="stop8593" style="stop-color:#cbcbcb" offset="1"/>
  </linearGradient>
  <linearGradient id="linearGradient2605" x1="29.956" x2="29.956" y1="21.866" y2="43.144" gradientTransform="matrix(.42809 0 0 .42297 -.29256 2.7498)" gradientUnits="userSpaceOnUse" xlink:href="#linearGradient3341"/>
  <linearGradient id="linearGradient2608" x1="30" x2="30" y1=".91818" y2="25.793" gradientTransform="matrix(.33686 0 0 .32161 2.4255 5.7031)" gradientUnits="userSpaceOnUse" xlink:href="#linearGradient3341"/>
  <radialGradient id="radialGradient2611" cx="26.376" cy="12.313" r="8" gradientTransform="matrix(.5525 -.04264 .043156 .50972 -3.7714 4.0219)" gradientUnits="userSpaceOnUse" xlink:href="#linearGradient6954"/>
  <linearGradient id="linearGradient2613" x1="30" x2="30" y1="5" y2="44.679" gradientTransform="matrix(.33686 0 0 .32161 2.4255 5.7031)" gradientUnits="userSpaceOnUse" xlink:href="#linearGradient3785"/>
  <radialGradient id="radialGradient2616" cx="25" cy="28.66" r="16" gradientTransform="matrix(.56187 0 0 .15788 -3.637 11.337)" gradientUnits="userSpaceOnUse" xlink:href="#linearGradient6954"/>
  <linearGradient id="linearGradient2618" x1="30" x2="30" y1="25.085" y2="45" gradientTransform="matrix(.42809 0 0 .42297 -.29256 2.7498)" gradientUnits="userSpaceOnUse" xlink:href="#linearGradient3785"/>
  <linearGradient id="linearGradient2633" x1="29.956" x2="29.956" y1="21.866" y2="43.144" gradientTransform="matrix(.42809 0 0 .42297 -3.2926 1.7482)" gradientUnits="userSpaceOnUse" xlink:href="#linearGradient3341"/>
  <linearGradient id="linearGradient2636" x1="30" x2="30" y1=".91818" y2="25.793" gradientTransform="matrix(.33686 0 0 .32161 -.57447 4.7015)" gradientUnits="userSpaceOnUse" xlink:href="#linearGradient3341"/>
  <radialGradient id="radialGradient2639" cx="26.376" cy="12.313" r="8" gradientTransform="matrix(.5525 -.04264 .043156 .50972 -6.7714 3.0203)" gradientUnits="userSpaceOnUse" xlink:href="#linearGradient6954"/>
  <linearGradient id="linearGradient2641" x1="30" x2="30" y1="5" y2="44.679" gradientTransform="matrix(.33686 0 0 .32161 -.57447 4.7015)" gradientUnits="userSpaceOnUse" xlink:href="#linearGradient3785"/>
  <radialGradient id="radialGradient2644" cx="25" cy="28.66" r="16" gradientTransform="matrix(.56187 0 0 .15788 -6.637 10.335)" gradientUnits="userSpaceOnUse" xlink:href="#linearGradient6954"/>
  <linearGradient id="linearGradient2646" x1="30" x2="30" y1="25.085" y2="45" gradientTransform="matrix(.42809 0 0 .42297 -3.2926 1.7482)" gradientUnits="userSpaceOnUse" xlink:href="#linearGradient3785"/>
 </defs>
 <g id="layer1" transform="translate(0,-2)">
  <path id="path4160" d="m2.5 2.5h11.5c0.68337 0.2373 4.5413 3.1282 5.5 5 0 5.7292 3.9e-5 10.271 3.9e-5 16h-17v-21z" style="fill:url(#linearGradient2435);stroke-linejoin:round;stroke-width:.99992;stroke:url(#linearGradient2438)"/>
  <path id="path4191" d="m3.1702 24c-0.093787 0-0.17021-0.08563-0.17021-0.19072v-20.598c0-0.10528 0.076426-0.19072 0.17021-0.19072 3.5215 0.052717 7.4239-0.078858 10.941 0.013125l4.8389 4.3271 0.04987 16.448c3e-6 0.10509-0.076254 0.19072-0.17021 0.19072h-15.66z" style="fill:url(#radialGradient2432)"/>
  <path id="path2435" d="m18.5 7.677v15.823h-15v-20h10.394" style="fill:none;opacity:.6;stroke:url(#linearGradient2429)"/>
  <path id="path2846" d="m8.375 11.497c-0.08064 0.68009 0.59016 2.1001 0.21875 2.7188-1.4448 0.50489-4.0489 1.4261-4.1875 2.0312-0.10237 0.93994-0.25592 2.3114-0.375 3.25 2.5329 1.3682 8.4918 1.3022 10.937 0-0.0863-0.66592-0.1637-2.5841-0.25-3.25-0.65364-0.78052-2.3749-1.2372-4.1875-2.0312-0.47365-0.61617 0.24346-1.9932 0.09375-2.6875-0.28643-0.04925-1.9599-0.02372-2.25-0.03125z" style="fill:url(#radialGradient2644);stroke-linejoin:round;stroke-width:1.0001;stroke:url(#linearGradient2646)"/>
  <path id="path2860" d="m9.5312 6.4655c-1.3953 0-2.5312 1.0066-2.5312 2.25 0.010946 0.46014 0.05895 1.0055 0.34375 2.25 0.16843 0.48242 1.6739 1.7767 1.6875 1.9375 0.32664 0.1608 0.85064 0.1608 1.1875 0 0-0.16081 1.3316-1.4551 1.5-1.9375 0.32048-1.2934 0.32656-1.7676 0.34375-2.25 0-1.2434-1.1359-2.25-2.5312-2.25z" style="fill:url(#radialGradient2639);stroke-width:.94714;stroke:url(#linearGradient2641)"/>
  <path id="path2856" d="m9.5312 7.4655c-0.61239-0.014824-1.267 0.33056-1.4688 0.9375-0.11358 0.41049-0.010161 0.83684 0.03125 1.25 0.05222 0.33814 0.11328 0.66608 0.1875 1 0.19409 0.17145 0.36114 0.39746 0.5625 0.5625 0.26331 0.25603 0.4908 0.5212 0.75 0.78125 0.2682-0.21731 0.44842-0.50327 0.6875-0.75 0.15268-0.17982 0.31025-0.38762 0.46875-0.5625 0.15764-0.71028 0.33973-1.4222 0.28125-2.1563-0.12463-0.68677-0.84702-1.0797-1.5-1.0625z" style="fill:none;stroke-width:.94714;stroke:url(#linearGradient2636)"/>
  <path id="path2852" d="m9.5312 14.059c0.04083 0.61847-0.4845 1.101-1.0625 1.1875-1.0618 0.37758-2.1651 0.7065-3.125 1.3125-0.22472 0.54072-0.10424 1.1607-0.25 1.7188-0.33093 0.70896 0.56908 0.77606 1.0312 0.90625 2.2561 0.54072 4.6521 0.49906 6.9062-0.03125 0.33585-0.16859 1.1383-0.08494 0.9375-0.625-0.06223-0.58751-0.09192-1.1917-0.125-1.7812-0.92005-0.70833-2.0869-0.95733-3.125-1.4375-0.82297-0.11676-0.8526-0.71962-1.1875-1.25z" style="fill:none;stroke-linejoin:round;stroke-width:1.0001;stroke:url(#linearGradient2633)"/>
  <path id="path2880" d="m11.375 12.498c-0.08064 0.68009 0.59016 2.1001 0.21875 2.7188-1.4448 0.50489-4.0489 1.4261-4.1875 2.0312-0.10237 0.93994-0.25592 2.3114-0.375 3.25 2.5329 1.3682 8.4918 1.3022 10.937 0-0.0863-0.66592-0.1637-2.5841-0.25-3.25-0.65364-0.78052-2.3749-1.2372-4.1875-2.0312-0.47365-0.61617 0.24346-1.9932 0.09375-2.6875-0.28643-0.04925-1.9599-0.02372-2.25-0.03125z" style="fill:url(#radialGradient2616);stroke-linejoin:round;stroke-width:1.0001;stroke:url(#linearGradient2618)"/>
  <path id="path2870" d="m12.531 7.4671c-1.3953 0-2.5312 1.0066-2.5312 2.25 0.01095 0.46014 0.05895 1.0055 0.34375 2.25 0.16843 0.48242 1.6739 1.7767 1.6875 1.9375 0.32664 0.1608 0.85064 0.1608 1.1875 0 0-0.1608 1.3316-1.4551 1.5-1.9375 0.32048-1.2934 0.32656-1.7676 0.34375-2.25 0-1.2434-1.1359-2.25-2.5312-2.25z" style="fill:url(#radialGradient2611);stroke-width:.94714;stroke:url(#linearGradient2613)"/>
  <path id="path2866" d="m12.531 8.4671c-0.61239-0.014824-1.267 0.33056-1.4688 0.9375-0.11358 0.41049-0.01016 0.83684 0.03125 1.25 0.05222 0.33814 0.11328 0.66608 0.1875 1 0.19409 0.17145 0.36114 0.39746 0.5625 0.5625 0.26331 0.25603 0.4908 0.5212 0.75 0.78125 0.2682-0.21731 0.44842-0.50327 0.6875-0.75 0.15268-0.17982 0.31025-0.38762 0.46875-0.5625 0.15764-0.71028 0.33973-1.4222 0.28125-2.1562-0.12463-0.68677-0.84702-1.0797-1.5-1.0625z" style="fill:none;stroke-width:.94714;stroke:url(#linearGradient2608)"/>
  <path id="path2876" d="m12.531 15.061c0.04083 0.61847-0.4845 1.101-1.0625 1.1875-1.0618 0.37758-2.1651 0.7065-3.125 1.3125-0.22472 0.54072-0.10424 1.1607-0.25 1.7188-0.33093 0.70896 0.56908 0.77606 1.0312 0.90625 2.2561 0.54072 4.6521 0.49906 6.9062-0.03125 0.33585-0.16859 1.1383-0.08494 0.9375-0.625-0.06223-0.58751-0.09192-1.1917-0.125-1.7812-0.92005-0.70833-2.0869-0.95733-3.125-1.4375-0.82297-0.11676-0.8526-0.71962-1.1875-1.25z" style="fill:none;stroke-linejoin:round;stroke-width:1.0001;stroke:url(#linearGradient2605)"/>
  <path id="path3370" d="m13.075 3c1.1563 0.32877 0.33906 4.6144 0.33906 4.6144s4.5154-0.42774 5.6077 1.195c1.4892 2.2123-0.06822-0.63517-0.17345-0.8217-0.75593-1.34-3.8663-4.5471-5.0454-4.9412-0.088232-0.029492-0.28388-0.04647-0.72791-0.04647z" style="fill-rule:evenodd;opacity:.2"/>
  <path id="path4474" d="m13 3c1.5262 0 1 4 1 4s4.9921-0.45326 4.9921 2c0-0.59774 0.05575-1.4784-0.06407-1.6559-0.83911-1.243-3.7438-3.8619-4.7981-4.2976-0.085978-0.035532-0.6859-0.04647-1.1299-0.04647z" style="fill-rule:evenodd;fill:url(#linearGradient2425)"/>
 </g>
</svg>
