<?xml version="1.0" encoding="UTF-8"?>
<!-- Created with Inkscape (http://www.inkscape.org/) -->
<svg id="svg3115" width="22" height="22" version="1.1" xmlns="http://www.w3.org/2000/svg" xmlns:cc="http://creativecommons.org/ns#" xmlns:dc="http://purl.org/dc/elements/1.1/" xmlns:rdf="http://www.w3.org/1999/02/22-rdf-syntax-ns#" xmlns:xlink="http://www.w3.org/1999/xlink">
 <defs id="defs3117">
  <linearGradient id="linearGradient2988" x1="17.976" x2="17.976" y1="17.984" y2="6.0292" gradientUnits="userSpaceOnUse">
   <stop id="stop2492-3-33" style="stop-color:#365f0e" offset="0"/>
   <stop id="stop2494-8-83" style="stop-color:#84a718" offset="1"/>
  </linearGradient>
  <linearGradient id="linearGradient2996" x1="32.892" x2="36.358" y1="8.059" y2="5.4565" gradientTransform="matrix(.47785 0 0 .55248 -.62775 -6.0761)" gradientUnits="userSpaceOnUse">
   <stop id="stop8591" style="stop-color:#fefefe" offset="0"/>
   <stop id="stop8593" style="stop-color:#cbcbcb" offset="1"/>
  </linearGradient>
  <linearGradient id="linearGradient3003" x1="24" x2="24" y1="2" y2="46.017" gradientTransform="matrix(.45454 0 0 .44186 .090934 -5.6046)" gradientUnits="userSpaceOnUse">
   <stop id="stop3213" style="stop-color:#fff" offset="0"/>
   <stop id="stop3215" style="stop-color:#fff;stop-opacity:0" offset="1"/>
  </linearGradient>
  <radialGradient id="radialGradient3111" cx="24" cy="4.5" r="18" gradientTransform="matrix(0 1.4601 -1.5957 0 18.181 -40.782)" gradientUnits="userSpaceOnUse">
   <stop id="stop3244-5-2-4" style="stop-color:#eef87e" offset="0"/>
   <stop id="stop3246-9-2-4" style="stop-color:#cde34f" offset=".26238"/>
   <stop id="stop3248-7-2-4" style="stop-color:#93b723" offset=".66094"/>
   <stop id="stop3250-8-70-4" style="stop-color:#5a7e0d" offset="1"/>
  </radialGradient>
  <linearGradient id="linearGradient3113" x1="-51.786" x2="-51.786" y1="50.786" y2="2.9062" gradientTransform="matrix(.39221 0 0 .42703 28.199 -7.1597)" gradientUnits="userSpaceOnUse">
   <stop id="stop2492-3-6-3" style="stop-color:#365f0e" offset="0"/>
   <stop id="stop2494-8-3-1" style="stop-color:#84a718" offset="1"/>
  </linearGradient>
 </defs>
 <metadata id="metadata3120">
  <rdf:RDF>
   <cc:Work rdf:about="">
    <dc:format>image/svg+xml</dc:format>
    <dc:type rdf:resource="http://purl.org/dc/dcmitype/StillImage"/>
    <dc:title/>
   </cc:Work>
  </rdf:RDF>
 </metadata>
 <g id="layer1" transform="translate(0,6)">
  <path id="path4160" d="m2.5-5.5h11.5c0.68337 0.2373 4.5413 3.1282 5.5 5 0 5.7292 3.9e-5 10.271 3.9e-5 16h-17v-21z" style="color:#000000;fill:url(#radialGradient3111);stroke-linejoin:round;stroke-width:.99992;stroke:url(#linearGradient3113)"/>
  <path id="path2435" d="m18.5-0.53182v15.032h-15v-19h10.394" style="fill:none;opacity:.4;stroke:url(#linearGradient3003)"/>
  <path id="path3370" d="m13.075-5c1.1563 0.32877 0.33906 4.6144 0.33906 4.6144s4.5154-0.42774 5.6077 1.195c1.4892 2.2123-0.06822-0.63517-0.17345-0.8217-0.75593-1.34-3.8663-4.5471-5.0454-4.9412-0.08823-0.029492-0.28388-0.04647-0.72791-0.04647z" style="fill-rule:evenodd;opacity:.2"/>
  <path id="path4474" d="m13-5c1.5262 0 1 4 1 4s4.9921-0.45326 4.9921 2c0-0.59774 0.05575-1.4784-0.06407-1.6559-0.83911-1.243-3.7438-3.8619-4.7981-4.2976-0.08598-0.035532-0.6859-0.04647-1.1299-0.04647z" style="fill-rule:evenodd;fill:url(#linearGradient2996)"/>
  <path id="path4014" transform="translate(-1 -5.9995)" d="m9.3438 6.0312a1.477 1.477 0 0 0-1.3125 1.4688v2.5312h-0.53125a1.477 1.477 0 0 0-1.0938 2.4688l4.5 5a1.477 1.477 0 0 0 2.1875 0l4.5-5a1.477 1.477 0 0 0-1.0938-2.4688h-0.53125v-2.5312a1.477 1.477 0 0 0-1.4688-1.4688h-5a1.477 1.477 0 0 0-0.15625 0z" style="color:#000000;fill:url(#linearGradient2988);opacity:.3"/>
  <path id="path3288-2" d="m15.5 5.5073-4.5 5-4.5-5h2v-4h5v4h2z" style="fill:#f2f2f2;stroke-width:.98543;stroke:#fff"/>
 </g>
</svg>
