<?xml version="1.0" encoding="UTF-8"?>
<!-- Created with Inkscape (http://www.inkscape.org/) -->
<svg id="svg3786" width="24" height="24" version="1.0" xmlns="http://www.w3.org/2000/svg" xmlns:xlink="http://www.w3.org/1999/xlink">
 <defs id="defs3788">
  <linearGradient id="linearGradient5060-8">
   <stop id="stop5062-3" offset="0"/>
   <stop id="stop5064-0" style="stop-opacity:0" offset="1"/>
  </linearGradient>
  <radialGradient id="radialGradient3653" cx="7.8305" cy="5.1186" r="12" gradientTransform="matrix(1.7773 -.00072163 .00060703 1.4951 -6.0894 -1.7152)" gradientUnits="userSpaceOnUse">
   <stop id="stop7064" style="stop-color:#f0f0f1" offset="0"/>
   <stop id="stop7060" style="stop-color:#ddddde" offset="1"/>
  </radialGradient>
  <linearGradient id="linearGradient3655" x1="13.953" x2="8.4682" y1="17.608" y2="7.0527" gradientTransform="matrix(.98924 0 0 1.5513 .12906 -10.941)" gradientUnits="userSpaceOnUse">
   <stop id="stop3486" style="stop-color:#aaa" offset="0"/>
   <stop id="stop3488" style="stop-color:#c8c8c8" offset="1"/>
  </linearGradient>
  <radialGradient id="radialGradient3658" cx="24" cy="42" r="21" gradientTransform="matrix(.47392 5.0952e-8 -1.4047e-8 .11905 .62585 16)" gradientUnits="userSpaceOnUse">
   <stop id="stop6312-7" style="stop-color:#fff" offset="0"/>
   <stop id="stop6314-8" style="stop-color:#fff;stop-opacity:0" offset="1"/>
  </radialGradient>
  <linearGradient id="linearGradient3661" x1="52.073" x2="52.073" y1="106.9" y2="86.135" gradientTransform="matrix(.19129 0 0 .19263 .03887 2.4077)" gradientUnits="userSpaceOnUse">
   <stop id="stop2223" style="stop-color:#aaa" offset="0"/>
   <stop id="stop2219" style="stop-color:#646464" offset="1"/>
  </linearGradient>
  <radialGradient id="radialGradient3664" cx="605.71" cy="486.65" r="117.14" gradientTransform="matrix(-.022183 0 0 .01086 16.259 17.381)" gradientUnits="userSpaceOnUse" xlink:href="#linearGradient5060-8"/>
  <radialGradient id="radialGradient3667" cx="605.71" cy="486.65" r="117.14" gradientTransform="matrix(.022183 0 0 .01086 7.7407 17.381)" gradientUnits="userSpaceOnUse" xlink:href="#linearGradient5060-8"/>
  <linearGradient id="linearGradient3670" x1="302.86" x2="302.86" y1="366.65" y2="609.51" gradientTransform="matrix(.037768 0 0 .01086 -1.6503 17.381)" gradientUnits="userSpaceOnUse">
   <stop id="stop5050-3" style="stop-opacity:0" offset="0"/>
   <stop id="stop5056-9" offset=".5"/>
   <stop id="stop5052-2" style="stop-opacity:0" offset="1"/>
  </linearGradient>
 </defs>
 <rect id="rect2723-5" x="2.8818" y="21.363" width="18.236" height="2.6374" style="fill:url(#linearGradient3670);opacity:.40206"/>
 <path id="path2725-7" d="m21.109 21.363v2.6373c1.1423 5e-3 2.7616-0.59088 2.7616-1.3188 0-0.72793-1.2748-1.3185-2.7616-1.3185z" style="fill:url(#radialGradient3667);opacity:.40206"/>
 <path id="path2727-4" d="m2.8907 21.363v2.6373c-1.1424 5e-3 -2.7616-0.59088-2.7616-1.3188 0-0.72793 1.2748-1.3185 2.7616-1.3185z" style="fill:url(#radialGradient3664);opacity:.40206"/>
 <path id="rect2992" d="m0.47694 19.566h23.042c0.06188 0.12169 0.01004 0.17628 0.02708 0.32374-0.46842 2.6198-0.34865 2.6435-1.1969 2.6435-0.33223 0.03738-13.396 0-20.744 0-0.92114 0-0.68839 0.05096-1.1549-3.0837l0.027089 0.11643z" style="fill:url(#linearGradient3661);stroke-width:.8997;stroke:#59595b"/>
 <rect id="rect6300-2" x="1" y="20" width="22" height="2" style="fill:url(#radialGradient3658);opacity:.3"/>
 <path id="rect2990" d="m2.5243 2.0291-2.0016 17.453c-0.014949 0-0.022616 0.0046-0.022616 0.01759h23c0-0.01301-0.0077-0.01759-0.02261-0.01759l-1.9666-17.493c-0.078761-0.70059-0.79687-1.489-1.5017-1.489h-16.016c-0.70677 0-1.3887 0.82678-1.4692 1.5291z" style="fill:url(#radialGradient3653);stroke-linecap:round;stroke-linejoin:round;stroke-width:1.0001;stroke:url(#linearGradient3655)"/>
 <path id="path2215" d="m1.4991 19.5h21.002" style="fill:none;opacity:.7;stroke-linecap:round;stroke-linejoin:round;stroke:#fff"/>
 <rect id="rect3867" x="2" y="20" width="20" height="1.5" rx=".5" ry=".5" style="fill:#fff;opacity:.5"/>
 <rect id="rect6287-6" x="2" y="20" width="20" height="1" rx=".3" ry=".3" style="fill:#282828"/>
 <rect id="rect3909" x="1.3" y="16.5" width="21.4" height="1" rx=".5" ry=".5" style="fill:#fff;opacity:.5"/>
 <rect id="rect3907" x="1" y="16.5" width="22" height=".5" style="fill:#adadad"/>
</svg>
