<?xml version="1.0" encoding="UTF-8"?>
<!-- Created with Inkscape (http://www.inkscape.org/) -->
<svg id="svg11300" width="24" height="24" version="1.0" xmlns="http://www.w3.org/2000/svg" xmlns:xlink="http://www.w3.org/1999/xlink">
 <defs id="defs3">
  <linearGradient id="linearGradient3028">
   <stop id="stop3030" offset="0"/>
   <stop id="stop3032" style="stop-opacity:0" offset="1"/>
  </linearGradient>
  <linearGradient id="linearGradient5536" x1="-104.53" x2="-104.76" y1="74.24" y2="84.22" gradientTransform="matrix(.18399 0 0 .26054 29.318 -1.1329)" gradientUnits="userSpaceOnUse">
   <stop id="stop6546" style="stop-color:#ebebeb" offset="0"/>
   <stop id="stop6548" style="stop-color:#b4b4b4" offset="1"/>
  </linearGradient>
  <linearGradient id="linearGradient5538" x1="15.114" x2="15.031" y1="18" y2="40" gradientTransform="matrix(.48936 0 0 .61905 .25528 -3.9525)" gradientUnits="userSpaceOnUse">
   <stop id="stop7605" style="stop-color:#b4b4b4" offset="0"/>
   <stop id="stop7607" style="stop-color:#8c8c8c" offset="1"/>
  </linearGradient>
  <radialGradient id="radialGradient5544" cx="3" cy="33.214" r="3" gradientTransform="matrix(0 -.75 1.3333 0 -40.286 35)" gradientUnits="userSpaceOnUse" xlink:href="#linearGradient3028"/>
  <radialGradient id="radialGradient5546" cx="3" cy="33.214" r="3" gradientTransform="matrix(0 -.75 1.3333 0 -88.286 -30.5)" gradientUnits="userSpaceOnUse" xlink:href="#linearGradient3028"/>
  <linearGradient id="linearGradient5548" x1="37.031" x2="37.031" y1="35.063" y2="29.995" gradientTransform="matrix(1 0 0 .88889 0 3.8333)" gradientUnits="userSpaceOnUse">
   <stop id="stop3044" style="stop-opacity:0" offset="0"/>
   <stop id="stop3050" offset=".5"/>
   <stop id="stop3046" style="stop-opacity:0" offset="1"/>
  </linearGradient>
  <radialGradient id="radialGradient5893" cx="12" cy="13" r="10" gradientTransform="matrix(1.5 0 0 .8 -6 2.6)" gradientUnits="userSpaceOnUse">
   <stop id="stop3909" style="stop-color:#fff;stop-opacity:.70588" offset="0"/>
   <stop id="stop3911" style="stop-color:#fff;stop-opacity:.23529" offset="1"/>
  </radialGradient>
  <linearGradient id="linearGradient5580" x1="13" x2="16" y1="2" y2="16" gradientUnits="userSpaceOnUse">
   <stop id="stop4576" style="stop-color:#282828" offset="0"/>
   <stop id="stop4578" style="stop-color:#5a5c58" offset="1"/>
  </linearGradient>
 </defs>
 <g id="g5583" transform="translate(0 -2)">
  <g id="g3052" transform="matrix(.5 0 0 .66667 0 -1.3333)" style="enable-background:new;opacity:.3">
   <rect id="rect3026" y="30.5" width="4" height="4.5" style="fill:url(#radialGradient5544)"/>
   <rect id="rect3036" transform="scale(-1)" x="-48" y="-35" width="4" height="4.5" style="fill:url(#radialGradient5546)"/>
   <rect id="rect3040" x="4" y="30.5" width="40" height="4.5" style="fill:url(#linearGradient5548)"/>
  </g>
  <rect id="rect6674" x=".49996" y="7.5" width="23" height="13" rx=".48936" ry=".59091" style="enable-background:new;fill:url(#linearGradient5536);stroke-width:.99992;stroke:url(#linearGradient5538)"/>
  <path id="path6794" d="m20.916 9.5c0 0.22947-0.18603 0.4155-0.4155 0.4155-0.22948 0-0.4155-0.18603-0.4155-0.4155 0-0.22948 0.18602-0.4155 0.4155-0.4155 0.22947 0 0.4155 0.18603 0.4155 0.4155z" style="enable-background:new;fill:#3ce010;stroke-width:.169;stroke:#297713"/>
  <path id="path6806" d="m21.915 9.5c0 0.22947-0.18603 0.4155-0.4155 0.4155-0.22948 0-0.4155-0.18603-0.4155-0.4155 0-0.22948 0.18602-0.4155 0.4155-0.4155 0.22947 0 0.4155 0.18602 0.4155 0.4155z" style="enable-background:new;fill:#146400;stroke-width:.169;stroke:#154708"/>
  <path id="path6807" d="m19.915 9.5c0 0.22947-0.18603 0.4155-0.4155 0.4155s-0.4155-0.18603-0.4155-0.4155 0.18602-0.4155 0.4155-0.4155 0.4155 0.18603 0.4155 0.4155z" style="enable-background:new;fill:#146400;stroke-width:.169;stroke:#154708"/>
  <path id="rect5550" d="m2 9v1h1v-1h-1zm2 0v1h3v-1h-3zm4 0v1h3v-1h-3zm4 0v1h3v-1h-3zm4 0v1h2v-1h-2zm-14 2v6h13v-6h-13zm14 0v3h2v-3h-2zm3 0v6h3v-6h-3zm-3 4v2h2v-2h-2z" style="fill:url(#linearGradient5580)"/>
  <path id="rect2340" d="m2 9v1h1v-1h-1zm2 0v1h1v-1h-1zm2 0v1h1v-1h-1zm2 0v1h1v-1h-1zm2 0v1h1v-1h-1zm2 0v1h1v-1h-1zm2 0v1h1v-1h-1zm2 0v1h1v-1h-1zm-13 2v1h1v-1h-1zm1 1v1h1v-1h-1zm1 0h1v-1h-1v1zm1 0v1h1v-1h-1zm1 0h1v-1h-1v1zm1 0v1h1v-1h-1zm1 0h1v-1h-1v1zm1 0v1h1v-1h-1zm1 0h1v-1h-1v1zm1 0v1h1v-1h-1zm1 0h1v-1h-1v1zm1 0v1h1v-1h-1zm0 1h-1v1h1v-1zm0 1v1h1v-1h-1zm0 1h-1v1h1v-1zm0 1v1h1v-1h-1zm-1-1v-1h-1v1h1zm-1 0h-1v1h1v-1zm-1 0v-1h-1v1h1zm-1 0h-1v1h1v-1zm-1 0v-1h-1v1h1zm-1 0h-1v1h1v-1zm-1 0v-1h-1v1h1zm-1 0h-1v1h1v-1zm-1 0v-1h-1v1h1zm-1 0h-1v1h1v-1zm-1 1h-1v1h1v-1zm0-1v-1h-1v1h1zm0-1h1v-1h-1v1zm0-1v-1h-1v1h1zm2 1h1v-1h-1v1zm2 0h1v-1h-1v1zm2 0h1v-1h-1v1zm2 0h1v-1h-1v1zm6-3v1h1v-1h-1zm0 1h-1v1h1v-1zm0 1v1h1v-1h-1zm2-2v1h1v-1h-1zm1 1v1h1v-1h-1zm1 0h1v-1h-1v1zm0 1v1h1v-1h-1zm0 1h-1v1h1v-1zm0 1v1h1v-1h-1zm0 1h-1v1h1v-1zm-1 0v-1h-1v1h1zm0-2v-1h-1v1h1zm-4 1v1h1v-1h-1zm1 1v1h1v-1h-1z" style="fill:url(#radialGradient5893);opacity:.6"/>
 </g>
</svg>
