<?xml version="1.0" encoding="UTF-8"?>
<!-- Created with Inkscape (http://www.inkscape.org/) -->
<svg id="svg5069" width="24" height="24" version="1.0" xmlns="http://www.w3.org/2000/svg" xmlns:cc="http://creativecommons.org/ns#" xmlns:dc="http://purl.org/dc/elements/1.1/" xmlns:rdf="http://www.w3.org/1999/02/22-rdf-syntax-ns#" xmlns:xlink="http://www.w3.org/1999/xlink">
 <defs id="defs5071">
  <linearGradient id="linearGradient5060">
   <stop id="stop5062" offset="0"/>
   <stop id="stop5064" style="stop-opacity:0" offset="1"/>
  </linearGradient>
  <linearGradient id="linearGradient5198" x1="302.86" x2="302.86" y1="366.65" y2="609.51" gradientTransform="matrix(3.2949 0 0 2.5953 -2121.9 -1254.2)" gradientUnits="userSpaceOnUse">
   <stop id="stop5050" style="stop-opacity:0" offset="0"/>
   <stop id="stop5056" offset=".5"/>
   <stop id="stop5052" style="stop-opacity:0" offset="1"/>
  </linearGradient>
  <radialGradient id="radialGradient5200" cx="605.71" cy="486.65" r="117.14" gradientTransform="matrix(3.2949 0 0 2.5953 -2121.2 -1254.2)" gradientUnits="userSpaceOnUse" xlink:href="#linearGradient5060"/>
  <radialGradient id="radialGradient5202" cx="605.71" cy="486.65" r="117.14" gradientTransform="matrix(-3.2949 0 0 2.5953 259.22 -1254.2)" gradientUnits="userSpaceOnUse" xlink:href="#linearGradient5060"/>
  <linearGradient id="linearGradient5206" x1="-393.43" x2="-221.41" y1="67.439" y2="68.025" gradientUnits="userSpaceOnUse">
   <stop id="stop3795" style="stop-color:#3f3f3f" offset="0"/>
   <stop id="stop5268" style="stop-color:#3c3c3c" offset=".36093"/>
   <stop id="stop5266" style="stop-color:#2e2e2e" offset=".66032"/>
   <stop id="stop3797" style="stop-color:#202020" offset="1"/>
  </linearGradient>
  <linearGradient id="linearGradient5208" x1="-397.06" x2="-212.12" y1="72.438" y2="72.438" gradientUnits="userSpaceOnUse">
   <stop id="stop3711" style="stop-color:#adadad" offset="0"/>
   <stop id="stop3713" style="stop-color:#434343" offset="1"/>
  </linearGradient>
  <linearGradient id="linearGradient5229" x1="-282.75" x2="-362.78" y1="4.703" y2="11.719" gradientTransform="matrix(.058644 0 0 .06179 30.111 7.1431)" gradientUnits="userSpaceOnUse">
   <stop id="stop3969" style="stop-color:#fff" offset="0"/>
   <stop id="stop3971" style="stop-color:#fff;stop-opacity:0" offset="1"/>
  </linearGradient>
  <linearGradient id="linearGradient5235" x1="-396.4" x2="-134.4" y1="65.211" y2="65.211" gradientTransform="matrix(.065354 0 0 .058664 31.89 7.1757)" gradientUnits="userSpaceOnUse">
   <stop id="stop3733-3" style="stop-color:#cdcdcd" offset="0"/>
   <stop id="stop3735-2" style="stop-color:#303030" offset="1"/>
  </linearGradient>
 </defs>
 <metadata id="metadata5074">
  <rdf:RDF>
   <cc:Work rdf:about="">
    <dc:format>image/svg+xml</dc:format>
    <dc:type rdf:resource="http://purl.org/dc/dcmitype/StillImage"/>
   </cc:Work>
  </rdf:RDF>
 </metadata>
 <g id="layer1">
  <g id="g3661" transform="matrix(.0061508 0 0 .0035513 17.726 22.838)">
   <rect id="rect3663" x="-1726.5" y="-302.63" width="1591" height="630.29" style="fill:url(#linearGradient5198);opacity:.40206"/>
   <path id="path3665" d="m-135.53-302.61v630.26c169.68 1.1864 410.2-141.21 410.2-315.17 0-173.96-189.35-315.09-410.2-315.09z" style="fill:url(#radialGradient5200);opacity:.40206"/>
   <path id="path3667" d="m-1726.5-302.61v630.26c-169.68 1.1864-410.2-141.21-410.2-315.17 0-173.96 189.35-315.09 410.2-315.09z" style="fill:url(#radialGradient5202);opacity:.40206"/>
  </g>
  <g id="g3672" transform="matrix(.069732 0 0 .060305 33.082 6.9492)" style="stroke-width:.10076">
   <rect id="rect3674" x="-398.44" y="-110.02" width="187.69" height="364.93" ry="12.769" style="fill:url(#linearGradient5206);stroke-width:7.8626;stroke:#000"/>
   <path id="path3676" d="m-385.66-108.31c-6.1539 0-11.062 4.9086-11.062 11.062v339.38c0 6.1539 4.9086 11.062 11.062 11.062h162.16c6.1539 0 11.031-4.9036 11.031-11.062v-339.38c0-6.1589-4.8774-11.062-11.031-11.062h-162.16z" style="fill:none;stroke-width:.19232;stroke:url(#linearGradient5208)"/>
  </g>
  <path id="path3686" d="m6.7974 1.5013h10.374c0.17339 0 0.31301 0.16759 0.31301 0.37577v18.248c0 0.20817-0.13962 0.37577-0.31301 0.37577h-10.374c-0.17343 0-0.31301-0.1676-0.31301-0.37577v-0.13173-18.117c0-0.20818 0.13958-0.37577 0.31301-0.37577v0z" style="fill:#030303;stroke-linecap:square;stroke:url(#linearGradient5235)"/>
  <path id="path3688" d="m13.277 2.5249c-0.19254-0.001422-0.3862 0.086217-0.42968 0.2174-0.04142 0.12506 0.04967 0.22477 0.23039 0.25248 0.12582 0.01929 0.28918-0.009434 0.38462-0.067922 0.18507-0.11342 0.18569-0.29973 0.00127-0.36911-0.05829-0.021932-0.12242-0.032373-0.1866-0.032847zm-2.9817 8.35e-4c-0.1249 2.02e-4 -0.25334 0.035661-0.33478 0.10021-0.17757 0.14072-0.10476 0.33177 0.14057 0.36884 0.07281 0.011002 0.1923 0.003083 0.26942-0.017816 0.2661-0.072095 0.34761-0.32124 0.13488-0.41254-0.06136-0.026333-0.13514-0.038814-0.21009-0.038693zm1.4223 0c-0.02563 1.29e-4 -0.05202 0.001565-0.07901 0.004732-0.20058 0.023541-0.3494 0.13578-0.3494 0.26361 0 0.10554 0.09194 0.181 0.24594 0.20182 0.16655 0.022509 0.34462-0.026333 0.44364-0.12137 0.0562-0.053948 0.07719-0.10584 0.06982-0.17314-0.0116-0.10573-0.15154-0.17655-0.33099-0.17565zm3.0309 0.015032-0.12155 0.002506-0.12154 0.002504-0.16565 0.21378c-0.09115 0.11758-0.16604 0.21679-0.16628 0.22047-2.4e-4 0.003675 0.03816 0.006681 0.08537 0.006681h0.086l0.03141-0.040085 0.03142-0.040084h0.11487 0.11488l0.0092 0.037858 0.00889 0.037858 0.21071 0.00501-0.00604-0.020321c-0.00334-0.011201-0.03-0.11165-0.05901-0.22325l-0.05268-0.20293zm-5.5318 5.57e-4c-0.11477 0-0.13029 0.001793-0.13487 0.015588-0.00285 0.008574-0.02597 0.078052-0.05141 0.15449-0.03708 0.11138-0.04633 0.15252-0.04633 0.2071v0.0682h0.0606 0.06031l0.03173-0.091304c0.01733-0.050217 0.03489-0.10095 0.03903-0.11274 0.00591-0.016803 0.01454 0.002921 0.04094 0.091304l0.03395 0.11274h0.05205 0.05204l0.10059-0.097985c0.0554-0.053871 0.10259-0.096523 0.10472-0.094644 0.00331 0.002897-0.04103 0.14778-0.05553 0.18149-0.00537 0.012509 0.10366 0.01494 0.17453 0.003898l0.03968-0.006124 0.0441-0.13807c0.02422-0.075915 0.05504-0.17314 0.06855-0.21601l0.02475-0.077942h-0.13931-0.13899l-0.08569 0.089912-0.08567 0.089634-0.03016-0.089634-0.02982-0.089912h-0.12979zm1.4842 0-0.01079 0.037857c-0.00607 0.020822-0.01563 0.049542-0.02094 0.063746-0.01854 0.04958-0.01788 0.049828 0.09266 0.049828 0.09269 0 0.10175 0.001456 0.09679 0.015588-0.00301 0.008574-0.01941 0.067699-0.0365 0.13139-0.01708 0.06369-0.03342 0.12292-0.03649 0.13167-0.00516 0.014668 0.00231 0.01571 0.0987 0.013362l0.10471-0.002505 0.03269-0.11135c0.01808-0.061241 0.03804-0.12638 0.04411-0.14475l0.01111-0.033403h0.10409 0.1044l0.01745-0.064582c0.00948-0.035519 0.01689-0.069591 0.01682-0.075715-1e-4 -0.008661-0.06879-0.011134-0.3094-0.011134h-0.30941zm1.4858 0-0.06791 0.21267c-0.03732 0.11693-0.0679 0.21714-0.0679 0.22269 0 0.006792 0.03094 0.010021 0.09488 0.010021h0.09488l0.01999-0.06458 0.02-0.064582 0.08219-0.002505c0.10088-0.003163 0.12014 0.007884 0.11011 0.062911-0.00998 0.054758 7.6e-4 0.059945 0.12503 0.059848l0.10789-2.78e-4 0.00255-0.059849c0.00316-0.076073-0.0026-0.097611-0.02793-0.10466-0.02243-0.006244-0.02766-0.022269-0.00729-0.022269 0.02269 0 0.09057-0.055654 0.10503-0.086015 0.01851-0.038853 0.01767-0.087652-0.00191-0.11385-0.03232-0.043283-0.07503-0.049549-0.34304-0.049549h-0.24657zm1.6822 0.001391c-0.01183 4.2e-5 -0.02479 2.07e-4 -0.03839 5.58e-4l-0.09902 0.002504-0.06284 0.20933c-0.03449 0.11513-0.06305 0.21434-0.06346 0.22046-5.8e-4 0.008629 0.0565 0.011135 0.25292 0.011135h0.25355l0.0111-0.037858c0.00616-0.020821 0.01491-0.050885 0.01968-0.066807l0.00888-0.02895h-0.15168c-0.09858 0-0.15137-0.003129-0.15137-0.009186 0-0.00512 0.01828-0.073206 0.04062-0.15115s0.04062-0.14413 0.04062-0.14698c0-0.002135-0.02511-0.003187-0.06061-0.003062zm-1.5124 0.1055h0.08854c0.04861 6.7e-5 0.09849 0.002613 0.11107 0.005567 0.03017 0.007094 0.03036 0.042217 3.1e-4 0.060684-0.01668 0.010255-0.04843 0.013918-0.12186 0.013918-0.0546 0-0.09935-0.003006-0.09932-0.00668 3e-5 -0.003675 0.00497-0.021713 0.01078-0.040085l0.01048-0.033404zm-2.0706 5.57e-4c0.03653 0.001077 0.07128 0.010984 0.09583 0.029506 0.05819 0.043908 0.01969 0.14504-0.06918 0.18177-0.05622 0.023238-0.09573 0.028993-0.13994 0.019764-0.09883-0.020628-0.10817-0.12332-0.01745-0.19319 0.03407-0.026244 0.08377-0.039243 0.13074-0.037858zm2.9519 2.78e-4c0.01389-5.12e-4 0.0285 1.13e-4 0.04411 0.001949 0.06552 0.007709 0.09368 0.031212 0.09742 0.081561 0.00408 0.055082-0.02973 0.10217-0.0914 0.12749-0.08311 0.034133-0.1495 0.031385-0.19738-0.008073-0.04479-0.036901-0.02579-0.11472 0.0403-0.16563 0.03076-0.02369 0.06524-0.035765 0.10695-0.037301zm-1.5267 5.57e-4c0.02573 1.95e-4 0.05044 0.004062 0.07077 0.012526 0.08832 0.036761 0.06267 0.15183-0.04442 0.19903-0.09945 0.043829-0.20554 0.02081-0.22024-0.04788-0.00657-0.030738 0.0144-0.085341 0.04412-0.11469 0.03155-0.03118 0.09318-0.049422 0.14977-0.048993zm2.8634 0.040363 0.01173 0.034796c0.00658 0.019132 0.01258 0.043815 0.013 0.054838 7.2e-4 0.018203-0.00402 0.020042-0.05013 0.020042-0.02792 0-0.05077-0.001928-0.05077-0.004453 0-0.002526 0.01717-0.027208 0.03808-0.054839l0.03809-0.050384z" style="enable-background:new;fill:#fff"/>
  <path id="path3690" transform="matrix(.070836 0 0 .060847 33.576 7.0892)" d="m-385.66-108.31c-6.1539 0-11.062 4.9086-11.062 11.062v339.38c0 6.1539 4.9086 11.062 11.062 11.062h162.16c6.1539 0 11.031-4.9036 11.031-11.062v-339.38c0-6.1589-4.8774-11.062-11.031-11.062h-162.16z" style="fill:none;stroke-width:15.232;stroke:#000"/>
  <rect id="rect3694" x="7.9844" y="4.0013" width="8" height="13" ry="0" style="fill:#2d2d2d"/>
  <path id="path3698" d="m7.5937 1.1668c-0.15561 0-0.28039 0.17223-0.28039 0.38812v18.788 0.1371c0 0.21589 0.12478 0.39005 0.28039 0.39005h2.4722c0.93489-6.5678 1.5932-13.136 1.9957-19.703h-4.4679z" style="fill:url(#linearGradient5229);opacity:.1"/>
  <rect id="rect3766" x="9.9844" y="18.001" width="1.4688" height="1" style="fill:#c7c7c9"/>
  <rect id="rect3768" x="7.9844" y="18.001" width="1.4688" height="1" style="fill:#c7c7c9"/>
  <rect id="rect3770" x="12.516" y="18.001" width="1.4688" height="1" style="fill:#c7c7c9"/>
  <rect id="rect3772" x="14.516" y="18.001" width="1.4688" height="1" style="fill:#c7c7c9"/>
 </g>
</svg>
