<?xml version="1.0" encoding="UTF-8"?>
<!-- Created with Inkscape (http://www.inkscape.org/) -->
<svg id="svg3675" width="128" height="128" version="1.0" xmlns="http://www.w3.org/2000/svg" xmlns:xlink="http://www.w3.org/1999/xlink">
 <defs id="defs3677">
  <linearGradient id="linearGradient2407" x1="63.397" x2="63.397" y1="-12.489" y2="5.4676" gradientTransform="matrix(5.6434 0 0 5.6429 -286.51 83.309)" gradientUnits="userSpaceOnUse">
   <stop id="stop4875" style="stop-color:#fff" offset="0"/>
   <stop id="stop4877" style="stop-color:#fff;stop-opacity:0" offset="1"/>
  </linearGradient>
  <radialGradient id="radialGradient2410" cx="23.896" cy="3.99" r="20.397" gradientTransform="matrix(0 6.1021 -8.0553 0 96.659 -138.26)" gradientUnits="userSpaceOnUse">
   <stop id="stop2778" style="stop-color:#8badea" offset="0"/>
   <stop id="stop2780" style="stop-color:#6396cd" offset=".26238"/>
   <stop id="stop2782" style="stop-color:#3b7caf" offset=".66094"/>
   <stop id="stop2784" style="stop-color:#194c70" offset="1"/>
  </radialGradient>
  <linearGradient id="linearGradient2412" x1="18.379" x2="18.379" y1="44.98" y2="3.0816" gradientTransform="matrix(2.5569 0 0 2.5568 3.1524 2.1354)" gradientUnits="userSpaceOnUse">
   <stop id="stop2788" style="stop-color:#1f4b6a" offset="0"/>
   <stop id="stop2790" style="stop-color:#4083c2" offset="1"/>
  </linearGradient>
  <radialGradient id="radialGradient2415" cx="62.625" cy="4.625" r="10.625" gradientTransform="matrix(5.7751 0 0 2.0086 -297.14 94.223)" gradientUnits="userSpaceOnUse">
   <stop id="stop8840" offset="0"/>
   <stop id="stop8842" style="stop-opacity:0" offset="1"/>
  </radialGradient>
 </defs>
 <path id="path8836" d="m125.88 103.51c0 11.786-27.472 21.341-61.36 21.341-33.888 0-61.36-9.5548-61.36-21.341 0-11.786 27.472-21.341 61.36-21.341 33.888 0 61.36 9.5548 61.36 21.341z" style="fill-rule:evenodd;fill:url(#radialGradient2415);opacity:.5"/>
 <path id="path2555" d="m64.519 11.484c-28.702 0-52.018 23.315-52.018 52.014 0 28.7 23.316 52.014 52.018 52.014 28.702 0 52.018-23.315 52.018-52.014 0-28.7-23.316-52.014-52.018-52.014z" style="fill:url(#radialGradient2410);stroke-linecap:round;stroke-linejoin:round;stroke-width:.99915;stroke:url(#linearGradient2412)"/>
 <path id="path8655" d="m115.5 63.496c0 27.257-22.3 51.241-50.98 51.004-29.513-0.24532-50.674-23.749-51.02-51.004-0.35612-28.087 23.287-51.115 51.02-50.996 27.255 0.11666 50.98 21.96 50.98 50.996z" style="fill:none;opacity:.4;stroke-width:.99915;stroke:url(#linearGradient2407)"/>
 <g id="g3538" transform="matrix(2.67 0 0 2.67 -3.812 -6.168)">
  <path id="path3536" d="m19.759 24.839c0.25815 0.70177 0.54872 1.2706 1.1677 0.4928 0.76735-0.45655 3.3384-2.4578 3.0812-0.49753-0.82326 3.6273-1.8254 7.2164-2.5916 10.855-0.46314 1.95 1.0604 3.7002 2.9177 2.5737 1.9768-1.0014 3.7565-2.2631 5.5314-3.5067-0.24218-0.59393-0.36134-1.3108-1.0728-0.74531-0.8364 0.56783-2.7977 2.354-3.1543 0.8032 0.73806-3.9277 2.1055-7.71 2.9796-11.606 0.55087-2.0873 0.03997-4.1397-2.4336-2.9113-2.2714 1.1951-4.3684 3.0403-6.4253 4.5427zm8.7437-13.165c-2.4038-0.12757-3.6605 3.7025-1.3763 4.7629 1.8532 0.76002 3.871-1.1407 3.4183-3.0399-0.1405-0.98896-1.0284-1.7562-2.0421-1.7229h-1e-6z" style="opacity:.2"/>
  <path id="path3714" d="m19.759 25.213c0.25815 0.70177 0.54872 1.2706 1.1677 0.4928 0.76735-0.45655 3.3384-2.4578 3.0812-0.49753-0.82326 3.6273-1.8254 7.2164-2.5916 10.855-0.46314 1.95 1.0604 3.7002 2.9177 2.5737 1.9768-1.0014 3.7565-2.2631 5.5314-3.5067-0.24218-0.59393-0.36134-1.3108-1.0728-0.74531-0.8364 0.56783-2.7977 2.354-3.1543 0.8032 0.73806-3.9277 2.1055-7.71 2.9796-11.606 0.55087-2.0873 0.03997-4.1397-2.4336-2.9113-2.2714 1.1951-4.3684 3.0403-6.4253 4.5427zm8.7437-13.165c-2.4038-0.12757-3.6605 3.7025-1.3763 4.7629 1.8532 0.76002 3.871-1.1407 3.4183-3.0399-0.1405-0.98896-1.0284-1.7562-2.0421-1.7229h-1e-6z" style="fill:#fff"/>
 </g>
</svg>
