<?xml version="1.0" encoding="UTF-8"?>
<!-- Created with Inkscape (http://www.inkscape.org/) -->
<svg id="svg3956" width="128" height="128" version="1.1" xmlns="http://www.w3.org/2000/svg" xmlns:cc="http://creativecommons.org/ns#" xmlns:dc="http://purl.org/dc/elements/1.1/" xmlns:rdf="http://www.w3.org/1999/02/22-rdf-syntax-ns#" xmlns:xlink="http://www.w3.org/1999/xlink">
 <defs id="defs3958">
  <linearGradient id="linearGradient3905" x1="62.5" x2="62.5" y1="-51.505" y2="51.495" gradientTransform="translate(0 1.0012e-6)" gradientUnits="userSpaceOnUse">
   <stop id="stop4875-7" style="stop-color:#fff" offset="0"/>
   <stop id="stop4877-6" style="stop-color:#fff;stop-opacity:0" offset="1"/>
  </linearGradient>
  <linearGradient id="linearGradient2407" x1="63.397" x2="63.397" y1="-12.489" y2="5.4676" gradientTransform="matrix(5.6434 0 0 5.6429 -286.51 19.309)" gradientUnits="userSpaceOnUse">
   <stop id="stop4875" style="stop-color:#fff" offset="0"/>
   <stop id="stop4877" style="stop-color:#fff;stop-opacity:0" offset="1"/>
  </linearGradient>
  <linearGradient id="linearGradient2932-8" x1="3.6967" x2="19.821" y1="16.723" y2="16.723" gradientTransform="matrix(0 6.8295 -6.5939 0 147.89 -144.81)" gradientUnits="userSpaceOnUse">
   <stop id="stop3358-8-5-6-4" style="stop-color:#808080" offset="0"/>
   <stop id="stop3360-9-9-6-2" style="stop-color:#6d6d6d" offset=".5461"/>
   <stop id="stop3362-6-9-4-9" style="stop-color:#4f5053" offset="1"/>
  </linearGradient>
  <linearGradient id="linearGradient2934-6" x1="56.323" x2="72.452" y1="25.883" y2="25.883" gradientTransform="matrix(0 6.8295 -6.5939 0 226.42 -504.22)" gradientUnits="userSpaceOnUse">
   <stop id="stop3229-0-9-4-0" style="stop-color:#4d4d4d" offset="0"/>
   <stop id="stop3231-1-1-6-4" style="stop-color:#333" offset="1"/>
  </linearGradient>
  <linearGradient id="linearGradient2937-8" x1="17.61" x2="17.61" y1=".99996" y2="23.063" gradientTransform="matrix(4.9528 0 0 4.9526 5.0877 -59.934)" gradientUnits="userSpaceOnUse">
   <stop id="stop3270-6-3-0-2" style="stop-color:#fff" offset="0"/>
   <stop id="stop3272-2-6-5-1" style="stop-color:#cdcdcd" offset="1"/>
  </linearGradient>
  <linearGradient id="linearGradient2939-0" x1="12.963" x2="12.963" y1="2.6838" y2="45.326" gradientTransform="matrix(2.5558 0 0 2.5558 3.181 -61.84)" gradientUnits="userSpaceOnUse">
   <stop id="stop5026-6-2-0-1" style="stop-color:#808080" offset="0"/>
   <stop id="stop5028-2-1-8-1" style="stop-color:#6d6d6d" offset=".87327"/>
   <stop id="stop5030-8-0-5-0" style="stop-color:#4f5053" offset="1"/>
  </linearGradient>
  <radialGradient id="radialGradient3954" cx="62.625" cy="4.625" r="10.625" gradientTransform="matrix(5.7751 0 0 2.0086 -297.14 30.223)" gradientUnits="userSpaceOnUse">
   <stop id="stop8840" offset="0"/>
   <stop id="stop8842" style="stop-opacity:0" offset="1"/>
  </radialGradient>
 </defs>
 <metadata id="metadata3961">
  <rdf:RDF>
   <cc:Work rdf:about="">
    <dc:format>image/svg+xml</dc:format>
    <dc:type rdf:resource="http://purl.org/dc/dcmitype/StillImage"/>
    <dc:title/>
   </cc:Work>
  </rdf:RDF>
 </metadata>
 <g id="layer1" transform="translate(0,64)">
  <path id="path8836" d="m125.88 39.513c0 11.786-27.472 21.341-61.36 21.341-33.888 0-61.36-9.5548-61.36-21.341 0-11.786 27.472-21.341 61.36-21.341 33.888 0 61.36 9.5548 61.36 21.341z" style="fill-rule:evenodd;fill:url(#radialGradient3954);opacity:.5"/>
  <path id="path2555" d="m64.519-52.516c-28.702 0-52.018 23.315-52.018 52.014 0 28.7 23.316 52.014 52.018 52.014 28.702 0 52.018-23.315 52.018-52.014 0-28.7-23.316-52.014-52.018-52.014z" style="color:#000000;fill:url(#linearGradient2937-8);stroke-linecap:round;stroke-linejoin:round;stroke-width:1.0037;stroke:url(#linearGradient2939-0)"/>
  <path id="path2555-2" d="m63.5-52.5c-28.227 0.54981-51 23.644-51 52 0 28.355 22.773 51.419 51 51.969v-103.97z" style="color:#000000;fill:url(#linearGradient2932-8);stroke:url(#linearGradient2934-6)"/>
  <path id="path8655" d="m115.5-0.504c0 27.257-22.3 51.241-50.98 51.004-29.513-0.24532-50.674-23.749-51.02-51.004-0.35612-28.087 23.287-51.115 51.02-50.996 27.255 0.11666 50.98 21.96 50.98 50.996z" style="fill:none;opacity:.4;stroke-width:.99915;stroke:url(#linearGradient2407)"/>
  <path id="path3125" d="m62.5-51.005v102" style="fill:none;opacity:.2;stroke-width:1px;stroke:url(#linearGradient3905)"/>
 </g>
</svg>
